solid Нижняя Балка - натяжитель
facet normal -9.681998618856283e-32 0.7933533402912353 0.6087614290087204
  outer loop
    vertex 111.0 12.898591688967604 7.700000000000003
    vertex 121.0 14.201724394270311 6.001724394270313
    vertex 111.0 14.201724394270311 6.001724394270313
  endloop
endfacet
facet normal -9.681998618856283e-32 0.7933533402912353 0.6087614290087204
  outer loop
    vertex 121.0 14.201724394270311 6.001724394270313
    vertex 111.0 12.898591688967604 7.700000000000003
    vertex 121.0 12.898591688967604 7.700000000000003
  endloop
endfacet
facet normal -0.0 1.0 -0.0
  outer loop
    vertex 41.000000000000014 17.877683830159327 1.9999999999999991
    vertex 116.00000000000001 17.877683830159327 -1.4099832412739488e-14
    vertex 41.000000000000014 17.877683830159327 -1.4099832412739488e-14
  endloop
endfacet
facet normal -0.0 1.0 -0.0
  outer loop
    vertex 116.00000000000001 17.877683830159327 -1.4099832412739488e-14
    vertex 41.000000000000014 17.877683830159327 1.9999999999999991
    vertex 116.00000000000001 17.877683830159327 1.9999999999999991
  endloop
endfacet
facet normal -1.0 0.0 0.0
  outer loop
    vertex 0.0 40.0 15.899999999999999
    vertex 0.0 0.0 0.0
    vertex 0.0 0.0 15.899999999999999
  endloop
endfacet
facet normal -1.0 0.0 0.0
  outer loop
    vertex 0.0 0.0 0.0
    vertex 0.0 40.0 15.899999999999999
    vertex 0.0 40.0 0.0
  endloop
endfacet
facet normal 1.0 -0.0 -0.0
  outer loop
    vertex 41.0 31.0 6.001724394270313
    vertex 41.0 27.101408311032397 7.7
    vertex 41.0 25.79827560572969 6.001724394270313
  endloop
endfacet
facet normal 1.0 -0.0 -0.0
  outer loop
    vertex 41.0 27.101408311032397 7.7
    vertex 41.0 31.0 6.001724394270313
    vertex 41.0 27.92059177557036 9.67768383015933
  endloop
endfacet
facet normal 1.0 -0.0 -0.0
  outer loop
    vertex 41.0 27.92059177557036 9.67768383015933
    vertex 41.0 31.0 6.001724394270313
    vertex 41.0 28.2 11.8
  endloop
endfacet
facet normal 1.0 -0.0 -0.0
  outer loop
    vertex 41.0 27.92059177557036 13.922316169840668
    vertex 41.0 31.0 15.899999999999999
    vertex 41.0 27.101408311032397 15.899999999999999
  endloop
endfacet
facet normal 1.0 -0.0 -0.0
  outer loop
    vertex 41.0 31.0 15.899999999999999
    vertex 41.0 27.92059177557036 13.922316169840668
    vertex 41.0 28.2 11.8
  endloop
endfacet
facet normal 1.0 -0.0 -0.0
  outer loop
    vertex 41.0 31.0 15.899999999999999
    vertex 41.0 28.2 11.8
    vertex 41.0 31.0 6.001724394270313
  endloop
endfacet
facet normal -0.0 -0.0 1.0
  outer loop
    vertex 22.000000000000004 31.0 3.0
    vertex 41.0 35.0 3.0
    vertex 22.000000000000004 39.75 3.0
  endloop
endfacet
facet normal -0.0 -0.0 1.0
  outer loop
    vertex 41.0 35.0 3.0
    vertex 22.000000000000004 31.0 3.0
    vertex 121.0 31.0 3.0
  endloop
endfacet
facet normal -0.0 -0.0 1.0
  outer loop
    vertex 41.0 35.0 3.0
    vertex 121.0 31.0 3.0
    vertex 121.0 35.0 3.0
  endloop
endfacet
facet normal -0.0 -0.0 1.0
  outer loop
    vertex 111.0 25.79827560572969 6.001724394270313
    vertex 41.0 31.0 6.001724394270313
    vertex 41.0 25.79827560572969 6.001724394270313
  endloop
endfacet
facet normal -0.0 -0.0 1.0
  outer loop
    vertex 41.0 31.0 6.001724394270313
    vertex 111.0 25.79827560572969 6.001724394270313
    vertex 111.0 31.0 6.001724394270313
  endloop
endfacet
facet normal -1.0 0.0 0.0
  outer loop
    vertex 111.0 31.0 15.899999999999999
    vertex 111.0 27.920591775570372 13.922316169840668
    vertex 111.0 27.1014083110324 15.899999999999999
  endloop
endfacet
facet normal -1.0 0.0 0.0
  outer loop
    vertex 111.0 27.920591775570372 13.922316169840668
    vertex 111.0 31.0 15.899999999999999
    vertex 111.0 28.200000000000006 11.8
  endloop
endfacet
facet normal -1.0 0.0 0.0
  outer loop
    vertex 111.0 27.1014083110324 7.6999999999999975
    vertex 111.0 31.0 6.001724394270313
    vertex 111.0 25.79827560572969 6.001724394270313
  endloop
endfacet
facet normal -1.0 0.0 0.0
  outer loop
    vertex 111.0 31.0 6.001724394270313
    vertex 111.0 27.1014083110324 7.6999999999999975
    vertex 111.0 27.920591775570372 9.67768383015933
  endloop
endfacet
facet normal -1.0 0.0 0.0
  outer loop
    vertex 111.0 31.0 6.001724394270313
    vertex 111.0 27.920591775570372 9.67768383015933
    vertex 111.0 28.200000000000006 11.8
  endloop
endfacet
facet normal -1.0 0.0 0.0
  outer loop
    vertex 111.0 31.0 6.001724394270313
    vertex 111.0 28.200000000000006 11.8
    vertex 111.0 31.0 15.899999999999999
  endloop
endfacet
facet normal -0.0 -0.0 1.0
  outer loop
    vertex 41.0 5.0 3.0
    vertex 22.000000000000004 9.0 3.0
    vertex 22.000000000000004 0.2499999999999999 3.0
  endloop
endfacet
facet normal -0.0 -0.0 1.0
  outer loop
    vertex 22.000000000000004 9.0 3.0
    vertex 41.0 5.0 3.0
    vertex 121.0 9.0 3.0
  endloop
endfacet
facet normal -0.0 -0.0 1.0
  outer loop
    vertex 121.0 9.0 3.0
    vertex 41.0 5.0 3.0
    vertex 121.0 5.0 3.0
  endloop
endfacet
facet normal 0.0 -1.0 0.0
  outer loop
    vertex 116.00000000000001 22.12231616984067 1.9999999999999991
    vertex 41.000000000000014 22.12231616984067 -1.4099832412739488e-14
    vertex 116.00000000000001 22.12231616984067 -1.4099832412739488e-14
  endloop
endfacet
facet normal 0.0 -1.0 0.0
  outer loop
    vertex 41.000000000000014 22.12231616984067 -1.4099832412739488e-14
    vertex 116.00000000000001 22.12231616984067 1.9999999999999991
    vertex 41.000000000000014 22.12231616984067 1.9999999999999991
  endloop
endfacet
facet normal 0.0 -1.0 0.0
  outer loop
    vertex 21.0 0.0 0.0
    vertex 13.12231616984067 0.0 3.87940822442964
    vertex 0.0 0.0 0.0
  endloop
endfacet
facet normal 0.0 -1.0 0.0
  outer loop
    vertex 13.12231616984067 0.0 3.87940822442964
    vertex 21.0 0.0 0.0
    vertex 15.099999999999994 0.0 4.6985916889676
  endloop
endfacet
facet normal 0.0 -1.0 0.0
  outer loop
    vertex 15.099999999999994 0.0 4.6985916889676
    vertex 21.0 0.0 0.0
    vertex 16.798275605729692 0.0 6.00172439427031
  endloop
endfacet
facet normal 0.0 -1.0 0.0
  outer loop
    vertex 16.798275605729692 0.0 6.00172439427031
    vertex 21.0 0.0 0.0
    vertex 18.101408311032397 0.0 7.6999999999999975
  endloop
endfacet
facet normal 0.0 -1.0 0.0
  outer loop
    vertex 18.101408311032397 0.0 7.6999999999999975
    vertex 21.0 0.0 0.0
    vertex 18.920591775570358 0.0 9.677683830159323
  endloop
endfacet
facet normal 0.0 -1.0 0.0
  outer loop
    vertex 18.920591775570358 0.0 9.677683830159323
    vertex 21.0 0.0 0.0
    vertex 21.0 0.0 15.899999999999999
  endloop
endfacet
facet normal 0.0 -1.0 0.0
  outer loop
    vertex 0.0 0.0 0.0
    vertex 13.12231616984067 0.0 3.87940822442964
    vertex 10.999999999999998 0.0 3.600000000000002
  endloop
endfacet
facet normal 0.0 -1.0 0.0
  outer loop
    vertex 18.920591775570358 0.0 9.677683830159323
    vertex 21.0 0.0 15.899999999999999
    vertex 19.200000000000003 0.0 11.8
  endloop
endfacet
facet normal 0.0 -1.0 0.0
  outer loop
    vertex 19.200000000000003 0.0 11.8
    vertex 21.0 0.0 15.899999999999999
    vertex 18.92059177557036 0.0 13.922316169840673
  endloop
endfacet
facet normal 0.0 -1.0 0.0
  outer loop
    vertex 18.92059177557036 0.0 13.922316169840673
    vertex 21.0 0.0 15.899999999999999
    vertex 18.101408311032397 0.0 15.900000000000002
  endloop
endfacet
facet normal 0.0 -1.0 0.0
  outer loop
    vertex 0.0 0.0 0.0
    vertex 3.8985916889676004 0.0 7.700000000000003
    vertex 0.0 0.0 15.899999999999999
  endloop
endfacet
facet normal 0.0 -1.0 0.0
  outer loop
    vertex 3.8985916889676004 0.0 7.700000000000003
    vertex 0.0 0.0 0.0
    vertex 5.201724394270307 0.0 6.001724394270315
  endloop
endfacet
facet normal 0.0 -1.0 0.0
  outer loop
    vertex 5.201724394270307 0.0 6.001724394270315
    vertex 0.0 0.0 0.0
    vertex 6.899999999999996 0.0 4.698591688967605
  endloop
endfacet
facet normal 0.0 -1.0 0.0
  outer loop
    vertex 6.899999999999996 0.0 4.698591688967605
    vertex 0.0 0.0 0.0
    vertex 8.877683830159324 0.0 3.8794082244296426
  endloop
endfacet
facet normal 0.0 -1.0 0.0
  outer loop
    vertex 8.877683830159324 0.0 3.8794082244296426
    vertex 0.0 0.0 0.0
    vertex 10.999999999999998 0.0 3.600000000000002
  endloop
endfacet
facet normal 0.0 -1.0 0.0
  outer loop
    vertex 0.0 0.0 15.899999999999999
    vertex 3.8985916889676004 0.0 7.700000000000003
    vertex 3.079408224429639 0.0 9.677683830159335
  endloop
endfacet
facet normal 0.0 -1.0 0.0
  outer loop
    vertex 0.0 0.0 15.899999999999999
    vertex 3.079408224429639 0.0 9.677683830159335
    vertex 2.7999999999999994 0.0 11.800000000000004
  endloop
endfacet
facet normal 0.0 -1.0 0.0
  outer loop
    vertex 0.0 0.0 15.899999999999999
    vertex 2.7999999999999994 0.0 11.800000000000004
    vertex 3.0794082244296406 0.0 13.922316169840673
  endloop
endfacet
facet normal 0.0 -1.0 0.0
  outer loop
    vertex 0.0 0.0 15.899999999999999
    vertex 3.0794082244296406 0.0 13.922316169840673
    vertex 3.8985916889676036 0.0 15.900000000000004
  endloop
endfacet
facet normal -0.0 -0.0 1.0
  outer loop
    vertex 111.0 9.0 6.001724394270313
    vertex 41.0 14.201724394270311 6.001724394270313
    vertex 41.0 9.0 6.001724394270313
  endloop
endfacet
facet normal -0.0 -0.0 1.0
  outer loop
    vertex 41.0 14.201724394270311 6.001724394270313
    vertex 111.0 9.0 6.001724394270313
    vertex 111.0 14.201724394270311 6.001724394270313
  endloop
endfacet
facet normal 0.2425356250363329 0.9701425001453321 5.0696004590969323e-17
  outer loop
    vertex 21.0 40.0 0.0
    vertex 22.000000000000004 39.75 3.0
    vertex 41.0 35.0 0.0
  endloop
endfacet
facet normal 0.2425356250363329 0.9701425001453321 5.0696004590969323e-17
  outer loop
    vertex 22.000000000000004 39.75 3.0
    vertex 21.0 40.0 0.0
    vertex 21.0 40.0 15.899999999999999
  endloop
endfacet
facet normal 0.2425356250363329 0.9701425001453321 5.0696004590969323e-17
  outer loop
    vertex 22.000000000000004 39.75 3.0
    vertex 21.0 40.0 15.899999999999999
    vertex 22.000000000000004 39.75 15.899999999999999
  endloop
endfacet
facet normal 0.2425356250363329 0.9701425001453321 5.0696004590969323e-17
  outer loop
    vertex 41.0 35.0 3.0
    vertex 41.0 35.0 0.0
    vertex 22.000000000000004 39.75 3.0
  endloop
endfacet
facet normal -0.0 -0.0 1.0
  outer loop
    vertex 121.0 15.000000000000004 1.9999999999999991
    vertex 41.000000000000014 17.877683830159327 1.9999999999999991
    vertex 41.000000000000014 15.000000000000004 1.9999999999999991
  endloop
endfacet
facet normal -0.0 -0.0 1.0
  outer loop
    vertex 41.000000000000014 17.877683830159327 1.9999999999999991
    vertex 121.0 15.000000000000004 1.9999999999999991
    vertex 116.00000000000001 17.877683830159327 1.9999999999999991
  endloop
endfacet
facet normal -0.0 -0.0 1.0
  outer loop
    vertex 116.00000000000001 17.877683830159327 1.9999999999999991
    vertex 121.0 15.000000000000004 1.9999999999999991
    vertex 116.00000000000001 22.12231616984067 1.9999999999999991
  endloop
endfacet
facet normal -0.0 -0.0 1.0
  outer loop
    vertex 116.00000000000001 22.12231616984067 1.9999999999999991
    vertex 41.000000000000014 25.000000000000004 1.9999999999999991
    vertex 41.000000000000014 22.12231616984067 1.9999999999999991
  endloop
endfacet
facet normal -0.0 -0.0 1.0
  outer loop
    vertex 41.000000000000014 25.000000000000004 1.9999999999999991
    vertex 116.00000000000001 22.12231616984067 1.9999999999999991
    vertex 121.0 25.000000000000004 1.9999999999999991
  endloop
endfacet
facet normal -0.0 -0.0 1.0
  outer loop
    vertex 121.0 25.000000000000004 1.9999999999999991
    vertex 116.00000000000001 22.12231616984067 1.9999999999999991
    vertex 121.0 15.000000000000004 1.9999999999999991
  endloop
endfacet
facet normal 0.0 -1.0 0.0
  outer loop
    vertex 121.0 5.0 3.0
    vertex 41.0 5.0 0.0
    vertex 121.0 5.0 0.0
  endloop
endfacet
facet normal 0.0 -1.0 0.0
  outer loop
    vertex 41.0 5.0 0.0
    vertex 121.0 5.0 3.0
    vertex 41.0 5.0 3.0
  endloop
endfacet
facet normal -0.0 1.0 -0.0
  outer loop
    vertex 41.0 35.0 3.0
    vertex 121.0 35.0 0.0
    vertex 41.0 35.0 0.0
  endloop
endfacet
facet normal -0.0 1.0 -0.0
  outer loop
    vertex 121.0 35.0 0.0
    vertex 41.0 35.0 3.0
    vertex 121.0 35.0 3.0
  endloop
endfacet
facet normal -2.93875397865778e-31 0.9238795325112867 0.38268343236509017
  outer loop
    vertex 111.0 12.07940822442964 9.677683830159332
    vertex 121.0 12.898591688967604 7.700000000000003
    vertex 111.0 12.898591688967604 7.700000000000003
  endloop
endfacet
facet normal -2.93875397865778e-31 0.9238795325112867 0.38268343236509017
  outer loop
    vertex 121.0 12.898591688967604 7.700000000000003
    vertex 111.0 12.07940822442964 9.677683830159332
    vertex 121.0 12.07940822442964 9.677683830159332
  endloop
endfacet
facet normal -1.0 0.0 0.0
  outer loop
    vertex 116.00000000000001 22.12231616984067 1.9999999999999991
    vertex 116.00000000000001 17.877683830159327 -1.4099832412739488e-14
    vertex 116.00000000000001 17.877683830159327 1.9999999999999991
  endloop
endfacet
facet normal -1.0 0.0 0.0
  outer loop
    vertex 116.00000000000001 17.877683830159327 -1.4099832412739488e-14
    vertex 116.00000000000001 22.12231616984067 1.9999999999999991
    vertex 116.00000000000001 22.12231616984067 -1.4099832412739488e-14
  endloop
endfacet
facet normal 0.0 -1.0 0.0
  outer loop
    vertex 121.0 25.000000000000004 5.3891859781486735
    vertex 41.000000000000014 25.000000000000004 1.9999999999999991
    vertex 121.0 25.000000000000004 1.9999999999999991
  endloop
endfacet
facet normal 0.0 -1.0 0.0
  outer loop
    vertex 41.000000000000014 25.000000000000004 1.9999999999999991
    vertex 121.0 25.000000000000004 5.3891859781486735
    vertex 41.000000000000014 25.000000000000004 5.3891859781486735
  endloop
endfacet
facet normal 3.406550419694899e-18 -0.7933533402912331 0.6087614290087234
  outer loop
    vertex 121.0 27.1014083110324 7.6999999999999975
    vertex 111.0 25.79827560572969 6.001724394270313
    vertex 121.0 25.79827560572969 6.001724394270313
  endloop
endfacet
facet normal 3.406550419694899e-18 -0.7933533402912331 0.6087614290087234
  outer loop
    vertex 111.0 25.79827560572969 6.001724394270313
    vertex 121.0 27.1014083110324 7.6999999999999975
    vertex 111.0 27.1014083110324 7.6999999999999975
  endloop
endfacet
facet normal 0.0 -0.9914448613738109 -0.13052619222004835
  outer loop
    vertex 121.0 27.920591775570372 13.922316169840668
    vertex 111.0 28.200000000000006 11.8
    vertex 121.0 28.200000000000006 11.8
  endloop
endfacet
facet normal 0.0 -0.9914448613738109 -0.13052619222004835
  outer loop
    vertex 111.0 28.200000000000006 11.8
    vertex 121.0 27.920591775570372 13.922316169840668
    vertex 111.0 27.920591775570372 13.922316169840668
  endloop
endfacet
facet normal -0.0 0.9914448613738105 0.1305261922200508
  outer loop
    vertex 111.0 11.800000000000002 11.8
    vertex 121.0 12.07940822442964 9.677683830159332
    vertex 111.0 12.07940822442964 9.677683830159332
  endloop
endfacet
facet normal -0.0 0.9914448613738105 0.1305261922200508
  outer loop
    vertex 121.0 12.07940822442964 9.677683830159332
    vertex 111.0 11.800000000000002 11.8
    vertex 121.0 11.800000000000002 11.8
  endloop
endfacet
facet normal 0.0 -0.9914448613738109 0.13052619222004802
  outer loop
    vertex 121.0 28.200000000000006 11.8
    vertex 111.0 27.920591775570372 9.67768383015933
    vertex 121.0 27.920591775570372 9.67768383015933
  endloop
endfacet
facet normal 0.0 -0.9914448613738109 0.13052619222004802
  outer loop
    vertex 111.0 27.920591775570372 9.67768383015933
    vertex 121.0 28.200000000000006 11.8
    vertex 111.0 28.200000000000006 11.8
  endloop
endfacet
facet normal -1.0 0.0 0.0
  outer loop
    vertex 111.0 9.0 15.899999999999999
    vertex 111.0 12.07940822442964 13.922316169840679
    vertex 111.0 9.0 6.001724394270313
  endloop
endfacet
facet normal -1.0 0.0 0.0
  outer loop
    vertex 111.0 12.07940822442964 13.922316169840679
    vertex 111.0 9.0 15.899999999999999
    vertex 111.0 12.898591688967604 15.900000000000004
  endloop
endfacet
facet normal -1.0 0.0 0.0
  outer loop
    vertex 111.0 9.0 6.001724394270313
    vertex 111.0 12.07940822442964 13.922316169840679
    vertex 111.0 11.800000000000002 11.8
  endloop
endfacet
facet normal -1.0 0.0 0.0
  outer loop
    vertex 111.0 9.0 6.001724394270313
    vertex 111.0 12.898591688967604 7.700000000000003
    vertex 111.0 14.201724394270311 6.001724394270313
  endloop
endfacet
facet normal -1.0 0.0 0.0
  outer loop
    vertex 111.0 12.898591688967604 7.700000000000003
    vertex 111.0 9.0 6.001724394270313
    vertex 111.0 12.07940822442964 9.677683830159332
  endloop
endfacet
facet normal -1.0 0.0 0.0
  outer loop
    vertex 111.0 12.07940822442964 9.677683830159332
    vertex 111.0 9.0 6.001724394270313
    vertex 111.0 11.800000000000002 11.8
  endloop
endfacet
facet normal -2.93875397865778e-31 0.9238795325112865 -0.38268343236509056
  outer loop
    vertex 111.0 12.898591688967604 15.900000000000004
    vertex 121.0 12.07940822442964 13.922316169840679
    vertex 111.0 12.07940822442964 13.922316169840679
  endloop
endfacet
facet normal -2.93875397865778e-31 0.9238795325112865 -0.38268343236509056
  outer loop
    vertex 121.0 12.07940822442964 13.922316169840679
    vertex 111.0 12.898591688967604 15.900000000000004
    vertex 121.0 12.898591688967604 15.900000000000004
  endloop
endfacet
facet normal -0.0 -1.4466590541030268e-15 1.0
  outer loop
    vertex 121.0 9.0 15.899999999999999
    vertex 111.0 12.898591688967604 15.900000000000004
    vertex 111.0 9.0 15.899999999999999
  endloop
endfacet
facet normal -0.0 -1.4466590541030268e-15 1.0
  outer loop
    vertex 111.0 12.898591688967604 15.900000000000004
    vertex 121.0 9.0 15.899999999999999
    vertex 121.0 12.898591688967604 15.900000000000004
  endloop
endfacet
facet normal 1.0 5.111721013742615e-15 -8.800680931088896e-15
  outer loop
    vertex 41.000000000000014 22.12231616984067 -1.4099832412739488e-14
    vertex 41.000000000000014 17.877683830159327 1.9999999999999991
    vertex 41.000000000000014 17.877683830159327 -1.4099832412739488e-14
  endloop
endfacet
facet normal 1.0 5.111721013742615e-15 -8.800680931088896e-15
  outer loop
    vertex 41.000000000000014 17.877683830159327 1.9999999999999991
    vertex 41.000000000000014 22.12231616984067 -1.4099832412739488e-14
    vertex 41.000000000000014 17.877683830159327 3.8794082244296426
  endloop
endfacet
facet normal 1.0 5.111721013742615e-15 -8.800680931088896e-15
  outer loop
    vertex 41.000000000000014 17.877683830159327 3.8794082244296426
    vertex 41.000000000000014 22.12231616984067 -1.4099832412739488e-14
    vertex 41.000000000000014 20.0 3.600000000000002
  endloop
endfacet
facet normal 1.0 5.111721013742615e-15 -8.800680931088896e-15
  outer loop
    vertex 41.000000000000014 20.0 3.600000000000002
    vertex 41.000000000000014 22.12231616984067 -1.4099832412739488e-14
    vertex 41.000000000000014 22.12231616984067 3.87940822442964
  endloop
endfacet
facet normal 1.0 5.111721013742615e-15 -8.800680931088896e-15
  outer loop
    vertex 41.000000000000014 22.12231616984067 3.87940822442964
    vertex 41.000000000000014 22.12231616984067 -1.4099832412739488e-14
    vertex 41.000000000000014 22.12231616984067 1.9999999999999991
  endloop
endfacet
facet normal 1.0 5.111721013742615e-15 -8.800680931088896e-15
  outer loop
    vertex 41.000000000000014 22.12231616984067 3.87940822442964
    vertex 41.000000000000014 22.12231616984067 1.9999999999999991
    vertex 41.000000000000014 25.000000000000004 1.9999999999999991
  endloop
endfacet
facet normal 1.0 5.111721013742615e-15 -8.800680931088896e-15
  outer loop
    vertex 41.000000000000014 22.12231616984067 3.87940822442964
    vertex 41.000000000000014 25.000000000000004 1.9999999999999991
    vertex 41.000000000000014 24.099999999999998 4.698591688967605
  endloop
endfacet
facet normal 1.0 5.111721013742615e-15 -8.800680931088896e-15
  outer loop
    vertex 41.000000000000014 24.099999999999998 4.698591688967605
    vertex 41.000000000000014 25.000000000000004 1.9999999999999991
    vertex 41.000000000000014 25.000000000000004 5.3891859781486735
  endloop
endfacet
facet normal 1.0 5.111721013742615e-15 -8.800680931088896e-15
  outer loop
    vertex 41.000000000000014 17.877683830159327 1.9999999999999991
    vertex 41.00000000000011 15.000000000000004 5.389185978148668
    vertex 41.000000000000014 15.000000000000004 1.9999999999999991
  endloop
endfacet
facet normal 1.0 5.111721013742615e-15 -8.800680931088896e-15
  outer loop
    vertex 41.00000000000011 15.000000000000004 5.389185978148668
    vertex 41.000000000000014 17.877683830159327 1.9999999999999991
    vertex 41.00000000000011 15.899999999999999 4.698591688967605
  endloop
endfacet
facet normal 1.0 5.111721013742615e-15 -8.800680931088896e-15
  outer loop
    vertex 41.00000000000011 15.899999999999999 4.698591688967605
    vertex 41.000000000000014 17.877683830159327 1.9999999999999991
    vertex 41.000000000000014 17.877683830159327 3.8794082244296426
  endloop
endfacet
facet normal -0.0 -0.0 1.0
  outer loop
    vertex 121.0 27.1014083110324 15.899999999999999
    vertex 111.0 31.0 15.899999999999999
    vertex 111.0 27.1014083110324 15.899999999999999
  endloop
endfacet
facet normal -0.0 -0.0 1.0
  outer loop
    vertex 111.0 31.0 15.899999999999999
    vertex 121.0 27.1014083110324 15.899999999999999
    vertex 121.0 31.0 15.899999999999999
  endloop
endfacet
facet normal 0.0 -0.9238795325112857 0.3826834323650925
  outer loop
    vertex 121.0 27.920591775570372 9.67768383015933
    vertex 111.0 27.1014083110324 7.6999999999999975
    vertex 121.0 27.1014083110324 7.6999999999999975
  endloop
endfacet
facet normal 0.0 -0.9238795325112857 0.3826834323650925
  outer loop
    vertex 111.0 27.1014083110324 7.6999999999999975
    vertex 121.0 27.920591775570372 9.67768383015933
    vertex 111.0 27.920591775570372 9.67768383015933
  endloop
endfacet
facet normal 0.0 -0.9238795325112857 -0.3826834323650925
  outer loop
    vertex 121.0 27.1014083110324 15.899999999999999
    vertex 111.0 27.920591775570372 13.922316169840668
    vertex 121.0 27.920591775570372 13.922316169840668
  endloop
endfacet
facet normal 0.0 -0.9238795325112857 -0.3826834323650925
  outer loop
    vertex 111.0 27.920591775570372 13.922316169840668
    vertex 121.0 27.1014083110324 15.899999999999999
    vertex 111.0 27.1014083110324 15.899999999999999
  endloop
endfacet
facet normal -0.0 1.0 -0.0
  outer loop
    vertex 41.00000000000011 15.000000000000004 5.389185978148668
    vertex 121.0 15.000000000000004 1.9999999999999991
    vertex 41.000000000000014 15.000000000000004 1.9999999999999991
  endloop
endfacet
facet normal -0.0 1.0 -0.0
  outer loop
    vertex 121.0 15.000000000000004 1.9999999999999991
    vertex 41.00000000000011 15.000000000000004 5.389185978148668
    vertex 121.0 15.000000000000004 5.389185978148668
  endloop
endfacet
facet normal -0.0 0.9914448613738107 -0.1305261922200503
  outer loop
    vertex 111.0 12.07940822442964 13.922316169840679
    vertex 121.0 11.800000000000002 11.8
    vertex 111.0 11.800000000000002 11.8
  endloop
endfacet
facet normal -0.0 0.9914448613738107 -0.1305261922200503
  outer loop
    vertex 121.0 11.800000000000002 11.8
    vertex 111.0 12.07940822442964 13.922316169840679
    vertex 121.0 12.07940822442964 13.922316169840679
  endloop
endfacet
facet normal 0.9238795325112871 -0.0 0.38268343236508895
  outer loop
    vertex 3.8985916889676004 40.00000000000001 7.700000000000003
    vertex 3.079408224429639 0.0 9.677683830159335
    vertex 3.8985916889676004 0.0 7.700000000000003
  endloop
endfacet
facet normal 0.9238795325112871 -0.0 0.38268343236508895
  outer loop
    vertex 3.079408224429639 0.0 9.677683830159335
    vertex 3.8985916889676004 40.00000000000001 7.700000000000003
    vertex 3.079408224429639 40.00000000000001 9.677683830159335
  endloop
endfacet
facet normal 0.9914448613738105 -0.0 0.13052619222005143
  outer loop
    vertex 3.079408224429639 40.00000000000001 9.677683830159335
    vertex 2.7999999999999994 0.0 11.800000000000004
    vertex 3.079408224429639 0.0 9.677683830159335
  endloop
endfacet
facet normal 0.9914448613738105 -0.0 0.13052619222005143
  outer loop
    vertex 2.7999999999999994 0.0 11.800000000000004
    vertex 3.079408224429639 40.00000000000001 9.677683830159335
    vertex 2.7999999999999994 40.00000000000001 11.800000000000004
  endloop
endfacet
facet normal -0.3826834323650891 -0.0 0.9238795325112871
  outer loop
    vertex 15.099999999999994 0.0 4.6985916889676
    vertex 13.12231616984067 40.00000000000001 3.87940822442964
    vertex 13.12231616984067 0.0 3.87940822442964
  endloop
endfacet
facet normal -0.3826834323650891 -0.0 0.9238795325112871
  outer loop
    vertex 13.12231616984067 40.00000000000001 3.87940822442964
    vertex 15.099999999999994 0.0 4.6985916889676
    vertex 15.099999999999994 40.00000000000001 4.6985916889676
  endloop
endfacet
facet normal 0.9238795325112868 -0.0 -0.3826834323650895
  outer loop
    vertex 3.0794082244296406 40.00000000000001 13.922316169840673
    vertex 3.8985916889676036 0.0 15.900000000000004
    vertex 3.0794082244296406 0.0 13.922316169840673
  endloop
endfacet
facet normal 0.9238795325112868 -0.0 -0.3826834323650895
  outer loop
    vertex 3.8985916889676036 0.0 15.900000000000004
    vertex 3.0794082244296406 40.00000000000001 13.922316169840673
    vertex 3.8985916889676036 40.00000000000001 15.900000000000004
  endloop
endfacet
facet normal 0.9914448613738105 -0.0 -0.13052619222005207
  outer loop
    vertex 2.7999999999999994 40.00000000000001 11.800000000000004
    vertex 3.0794082244296406 0.0 13.922316169840673
    vertex 2.7999999999999994 0.0 11.800000000000004
  endloop
endfacet
facet normal 0.9914448613738105 -0.0 -0.13052619222005207
  outer loop
    vertex 3.0794082244296406 0.0 13.922316169840673
    vertex 2.7999999999999994 40.00000000000001 11.800000000000004
    vertex 3.0794082244296406 40.00000000000001 13.922316169840673
  endloop
endfacet
facet normal 0.6087614290087217 -0.0 0.7933533402912345
  outer loop
    vertex 6.899999999999996 0.0 4.698591688967605
    vertex 5.201724394270307 40.00000000000001 6.001724394270315
    vertex 5.201724394270307 0.0 6.001724394270315
  endloop
endfacet
facet normal 0.6087614290087217 -0.0 0.7933533402912345
  outer loop
    vertex 5.201724394270307 40.00000000000001 6.001724394270315
    vertex 6.899999999999996 0.0 4.698591688967605
    vertex 6.899999999999996 40.00000000000001 4.698591688967605
  endloop
endfacet
facet normal 0.7933533402912352 -0.0 0.6087614290087208
  outer loop
    vertex 5.201724394270307 40.00000000000001 6.001724394270315
    vertex 3.8985916889676004 0.0 7.700000000000003
    vertex 5.201724394270307 0.0 6.001724394270315
  endloop
endfacet
facet normal 0.7933533402912352 -0.0 0.6087614290087208
  outer loop
    vertex 3.8985916889676004 0.0 7.700000000000003
    vertex 5.201724394270307 40.00000000000001 6.001724394270315
    vertex 3.8985916889676004 40.00000000000001 7.700000000000003
  endloop
endfacet
facet normal -2.3121757550457552e-18 -0.6087614290087204 0.7933533402912354
  outer loop
    vertex 41.000000000000014 24.099999999999998 4.698591688967605
    vertex 22.00000000000001 25.79827560572969 6.001724394270313
    vertex 22.00000000000001 24.099999999999998 4.698591688967605
  endloop
endfacet
facet normal -2.3121757550457552e-18 -0.6087614290087204 0.7933533402912354
  outer loop
    vertex 22.00000000000001 25.79827560572969 6.001724394270313
    vertex 41.000000000000014 24.099999999999998 4.698591688967605
    vertex 41.0 25.79827560572969 6.001724394270313
  endloop
endfacet
facet normal -2.3121757550457552e-18 -0.6087614290087204 0.7933533402912354
  outer loop
    vertex 41.0 25.79827560572969 6.001724394270313
    vertex 41.000000000000014 24.099999999999998 4.698591688967605
    vertex 41.000000000000014 25.000000000000004 5.3891859781486735
  endloop
endfacet
facet normal -2.3121757550457552e-18 -0.6087614290087204 0.7933533402912354
  outer loop
    vertex 41.0 25.79827560572969 6.001724394270313
    vertex 41.000000000000014 25.000000000000004 5.3891859781486735
    vertex 111.0 25.79827560572969 6.001724394270313
  endloop
endfacet
facet normal -2.3121757550457552e-18 -0.6087614290087204 0.7933533402912354
  outer loop
    vertex 111.0 25.79827560572969 6.001724394270313
    vertex 41.000000000000014 25.000000000000004 5.3891859781486735
    vertex 121.0 25.000000000000004 5.3891859781486735
  endloop
endfacet
facet normal -2.3121757550457552e-18 -0.6087614290087204 0.7933533402912354
  outer loop
    vertex 111.0 25.79827560572969 6.001724394270313
    vertex 121.0 25.000000000000004 5.3891859781486735
    vertex 121.0 25.79827560572969 6.001724394270313
  endloop
endfacet
facet normal -0.7933533402912354 0.0 0.6087614290087204
  outer loop
    vertex 18.101408311032397 40.00000000000001 7.6999999999999975
    vertex 16.798275605729692 0.0 6.00172439427031
    vertex 18.101408311032397 0.0 7.6999999999999975
  endloop
endfacet
facet normal -0.7933533402912354 0.0 0.6087614290087204
  outer loop
    vertex 16.798275605729692 0.0 6.00172439427031
    vertex 18.101408311032397 40.00000000000001 7.6999999999999975
    vertex 16.798275605729692 40.00000000000001 6.00172439427031
  endloop
endfacet
facet normal 0.0 -0.7933533402912349 0.6087614290087212
  outer loop
    vertex 41.0 27.101408311032397 7.7
    vertex 22.00000000000001 25.79827560572969 6.001724394270313
    vertex 41.0 25.79827560572969 6.001724394270313
  endloop
endfacet
facet normal 0.0 -0.7933533402912349 0.6087614290087212
  outer loop
    vertex 22.00000000000001 25.79827560572969 6.001724394270313
    vertex 41.0 27.101408311032397 7.7
    vertex 22.00000000000001 27.101408311032397 7.7
  endloop
endfacet
facet normal -0.9238795325112867 0.0 0.38268343236508995
  outer loop
    vertex 18.920591775570358 40.00000000000001 9.677683830159323
    vertex 18.101408311032397 0.0 7.6999999999999975
    vertex 18.920591775570358 0.0 9.677683830159323
  endloop
endfacet
facet normal -0.9238795325112867 0.0 0.38268343236508995
  outer loop
    vertex 18.101408311032397 0.0 7.6999999999999975
    vertex 18.920591775570358 40.00000000000001 9.677683830159323
    vertex 18.101408311032397 40.00000000000001 7.6999999999999975
  endloop
endfacet
facet normal -2.7035460513883584e-32 -0.3826834323650909 0.9238795325112863
  outer loop
    vertex 41.000000000000014 22.12231616984067 3.87940822442964
    vertex 22.00000000000001 24.099999999999998 4.698591688967605
    vertex 22.00000000000001 22.12231616984067 3.87940822442964
  endloop
endfacet
facet normal -2.7035460513883584e-32 -0.3826834323650909 0.9238795325112863
  outer loop
    vertex 22.00000000000001 24.099999999999998 4.698591688967605
    vertex 41.000000000000014 22.12231616984067 3.87940822442964
    vertex 41.000000000000014 24.099999999999998 4.698591688967605
  endloop
endfacet
facet normal -0.6087614290087199 -0.0 0.7933533402912357
  outer loop
    vertex 16.798275605729692 0.0 6.00172439427031
    vertex 15.099999999999994 40.00000000000001 4.6985916889676
    vertex 15.099999999999994 0.0 4.6985916889676
  endloop
endfacet
facet normal -0.6087614290087199 -0.0 0.7933533402912357
  outer loop
    vertex 15.099999999999994 40.00000000000001 4.6985916889676
    vertex 16.798275605729692 0.0 6.00172439427031
    vertex 16.798275605729692 40.00000000000001 6.00172439427031
  endloop
endfacet
facet normal -5.7505363805591924e-33 -0.13052619222005077 0.9914448613738105
  outer loop
    vertex 41.000000000000014 20.0 3.600000000000002
    vertex 22.00000000000001 22.12231616984067 3.87940822442964
    vertex 22.00000000000001 20.0 3.600000000000002
  endloop
endfacet
facet normal -5.7505363805591924e-33 -0.13052619222005077 0.9914448613738105
  outer loop
    vertex 22.00000000000001 22.12231616984067 3.87940822442964
    vertex 41.000000000000014 20.0 3.600000000000002
    vertex 41.000000000000014 22.12231616984067 3.87940822442964
  endloop
endfacet
facet normal -0.9914448613738103 0.0 0.13052619222005285
  outer loop
    vertex 19.200000000000003 40.00000000000001 11.8
    vertex 18.920591775570358 0.0 9.677683830159323
    vertex 19.200000000000003 0.0 11.8
  endloop
endfacet
facet normal -0.9914448613738103 0.0 0.13052619222005285
  outer loop
    vertex 18.920591775570358 0.0 9.677683830159323
    vertex 19.200000000000003 40.00000000000001 11.8
    vertex 18.920591775570358 40.00000000000001 9.677683830159323
  endloop
endfacet
facet normal -0.9914448613738107 0.0 -0.13052619222005063
  outer loop
    vertex 18.92059177557036 40.00000000000001 13.922316169840673
    vertex 19.200000000000003 0.0 11.8
    vertex 18.92059177557036 0.0 13.922316169840673
  endloop
endfacet
facet normal -0.9914448613738107 0.0 -0.13052619222005063
  outer loop
    vertex 19.200000000000003 0.0 11.8
    vertex 18.92059177557036 40.00000000000001 13.922316169840673
    vertex 19.200000000000003 40.00000000000001 11.8
  endloop
endfacet
facet normal 0.38268343236509 -0.0 0.9238795325112867
  outer loop
    vertex 8.877683830159324 0.0 3.8794082244296426
    vertex 6.899999999999996 40.00000000000001 4.698591688967605
    vertex 6.899999999999996 0.0 4.698591688967605
  endloop
endfacet
facet normal 0.38268343236509 -0.0 0.9238795325112867
  outer loop
    vertex 6.899999999999996 40.00000000000001 4.698591688967605
    vertex 8.877683830159324 0.0 3.8794082244296426
    vertex 8.877683830159324 40.00000000000001 3.8794082244296426
  endloop
endfacet
facet normal -0.9238795325112865 0.0 -0.3826834323650907
  outer loop
    vertex 18.101408311032397 40.00000000000001 15.900000000000002
    vertex 18.92059177557036 0.0 13.922316169840673
    vertex 18.101408311032397 0.0 15.900000000000002
  endloop
endfacet
facet normal -0.9238795325112865 0.0 -0.3826834323650907
  outer loop
    vertex 18.92059177557036 0.0 13.922316169840673
    vertex 18.101408311032397 40.00000000000001 15.900000000000002
    vertex 18.92059177557036 40.00000000000001 13.922316169840673
  endloop
endfacet
facet normal 0.13052619222005174 -0.0 0.9914448613738105
  outer loop
    vertex 10.999999999999998 0.0 3.600000000000002
    vertex 8.877683830159324 40.00000000000001 3.8794082244296426
    vertex 8.877683830159324 0.0 3.8794082244296426
  endloop
endfacet
facet normal 0.13052619222005174 -0.0 0.9914448613738105
  outer loop
    vertex 8.877683830159324 40.00000000000001 3.8794082244296426
    vertex 10.999999999999998 0.0 3.600000000000002
    vertex 10.999999999999998 40.00000000000001 3.600000000000002
  endloop
endfacet
facet normal -0.1305261922200507 -0.0 0.9914448613738107
  outer loop
    vertex 13.12231616984067 0.0 3.87940822442964
    vertex 10.999999999999998 40.00000000000001 3.600000000000002
    vertex 10.999999999999998 0.0 3.600000000000002
  endloop
endfacet
facet normal -0.1305261922200507 -0.0 0.9914448613738107
  outer loop
    vertex 10.999999999999998 40.00000000000001 3.600000000000002
    vertex 13.12231616984067 0.0 3.87940822442964
    vertex 13.12231616984067 40.00000000000001 3.87940822442964
  endloop
endfacet
facet normal -0.0 0.7933533402912354 0.6087614290087207
  outer loop
    vertex 22.00000000000001 12.898591688967604 7.700000000000003
    vertex 41.0 14.201724394270311 6.001724394270313
    vertex 22.00000000000001 14.201724394270311 6.001724394270313
  endloop
endfacet
facet normal -0.0 0.7933533402912354 0.6087614290087207
  outer loop
    vertex 41.0 14.201724394270311 6.001724394270313
    vertex 22.00000000000001 12.898591688967604 7.700000000000003
    vertex 41.0 12.898591688967604 7.700000000000003
  endloop
endfacet
facet normal 0.0 -0.9238795325112865 0.3826834323650907
  outer loop
    vertex 41.0 27.92059177557036 9.67768383015933
    vertex 22.00000000000001 27.101408311032397 7.7
    vertex 41.0 27.101408311032397 7.7
  endloop
endfacet
facet normal 0.0 -0.9238795325112865 0.3826834323650907
  outer loop
    vertex 22.00000000000001 27.101408311032397 7.7
    vertex 41.0 27.92059177557036 9.67768383015933
    vertex 22.00000000000001 27.92059177557036 9.67768383015933
  endloop
endfacet
facet normal -0.0 0.9914448613738105 0.13052619222005143
  outer loop
    vertex 22.00000000000001 11.8 11.8
    vertex 41.0 12.07940822442964 9.677683830159332
    vertex 22.00000000000001 12.07940822442964 9.677683830159332
  endloop
endfacet
facet normal -0.0 0.9914448613738105 0.13052619222005143
  outer loop
    vertex 41.0 12.07940822442964 9.677683830159332
    vertex 22.00000000000001 11.8 11.8
    vertex 41.0 11.8 11.8
  endloop
endfacet
facet normal -0.0 0.9914448613738105 -0.13052619222005155
  outer loop
    vertex 22.00000000000001 12.079408224429642 13.922316169840679
    vertex 41.0 11.8 11.8
    vertex 22.00000000000001 11.8 11.8
  endloop
endfacet
facet normal -0.0 0.9914448613738105 -0.13052619222005155
  outer loop
    vertex 41.0 11.8 11.8
    vertex 22.00000000000001 12.079408224429642 13.922316169840679
    vertex 41.0 12.079408224429642 13.922316169840679
  endloop
endfacet
facet normal -0.0 0.9238795325112867 0.3826834323650901
  outer loop
    vertex 22.00000000000001 12.07940822442964 9.677683830159332
    vertex 41.0 12.898591688967604 7.700000000000003
    vertex 22.00000000000001 12.898591688967604 7.700000000000003
  endloop
endfacet
facet normal -0.0 0.9238795325112867 0.3826834323650901
  outer loop
    vertex 41.0 12.898591688967604 7.700000000000003
    vertex 22.00000000000001 12.07940822442964 9.677683830159332
    vertex 41.0 12.07940822442964 9.677683830159332
  endloop
endfacet
facet normal 0.0 -0.9238795325112867 -0.3826834323650902
  outer loop
    vertex 41.0 27.101408311032397 15.899999999999999
    vertex 22.00000000000001 27.92059177557036 13.922316169840668
    vertex 41.0 27.92059177557036 13.922316169840668
  endloop
endfacet
facet normal 0.0 -0.9238795325112867 -0.3826834323650902
  outer loop
    vertex 22.00000000000001 27.92059177557036 13.922316169840668
    vertex 41.0 27.101408311032397 15.899999999999999
    vertex 22.00000000000001 27.101408311032397 15.899999999999999
  endloop
endfacet
facet normal 0.0 -0.9914448613738107 0.13052619222005063
  outer loop
    vertex 41.0 28.2 11.8
    vertex 22.00000000000001 27.92059177557036 9.67768383015933
    vertex 41.0 27.92059177557036 9.67768383015933
  endloop
endfacet
facet normal 0.0 -0.9914448613738107 0.13052619222005063
  outer loop
    vertex 22.00000000000001 27.92059177557036 9.67768383015933
    vertex 41.0 28.2 11.8
    vertex 22.00000000000001 28.2 11.8
  endloop
endfacet
facet normal 0.0 -0.9914448613738105 -0.13052619222005096
  outer loop
    vertex 41.0 27.92059177557036 13.922316169840668
    vertex 22.00000000000001 28.2 11.8
    vertex 41.0 28.2 11.8
  endloop
endfacet
facet normal 0.0 -0.9914448613738105 -0.13052619222005096
  outer loop
    vertex 22.00000000000001 28.2 11.8
    vertex 41.0 27.92059177557036 13.922316169840668
    vertex 22.00000000000001 27.92059177557036 13.922316169840668
  endloop
endfacet
facet normal -0.0 0.9238795325112862 -0.38268343236509106
  outer loop
    vertex 22.00000000000001 12.898591688967606 15.900000000000004
    vertex 41.0 12.079408224429642 13.922316169840679
    vertex 22.00000000000001 12.079408224429642 13.922316169840679
  endloop
endfacet
facet normal -0.0 0.9238795325112862 -0.38268343236509106
  outer loop
    vertex 41.0 12.079408224429642 13.922316169840679
    vertex 22.00000000000001 12.898591688967606 15.900000000000004
    vertex 41.0 12.898591688967606 15.900000000000004
  endloop
endfacet
facet normal 0.24253562503633302 -0.9701425001453319 -2.0822225315741896e-17
  outer loop
    vertex 41.0 5.0 3.0
    vertex 21.0 0.0 0.0
    vertex 41.0 5.0 0.0
  endloop
endfacet
facet normal 0.24253562503633302 -0.9701425001453319 -2.0822225315741896e-17
  outer loop
    vertex 21.0 0.0 0.0
    vertex 41.0 5.0 3.0
    vertex 22.000000000000004 0.2499999999999999 3.0
  endloop
endfacet
facet normal 0.24253562503633302 -0.9701425001453319 -2.0822225315741896e-17
  outer loop
    vertex 21.0 0.0 0.0
    vertex 22.000000000000004 0.2499999999999999 3.0
    vertex 21.0 0.0 15.899999999999999
  endloop
endfacet
facet normal 0.24253562503633302 -0.9701425001453319 -2.0822225315741896e-17
  outer loop
    vertex 21.0 0.0 15.899999999999999
    vertex 22.000000000000004 0.2499999999999999 3.0
    vertex 22.000000000000004 0.2499999999999999 15.893668999999997
  endloop
endfacet
facet normal 1.0 -0.0 -0.0
  outer loop
    vertex 22.000000000000004 39.75 3.0
    vertex 22.000000000000004 31.0 15.899999999999999
    vertex 22.000000000000004 31.0 3.0
  endloop
endfacet
facet normal 1.0 -0.0 -0.0
  outer loop
    vertex 22.000000000000004 31.0 15.899999999999999
    vertex 22.000000000000004 39.75 3.0
    vertex 22.000000000000004 39.75 15.899999999999999
  endloop
endfacet
facet normal 1.0 -0.0 -0.0
  outer loop
    vertex 22.000000000000004 9.0 3.0
    vertex 22.000000000000004 0.2499999999999999 15.893668999999997
    vertex 22.000000000000004 0.2499999999999999 3.0
  endloop
endfacet
facet normal 1.0 -0.0 -0.0
  outer loop
    vertex 22.000000000000004 0.2499999999999999 15.893668999999997
    vertex 22.000000000000004 9.0 3.0
    vertex 22.000000000000004 9.0 15.899999999999999
  endloop
endfacet
facet normal -2.5734402857511884e-05 -4.0783943694009776e-05 0.9999999988372053
  outer loop
    vertex 22.000000000000004 31.0 15.899999999999999
    vertex 22.00000000000001 27.101408311032397 15.899999999999999
    vertex 41.0 31.0 15.899999999999999
  endloop
endfacet
facet normal -2.5734402857511884e-05 -4.0783943694009776e-05 0.9999999988372053
  outer loop
    vertex 22.00000000000001 27.101408311032397 15.899999999999999
    vertex 22.000000000000004 31.0 15.899999999999999
    vertex 22.00000000000001 12.898591688967606 15.900000000000004
  endloop
endfacet
facet normal -2.5734402857511884e-05 -4.0783943694009776e-05 0.9999999988372053
  outer loop
    vertex 41.0 31.0 15.899999999999999
    vertex 22.00000000000001 27.101408311032397 15.899999999999999
    vertex 41.0 27.101408311032397 15.899999999999999
  endloop
endfacet
facet normal -2.5734402857511884e-05 -4.0783943694009776e-05 0.9999999988372053
  outer loop
    vertex 22.000000000000004 9.0 15.899999999999999
    vertex 22.00000000000001 12.898591688967606 15.900000000000004
    vertex 22.000000000000004 31.0 15.899999999999999
  endloop
endfacet
facet normal -2.5734402857511884e-05 -4.0783943694009776e-05 0.9999999988372053
  outer loop
    vertex 22.00000000000001 12.898591688967606 15.900000000000004
    vertex 22.000000000000004 9.0 15.899999999999999
    vertex 41.0 9.0 15.899999999999999
  endloop
endfacet
facet normal -2.5734402857511884e-05 -4.0783943694009776e-05 0.9999999988372053
  outer loop
    vertex 22.00000000000001 12.898591688967606 15.900000000000004
    vertex 41.0 9.0 15.899999999999999
    vertex 41.0 12.898591688967606 15.900000000000004
  endloop
endfacet
facet normal -2.5734402857511884e-05 -4.0783943694009776e-05 0.9999999988372053
  outer loop
    vertex 21.0 0.0 15.899999999999999
    vertex 18.101408311032397 40.00000000000001 15.900000000000002
    vertex 18.101408311032397 0.0 15.900000000000002
  endloop
endfacet
facet normal -2.5734402857511884e-05 -4.0783943694009776e-05 0.9999999988372053
  outer loop
    vertex 18.101408311032397 40.00000000000001 15.900000000000002
    vertex 21.0 0.0 15.899999999999999
    vertex 21.0 40.0 15.899999999999999
  endloop
endfacet
facet normal -2.5734402857511884e-05 -4.0783943694009776e-05 0.9999999988372053
  outer loop
    vertex 21.0 40.0 15.899999999999999
    vertex 21.0 0.0 15.899999999999999
    vertex 22.000000000000004 0.2499999999999999 15.893668999999997
  endloop
endfacet
facet normal -2.5734402857511884e-05 -4.0783943694009776e-05 0.9999999988372053
  outer loop
    vertex 21.0 40.0 15.899999999999999
    vertex 22.000000000000004 0.2499999999999999 15.893668999999997
    vertex 22.000000000000004 39.75 15.899999999999999
  endloop
endfacet
facet normal -2.5734402857511884e-05 -4.0783943694009776e-05 0.9999999988372053
  outer loop
    vertex 22.000000000000004 39.75 15.899999999999999
    vertex 22.000000000000004 0.2499999999999999 15.893668999999997
    vertex 22.000000000000004 9.0 15.899999999999999
  endloop
endfacet
facet normal -2.5734402857511884e-05 -4.0783943694009776e-05 0.9999999988372053
  outer loop
    vertex 22.000000000000004 39.75 15.899999999999999
    vertex 22.000000000000004 9.0 15.899999999999999
    vertex 22.000000000000004 31.0 15.899999999999999
  endloop
endfacet
facet normal -0.0 0.13052619222005188 0.9914448613738105
  outer loop
    vertex 41.000000000000014 17.877683830159327 3.8794082244296426
    vertex 22.00000000000001 20.0 3.600000000000002
    vertex 22.00000000000001 17.877683830159327 3.8794082244296426
  endloop
endfacet
facet normal -0.0 0.13052619222005188 0.9914448613738105
  outer loop
    vertex 22.00000000000001 20.0 3.600000000000002
    vertex 41.000000000000014 17.877683830159327 3.8794082244296426
    vertex 41.000000000000014 20.0 3.600000000000002
  endloop
endfacet
facet normal 1.0 -0.0 -0.0
  outer loop
    vertex 41.0 9.0 6.001724394270313
    vertex 41.0 12.898591688967604 7.700000000000003
    vertex 41.0 9.0 15.899999999999999
  endloop
endfacet
facet normal 1.0 -0.0 -0.0
  outer loop
    vertex 41.0 12.898591688967604 7.700000000000003
    vertex 41.0 9.0 6.001724394270313
    vertex 41.0 14.201724394270311 6.001724394270313
  endloop
endfacet
facet normal 1.0 -0.0 -0.0
  outer loop
    vertex 41.0 9.0 15.899999999999999
    vertex 41.0 12.898591688967604 7.700000000000003
    vertex 41.0 12.07940822442964 9.677683830159332
  endloop
endfacet
facet normal 1.0 -0.0 -0.0
  outer loop
    vertex 41.0 9.0 15.899999999999999
    vertex 41.0 12.07940822442964 9.677683830159332
    vertex 41.0 11.8 11.8
  endloop
endfacet
facet normal 1.0 -0.0 -0.0
  outer loop
    vertex 41.0 9.0 15.899999999999999
    vertex 41.0 12.079408224429642 13.922316169840679
    vertex 41.0 12.898591688967606 15.900000000000004
  endloop
endfacet
facet normal 1.0 -0.0 -0.0
  outer loop
    vertex 41.0 12.079408224429642 13.922316169840679
    vertex 41.0 9.0 15.899999999999999
    vertex 41.0 11.8 11.8
  endloop
endfacet
facet normal -1.541450503363838e-18 0.608761429008721 0.7933533402912349
  outer loop
    vertex 111.0 14.201724394270311 6.001724394270313
    vertex 41.00000000000011 15.000000000000004 5.389185978148668
    vertex 41.0 14.201724394270311 6.001724394270313
  endloop
endfacet
facet normal -1.541450503363838e-18 0.608761429008721 0.7933533402912349
  outer loop
    vertex 41.00000000000011 15.000000000000004 5.389185978148668
    vertex 111.0 14.201724394270311 6.001724394270313
    vertex 121.0 15.000000000000004 5.389185978148668
  endloop
endfacet
facet normal -1.541450503363838e-18 0.608761429008721 0.7933533402912349
  outer loop
    vertex 121.0 15.000000000000004 5.389185978148668
    vertex 111.0 14.201724394270311 6.001724394270313
    vertex 121.0 14.201724394270311 6.001724394270313
  endloop
endfacet
facet normal -1.541450503363838e-18 0.608761429008721 0.7933533402912349
  outer loop
    vertex 41.0 14.201724394270311 6.001724394270313
    vertex 22.00000000000001 15.899999999999999 4.698591688967605
    vertex 22.00000000000001 14.201724394270311 6.001724394270313
  endloop
endfacet
facet normal -1.541450503363838e-18 0.608761429008721 0.7933533402912349
  outer loop
    vertex 22.00000000000001 15.899999999999999 4.698591688967605
    vertex 41.0 14.201724394270311 6.001724394270313
    vertex 41.00000000000011 15.899999999999999 4.698591688967605
  endloop
endfacet
facet normal -1.541450503363838e-18 0.608761429008721 0.7933533402912349
  outer loop
    vertex 41.00000000000011 15.899999999999999 4.698591688967605
    vertex 41.0 14.201724394270311 6.001724394270313
    vertex 41.00000000000011 15.000000000000004 5.389185978148668
  endloop
endfacet
facet normal 1.0 -0.0 -0.0
  outer loop
    vertex 22.00000000000001 12.07940822442964 9.677683830159332
    vertex 22.00000000000001 12.079408224429642 13.922316169840679
    vertex 22.00000000000001 11.8 11.8
  endloop
endfacet
facet normal 1.0 -0.0 -0.0
  outer loop
    vertex 22.00000000000001 12.079408224429642 13.922316169840679
    vertex 22.00000000000001 12.07940822442964 9.677683830159332
    vertex 22.00000000000001 12.898591688967604 7.700000000000003
  endloop
endfacet
facet normal 1.0 -0.0 -0.0
  outer loop
    vertex 22.00000000000001 12.079408224429642 13.922316169840679
    vertex 22.00000000000001 12.898591688967604 7.700000000000003
    vertex 22.00000000000001 12.898591688967606 15.900000000000004
  endloop
endfacet
facet normal 1.0 -0.0 -0.0
  outer loop
    vertex 22.00000000000001 12.898591688967606 15.900000000000004
    vertex 22.00000000000001 12.898591688967604 7.700000000000003
    vertex 22.00000000000001 14.201724394270311 6.001724394270313
  endloop
endfacet
facet normal 1.0 -0.0 -0.0
  outer loop
    vertex 22.00000000000001 12.898591688967606 15.900000000000004
    vertex 22.00000000000001 14.201724394270311 6.001724394270313
    vertex 22.00000000000001 27.101408311032397 15.899999999999999
  endloop
endfacet
facet normal 1.0 -0.0 -0.0
  outer loop
    vertex 22.00000000000001 27.101408311032397 15.899999999999999
    vertex 22.00000000000001 14.201724394270311 6.001724394270313
    vertex 22.00000000000001 15.899999999999999 4.698591688967605
  endloop
endfacet
facet normal 1.0 -0.0 -0.0
  outer loop
    vertex 22.00000000000001 27.101408311032397 15.899999999999999
    vertex 22.00000000000001 15.899999999999999 4.698591688967605
    vertex 22.00000000000001 17.877683830159327 3.8794082244296426
  endloop
endfacet
facet normal 1.0 -0.0 -0.0
  outer loop
    vertex 22.00000000000001 27.101408311032397 15.899999999999999
    vertex 22.00000000000001 17.877683830159327 3.8794082244296426
    vertex 22.00000000000001 20.0 3.600000000000002
  endloop
endfacet
facet normal 1.0 -0.0 -0.0
  outer loop
    vertex 22.00000000000001 27.101408311032397 15.899999999999999
    vertex 22.00000000000001 20.0 3.600000000000002
    vertex 22.00000000000001 22.12231616984067 3.87940822442964
  endloop
endfacet
facet normal 1.0 -0.0 -0.0
  outer loop
    vertex 22.00000000000001 27.101408311032397 15.899999999999999
    vertex 22.00000000000001 22.12231616984067 3.87940822442964
    vertex 22.00000000000001 24.099999999999998 4.698591688967605
  endloop
endfacet
facet normal 1.0 -0.0 -0.0
  outer loop
    vertex 22.00000000000001 27.101408311032397 15.899999999999999
    vertex 22.00000000000001 24.099999999999998 4.698591688967605
    vertex 22.00000000000001 25.79827560572969 6.001724394270313
  endloop
endfacet
facet normal 1.0 -0.0 -0.0
  outer loop
    vertex 22.00000000000001 27.101408311032397 15.899999999999999
    vertex 22.00000000000001 25.79827560572969 6.001724394270313
    vertex 22.00000000000001 27.101408311032397 7.7
  endloop
endfacet
facet normal 1.0 -0.0 -0.0
  outer loop
    vertex 22.00000000000001 27.101408311032397 15.899999999999999
    vertex 22.00000000000001 27.101408311032397 7.7
    vertex 22.00000000000001 27.92059177557036 9.67768383015933
  endloop
endfacet
facet normal 1.0 -0.0 -0.0
  outer loop
    vertex 22.00000000000001 27.101408311032397 15.899999999999999
    vertex 22.00000000000001 27.92059177557036 9.67768383015933
    vertex 22.00000000000001 27.92059177557036 13.922316169840668
  endloop
endfacet
facet normal 1.0 -0.0 -0.0
  outer loop
    vertex 22.00000000000001 27.92059177557036 13.922316169840668
    vertex 22.00000000000001 27.92059177557036 9.67768383015933
    vertex 22.00000000000001 28.2 11.8
  endloop
endfacet
facet normal 3.926410815176245e-19 0.3826834323650898 0.9238795325112867
  outer loop
    vertex 41.00000000000011 15.899999999999999 4.698591688967605
    vertex 22.00000000000001 17.877683830159327 3.8794082244296426
    vertex 22.00000000000001 15.899999999999999 4.698591688967605
  endloop
endfacet
facet normal 3.926410815176245e-19 0.3826834323650898 0.9238795325112867
  outer loop
    vertex 22.00000000000001 17.877683830159327 3.8794082244296426
    vertex 41.00000000000011 15.899999999999999 4.698591688967605
    vertex 41.000000000000014 17.877683830159327 3.8794082244296426
  endloop
endfacet
facet normal -0.0 1.0 -0.0
  outer loop
    vertex 22.000000000000004 31.0 3.0
    vertex 41.0 31.0 6.001724394270313
    vertex 121.0 31.0 3.0
  endloop
endfacet
facet normal -0.0 1.0 -0.0
  outer loop
    vertex 41.0 31.0 6.001724394270313
    vertex 22.000000000000004 31.0 3.0
    vertex 22.000000000000004 31.0 15.899999999999999
  endloop
endfacet
facet normal -0.0 1.0 -0.0
  outer loop
    vertex 41.0 31.0 6.001724394270313
    vertex 22.000000000000004 31.0 15.899999999999999
    vertex 41.0 31.0 15.899999999999999
  endloop
endfacet
facet normal -0.0 1.0 -0.0
  outer loop
    vertex 121.0 31.0 3.0
    vertex 111.0 31.0 6.001724394270313
    vertex 121.0 31.0 15.899999999999999
  endloop
endfacet
facet normal -0.0 1.0 -0.0
  outer loop
    vertex 111.0 31.0 6.001724394270313
    vertex 121.0 31.0 3.0
    vertex 41.0 31.0 6.001724394270313
  endloop
endfacet
facet normal -0.0 1.0 -0.0
  outer loop
    vertex 121.0 31.0 15.899999999999999
    vertex 111.0 31.0 6.001724394270313
    vertex 111.0 31.0 15.899999999999999
  endloop
endfacet
facet normal -7.978842901058024e-18 1.0 -3.0166276183607054e-17
  outer loop
    vertex 0.0 40.0 0.0
    vertex 8.877683830159324 40.00000000000001 3.8794082244296426
    vertex 21.0 40.0 0.0
  endloop
endfacet
facet normal -7.978842901058024e-18 1.0 -3.0166276183607054e-17
  outer loop
    vertex 8.877683830159324 40.00000000000001 3.8794082244296426
    vertex 0.0 40.0 0.0
    vertex 6.899999999999996 40.00000000000001 4.698591688967605
  endloop
endfacet
facet normal -7.978842901058024e-18 1.0 -3.0166276183607054e-17
  outer loop
    vertex 6.899999999999996 40.00000000000001 4.698591688967605
    vertex 0.0 40.0 0.0
    vertex 5.201724394270307 40.00000000000001 6.001724394270315
  endloop
endfacet
facet normal -7.978842901058024e-18 1.0 -3.0166276183607054e-17
  outer loop
    vertex 5.201724394270307 40.00000000000001 6.001724394270315
    vertex 0.0 40.0 0.0
    vertex 3.8985916889676004 40.00000000000001 7.700000000000003
  endloop
endfacet
facet normal -7.978842901058024e-18 1.0 -3.0166276183607054e-17
  outer loop
    vertex 3.8985916889676004 40.00000000000001 7.700000000000003
    vertex 0.0 40.0 0.0
    vertex 0.0 40.0 15.899999999999999
  endloop
endfacet
facet normal -7.978842901058024e-18 1.0 -3.0166276183607054e-17
  outer loop
    vertex 21.0 40.0 0.0
    vertex 8.877683830159324 40.00000000000001 3.8794082244296426
    vertex 10.999999999999998 40.00000000000001 3.600000000000002
  endloop
endfacet
facet normal -7.978842901058024e-18 1.0 -3.0166276183607054e-17
  outer loop
    vertex 3.8985916889676004 40.00000000000001 7.700000000000003
    vertex 0.0 40.0 15.899999999999999
    vertex 3.079408224429639 40.00000000000001 9.677683830159335
  endloop
endfacet
facet normal -7.978842901058024e-18 1.0 -3.0166276183607054e-17
  outer loop
    vertex 3.079408224429639 40.00000000000001 9.677683830159335
    vertex 0.0 40.0 15.899999999999999
    vertex 2.7999999999999994 40.00000000000001 11.800000000000004
  endloop
endfacet
facet normal -7.978842901058024e-18 1.0 -3.0166276183607054e-17
  outer loop
    vertex 2.7999999999999994 40.00000000000001 11.800000000000004
    vertex 0.0 40.0 15.899999999999999
    vertex 3.0794082244296406 40.00000000000001 13.922316169840673
  endloop
endfacet
facet normal -7.978842901058024e-18 1.0 -3.0166276183607054e-17
  outer loop
    vertex 3.0794082244296406 40.00000000000001 13.922316169840673
    vertex 0.0 40.0 15.899999999999999
    vertex 3.8985916889676036 40.00000000000001 15.900000000000004
  endloop
endfacet
facet normal -7.978842901058024e-18 1.0 -3.0166276183607054e-17
  outer loop
    vertex 21.0 40.0 0.0
    vertex 18.920591775570358 40.00000000000001 9.677683830159323
    vertex 21.0 40.0 15.899999999999999
  endloop
endfacet
facet normal -7.978842901058024e-18 1.0 -3.0166276183607054e-17
  outer loop
    vertex 18.920591775570358 40.00000000000001 9.677683830159323
    vertex 21.0 40.0 0.0
    vertex 18.101408311032397 40.00000000000001 7.6999999999999975
  endloop
endfacet
facet normal -7.978842901058024e-18 1.0 -3.0166276183607054e-17
  outer loop
    vertex 18.101408311032397 40.00000000000001 7.6999999999999975
    vertex 21.0 40.0 0.0
    vertex 16.798275605729692 40.00000000000001 6.00172439427031
  endloop
endfacet
facet normal -7.978842901058024e-18 1.0 -3.0166276183607054e-17
  outer loop
    vertex 16.798275605729692 40.00000000000001 6.00172439427031
    vertex 21.0 40.0 0.0
    vertex 15.099999999999994 40.00000000000001 4.6985916889676
  endloop
endfacet
facet normal -7.978842901058024e-18 1.0 -3.0166276183607054e-17
  outer loop
    vertex 15.099999999999994 40.00000000000001 4.6985916889676
    vertex 21.0 40.0 0.0
    vertex 13.12231616984067 40.00000000000001 3.87940822442964
  endloop
endfacet
facet normal -7.978842901058024e-18 1.0 -3.0166276183607054e-17
  outer loop
    vertex 13.12231616984067 40.00000000000001 3.87940822442964
    vertex 21.0 40.0 0.0
    vertex 10.999999999999998 40.00000000000001 3.600000000000002
  endloop
endfacet
facet normal -7.978842901058024e-18 1.0 -3.0166276183607054e-17
  outer loop
    vertex 21.0 40.0 15.899999999999999
    vertex 18.920591775570358 40.00000000000001 9.677683830159323
    vertex 19.200000000000003 40.00000000000001 11.8
  endloop
endfacet
facet normal -7.978842901058024e-18 1.0 -3.0166276183607054e-17
  outer loop
    vertex 21.0 40.0 15.899999999999999
    vertex 19.200000000000003 40.00000000000001 11.8
    vertex 18.92059177557036 40.00000000000001 13.922316169840673
  endloop
endfacet
facet normal -7.978842901058024e-18 1.0 -3.0166276183607054e-17
  outer loop
    vertex 21.0 40.0 15.899999999999999
    vertex 18.92059177557036 40.00000000000001 13.922316169840673
    vertex 18.101408311032397 40.00000000000001 15.900000000000002
  endloop
endfacet
facet normal 0.0 -1.0 0.0
  outer loop
    vertex 22.000000000000004 9.0 3.0
    vertex 41.0 9.0 6.001724394270313
    vertex 22.000000000000004 9.0 15.899999999999999
  endloop
endfacet
facet normal 0.0 -1.0 0.0
  outer loop
    vertex 41.0 9.0 6.001724394270313
    vertex 22.000000000000004 9.0 3.0
    vertex 111.0 9.0 6.001724394270313
  endloop
endfacet
facet normal 0.0 -1.0 0.0
  outer loop
    vertex 22.000000000000004 9.0 15.899999999999999
    vertex 41.0 9.0 6.001724394270313
    vertex 41.0 9.0 15.899999999999999
  endloop
endfacet
facet normal 0.0 -1.0 0.0
  outer loop
    vertex 121.0 9.0 3.0
    vertex 111.0 9.0 6.001724394270313
    vertex 22.000000000000004 9.0 3.0
  endloop
endfacet
facet normal 0.0 -1.0 0.0
  outer loop
    vertex 111.0 9.0 6.001724394270313
    vertex 121.0 9.0 3.0
    vertex 121.0 9.0 15.899999999999999
  endloop
endfacet
facet normal 0.0 -1.0 0.0
  outer loop
    vertex 111.0 9.0 6.001724394270313
    vertex 121.0 9.0 15.899999999999999
    vertex 111.0 9.0 15.899999999999999
  endloop
endfacet
facet normal -1.4466590541030268e-15 2.2027124439559985e-33 1.0
  outer loop
    vertex 3.8985916889676036 0.0 15.900000000000004
    vertex 0.0 40.0 15.899999999999999
    vertex 0.0 0.0 15.899999999999999
  endloop
endfacet
facet normal -1.4466590541030268e-15 2.2027124439559985e-33 1.0
  outer loop
    vertex 0.0 40.0 15.899999999999999
    vertex 3.8985916889676036 0.0 15.900000000000004
    vertex 3.8985916889676036 40.00000000000001 15.900000000000004
  endloop
endfacet
facet normal 1.0 1.1007636793561888e-30 -2.3540868055434413e-32
  outer loop
    vertex 121.0 15.000000000000004 5.389185978148668
    vertex 121.0 14.201724394270311 6.001724394270313
    vertex 121.0 15.000000000000004 1.9999999999999991
  endloop
endfacet
facet normal 1.0 1.1007636793561888e-30 -2.3540868055434413e-32
  outer loop
    vertex 121.0 5.0 0.0
    vertex 121.0 15.000000000000004 1.9999999999999991
    vertex 121.0 5.0 3.0
  endloop
endfacet
facet normal 1.0 1.1007636793561888e-30 -2.3540868055434413e-32
  outer loop
    vertex 121.0 15.000000000000004 1.9999999999999991
    vertex 121.0 5.0 0.0
    vertex 121.0 35.0 0.0
  endloop
endfacet
facet normal 1.0 1.1007636793561888e-30 -2.3540868055434413e-32
  outer loop
    vertex 121.0 5.0 3.0
    vertex 121.0 15.000000000000004 1.9999999999999991
    vertex 121.0 9.0 3.0
  endloop
endfacet
facet normal 1.0 1.1007636793561888e-30 -2.3540868055434413e-32
  outer loop
    vertex 121.0 9.0 3.0
    vertex 121.0 15.000000000000004 1.9999999999999991
    vertex 121.0 9.0 15.899999999999999
  endloop
endfacet
facet normal 1.0 1.1007636793561888e-30 -2.3540868055434413e-32
  outer loop
    vertex 121.0 9.0 15.899999999999999
    vertex 121.0 15.000000000000004 1.9999999999999991
    vertex 121.0 12.07940822442964 9.677683830159332
  endloop
endfacet
facet normal 1.0 1.1007636793561888e-30 -2.3540868055434413e-32
  outer loop
    vertex 121.0 9.0 15.899999999999999
    vertex 121.0 12.07940822442964 9.677683830159332
    vertex 121.0 11.800000000000002 11.8
  endloop
endfacet
facet normal 1.0 1.1007636793561888e-30 -2.3540868055434413e-32
  outer loop
    vertex 121.0 12.07940822442964 9.677683830159332
    vertex 121.0 15.000000000000004 1.9999999999999991
    vertex 121.0 12.898591688967604 7.700000000000003
  endloop
endfacet
facet normal 1.0 1.1007636793561888e-30 -2.3540868055434413e-32
  outer loop
    vertex 121.0 12.898591688967604 7.700000000000003
    vertex 121.0 15.000000000000004 1.9999999999999991
    vertex 121.0 14.201724394270311 6.001724394270313
  endloop
endfacet
facet normal 1.0 1.1007636793561888e-30 -2.3540868055434413e-32
  outer loop
    vertex 121.0 15.000000000000004 1.9999999999999991
    vertex 121.0 35.0 0.0
    vertex 121.0 25.000000000000004 1.9999999999999991
  endloop
endfacet
facet normal 1.0 1.1007636793561888e-30 -2.3540868055434413e-32
  outer loop
    vertex 121.0 25.000000000000004 1.9999999999999991
    vertex 121.0 35.0 0.0
    vertex 121.0 25.000000000000004 5.3891859781486735
  endloop
endfacet
facet normal 1.0 1.1007636793561888e-30 -2.3540868055434413e-32
  outer loop
    vertex 121.0 25.000000000000004 5.3891859781486735
    vertex 121.0 35.0 0.0
    vertex 121.0 25.79827560572969 6.001724394270313
  endloop
endfacet
facet normal 1.0 1.1007636793561888e-30 -2.3540868055434413e-32
  outer loop
    vertex 121.0 25.79827560572969 6.001724394270313
    vertex 121.0 35.0 0.0
    vertex 121.0 31.0 3.0
  endloop
endfacet
facet normal 1.0 1.1007636793561888e-30 -2.3540868055434413e-32
  outer loop
    vertex 121.0 25.79827560572969 6.001724394270313
    vertex 121.0 31.0 3.0
    vertex 121.0 27.1014083110324 7.6999999999999975
  endloop
endfacet
facet normal 1.0 1.1007636793561888e-30 -2.3540868055434413e-32
  outer loop
    vertex 121.0 27.1014083110324 7.6999999999999975
    vertex 121.0 31.0 3.0
    vertex 121.0 27.920591775570372 9.67768383015933
  endloop
endfacet
facet normal 1.0 1.1007636793561888e-30 -2.3540868055434413e-32
  outer loop
    vertex 121.0 27.920591775570372 9.67768383015933
    vertex 121.0 31.0 3.0
    vertex 121.0 28.200000000000006 11.8
  endloop
endfacet
facet normal 1.0 1.1007636793561888e-30 -2.3540868055434413e-32
  outer loop
    vertex 121.0 31.0 3.0
    vertex 121.0 35.0 0.0
    vertex 121.0 35.0 3.0
  endloop
endfacet
facet normal 1.0 1.1007636793561888e-30 -2.3540868055434413e-32
  outer loop
    vertex 121.0 27.920591775570372 13.922316169840668
    vertex 121.0 31.0 15.899999999999999
    vertex 121.0 27.1014083110324 15.899999999999999
  endloop
endfacet
facet normal 1.0 1.1007636793561888e-30 -2.3540868055434413e-32
  outer loop
    vertex 121.0 31.0 15.899999999999999
    vertex 121.0 27.920591775570372 13.922316169840668
    vertex 121.0 28.200000000000006 11.8
  endloop
endfacet
facet normal 1.0 1.1007636793561888e-30 -2.3540868055434413e-32
  outer loop
    vertex 121.0 31.0 15.899999999999999
    vertex 121.0 28.200000000000006 11.8
    vertex 121.0 31.0 3.0
  endloop
endfacet
facet normal 1.0 1.1007636793561888e-30 -2.3540868055434413e-32
  outer loop
    vertex 121.0 9.0 15.899999999999999
    vertex 121.0 12.07940822442964 13.922316169840679
    vertex 121.0 12.898591688967604 15.900000000000004
  endloop
endfacet
facet normal 1.0 1.1007636793561888e-30 -2.3540868055434413e-32
  outer loop
    vertex 121.0 12.07940822442964 13.922316169840679
    vertex 121.0 9.0 15.899999999999999
    vertex 121.0 11.800000000000002 11.8
  endloop
endfacet
facet normal 0.0 0.0 -1.0
  outer loop
    vertex 21.0 40.0 0.0
    vertex 0.0 0.0 0.0
    vertex 0.0 40.0 0.0
  endloop
endfacet
facet normal 0.0 0.0 -1.0
  outer loop
    vertex 0.0 0.0 0.0
    vertex 21.0 40.0 0.0
    vertex 21.0 0.0 0.0
  endloop
endfacet
facet normal 0.0 0.0 -1.0
  outer loop
    vertex 21.0 0.0 0.0
    vertex 21.0 40.0 0.0
    vertex 41.0 35.0 0.0
  endloop
endfacet
facet normal 0.0 0.0 -1.0
  outer loop
    vertex 21.0 0.0 0.0
    vertex 41.0 35.0 0.0
    vertex 41.0 5.0 0.0
  endloop
endfacet
facet normal 0.0 0.0 -1.0
  outer loop
    vertex 41.0 5.0 0.0
    vertex 41.0 35.0 0.0
    vertex 41.000000000000014 22.12231616984067 -1.4099832412739488e-14
  endloop
endfacet
facet normal 0.0 0.0 -1.0
  outer loop
    vertex 41.000000000000014 22.12231616984067 -1.4099832412739488e-14
    vertex 41.0 35.0 0.0
    vertex 121.0 35.0 0.0
  endloop
endfacet
facet normal 0.0 0.0 -1.0
  outer loop
    vertex 41.000000000000014 22.12231616984067 -1.4099832412739488e-14
    vertex 121.0 35.0 0.0
    vertex 116.00000000000001 22.12231616984067 -1.4099832412739488e-14
  endloop
endfacet
facet normal 0.0 0.0 -1.0
  outer loop
    vertex 116.00000000000001 22.12231616984067 -1.4099832412739488e-14
    vertex 121.0 35.0 0.0
    vertex 116.00000000000001 17.877683830159327 -1.4099832412739488e-14
  endloop
endfacet
facet normal 0.0 0.0 -1.0
  outer loop
    vertex 41.0 5.0 0.0
    vertex 41.000000000000014 17.877683830159327 -1.4099832412739488e-14
    vertex 121.0 5.0 0.0
  endloop
endfacet
facet normal 0.0 0.0 -1.0
  outer loop
    vertex 41.000000000000014 17.877683830159327 -1.4099832412739488e-14
    vertex 41.0 5.0 0.0
    vertex 41.000000000000014 22.12231616984067 -1.4099832412739488e-14
  endloop
endfacet
facet normal 0.0 0.0 -1.0
  outer loop
    vertex 121.0 5.0 0.0
    vertex 41.000000000000014 17.877683830159327 -1.4099832412739488e-14
    vertex 116.00000000000001 17.877683830159327 -1.4099832412739488e-14
  endloop
endfacet
facet normal 0.0 0.0 -1.0
  outer loop
    vertex 121.0 5.0 0.0
    vertex 116.00000000000001 17.877683830159327 -1.4099832412739488e-14
    vertex 121.0 35.0 0.0
  endloop
endfacet
endsolid Нижняя Балка - натяжитель
