solid Переходник на муфту
facet normal -0.0 -0.0 1.0
  outer loop
    vertex -3.863703305156273 -1.0352761804100812 0.0
    vertex -3.863703305156272 1.0352761804100838 0.0
    vertex -3.999999999999999 4.898587196589412e-16 0.0
  endloop
endfacet
facet normal -0.0 -0.0 1.0
  outer loop
    vertex -3.863703305156272 1.0352761804100838 0.0
    vertex -3.863703305156273 -1.0352761804100812 0.0
    vertex -3.4641016151377544 -1.9999999999999984 0.0
  endloop
endfacet
facet normal -0.0 -0.0 1.0
  outer loop
    vertex -3.863703305156272 1.0352761804100838 0.0
    vertex -3.4641016151377544 -1.9999999999999984 0.0
    vertex -3.464101615137753 2.000000000000001 0.0
  endloop
endfacet
facet normal -0.0 -0.0 1.0
  outer loop
    vertex -3.464101615137753 2.000000000000001 0.0
    vertex -3.4641016151377544 -1.9999999999999984 0.0
    vertex -2.8284271247461907 -2.828427124746188 0.0
  endloop
endfacet
facet normal -0.0 -0.0 1.0
  outer loop
    vertex -3.464101615137753 2.000000000000001 0.0
    vertex -2.8284271247461907 -2.828427124746188 0.0
    vertex -2.828427124746189 2.82842712474619 0.0
  endloop
endfacet
facet normal -0.0 -0.0 1.0
  outer loop
    vertex -2.828427124746189 2.82842712474619 0.0
    vertex -2.8284271247461907 -2.828427124746188 0.0
    vertex -2.5751000746216 -0.35897020166558546 -2.8199664825478975e-15
  endloop
endfacet
facet normal -0.0 -0.0 1.0
  outer loop
    vertex -2.5751000746216 -0.35897020166558546 -2.8199664825478975e-15
    vertex -2.8284271247461907 -2.828427124746188 0.0
    vertex -2.0000000000000013 -3.4641016151377526 0.0
  endloop
endfacet
facet normal -0.0 -0.0 1.0
  outer loop
    vertex -2.828427124746189 2.82842712474619 0.0
    vertex -2.5751000746216 -0.35897020166558546 -2.8199664825478975e-15
    vertex -2.5802639921712567 0.3197463537000083 -2.8199664825478975e-15
  endloop
endfacet
facet normal -0.0 -0.0 1.0
  outer loop
    vertex -2.5751000746216 -0.35897020166558546 -2.8199664825478975e-15
    vertex -2.0000000000000013 -3.4641016151377526 0.0
    vertex -2.3944473425405643 -1.0132235310139766 -2.8199664825478975e-15
  endloop
endfacet
facet normal -0.0 -0.0 1.0
  outer loop
    vertex -2.3944473425405643 -1.0132235310139766 -2.8199664825478975e-15
    vertex -2.0000000000000013 -3.4641016151377526 0.0
    vertex -2.050616981076717 -1.5984273511548197 -2.8199664825478975e-15
  endloop
endfacet
facet normal -0.0 -0.0 1.0
  outer loop
    vertex -2.050616981076717 -1.5984273511548197 -2.8199664825478975e-15
    vertex -2.0000000000000013 -3.4641016151377526 0.0
    vertex -1.5670404611572801 -2.0747009888405556 -2.8199664825478975e-15
  endloop
endfacet
facet normal -0.0 -0.0 1.0
  outer loop
    vertex -1.5670404611572801 -2.0747009888405556 -2.8199664825478975e-15
    vertex -2.0000000000000013 -3.4641016151377526 0.0
    vertex -1.0352761804100858 -3.8637033051562715 0.0
  endloop
endfacet
facet normal -0.0 -0.0 1.0
  outer loop
    vertex -1.5670404611572801 -2.0747009888405556 -2.8199664825478975e-15
    vertex -1.0352761804100858 -3.8637033051562715 0.0
    vertex -0.9766727234667804 -2.409587182742302 -2.8199664825478975e-15
  endloop
endfacet
facet normal -0.0 -0.0 1.0
  outer loop
    vertex -0.9766727234667804 -2.409587182742302 -2.8199664825478975e-15
    vertex -1.0352761804100858 -3.8637033051562715 0.0
    vertex -7.347880794884117e-16 -3.999999999999999 0.0
  endloop
endfacet
facet normal -0.0 -0.0 1.0
  outer loop
    vertex -0.9766727234667804 -2.409587182742302 -2.8199664825478975e-15
    vertex -7.347880794884117e-16 -3.999999999999999 0.0
    vertex -0.3197463537000085 -2.5802639921712567 -2.8199664825478975e-15
  endloop
endfacet
facet normal -0.0 -0.0 1.0
  outer loop
    vertex -0.3197463537000085 -2.5802639921712567 -2.8199664825478975e-15
    vertex -7.347880794884117e-16 -3.999999999999999 0.0
    vertex 0.3589702016655852 -2.5751000746216 -2.8199664825478975e-15
  endloop
endfacet
facet normal -0.0 -0.0 1.0
  outer loop
    vertex 0.3589702016655852 -2.5751000746216 -2.8199664825478975e-15
    vertex -7.347880794884117e-16 -3.999999999999999 0.0
    vertex 1.035276180410081 -3.863703305156273 0.0
  endloop
endfacet
facet normal -0.0 -0.0 1.0
  outer loop
    vertex 0.3589702016655852 -2.5751000746216 -2.8199664825478975e-15
    vertex 1.035276180410081 -3.863703305156273 0.0
    vertex 1.013223531013976 -2.3944473425405643 -2.8199664825478975e-15
  endloop
endfacet
facet normal -0.0 -0.0 1.0
  outer loop
    vertex 1.013223531013976 -2.3944473425405643 -2.8199664825478975e-15
    vertex 1.035276180410081 -3.863703305156273 0.0
    vertex 1.5984273511548197 -2.050616981076717 -2.8199664825478975e-15
  endloop
endfacet
facet normal -0.0 -0.0 1.0
  outer loop
    vertex 1.5984273511548197 -2.050616981076717 -2.8199664825478975e-15
    vertex 1.035276180410081 -3.863703305156273 0.0
    vertex 1.9999999999999967 -3.4641016151377553 0.0
  endloop
endfacet
facet normal -0.0 -0.0 1.0
  outer loop
    vertex 1.5984273511548197 -2.050616981076717 -2.8199664825478975e-15
    vertex 1.9999999999999967 -3.4641016151377553 0.0
    vertex 2.0747009888405556 -1.5670404611572808 -2.8199664825478975e-15
  endloop
endfacet
facet normal -0.0 -0.0 1.0
  outer loop
    vertex 2.0747009888405556 -1.5670404611572808 -2.8199664825478975e-15
    vertex 1.9999999999999967 -3.4641016151377553 0.0
    vertex 2.8284271247461885 -2.8284271247461903 0.0
  endloop
endfacet
facet normal -0.0 -0.0 1.0
  outer loop
    vertex 2.0747009888405556 -1.5670404611572808 -2.8199664825478975e-15
    vertex 2.8284271247461885 -2.8284271247461903 0.0
    vertex 2.409587182742302 -0.9766727234667807 -2.8199664825478975e-15
  endloop
endfacet
facet normal -0.0 -0.0 1.0
  outer loop
    vertex 2.409587182742302 -0.9766727234667807 -2.8199664825478975e-15
    vertex 2.8284271247461885 -2.8284271247461903 0.0
    vertex 2.5802639921712567 -0.3197463537000086 -2.8199664825478975e-15
  endloop
endfacet
facet normal -0.0 -0.0 1.0
  outer loop
    vertex -2.5802639921712567 0.3197463537000083 -2.8199664825478975e-15
    vertex -1.9999999999999984 3.464101615137754 0.0
    vertex -2.828427124746189 2.82842712474619 0.0
  endloop
endfacet
facet normal -0.0 -0.0 1.0
  outer loop
    vertex -1.9999999999999984 3.464101615137754 0.0
    vertex -2.5802639921712567 0.3197463537000083 -2.8199664825478975e-15
    vertex -2.4095871827423014 0.9766727234667819 -2.8199664825478975e-15
  endloop
endfacet
facet normal -0.0 -0.0 1.0
  outer loop
    vertex -1.9999999999999984 3.464101615137754 0.0
    vertex -2.4095871827423014 0.9766727234667819 -2.8199664825478975e-15
    vertex -2.0747009888405556 1.567040461157281 -2.8199664825478975e-15
  endloop
endfacet
facet normal -0.0 -0.0 1.0
  outer loop
    vertex -1.9999999999999984 3.464101615137754 0.0
    vertex -2.0747009888405556 1.567040461157281 -2.8199664825478975e-15
    vertex -1.5984273511548197 2.050616981076717 -2.8199664825478975e-15
  endloop
endfacet
facet normal -0.0 -0.0 1.0
  outer loop
    vertex -1.9999999999999984 3.464101615137754 0.0
    vertex -1.5984273511548197 2.050616981076717 -2.8199664825478975e-15
    vertex -1.0352761804100823 3.863703305156272 0.0
  endloop
endfacet
facet normal -0.0 -0.0 1.0
  outer loop
    vertex -1.0352761804100823 3.863703305156272 0.0
    vertex -1.5984273511548197 2.050616981076717 -2.8199664825478975e-15
    vertex -1.0132235310139748 2.3944473425405652 -2.8199664825478975e-15
  endloop
endfacet
facet normal -0.0 -0.0 1.0
  outer loop
    vertex -1.0352761804100823 3.863703305156272 0.0
    vertex -1.0132235310139748 2.3944473425405652 -2.8199664825478975e-15
    vertex 2.449293598294706e-16 3.999999999999999 0.0
  endloop
endfacet
facet normal -0.0 -0.0 1.0
  outer loop
    vertex 2.449293598294706e-16 3.999999999999999 0.0
    vertex -1.0132235310139748 2.3944473425405652 -2.8199664825478975e-15
    vertex -0.3589702016655843 2.5751000746216 -2.8199664825478975e-15
  endloop
endfacet
facet normal -0.0 -0.0 1.0
  outer loop
    vertex 2.449293598294706e-16 3.999999999999999 0.0
    vertex -0.3589702016655843 2.5751000746216 -2.8199664825478975e-15
    vertex 0.3197463537000088 2.5802639921712567 -2.8199664825478975e-15
  endloop
endfacet
facet normal -0.0 -0.0 1.0
  outer loop
    vertex 2.449293598294706e-16 3.999999999999999 0.0
    vertex 0.3197463537000088 2.5802639921712567 -2.8199664825478975e-15
    vertex 1.0352761804100836 3.863703305156272 0.0
  endloop
endfacet
facet normal -0.0 -0.0 1.0
  outer loop
    vertex 1.0352761804100836 3.863703305156272 0.0
    vertex 0.3197463537000088 2.5802639921712567 -2.8199664825478975e-15
    vertex 0.9766727234667818 2.4095871827423014 -2.8199664825478975e-15
  endloop
endfacet
facet normal -0.0 -0.0 1.0
  outer loop
    vertex 1.0352761804100836 3.863703305156272 0.0
    vertex 0.9766727234667818 2.4095871827423014 -2.8199664825478975e-15
    vertex 1.567040461157281 2.0747009888405556 -2.8199664825478975e-15
  endloop
endfacet
facet normal -0.0 -0.0 1.0
  outer loop
    vertex 1.0352761804100836 3.863703305156272 0.0
    vertex 1.567040461157281 2.0747009888405556 -2.8199664825478975e-15
    vertex 1.9999999999999998 3.464101615137754 0.0
  endloop
endfacet
facet normal -0.0 -0.0 1.0
  outer loop
    vertex 1.9999999999999998 3.464101615137754 0.0
    vertex 1.567040461157281 2.0747009888405556 -2.8199664825478975e-15
    vertex 2.0506169810767174 1.598427351154819 -2.8199664825478975e-15
  endloop
endfacet
facet normal -0.0 -0.0 1.0
  outer loop
    vertex 1.9999999999999998 3.464101615137754 0.0
    vertex 2.0506169810767174 1.598427351154819 -2.8199664825478975e-15
    vertex 2.82842712474619 2.828427124746189 0.0
  endloop
endfacet
facet normal -0.0 -0.0 1.0
  outer loop
    vertex 2.82842712474619 2.828427124746189 0.0
    vertex 2.0506169810767174 1.598427351154819 -2.8199664825478975e-15
    vertex 2.394447342540565 1.0132235310139759 -2.8199664825478975e-15
  endloop
endfacet
facet normal -0.0 -0.0 1.0
  outer loop
    vertex 2.82842712474619 2.828427124746189 0.0
    vertex 2.394447342540565 1.0132235310139759 -2.8199664825478975e-15
    vertex 2.5751000746216 0.35897020166558435 -2.8199664825478975e-15
  endloop
endfacet
facet normal -0.0 -0.0 1.0
  outer loop
    vertex 2.82842712474619 2.828427124746189 0.0
    vertex 2.5751000746216 0.35897020166558435 -2.8199664825478975e-15
    vertex 2.5802639921712567 -0.3197463537000086 -2.8199664825478975e-15
  endloop
endfacet
facet normal -0.0 -0.0 1.0
  outer loop
    vertex 2.82842712474619 2.828427124746189 0.0
    vertex 2.5802639921712567 -0.3197463537000086 -2.8199664825478975e-15
    vertex 2.8284271247461885 -2.8284271247461903 0.0
  endloop
endfacet
facet normal -0.0 -0.0 1.0
  outer loop
    vertex 2.82842712474619 2.828427124746189 0.0
    vertex 2.8284271247461885 -2.8284271247461903 0.0
    vertex 3.4641016151377526 -2.0000000000000013 0.0
  endloop
endfacet
facet normal -0.0 -0.0 1.0
  outer loop
    vertex 2.82842712474619 2.828427124746189 0.0
    vertex 3.4641016151377526 -2.0000000000000013 0.0
    vertex 3.464101615137754 1.9999999999999991 0.0
  endloop
endfacet
facet normal -0.0 -0.0 1.0
  outer loop
    vertex 3.464101615137754 1.9999999999999991 0.0
    vertex 3.4641016151377526 -2.0000000000000013 0.0
    vertex 3.8637033051562715 -1.035276180410086 0.0
  endloop
endfacet
facet normal -0.0 -0.0 1.0
  outer loop
    vertex 3.464101615137754 1.9999999999999991 0.0
    vertex 3.8637033051562715 -1.035276180410086 0.0
    vertex 3.863703305156272 1.0352761804100827 0.0
  endloop
endfacet
facet normal -0.0 -0.0 1.0
  outer loop
    vertex 3.863703305156272 1.0352761804100827 0.0
    vertex 3.8637033051562715 -1.035276180410086 0.0
    vertex 3.999999999999999 0.0 0.0
  endloop
endfacet
facet normal -0.0 -0.0 1.0
  outer loop
    vertex -6.761480784023479 -1.8117333157176425 7.0
    vertex -6.761480784023478 1.811733315717647 7.0
    vertex -7.0 8.572527594031472e-16 7.0
  endloop
endfacet
facet normal -0.0 -0.0 1.0
  outer loop
    vertex -6.761480784023478 1.811733315717647 7.0
    vertex -6.761480784023479 -1.8117333157176425 7.0
    vertex -6.062177826491071 -3.499999999999998 7.0
  endloop
endfacet
facet normal -0.0 -0.0 1.0
  outer loop
    vertex -6.761480784023478 1.811733315717647 7.0
    vertex -6.062177826491071 -3.499999999999998 7.0
    vertex -6.0621778264910695 3.500000000000002 7.0
  endloop
endfacet
facet normal -0.0 -0.0 1.0
  outer loop
    vertex -6.0621778264910695 3.500000000000002 7.0
    vertex -6.062177826491071 -3.499999999999998 7.0
    vertex -4.949747468305835 -4.949747468305829 7.0
  endloop
endfacet
facet normal -0.0 -0.0 1.0
  outer loop
    vertex -6.0621778264910695 3.500000000000002 7.0
    vertex -4.949747468305835 -4.949747468305829 7.0
    vertex -4.949747468305833 4.949747468305833 7.0
  endloop
endfacet
facet normal -0.0 -0.0 1.0
  outer loop
    vertex -4.949747468305833 4.949747468305833 7.0
    vertex -4.949747468305835 -4.949747468305829 7.0
    vertex -3.5000000000000027 -6.062177826491069 7.0
  endloop
endfacet
facet normal -0.0 -0.0 1.0
  outer loop
    vertex -4.949747468305833 4.949747468305833 7.0
    vertex -3.5000000000000027 -6.062177826491069 7.0
    vertex -3.999999999999999 4.898587196589412e-16 7.0
  endloop
endfacet
facet normal -0.0 -0.0 1.0
  outer loop
    vertex -3.999999999999999 4.898587196589412e-16 7.0
    vertex -3.5000000000000027 -6.062177826491069 7.0
    vertex -3.863703305156273 -1.0352761804100812 7.0
  endloop
endfacet
facet normal -0.0 -0.0 1.0
  outer loop
    vertex -3.863703305156273 -1.0352761804100812 7.0
    vertex -3.5000000000000027 -6.062177826491069 7.0
    vertex -3.4641016151377544 -1.9999999999999984 7.0
  endloop
endfacet
facet normal -0.0 -0.0 1.0
  outer loop
    vertex -3.4641016151377544 -1.9999999999999984 7.0
    vertex -3.5000000000000027 -6.062177826491069 7.0
    vertex -1.8117333157176505 -6.761480784023476 7.0
  endloop
endfacet
facet normal -0.0 -0.0 1.0
  outer loop
    vertex -3.4641016151377544 -1.9999999999999984 7.0
    vertex -1.8117333157176505 -6.761480784023476 7.0
    vertex -2.8284271247461907 -2.828427124746188 7.0
  endloop
endfacet
facet normal -0.0 -0.0 1.0
  outer loop
    vertex -2.8284271247461907 -2.828427124746188 7.0
    vertex -1.8117333157176505 -6.761480784023476 7.0
    vertex -2.0000000000000013 -3.4641016151377526 7.0
  endloop
endfacet
facet normal -0.0 -0.0 1.0
  outer loop
    vertex -2.0000000000000013 -3.4641016151377526 7.0
    vertex -1.8117333157176505 -6.761480784023476 7.0
    vertex -1.0352761804100858 -3.8637033051562715 7.0
  endloop
endfacet
facet normal -0.0 -0.0 1.0
  outer loop
    vertex -1.0352761804100858 -3.8637033051562715 7.0
    vertex -1.8117333157176505 -6.761480784023476 7.0
    vertex -1.2858791391047208e-15 -7.0 7.0
  endloop
endfacet
facet normal -0.0 -0.0 1.0
  outer loop
    vertex -1.0352761804100858 -3.8637033051562715 7.0
    vertex -1.2858791391047208e-15 -7.0 7.0
    vertex -7.347880794884117e-16 -3.999999999999999 7.0
  endloop
endfacet
facet normal -0.0 -0.0 1.0
  outer loop
    vertex -7.347880794884117e-16 -3.999999999999999 7.0
    vertex -1.2858791391047208e-15 -7.0 7.0
    vertex 1.811733315717642 -6.761480784023479 7.0
  endloop
endfacet
facet normal -0.0 -0.0 1.0
  outer loop
    vertex -7.347880794884117e-16 -3.999999999999999 7.0
    vertex 1.811733315717642 -6.761480784023479 7.0
    vertex 1.035276180410081 -3.863703305156273 7.0
  endloop
endfacet
facet normal -0.0 -0.0 1.0
  outer loop
    vertex 1.035276180410081 -3.863703305156273 7.0
    vertex 1.811733315717642 -6.761480784023479 7.0
    vertex 1.9999999999999967 -3.4641016151377553 7.0
  endloop
endfacet
facet normal -0.0 -0.0 1.0
  outer loop
    vertex 1.9999999999999967 -3.4641016151377553 7.0
    vertex 1.811733315717642 -6.761480784023479 7.0
    vertex 3.499999999999995 -6.062177826491073 7.0
  endloop
endfacet
facet normal -0.0 -0.0 1.0
  outer loop
    vertex 1.9999999999999967 -3.4641016151377553 7.0
    vertex 3.499999999999995 -6.062177826491073 7.0
    vertex 2.8284271247461885 -2.8284271247461903 7.0
  endloop
endfacet
facet normal -0.0 -0.0 1.0
  outer loop
    vertex 2.8284271247461885 -2.8284271247461903 7.0
    vertex 3.499999999999995 -6.062177826491073 7.0
    vertex 3.4641016151377526 -2.0000000000000013 7.0
  endloop
endfacet
facet normal -0.0 -0.0 1.0
  outer loop
    vertex 3.4641016151377526 -2.0000000000000013 7.0
    vertex 3.499999999999995 -6.062177826491073 7.0
    vertex 3.8637033051562715 -1.035276180410086 7.0
  endloop
endfacet
facet normal -0.0 -0.0 1.0
  outer loop
    vertex 3.8637033051562715 -1.035276180410086 7.0
    vertex 3.499999999999995 -6.062177826491073 7.0
    vertex 4.949747468305832 -4.949747468305834 7.0
  endloop
endfacet
facet normal -0.0 -0.0 1.0
  outer loop
    vertex 3.8637033051562715 -1.035276180410086 7.0
    vertex 4.949747468305832 -4.949747468305834 7.0
    vertex 3.999999999999999 0.0 7.0
  endloop
endfacet
facet normal -0.0 -0.0 1.0
  outer loop
    vertex -3.999999999999999 4.898587196589412e-16 7.0
    vertex -3.4999999999999987 6.06217782649107 7.0
    vertex -4.949747468305833 4.949747468305833 7.0
  endloop
endfacet
facet normal -0.0 -0.0 1.0
  outer loop
    vertex -3.4999999999999987 6.06217782649107 7.0
    vertex -3.999999999999999 4.898587196589412e-16 7.0
    vertex -3.863703305156272 1.0352761804100838 7.0
  endloop
endfacet
facet normal -0.0 -0.0 1.0
  outer loop
    vertex -3.4999999999999987 6.06217782649107 7.0
    vertex -3.863703305156272 1.0352761804100838 7.0
    vertex -3.464101615137753 2.000000000000001 7.0
  endloop
endfacet
facet normal -0.0 -0.0 1.0
  outer loop
    vertex -3.4999999999999987 6.06217782649107 7.0
    vertex -3.464101615137753 2.000000000000001 7.0
    vertex -1.8117333157176443 6.761480784023478 7.0
  endloop
endfacet
facet normal -0.0 -0.0 1.0
  outer loop
    vertex -1.8117333157176443 6.761480784023478 7.0
    vertex -3.464101615137753 2.000000000000001 7.0
    vertex -2.828427124746189 2.82842712474619 7.0
  endloop
endfacet
facet normal -0.0 -0.0 1.0
  outer loop
    vertex -1.8117333157176443 6.761480784023478 7.0
    vertex -2.828427124746189 2.82842712474619 7.0
    vertex -1.9999999999999984 3.464101615137754 7.0
  endloop
endfacet
facet normal -0.0 -0.0 1.0
  outer loop
    vertex -1.8117333157176443 6.761480784023478 7.0
    vertex -1.9999999999999984 3.464101615137754 7.0
    vertex -1.0352761804100823 3.863703305156272 7.0
  endloop
endfacet
facet normal -0.0 -0.0 1.0
  outer loop
    vertex -1.8117333157176443 6.761480784023478 7.0
    vertex -1.0352761804100823 3.863703305156272 7.0
    vertex 4.286263797015736e-16 7.0 7.0
  endloop
endfacet
facet normal -0.0 -0.0 1.0
  outer loop
    vertex 4.286263797015736e-16 7.0 7.0
    vertex -1.0352761804100823 3.863703305156272 7.0
    vertex 2.449293598294706e-16 3.999999999999999 7.0
  endloop
endfacet
facet normal -0.0 -0.0 1.0
  outer loop
    vertex 4.286263797015736e-16 7.0 7.0
    vertex 2.449293598294706e-16 3.999999999999999 7.0
    vertex 1.0352761804100836 3.863703305156272 7.0
  endloop
endfacet
facet normal -0.0 -0.0 1.0
  outer loop
    vertex 4.286263797015736e-16 7.0 7.0
    vertex 1.0352761804100836 3.863703305156272 7.0
    vertex 1.8117333157176467 6.761480784023478 7.0
  endloop
endfacet
facet normal -0.0 -0.0 1.0
  outer loop
    vertex 1.8117333157176467 6.761480784023478 7.0
    vertex 1.0352761804100836 3.863703305156272 7.0
    vertex 1.9999999999999998 3.464101615137754 7.0
  endloop
endfacet
facet normal -0.0 -0.0 1.0
  outer loop
    vertex 1.8117333157176467 6.761480784023478 7.0
    vertex 1.9999999999999998 3.464101615137754 7.0
    vertex 3.5000000000000004 6.06217782649107 7.0
  endloop
endfacet
facet normal -0.0 -0.0 1.0
  outer loop
    vertex 3.5000000000000004 6.06217782649107 7.0
    vertex 1.9999999999999998 3.464101615137754 7.0
    vertex 2.82842712474619 2.828427124746189 7.0
  endloop
endfacet
facet normal -0.0 -0.0 1.0
  outer loop
    vertex 3.5000000000000004 6.06217782649107 7.0
    vertex 2.82842712474619 2.828427124746189 7.0
    vertex 3.464101615137754 1.9999999999999991 7.0
  endloop
endfacet
facet normal -0.0 -0.0 1.0
  outer loop
    vertex 3.5000000000000004 6.06217782649107 7.0
    vertex 3.464101615137754 1.9999999999999991 7.0
    vertex 3.863703305156272 1.0352761804100827 7.0
  endloop
endfacet
facet normal -0.0 -0.0 1.0
  outer loop
    vertex 3.5000000000000004 6.06217782649107 7.0
    vertex 3.863703305156272 1.0352761804100827 7.0
    vertex 4.949747468305833 4.949747468305833 7.0
  endloop
endfacet
facet normal -0.0 -0.0 1.0
  outer loop
    vertex 4.949747468305833 4.949747468305833 7.0
    vertex 3.863703305156272 1.0352761804100827 7.0
    vertex 3.999999999999999 0.0 7.0
  endloop
endfacet
facet normal -0.0 -0.0 1.0
  outer loop
    vertex 4.949747468305833 4.949747468305833 7.0
    vertex 3.999999999999999 0.0 7.0
    vertex 4.949747468305832 -4.949747468305834 7.0
  endloop
endfacet
facet normal -0.0 -0.0 1.0
  outer loop
    vertex 4.949747468305833 4.949747468305833 7.0
    vertex 4.949747468305832 -4.949747468305834 7.0
    vertex 6.062177826491069 -3.5000000000000027 7.0
  endloop
endfacet
facet normal -0.0 -0.0 1.0
  outer loop
    vertex 4.949747468305833 4.949747468305833 7.0
    vertex 6.062177826491069 -3.5000000000000027 7.0
    vertex 6.06217782649107 3.499999999999999 7.0
  endloop
endfacet
facet normal -0.0 -0.0 1.0
  outer loop
    vertex 6.06217782649107 3.499999999999999 7.0
    vertex 6.062177826491069 -3.5000000000000027 7.0
    vertex 6.761480784023476 -1.811733315717651 7.0
  endloop
endfacet
facet normal -0.0 -0.0 1.0
  outer loop
    vertex 6.06217782649107 3.499999999999999 7.0
    vertex 6.761480784023476 -1.811733315717651 7.0
    vertex 6.761480784023478 1.8117333157176452 7.0
  endloop
endfacet
facet normal -0.0 -0.0 1.0
  outer loop
    vertex 6.761480784023478 1.8117333157176452 7.0
    vertex 6.761480784023476 -1.811733315717651 7.0
    vertex 7.0 0.0 7.0
  endloop
endfacet
facet normal 0.9238795325112865 -0.3826834323650904 0.0
  outer loop
    vertex 6.761480784023476 -1.811733315717651 -15.0
    vertex 6.062177826491069 -3.5000000000000027 7.0
    vertex 6.062177826491069 -3.5000000000000027 -15.0
  endloop
endfacet
facet normal 0.9238795325112865 -0.3826834323650904 0.0
  outer loop
    vertex 6.062177826491069 -3.5000000000000027 7.0
    vertex 6.761480784023476 -1.811733315717651 -15.0
    vertex 6.761480784023476 -1.811733315717651 7.0
  endloop
endfacet
facet normal 0.793353340291235 -0.6087614290087208 0.0
  outer loop
    vertex 6.062177826491069 -3.5000000000000027 -15.0
    vertex 4.949747468305832 -4.949747468305834 7.0
    vertex 4.949747468305832 -4.949747468305834 -15.0
  endloop
endfacet
facet normal 0.793353340291235 -0.6087614290087208 0.0
  outer loop
    vertex 4.949747468305832 -4.949747468305834 7.0
    vertex 6.062177826491069 -3.5000000000000027 -15.0
    vertex 6.062177826491069 -3.5000000000000027 7.0
  endloop
endfacet
facet normal 0.6087614290087203 -0.7933533402912356 0.0
  outer loop
    vertex 4.949747468305832 -4.949747468305834 7.0
    vertex 3.499999999999995 -6.062177826491073 -15.0
    vertex 4.949747468305832 -4.949747468305834 -15.0
  endloop
endfacet
facet normal 0.6087614290087203 -0.7933533402912356 0.0
  outer loop
    vertex 3.499999999999995 -6.062177826491073 -15.0
    vertex 4.949747468305832 -4.949747468305834 7.0
    vertex 3.499999999999995 -6.062177826491073 7.0
  endloop
endfacet
facet normal 0.38268343236508917 -0.923879532511287 0.0
  outer loop
    vertex 3.499999999999995 -6.062177826491073 7.0
    vertex 1.811733315717642 -6.761480784023479 -15.0
    vertex 3.499999999999995 -6.062177826491073 -15.0
  endloop
endfacet
facet normal 0.38268343236508917 -0.923879532511287 0.0
  outer loop
    vertex 1.811733315717642 -6.761480784023479 -15.0
    vertex 3.499999999999995 -6.062177826491073 7.0
    vertex 1.811733315717642 -6.761480784023479 7.0
  endloop
endfacet
facet normal 0.13052619222005113 -0.9914448613738106 0.0
  outer loop
    vertex 1.811733315717642 -6.761480784023479 7.0
    vertex -1.2858791391047208e-15 -7.0 -15.0
    vertex 1.811733315717642 -6.761480784023479 -15.0
  endloop
endfacet
facet normal 0.13052619222005113 -0.9914448613738106 0.0
  outer loop
    vertex -1.2858791391047208e-15 -7.0 -15.0
    vertex 1.811733315717642 -6.761480784023479 7.0
    vertex -1.2858791391047208e-15 -7.0 7.0
  endloop
endfacet
facet normal -0.13052619222005224 -0.9914448613738104 -0.0
  outer loop
    vertex -1.2858791391047208e-15 -7.0 7.0
    vertex -1.8117333157176505 -6.761480784023476 -15.0
    vertex -1.2858791391047208e-15 -7.0 -15.0
  endloop
endfacet
facet normal -0.13052619222005224 -0.9914448613738104 -0.0
  outer loop
    vertex -1.8117333157176505 -6.761480784023476 -15.0
    vertex -1.2858791391047208e-15 -7.0 7.0
    vertex -1.8117333157176505 -6.761480784023476 7.0
  endloop
endfacet
facet normal -0.38268343236509034 -0.9238795325112865 -0.0
  outer loop
    vertex -1.8117333157176505 -6.761480784023476 7.0
    vertex -3.5000000000000027 -6.062177826491069 -15.0
    vertex -1.8117333157176505 -6.761480784023476 -15.0
  endloop
endfacet
facet normal -0.38268343236509034 -0.9238795325112865 -0.0
  outer loop
    vertex -3.5000000000000027 -6.062177826491069 -15.0
    vertex -1.8117333157176505 -6.761480784023476 7.0
    vertex -3.5000000000000027 -6.062177826491069 7.0
  endloop
endfacet
facet normal -0.6087614290087211 -0.7933533402912348 -0.0
  outer loop
    vertex -3.5000000000000027 -6.062177826491069 7.0
    vertex -4.949747468305835 -4.949747468305829 -15.0
    vertex -3.5000000000000027 -6.062177826491069 -15.0
  endloop
endfacet
facet normal -0.6087614290087211 -0.7933533402912348 -0.0
  outer loop
    vertex -4.949747468305835 -4.949747468305829 -15.0
    vertex -3.5000000000000027 -6.062177826491069 7.0
    vertex -4.949747468305835 -4.949747468305829 7.0
  endloop
endfacet
facet normal -0.7933533402912354 -0.6087614290087203 -0.0
  outer loop
    vertex -6.062177826491071 -3.499999999999998 7.0
    vertex -4.949747468305835 -4.949747468305829 -15.0
    vertex -4.949747468305835 -4.949747468305829 7.0
  endloop
endfacet
facet normal -0.7933533402912354 -0.6087614290087203 -0.0
  outer loop
    vertex -4.949747468305835 -4.949747468305829 -15.0
    vertex -6.062177826491071 -3.499999999999998 7.0
    vertex -6.062177826491071 -3.499999999999998 -15.0
  endloop
endfacet
facet normal -0.9238795325112868 -0.3826834323650898 -0.0
  outer loop
    vertex -6.761480784023479 -1.8117333157176425 7.0
    vertex -6.062177826491071 -3.499999999999998 -15.0
    vertex -6.062177826491071 -3.499999999999998 7.0
  endloop
endfacet
facet normal -0.9238795325112868 -0.3826834323650898 -0.0
  outer loop
    vertex -6.062177826491071 -3.499999999999998 -15.0
    vertex -6.761480784023479 -1.8117333157176425 7.0
    vertex -6.761480784023479 -1.8117333157176425 -15.0
  endloop
endfacet
facet normal -0.9914448613738105 -0.13052619222005113 -0.0
  outer loop
    vertex -7.0 8.572527594031472e-16 7.0
    vertex -6.761480784023479 -1.8117333157176425 -15.0
    vertex -6.761480784023479 -1.8117333157176425 7.0
  endloop
endfacet
facet normal -0.9914448613738105 -0.13052619222005113 -0.0
  outer loop
    vertex -6.761480784023479 -1.8117333157176425 -15.0
    vertex -7.0 8.572527594031472e-16 7.0
    vertex -7.0 8.572527594031472e-16 -15.0
  endloop
endfacet
facet normal -0.9914448613738104 0.13052619222005168 0.0
  outer loop
    vertex -6.761480784023478 1.811733315717647 7.0
    vertex -7.0 8.572527594031472e-16 -15.0
    vertex -7.0 8.572527594031472e-16 7.0
  endloop
endfacet
facet normal -0.9914448613738104 0.13052619222005168 0.0
  outer loop
    vertex -7.0 8.572527594031472e-16 -15.0
    vertex -6.761480784023478 1.811733315717647 7.0
    vertex -6.761480784023478 1.811733315717647 -15.0
  endloop
endfacet
facet normal -0.9238795325112867 0.3826834323650901 0.0
  outer loop
    vertex -6.0621778264910695 3.500000000000002 7.0
    vertex -6.761480784023478 1.811733315717647 -15.0
    vertex -6.761480784023478 1.811733315717647 7.0
  endloop
endfacet
facet normal -0.9238795325112867 0.3826834323650901 0.0
  outer loop
    vertex -6.761480784023478 1.811733315717647 -15.0
    vertex -6.0621778264910695 3.500000000000002 7.0
    vertex -6.0621778264910695 3.500000000000002 -15.0
  endloop
endfacet
facet normal -0.793353340291235 0.6087614290087208 0.0
  outer loop
    vertex -4.949747468305833 4.949747468305833 7.0
    vertex -6.0621778264910695 3.500000000000002 -15.0
    vertex -6.0621778264910695 3.500000000000002 7.0
  endloop
endfacet
facet normal -0.793353340291235 0.6087614290087208 0.0
  outer loop
    vertex -6.0621778264910695 3.500000000000002 -15.0
    vertex -4.949747468305833 4.949747468305833 7.0
    vertex -4.949747468305833 4.949747468305833 -15.0
  endloop
endfacet
facet normal -0.6087614290087203 0.7933533402912356 0.0
  outer loop
    vertex -4.949747468305833 4.949747468305833 7.0
    vertex -3.4999999999999987 6.06217782649107 -15.0
    vertex -4.949747468305833 4.949747468305833 -15.0
  endloop
endfacet
facet normal -0.6087614290087203 0.7933533402912356 0.0
  outer loop
    vertex -3.4999999999999987 6.06217782649107 -15.0
    vertex -4.949747468305833 4.949747468305833 7.0
    vertex -3.4999999999999987 6.06217782649107 7.0
  endloop
endfacet
facet normal -0.38268343236508967 0.923879532511287 0.0
  outer loop
    vertex -3.4999999999999987 6.06217782649107 7.0
    vertex -1.8117333157176443 6.761480784023478 -15.0
    vertex -3.4999999999999987 6.06217782649107 -15.0
  endloop
endfacet
facet normal -0.38268343236508967 0.923879532511287 0.0
  outer loop
    vertex -1.8117333157176443 6.761480784023478 -15.0
    vertex -3.4999999999999987 6.06217782649107 7.0
    vertex -1.8117333157176443 6.761480784023478 7.0
  endloop
endfacet
facet normal -0.1305261922200518 0.9914448613738105 0.0
  outer loop
    vertex -1.8117333157176443 6.761480784023478 7.0
    vertex 4.286263797015736e-16 7.0 -15.0
    vertex -1.8117333157176443 6.761480784023478 -15.0
  endloop
endfacet
facet normal -0.1305261922200518 0.9914448613738105 0.0
  outer loop
    vertex 4.286263797015736e-16 7.0 -15.0
    vertex -1.8117333157176443 6.761480784023478 7.0
    vertex 4.286263797015736e-16 7.0 7.0
  endloop
endfacet
facet normal 0.13052619222005168 0.9914448613738104 0.0
  outer loop
    vertex 4.286263797015736e-16 7.0 7.0
    vertex 1.8117333157176467 6.761480784023478 -15.0
    vertex 4.286263797015736e-16 7.0 -15.0
  endloop
endfacet
facet normal 0.13052619222005168 0.9914448613738104 0.0
  outer loop
    vertex 1.8117333157176467 6.761480784023478 -15.0
    vertex 4.286263797015736e-16 7.0 7.0
    vertex 1.8117333157176467 6.761480784023478 7.0
  endloop
endfacet
facet normal 0.38268343236509006 0.9238795325112868 0.0
  outer loop
    vertex 1.8117333157176467 6.761480784023478 7.0
    vertex 3.5000000000000004 6.06217782649107 -15.0
    vertex 1.8117333157176467 6.761480784023478 -15.0
  endloop
endfacet
facet normal 0.38268343236509006 0.9238795325112868 0.0
  outer loop
    vertex 3.5000000000000004 6.06217782649107 -15.0
    vertex 1.8117333157176467 6.761480784023478 7.0
    vertex 3.5000000000000004 6.06217782649107 7.0
  endloop
endfacet
facet normal 0.6087614290087207 0.7933533402912353 0.0
  outer loop
    vertex 3.5000000000000004 6.06217782649107 7.0
    vertex 4.949747468305833 4.949747468305833 -15.0
    vertex 3.5000000000000004 6.06217782649107 -15.0
  endloop
endfacet
facet normal 0.6087614290087207 0.7933533402912353 0.0
  outer loop
    vertex 4.949747468305833 4.949747468305833 -15.0
    vertex 3.5000000000000004 6.06217782649107 7.0
    vertex 4.949747468305833 4.949747468305833 7.0
  endloop
endfacet
facet normal 0.7933533402912353 0.6087614290087204 0.0
  outer loop
    vertex 4.949747468305833 4.949747468305833 -15.0
    vertex 6.06217782649107 3.499999999999999 7.0
    vertex 6.06217782649107 3.499999999999999 -15.0
  endloop
endfacet
facet normal 0.7933533402912353 0.6087614290087204 0.0
  outer loop
    vertex 6.06217782649107 3.499999999999999 7.0
    vertex 4.949747468305833 4.949747468305833 -15.0
    vertex 4.949747468305833 4.949747468305833 7.0
  endloop
endfacet
facet normal 0.9238795325112868 0.38268343236508967 0.0
  outer loop
    vertex 6.06217782649107 3.499999999999999 -15.0
    vertex 6.761480784023478 1.8117333157176452 7.0
    vertex 6.761480784023478 1.8117333157176452 -15.0
  endloop
endfacet
facet normal 0.9238795325112868 0.38268343236508967 0.0
  outer loop
    vertex 6.761480784023478 1.8117333157176452 7.0
    vertex 6.06217782649107 3.499999999999999 -15.0
    vertex 6.06217782649107 3.499999999999999 7.0
  endloop
endfacet
facet normal 0.9914448613738105 0.13052619222005177 0.0
  outer loop
    vertex 6.761480784023478 1.8117333157176452 -15.0
    vertex 7.0 0.0 7.0
    vertex 7.0 0.0 -15.0
  endloop
endfacet
facet normal 0.9914448613738105 0.13052619222005177 0.0
  outer loop
    vertex 7.0 0.0 7.0
    vertex 6.761480784023478 1.8117333157176452 -15.0
    vertex 6.761480784023478 1.8117333157176452 7.0
  endloop
endfacet
facet normal 0.9914448613738105 -0.13052619222005213 0.0
  outer loop
    vertex 7.0 0.0 -15.0
    vertex 6.761480784023476 -1.811733315717651 7.0
    vertex 6.761480784023476 -1.811733315717651 -15.0
  endloop
endfacet
facet normal 0.9914448613738105 -0.13052619222005213 0.0
  outer loop
    vertex 6.761480784023476 -1.811733315717651 7.0
    vertex 7.0 0.0 -15.0
    vertex 7.0 0.0 7.0
  endloop
endfacet
facet normal 0.6087614290087202 -0.7933533402912356 0.0
  outer loop
    vertex -1.9999999999999984 3.464101615137754 7.0
    vertex -2.828427124746189 2.82842712474619 0.0
    vertex -1.9999999999999984 3.464101615137754 0.0
  endloop
endfacet
facet normal 0.6087614290087202 -0.7933533402912356 0.0
  outer loop
    vertex -2.828427124746189 2.82842712474619 0.0
    vertex -1.9999999999999984 3.464101615137754 7.0
    vertex -2.828427124746189 2.82842712474619 7.0
  endloop
endfacet
facet normal 0.7933533402912349 -0.608761429008721 0.0
  outer loop
    vertex -2.828427124746189 2.82842712474619 0.0
    vertex -3.464101615137753 2.000000000000001 7.0
    vertex -3.464101615137753 2.000000000000001 0.0
  endloop
endfacet
facet normal 0.7933533402912349 -0.608761429008721 0.0
  outer loop
    vertex -3.464101615137753 2.000000000000001 7.0
    vertex -2.828427124746189 2.82842712474619 0.0
    vertex -2.828427124746189 2.82842712474619 7.0
  endloop
endfacet
facet normal 0.9238795325112867 -0.38268343236509 0.0
  outer loop
    vertex -3.464101615137753 2.000000000000001 0.0
    vertex -3.863703305156272 1.0352761804100838 7.0
    vertex -3.863703305156272 1.0352761804100838 0.0
  endloop
endfacet
facet normal 0.9238795325112867 -0.38268343236509 0.0
  outer loop
    vertex -3.863703305156272 1.0352761804100838 7.0
    vertex -3.464101615137753 2.000000000000001 0.0
    vertex -3.464101615137753 2.000000000000001 7.0
  endloop
endfacet
facet normal 0.9914448613738105 -0.1305261922200517 0.0
  outer loop
    vertex -3.863703305156272 1.0352761804100838 0.0
    vertex -3.999999999999999 4.898587196589412e-16 7.0
    vertex -3.999999999999999 4.898587196589412e-16 0.0
  endloop
endfacet
facet normal 0.9914448613738105 -0.1305261922200517 0.0
  outer loop
    vertex -3.999999999999999 4.898587196589412e-16 7.0
    vertex -3.863703305156272 1.0352761804100838 0.0
    vertex -3.863703305156272 1.0352761804100838 7.0
  endloop
endfacet
facet normal 0.9914448613738105 0.13052619222005124 0.0
  outer loop
    vertex -3.999999999999999 4.898587196589412e-16 0.0
    vertex -3.863703305156273 -1.0352761804100812 7.0
    vertex -3.863703305156273 -1.0352761804100812 0.0
  endloop
endfacet
facet normal 0.9914448613738105 0.13052619222005124 0.0
  outer loop
    vertex -3.863703305156273 -1.0352761804100812 7.0
    vertex -3.999999999999999 4.898587196589412e-16 0.0
    vertex -3.999999999999999 4.898587196589412e-16 7.0
  endloop
endfacet
facet normal 0.923879532511287 0.38268343236508934 0.0
  outer loop
    vertex -3.863703305156273 -1.0352761804100812 0.0
    vertex -3.4641016151377544 -1.9999999999999984 7.0
    vertex -3.4641016151377544 -1.9999999999999984 0.0
  endloop
endfacet
facet normal 0.923879532511287 0.38268343236508934 0.0
  outer loop
    vertex -3.4641016151377544 -1.9999999999999984 7.0
    vertex -3.863703305156273 -1.0352761804100812 0.0
    vertex -3.863703305156273 -1.0352761804100812 7.0
  endloop
endfacet
facet normal 0.7933533402912354 0.6087614290087205 0.0
  outer loop
    vertex -3.4641016151377544 -1.9999999999999984 0.0
    vertex -2.8284271247461907 -2.828427124746188 7.0
    vertex -2.8284271247461907 -2.828427124746188 0.0
  endloop
endfacet
facet normal 0.7933533402912354 0.6087614290087205 0.0
  outer loop
    vertex -2.8284271247461907 -2.828427124746188 7.0
    vertex -3.4641016151377544 -1.9999999999999984 0.0
    vertex -3.4641016151377544 -1.9999999999999984 7.0
  endloop
endfacet
facet normal 0.6087614290087209 0.7933533402912349 0.0
  outer loop
    vertex -2.8284271247461907 -2.828427124746188 7.0
    vertex -2.0000000000000013 -3.4641016151377526 0.0
    vertex -2.8284271247461907 -2.828427124746188 0.0
  endloop
endfacet
facet normal 0.6087614290087209 0.7933533402912349 0.0
  outer loop
    vertex -2.0000000000000013 -3.4641016151377526 0.0
    vertex -2.8284271247461907 -2.828427124746188 7.0
    vertex -2.0000000000000013 -3.4641016151377526 7.0
  endloop
endfacet
facet normal 0.3826834323650905 0.9238795325112865 0.0
  outer loop
    vertex -2.0000000000000013 -3.4641016151377526 7.0
    vertex -1.0352761804100858 -3.8637033051562715 0.0
    vertex -2.0000000000000013 -3.4641016151377526 0.0
  endloop
endfacet
facet normal 0.3826834323650905 0.9238795325112865 0.0
  outer loop
    vertex -1.0352761804100858 -3.8637033051562715 0.0
    vertex -2.0000000000000013 -3.4641016151377526 7.0
    vertex -1.0352761804100858 -3.8637033051562715 7.0
  endloop
endfacet
facet normal 0.13052619222005216 0.9914448613738104 0.0
  outer loop
    vertex -1.0352761804100858 -3.8637033051562715 7.0
    vertex -7.347880794884117e-16 -3.999999999999999 0.0
    vertex -1.0352761804100858 -3.8637033051562715 0.0
  endloop
endfacet
facet normal 0.13052619222005216 0.9914448613738104 0.0
  outer loop
    vertex -7.347880794884117e-16 -3.999999999999999 0.0
    vertex -1.0352761804100858 -3.8637033051562715 7.0
    vertex -7.347880794884117e-16 -3.999999999999999 7.0
  endloop
endfacet
facet normal -0.13052619222005127 0.9914448613738106 0.0
  outer loop
    vertex -7.347880794884117e-16 -3.999999999999999 7.0
    vertex 1.035276180410081 -3.863703305156273 0.0
    vertex -7.347880794884117e-16 -3.999999999999999 0.0
  endloop
endfacet
facet normal -0.13052619222005127 0.9914448613738106 0.0
  outer loop
    vertex 1.035276180410081 -3.863703305156273 0.0
    vertex -7.347880794884117e-16 -3.999999999999999 7.0
    vertex 1.035276180410081 -3.863703305156273 7.0
  endloop
endfacet
facet normal -0.3826834323650892 0.923879532511287 0.0
  outer loop
    vertex 1.035276180410081 -3.863703305156273 7.0
    vertex 1.9999999999999967 -3.4641016151377553 0.0
    vertex 1.035276180410081 -3.863703305156273 0.0
  endloop
endfacet
facet normal -0.3826834323650892 0.923879532511287 0.0
  outer loop
    vertex 1.9999999999999967 -3.4641016151377553 0.0
    vertex 1.035276180410081 -3.863703305156273 7.0
    vertex 1.9999999999999967 -3.4641016151377553 7.0
  endloop
endfacet
facet normal -0.6087614290087202 0.7933533402912355 0.0
  outer loop
    vertex 1.9999999999999967 -3.4641016151377553 7.0
    vertex 2.8284271247461885 -2.8284271247461903 0.0
    vertex 1.9999999999999967 -3.4641016151377553 0.0
  endloop
endfacet
facet normal -0.6087614290087202 0.7933533402912355 0.0
  outer loop
    vertex 2.8284271247461885 -2.8284271247461903 0.0
    vertex 1.9999999999999967 -3.4641016151377553 7.0
    vertex 2.8284271247461885 -2.8284271247461903 7.0
  endloop
endfacet
facet normal -0.793353340291235 0.6087614290087208 0.0
  outer loop
    vertex 3.4641016151377526 -2.0000000000000013 7.0
    vertex 2.8284271247461885 -2.8284271247461903 0.0
    vertex 2.8284271247461885 -2.8284271247461903 7.0
  endloop
endfacet
facet normal -0.793353340291235 0.6087614290087208 0.0
  outer loop
    vertex 2.8284271247461885 -2.8284271247461903 0.0
    vertex 3.4641016151377526 -2.0000000000000013 7.0
    vertex 3.4641016151377526 -2.0000000000000013 0.0
  endloop
endfacet
facet normal -0.9238795325112865 0.38268343236509056 0.0
  outer loop
    vertex 3.8637033051562715 -1.035276180410086 7.0
    vertex 3.4641016151377526 -2.0000000000000013 0.0
    vertex 3.4641016151377526 -2.0000000000000013 7.0
  endloop
endfacet
facet normal -0.9238795325112865 0.38268343236509056 0.0
  outer loop
    vertex 3.4641016151377526 -2.0000000000000013 0.0
    vertex 3.8637033051562715 -1.035276180410086 7.0
    vertex 3.8637033051562715 -1.035276180410086 0.0
  endloop
endfacet
facet normal -0.9914448613738104 0.13052619222005205 0.0
  outer loop
    vertex 3.999999999999999 0.0 7.0
    vertex 3.8637033051562715 -1.035276180410086 0.0
    vertex 3.8637033051562715 -1.035276180410086 7.0
  endloop
endfacet
facet normal -0.9914448613738104 0.13052619222005205 0.0
  outer loop
    vertex 3.8637033051562715 -1.035276180410086 0.0
    vertex 3.999999999999999 0.0 7.0
    vertex 3.999999999999999 0.0 0.0
  endloop
endfacet
facet normal -0.9914448613738104 -0.13052619222005177 -0.0
  outer loop
    vertex 3.863703305156272 1.0352761804100827 7.0
    vertex 3.999999999999999 0.0 0.0
    vertex 3.999999999999999 0.0 7.0
  endloop
endfacet
facet normal -0.9914448613738104 -0.13052619222005177 -0.0
  outer loop
    vertex 3.999999999999999 0.0 0.0
    vertex 3.863703305156272 1.0352761804100827 7.0
    vertex 3.863703305156272 1.0352761804100827 0.0
  endloop
endfacet
facet normal -0.9238795325112868 -0.3826834323650896 -0.0
  outer loop
    vertex 3.464101615137754 1.9999999999999991 7.0
    vertex 3.863703305156272 1.0352761804100827 0.0
    vertex 3.863703305156272 1.0352761804100827 7.0
  endloop
endfacet
facet normal -0.9238795325112868 -0.3826834323650896 -0.0
  outer loop
    vertex 3.863703305156272 1.0352761804100827 0.0
    vertex 3.464101615137754 1.9999999999999991 7.0
    vertex 3.464101615137754 1.9999999999999991 0.0
  endloop
endfacet
facet normal -0.7933533402912353 -0.6087614290087205 -0.0
  outer loop
    vertex 2.82842712474619 2.828427124746189 7.0
    vertex 3.464101615137754 1.9999999999999991 0.0
    vertex 3.464101615137754 1.9999999999999991 7.0
  endloop
endfacet
facet normal -0.7933533402912353 -0.6087614290087205 -0.0
  outer loop
    vertex 3.464101615137754 1.9999999999999991 0.0
    vertex 2.82842712474619 2.828427124746189 7.0
    vertex 2.82842712474619 2.828427124746189 0.0
  endloop
endfacet
facet normal -0.6087614290087209 -0.7933533402912349 -0.0
  outer loop
    vertex 2.82842712474619 2.828427124746189 7.0
    vertex 1.9999999999999998 3.464101615137754 0.0
    vertex 2.82842712474619 2.828427124746189 0.0
  endloop
endfacet
facet normal -0.6087614290087209 -0.7933533402912349 -0.0
  outer loop
    vertex 1.9999999999999998 3.464101615137754 0.0
    vertex 2.82842712474619 2.828427124746189 7.0
    vertex 1.9999999999999998 3.464101615137754 7.0
  endloop
endfacet
facet normal -0.3826834323650896 -0.9238795325112867 -0.0
  outer loop
    vertex 1.9999999999999998 3.464101615137754 7.0
    vertex 1.0352761804100836 3.863703305156272 0.0
    vertex 1.9999999999999998 3.464101615137754 0.0
  endloop
endfacet
facet normal -0.3826834323650896 -0.9238795325112867 -0.0
  outer loop
    vertex 1.0352761804100836 3.863703305156272 0.0
    vertex 1.9999999999999998 3.464101615137754 7.0
    vertex 1.0352761804100836 3.863703305156272 7.0
  endloop
endfacet
facet normal -0.13052619222005168 -0.9914448613738104 -0.0
  outer loop
    vertex 1.0352761804100836 3.863703305156272 7.0
    vertex 2.449293598294706e-16 3.999999999999999 0.0
    vertex 1.0352761804100836 3.863703305156272 0.0
  endloop
endfacet
facet normal -0.13052619222005168 -0.9914448613738104 -0.0
  outer loop
    vertex 2.449293598294706e-16 3.999999999999999 0.0
    vertex 1.0352761804100836 3.863703305156272 7.0
    vertex 2.449293598294706e-16 3.999999999999999 7.0
  endloop
endfacet
facet normal 0.1305261922200518 -0.9914448613738104 0.0
  outer loop
    vertex 2.449293598294706e-16 3.999999999999999 7.0
    vertex -1.0352761804100823 3.863703305156272 0.0
    vertex 2.449293598294706e-16 3.999999999999999 0.0
  endloop
endfacet
facet normal 0.1305261922200518 -0.9914448613738104 0.0
  outer loop
    vertex -1.0352761804100823 3.863703305156272 0.0
    vertex 2.449293598294706e-16 3.999999999999999 7.0
    vertex -1.0352761804100823 3.863703305156272 7.0
  endloop
endfacet
facet normal 0.3826834323650896 -0.9238795325112867 0.0
  outer loop
    vertex -1.0352761804100823 3.863703305156272 7.0
    vertex -1.9999999999999984 3.464101615137754 0.0
    vertex -1.0352761804100823 3.863703305156272 0.0
  endloop
endfacet
facet normal 0.3826834323650896 -0.9238795325112867 0.0
  outer loop
    vertex -1.9999999999999984 3.464101615137754 0.0
    vertex -1.0352761804100823 3.863703305156272 7.0
    vertex -1.9999999999999984 3.464101615137754 7.0
  endloop
endfacet
facet normal 0.0 0.0 -1.0
  outer loop
    vertex -1.8117333157176443 6.761480784023478 -15.0
    vertex -2.5802639921712567 0.3197463537000083 -15.0
    vertex -3.4999999999999987 6.06217782649107 -15.0
  endloop
endfacet
facet normal 0.0 0.0 -1.0
  outer loop
    vertex -2.5802639921712567 0.3197463537000083 -15.0
    vertex -1.8117333157176443 6.761480784023478 -15.0
    vertex -2.4095871827423014 0.9766727234667819 -15.0
  endloop
endfacet
facet normal 0.0 0.0 -1.0
  outer loop
    vertex -2.4095871827423014 0.9766727234667819 -15.0
    vertex -1.8117333157176443 6.761480784023478 -15.0
    vertex -2.0747009888405556 1.567040461157281 -15.0
  endloop
endfacet
facet normal 0.0 0.0 -1.0
  outer loop
    vertex -2.0747009888405556 1.567040461157281 -15.0
    vertex -1.8117333157176443 6.761480784023478 -15.0
    vertex -1.5984273511548197 2.050616981076717 -15.0
  endloop
endfacet
facet normal 0.0 0.0 -1.0
  outer loop
    vertex -1.5984273511548197 2.050616981076717 -15.0
    vertex -1.8117333157176443 6.761480784023478 -15.0
    vertex 4.286263797015736e-16 7.0 -15.0
  endloop
endfacet
facet normal 0.0 0.0 -1.0
  outer loop
    vertex -1.5984273511548197 2.050616981076717 -15.0
    vertex 4.286263797015736e-16 7.0 -15.0
    vertex -1.0132235310139748 2.3944473425405652 -15.0
  endloop
endfacet
facet normal 0.0 0.0 -1.0
  outer loop
    vertex -1.0132235310139748 2.3944473425405652 -15.0
    vertex 4.286263797015736e-16 7.0 -15.0
    vertex -0.3589702016655843 2.5751000746216 -15.0
  endloop
endfacet
facet normal 0.0 0.0 -1.0
  outer loop
    vertex -0.3589702016655843 2.5751000746216 -15.0
    vertex 4.286263797015736e-16 7.0 -15.0
    vertex 0.3197463537000088 2.5802639921712567 -15.0
  endloop
endfacet
facet normal 0.0 0.0 -1.0
  outer loop
    vertex 0.3197463537000088 2.5802639921712567 -15.0
    vertex 4.286263797015736e-16 7.0 -15.0
    vertex 1.8117333157176467 6.761480784023478 -15.0
  endloop
endfacet
facet normal 0.0 0.0 -1.0
  outer loop
    vertex 0.3197463537000088 2.5802639921712567 -15.0
    vertex 1.8117333157176467 6.761480784023478 -15.0
    vertex 0.9766727234667818 2.4095871827423014 -15.0
  endloop
endfacet
facet normal 0.0 0.0 -1.0
  outer loop
    vertex 0.9766727234667818 2.4095871827423014 -15.0
    vertex 1.8117333157176467 6.761480784023478 -15.0
    vertex 1.567040461157281 2.0747009888405556 -15.0
  endloop
endfacet
facet normal 0.0 0.0 -1.0
  outer loop
    vertex 1.567040461157281 2.0747009888405556 -15.0
    vertex 1.8117333157176467 6.761480784023478 -15.0
    vertex 2.0506169810767174 1.598427351154819 -15.0
  endloop
endfacet
facet normal 0.0 0.0 -1.0
  outer loop
    vertex 2.0506169810767174 1.598427351154819 -15.0
    vertex 1.8117333157176467 6.761480784023478 -15.0
    vertex 3.5000000000000004 6.06217782649107 -15.0
  endloop
endfacet
facet normal 0.0 0.0 -1.0
  outer loop
    vertex 2.0506169810767174 1.598427351154819 -15.0
    vertex 3.5000000000000004 6.06217782649107 -15.0
    vertex 2.394447342540565 1.0132235310139759 -15.0
  endloop
endfacet
facet normal 0.0 0.0 -1.0
  outer loop
    vertex 2.394447342540565 1.0132235310139759 -15.0
    vertex 3.5000000000000004 6.06217782649107 -15.0
    vertex 2.5751000746216 0.35897020166558435 -15.0
  endloop
endfacet
facet normal 0.0 0.0 -1.0
  outer loop
    vertex 2.5751000746216 0.35897020166558435 -15.0
    vertex 3.5000000000000004 6.06217782649107 -15.0
    vertex 2.5802639921712567 -0.3197463537000086 -15.0
  endloop
endfacet
facet normal 0.0 0.0 -1.0
  outer loop
    vertex 2.5802639921712567 -0.3197463537000086 -15.0
    vertex 3.5000000000000004 6.06217782649107 -15.0
    vertex 3.499999999999995 -6.062177826491073 -15.0
  endloop
endfacet
facet normal 0.0 0.0 -1.0
  outer loop
    vertex 3.499999999999995 -6.062177826491073 -15.0
    vertex 3.5000000000000004 6.06217782649107 -15.0
    vertex 4.949747468305832 -4.949747468305834 -15.0
  endloop
endfacet
facet normal 0.0 0.0 -1.0
  outer loop
    vertex 4.949747468305832 -4.949747468305834 -15.0
    vertex 3.5000000000000004 6.06217782649107 -15.0
    vertex 4.949747468305833 4.949747468305833 -15.0
  endloop
endfacet
facet normal 0.0 0.0 -1.0
  outer loop
    vertex 4.949747468305832 -4.949747468305834 -15.0
    vertex 4.949747468305833 4.949747468305833 -15.0
    vertex 6.062177826491069 -3.5000000000000027 -15.0
  endloop
endfacet
facet normal 0.0 0.0 -1.0
  outer loop
    vertex 6.062177826491069 -3.5000000000000027 -15.0
    vertex 4.949747468305833 4.949747468305833 -15.0
    vertex 6.06217782649107 3.499999999999999 -15.0
  endloop
endfacet
facet normal 0.0 0.0 -1.0
  outer loop
    vertex 6.062177826491069 -3.5000000000000027 -15.0
    vertex 6.06217782649107 3.499999999999999 -15.0
    vertex 6.761480784023476 -1.811733315717651 -15.0
  endloop
endfacet
facet normal 0.0 0.0 -1.0
  outer loop
    vertex 6.761480784023476 -1.811733315717651 -15.0
    vertex 6.06217782649107 3.499999999999999 -15.0
    vertex 6.761480784023478 1.8117333157176452 -15.0
  endloop
endfacet
facet normal 0.0 0.0 -1.0
  outer loop
    vertex 6.761480784023476 -1.811733315717651 -15.0
    vertex 6.761480784023478 1.8117333157176452 -15.0
    vertex 7.0 0.0 -15.0
  endloop
endfacet
facet normal 0.0 0.0 -1.0
  outer loop
    vertex -6.761480784023478 1.811733315717647 -15.0
    vertex -6.761480784023479 -1.8117333157176425 -15.0
    vertex -7.0 8.572527594031472e-16 -15.0
  endloop
endfacet
facet normal 0.0 0.0 -1.0
  outer loop
    vertex -6.761480784023479 -1.8117333157176425 -15.0
    vertex -6.761480784023478 1.811733315717647 -15.0
    vertex -6.062177826491071 -3.499999999999998 -15.0
  endloop
endfacet
facet normal 0.0 0.0 -1.0
  outer loop
    vertex -6.062177826491071 -3.499999999999998 -15.0
    vertex -6.761480784023478 1.811733315717647 -15.0
    vertex -6.0621778264910695 3.500000000000002 -15.0
  endloop
endfacet
facet normal 0.0 0.0 -1.0
  outer loop
    vertex -6.062177826491071 -3.499999999999998 -15.0
    vertex -6.0621778264910695 3.500000000000002 -15.0
    vertex -4.949747468305835 -4.949747468305829 -15.0
  endloop
endfacet
facet normal 0.0 0.0 -1.0
  outer loop
    vertex -4.949747468305835 -4.949747468305829 -15.0
    vertex -6.0621778264910695 3.500000000000002 -15.0
    vertex -4.949747468305833 4.949747468305833 -15.0
  endloop
endfacet
facet normal 0.0 0.0 -1.0
  outer loop
    vertex -4.949747468305835 -4.949747468305829 -15.0
    vertex -4.949747468305833 4.949747468305833 -15.0
    vertex -3.5000000000000027 -6.062177826491069 -15.0
  endloop
endfacet
facet normal 0.0 0.0 -1.0
  outer loop
    vertex -3.5000000000000027 -6.062177826491069 -15.0
    vertex -4.949747468305833 4.949747468305833 -15.0
    vertex -3.4999999999999987 6.06217782649107 -15.0
  endloop
endfacet
facet normal 0.0 0.0 -1.0
  outer loop
    vertex -3.5000000000000027 -6.062177826491069 -15.0
    vertex -3.4999999999999987 6.06217782649107 -15.0
    vertex -1.8117333157176505 -6.761480784023476 -15.0
  endloop
endfacet
facet normal 0.0 0.0 -1.0
  outer loop
    vertex -1.8117333157176505 -6.761480784023476 -15.0
    vertex -3.4999999999999987 6.06217782649107 -15.0
    vertex -2.5751000746216 -0.35897020166558546 -15.0
  endloop
endfacet
facet normal 0.0 0.0 -1.0
  outer loop
    vertex -2.5751000746216 -0.35897020166558546 -15.0
    vertex -3.4999999999999987 6.06217782649107 -15.0
    vertex -2.5802639921712567 0.3197463537000083 -15.0
  endloop
endfacet
facet normal 0.0 0.0 -1.0
  outer loop
    vertex -1.8117333157176505 -6.761480784023476 -15.0
    vertex -2.5751000746216 -0.35897020166558546 -15.0
    vertex -2.3944473425405643 -1.0132235310139766 -15.0
  endloop
endfacet
facet normal 0.0 0.0 -1.0
  outer loop
    vertex -1.8117333157176505 -6.761480784023476 -15.0
    vertex -2.3944473425405643 -1.0132235310139766 -15.0
    vertex -2.050616981076717 -1.5984273511548197 -15.0
  endloop
endfacet
facet normal 0.0 0.0 -1.0
  outer loop
    vertex -1.8117333157176505 -6.761480784023476 -15.0
    vertex -2.050616981076717 -1.5984273511548197 -15.0
    vertex -1.5670404611572801 -2.0747009888405556 -15.0
  endloop
endfacet
facet normal 0.0 0.0 -1.0
  outer loop
    vertex -1.8117333157176505 -6.761480784023476 -15.0
    vertex -1.5670404611572801 -2.0747009888405556 -15.0
    vertex -1.2858791391047208e-15 -7.0 -15.0
  endloop
endfacet
facet normal 0.0 0.0 -1.0
  outer loop
    vertex -1.2858791391047208e-15 -7.0 -15.0
    vertex -1.5670404611572801 -2.0747009888405556 -15.0
    vertex -0.9766727234667804 -2.409587182742302 -15.0
  endloop
endfacet
facet normal 0.0 0.0 -1.0
  outer loop
    vertex -1.2858791391047208e-15 -7.0 -15.0
    vertex -0.9766727234667804 -2.409587182742302 -15.0
    vertex -0.3197463537000085 -2.5802639921712567 -15.0
  endloop
endfacet
facet normal 0.0 0.0 -1.0
  outer loop
    vertex -1.2858791391047208e-15 -7.0 -15.0
    vertex -0.3197463537000085 -2.5802639921712567 -15.0
    vertex 0.3589702016655852 -2.5751000746216 -15.0
  endloop
endfacet
facet normal 0.0 0.0 -1.0
  outer loop
    vertex -1.2858791391047208e-15 -7.0 -15.0
    vertex 0.3589702016655852 -2.5751000746216 -15.0
    vertex 1.811733315717642 -6.761480784023479 -15.0
  endloop
endfacet
facet normal 0.0 0.0 -1.0
  outer loop
    vertex 1.811733315717642 -6.761480784023479 -15.0
    vertex 0.3589702016655852 -2.5751000746216 -15.0
    vertex 1.013223531013976 -2.3944473425405643 -15.0
  endloop
endfacet
facet normal 0.0 0.0 -1.0
  outer loop
    vertex 1.811733315717642 -6.761480784023479 -15.0
    vertex 1.013223531013976 -2.3944473425405643 -15.0
    vertex 1.5984273511548197 -2.050616981076717 -15.0
  endloop
endfacet
facet normal 0.0 0.0 -1.0
  outer loop
    vertex 1.811733315717642 -6.761480784023479 -15.0
    vertex 1.5984273511548197 -2.050616981076717 -15.0
    vertex 2.0747009888405556 -1.5670404611572808 -15.0
  endloop
endfacet
facet normal 0.0 0.0 -1.0
  outer loop
    vertex 1.811733315717642 -6.761480784023479 -15.0
    vertex 2.0747009888405556 -1.5670404611572808 -15.0
    vertex 3.499999999999995 -6.062177826491073 -15.0
  endloop
endfacet
facet normal 0.0 0.0 -1.0
  outer loop
    vertex 3.499999999999995 -6.062177826491073 -15.0
    vertex 2.0747009888405556 -1.5670404611572808 -15.0
    vertex 2.409587182742302 -0.9766727234667807 -15.0
  endloop
endfacet
facet normal 0.0 0.0 -1.0
  outer loop
    vertex 3.499999999999995 -6.062177826491073 -15.0
    vertex 2.409587182742302 -0.9766727234667807 -15.0
    vertex 2.5802639921712567 -0.3197463537000086 -15.0
  endloop
endfacet
facet normal 0.8621962708542341 0.5065743682077217 0.0
  outer loop
    vertex -2.3944473425405643 -1.0132235310139766 -15.0
    vertex -2.050616981076717 -1.5984273511548197 -2.8199664825478975e-15
    vertex -2.050616981076717 -1.5984273511548197 -15.0
  endloop
endfacet
facet normal 0.8621962708542341 0.5065743682077217 0.0
  outer loop
    vertex -2.050616981076717 -1.5984273511548197 -2.8199664825478975e-15
    vertex -2.3944473425405643 -1.0132235310139766 -15.0
    vertex -2.3944473425405643 -1.0132235310139766 -2.8199664825478975e-15
  endloop
endfacet
facet normal 0.9639287396011648 0.2661604496744588 0.0
  outer loop
    vertex -2.5751000746216 -0.35897020166558546 -15.0
    vertex -2.3944473425405643 -1.0132235310139766 -2.8199664825478975e-15
    vertex -2.3944473425405643 -1.0132235310139766 -15.0
  endloop
endfacet
facet normal 0.9639287396011648 0.2661604496744588 0.0
  outer loop
    vertex -2.3944473425405643 -1.0132235310139766 -2.8199664825478975e-15
    vertex -2.5751000746216 -0.35897020166558546 -15.0
    vertex -2.5751000746216 -0.35897020166558546 -2.8199664825478975e-15
  endloop
endfacet
facet normal 0.9999710577118361 0.007608136346821803 0.0
  outer loop
    vertex -2.5802639921712567 0.3197463537000083 -15.0
    vertex -2.5751000746216 -0.35897020166558546 -2.8199664825478975e-15
    vertex -2.5751000746216 -0.35897020166558546 -15.0
  endloop
endfacet
facet normal 0.9999710577118361 0.007608136346821803 0.0
  outer loop
    vertex -2.5751000746216 -0.35897020166558546 -2.8199664825478975e-15
    vertex -2.5802639921712567 0.3197463537000083 -15.0
    vertex -2.5802639921712567 0.3197463537000083 -2.8199664825478975e-15
  endloop
endfacet
facet normal 0.9678670007697531 -0.25146265889981123 -0.0
  outer loop
    vertex -2.4095871827423014 0.9766727234667819 -15.0
    vertex -2.5802639921712567 0.3197463537000083 -2.8199664825478975e-15
    vertex -2.5802639921712567 0.3197463537000083 -15.0
  endloop
endfacet
facet normal 0.9678670007697531 -0.25146265889981123 -0.0
  outer loop
    vertex -2.5802639921712567 0.3197463537000083 -2.8199664825478975e-15
    vertex -2.4095871827423014 0.9766727234667819 -15.0
    vertex -2.4095871827423014 0.9766727234667819 -2.8199664825478975e-15
  endloop
endfacet
facet normal 0.8698044072010558 -0.493396689504115 -0.0
  outer loop
    vertex -2.0747009888405556 1.567040461157281 -15.0
    vertex -2.4095871827423014 0.9766727234667819 -2.8199664825478975e-15
    vertex -2.4095871827423014 0.9766727234667819 -15.0
  endloop
endfacet
facet normal 0.8698044072010558 -0.493396689504115 -0.0
  outer loop
    vertex -2.4095871827423014 0.9766727234667819 -2.8199664825478975e-15
    vertex -2.0747009888405556 1.567040461157281 -15.0
    vertex -2.0747009888405556 1.567040461157281 -2.8199664825478975e-15
  endloop
endfacet
facet normal 0.7124660807013529 -0.7017065510952947 -0.0
  outer loop
    vertex -1.5984273511548197 2.050616981076717 -15.0
    vertex -2.0747009888405556 1.567040461157281 -2.8199664825478975e-15
    vertex -2.0747009888405556 1.567040461157281 -15.0
  endloop
endfacet
facet normal 0.7124660807013529 -0.7017065510952947 -0.0
  outer loop
    vertex -2.0747009888405556 1.567040461157281 -2.8199664825478975e-15
    vertex -1.5984273511548197 2.050616981076717 -15.0
    vertex -1.5984273511548197 2.050616981076717 -2.8199664825478975e-15
  endloop
endfacet
facet normal 0.5065743682077213 -0.8621962708542342 -0.0
  outer loop
    vertex -1.0132235310139748 2.3944473425405652 -2.8199664825478975e-15
    vertex -1.5984273511548197 2.050616981076717 -15.0
    vertex -1.0132235310139748 2.3944473425405652 -15.0
  endloop
endfacet
facet normal 0.5065743682077213 -0.8621962708542342 -0.0
  outer loop
    vertex -1.5984273511548197 2.050616981076717 -15.0
    vertex -1.0132235310139748 2.3944473425405652 -2.8199664825478975e-15
    vertex -1.5984273511548197 2.050616981076717 -2.8199664825478975e-15
  endloop
endfacet
facet normal 0.26616044967445807 -0.963928739601165 -0.0
  outer loop
    vertex -0.3589702016655843 2.5751000746216 -2.8199664825478975e-15
    vertex -1.0132235310139748 2.3944473425405652 -15.0
    vertex -0.3589702016655843 2.5751000746216 -15.0
  endloop
endfacet
facet normal 0.26616044967445807 -0.963928739601165 -0.0
  outer loop
    vertex -1.0132235310139748 2.3944473425405652 -15.0
    vertex -0.3589702016655843 2.5751000746216 -2.8199664825478975e-15
    vertex -1.0132235310139748 2.3944473425405652 -2.8199664825478975e-15
  endloop
endfacet
facet normal 0.007608136346821811 -0.999971057711836 -0.0
  outer loop
    vertex 0.3197463537000088 2.5802639921712567 -2.8199664825478975e-15
    vertex -0.3589702016655843 2.5751000746216 -15.0
    vertex 0.3197463537000088 2.5802639921712567 -15.0
  endloop
endfacet
facet normal 0.007608136346821811 -0.999971057711836 -0.0
  outer loop
    vertex -0.3589702016655843 2.5751000746216 -15.0
    vertex 0.3197463537000088 2.5802639921712567 -2.8199664825478975e-15
    vertex -0.3589702016655843 2.5751000746216 -2.8199664825478975e-15
  endloop
endfacet
facet normal -0.25146265889981145 -0.9678670007697532 -0.0
  outer loop
    vertex 0.9766727234667818 2.4095871827423014 -2.8199664825478975e-15
    vertex 0.3197463537000088 2.5802639921712567 -15.0
    vertex 0.9766727234667818 2.4095871827423014 -15.0
  endloop
endfacet
facet normal -0.25146265889981145 -0.9678670007697532 -0.0
  outer loop
    vertex 0.3197463537000088 2.5802639921712567 -15.0
    vertex 0.9766727234667818 2.4095871827423014 -2.8199664825478975e-15
    vertex 0.3197463537000088 2.5802639921712567 -2.8199664825478975e-15
  endloop
endfacet
facet normal -0.4933966895041149 -0.8698044072010559 -0.0
  outer loop
    vertex 1.567040461157281 2.0747009888405556 -2.8199664825478975e-15
    vertex 0.9766727234667818 2.4095871827423014 -15.0
    vertex 1.567040461157281 2.0747009888405556 -15.0
  endloop
endfacet
facet normal -0.4933966895041149 -0.8698044072010559 -0.0
  outer loop
    vertex 0.9766727234667818 2.4095871827423014 -15.0
    vertex 1.567040461157281 2.0747009888405556 -2.8199664825478975e-15
    vertex 0.9766727234667818 2.4095871827423014 -2.8199664825478975e-15
  endloop
endfacet
facet normal -0.7017065510952947 -0.7124660807013529 -0.0
  outer loop
    vertex 2.0506169810767174 1.598427351154819 -2.8199664825478975e-15
    vertex 1.567040461157281 2.0747009888405556 -15.0
    vertex 2.0506169810767174 1.598427351154819 -15.0
  endloop
endfacet
facet normal -0.7017065510952947 -0.7124660807013529 -0.0
  outer loop
    vertex 1.567040461157281 2.0747009888405556 -15.0
    vertex 2.0506169810767174 1.598427351154819 -2.8199664825478975e-15
    vertex 1.567040461157281 2.0747009888405556 -2.8199664825478975e-15
  endloop
endfacet
facet normal -0.8621962708542343 -0.5065743682077214 -0.0
  outer loop
    vertex 2.0506169810767174 1.598427351154819 -2.8199664825478975e-15
    vertex 2.394447342540565 1.0132235310139759 -15.0
    vertex 2.394447342540565 1.0132235310139759 -2.8199664825478975e-15
  endloop
endfacet
facet normal -0.8621962708542343 -0.5065743682077214 -0.0
  outer loop
    vertex 2.394447342540565 1.0132235310139759 -15.0
    vertex 2.0506169810767174 1.598427351154819 -2.8199664825478975e-15
    vertex 2.0506169810767174 1.598427351154819 -15.0
  endloop
endfacet
facet normal -0.9639287396011648 -0.26616044967445807 -0.0
  outer loop
    vertex 2.394447342540565 1.0132235310139759 -2.8199664825478975e-15
    vertex 2.5751000746216 0.35897020166558435 -15.0
    vertex 2.5751000746216 0.35897020166558435 -2.8199664825478975e-15
  endloop
endfacet
facet normal -0.9639287396011648 -0.26616044967445807 -0.0
  outer loop
    vertex 2.5751000746216 0.35897020166558435 -15.0
    vertex 2.394447342540565 1.0132235310139759 -2.8199664825478975e-15
    vertex 2.394447342540565 1.0132235310139759 -15.0
  endloop
endfacet
facet normal -0.999971057711836 -0.0076081363468218114 -0.0
  outer loop
    vertex 2.5751000746216 0.35897020166558435 -2.8199664825478975e-15
    vertex 2.5802639921712567 -0.3197463537000086 -15.0
    vertex 2.5802639921712567 -0.3197463537000086 -2.8199664825478975e-15
  endloop
endfacet
facet normal -0.999971057711836 -0.0076081363468218114 -0.0
  outer loop
    vertex 2.5802639921712567 -0.3197463537000086 -15.0
    vertex 2.5751000746216 0.35897020166558435 -2.8199664825478975e-15
    vertex 2.5751000746216 0.35897020166558435 -15.0
  endloop
endfacet
facet normal -0.9678670007697531 0.2514626588998113 -0.0
  outer loop
    vertex 2.5802639921712567 -0.3197463537000086 -2.8199664825478975e-15
    vertex 2.409587182742302 -0.9766727234667807 -15.0
    vertex 2.409587182742302 -0.9766727234667807 -2.8199664825478975e-15
  endloop
endfacet
facet normal -0.9678670007697531 0.2514626588998113 -0.0
  outer loop
    vertex 2.409587182742302 -0.9766727234667807 -15.0
    vertex 2.5802639921712567 -0.3197463537000086 -2.8199664825478975e-15
    vertex 2.5802639921712567 -0.3197463537000086 -15.0
  endloop
endfacet
facet normal -0.8698044072010561 0.49339668950411447 -0.0
  outer loop
    vertex 2.409587182742302 -0.9766727234667807 -2.8199664825478975e-15
    vertex 2.0747009888405556 -1.5670404611572808 -15.0
    vertex 2.0747009888405556 -1.5670404611572808 -2.8199664825478975e-15
  endloop
endfacet
facet normal -0.8698044072010561 0.49339668950411447 -0.0
  outer loop
    vertex 2.0747009888405556 -1.5670404611572808 -15.0
    vertex 2.409587182742302 -0.9766727234667807 -2.8199664825478975e-15
    vertex 2.409587182742302 -0.9766727234667807 -15.0
  endloop
endfacet
facet normal -0.7124660807013529 0.7017065510952947 -0.0
  outer loop
    vertex 2.0747009888405556 -1.5670404611572808 -2.8199664825478975e-15
    vertex 1.5984273511548197 -2.050616981076717 -15.0
    vertex 1.5984273511548197 -2.050616981076717 -2.8199664825478975e-15
  endloop
endfacet
facet normal -0.7124660807013529 0.7017065510952947 -0.0
  outer loop
    vertex 1.5984273511548197 -2.050616981076717 -15.0
    vertex 2.0747009888405556 -1.5670404611572808 -2.8199664825478975e-15
    vertex 2.0747009888405556 -1.5670404611572808 -15.0
  endloop
endfacet
facet normal -0.5065743682077215 0.8621962708542343 -0.0
  outer loop
    vertex 1.013223531013976 -2.3944473425405643 -2.8199664825478975e-15
    vertex 1.5984273511548197 -2.050616981076717 -15.0
    vertex 1.013223531013976 -2.3944473425405643 -15.0
  endloop
endfacet
facet normal -0.5065743682077215 0.8621962708542343 -0.0
  outer loop
    vertex 1.5984273511548197 -2.050616981076717 -15.0
    vertex 1.013223531013976 -2.3944473425405643 -2.8199664825478975e-15
    vertex 1.5984273511548197 -2.050616981076717 -2.8199664825478975e-15
  endloop
endfacet
facet normal -0.26616044967445884 0.9639287396011647 -0.0
  outer loop
    vertex 0.3589702016655852 -2.5751000746216 -2.8199664825478975e-15
    vertex 1.013223531013976 -2.3944473425405643 -15.0
    vertex 0.3589702016655852 -2.5751000746216 -15.0
  endloop
endfacet
facet normal -0.26616044967445884 0.9639287396011647 -0.0
  outer loop
    vertex 1.013223531013976 -2.3944473425405643 -15.0
    vertex 0.3589702016655852 -2.5751000746216 -2.8199664825478975e-15
    vertex 1.013223531013976 -2.3944473425405643 -2.8199664825478975e-15
  endloop
endfacet
facet normal -0.007608136346821803 0.999971057711836 -0.0
  outer loop
    vertex -0.3197463537000085 -2.5802639921712567 -2.8199664825478975e-15
    vertex 0.3589702016655852 -2.5751000746216 -15.0
    vertex -0.3197463537000085 -2.5802639921712567 -15.0
  endloop
endfacet
facet normal -0.007608136346821803 0.999971057711836 -0.0
  outer loop
    vertex 0.3589702016655852 -2.5751000746216 -15.0
    vertex -0.3197463537000085 -2.5802639921712567 -2.8199664825478975e-15
    vertex 0.3589702016655852 -2.5751000746216 -2.8199664825478975e-15
  endloop
endfacet
facet normal 0.25146265889981134 0.9678670007697531 0.0
  outer loop
    vertex -0.9766727234667804 -2.409587182742302 -2.8199664825478975e-15
    vertex -0.3197463537000085 -2.5802639921712567 -15.0
    vertex -0.9766727234667804 -2.409587182742302 -15.0
  endloop
endfacet
facet normal 0.25146265889981134 0.9678670007697531 0.0
  outer loop
    vertex -0.3197463537000085 -2.5802639921712567 -15.0
    vertex -0.9766727234667804 -2.409587182742302 -2.8199664825478975e-15
    vertex -0.3197463537000085 -2.5802639921712567 -2.8199664825478975e-15
  endloop
endfacet
facet normal 0.4933966895041145 0.869804407201056 0.0
  outer loop
    vertex -1.5670404611572801 -2.0747009888405556 -2.8199664825478975e-15
    vertex -0.9766727234667804 -2.409587182742302 -15.0
    vertex -1.5670404611572801 -2.0747009888405556 -15.0
  endloop
endfacet
facet normal 0.4933966895041145 0.869804407201056 0.0
  outer loop
    vertex -0.9766727234667804 -2.409587182742302 -15.0
    vertex -1.5670404611572801 -2.0747009888405556 -2.8199664825478975e-15
    vertex -0.9766727234667804 -2.409587182742302 -2.8199664825478975e-15
  endloop
endfacet
facet normal 0.7017065510952943 0.7124660807013533 0.0
  outer loop
    vertex -2.050616981076717 -1.5984273511548197 -2.8199664825478975e-15
    vertex -1.5670404611572801 -2.0747009888405556 -15.0
    vertex -2.050616981076717 -1.5984273511548197 -15.0
  endloop
endfacet
facet normal 0.7017065510952943 0.7124660807013533 0.0
  outer loop
    vertex -1.5670404611572801 -2.0747009888405556 -15.0
    vertex -2.050616981076717 -1.5984273511548197 -2.8199664825478975e-15
    vertex -1.5670404611572801 -2.0747009888405556 -2.8199664825478975e-15
  endloop
endfacet
endsolid Переходник на муфту
