<?xml version="1.0" encoding="UTF-8" standalone="no"?>
<!-- Created with Inkscape (http://www.inkscape.org/) -->

<svg
   xmlns:osb="http://www.openswatchbook.org/uri/2009/osb"
   xmlns:dc="http://purl.org/dc/elements/1.1/"
   xmlns:cc="http://creativecommons.org/ns#"
   xmlns:rdf="http://www.w3.org/1999/02/22-rdf-syntax-ns#"
   xmlns:svg="http://www.w3.org/2000/svg"
   xmlns="http://www.w3.org/2000/svg"
   xmlns:sodipodi="http://sodipodi.sourceforge.net/DTD/sodipodi-0.dtd"
   xmlns:inkscape="http://www.inkscape.org/namespaces/inkscape"
   width="744.09448819"
   height="1052.3622047"
   id="svg2"
   version="1.1"
   inkscape:version="0.48.2 r9819"
   sodipodi:docname="Новый документ 1">
  <defs
     id="defs4">
    <linearGradient
       inkscape:collect="always"
       id="linearGradient5249"
       osb:paint="gradient">
      <stop
         style="stop-color:#000000;stop-opacity:1;"
         offset="0"
         id="stop5251" />
      <stop
         style="stop-color:#000000;stop-opacity:0;"
         offset="1"
         id="stop5253" />
    </linearGradient>
  </defs>
  <sodipodi:namedview
     id="base"
     pagecolor="#ffffff"
     bordercolor="#666666"
     borderopacity="1.0"
     inkscape:pageopacity="0.0"
     inkscape:pageshadow="2"
     inkscape:zoom="0.7"
     inkscape:cx="110.48736"
     inkscape:cy="603.80697"
     inkscape:document-units="px"
     inkscape:current-layer="layer1"
     showgrid="false"
     inkscape:snap-grids="true"
     inkscape:snap-page="false"
     inkscape:snap-object-midpoints="false"
     inkscape:snap-center="true"
     inkscape:window-width="1793"
     inkscape:window-height="1058"
     inkscape:window-x="-8"
     inkscape:window-y="-8"
     inkscape:window-maximized="1" />
  <metadata
     id="metadata7">
    <rdf:RDF>
      <cc:Work
         rdf:about="">
        <dc:format>image/svg+xml</dc:format>
        <dc:type
           rdf:resource="http://purl.org/dc/dcmitype/StillImage" />
        <dc:title></dc:title>
      </cc:Work>
    </rdf:RDF>
  </metadata>
  <g
     inkscape:label="Layer 1"
     inkscape:groupmode="layer"
     id="layer1">
    <path
       sodipodi:type="arc"
       style="fill:#ffff00;fill-rule:evenodd;stroke:#000000;stroke-width:3.54330707000000000;stroke-linecap:butt;stroke-linejoin:miter;stroke-miterlimit:4;stroke-opacity:1;stroke-dasharray:none"
       id="path2985"
       sodipodi:cx="385.71429"
       sodipodi:cy="369.50504"
       sodipodi:rx="297.14285"
       sodipodi:ry="294.28571"
       d="m 682.85715,369.50504 a 297.14285,294.28571 0 1 1 -594.285708,0 297.14285,294.28571 0 1 1 594.285708,0 z"
       transform="matrix(1.1853575,0,0,1.1968658,-90.42081,234.7543)" />
    <path
       sodipodi:type="arc"
       style="fill:#ffffff;stroke:#000000;stroke-width:3.54330707000000000;stroke-miterlimit:4;stroke-opacity:1;stroke-dasharray:none"
       id="path3763"
       sodipodi:cx="364.28571"
       sodipodi:cy="335.21933"
       sodipodi:rx="257.14285"
       sodipodi:ry="261.42856"
       d="m 621.42856,335.21933 a 257.14285,261.42856 0 1 1 -514.28571,0 257.14285,261.42856 0 1 1 514.28571,0 z"
       transform="matrix(1.2317409,0,0,1.2115485,-81.917081,270.86776)" />
    <path
       sodipodi:type="arc"
       style="fill:#ffff00;fill-rule:evenodd;stroke:#000000;stroke-width:3.54330707000000000;stroke-linecap:butt;stroke-linejoin:miter;stroke-miterlimit:4;stroke-opacity:1;stroke-dasharray:none"
       id="path2985-3"
       sodipodi:cx="385.71429"
       sodipodi:cy="369.50504"
       sodipodi:rx="297.14285"
       sodipodi:ry="294.28571"
       d="m 682.85715,369.50504 a 297.14285,294.28571 0 1 1 -594.285708,0 297.14285,294.28571 0 1 1 594.285708,0 z"
       transform="matrix(0.94828994,0,0,0.95748485,1.0195589,323.20681)" />
    <path
       sodipodi:type="arc"
       style="fill:#ffffff;stroke:#000000;stroke-width:3.54330707000000000;stroke-miterlimit:4;stroke-opacity:1;stroke-dasharray:none"
       id="path3763-1"
       sodipodi:cx="364.28571"
       sodipodi:cy="335.21933"
       sodipodi:rx="257.14285"
       sodipodi:ry="261.42856"
       d="m 621.42856,335.21933 a 257.14285,261.42856 0 1 1 -514.28571,0 257.14285,261.42856 0 1 1 514.28571,0 z"
       transform="matrix(0.95802074,0,0,0.94231551,17.795307,361.11993)" />
    <path
       sodipodi:type="arc"
       style="fill:#ffff00;stroke:#000000;stroke-width:4.95804595999999980;stroke-linecap:butt;stroke-linejoin:miter;stroke-miterlimit:4;stroke-opacity:1;stroke-dasharray:none"
       id="path2985-3-6"
       sodipodi:cx="385.71429"
       sodipodi:cy="369.50504"
       sodipodi:rx="297.14285"
       sodipodi:ry="294.28571"
       d="m 682.85715,369.50504 a 297.14285,294.28571 0 1 1 -594.285708,0 297.14285,294.28571 0 1 1 594.285708,0 z"
       transform="matrix(0.71122045,0,0,0.71811206,92.460676,411.65628)" />
    <path
       sodipodi:type="arc"
       style="fill:#ffffff;stroke:#000000;stroke-width:4.83423662000000040;stroke-miterlimit:4;stroke-opacity:1;stroke-dasharray:none"
       id="path3763-1-8"
       sodipodi:cx="364.28571"
       sodipodi:cy="335.21933"
       sodipodi:rx="257.14285"
       sodipodi:ry="261.42856"
       d="m 621.42856,335.21933 a 257.14285,261.42856 0 1 1 -514.28571,0 257.14285,261.42856 0 1 1 514.28571,0 z"
       transform="matrix(0.68445065,0,0,0.67141397,117.45298,451.93136)" />
    <rect
       style="fill:#00ff00;stroke:#000000;stroke-width:3.46505594000000010;stroke-miterlimit:4;stroke-opacity:1;stroke-dasharray:none"
       id="rect3781"
       width="67.401093"
       height="705.19635"
       x="333.08798"
       y="324.40405" />
    <path
       sodipodi:type="arc"
       style="fill:#ffff00;stroke:#000000;stroke-width:7.45501803999999970;stroke-linecap:butt;stroke-linejoin:miter;stroke-miterlimit:4;stroke-opacity:1;stroke-dasharray:none"
       id="path2985-3-6-8"
       sodipodi:cx="385.71429"
       sodipodi:cy="369.50504"
       sodipodi:rx="297.14285"
       sodipodi:ry="294.28571"
       d="m 682.85715,369.50504 a 297.14285,294.28571 0 1 1 -594.285708,0 297.14285,294.28571 0 1 1 594.285708,0 z"
       transform="matrix(0.47295589,0,0,0.47763872,184.36272,500.51239)" />
    <path
       sodipodi:type="arc"
       style="fill:#ffffff;stroke:#000000;stroke-width:10.52173739999999900;stroke-miterlimit:4;stroke-opacity:1;stroke-dasharray:none"
       id="path3763-1-8-2"
       sodipodi:cx="364.28571"
       sodipodi:cy="335.21933"
       sodipodi:rx="257.14285"
       sodipodi:ry="261.42856"
       d="m 621.42856,335.21933 a 257.14285,261.42856 0 1 1 -514.28571,0 257.14285,261.42856 0 1 1 514.28571,0 z"
       transform="matrix(0.33976903,0,0,0.3337789,243.01553,565.11309)" />
    <path
       sodipodi:type="star"
       style="fill:none;stroke:#b3b3b3;stroke-width:3.54330707000000000;stroke-miterlimit:4;stroke-opacity:1;stroke-dasharray:none"
       id="path3779"
       sodipodi:sides="8"
       sodipodi:cx="101.42857"
       sodipodi:cy="115.21932"
       sodipodi:r1="292.94424"
       sodipodi:r2="146.47211"
       sodipodi:arg1="0.78539816"
       sodipodi:arg2="1.1780972"
       inkscape:flatsided="false"
       inkscape:rounded="0"
       inkscape:randomized="0"
       d="M 308.57144,322.36218 157.48103,250.5419 101.42857,408.16357 45.376131,250.54191 -105.71429,322.36218 -33.894006,171.27178 -191.51567,115.21932 -33.894011,59.16688 -105.71429,-91.923539 45.376119,-20.103257 101.42857,-177.72492 157.48102,-20.103262 308.57143,-91.92354 236.75115,59.166867 394.37282,115.21932 236.75116,171.27176 z"
       transform="matrix(1.2022789,0,0,1.2022789,244.84309,538.47648)" />
    <path
       sodipodi:type="star"
       style="fill:none;stroke:#b3b3b3;stroke-width:3.54330707000000000;stroke-miterlimit:4;stroke-opacity:1;stroke-dasharray:none"
       id="path3775"
       sodipodi:sides="8"
       sodipodi:cx="-72.85714"
       sodipodi:cy="9.5050392"
       sodipodi:r1="213.20203"
       sodipodi:r2="106.60101"
       sodipodi:arg1="0.80909041"
       sodipodi:arg2="1.2017895"
       inkscape:flatsided="false"
       inkscape:rounded="0"
       inkscape:randomized="0"
       d="M 74.285721,163.79076 -34.407296,108.93032 -77.907902,222.64723 -115.97328,106.99747 -227.14286,156.6479 -172.28242,47.954883 -285.99933,4.4542768 -170.34957,-33.611102 -220,-144.78068 -111.30698,-89.920237 -67.806377,-203.63715 -29.740998,-87.987393 81.428578,-137.63782 26.568136,-28.944805 140.28505,14.555802 24.635293,52.621181 z"
       transform="matrix(0.98922628,0,0,0.98922629,438.86072,667.59961)" />
  </g>
</svg>
