solid XY-Ромб-Подтяжка
facet normal -6.298041947416367e-17 2.3391645435629296e-16 -1.0
  outer loop
    vertex 5.0738826555047085 14.586706680582484 5.639932965095795e-15
    vertex 5.330716181074343 11.01763809020504 1.478679805997933e-15
    vertex 5.262567833652479 10.499999999999998 1.3602018097852647e-15
  endloop
endfacet
facet normal -6.298041947416367e-17 2.3391645435629296e-16 -1.0
  outer loop
    vertex 5.330716181074343 11.01763809020504 1.478679805997933e-15
    vertex 5.0738826555047085 14.586706680582484 5.639932965095795e-15
    vertex 5.530517026083601 11.499999999999998 1.5924762448511026e-15
  endloop
endfacet
facet normal -6.298041947416367e-17 2.3391645435629296e-16 -1.0
  outer loop
    vertex 5.530517026083601 11.499999999999998 1.5924762448511026e-15
    vertex 5.0738826555047085 14.586706680582484 5.639932965095795e-15
    vertex 5.8483542712793835 11.914213562373094 1.693836087094437e-15
  endloop
endfacet
facet normal -6.298041947416367e-17 2.3391645435629296e-16 -1.0
  outer loop
    vertex 5.8483542712793835 11.914213562373094 1.693836087094437e-15
    vertex 5.0738826555047085 14.586706680582484 5.639932965095795e-15
    vertex 6.2625678336524775 12.232050807568877 1.775851826984112e-15
  endloop
endfacet
facet normal -6.298041947416367e-17 2.3391645435629296e-16 -1.0
  outer loop
    vertex 6.2625678336524775 12.232050807568877 1.775851826984112e-15
    vertex 5.0738826555047085 14.586706680582484 5.639932965095795e-15
    vertex 9.558545975635038 14.586706680582484 5.639932965095795e-15
  endloop
endfacet
facet normal -6.298041947416367e-17 2.3391645435629296e-16 -1.0
  outer loop
    vertex 6.2625678336524775 12.232050807568877 1.775851826984112e-15
    vertex 9.558545975635038 14.586706680582484 5.639932965095795e-15
    vertex 6.744929743447437 12.431851652578136 1.832934227384065e-15
  endloop
endfacet
facet normal -6.298041947416367e-17 2.3391645435629296e-16 -1.0
  outer loop
    vertex 6.744929743447437 12.431851652578136 1.832934227384065e-15
    vertex 9.558545975635038 14.586706680582484 5.639932965095795e-15
    vertex 7.262567833652478 12.499999999999998 1.8611932170401663e-15
  endloop
endfacet
facet normal -6.298041947416367e-17 2.3391645435629296e-16 -1.0
  outer loop
    vertex 7.262567833652478 12.499999999999998 1.8611932170401663e-15
    vertex 9.558545975635038 14.586706680582484 5.639932965095795e-15
    vertex 7.780205923857518 12.431851652578136 1.8587029925075406e-15
  endloop
endfacet
facet normal -6.298041947416367e-17 2.3391645435629296e-16 -1.0
  outer loop
    vertex 7.780205923857518 12.431851652578136 1.8587029925075406e-15
    vertex 9.558545975635038 14.586706680582484 5.639932965095795e-15
    vertex 8.262567833652477 12.232050807568877 1.8256332584727963e-15
  endloop
endfacet
facet normal -6.298041947416367e-17 2.3391645435629296e-16 -1.0
  outer loop
    vertex 8.262567833652477 12.232050807568877 1.8256332584727963e-15
    vertex 9.558545975635038 14.586706680582484 5.639932965095795e-15
    vertex 8.676781396025572 11.914213562373094 1.764237662660081e-15
  endloop
endfacet
facet normal -6.298041947416367e-17 2.3391645435629296e-16 -1.0
  outer loop
    vertex 8.676781396025572 11.914213562373094 1.764237662660081e-15
    vertex 9.558545975635038 14.586706680582484 5.639932965095795e-15
    vertex 8.994618641221354 11.5 1.6787002134630124e-15
  endloop
endfacet
facet normal -6.298041947416367e-17 2.3391645435629296e-16 -1.0
  outer loop
    vertex 8.994618641221354 11.5 1.6787002134630124e-15
    vertex 9.558545975635038 14.586706680582484 5.639932965095795e-15
    vertex 9.194419486230613 11.017638090205041 1.5748501466870527e-15
  endloop
endfacet
facet normal -6.298041947416367e-17 2.3391645435629296e-16 -1.0
  outer loop
    vertex 9.194419486230613 11.017638090205041 1.5748501466870527e-15
    vertex 9.558545975635038 14.586706680582484 5.639932965095795e-15
    vertex 9.262567833652477 10.499999999999998 1.4597646727626327e-15
  endloop
endfacet
facet normal -6.298041947416367e-17 2.3391645435629296e-16 -1.0
  outer loop
    vertex 5.0738826555047085 14.586706680582484 5.639932965095795e-15
    vertex 3.7760688336524795 9.982863325025367e-16 1.4736289379680427e-15
    vertex 3.77606883365247 13.288892858730243 4.5286669999664474e-15
  endloop
endfacet
facet normal -6.298041947416367e-17 2.3391645435629296e-16 -1.0
  outer loop
    vertex 3.7760688336524795 9.982863325025367e-16 1.4736289379680427e-15
    vertex 5.0738826555047085 14.586706680582484 5.639932965095795e-15
    vertex 5.262567833652479 10.499999999999998 1.3602018097852647e-15
  endloop
endfacet
facet normal -6.298041947416367e-17 2.3391645435629296e-16 -1.0
  outer loop
    vertex 3.7760688336524795 9.982863325025367e-16 1.4736289379680427e-15
    vertex 5.262567833652479 10.499999999999998 1.3602018097852647e-15
    vertex 5.330716181074343 9.982361909794959 1.2451163358608451e-15
  endloop
endfacet
facet normal -6.298041947416367e-17 2.3391645435629296e-16 -1.0
  outer loop
    vertex 3.7760688336524795 9.982863325025367e-16 1.4736289379680427e-15
    vertex 5.330716181074343 9.982361909794959 1.2451163358608451e-15
    vertex 5.530517026083601 9.5 1.141266269084885e-15
  endloop
endfacet
facet normal -6.298041947416367e-17 2.3391645435629296e-16 -1.0
  outer loop
    vertex 3.7760688336524795 9.982863325025367e-16 1.4736289379680427e-15
    vertex 5.530517026083601 9.5 1.141266269084885e-15
    vertex 5.8483542712793835 9.085786437626904 1.0557288198878166e-15
  endloop
endfacet
facet normal -6.298041947416367e-17 2.3391645435629296e-16 -1.0
  outer loop
    vertex 3.7760688336524795 9.982863325025367e-16 1.4736289379680427e-15
    vertex 5.8483542712793835 9.085786437626904 1.0557288198878166e-15
    vertex 13.776068833652477 0.0 1.4099832412739487e-15
  endloop
endfacet
facet normal -6.298041947416367e-17 2.3391645435629296e-16 -1.0
  outer loop
    vertex 13.776068833652477 0.0 1.4099832412739487e-15
    vertex 5.8483542712793835 9.085786437626904 1.0557288198878166e-15
    vertex 6.262567833652478 8.767949192431121 9.943332240751015e-16
  endloop
endfacet
facet normal -6.298041947416367e-17 2.3391645435629296e-16 -1.0
  outer loop
    vertex 13.776068833652477 0.0 1.4099832412739487e-15
    vertex 6.262567833652478 8.767949192431121 9.943332240751015e-16
    vertex 6.744929743447437 8.568148347421863 9.612634900403569e-16
  endloop
endfacet
facet normal -6.298041947416367e-17 2.3391645435629296e-16 -1.0
  outer loop
    vertex 13.776068833652477 0.0 1.4099832412739487e-15
    vertex 6.744929743447437 8.568148347421863 9.612634900403569e-16
    vertex 7.262567833652478 8.5 9.587732655077314e-16
  endloop
endfacet
facet normal -6.298041947416367e-17 2.3391645435629296e-16 -1.0
  outer loop
    vertex 13.776068833652477 0.0 1.4099832412739487e-15
    vertex 7.262567833652478 8.5 9.587732655077314e-16
    vertex 7.780205923857521 8.568148347421863 9.870322551638326e-16
  endloop
endfacet
facet normal -6.298041947416367e-17 2.3391645435629296e-16 -1.0
  outer loop
    vertex 13.776068833652477 0.0 1.4099832412739487e-15
    vertex 7.780205923857521 8.568148347421863 9.870322551638326e-16
    vertex 8.26256783365248 8.767949192431123 1.0441146555637855e-15
  endloop
endfacet
facet normal -6.298041947416367e-17 2.3391645435629296e-16 -1.0
  outer loop
    vertex 13.776068833652477 0.0 1.4099832412739487e-15
    vertex 8.26256783365248 8.767949192431123 1.0441146555637855e-15
    vertex 8.676781396025573 9.085786437626904 1.1261303954534605e-15
  endloop
endfacet
facet normal -6.298041947416367e-17 2.3391645435629296e-16 -1.0
  outer loop
    vertex 13.776068833652477 0.0 1.4099832412739487e-15
    vertex 8.676781396025573 9.085786437626904 1.1261303954534605e-15
    vertex 8.994618641221354 9.500000000000002 1.2274902376967953e-15
  endloop
endfacet
facet normal -6.298041947416367e-17 2.3391645435629296e-16 -1.0
  outer loop
    vertex 13.776068833652477 0.0 1.4099832412739487e-15
    vertex 8.994618641221354 9.500000000000002 1.2274902376967953e-15
    vertex 9.194419486230613 9.982361909794959 1.3412866765499647e-15
  endloop
endfacet
facet normal -6.298041947416367e-17 2.3391645435629296e-16 -1.0
  outer loop
    vertex 13.776068833652477 0.0 1.4099832412739487e-15
    vertex 9.194419486230613 9.982361909794959 1.3412866765499647e-15
    vertex 9.262567833652477 10.499999999999998 1.4597646727626327e-15
  endloop
endfacet
facet normal -6.298041947416367e-17 2.3391645435629296e-16 -1.0
  outer loop
    vertex 13.776068833652477 0.0 1.4099832412739487e-15
    vertex 9.262567833652477 10.499999999999998 1.4597646727626327e-15
    vertex 10.776068833652477 7.999999999999999 1.4099832412739487e-15
  endloop
endfacet
facet normal -6.298041947416367e-17 2.3391645435629296e-16 -1.0
  outer loop
    vertex 10.776068833652477 7.999999999999999 1.4099832412739487e-15
    vertex 9.262567833652477 10.499999999999998 1.4597646727626327e-15
    vertex 9.558545975635038 14.586706680582484 5.639932965095795e-15
  endloop
endfacet
facet normal -6.298041947416367e-17 2.3391645435629296e-16 -1.0
  outer loop
    vertex 10.776068833652477 7.999999999999999 1.4099832412739487e-15
    vertex 9.558545975635038 14.586706680582484 5.639932965095795e-15
    vertex 10.776068833652477 12.999999999999998 1.4099832412739487e-15
  endloop
endfacet
facet normal -6.298041947416367e-17 2.3391645435629296e-16 -1.0
  outer loop
    vertex 13.776068833652477 0.0 1.4099832412739487e-15
    vertex 10.776068833652477 7.999999999999999 1.4099832412739487e-15
    vertex 13.776068833652477 7.999999999999999 1.4099832412739487e-15
  endloop
endfacet
facet normal 5.1973360411793185e-17 -2.3233607702438773e-16 1.0
  outer loop
    vertex 5.0738826555047085 14.586706680582482 7.000000000000005
    vertex 6.2625678336524775 12.232050807568875 7.000000000000001
    vertex 9.558545975635038 14.586706680582482 7.000000000000005
  endloop
endfacet
facet normal 5.1973360411793185e-17 -2.3233607702438773e-16 1.0
  outer loop
    vertex 6.2625678336524775 12.232050807568875 7.000000000000001
    vertex 5.0738826555047085 14.586706680582482 7.000000000000005
    vertex 5.8483542712793835 11.914213562373092 7.000000000000001
  endloop
endfacet
facet normal 5.1973360411793185e-17 -2.3233607702438773e-16 1.0
  outer loop
    vertex 5.8483542712793835 11.914213562373092 7.000000000000001
    vertex 5.0738826555047085 14.586706680582482 7.000000000000005
    vertex 5.530517026083601 11.499999999999996 7.000000000000001
  endloop
endfacet
facet normal 5.1973360411793185e-17 -2.3233607702438773e-16 1.0
  outer loop
    vertex 5.530517026083601 11.499999999999996 7.000000000000001
    vertex 5.0738826555047085 14.586706680582482 7.000000000000005
    vertex 5.330716181074343 11.01763809020504 7.000000000000001
  endloop
endfacet
facet normal 5.1973360411793185e-17 -2.3233607702438773e-16 1.0
  outer loop
    vertex 5.330716181074343 11.01763809020504 7.000000000000001
    vertex 5.0738826555047085 14.586706680582482 7.000000000000005
    vertex 5.262567833652479 10.499999999999998 7.000000000000001
  endloop
endfacet
facet normal 5.1973360411793185e-17 -2.3233607702438773e-16 1.0
  outer loop
    vertex 9.558545975635038 14.586706680582482 7.000000000000005
    vertex 6.2625678336524775 12.232050807568875 7.000000000000001
    vertex 6.744929743447437 12.431851652578134 7.000000000000001
  endloop
endfacet
facet normal 5.1973360411793185e-17 -2.3233607702438773e-16 1.0
  outer loop
    vertex 9.558545975635038 14.586706680582482 7.000000000000005
    vertex 6.744929743447437 12.431851652578134 7.000000000000001
    vertex 7.262567833652478 12.499999999999996 7.000000000000001
  endloop
endfacet
facet normal 5.1973360411793185e-17 -2.3233607702438773e-16 1.0
  outer loop
    vertex 9.558545975635038 14.586706680582482 7.000000000000005
    vertex 7.262567833652478 12.499999999999996 7.000000000000001
    vertex 7.780205923857518 12.431851652578134 7.000000000000001
  endloop
endfacet
facet normal 5.1973360411793185e-17 -2.3233607702438773e-16 1.0
  outer loop
    vertex 9.558545975635038 14.586706680582482 7.000000000000005
    vertex 7.780205923857518 12.431851652578134 7.000000000000001
    vertex 8.262567833652477 12.232050807568875 7.000000000000001
  endloop
endfacet
facet normal 5.1973360411793185e-17 -2.3233607702438773e-16 1.0
  outer loop
    vertex 9.558545975635038 14.586706680582482 7.000000000000005
    vertex 8.262567833652477 12.232050807568875 7.000000000000001
    vertex 8.676781396025572 11.914213562373094 7.000000000000001
  endloop
endfacet
facet normal 5.1973360411793185e-17 -2.3233607702438773e-16 1.0
  outer loop
    vertex 9.558545975635038 14.586706680582482 7.000000000000005
    vertex 8.676781396025572 11.914213562373094 7.000000000000001
    vertex 8.994618641221354 11.499999999999998 7.000000000000001
  endloop
endfacet
facet normal 5.1973360411793185e-17 -2.3233607702438773e-16 1.0
  outer loop
    vertex 9.558545975635038 14.586706680582482 7.000000000000005
    vertex 8.994618641221354 11.499999999999998 7.000000000000001
    vertex 9.194419486230613 11.01763809020504 7.000000000000001
  endloop
endfacet
facet normal 5.1973360411793185e-17 -2.3233607702438773e-16 1.0
  outer loop
    vertex 9.558545975635038 14.586706680582482 7.000000000000005
    vertex 9.194419486230613 11.01763809020504 7.000000000000001
    vertex 9.262567833652477 10.499999999999998 7.000000000000001
  endloop
endfacet
facet normal 5.1973360411793185e-17 -2.3233607702438773e-16 1.0
  outer loop
    vertex 3.7760688336524795 -7.523273501657692e-16 7.000000000000001
    vertex 5.0738826555047085 14.586706680582482 7.000000000000005
    vertex 3.77606883365247 13.288892858730241 7.000000000000004
  endloop
endfacet
facet normal 5.1973360411793185e-17 -2.3233607702438773e-16 1.0
  outer loop
    vertex 5.0738826555047085 14.586706680582482 7.000000000000005
    vertex 3.7760688336524795 -7.523273501657692e-16 7.000000000000001
    vertex 5.262567833652479 10.499999999999998 7.000000000000001
  endloop
endfacet
facet normal 5.1973360411793185e-17 -2.3233607702438773e-16 1.0
  outer loop
    vertex 5.262567833652479 10.499999999999998 7.000000000000001
    vertex 3.7760688336524795 -7.523273501657692e-16 7.000000000000001
    vertex 5.330716181074343 9.982361909794957 7.000000000000001
  endloop
endfacet
facet normal 5.1973360411793185e-17 -2.3233607702438773e-16 1.0
  outer loop
    vertex 5.330716181074343 9.982361909794957 7.000000000000001
    vertex 3.7760688336524795 -7.523273501657692e-16 7.000000000000001
    vertex 5.530517026083601 9.499999999999998 7.000000000000001
  endloop
endfacet
facet normal 5.1973360411793185e-17 -2.3233607702438773e-16 1.0
  outer loop
    vertex 5.530517026083601 9.499999999999998 7.000000000000001
    vertex 3.7760688336524795 -7.523273501657692e-16 7.000000000000001
    vertex 5.8483542712793835 9.085786437626904 7.000000000000001
  endloop
endfacet
facet normal 5.1973360411793185e-17 -2.3233607702438773e-16 1.0
  outer loop
    vertex 5.8483542712793835 9.085786437626904 7.000000000000001
    vertex 3.7760688336524795 -7.523273501657692e-16 7.000000000000001
    vertex 13.776068833652477 -1.7506136826683058e-15 7.000000000000001
  endloop
endfacet
facet normal 5.1973360411793185e-17 -2.3233607702438773e-16 1.0
  outer loop
    vertex 5.8483542712793835 9.085786437626904 7.000000000000001
    vertex 13.776068833652477 -1.7506136826683058e-15 7.000000000000001
    vertex 6.262567833652478 8.767949192431121 7.000000000000001
  endloop
endfacet
facet normal 5.1973360411793185e-17 -2.3233607702438773e-16 1.0
  outer loop
    vertex 6.262567833652478 8.767949192431121 7.000000000000001
    vertex 13.776068833652477 -1.7506136826683058e-15 7.000000000000001
    vertex 6.744929743447437 8.568148347421863 7.000000000000001
  endloop
endfacet
facet normal 5.1973360411793185e-17 -2.3233607702438773e-16 1.0
  outer loop
    vertex 6.744929743447437 8.568148347421863 7.000000000000001
    vertex 13.776068833652477 -1.7506136826683058e-15 7.000000000000001
    vertex 7.262567833652478 8.499999999999998 7.000000000000001
  endloop
endfacet
facet normal 5.1973360411793185e-17 -2.3233607702438773e-16 1.0
  outer loop
    vertex 7.262567833652478 8.499999999999998 7.000000000000001
    vertex 13.776068833652477 -1.7506136826683058e-15 7.000000000000001
    vertex 7.780205923857521 8.568148347421863 7.000000000000001
  endloop
endfacet
facet normal 5.1973360411793185e-17 -2.3233607702438773e-16 1.0
  outer loop
    vertex 7.780205923857521 8.568148347421863 7.000000000000001
    vertex 13.776068833652477 -1.7506136826683058e-15 7.000000000000001
    vertex 8.26256783365248 8.767949192431121 7.000000000000001
  endloop
endfacet
facet normal 5.1973360411793185e-17 -2.3233607702438773e-16 1.0
  outer loop
    vertex 8.26256783365248 8.767949192431121 7.000000000000001
    vertex 13.776068833652477 -1.7506136826683058e-15 7.000000000000001
    vertex 8.676781396025573 9.085786437626904 7.000000000000001
  endloop
endfacet
facet normal 5.1973360411793185e-17 -2.3233607702438773e-16 1.0
  outer loop
    vertex 8.676781396025573 9.085786437626904 7.000000000000001
    vertex 13.776068833652477 -1.7506136826683058e-15 7.000000000000001
    vertex 8.994618641221354 9.5 7.000000000000001
  endloop
endfacet
facet normal 5.1973360411793185e-17 -2.3233607702438773e-16 1.0
  outer loop
    vertex 8.994618641221354 9.5 7.000000000000001
    vertex 13.776068833652477 -1.7506136826683058e-15 7.000000000000001
    vertex 9.194419486230613 9.982361909794959 7.000000000000001
  endloop
endfacet
facet normal 5.1973360411793185e-17 -2.3233607702438773e-16 1.0
  outer loop
    vertex 9.194419486230613 9.982361909794959 7.000000000000001
    vertex 13.776068833652477 -1.7506136826683058e-15 7.000000000000001
    vertex 9.262567833652477 10.499999999999998 7.000000000000001
  endloop
endfacet
facet normal 5.1973360411793185e-17 -2.3233607702438773e-16 1.0
  outer loop
    vertex 9.262567833652477 10.499999999999998 7.000000000000001
    vertex 13.776068833652477 -1.7506136826683058e-15 7.000000000000001
    vertex 10.776068833652477 7.999999999999998 7.000000000000001
  endloop
endfacet
facet normal 5.1973360411793185e-17 -2.3233607702438773e-16 1.0
  outer loop
    vertex 9.262567833652477 10.499999999999998 7.000000000000001
    vertex 10.776068833652477 7.999999999999998 7.000000000000001
    vertex 9.558545975635038 14.586706680582482 7.000000000000005
  endloop
endfacet
facet normal 5.1973360411793185e-17 -2.3233607702438773e-16 1.0
  outer loop
    vertex 10.776068833652477 7.999999999999998 7.000000000000001
    vertex 13.776068833652477 -1.7506136826683058e-15 7.000000000000001
    vertex 13.776068833652477 7.999999999999998 7.000000000000001
  endloop
endfacet
facet normal 5.1973360411793185e-17 -2.3233607702438773e-16 1.0
  outer loop
    vertex 10.776068833652477 12.999999999999996 7.000000000000001
    vertex 9.558545975635038 14.586706680582482 7.000000000000005
    vertex 10.776068833652477 7.999999999999998 7.000000000000001
  endloop
endfacet
facet normal 0.0 1.0 2.5008766895261514e-16
  outer loop
    vertex 5.0738826555047085 14.586706680582482 7.000000000000005
    vertex 9.558545975635038 14.586706680582484 5.639932965095795e-15
    vertex 5.0738826555047085 14.586706680582484 5.639932965095795e-15
  endloop
endfacet
facet normal 0.0 1.0 2.5008766895261514e-16
  outer loop
    vertex 9.558545975635038 14.586706680582484 5.639932965095795e-15
    vertex 5.0738826555047085 14.586706680582482 7.000000000000005
    vertex 9.558545975635038 14.586706680582482 7.000000000000005
  endloop
endfacet
facet normal -0.7071067811865483 0.7071067811865468 1.6492039122989975e-16
  outer loop
    vertex 5.0738826555047085 14.586706680582482 7.000000000000005
    vertex 3.77606883365247 13.288892858730243 4.5286669999664474e-15
    vertex 3.77606883365247 13.288892858730241 7.000000000000004
  endloop
endfacet
facet normal -0.7071067811865483 0.7071067811865468 1.6492039122989975e-16
  outer loop
    vertex 3.77606883365247 13.288892858730243 4.5286669999664474e-15
    vertex 5.0738826555047085 14.586706680582482 7.000000000000005
    vertex 5.0738826555047085 14.586706680582484 5.639932965095795e-15
  endloop
endfacet
facet normal -1.0 -6.410863994788242e-16 -5.109359133745527e-31
  outer loop
    vertex 3.77606883365247 13.288892858730241 7.000000000000004
    vertex 3.7760688336524795 9.982863325025367e-16 1.4736289379680427e-15
    vertex 3.7760688336524795 -7.523273501657692e-16 7.000000000000001
  endloop
endfacet
facet normal -1.0 -6.410863994788242e-16 -5.109359133745527e-31
  outer loop
    vertex 3.7760688336524795 9.982863325025367e-16 1.4736289379680427e-15
    vertex 3.77606883365247 13.288892858730241 7.000000000000004
    vertex 3.77606883365247 13.288892858730243 4.5286669999664474e-15
  endloop
endfacet
facet normal 0.0 -1.0 -2.5008766895261514e-16
  outer loop
    vertex 13.776068833652477 -1.7506136826683058e-15 7.000000000000001
    vertex 3.7760688336524795 9.982863325025367e-16 1.4736289379680427e-15
    vertex 13.776068833652477 0.0 1.4099832412739487e-15
  endloop
endfacet
facet normal 0.0 -1.0 -2.5008766895261514e-16
  outer loop
    vertex 3.7760688336524795 9.982863325025367e-16 1.4736289379680427e-15
    vertex 13.776068833652477 -1.7506136826683058e-15 7.000000000000001
    vertex 3.7760688336524795 -7.523273501657692e-16 7.000000000000001
  endloop
endfacet
facet normal 1.0 -0.0 1.6855014963413776e-17
  outer loop
    vertex 13.776068833652477 0.0 1.4099832412739487e-15
    vertex 13.776068833652477 7.999999999999998 7.000000000000001
    vertex 13.776068833652477 -1.7506136826683058e-15 7.000000000000001
  endloop
endfacet
facet normal 1.0 -0.0 1.6855014963413776e-17
  outer loop
    vertex 13.776068833652477 7.999999999999998 7.000000000000001
    vertex 13.776068833652477 0.0 1.4099832412739487e-15
    vertex 13.776068833652477 7.999999999999999 1.4099832412739487e-15
  endloop
endfacet
facet normal 0.0 1.0 2.500876689526152e-16
  outer loop
    vertex 10.776068833652477 7.999999999999998 7.000000000000001
    vertex 13.776068833652477 7.999999999999999 1.4099832412739487e-15
    vertex 10.776068833652477 7.999999999999999 1.4099832412739487e-15
  endloop
endfacet
facet normal 0.0 1.0 2.500876689526152e-16
  outer loop
    vertex 13.776068833652477 7.999999999999999 1.4099832412739487e-15
    vertex 10.776068833652477 7.999999999999998 7.000000000000001
    vertex 13.776068833652477 7.999999999999998 7.000000000000001
  endloop
endfacet
facet normal 1.0 -0.0 1.6855014963413773e-17
  outer loop
    vertex 10.776068833652477 7.999999999999999 1.4099832412739487e-15
    vertex 10.776068833652477 12.999999999999996 7.000000000000001
    vertex 10.776068833652477 7.999999999999998 7.000000000000001
  endloop
endfacet
facet normal 1.0 -0.0 1.6855014963413773e-17
  outer loop
    vertex 10.776068833652477 12.999999999999996 7.000000000000001
    vertex 10.776068833652477 7.999999999999999 1.4099832412739487e-15
    vertex 10.776068833652477 12.999999999999998 1.4099832412739487e-15
  endloop
endfacet
facet normal 0.7933533402912386 0.6087614290087161 1.6561570915093584e-16
  outer loop
    vertex 10.776068833652477 12.999999999999998 1.4099832412739487e-15
    vertex 9.558545975635038 14.586706680582482 7.000000000000005
    vertex 10.776068833652477 12.999999999999996 7.000000000000001
  endloop
endfacet
facet normal 0.7933533402912386 0.6087614290087161 1.6561570915093584e-16
  outer loop
    vertex 9.558545975635038 14.586706680582482 7.000000000000005
    vertex 10.776068833652477 12.999999999999998 1.4099832412739487e-15
    vertex 9.558545975635038 14.586706680582484 5.639932965095795e-15
  endloop
endfacet
facet normal -0.3826834323650913 0.9238795325112861 2.2460074370001517e-16
  outer loop
    vertex 7.780205923857521 8.568148347421863 7.000000000000001
    vertex 8.26256783365248 8.767949192431123 1.0441146555637855e-15
    vertex 7.780205923857521 8.568148347421863 9.870322551638326e-16
  endloop
endfacet
facet normal -0.3826834323650913 0.9238795325112861 2.2460074370001517e-16
  outer loop
    vertex 8.26256783365248 8.767949192431123 1.0441146555637855e-15
    vertex 7.780205923857521 8.568148347421863 7.000000000000001
    vertex 8.26256783365248 8.767949192431121 7.000000000000001
  endloop
endfacet
facet normal -0.13052619222005143 0.9914448613738105 2.4574811335303853e-16
  outer loop
    vertex 7.262567833652478 8.499999999999998 7.000000000000001
    vertex 7.780205923857521 8.568148347421863 9.870322551638326e-16
    vertex 7.262567833652478 8.5 9.587732655077314e-16
  endloop
endfacet
facet normal -0.13052619222005143 0.9914448613738105 2.4574811335303853e-16
  outer loop
    vertex 7.780205923857521 8.568148347421863 9.870322551638326e-16
    vertex 7.262567833652478 8.499999999999998 7.000000000000001
    vertex 7.780205923857521 8.568148347421863 7.000000000000001
  endloop
endfacet
facet normal 0.1305261922200518 0.9914448613738104 2.501481551990113e-16
  outer loop
    vertex 6.744929743447437 8.568148347421863 9.612634900403569e-16
    vertex 7.262567833652478 8.499999999999998 7.000000000000001
    vertex 7.262567833652478 8.5 9.587732655077314e-16
  endloop
endfacet
facet normal 0.1305261922200518 0.9914448613738104 2.501481551990113e-16
  outer loop
    vertex 7.262567833652478 8.499999999999998 7.000000000000001
    vertex 6.744929743447437 8.568148347421863 9.612634900403569e-16
    vertex 6.744929743447437 8.568148347421863 7.000000000000001
  endloop
endfacet
facet normal 0.38268343236508895 0.9238795325112871 2.375010136575437e-16
  outer loop
    vertex 6.262567833652478 8.767949192431121 9.943332240751015e-16
    vertex 6.744929743447437 8.568148347421863 7.000000000000001
    vertex 6.744929743447437 8.568148347421863 9.612634900403569e-16
  endloop
endfacet
facet normal 0.38268343236508895 0.9238795325112871 2.375010136575437e-16
  outer loop
    vertex 6.744929743447437 8.568148347421863 7.000000000000001
    vertex 6.262567833652478 8.767949192431121 9.943332240751015e-16
    vertex 6.262567833652478 8.767949192431121 7.000000000000001
  endloop
endfacet
facet normal 0.6087614290087213 0.7933533402912347 2.0866857052429688e-16
  outer loop
    vertex 5.8483542712793835 9.085786437626904 1.0557288198878166e-15
    vertex 6.262567833652478 8.767949192431121 7.000000000000001
    vertex 6.262567833652478 8.767949192431121 9.943332240751015e-16
  endloop
endfacet
facet normal 0.6087614290087213 0.7933533402912347 2.0866857052429688e-16
  outer loop
    vertex 6.262567833652478 8.767949192431121 7.000000000000001
    vertex 5.8483542712793835 9.085786437626904 1.0557288198878166e-15
    vertex 5.8483542712793835 9.085786437626904 7.000000000000001
  endloop
endfacet
facet normal 0.7933533402912347 0.6087614290087213 1.6561570915093708e-16
  outer loop
    vertex 5.8483542712793835 9.085786437626904 1.0557288198878166e-15
    vertex 5.530517026083601 9.499999999999998 7.000000000000001
    vertex 5.8483542712793835 9.085786437626904 7.000000000000001
  endloop
endfacet
facet normal 0.7933533402912347 0.6087614290087213 1.6561570915093708e-16
  outer loop
    vertex 5.530517026083601 9.499999999999998 7.000000000000001
    vertex 5.8483542712793835 9.085786437626904 1.0557288198878166e-15
    vertex 5.530517026083601 9.5 1.141266269084885e-15
  endloop
endfacet
facet normal 0.9238795325112871 0.38268343236508895 1.1127641089184035e-16
  outer loop
    vertex 5.530517026083601 9.5 1.141266269084885e-15
    vertex 5.330716181074343 9.982361909794957 7.000000000000001
    vertex 5.530517026083601 9.499999999999998 7.000000000000001
  endloop
endfacet
facet normal 0.9238795325112871 0.38268343236508895 1.1127641089184035e-16
  outer loop
    vertex 5.330716181074343 9.982361909794957 7.000000000000001
    vertex 5.530517026083601 9.5 1.141266269084885e-15
    vertex 5.330716181074343 9.982361909794959 1.2451163358608451e-15
  endloop
endfacet
facet normal 0.9914448613738104 0.1305261922200518 4.935380912342899e-17
  outer loop
    vertex 5.330716181074343 9.982361909794959 1.2451163358608451e-15
    vertex 5.262567833652479 10.499999999999998 7.000000000000001
    vertex 5.330716181074343 9.982361909794957 7.000000000000001
  endloop
endfacet
facet normal 0.9914448613738104 0.1305261922200518 4.935380912342899e-17
  outer loop
    vertex 5.262567833652479 10.499999999999998 7.000000000000001
    vertex 5.330716181074343 9.982361909794959 1.2451163358608451e-15
    vertex 5.262567833652479 10.499999999999998 1.3602018097852647e-15
  endloop
endfacet
facet normal 0.9914448613738104 -0.1305261922200518 -1.5932173175718454e-17
  outer loop
    vertex 5.262567833652479 10.499999999999998 1.3602018097852647e-15
    vertex 5.330716181074343 11.01763809020504 7.000000000000001
    vertex 5.262567833652479 10.499999999999998 7.000000000000001
  endloop
endfacet
facet normal 0.9914448613738104 -0.1305261922200518 -1.5932173175718454e-17
  outer loop
    vertex 5.330716181074343 11.01763809020504 7.000000000000001
    vertex 5.262567833652479 10.499999999999998 1.3602018097852647e-15
    vertex 5.330716181074343 11.01763809020504 1.478679805997933e-15
  endloop
endfacet
facet normal 0.9238795325112871 -0.38268343236508895 -8.01324042021014e-17
  outer loop
    vertex 5.330716181074343 11.01763809020504 1.478679805997933e-15
    vertex 5.530517026083601 11.499999999999996 7.000000000000001
    vertex 5.330716181074343 11.01763809020504 7.000000000000001
  endloop
endfacet
facet normal 0.9238795325112871 -0.38268343236508895 -8.01324042021014e-17
  outer loop
    vertex 5.530517026083601 11.499999999999996 7.000000000000001
    vertex 5.330716181074343 11.01763809020504 1.478679805997933e-15
    vertex 5.530517026083601 11.499999999999998 1.5924762448511026e-15
  endloop
endfacet
facet normal 0.7933533402912347 -0.6087614290087213 -1.3887174430717099e-16
  outer loop
    vertex 5.530517026083601 11.499999999999998 1.5924762448511026e-15
    vertex 5.8483542712793835 11.914213562373092 7.000000000000001
    vertex 5.530517026083601 11.499999999999996 7.000000000000001
  endloop
endfacet
facet normal 0.7933533402912347 -0.6087614290087213 -1.3887174430717099e-16
  outer loop
    vertex 5.8483542712793835 11.914213562373092 7.000000000000001
    vertex 5.530517026083601 11.499999999999998 1.5924762448511026e-15
    vertex 5.8483542712793835 11.914213562373094 1.693836087094437e-15
  endloop
endfacet
facet normal 0.608761429008722 -0.7933533402912342 -1.8814720453411445e-16
  outer loop
    vertex 6.2625678336524775 12.232050807568877 1.775851826984112e-15
    vertex 5.8483542712793835 11.914213562373092 7.000000000000001
    vertex 5.8483542712793835 11.914213562373094 1.693836087094437e-15
  endloop
endfacet
facet normal 0.608761429008722 -0.7933533402912342 -1.8814720453411445e-16
  outer loop
    vertex 5.8483542712793835 11.914213562373092 7.000000000000001
    vertex 6.2625678336524775 12.232050807568877 1.775851826984112e-15
    vertex 6.2625678336524775 12.232050807568875 7.000000000000001
  endloop
endfacet
facet normal 0.3826834323650885 -0.9238795325112873 -2.246007437000155e-16
  outer loop
    vertex 6.744929743447437 12.431851652578136 1.832934227384065e-15
    vertex 6.2625678336524775 12.232050807568875 7.000000000000001
    vertex 6.2625678336524775 12.232050807568877 1.775851826984112e-15
  endloop
endfacet
facet normal 0.3826834323650885 -0.9238795325112873 -2.246007437000155e-16
  outer loop
    vertex 6.2625678336524775 12.232050807568875 7.000000000000001
    vertex 6.744929743447437 12.431851652578136 1.832934227384065e-15
    vertex 6.744929743447437 12.431851652578134 7.000000000000001
  endloop
endfacet
facet normal 0.1305261922200518 -0.9914448613738104 -2.457481133530385e-16
  outer loop
    vertex 7.262567833652478 12.499999999999998 1.8611932170401663e-15
    vertex 6.744929743447437 12.431851652578134 7.000000000000001
    vertex 6.744929743447437 12.431851652578136 1.832934227384065e-15
  endloop
endfacet
facet normal 0.1305261922200518 -0.9914448613738104 -2.457481133530385e-16
  outer loop
    vertex 6.744929743447437 12.431851652578134 7.000000000000001
    vertex 7.262567833652478 12.499999999999998 1.8611932170401663e-15
    vertex 7.262567833652478 12.499999999999996 7.000000000000001
  endloop
endfacet
facet normal -0.13052619222005216 -0.9914448613738104 -2.5014815519901133e-16
  outer loop
    vertex 7.780205923857518 12.431851652578134 7.000000000000001
    vertex 7.262567833652478 12.499999999999998 1.8611932170401663e-15
    vertex 7.780205923857518 12.431851652578136 1.8587029925075406e-15
  endloop
endfacet
facet normal -0.13052619222005216 -0.9914448613738104 -2.5014815519901133e-16
  outer loop
    vertex 7.262567833652478 12.499999999999998 1.8611932170401663e-15
    vertex 7.780205923857518 12.431851652578134 7.000000000000001
    vertex 7.262567833652478 12.499999999999996 7.000000000000001
  endloop
endfacet
facet normal -0.38268343236508806 -0.9238795325112875 -2.375010136575438e-16
  outer loop
    vertex 8.262567833652477 12.232050807568875 7.000000000000001
    vertex 7.780205923857518 12.431851652578136 1.8587029925075406e-15
    vertex 8.262567833652477 12.232050807568877 1.8256332584727963e-15
  endloop
endfacet
facet normal -0.38268343236508806 -0.9238795325112875 -2.375010136575438e-16
  outer loop
    vertex 7.780205923857518 12.431851652578136 1.8587029925075406e-15
    vertex 8.262567833652477 12.232050807568875 7.000000000000001
    vertex 7.780205923857518 12.431851652578134 7.000000000000001
  endloop
endfacet
facet normal -0.608761429008721 -0.793353340291235 -2.0866857052429698e-16
  outer loop
    vertex 8.676781396025572 11.914213562373094 7.000000000000001
    vertex 8.262567833652477 12.232050807568877 1.8256332584727963e-15
    vertex 8.676781396025572 11.914213562373094 1.764237662660081e-15
  endloop
endfacet
facet normal -0.608761429008721 -0.793353340291235 -2.0866857052429698e-16
  outer loop
    vertex 8.262567833652477 12.232050807568877 1.8256332584727963e-15
    vertex 8.676781396025572 11.914213562373094 7.000000000000001
    vertex 8.262567833652477 12.232050807568875 7.000000000000001
  endloop
endfacet
facet normal -0.7933533402912347 -0.6087614290087213 -1.6561570915093708e-16
  outer loop
    vertex 8.676781396025572 11.914213562373094 7.000000000000001
    vertex 8.994618641221354 11.5 1.6787002134630124e-15
    vertex 8.994618641221354 11.499999999999998 7.000000000000001
  endloop
endfacet
facet normal -0.7933533402912347 -0.6087614290087213 -1.6561570915093708e-16
  outer loop
    vertex 8.994618641221354 11.5 1.6787002134630124e-15
    vertex 8.676781396025572 11.914213562373094 7.000000000000001
    vertex 8.676781396025572 11.914213562373094 1.764237662660081e-15
  endloop
endfacet
facet normal -0.9238795325112861 -0.3826834323650913 -1.112764108918409e-16
  outer loop
    vertex 8.994618641221354 11.499999999999998 7.000000000000001
    vertex 9.194419486230613 11.017638090205041 1.5748501466870527e-15
    vertex 9.194419486230613 11.01763809020504 7.000000000000001
  endloop
endfacet
facet normal -0.9238795325112861 -0.3826834323650913 -1.112764108918409e-16
  outer loop
    vertex 9.194419486230613 11.017638090205041 1.5748501466870527e-15
    vertex 8.994618641221354 11.499999999999998 7.000000000000001
    vertex 8.994618641221354 11.5 1.6787002134630124e-15
  endloop
endfacet
facet normal -0.9914448613738105 -0.13052619222005143 -4.9353809123428906e-17
  outer loop
    vertex 9.194419486230613 11.01763809020504 7.000000000000001
    vertex 9.262567833652477 10.499999999999998 1.4597646727626327e-15
    vertex 9.262567833652477 10.499999999999998 7.000000000000001
  endloop
endfacet
facet normal -0.9914448613738105 -0.13052619222005143 -4.9353809123428906e-17
  outer loop
    vertex 9.262567833652477 10.499999999999998 1.4597646727626327e-15
    vertex 9.194419486230613 11.01763809020504 7.000000000000001
    vertex 9.194419486230613 11.017638090205041 1.5748501466870527e-15
  endloop
endfacet
facet normal -0.9914448613738104 0.13052619222005216 1.5932173175718543e-17
  outer loop
    vertex 9.262567833652477 10.499999999999998 7.000000000000001
    vertex 9.194419486230613 9.982361909794959 1.3412866765499647e-15
    vertex 9.194419486230613 9.982361909794959 7.000000000000001
  endloop
endfacet
facet normal -0.9914448613738104 0.13052619222005216 1.5932173175718543e-17
  outer loop
    vertex 9.194419486230613 9.982361909794959 1.3412866765499647e-15
    vertex 9.262567833652477 10.499999999999998 7.000000000000001
    vertex 9.262567833652477 10.499999999999998 1.4597646727626327e-15
  endloop
endfacet
facet normal -0.9238795325112871 0.38268343236508895 8.01324042021014e-17
  outer loop
    vertex 9.194419486230613 9.982361909794959 7.000000000000001
    vertex 8.994618641221354 9.500000000000002 1.2274902376967953e-15
    vertex 8.994618641221354 9.5 7.000000000000001
  endloop
endfacet
facet normal -0.9238795325112871 0.38268343236508895 8.01324042021014e-17
  outer loop
    vertex 8.994618641221354 9.500000000000002 1.2274902376967953e-15
    vertex 9.194419486230613 9.982361909794959 7.000000000000001
    vertex 9.194419486230613 9.982361909794959 1.3412866765499647e-15
  endloop
endfacet
facet normal -0.7933533402912356 0.60876142900872 1.3887174430717062e-16
  outer loop
    vertex 8.994618641221354 9.5 7.000000000000001
    vertex 8.676781396025573 9.085786437626904 1.1261303954534605e-15
    vertex 8.676781396025573 9.085786437626904 7.000000000000001
  endloop
endfacet
facet normal -0.7933533402912356 0.60876142900872 1.3887174430717062e-16
  outer loop
    vertex 8.676781396025573 9.085786437626904 1.1261303954534605e-15
    vertex 8.994618641221354 9.5 7.000000000000001
    vertex 8.994618641221354 9.500000000000002 1.2274902376967953e-15
  endloop
endfacet
facet normal -0.608761429008721 0.793353340291235 1.8814720453411467e-16
  outer loop
    vertex 8.26256783365248 8.767949192431121 7.000000000000001
    vertex 8.676781396025573 9.085786437626904 1.1261303954534605e-15
    vertex 8.26256783365248 8.767949192431123 1.0441146555637855e-15
  endloop
endfacet
facet normal -0.608761429008721 0.793353340291235 1.8814720453411467e-16
  outer loop
    vertex 8.676781396025573 9.085786437626904 1.1261303954534605e-15
    vertex 8.26256783365248 8.767949192431121 7.000000000000001
    vertex 8.676781396025573 9.085786437626904 7.000000000000001
  endloop
endfacet
endsolid XY-Ромб-Подтяжка
