solid XY-Ромб-Держатель-16мм
facet normal -2.1371658992280338e-16 -1.0 -2.8274527867354884e-33
  outer loop
    vertex 27.54795086779129 0.0 0.0
    vertex 15.870409699226064 9.619404590902141e-16 4.676000807058549
    vertex 0.0 2.8199664825478975e-15 2.8370724278087772e-15
  endloop
endfacet
facet normal -2.1371658992280338e-16 -1.0 -2.8274527867354884e-33
  outer loop
    vertex 15.870409699226064 9.619404590902141e-16 4.676000807058549
    vertex 27.54795086779129 0.0 0.0
    vertex 17.823975433895647 5.444310520865954e-16 5.485194229346049
  endloop
endfacet
facet normal -2.1371658992280338e-16 -1.0 -2.8274527867354884e-33
  outer loop
    vertex 17.823975433895647 5.444310520865954e-16 5.485194229346049
    vertex 27.54795086779129 0.0 0.0
    vertex 19.50154036150668 1.8590759638347094e-16 6.772435072388967
  endloop
endfacet
facet normal -2.1371658992280338e-16 -1.0 -2.8274527867354884e-33
  outer loop
    vertex 19.50154036150668 1.8590759638347094e-16 6.772435072388967
    vertex 27.54795086779129 0.0 0.0
    vertex 20.788781204549597 -8.919712700101597e-17 8.450000000000001
  endloop
endfacet
facet normal -2.1371658992280338e-16 -1.0 -2.8274527867354884e-33
  outer loop
    vertex 20.788781204549597 -8.919712700101597e-17 8.450000000000001
    vertex 27.54795086779129 0.0 0.0
    vertex 21.597974626837097 -2.621351858002634e-16 10.403565734669584
  endloop
endfacet
facet normal -2.1371658992280338e-16 -1.0 -2.8274527867354884e-33
  outer loop
    vertex 21.597974626837097 -2.621351858002634e-16 10.403565734669584
    vertex 27.54795086779129 0.0 0.0
    vertex 27.54795086779129 0.0 25.000000000000004
  endloop
endfacet
facet normal -2.1371658992280338e-16 -1.0 -2.8274527867354884e-33
  outer loop
    vertex 0.0 2.8199664825478975e-15 2.8370724278087772e-15
    vertex 15.870409699226064 9.619404590902141e-16 4.676000807058549
    vertex 13.773975433895645 1.4099832412739485e-15 4.400000000000002
  endloop
endfacet
facet normal -2.1371658992280338e-16 -1.0 -2.8274527867354884e-33
  outer loop
    vertex 21.597974626837097 -2.621351858002634e-16 10.403565734669584
    vertex 27.54795086779129 0.0 25.000000000000004
    vertex 21.873975433895644 -3.211211371007575e-16 12.500000000000002
  endloop
endfacet
facet normal -2.1371658992280338e-16 -1.0 -2.8274527867354884e-33
  outer loop
    vertex 21.873975433895644 -3.211211371007575e-16 12.500000000000002
    vertex 27.54795086779129 0.0 25.000000000000004
    vertex 21.597974626837097 -2.6213518580026274e-16 14.596434265330426
  endloop
endfacet
facet normal -2.1371658992280338e-16 -1.0 -2.8274527867354884e-33
  outer loop
    vertex 21.597974626837097 -2.6213518580026274e-16 14.596434265330426
    vertex 27.54795086779129 0.0 25.000000000000004
    vertex 20.788781204549597 -8.919712700101534e-17 16.550000000000004
  endloop
endfacet
facet normal -2.1371658992280338e-16 -1.0 -2.8274527867354884e-33
  outer loop
    vertex 20.788781204549597 -8.919712700101534e-17 16.550000000000004
    vertex 27.54795086779129 0.0 25.000000000000004
    vertex 19.501540361506677 1.8590759638347126e-16 18.227564927611038
  endloop
endfacet
facet normal -2.1371658992280338e-16 -1.0 -2.8274527867354884e-33
  outer loop
    vertex 19.501540361506677 1.8590759638347126e-16 18.227564927611038
    vertex 27.54795086779129 0.0 25.000000000000004
    vertex 17.82397543389564 5.444310520865969e-16 19.514805770653957
  endloop
endfacet
facet normal -2.1371658992280338e-16 -1.0 -2.8274527867354884e-33
  outer loop
    vertex 17.82397543389564 5.444310520865969e-16 19.514805770653957
    vertex 27.54795086779129 0.0 25.000000000000004
    vertex 15.870409699226059 9.619404590902153e-16 20.323999192941454
  endloop
endfacet
facet normal -2.1371658992280338e-16 -1.0 -2.8274527867354884e-33
  outer loop
    vertex 15.870409699226059 9.619404590902153e-16 20.323999192941454
    vertex 27.54795086779129 0.0 25.000000000000004
    vertex 13.773975433895641 1.4099832412739491e-15 20.6
  endloop
endfacet
facet normal -2.1371658992280338e-16 -1.0 -2.8274527867354884e-33
  outer loop
    vertex 0.0 2.8199664825478975e-15 2.8370724278087772e-15
    vertex 5.949976240954193 3.0821016683481606e-15 10.40356573466958
    vertex 0.0 2.8199664825478975e-15 25.000000000000004
  endloop
endfacet
facet normal -2.1371658992280338e-16 -1.0 -2.8274527867354884e-33
  outer loop
    vertex 5.949976240954193 3.0821016683481606e-15 10.40356573466958
    vertex 0.0 2.8199664825478975e-15 2.8370724278087772e-15
    vertex 6.759169663241694 2.9091636095489126e-15 8.45
  endloop
endfacet
facet normal -2.1371658992280338e-16 -1.0 -2.8274527867354884e-33
  outer loop
    vertex 6.759169663241694 2.9091636095489126e-15 8.45
    vertex 0.0 2.8199664825478975e-15 2.8370724278087772e-15
    vertex 8.04641050628461 2.6340588861644264e-15 6.772435072388967
  endloop
endfacet
facet normal -2.1371658992280338e-16 -1.0 -2.8274527867354884e-33
  outer loop
    vertex 8.04641050628461 2.6340588861644264e-15 6.772435072388967
    vertex 0.0 2.8199664825478975e-15 2.8370724278087772e-15
    vertex 9.723975433895646 2.2755354304613017e-15 5.485194229346048
  endloop
endfacet
facet normal -2.1371658992280338e-16 -1.0 -2.8274527867354884e-33
  outer loop
    vertex 9.723975433895646 2.2755354304613017e-15 5.485194229346048
    vertex 0.0 2.8199664825478975e-15 2.8370724278087772e-15
    vertex 11.677541168565227 1.858026023457683e-15 4.676000807058548
  endloop
endfacet
facet normal -2.1371658992280338e-16 -1.0 -2.8274527867354884e-33
  outer loop
    vertex 11.677541168565227 1.858026023457683e-15 4.676000807058548
    vertex 0.0 2.8199664825478975e-15 2.8370724278087772e-15
    vertex 13.773975433895645 1.4099832412739485e-15 4.400000000000002
  endloop
endfacet
facet normal -2.1371658992280338e-16 -1.0 -2.8274527867354884e-33
  outer loop
    vertex 0.0 2.8199664825478975e-15 25.000000000000004
    vertex 5.949976240954193 3.0821016683481606e-15 10.40356573466958
    vertex 5.673975433895646 3.141087619648655e-15 12.5
  endloop
endfacet
facet normal -2.1371658992280338e-16 -1.0 -2.8274527867354884e-33
  outer loop
    vertex 0.0 2.8199664825478975e-15 25.000000000000004
    vertex 5.673975433895646 3.141087619648655e-15 12.5
    vertex 5.949976240954192 3.0821016683481606e-15 14.596434265330416
  endloop
endfacet
facet normal -2.1371658992280338e-16 -1.0 -2.8274527867354884e-33
  outer loop
    vertex 0.0 2.8199664825478975e-15 25.000000000000004
    vertex 5.949976240954192 3.0821016683481606e-15 14.596434265330416
    vertex 6.759169663241692 2.9091636095489134e-15 16.549999999999997
  endloop
endfacet
facet normal -2.1371658992280338e-16 -1.0 -2.8274527867354884e-33
  outer loop
    vertex 0.0 2.8199664825478975e-15 25.000000000000004
    vertex 6.759169663241692 2.9091636095489134e-15 16.549999999999997
    vertex 8.046410506284607 2.634058886164427e-15 18.22756492761103
  endloop
endfacet
facet normal -2.1371658992280338e-16 -1.0 -2.8274527867354884e-33
  outer loop
    vertex 0.0 2.8199664825478975e-15 25.000000000000004
    vertex 8.046410506284607 2.634058886164427e-15 18.22756492761103
    vertex 9.72397543389564 2.275535430461303e-15 19.514805770653954
  endloop
endfacet
facet normal -2.1371658992280338e-16 -1.0 -2.8274527867354884e-33
  outer loop
    vertex 0.0 2.8199664825478975e-15 25.000000000000004
    vertex 9.72397543389564 2.275535430461303e-15 19.514805770653954
    vertex 11.67754116856522 1.858026023457684e-15 20.323999192941454
  endloop
endfacet
facet normal -2.1371658992280338e-16 -1.0 -2.8274527867354884e-33
  outer loop
    vertex 0.0 2.8199664825478975e-15 25.000000000000004
    vertex 11.67754116856522 1.858026023457684e-15 20.323999192941454
    vertex 13.773975433895641 1.4099832412739491e-15 20.6
  endloop
endfacet
facet normal -2.1371658992280338e-16 -1.0 -2.8274527867354884e-33
  outer loop
    vertex 0.0 2.8199664825478975e-15 25.000000000000004
    vertex 13.773975433895641 1.4099832412739491e-15 20.6
    vertex 27.54795086779129 0.0 25.000000000000004
  endloop
endfacet
facet normal 2.1371658992280338e-16 1.0 2.8274527867354884e-33
  outer loop
    vertex 2.137165899228034e-15 10.000000000000004 2.8370724278087772e-15
    vertex 11.677541168565226 10.000000000000002 4.676000807058548
    vertex 13.77397543389565 10.000000000000002 4.400000000000002
  endloop
endfacet
facet normal 2.1371658992280338e-16 1.0 2.8274527867354884e-33
  outer loop
    vertex 11.677541168565226 10.000000000000002 4.676000807058548
    vertex 2.137165899228034e-15 10.000000000000004 2.8370724278087772e-15
    vertex 9.723975433895646 10.000000000000002 5.485194229346048
  endloop
endfacet
facet normal 2.1371658992280338e-16 1.0 2.8274527867354884e-33
  outer loop
    vertex 9.723975433895646 10.000000000000002 5.485194229346048
    vertex 2.137165899228034e-15 10.000000000000004 2.8370724278087772e-15
    vertex 8.046410506284609 10.000000000000002 6.772435072388967
  endloop
endfacet
facet normal 2.1371658992280338e-16 1.0 2.8274527867354884e-33
  outer loop
    vertex 8.046410506284609 10.000000000000002 6.772435072388967
    vertex 2.137165899228034e-15 10.000000000000004 2.8370724278087772e-15
    vertex 6.759169663241693 10.000000000000002 8.45
  endloop
endfacet
facet normal 2.1371658992280338e-16 1.0 2.8274527867354884e-33
  outer loop
    vertex 6.759169663241693 10.000000000000002 8.45
    vertex 2.137165899228034e-15 10.000000000000004 2.8370724278087772e-15
    vertex 5.9499762409541885 10.000000000000002 10.40356573466958
  endloop
endfacet
facet normal 2.1371658992280338e-16 1.0 2.8274527867354884e-33
  outer loop
    vertex 5.9499762409541885 10.000000000000002 10.40356573466958
    vertex 2.137165899228034e-15 10.000000000000004 2.8370724278087772e-15
    vertex 2.137165899228034e-15 10.000000000000004 25.000000000000004
  endloop
endfacet
facet normal 2.1371658992280338e-16 1.0 2.8274527867354884e-33
  outer loop
    vertex 5.9499762409541885 10.000000000000002 10.40356573466958
    vertex 2.137165899228034e-15 10.000000000000004 25.000000000000004
    vertex 5.673975433895642 10.000000000000002 12.5
  endloop
endfacet
facet normal 2.1371658992280338e-16 1.0 2.8274527867354884e-33
  outer loop
    vertex 5.673975433895642 10.000000000000002 12.5
    vertex 2.137165899228034e-15 10.000000000000004 25.000000000000004
    vertex 5.949976240954188 10.000000000000002 14.596434265330416
  endloop
endfacet
facet normal 2.1371658992280338e-16 1.0 2.8274527867354884e-33
  outer loop
    vertex 5.949976240954188 10.000000000000002 14.596434265330416
    vertex 2.137165899228034e-15 10.000000000000004 25.000000000000004
    vertex 6.75916966324169 10.000000000000002 16.549999999999997
  endloop
endfacet
facet normal 2.1371658992280338e-16 1.0 2.8274527867354884e-33
  outer loop
    vertex 6.75916966324169 10.000000000000002 16.549999999999997
    vertex 2.137165899228034e-15 10.000000000000004 25.000000000000004
    vertex 8.046410506284607 10.000000000000002 18.22756492761103
  endloop
endfacet
facet normal 2.1371658992280338e-16 1.0 2.8274527867354884e-33
  outer loop
    vertex 8.046410506284607 10.000000000000002 18.22756492761103
    vertex 2.137165899228034e-15 10.000000000000004 25.000000000000004
    vertex 9.72397543389564 10.000000000000002 19.514805770653954
  endloop
endfacet
facet normal 2.1371658992280338e-16 1.0 2.8274527867354884e-33
  outer loop
    vertex 9.72397543389564 10.000000000000002 19.514805770653954
    vertex 2.137165899228034e-15 10.000000000000004 25.000000000000004
    vertex 11.67754116856522 10.000000000000002 20.323999192941454
  endloop
endfacet
facet normal 2.1371658992280338e-16 1.0 2.8274527867354884e-33
  outer loop
    vertex 11.67754116856522 10.000000000000002 20.323999192941454
    vertex 2.137165899228034e-15 10.000000000000004 25.000000000000004
    vertex 13.773975433895648 10.000000000000002 20.6
  endloop
endfacet
facet normal 2.1371658992280338e-16 1.0 2.8274527867354884e-33
  outer loop
    vertex 27.54795086779129 10.0 2.8274527867354886e-32
    vertex 21.597974626837104 10.000000000000002 10.403565734669584
    vertex 27.54795086779129 10.0 25.000000000000004
  endloop
endfacet
facet normal 2.1371658992280338e-16 1.0 2.8274527867354884e-33
  outer loop
    vertex 21.597974626837104 10.000000000000002 10.403565734669584
    vertex 27.54795086779129 10.0 2.8274527867354886e-32
    vertex 20.788781204549604 10.000000000000002 8.450000000000001
  endloop
endfacet
facet normal 2.1371658992280338e-16 1.0 2.8274527867354884e-33
  outer loop
    vertex 20.788781204549604 10.000000000000002 8.450000000000001
    vertex 27.54795086779129 10.0 2.8274527867354886e-32
    vertex 19.501540361506684 10.000000000000002 6.772435072388967
  endloop
endfacet
facet normal 2.1371658992280338e-16 1.0 2.8274527867354884e-33
  outer loop
    vertex 19.501540361506684 10.000000000000002 6.772435072388967
    vertex 27.54795086779129 10.0 2.8274527867354886e-32
    vertex 17.82397543389565 10.000000000000002 5.485194229346049
  endloop
endfacet
facet normal 2.1371658992280338e-16 1.0 2.8274527867354884e-33
  outer loop
    vertex 17.82397543389565 10.000000000000002 5.485194229346049
    vertex 27.54795086779129 10.0 2.8274527867354886e-32
    vertex 15.87040969922607 10.000000000000002 4.676000807058549
  endloop
endfacet
facet normal 2.1371658992280338e-16 1.0 2.8274527867354884e-33
  outer loop
    vertex 15.87040969922607 10.000000000000002 4.676000807058549
    vertex 27.54795086779129 10.0 2.8274527867354886e-32
    vertex 2.137165899228034e-15 10.000000000000004 2.8370724278087772e-15
  endloop
endfacet
facet normal 2.1371658992280338e-16 1.0 2.8274527867354884e-33
  outer loop
    vertex 15.87040969922607 10.000000000000002 4.676000807058549
    vertex 2.137165899228034e-15 10.000000000000004 2.8370724278087772e-15
    vertex 13.77397543389565 10.000000000000002 4.400000000000002
  endloop
endfacet
facet normal 2.1371658992280338e-16 1.0 2.8274527867354884e-33
  outer loop
    vertex 27.54795086779129 10.0 25.000000000000004
    vertex 21.597974626837104 10.000000000000002 10.403565734669584
    vertex 21.87397543389565 10.000000000000002 12.500000000000002
  endloop
endfacet
facet normal 2.1371658992280338e-16 1.0 2.8274527867354884e-33
  outer loop
    vertex 27.54795086779129 10.0 25.000000000000004
    vertex 21.87397543389565 10.000000000000002 12.500000000000002
    vertex 21.5979746268371 10.000000000000002 14.596434265330426
  endloop
endfacet
facet normal 2.1371658992280338e-16 1.0 2.8274527867354884e-33
  outer loop
    vertex 27.54795086779129 10.0 25.000000000000004
    vertex 21.5979746268371 10.000000000000002 14.596434265330426
    vertex 20.7887812045496 10.000000000000002 16.550000000000004
  endloop
endfacet
facet normal 2.1371658992280338e-16 1.0 2.8274527867354884e-33
  outer loop
    vertex 27.54795086779129 10.0 25.000000000000004
    vertex 20.7887812045496 10.000000000000002 16.550000000000004
    vertex 19.50154036150668 10.000000000000002 18.227564927611038
  endloop
endfacet
facet normal 2.1371658992280338e-16 1.0 2.8274527867354884e-33
  outer loop
    vertex 27.54795086779129 10.0 25.000000000000004
    vertex 19.50154036150668 10.000000000000002 18.227564927611038
    vertex 17.823975433895647 10.000000000000002 19.514805770653957
  endloop
endfacet
facet normal 2.1371658992280338e-16 1.0 2.8274527867354884e-33
  outer loop
    vertex 27.54795086779129 10.0 25.000000000000004
    vertex 17.823975433895647 10.000000000000002 19.514805770653957
    vertex 15.870409699226064 10.000000000000002 20.323999192941454
  endloop
endfacet
facet normal 2.1371658992280338e-16 1.0 2.8274527867354884e-33
  outer loop
    vertex 27.54795086779129 10.0 25.000000000000004
    vertex 15.870409699226064 10.000000000000002 20.323999192941454
    vertex 13.773975433895648 10.000000000000002 20.6
  endloop
endfacet
facet normal 2.1371658992280338e-16 1.0 2.8274527867354884e-33
  outer loop
    vertex 27.54795086779129 10.0 25.000000000000004
    vertex 13.773975433895648 10.000000000000002 20.6
    vertex 2.137165899228034e-15 10.000000000000004 25.000000000000004
  endloop
endfacet
facet normal 1.0 -2.1371658992280343e-16 0.0
  outer loop
    vertex 27.54795086779129 10.0 2.8274527867354886e-32
    vertex 27.54795086779129 0.0 25.000000000000004
    vertex 27.54795086779129 0.0 0.0
  endloop
endfacet
facet normal 1.0 -2.1371658992280343e-16 0.0
  outer loop
    vertex 27.54795086779129 0.0 25.000000000000004
    vertex 27.54795086779129 10.0 2.8274527867354886e-32
    vertex 27.54795086779129 10.0 25.000000000000004
  endloop
endfacet
facet normal -2.8943430775836877e-49 -2.8274527867354884e-33 1.0
  outer loop
    vertex 27.54795086779129 0.0 25.000000000000004
    vertex 2.137165899228034e-15 10.000000000000004 25.000000000000004
    vertex 0.0 2.8199664825478975e-15 25.000000000000004
  endloop
endfacet
facet normal -2.8943430775836877e-49 -2.8274527867354884e-33 1.0
  outer loop
    vertex 2.137165899228034e-15 10.000000000000004 25.000000000000004
    vertex 27.54795086779129 0.0 25.000000000000004
    vertex 27.54795086779129 10.0 25.000000000000004
  endloop
endfacet
facet normal -1.0 2.137165899228034e-16 0.0
  outer loop
    vertex 2.137165899228034e-15 10.000000000000004 25.000000000000004
    vertex 0.0 2.8199664825478975e-15 2.8370724278087772e-15
    vertex 0.0 2.8199664825478975e-15 25.000000000000004
  endloop
endfacet
facet normal -1.0 2.137165899228034e-16 0.0
  outer loop
    vertex 0.0 2.8199664825478975e-15 2.8370724278087772e-15
    vertex 2.137165899228034e-15 10.000000000000004 25.000000000000004
    vertex 2.137165899228034e-15 10.000000000000004 2.8370724278087772e-15
  endloop
endfacet
facet normal -1.0298669550503106e-16 2.483741815748883e-32 -1.0
  outer loop
    vertex 2.137165899228034e-15 10.000000000000004 2.8370724278087772e-15
    vertex 27.54795086779129 0.0 0.0
    vertex 0.0 2.8199664825478975e-15 2.8370724278087772e-15
  endloop
endfacet
facet normal -1.0298669550503106e-16 2.483741815748883e-32 -1.0
  outer loop
    vertex 27.54795086779129 0.0 0.0
    vertex 2.137165899228034e-15 10.000000000000004 2.8370724278087772e-15
    vertex 27.54795086779129 10.0 2.8274527867354886e-32
  endloop
endfacet
facet normal -0.9914448613738105 2.1188821486929714e-16 0.13052619222005127
  outer loop
    vertex 21.87397543389565 10.000000000000002 12.500000000000002
    vertex 21.597974626837097 -2.621351858002634e-16 10.403565734669584
    vertex 21.873975433895644 -3.211211371007575e-16 12.500000000000002
  endloop
endfacet
facet normal -0.9914448613738105 2.1188821486929714e-16 0.13052619222005127
  outer loop
    vertex 21.597974626837097 -2.621351858002634e-16 10.403565734669584
    vertex 21.87397543389565 10.000000000000002 12.500000000000002
    vertex 21.597974626837104 10.000000000000002 10.403565734669584
  endloop
endfacet
facet normal -0.9914448613738104 2.1188821486929712e-16 -0.13052619222005207
  outer loop
    vertex 21.597974626837097 -2.6213518580026274e-16 14.596434265330426
    vertex 21.87397543389565 10.000000000000002 12.500000000000002
    vertex 21.873975433895644 -3.211211371007575e-16 12.500000000000002
  endloop
endfacet
facet normal -0.9914448613738104 2.1188821486929712e-16 -0.13052619222005207
  outer loop
    vertex 21.87397543389565 10.000000000000002 12.500000000000002
    vertex 21.597974626837097 -2.6213518580026274e-16 14.596434265330426
    vertex 21.5979746268371 10.000000000000002 14.596434265330426
  endloop
endfacet
facet normal -0.9238795325112866 1.974483831877858e-16 -0.3826834323650906
  outer loop
    vertex 20.788781204549597 -8.919712700101534e-17 16.550000000000004
    vertex 21.5979746268371 10.000000000000002 14.596434265330426
    vertex 21.597974626837097 -2.6213518580026274e-16 14.596434265330426
  endloop
endfacet
facet normal -0.9238795325112866 1.974483831877858e-16 -0.3826834323650906
  outer loop
    vertex 21.5979746268371 10.000000000000002 14.596434265330426
    vertex 20.788781204549597 -8.919712700101534e-17 16.550000000000004
    vertex 20.7887812045496 10.000000000000002 16.550000000000004
  endloop
endfacet
facet normal -0.7933533402912348 1.69552770490908e-16 -0.6087614290087212
  outer loop
    vertex 19.501540361506677 1.8590759638347126e-16 18.227564927611038
    vertex 20.7887812045496 10.000000000000002 16.550000000000004
    vertex 20.788781204549597 -8.919712700101534e-17 16.550000000000004
  endloop
endfacet
facet normal -0.7933533402912348 1.69552770490908e-16 -0.6087614290087212
  outer loop
    vertex 20.7887812045496 10.000000000000002 16.550000000000004
    vertex 19.501540361506677 1.8590759638347126e-16 18.227564927611038
    vertex 19.50154036150668 10.000000000000002 18.227564927611038
  endloop
endfacet
facet normal -0.6087614290087213 1.301024166842766e-16 -0.7933533402912347
  outer loop
    vertex 17.823975433895647 10.000000000000002 19.514805770653957
    vertex 19.501540361506677 1.8590759638347126e-16 18.227564927611038
    vertex 17.82397543389564 5.444310520865969e-16 19.514805770653957
  endloop
endfacet
facet normal -0.6087614290087213 1.301024166842766e-16 -0.7933533402912347
  outer loop
    vertex 19.501540361506677 1.8590759638347126e-16 18.227564927611038
    vertex 17.823975433895647 10.000000000000002 19.514805770653957
    vertex 19.50154036150668 10.000000000000002 18.227564927611038
  endloop
endfacet
facet normal -0.38268343236508734 8.178579818502017e-17 -0.9238795325112878
  outer loop
    vertex 15.870409699226064 10.000000000000002 20.323999192941454
    vertex 17.82397543389564 5.444310520865969e-16 19.514805770653957
    vertex 15.870409699226059 9.619404590902153e-16 20.323999192941454
  endloop
endfacet
facet normal -0.38268343236508734 8.178579818502017e-17 -0.9238795325112878
  outer loop
    vertex 17.82397543389564 5.444310520865969e-16 19.514805770653957
    vertex 15.870409699226064 10.000000000000002 20.323999192941454
    vertex 17.823975433895647 10.000000000000002 19.514805770653957
  endloop
endfacet
facet normal -0.13052619222005266 2.7895612696877984e-17 -0.9914448613738103
  outer loop
    vertex 13.773975433895648 10.000000000000002 20.6
    vertex 15.870409699226059 9.619404590902153e-16 20.323999192941454
    vertex 13.773975433895641 1.4099832412739491e-15 20.6
  endloop
endfacet
facet normal -0.13052619222005266 2.7895612696877984e-17 -0.9914448613738103
  outer loop
    vertex 15.870409699226059 9.619404590902153e-16 20.323999192941454
    vertex 13.773975433895648 10.000000000000002 20.6
    vertex 15.870409699226064 10.000000000000002 20.323999192941454
  endloop
endfacet
facet normal 0.13052619222005235 -2.7895612696877916e-17 -0.9914448613738105
  outer loop
    vertex 13.773975433895648 10.000000000000002 20.6
    vertex 11.67754116856522 1.858026023457684e-15 20.323999192941454
    vertex 11.67754116856522 10.000000000000002 20.323999192941454
  endloop
endfacet
facet normal 0.13052619222005235 -2.7895612696877916e-17 -0.9914448613738105
  outer loop
    vertex 11.67754116856522 1.858026023457684e-15 20.323999192941454
    vertex 13.773975433895648 10.000000000000002 20.6
    vertex 13.773975433895641 1.4099832412739491e-15 20.6
  endloop
endfacet
facet normal 0.38268343236509006 -8.178579818502075e-17 -0.9238795325112866
  outer loop
    vertex 11.67754116856522 10.000000000000002 20.323999192941454
    vertex 9.72397543389564 2.275535430461303e-15 19.514805770653954
    vertex 9.72397543389564 10.000000000000002 19.514805770653954
  endloop
endfacet
facet normal 0.38268343236509006 -8.178579818502075e-17 -0.9238795325112866
  outer loop
    vertex 9.72397543389564 2.275535430461303e-15 19.514805770653954
    vertex 11.67754116856522 10.000000000000002 20.323999192941454
    vertex 11.67754116856522 1.858026023457684e-15 20.323999192941454
  endloop
endfacet
facet normal 0.6087614290087221 -1.3010241668427675e-16 -0.7933533402912343
  outer loop
    vertex 9.72397543389564 10.000000000000002 19.514805770653954
    vertex 8.046410506284607 2.634058886164427e-15 18.22756492761103
    vertex 8.046410506284607 10.000000000000002 18.22756492761103
  endloop
endfacet
facet normal 0.6087614290087221 -1.3010241668427675e-16 -0.7933533402912343
  outer loop
    vertex 8.046410506284607 2.634058886164427e-15 18.22756492761103
    vertex 9.72397543389564 10.000000000000002 19.514805770653954
    vertex 9.72397543389564 2.275535430461303e-15 19.514805770653954
  endloop
endfacet
facet normal 0.7933533402912354 -1.6955277049090812e-16 -0.6087614290087203
  outer loop
    vertex 6.759169663241692 2.9091636095489134e-15 16.549999999999997
    vertex 8.046410506284607 10.000000000000002 18.22756492761103
    vertex 8.046410506284607 2.634058886164427e-15 18.22756492761103
  endloop
endfacet
facet normal 0.7933533402912354 -1.6955277049090812e-16 -0.6087614290087203
  outer loop
    vertex 8.046410506284607 10.000000000000002 18.22756492761103
    vertex 6.759169663241692 2.9091636095489134e-15 16.549999999999997
    vertex 6.75916966324169 10.000000000000002 16.549999999999997
  endloop
endfacet
facet normal 0.9238795325112868 -1.9744838318778584e-16 -0.3826834323650896
  outer loop
    vertex 5.949976240954192 3.0821016683481606e-15 14.596434265330416
    vertex 6.75916966324169 10.000000000000002 16.549999999999997
    vertex 6.759169663241692 2.9091636095489134e-15 16.549999999999997
  endloop
endfacet
facet normal 0.9238795325112868 -1.9744838318778584e-16 -0.3826834323650896
  outer loop
    vertex 6.75916966324169 10.000000000000002 16.549999999999997
    vertex 5.949976240954192 3.0821016683481606e-15 14.596434265330416
    vertex 5.949976240954188 10.000000000000002 14.596434265330416
  endloop
endfacet
facet normal 0.9914448613738106 -2.1188821486929717e-16 -0.13052619222005138
  outer loop
    vertex 5.673975433895646 3.141087619648655e-15 12.5
    vertex 5.949976240954188 10.000000000000002 14.596434265330416
    vertex 5.949976240954192 3.0821016683481606e-15 14.596434265330416
  endloop
endfacet
facet normal 0.9914448613738106 -2.1188821486929717e-16 -0.13052619222005138
  outer loop
    vertex 5.949976240954188 10.000000000000002 14.596434265330416
    vertex 5.673975433895646 3.141087619648655e-15 12.5
    vertex 5.673975433895642 10.000000000000002 12.5
  endloop
endfacet
facet normal 0.9914448613738105 -2.1188821486929714e-16 0.13052619222005185
  outer loop
    vertex 5.9499762409541885 10.000000000000002 10.40356573466958
    vertex 5.673975433895646 3.141087619648655e-15 12.5
    vertex 5.949976240954193 3.0821016683481606e-15 10.40356573466958
  endloop
endfacet
facet normal 0.9914448613738105 -2.1188821486929714e-16 0.13052619222005185
  outer loop
    vertex 5.673975433895646 3.141087619648655e-15 12.5
    vertex 5.9499762409541885 10.000000000000002 10.40356573466958
    vertex 5.673975433895642 10.000000000000002 12.5
  endloop
endfacet
facet normal 0.9238795325112867 -1.9744838318778584e-16 0.3826834323650902
  outer loop
    vertex 6.759169663241693 10.000000000000002 8.45
    vertex 5.949976240954193 3.0821016683481606e-15 10.40356573466958
    vertex 6.759169663241694 2.9091636095489126e-15 8.45
  endloop
endfacet
facet normal 0.9238795325112867 -1.9744838318778584e-16 0.3826834323650902
  outer loop
    vertex 5.949976240954193 3.0821016683481606e-15 10.40356573466958
    vertex 6.759169663241693 10.000000000000002 8.45
    vertex 5.9499762409541885 10.000000000000002 10.40356573466958
  endloop
endfacet
facet normal 0.7933533402912352 -1.6955277049090808e-16 0.6087614290087207
  outer loop
    vertex 8.046410506284609 10.000000000000002 6.772435072388967
    vertex 6.759169663241694 2.9091636095489126e-15 8.45
    vertex 8.04641050628461 2.6340588861644264e-15 6.772435072388967
  endloop
endfacet
facet normal 0.7933533402912352 -1.6955277049090808e-16 0.6087614290087207
  outer loop
    vertex 6.759169663241694 2.9091636095489126e-15 8.45
    vertex 8.046410506284609 10.000000000000002 6.772435072388967
    vertex 6.759169663241693 10.000000000000002 8.45
  endloop
endfacet
facet normal 0.6087614290087205 -1.3010241668427643e-16 0.7933533402912353
  outer loop
    vertex 8.04641050628461 2.6340588861644264e-15 6.772435072388967
    vertex 9.723975433895646 10.000000000000002 5.485194229346048
    vertex 8.046410506284609 10.000000000000002 6.772435072388967
  endloop
endfacet
facet normal 0.6087614290087205 -1.3010241668427643e-16 0.7933533402912353
  outer loop
    vertex 9.723975433895646 10.000000000000002 5.485194229346048
    vertex 8.04641050628461 2.6340588861644264e-15 6.772435072388967
    vertex 9.723975433895646 2.2755354304613017e-15 5.485194229346048
  endloop
endfacet
facet normal 0.38268343236508984 -8.17857981850207e-17 0.9238795325112867
  outer loop
    vertex 9.723975433895646 2.2755354304613017e-15 5.485194229346048
    vertex 11.677541168565226 10.000000000000002 4.676000807058548
    vertex 9.723975433895646 10.000000000000002 5.485194229346048
  endloop
endfacet
facet normal 0.38268343236508984 -8.17857981850207e-17 0.9238795325112867
  outer loop
    vertex 11.677541168565226 10.000000000000002 4.676000807058548
    vertex 9.723975433895646 2.2755354304613017e-15 5.485194229346048
    vertex 11.677541168565227 1.858026023457683e-15 4.676000807058548
  endloop
endfacet
facet normal 0.13052619222005127 -2.789561269687769e-17 0.9914448613738105
  outer loop
    vertex 11.677541168565227 1.858026023457683e-15 4.676000807058548
    vertex 13.77397543389565 10.000000000000002 4.400000000000002
    vertex 11.677541168565226 10.000000000000002 4.676000807058548
  endloop
endfacet
facet normal 0.13052619222005127 -2.789561269687769e-17 0.9914448613738105
  outer loop
    vertex 13.77397543389565 10.000000000000002 4.400000000000002
    vertex 11.677541168565227 1.858026023457683e-15 4.676000807058548
    vertex 13.773975433895645 1.4099832412739485e-15 4.400000000000002
  endloop
endfacet
facet normal -0.13052619222005185 2.789561269687781e-17 0.9914448613738105
  outer loop
    vertex 15.870409699226064 9.619404590902141e-16 4.676000807058549
    vertex 13.77397543389565 10.000000000000002 4.400000000000002
    vertex 13.773975433895645 1.4099832412739485e-15 4.400000000000002
  endloop
endfacet
facet normal -0.13052619222005185 2.789561269687781e-17 0.9914448613738105
  outer loop
    vertex 13.77397543389565 10.000000000000002 4.400000000000002
    vertex 15.870409699226064 9.619404590902141e-16 4.676000807058549
    vertex 15.87040969922607 10.000000000000002 4.676000807058549
  endloop
endfacet
facet normal -0.3826834323650896 8.178579818502067e-17 0.9238795325112868
  outer loop
    vertex 17.823975433895647 5.444310520865954e-16 5.485194229346049
    vertex 15.87040969922607 10.000000000000002 4.676000807058549
    vertex 15.870409699226064 9.619404590902141e-16 4.676000807058549
  endloop
endfacet
facet normal -0.3826834323650896 8.178579818502067e-17 0.9238795325112868
  outer loop
    vertex 15.87040969922607 10.000000000000002 4.676000807058549
    vertex 17.823975433895647 5.444310520865954e-16 5.485194229346049
    vertex 17.82397543389565 10.000000000000002 5.485194229346049
  endloop
endfacet
facet normal -0.6087614290087208 1.3010241668427648e-16 0.7933533402912353
  outer loop
    vertex 19.50154036150668 1.8590759638347094e-16 6.772435072388967
    vertex 17.82397543389565 10.000000000000002 5.485194229346049
    vertex 17.823975433895647 5.444310520865954e-16 5.485194229346049
  endloop
endfacet
facet normal -0.6087614290087208 1.3010241668427648e-16 0.7933533402912353
  outer loop
    vertex 17.82397543389565 10.000000000000002 5.485194229346049
    vertex 19.50154036150668 1.8590759638347094e-16 6.772435072388967
    vertex 19.501540361506684 10.000000000000002 6.772435072388967
  endloop
endfacet
facet normal -0.7933533402912349 1.6955277049090805e-16 0.6087614290087209
  outer loop
    vertex 20.788781204549604 10.000000000000002 8.450000000000001
    vertex 19.50154036150668 1.8590759638347094e-16 6.772435072388967
    vertex 20.788781204549597 -8.919712700101597e-17 8.450000000000001
  endloop
endfacet
facet normal -0.7933533402912349 1.6955277049090805e-16 0.6087614290087209
  outer loop
    vertex 19.50154036150668 1.8590759638347094e-16 6.772435072388967
    vertex 20.788781204549604 10.000000000000002 8.450000000000001
    vertex 19.501540361506684 10.000000000000002 6.772435072388967
  endloop
endfacet
facet normal -0.9238795325112868 1.9744838318778584e-16 0.3826834323650896
  outer loop
    vertex 21.597974626837104 10.000000000000002 10.403565734669584
    vertex 20.788781204549597 -8.919712700101597e-17 8.450000000000001
    vertex 21.597974626837097 -2.621351858002634e-16 10.403565734669584
  endloop
endfacet
facet normal -0.9238795325112868 1.9744838318778584e-16 0.3826834323650896
  outer loop
    vertex 20.788781204549597 -8.919712700101597e-17 8.450000000000001
    vertex 21.597974626837104 10.000000000000002 10.403565734669584
    vertex 20.788781204549604 10.000000000000002 8.450000000000001
  endloop
endfacet
endsolid XY-Ромб-Держатель-16мм
