solid XY-Ромб-Держатель-16мм-СоСмещением
facet normal 1.0 -0.0 -0.0
  outer loop
    vertex 27.54795086779129 3.32643993180654e-32 -1.4099832412739487e-15
    vertex 27.54795086779129 10.0 25.000000000000004
    vertex 27.54795086779129 0.0 25.000000000000004
  endloop
endfacet
facet normal 1.0 -0.0 -0.0
  outer loop
    vertex 27.54795086779129 10.0 25.000000000000004
    vertex 27.54795086779129 3.32643993180654e-32 -1.4099832412739487e-15
    vertex 27.54795086779129 10.0 1.5756370100574964e-15
  endloop
endfacet
facet normal -2.8943430775836877e-49 -2.8274527867354884e-33 1.0
  outer loop
    vertex 27.54795086779129 0.0 25.000000000000004
    vertex 2.137165899228034e-15 10.000000000000004 25.000000000000004
    vertex 0.0 2.8199664825478975e-15 25.000000000000004
  endloop
endfacet
facet normal -2.8943430775836877e-49 -2.8274527867354884e-33 1.0
  outer loop
    vertex 2.137165899228034e-15 10.000000000000004 25.000000000000004
    vertex 27.54795086779129 0.0 25.000000000000004
    vertex 27.54795086779129 10.0 25.000000000000004
  endloop
endfacet
facet normal -1.0 1.0335769366377739e-17 2.4212002447193515e-16
  outer loop
    vertex 0.0 2.8199664825478975e-15 25.000000000000004
    vertex -1.93045051190048e-15 10.0 16.599999999999998
    vertex 0.0 2.149309705349051e-15 16.599999999999998
  endloop
endfacet
facet normal -1.0 1.0335769366377739e-17 2.4212002447193515e-16
  outer loop
    vertex -1.93045051190048e-15 10.0 16.599999999999998
    vertex 0.0 2.8199664825478975e-15 25.000000000000004
    vertex 2.137165899228034e-15 10.000000000000004 25.000000000000004
  endloop
endfacet
facet normal 3.7084557753153146e-17 1.7004854534040754e-16 -1.0
  outer loop
    vertex 27.54795086779129 10.0 1.5756370100574964e-15
    vertex 19.572251039625336 2.6198436473784e-16 -4.206237442460136e-16
    vertex 19.572251039625336 10.000000000000004 -5.273088769305916e-18
  endloop
endfacet
facet normal 3.7084557753153146e-17 1.7004854534040754e-16 -1.0
  outer loop
    vertex 19.572251039625336 2.6198436473784e-16 -4.206237442460136e-16
    vertex 27.54795086779129 10.0 1.5756370100574964e-15
    vertex 27.54795086779129 3.32643993180654e-32 -1.4099832412739487e-15
  endloop
endfacet
facet normal -4.928255953985499e-16 -9.450087652045552e-17 -1.0
  outer loop
    vertex 5.151944804367929e-16 10.0 2.985620251331445e-15
    vertex 7.975699828165959 1.6068223787806704e-15 0.0
    vertex 0.0 0.0 0.0
  endloop
endfacet
facet normal -4.928255953985499e-16 -9.450087652045552e-17 -1.0
  outer loop
    vertex 7.975699828165959 1.6068223787806704e-15 0.0
    vertex 5.151944804367929e-16 10.0 2.985620251331445e-15
    vertex 7.975699828165959 10.000000000000004 -4.875637781740556e-15
  endloop
endfacet
facet normal -5.782398375446749e-17 -1.0 4.5384449666026e-17
  outer loop
    vertex 27.54795086779129 0.0 25.000000000000004
    vertex 19.572251039625336 2.6198436473784e-16 -4.206237442460136e-16
    vertex 27.54795086779129 3.32643993180654e-32 -1.4099832412739487e-15
  endloop
endfacet
facet normal -5.782398375446749e-17 -1.0 4.5384449666026e-17
  outer loop
    vertex 19.572251039625336 2.6198436473784e-16 -4.206237442460136e-16
    vertex 27.54795086779129 0.0 25.000000000000004
    vertex 16.375383744928044 1.3150965110498564e-15 8.400000000000004
  endloop
endfacet
facet normal -5.782398375446749e-17 -1.0 4.5384449666026e-17
  outer loop
    vertex 19.572251039625336 2.6198436473784e-16 -4.206237442460136e-16
    vertex 16.375383744928044 1.3150965110498564e-15 8.400000000000004
    vertex 15.072251039625337 1.3246219249945966e-15 6.701724394270315
  endloop
endfacet
facet normal -5.782398375446749e-17 -1.0 4.5384449666026e-17
  outer loop
    vertex 19.572251039625336 2.6198436473784e-16 -4.206237442460136e-16
    vertex 15.072251039625337 1.3246219249945966e-15 6.701724394270315
    vertex 7.975699828165959 1.6068223787806704e-15 0.0
  endloop
endfacet
facet normal -5.782398375446749e-17 -1.0 4.5384449666026e-17
  outer loop
    vertex 7.975699828165959 1.6068223787806704e-15 0.0
    vertex 15.072251039625337 1.3246219249945966e-15 6.701724394270315
    vertex 13.373975433895648 1.3713568248241833e-15 5.398591688967606
  endloop
endfacet
facet normal -5.782398375446749e-17 -1.0 4.5384449666026e-17
  outer loop
    vertex 7.975699828165959 1.6068223787806704e-15 0.0
    vertex 13.373975433895648 1.3713568248241833e-15 5.398591688967606
    vertex 11.396291603736321 1.4521163043483038e-15 4.579408224429643
  endloop
endfacet
facet normal -5.782398375446749e-17 -1.0 4.5384449666026e-17
  outer loop
    vertex 7.975699828165959 1.6068223787806704e-15 0.0
    vertex 11.396291603736321 1.4521163043483038e-15 4.579408224429643
    vertex 0.0 0.0 0.0
  endloop
endfacet
facet normal -5.782398375446749e-17 -1.0 4.5384449666026e-17
  outer loop
    vertex 0.0 0.0 0.0
    vertex 11.396291603736321 1.4521163043483038e-15 4.579408224429643
    vertex 9.273975433895647 1.5613967384987402e-15 4.300000000000002
  endloop
endfacet
facet normal -5.782398375446749e-17 -1.0 4.5384449666026e-17
  outer loop
    vertex 16.375383744928044 1.3150965110498564e-15 8.400000000000004
    vertex 27.54795086779129 0.0 25.000000000000004
    vertex 17.194567209466 1.3434297242088061e-15 10.377683830159334
  endloop
endfacet
facet normal -5.782398375446749e-17 -1.0 4.5384449666026e-17
  outer loop
    vertex 17.194567209466 1.3434297242088061e-15 10.377683830159334
    vertex 27.54795086779129 0.0 25.000000000000004
    vertex 17.473975433895642 1.4076907028175119e-15 12.500000000000002
  endloop
endfacet
facet normal -5.782398375446749e-17 -1.0 4.5384449666026e-17
  outer loop
    vertex 17.473975433895642 1.4076907028175119e-15 12.500000000000002
    vertex 27.54795086779129 0.0 25.000000000000004
    vertex 17.194567209466 1.5035001673800786e-15 14.622316169840671
  endloop
endfacet
facet normal -5.782398375446749e-17 -1.0 4.5384449666026e-17
  outer loop
    vertex 17.194567209466 1.5035001673800786e-15 14.622316169840671
    vertex 27.54795086779129 0.0 25.000000000000004
    vertex 16.375383744928037 1.624328861219194e-15 16.600000000000005
  endloop
endfacet
facet normal -5.782398375446749e-17 -1.0 4.5384449666026e-17
  outer loop
    vertex 16.375383744928037 1.624328861219194e-15 16.600000000000005
    vertex 27.54795086779129 0.0 25.000000000000004
    vertex 15.072251039625334 1.7619425085285795e-15 18.298275605729692
  endloop
endfacet
facet normal -5.782398375446749e-17 -1.0 4.5384449666026e-17
  outer loop
    vertex 15.072251039625334 1.7619425085285795e-15 18.298275605729692
    vertex 27.54795086779129 0.0 25.000000000000004
    vertex 13.373975433895643 1.906962966661406e-15 19.601408311032397
  endloop
endfacet
facet normal -5.782398375446749e-17 -1.0 4.5384449666026e-17
  outer loop
    vertex 13.373975433895643 1.906962966661406e-15 19.601408311032397
    vertex 27.54795086779129 0.0 25.000000000000004
    vertex 11.396291603736314 2.0495073310535594e-15 20.42059177557036
  endloop
endfacet
facet normal -5.782398375446749e-17 -1.0 4.5384449666026e-17
  outer loop
    vertex 11.396291603736314 2.0495073310535594e-15 20.42059177557036
    vertex 27.54795086779129 0.0 25.000000000000004
    vertex 9.273975433895645 2.179861438837415e-15 20.700000000000003
  endloop
endfacet
facet normal -5.782398375446749e-17 -1.0 4.5384449666026e-17
  outer loop
    vertex 2.172567122863249 2.4261616662862985e-15 16.6
    vertex 0.0 2.8199664825478975e-15 25.000000000000004
    vertex 0.0 2.149309705349051e-15 16.599999999999998
  endloop
endfacet
facet normal -5.782398375446749e-17 -1.0 4.5384449666026e-17
  outer loop
    vertex 0.0 2.8199664825478975e-15 25.000000000000004
    vertex 2.172567122863249 2.4261616662862985e-15 16.6
    vertex 3.475699828165955 2.4166362523415585e-15 18.298275605729692
  endloop
endfacet
facet normal -5.782398375446749e-17 -1.0 4.5384449666026e-17
  outer loop
    vertex 0.0 2.8199664825478975e-15 25.000000000000004
    vertex 3.475699828165955 2.4166362523415585e-15 18.298275605729692
    vertex 5.173975433895644 2.369901352511972e-15 19.601408311032397
  endloop
endfacet
facet normal -5.782398375446749e-17 -1.0 4.5384449666026e-17
  outer loop
    vertex 0.0 2.8199664825478975e-15 25.000000000000004
    vertex 5.173975433895644 2.369901352511972e-15 19.601408311032397
    vertex 7.151659264054973 2.289141872987851e-15 20.420591775570358
  endloop
endfacet
facet normal -5.782398375446749e-17 -1.0 4.5384449666026e-17
  outer loop
    vertex 0.0 2.8199664825478975e-15 25.000000000000004
    vertex 7.151659264054973 2.289141872987851e-15 20.420591775570358
    vertex 9.273975433895645 2.179861438837415e-15 20.700000000000003
  endloop
endfacet
facet normal -5.782398375446749e-17 -1.0 4.5384449666026e-17
  outer loop
    vertex 0.0 2.8199664825478975e-15 25.000000000000004
    vertex 9.273975433895645 2.179861438837415e-15 20.700000000000003
    vertex 27.54795086779129 0.0 25.000000000000004
  endloop
endfacet
facet normal -5.782398375446749e-17 -1.0 4.5384449666026e-17
  outer loop
    vertex 0.0 0.0 0.0
    vertex 5.1739754338956505 1.8342952106747485e-15 5.398591688967602
    vertex 0.0 1.6022659088094453e-15 8.399999999999999
  endloop
endfacet
facet normal -5.782398375446749e-17 -1.0 4.5384449666026e-17
  outer loop
    vertex 5.1739754338956505 1.8342952106747485e-15 5.398591688967602
    vertex 0.0 0.0 0.0
    vertex 7.151659264054978 1.6917508462825953e-15 4.579408224429642
  endloop
endfacet
facet normal -5.782398375446749e-17 -1.0 4.5384449666026e-17
  outer loop
    vertex 7.151659264054978 1.6917508462825953e-15 4.579408224429642
    vertex 0.0 0.0 0.0
    vertex 9.273975433895647 1.5613967384987402e-15 4.300000000000002
  endloop
endfacet
facet normal -5.782398375446749e-17 -1.0 4.5384449666026e-17
  outer loop
    vertex 0.0 1.6022659088094453e-15 8.399999999999999
    vertex 5.1739754338956505 1.8342952106747485e-15 5.398591688967602
    vertex 3.4756998281659572 1.9793156688075756e-15 6.701724394270311
  endloop
endfacet
facet normal -5.782398375446749e-17 -1.0 4.5384449666026e-17
  outer loop
    vertex 0.0 1.6022659088094453e-15 8.399999999999999
    vertex 3.4756998281659572 1.9793156688075756e-15 6.701724394270311
    vertex 2.1725671228632515 2.116929316116961e-15 8.399999999999999
  endloop
endfacet
facet normal -2.3121679641076275e-17 1.0 3.1033271516557183e-17
  outer loop
    vertex 5.151944804367929e-16 10.0 2.985620251331445e-15
    vertex 7.151659264054978 10.000000000000002 4.579408224429642
    vertex 9.273975433895647 10.000000000000002 4.300000000000002
  endloop
endfacet
facet normal -2.3121679641076275e-17 1.0 3.1033271516557183e-17
  outer loop
    vertex 7.151659264054978 10.000000000000002 4.579408224429642
    vertex 5.151944804367929e-16 10.0 2.985620251331445e-15
    vertex 5.1739754338956505 10.000000000000004 5.398591688967602
  endloop
endfacet
facet normal -2.3121679641076275e-17 1.0 3.1033271516557183e-17
  outer loop
    vertex 5.1739754338956505 10.000000000000004 5.398591688967602
    vertex 5.151944804367929e-16 10.0 2.985620251331445e-15
    vertex -1.93045051190048e-15 10.0 8.399999999999999
  endloop
endfacet
facet normal -2.3121679641076275e-17 1.0 3.1033271516557183e-17
  outer loop
    vertex 5.1739754338956505 10.000000000000004 5.398591688967602
    vertex -1.93045051190048e-15 10.0 8.399999999999999
    vertex 3.4756998281659572 10.000000000000004 6.701724394270311
  endloop
endfacet
facet normal -2.3121679641076275e-17 1.0 3.1033271516557183e-17
  outer loop
    vertex 3.4756998281659572 10.000000000000004 6.701724394270311
    vertex -1.93045051190048e-15 10.0 8.399999999999999
    vertex 2.1725671228632515 10.0 8.399999999999999
  endloop
endfacet
facet normal -2.3121679641076275e-17 1.0 3.1033271516557183e-17
  outer loop
    vertex 2.137165899228034e-15 10.000000000000004 25.000000000000004
    vertex 2.172567122863249 10.0 16.6
    vertex -1.93045051190048e-15 10.0 16.599999999999998
  endloop
endfacet
facet normal -2.3121679641076275e-17 1.0 3.1033271516557183e-17
  outer loop
    vertex 2.172567122863249 10.0 16.6
    vertex 2.137165899228034e-15 10.000000000000004 25.000000000000004
    vertex 3.475699828165955 10.000000000000004 18.298275605729692
  endloop
endfacet
facet normal -2.3121679641076275e-17 1.0 3.1033271516557183e-17
  outer loop
    vertex 3.475699828165955 10.000000000000004 18.298275605729692
    vertex 2.137165899228034e-15 10.000000000000004 25.000000000000004
    vertex 5.173975433895644 10.000000000000004 19.601408311032397
  endloop
endfacet
facet normal -2.3121679641076275e-17 1.0 3.1033271516557183e-17
  outer loop
    vertex 5.173975433895644 10.000000000000004 19.601408311032397
    vertex 2.137165899228034e-15 10.000000000000004 25.000000000000004
    vertex 7.151659264054973 10.000000000000004 20.420591775570358
  endloop
endfacet
facet normal -2.3121679641076275e-17 1.0 3.1033271516557183e-17
  outer loop
    vertex 7.151659264054973 10.000000000000004 20.420591775570358
    vertex 2.137165899228034e-15 10.000000000000004 25.000000000000004
    vertex 9.273975433895645 10.000000000000004 20.700000000000003
  endloop
endfacet
facet normal -2.3121679641076275e-17 1.0 3.1033271516557183e-17
  outer loop
    vertex 5.151944804367929e-16 10.0 2.985620251331445e-15
    vertex 19.572251039625336 10.000000000000004 -5.273088769305916e-18
    vertex 7.975699828165959 10.000000000000004 -4.875637781740556e-15
  endloop
endfacet
facet normal -2.3121679641076275e-17 1.0 3.1033271516557183e-17
  outer loop
    vertex 19.572251039625336 10.000000000000004 -5.273088769305916e-18
    vertex 5.151944804367929e-16 10.0 2.985620251331445e-15
    vertex 27.54795086779129 10.0 1.5756370100574964e-15
  endloop
endfacet
facet normal -2.3121679641076275e-17 1.0 3.1033271516557183e-17
  outer loop
    vertex 27.54795086779129 10.0 1.5756370100574964e-15
    vertex 5.151944804367929e-16 10.0 2.985620251331445e-15
    vertex 11.396291603736321 10.000000000000002 4.579408224429643
  endloop
endfacet
facet normal -2.3121679641076275e-17 1.0 3.1033271516557183e-17
  outer loop
    vertex 27.54795086779129 10.0 1.5756370100574964e-15
    vertex 11.396291603736321 10.000000000000002 4.579408224429643
    vertex 13.373975433895648 10.000000000000002 5.398591688967606
  endloop
endfacet
facet normal -2.3121679641076275e-17 1.0 3.1033271516557183e-17
  outer loop
    vertex 27.54795086779129 10.0 1.5756370100574964e-15
    vertex 13.373975433895648 10.000000000000002 5.398591688967606
    vertex 15.072251039625337 10.000000000000002 6.701724394270315
  endloop
endfacet
facet normal -2.3121679641076275e-17 1.0 3.1033271516557183e-17
  outer loop
    vertex 27.54795086779129 10.0 1.5756370100574964e-15
    vertex 15.072251039625337 10.000000000000002 6.701724394270315
    vertex 16.375383744928044 10.000000000000002 8.400000000000004
  endloop
endfacet
facet normal -2.3121679641076275e-17 1.0 3.1033271516557183e-17
  outer loop
    vertex 27.54795086779129 10.0 1.5756370100574964e-15
    vertex 16.375383744928044 10.000000000000002 8.400000000000004
    vertex 27.54795086779129 10.0 25.000000000000004
  endloop
endfacet
facet normal -2.3121679641076275e-17 1.0 3.1033271516557183e-17
  outer loop
    vertex 11.396291603736321 10.000000000000002 4.579408224429643
    vertex 5.151944804367929e-16 10.0 2.985620251331445e-15
    vertex 9.273975433895647 10.000000000000002 4.300000000000002
  endloop
endfacet
facet normal -2.3121679641076275e-17 1.0 3.1033271516557183e-17
  outer loop
    vertex 27.54795086779129 10.0 25.000000000000004
    vertex 16.375383744928044 10.000000000000002 8.400000000000004
    vertex 17.194567209466 10.000000000000002 10.377683830159334
  endloop
endfacet
facet normal -2.3121679641076275e-17 1.0 3.1033271516557183e-17
  outer loop
    vertex 27.54795086779129 10.0 25.000000000000004
    vertex 17.194567209466 10.000000000000002 10.377683830159334
    vertex 17.473975433895642 10.000000000000002 12.500000000000002
  endloop
endfacet
facet normal -2.3121679641076275e-17 1.0 3.1033271516557183e-17
  outer loop
    vertex 27.54795086779129 10.0 25.000000000000004
    vertex 17.473975433895642 10.000000000000002 12.500000000000002
    vertex 17.194567209466 10.000000000000002 14.622316169840671
  endloop
endfacet
facet normal -2.3121679641076275e-17 1.0 3.1033271516557183e-17
  outer loop
    vertex 27.54795086779129 10.0 25.000000000000004
    vertex 17.194567209466 10.000000000000002 14.622316169840671
    vertex 16.375383744928037 10.000000000000002 16.600000000000005
  endloop
endfacet
facet normal -2.3121679641076275e-17 1.0 3.1033271516557183e-17
  outer loop
    vertex 27.54795086779129 10.0 25.000000000000004
    vertex 16.375383744928037 10.000000000000002 16.600000000000005
    vertex 15.072251039625334 10.000000000000004 18.298275605729692
  endloop
endfacet
facet normal -2.3121679641076275e-17 1.0 3.1033271516557183e-17
  outer loop
    vertex 27.54795086779129 10.0 25.000000000000004
    vertex 15.072251039625334 10.000000000000004 18.298275605729692
    vertex 13.373975433895643 10.000000000000004 19.601408311032397
  endloop
endfacet
facet normal -2.3121679641076275e-17 1.0 3.1033271516557183e-17
  outer loop
    vertex 27.54795086779129 10.0 25.000000000000004
    vertex 13.373975433895643 10.000000000000004 19.601408311032397
    vertex 11.396291603736314 10.000000000000004 20.42059177557036
  endloop
endfacet
facet normal -2.3121679641076275e-17 1.0 3.1033271516557183e-17
  outer loop
    vertex 27.54795086779129 10.0 25.000000000000004
    vertex 11.396291603736314 10.000000000000004 20.42059177557036
    vertex 9.273975433895645 10.000000000000004 20.700000000000003
  endloop
endfacet
facet normal -2.3121679641076275e-17 1.0 3.1033271516557183e-17
  outer loop
    vertex 27.54795086779129 10.0 25.000000000000004
    vertex 9.273975433895645 10.000000000000004 20.700000000000003
    vertex 2.137165899228034e-15 10.000000000000004 25.000000000000004
  endloop
endfacet
facet normal 1.918562194736023e-16 -2.230143563131923e-16 -1.0
  outer loop
    vertex 19.572251039625336 10.000000000000004 -5.273088769305916e-18
    vertex 7.975699828165959 1.6068223787806704e-15 0.0
    vertex 7.975699828165959 10.000000000000004 -4.875637781740556e-15
  endloop
endfacet
facet normal 1.918562194736023e-16 -2.230143563131923e-16 -1.0
  outer loop
    vertex 7.975699828165959 1.6068223787806704e-15 0.0
    vertex 19.572251039625336 10.000000000000004 -5.273088769305916e-18
    vertex 19.572251039625336 2.6198436473784e-16 -4.206237442460136e-16
  endloop
endfacet
facet normal -0.0 -0.0 1.0
  outer loop
    vertex 0.0 1.6022659088094453e-15 8.399999999999999
    vertex 2.1725671228632515 10.0 8.399999999999999
    vertex -1.93045051190048e-15 10.0 8.399999999999999
  endloop
endfacet
facet normal -0.0 -0.0 1.0
  outer loop
    vertex 2.1725671228632515 10.0 8.399999999999999
    vertex 0.0 1.6022659088094453e-15 8.399999999999999
    vertex 2.1725671228632515 2.116929316116961e-15 8.399999999999999
  endloop
endfacet
facet normal 1.2979881969452952e-15 1.3074074091177782e-31 -1.0
  outer loop
    vertex 2.172567122863249 10.0 16.6
    vertex 0.0 2.149309705349051e-15 16.599999999999998
    vertex -1.93045051190048e-15 10.0 16.599999999999998
  endloop
endfacet
facet normal 1.2979881969452952e-15 1.3074074091177782e-31 -1.0
  outer loop
    vertex 0.0 2.149309705349051e-15 16.599999999999998
    vertex 2.172567122863249 10.0 16.6
    vertex 2.172567122863249 2.4261616662862985e-15 16.6
  endloop
endfacet
facet normal -1.0 -7.076280157318432e-17 -1.4557410668674248e-16
  outer loop
    vertex 0.0 1.6022659088094453e-15 8.399999999999999
    vertex 5.151944804367929e-16 10.0 2.985620251331445e-15
    vertex 0.0 0.0 0.0
  endloop
endfacet
facet normal -1.0 -7.076280157318432e-17 -1.4557410668674248e-16
  outer loop
    vertex 5.151944804367929e-16 10.0 2.985620251331445e-15
    vertex 0.0 1.6022659088094453e-15 8.399999999999999
    vertex -1.93045051190048e-15 10.0 8.399999999999999
  endloop
endfacet
facet normal -0.6087614290087204 4.4498189488326905e-18 -0.7933533402912355
  outer loop
    vertex 15.072251039625334 10.000000000000004 18.298275605729692
    vertex 13.373975433895643 1.906962966661406e-15 19.601408311032397
    vertex 13.373975433895643 10.000000000000004 19.601408311032397
  endloop
endfacet
facet normal -0.6087614290087204 4.4498189488326905e-18 -0.7933533402912355
  outer loop
    vertex 13.373975433895643 1.906962966661406e-15 19.601408311032397
    vertex 15.072251039625334 10.000000000000004 18.298275605729692
    vertex 15.072251039625334 1.7619425085285795e-15 18.298275605729692
  endloop
endfacet
facet normal -0.3826834323650895 -1.3235925444020162e-17 -0.9238795325112868
  outer loop
    vertex 13.373975433895643 10.000000000000004 19.601408311032397
    vertex 11.396291603736314 2.0495073310535594e-15 20.42059177557036
    vertex 11.396291603736314 10.000000000000004 20.42059177557036
  endloop
endfacet
facet normal -0.3826834323650895 -1.3235925444020162e-17 -0.9238795325112868
  outer loop
    vertex 11.396291603736314 2.0495073310535594e-15 20.42059177557036
    vertex 13.373975433895643 10.000000000000004 19.601408311032397
    vertex 13.373975433895643 1.906962966661406e-15 19.601408311032397
  endloop
endfacet
facet normal -0.13052619222005207 -3.0019663391264e-17 -0.9914448613738104
  outer loop
    vertex 11.396291603736314 10.000000000000004 20.42059177557036
    vertex 9.273975433895645 2.179861438837415e-15 20.700000000000003
    vertex 9.273975433895645 10.000000000000004 20.700000000000003
  endloop
endfacet
facet normal -0.13052619222005207 -3.0019663391264e-17 -0.9914448613738104
  outer loop
    vertex 9.273975433895645 2.179861438837415e-15 20.700000000000003
    vertex 11.396291603736314 10.000000000000004 20.42059177557036
    vertex 11.396291603736314 2.0495073310535594e-15 20.42059177557036
  endloop
endfacet
facet normal 0.13052619222005318 -4.475761088823274e-17 -0.9914448613738103
  outer loop
    vertex 9.273975433895645 10.000000000000004 20.700000000000003
    vertex 7.151659264054973 2.289141872987851e-15 20.420591775570358
    vertex 7.151659264054973 10.000000000000004 20.420591775570358
  endloop
endfacet
facet normal 0.13052619222005318 -4.475761088823274e-17 -0.9914448613738103
  outer loop
    vertex 7.151659264054973 2.289141872987851e-15 20.420591775570358
    vertex 9.273975433895645 10.000000000000004 20.700000000000003
    vertex 9.273975433895645 2.179861438837415e-15 20.700000000000003
  endloop
endfacet
facet normal 0.3826834323650885 -5.644540116861739e-17 -0.9238795325112873
  outer loop
    vertex 7.151659264054973 10.000000000000004 20.420591775570358
    vertex 5.173975433895644 2.369901352511972e-15 19.601408311032397
    vertex 5.173975433895644 10.000000000000004 19.601408311032397
  endloop
endfacet
facet normal 0.3826834323650885 -5.644540116861739e-17 -0.9238795325112873
  outer loop
    vertex 5.173975433895644 2.369901352511972e-15 19.601408311032397
    vertex 7.151659264054973 10.000000000000004 20.420591775570358
    vertex 7.151659264054973 2.289141872987851e-15 20.420591775570358
  endloop
endfacet
facet normal 0.6087614290087208 -6.42865306397968e-17 -0.7933533402912352
  outer loop
    vertex 5.173975433895644 10.000000000000004 19.601408311032397
    vertex 3.475699828165955 2.4166362523415585e-15 18.298275605729692
    vertex 3.475699828165955 10.000000000000004 18.298275605729692
  endloop
endfacet
facet normal 0.6087614290087208 -6.42865306397968e-17 -0.7933533402912352
  outer loop
    vertex 3.475699828165955 2.4166362523415585e-15 18.298275605729692
    vertex 5.173975433895644 10.000000000000004 19.601408311032397
    vertex 5.173975433895644 2.369901352511972e-15 19.601408311032397
  endloop
endfacet
facet normal 0.7933533402912355 3.0769285635175886e-19 -0.6087614290087201
  outer loop
    vertex 2.172567122863249 2.4261616662862985e-15 16.6
    vertex 3.475699828165955 10.000000000000004 18.298275605729692
    vertex 3.475699828165955 2.4166362523415585e-15 18.298275605729692
  endloop
endfacet
facet normal 0.7933533402912355 3.0769285635175886e-19 -0.6087614290087201
  outer loop
    vertex 3.475699828165955 10.000000000000004 18.298275605729692
    vertex 2.172567122863249 2.4261616662862985e-15 16.6
    vertex 2.172567122863249 10.0 16.6
  endloop
endfacet
facet normal 0.7933533402912352 3.0769285635176146e-19 0.6087614290087207
  outer loop
    vertex 3.4756998281659572 10.000000000000004 6.701724394270311
    vertex 2.1725671228632515 2.116929316116961e-15 8.399999999999999
    vertex 3.4756998281659572 1.9793156688075756e-15 6.701724394270311
  endloop
endfacet
facet normal 0.7933533402912352 3.0769285635176146e-19 0.6087614290087207
  outer loop
    vertex 2.1725671228632515 2.116929316116961e-15 8.399999999999999
    vertex 3.4756998281659572 10.000000000000004 6.701724394270311
    vertex 2.1725671228632515 10.0 8.399999999999999
  endloop
endfacet
facet normal 0.6087614290087201 -4.44981894883267e-18 0.7933533402912355
  outer loop
    vertex 5.1739754338956505 1.8342952106747485e-15 5.398591688967602
    vertex 3.4756998281659572 10.000000000000004 6.701724394270311
    vertex 3.4756998281659572 1.9793156688075756e-15 6.701724394270311
  endloop
endfacet
facet normal 0.6087614290087201 -4.44981894883267e-18 0.7933533402912355
  outer loop
    vertex 3.4756998281659572 10.000000000000004 6.701724394270311
    vertex 5.1739754338956505 1.8342952106747485e-15 5.398591688967602
    vertex 5.1739754338956505 10.000000000000004 5.398591688967602
  endloop
endfacet
facet normal 0.38268343236508917 1.3235925444020182e-17 0.923879532511287
  outer loop
    vertex 7.151659264054978 1.6917508462825953e-15 4.579408224429642
    vertex 5.1739754338956505 10.000000000000004 5.398591688967602
    vertex 5.1739754338956505 1.8342952106747485e-15 5.398591688967602
  endloop
endfacet
facet normal 0.38268343236508917 1.3235925444020182e-17 0.923879532511287
  outer loop
    vertex 5.1739754338956505 10.000000000000004 5.398591688967602
    vertex 7.151659264054978 1.6917508462825953e-15 4.579408224429642
    vertex 7.151659264054978 10.000000000000002 4.579408224429642
  endloop
endfacet
facet normal 0.1305261922200515 3.001966339126403e-17 0.9914448613738104
  outer loop
    vertex 9.273975433895647 1.5613967384987402e-15 4.300000000000002
    vertex 7.151659264054978 10.000000000000002 4.579408224429642
    vertex 7.151659264054978 1.6917508462825953e-15 4.579408224429642
  endloop
endfacet
facet normal 0.1305261922200515 3.001966339126403e-17 0.9914448613738104
  outer loop
    vertex 7.151659264054978 10.000000000000002 4.579408224429642
    vertex 9.273975433895647 1.5613967384987402e-15 4.300000000000002
    vertex 9.273975433895647 10.000000000000002 4.300000000000002
  endloop
endfacet
facet normal -0.1305261922200517 4.475761088823266e-17 0.9914448613738104
  outer loop
    vertex 11.396291603736321 1.4521163043483038e-15 4.579408224429643
    vertex 9.273975433895647 10.000000000000002 4.300000000000002
    vertex 9.273975433895647 1.5613967384987402e-15 4.300000000000002
  endloop
endfacet
facet normal -0.1305261922200517 4.475761088823266e-17 0.9914448613738104
  outer loop
    vertex 9.273975433895647 10.000000000000002 4.300000000000002
    vertex 11.396291603736321 1.4521163043483038e-15 4.579408224429643
    vertex 11.396291603736321 10.000000000000002 4.579408224429643
  endloop
endfacet
facet normal -0.38268343236509034 5.644540116861745e-17 0.9238795325112866
  outer loop
    vertex 13.373975433895648 1.3713568248241833e-15 5.398591688967606
    vertex 11.396291603736321 10.000000000000002 4.579408224429643
    vertex 11.396291603736321 1.4521163043483038e-15 4.579408224429643
  endloop
endfacet
facet normal -0.38268343236509034 5.644540116861745e-17 0.9238795325112866
  outer loop
    vertex 11.396291603736321 10.000000000000002 4.579408224429643
    vertex 13.373975433895648 1.3713568248241833e-15 5.398591688967606
    vertex 13.373975433895648 10.000000000000002 5.398591688967606
  endloop
endfacet
facet normal -0.6087614290087215 6.428653063979684e-17 0.7933533402912346
  outer loop
    vertex 15.072251039625337 1.3246219249945966e-15 6.701724394270315
    vertex 13.373975433895648 10.000000000000002 5.398591688967606
    vertex 13.373975433895648 1.3713568248241833e-15 5.398591688967606
  endloop
endfacet
facet normal -0.6087614290087215 6.428653063979684e-17 0.7933533402912346
  outer loop
    vertex 13.373975433895648 10.000000000000002 5.398591688967606
    vertex 15.072251039625337 1.3246219249945966e-15 6.701724394270315
    vertex 15.072251039625337 10.000000000000002 6.701724394270315
  endloop
endfacet
facet normal -0.7933533402912352 6.774663928638905e-17 0.6087614290087208
  outer loop
    vertex 16.375383744928044 10.000000000000002 8.400000000000004
    vertex 15.072251039625337 1.3246219249945966e-15 6.701724394270315
    vertex 16.375383744928044 1.3150965110498564e-15 8.400000000000004
  endloop
endfacet
facet normal -0.7933533402912352 6.774663928638905e-17 0.6087614290087208
  outer loop
    vertex 15.072251039625337 1.3246219249945966e-15 6.701724394270315
    vertex 16.375383744928044 10.000000000000002 8.400000000000004
    vertex 15.072251039625337 10.000000000000002 6.701724394270315
  endloop
endfacet
facet normal -0.9238795325112875 6.658992642222876e-17 0.38268343236508817
  outer loop
    vertex 17.194567209466 1.3434297242088061e-15 10.377683830159334
    vertex 16.375383744928044 10.000000000000002 8.400000000000004
    vertex 16.375383744928044 1.3150965110498564e-15 8.400000000000004
  endloop
endfacet
facet normal -0.9238795325112875 6.658992642222876e-17 0.38268343236508817
  outer loop
    vertex 16.375383744928044 10.000000000000002 8.400000000000004
    vertex 17.194567209466 1.3434297242088061e-15 10.377683830159334
    vertex 17.194567209466 10.000000000000002 10.377683830159334
  endloop
endfacet
facet normal -0.9914448613738104 6.089522011745015e-17 0.13052619222005216
  outer loop
    vertex 17.473975433895642 1.4076907028175119e-15 12.500000000000002
    vertex 17.194567209466 10.000000000000002 10.377683830159334
    vertex 17.194567209466 1.3434297242088061e-15 10.377683830159334
  endloop
endfacet
facet normal -0.9914448613738104 6.089522011745015e-17 0.13052619222005216
  outer loop
    vertex 17.194567209466 10.000000000000002 10.377683830159334
    vertex 17.473975433895642 1.4076907028175119e-15 12.500000000000002
    vertex 17.473975433895642 10.000000000000002 12.500000000000002
  endloop
endfacet
facet normal -0.9914448613738104 5.105060519577665e-17 -0.13052619222005207
  outer loop
    vertex 17.194567209466 1.5035001673800786e-15 14.622316169840671
    vertex 17.473975433895642 10.000000000000002 12.500000000000002
    vertex 17.473975433895642 1.4076907028175119e-15 12.500000000000002
  endloop
endfacet
facet normal -0.9914448613738104 5.105060519577665e-17 -0.13052619222005207
  outer loop
    vertex 17.473975433895642 10.000000000000002 12.500000000000002
    vertex 17.194567209466 1.5035001673800786e-15 14.622316169840671
    vertex 17.194567209466 10.000000000000002 14.622316169840671
  endloop
endfacet
facet normal -0.9238795325112866 3.7726975895124994e-17 -0.38268343236509017
  outer loop
    vertex 16.375383744928037 1.624328861219194e-15 16.600000000000005
    vertex 17.194567209466 10.000000000000002 14.622316169840671
    vertex 17.194567209466 1.5035001673800786e-15 14.622316169840671
  endloop
endfacet
facet normal -0.9238795325112866 3.7726975895124994e-17 -0.38268343236509017
  outer loop
    vertex 17.194567209466 10.000000000000002 14.622316169840671
    vertex 16.375383744928037 1.624328861219194e-15 16.600000000000005
    vertex 16.375383744928037 10.000000000000002 16.600000000000005
  endloop
endfacet
facet normal -0.7933533402912355 2.1832315533996153e-17 -0.6087614290087202
  outer loop
    vertex 15.072251039625334 1.7619425085285795e-15 18.298275605729692
    vertex 16.375383744928037 10.000000000000002 16.600000000000005
    vertex 16.375383744928037 1.624328861219194e-15 16.600000000000005
  endloop
endfacet
facet normal -0.7933533402912355 2.1832315533996153e-17 -0.6087614290087202
  outer loop
    vertex 16.375383744928037 10.000000000000002 16.600000000000005
    vertex 15.072251039625334 1.7619425085285795e-15 18.298275605729692
    vertex 15.072251039625334 10.000000000000004 18.298275605729692
  endloop
endfacet
endsolid XY-Ромб-Держатель-16мм-СоСмещением
