<?xml version="1.0" encoding="UTF-8" standalone="no"?>
<!-- Created with Inkscape (http://www.inkscape.org/) -->

<svg
   xmlns:dc="http://purl.org/dc/elements/1.1/"
   xmlns:cc="http://creativecommons.org/ns#"
   xmlns:rdf="http://www.w3.org/1999/02/22-rdf-syntax-ns#"
   xmlns:svg="http://www.w3.org/2000/svg"
   xmlns="http://www.w3.org/2000/svg"
   version="1.1"
   width="90"
   height="90"
   id="svg2">
  <defs
     id="defs4" />
  <metadata
     id="metadata7">
    <rdf:RDF>
      <cc:Work
         rdf:about="">
        <dc:format>image/svg+xml</dc:format>
        <dc:type
           rdf:resource="http://purl.org/dc/dcmitype/StillImage" />
        <dc:title></dc:title>
      </cc:Work>
    </rdf:RDF>
  </metadata>
  <g
     id="layer1"
     style="display:inline">
    <g
       id="g4312">
      <path
         d="m 80,10 m 0,5 l 0,60 l -5,5 l -60,0 l -5,-5 l 0,-60 l 5,-5 l 60,0 l 5,5 m 0,-5 l 0,0"
         id="path3233"
         style="fill:white;stroke:black;stroke-width:1;stroke-miterlimit:1;stroke-opacity:1;stroke-dasharray:none" />
      <text
         x="24.20212"
         y="43.832222"
         id="text4003"
         xml:space="preserve"
         style="font-size:10px;font-style:normal;font-variant:normal;font-weight:normal;font-stretch:normal;line-height:125%;letter-spacing:0px;word-spacing:0px;fill:black;fill-opacity:1;stroke:none;font-family:Sans;-inkscape-font-specification:Sans"><tspan
           x="24.20212"
           y="43.832222"
           id="tspan4005"
           style="font-style:normal;font-variant:normal;font-weight:bold;font-stretch:normal;font-family:Monospace;-inkscape-font-specification:Monospace Bold">LQFP 48</tspan></text>
      <text
         x="15.630676"
         y="57.49287"
         id="text4007"
         xml:space="preserve"
         style="font-size:10px;font-style:normal;font-variant:normal;font-weight:normal;font-stretch:normal;line-height:125%;letter-spacing:0px;word-spacing:0px;fill:black;fill-opacity:1;stroke:none;font-family:Monospace;-inkscape-font-specification:Monospace"><tspan
           x="15.630676"
           y="57.49287"
           id="tspan4009"
           style="font-size:12px;font-style:normal;font-variant:normal;font-weight:normal;font-stretch:normal;font-family:Monospace;-inkscape-font-specification:Monospace">STM8S105</tspan></text>
      <text
         x="15.273529"
         y="14.54658"
         id="text4019"
         xml:space="preserve"
         style="font-size:4px;font-style:normal;font-variant:normal;font-weight:normal;font-stretch:normal;line-height:125%;letter-spacing:0px;word-spacing:0px;fill:black;fill-opacity:1;stroke:none;font-family:Sans;-inkscape-font-specification:Sans"><tspan
           x="15.273529"
           y="14.54658"
           id="tspan4021">36</tspan></text>
      <text
         x="70.625366"
         y="14.497752"
         id="text4023"
         xml:space="preserve"
         style="font-size:4px;font-style:normal;font-variant:normal;font-weight:normal;font-stretch:normal;line-height:125%;letter-spacing:0px;word-spacing:0px;fill:black;fill-opacity:1;stroke:none;font-family:sans;-inkscape-font-specification:sans"><tspan
           x="70.625366"
           y="14.497752"
           id="tspan4025">25</tspan></text>
      <text
         x="75.156342"
         y="17.421581"
         id="text4027"
         xml:space="preserve"
         style="font-size:4px;font-style:normal;font-variant:normal;font-weight:normal;font-stretch:normal;line-height:125%;letter-spacing:0px;word-spacing:0px;fill:black;fill-opacity:1;stroke:none;font-family:Sans;-inkscape-font-specification:Sans"><tspan
           x="75.156342"
           y="17.421581"
           id="tspan4029">24</tspan></text>
      <text
         x="74.837982"
         y="74.495796"
         id="text4035"
         xml:space="preserve"
         style="font-size:4px;font-style:normal;font-variant:normal;font-weight:normal;font-stretch:normal;fill:black;stroke:none;font-family:sans;-inkscape-font-specification:sans"><tspan
           x="74.837982"
           y="74.495796"
           id="tspan4037">13</tspan></text>
      <text
         x="71.033295"
         y="77.421577"
         id="text4039"
         xml:space="preserve"
         style="font-size:4px;font-style:normal;font-variant:normal;font-weight:normal;font-stretch:normal;fill:black;stroke:black;stroke-width:0;stroke-miterlimit:1;stroke-opacity:1;stroke-dasharray:none;font-family:sans;-inkscape-font-specification:sans"><tspan
           x="71.033295"
           y="77.421577"
           id="tspan4041">12</tspan></text>
      <text
         x="14.837982"
         y="77.421577"
         id="text4043"
         xml:space="preserve"
         style="font-size:4px;font-style:normal;font-variant:normal;font-weight:normal;font-stretch:normal;fill:black;stroke:black;stroke-width:0;stroke-miterlimit:1;stroke-opacity:1;stroke-dasharray:none;font-family:sans;-inkscape-font-specification:sans"><tspan
           x="14.837982"
           y="77.421577"
           id="tspan4045">1</tspan></text>
      <text
         x="10.998138"
         y="74.140572"
         id="text4047"
         xml:space="preserve"
         style="font-size:4px;font-style:normal;font-variant:normal;font-weight:normal;font-stretch:normal;fill:black;stroke:none;font-family:sans;-inkscape-font-specification:sans"><tspan
           x="10.998138"
           y="74.140572"
           id="tspan4049">48</tspan></text>
      <text
         x="11.003998"
         y="17.421581"
         id="text4051"
         xml:space="preserve"
         style="font-size:4px;font-style:normal;font-variant:normal;font-weight:normal;font-stretch:normal;fill:black;stroke:none;font-family:Sans;-inkscape-font-specification:Sans"><tspan
           x="11.003998"
           y="17.421581"
           id="tspan4053">37</tspan></text>
      <path
         d="m 22.38,70 a 2.382,2.382 0 1 1 -4.76,0 a 2.382,2.382 0 1 1 4.76,0 z"
         id="path4188"
         style="fill:white;stroke:black;stroke-width:0.5;stroke-miterlimit:4;stroke-opacity:1;stroke-dasharray:none" />
    </g>
  </g>
  <g
     id="layer2"
     style="display:inline">
    <g
       id="g5122">
      <g
         id="g5030">
        <path
           d="m -0.0019,46.59 l 0,2.22 L 10,48.61 l 0,-2.22 l -10.0019,0 z"
           id="path4214-0-82"
           style="fill:white;stroke:black;stroke-width:0.9962;stroke-miterlimit:4;stroke-opacity:1;stroke-dasharray:none" />
        <path
           d="m -0.0047,41.39 l 0,2.22 L 10,43.61 l 0,-2.22 l -10.0047,0 z"
           id="path4214-0-45"
           style="fill:white;stroke:black;stroke-width:0.9906;stroke-miterlimit:4;stroke-opacity:1;stroke-dasharray:none" />
        <path
           d="m -0.0019,36.59 l 0,2.22 L 10,38.61 l 0,-2.22 l -10.0019,0 z"
           id="path4214-0-82-2"
           style="fill:white;stroke:black;stroke-width:0.9962;stroke-miterlimit:4;stroke-opacity:1;stroke-dasharray:none" />
        <path
           d="m -0.0047,31.39 l 0,2.22 L 10,33.61 l 0,-2.22 l -10.0047,0 z"
           id="path4214-0-45-7"
           style="fill:white;stroke:black;stroke-width:0.9906;stroke-miterlimit:4;stroke-opacity:1;stroke-dasharray:none" />
        <path
           d="m -0.0019,26.59 l 0,2.22 L 10,28.61 l 0,-2.22 l -10.0019,0 z"
           id="path4214-0-82-1"
           style="fill:white;stroke:black;stroke-width:0.9962;stroke-miterlimit:4;stroke-opacity:1;stroke-dasharray:none" />
        <path
           d="m -0.0047,21.39 l 0,2.22 L 10,23.61 l 0,-2.22 l -10.0047,0 z"
           id="path4214-0-45-4"
           style="fill:white;stroke:black;stroke-width:0.9906;stroke-miterlimit:4;stroke-opacity:1;stroke-dasharray:none" />
        <path
           d="m -0.0019,16.59 l 0,2.22 L 10,18.61 l 0,-2.22 l -10.0019,0 z"
           id="path4214-0-82-2-3"
           style="fill:white;stroke:black;stroke-width:0.9962;stroke-miterlimit:4;stroke-opacity:1;stroke-dasharray:none" />
        <path
           d="m -0.0019,66.59 l 0,2.22 L 10,68.61 l 0,-2.22 l -10.0019,0 z"
           id="path4214-0-82-16"
           style="fill:white;stroke:black;stroke-width:0.9962;stroke-miterlimit:4;stroke-opacity:1;stroke-dasharray:none" />
        <path
           d="m -0.0047,61.39 l 0,2.22 L 10,63.61 l 0,-2.22 l -10.0047,0 z"
           id="path4214-0-45-8"
           style="fill:white;stroke:black;stroke-width:0.9906;stroke-miterlimit:4;stroke-opacity:1;stroke-dasharray:none" />
        <path
           d="m -0.0019,56.59 l 0,2.22 L 10,58.61 l 0,-2.22 l -10.0019,0 z"
           id="path4214-0-82-2-7"
           style="fill:white;stroke:black;stroke-width:0.9962;stroke-miterlimit:4;stroke-opacity:1;stroke-dasharray:none" />
        <path
           d="m -0.0047,51.39 l 0,2.22 L 10,53.61 l 0,-2.22 l -10.0047,0 z"
           id="path4214-0-45-7-6"
           style="fill:white;stroke:black;stroke-width:0.9906;stroke-miterlimit:4;stroke-opacity:1;stroke-dasharray:none" />
        <path
           d="m -0.0019,71.59 l 0,2.22 L 10,73.61 l 0,-2.22 l -10.0019,0 z"
           id="path4214-0-82-16-1"
           style="fill:white;stroke:black;stroke-width:0.9962;stroke-miterlimit:4;stroke-opacity:1;stroke-dasharray:none" />
      </g>
      <g
         id="g5082">
        <path
           d="m 80,46.59 l 0,2.22 l 10,0 l 0,-2.22 l -10,0 z"
           id="path4214-0-82-9"
           style="fill:white;stroke:black;stroke-width:1;stroke-miterlimit:4;stroke-opacity:1;stroke-dasharray:none" />
        <path
           d="m 80,41.39 l 0,2.22 l 10,0 l 0,-2.22 l -10,0 z"
           id="path4214-0-45-2"
           style="fill:white;stroke:black;stroke-width:1;stroke-miterlimit:4;stroke-opacity:1;stroke-dasharray:none" />
        <path
           d="m 80,36.59 l 0,2.22 l 10,0 l 0,-2.22 l -10,0 z"
           id="path4214-0-82-2-79"
           style="fill:white;stroke:black;stroke-width:1;stroke-miterlimit:4;stroke-opacity:1;stroke-dasharray:none" />
        <path
           d="m 80,31.39 l 0,2.22 l 10,0 l 0,-2.22 l -10,0 z"
           id="path4214-0-45-7-5"
           style="fill:white;stroke:black;stroke-width:1;stroke-miterlimit:4;stroke-opacity:1;stroke-dasharray:none" />
        <path
           d="m 80,26.59 l 0,2.22 l 10,0 l 0,-2.22 l -10,0 z"
           id="path4214-0-82-1-4"
           style="fill:white;stroke:black;stroke-width:1;stroke-miterlimit:4;stroke-opacity:1;stroke-dasharray:none" />
        <path
           d="m 80,21.39 l 0,2.22 l 10,0 l 0,-2.22 l -10,0 z"
           id="path4214-0-45-4-3"
           style="fill:white;stroke:black;stroke-width:1;stroke-miterlimit:4;stroke-opacity:1;stroke-dasharray:none" />
        <path
           d="m 80,16.59 l 0,2.22 l 10,0 l 0,-2.22 l -10,0 z"
           id="path4214-0-82-2-3-1"
           style="fill:white;stroke:black;stroke-width:1;stroke-miterlimit:4;stroke-opacity:1;stroke-dasharray:none" />
        <path
           d="m 80,66.59 l 0,2.22 l 10,0 l 0,-2.22 l -10,0 z"
           id="path4214-0-82-16-2"
           style="fill:white;stroke:black;stroke-width:1;stroke-miterlimit:4;stroke-opacity:1;stroke-dasharray:none" />
        <path
           d="m 80,61.39 l 0,2.22 l 10,0 l 0,-2.22 l -10,0 z"
           id="path4214-0-45-8-3"
           style="fill:white;stroke:black;stroke-width:1;stroke-miterlimit:4;stroke-opacity:1;stroke-dasharray:none" />
        <path
           d="m 80,56.59 l 0,2.22 l 10,0 l 0,-2.22 l -10,0 z"
           id="path4214-0-82-2-7-3"
           style="fill:white;stroke:black;stroke-width:1;stroke-miterlimit:4;stroke-opacity:1;stroke-dasharray:none" />
        <path
           d="m 80,51.39 l 0,2.22 l 10,0 l 0,-2.22 l -10,0 z"
           id="path4214-0-45-7-6-4"
           style="fill:white;stroke:black;stroke-width:1;stroke-miterlimit:4;stroke-opacity:1;stroke-dasharray:none" />
        <path
           d="m 80,71.59 l 0,2.22 l 10,0 l 0,-2.22 l -10,0 z"
           id="path4214-0-82-16-1-1"
           style="fill:white;stroke:black;stroke-width:1;stroke-miterlimit:4;stroke-opacity:1;stroke-dasharray:none" />
      </g>
      <g
         id="g5056">
        <path
           d="m 46.59,10 l 2.22,0 l 0,-10.002 l -2.22,0 l 0,10.002 z"
           id="path4214-0-82-3"
           style="fill:white;stroke:black;stroke-width:0.9962;stroke-miterlimit:4;stroke-opacity:1;stroke-dasharray:none" />
        <path
           d="m 41.39,10 l 2.22,0 l 0,-10.005 l -2.22,0 l 0,10.005 z"
           id="path4214-0-45-87"
           style="fill:white;stroke:black;stroke-width:0.9906;stroke-miterlimit:4;stroke-opacity:1;stroke-dasharray:none" />
        <path
           d="m 36.59,9.997 l 2.22,0 l 0,-10.002 l -2.22,0 l 0,10.002 z"
           id="path4214-0-82-2-4"
           style="fill:white;stroke:black;stroke-width:0.9962;stroke-miterlimit:4;stroke-opacity:1;stroke-dasharray:none" />
        <path
           d="m 31.39,10 l 2.22,0 l 0,-10.005 l -2.22,0 l 0,10.005 z"
           id="path4214-0-45-7-2"
           style="fill:white;stroke:black;stroke-width:0.9906;stroke-miterlimit:4;stroke-opacity:1;stroke-dasharray:none" />
        <path
           d="m 26.59,9.997 l 2.22,0 l 0,-10.002 l -2.22,0 l 0,10.002 z"
           id="path4214-0-82-1-7"
           style="fill:white;stroke:black;stroke-width:0.9962;stroke-miterlimit:4;stroke-opacity:1;stroke-dasharray:none" />
        <path
           d="m 21.39,10 l 2.22,0 l 0,-10.005 l -2.22,0 l 0,10.005 z"
           id="path4214-0-45-4-7"
           style="fill:white;stroke:black;stroke-width:0.9906;stroke-miterlimit:4;stroke-opacity:1;stroke-dasharray:none" />
        <path
           d="m 16.59,9.997 l 2.22,0 l 0,-10.002 l -2.22,0 l 0,10.002 z"
           id="path4214-0-82-2-3-9"
           style="fill:white;stroke:black;stroke-width:0.9962;stroke-miterlimit:4;stroke-opacity:1;stroke-dasharray:none" />
        <path
           d="m 66.59,9.997 l 2.22,0 l 0,-10.002 l -2.22,0 l 0,10.002 z"
           id="path4214-0-82-16-3"
           style="fill:white;stroke:black;stroke-width:0.9962;stroke-miterlimit:4;stroke-opacity:1;stroke-dasharray:none" />
        <path
           d="m 61.39,10 l 2.22,0 l 0,-10.005 l -2.22,0 l 0,10.005 z"
           id="path4214-0-45-8-1"
           style="fill:white;stroke:black;stroke-width:0.9906;stroke-miterlimit:4;stroke-opacity:1;stroke-dasharray:none" />
        <path
           d="m 56.59,9.997 l 2.22,0 l 0,-10.002 l -2.22,0 l 0,10.002 z"
           id="path4214-0-82-2-7-9"
           style="fill:white;stroke:black;stroke-width:0.9962;stroke-miterlimit:4;stroke-opacity:1;stroke-dasharray:none" />
        <path
           d="m 51.39,10 l 2.22,0 l 0,-10.005 l -2.22,0 l 0,10.005 z"
           id="path4214-0-45-7-6-8"
           style="fill:white;stroke:black;stroke-width:0.9906;stroke-miterlimit:4;stroke-opacity:1;stroke-dasharray:none" />
        <path
           d="m 71.59,9.997 l 2.22,0 l 0,-10.002 l -2.22,0 l 0,10.002 z"
           id="path4214-0-82-16-1-6"
           style="fill:white;stroke:black;stroke-width:0.9962;stroke-miterlimit:4;stroke-opacity:1;stroke-dasharray:none" />
      </g>
      <g
         id="g5108">
        <path
           d="m 46.59,90.01 l 2.22,0 l 0,-10.01 l -2.22,0 l 0,10.01 z"
           id="path4214-0-82-3-0"
           style="fill:white;stroke:black;stroke-width:0.9962;stroke-miterlimit:4;stroke-opacity:1;stroke-dasharray:none" />
        <path
           d="m 41.39,90 l 2.22,0 l 0,-10 l -2.22,0 l 0,10 z"
           id="path4214-0-45-87-2"
           style="fill:white;stroke:black;stroke-width:0.9906;stroke-miterlimit:4;stroke-opacity:1;stroke-dasharray:none" />
        <path
           d="m 36.59,90 l 2.22,0 l 0,-10 l -2.22,0 l 0,10 z"
           id="path4214-0-82-2-4-8"
           style="fill:white;stroke:black;stroke-width:0.9962;stroke-miterlimit:4;stroke-opacity:1;stroke-dasharray:none" />
        <path
           d="m 31.39,90 l 2.22,0 l 0,-10 l -2.22,0 l 0,10 z"
           id="path4214-0-45-7-2-6"
           style="fill:white;stroke:black;stroke-width:0.9906;stroke-miterlimit:4;stroke-opacity:1;stroke-dasharray:none" />
        <path
           d="m 26.59,90 l 2.22,0 l 0,-10 l -2.22,0 l 0,10 z"
           id="path4214-0-82-1-7-0"
           style="fill:white;stroke:black;stroke-width:0.9962;stroke-miterlimit:4;stroke-opacity:1;stroke-dasharray:none" />
        <path
           d="m 21.39,90 l 2.22,0 l 0,-10 l -2.22,0 l 0,10 z"
           id="path4214-0-45-4-7-2"
           style="fill:white;stroke:black;stroke-width:0.9906;stroke-miterlimit:4;stroke-opacity:1;stroke-dasharray:none" />
        <path
           d="m 16.59,90 l 2.22,0 l 0,-10 l -2.22,0 l 0,10 z"
           id="path4214-0-82-2-3-9-4"
           style="fill:white;stroke:black;stroke-width:0.9962;stroke-miterlimit:4;stroke-opacity:1;stroke-dasharray:none" />
        <path
           d="m 66.59,90 l 2.22,0 l 0,-10 l -2.22,0 l 0,10 z"
           id="path4214-0-82-16-3-8"
           style="fill:white;stroke:black;stroke-width:0.9962;stroke-miterlimit:4;stroke-opacity:1;stroke-dasharray:none" />
        <path
           d="m 61.39,90 l 2.22,0 l 0,-10 l -2.22,0 l 0,10 z"
           id="path4214-0-45-8-1-6"
           style="fill:white;stroke:black;stroke-width:0.9906;stroke-miterlimit:4;stroke-opacity:1;stroke-dasharray:none" />
        <path
           d="m 56.59,90 l 2.22,0 l 0,-10 l -2.22,0 l 0,10 z"
           id="path4214-0-82-2-7-9-5"
           style="fill:white;stroke:black;stroke-width:0.9962;stroke-miterlimit:4;stroke-opacity:1;stroke-dasharray:none" />
        <path
           d="m 51.39,90 l 2.22,0 l 0,-10 l -2.22,0 l 0,10 z"
           id="path4214-0-45-7-6-8-0"
           style="fill:white;stroke:black;stroke-width:0.9906;stroke-miterlimit:4;stroke-opacity:1;stroke-dasharray:none" />
        <path
           d="m 71.59,90 l 2.22,0 l 0,-10 l -2.22,0 l 0,10 z"
           id="path4214-0-82-16-1-6-9"
           style="fill:white;stroke:black;stroke-width:0.9962;stroke-miterlimit:4;stroke-opacity:1;stroke-dasharray:none" />
      </g>
    </g>
  </g>
</svg>
