solid 
   facet normal -9.396925e-001 -0.000000e+000 -3.420204e-001
      outer loop
         vertex -6.159422e+000 0.000000e+000 1.512488e+001
         vertex -5.750000e+000 0.000000e+000 1.400000e+001
         vertex -5.750000e+000 -9.000000e+000 1.400000e+001
      endloop
   endfacet
   facet normal 1.736477e-001 0.000000e+000 -9.848078e-001
      outer loop
         vertex -8.375000e+000 -9.000000e+000 1.551554e+001
         vertex -8.375000e+000 0.000000e+000 1.551554e+001
         vertex -7.196115e+000 0.000000e+000 1.572341e+001
      endloop
   endfacet
   facet normal 1.000000e+000 0.000000e+000 -0.000000e+000
      outer loop
         vertex -9.144462e+000 -9.000000e+000 1.340146e+001
         vertex -9.144462e+000 0.000000e+000 1.340146e+001
         vertex -9.144462e+000 0.000000e+000 1.459854e+001
      endloop
   endfacet
   facet normal 1.736477e-001 0.000000e+000 9.848078e-001
      outer loop
         vertex -7.196115e+000 -9.000000e+000 1.227659e+001
         vertex -7.196115e+000 0.000000e+000 1.227659e+001
         vertex -8.375000e+000 0.000000e+000 1.248446e+001
      endloop
   endfacet
   facet normal -9.396925e-001 0.000000e+000 3.420204e-001
      outer loop
         vertex -5.750000e+000 -9.000000e+000 1.400000e+001
         vertex -5.750000e+000 0.000000e+000 1.400000e+001
         vertex -6.159422e+000 0.000000e+000 1.287512e+001
      endloop
   endfacet
   facet normal -5.000003e-001 0.000000e+000 8.660252e-001
      outer loop
         vertex -7.196115e+000 0.000000e+000 1.227659e+001
         vertex -7.196115e+000 -9.000000e+000 1.227659e+001
         vertex -6.159422e+000 -9.000000e+000 1.287512e+001
      endloop
   endfacet
   facet normal 7.660447e-001 -0.000000e+000 6.427873e-001
      outer loop
         vertex -9.144462e+000 0.000000e+000 1.340146e+001
         vertex -9.144462e+000 -9.000000e+000 1.340146e+001
         vertex -8.375000e+000 -9.000000e+000 1.248446e+001
      endloop
   endfacet
   facet normal 7.660447e-001 0.000000e+000 -6.427873e-001
      outer loop
         vertex -8.375000e+000 0.000000e+000 1.551554e+001
         vertex -8.375000e+000 -9.000000e+000 1.551554e+001
         vertex -9.144462e+000 -9.000000e+000 1.459854e+001
      endloop
   endfacet
   facet normal -5.000003e-001 0.000000e+000 -8.660252e-001
      outer loop
         vertex -6.159422e+000 0.000000e+000 1.512488e+001
         vertex -6.159422e+000 -9.000000e+000 1.512488e+001
         vertex -7.196115e+000 -9.000000e+000 1.572341e+001
      endloop
   endfacet
   facet normal -9.396925e-001 -0.000000e+000 -3.420204e-001
      outer loop
         vertex -6.159422e+000 -9.000000e+000 1.512488e+001
         vertex -6.159422e+000 0.000000e+000 1.512488e+001
         vertex -5.750000e+000 -9.000000e+000 1.400000e+001
      endloop
   endfacet
   facet normal 1.736477e-001 0.000000e+000 9.848078e-001
      outer loop
         vertex -8.375000e+000 -9.000000e+000 1.248446e+001
         vertex -7.196115e+000 -9.000000e+000 1.227659e+001
         vertex -8.375000e+000 0.000000e+000 1.248446e+001
      endloop
   endfacet
   facet normal 7.660447e-001 0.000000e+000 6.427873e-001
      outer loop
         vertex -8.375000e+000 0.000000e+000 1.248446e+001
         vertex -9.144462e+000 0.000000e+000 1.340146e+001
         vertex -8.375000e+000 -9.000000e+000 1.248446e+001
      endloop
   endfacet
   facet normal -5.000003e-001 -0.000000e+000 -8.660252e-001
      outer loop
         vertex -7.196115e+000 -9.000000e+000 1.572341e+001
         vertex -7.196115e+000 0.000000e+000 1.572341e+001
         vertex -6.159422e+000 0.000000e+000 1.512488e+001
      endloop
   endfacet
   facet normal -5.000003e-001 0.000000e+000 8.660252e-001
      outer loop
         vertex -6.159422e+000 -9.000000e+000 1.287512e+001
         vertex -6.159422e+000 0.000000e+000 1.287512e+001
         vertex -7.196115e+000 0.000000e+000 1.227659e+001
      endloop
   endfacet
   facet normal 1.000000e+000 -0.000000e+000 0.000000e+000
      outer loop
         vertex -9.144462e+000 0.000000e+000 1.459854e+001
         vertex -9.144462e+000 -9.000000e+000 1.459854e+001
         vertex -9.144462e+000 -9.000000e+000 1.340146e+001
      endloop
   endfacet
   facet normal 1.736477e-001 0.000000e+000 -9.848078e-001
      outer loop
         vertex -7.196115e+000 -9.000000e+000 1.572341e+001
         vertex -8.375000e+000 -9.000000e+000 1.551554e+001
         vertex -7.196115e+000 0.000000e+000 1.572341e+001
      endloop
   endfacet
   facet normal -9.396925e-001 0.000000e+000 3.420204e-001
      outer loop
         vertex -5.750000e+000 -9.000000e+000 1.400000e+001
         vertex -6.159422e+000 0.000000e+000 1.287512e+001
         vertex -6.159422e+000 -9.000000e+000 1.287512e+001
      endloop
   endfacet
   facet normal 7.660447e-001 0.000000e+000 -6.427873e-001
      outer loop
         vertex -9.144462e+000 -9.000000e+000 1.459854e+001
         vertex -9.144462e+000 0.000000e+000 1.459854e+001
         vertex -8.375000e+000 0.000000e+000 1.551554e+001
      endloop
   endfacet
   facet normal -9.396925e-001 -0.000000e+000 -3.420204e-001
      outer loop
         vertex -6.159422e+000 0.000000e+000 -1.287512e+001
         vertex -5.750000e+000 0.000000e+000 -1.400000e+001
         vertex -5.750000e+000 -9.000000e+000 -1.400000e+001
      endloop
   endfacet
   facet normal 1.736477e-001 0.000000e+000 -9.848078e-001
      outer loop
         vertex -8.375000e+000 -9.000000e+000 -1.248446e+001
         vertex -8.375000e+000 0.000000e+000 -1.248446e+001
         vertex -7.196115e+000 0.000000e+000 -1.227659e+001
      endloop
   endfacet
   facet normal 1.000000e+000 0.000000e+000 -0.000000e+000
      outer loop
         vertex -9.144462e+000 -9.000000e+000 -1.459854e+001
         vertex -9.144462e+000 0.000000e+000 -1.459854e+001
         vertex -9.144462e+000 0.000000e+000 -1.340146e+001
      endloop
   endfacet
   facet normal 1.736477e-001 0.000000e+000 9.848078e-001
      outer loop
         vertex -7.196115e+000 -9.000000e+000 -1.572341e+001
         vertex -7.196115e+000 0.000000e+000 -1.572341e+001
         vertex -8.375000e+000 0.000000e+000 -1.551554e+001
      endloop
   endfacet
   facet normal -9.396925e-001 0.000000e+000 3.420204e-001
      outer loop
         vertex -5.750000e+000 -9.000000e+000 -1.400000e+001
         vertex -5.750000e+000 0.000000e+000 -1.400000e+001
         vertex -6.159422e+000 0.000000e+000 -1.512488e+001
      endloop
   endfacet
   facet normal -5.000003e-001 0.000000e+000 8.660252e-001
      outer loop
         vertex -7.196115e+000 0.000000e+000 -1.572341e+001
         vertex -7.196115e+000 -9.000000e+000 -1.572341e+001
         vertex -6.159422e+000 -9.000000e+000 -1.512488e+001
      endloop
   endfacet
   facet normal 7.660447e-001 -0.000000e+000 6.427873e-001
      outer loop
         vertex -9.144462e+000 0.000000e+000 -1.459854e+001
         vertex -9.144462e+000 -9.000000e+000 -1.459854e+001
         vertex -8.375000e+000 -9.000000e+000 -1.551554e+001
      endloop
   endfacet
   facet normal 7.660447e-001 0.000000e+000 -6.427873e-001
      outer loop
         vertex -8.375000e+000 0.000000e+000 -1.248446e+001
         vertex -8.375000e+000 -9.000000e+000 -1.248446e+001
         vertex -9.144462e+000 -9.000000e+000 -1.340146e+001
      endloop
   endfacet
   facet normal -5.000003e-001 0.000000e+000 -8.660252e-001
      outer loop
         vertex -6.159422e+000 0.000000e+000 -1.287512e+001
         vertex -6.159422e+000 -9.000000e+000 -1.287512e+001
         vertex -7.196115e+000 -9.000000e+000 -1.227659e+001
      endloop
   endfacet
   facet normal -9.396925e-001 -0.000000e+000 -3.420204e-001
      outer loop
         vertex -6.159422e+000 -9.000000e+000 -1.287512e+001
         vertex -6.159422e+000 0.000000e+000 -1.287512e+001
         vertex -5.750000e+000 -9.000000e+000 -1.400000e+001
      endloop
   endfacet
   facet normal 1.736477e-001 0.000000e+000 9.848078e-001
      outer loop
         vertex -8.375000e+000 -9.000000e+000 -1.551554e+001
         vertex -7.196115e+000 -9.000000e+000 -1.572341e+001
         vertex -8.375000e+000 0.000000e+000 -1.551554e+001
      endloop
   endfacet
   facet normal 7.660447e-001 0.000000e+000 6.427873e-001
      outer loop
         vertex -8.375000e+000 0.000000e+000 -1.551554e+001
         vertex -9.144462e+000 0.000000e+000 -1.459854e+001
         vertex -8.375000e+000 -9.000000e+000 -1.551554e+001
      endloop
   endfacet
   facet normal -5.000003e-001 -0.000000e+000 -8.660252e-001
      outer loop
         vertex -7.196115e+000 -9.000000e+000 -1.227659e+001
         vertex -7.196115e+000 0.000000e+000 -1.227659e+001
         vertex -6.159422e+000 0.000000e+000 -1.287512e+001
      endloop
   endfacet
   facet normal -5.000003e-001 0.000000e+000 8.660252e-001
      outer loop
         vertex -6.159422e+000 -9.000000e+000 -1.512488e+001
         vertex -6.159422e+000 0.000000e+000 -1.512488e+001
         vertex -7.196115e+000 0.000000e+000 -1.572341e+001
      endloop
   endfacet
   facet normal 1.000000e+000 -0.000000e+000 0.000000e+000
      outer loop
         vertex -9.144462e+000 0.000000e+000 -1.340146e+001
         vertex -9.144462e+000 -9.000000e+000 -1.340146e+001
         vertex -9.144462e+000 -9.000000e+000 -1.459854e+001
      endloop
   endfacet
   facet normal 1.736477e-001 0.000000e+000 -9.848078e-001
      outer loop
         vertex -7.196115e+000 -9.000000e+000 -1.227659e+001
         vertex -8.375000e+000 -9.000000e+000 -1.248446e+001
         vertex -7.196115e+000 0.000000e+000 -1.227659e+001
      endloop
   endfacet
   facet normal -9.396925e-001 0.000000e+000 3.420204e-001
      outer loop
         vertex -5.750000e+000 -9.000000e+000 -1.400000e+001
         vertex -6.159422e+000 0.000000e+000 -1.512488e+001
         vertex -6.159422e+000 -9.000000e+000 -1.512488e+001
      endloop
   endfacet
   facet normal 7.660447e-001 0.000000e+000 -6.427873e-001
      outer loop
         vertex -9.144462e+000 -9.000000e+000 -1.340146e+001
         vertex -9.144462e+000 0.000000e+000 -1.340146e+001
         vertex -8.375000e+000 0.000000e+000 -1.248446e+001
      endloop
   endfacet
   facet normal 0.000000e+000 -9.828722e-001 1.842885e-001
      outer loop
         vertex 0.000000e+000 -1.300000e+001 6.000000e+000
         vertex 0.000000e+000 -1.000000e+001 2.200000e+001
         vertex -4.000000e+000 -1.150000e+001 1.400000e+001
      endloop
   endfacet
   facet normal 0.000000e+000 -9.828722e-001 1.842885e-001
      outer loop
         vertex -1.500000e+001 -1.000000e+001 2.200000e+001
         vertex -1.500000e+001 -1.300000e+001 6.000000e+000
         vertex -1.100000e+001 -1.215625e+001 1.050000e+001
      endloop
   endfacet
   facet normal 0.000000e+000 -9.828722e-001 1.842885e-001
      outer loop
         vertex -4.000000e+000 -1.150000e+001 1.400000e+001
         vertex -4.011051e+000 -1.155211e+001 1.372209e+001
         vertex 0.000000e+000 -1.300000e+001 6.000000e+000
      endloop
   endfacet
   facet normal 4.566733e-008 -9.828722e-001 1.842883e-001
      outer loop
         vertex -4.528568e+000 -1.184678e+001 1.215051e+001
         vertex -5.709929e+000 -1.206392e+001 1.099240e+001
         vertex -4.000000e+000 -1.215625e+001 1.050000e+001
      endloop
   endfacet
   facet normal 4.960682e-008 -9.828724e-001 1.842873e-001
      outer loop
         vertex -7.290843e+000 -1.215508e+001 1.050626e+001
         vertex -8.918731e+000 -1.209992e+001 1.080044e+001
         vertex -1.100000e+001 -1.215625e+001 1.050000e+001
      endloop
   endfacet
   facet normal 6.350962e-007 -9.828722e-001 1.842885e-001
      outer loop
         vertex -1.022987e+001 -1.191070e+001 1.180961e+001
         vertex -1.093099e+001 -1.162967e+001 1.330841e+001
         vertex -1.100000e+001 -1.215625e+001 1.050000e+001
      endloop
   endfacet
   facet normal 3.079475e-007 -9.828722e-001 1.842885e-001
      outer loop
         vertex -1.086526e+001 -1.131967e+001 1.496178e+001
         vertex -1.004750e+001 -1.104999e+001 1.640005e+001
         vertex -1.100000e+001 -1.084375e+001 1.750000e+001
      endloop
   endfacet
   facet normal 8.205792e-008 -9.828717e-001 1.842912e-001
      outer loop
         vertex -8.660768e+000 -1.088089e+001 1.730191e+001
         vertex -7.014910e+000 -1.085008e+001 1.746622e+001
         vertex -1.100000e+001 -1.084375e+001 1.750000e+001
      endloop
   endfacet
   facet normal -4.268539e-008 -9.828722e-001 1.842885e-001
      outer loop
         vertex -5.477094e+000 -1.096446e+001 1.685620e+001
         vertex -4.391146e+000 -1.119854e+001 1.560780e+001
         vertex -4.000000e+000 -1.084375e+001 1.750000e+001
      endloop
   endfacet
   facet normal 0.000000e+000 -9.828722e-001 1.842885e-001
      outer loop
         vertex -1.100000e+001 -1.084375e+001 1.750000e+001
         vertex -1.100000e+001 -1.215625e+001 1.050000e+001
         vertex -1.093099e+001 -1.162967e+001 1.330841e+001
      endloop
   endfacet
   facet normal 0.000000e+000 -9.828734e-001 1.842818e-001
      outer loop
         vertex -4.000000e+000 -1.084375e+001 1.750000e+001
         vertex -1.100000e+001 -1.084375e+001 1.750000e+001
         vertex -7.014910e+000 -1.085008e+001 1.746622e+001
      endloop
   endfacet
   facet normal 0.000000e+000 -9.828722e-001 1.842885e-001
      outer loop
         vertex -4.000000e+000 -1.150000e+001 1.400000e+001
         vertex 0.000000e+000 -1.000000e+001 2.200000e+001
         vertex -4.000000e+000 -1.084375e+001 1.750000e+001
      endloop
   endfacet
   facet normal 0.000000e+000 -9.828722e-001 1.842885e-001
      outer loop
         vertex 0.000000e+000 -1.300000e+001 6.000000e+000
         vertex -4.011051e+000 -1.155211e+001 1.372209e+001
         vertex -4.000000e+000 -1.215625e+001 1.050000e+001
      endloop
   endfacet
   facet normal -5.444396e-008 -9.828723e-001 1.842880e-001
      outer loop
         vertex -4.000000e+000 -1.215625e+001 1.050000e+001
         vertex -5.709929e+000 -1.206392e+001 1.099240e+001
         vertex -7.290843e+000 -1.215508e+001 1.050626e+001
      endloop
   endfacet
   facet normal -2.102476e-007 -9.828721e-001 1.842890e-001
      outer loop
         vertex -1.022987e+001 -1.191070e+001 1.180961e+001
         vertex -1.100000e+001 -1.215625e+001 1.050000e+001
         vertex -8.918731e+000 -1.209992e+001 1.080044e+001
      endloop
   endfacet
   facet normal -7.768321e-008 -9.828722e-001 1.842885e-001
      outer loop
         vertex -5.477094e+000 -1.096446e+001 1.685620e+001
         vertex -4.000000e+000 -1.084375e+001 1.750000e+001
         vertex -7.014910e+000 -1.085008e+001 1.746622e+001
      endloop
   endfacet
   facet normal -4.493237e-007 -9.828722e-001 1.842885e-001
      outer loop
         vertex -4.000000e+000 -1.150000e+001 1.400000e+001
         vertex -4.000000e+000 -1.084375e+001 1.750000e+001
         vertex -4.391146e+000 -1.119854e+001 1.560780e+001
      endloop
   endfacet
   facet normal 0.000000e+000 -9.828671e-001 1.843157e-001
      outer loop
         vertex -4.000000e+000 -1.215625e+001 1.050000e+001
         vertex -7.290843e+000 -1.215508e+001 1.050626e+001
         vertex -1.100000e+001 -1.215625e+001 1.050000e+001
      endloop
   endfacet
   facet normal 0.000000e+000 -9.828722e-001 1.842885e-001
      outer loop
         vertex -1.500000e+001 -1.300000e+001 6.000000e+000
         vertex 0.000000e+000 -1.300000e+001 6.000000e+000
         vertex -4.000000e+000 -1.215625e+001 1.050000e+001
      endloop
   endfacet
   facet normal 6.722077e-007 -9.828722e-001 1.842885e-001
      outer loop
         vertex -4.011051e+000 -1.155211e+001 1.372209e+001
         vertex -4.528568e+000 -1.184678e+001 1.215051e+001
         vertex -4.000000e+000 -1.215625e+001 1.050000e+001
      endloop
   endfacet
   facet normal -1.913570e-007 -9.828723e-001 1.842881e-001
      outer loop
         vertex -1.004750e+001 -1.104999e+001 1.640005e+001
         vertex -8.660768e+000 -1.088089e+001 1.730191e+001
         vertex -1.100000e+001 -1.084375e+001 1.750000e+001
      endloop
   endfacet
   facet normal 0.000000e+000 -9.828722e-001 1.842885e-001
      outer loop
         vertex -1.500000e+001 -1.000000e+001 2.200000e+001
         vertex -1.100000e+001 -1.215625e+001 1.050000e+001
         vertex -1.100000e+001 -1.084375e+001 1.750000e+001
      endloop
   endfacet
   facet normal 1.890824e-006 -9.828722e-001 1.842886e-001
      outer loop
         vertex -1.100000e+001 -1.084375e+001 1.750000e+001
         vertex -1.093099e+001 -1.162967e+001 1.330841e+001
         vertex -1.086526e+001 -1.131967e+001 1.496178e+001
      endloop
   endfacet
   facet normal 0.000000e+000 -9.828722e-001 1.842885e-001
      outer loop
         vertex 0.000000e+000 -1.000000e+001 2.200000e+001
         vertex -1.500000e+001 -1.000000e+001 2.200000e+001
         vertex -4.000000e+000 -1.084375e+001 1.750000e+001
      endloop
   endfacet
   facet normal 0.000000e+000 -9.828722e-001 1.842885e-001
      outer loop
         vertex -1.100000e+001 -1.215625e+001 1.050000e+001
         vertex -1.500000e+001 -1.300000e+001 6.000000e+000
         vertex -4.000000e+000 -1.215625e+001 1.050000e+001
      endloop
   endfacet
   facet normal 0.000000e+000 -9.828722e-001 1.842885e-001
      outer loop
         vertex -1.500000e+001 -1.000000e+001 2.200000e+001
         vertex -1.100000e+001 -1.084375e+001 1.750000e+001
         vertex -4.000000e+000 -1.084375e+001 1.750000e+001
      endloop
   endfacet
   facet normal 0.000000e+000 -9.828722e-001 -1.842885e-001
      outer loop
         vertex 0.000000e+000 -1.000000e+001 -2.200000e+001
         vertex 0.000000e+000 -1.300000e+001 -6.000000e+000
         vertex -4.000000e+000 -1.150000e+001 -1.400000e+001
      endloop
   endfacet
   facet normal 0.000000e+000 -9.828722e-001 -1.842885e-001
      outer loop
         vertex -1.500000e+001 -1.300000e+001 -6.000000e+000
         vertex -1.500000e+001 -1.000000e+001 -2.200000e+001
         vertex -1.100000e+001 -1.084375e+001 -1.750000e+001
      endloop
   endfacet
   facet normal 0.000000e+000 -9.828722e-001 -1.842885e-001
      outer loop
         vertex -4.000000e+000 -1.150000e+001 -1.400000e+001
         vertex -4.011051e+000 -1.144789e+001 -1.427791e+001
         vertex 0.000000e+000 -1.000000e+001 -2.200000e+001
      endloop
   endfacet
   facet normal 6.755681e-008 -9.828722e-001 -1.842883e-001
      outer loop
         vertex -4.528568e+000 -1.115322e+001 -1.584949e+001
         vertex -5.709929e+000 -1.093608e+001 -1.700760e+001
         vertex -4.000000e+000 -1.084375e+001 -1.750000e+001
      endloop
   endfacet
   facet normal -9.854761e-008 -9.828726e-001 -1.842864e-001
      outer loop
         vertex -7.290843e+000 -1.084492e+001 -1.749375e+001
         vertex -8.918731e+000 -1.090008e+001 -1.719956e+001
         vertex -1.100000e+001 -1.084375e+001 -1.750000e+001
      endloop
   endfacet
   facet normal -6.350962e-007 -9.828722e-001 -1.842885e-001
      outer loop
         vertex -1.022987e+001 -1.108930e+001 -1.619039e+001
         vertex -1.093099e+001 -1.137033e+001 -1.469159e+001
         vertex -1.100000e+001 -1.084375e+001 -1.750000e+001
      endloop
   endfacet
   facet normal -1.113829e-007 -9.828722e-001 -1.842885e-001
      outer loop
         vertex -1.086526e+001 -1.168033e+001 -1.303822e+001
         vertex -1.004750e+001 -1.195001e+001 -1.159995e+001
         vertex -1.100000e+001 -1.215625e+001 -1.050000e+001
      endloop
   endfacet
   facet normal -7.370074e-008 -9.828719e-001 -1.842902e-001
      outer loop
         vertex -8.660768e+000 -1.211911e+001 -1.069809e+001
         vertex -7.014910e+000 -1.214992e+001 -1.053378e+001
         vertex -1.100000e+001 -1.215625e+001 -1.050000e+001
      endloop
   endfacet
   facet normal 4.268539e-008 -9.828722e-001 -1.842885e-001
      outer loop
         vertex -5.477094e+000 -1.203554e+001 -1.114380e+001
         vertex -4.391146e+000 -1.180146e+001 -1.239220e+001
         vertex -4.000000e+000 -1.215625e+001 -1.050000e+001
      endloop
   endfacet
   facet normal 0.000000e+000 -9.828722e-001 -1.842885e-001
      outer loop
         vertex -1.100000e+001 -1.215625e+001 -1.050000e+001
         vertex -1.100000e+001 -1.084375e+001 -1.750000e+001
         vertex -1.093099e+001 -1.137033e+001 -1.469159e+001
      endloop
   endfacet
   facet normal 0.000000e+000 -9.828734e-001 -1.842818e-001
      outer loop
         vertex -4.000000e+000 -1.215625e+001 -1.050000e+001
         vertex -1.100000e+001 -1.215625e+001 -1.050000e+001
         vertex -7.014910e+000 -1.214992e+001 -1.053378e+001
      endloop
   endfacet
   facet normal 0.000000e+000 -9.828722e-001 -1.842885e-001
      outer loop
         vertex -4.000000e+000 -1.150000e+001 -1.400000e+001
         vertex 0.000000e+000 -1.300000e+001 -6.000000e+000
         vertex -4.000000e+000 -1.215625e+001 -1.050000e+001
      endloop
   endfacet
   facet normal 0.000000e+000 -9.828722e-001 -1.842885e-001
      outer loop
         vertex 0.000000e+000 -1.000000e+001 -2.200000e+001
         vertex -4.011051e+000 -1.144789e+001 -1.427791e+001
         vertex -4.000000e+000 -1.084375e+001 -1.750000e+001
      endloop
   endfacet
   facet normal 1.075219e-007 -9.828723e-001 -1.842882e-001
      outer loop
         vertex -4.000000e+000 -1.084375e+001 -1.750000e+001
         vertex -5.709929e+000 -1.093608e+001 -1.700760e+001
         vertex -7.290843e+000 -1.084492e+001 -1.749375e+001
      endloop
   endfacet
   facet normal 3.025254e-007 -9.828721e-001 -1.842891e-001
      outer loop
         vertex -1.022987e+001 -1.108930e+001 -1.619039e+001
         vertex -1.100000e+001 -1.084375e+001 -1.750000e+001
         vertex -8.918731e+000 -1.090008e+001 -1.719956e+001
      endloop
   endfacet
   facet normal 7.768321e-008 -9.828722e-001 -1.842885e-001
      outer loop
         vertex -5.477094e+000 -1.203554e+001 -1.114380e+001
         vertex -4.000000e+000 -1.215625e+001 -1.050000e+001
         vertex -7.014910e+000 -1.214992e+001 -1.053378e+001
      endloop
   endfacet
   facet normal 4.493237e-007 -9.828722e-001 -1.842885e-001
      outer loop
         vertex -4.000000e+000 -1.150000e+001 -1.400000e+001
         vertex -4.000000e+000 -1.215625e+001 -1.050000e+001
         vertex -4.391146e+000 -1.180146e+001 -1.239220e+001
      endloop
   endfacet
   facet normal 0.000000e+000 -9.828620e-001 -1.843428e-001
      outer loop
         vertex -4.000000e+000 -1.084375e+001 -1.750000e+001
         vertex -7.290843e+000 -1.084492e+001 -1.749375e+001
         vertex -1.100000e+001 -1.084375e+001 -1.750000e+001
      endloop
   endfacet
   facet normal -0.000000e+000 -9.828722e-001 -1.842885e-001
      outer loop
         vertex -1.500000e+001 -1.000000e+001 -2.200000e+001
         vertex 0.000000e+000 -1.000000e+001 -2.200000e+001
         vertex -4.000000e+000 -1.084375e+001 -1.750000e+001
      endloop
   endfacet
   facet normal -6.722077e-007 -9.828722e-001 -1.842885e-001
      outer loop
         vertex -4.011051e+000 -1.144789e+001 -1.427791e+001
         vertex -4.528568e+000 -1.115322e+001 -1.584949e+001
         vertex -4.000000e+000 -1.084375e+001 -1.750000e+001
      endloop
   endfacet
   facet normal 9.567860e-008 -9.828722e-001 -1.842883e-001
      outer loop
         vertex -1.004750e+001 -1.195001e+001 -1.159995e+001
         vertex -8.660768e+000 -1.211911e+001 -1.069809e+001
         vertex -1.100000e+001 -1.215625e+001 -1.050000e+001
      endloop
   endfacet
   facet normal 0.000000e+000 -9.828722e-001 -1.842885e-001
      outer loop
         vertex -1.500000e+001 -1.300000e+001 -6.000000e+000
         vertex -1.100000e+001 -1.084375e+001 -1.750000e+001
         vertex -1.100000e+001 -1.215625e+001 -1.050000e+001
      endloop
   endfacet
   facet normal -1.890824e-006 -9.828722e-001 -1.842886e-001
      outer loop
         vertex -1.100000e+001 -1.215625e+001 -1.050000e+001
         vertex -1.093099e+001 -1.137033e+001 -1.469159e+001
         vertex -1.086526e+001 -1.168033e+001 -1.303822e+001
      endloop
   endfacet
   facet normal 0.000000e+000 -9.828722e-001 -1.842885e-001
      outer loop
         vertex 0.000000e+000 -1.300000e+001 -6.000000e+000
         vertex -1.500000e+001 -1.300000e+001 -6.000000e+000
         vertex -4.000000e+000 -1.215625e+001 -1.050000e+001
      endloop
   endfacet
   facet normal 0.000000e+000 -9.828722e-001 -1.842885e-001
      outer loop
         vertex -1.100000e+001 -1.084375e+001 -1.750000e+001
         vertex -1.500000e+001 -1.000000e+001 -2.200000e+001
         vertex -4.000000e+000 -1.084375e+001 -1.750000e+001
      endloop
   endfacet
   facet normal 0.000000e+000 -9.828722e-001 -1.842885e-001
      outer loop
         vertex -1.500000e+001 -1.300000e+001 -6.000000e+000
         vertex -1.100000e+001 -1.215625e+001 -1.050000e+001
         vertex -4.000000e+000 -1.215625e+001 -1.050000e+001
      endloop
   endfacet
   facet normal -0.000000e+000 -1.000000e+000 0.000000e+000
      outer loop
         vertex -4.400904e+000 -9.000000e+000 -1.562653e+001
         vertex -4.000000e+000 -9.000000e+000 -1.400000e+001
         vertex -5.750000e+000 -9.000000e+000 -1.400000e+001
      endloop
   endfacet
   facet normal 0.000000e+000 -1.000000e+000 -0.000000e+000
      outer loop
         vertex -4.400904e+000 -9.000000e+000 -1.237347e+001
         vertex -5.511774e+000 -9.000000e+000 -1.111956e+001
         vertex -5.750000e+000 -9.000000e+000 -1.225000e+001
      endloop
   endfacet
   facet normal 0.000000e+000 -1.000000e+000 -0.000000e+000
      outer loop
         vertex -7.078122e+000 -9.000000e+000 -1.052552e+001
         vertex -8.741117e+000 -9.000000e+000 -1.072744e+001
         vertex -9.250000e+000 -9.000000e+000 -1.225000e+001
      endloop
   endfacet
   facet normal 0.000000e+000 -1.000000e+000 0.000000e+000
      outer loop
         vertex -1.011979e+001 -9.000000e+000 -1.167907e+001
         vertex -1.089830e+001 -9.000000e+000 -1.316240e+001
         vertex -9.250000e+000 -9.000000e+000 -1.225000e+001
      endloop
   endfacet
   facet normal 0.000000e+000 -1.000000e+000 0.000000e+000
      outer loop
         vertex -1.089830e+001 -9.000000e+000 -1.483760e+001
         vertex -1.011979e+001 -9.000000e+000 -1.632093e+001
         vertex -9.250000e+000 -9.000000e+000 -1.575000e+001
      endloop
   endfacet
   facet normal 0.000000e+000 -1.000000e+000 0.000000e+000
      outer loop
         vertex -8.741117e+000 -9.000000e+000 -1.727256e+001
         vertex -7.078122e+000 -9.000000e+000 -1.747448e+001
         vertex -9.250000e+000 -9.000000e+000 -1.575000e+001
      endloop
   endfacet
   facet normal 0.000000e+000 -1.000000e+000 0.000000e+000
      outer loop
         vertex -5.511774e+000 -9.000000e+000 -1.688044e+001
         vertex -4.400904e+000 -9.000000e+000 -1.562653e+001
         vertex -5.750000e+000 -9.000000e+000 -1.575000e+001
      endloop
   endfacet
   facet normal 0.000000e+000 -1.000000e+000 0.000000e+000
      outer loop
         vertex -5.750000e+000 -9.000000e+000 -1.400000e+001
         vertex -6.159422e+000 -9.000000e+000 -1.512488e+001
         vertex -4.400904e+000 -9.000000e+000 -1.562653e+001
      endloop
   endfacet
   facet normal 0.000000e+000 -1.000000e+000 -0.000000e+000
      outer loop
         vertex -7.196115e+000 -9.000000e+000 -1.572341e+001
         vertex -8.375000e+000 -9.000000e+000 -1.551554e+001
         vertex -9.250000e+000 -9.000000e+000 -1.575000e+001
      endloop
   endfacet
   facet normal -0.000000e+000 -1.000000e+000 0.000000e+000
      outer loop
         vertex -9.144462e+000 -9.000000e+000 -1.340146e+001
         vertex -8.375000e+000 -9.000000e+000 -1.248446e+001
         vertex -9.250000e+000 -9.000000e+000 -1.225000e+001
      endloop
   endfacet
   facet normal 0.000000e+000 -1.000000e+000 0.000000e+000
      outer loop
         vertex -7.196115e+000 -9.000000e+000 -1.227659e+001
         vertex -6.159422e+000 -9.000000e+000 -1.287512e+001
         vertex -5.750000e+000 -9.000000e+000 -1.225000e+001
      endloop
   endfacet
   facet normal 0.000000e+000 -1.000000e+000 -0.000000e+000
      outer loop
         vertex -9.250000e+000 -9.000000e+000 -1.575000e+001
         vertex -9.250000e+000 -9.000000e+000 -1.225000e+001
         vertex -1.089830e+001 -9.000000e+000 -1.483760e+001
      endloop
   endfacet
   facet normal 0.000000e+000 -1.000000e+000 0.000000e+000
      outer loop
         vertex -5.750000e+000 -9.000000e+000 -1.225000e+001
         vertex -9.250000e+000 -9.000000e+000 -1.225000e+001
         vertex -7.196115e+000 -9.000000e+000 -1.227659e+001
      endloop
   endfacet
   facet normal 0.000000e+000 -1.000000e+000 0.000000e+000
      outer loop
         vertex -9.250000e+000 -9.000000e+000 -1.225000e+001
         vertex -5.750000e+000 -9.000000e+000 -1.225000e+001
         vertex -7.078122e+000 -9.000000e+000 -1.052552e+001
      endloop
   endfacet
   facet normal 0.000000e+000 -1.000000e+000 -0.000000e+000
      outer loop
         vertex -4.400904e+000 -9.000000e+000 -1.237347e+001
         vertex -5.750000e+000 -9.000000e+000 -1.225000e+001
         vertex -6.159422e+000 -9.000000e+000 -1.287512e+001
      endloop
   endfacet
   facet normal 0.000000e+000 -1.000000e+000 0.000000e+000
      outer loop
         vertex -9.250000e+000 -9.000000e+000 -1.225000e+001
         vertex -8.741117e+000 -9.000000e+000 -1.072744e+001
         vertex -1.011979e+001 -9.000000e+000 -1.167907e+001
      endloop
   endfacet
   facet normal 0.000000e+000 -1.000000e+000 -0.000000e+000
      outer loop
         vertex -8.741117e+000 -9.000000e+000 -1.727256e+001
         vertex -9.250000e+000 -9.000000e+000 -1.575000e+001
         vertex -1.011979e+001 -9.000000e+000 -1.632093e+001
      endloop
   endfacet
   facet normal 0.000000e+000 -1.000000e+000 0.000000e+000
      outer loop
         vertex -4.400904e+000 -9.000000e+000 -1.562653e+001
         vertex -6.159422e+000 -9.000000e+000 -1.512488e+001
         vertex -5.750000e+000 -9.000000e+000 -1.575000e+001
      endloop
   endfacet
   facet normal 0.000000e+000 -1.000000e+000 0.000000e+000
      outer loop
         vertex -9.144462e+000 -9.000000e+000 -1.340146e+001
         vertex -9.250000e+000 -9.000000e+000 -1.225000e+001
         vertex -9.250000e+000 -9.000000e+000 -1.575000e+001
      endloop
   endfacet
   facet normal 0.000000e+000 -1.000000e+000 0.000000e+000
      outer loop
         vertex -7.196115e+000 -9.000000e+000 -1.227659e+001
         vertex -9.250000e+000 -9.000000e+000 -1.225000e+001
         vertex -8.375000e+000 -9.000000e+000 -1.248446e+001
      endloop
   endfacet
   facet normal 0.000000e+000 -1.000000e+000 0.000000e+000
      outer loop
         vertex -9.144462e+000 -9.000000e+000 -1.340146e+001
         vertex -9.250000e+000 -9.000000e+000 -1.575000e+001
         vertex -9.144462e+000 -9.000000e+000 -1.459854e+001
      endloop
   endfacet
   facet normal 0.000000e+000 -1.000000e+000 -0.000000e+000
      outer loop
         vertex -4.000000e+000 -9.000000e+000 -1.400000e+001
         vertex -4.400904e+000 -9.000000e+000 -1.237347e+001
         vertex -5.750000e+000 -9.000000e+000 -1.400000e+001
      endloop
   endfacet
   facet normal 0.000000e+000 -1.000000e+000 0.000000e+000
      outer loop
         vertex -1.089830e+001 -9.000000e+000 -1.316240e+001
         vertex -1.089830e+001 -9.000000e+000 -1.483760e+001
         vertex -9.250000e+000 -9.000000e+000 -1.225000e+001
      endloop
   endfacet
   facet normal 0.000000e+000 -1.000000e+000 0.000000e+000
      outer loop
         vertex -6.159422e+000 -9.000000e+000 -1.287512e+001
         vertex -5.750000e+000 -9.000000e+000 -1.400000e+001
         vertex -4.400904e+000 -9.000000e+000 -1.237347e+001
      endloop
   endfacet
   facet normal 0.000000e+000 -1.000000e+000 -0.000000e+000
      outer loop
         vertex -8.375000e+000 -9.000000e+000 -1.551554e+001
         vertex -9.144462e+000 -9.000000e+000 -1.459854e+001
         vertex -9.250000e+000 -9.000000e+000 -1.575000e+001
      endloop
   endfacet
   facet normal 0.000000e+000 -1.000000e+000 0.000000e+000
      outer loop
         vertex -9.250000e+000 -9.000000e+000 -1.575000e+001
         vertex -5.750000e+000 -9.000000e+000 -1.575000e+001
         vertex -7.196115e+000 -9.000000e+000 -1.572341e+001
      endloop
   endfacet
   facet normal 0.000000e+000 -1.000000e+000 0.000000e+000
      outer loop
         vertex -9.250000e+000 -9.000000e+000 -1.575000e+001
         vertex -7.078122e+000 -9.000000e+000 -1.747448e+001
         vertex -5.750000e+000 -9.000000e+000 -1.575000e+001
      endloop
   endfacet
   facet normal 0.000000e+000 -1.000000e+000 -0.000000e+000
      outer loop
         vertex -5.750000e+000 -9.000000e+000 -1.575000e+001
         vertex -6.159422e+000 -9.000000e+000 -1.512488e+001
         vertex -7.196115e+000 -9.000000e+000 -1.572341e+001
      endloop
   endfacet
   facet normal 0.000000e+000 -1.000000e+000 0.000000e+000
      outer loop
         vertex -5.511774e+000 -9.000000e+000 -1.111956e+001
         vertex -7.078122e+000 -9.000000e+000 -1.052552e+001
         vertex -5.750000e+000 -9.000000e+000 -1.225000e+001
      endloop
   endfacet
   facet normal 0.000000e+000 -1.000000e+000 -0.000000e+000
      outer loop
         vertex -5.511774e+000 -9.000000e+000 -1.688044e+001
         vertex -5.750000e+000 -9.000000e+000 -1.575000e+001
         vertex -7.078122e+000 -9.000000e+000 -1.747448e+001
      endloop
   endfacet
   facet normal -9.716594e-001 -0.000000e+000 -2.363853e-001
      outer loop
         vertex -4.391146e+000 -1.180146e+001 -1.239220e+001
         vertex -4.000000e+000 -9.000000e+000 -1.400000e+001
         vertex -4.000000e+000 -1.150000e+001 -1.400000e+001
      endloop
   endfacet
   facet normal -7.485068e-001 -3.254245e-003 -6.631191e-001
      outer loop
         vertex -5.477094e+000 -1.203554e+001 -1.114380e+001
         vertex -5.511774e+000 -9.000000e+000 -1.111956e+001
         vertex -4.400904e+000 -9.000000e+000 -1.237347e+001
      endloop
   endfacet
   facet normal 1.205338e-001 -6.237239e-003 -9.926896e-001
      outer loop
         vertex -8.660768e+000 -1.211911e+001 -1.069809e+001
         vertex -8.741117e+000 -9.000000e+000 -1.072744e+001
         vertex -7.078122e+000 -9.000000e+000 -1.052552e+001
      endloop
   endfacet
   facet normal 8.854061e-001 -1.061555e-002 -4.646970e-001
      outer loop
         vertex -1.086526e+001 -1.168033e+001 -1.303822e+001
         vertex -1.089830e+001 -9.000000e+000 -1.316240e+001
         vertex -1.011979e+001 -9.000000e+000 -1.167907e+001
      endloop
   endfacet
   facet normal 8.853185e-001 -1.761504e-002 4.646514e-001
      outer loop
         vertex -1.022987e+001 -1.108930e+001 -1.619039e+001
         vertex -1.011979e+001 -9.000000e+000 -1.632093e+001
         vertex -1.089830e+001 -9.000000e+000 -1.483760e+001
      endloop
   endfacet
   facet normal 1.205018e-001 -2.425654e-002 9.924167e-001
      outer loop
         vertex -7.290843e+000 -1.084492e+001 -1.749375e+001
         vertex -7.078122e+000 -9.000000e+000 -1.747448e+001
         vertex -8.741117e+000 -9.000000e+000 -1.727256e+001
      endloop
   endfacet
   facet normal -7.482902e-001 -2.427648e-002 6.629272e-001
      outer loop
         vertex -4.528568e+000 -1.115322e+001 -1.584949e+001
         vertex -4.400904e+000 -9.000000e+000 -1.562653e+001
         vertex -5.511774e+000 -9.000000e+000 -1.688044e+001
      endloop
   endfacet
   facet normal -9.992104e-001 0.000000e+000 3.973244e-002
      outer loop
         vertex -4.011051e+000 -1.144789e+001 -1.427791e+001
         vertex -4.000000e+000 -1.150000e+001 -1.400000e+001
         vertex -4.000000e+000 -9.000000e+000 -1.400000e+001
      endloop
   endfacet
   facet normal -6.975510e-001 2.436110e-002 7.161209e-001
      outer loop
         vertex -5.511774e+000 -9.000000e+000 -1.688044e+001
         vertex -5.709929e+000 -1.093608e+001 -1.700760e+001
         vertex -4.528568e+000 -1.115322e+001 -1.584949e+001
      endloop
   endfacet
   facet normal 1.770972e-001 2.124587e-002 9.839640e-001
      outer loop
         vertex -8.741117e+000 -9.000000e+000 -1.727256e+001
         vertex -8.918731e+000 -1.090008e+001 -1.719956e+001
         vertex -7.290843e+000 -1.084492e+001 -1.749375e+001
      endloop
   endfacet
   facet normal 9.047158e-001 1.375035e-002 4.257937e-001
      outer loop
         vertex -1.089830e+001 -9.000000e+000 -1.483760e+001
         vertex -1.093099e+001 -1.137033e+001 -1.469159e+001
         vertex -1.022987e+001 -1.108930e+001 -1.619039e+001
      endloop
   endfacet
   facet normal 8.699334e-001 8.091958e-003 -4.931028e-001
      outer loop
         vertex -1.011979e+001 -9.000000e+000 -1.167907e+001
         vertex -1.004750e+001 -1.195001e+001 -1.159995e+001
         vertex -1.086526e+001 -1.168033e+001 -1.303822e+001
      endloop
   endfacet
   facet normal 9.942265e-002 4.604379e-003 -9.950346e-001
      outer loop
         vertex -7.078122e+000 -9.000000e+000 -1.052552e+001
         vertex -7.014910e+000 -1.214992e+001 -1.053378e+001
         vertex -8.660768e+000 -1.211911e+001 -1.069809e+001
      endloop
   endfacet
   facet normal -7.546512e-001 1.757843e-003 -6.561239e-001
      outer loop
         vertex -4.400904e+000 -9.000000e+000 -1.237347e+001
         vertex -4.391146e+000 -1.180146e+001 -1.239220e+001
         vertex -5.477094e+000 -1.203554e+001 -1.114380e+001
      endloop
   endfacet
   facet normal -3.689355e-001 3.209626e-003 -9.294495e-001
      outer loop
         vertex -7.014910e+000 -1.214992e+001 -1.053378e+001
         vertex -5.511774e+000 -9.000000e+000 -1.111956e+001
         vertex -5.477094e+000 -1.203554e+001 -1.114380e+001
      endloop
   endfacet
   facet normal 6.082557e-001 1.753194e-002 7.935475e-001
      outer loop
         vertex -8.918731e+000 -1.090008e+001 -1.719956e+001
         vertex -1.011979e+001 -9.000000e+000 -1.632093e+001
         vertex -1.022987e+001 -1.108930e+001 -1.619039e+001
      endloop
   endfacet
   facet normal -9.706899e-001 -2.278031e-002 2.392535e-001
      outer loop
         vertex -4.400904e+000 -9.000000e+000 -1.562653e+001
         vertex -4.011051e+000 -1.144789e+001 -1.427791e+001
         vertex -4.000000e+000 -9.000000e+000 -1.400000e+001
      endloop
   endfacet
   facet normal 9.999049e-001 -1.379207e-002 0.000000e+000
      outer loop
         vertex -1.089830e+001 -9.000000e+000 -1.316240e+001
         vertex -1.093099e+001 -1.137033e+001 -1.469159e+001
         vertex -1.089830e+001 -9.000000e+000 -1.483760e+001
      endloop
   endfacet
   facet normal -9.709403e-001 -1.781930e-003 -2.393152e-001
      outer loop
         vertex -4.000000e+000 -9.000000e+000 -1.400000e+001
         vertex -4.391146e+000 -1.180146e+001 -1.239220e+001
         vertex -4.400904e+000 -9.000000e+000 -1.237347e+001
      endloop
   endfacet
   facet normal 9.992316e-001 1.056673e-002 -3.774295e-002
      outer loop
         vertex -1.086526e+001 -1.168033e+001 -1.303822e+001
         vertex -1.093099e+001 -1.137033e+001 -1.469159e+001
         vertex -1.089830e+001 -9.000000e+000 -1.316240e+001
      endloop
   endfacet
   facet normal -3.546008e-001 -4.664215e-003 -9.350062e-001
      outer loop
         vertex -7.014910e+000 -1.214992e+001 -1.053378e+001
         vertex -7.078122e+000 -9.000000e+000 -1.052552e+001
         vertex -5.511774e+000 -9.000000e+000 -1.111956e+001
      endloop
   endfacet
   facet normal 5.679340e-001 -2.147982e-002 8.227938e-001
      outer loop
         vertex -8.918731e+000 -1.090008e+001 -1.719956e+001
         vertex -8.741117e+000 -9.000000e+000 -1.727256e+001
         vertex -1.011979e+001 -9.000000e+000 -1.632093e+001
      endloop
   endfacet
   facet normal -9.482523e-001 2.343429e-002 3.166518e-001
      outer loop
         vertex -4.400904e+000 -9.000000e+000 -1.562653e+001
         vertex -4.528568e+000 -1.115322e+001 -1.584949e+001
         vertex -4.011051e+000 -1.144789e+001 -1.427791e+001
      endloop
   endfacet
   facet normal 5.457122e-001 6.171849e-003 -8.379500e-001
      outer loop
         vertex -8.741117e+000 -9.000000e+000 -1.072744e+001
         vertex -8.660768e+000 -1.211911e+001 -1.069809e+001
         vertex -1.004750e+001 -1.195001e+001 -1.159995e+001
      endloop
   endfacet
   facet normal -3.544934e-001 -2.510750e-002 9.347214e-001
      outer loop
         vertex -7.078122e+000 -9.000000e+000 -1.747448e+001
         vertex -5.709929e+000 -1.093608e+001 -1.700760e+001
         vertex -5.511774e+000 -9.000000e+000 -1.688044e+001
      endloop
   endfacet
   facet normal -2.925922e-001 2.375445e-002 9.559422e-001
      outer loop
         vertex -7.290843e+000 -1.084492e+001 -1.749375e+001
         vertex -5.709929e+000 -1.093608e+001 -1.700760e+001
         vertex -7.078122e+000 -9.000000e+000 -1.747448e+001
      endloop
   endfacet
   facet normal 5.680462e-001 -8.153080e-003 -8.229563e-001
      outer loop
         vertex -1.004750e+001 -1.195001e+001 -1.159995e+001
         vertex -1.011979e+001 -9.000000e+000 -1.167907e+001
         vertex -8.741117e+000 -9.000000e+000 -1.072744e+001
      endloop
   endfacet
   facet normal -0.000000e+000 -1.000000e+000 0.000000e+000
      outer loop
         vertex -4.400904e+000 -9.000000e+000 1.237347e+001
         vertex -4.000000e+000 -9.000000e+000 1.400000e+001
         vertex -5.750000e+000 -9.000000e+000 1.400000e+001
      endloop
   endfacet
   facet normal 0.000000e+000 -1.000000e+000 -0.000000e+000
      outer loop
         vertex -4.400904e+000 -9.000000e+000 1.562653e+001
         vertex -5.511774e+000 -9.000000e+000 1.688044e+001
         vertex -5.750000e+000 -9.000000e+000 1.575000e+001
      endloop
   endfacet
   facet normal 0.000000e+000 -1.000000e+000 -0.000000e+000
      outer loop
         vertex -7.078122e+000 -9.000000e+000 1.747448e+001
         vertex -8.741117e+000 -9.000000e+000 1.727256e+001
         vertex -9.250000e+000 -9.000000e+000 1.575000e+001
      endloop
   endfacet
   facet normal 0.000000e+000 -1.000000e+000 0.000000e+000
      outer loop
         vertex -1.011979e+001 -9.000000e+000 1.632093e+001
         vertex -1.089830e+001 -9.000000e+000 1.483760e+001
         vertex -9.250000e+000 -9.000000e+000 1.575000e+001
      endloop
   endfacet
   facet normal 0.000000e+000 -1.000000e+000 0.000000e+000
      outer loop
         vertex -1.089830e+001 -9.000000e+000 1.316240e+001
         vertex -1.011979e+001 -9.000000e+000 1.167907e+001
         vertex -9.250000e+000 -9.000000e+000 1.225000e+001
      endloop
   endfacet
   facet normal 0.000000e+000 -1.000000e+000 0.000000e+000
      outer loop
         vertex -8.741117e+000 -9.000000e+000 1.072744e+001
         vertex -7.078122e+000 -9.000000e+000 1.052552e+001
         vertex -9.250000e+000 -9.000000e+000 1.225000e+001
      endloop
   endfacet
   facet normal 0.000000e+000 -1.000000e+000 0.000000e+000
      outer loop
         vertex -5.511774e+000 -9.000000e+000 1.111956e+001
         vertex -4.400904e+000 -9.000000e+000 1.237347e+001
         vertex -5.750000e+000 -9.000000e+000 1.225000e+001
      endloop
   endfacet
   facet normal 0.000000e+000 -1.000000e+000 0.000000e+000
      outer loop
         vertex -5.750000e+000 -9.000000e+000 1.400000e+001
         vertex -6.159422e+000 -9.000000e+000 1.287512e+001
         vertex -4.400904e+000 -9.000000e+000 1.237347e+001
      endloop
   endfacet
   facet normal 0.000000e+000 -1.000000e+000 -0.000000e+000
      outer loop
         vertex -7.196115e+000 -9.000000e+000 1.227659e+001
         vertex -8.375000e+000 -9.000000e+000 1.248446e+001
         vertex -9.250000e+000 -9.000000e+000 1.225000e+001
      endloop
   endfacet
   facet normal -0.000000e+000 -1.000000e+000 0.000000e+000
      outer loop
         vertex -9.144462e+000 -9.000000e+000 1.459854e+001
         vertex -8.375000e+000 -9.000000e+000 1.551554e+001
         vertex -9.250000e+000 -9.000000e+000 1.575000e+001
      endloop
   endfacet
   facet normal 0.000000e+000 -1.000000e+000 0.000000e+000
      outer loop
         vertex -7.196115e+000 -9.000000e+000 1.572341e+001
         vertex -6.159422e+000 -9.000000e+000 1.512488e+001
         vertex -5.750000e+000 -9.000000e+000 1.575000e+001
      endloop
   endfacet
   facet normal 0.000000e+000 -1.000000e+000 -0.000000e+000
      outer loop
         vertex -9.250000e+000 -9.000000e+000 1.225000e+001
         vertex -9.250000e+000 -9.000000e+000 1.575000e+001
         vertex -1.089830e+001 -9.000000e+000 1.316240e+001
      endloop
   endfacet
   facet normal 0.000000e+000 -1.000000e+000 0.000000e+000
      outer loop
         vertex -5.750000e+000 -9.000000e+000 1.575000e+001
         vertex -9.250000e+000 -9.000000e+000 1.575000e+001
         vertex -7.196115e+000 -9.000000e+000 1.572341e+001
      endloop
   endfacet
   facet normal 0.000000e+000 -1.000000e+000 0.000000e+000
      outer loop
         vertex -9.250000e+000 -9.000000e+000 1.575000e+001
         vertex -5.750000e+000 -9.000000e+000 1.575000e+001
         vertex -7.078122e+000 -9.000000e+000 1.747448e+001
      endloop
   endfacet
   facet normal 0.000000e+000 -1.000000e+000 -0.000000e+000
      outer loop
         vertex -4.400904e+000 -9.000000e+000 1.562653e+001
         vertex -5.750000e+000 -9.000000e+000 1.575000e+001
         vertex -6.159422e+000 -9.000000e+000 1.512488e+001
      endloop
   endfacet
   facet normal 0.000000e+000 -1.000000e+000 0.000000e+000
      outer loop
         vertex -9.250000e+000 -9.000000e+000 1.575000e+001
         vertex -8.741117e+000 -9.000000e+000 1.727256e+001
         vertex -1.011979e+001 -9.000000e+000 1.632093e+001
      endloop
   endfacet
   facet normal 0.000000e+000 -1.000000e+000 -0.000000e+000
      outer loop
         vertex -8.741117e+000 -9.000000e+000 1.072744e+001
         vertex -9.250000e+000 -9.000000e+000 1.225000e+001
         vertex -1.011979e+001 -9.000000e+000 1.167907e+001
      endloop
   endfacet
   facet normal 0.000000e+000 -1.000000e+000 0.000000e+000
      outer loop
         vertex -4.400904e+000 -9.000000e+000 1.237347e+001
         vertex -6.159422e+000 -9.000000e+000 1.287512e+001
         vertex -5.750000e+000 -9.000000e+000 1.225000e+001
      endloop
   endfacet
   facet normal 0.000000e+000 -1.000000e+000 0.000000e+000
      outer loop
         vertex -9.144462e+000 -9.000000e+000 1.459854e+001
         vertex -9.250000e+000 -9.000000e+000 1.575000e+001
         vertex -9.250000e+000 -9.000000e+000 1.225000e+001
      endloop
   endfacet
   facet normal 0.000000e+000 -1.000000e+000 0.000000e+000
      outer loop
         vertex -7.196115e+000 -9.000000e+000 1.572341e+001
         vertex -9.250000e+000 -9.000000e+000 1.575000e+001
         vertex -8.375000e+000 -9.000000e+000 1.551554e+001
      endloop
   endfacet
   facet normal 0.000000e+000 -1.000000e+000 0.000000e+000
      outer loop
         vertex -9.144462e+000 -9.000000e+000 1.459854e+001
         vertex -9.250000e+000 -9.000000e+000 1.225000e+001
         vertex -9.144462e+000 -9.000000e+000 1.340146e+001
      endloop
   endfacet
   facet normal 0.000000e+000 -1.000000e+000 -0.000000e+000
      outer loop
         vertex -4.000000e+000 -9.000000e+000 1.400000e+001
         vertex -4.400904e+000 -9.000000e+000 1.562653e+001
         vertex -5.750000e+000 -9.000000e+000 1.400000e+001
      endloop
   endfacet
   facet normal 0.000000e+000 -1.000000e+000 0.000000e+000
      outer loop
         vertex -1.089830e+001 -9.000000e+000 1.483760e+001
         vertex -1.089830e+001 -9.000000e+000 1.316240e+001
         vertex -9.250000e+000 -9.000000e+000 1.575000e+001
      endloop
   endfacet
   facet normal 0.000000e+000 -1.000000e+000 0.000000e+000
      outer loop
         vertex -6.159422e+000 -9.000000e+000 1.512488e+001
         vertex -5.750000e+000 -9.000000e+000 1.400000e+001
         vertex -4.400904e+000 -9.000000e+000 1.562653e+001
      endloop
   endfacet
   facet normal 0.000000e+000 -1.000000e+000 -0.000000e+000
      outer loop
         vertex -8.375000e+000 -9.000000e+000 1.248446e+001
         vertex -9.144462e+000 -9.000000e+000 1.340146e+001
         vertex -9.250000e+000 -9.000000e+000 1.225000e+001
      endloop
   endfacet
   facet normal 0.000000e+000 -1.000000e+000 0.000000e+000
      outer loop
         vertex -9.250000e+000 -9.000000e+000 1.225000e+001
         vertex -5.750000e+000 -9.000000e+000 1.225000e+001
         vertex -7.196115e+000 -9.000000e+000 1.227659e+001
      endloop
   endfacet
   facet normal 0.000000e+000 -1.000000e+000 0.000000e+000
      outer loop
         vertex -9.250000e+000 -9.000000e+000 1.225000e+001
         vertex -7.078122e+000 -9.000000e+000 1.052552e+001
         vertex -5.750000e+000 -9.000000e+000 1.225000e+001
      endloop
   endfacet
   facet normal 0.000000e+000 -1.000000e+000 -0.000000e+000
      outer loop
         vertex -5.750000e+000 -9.000000e+000 1.225000e+001
         vertex -6.159422e+000 -9.000000e+000 1.287512e+001
         vertex -7.196115e+000 -9.000000e+000 1.227659e+001
      endloop
   endfacet
   facet normal 0.000000e+000 -1.000000e+000 0.000000e+000
      outer loop
         vertex -5.511774e+000 -9.000000e+000 1.688044e+001
         vertex -7.078122e+000 -9.000000e+000 1.747448e+001
         vertex -5.750000e+000 -9.000000e+000 1.575000e+001
      endloop
   endfacet
   facet normal 0.000000e+000 -1.000000e+000 -0.000000e+000
      outer loop
         vertex -5.511774e+000 -9.000000e+000 1.111956e+001
         vertex -5.750000e+000 -9.000000e+000 1.225000e+001
         vertex -7.078122e+000 -9.000000e+000 1.052552e+001
      endloop
   endfacet
   facet normal -9.716594e-001 -0.000000e+000 -2.363853e-001
      outer loop
         vertex -4.391146e+000 -1.119854e+001 1.560780e+001
         vertex -4.000000e+000 -9.000000e+000 1.400000e+001
         vertex -4.000000e+000 -1.150000e+001 1.400000e+001
      endloop
   endfacet
   facet normal -7.485013e-001 -5.028503e-003 -6.631143e-001
      outer loop
         vertex -5.477094e+000 -1.096446e+001 1.685620e+001
         vertex -5.511774e+000 -9.000000e+000 1.688044e+001
         vertex -4.400904e+000 -9.000000e+000 1.562653e+001
      endloop
   endfacet
   facet normal 1.205308e-001 -1.034390e-002 -9.926557e-001
      outer loop
         vertex -8.660768e+000 -1.088089e+001 1.730191e+001
         vertex -8.741117e+000 -9.000000e+000 1.727256e+001
         vertex -7.078122e+000 -9.000000e+000 1.747448e+001
      endloop
   endfacet
   facet normal 8.853893e-001 -1.226586e-002 -4.646885e-001
      outer loop
         vertex -1.086526e+001 -1.131967e+001 1.496178e+001
         vertex -1.089830e+001 -9.000000e+000 1.483760e+001
         vertex -1.011979e+001 -9.000000e+000 1.632093e+001
      endloop
   endfacet
   facet normal 8.853852e-001 -1.264491e-002 4.646861e-001
      outer loop
         vertex -1.022987e+001 -1.191070e+001 1.180961e+001
         vertex -1.011979e+001 -9.000000e+000 1.167907e+001
         vertex -1.089830e+001 -9.000000e+000 1.316240e+001
      endloop
   endfacet
   facet normal 1.205240e-001 -1.418662e-002 9.926090e-001
      outer loop
         vertex -7.290843e+000 -1.215508e+001 1.050626e+001
         vertex -7.078122e+000 -9.000000e+000 1.052552e+001
         vertex -8.741117e+000 -9.000000e+000 1.072744e+001
      endloop
   endfacet
   facet normal -7.483845e-001 -1.836434e-002 6.630108e-001
      outer loop
         vertex -4.528568e+000 -1.184678e+001 1.215051e+001
         vertex -4.400904e+000 -9.000000e+000 1.237347e+001
         vertex -5.511774e+000 -9.000000e+000 1.111956e+001
      endloop
   endfacet
   facet normal -9.992104e-001 0.000000e+000 3.973244e-002
      outer loop
         vertex -4.011051e+000 -1.155211e+001 1.372209e+001
         vertex -4.000000e+000 -1.150000e+001 1.400000e+001
         vertex -4.000000e+000 -9.000000e+000 1.400000e+001
      endloop
   endfacet
   facet normal -7.014369e-001 1.579310e-002 7.125565e-001
      outer loop
         vertex -5.511774e+000 -9.000000e+000 1.111956e+001
         vertex -5.709929e+000 -1.206392e+001 1.099240e+001
         vertex -4.528568e+000 -1.184678e+001 1.215051e+001
      endloop
   endfacet
   facet normal 1.782435e-001 1.295540e-002 9.839011e-001
      outer loop
         vertex -8.741117e+000 -9.000000e+000 1.072744e+001
         vertex -8.918731e+000 -1.209992e+001 1.080044e+001
         vertex -7.290843e+000 -1.215508e+001 1.050626e+001
      endloop
   endfacet
   facet normal 9.065990e-001 1.215010e-002 4.218183e-001
      outer loop
         vertex -1.089830e+001 -9.000000e+000 1.316240e+001
         vertex -1.093099e+001 -1.162967e+001 1.330841e+001
         vertex -1.022987e+001 -1.191070e+001 1.180961e+001
      endloop
   endfacet
   facet normal 8.683267e-001 1.148156e-002 -4.958597e-001
      outer loop
         vertex -1.011979e+001 -9.000000e+000 1.632093e+001
         vertex -1.004750e+001 -1.104999e+001 1.640005e+001
         vertex -1.086526e+001 -1.131967e+001 1.496178e+001
      endloop
   endfacet
   facet normal 9.918959e-002 7.831891e-003 -9.950377e-001
      outer loop
         vertex -7.078122e+000 -9.000000e+000 1.747448e+001
         vertex -7.014910e+000 -1.085008e+001 1.746622e+001
         vertex -8.660768e+000 -1.088089e+001 1.730191e+001
      endloop
   endfacet
   facet normal -7.542788e-001 2.245201e-003 -6.565505e-001
      outer loop
         vertex -4.400904e+000 -9.000000e+000 1.562653e+001
         vertex -4.391146e+000 -1.119854e+001 1.560780e+001
         vertex -5.477094e+000 -1.096446e+001 1.685620e+001
      endloop
   endfacet
   facet normal -3.684071e-001 4.971413e-003 -9.296513e-001
      outer loop
         vertex -7.014910e+000 -1.085008e+001 1.746622e+001
         vertex -5.511774e+000 -9.000000e+000 1.688044e+001
         vertex -5.477094e+000 -1.096446e+001 1.685620e+001
      endloop
   endfacet
   facet normal 6.110154e-001 1.238949e-002 7.915218e-001
      outer loop
         vertex -8.918731e+000 -1.209992e+001 1.080044e+001
         vertex -1.011979e+001 -9.000000e+000 1.167907e+001
         vertex -1.022987e+001 -1.191070e+001 1.180961e+001
      endloop
   endfacet
   facet normal -9.707100e-001 -2.185052e-002 2.392585e-001
      outer loop
         vertex -4.400904e+000 -9.000000e+000 1.237347e+001
         vertex -4.011051e+000 -1.155211e+001 1.372209e+001
         vertex -4.000000e+000 -9.000000e+000 1.400000e+001
      endloop
   endfacet
   facet normal 9.999227e-001 -1.243207e-002 0.000000e+000
      outer loop
         vertex -1.089830e+001 -9.000000e+000 1.483760e+001
         vertex -1.093099e+001 -1.162967e+001 1.330841e+001
         vertex -1.089830e+001 -9.000000e+000 1.316240e+001
      endloop
   endfacet
   facet normal -9.709393e-001 -2.270604e-003 -2.393150e-001
      outer loop
         vertex -4.000000e+000 -9.000000e+000 1.400000e+001
         vertex -4.391146e+000 -1.119854e+001 1.560780e+001
         vertex -4.400904e+000 -9.000000e+000 1.562653e+001
      endloop
   endfacet
   facet normal 9.990473e-001 1.198112e-002 -4.196335e-002
      outer loop
         vertex -1.086526e+001 -1.131967e+001 1.496178e+001
         vertex -1.093099e+001 -1.162967e+001 1.330841e+001
         vertex -1.089830e+001 -9.000000e+000 1.483760e+001
      endloop
   endfacet
   facet normal -3.545940e-001 -7.940576e-003 -9.349867e-001
      outer loop
         vertex -7.014910e+000 -1.085008e+001 1.746622e+001
         vertex -7.078122e+000 -9.000000e+000 1.747448e+001
         vertex -5.511774e+000 -9.000000e+000 1.688044e+001
      endloop
   endfacet
   facet normal 5.680158e-001 -1.316786e-002 8.229123e-001
      outer loop
         vertex -8.918731e+000 -1.209992e+001 1.080044e+001
         vertex -8.741117e+000 -9.000000e+000 1.072744e+001
         vertex -1.011979e+001 -9.000000e+000 1.167907e+001
      endloop
   endfacet
   facet normal -9.506853e-001 1.838549e-002 3.096117e-001
      outer loop
         vertex -4.400904e+000 -9.000000e+000 1.237347e+001
         vertex -4.528568e+000 -1.184678e+001 1.215051e+001
         vertex -4.011051e+000 -1.155211e+001 1.372209e+001
      endloop
   endfacet
   facet normal 5.442955e-001 1.015973e-002 -8.388320e-001
      outer loop
         vertex -8.741117e+000 -9.000000e+000 1.727256e+001
         vertex -8.660768e+000 -1.088089e+001 1.730191e+001
         vertex -1.004750e+001 -1.104999e+001 1.640005e+001
      endloop
   endfacet
   facet normal -3.545600e-001 -1.586803e-002 9.348986e-001
      outer loop
         vertex -7.078122e+000 -9.000000e+000 1.052552e+001
         vertex -5.709929e+000 -1.206392e+001 1.099240e+001
         vertex -5.511774e+000 -9.000000e+000 1.111956e+001
      endloop
   endfacet
   facet normal -2.946368e-001 1.403086e-002 9.555063e-001
      outer loop
         vertex -7.290843e+000 -1.215508e+001 1.050626e+001
         vertex -5.709929e+000 -1.206392e+001 1.099240e+001
         vertex -7.078122e+000 -9.000000e+000 1.052552e+001
      endloop
   endfacet
   facet normal 5.680259e-001 -1.173216e-002 -8.229270e-001
      outer loop
         vertex -1.004750e+001 -1.104999e+001 1.640005e+001
         vertex -1.011979e+001 -9.000000e+000 1.632093e+001
         vertex -8.741117e+000 -9.000000e+000 1.727256e+001
      endloop
   endfacet
   facet normal 0.000000e+000 1.000000e+000 0.000000e+000
      outer loop
         vertex -1.500000e+001 0.000000e+000 2.200000e+001
         vertex 0.000000e+000 0.000000e+000 2.200000e+001
         vertex -9.250000e+000 0.000000e+000 1.575000e+001
      endloop
   endfacet
   facet normal 0.000000e+000 1.000000e+000 0.000000e+000
      outer loop
         vertex 0.000000e+000 0.000000e+000 6.000000e+000
         vertex -1.500000e+001 0.000000e+000 6.000000e+000
         vertex -9.250000e+000 0.000000e+000 1.225000e+001
      endloop
   endfacet
   facet normal 0.000000e+000 1.000000e+000 0.000000e+000
      outer loop
         vertex -6.159422e+000 0.000000e+000 1.287512e+001
         vertex -5.750000e+000 0.000000e+000 1.400000e+001
         vertex -5.750000e+000 0.000000e+000 1.225000e+001
      endloop
   endfacet
   facet normal -0.000000e+000 1.000000e+000 0.000000e+000
      outer loop
         vertex -6.159422e+000 0.000000e+000 1.512488e+001
         vertex -7.196115e+000 0.000000e+000 1.572341e+001
         vertex -5.750000e+000 0.000000e+000 1.575000e+001
      endloop
   endfacet
   facet normal 0.000000e+000 1.000000e+000 -0.000000e+000
      outer loop
         vertex -8.375000e+000 0.000000e+000 1.551554e+001
         vertex -9.144462e+000 0.000000e+000 1.459854e+001
         vertex -9.250000e+000 0.000000e+000 1.575000e+001
      endloop
   endfacet
   facet normal 0.000000e+000 1.000000e+000 0.000000e+000
      outer loop
         vertex -9.144462e+000 0.000000e+000 1.340146e+001
         vertex -8.375000e+000 0.000000e+000 1.248446e+001
         vertex -9.250000e+000 0.000000e+000 1.225000e+001
      endloop
   endfacet
   facet normal 0.000000e+000 1.000000e+000 0.000000e+000
      outer loop
         vertex -7.196115e+000 0.000000e+000 1.227659e+001
         vertex -6.159422e+000 0.000000e+000 1.287512e+001
         vertex -5.750000e+000 0.000000e+000 1.225000e+001
      endloop
   endfacet
   facet normal 0.000000e+000 1.000000e+000 0.000000e+000
      outer loop
         vertex -9.250000e+000 0.000000e+000 1.225000e+001
         vertex -9.250000e+000 0.000000e+000 1.575000e+001
         vertex -9.144462e+000 0.000000e+000 1.459854e+001
      endloop
   endfacet
   facet normal 0.000000e+000 1.000000e+000 0.000000e+000
      outer loop
         vertex -5.750000e+000 0.000000e+000 1.225000e+001
         vertex -9.250000e+000 0.000000e+000 1.225000e+001
         vertex -7.196115e+000 0.000000e+000 1.227659e+001
      endloop
   endfacet
   facet normal 0.000000e+000 1.000000e+000 0.000000e+000
      outer loop
         vertex -1.500000e+001 0.000000e+000 2.200000e+001
         vertex -9.250000e+000 0.000000e+000 1.575000e+001
         vertex -9.250000e+000 0.000000e+000 1.225000e+001
      endloop
   endfacet
   facet normal 0.000000e+000 1.000000e+000 0.000000e+000
      outer loop
         vertex -5.750000e+000 0.000000e+000 1.225000e+001
         vertex -5.750000e+000 0.000000e+000 1.400000e+001
         vertex 0.000000e+000 0.000000e+000 6.000000e+000
      endloop
   endfacet
   facet normal 0.000000e+000 1.000000e+000 -0.000000e+000
      outer loop
         vertex -5.750000e+000 0.000000e+000 1.575000e+001
         vertex -7.196115e+000 0.000000e+000 1.572341e+001
         vertex -9.250000e+000 0.000000e+000 1.575000e+001
      endloop
   endfacet
   facet normal 0.000000e+000 1.000000e+000 0.000000e+000
      outer loop
         vertex -9.250000e+000 0.000000e+000 1.225000e+001
         vertex -8.375000e+000 0.000000e+000 1.248446e+001
         vertex -7.196115e+000 0.000000e+000 1.227659e+001
      endloop
   endfacet
   facet normal 0.000000e+000 1.000000e+000 0.000000e+000
      outer loop
         vertex -5.750000e+000 0.000000e+000 1.225000e+001
         vertex 0.000000e+000 0.000000e+000 6.000000e+000
         vertex -9.250000e+000 0.000000e+000 1.225000e+001
      endloop
   endfacet
   facet normal 0.000000e+000 1.000000e+000 -0.000000e+000
      outer loop
         vertex 0.000000e+000 0.000000e+000 2.200000e+001
         vertex 0.000000e+000 0.000000e+000 6.000000e+000
         vertex -5.750000e+000 0.000000e+000 1.400000e+001
      endloop
   endfacet
   facet normal -0.000000e+000 1.000000e+000 0.000000e+000
      outer loop
         vertex -5.750000e+000 0.000000e+000 1.400000e+001
         vertex -6.159422e+000 0.000000e+000 1.512488e+001
         vertex -5.750000e+000 0.000000e+000 1.575000e+001
      endloop
   endfacet
   facet normal 0.000000e+000 1.000000e+000 -0.000000e+000
      outer loop
         vertex -9.144462e+000 0.000000e+000 1.459854e+001
         vertex -9.144462e+000 0.000000e+000 1.340146e+001
         vertex -9.250000e+000 0.000000e+000 1.225000e+001
      endloop
   endfacet
   facet normal 0.000000e+000 1.000000e+000 0.000000e+000
      outer loop
         vertex -9.250000e+000 0.000000e+000 1.575000e+001
         vertex 0.000000e+000 0.000000e+000 2.200000e+001
         vertex -5.750000e+000 0.000000e+000 1.575000e+001
      endloop
   endfacet
   facet normal 0.000000e+000 1.000000e+000 0.000000e+000
      outer loop
         vertex -1.500000e+001 0.000000e+000 2.200000e+001
         vertex -9.250000e+000 0.000000e+000 1.225000e+001
         vertex -1.500000e+001 0.000000e+000 6.000000e+000
      endloop
   endfacet
   facet normal 0.000000e+000 1.000000e+000 0.000000e+000
      outer loop
         vertex -5.750000e+000 0.000000e+000 1.575000e+001
         vertex 0.000000e+000 0.000000e+000 2.200000e+001
         vertex -5.750000e+000 0.000000e+000 1.400000e+001
      endloop
   endfacet
   facet normal 0.000000e+000 1.000000e+000 -0.000000e+000
      outer loop
         vertex -7.196115e+000 0.000000e+000 1.572341e+001
         vertex -8.375000e+000 0.000000e+000 1.551554e+001
         vertex -9.250000e+000 0.000000e+000 1.575000e+001
      endloop
   endfacet
   facet normal 0.000000e+000 1.000000e+000 0.000000e+000
      outer loop
         vertex -1.500000e+001 0.000000e+000 -6.000000e+000
         vertex 0.000000e+000 0.000000e+000 -6.000000e+000
         vertex -9.250000e+000 0.000000e+000 -1.225000e+001
      endloop
   endfacet
   facet normal 0.000000e+000 1.000000e+000 0.000000e+000
      outer loop
         vertex 0.000000e+000 0.000000e+000 -2.200000e+001
         vertex -1.500000e+001 0.000000e+000 -2.200000e+001
         vertex -9.250000e+000 0.000000e+000 -1.575000e+001
      endloop
   endfacet
   facet normal 0.000000e+000 1.000000e+000 0.000000e+000
      outer loop
         vertex -6.159422e+000 0.000000e+000 -1.512488e+001
         vertex -5.750000e+000 0.000000e+000 -1.400000e+001
         vertex -5.750000e+000 0.000000e+000 -1.575000e+001
      endloop
   endfacet
   facet normal -0.000000e+000 1.000000e+000 0.000000e+000
      outer loop
         vertex -6.159422e+000 0.000000e+000 -1.287512e+001
         vertex -7.196115e+000 0.000000e+000 -1.227659e+001
         vertex -5.750000e+000 0.000000e+000 -1.225000e+001
      endloop
   endfacet
   facet normal 0.000000e+000 1.000000e+000 -0.000000e+000
      outer loop
         vertex -8.375000e+000 0.000000e+000 -1.248446e+001
         vertex -9.144462e+000 0.000000e+000 -1.340146e+001
         vertex -9.250000e+000 0.000000e+000 -1.225000e+001
      endloop
   endfacet
   facet normal 0.000000e+000 1.000000e+000 0.000000e+000
      outer loop
         vertex -9.144462e+000 0.000000e+000 -1.459854e+001
         vertex -8.375000e+000 0.000000e+000 -1.551554e+001
         vertex -9.250000e+000 0.000000e+000 -1.575000e+001
      endloop
   endfacet
   facet normal 0.000000e+000 1.000000e+000 0.000000e+000
      outer loop
         vertex -7.196115e+000 0.000000e+000 -1.572341e+001
         vertex -6.159422e+000 0.000000e+000 -1.512488e+001
         vertex -5.750000e+000 0.000000e+000 -1.575000e+001
      endloop
   endfacet
   facet normal 0.000000e+000 1.000000e+000 0.000000e+000
      outer loop
         vertex -9.250000e+000 0.000000e+000 -1.575000e+001
         vertex -9.250000e+000 0.000000e+000 -1.225000e+001
         vertex -9.144462e+000 0.000000e+000 -1.340146e+001
      endloop
   endfacet
   facet normal 0.000000e+000 1.000000e+000 0.000000e+000
      outer loop
         vertex -5.750000e+000 0.000000e+000 -1.575000e+001
         vertex -9.250000e+000 0.000000e+000 -1.575000e+001
         vertex -7.196115e+000 0.000000e+000 -1.572341e+001
      endloop
   endfacet
   facet normal 0.000000e+000 1.000000e+000 0.000000e+000
      outer loop
         vertex -1.500000e+001 0.000000e+000 -6.000000e+000
         vertex -9.250000e+000 0.000000e+000 -1.225000e+001
         vertex -9.250000e+000 0.000000e+000 -1.575000e+001
      endloop
   endfacet
   facet normal 0.000000e+000 1.000000e+000 0.000000e+000
      outer loop
         vertex -5.750000e+000 0.000000e+000 -1.575000e+001
         vertex -5.750000e+000 0.000000e+000 -1.400000e+001
         vertex 0.000000e+000 0.000000e+000 -2.200000e+001
      endloop
   endfacet
   facet normal 0.000000e+000 1.000000e+000 -0.000000e+000
      outer loop
         vertex -5.750000e+000 0.000000e+000 -1.225000e+001
         vertex -7.196115e+000 0.000000e+000 -1.227659e+001
         vertex -9.250000e+000 0.000000e+000 -1.225000e+001
      endloop
   endfacet
   facet normal 0.000000e+000 1.000000e+000 0.000000e+000
      outer loop
         vertex -9.250000e+000 0.000000e+000 -1.575000e+001
         vertex -8.375000e+000 0.000000e+000 -1.551554e+001
         vertex -7.196115e+000 0.000000e+000 -1.572341e+001
      endloop
   endfacet
   facet normal 0.000000e+000 1.000000e+000 0.000000e+000
      outer loop
         vertex -5.750000e+000 0.000000e+000 -1.575000e+001
         vertex 0.000000e+000 0.000000e+000 -2.200000e+001
         vertex -9.250000e+000 0.000000e+000 -1.575000e+001
      endloop
   endfacet
   facet normal 0.000000e+000 1.000000e+000 -0.000000e+000
      outer loop
         vertex 0.000000e+000 0.000000e+000 -6.000000e+000
         vertex 0.000000e+000 0.000000e+000 -2.200000e+001
         vertex -5.750000e+000 0.000000e+000 -1.400000e+001
      endloop
   endfacet
   facet normal -0.000000e+000 1.000000e+000 0.000000e+000
      outer loop
         vertex -5.750000e+000 0.000000e+000 -1.400000e+001
         vertex -6.159422e+000 0.000000e+000 -1.287512e+001
         vertex -5.750000e+000 0.000000e+000 -1.225000e+001
      endloop
   endfacet
   facet normal 0.000000e+000 1.000000e+000 -0.000000e+000
      outer loop
         vertex -9.144462e+000 0.000000e+000 -1.340146e+001
         vertex -9.144462e+000 0.000000e+000 -1.459854e+001
         vertex -9.250000e+000 0.000000e+000 -1.575000e+001
      endloop
   endfacet
   facet normal 0.000000e+000 1.000000e+000 0.000000e+000
      outer loop
         vertex -9.250000e+000 0.000000e+000 -1.225000e+001
         vertex 0.000000e+000 0.000000e+000 -6.000000e+000
         vertex -5.750000e+000 0.000000e+000 -1.225000e+001
      endloop
   endfacet
   facet normal 0.000000e+000 1.000000e+000 0.000000e+000
      outer loop
         vertex -1.500000e+001 0.000000e+000 -6.000000e+000
         vertex -9.250000e+000 0.000000e+000 -1.575000e+001
         vertex -1.500000e+001 0.000000e+000 -2.200000e+001
      endloop
   endfacet
   facet normal 0.000000e+000 1.000000e+000 0.000000e+000
      outer loop
         vertex -5.750000e+000 0.000000e+000 -1.225000e+001
         vertex 0.000000e+000 0.000000e+000 -6.000000e+000
         vertex -5.750000e+000 0.000000e+000 -1.400000e+001
      endloop
   endfacet
   facet normal 0.000000e+000 1.000000e+000 -0.000000e+000
      outer loop
         vertex -7.196115e+000 0.000000e+000 -1.227659e+001
         vertex -8.375000e+000 0.000000e+000 -1.248446e+001
         vertex -9.250000e+000 0.000000e+000 -1.225000e+001
      endloop
   endfacet
   facet normal 1.000000e+000 0.000000e+000 0.000000e+000
      outer loop
         vertex 0.000000e+000 -1.000000e+001 -6.000000e+000
         vertex 0.000000e+000 -1.300000e+001 6.000000e+000
         vertex 0.000000e+000 -1.300000e+001 -6.000000e+000
      endloop
   endfacet
   facet normal 1.000000e+000 0.000000e+000 0.000000e+000
      outer loop
         vertex 0.000000e+000 0.000000e+000 6.000000e+000
         vertex 0.000000e+000 0.000000e+000 2.200000e+001
         vertex 0.000000e+000 -1.000000e+001 2.200000e+001
      endloop
   endfacet
   facet normal 1.000000e+000 0.000000e+000 -0.000000e+000
      outer loop
         vertex 0.000000e+000 -1.300000e+001 6.000000e+000
         vertex 0.000000e+000 -1.000000e+001 -6.000000e+000
         vertex 0.000000e+000 -1.000000e+001 6.000000e+000
      endloop
   endfacet
   facet normal 1.000000e+000 0.000000e+000 -0.000000e+000
      outer loop
         vertex 0.000000e+000 -1.000000e+001 -6.000000e+000
         vertex 0.000000e+000 0.000000e+000 -2.200000e+001
         vertex 0.000000e+000 0.000000e+000 -6.000000e+000
      endloop
   endfacet
   facet normal 1.000000e+000 0.000000e+000 0.000000e+000
      outer loop
         vertex 0.000000e+000 -1.000000e+001 -2.200000e+001
         vertex 0.000000e+000 -1.000000e+001 -6.000000e+000
         vertex 0.000000e+000 -1.300000e+001 -6.000000e+000
      endloop
   endfacet
   facet normal 1.000000e+000 0.000000e+000 0.000000e+000
      outer loop
         vertex 0.000000e+000 -1.000000e+001 -2.200000e+001
         vertex 0.000000e+000 0.000000e+000 -2.200000e+001
         vertex 0.000000e+000 -1.000000e+001 -6.000000e+000
      endloop
   endfacet
   facet normal 1.000000e+000 0.000000e+000 0.000000e+000
      outer loop
         vertex 0.000000e+000 -1.000000e+001 6.000000e+000
         vertex 0.000000e+000 -1.000000e+001 2.200000e+001
         vertex 0.000000e+000 -1.300000e+001 6.000000e+000
      endloop
   endfacet
   facet normal 1.000000e+000 0.000000e+000 0.000000e+000
      outer loop
         vertex 0.000000e+000 -1.000000e+001 6.000000e+000
         vertex 0.000000e+000 0.000000e+000 6.000000e+000
         vertex 0.000000e+000 -1.000000e+001 2.200000e+001
      endloop
   endfacet
   facet normal 0.000000e+000 -0.000000e+000 1.000000e+000
      outer loop
         vertex -1.500000e+001 -1.000000e+001 2.200000e+001
         vertex 0.000000e+000 -1.000000e+001 2.200000e+001
         vertex 0.000000e+000 0.000000e+000 2.200000e+001
      endloop
   endfacet
   facet normal 0.000000e+000 0.000000e+000 1.000000e+000
      outer loop
         vertex -1.500000e+001 0.000000e+000 2.200000e+001
         vertex -1.500000e+001 -1.000000e+001 2.200000e+001
         vertex 0.000000e+000 0.000000e+000 2.200000e+001
      endloop
   endfacet
   facet normal -1.000000e+000 0.000000e+000 0.000000e+000
      outer loop
         vertex -1.500000e+001 -1.000000e+001 -2.200000e+001
         vertex -1.500000e+001 -1.300000e+001 -6.000000e+000
         vertex -1.500000e+001 -1.000000e+001 -6.000000e+000
      endloop
   endfacet
   facet normal -1.000000e+000 0.000000e+000 -0.000000e+000
      outer loop
         vertex -1.500000e+001 -1.300000e+001 6.000000e+000
         vertex -1.500000e+001 -1.000000e+001 2.200000e+001
         vertex -1.500000e+001 -1.000000e+001 6.000000e+000
      endloop
   endfacet
   facet normal -1.000000e+000 0.000000e+000 0.000000e+000
      outer loop
         vertex -1.500000e+001 0.000000e+000 2.200000e+001
         vertex -1.500000e+001 0.000000e+000 6.000000e+000
         vertex -1.500000e+001 -1.000000e+001 2.200000e+001
      endloop
   endfacet
   facet normal -1.000000e+000 -0.000000e+000 0.000000e+000
      outer loop
         vertex -1.500000e+001 -1.000000e+001 -6.000000e+000
         vertex -1.500000e+001 0.000000e+000 -6.000000e+000
         vertex -1.500000e+001 -1.000000e+001 -2.200000e+001
      endloop
   endfacet
   facet normal -1.000000e+000 0.000000e+000 0.000000e+000
      outer loop
         vertex -1.500000e+001 0.000000e+000 -2.200000e+001
         vertex -1.500000e+001 -1.000000e+001 -2.200000e+001
         vertex -1.500000e+001 0.000000e+000 -6.000000e+000
      endloop
   endfacet
   facet normal -1.000000e+000 0.000000e+000 0.000000e+000
      outer loop
         vertex -1.500000e+001 -1.000000e+001 6.000000e+000
         vertex -1.500000e+001 -1.000000e+001 2.200000e+001
         vertex -1.500000e+001 0.000000e+000 6.000000e+000
      endloop
   endfacet
   facet normal -1.000000e+000 0.000000e+000 0.000000e+000
      outer loop
         vertex -1.500000e+001 -1.300000e+001 -6.000000e+000
         vertex -1.500000e+001 -1.300000e+001 6.000000e+000
         vertex -1.500000e+001 -1.000000e+001 -6.000000e+000
      endloop
   endfacet
   facet normal -1.000000e+000 -0.000000e+000 -0.000000e+000
      outer loop
         vertex -1.500000e+001 -1.300000e+001 6.000000e+000
         vertex -1.500000e+001 -1.000000e+001 6.000000e+000
         vertex -1.500000e+001 -1.000000e+001 -6.000000e+000
      endloop
   endfacet
   facet normal 0.000000e+000 -1.000000e+000 0.000000e+000
      outer loop
         vertex -1.500000e+001 -1.300000e+001 -6.000000e+000
         vertex 0.000000e+000 -1.300000e+001 -6.000000e+000
         vertex 0.000000e+000 -1.300000e+001 6.000000e+000
      endloop
   endfacet
   facet normal 0.000000e+000 -1.000000e+000 0.000000e+000
      outer loop
         vertex -1.500000e+001 -1.300000e+001 6.000000e+000
         vertex -1.500000e+001 -1.300000e+001 -6.000000e+000
         vertex 0.000000e+000 -1.300000e+001 6.000000e+000
      endloop
   endfacet
   facet normal -0.000000e+000 -0.000000e+000 -1.000000e+000
      outer loop
         vertex -1.500000e+001 0.000000e+000 -2.200000e+001
         vertex 0.000000e+000 0.000000e+000 -2.200000e+001
         vertex 0.000000e+000 -1.000000e+001 -2.200000e+001
      endloop
   endfacet
   facet normal 0.000000e+000 0.000000e+000 -1.000000e+000
      outer loop
         vertex -1.500000e+001 -1.000000e+001 -2.200000e+001
         vertex -1.500000e+001 0.000000e+000 -2.200000e+001
         vertex 0.000000e+000 -1.000000e+001 -2.200000e+001
      endloop
   endfacet
   facet normal -0.000000e+000 -0.000000e+000 -1.000000e+000
      outer loop
         vertex -1.500000e+001 0.000000e+000 6.000000e+000
         vertex 0.000000e+000 0.000000e+000 6.000000e+000
         vertex 0.000000e+000 -1.000000e+001 6.000000e+000
      endloop
   endfacet
   facet normal 0.000000e+000 0.000000e+000 -1.000000e+000
      outer loop
         vertex -1.500000e+001 -1.000000e+001 6.000000e+000
         vertex -1.500000e+001 0.000000e+000 6.000000e+000
         vertex 0.000000e+000 -1.000000e+001 6.000000e+000
      endloop
   endfacet
   facet normal 0.000000e+000 -0.000000e+000 1.000000e+000
      outer loop
         vertex -1.500000e+001 -1.000000e+001 -6.000000e+000
         vertex 0.000000e+000 -1.000000e+001 -6.000000e+000
         vertex 0.000000e+000 0.000000e+000 -6.000000e+000
      endloop
   endfacet
   facet normal 0.000000e+000 0.000000e+000 1.000000e+000
      outer loop
         vertex -1.500000e+001 0.000000e+000 -6.000000e+000
         vertex -1.500000e+001 -1.000000e+001 -6.000000e+000
         vertex 0.000000e+000 0.000000e+000 -6.000000e+000
      endloop
   endfacet
   facet normal 0.000000e+000 1.000000e+000 0.000000e+000
      outer loop
         vertex -1.500000e+001 -1.000000e+001 6.000000e+000
         vertex 0.000000e+000 -1.000000e+001 6.000000e+000
         vertex 0.000000e+000 -1.000000e+001 -6.000000e+000
      endloop
   endfacet
   facet normal 0.000000e+000 1.000000e+000 0.000000e+000
      outer loop
         vertex -1.500000e+001 -1.000000e+001 -6.000000e+000
         vertex -1.500000e+001 -1.000000e+001 6.000000e+000
         vertex 0.000000e+000 -1.000000e+001 -6.000000e+000
      endloop
   endfacet
endsolid
