solid Cylinder
facet normal 0.0 0.0 -1.0
  outer loop
    vertex -14.117612309764715 5.068828530457485 0.0
    vertex -14.760625166264894 -2.6690718800788296 0.0
    vertex -14.948475695579626 1.242205449458857 0.0
  endloop
endfacet
facet normal 0.0 0.0 -1.0
  outer loop
    vertex -14.760625166264894 -2.6690718800788296 0.0
    vertex -14.117612309764715 5.068828530457485 0.0
    vertex -13.566862424955644 -6.3984563718389715 0.0
  endloop
endfacet
facet normal 0.0 0.0 -1.0
  outer loop
    vertex -13.566862424955644 -6.3984563718389715 0.0
    vertex -14.117612309764715 5.068828530457485 0.0
    vertex -12.324656975496785 8.55001932374065 0.0
  endloop
endfacet
facet normal 0.0 0.0 -1.0
  outer loop
    vertex -13.566862424955644 -6.3984563718389715 0.0
    vertex -12.324656975496785 8.55001932374065 0.0
    vertex -11.448540429685886 -9.69179663580741 0.0
  endloop
endfacet
facet normal 0.0 0.0 -1.0
  outer loop
    vertex -11.448540429685886 -9.69179663580741 0.0
    vertex -12.324656975496785 8.55001932374065 0.0
    vertex -9.691796635807409 11.448540429685883 0.0
  endloop
endfacet
facet normal 0.0 0.0 -1.0
  outer loop
    vertex -11.448540429685886 -9.69179663580741 0.0
    vertex -9.691796635807409 11.448540429685883 0.0
    vertex -8.550019323740651 -12.324656975496785 0.0
  endloop
endfacet
facet normal 0.0 0.0 -1.0
  outer loop
    vertex -8.550019323740651 -12.324656975496785 0.0
    vertex -9.691796635807409 11.448540429685883 0.0
    vertex -6.398456371838979 13.566862424955639 0.0
  endloop
endfacet
facet normal 0.0 0.0 -1.0
  outer loop
    vertex -8.550019323740651 -12.324656975496785 0.0
    vertex -6.398456371838979 13.566862424955639 0.0
    vertex -5.0688285304574965 -14.117612309764715 0.0
  endloop
endfacet
facet normal 0.0 0.0 -1.0
  outer loop
    vertex -5.0688285304574965 -14.117612309764715 0.0
    vertex -6.398456371838979 13.566862424955639 0.0
    vertex -2.6690718800788287 14.760625166264893 0.0
  endloop
endfacet
facet normal 0.0 0.0 -1.0
  outer loop
    vertex -5.0688285304574965 -14.117612309764715 0.0
    vertex -2.6690718800788287 14.760625166264893 0.0
    vertex -1.2422054494588557 -14.948475695579626 0.0
  endloop
endfacet
facet normal 0.0 0.0 -1.0
  outer loop
    vertex -1.2422054494588557 -14.948475695579626 0.0
    vertex -2.6690718800788287 14.760625166264893 0.0
    vertex 1.2422054494588528 14.948475695579623 0.0
  endloop
endfacet
facet normal 0.0 0.0 -1.0
  outer loop
    vertex -1.2422054494588557 -14.948475695579626 0.0
    vertex 1.2422054494588528 14.948475695579623 0.0
    vertex 2.6690718800788265 -14.760625166264893 0.0
  endloop
endfacet
facet normal 0.0 0.0 -1.0
  outer loop
    vertex 2.6690718800788265 -14.760625166264893 0.0
    vertex 1.2422054494588528 14.948475695579623 0.0
    vertex 5.068828530457488 14.117612309764715 0.0
  endloop
endfacet
facet normal 0.0 0.0 -1.0
  outer loop
    vertex 2.6690718800788265 -14.760625166264893 0.0
    vertex 5.068828530457488 14.117612309764715 0.0
    vertex 6.398456371838969 -13.566862424955643 0.0
  endloop
endfacet
facet normal 0.0 0.0 -1.0
  outer loop
    vertex 6.398456371838969 -13.566862424955643 0.0
    vertex 5.068828530457488 14.117612309764715 0.0
    vertex 8.550019323740646 12.324656975496788 0.0
  endloop
endfacet
facet normal 0.0 0.0 -1.0
  outer loop
    vertex 6.398456371838969 -13.566862424955643 0.0
    vertex 8.550019323740646 12.324656975496788 0.0
    vertex 9.69179663580741 -11.448540429685881 0.0
  endloop
endfacet
facet normal 0.0 0.0 -1.0
  outer loop
    vertex 9.69179663580741 -11.448540429685881 0.0
    vertex 8.550019323740646 12.324656975496788 0.0
    vertex 11.448540429685885 9.69179663580741 0.0
  endloop
endfacet
facet normal 0.0 0.0 -1.0
  outer loop
    vertex 9.69179663580741 -11.448540429685881 0.0
    vertex 11.448540429685885 9.69179663580741 0.0
    vertex 12.324656975496788 -8.550019323740642 0.0
  endloop
endfacet
facet normal 0.0 0.0 -1.0
  outer loop
    vertex 12.324656975496788 -8.550019323740642 0.0
    vertex 11.448540429685885 9.69179663580741 0.0
    vertex 13.566862424955643 6.398456371838981 0.0
  endloop
endfacet
facet normal 0.0 0.0 -1.0
  outer loop
    vertex 12.324656975496788 -8.550019323740642 0.0
    vertex 13.566862424955643 6.398456371838981 0.0
    vertex 14.117612309764718 -5.068828530457482 0.0
  endloop
endfacet
facet normal 0.0 0.0 -1.0
  outer loop
    vertex 14.117612309764718 -5.068828530457482 0.0
    vertex 13.566862424955643 6.398456371838981 0.0
    vertex 14.760625166264893 2.669071880078835 0.0
  endloop
endfacet
facet normal 0.0 0.0 -1.0
  outer loop
    vertex 14.117612309764718 -5.068828530457482 0.0
    vertex 14.760625166264893 2.669071880078835 0.0
    vertex 14.948475695579626 -1.2422054494588486 0.0
  endloop
endfacet
facet normal -0.0 -0.0 1.0
  outer loop
    vertex -8.550019323740651 -12.324656975496785 3.0
    vertex -10.049694778881355 -0.47672539947432085 2.9999999999999947
    vertex -11.448540429685886 -9.69179663580741 3.0
  endloop
endfacet
facet normal -0.0 -0.0 1.0
  outer loop
    vertex -10.049694778881355 -0.47672539947432085 2.9999999999999947
    vertex -8.550019323740651 -12.324656975496785 3.0
    vertex -9.708953041772036 -3.0649158504995295 2.9999999999999947
  endloop
endfacet
facet normal -0.0 -0.0 1.0
  outer loop
    vertex -9.708953041772036 -3.0649158504995295 2.9999999999999947
    vertex -8.550019323740651 -12.324656975496785 3.0
    vertex -8.709948816725738 -5.476725399474322 2.9999999999999947
  endloop
endfacet
facet normal -0.0 -0.0 1.0
  outer loop
    vertex -8.709948816725738 -5.476725399474322 2.9999999999999947
    vertex -8.550019323740651 -12.324656975496785 3.0
    vertex -7.120762590746828 -7.547793211339794 2.9999999999999947
  endloop
endfacet
facet normal -0.0 -0.0 1.0
  outer loop
    vertex -7.120762590746828 -7.547793211339794 2.9999999999999947
    vertex -8.550019323740651 -12.324656975496785 3.0
    vertex -5.0688285304574965 -14.117612309764715 3.0
  endloop
endfacet
facet normal -0.0 -0.0 1.0
  outer loop
    vertex -7.120762590746828 -7.547793211339794 2.9999999999999947
    vertex -5.0688285304574965 -14.117612309764715 3.0
    vertex -5.049694778881353 -9.136979437318706 2.9999999999999947
  endloop
endfacet
facet normal -0.0 -0.0 1.0
  outer loop
    vertex -5.049694778881353 -9.136979437318706 2.9999999999999947
    vertex -5.0688285304574965 -14.117612309764715 3.0
    vertex -1.2422054494588557 -14.948475695579626 3.0
  endloop
endfacet
facet normal -0.0 -0.0 1.0
  outer loop
    vertex -5.049694778881353 -9.136979437318706 2.9999999999999947
    vertex -1.2422054494588557 -14.948475695579626 3.0
    vertex -2.637885229906562 -10.135983662365001 2.9999999999999947
  endloop
endfacet
facet normal -0.0 -0.0 1.0
  outer loop
    vertex -2.637885229906562 -10.135983662365001 2.9999999999999947
    vertex -1.2422054494588557 -14.948475695579626 3.0
    vertex -0.049694778881356164 -10.476725399474319 2.9999999999999947
  endloop
endfacet
facet normal -0.0 -0.0 1.0
  outer loop
    vertex -0.049694778881356164 -10.476725399474319 2.9999999999999947
    vertex -1.2422054494588557 -14.948475695579626 3.0
    vertex 2.6690718800788265 -14.760625166264893 3.0
  endloop
endfacet
facet normal -0.0 -0.0 1.0
  outer loop
    vertex -0.049694778881356164 -10.476725399474319 2.9999999999999947
    vertex 2.6690718800788265 -14.760625166264893 3.0
    vertex 2.5384956721438523 -10.135983662365001 2.9999999999999947
  endloop
endfacet
facet normal -0.0 -0.0 1.0
  outer loop
    vertex 2.5384956721438523 -10.135983662365001 2.9999999999999947
    vertex 2.6690718800788265 -14.760625166264893 3.0
    vertex 4.950305221118644 -9.136979437318704 2.9999999999999947
  endloop
endfacet
facet normal -0.0 -0.0 1.0
  outer loop
    vertex 4.950305221118644 -9.136979437318704 2.9999999999999947
    vertex 2.6690718800788265 -14.760625166264893 3.0
    vertex 6.398456371838969 -13.566862424955643 3.0
  endloop
endfacet
facet normal -0.0 -0.0 1.0
  outer loop
    vertex 4.950305221118644 -9.136979437318704 2.9999999999999947
    vertex 6.398456371838969 -13.566862424955643 3.0
    vertex 7.021373032984116 -7.547793211339792 2.9999999999999947
  endloop
endfacet
facet normal -0.0 -0.0 1.0
  outer loop
    vertex 7.021373032984116 -7.547793211339792 2.9999999999999947
    vertex 6.398456371838969 -13.566862424955643 3.0
    vertex 9.69179663580741 -11.448540429685881 3.0
  endloop
endfacet
facet normal -0.0 -0.0 1.0
  outer loop
    vertex 7.021373032984116 -7.547793211339792 2.9999999999999947
    vertex 9.69179663580741 -11.448540429685881 3.0
    vertex 8.610559258963027 -5.476725399474319 2.9999999999999947
  endloop
endfacet
facet normal -0.0 -0.0 1.0
  outer loop
    vertex 8.610559258963027 -5.476725399474319 2.9999999999999947
    vertex 9.69179663580741 -11.448540429685881 3.0
    vertex 9.609563484009323 -3.0649158504995264 2.9999999999999947
  endloop
endfacet
facet normal -0.0 -0.0 1.0
  outer loop
    vertex 9.609563484009323 -3.0649158504995264 2.9999999999999947
    vertex 9.69179663580741 -11.448540429685881 3.0
    vertex 9.95030522111864 -0.47672539947431963 2.9999999999999947
  endloop
endfacet
facet normal -0.0 -0.0 1.0
  outer loop
    vertex 9.95030522111864 -0.47672539947431963 2.9999999999999947
    vertex 9.69179663580741 -11.448540429685881 3.0
    vertex 12.324656975496788 -8.550019323740642 3.0
  endloop
endfacet
facet normal -0.0 -0.0 1.0
  outer loop
    vertex 9.95030522111864 -0.47672539947431963 2.9999999999999947
    vertex 12.324656975496788 -8.550019323740642 3.0
    vertex 11.448540429685885 9.69179663580741 3.0
  endloop
endfacet
facet normal -0.0 -0.0 1.0
  outer loop
    vertex 11.448540429685885 9.69179663580741 3.0
    vertex 12.324656975496788 -8.550019323740642 3.0
    vertex 13.566862424955643 6.398456371838981 3.0
  endloop
endfacet
facet normal -0.0 -0.0 1.0
  outer loop
    vertex 13.566862424955643 6.398456371838981 3.0
    vertex 12.324656975496788 -8.550019323740642 3.0
    vertex 14.117612309764718 -5.068828530457482 3.0
  endloop
endfacet
facet normal -0.0 -0.0 1.0
  outer loop
    vertex 13.566862424955643 6.398456371838981 3.0
    vertex 14.117612309764718 -5.068828530457482 3.0
    vertex 14.760625166264893 2.669071880078835 3.0
  endloop
endfacet
facet normal -0.0 -0.0 1.0
  outer loop
    vertex 14.760625166264893 2.669071880078835 3.0
    vertex 14.117612309764718 -5.068828530457482 3.0
    vertex 14.948475695579626 -1.2422054494588486 3.0
  endloop
endfacet
facet normal -0.0 -0.0 1.0
  outer loop
    vertex -14.760625166264894 -2.6690718800788296 3.0
    vertex -14.117612309764715 5.068828530457485 3.0
    vertex -14.948475695579626 1.242205449458857 3.0
  endloop
endfacet
facet normal -0.0 -0.0 1.0
  outer loop
    vertex -14.117612309764715 5.068828530457485 3.0
    vertex -14.760625166264894 -2.6690718800788296 3.0
    vertex -13.566862424955644 -6.3984563718389715 3.0
  endloop
endfacet
facet normal -0.0 -0.0 1.0
  outer loop
    vertex -14.117612309764715 5.068828530457485 3.0
    vertex -13.566862424955644 -6.3984563718389715 3.0
    vertex -12.324656975496785 8.55001932374065 3.0
  endloop
endfacet
facet normal -0.0 -0.0 1.0
  outer loop
    vertex -12.324656975496785 8.55001932374065 3.0
    vertex -13.566862424955644 -6.3984563718389715 3.0
    vertex -11.448540429685886 -9.69179663580741 3.0
  endloop
endfacet
facet normal -0.0 -0.0 1.0
  outer loop
    vertex -12.324656975496785 8.55001932374065 3.0
    vertex -11.448540429685886 -9.69179663580741 3.0
    vertex -9.691796635807409 11.448540429685883 3.0
  endloop
endfacet
facet normal -0.0 -0.0 1.0
  outer loop
    vertex -9.691796635807409 11.448540429685883 3.0
    vertex -11.448540429685886 -9.69179663580741 3.0
    vertex -10.049694778881355 -0.47672539947432085 2.9999999999999947
  endloop
endfacet
facet normal -0.0 -0.0 1.0
  outer loop
    vertex -9.691796635807409 11.448540429685883 3.0
    vertex -10.049694778881355 -0.47672539947432085 2.9999999999999947
    vertex -9.708953041772038 2.1114650515508835 2.9999999999999947
  endloop
endfacet
facet normal -0.0 -0.0 1.0
  outer loop
    vertex -9.691796635807409 11.448540429685883 3.0
    vertex -9.708953041772038 2.1114650515508835 2.9999999999999947
    vertex -8.709948816725744 4.523274600525677 2.9999999999999947
  endloop
endfacet
facet normal -0.0 -0.0 1.0
  outer loop
    vertex -9.691796635807409 11.448540429685883 3.0
    vertex -8.709948816725744 4.523274600525677 2.9999999999999947
    vertex -6.398456371838979 13.566862424955639 3.0
  endloop
endfacet
facet normal -0.0 -0.0 1.0
  outer loop
    vertex -6.398456371838979 13.566862424955639 3.0
    vertex -8.709948816725744 4.523274600525677 2.9999999999999947
    vertex -7.120762590746833 6.594342412391151 2.9999999999999947
  endloop
endfacet
facet normal -0.0 -0.0 1.0
  outer loop
    vertex -6.398456371838979 13.566862424955639 3.0
    vertex -7.120762590746833 6.594342412391151 2.9999999999999947
    vertex -5.04969477888136 8.183528638370062 2.9999999999999947
  endloop
endfacet
facet normal -0.0 -0.0 1.0
  outer loop
    vertex -6.398456371838979 13.566862424955639 3.0
    vertex -5.04969477888136 8.183528638370062 2.9999999999999947
    vertex -2.6690718800788287 14.760625166264893 3.0
  endloop
endfacet
facet normal -0.0 -0.0 1.0
  outer loop
    vertex -2.6690718800788287 14.760625166264893 3.0
    vertex -5.04969477888136 8.183528638370062 2.9999999999999947
    vertex -2.637885229906571 9.18253286341636 2.9999999999999947
  endloop
endfacet
facet normal -0.0 -0.0 1.0
  outer loop
    vertex -2.6690718800788287 14.760625166264893 3.0
    vertex -2.637885229906571 9.18253286341636 2.9999999999999947
    vertex 1.2422054494588528 14.948475695579623 3.0
  endloop
endfacet
facet normal -0.0 -0.0 1.0
  outer loop
    vertex 1.2422054494588528 14.948475695579623 3.0
    vertex -2.637885229906571 9.18253286341636 2.9999999999999947
    vertex -0.04969477888135862 9.52327460052568 2.9999999999999947
  endloop
endfacet
facet normal -0.0 -0.0 1.0
  outer loop
    vertex 1.2422054494588528 14.948475695579623 3.0
    vertex -0.04969477888135862 9.52327460052568 2.9999999999999947
    vertex 2.5384956721438456 9.182532863416363 2.9999999999999947
  endloop
endfacet
facet normal -0.0 -0.0 1.0
  outer loop
    vertex 1.2422054494588528 14.948475695579623 3.0
    vertex 2.5384956721438456 9.182532863416363 2.9999999999999947
    vertex 5.068828530457488 14.117612309764715 3.0
  endloop
endfacet
facet normal -0.0 -0.0 1.0
  outer loop
    vertex 5.068828530457488 14.117612309764715 3.0
    vertex 2.5384956721438456 9.182532863416363 2.9999999999999947
    vertex 4.950305221118635 8.183528638370069 2.9999999999999947
  endloop
endfacet
facet normal -0.0 -0.0 1.0
  outer loop
    vertex 5.068828530457488 14.117612309764715 3.0
    vertex 4.950305221118635 8.183528638370069 2.9999999999999947
    vertex 7.021373032984115 6.594342412391156 2.9999999999999947
  endloop
endfacet
facet normal -0.0 -0.0 1.0
  outer loop
    vertex 5.068828530457488 14.117612309764715 3.0
    vertex 7.021373032984115 6.594342412391156 2.9999999999999947
    vertex 8.550019323740646 12.324656975496788 3.0
  endloop
endfacet
facet normal -0.0 -0.0 1.0
  outer loop
    vertex 8.550019323740646 12.324656975496788 3.0
    vertex 7.021373032984115 6.594342412391156 2.9999999999999947
    vertex 8.610559258963024 4.523274600525684 2.9999999999999947
  endloop
endfacet
facet normal -0.0 -0.0 1.0
  outer loop
    vertex 8.550019323740646 12.324656975496788 3.0
    vertex 8.610559258963024 4.523274600525684 2.9999999999999947
    vertex 11.448540429685885 9.69179663580741 3.0
  endloop
endfacet
facet normal -0.0 -0.0 1.0
  outer loop
    vertex 11.448540429685885 9.69179663580741 3.0
    vertex 8.610559258963024 4.523274600525684 2.9999999999999947
    vertex 9.609563484009321 2.111465051550896 2.9999999999999947
  endloop
endfacet
facet normal -0.0 -0.0 1.0
  outer loop
    vertex 11.448540429685885 9.69179663580741 3.0
    vertex 9.609563484009321 2.111465051550896 2.9999999999999947
    vertex 9.95030522111864 -0.47672539947431963 2.9999999999999947
  endloop
endfacet
facet normal 0.30485905319210066 -0.9523974788326648 0.0
  outer loop
    vertex 6.398456371838969 -13.566862424955643 3.0
    vertex 2.6690718800788265 -14.760625166264893 0.0
    vertex 6.398456371838969 -13.566862424955643 0.0
  endloop
endfacet
facet normal 0.30485905319210066 -0.9523974788326648 0.0
  outer loop
    vertex 2.6690718800788265 -14.760625166264893 0.0
    vertex 6.398456371838969 -13.566862424955643 3.0
    vertex 2.6690718800788265 -14.760625166264893 3.0
  endloop
endfacet
facet normal 0.04797262682676507 -0.9988486507351052 0.0
  outer loop
    vertex 2.6690718800788265 -14.760625166264893 3.0
    vertex -1.2422054494588557 -14.948475695579626 0.0
    vertex 2.6690718800788265 -14.760625166264893 0.0
  endloop
endfacet
facet normal 0.04797262682676507 -0.9988486507351052 0.0
  outer loop
    vertex -1.2422054494588557 -14.948475695579626 0.0
    vertex 2.6690718800788265 -14.760625166264893 3.0
    vertex -1.2422054494588557 -14.948475695579626 3.0
  endloop
endfacet
facet normal -0.21218305477830135 -0.9772299377653901 -0.0
  outer loop
    vertex -1.2422054494588557 -14.948475695579626 3.0
    vertex -5.0688285304574965 -14.117612309764715 0.0
    vertex -1.2422054494588557 -14.948475695579626 0.0
  endloop
endfacet
facet normal -0.21218305477830135 -0.9772299377653901 -0.0
  outer loop
    vertex -5.0688285304574965 -14.117612309764715 0.0
    vertex -1.2422054494588557 -14.948475695579626 3.0
    vertex -5.0688285304574965 -14.117612309764715 3.0
  endloop
endfacet
facet normal -0.457878811849304 -0.8890146194857933 -0.0
  outer loop
    vertex -5.0688285304574965 -14.117612309764715 3.0
    vertex -8.550019323740651 -12.324656975496785 0.0
    vertex -5.0688285304574965 -14.117612309764715 0.0
  endloop
endfacet
facet normal -0.457878811849304 -0.8890146194857933 -0.0
  outer loop
    vertex -8.550019323740651 -12.324656975496785 0.0
    vertex -5.0688285304574965 -14.117612309764715 3.0
    vertex -8.550019323740651 -12.324656975496785 3.0
  endloop
endfacet
facet normal -0.6723708845732893 -0.7402144240543632 -0.0
  outer loop
    vertex -8.550019323740651 -12.324656975496785 3.0
    vertex -11.448540429685886 -9.69179663580741 0.0
    vertex -8.550019323740651 -12.324656975496785 0.0
  endloop
endfacet
facet normal -0.6723708845732893 -0.7402144240543632 -0.0
  outer loop
    vertex -11.448540429685886 -9.69179663580741 0.0
    vertex -8.550019323740651 -12.324656975496785 3.0
    vertex -11.448540429685886 -9.69179663580741 3.0
  endloop
endfacet
facet normal -0.8410419926590291 -0.5409698388858013 -0.0
  outer loop
    vertex -13.566862424955644 -6.3984563718389715 3.0
    vertex -11.448540429685886 -9.69179663580741 0.0
    vertex -11.448540429685886 -9.69179663580741 3.0
  endloop
endfacet
facet normal -0.8410419926590291 -0.5409698388858013 -0.0
  outer loop
    vertex -11.448540429685886 -9.69179663580741 0.0
    vertex -13.566862424955644 -6.3984563718389715 3.0
    vertex -13.566862424955644 -6.3984563718389715 0.0
  endloop
endfacet
facet normal -0.9523974788326648 -0.30485905319210066 -0.0
  outer loop
    vertex -14.760625166264894 -2.6690718800788296 3.0
    vertex -13.566862424955644 -6.3984563718389715 0.0
    vertex -13.566862424955644 -6.3984563718389715 3.0
  endloop
endfacet
facet normal -0.9523974788326648 -0.30485905319210066 -0.0
  outer loop
    vertex -13.566862424955644 -6.3984563718389715 0.0
    vertex -14.760625166264894 -2.6690718800788296 3.0
    vertex -14.760625166264894 -2.6690718800788296 0.0
  endloop
endfacet
facet normal -0.9988486507351052 -0.0479726268267643 -0.0
  outer loop
    vertex -14.948475695579626 1.242205449458857 3.0
    vertex -14.760625166264894 -2.6690718800788296 0.0
    vertex -14.760625166264894 -2.6690718800788296 3.0
  endloop
endfacet
facet normal -0.9988486507351052 -0.0479726268267643 -0.0
  outer loop
    vertex -14.760625166264894 -2.6690718800788296 0.0
    vertex -14.948475695579626 1.242205449458857 3.0
    vertex -14.948475695579626 1.242205449458857 0.0
  endloop
endfacet
facet normal -0.97722993776539 0.21218305477830207 0.0
  outer loop
    vertex -14.117612309764715 5.068828530457485 3.0
    vertex -14.948475695579626 1.242205449458857 0.0
    vertex -14.948475695579626 1.242205449458857 3.0
  endloop
endfacet
facet normal -0.97722993776539 0.21218305477830207 0.0
  outer loop
    vertex -14.948475695579626 1.242205449458857 0.0
    vertex -14.117612309764715 5.068828530457485 3.0
    vertex -14.117612309764715 5.068828530457485 0.0
  endloop
endfacet
facet normal -0.8890146194857939 0.45787881184930307 0.0
  outer loop
    vertex -12.324656975496785 8.55001932374065 3.0
    vertex -14.117612309764715 5.068828530457485 0.0
    vertex -14.117612309764715 5.068828530457485 3.0
  endloop
endfacet
facet normal -0.8890146194857939 0.45787881184930307 0.0
  outer loop
    vertex -14.117612309764715 5.068828530457485 0.0
    vertex -12.324656975496785 8.55001932374065 3.0
    vertex -12.324656975496785 8.55001932374065 0.0
  endloop
endfacet
facet normal -0.7402144240543629 0.6723708845732896 0.0
  outer loop
    vertex -9.691796635807409 11.448540429685883 3.0
    vertex -12.324656975496785 8.55001932374065 0.0
    vertex -12.324656975496785 8.55001932374065 3.0
  endloop
endfacet
facet normal -0.7402144240543629 0.6723708845732896 0.0
  outer loop
    vertex -12.324656975496785 8.55001932374065 0.0
    vertex -9.691796635807409 11.448540429685883 3.0
    vertex -9.691796635807409 11.448540429685883 0.0
  endloop
endfacet
facet normal -0.540969838885802 0.8410419926590286 0.0
  outer loop
    vertex -9.691796635807409 11.448540429685883 3.0
    vertex -6.398456371838979 13.566862424955639 0.0
    vertex -9.691796635807409 11.448540429685883 0.0
  endloop
endfacet
facet normal -0.540969838885802 0.8410419926590286 0.0
  outer loop
    vertex -6.398456371838979 13.566862424955639 0.0
    vertex -9.691796635807409 11.448540429685883 3.0
    vertex -6.398456371838979 13.566862424955639 3.0
  endloop
endfacet
facet normal -0.3048590531921007 0.9523974788326648 0.0
  outer loop
    vertex -6.398456371838979 13.566862424955639 3.0
    vertex -2.6690718800788287 14.760625166264893 0.0
    vertex -6.398456371838979 13.566862424955639 0.0
  endloop
endfacet
facet normal -0.3048590531921007 0.9523974788326648 0.0
  outer loop
    vertex -2.6690718800788287 14.760625166264893 0.0
    vertex -6.398456371838979 13.566862424955639 3.0
    vertex -2.6690718800788287 14.760625166264893 3.0
  endloop
endfacet
facet normal -0.047972626826764356 0.9988486507351052 0.0
  outer loop
    vertex -2.6690718800788287 14.760625166264893 3.0
    vertex 1.2422054494588528 14.948475695579623 0.0
    vertex -2.6690718800788287 14.760625166264893 0.0
  endloop
endfacet
facet normal -0.047972626826764356 0.9988486507351052 0.0
  outer loop
    vertex 1.2422054494588528 14.948475695579623 0.0
    vertex -2.6690718800788287 14.760625166264893 3.0
    vertex 1.2422054494588528 14.948475695579623 3.0
  endloop
endfacet
facet normal 0.21218305477830102 0.9772299377653902 0.0
  outer loop
    vertex 1.2422054494588528 14.948475695579623 3.0
    vertex 5.068828530457488 14.117612309764715 0.0
    vertex 1.2422054494588528 14.948475695579623 0.0
  endloop
endfacet
facet normal 0.21218305477830102 0.9772299377653902 0.0
  outer loop
    vertex 5.068828530457488 14.117612309764715 0.0
    vertex 1.2422054494588528 14.948475695579623 3.0
    vertex 5.068828530457488 14.117612309764715 3.0
  endloop
endfacet
facet normal 0.45787881184930307 0.8890146194857937 0.0
  outer loop
    vertex 5.068828530457488 14.117612309764715 3.0
    vertex 8.550019323740646 12.324656975496788 0.0
    vertex 5.068828530457488 14.117612309764715 0.0
  endloop
endfacet
facet normal 0.45787881184930307 0.8890146194857937 0.0
  outer loop
    vertex 8.550019323740646 12.324656975496788 0.0
    vertex 5.068828530457488 14.117612309764715 3.0
    vertex 8.550019323740646 12.324656975496788 3.0
  endloop
endfacet
facet normal 0.672370884573289 0.7402144240543636 0.0
  outer loop
    vertex 8.550019323740646 12.324656975496788 3.0
    vertex 11.448540429685885 9.69179663580741 0.0
    vertex 8.550019323740646 12.324656975496788 0.0
  endloop
endfacet
facet normal 0.672370884573289 0.7402144240543636 0.0
  outer loop
    vertex 11.448540429685885 9.69179663580741 0.0
    vertex 8.550019323740646 12.324656975496788 3.0
    vertex 11.448540429685885 9.69179663580741 3.0
  endloop
endfacet
facet normal 0.8410419926590286 0.540969838885802 0.0
  outer loop
    vertex 11.448540429685885 9.69179663580741 0.0
    vertex 13.566862424955643 6.398456371838981 3.0
    vertex 13.566862424955643 6.398456371838981 0.0
  endloop
endfacet
facet normal 0.8410419926590286 0.540969838885802 0.0
  outer loop
    vertex 13.566862424955643 6.398456371838981 3.0
    vertex 11.448540429685885 9.69179663580741 0.0
    vertex 11.448540429685885 9.69179663580741 3.0
  endloop
endfacet
facet normal 0.9523974788326648 0.30485905319210027 0.0
  outer loop
    vertex 13.566862424955643 6.398456371838981 0.0
    vertex 14.760625166264893 2.669071880078835 3.0
    vertex 14.760625166264893 2.669071880078835 0.0
  endloop
endfacet
facet normal 0.9523974788326648 0.30485905319210027 0.0
  outer loop
    vertex 14.760625166264893 2.669071880078835 3.0
    vertex 13.566862424955643 6.398456371838981 0.0
    vertex 13.566862424955643 6.398456371838981 3.0
  endloop
endfacet
facet normal 0.9988486507351051 0.04797262682676505 0.0
  outer loop
    vertex 14.760625166264893 2.669071880078835 0.0
    vertex 14.948475695579626 -1.2422054494588486 3.0
    vertex 14.948475695579626 -1.2422054494588486 0.0
  endloop
endfacet
facet normal 0.9988486507351051 0.04797262682676505 0.0
  outer loop
    vertex 14.948475695579626 -1.2422054494588486 3.0
    vertex 14.760625166264893 2.669071880078835 0.0
    vertex 14.760625166264893 2.669071880078835 3.0
  endloop
endfacet
facet normal 0.9772299377653902 -0.21218305477830104 0.0
  outer loop
    vertex 14.948475695579626 -1.2422054494588486 0.0
    vertex 14.117612309764718 -5.068828530457482 3.0
    vertex 14.117612309764718 -5.068828530457482 0.0
  endloop
endfacet
facet normal 0.9772299377653902 -0.21218305477830104 0.0
  outer loop
    vertex 14.117612309764718 -5.068828530457482 3.0
    vertex 14.948475695579626 -1.2422054494588486 0.0
    vertex 14.948475695579626 -1.2422054494588486 3.0
  endloop
endfacet
facet normal 0.8890146194857935 -0.4578788118493035 0.0
  outer loop
    vertex 14.117612309764718 -5.068828530457482 0.0
    vertex 12.324656975496788 -8.550019323740642 3.0
    vertex 12.324656975496788 -8.550019323740642 0.0
  endloop
endfacet
facet normal 0.8890146194857935 -0.4578788118493035 0.0
  outer loop
    vertex 12.324656975496788 -8.550019323740642 3.0
    vertex 14.117612309764718 -5.068828530457482 0.0
    vertex 14.117612309764718 -5.068828530457482 3.0
  endloop
endfacet
facet normal 0.7402144240543633 -0.6723708845732891 0.0
  outer loop
    vertex 12.324656975496788 -8.550019323740642 0.0
    vertex 9.69179663580741 -11.448540429685881 3.0
    vertex 9.69179663580741 -11.448540429685881 0.0
  endloop
endfacet
facet normal 0.7402144240543633 -0.6723708845732891 0.0
  outer loop
    vertex 9.69179663580741 -11.448540429685881 3.0
    vertex 12.324656975496788 -8.550019323740642 0.0
    vertex 12.324656975496788 -8.550019323740642 3.0
  endloop
endfacet
facet normal 0.5409698388858014 -0.8410419926590289 0.0
  outer loop
    vertex 9.69179663580741 -11.448540429685881 3.0
    vertex 6.398456371838969 -13.566862424955643 0.0
    vertex 9.69179663580741 -11.448540429685881 0.0
  endloop
endfacet
facet normal 0.5409698388858014 -0.8410419926590289 0.0
  outer loop
    vertex 6.398456371838969 -13.566862424955643 0.0
    vertex 9.69179663580741 -11.448540429685881 3.0
    vertex 6.398456371838969 -13.566862424955643 3.0
  endloop
endfacet
facet normal 0.0 0.0 1.0
  outer loop
    vertex -9.708953041772036 -3.0649158504995295 22.999999999999993
    vertex -9.708953041772038 2.1114650515508835 22.999999999999993
    vertex -10.049694778881355 -0.47672539947432085 22.999999999999993
  endloop
endfacet
facet normal 0.0 0.0 1.0
  outer loop
    vertex -9.708953041772038 2.1114650515508835 22.999999999999993
    vertex -9.708953041772036 -3.0649158504995295 22.999999999999993
    vertex -8.709948816725744 4.523274600525677 22.999999999999993
  endloop
endfacet
facet normal 0.0 0.0 1.0
  outer loop
    vertex -8.709948816725744 4.523274600525677 22.999999999999993
    vertex -9.708953041772036 -3.0649158504995295 22.999999999999993
    vertex -8.709948816725738 -5.476725399474322 22.999999999999993
  endloop
endfacet
facet normal 0.0 0.0 1.0
  outer loop
    vertex -8.709948816725744 4.523274600525677 22.999999999999993
    vertex -8.709948816725738 -5.476725399474322 22.999999999999993
    vertex -7.120762590746833 6.594342412391151 22.999999999999993
  endloop
endfacet
facet normal 0.0 0.0 1.0
  outer loop
    vertex -7.120762590746833 6.594342412391151 22.999999999999993
    vertex -8.709948816725738 -5.476725399474322 22.999999999999993
    vertex -7.120762590746828 -7.547793211339794 22.999999999999993
  endloop
endfacet
facet normal 0.0 0.0 1.0
  outer loop
    vertex -7.120762590746833 6.594342412391151 22.999999999999993
    vertex -7.120762590746828 -7.547793211339794 22.999999999999993
    vertex -5.04969477888136 8.183528638370062 22.999999999999993
  endloop
endfacet
facet normal 0.0 0.0 1.0
  outer loop
    vertex -5.04969477888136 8.183528638370062 22.999999999999993
    vertex -7.120762590746828 -7.547793211339794 22.999999999999993
    vertex -5.049694778881353 -9.136979437318706 22.999999999999993
  endloop
endfacet
facet normal 0.0 0.0 1.0
  outer loop
    vertex -5.04969477888136 8.183528638370062 22.999999999999993
    vertex -5.049694778881353 -9.136979437318706 22.999999999999993
    vertex -2.637885229906571 9.18253286341636 22.999999999999993
  endloop
endfacet
facet normal 0.0 0.0 1.0
  outer loop
    vertex -2.637885229906571 9.18253286341636 22.999999999999993
    vertex -5.049694778881353 -9.136979437318706 22.999999999999993
    vertex -2.637885229906562 -10.135983662365001 22.999999999999993
  endloop
endfacet
facet normal 0.0 0.0 1.0
  outer loop
    vertex -2.637885229906571 9.18253286341636 22.999999999999993
    vertex -2.637885229906562 -10.135983662365001 22.999999999999993
    vertex -0.04969477888135862 9.52327460052568 22.999999999999993
  endloop
endfacet
facet normal 0.0 0.0 1.0
  outer loop
    vertex -0.04969477888135862 9.52327460052568 22.999999999999993
    vertex -2.637885229906562 -10.135983662365001 22.999999999999993
    vertex -0.049694778881356164 -10.476725399474319 22.999999999999993
  endloop
endfacet
facet normal 0.0 0.0 1.0
  outer loop
    vertex -0.04969477888135862 9.52327460052568 22.999999999999993
    vertex -0.049694778881356164 -10.476725399474319 22.999999999999993
    vertex 2.5384956721438456 9.182532863416363 22.999999999999993
  endloop
endfacet
facet normal 0.0 0.0 1.0
  outer loop
    vertex 2.5384956721438456 9.182532863416363 22.999999999999993
    vertex -0.049694778881356164 -10.476725399474319 22.999999999999993
    vertex 2.5384956721438523 -10.135983662365001 22.999999999999993
  endloop
endfacet
facet normal 0.0 0.0 1.0
  outer loop
    vertex 2.5384956721438456 9.182532863416363 22.999999999999993
    vertex 2.5384956721438523 -10.135983662365001 22.999999999999993
    vertex 4.950305221118635 8.183528638370069 22.999999999999993
  endloop
endfacet
facet normal 0.0 0.0 1.0
  outer loop
    vertex 4.950305221118635 8.183528638370069 22.999999999999993
    vertex 2.5384956721438523 -10.135983662365001 22.999999999999993
    vertex 4.950305221118644 -9.136979437318704 22.999999999999993
  endloop
endfacet
facet normal 0.0 0.0 1.0
  outer loop
    vertex 4.950305221118635 8.183528638370069 22.999999999999993
    vertex 4.950305221118644 -9.136979437318704 22.999999999999993
    vertex 7.021373032984115 6.594342412391156 22.999999999999993
  endloop
endfacet
facet normal 0.0 0.0 1.0
  outer loop
    vertex 7.021373032984115 6.594342412391156 22.999999999999993
    vertex 4.950305221118644 -9.136979437318704 22.999999999999993
    vertex 7.021373032984116 -7.547793211339792 22.999999999999993
  endloop
endfacet
facet normal 0.0 0.0 1.0
  outer loop
    vertex 7.021373032984115 6.594342412391156 22.999999999999993
    vertex 7.021373032984116 -7.547793211339792 22.999999999999993
    vertex 8.610559258963024 4.523274600525684 22.999999999999993
  endloop
endfacet
facet normal 0.0 0.0 1.0
  outer loop
    vertex 8.610559258963024 4.523274600525684 22.999999999999993
    vertex 7.021373032984116 -7.547793211339792 22.999999999999993
    vertex 8.610559258963027 -5.476725399474319 22.999999999999993
  endloop
endfacet
facet normal 0.0 0.0 1.0
  outer loop
    vertex 8.610559258963024 4.523274600525684 22.999999999999993
    vertex 8.610559258963027 -5.476725399474319 22.999999999999993
    vertex 9.609563484009321 2.111465051550896 22.999999999999993
  endloop
endfacet
facet normal 0.0 0.0 1.0
  outer loop
    vertex 9.609563484009321 2.111465051550896 22.999999999999993
    vertex 8.610559258963027 -5.476725399474319 22.999999999999993
    vertex 9.609563484009323 -3.0649158504995264 22.999999999999993
  endloop
endfacet
facet normal 0.0 0.0 1.0
  outer loop
    vertex 9.609563484009321 2.111465051550896 22.999999999999993
    vertex 9.609563484009323 -3.0649158504995264 22.999999999999993
    vertex 9.95030522111864 -0.47672539947431963 22.999999999999993
  endloop
endfacet
facet normal 0.9914448613738104 -0.13052619222005177 0.0
  outer loop
    vertex 9.95030522111864 -0.47672539947431963 2.9999999999999947
    vertex 9.609563484009323 -3.0649158504995264 22.999999999999993
    vertex 9.609563484009323 -3.0649158504995264 2.9999999999999947
  endloop
endfacet
facet normal 0.9914448613738104 -0.13052619222005177 0.0
  outer loop
    vertex 9.609563484009323 -3.0649158504995264 22.999999999999993
    vertex 9.95030522111864 -0.47672539947431963 2.9999999999999947
    vertex 9.95030522111864 -0.47672539947431963 22.999999999999993
  endloop
endfacet
facet normal 0.9914448613738104 0.13052619222005188 0.0
  outer loop
    vertex 9.609563484009321 2.111465051550896 2.9999999999999947
    vertex 9.95030522111864 -0.47672539947431963 22.999999999999993
    vertex 9.95030522111864 -0.47672539947431963 2.9999999999999947
  endloop
endfacet
facet normal 0.9914448613738104 0.13052619222005188 0.0
  outer loop
    vertex 9.95030522111864 -0.47672539947431963 22.999999999999993
    vertex 9.609563484009321 2.111465051550896 2.9999999999999947
    vertex 9.609563484009321 2.111465051550896 22.999999999999993
  endloop
endfacet
facet normal 0.9238795325112864 0.38268343236509084 0.0
  outer loop
    vertex 8.610559258963024 4.523274600525684 2.9999999999999947
    vertex 9.609563484009321 2.111465051550896 22.999999999999993
    vertex 9.609563484009321 2.111465051550896 2.9999999999999947
  endloop
endfacet
facet normal 0.9238795325112864 0.38268343236509084 0.0
  outer loop
    vertex 9.609563484009321 2.111465051550896 22.999999999999993
    vertex 8.610559258963024 4.523274600525684 2.9999999999999947
    vertex 8.610559258963024 4.523274600525684 22.999999999999993
  endloop
endfacet
facet normal 0.7933533402912353 0.6087614290087207 0.0
  outer loop
    vertex 7.021373032984115 6.594342412391156 2.9999999999999947
    vertex 8.610559258963024 4.523274600525684 22.999999999999993
    vertex 8.610559258963024 4.523274600525684 2.9999999999999947
  endloop
endfacet
facet normal 0.7933533402912353 0.6087614290087207 0.0
  outer loop
    vertex 8.610559258963024 4.523274600525684 22.999999999999993
    vertex 7.021373032984115 6.594342412391156 2.9999999999999947
    vertex 7.021373032984115 6.594342412391156 22.999999999999993
  endloop
endfacet
facet normal 0.6087614290087201 0.7933533402912355 0.0
  outer loop
    vertex 4.950305221118635 8.183528638370069 22.999999999999993
    vertex 7.021373032984115 6.594342412391156 2.9999999999999947
    vertex 4.950305221118635 8.183528638370069 2.9999999999999947
  endloop
endfacet
facet normal 0.6087614290087201 0.7933533402912355 0.0
  outer loop
    vertex 7.021373032984115 6.594342412391156 2.9999999999999947
    vertex 4.950305221118635 8.183528638370069 22.999999999999993
    vertex 7.021373032984115 6.594342412391156 22.999999999999993
  endloop
endfacet
facet normal 0.3826834323650893 0.923879532511287 0.0
  outer loop
    vertex 2.5384956721438456 9.182532863416363 22.999999999999993
    vertex 4.950305221118635 8.183528638370069 2.9999999999999947
    vertex 2.5384956721438456 9.182532863416363 2.9999999999999947
  endloop
endfacet
facet normal 0.3826834323650893 0.923879532511287 0.0
  outer loop
    vertex 4.950305221118635 8.183528638370069 2.9999999999999947
    vertex 2.5384956721438456 9.182532863416363 22.999999999999993
    vertex 4.950305221118635 8.183528638370069 22.999999999999993
  endloop
endfacet
facet normal 0.1305261922200514 0.9914448613738106 0.0
  outer loop
    vertex -0.04969477888135862 9.52327460052568 22.999999999999993
    vertex 2.5384956721438456 9.182532863416363 2.9999999999999947
    vertex -0.04969477888135862 9.52327460052568 2.9999999999999947
  endloop
endfacet
facet normal 0.1305261922200514 0.9914448613738106 0.0
  outer loop
    vertex 2.5384956721438456 9.182532863416363 2.9999999999999947
    vertex -0.04969477888135862 9.52327460052568 22.999999999999993
    vertex 2.5384956721438456 9.182532863416363 22.999999999999993
  endloop
endfacet
facet normal -0.13052619222005202 0.9914448613738104 0.0
  outer loop
    vertex -2.637885229906571 9.18253286341636 22.999999999999993
    vertex -0.04969477888135862 9.52327460052568 2.9999999999999947
    vertex -2.637885229906571 9.18253286341636 2.9999999999999947
  endloop
endfacet
facet normal -0.13052619222005202 0.9914448613738104 0.0
  outer loop
    vertex -0.04969477888135862 9.52327460052568 2.9999999999999947
    vertex -2.637885229906571 9.18253286341636 22.999999999999993
    vertex -0.04969477888135862 9.52327460052568 22.999999999999993
  endloop
endfacet
facet normal -0.3826834323650908 0.9238795325112864 0.0
  outer loop
    vertex -5.04969477888136 8.183528638370062 22.999999999999993
    vertex -2.637885229906571 9.18253286341636 2.9999999999999947
    vertex -5.04969477888136 8.183528638370062 2.9999999999999947
  endloop
endfacet
facet normal -0.3826834323650908 0.9238795325112864 0.0
  outer loop
    vertex -2.637885229906571 9.18253286341636 2.9999999999999947
    vertex -5.04969477888136 8.183528638370062 22.999999999999993
    vertex -2.637885229906571 9.18253286341636 22.999999999999993
  endloop
endfacet
facet normal -0.6087614290087211 0.7933533402912349 0.0
  outer loop
    vertex -7.120762590746833 6.594342412391151 22.999999999999993
    vertex -5.04969477888136 8.183528638370062 2.9999999999999947
    vertex -7.120762590746833 6.594342412391151 2.9999999999999947
  endloop
endfacet
facet normal -0.6087614290087211 0.7933533402912349 0.0
  outer loop
    vertex -5.04969477888136 8.183528638370062 2.9999999999999947
    vertex -7.120762590746833 6.594342412391151 22.999999999999993
    vertex -5.04969477888136 8.183528638370062 22.999999999999993
  endloop
endfacet
facet normal -0.7933533402912352 0.6087614290087205 0.0
  outer loop
    vertex -7.120762590746833 6.594342412391151 22.999999999999993
    vertex -8.709948816725744 4.523274600525677 2.9999999999999947
    vertex -8.709948816725744 4.523274600525677 22.999999999999993
  endloop
endfacet
facet normal -0.7933533402912352 0.6087614290087205 0.0
  outer loop
    vertex -8.709948816725744 4.523274600525677 2.9999999999999947
    vertex -7.120762590746833 6.594342412391151 22.999999999999993
    vertex -7.120762590746833 6.594342412391151 2.9999999999999947
  endloop
endfacet
facet normal -0.9238795325112871 0.3826834323650892 0.0
  outer loop
    vertex -8.709948816725744 4.523274600525677 22.999999999999993
    vertex -9.708953041772038 2.1114650515508835 2.9999999999999947
    vertex -9.708953041772038 2.1114650515508835 22.999999999999993
  endloop
endfacet
facet normal -0.9238795325112871 0.3826834323650892 0.0
  outer loop
    vertex -9.708953041772038 2.1114650515508835 2.9999999999999947
    vertex -8.709948816725744 4.523274600525677 22.999999999999993
    vertex -8.709948816725744 4.523274600525677 2.9999999999999947
  endloop
endfacet
facet normal -0.9914448613738105 0.13052619222005138 0.0
  outer loop
    vertex -9.708953041772038 2.1114650515508835 22.999999999999993
    vertex -10.049694778881355 -0.47672539947432085 2.9999999999999947
    vertex -10.049694778881355 -0.47672539947432085 22.999999999999993
  endloop
endfacet
facet normal -0.9914448613738105 0.13052619222005138 0.0
  outer loop
    vertex -10.049694778881355 -0.47672539947432085 2.9999999999999947
    vertex -9.708953041772038 2.1114650515508835 22.999999999999993
    vertex -9.708953041772038 2.1114650515508835 2.9999999999999947
  endloop
endfacet
facet normal -0.9914448613738104 -0.13052619222005168 -0.0
  outer loop
    vertex -10.049694778881355 -0.47672539947432085 22.999999999999993
    vertex -9.708953041772036 -3.0649158504995295 2.9999999999999947
    vertex -9.708953041772036 -3.0649158504995295 22.999999999999993
  endloop
endfacet
facet normal -0.9914448613738104 -0.13052619222005168 -0.0
  outer loop
    vertex -9.708953041772036 -3.0649158504995295 2.9999999999999947
    vertex -10.049694778881355 -0.47672539947432085 22.999999999999993
    vertex -10.049694778881355 -0.47672539947432085 2.9999999999999947
  endloop
endfacet
facet normal -0.9238795325112866 -0.3826834323650901 -0.0
  outer loop
    vertex -9.708953041772036 -3.0649158504995295 22.999999999999993
    vertex -8.709948816725738 -5.476725399474322 2.9999999999999947
    vertex -8.709948816725738 -5.476725399474322 22.999999999999993
  endloop
endfacet
facet normal -0.9238795325112866 -0.3826834323650901 -0.0
  outer loop
    vertex -8.709948816725738 -5.476725399474322 2.9999999999999947
    vertex -9.708953041772036 -3.0649158504995295 22.999999999999993
    vertex -9.708953041772036 -3.0649158504995295 2.9999999999999947
  endloop
endfacet
facet normal -0.7933533402912349 -0.608761429008721 -0.0
  outer loop
    vertex -8.709948816725738 -5.476725399474322 22.999999999999993
    vertex -7.120762590746828 -7.547793211339794 2.9999999999999947
    vertex -7.120762590746828 -7.547793211339794 22.999999999999993
  endloop
endfacet
facet normal -0.7933533402912349 -0.608761429008721 -0.0
  outer loop
    vertex -7.120762590746828 -7.547793211339794 2.9999999999999947
    vertex -8.709948816725738 -5.476725399474322 22.999999999999993
    vertex -8.709948816725738 -5.476725399474322 2.9999999999999947
  endloop
endfacet
facet normal -0.6087614290087207 -0.793353340291235 -0.0
  outer loop
    vertex -5.049694778881353 -9.136979437318706 22.999999999999993
    vertex -7.120762590746828 -7.547793211339794 2.9999999999999947
    vertex -5.049694778881353 -9.136979437318706 2.9999999999999947
  endloop
endfacet
facet normal -0.6087614290087207 -0.793353340291235 -0.0
  outer loop
    vertex -7.120762590746828 -7.547793211339794 2.9999999999999947
    vertex -5.049694778881353 -9.136979437318706 22.999999999999993
    vertex -7.120762590746828 -7.547793211339794 22.999999999999993
  endloop
endfacet
facet normal -0.38268343236508956 -0.923879532511287 -0.0
  outer loop
    vertex -2.637885229906562 -10.135983662365001 22.999999999999993
    vertex -5.049694778881353 -9.136979437318706 2.9999999999999947
    vertex -2.637885229906562 -10.135983662365001 2.9999999999999947
  endloop
endfacet
facet normal -0.38268343236508956 -0.923879532511287 -0.0
  outer loop
    vertex -5.049694778881353 -9.136979437318706 2.9999999999999947
    vertex -2.637885229906562 -10.135983662365001 22.999999999999993
    vertex -5.049694778881353 -9.136979437318706 22.999999999999993
  endloop
endfacet
facet normal -0.13052619222005182 -0.9914448613738105 -0.0
  outer loop
    vertex -0.049694778881356164 -10.476725399474319 22.999999999999993
    vertex -2.637885229906562 -10.135983662365001 2.9999999999999947
    vertex -0.049694778881356164 -10.476725399474319 2.9999999999999947
  endloop
endfacet
facet normal -0.13052619222005182 -0.9914448613738105 -0.0
  outer loop
    vertex -2.637885229906562 -10.135983662365001 2.9999999999999947
    vertex -0.049694778881356164 -10.476725399474319 22.999999999999993
    vertex -2.637885229906562 -10.135983662365001 22.999999999999993
  endloop
endfacet
facet normal 0.1305261922200517 -0.9914448613738104 0.0
  outer loop
    vertex 2.5384956721438523 -10.135983662365001 22.999999999999993
    vertex -0.049694778881356164 -10.476725399474319 2.9999999999999947
    vertex 2.5384956721438523 -10.135983662365001 2.9999999999999947
  endloop
endfacet
facet normal 0.1305261922200517 -0.9914448613738104 0.0
  outer loop
    vertex -0.049694778881356164 -10.476725399474319 2.9999999999999947
    vertex 2.5384956721438523 -10.135983662365001 22.999999999999993
    vertex -0.049694778881356164 -10.476725399474319 22.999999999999993
  endloop
endfacet
facet normal 0.38268343236508995 -0.9238795325112866 0.0
  outer loop
    vertex 4.950305221118644 -9.136979437318704 22.999999999999993
    vertex 2.5384956721438523 -10.135983662365001 2.9999999999999947
    vertex 4.950305221118644 -9.136979437318704 2.9999999999999947
  endloop
endfacet
facet normal 0.38268343236508995 -0.9238795325112866 0.0
  outer loop
    vertex 2.5384956721438523 -10.135983662365001 2.9999999999999947
    vertex 4.950305221118644 -9.136979437318704 22.999999999999993
    vertex 2.5384956721438523 -10.135983662365001 22.999999999999993
  endloop
endfacet
facet normal 0.6087614290087211 -0.7933533402912349 0.0
  outer loop
    vertex 7.021373032984116 -7.547793211339792 22.999999999999993
    vertex 4.950305221118644 -9.136979437318704 2.9999999999999947
    vertex 7.021373032984116 -7.547793211339792 2.9999999999999947
  endloop
endfacet
facet normal 0.6087614290087211 -0.7933533402912349 0.0
  outer loop
    vertex 4.950305221118644 -9.136979437318704 2.9999999999999947
    vertex 7.021373032984116 -7.547793211339792 22.999999999999993
    vertex 4.950305221118644 -9.136979437318704 22.999999999999993
  endloop
endfacet
facet normal 0.7933533402912352 -0.6087614290087209 0.0
  outer loop
    vertex 8.610559258963027 -5.476725399474319 2.9999999999999947
    vertex 7.021373032984116 -7.547793211339792 22.999999999999993
    vertex 7.021373032984116 -7.547793211339792 2.9999999999999947
  endloop
endfacet
facet normal 0.7933533402912352 -0.6087614290087209 0.0
  outer loop
    vertex 7.021373032984116 -7.547793211339792 22.999999999999993
    vertex 8.610559258963027 -5.476725399474319 2.9999999999999947
    vertex 8.610559258963027 -5.476725399474319 22.999999999999993
  endloop
endfacet
facet normal 0.923879532511287 -0.3826834323650894 0.0
  outer loop
    vertex 9.609563484009323 -3.0649158504995264 2.9999999999999947
    vertex 8.610559258963027 -5.476725399474319 22.999999999999993
    vertex 8.610559258963027 -5.476725399474319 2.9999999999999947
  endloop
endfacet
facet normal 0.923879532511287 -0.3826834323650894 0.0
  outer loop
    vertex 8.610559258963027 -5.476725399474319 22.999999999999993
    vertex 9.609563484009323 -3.0649158504995264 2.9999999999999947
    vertex 9.609563484009323 -3.0649158504995264 22.999999999999993
  endloop
endfacet
endsolid Cylinder
