solid Untitled-5890ac31
facet normal 0.0 0.0 -1.0
  outer loop
    vertex 10.0 10.0 0.0
    vertex 0.0 0.0 0.0
    vertex 0.0 10.0 0.0
  endloop
endfacet
facet normal 0.0 0.0 -1.0
  outer loop
    vertex 0.0 0.0 0.0
    vertex 10.0 10.0 0.0
    vertex 10.0 0.0 0.0
  endloop
endfacet
facet normal -0.0 -0.0 1.0
  outer loop
    vertex 10.0 0.0 20.0
    vertex 0.0 4.300000000000001 20.0
    vertex 0.0 0.0 20.0
  endloop
endfacet
facet normal -0.0 -0.0 1.0
  outer loop
    vertex 0.0 4.300000000000001 20.0
    vertex 10.0 0.0 20.0
    vertex 10.0 4.300000000000001 20.0
  endloop
endfacet
facet normal -1.0 0.0 0.0
  outer loop
    vertex 0.0 10.0 20.0
    vertex 0.0 6.0 7.000000000000001
    vertex 0.0 6.0 20.0
  endloop
endfacet
facet normal -1.0 0.0 0.0
  outer loop
    vertex 0.0 4.300000000000001 20.0
    vertex 0.0 0.0 0.0
    vertex 0.0 0.0 20.0
  endloop
endfacet
facet normal -1.0 0.0 0.0
  outer loop
    vertex 0.0 0.0 0.0
    vertex 0.0 4.300000000000001 20.0
    vertex 0.0 4.300000000000001 7.000000000000001
  endloop
endfacet
facet normal -1.0 0.0 0.0
  outer loop
    vertex 0.0 0.0 0.0
    vertex 0.0 4.300000000000001 7.000000000000001
    vertex 0.0 10.0 0.0
  endloop
endfacet
facet normal -1.0 0.0 0.0
  outer loop
    vertex 0.0 10.0 0.0
    vertex 0.0 4.300000000000001 7.000000000000001
    vertex 0.0 6.0 7.000000000000001
  endloop
endfacet
facet normal -1.0 0.0 0.0
  outer loop
    vertex 0.0 10.0 0.0
    vertex 0.0 6.0 7.000000000000001
    vertex 0.0 10.0 20.0
  endloop
endfacet
facet normal -0.0 1.0 0.0
  outer loop
    vertex 0.0 10.0 0.0
    vertex 4.133974596215562 10.0 9.500000000000002
    vertex 10.0 10.0 0.0
  endloop
endfacet
facet normal -0.0 1.0 0.0
  outer loop
    vertex 4.133974596215562 10.0 9.500000000000002
    vertex 0.0 10.0 0.0
    vertex 4.034074173710931 10.0 9.74118095489748
  endloop
endfacet
facet normal -0.0 1.0 0.0
  outer loop
    vertex 4.034074173710931 10.0 9.74118095489748
    vertex 0.0 10.0 0.0
    vertex 0.0 10.0 20.0
  endloop
endfacet
facet normal -0.0 1.0 0.0
  outer loop
    vertex 10.0 10.0 0.0
    vertex 4.133974596215562 10.0 9.500000000000002
    vertex 4.292893218813452 10.0 9.292893218813454
  endloop
endfacet
facet normal -0.0 1.0 0.0
  outer loop
    vertex 10.0 10.0 0.0
    vertex 4.292893218813452 10.0 9.292893218813454
    vertex 4.5 10.0 9.133974596215563
  endloop
endfacet
facet normal -0.0 1.0 0.0
  outer loop
    vertex 10.0 10.0 0.0
    vertex 4.5 10.0 9.133974596215563
    vertex 4.741180954897479 10.0 9.034074173710932
  endloop
endfacet
facet normal -0.0 1.0 0.0
  outer loop
    vertex 10.0 10.0 0.0
    vertex 4.741180954897479 10.0 9.034074173710932
    vertex 5.0 10.0 9.0
  endloop
endfacet
facet normal -0.0 1.0 0.0
  outer loop
    vertex 4.034074173710931 10.0 9.74118095489748
    vertex 0.0 10.0 20.0
    vertex 3.9999999999999996 10.0 10.000000000000002
  endloop
endfacet
facet normal -0.0 1.0 0.0
  outer loop
    vertex 3.9999999999999996 10.0 10.000000000000002
    vertex 0.0 10.0 20.0
    vertex 4.034074173710931 10.0 10.258819045102522
  endloop
endfacet
facet normal -0.0 1.0 0.0
  outer loop
    vertex 4.034074173710931 10.0 10.258819045102522
    vertex 0.0 10.0 20.0
    vertex 4.133974596215561 10.0 10.500000000000002
  endloop
endfacet
facet normal -0.0 1.0 0.0
  outer loop
    vertex 4.133974596215561 10.0 10.500000000000002
    vertex 0.0 10.0 20.0
    vertex 4.292893218813452 10.0 10.70710678118655
  endloop
endfacet
facet normal -0.0 1.0 0.0
  outer loop
    vertex 4.292893218813452 10.0 10.70710678118655
    vertex 0.0 10.0 20.0
    vertex 4.499999999999999 10.0 10.866025403784441
  endloop
endfacet
facet normal -0.0 1.0 0.0
  outer loop
    vertex 4.499999999999999 10.0 10.866025403784441
    vertex 0.0 10.0 20.0
    vertex 4.741180954897478 10.0 10.96592582628907
  endloop
endfacet
facet normal -0.0 1.0 0.0
  outer loop
    vertex 4.741180954897478 10.0 10.96592582628907
    vertex 0.0 10.0 20.0
    vertex 5.0 10.0 11.000000000000002
  endloop
endfacet
facet normal -0.0 1.0 0.0
  outer loop
    vertex 10.0 10.0 0.0
    vertex 5.965925826289069 10.0 9.74118095489748
    vertex 10.0 10.0 20.0
  endloop
endfacet
facet normal -0.0 1.0 0.0
  outer loop
    vertex 5.965925826289069 10.0 9.74118095489748
    vertex 10.0 10.0 0.0
    vertex 5.866025403784439 10.0 9.500000000000002
  endloop
endfacet
facet normal -0.0 1.0 0.0
  outer loop
    vertex 5.866025403784439 10.0 9.500000000000002
    vertex 10.0 10.0 0.0
    vertex 5.707106781186548 10.0 9.292893218813454
  endloop
endfacet
facet normal -0.0 1.0 0.0
  outer loop
    vertex 5.707106781186548 10.0 9.292893218813454
    vertex 10.0 10.0 0.0
    vertex 5.500000000000001 10.0 9.133974596215563
  endloop
endfacet
facet normal -0.0 1.0 0.0
  outer loop
    vertex 5.500000000000001 10.0 9.133974596215563
    vertex 10.0 10.0 0.0
    vertex 5.258819045102522 10.0 9.034074173710932
  endloop
endfacet
facet normal -0.0 1.0 0.0
  outer loop
    vertex 5.258819045102522 10.0 9.034074173710932
    vertex 10.0 10.0 0.0
    vertex 5.0 10.0 9.0
  endloop
endfacet
facet normal -0.0 1.0 0.0
  outer loop
    vertex 10.0 10.0 20.0
    vertex 5.965925826289069 10.0 9.74118095489748
    vertex 6.0 10.0 10.000000000000002
  endloop
endfacet
facet normal -0.0 1.0 0.0
  outer loop
    vertex 10.0 10.0 20.0
    vertex 6.0 10.0 10.000000000000002
    vertex 5.965925826289069 10.0 10.258819045102523
  endloop
endfacet
facet normal -0.0 1.0 0.0
  outer loop
    vertex 10.0 10.0 20.0
    vertex 5.965925826289069 10.0 10.258819045102523
    vertex 5.866025403784438 10.0 10.500000000000002
  endloop
endfacet
facet normal -0.0 1.0 0.0
  outer loop
    vertex 10.0 10.0 20.0
    vertex 5.866025403784438 10.0 10.500000000000002
    vertex 5.707106781186547 10.0 10.70710678118655
  endloop
endfacet
facet normal -0.0 1.0 0.0
  outer loop
    vertex 10.0 10.0 20.0
    vertex 5.707106781186547 10.0 10.70710678118655
    vertex 5.5 10.0 10.866025403784441
  endloop
endfacet
facet normal -0.0 1.0 0.0
  outer loop
    vertex 10.0 10.0 20.0
    vertex 5.5 10.0 10.866025403784441
    vertex 5.258819045102521 10.0 10.965925826289071
  endloop
endfacet
facet normal -0.0 1.0 0.0
  outer loop
    vertex 10.0 10.0 20.0
    vertex 5.258819045102521 10.0 10.965925826289071
    vertex 5.0 10.0 11.000000000000002
  endloop
endfacet
facet normal -0.0 1.0 0.0
  outer loop
    vertex 10.0 10.0 20.0
    vertex 5.0 10.0 11.000000000000002
    vertex 0.0 10.0 20.0
  endloop
endfacet
facet normal 1.0 0.0 0.0
  outer loop
    vertex 10.0 0.0 0.0
    vertex 10.0 4.300000000000001 7.000000000000001
    vertex 10.0 0.0 20.0
  endloop
endfacet
facet normal 1.0 0.0 0.0
  outer loop
    vertex 10.0 4.300000000000001 7.000000000000001
    vertex 10.0 0.0 0.0
    vertex 10.0 10.0 0.0
  endloop
endfacet
facet normal 1.0 0.0 0.0
  outer loop
    vertex 10.0 4.300000000000001 7.000000000000001
    vertex 10.0 10.0 0.0
    vertex 10.0 6.0 7.000000000000001
  endloop
endfacet
facet normal 1.0 0.0 0.0
  outer loop
    vertex 10.0 6.0 7.000000000000001
    vertex 10.0 10.0 0.0
    vertex 10.0 6.0 20.0
  endloop
endfacet
facet normal 1.0 0.0 0.0
  outer loop
    vertex 10.0 6.0 20.0
    vertex 10.0 10.0 0.0
    vertex 10.0 10.0 20.0
  endloop
endfacet
facet normal 1.0 0.0 0.0
  outer loop
    vertex 10.0 4.300000000000001 20.0
    vertex 10.0 0.0 20.0
    vertex 10.0 4.300000000000001 7.000000000000001
  endloop
endfacet
facet normal -0.0 -1.0 -0.0
  outer loop
    vertex 10.0 0.0 0.0
    vertex 7.400033543995538 0.0 7.452483761053481
    vertex 0.0 0.0 0.0
  endloop
endfacet
facet normal -0.0 -1.0 -0.0
  outer loop
    vertex 7.400033543995538 0.0 7.452483761053481
    vertex 10.0 0.0 0.0
    vertex 7.977600104452674 0.0 8.160462661981708
  endloop
endfacet
facet normal -0.0 -1.0 -0.0
  outer loop
    vertex 7.977600104452674 0.0 8.160462661981708
    vertex 10.0 0.0 0.0
    vertex 8.352248138508191 0.0 8.993802992516693
  endloop
endfacet
facet normal -0.0 -1.0 -0.0
  outer loop
    vertex 8.352248138508191 0.0 8.993802992516693
    vertex 10.0 0.0 0.0
    vertex 8.49844600177636 0.0 9.895713986292494
  endloop
endfacet
facet normal -0.0 -1.0 -0.0
  outer loop
    vertex 8.49844600177636 0.0 9.895713986292494
    vertex 10.0 0.0 0.0
    vertex 10.0 0.0 20.0
  endloop
endfacet
facet normal -0.0 -1.0 -0.0
  outer loop
    vertex 0.0 0.0 0.0
    vertex 7.400033543995538 0.0 7.452483761053481
    vertex 6.658908663758066 0.0 6.91811388183982
  endloop
endfacet
facet normal -0.0 -1.0 -0.0
  outer loop
    vertex 0.0 0.0 0.0
    vertex 6.658908663758066 0.0 6.91811388183982
    vertex 5.804731899561673 0.0 6.593769448521158
  endloop
endfacet
facet normal -0.0 -1.0 -0.0
  outer loop
    vertex 0.0 0.0 0.0
    vertex 5.804731899561673 0.0 6.593769448521158
    vertex 4.895713986292493 0.0 6.501553998223642
  endloop
endfacet
facet normal -0.0 -1.0 -0.0
  outer loop
    vertex 8.49844600177636 0.0 9.895713986292494
    vertex 10.0 0.0 20.0
    vertex 8.406230551478844 0.0 10.804731899561673
  endloop
endfacet
facet normal -0.0 -1.0 -0.0
  outer loop
    vertex 8.406230551478844 0.0 10.804731899561673
    vertex 10.0 0.0 20.0
    vertex 8.081886118160181 0.0 11.658908663758067
  endloop
endfacet
facet normal -0.0 -1.0 -0.0
  outer loop
    vertex 8.081886118160181 0.0 11.658908663758067
    vertex 10.0 0.0 20.0
    vertex 7.5475162389465185 0.0 12.40003354399554
  endloop
endfacet
facet normal -0.0 -1.0 -0.0
  outer loop
    vertex 7.5475162389465185 0.0 12.40003354399554
    vertex 10.0 0.0 20.0
    vertex 6.8395373380182924 0.0 12.977600104452677
  endloop
endfacet
facet normal -0.0 -1.0 -0.0
  outer loop
    vertex 6.8395373380182924 0.0 12.977600104452677
    vertex 10.0 0.0 20.0
    vertex 6.006197007483306 0.0 13.352248138508193
  endloop
endfacet
facet normal -0.0 -1.0 -0.0
  outer loop
    vertex 6.006197007483306 0.0 13.352248138508193
    vertex 10.0 0.0 20.0
    vertex 5.104286013707505 0.0 13.498446001776363
  endloop
endfacet
facet normal -0.0 -1.0 -0.0
  outer loop
    vertex 0.0 0.0 0.0
    vertex 1.593769448521157 0.0 9.195268100438328
    vertex 0.0 0.0 20.0
  endloop
endfacet
facet normal -0.0 -1.0 -0.0
  outer loop
    vertex 1.593769448521157 0.0 9.195268100438328
    vertex 0.0 0.0 0.0
    vertex 1.9181138818398196 0.0 8.341091336241936
  endloop
endfacet
facet normal -0.0 -1.0 -0.0
  outer loop
    vertex 1.9181138818398196 0.0 8.341091336241936
    vertex 0.0 0.0 0.0
    vertex 2.45248376105348 0.0 7.599966456004465
  endloop
endfacet
facet normal -0.0 -1.0 -0.0
  outer loop
    vertex 2.45248376105348 0.0 7.599966456004465
    vertex 0.0 0.0 0.0
    vertex 3.160462661981707 0.0 7.022399895547327
  endloop
endfacet
facet normal -0.0 -1.0 -0.0
  outer loop
    vertex 3.160462661981707 0.0 7.022399895547327
    vertex 0.0 0.0 0.0
    vertex 3.9938029925166934 0.0 6.64775186149181
  endloop
endfacet
facet normal -0.0 -1.0 -0.0
  outer loop
    vertex 3.9938029925166934 0.0 6.64775186149181
    vertex 0.0 0.0 0.0
    vertex 4.895713986292493 0.0 6.501553998223642
  endloop
endfacet
facet normal -0.0 -1.0 -0.0
  outer loop
    vertex 0.0 0.0 20.0
    vertex 1.593769448521157 0.0 9.195268100438328
    vertex 1.50155399822364 0.0 10.104286013707508
  endloop
endfacet
facet normal -0.0 -1.0 -0.0
  outer loop
    vertex 0.0 0.0 20.0
    vertex 1.50155399822364 0.0 10.104286013707508
    vertex 1.6477518614918083 0.0 11.006197007483307
  endloop
endfacet
facet normal -0.0 -1.0 -0.0
  outer loop
    vertex 0.0 0.0 20.0
    vertex 1.6477518614918083 0.0 11.006197007483307
    vertex 2.022399895547326 0.0 11.839537338018294
  endloop
endfacet
facet normal -0.0 -1.0 -0.0
  outer loop
    vertex 0.0 0.0 20.0
    vertex 2.022399895547326 0.0 11.839537338018294
    vertex 2.5999664560044615 0.0 12.547516238946521
  endloop
endfacet
facet normal -0.0 -1.0 -0.0
  outer loop
    vertex 0.0 0.0 20.0
    vertex 2.5999664560044615 0.0 12.547516238946521
    vertex 3.341091336241934 0.0 13.081886118160181
  endloop
endfacet
facet normal -0.0 -1.0 -0.0
  outer loop
    vertex 0.0 0.0 20.0
    vertex 3.341091336241934 0.0 13.081886118160181
    vertex 4.1952681004383265 0.0 13.406230551478846
  endloop
endfacet
facet normal -0.0 -1.0 -0.0
  outer loop
    vertex 0.0 0.0 20.0
    vertex 4.1952681004383265 0.0 13.406230551478846
    vertex 5.104286013707505 0.0 13.498446001776363
  endloop
endfacet
facet normal -0.0 -1.0 -0.0
  outer loop
    vertex 0.0 0.0 20.0
    vertex 5.104286013707505 0.0 13.498446001776363
    vertex 10.0 0.0 20.0
  endloop
endfacet
facet normal -0.0 -0.0 1.0
  outer loop
    vertex 10.0 6.0 20.0
    vertex 0.0 10.0 20.0
    vertex 0.0 6.0 20.0
  endloop
endfacet
facet normal -0.0 -0.0 1.0
  outer loop
    vertex 0.0 10.0 20.0
    vertex 10.0 6.0 20.0
    vertex 10.0 10.0 20.0
  endloop
endfacet
facet normal 0.0 0.0 1.0
  outer loop
    vertex 10.0 4.300000000000001 7.000000000000001
    vertex 0.0 6.0 7.000000000000001
    vertex 0.0 4.300000000000001 7.000000000000001
  endloop
endfacet
facet normal 0.0 0.0 1.0
  outer loop
    vertex 0.0 6.0 7.000000000000001
    vertex 10.0 4.300000000000001 7.000000000000001
    vertex 10.0 6.0 7.000000000000001
  endloop
endfacet
facet normal -0.0 -1.0 -0.0
  outer loop
    vertex 10.0 6.0 7.000000000000001
    vertex 5.258819045102523 6.0 9.034074173710932
    vertex 0.0 6.0 7.000000000000001
  endloop
endfacet
facet normal -0.0 -1.0 -0.0
  outer loop
    vertex 5.258819045102523 6.0 9.034074173710932
    vertex 10.0 6.0 7.000000000000001
    vertex 5.500000000000003 6.0 9.133974596215563
  endloop
endfacet
facet normal -0.0 -1.0 -0.0
  outer loop
    vertex 5.500000000000003 6.0 9.133974596215563
    vertex 10.0 6.0 7.000000000000001
    vertex 5.707106781186549 6.0 9.292893218813456
  endloop
endfacet
facet normal -0.0 -1.0 -0.0
  outer loop
    vertex 5.707106781186549 6.0 9.292893218813456
    vertex 10.0 6.0 7.000000000000001
    vertex 5.86602540378444 6.0 9.500000000000002
  endloop
endfacet
facet normal -0.0 -1.0 -0.0
  outer loop
    vertex 5.86602540378444 6.0 9.500000000000002
    vertex 10.0 6.0 7.000000000000001
    vertex 5.965925826289069 6.0 9.741180954897482
  endloop
endfacet
facet normal -0.0 -1.0 -0.0
  outer loop
    vertex 5.965925826289069 6.0 9.741180954897482
    vertex 10.0 6.0 7.000000000000001
    vertex 10.0 6.0 20.0
  endloop
endfacet
facet normal -0.0 -1.0 -0.0
  outer loop
    vertex 0.0 6.0 7.000000000000001
    vertex 5.258819045102523 6.0 9.034074173710932
    vertex 5.0 6.0 9.0
  endloop
endfacet
facet normal -0.0 -1.0 -0.0
  outer loop
    vertex 5.965925826289069 6.0 9.741180954897482
    vertex 10.0 6.0 20.0
    vertex 6.0 6.0 10.000000000000004
  endloop
endfacet
facet normal -0.0 -1.0 -0.0
  outer loop
    vertex 6.0 6.0 10.000000000000004
    vertex 10.0 6.0 20.0
    vertex 5.965925826289068 6.0 10.258819045102523
  endloop
endfacet
facet normal -0.0 -1.0 -0.0
  outer loop
    vertex 5.965925826289068 6.0 10.258819045102523
    vertex 10.0 6.0 20.0
    vertex 5.8660254037844375 6.0 10.500000000000005
  endloop
endfacet
facet normal -0.0 -1.0 -0.0
  outer loop
    vertex 5.8660254037844375 6.0 10.500000000000005
    vertex 10.0 6.0 20.0
    vertex 5.707106781186546 6.0 10.707106781186551
  endloop
endfacet
facet normal -0.0 -1.0 -0.0
  outer loop
    vertex 5.707106781186546 6.0 10.707106781186551
    vertex 10.0 6.0 20.0
    vertex 5.500000000000001 6.0 10.866025403784441
  endloop
endfacet
facet normal -0.0 -1.0 -0.0
  outer loop
    vertex 5.500000000000001 6.0 10.866025403784441
    vertex 10.0 6.0 20.0
    vertex 5.258819045102521 6.0 10.965925826289071
  endloop
endfacet
facet normal -0.0 -1.0 -0.0
  outer loop
    vertex 5.258819045102521 6.0 10.965925826289071
    vertex 10.0 6.0 20.0
    vertex 5.0 6.0 11.000000000000004
  endloop
endfacet
facet normal -0.0 -1.0 -0.0
  outer loop
    vertex 0.0 6.0 7.000000000000001
    vertex 4.0340741737109305 6.0 9.74118095489748
    vertex 0.0 6.0 20.0
  endloop
endfacet
facet normal -0.0 -1.0 -0.0
  outer loop
    vertex 4.0340741737109305 6.0 9.74118095489748
    vertex 0.0 6.0 7.000000000000001
    vertex 4.13397459621556 6.000000000000001 9.500000000000002
  endloop
endfacet
facet normal -0.0 -1.0 -0.0
  outer loop
    vertex 4.13397459621556 6.000000000000001 9.500000000000002
    vertex 0.0 6.0 7.000000000000001
    vertex 4.292893218813453 6.000000000000001 9.292893218813454
  endloop
endfacet
facet normal -0.0 -1.0 -0.0
  outer loop
    vertex 4.292893218813453 6.000000000000001 9.292893218813454
    vertex 0.0 6.0 7.000000000000001
    vertex 4.500000000000003 6.0 9.133974596215559
  endloop
endfacet
facet normal -0.0 -1.0 -0.0
  outer loop
    vertex 4.500000000000003 6.0 9.133974596215559
    vertex 0.0 6.0 7.000000000000001
    vertex 4.741180954897479 6.0 9.034074173710932
  endloop
endfacet
facet normal -0.0 -1.0 -0.0
  outer loop
    vertex 4.741180954897479 6.0 9.034074173710932
    vertex 0.0 6.0 7.000000000000001
    vertex 5.0 6.0 9.0
  endloop
endfacet
facet normal -0.0 -1.0 -0.0
  outer loop
    vertex 0.0 6.0 20.0
    vertex 4.0340741737109305 6.0 9.74118095489748
    vertex 3.9999999999999996 6.0 10.000000000000004
  endloop
endfacet
facet normal -0.0 -1.0 -0.0
  outer loop
    vertex 0.0 6.0 20.0
    vertex 3.9999999999999996 6.0 10.000000000000004
    vertex 4.034074173710931 6.0 10.258819045102522
  endloop
endfacet
facet normal -0.0 -1.0 -0.0
  outer loop
    vertex 0.0 6.0 20.0
    vertex 4.034074173710931 6.0 10.258819045102522
    vertex 4.1339745962155625 6.0 10.500000000000004
  endloop
endfacet
facet normal -0.0 -1.0 -0.0
  outer loop
    vertex 0.0 6.0 20.0
    vertex 4.1339745962155625 6.0 10.500000000000004
    vertex 4.292893218813453 6.0 10.707106781186548
  endloop
endfacet
facet normal -0.0 -1.0 -0.0
  outer loop
    vertex 0.0 6.0 20.0
    vertex 4.292893218813453 6.0 10.707106781186548
    vertex 4.5 6.0 10.866025403784441
  endloop
endfacet
facet normal -0.0 -1.0 -0.0
  outer loop
    vertex 0.0 6.0 20.0
    vertex 4.5 6.0 10.866025403784441
    vertex 4.741180954897479 6.0 10.965925826289068
  endloop
endfacet
facet normal -0.0 -1.0 -0.0
  outer loop
    vertex 0.0 6.0 20.0
    vertex 4.741180954897479 6.0 10.965925826289068
    vertex 5.0 6.0 11.000000000000004
  endloop
endfacet
facet normal -0.0 -1.0 -0.0
  outer loop
    vertex 0.0 6.0 20.0
    vertex 5.0 6.0 11.000000000000004
    vertex 10.0 6.0 20.0
  endloop
endfacet
facet normal -0.0 1.0 -0.0
  outer loop
    vertex 0.0 4.300000000000001 7.000000000000001
    vertex 4.741180954897479 4.300000000000001 9.034074173710932
    vertex 10.0 4.300000000000001 7.000000000000001
  endloop
endfacet
facet normal -0.0 1.0 -0.0
  outer loop
    vertex 4.741180954897479 4.300000000000001 9.034074173710932
    vertex 0.0 4.300000000000001 7.000000000000001
    vertex 4.500000000000003 4.300000000000001 9.133974596215559
  endloop
endfacet
facet normal -0.0 1.0 -0.0
  outer loop
    vertex 4.500000000000003 4.300000000000001 9.133974596215559
    vertex 0.0 4.300000000000001 7.000000000000001
    vertex 4.292893218813453 4.300000000000001 9.292893218813454
  endloop
endfacet
facet normal -0.0 1.0 -0.0
  outer loop
    vertex 4.292893218813453 4.300000000000001 9.292893218813454
    vertex 0.0 4.300000000000001 7.000000000000001
    vertex 4.13397459621556 4.300000000000001 9.500000000000002
  endloop
endfacet
facet normal -0.0 1.0 -0.0
  outer loop
    vertex 4.13397459621556 4.300000000000001 9.500000000000002
    vertex 0.0 4.300000000000001 7.000000000000001
    vertex 4.0340741737109305 4.300000000000001 9.74118095489748
  endloop
endfacet
facet normal -0.0 1.0 -0.0
  outer loop
    vertex 4.0340741737109305 4.300000000000001 9.74118095489748
    vertex 0.0 4.300000000000001 7.000000000000001
    vertex 0.0 4.300000000000001 20.0
  endloop
endfacet
facet normal -0.0 1.0 -0.0
  outer loop
    vertex 10.0 4.300000000000001 7.000000000000001
    vertex 4.741180954897479 4.300000000000001 9.034074173710932
    vertex 5.0 4.300000000000001 9.0
  endloop
endfacet
facet normal -0.0 1.0 -0.0
  outer loop
    vertex 4.0340741737109305 4.300000000000001 9.74118095489748
    vertex 0.0 4.300000000000001 20.0
    vertex 3.9999999999999996 4.300000000000001 10.000000000000004
  endloop
endfacet
facet normal -0.0 1.0 -0.0
  outer loop
    vertex 3.9999999999999996 4.300000000000001 10.000000000000004
    vertex 0.0 4.300000000000001 20.0
    vertex 4.034074173710931 4.300000000000001 10.258819045102522
  endloop
endfacet
facet normal -0.0 1.0 -0.0
  outer loop
    vertex 4.034074173710931 4.300000000000001 10.258819045102522
    vertex 0.0 4.300000000000001 20.0
    vertex 4.1339745962155625 4.300000000000001 10.500000000000004
  endloop
endfacet
facet normal -0.0 1.0 -0.0
  outer loop
    vertex 4.1339745962155625 4.300000000000001 10.500000000000004
    vertex 0.0 4.300000000000001 20.0
    vertex 4.292893218813453 4.300000000000001 10.707106781186548
  endloop
endfacet
facet normal -0.0 1.0 -0.0
  outer loop
    vertex 4.292893218813453 4.300000000000001 10.707106781186548
    vertex 0.0 4.300000000000001 20.0
    vertex 4.5 4.300000000000001 10.866025403784441
  endloop
endfacet
facet normal -0.0 1.0 -0.0
  outer loop
    vertex 4.5 4.300000000000001 10.866025403784441
    vertex 0.0 4.300000000000001 20.0
    vertex 4.741180954897479 4.300000000000001 10.965925826289068
  endloop
endfacet
facet normal -0.0 1.0 -0.0
  outer loop
    vertex 4.741180954897479 4.300000000000001 10.965925826289068
    vertex 0.0 4.300000000000001 20.0
    vertex 5.0 4.300000000000001 11.000000000000004
  endloop
endfacet
facet normal -0.0 1.0 -0.0
  outer loop
    vertex 10.0 4.300000000000001 7.000000000000001
    vertex 5.965925826289069 4.300000000000001 9.741180954897482
    vertex 10.0 4.300000000000001 20.0
  endloop
endfacet
facet normal -0.0 1.0 -0.0
  outer loop
    vertex 5.965925826289069 4.300000000000001 9.741180954897482
    vertex 10.0 4.300000000000001 7.000000000000001
    vertex 5.86602540378444 4.300000000000001 9.500000000000002
  endloop
endfacet
facet normal -0.0 1.0 -0.0
  outer loop
    vertex 5.86602540378444 4.300000000000001 9.500000000000002
    vertex 10.0 4.300000000000001 7.000000000000001
    vertex 5.707106781186549 4.300000000000001 9.292893218813456
  endloop
endfacet
facet normal -0.0 1.0 -0.0
  outer loop
    vertex 5.707106781186549 4.300000000000001 9.292893218813456
    vertex 10.0 4.300000000000001 7.000000000000001
    vertex 5.500000000000003 4.300000000000001 9.133974596215563
  endloop
endfacet
facet normal -0.0 1.0 -0.0
  outer loop
    vertex 5.500000000000003 4.300000000000001 9.133974596215563
    vertex 10.0 4.300000000000001 7.000000000000001
    vertex 5.258819045102523 4.300000000000001 9.034074173710932
  endloop
endfacet
facet normal -0.0 1.0 -0.0
  outer loop
    vertex 5.258819045102523 4.300000000000001 9.034074173710932
    vertex 10.0 4.300000000000001 7.000000000000001
    vertex 5.0 4.300000000000001 9.0
  endloop
endfacet
facet normal -0.0 1.0 -0.0
  outer loop
    vertex 10.0 4.300000000000001 20.0
    vertex 5.965925826289069 4.300000000000001 9.741180954897482
    vertex 6.0 4.300000000000001 10.000000000000004
  endloop
endfacet
facet normal -0.0 1.0 -0.0
  outer loop
    vertex 10.0 4.300000000000001 20.0
    vertex 6.0 4.300000000000001 10.000000000000004
    vertex 5.965925826289068 4.300000000000001 10.258819045102523
  endloop
endfacet
facet normal -0.0 1.0 -0.0
  outer loop
    vertex 10.0 4.300000000000001 20.0
    vertex 5.965925826289068 4.300000000000001 10.258819045102523
    vertex 5.8660254037844375 4.300000000000001 10.500000000000005
  endloop
endfacet
facet normal -0.0 1.0 -0.0
  outer loop
    vertex 10.0 4.300000000000001 20.0
    vertex 5.8660254037844375 4.300000000000001 10.500000000000005
    vertex 5.707106781186546 4.300000000000001 10.707106781186551
  endloop
endfacet
facet normal -0.0 1.0 -0.0
  outer loop
    vertex 10.0 4.300000000000001 20.0
    vertex 5.707106781186546 4.300000000000001 10.707106781186551
    vertex 5.500000000000001 4.300000000000001 10.866025403784441
  endloop
endfacet
facet normal -0.0 1.0 -0.0
  outer loop
    vertex 10.0 4.300000000000001 20.0
    vertex 5.500000000000001 4.300000000000001 10.866025403784441
    vertex 5.258819045102521 4.300000000000001 10.965925826289071
  endloop
endfacet
facet normal -0.0 1.0 -0.0
  outer loop
    vertex 10.0 4.300000000000001 20.0
    vertex 5.258819045102521 4.300000000000001 10.965925826289071
    vertex 5.0 4.300000000000001 11.000000000000004
  endloop
endfacet
facet normal -0.0 1.0 -0.0
  outer loop
    vertex 10.0 4.300000000000001 20.0
    vertex 5.0 4.300000000000001 11.000000000000004
    vertex 0.0 4.300000000000001 20.0
  endloop
endfacet
facet normal 0.1305261922200518 -0.0 0.9914448613738105
  outer loop
    vertex 5.0 3.0294400000000015 9.0
    vertex 4.741180954897479 4.300000000000001 9.034074173710932
    vertex 4.741180954897479 3.0294400000000015 9.034074173710932
  endloop
endfacet
facet normal 0.1305261922200518 -0.0 0.9914448613738105
  outer loop
    vertex 4.741180954897479 4.300000000000001 9.034074173710932
    vertex 5.0 3.0294400000000015 9.0
    vertex 5.0 4.300000000000001 9.0
  endloop
endfacet
facet normal -0.13052619222005094 3.209606719918012e-17 0.9914448613738105
  outer loop
    vertex 5.258819045102522 3.0294400000000015 9.034074173710932
    vertex 5.0 4.300000000000001 9.0
    vertex 5.0 3.0294400000000015 9.0
  endloop
endfacet
facet normal -0.13052619222005094 3.209606719918012e-17 0.9914448613738105
  outer loop
    vertex 5.0 4.300000000000001 9.0
    vertex 5.258819045102522 3.0294400000000015 9.034074173710932
    vertex 5.258819045102523 4.300000000000001 9.034074173710932
  endloop
endfacet
facet normal -0.3826834323650913 1.8820181531835204e-16 0.9238795325112862
  outer loop
    vertex 5.500000000000001 3.0294400000000015 9.133974596215563
    vertex 5.258819045102523 4.300000000000001 9.034074173710932
    vertex 5.258819045102522 3.0294400000000015 9.034074173710932
  endloop
endfacet
facet normal -0.3826834323650913 1.8820181531835204e-16 0.9238795325112862
  outer loop
    vertex 5.258819045102523 4.300000000000001 9.034074173710932
    vertex 5.500000000000001 3.0294400000000015 9.133974596215563
    vertex 5.500000000000003 4.300000000000001 9.133974596215563
  endloop
endfacet
facet normal -0.6087614290087243 6.98022637832803e-17 0.7933533402912325
  outer loop
    vertex 5.707106781186548 3.0294400000000015 9.292893218813454
    vertex 5.500000000000003 4.300000000000001 9.133974596215563
    vertex 5.500000000000001 3.0294400000000015 9.133974596215563
  endloop
endfacet
facet normal -0.6087614290087243 6.98022637832803e-17 0.7933533402912325
  outer loop
    vertex 5.500000000000003 4.300000000000001 9.133974596215563
    vertex 5.707106781186548 3.0294400000000015 9.292893218813454
    vertex 5.707106781186549 4.300000000000001 9.292893218813456
  endloop
endfacet
facet normal -0.7933533402912337 2.887620551518199e-17 0.6087614290087225
  outer loop
    vertex 5.86602540378444 4.300000000000001 9.500000000000002
    vertex 5.707106781186548 3.0294400000000015 9.292893218813454
    vertex 5.866025403784439 3.0294400000000015 9.500000000000002
  endloop
endfacet
facet normal -0.7933533402912337 2.887620551518199e-17 0.6087614290087225
  outer loop
    vertex 5.707106781186548 3.0294400000000015 9.292893218813454
    vertex 5.86602540378444 4.300000000000001 9.500000000000002
    vertex 5.707106781186549 4.300000000000001 9.292893218813456
  endloop
endfacet
facet normal -0.9238795325112881 1.3042595692355376e-17 0.3826834323650869
  outer loop
    vertex 5.965925826289069 4.300000000000001 9.741180954897482
    vertex 5.866025403784439 3.0294400000000015 9.500000000000002
    vertex 5.965925826289069 3.0294400000000015 9.74118095489748
  endloop
endfacet
facet normal -0.9238795325112881 1.3042595692355376e-17 0.3826834323650869
  outer loop
    vertex 5.866025403784439 3.0294400000000015 9.500000000000002
    vertex 5.965925826289069 4.300000000000001 9.741180954897482
    vertex 5.86602540378444 4.300000000000001 9.500000000000002
  endloop
endfacet
facet normal -0.9914448613738105 -4.246556583276157e-17 0.13052619222005143
  outer loop
    vertex 6.0 4.300000000000001 10.000000000000004
    vertex 5.965925826289069 3.0294400000000015 9.74118095489748
    vertex 6.0 3.0294400000000015 10.000000000000002
  endloop
endfacet
facet normal -0.9914448613738105 -4.246556583276157e-17 0.13052619222005143
  outer loop
    vertex 5.965925826289069 3.0294400000000015 9.74118095489748
    vertex 6.0 4.300000000000001 10.000000000000004
    vertex 5.965925826289069 4.300000000000001 9.741180954897482
  endloop
endfacet
facet normal -0.9914448613738103 -3.864276754506959e-17 -0.13052619222005277
  outer loop
    vertex 5.965925826289068 4.300000000000001 10.258819045102523
    vertex 6.0 3.0294400000000015 10.000000000000002
    vertex 5.965925826289069 3.0294400000000015 10.258819045102523
  endloop
endfacet
facet normal -0.9914448613738103 -3.864276754506959e-17 -0.13052619222005277
  outer loop
    vertex 6.0 3.0294400000000015 10.000000000000002
    vertex 5.965925826289068 4.300000000000001 10.258819045102523
    vertex 6.0 4.300000000000001 10.000000000000004
  endloop
endfacet
facet normal -0.9238795325112871 9.914140111557778e-17 -0.3826834323650895
  outer loop
    vertex 5.8660254037844375 4.300000000000001 10.500000000000005
    vertex 5.965925826289069 3.0294400000000015 10.258819045102523
    vertex 5.866025403784438 3.0294400000000015 10.500000000000002
  endloop
endfacet
facet normal -0.9238795325112871 9.914140111557778e-17 -0.3826834323650895
  outer loop
    vertex 5.965925826289069 3.0294400000000015 10.258819045102523
    vertex 5.8660254037844375 4.300000000000001 10.500000000000005
    vertex 5.965925826289068 4.300000000000001 10.258819045102523
  endloop
endfacet
facet normal -0.7933533402912321 2.0598198900404988e-16 -0.6087614290087247
  outer loop
    vertex 5.707106781186546 4.300000000000001 10.707106781186551
    vertex 5.866025403784438 3.0294400000000015 10.500000000000002
    vertex 5.707106781186547 3.0294400000000015 10.70710678118655
  endloop
endfacet
facet normal -0.7933533402912321 2.0598198900404988e-16 -0.6087614290087247
  outer loop
    vertex 5.866025403784438 3.0294400000000015 10.500000000000002
    vertex 5.707106781186546 4.300000000000001 10.707106781186551
    vertex 5.8660254037844375 4.300000000000001 10.500000000000005
  endloop
endfacet
facet normal -0.6087614290087223 1.3055596127984693e-16 -0.7933533402912339
  outer loop
    vertex 5.500000000000001 4.300000000000001 10.866025403784441
    vertex 5.707106781186547 3.0294400000000015 10.70710678118655
    vertex 5.5 3.0294400000000015 10.866025403784441
  endloop
endfacet
facet normal -0.6087614290087223 1.3055596127984693e-16 -0.7933533402912339
  outer loop
    vertex 5.707106781186547 3.0294400000000015 10.70710678118655
    vertex 5.500000000000001 4.300000000000001 10.866025403784441
    vertex 5.707106781186546 4.300000000000001 10.707106781186551
  endloop
endfacet
facet normal -0.3826834323650927 2.1501085983890103e-16 -0.9238795325112855
  outer loop
    vertex 5.500000000000001 4.300000000000001 10.866025403784441
    vertex 5.258819045102521 3.0294400000000015 10.965925826289071
    vertex 5.258819045102521 4.300000000000001 10.965925826289071
  endloop
endfacet
facet normal -0.3826834323650927 2.1501085983890103e-16 -0.9238795325112855
  outer loop
    vertex 5.258819045102521 3.0294400000000015 10.965925826289071
    vertex 5.500000000000001 4.300000000000001 10.866025403784441
    vertex 5.5 3.0294400000000015 10.866025403784441
  endloop
endfacet
facet normal -0.1305261922200518 3.25136584956799e-16 -0.9914448613738105
  outer loop
    vertex 5.258819045102521 4.300000000000001 10.965925826289071
    vertex 5.0 3.0294400000000015 11.000000000000002
    vertex 5.0 4.300000000000001 11.000000000000004
  endloop
endfacet
facet normal -0.1305261922200518 3.25136584956799e-16 -0.9914448613738105
  outer loop
    vertex 5.0 3.0294400000000015 11.000000000000002
    vertex 5.258819045102521 4.300000000000001 10.965925826289071
    vertex 5.258819045102521 3.0294400000000015 10.965925826289071
  endloop
endfacet
facet normal 0.13052619222006226 -1.0381974309700429e-17 -0.9914448613738092
  outer loop
    vertex 4.741180954897479 4.300000000000001 10.965925826289068
    vertex 5.0 3.0294400000000015 11.000000000000002
    vertex 4.741180954897478 3.0294400000000015 10.96592582628907
  endloop
endfacet
facet normal 0.13052619222006226 -1.0381974309700429e-17 -0.9914448613738092
  outer loop
    vertex 5.0 3.0294400000000015 11.000000000000002
    vertex 4.741180954897479 4.300000000000001 10.965925826289068
    vertex 5.0 4.300000000000001 11.000000000000004
  endloop
endfacet
facet normal 0.3826834323650844 -2.1428700670306042e-16 -0.923879532511289
  outer loop
    vertex 4.5 4.300000000000001 10.866025403784441
    vertex 4.741180954897478 3.0294400000000015 10.96592582628907
    vertex 4.499999999999999 3.0294400000000015 10.866025403784441
  endloop
endfacet
facet normal 0.3826834323650844 -2.1428700670306042e-16 -0.923879532511289
  outer loop
    vertex 4.741180954897478 3.0294400000000015 10.96592582628907
    vertex 4.5 4.300000000000001 10.866025403784441
    vertex 4.741180954897479 4.300000000000001 10.965925826289068
  endloop
endfacet
facet normal 0.608761429008723 -2.307350738114101e-16 -0.7933533402912334
  outer loop
    vertex 4.292893218813453 4.300000000000001 10.707106781186548
    vertex 4.499999999999999 3.0294400000000015 10.866025403784441
    vertex 4.292893218813452 3.0294400000000015 10.70710678118655
  endloop
endfacet
facet normal 0.608761429008723 -2.307350738114101e-16 -0.7933533402912334
  outer loop
    vertex 4.499999999999999 3.0294400000000015 10.866025403784441
    vertex 4.292893218813453 4.300000000000001 10.707106781186548
    vertex 4.5 4.300000000000001 10.866025403784441
  endloop
endfacet
facet normal 0.7933533402912339 -2.596112793265922e-16 -0.6087614290087223
  outer loop
    vertex 4.1339745962155625 4.300000000000001 10.500000000000004
    vertex 4.292893218813452 3.0294400000000015 10.70710678118655
    vertex 4.133974596215561 3.0294400000000015 10.500000000000002
  endloop
endfacet
facet normal 0.7933533402912339 -2.596112793265922e-16 -0.6087614290087223
  outer loop
    vertex 4.292893218813452 3.0294400000000015 10.70710678118655
    vertex 4.1339745962155625 4.300000000000001 10.500000000000004
    vertex 4.292893218813453 4.300000000000001 10.707106781186548
  endloop
endfacet
facet normal 0.9238795325112868 -1.642044646843365e-16 -0.3826834323650897
  outer loop
    vertex 4.034074173710931 4.300000000000001 10.258819045102522
    vertex 4.133974596215561 3.0294400000000015 10.500000000000002
    vertex 4.034074173710931 3.0294400000000015 10.258819045102522
  endloop
endfacet
facet normal 0.9238795325112868 -1.642044646843365e-16 -0.3826834323650897
  outer loop
    vertex 4.133974596215561 3.0294400000000015 10.500000000000002
    vertex 4.034074173710931 4.300000000000001 10.258819045102522
    vertex 4.1339745962155625 4.300000000000001 10.500000000000004
  endloop
endfacet
facet normal 0.9914448613738103 2.1479675740990033e-17 -0.1305261922200525
  outer loop
    vertex 3.9999999999999996 4.300000000000001 10.000000000000004
    vertex 4.034074173710931 3.0294400000000015 10.258819045102522
    vertex 3.9999999999999996 3.0294400000000015 10.000000000000002
  endloop
endfacet
facet normal 0.9914448613738103 2.1479675740990033e-17 -0.1305261922200525
  outer loop
    vertex 4.034074173710931 3.0294400000000015 10.258819045102522
    vertex 3.9999999999999996 4.300000000000001 10.000000000000004
    vertex 4.034074173710931 4.300000000000001 10.258819045102522
  endloop
endfacet
facet normal 0.9914448613738107 5.986307478533288e-17 0.13052619222004977
  outer loop
    vertex 4.0340741737109305 4.300000000000001 9.74118095489748
    vertex 3.9999999999999996 3.0294400000000015 10.000000000000002
    vertex 4.034074173710931 3.0294400000000015 9.74118095489748
  endloop
endfacet
facet normal 0.9914448613738107 5.986307478533288e-17 0.13052619222004977
  outer loop
    vertex 3.9999999999999996 3.0294400000000015 10.000000000000002
    vertex 4.0340741737109305 4.300000000000001 9.74118095489748
    vertex 3.9999999999999996 4.300000000000001 10.000000000000004
  endloop
endfacet
facet normal 0.9238795325112867 2.271796875024001e-16 0.3826834323650902
  outer loop
    vertex 4.13397459621556 4.300000000000001 9.500000000000002
    vertex 4.034074173710931 3.0294400000000015 9.74118095489748
    vertex 4.133974596215562 3.0294400000000015 9.500000000000002
  endloop
endfacet
facet normal 0.9238795325112867 2.271796875024001e-16 0.3826834323650902
  outer loop
    vertex 4.034074173710931 3.0294400000000015 9.74118095489748
    vertex 4.13397459621556 4.300000000000001 9.500000000000002
    vertex 4.0340741737109305 4.300000000000001 9.74118095489748
  endloop
endfacet
facet normal 0.7933533402912339 6.452765902337262e-17 0.6087614290087222
  outer loop
    vertex 4.292893218813453 4.300000000000001 9.292893218813454
    vertex 4.133974596215562 3.0294400000000015 9.500000000000002
    vertex 4.292893218813452 3.0294400000000015 9.292893218813454
  endloop
endfacet
facet normal 0.7933533402912339 6.452765902337262e-17 0.6087614290087222
  outer loop
    vertex 4.133974596215562 3.0294400000000015 9.500000000000002
    vertex 4.292893218813453 4.300000000000001 9.292893218813454
    vertex 4.13397459621556 4.300000000000001 9.500000000000002
  endloop
endfacet
facet normal 0.6087614290087221 5.810157021137906e-17 0.7933533402912342
  outer loop
    vertex 4.5 3.0294400000000015 9.133974596215563
    vertex 4.292893218813453 4.300000000000001 9.292893218813454
    vertex 4.292893218813452 3.0294400000000015 9.292893218813454
  endloop
endfacet
facet normal 0.6087614290087221 5.810157021137906e-17 0.7933533402912342
  outer loop
    vertex 4.292893218813453 4.300000000000001 9.292893218813454
    vertex 4.5 3.0294400000000015 9.133974596215563
    vertex 4.500000000000003 4.300000000000001 9.133974596215559
  endloop
endfacet
facet normal 0.38268343236508817 2.082228303247882e-16 0.9238795325112875
  outer loop
    vertex 4.741180954897479 3.0294400000000015 9.034074173710932
    vertex 4.500000000000003 4.300000000000001 9.133974596215559
    vertex 4.5 3.0294400000000015 9.133974596215563
  endloop
endfacet
facet normal 0.38268343236508817 2.082228303247882e-16 0.9238795325112875
  outer loop
    vertex 4.500000000000003 4.300000000000001 9.133974596215559
    vertex 4.741180954897479 3.0294400000000015 9.034074173710932
    vertex 4.741180954897479 4.300000000000001 9.034074173710932
  endloop
endfacet
facet normal 0.3826834323650872 -1.6867941199191924e-16 0.9238795325112881
  outer loop
    vertex 4.500000000000003 6.0 9.133974596215559
    vertex 4.741180954897479 10.0 9.034074173710932
    vertex 4.5 10.0 9.133974596215563
  endloop
endfacet
facet normal 0.3826834323650872 -1.6867941199191924e-16 0.9238795325112881
  outer loop
    vertex 4.741180954897479 10.0 9.034074173710932
    vertex 4.500000000000003 6.0 9.133974596215559
    vertex 4.741180954897479 6.0 9.034074173710932
  endloop
endfacet
facet normal 0.6087614290087228 -4.9380880303355095e-17 0.7933533402912336
  outer loop
    vertex 4.292893218813453 6.000000000000001 9.292893218813454
    vertex 4.5 10.0 9.133974596215563
    vertex 4.292893218813452 10.0 9.292893218813454
  endloop
endfacet
facet normal 0.6087614290087228 -4.9380880303355095e-17 0.7933533402912336
  outer loop
    vertex 4.5 10.0 9.133974596215563
    vertex 4.292893218813453 6.000000000000001 9.292893218813454
    vertex 4.500000000000003 6.0 9.133974596215559
  endloop
endfacet
facet normal 0.9238795325112865 1.3237061389541318e-16 -0.38268343236509045
  outer loop
    vertex 4.034074173710931 10.0 10.258819045102522
    vertex 4.1339745962155625 6.0 10.500000000000004
    vertex 4.034074173710931 6.0 10.258819045102522
  endloop
endfacet
facet normal 0.9238795325112865 1.3237061389541318e-16 -0.38268343236509045
  outer loop
    vertex 4.1339745962155625 6.0 10.500000000000004
    vertex 4.034074173710931 10.0 10.258819045102522
    vertex 4.133974596215561 10.0 10.500000000000002
  endloop
endfacet
facet normal -0.3826834323650931 -1.7437106304723522e-16 -0.9238795325112854
  outer loop
    vertex 5.5 10.0 10.866025403784441
    vertex 5.258819045102521 6.0 10.965925826289071
    vertex 5.258819045102521 10.0 10.965925826289071
  endloop
endfacet
facet normal -0.3826834323650931 -1.7437106304723522e-16 -0.9238795325112854
  outer loop
    vertex 5.258819045102521 6.0 10.965925826289071
    vertex 5.5 10.0 10.866025403784441
    vertex 5.500000000000001 6.0 10.866025403784441
  endloop
endfacet
facet normal 0.13052619222006406 9.035634056981516e-18 -0.9914448613738088
  outer loop
    vertex 5.0 10.0 11.000000000000002
    vertex 4.741180954897479 6.0 10.965925826289068
    vertex 4.741180954897478 10.0 10.96592582628907
  endloop
endfacet
facet normal 0.13052619222006406 9.035634056981516e-18 -0.9914448613738088
  outer loop
    vertex 4.741180954897479 6.0 10.965925826289068
    vertex 5.0 10.0 11.000000000000002
    vertex 5.0 6.0 11.000000000000004
  endloop
endfacet
facet normal 0.7933533402912337 2.101797574527132e-16 -0.6087614290087225
  outer loop
    vertex 4.133974596215561 10.0 10.500000000000002
    vertex 4.292893218813453 6.0 10.707106781186548
    vertex 4.1339745962155625 6.0 10.500000000000004
  endloop
endfacet
facet normal 0.7933533402912337 2.101797574527132e-16 -0.6087614290087225
  outer loop
    vertex 4.292893218813453 6.0 10.707106781186548
    vertex 4.133974596215561 10.0 10.500000000000002
    vertex 4.292893218813452 10.0 10.70710678118655
  endloop
endfacet
facet normal 0.3826834323650837 1.7342774049837047e-16 -0.9238795325112894
  outer loop
    vertex 4.741180954897478 10.0 10.96592582628907
    vertex 4.5 6.0 10.866025403784441
    vertex 4.499999999999999 10.0 10.866025403784441
  endloop
endfacet
facet normal 0.3826834323650837 1.7342774049837047e-16 -0.9238795325112894
  outer loop
    vertex 4.5 6.0 10.866025403784441
    vertex 4.741180954897478 10.0 10.96592582628907
    vertex 4.741180954897479 6.0 10.965925826289068
  endloop
endfacet
facet normal 0.6087614290087238 1.8816408512166544e-16 -0.7933533402912328
  outer loop
    vertex 4.499999999999999 10.0 10.866025403784441
    vertex 4.292893218813453 6.0 10.707106781186548
    vertex 4.292893218813452 10.0 10.70710678118655
  endloop
endfacet
facet normal 0.6087614290087238 1.8816408512166544e-16 -0.7933533402912328
  outer loop
    vertex 4.292893218813453 6.0 10.707106781186548
    vertex 4.499999999999999 10.0 10.866025403784441
    vertex 4.5 6.0 10.866025403784441
  endloop
endfacet
facet normal -0.13052619222005077 -2.5854983712794032e-17 0.9914448613738105
  outer loop
    vertex 5.258819045102523 6.0 9.034074173710932
    vertex 5.0 10.0 9.0
    vertex 5.0 6.0 9.0
  endloop
endfacet
facet normal -0.13052619222005077 -2.5854983712794032e-17 0.9914448613738105
  outer loop
    vertex 5.0 10.0 9.0
    vertex 5.258819045102523 6.0 9.034074173710932
    vertex 5.258819045102522 10.0 9.034074173710932
  endloop
endfacet
facet normal 0.13052619222005177 2.272709797153194e-32 0.9914448613738105
  outer loop
    vertex 5.0 6.0 9.0
    vertex 4.741180954897479 10.0 9.034074173710932
    vertex 4.741180954897479 6.0 9.034074173710932
  endloop
endfacet
facet normal 0.13052619222005177 2.272709797153194e-32 0.9914448613738105
  outer loop
    vertex 4.741180954897479 10.0 9.034074173710932
    vertex 5.0 6.0 9.0
    vertex 5.0 10.0 9.0
  endloop
endfacet
facet normal -0.6087614290087254 -5.630249978385263e-17 0.7933533402912317
  outer loop
    vertex 5.500000000000003 6.0 9.133974596215563
    vertex 5.707106781186548 10.0 9.292893218813454
    vertex 5.500000000000001 10.0 9.133974596215563
  endloop
endfacet
facet normal -0.6087614290087254 -5.630249978385263e-17 0.7933533402912317
  outer loop
    vertex 5.707106781186548 10.0 9.292893218813454
    vertex 5.500000000000003 6.0 9.133974596215563
    vertex 5.707106781186549 6.0 9.292893218813456
  endloop
endfacet
facet normal -0.13052619222005177 -2.6421285466651806e-16 -0.9914448613738105
  outer loop
    vertex 5.258819045102521 10.0 10.965925826289071
    vertex 5.0 6.0 11.000000000000004
    vertex 5.0 10.0 11.000000000000002
  endloop
endfacet
facet normal -0.13052619222005177 -2.6421285466651806e-16 -0.9914448613738105
  outer loop
    vertex 5.0 6.0 11.000000000000004
    vertex 5.258819045102521 10.0 10.965925826289071
    vertex 5.258819045102521 6.0 10.965925826289071
  endloop
endfacet
facet normal -0.6087614290087227 -1.0735962182851558e-16 -0.7933533402912337
  outer loop
    vertex 5.707106781186547 10.0 10.70710678118655
    vertex 5.500000000000001 6.0 10.866025403784441
    vertex 5.5 10.0 10.866025403784441
  endloop
endfacet
facet normal -0.6087614290087227 -1.0735962182851558e-16 -0.7933533402912337
  outer loop
    vertex 5.500000000000001 6.0 10.866025403784441
    vertex 5.707106781186547 10.0 10.70710678118655
    vertex 5.707106781186546 6.0 10.707106781186551
  endloop
endfacet
facet normal -0.7933533402912314 -1.6320501794286228e-16 -0.6087614290087259
  outer loop
    vertex 5.707106781186547 10.0 10.70710678118655
    vertex 5.8660254037844375 6.0 10.500000000000005
    vertex 5.707106781186546 6.0 10.707106781186551
  endloop
endfacet
facet normal -0.7933533402912314 -1.6320501794286228e-16 -0.6087614290087259
  outer loop
    vertex 5.8660254037844375 6.0 10.500000000000005
    vertex 5.707106781186547 10.0 10.70710678118655
    vertex 5.866025403784438 10.0 10.500000000000002
  endloop
endfacet
facet normal -0.9238795325112884 -1.0520156530018092e-17 0.38268343236508634
  outer loop
    vertex 5.965925826289069 10.0 9.74118095489748
    vertex 5.86602540378444 6.0 9.500000000000002
    vertex 5.965925826289069 6.0 9.741180954897482
  endloop
endfacet
facet normal -0.9238795325112884 -1.0520156530018092e-17 0.38268343236508634
  outer loop
    vertex 5.86602540378444 6.0 9.500000000000002
    vertex 5.965925826289069 10.0 9.74118095489748
    vertex 5.866025403784439 10.0 9.500000000000002
  endloop
endfacet
facet normal -0.9238795325112873 -8.133277921905189e-17 -0.3826834323650887
  outer loop
    vertex 5.866025403784438 10.0 10.500000000000002
    vertex 5.965925826289068 6.0 10.258819045102523
    vertex 5.8660254037844375 6.0 10.500000000000005
  endloop
endfacet
facet normal -0.9238795325112873 -8.133277921905189e-17 -0.3826834323650887
  outer loop
    vertex 5.965925826289068 6.0 10.258819045102523
    vertex 5.866025403784438 10.0 10.500000000000002
    vertex 5.965925826289069 10.0 10.258819045102523
  endloop
endfacet
facet normal -0.9914448613738103 3.088258089616611e-17 -0.13052619222005324
  outer loop
    vertex 5.965925826289069 10.0 10.258819045102523
    vertex 6.0 6.0 10.000000000000004
    vertex 5.965925826289068 6.0 10.258819045102523
  endloop
endfacet
facet normal -0.9914448613738103 3.088258089616611e-17 -0.13052619222005324
  outer loop
    vertex 6.0 6.0 10.000000000000004
    vertex 5.965925826289069 10.0 10.258819045102523
    vertex 6.0 10.0 10.000000000000002
  endloop
endfacet
facet normal -0.9914448613738105 3.465100909962104e-17 0.1305261922200515
  outer loop
    vertex 6.0 10.0 10.000000000000002
    vertex 5.965925826289069 6.0 9.741180954897482
    vertex 6.0 6.0 10.000000000000004
  endloop
endfacet
facet normal -0.9914448613738105 3.465100909962104e-17 0.1305261922200515
  outer loop
    vertex 5.965925826289069 6.0 9.741180954897482
    vertex 6.0 10.0 10.000000000000002
    vertex 5.965925826289069 10.0 9.74118095489748
  endloop
endfacet
facet normal -0.7933533402912335 -2.3258817920172686e-17 0.6087614290087231
  outer loop
    vertex 5.866025403784439 10.0 9.500000000000002
    vertex 5.707106781186549 6.0 9.292893218813456
    vertex 5.86602540378444 6.0 9.500000000000002
  endloop
endfacet
facet normal -0.7933533402912335 -2.3258817920172686e-17 0.6087614290087231
  outer loop
    vertex 5.707106781186549 6.0 9.292893218813456
    vertex 5.866025403784439 10.0 9.500000000000002
    vertex 5.707106781186548 10.0 9.292893218813454
  endloop
endfacet
facet normal -0.3826834323650913 -1.5316890142519993e-16 0.9238795325112862
  outer loop
    vertex 5.258819045102523 6.0 9.034074173710932
    vertex 5.500000000000001 10.0 9.133974596215563
    vertex 5.258819045102522 10.0 9.034074173710932
  endloop
endfacet
facet normal -0.3826834323650913 -1.5316890142519993e-16 0.9238795325112862
  outer loop
    vertex 5.500000000000001 10.0 9.133974596215563
    vertex 5.258819045102523 6.0 9.034074173710932
    vertex 5.500000000000003 6.0 9.133974596215563
  endloop
endfacet
facet normal 0.9238795325112867 -1.8410974559038865e-16 0.3826834323650897
  outer loop
    vertex 4.13397459621556 6.000000000000001 9.500000000000002
    vertex 4.034074173710931 10.0 9.74118095489748
    vertex 4.0340741737109305 6.0 9.74118095489748
  endloop
endfacet
facet normal 0.9238795325112867 -1.8410974559038865e-16 0.3826834323650897
  outer loop
    vertex 4.034074173710931 10.0 9.74118095489748
    vertex 4.13397459621556 6.000000000000001 9.500000000000002
    vertex 4.133974596215562 10.0 9.500000000000002
  endloop
endfacet
facet normal 0.7933533402912335 -5.2653213401224124e-17 0.6087614290087231
  outer loop
    vertex 4.292893218813452 10.0 9.292893218813454
    vertex 4.13397459621556 6.000000000000001 9.500000000000002
    vertex 4.292893218813453 6.000000000000001 9.292893218813454
  endloop
endfacet
facet normal 0.7933533402912335 -5.2653213401224124e-17 0.6087614290087231
  outer loop
    vertex 4.13397459621556 6.000000000000001 9.500000000000002
    vertex 4.292893218813452 10.0 9.292893218813454
    vertex 4.133974596215562 10.0 9.500000000000002
  endloop
endfacet
facet normal 0.9914448613738107 -4.872770911681915e-17 0.13052619222004921
  outer loop
    vertex 4.034074173710931 10.0 9.74118095489748
    vertex 3.9999999999999996 6.0 10.000000000000004
    vertex 4.0340741737109305 6.0 9.74118095489748
  endloop
endfacet
facet normal 0.9914448613738107 -4.872770911681915e-17 0.13052619222004921
  outer loop
    vertex 3.9999999999999996 6.0 10.000000000000004
    vertex 4.034074173710931 10.0 9.74118095489748
    vertex 3.9999999999999996 10.0 10.000000000000002
  endloop
endfacet
facet normal 0.9914448613738103 -1.70589583259673e-17 -0.1305261922200526
  outer loop
    vertex 3.9999999999999996 10.0 10.000000000000002
    vertex 4.034074173710931 6.0 10.258819045102522
    vertex 3.9999999999999996 6.0 10.000000000000004
  endloop
endfacet
facet normal 0.9914448613738103 -1.70589583259673e-17 -0.1305261922200526
  outer loop
    vertex 4.034074173710931 6.0 10.258819045102522
    vertex 3.9999999999999996 10.0 10.000000000000002
    vertex 4.034074173710931 10.0 10.258819045102522
  endloop
endfacet
facet normal 0.0 -1.0 0.0
  outer loop
    vertex 8.352248138508191 3.0294400000000015 8.993802992516693
    vertex 5.258819045102522 3.0294400000000015 9.034074173710932
    vertex 5.0 3.0294400000000015 9.0
  endloop
endfacet
facet normal 0.0 -1.0 0.0
  outer loop
    vertex 5.258819045102522 3.0294400000000015 9.034074173710932
    vertex 8.352248138508191 3.0294400000000015 8.993802992516693
    vertex 8.49844600177636 3.0294400000000015 9.895713986292494
  endloop
endfacet
facet normal 0.0 -1.0 0.0
  outer loop
    vertex 5.258819045102522 3.0294400000000015 9.034074173710932
    vertex 8.49844600177636 3.0294400000000015 9.895713986292494
    vertex 5.500000000000001 3.0294400000000015 9.133974596215563
  endloop
endfacet
facet normal 0.0 -1.0 0.0
  outer loop
    vertex 5.500000000000001 3.0294400000000015 9.133974596215563
    vertex 8.49844600177636 3.0294400000000015 9.895713986292494
    vertex 5.707106781186548 3.0294400000000015 9.292893218813454
  endloop
endfacet
facet normal 0.0 -1.0 0.0
  outer loop
    vertex 5.707106781186548 3.0294400000000015 9.292893218813454
    vertex 8.49844600177636 3.0294400000000015 9.895713986292494
    vertex 5.866025403784439 3.0294400000000015 9.500000000000002
  endloop
endfacet
facet normal 0.0 -1.0 0.0
  outer loop
    vertex 5.866025403784439 3.0294400000000015 9.500000000000002
    vertex 8.49844600177636 3.0294400000000015 9.895713986292494
    vertex 5.965925826289069 3.0294400000000015 9.74118095489748
  endloop
endfacet
facet normal 0.0 -1.0 0.0
  outer loop
    vertex 5.965925826289069 3.0294400000000015 9.74118095489748
    vertex 8.49844600177636 3.0294400000000015 9.895713986292494
    vertex 6.0 3.0294400000000015 10.000000000000002
  endloop
endfacet
facet normal 0.0 -1.0 0.0
  outer loop
    vertex 6.0 3.0294400000000015 10.000000000000002
    vertex 8.49844600177636 3.0294400000000015 9.895713986292494
    vertex 8.406230551478844 3.0294400000000015 10.804731899561673
  endloop
endfacet
facet normal 0.0 -1.0 0.0
  outer loop
    vertex 6.0 3.0294400000000015 10.000000000000002
    vertex 8.406230551478844 3.0294400000000015 10.804731899561673
    vertex 5.965925826289069 3.0294400000000015 10.258819045102523
  endloop
endfacet
facet normal 0.0 -1.0 0.0
  outer loop
    vertex 5.965925826289069 3.0294400000000015 10.258819045102523
    vertex 8.406230551478844 3.0294400000000015 10.804731899561673
    vertex 5.866025403784438 3.0294400000000015 10.500000000000002
  endloop
endfacet
facet normal 0.0 -1.0 0.0
  outer loop
    vertex 5.866025403784438 3.0294400000000015 10.500000000000002
    vertex 8.406230551478844 3.0294400000000015 10.804731899561673
    vertex 5.707106781186547 3.0294400000000015 10.70710678118655
  endloop
endfacet
facet normal 0.0 -1.0 0.0
  outer loop
    vertex 5.707106781186547 3.0294400000000015 10.70710678118655
    vertex 8.406230551478844 3.0294400000000015 10.804731899561673
    vertex 5.5 3.0294400000000015 10.866025403784441
  endloop
endfacet
facet normal 0.0 -1.0 0.0
  outer loop
    vertex 5.5 3.0294400000000015 10.866025403784441
    vertex 8.406230551478844 3.0294400000000015 10.804731899561673
    vertex 8.081886118160181 3.0294400000000015 11.658908663758067
  endloop
endfacet
facet normal 0.0 -1.0 0.0
  outer loop
    vertex 5.5 3.0294400000000015 10.866025403784441
    vertex 8.081886118160181 3.0294400000000015 11.658908663758067
    vertex 5.258819045102521 3.0294400000000015 10.965925826289071
  endloop
endfacet
facet normal 0.0 -1.0 0.0
  outer loop
    vertex 5.258819045102521 3.0294400000000015 10.965925826289071
    vertex 8.081886118160181 3.0294400000000015 11.658908663758067
    vertex 5.0 3.0294400000000015 11.000000000000002
  endloop
endfacet
facet normal 0.0 -1.0 0.0
  outer loop
    vertex 5.0 3.0294400000000015 11.000000000000002
    vertex 8.081886118160181 3.0294400000000015 11.658908663758067
    vertex 1.6477518614918083 3.0294400000000015 11.006197007483307
  endloop
endfacet
facet normal 0.0 -1.0 0.0
  outer loop
    vertex 1.6477518614918083 3.0294400000000015 11.006197007483307
    vertex 8.081886118160181 3.0294400000000015 11.658908663758067
    vertex 2.022399895547326 3.0294400000000015 11.839537338018294
  endloop
endfacet
facet normal 0.0 -1.0 0.0
  outer loop
    vertex 2.022399895547326 3.0294400000000015 11.839537338018294
    vertex 8.081886118160181 3.0294400000000015 11.658908663758067
    vertex 7.5475162389465185 3.0294400000000015 12.40003354399554
  endloop
endfacet
facet normal 0.0 -1.0 0.0
  outer loop
    vertex 2.022399895547326 3.0294400000000015 11.839537338018294
    vertex 7.5475162389465185 3.0294400000000015 12.40003354399554
    vertex 2.5999664560044615 3.0294400000000015 12.547516238946521
  endloop
endfacet
facet normal 0.0 -1.0 0.0
  outer loop
    vertex 2.5999664560044615 3.0294400000000015 12.547516238946521
    vertex 7.5475162389465185 3.0294400000000015 12.40003354399554
    vertex 6.8395373380182924 3.0294400000000015 12.977600104452677
  endloop
endfacet
facet normal 0.0 -1.0 0.0
  outer loop
    vertex 2.5999664560044615 3.0294400000000015 12.547516238946521
    vertex 6.8395373380182924 3.0294400000000015 12.977600104452677
    vertex 3.341091336241934 3.0294400000000015 13.081886118160181
  endloop
endfacet
facet normal 0.0 -1.0 0.0
  outer loop
    vertex 3.341091336241934 3.0294400000000015 13.081886118160181
    vertex 6.8395373380182924 3.0294400000000015 12.977600104452677
    vertex 6.006197007483306 3.0294400000000015 13.352248138508193
  endloop
endfacet
facet normal 0.0 -1.0 0.0
  outer loop
    vertex 3.341091336241934 3.0294400000000015 13.081886118160181
    vertex 6.006197007483306 3.0294400000000015 13.352248138508193
    vertex 4.1952681004383265 3.0294400000000015 13.406230551478846
  endloop
endfacet
facet normal 0.0 -1.0 0.0
  outer loop
    vertex 4.1952681004383265 3.0294400000000015 13.406230551478846
    vertex 6.006197007483306 3.0294400000000015 13.352248138508193
    vertex 5.104286013707505 3.0294400000000015 13.498446001776363
  endloop
endfacet
facet normal 0.0 -1.0 0.0
  outer loop
    vertex 5.804731899561673 3.0294400000000015 6.593769448521158
    vertex 3.9938029925166934 3.0294400000000015 6.64775186149181
    vertex 4.895713986292493 3.0294400000000015 6.501553998223642
  endloop
endfacet
facet normal 0.0 -1.0 0.0
  outer loop
    vertex 3.9938029925166934 3.0294400000000015 6.64775186149181
    vertex 5.804731899561673 3.0294400000000015 6.593769448521158
    vertex 6.658908663758066 3.0294400000000015 6.91811388183982
  endloop
endfacet
facet normal 0.0 -1.0 0.0
  outer loop
    vertex 3.9938029925166934 3.0294400000000015 6.64775186149181
    vertex 6.658908663758066 3.0294400000000015 6.91811388183982
    vertex 3.160462661981707 3.0294400000000015 7.022399895547327
  endloop
endfacet
facet normal 0.0 -1.0 0.0
  outer loop
    vertex 3.160462661981707 3.0294400000000015 7.022399895547327
    vertex 6.658908663758066 3.0294400000000015 6.91811388183982
    vertex 7.400033543995538 3.0294400000000015 7.452483761053481
  endloop
endfacet
facet normal 0.0 -1.0 0.0
  outer loop
    vertex 3.160462661981707 3.0294400000000015 7.022399895547327
    vertex 7.400033543995538 3.0294400000000015 7.452483761053481
    vertex 2.45248376105348 3.0294400000000015 7.599966456004465
  endloop
endfacet
facet normal 0.0 -1.0 0.0
  outer loop
    vertex 2.45248376105348 3.0294400000000015 7.599966456004465
    vertex 7.400033543995538 3.0294400000000015 7.452483761053481
    vertex 7.977600104452674 3.0294400000000015 8.160462661981708
  endloop
endfacet
facet normal 0.0 -1.0 0.0
  outer loop
    vertex 2.45248376105348 3.0294400000000015 7.599966456004465
    vertex 7.977600104452674 3.0294400000000015 8.160462661981708
    vertex 1.9181138818398196 3.0294400000000015 8.341091336241936
  endloop
endfacet
facet normal 0.0 -1.0 0.0
  outer loop
    vertex 1.9181138818398196 3.0294400000000015 8.341091336241936
    vertex 7.977600104452674 3.0294400000000015 8.160462661981708
    vertex 8.352248138508191 3.0294400000000015 8.993802992516693
  endloop
endfacet
facet normal 0.0 -1.0 0.0
  outer loop
    vertex 1.9181138818398196 3.0294400000000015 8.341091336241936
    vertex 8.352248138508191 3.0294400000000015 8.993802992516693
    vertex 5.0 3.0294400000000015 9.0
  endloop
endfacet
facet normal 0.0 -1.0 0.0
  outer loop
    vertex 1.9181138818398196 3.0294400000000015 8.341091336241936
    vertex 5.0 3.0294400000000015 9.0
    vertex 1.593769448521157 3.0294400000000015 9.195268100438328
  endloop
endfacet
facet normal 0.0 -1.0 0.0
  outer loop
    vertex 1.593769448521157 3.0294400000000015 9.195268100438328
    vertex 5.0 3.0294400000000015 9.0
    vertex 4.741180954897479 3.0294400000000015 9.034074173710932
  endloop
endfacet
facet normal 0.0 -1.0 0.0
  outer loop
    vertex 1.593769448521157 3.0294400000000015 9.195268100438328
    vertex 4.741180954897479 3.0294400000000015 9.034074173710932
    vertex 4.5 3.0294400000000015 9.133974596215563
  endloop
endfacet
facet normal 0.0 -1.0 0.0
  outer loop
    vertex 1.593769448521157 3.0294400000000015 9.195268100438328
    vertex 4.5 3.0294400000000015 9.133974596215563
    vertex 4.292893218813452 3.0294400000000015 9.292893218813454
  endloop
endfacet
facet normal 0.0 -1.0 0.0
  outer loop
    vertex 1.593769448521157 3.0294400000000015 9.195268100438328
    vertex 4.292893218813452 3.0294400000000015 9.292893218813454
    vertex 1.50155399822364 3.0294400000000015 10.104286013707508
  endloop
endfacet
facet normal 0.0 -1.0 0.0
  outer loop
    vertex 1.50155399822364 3.0294400000000015 10.104286013707508
    vertex 4.292893218813452 3.0294400000000015 9.292893218813454
    vertex 4.133974596215562 3.0294400000000015 9.500000000000002
  endloop
endfacet
facet normal 0.0 -1.0 0.0
  outer loop
    vertex 1.50155399822364 3.0294400000000015 10.104286013707508
    vertex 4.133974596215562 3.0294400000000015 9.500000000000002
    vertex 4.034074173710931 3.0294400000000015 9.74118095489748
  endloop
endfacet
facet normal 0.0 -1.0 0.0
  outer loop
    vertex 1.50155399822364 3.0294400000000015 10.104286013707508
    vertex 4.034074173710931 3.0294400000000015 9.74118095489748
    vertex 3.9999999999999996 3.0294400000000015 10.000000000000002
  endloop
endfacet
facet normal 0.0 -1.0 0.0
  outer loop
    vertex 1.50155399822364 3.0294400000000015 10.104286013707508
    vertex 3.9999999999999996 3.0294400000000015 10.000000000000002
    vertex 4.034074173710931 3.0294400000000015 10.258819045102522
  endloop
endfacet
facet normal 0.0 -1.0 0.0
  outer loop
    vertex 1.50155399822364 3.0294400000000015 10.104286013707508
    vertex 4.034074173710931 3.0294400000000015 10.258819045102522
    vertex 1.6477518614918083 3.0294400000000015 11.006197007483307
  endloop
endfacet
facet normal 0.0 -1.0 0.0
  outer loop
    vertex 1.6477518614918083 3.0294400000000015 11.006197007483307
    vertex 4.034074173710931 3.0294400000000015 10.258819045102522
    vertex 4.133974596215561 3.0294400000000015 10.500000000000002
  endloop
endfacet
facet normal 0.0 -1.0 0.0
  outer loop
    vertex 1.6477518614918083 3.0294400000000015 11.006197007483307
    vertex 4.133974596215561 3.0294400000000015 10.500000000000002
    vertex 4.292893218813452 3.0294400000000015 10.70710678118655
  endloop
endfacet
facet normal 0.0 -1.0 0.0
  outer loop
    vertex 1.6477518614918083 3.0294400000000015 11.006197007483307
    vertex 4.292893218813452 3.0294400000000015 10.70710678118655
    vertex 4.499999999999999 3.0294400000000015 10.866025403784441
  endloop
endfacet
facet normal 0.0 -1.0 0.0
  outer loop
    vertex 1.6477518614918083 3.0294400000000015 11.006197007483307
    vertex 4.499999999999999 3.0294400000000015 10.866025403784441
    vertex 4.741180954897478 3.0294400000000015 10.96592582628907
  endloop
endfacet
facet normal 0.0 -1.0 0.0
  outer loop
    vertex 1.6477518614918083 3.0294400000000015 11.006197007483307
    vertex 4.741180954897478 3.0294400000000015 10.96592582628907
    vertex 5.0 3.0294400000000015 11.000000000000002
  endloop
endfacet
facet normal -0.9871155014239642 -0.0 0.16000933362937292
  outer loop
    vertex 8.49844600177636 3.0294400000000015 9.895713986292494
    vertex 8.352248138508191 0.0 8.993802992516693
    vertex 8.49844600177636 0.0 9.895713986292494
  endloop
endfacet
facet normal -0.9871155014239642 -0.0 0.16000933362937292
  outer loop
    vertex 8.352248138508191 0.0 8.993802992516693
    vertex 8.49844600177636 3.0294400000000015 9.895713986292494
    vertex 8.352248138508191 3.0294400000000015 8.993802992516693
  endloop
endfacet
facet normal -0.9948938192931353 -0.0 -0.10092714368453365
  outer loop
    vertex 8.406230551478844 3.0294400000000015 10.804731899561673
    vertex 8.49844600177636 0.0 9.895713986292494
    vertex 8.406230551478844 0.0 10.804731899561673
  endloop
endfacet
facet normal -0.9948938192931353 -0.0 -0.10092714368453365
  outer loop
    vertex 8.49844600177636 0.0 9.895713986292494
    vertex 8.406230551478844 3.0294400000000015 10.804731899561673
    vertex 8.49844600177636 3.0294400000000015 9.895713986292494
  endloop
endfacet
facet normal -0.9348717675172531 -0.0 -0.35498560294632714
  outer loop
    vertex 8.081886118160181 3.0294400000000015 11.658908663758067
    vertex 8.406230551478844 0.0 10.804731899561673
    vertex 8.081886118160181 0.0 11.658908663758067
  endloop
endfacet
facet normal -0.9348717675172531 -0.0 -0.35498560294632714
  outer loop
    vertex 8.406230551478844 0.0 10.804731899561673
    vertex 8.081886118160181 3.0294400000000015 11.658908663758067
    vertex 8.406230551478844 3.0294400000000015 10.804731899561673
  endloop
endfacet
facet normal -0.8111397497337134 -0.0 -0.5848523800087755
  outer loop
    vertex 7.5475162389465185 3.0294400000000015 12.40003354399554
    vertex 8.081886118160181 0.0 11.658908663758067
    vertex 7.5475162389465185 0.0 12.40003354399554
  endloop
endfacet
facet normal -0.8111397497337134 -0.0 -0.5848523800087755
  outer loop
    vertex 8.081886118160181 0.0 11.658908663758067
    vertex 7.5475162389465185 3.0294400000000015 12.40003354399554
    vertex 8.081886118160181 3.0294400000000015 11.658908663758067
  endloop
endfacet
facet normal -0.6321298984776375 -0.0 -0.7748624338878819
  outer loop
    vertex 7.5475162389465185 3.0294400000000015 12.40003354399554
    vertex 6.8395373380182924 0.0 12.977600104452677
    vertex 6.8395373380182924 3.0294400000000015 12.977600104452677
  endloop
endfacet
facet normal -0.6321298984776375 -0.0 -0.7748624338878819
  outer loop
    vertex 6.8395373380182924 0.0 12.977600104452677
    vertex 7.5475162389465185 3.0294400000000015 12.40003354399554
    vertex 7.5475162389465185 0.0 12.40003354399554
  endloop
endfacet
facet normal -0.410041439284359 -0.0 -0.9120668934182468
  outer loop
    vertex 6.8395373380182924 3.0294400000000015 12.977600104452677
    vertex 6.006197007483306 0.0 13.352248138508193
    vertex 6.006197007483306 3.0294400000000015 13.352248138508193
  endloop
endfacet
facet normal -0.410041439284359 -0.0 -0.9120668934182468
  outer loop
    vertex 6.006197007483306 0.0 13.352248138508193
    vertex 6.8395373380182924 3.0294400000000015 12.977600104452677
    vertex 6.8395373380182924 0.0 12.977600104452677
  endloop
endfacet
facet normal -0.16000933362937267 -0.0 -0.9871155014239642
  outer loop
    vertex 6.006197007483306 3.0294400000000015 13.352248138508193
    vertex 5.104286013707505 0.0 13.498446001776363
    vertex 5.104286013707505 3.0294400000000015 13.498446001776363
  endloop
endfacet
facet normal -0.16000933362937267 -0.0 -0.9871155014239642
  outer loop
    vertex 5.104286013707505 0.0 13.498446001776363
    vertex 6.006197007483306 3.0294400000000015 13.352248138508193
    vertex 6.006197007483306 0.0 13.352248138508193
  endloop
endfacet
facet normal 0.1009271436845338 -0.0 -0.9948938192931353
  outer loop
    vertex 5.104286013707505 3.0294400000000015 13.498446001776363
    vertex 4.1952681004383265 0.0 13.406230551478846
    vertex 4.1952681004383265 3.0294400000000015 13.406230551478846
  endloop
endfacet
facet normal 0.1009271436845338 -0.0 -0.9948938192931353
  outer loop
    vertex 4.1952681004383265 0.0 13.406230551478846
    vertex 5.104286013707505 3.0294400000000015 13.498446001776363
    vertex 5.104286013707505 0.0 13.498446001776363
  endloop
endfacet
facet normal 0.35498560294632897 -0.0 -0.9348717675172523
  outer loop
    vertex 4.1952681004383265 3.0294400000000015 13.406230551478846
    vertex 3.341091336241934 0.0 13.081886118160181
    vertex 3.341091336241934 3.0294400000000015 13.081886118160181
  endloop
endfacet
facet normal 0.35498560294632897 -0.0 -0.9348717675172523
  outer loop
    vertex 3.341091336241934 0.0 13.081886118160181
    vertex 4.1952681004383265 3.0294400000000015 13.406230551478846
    vertex 4.1952681004383265 0.0 13.406230551478846
  endloop
endfacet
facet normal 0.5848523800087748 -0.0 -0.8111397497337138
  outer loop
    vertex 3.341091336241934 3.0294400000000015 13.081886118160181
    vertex 2.5999664560044615 0.0 12.547516238946521
    vertex 2.5999664560044615 3.0294400000000015 12.547516238946521
  endloop
endfacet
facet normal 0.5848523800087748 -0.0 -0.8111397497337138
  outer loop
    vertex 2.5999664560044615 0.0 12.547516238946521
    vertex 3.341091336241934 3.0294400000000015 13.081886118160181
    vertex 3.341091336241934 0.0 13.081886118160181
  endloop
endfacet
facet normal 0.7748624338878822 -0.0 -0.6321298984776369
  outer loop
    vertex 2.022399895547326 3.0294400000000015 11.839537338018294
    vertex 2.5999664560044615 0.0 12.547516238946521
    vertex 2.022399895547326 0.0 11.839537338018294
  endloop
endfacet
facet normal 0.7748624338878822 -0.0 -0.6321298984776369
  outer loop
    vertex 2.5999664560044615 0.0 12.547516238946521
    vertex 2.022399895547326 3.0294400000000015 11.839537338018294
    vertex 2.5999664560044615 3.0294400000000015 12.547516238946521
  endloop
endfacet
facet normal 0.9120668934182466 -0.0 -0.41004143928435904
  outer loop
    vertex 1.6477518614918083 3.0294400000000015 11.006197007483307
    vertex 2.022399895547326 0.0 11.839537338018294
    vertex 1.6477518614918083 0.0 11.006197007483307
  endloop
endfacet
facet normal 0.9120668934182466 -0.0 -0.41004143928435904
  outer loop
    vertex 2.022399895547326 0.0 11.839537338018294
    vertex 1.6477518614918083 3.0294400000000015 11.006197007483307
    vertex 2.022399895547326 3.0294400000000015 11.839537338018294
  endloop
endfacet
facet normal 0.9871155014239643 -0.0 -0.16000933362937164
  outer loop
    vertex 1.50155399822364 3.0294400000000015 10.104286013707508
    vertex 1.6477518614918083 0.0 11.006197007483307
    vertex 1.50155399822364 0.0 10.104286013707508
  endloop
endfacet
facet normal 0.9871155014239643 -0.0 -0.16000933362937164
  outer loop
    vertex 1.6477518614918083 0.0 11.006197007483307
    vertex 1.50155399822364 3.0294400000000015 10.104286013707508
    vertex 1.6477518614918083 3.0294400000000015 11.006197007483307
  endloop
endfacet
facet normal 0.9948938192931353 0.0 0.10092714368453287
  outer loop
    vertex 1.593769448521157 3.0294400000000015 9.195268100438328
    vertex 1.50155399822364 0.0 10.104286013707508
    vertex 1.593769448521157 0.0 9.195268100438328
  endloop
endfacet
facet normal 0.9948938192931353 0.0 0.10092714368453287
  outer loop
    vertex 1.50155399822364 0.0 10.104286013707508
    vertex 1.593769448521157 3.0294400000000015 9.195268100438328
    vertex 1.50155399822364 3.0294400000000015 10.104286013707508
  endloop
endfacet
facet normal 0.9348717675172528 0.0 0.35498560294632797
  outer loop
    vertex 1.9181138818398196 3.0294400000000015 8.341091336241936
    vertex 1.593769448521157 0.0 9.195268100438328
    vertex 1.9181138818398196 0.0 8.341091336241936
  endloop
endfacet
facet normal 0.9348717675172528 0.0 0.35498560294632797
  outer loop
    vertex 1.593769448521157 0.0 9.195268100438328
    vertex 1.9181138818398196 3.0294400000000015 8.341091336241936
    vertex 1.593769448521157 3.0294400000000015 9.195268100438328
  endloop
endfacet
facet normal 0.8111397497337138 0.0 0.5848523800087746
  outer loop
    vertex 2.45248376105348 3.0294400000000015 7.599966456004465
    vertex 1.9181138818398196 0.0 8.341091336241936
    vertex 2.45248376105348 0.0 7.599966456004465
  endloop
endfacet
facet normal 0.8111397497337138 0.0 0.5848523800087746
  outer loop
    vertex 1.9181138818398196 0.0 8.341091336241936
    vertex 2.45248376105348 3.0294400000000015 7.599966456004465
    vertex 1.9181138818398196 3.0294400000000015 8.341091336241936
  endloop
endfacet
facet normal 0.6321298984776378 0.0 0.7748624338878816
  outer loop
    vertex 3.160462661981707 0.0 7.022399895547327
    vertex 2.45248376105348 3.0294400000000015 7.599966456004465
    vertex 2.45248376105348 0.0 7.599966456004465
  endloop
endfacet
facet normal 0.6321298984776378 0.0 0.7748624338878816
  outer loop
    vertex 2.45248376105348 3.0294400000000015 7.599966456004465
    vertex 3.160462661981707 0.0 7.022399895547327
    vertex 3.160462661981707 3.0294400000000015 7.022399895547327
  endloop
endfacet
facet normal 0.410041439284359 0.0 0.9120668934182468
  outer loop
    vertex 3.9938029925166934 0.0 6.64775186149181
    vertex 3.160462661981707 3.0294400000000015 7.022399895547327
    vertex 3.160462661981707 0.0 7.022399895547327
  endloop
endfacet
facet normal 0.410041439284359 0.0 0.9120668934182468
  outer loop
    vertex 3.160462661981707 3.0294400000000015 7.022399895547327
    vertex 3.9938029925166934 0.0 6.64775186149181
    vertex 3.9938029925166934 3.0294400000000015 6.64775186149181
  endloop
endfacet
facet normal 0.1600093336293714 0.0 0.9871155014239643
  outer loop
    vertex 4.895713986292493 0.0 6.501553998223642
    vertex 3.9938029925166934 3.0294400000000015 6.64775186149181
    vertex 3.9938029925166934 0.0 6.64775186149181
  endloop
endfacet
facet normal 0.1600093336293714 0.0 0.9871155014239643
  outer loop
    vertex 3.9938029925166934 3.0294400000000015 6.64775186149181
    vertex 4.895713986292493 0.0 6.501553998223642
    vertex 4.895713986292493 3.0294400000000015 6.501553998223642
  endloop
endfacet
facet normal -0.1009271436845322 -0.0 0.9948938192931355
  outer loop
    vertex 5.804731899561673 0.0 6.593769448521158
    vertex 4.895713986292493 3.0294400000000015 6.501553998223642
    vertex 4.895713986292493 0.0 6.501553998223642
  endloop
endfacet
facet normal -0.1009271436845322 -0.0 0.9948938192931355
  outer loop
    vertex 4.895713986292493 3.0294400000000015 6.501553998223642
    vertex 5.804731899561673 0.0 6.593769448521158
    vertex 5.804731899561673 3.0294400000000015 6.593769448521158
  endloop
endfacet
facet normal -0.35498560294632714 -0.0 0.9348717675172531
  outer loop
    vertex 6.658908663758066 0.0 6.91811388183982
    vertex 5.804731899561673 3.0294400000000015 6.593769448521158
    vertex 5.804731899561673 0.0 6.593769448521158
  endloop
endfacet
facet normal -0.35498560294632714 -0.0 0.9348717675172531
  outer loop
    vertex 5.804731899561673 3.0294400000000015 6.593769448521158
    vertex 6.658908663758066 0.0 6.91811388183982
    vertex 6.658908663758066 3.0294400000000015 6.91811388183982
  endloop
endfacet
facet normal -0.5848523800087752 -0.0 0.8111397497337135
  outer loop
    vertex 7.400033543995538 0.0 7.452483761053481
    vertex 6.658908663758066 3.0294400000000015 6.91811388183982
    vertex 6.658908663758066 0.0 6.91811388183982
  endloop
endfacet
facet normal -0.5848523800087752 -0.0 0.8111397497337135
  outer loop
    vertex 6.658908663758066 3.0294400000000015 6.91811388183982
    vertex 7.400033543995538 0.0 7.452483761053481
    vertex 7.400033543995538 3.0294400000000015 7.452483761053481
  endloop
endfacet
facet normal -0.7748624338878819 -0.0 0.6321298984776375
  outer loop
    vertex 7.977600104452674 3.0294400000000015 8.160462661981708
    vertex 7.400033543995538 0.0 7.452483761053481
    vertex 7.977600104452674 0.0 8.160462661981708
  endloop
endfacet
facet normal -0.7748624338878819 -0.0 0.6321298984776375
  outer loop
    vertex 7.400033543995538 0.0 7.452483761053481
    vertex 7.977600104452674 3.0294400000000015 8.160462661981708
    vertex 7.400033543995538 3.0294400000000015 7.452483761053481
  endloop
endfacet
facet normal -0.9120668934182468 -0.0 0.410041439284359
  outer loop
    vertex 8.352248138508191 3.0294400000000015 8.993802992516693
    vertex 7.977600104452674 0.0 8.160462661981708
    vertex 8.352248138508191 0.0 8.993802992516693
  endloop
endfacet
facet normal -0.9120668934182468 -0.0 0.410041439284359
  outer loop
    vertex 7.977600104452674 0.0 8.160462661981708
    vertex 8.352248138508191 3.0294400000000015 8.993802992516693
    vertex 7.977600104452674 3.0294400000000015 8.160462661981708
  endloop
endfacet
endsolid Untitled-5890ac31
