solid TEST-50x50x30
facet normal 0.0 0.0 -1.0
  outer loop
    vertex 0.0 50.0 0.0
    vertex 2.121320343559643 47.878679656440355 0.0
    vertex 0.0 0.0 0.0
  endloop
endfacet
facet normal 0.0 0.0 -1.0
  outer loop
    vertex 2.121320343559643 47.878679656440355 0.0
    vertex 0.0 50.0 0.0
    vertex 50.0 50.0 0.0
  endloop
endfacet
facet normal 0.0 0.0 -1.0
  outer loop
    vertex 2.121320343559643 47.878679656440355 0.0
    vertex 50.0 50.0 0.0
    vertex 5.121320343559642 47.878679656440355 0.0
  endloop
endfacet
facet normal 0.0 0.0 -1.0
  outer loop
    vertex 5.121320343559642 47.878679656440355 0.0
    vertex 50.0 50.0 0.0
    vertex 44.878679656440355 47.878679656440355 0.0
  endloop
endfacet
facet normal 0.0 0.0 -1.0
  outer loop
    vertex 44.878679656440355 47.878679656440355 0.0
    vertex 50.0 50.0 0.0
    vertex 47.878679656440355 47.878679656440355 0.0
  endloop
endfacet
facet normal 0.0 0.0 -1.0
  outer loop
    vertex 47.878679656440355 47.878679656440355 0.0
    vertex 50.0 50.0 0.0
    vertex 47.878679656440355 44.878679656440355 0.0
  endloop
endfacet
facet normal 0.0 0.0 -1.0
  outer loop
    vertex 47.878679656440355 44.878679656440355 0.0
    vertex 50.0 50.0 0.0
    vertex 47.878679656440355 5.121320343559642 0.0
  endloop
endfacet
facet normal 0.0 0.0 -1.0
  outer loop
    vertex 47.878679656440355 5.121320343559642 0.0
    vertex 50.0 50.0 0.0
    vertex 47.878679656440355 2.121320343559643 0.0
  endloop
endfacet
facet normal 0.0 0.0 -1.0
  outer loop
    vertex 0.0 0.0 0.0
    vertex 2.121320343559643 2.121320343559643 0.0
    vertex 50.0 0.0 0.0
  endloop
endfacet
facet normal 0.0 0.0 -1.0
  outer loop
    vertex 2.121320343559643 2.121320343559643 0.0
    vertex 0.0 0.0 0.0
    vertex 2.121320343559643 47.878679656440355 0.0
  endloop
endfacet
facet normal 0.0 0.0 -1.0
  outer loop
    vertex 2.121320343559643 2.121320343559643 0.0
    vertex 2.121320343559643 47.878679656440355 0.0
    vertex 2.121320343559643 44.878679656440355 0.0
  endloop
endfacet
facet normal 0.0 0.0 -1.0
  outer loop
    vertex 2.121320343559643 2.121320343559643 0.0
    vertex 2.121320343559643 44.878679656440355 0.0
    vertex 2.121320343559643 5.121320343559643 0.0
  endloop
endfacet
facet normal 0.0 0.0 -1.0
  outer loop
    vertex 50.0 0.0 0.0
    vertex 2.121320343559643 2.121320343559643 0.0
    vertex 5.121320343559643 2.121320343559643 0.0
  endloop
endfacet
facet normal 0.0 0.0 -1.0
  outer loop
    vertex 50.0 0.0 0.0
    vertex 5.121320343559643 2.121320343559643 0.0
    vertex 44.878679656440355 2.121320343559643 0.0
  endloop
endfacet
facet normal 0.0 0.0 -1.0
  outer loop
    vertex 50.0 0.0 0.0
    vertex 44.878679656440355 2.121320343559643 0.0
    vertex 47.878679656440355 2.121320343559643 0.0
  endloop
endfacet
facet normal 0.0 0.0 -1.0
  outer loop
    vertex 50.0 0.0 0.0
    vertex 47.878679656440355 2.121320343559643 0.0
    vertex 50.0 50.0 0.0
  endloop
endfacet
facet normal 0.0 0.0 -1.0
  outer loop
    vertex 44.878679656440355 47.878679656440355 0.0
    vertex 27.999999999999993 24.999999999999996 0.0
    vertex 25.000000000000004 27.999999999999993 0.0
  endloop
endfacet
facet normal 0.0 0.0 -1.0
  outer loop
    vertex 27.999999999999993 24.999999999999996 0.0
    vertex 44.878679656440355 47.878679656440355 0.0
    vertex 47.878679656440355 44.878679656440355 0.0
  endloop
endfacet
facet normal 0.0 0.0 -1.0
  outer loop
    vertex 47.878679656440355 44.878679656440355 0.0
    vertex 44.878679656440355 47.878679656440355 0.0
    vertex 47.878679656440355 47.878679656440355 0.0
  endloop
endfacet
facet normal 0.0 0.0 -1.0
  outer loop
    vertex 5.121320343559642 47.878679656440355 0.0
    vertex 2.121320343559643 44.878679656440355 0.0
    vertex 2.121320343559643 47.878679656440355 0.0
  endloop
endfacet
facet normal 0.0 0.0 -1.0
  outer loop
    vertex 2.121320343559643 44.878679656440355 0.0
    vertex 5.121320343559642 47.878679656440355 0.0
    vertex 22.0 25.0 0.0
  endloop
endfacet
facet normal 0.0 0.0 -1.0
  outer loop
    vertex 22.0 25.0 0.0
    vertex 5.121320343559642 47.878679656440355 0.0
    vertex 25.000000000000004 27.999999999999993 0.0
  endloop
endfacet
facet normal 0.0 0.0 -1.0
  outer loop
    vertex 22.0 25.0 0.0
    vertex 25.000000000000004 27.999999999999993 0.0
    vertex 25.0 22.0 0.0
  endloop
endfacet
facet normal 0.0 0.0 -1.0
  outer loop
    vertex 25.0 22.0 0.0
    vertex 25.000000000000004 27.999999999999993 0.0
    vertex 44.878679656440355 2.121320343559643 0.0
  endloop
endfacet
facet normal 0.0 0.0 -1.0
  outer loop
    vertex 44.878679656440355 2.121320343559643 0.0
    vertex 25.000000000000004 27.999999999999993 0.0
    vertex 27.999999999999993 24.999999999999996 0.0
  endloop
endfacet
facet normal 0.0 0.0 -1.0
  outer loop
    vertex 44.878679656440355 2.121320343559643 0.0
    vertex 27.999999999999993 24.999999999999996 0.0
    vertex 47.878679656440355 5.121320343559642 0.0
  endloop
endfacet
facet normal 0.0 0.0 -1.0
  outer loop
    vertex 44.878679656440355 2.121320343559643 0.0
    vertex 47.878679656440355 5.121320343559642 0.0
    vertex 47.878679656440355 2.121320343559643 0.0
  endloop
endfacet
facet normal 0.0 0.0 -1.0
  outer loop
    vertex 22.0 25.0 0.0
    vertex 2.121320343559643 2.121320343559643 0.0
    vertex 2.121320343559643 5.121320343559643 0.0
  endloop
endfacet
facet normal 0.0 0.0 -1.0
  outer loop
    vertex 2.121320343559643 2.121320343559643 0.0
    vertex 22.0 25.0 0.0
    vertex 5.121320343559643 2.121320343559643 0.0
  endloop
endfacet
facet normal 0.0 0.0 -1.0
  outer loop
    vertex 5.121320343559643 2.121320343559643 0.0
    vertex 22.0 25.0 0.0
    vertex 25.0 22.0 0.0
  endloop
endfacet
facet normal -0.0 -0.0 1.0
  outer loop
    vertex 0.0 0.0 30.0
    vertex 2.121320343559643 2.121320343559643 30.0
    vertex 0.0 50.0 30.0
  endloop
endfacet
facet normal -0.0 -0.0 1.0
  outer loop
    vertex 2.121320343559643 2.121320343559643 30.0
    vertex 0.0 0.0 30.0
    vertex 50.0 0.0 30.0
  endloop
endfacet
facet normal -0.0 -0.0 1.0
  outer loop
    vertex 2.121320343559643 2.121320343559643 30.0
    vertex 50.0 0.0 30.0
    vertex 5.121320343559643 2.121320343559643 30.0
  endloop
endfacet
facet normal -0.0 -0.0 1.0
  outer loop
    vertex 5.121320343559643 2.121320343559643 30.0
    vertex 50.0 0.0 30.0
    vertex 44.878679656440355 2.121320343559643 30.0
  endloop
endfacet
facet normal -0.0 -0.0 1.0
  outer loop
    vertex 44.878679656440355 2.121320343559643 30.0
    vertex 50.0 0.0 30.0
    vertex 47.878679656440355 2.121320343559643 30.0
  endloop
endfacet
facet normal -0.0 -0.0 1.0
  outer loop
    vertex 47.878679656440355 2.121320343559643 30.0
    vertex 50.0 0.0 30.0
    vertex 47.878679656440355 5.121320343559642 30.0
  endloop
endfacet
facet normal -0.0 -0.0 1.0
  outer loop
    vertex 47.878679656440355 5.121320343559642 30.0
    vertex 50.0 0.0 30.0
    vertex 47.878679656440355 44.878679656440355 30.0
  endloop
endfacet
facet normal -0.0 -0.0 1.0
  outer loop
    vertex 47.878679656440355 44.878679656440355 30.0
    vertex 50.0 0.0 30.0
    vertex 47.878679656440355 47.878679656440355 30.0
  endloop
endfacet
facet normal -0.0 -0.0 1.0
  outer loop
    vertex 0.0 50.0 30.0
    vertex 2.121320343559643 47.878679656440355 30.0
    vertex 50.0 50.0 30.0
  endloop
endfacet
facet normal -0.0 -0.0 1.0
  outer loop
    vertex 2.121320343559643 47.878679656440355 30.0
    vertex 0.0 50.0 30.0
    vertex 2.121320343559643 2.121320343559643 30.0
  endloop
endfacet
facet normal -0.0 -0.0 1.0
  outer loop
    vertex 2.121320343559643 47.878679656440355 30.0
    vertex 2.121320343559643 2.121320343559643 30.0
    vertex 2.121320343559643 5.121320343559643 30.0
  endloop
endfacet
facet normal -0.0 -0.0 1.0
  outer loop
    vertex 2.121320343559643 47.878679656440355 30.0
    vertex 2.121320343559643 5.121320343559643 30.0
    vertex 2.121320343559643 44.878679656440355 30.0
  endloop
endfacet
facet normal -0.0 -0.0 1.0
  outer loop
    vertex 50.0 50.0 30.0
    vertex 2.121320343559643 47.878679656440355 30.0
    vertex 5.121320343559642 47.878679656440355 30.0
  endloop
endfacet
facet normal -0.0 -0.0 1.0
  outer loop
    vertex 50.0 50.0 30.0
    vertex 5.121320343559642 47.878679656440355 30.0
    vertex 44.878679656440355 47.878679656440355 30.0
  endloop
endfacet
facet normal -0.0 -0.0 1.0
  outer loop
    vertex 50.0 50.0 30.0
    vertex 44.878679656440355 47.878679656440355 30.0
    vertex 47.878679656440355 47.878679656440355 30.0
  endloop
endfacet
facet normal -0.0 -0.0 1.0
  outer loop
    vertex 50.0 50.0 30.0
    vertex 47.878679656440355 47.878679656440355 30.0
    vertex 50.0 0.0 30.0
  endloop
endfacet
facet normal -1.0 0.0 0.0
  outer loop
    vertex 0.0 50.0 30.0
    vertex 0.0 0.0 0.0
    vertex 0.0 0.0 30.0
  endloop
endfacet
facet normal -1.0 0.0 0.0
  outer loop
    vertex 0.0 0.0 0.0
    vertex 0.0 50.0 30.0
    vertex 0.0 50.0 0.0
  endloop
endfacet
facet normal -0.0 1.0 0.0
  outer loop
    vertex 0.0 50.0 30.0
    vertex 50.0 50.0 0.0
    vertex 0.0 50.0 0.0
  endloop
endfacet
facet normal -0.0 1.0 0.0
  outer loop
    vertex 50.0 50.0 0.0
    vertex 0.0 50.0 30.0
    vertex 50.0 50.0 30.0
  endloop
endfacet
facet normal 1.0 0.0 0.0
  outer loop
    vertex 50.0 50.0 0.0
    vertex 50.0 0.0 30.0
    vertex 50.0 0.0 0.0
  endloop
endfacet
facet normal 1.0 0.0 0.0
  outer loop
    vertex 50.0 0.0 30.0
    vertex 50.0 50.0 0.0
    vertex 50.0 50.0 30.0
  endloop
endfacet
facet normal -0.0 -1.0 -0.0
  outer loop
    vertex 50.0 0.0 30.0
    vertex 0.0 0.0 0.0
    vertex 50.0 0.0 0.0
  endloop
endfacet
facet normal -0.0 -1.0 -0.0
  outer loop
    vertex 0.0 0.0 0.0
    vertex 50.0 0.0 30.0
    vertex 0.0 0.0 30.0
  endloop
endfacet
facet normal -1.0 0.0 0.0
  outer loop
    vertex 47.878679656440355 5.121320343559642 30.0
    vertex 47.878679656440355 2.121320343559643 10.0
    vertex 47.878679656440355 2.121320343559643 30.0
  endloop
endfacet
facet normal -1.0 0.0 0.0
  outer loop
    vertex 47.878679656440355 2.121320343559643 10.0
    vertex 47.878679656440355 5.121320343559642 30.0
    vertex 47.878679656440355 5.121320343559642 10.0
  endloop
endfacet
facet normal -1.0 0.0 0.0
  outer loop
    vertex 47.878679656440355 44.878679656440355 30.0
    vertex 47.878679656440355 5.121320343559642 10.0
    vertex 47.878679656440355 5.121320343559642 30.0
  endloop
endfacet
facet normal -1.0 0.0 0.0
  outer loop
    vertex 47.878679656440355 5.121320343559642 10.0
    vertex 47.878679656440355 44.878679656440355 30.0
    vertex 47.878679656440355 5.121320343559642 0.0
  endloop
endfacet
facet normal -1.0 0.0 0.0
  outer loop
    vertex 47.878679656440355 5.121320343559642 0.0
    vertex 47.878679656440355 44.878679656440355 30.0
    vertex 47.878679656440355 44.878679656440355 0.0
  endloop
endfacet
facet normal -1.0 0.0 0.0
  outer loop
    vertex 47.878679656440355 44.878679656440355 0.0
    vertex 47.878679656440355 44.878679656440355 30.0
    vertex 47.878679656440355 44.878679656440355 10.0
  endloop
endfacet
facet normal -1.0 0.0 0.0
  outer loop
    vertex 47.878679656440355 47.878679656440355 30.0
    vertex 47.878679656440355 44.878679656440355 10.0
    vertex 47.878679656440355 44.878679656440355 30.0
  endloop
endfacet
facet normal -1.0 0.0 0.0
  outer loop
    vertex 47.878679656440355 44.878679656440355 10.0
    vertex 47.878679656440355 47.878679656440355 30.0
    vertex 47.878679656440355 47.878679656440355 10.0
  endloop
endfacet
facet normal 0.0 -1.0 0.0
  outer loop
    vertex 47.878679656440355 47.878679656440355 30.0
    vertex 44.878679656440355 47.878679656440355 10.0
    vertex 47.878679656440355 47.878679656440355 10.0
  endloop
endfacet
facet normal 0.0 -1.0 0.0
  outer loop
    vertex 44.878679656440355 47.878679656440355 10.0
    vertex 47.878679656440355 47.878679656440355 30.0
    vertex 44.878679656440355 47.878679656440355 30.0
  endloop
endfacet
facet normal 0.0 -1.0 0.0
  outer loop
    vertex 44.878679656440355 47.878679656440355 10.0
    vertex 5.121320343559642 47.878679656440355 0.0
    vertex 44.878679656440355 47.878679656440355 0.0
  endloop
endfacet
facet normal 0.0 -1.0 0.0
  outer loop
    vertex 5.121320343559642 47.878679656440355 0.0
    vertex 44.878679656440355 47.878679656440355 10.0
    vertex 5.121320343559642 47.878679656440355 10.0
  endloop
endfacet
facet normal 0.0 -1.0 0.0
  outer loop
    vertex 5.121320343559642 47.878679656440355 10.0
    vertex 44.878679656440355 47.878679656440355 10.0
    vertex 44.878679656440355 47.878679656440355 30.0
  endloop
endfacet
facet normal 0.0 -1.0 0.0
  outer loop
    vertex 5.121320343559642 47.878679656440355 10.0
    vertex 44.878679656440355 47.878679656440355 30.0
    vertex 5.121320343559642 47.878679656440355 30.0
  endloop
endfacet
facet normal 0.0 -1.0 0.0
  outer loop
    vertex 5.121320343559642 47.878679656440355 30.0
    vertex 2.121320343559643 47.878679656440355 10.0
    vertex 5.121320343559642 47.878679656440355 10.0
  endloop
endfacet
facet normal 0.0 -1.0 0.0
  outer loop
    vertex 2.121320343559643 47.878679656440355 10.0
    vertex 5.121320343559642 47.878679656440355 30.0
    vertex 2.121320343559643 47.878679656440355 30.0
  endloop
endfacet
facet normal 1.0 -0.0 -0.0
  outer loop
    vertex 2.121320343559643 47.878679656440355 10.0
    vertex 2.121320343559643 44.878679656440355 30.0
    vertex 2.121320343559643 44.878679656440355 10.0
  endloop
endfacet
facet normal 1.0 -0.0 -0.0
  outer loop
    vertex 2.121320343559643 44.878679656440355 30.0
    vertex 2.121320343559643 47.878679656440355 10.0
    vertex 2.121320343559643 47.878679656440355 30.0
  endloop
endfacet
facet normal 1.0 -0.0 -0.0
  outer loop
    vertex 2.121320343559643 44.878679656440355 0.0
    vertex 2.121320343559643 5.121320343559643 10.0
    vertex 2.121320343559643 5.121320343559643 0.0
  endloop
endfacet
facet normal 1.0 -0.0 -0.0
  outer loop
    vertex 2.121320343559643 5.121320343559643 10.0
    vertex 2.121320343559643 44.878679656440355 0.0
    vertex 2.121320343559643 5.121320343559643 30.0
  endloop
endfacet
facet normal 1.0 -0.0 -0.0
  outer loop
    vertex 2.121320343559643 5.121320343559643 30.0
    vertex 2.121320343559643 44.878679656440355 0.0
    vertex 2.121320343559643 44.878679656440355 30.0
  endloop
endfacet
facet normal 1.0 -0.0 -0.0
  outer loop
    vertex 2.121320343559643 44.878679656440355 30.0
    vertex 2.121320343559643 44.878679656440355 0.0
    vertex 2.121320343559643 44.878679656440355 10.0
  endloop
endfacet
facet normal 1.0 -0.0 -0.0
  outer loop
    vertex 2.121320343559643 5.121320343559643 10.0
    vertex 2.121320343559643 2.121320343559643 30.0
    vertex 2.121320343559643 2.121320343559643 10.0
  endloop
endfacet
facet normal 1.0 -0.0 -0.0
  outer loop
    vertex 2.121320343559643 2.121320343559643 30.0
    vertex 2.121320343559643 5.121320343559643 10.0
    vertex 2.121320343559643 5.121320343559643 30.0
  endloop
endfacet
facet normal -0.0 1.0 -0.0
  outer loop
    vertex 2.121320343559643 2.121320343559643 30.0
    vertex 5.121320343559643 2.121320343559643 10.0
    vertex 2.121320343559643 2.121320343559643 10.0
  endloop
endfacet
facet normal -0.0 1.0 -0.0
  outer loop
    vertex 5.121320343559643 2.121320343559643 10.0
    vertex 2.121320343559643 2.121320343559643 30.0
    vertex 5.121320343559643 2.121320343559643 30.0
  endloop
endfacet
facet normal -0.0 1.0 -0.0
  outer loop
    vertex 5.121320343559643 2.121320343559643 10.0
    vertex 44.878679656440355 2.121320343559643 0.0
    vertex 5.121320343559643 2.121320343559643 0.0
  endloop
endfacet
facet normal -0.0 1.0 -0.0
  outer loop
    vertex 44.878679656440355 2.121320343559643 0.0
    vertex 5.121320343559643 2.121320343559643 10.0
    vertex 44.878679656440355 2.121320343559643 10.0
  endloop
endfacet
facet normal -0.0 1.0 -0.0
  outer loop
    vertex 44.878679656440355 2.121320343559643 10.0
    vertex 5.121320343559643 2.121320343559643 10.0
    vertex 5.121320343559643 2.121320343559643 30.0
  endloop
endfacet
facet normal -0.0 1.0 -0.0
  outer loop
    vertex 44.878679656440355 2.121320343559643 10.0
    vertex 5.121320343559643 2.121320343559643 30.0
    vertex 44.878679656440355 2.121320343559643 30.0
  endloop
endfacet
facet normal -0.0 1.0 -0.0
  outer loop
    vertex 44.878679656440355 2.121320343559643 30.0
    vertex 47.878679656440355 2.121320343559643 10.0
    vertex 44.878679656440355 2.121320343559643 10.0
  endloop
endfacet
facet normal -0.0 1.0 -0.0
  outer loop
    vertex 47.878679656440355 2.121320343559643 10.0
    vertex 44.878679656440355 2.121320343559643 30.0
    vertex 47.878679656440355 2.121320343559643 30.0
  endloop
endfacet
facet normal -0.0 -0.0 1.0
  outer loop
    vertex 5.121320343559643 2.121320343559643 10.0
    vertex 2.121320343559643 5.121320343559643 10.0
    vertex 2.121320343559643 2.121320343559643 10.0
  endloop
endfacet
facet normal -0.0 -0.0 1.0
  outer loop
    vertex 2.121320343559643 5.121320343559643 10.0
    vertex 5.121320343559643 2.121320343559643 10.0
    vertex 22.0 25.0 10.0
  endloop
endfacet
facet normal -0.0 -0.0 1.0
  outer loop
    vertex 22.0 25.0 10.0
    vertex 5.121320343559643 2.121320343559643 10.0
    vertex 25.0 22.0 10.0
  endloop
endfacet
facet normal -0.0 -0.0 1.0
  outer loop
    vertex 22.0 25.0 10.0
    vertex 2.121320343559643 47.878679656440355 10.0
    vertex 2.121320343559643 44.878679656440355 10.0
  endloop
endfacet
facet normal -0.0 -0.0 1.0
  outer loop
    vertex 2.121320343559643 47.878679656440355 10.0
    vertex 22.0 25.0 10.0
    vertex 5.121320343559642 47.878679656440355 10.0
  endloop
endfacet
facet normal -0.0 -0.0 1.0
  outer loop
    vertex 5.121320343559642 47.878679656440355 10.0
    vertex 22.0 25.0 10.0
    vertex 25.000000000000004 27.999999999999993 10.0
  endloop
endfacet
facet normal -0.0 -0.0 1.0
  outer loop
    vertex 25.000000000000004 27.999999999999993 10.0
    vertex 22.0 25.0 10.0
    vertex 25.0 22.0 10.0
  endloop
endfacet
facet normal -0.0 -0.0 1.0
  outer loop
    vertex 25.000000000000004 27.999999999999993 10.0
    vertex 25.0 22.0 10.0
    vertex 44.878679656440355 2.121320343559643 10.0
  endloop
endfacet
facet normal -0.0 -0.0 1.0
  outer loop
    vertex 25.000000000000004 27.999999999999993 10.0
    vertex 44.878679656440355 2.121320343559643 10.0
    vertex 27.999999999999993 24.999999999999996 10.0
  endloop
endfacet
facet normal -0.0 -0.0 1.0
  outer loop
    vertex 27.999999999999993 24.999999999999996 10.0
    vertex 44.878679656440355 2.121320343559643 10.0
    vertex 47.878679656440355 5.121320343559642 10.0
  endloop
endfacet
facet normal -0.0 -0.0 1.0
  outer loop
    vertex 47.878679656440355 5.121320343559642 10.0
    vertex 44.878679656440355 2.121320343559643 10.0
    vertex 47.878679656440355 2.121320343559643 10.0
  endloop
endfacet
facet normal -0.0 -0.0 1.0
  outer loop
    vertex 27.999999999999993 24.999999999999996 10.0
    vertex 44.878679656440355 47.878679656440355 10.0
    vertex 25.000000000000004 27.999999999999993 10.0
  endloop
endfacet
facet normal -0.0 -0.0 1.0
  outer loop
    vertex 44.878679656440355 47.878679656440355 10.0
    vertex 27.999999999999993 24.999999999999996 10.0
    vertex 47.878679656440355 44.878679656440355 10.0
  endloop
endfacet
facet normal -0.0 -0.0 1.0
  outer loop
    vertex 44.878679656440355 47.878679656440355 10.0
    vertex 47.878679656440355 44.878679656440355 10.0
    vertex 47.878679656440355 47.878679656440355 10.0
  endloop
endfacet
facet normal 0.7071067811865476 0.7071067811865475 -0.0
  outer loop
    vertex 5.121320343559642 47.878679656440355 0.0
    vertex 25.000000000000004 27.999999999999993 10.0
    vertex 25.000000000000004 27.999999999999993 0.0
  endloop
endfacet
facet normal 0.7071067811865476 0.7071067811865475 -0.0
  outer loop
    vertex 25.000000000000004 27.999999999999993 10.0
    vertex 5.121320343559642 47.878679656440355 0.0
    vertex 5.121320343559642 47.878679656440355 10.0
  endloop
endfacet
facet normal -0.7071067811865477 0.7071067811865474 0.0
  outer loop
    vertex 44.878679656440355 47.878679656440355 10.0
    vertex 25.000000000000004 27.999999999999993 0.0
    vertex 25.000000000000004 27.999999999999993 10.0
  endloop
endfacet
facet normal -0.7071067811865477 0.7071067811865474 0.0
  outer loop
    vertex 25.000000000000004 27.999999999999993 0.0
    vertex 44.878679656440355 47.878679656440355 10.0
    vertex 44.878679656440355 47.878679656440355 0.0
  endloop
endfacet
facet normal 0.0 -1.0 0.0
  outer loop
    vertex 47.878679656440355 47.878679656440355 10.0
    vertex 44.878679656440355 47.878679656440355 0.0
    vertex 47.878679656440355 47.878679656440355 0.0
  endloop
endfacet
facet normal 0.0 -1.0 0.0
  outer loop
    vertex 44.878679656440355 47.878679656440355 0.0
    vertex 47.878679656440355 47.878679656440355 10.0
    vertex 44.878679656440355 47.878679656440355 10.0
  endloop
endfacet
facet normal -1.0 0.0 0.0
  outer loop
    vertex 47.878679656440355 47.878679656440355 10.0
    vertex 47.878679656440355 44.878679656440355 0.0
    vertex 47.878679656440355 44.878679656440355 10.0
  endloop
endfacet
facet normal -1.0 0.0 0.0
  outer loop
    vertex 47.878679656440355 44.878679656440355 0.0
    vertex 47.878679656440355 47.878679656440355 10.0
    vertex 47.878679656440355 47.878679656440355 0.0
  endloop
endfacet
facet normal 0.7071067811865475 -0.7071067811865476 0.0
  outer loop
    vertex 47.878679656440355 44.878679656440355 10.0
    vertex 27.999999999999993 24.999999999999996 0.0
    vertex 47.878679656440355 44.878679656440355 0.0
  endloop
endfacet
facet normal 0.7071067811865475 -0.7071067811865476 0.0
  outer loop
    vertex 27.999999999999993 24.999999999999996 0.0
    vertex 47.878679656440355 44.878679656440355 10.0
    vertex 27.999999999999993 24.999999999999996 10.0
  endloop
endfacet
facet normal 0.7071067811865474 0.7071067811865477 -0.0
  outer loop
    vertex 27.999999999999993 24.999999999999996 10.0
    vertex 47.878679656440355 5.121320343559642 0.0
    vertex 27.999999999999993 24.999999999999996 0.0
  endloop
endfacet
facet normal 0.7071067811865474 0.7071067811865477 -0.0
  outer loop
    vertex 47.878679656440355 5.121320343559642 0.0
    vertex 27.999999999999993 24.999999999999996 10.0
    vertex 47.878679656440355 5.121320343559642 10.0
  endloop
endfacet
facet normal -1.0 0.0 0.0
  outer loop
    vertex 47.878679656440355 5.121320343559642 10.0
    vertex 47.878679656440355 2.121320343559643 0.0
    vertex 47.878679656440355 2.121320343559643 10.0
  endloop
endfacet
facet normal -1.0 0.0 0.0
  outer loop
    vertex 47.878679656440355 2.121320343559643 0.0
    vertex 47.878679656440355 5.121320343559642 10.0
    vertex 47.878679656440355 5.121320343559642 0.0
  endloop
endfacet
facet normal -0.0 1.0 -0.0
  outer loop
    vertex 44.878679656440355 2.121320343559643 10.0
    vertex 47.878679656440355 2.121320343559643 0.0
    vertex 44.878679656440355 2.121320343559643 0.0
  endloop
endfacet
facet normal -0.0 1.0 -0.0
  outer loop
    vertex 47.878679656440355 2.121320343559643 0.0
    vertex 44.878679656440355 2.121320343559643 10.0
    vertex 47.878679656440355 2.121320343559643 10.0
  endloop
endfacet
facet normal -0.7071067811865476 -0.7071067811865476 0.0
  outer loop
    vertex 25.0 22.0 10.0
    vertex 44.878679656440355 2.121320343559643 0.0
    vertex 44.878679656440355 2.121320343559643 10.0
  endloop
endfacet
facet normal -0.7071067811865476 -0.7071067811865476 0.0
  outer loop
    vertex 44.878679656440355 2.121320343559643 0.0
    vertex 25.0 22.0 10.0
    vertex 25.0 22.0 0.0
  endloop
endfacet
facet normal 0.7071067811865476 -0.7071067811865476 0.0
  outer loop
    vertex 25.0 22.0 0.0
    vertex 5.121320343559643 2.121320343559643 10.0
    vertex 5.121320343559643 2.121320343559643 0.0
  endloop
endfacet
facet normal 0.7071067811865476 -0.7071067811865476 0.0
  outer loop
    vertex 5.121320343559643 2.121320343559643 10.0
    vertex 25.0 22.0 0.0
    vertex 25.0 22.0 10.0
  endloop
endfacet
facet normal -0.0 1.0 -0.0
  outer loop
    vertex 2.121320343559643 2.121320343559643 10.0
    vertex 5.121320343559643 2.121320343559643 0.0
    vertex 2.121320343559643 2.121320343559643 0.0
  endloop
endfacet
facet normal -0.0 1.0 -0.0
  outer loop
    vertex 5.121320343559643 2.121320343559643 0.0
    vertex 2.121320343559643 2.121320343559643 10.0
    vertex 5.121320343559643 2.121320343559643 10.0
  endloop
endfacet
facet normal 1.0 -0.0 -0.0
  outer loop
    vertex 2.121320343559643 5.121320343559643 0.0
    vertex 2.121320343559643 2.121320343559643 10.0
    vertex 2.121320343559643 2.121320343559643 0.0
  endloop
endfacet
facet normal 1.0 -0.0 -0.0
  outer loop
    vertex 2.121320343559643 2.121320343559643 10.0
    vertex 2.121320343559643 5.121320343559643 0.0
    vertex 2.121320343559643 5.121320343559643 10.0
  endloop
endfacet
facet normal -0.7071067811865476 0.7071067811865476 -0.0
  outer loop
    vertex 22.0 25.0 10.0
    vertex 2.121320343559643 5.121320343559643 0.0
    vertex 2.121320343559643 5.121320343559643 10.0
  endloop
endfacet
facet normal -0.7071067811865476 0.7071067811865476 -0.0
  outer loop
    vertex 2.121320343559643 5.121320343559643 0.0
    vertex 22.0 25.0 10.0
    vertex 22.0 25.0 0.0
  endloop
endfacet
facet normal -0.7071067811865476 -0.7071067811865476 0.0
  outer loop
    vertex 2.121320343559643 44.878679656440355 10.0
    vertex 22.0 25.0 0.0
    vertex 22.0 25.0 10.0
  endloop
endfacet
facet normal -0.7071067811865476 -0.7071067811865476 0.0
  outer loop
    vertex 22.0 25.0 0.0
    vertex 2.121320343559643 44.878679656440355 10.0
    vertex 2.121320343559643 44.878679656440355 0.0
  endloop
endfacet
facet normal 1.0 -0.0 -0.0
  outer loop
    vertex 2.121320343559643 47.878679656440355 0.0
    vertex 2.121320343559643 44.878679656440355 10.0
    vertex 2.121320343559643 44.878679656440355 0.0
  endloop
endfacet
facet normal 1.0 -0.0 -0.0
  outer loop
    vertex 2.121320343559643 44.878679656440355 10.0
    vertex 2.121320343559643 47.878679656440355 0.0
    vertex 2.121320343559643 47.878679656440355 10.0
  endloop
endfacet
facet normal 0.0 -1.0 0.0
  outer loop
    vertex 5.121320343559642 47.878679656440355 10.0
    vertex 2.121320343559643 47.878679656440355 0.0
    vertex 5.121320343559642 47.878679656440355 0.0
  endloop
endfacet
facet normal 0.0 -1.0 0.0
  outer loop
    vertex 2.121320343559643 47.878679656440355 0.0
    vertex 5.121320343559642 47.878679656440355 10.0
    vertex 2.121320343559643 47.878679656440355 10.0
  endloop
endfacet
endsolid TEST-50x50x30
