solid ухо3
facet normal 0.0 -1.0 0.0
  outer loop
    vertex 70.54560891786396 -4.131350680114387 4.055525195425004
    vertex 70.54560891786396 -4.131350680114387 3.9095829876198116
    vertex 70.6687767605803 -4.131350680114387 3.9095829876198116
  endloop
endfacet
facet normal 0.5951299392851344 0.004044428053927208 -0.8036193115948551
  outer loop
    vertex 54.81040359026099 -4.131350680114376 69.91594817613729
    vertex 54.63879963789708 5.5926487447114335 69.83780342180498
    vertex 54.7497772276747 5.618214218140437 69.92011787471804
  endloop
endfacet
facet normal 0.4830754122059956 3.1421855758944305e-15 -0.8755787492407565
  outer loop
    vertex 56.1922653765364 5.868649319885891 70.71596925612478
    vertex 56.192265376535566 -4.131350680114366 70.71596925612428
    vertex 54.7497772276747 5.618214218140437 69.92011787471804
  endloop
endfacet
facet normal 0.6137289427933333 0.00448608742062303 -0.789504059392624
  outer loop
    vertex 54.81040359026099 -4.131350680114376 69.91594817613729
    vertex 54.704100297176545 -4.131350680114378 69.83331223917915
    vertex 54.63879963789708 5.5926487447114335 69.83780342180498
  endloop
endfacet
facet normal 0.963148806724693 0.07661605814688878 -0.25782621228035074
  outer loop
    vertex 45.40171610448196 1.7211226593017905 57.14909094961468
    vertex 46.75620146896656 -4.131350680114373 60.46984533405485
    vertex 45.858849327380184 -4.1313506801143705 57.117650703661816
  endloop
endfacet
facet normal 0.9450711809975674 0.134947370438564 0.2977073564082359
  outer loop
    vertex 46.64196681601885 -1.3209388882591686 46.928111261268334
    vertex 46.009506026479464 -4.131350680114369 50.20978410352534
    vertex 47.05215437598833 -4.131350680114372 46.899899796587704
  endloop
endfacet
facet normal 0.8705643473530702 0.14909969995656325 0.4689210984702928
  outer loop
    vertex 48.357835365577245 -2.2198417117906803 43.868079013023205
    vertex 47.05215437598833 -4.131350680114372 46.899899796587704
    vertex 48.69781015891622 -4.131350680114373 43.844696570915005
  endloop
endfacet
facet normal 0.5010312732031167 0.003485719982220013 -0.8654221588500431
  outer loop
    vertex 56.192265376535566 -4.131350680114366 70.71596925612428
    vertex 54.81040359026099 -4.131350680114376 69.91594817613729
    vertex 54.7497772276747 5.618214218140437 69.92011787471804
  endloop
endfacet
facet normal 0.8976789138672125 0.05629801921683991 -0.4370390149980227
  outer loop
    vertex 46.33984209382773 2.7298508609469723 60.49848127759019
    vertex 48.31704547308929 -4.131350680114377 63.675821693724664
    vertex 46.75620146896656 -4.131350680114373 60.46984533405485
  endloop
endfacet
facet normal 0.7972241165360439 0.0371305795812109 -0.6025404783691198
  outer loop
    vertex 47.97030636750571 3.700414069213478 63.69966936485169
    vertex 50.46703215034887 -4.13135068011438 66.52047909165057
    vertex 48.31704547308929 -4.131350680114377 63.675821693724664
  endloop
endfacet
facet normal 0.7659551094933399 0.15792709727631885 0.6231948348525699
  outer loop
    vertex 50.64206821778477 -3.00568223950589 41.16979002410579
    vertex 48.69781015891622 -4.131350680114373 43.844696570915005
    vertex 50.887919568120246 -4.131350680114377 41.15288110885952
  endloop
endfacet
facet normal 0.9926289315458809 0.09730940762241129 -0.07224045574509173
  outer loop
    vertex 45.13713560992747 0.6852339498139836 53.688894384493835
    vertex 45.858849327380184 -4.1313506801143705 57.117650703661816
    vertex 45.6069634094428 -4.13135068011437 53.656581043803975
  endloop
endfacet
facet normal 0.9864045476618859 0.11719686223541283 0.11519966941846646
  outer loop
    vertex 45.555514605127215 -0.340957482100163 50.24100826583225
    vertex 45.6069634094428 -4.13135068011437 53.656581043803975
    vertex 46.009506026479464 -4.131350680114369 50.20978410352534
  endloop
endfacet
facet normal 0.5101197682080404 0.008122971493969627 -0.8600650204591994
  outer loop
    vertex 54.704100297176545 -4.131350680114378 69.83331223917915
    vertex 53.12539393744912 -4.1313506801143784 68.89695358822188
    vertex 52.990819668992586 5.299856050298997 68.90620920099964
  endloop
endfacet
facet normal 0.6663304073527553 0.020755802179358254 -0.7453676843766456
  outer loop
    vertex 53.12539393744912 -4.1313506801143784 68.89695358822188
    vertex 50.46703215034887 -4.13135068011438 66.52047909165057
    vertex 50.215412516851345 4.567945855218852 66.5377847320358
  endloop
endfacet
facet normal 0.6351803903267627 0.15908449465735486 0.7558028812487788
  outer loop
    vertex 53.544556681729865 -4.131350680114372 38.92023045265795
    vertex 53.41339046006022 -3.6504996091261517 38.92925167024438
    vertex 50.887919568120246 -4.131350680114377 41.15288110885952
  endloop
endfacet
facet normal 0.7751215600866949 0.1302981347338128 0.6182305097402244
  outer loop
    vertex 48.357835365577245 -2.2198417117906803 43.868079013023205
    vertex 48.69781015891622 -4.131350680114373 43.844696570915005
    vertex 50.64206821778477 -3.00568223950589 41.16979002410579
  endloop
endfacet
facet normal 0.4916061063100421 0.0037035346414948196 -0.8708098070588314
  outer loop
    vertex 54.704100297176545 -4.131350680114378 69.83331223917915
    vertex 52.990819668992586 5.299856050298997 68.90620920099964
    vertex 54.63879963789708 5.5926487447114335 69.83780342180498
  endloop
endfacet
facet normal 0.9535678065062572 0.11190945857419016 0.2796152919217355
  outer loop
    vertex 45.555514605127215 -0.340957482100163 50.24100826583225
    vertex 46.009506026479464 -4.131350680114369 50.20978410352534
    vertex 46.64196681601885 -1.3209388882591686 46.928111261268334
  endloop
endfacet
facet normal 0.8853090890226094 0.04060619404591445 -0.46322667658400574
  outer loop
    vertex 47.97030636750571 3.700414069213478 63.69966936485169
    vertex 48.31704547308929 -4.131350680114377 63.675821693724664
    vertex 46.33984209382773 2.7298508609469723 60.49848127759019
  endloop
endfacet
facet normal 0.7805013408305623 0.023818052153338345 -0.6247002139853285
  outer loop
    vertex 50.215412516851345 4.567945855218852 66.5377847320358
    vertex 50.46703215034887 -4.13135068011438 66.52047909165057
    vertex 47.97030636750571 3.700414069213478 63.69966936485169
  endloop
endfacet
facet normal 0.6414141723903031 0.12872708792141707 0.7563181845573559
  outer loop
    vertex 53.41339046006022 -3.6504996091261517 38.92925167024438
    vertex 50.64206821778477 -3.00568223950589 41.16979002410579
    vertex 50.887919568120246 -4.131350680114377 41.15288110885952
  endloop
endfacet
facet normal 0.880595617201048 0.12393420659977493 0.4573747603451569
  outer loop
    vertex 46.64196681601885 -1.3209388882591686 46.928111261268334
    vertex 47.05215437598833 -4.131350680114372 46.899899796587704
    vertex 48.357835365577245 -2.2198417117906803 43.868079013023205
  endloop
endfacet
facet normal 0.992003433550748 0.07801776345082109 -0.09920895327367664
  outer loop
    vertex 45.40171610448196 1.7211226593017905 57.14909094961468
    vertex 45.858849327380184 -4.1313506801143705 57.117650703661816
    vertex 45.13713560992747 0.6852339498139836 53.688894384493835
  endloop
endfacet
facet normal 0.9564755171924423 0.05923450959715684 -0.28573739322012914
  outer loop
    vertex 46.33984209382773 2.7298508609469723 60.49848127759019
    vertex 46.75620146896656 -4.131350680114373 60.46984533405485
    vertex 45.40171610448196 1.7211226593017905 57.14909094961468
  endloop
endfacet
facet normal 0.64757371842293 0.009988006747677488 -0.7619373458028607
  outer loop
    vertex 53.12539393744912 -4.1313506801143784 68.89695358822188
    vertex 50.215412516851345 4.567945855218852 66.5377847320358
    vertex 52.990819668992586 5.299856050298997 68.90620920099964
  endloop
endfacet
facet normal 0.99114419038534 0.09606489436714015 0.09167731418196932
  outer loop
    vertex 45.13713560992747 0.6852339498139836 53.688894384493835
    vertex 45.6069634094428 -4.13135068011437 53.656581043803975
    vertex 45.555514605127215 -0.340957482100163 50.24100826583225
  endloop
endfacet
facet normal 0.4848708733515496 0.11599965406051133 0.8668588791915023
  outer loop
    vertex 56.573196132525496 -4.131350680114401 37.22618417727819
    vertex 53.41339046006022 -3.6504996091261517 38.92925167024438
    vertex 53.544556681729865 -4.131350680114372 38.92023045265795
  endloop
endfacet
facet normal -0.7642163622162065 -0.0 -0.6449599613317311
  outer loop
    vertex 70.54560891786396 5.868649319885613 4.055525195425004
    vertex 70.6687767605803 -4.131350680114387 3.9095829876198116
    vertex 70.54560891786396 -4.131350680114387 4.055525195425004
  endloop
endfacet
facet normal -0.7642163622162065 -0.0 -0.6449599613317311
  outer loop
    vertex 70.6687767605803 -4.131350680114387 3.9095829876198116
    vertex 70.54560891786396 5.868649319885613 4.055525195425004
    vertex 70.6687767605803 5.868649319885613 3.9095829876198116
  endloop
endfacet
facet normal -0.7642163622161979 -0.0 -0.6449599613317412
  outer loop
    vertex 70.6687767605803 5.868649319885613 3.9095829876198116
    vertex 71.33489049943628 -4.131350680114387 3.1203014060474703
    vertex 70.6687767605803 -4.131350680114387 3.9095829876198116
  endloop
endfacet
facet normal -0.7642163622161979 -0.0 -0.6449599613317412
  outer loop
    vertex 71.33489049943628 -4.131350680114387 3.1203014060474703
    vertex 70.6687767605803 5.868649319885613 3.9095829876198116
    vertex 71.33489049943628 5.868649319885613 3.1203014060474703
  endloop
endfacet
facet normal -0.5712483998160669 -0.0 -0.8207772326932462
  outer loop
    vertex 73.90902345606722 5.868649319885613 1.3287442406956576
    vertex 71.33489049943628 -4.131350680114387 3.1203014060474703
    vertex 71.33489049943628 5.868649319885613 3.1203014060474703
  endloop
endfacet
facet normal -0.5712483998160669 -0.0 -0.8207772326932462
  outer loop
    vertex 71.33489049943628 -4.131350680114387 3.1203014060474703
    vertex 73.90902345606722 5.868649319885613 1.3287442406956576
    vertex 73.90902345606722 -4.131350680114387 1.3287442406956576
  endloop
endfacet
facet normal 0.9636840376775735 0.0 0.26704508144777567
  outer loop
    vertex 89.64481087005451 5.868649319885613 66.4655526791543
    vertex 88.82431567137293 -4.131350680114387 69.42646894720086
    vertex 89.64481087005451 -4.131350680114387 66.4655526791543
  endloop
endfacet
facet normal 0.9636840376775735 0.0 0.26704508144777567
  outer loop
    vertex 88.82431567137293 -4.131350680114387 69.42646894720086
    vertex 89.64481087005451 5.868649319885613 66.4655526791543
    vertex 88.82431567137293 5.868649319885613 69.42646894720086
  endloop
endfacet
facet normal 0.25057419434932887 0.0 0.9680973985742265
  outer loop
    vertex 82.40054713715111 -4.131350680114387 75.74162201616122
    vertex 79.42607083120338 5.868649319885613 76.51151046444308
    vertex 79.42607083120338 -4.131350680114387 76.51151046444308
  endloop
endfacet
facet normal 0.25057419434932887 0.0 0.9680973985742265
  outer loop
    vertex 79.42607083120338 5.868649319885613 76.51151046444308
    vertex 82.40054713715111 -4.131350680114387 75.74162201616122
    vertex 82.40054713715111 5.868649319885613 75.74162201616122
  endloop
endfacet
facet normal 0.701052317126451 0.0 0.713109843328245
  outer loop
    vertex 87.26543664749586 -4.131350680114387 72.07413465615251
    vertex 85.07440882773116 5.868649319885613 74.22811576341867
    vertex 85.07440882773116 -4.131350680114387 74.22811576341867
  endloop
endfacet
facet normal 0.701052317126451 0.0 0.713109843328245
  outer loop
    vertex 85.07440882773116 5.868649319885613 74.22811576341867
    vertex 87.26543664749586 -4.131350680114387 72.07413465615251
    vertex 87.26543664749586 5.868649319885613 72.07413465615251
  endloop
endfacet
facet normal 0.4251897344522091 0.0 -0.9051042424585468
  outer loop
    vertex 85.90978677545411 5.868649319885613 1.8868505992911035
    vertex 83.07118627961194 -4.131350680114387 0.5533646488058845
    vertex 83.07118627961194 5.868649319885613 0.5533646488058845
  endloop
endfacet
facet normal 0.4251897344522091 0.0 -0.9051042424585468
  outer loop
    vertex 83.07118627961194 -4.131350680114387 0.5533646488058845
    vertex 85.90978677545411 5.868649319885613 1.8868505992911035
    vertex 85.90978677545411 -4.131350680114387 1.8868505992911035
  endloop
endfacet
facet normal -0.3393508030010886 -0.0 -0.9406598920452156
  outer loop
    vertex 76.85913407396178 5.868649319885613 0.26446753921124844
    vertex 73.90902345606722 -4.131350680114387 1.3287442406956576
    vertex 73.90902345606722 5.868649319885613 1.3287442406956576
  endloop
endfacet
facet normal -0.3393508030010886 -0.0 -0.9406598920452156
  outer loop
    vertex 73.90902345606722 -4.131350680114387 1.3287442406956576
    vertex 76.85913407396178 5.868649319885613 0.26446753921124844
    vertex 76.85913407396178 -4.131350680114387 0.26446753921124844
  endloop
endfacet
facet normal 0.16740173557802032 0.0 0.9858887660002352
  outer loop
    vertex 79.42607083120338 -4.131350680114387 76.51151046444308
    vertex 62.51979090637836 5.868649319885613 79.3821594658162
    vertex 62.51979090637836 -4.131350680114387 79.3821594658162
  endloop
endfacet
facet normal 0.16740173557802032 0.0 0.9858887660002352
  outer loop
    vertex 62.51979090637836 5.868649319885613 79.3821594658162
    vertex 79.42607083120338 -4.131350680114387 76.51151046444308
    vertex 79.42607083120338 5.868649319885613 76.51151046444308
  endloop
endfacet
facet normal 0.9997370125687943 0.0 -0.022932633953001907
  outer loop
    vertex 88.30653274454279 5.868649319885613 3.9095829876198116
    vertex 89.6710068516829 -4.131350680114387 63.39316740253469
    vertex 88.30653274454279 -4.131350680114387 3.9095829876198116
  endloop
endfacet
facet normal 0.9997370125687943 0.0 -0.022932633953001907
  outer loop
    vertex 89.6710068516829 -4.131350680114387 63.39316740253469
    vertex 88.30653274454279 5.868649319885613 3.9095829876198116
    vertex 89.6710068516829 5.868649319885613 63.39316740253469
  endloop
endfacet
facet normal 0.9999636533549341 0.0 0.00852595854162161
  outer loop
    vertex 89.6710068516829 5.868649319885613 63.39316740253469
    vertex 89.64481087005451 -4.131350680114387 66.4655526791543
    vertex 89.6710068516829 -4.131350680114387 63.39316740253469
  endloop
endfacet
facet normal 0.9999636533549341 0.0 0.00852595854162161
  outer loop
    vertex 89.64481087005451 -4.131350680114387 66.4655526791543
    vertex 89.6710068516829 5.868649319885613 63.39316740253469
    vertex 89.64481087005451 5.868649319885613 66.4655526791543
  endloop
endfacet
facet normal 0.64495996133174 0.0 -0.7642163622161989
  outer loop
    vertex 88.30653274454279 5.868649319885613 3.9095829876198116
    vertex 85.90978677545411 -4.131350680114387 1.8868505992911035
    vertex 85.90978677545411 5.868649319885613 1.8868505992911035
  endloop
endfacet
facet normal 0.64495996133174 0.0 -0.7642163622161989
  outer loop
    vertex 85.90978677545411 -4.131350680114387 1.8868505992911035
    vertex 88.30653274454279 5.868649319885613 3.9095829876198116
    vertex 88.30653274454279 -4.131350680114387 3.9095829876198116
  endloop
endfacet
facet normal 0.17644352982901668 0.0 -0.9843107643328284
  outer loop
    vertex 83.07118627961194 5.868649319885613 0.5533646488058845
    vertex 79.98417718979881 -4.131350680114387 0.0
    vertex 79.98417718979881 5.868649319885613 0.0
  endloop
endfacet
facet normal 0.17644352982901668 0.0 -0.9843107643328284
  outer loop
    vertex 79.98417718979881 -4.131350680114387 0.0
    vertex 83.07118627961194 5.868649319885613 0.5533646488058845
    vertex 83.07118627961194 -4.131350680114387 0.5533646488058845
  endloop
endfacet
facet normal 0.49259812998880914 0.0 0.8702569059372802
  outer loop
    vertex 85.07440882773116 -4.131350680114387 74.22811576341867
    vertex 82.40054713715111 5.868649319885613 75.74162201616122
    vertex 82.40054713715111 -4.131350680114387 75.74162201616122
  endloop
endfacet
facet normal 0.49259812998880914 0.0 0.8702569059372802
  outer loop
    vertex 82.40054713715111 5.868649319885613 75.74162201616122
    vertex 85.07440882773116 -4.131350680114387 74.22811576341867
    vertex 85.07440882773116 5.868649319885613 74.22811576341867
  endloop
endfacet
facet normal 0.8617309473956584 0.0 0.5073655233661241
  outer loop
    vertex 88.30653274454279 5.868649319885613 70.30589325085157
    vertex 87.26543664749586 -4.131350680114387 72.07413465615251
    vertex 88.30653274454279 -4.131350680114387 70.30589325085157
  endloop
endfacet
facet normal 0.8617309473956584 0.0 0.5073655233661241
  outer loop
    vertex 87.26543664749586 -4.131350680114387 72.07413465615251
    vertex 88.30653274454279 5.868649319885613 70.30589325085157
    vertex 87.26543664749586 5.868649319885613 72.07413465615251
  endloop
endfacet
facet normal -0.08432700976530187 -0.0 -0.9964381342682761
  outer loop
    vertex 79.98417718979881 5.868649319885613 0.0
    vertex 76.85913407396178 -4.131350680114387 0.26446753921124844
    vertex 76.85913407396178 5.868649319885613 0.26446753921124844
  endloop
endfacet
facet normal -0.08432700976530187 -0.0 -0.9964381342682761
  outer loop
    vertex 76.85913407396178 -4.131350680114387 0.26446753921124844
    vertex 79.98417718979881 5.868649319885613 0.0
    vertex 79.98417718979881 -4.131350680114387 0.0
  endloop
endfacet
facet normal 0.8617309473956581 0.0 0.5073655233661248
  outer loop
    vertex 88.82431567137293 5.868649319885613 69.42646894720086
    vertex 88.30653274454279 -4.131350680114387 70.30589325085157
    vertex 88.82431567137293 -4.131350680114387 69.42646894720086
  endloop
endfacet
facet normal 0.8617309473956581 0.0 0.5073655233661248
  outer loop
    vertex 88.30653274454279 -4.131350680114387 70.30589325085157
    vertex 88.82431567137293 5.868649319885613 69.42646894720086
    vertex 88.30653274454279 5.868649319885613 70.30589325085157
  endloop
endfacet
facet normal -0.5511402298414471 -1.5689991465205758e-14 -0.8344126359603604
  outer loop
    vertex 68.28342216153249 5.868649319885614 69.18909553827564
    vertex 69.59958691786385 -4.131350680114373 68.31975186459236
    vertex 68.28342216153249 -4.131350680114376 69.18909553827572
  endloop
endfacet
facet normal -0.5511402298414471 -1.5689991465205758e-14 -0.8344126359603604
  outer loop
    vertex 69.59958691786385 -4.131350680114373 68.31975186459236
    vertex 68.28342216153249 5.868649319885614 69.18909553827564
    vertex 69.59958691786385 5.868649319885609 68.31975186459206
  endloop
endfacet
facet normal -0.9633201163437526 -1.9324914113964287e-15 -0.268354902037319
  outer loop
    vertex 75.0142924519557 5.868649319885613 53.44424588015487
    vertex 75.04307570990566 -4.131350680114387 53.34092191928595
    vertex 75.01429245195571 -4.131350680114387 53.44424588015488
  endloop
endfacet
facet normal -0.9633201163437526 -1.9324914113964287e-15 -0.268354902037319
  outer loop
    vertex 75.04307570990566 -4.131350680114387 53.34092191928595
    vertex 75.0142924519557 5.868649319885613 53.44424588015487
    vertex 75.04307570990564 5.868649319885613 53.34092191928594
  endloop
endfacet
facet normal -0.3708540091279111 -3.569413573781294e-15 -0.9286911779024044
  outer loop
    vertex 65.4207757892477 5.868649319885628 70.50501160711643
    vertex 66.88565125396786 -4.131350680114377 69.920043264689
    vertex 65.4207757892476 -4.131350680114375 70.50501160711653
  endloop
endfacet
facet normal -0.3708540091279111 -3.569413573781294e-15 -0.9286911779024044
  outer loop
    vertex 66.88565125396786 -4.131350680114377 69.920043264689
    vertex 65.4207757892477 5.868649319885628 70.50501160711643
    vertex 66.88565125396802 5.868649319885618 69.92004326468891
  endloop
endfacet
facet normal -0.07415775785788561 2.3235296812063674e-16 -0.9972465226560038
  outer loop
    vertex 60.778029307340994 5.868649319885655 71.33128498541632
    vertex 62.35104087251594 -4.131350680114372 71.21431189189555
    vertex 60.77802930734093 -4.131350680114373 71.3312849854163
  endloop
endfacet
facet normal -0.07415775785788561 2.3235296812063674e-16 -0.9972465226560038
  outer loop
    vertex 62.35104087251594 -4.131350680114372 71.21431189189555
    vertex 60.778029307340994 5.868649319885655 71.33128498541632
    vertex 62.35104087251609 5.868649319885646 71.21431189189552
  endloop
endfacet
facet normal -0.27445951622699916 -1.2416044662550622e-15 -0.9615986553403878
  outer loop
    vertex 63.90399355783051 5.868649319885634 70.93793163580466
    vertex 65.4207757892476 -4.131350680114375 70.50501160711653
    vertex 63.90399355783046 -4.131350680114371 70.93793163580463
  endloop
endfacet
facet normal -0.27445951622699916 -1.2416044662550622e-15 -0.9615986553403878
  outer loop
    vertex 65.4207757892476 -4.131350680114375 70.50501160711653
    vertex 63.90399355783051 5.868649319885634 70.93793163580466
    vertex 65.4207757892477 5.868649319885628 70.50501160711643
  endloop
endfacet
facet normal -0.17521756064567867 2.2341124799619247e-15 -0.9845297387287892
  outer loop
    vertex 62.35104087251609 5.868649319885646 71.21431189189552
    vertex 63.90399355783046 -4.131350680114371 70.93793163580463
    vertex 62.35104087251594 -4.131350680114372 71.21431189189555
  endloop
endfacet
facet normal -0.17521756064567867 2.2341124799619247e-15 -0.9845297387287892
  outer loop
    vertex 63.90399355783046 -4.131350680114371 70.93793163580463
    vertex 62.35104087251609 5.868649319885646 71.21431189189552
    vertex 63.90399355783051 5.868649319885634 70.93793163580466
  endloop
endfacet
facet normal -0.4634009657315144 -7.379690104249502e-15 -0.8861487149226703
  outer loop
    vertex 66.88565125396802 5.868649319885618 69.92004326468891
    vertex 67.87084441885155 -4.131350680114376 69.4048481779603
    vertex 66.88565125396786 -4.131350680114377 69.920043264689
  endloop
endfacet
facet normal -0.4634009657315144 -7.379690104249502e-15 -0.8861487149226703
  outer loop
    vertex 67.87084441885155 -4.131350680114376 69.4048481779603
    vertex 66.88565125396802 5.868649319885618 69.92004326468891
    vertex 67.8708444188515 5.868649319885614 69.40484817796016
  endloop
endfacet
facet normal 0.1416209770171398 1.0766369721707991e-14 -0.9899209558690587
  outer loop
    vertex 57.256502184011886 5.868649319885678 71.00941196998548
    vertex 59.201278543215416 -4.1313506801143705 71.2876373438774
    vertex 57.256502184011666 -4.13135068011437 71.00941196998528
  endloop
endfacet
facet normal 0.1416209770171398 1.0766369721707991e-14 -0.9899209558690587
  outer loop
    vertex 59.201278543215416 -4.1313506801143705 71.2876373438774
    vertex 57.256502184011886 5.868649319885678 71.00941196998548
    vertex 59.20127854321548 5.868649319885663 71.28763734387748
  endloop
endfacet
facet normal -0.9480853636366999 -1.2069311955920135e-15 0.3180159481187484
  outer loop
    vertex 74.0780887662269 5.868649319885613 17.707952536185704
    vertex 72.48206506401807 -4.131350680114387 12.94980527648777
    vertex 74.07808876622691 -4.131350680114387 17.707952536185697
  endloop
endfacet
facet normal -0.9480853636366999 -1.2069311955920135e-15 0.3180159481187484
  outer loop
    vertex 72.48206506401807 -4.131350680114387 12.94980527648777
    vertex 74.0780887662269 5.868649319885613 17.707952536185704
    vertex 72.48206506401806 5.868649319885613 12.949805276487773
  endloop
endfacet
facet normal -0.9686286706441566 -1.781563971575778e-15 0.24851257192772797
  outer loop
    vertex 75.32529651615215 5.868649319885613 22.569200301061453
    vertex 74.07808876622691 -4.131350680114387 17.707952536185697
    vertex 75.32529651615218 -4.131350680114387 22.569200301061446
  endloop
endfacet
facet normal -0.9686286706441566 -1.781563971575778e-15 0.24851257192772797
  outer loop
    vertex 74.07808876622691 -4.131350680114387 17.707952536185697
    vertex 75.32529651615215 5.868649319885613 22.569200301061453
    vertex 74.0780887662269 5.868649319885613 17.707952536185704
  endloop
endfacet
facet normal -0.9633201163437514 -1.4831884317688516e-15 -0.2683549020373232
  outer loop
    vertex 73.61464644293338 5.868649319885613 58.468589188271245
    vertex 75.01429245195571 -4.131350680114387 53.44424588015488
    vertex 73.6146464429334 -4.131350680114387 58.468589188271224
  endloop
endfacet
facet normal -0.9633201163437514 -1.4831884317688516e-15 -0.2683549020373232
  outer loop
    vertex 75.01429245195571 -4.131350680114387 53.44424588015488
    vertex 73.61464644293338 5.868649319885613 58.468589188271245
    vertex 75.0142924519557 5.868649319885613 53.44424588015487
  endloop
endfacet
facet normal -0.9840840165356382 -1.790416192219664e-15 0.17770382212852345
  outer loop
    vertex 75.49470866458307 5.868649319885613 23.50736688341691
    vertex 75.32529651615218 -4.131350680114387 22.569200301061446
    vertex 75.49470866458307 -4.131350680114387 23.5073668834169
  endloop
endfacet
facet normal -0.9840840165356382 -1.790416192219664e-15 0.17770382212852345
  outer loop
    vertex 75.32529651615218 -4.131350680114387 22.569200301061446
    vertex 75.49470866458307 5.868649319885613 23.50736688341691
    vertex 75.32529651615215 5.868649319885613 22.569200301061453
  endloop
endfacet
facet normal -0.9398610847189762 -1.8837987387765073e-15 -0.3415569373191968
  outer loop
    vertex 71.79656925522357 5.868649319885613 63.471386119158566
    vertex 73.6146464429334 -4.131350680114387 58.468589188271224
    vertex 71.79656925522362 -4.131350680114387 63.471386119158545
  endloop
endfacet
facet normal -0.9398610847189762 -1.8837987387765073e-15 -0.3415569373191968
  outer loop
    vertex 73.6146464429334 -4.131350680114387 58.468589188271224
    vertex 71.79656925522357 5.868649319885613 63.471386119158566
    vertex 73.61464644293338 5.868649319885613 58.468589188271245
  endloop
endfacet
facet normal -0.9943702182930209 -3.4850318437825354e-15 0.10596163915252613
  outer loop
    vertex 76.74892574726697 5.868649319885613 32.498450300004606
    vertex 76.21713704732046 -4.131350680114387 27.508013667645447
    vertex 76.748925747267 -4.131350680114387 32.49845030000459
  endloop
endfacet
facet normal -0.9943702182930209 -3.4850318437825354e-15 0.10596163915252613
  outer loop
    vertex 76.21713704732046 -4.131350680114387 27.508013667645447
    vertex 76.74892574726697 5.868649319885613 32.498450300004606
    vertex 76.21713704732043 5.868649319885613 27.508013667645457
  endloop
endfacet
facet normal -0.9991587705558392 -2.2309896201341466e-15 -0.041009160212615976
  outer loop
    vertex 76.69958115355028 5.868649319885613 42.83272993491638
    vertex 76.91786926461864 -4.131350680114387 37.51429669826364
    vertex 76.6995811535503 -4.131350680114387 42.83272993491637
  endloop
endfacet
facet normal -0.9991587705558392 -2.2309896201341466e-15 -0.041009160212615976
  outer loop
    vertex 76.91786926461864 -4.131350680114387 37.51429669826364
    vertex 76.69958115355028 5.868649319885613 42.83272993491638
    vertex 76.9178692646186 5.868649319885613 37.51429669826365
  endloop
endfacet
facet normal -0.9840840165356405 -2.3942590497292225e-15 0.17770382212851046
  outer loop
    vertex 76.21713704732043 5.868649319885613 27.508013667645457
    vertex 75.49470866458307 -4.131350680114387 23.5073668834169
    vertex 76.21713704732046 -4.131350680114387 27.508013667645447
  endloop
endfacet
facet normal -0.9840840165356405 -2.3942590497292225e-15 0.17770382212851046
  outer loop
    vertex 75.49470866458307 -4.131350680114387 23.5073668834169
    vertex 76.21713704732043 5.868649319885613 27.508013667645457
    vertex 75.49470866458307 5.868649319885613 23.50736688341691
  endloop
endfacet
facet normal -0.9930568143162417 -1.6125373589773456e-15 -0.11763572391105269
  outer loop
    vertex 76.07341666167657 5.868649319885613 48.11868300142035
    vertex 76.6995811535503 -4.131350680114387 42.83272993491637
    vertex 76.0734166616766 -4.131350680114387 48.11868300142035
  endloop
endfacet
facet normal -0.9930568143162417 -1.6125373589773456e-15 -0.11763572391105269
  outer loop
    vertex 76.6995811535503 -4.131350680114387 42.83272993491637
    vertex 76.07341666167657 5.868649319885613 48.11868300142035
    vertex 76.69958115355028 5.868649319885613 42.83272993491638
  endloop
endfacet
facet normal -1.0 -1.1279865930191595e-15 2.64523131749801e-15
  outer loop
    vertex 70.54560891786396 5.868649319885613 8.31975186459231
    vertex 70.54560891786396 -4.131350680114387 4.055525195425004
    vertex 70.54560891786397 -4.131350680114387 8.319751864592309
  endloop
endfacet
facet normal -1.0 -1.1279865930191595e-15 2.64523131749801e-15
  outer loop
    vertex 70.54560891786396 -4.131350680114387 4.055525195425004
    vertex 70.54560891786396 5.868649319885613 8.31975186459231
    vertex 70.54560891786396 5.868649319885613 4.055525195425004
  endloop
endfacet
facet normal -0.9225620043026952 -1.6713628075129518e-15 0.38584886706713833
  outer loop
    vertex 72.48206506401806 5.868649319885613 12.949805276487773
    vertex 70.54560891786397 -4.131350680114387 8.319751864592309
    vertex 72.48206506401807 -4.131350680114387 12.94980527648777
  endloop
endfacet
facet normal -0.9225620043026952 -1.6713628075129518e-15 0.38584886706713833
  outer loop
    vertex 70.54560891786397 -4.131350680114387 8.319751864592309
    vertex 72.48206506401806 5.868649319885613 12.949805276487773
    vertex 70.54560891786396 5.868649319885613 8.31975186459231
  endloop
endfacet
facet normal -0.9994332451032953 -3.41006423615228e-15 0.03366286651930349
  outer loop
    vertex 76.9178692646186 5.868649319885613 37.51429669826365
    vertex 76.748925747267 -4.131350680114387 32.49845030000459
    vertex 76.91786926461864 -4.131350680114387 37.51429669826364
  endloop
endfacet
facet normal -0.9994332451032953 -3.41006423615228e-15 0.03366286651930349
  outer loop
    vertex 76.748925747267 -4.131350680114387 32.49845030000459
    vertex 76.9178692646186 5.868649319885613 37.51429669826365
    vertex 76.74892574726697 5.868649319885613 32.498450300004606
  endloop
endfacet
facet normal -0.9108485416395835 -7.358954315468756e-15 -0.41274075906438407
  outer loop
    vertex 69.59958691786385 -4.131350680114373 68.31975186459236
    vertex 71.79656925522357 5.868649319885613 63.471386119158566
    vertex 71.79656925522362 -4.131350680114387 63.471386119158545
  endloop
endfacet
facet normal -0.9108485416395835 -7.358954315468756e-15 -0.41274075906438407
  outer loop
    vertex 71.79656925522357 5.868649319885613 63.471386119158566
    vertex 69.59958691786385 -4.131350680114373 68.31975186459236
    vertex 69.59958691786385 5.868649319885609 68.31975186459206
  endloop
endfacet
facet normal -0.9810870202833273 -2.2688098732859357e-15 -0.19356719409957485
  outer loop
    vertex 75.04307570990564 5.868649319885613 53.34092191928594
    vertex 76.0734166616766 -4.131350680114387 48.11868300142035
    vertex 75.04307570990566 -4.131350680114387 53.34092191928595
  endloop
endfacet
facet normal -0.9810870202833273 -2.2688098732859357e-15 -0.19356719409957485
  outer loop
    vertex 76.0734166616766 -4.131350680114387 48.11868300142035
    vertex 75.04307570990564 5.868649319885613 53.34092191928594
    vertex 76.07341666167657 5.868649319885613 48.11868300142035
  endloop
endfacet
facet normal 0.027671416860767628 3.7591220668996306e-15 -0.9996170730279259
  outer loop
    vertex 59.20127854321548 5.868649319885663 71.28763734387748
    vertex 60.77802930734093 -4.131350680114373 71.3312849854163
    vertex 59.201278543215416 -4.1313506801143705 71.2876373438774
  endloop
endfacet
facet normal 0.027671416860767628 3.7591220668996306e-15 -0.9996170730279259
  outer loop
    vertex 60.77802930734093 -4.131350680114373 71.3312849854163
    vertex 59.20127854321548 5.868649319885663 71.28763734387748
    vertex 60.778029307340994 5.868649319885655 71.33128498541632
  endloop
endfacet
facet normal -0.4634009657314225 -1.0779422613047837e-14 -0.8861487149227185
  outer loop
    vertex 68.28342216153249 5.868649319885614 69.18909553827564
    vertex 67.87084441885155 -4.131350680114376 69.4048481779603
    vertex 67.8708444188515 5.868649319885614 69.40484817796016
  endloop
endfacet
facet normal -0.4634009657314225 -1.0779422613047837e-14 -0.8861487149227185
  outer loop
    vertex 67.87084441885155 -4.131350680114376 69.4048481779603
    vertex 68.28342216153249 5.868649319885614 69.18909553827564
    vertex 68.28342216153249 -4.131350680114376 69.18909553827572
  endloop
endfacet
facet normal 0.16740173557801938 -0.0 0.9858887660002356
  outer loop
    vertex 62.51979090637836 -4.131350680114387 79.3821594658162
    vertex 57.353588420696546 5.868649319885613 80.2593692406666
    vertex 57.353588420696546 -4.131350680114387 80.2593692406666
  endloop
endfacet
facet normal 0.16740173557801938 -0.0 0.9858887660002356
  outer loop
    vertex 57.353588420696546 5.868649319885613 80.2593692406666
    vertex 62.51979090637836 -4.131350680114387 79.3821594658162
    vertex 62.51979090637836 5.868649319885613 79.3821594658162
  endloop
endfacet
facet normal 0.26581127038467434 1.9072619463026313e-14 -0.9640250870887572
  outer loop
    vertex 56.1922653765364 5.868649319885891 70.71596925612478
    vertex 57.256502184011666 -4.13135068011437 71.00941196998528
    vertex 56.192265376535566 -4.131350680114366 70.71596925612428
  endloop
endfacet
facet normal 0.26581127038467434 1.9072619463026313e-14 -0.9640250870887572
  outer loop
    vertex 57.256502184011666 -4.13135068011437 71.00941196998528
    vertex 56.1922653765364 5.868649319885891 70.71596925612478
    vertex 57.256502184011886 5.868649319885678 71.00941196998548
  endloop
endfacet
facet normal -2.2204304012221775e-16 -1.0 8.884487139669103e-17
  outer loop
    vertex 83.07118627961194 -4.131350680114387 0.5533646488058845
    vertex 76.85913407396178 -4.131350680114387 0.26446753921124844
    vertex 79.98417718979881 -4.131350680114387 0.0
  endloop
endfacet
facet normal -2.2204304012221775e-16 -1.0 8.884487139669103e-17
  outer loop
    vertex 76.85913407396178 -4.131350680114387 0.26446753921124844
    vertex 83.07118627961194 -4.131350680114387 0.5533646488058845
    vertex 73.90902345606722 -4.131350680114387 1.3287442406956576
  endloop
endfacet
facet normal -2.2204304012221775e-16 -1.0 8.884487139669103e-17
  outer loop
    vertex 73.90902345606722 -4.131350680114387 1.3287442406956576
    vertex 83.07118627961194 -4.131350680114387 0.5533646488058845
    vertex 85.90978677545411 -4.131350680114387 1.8868505992911035
  endloop
endfacet
facet normal -2.2204304012221775e-16 -1.0 8.884487139669103e-17
  outer loop
    vertex 73.90902345606722 -4.131350680114387 1.3287442406956576
    vertex 85.90978677545411 -4.131350680114387 1.8868505992911035
    vertex 71.33489049943628 -4.131350680114387 3.1203014060474703
  endloop
endfacet
facet normal -2.2204304012221775e-16 -1.0 8.884487139669103e-17
  outer loop
    vertex 71.33489049943628 -4.131350680114387 3.1203014060474703
    vertex 85.90978677545411 -4.131350680114387 1.8868505992911035
    vertex 88.30653274454279 -4.131350680114387 3.9095829876198116
  endloop
endfacet
facet normal -2.2204304012221775e-16 -1.0 8.884487139669103e-17
  outer loop
    vertex 71.33489049943628 -4.131350680114387 3.1203014060474703
    vertex 88.30653274454279 -4.131350680114387 3.9095829876198116
    vertex 70.6687767605803 -4.131350680114387 3.9095829876198116
  endloop
endfacet
facet normal -2.2204304012221775e-16 -1.0 8.884487139669103e-17
  outer loop
    vertex 70.6687767605803 -4.131350680114387 3.9095829876198116
    vertex 88.30653274454279 -4.131350680114387 3.9095829876198116
    vertex 89.6710068516829 -4.131350680114387 63.39316740253469
  endloop
endfacet
facet normal -2.2204304012221775e-16 -1.0 8.884487139669103e-17
  outer loop
    vertex 70.6687767605803 -4.131350680114387 3.9095829876198116
    vertex 89.6710068516829 -4.131350680114387 63.39316740253469
    vertex 70.54560891786396 -4.131350680114387 4.055525195425004
  endloop
endfacet
facet normal -2.2204304012221775e-16 -1.0 8.884487139669103e-17
  outer loop
    vertex 70.54560891786396 -4.131350680114387 4.055525195425004
    vertex 89.6710068516829 -4.131350680114387 63.39316740253469
    vertex 72.48206506401807 -4.131350680114387 12.94980527648777
  endloop
endfacet
facet normal -2.2204304012221775e-16 -1.0 8.884487139669103e-17
  outer loop
    vertex 70.54560891786396 -4.131350680114387 4.055525195425004
    vertex 72.48206506401807 -4.131350680114387 12.94980527648777
    vertex 70.54560891786397 -4.131350680114387 8.319751864592309
  endloop
endfacet
facet normal -2.2204304012221775e-16 -1.0 8.884487139669103e-17
  outer loop
    vertex 72.48206506401807 -4.131350680114387 12.94980527648777
    vertex 89.6710068516829 -4.131350680114387 63.39316740253469
    vertex 74.07808876622691 -4.131350680114387 17.707952536185697
  endloop
endfacet
facet normal -2.2204304012221775e-16 -1.0 8.884487139669103e-17
  outer loop
    vertex 74.07808876622691 -4.131350680114387 17.707952536185697
    vertex 89.6710068516829 -4.131350680114387 63.39316740253469
    vertex 75.32529651615218 -4.131350680114387 22.569200301061446
  endloop
endfacet
facet normal -2.2204304012221775e-16 -1.0 8.884487139669103e-17
  outer loop
    vertex 75.32529651615218 -4.131350680114387 22.569200301061446
    vertex 89.6710068516829 -4.131350680114387 63.39316740253469
    vertex 75.49470866458307 -4.131350680114387 23.5073668834169
  endloop
endfacet
facet normal -2.2204304012221775e-16 -1.0 8.884487139669103e-17
  outer loop
    vertex 75.49470866458307 -4.131350680114387 23.5073668834169
    vertex 89.6710068516829 -4.131350680114387 63.39316740253469
    vertex 76.21713704732046 -4.131350680114387 27.508013667645447
  endloop
endfacet
facet normal -2.2204304012221775e-16 -1.0 8.884487139669103e-17
  outer loop
    vertex 76.21713704732046 -4.131350680114387 27.508013667645447
    vertex 89.6710068516829 -4.131350680114387 63.39316740253469
    vertex 76.748925747267 -4.131350680114387 32.49845030000459
  endloop
endfacet
facet normal -2.2204304012221775e-16 -1.0 8.884487139669103e-17
  outer loop
    vertex 76.748925747267 -4.131350680114387 32.49845030000459
    vertex 89.6710068516829 -4.131350680114387 63.39316740253469
    vertex 76.91786926461864 -4.131350680114387 37.51429669826364
  endloop
endfacet
facet normal -2.2204304012221775e-16 -1.0 8.884487139669103e-17
  outer loop
    vertex 76.91786926461864 -4.131350680114387 37.51429669826364
    vertex 89.6710068516829 -4.131350680114387 63.39316740253469
    vertex 76.6995811535503 -4.131350680114387 42.83272993491637
  endloop
endfacet
facet normal -2.2204304012221775e-16 -1.0 8.884487139669103e-17
  outer loop
    vertex 76.6995811535503 -4.131350680114387 42.83272993491637
    vertex 89.6710068516829 -4.131350680114387 63.39316740253469
    vertex 76.0734166616766 -4.131350680114387 48.11868300142035
  endloop
endfacet
facet normal -2.2204304012221775e-16 -1.0 8.884487139669103e-17
  outer loop
    vertex 76.0734166616766 -4.131350680114387 48.11868300142035
    vertex 89.6710068516829 -4.131350680114387 63.39316740253469
    vertex 75.04307570990566 -4.131350680114387 53.34092191928595
  endloop
endfacet
facet normal -2.2204304012221775e-16 -1.0 8.884487139669103e-17
  outer loop
    vertex 75.04307570990566 -4.131350680114387 53.34092191928595
    vertex 89.6710068516829 -4.131350680114387 63.39316740253469
    vertex 75.01429245195571 -4.131350680114387 53.44424588015488
  endloop
endfacet
facet normal -2.2204304012221775e-16 -1.0 8.884487139669103e-17
  outer loop
    vertex 75.01429245195571 -4.131350680114387 53.44424588015488
    vertex 89.6710068516829 -4.131350680114387 63.39316740253469
    vertex 73.6146464429334 -4.131350680114387 58.468589188271224
  endloop
endfacet
facet normal -2.2204304012221775e-16 -1.0 8.884487139669103e-17
  outer loop
    vertex 73.6146464429334 -4.131350680114387 58.468589188271224
    vertex 89.6710068516829 -4.131350680114387 63.39316740253469
    vertex 71.79656925522362 -4.131350680114387 63.471386119158545
  endloop
endfacet
facet normal -2.2204304012221775e-16 -1.0 8.884487139669103e-17
  outer loop
    vertex 71.79656925522362 -4.131350680114387 63.471386119158545
    vertex 89.6710068516829 -4.131350680114387 63.39316740253469
    vertex 89.64481087005451 -4.131350680114387 66.4655526791543
  endloop
endfacet
facet normal -2.2204304012221775e-16 -1.0 8.884487139669103e-17
  outer loop
    vertex 71.79656925522362 -4.131350680114387 63.471386119158545
    vertex 89.64481087005451 -4.131350680114387 66.4655526791543
    vertex 69.59958691786385 -4.131350680114373 68.31975186459236
  endloop
endfacet
facet normal -2.2204304012221775e-16 -1.0 8.884487139669103e-17
  outer loop
    vertex 69.59958691786385 -4.131350680114373 68.31975186459236
    vertex 89.64481087005451 -4.131350680114387 66.4655526791543
    vertex 88.82431567137293 -4.131350680114387 69.42646894720086
  endloop
endfacet
facet normal -2.2204304012221775e-16 -1.0 8.884487139669103e-17
  outer loop
    vertex 69.59958691786385 -4.131350680114373 68.31975186459236
    vertex 88.82431567137293 -4.131350680114387 69.42646894720086
    vertex 68.28342216153249 -4.131350680114376 69.18909553827572
  endloop
endfacet
facet normal -2.2204304012221775e-16 -1.0 8.884487139669103e-17
  outer loop
    vertex 68.28342216153249 -4.131350680114376 69.18909553827572
    vertex 88.82431567137293 -4.131350680114387 69.42646894720086
    vertex 67.87084441885155 -4.131350680114376 69.4048481779603
  endloop
endfacet
facet normal -2.2204304012221775e-16 -1.0 8.884487139669103e-17
  outer loop
    vertex 67.87084441885155 -4.131350680114376 69.4048481779603
    vertex 88.82431567137293 -4.131350680114387 69.42646894720086
    vertex 66.88565125396786 -4.131350680114377 69.920043264689
  endloop
endfacet
facet normal -2.2204304012221775e-16 -1.0 8.884487139669103e-17
  outer loop
    vertex 66.88565125396786 -4.131350680114377 69.920043264689
    vertex 88.82431567137293 -4.131350680114387 69.42646894720086
    vertex 88.30653274454279 -4.131350680114387 70.30589325085157
  endloop
endfacet
facet normal -2.2204304012221775e-16 -1.0 8.884487139669103e-17
  outer loop
    vertex 66.88565125396786 -4.131350680114377 69.920043264689
    vertex 88.30653274454279 -4.131350680114387 70.30589325085157
    vertex 65.4207757892476 -4.131350680114375 70.50501160711653
  endloop
endfacet
facet normal -2.2204304012221775e-16 -1.0 8.884487139669103e-17
  outer loop
    vertex 65.4207757892476 -4.131350680114375 70.50501160711653
    vertex 88.30653274454279 -4.131350680114387 70.30589325085157
    vertex 87.26543664749586 -4.131350680114387 72.07413465615251
  endloop
endfacet
facet normal -2.2204304012221775e-16 -1.0 8.884487139669103e-17
  outer loop
    vertex 65.4207757892476 -4.131350680114375 70.50501160711653
    vertex 87.26543664749586 -4.131350680114387 72.07413465615251
    vertex 63.90399355783046 -4.131350680114371 70.93793163580463
  endloop
endfacet
facet normal -2.2204304012221775e-16 -1.0 8.884487139669103e-17
  outer loop
    vertex 63.90399355783046 -4.131350680114371 70.93793163580463
    vertex 87.26543664749586 -4.131350680114387 72.07413465615251
    vertex 62.35104087251594 -4.131350680114372 71.21431189189555
  endloop
endfacet
facet normal -2.2204304012221775e-16 -1.0 8.884487139669103e-17
  outer loop
    vertex 62.35104087251594 -4.131350680114372 71.21431189189555
    vertex 87.26543664749586 -4.131350680114387 72.07413465615251
    vertex 60.77802930734093 -4.131350680114373 71.3312849854163
  endloop
endfacet
facet normal -2.2204304012221775e-16 -1.0 8.884487139669103e-17
  outer loop
    vertex 53.544556681729865 -4.131350680114372 38.92023045265795
    vertex 51.735141663643475 -4.131350680114394 38.6602729355214
    vertex 56.573196132525496 -4.131350680114401 37.22618417727819
  endloop
endfacet
facet normal -2.2204304012221775e-16 -1.0 8.884487139669103e-17
  outer loop
    vertex 51.735141663643475 -4.131350680114394 38.6602729355214
    vertex 53.544556681729865 -4.131350680114372 38.92023045265795
    vertex 47.357023447917726 -4.131350680114391 41.169348960579114
  endloop
endfacet
facet normal -2.2204304012221775e-16 -1.0 8.884487139669103e-17
  outer loop
    vertex 47.357023447917726 -4.131350680114391 41.169348960579114
    vertex 53.544556681729865 -4.131350680114372 38.92023045265795
    vertex 50.887919568120246 -4.131350680114377 41.15288110885952
  endloop
endfacet
facet normal -2.2204304012221775e-16 -1.0 8.884487139669103e-17
  outer loop
    vertex 47.357023447917726 -4.131350680114391 41.169348960579114
    vertex 50.887919568120246 -4.131350680114377 41.15288110885952
    vertex 48.69781015891622 -4.131350680114373 43.844696570915005
  endloop
endfacet
facet normal -2.2204304012221775e-16 -1.0 8.884487139669103e-17
  outer loop
    vertex 47.357023447917726 -4.131350680114391 41.169348960579114
    vertex 48.69781015891622 -4.131350680114373 43.844696570915005
    vertex 43.673904375531826 -4.131350680114386 44.61869897312006
  endloop
endfacet
facet normal -2.2204304012221775e-16 -1.0 8.884487139669103e-17
  outer loop
    vertex 43.673904375531826 -4.131350680114386 44.61869897312006
    vertex 48.69781015891622 -4.131350680114373 43.844696570915005
    vertex 47.05215437598833 -4.131350680114372 46.899899796587704
  endloop
endfacet
facet normal -2.2204304012221775e-16 -1.0 8.884487139669103e-17
  outer loop
    vertex 43.673904375531826 -4.131350680114386 44.61869897312006
    vertex 47.05215437598833 -4.131350680114372 46.899899796587704
    vertex 40.8835325591191 -4.131350680114383 48.82312601334308
  endloop
endfacet
facet normal -2.2204304012221775e-16 -1.0 8.884487139669103e-17
  outer loop
    vertex 40.8835325591191 -4.131350680114383 48.82312601334308
    vertex 47.05215437598833 -4.131350680114372 46.899899796587704
    vertex 46.009506026479464 -4.131350680114369 50.20978410352534
  endloop
endfacet
facet normal -2.2204304012221775e-16 -1.0 8.884487139669103e-17
  outer loop
    vertex 40.8835325591191 -4.131350680114383 48.82312601334308
    vertex 46.009506026479464 -4.131350680114369 50.20978410352534
    vertex 39.13572415976368 -4.13135068011438 53.55689273864036
  endloop
endfacet
facet normal -2.2204304012221775e-16 -1.0 8.884487139669103e-17
  outer loop
    vertex 39.13572415976368 -4.13135068011438 53.55689273864036
    vertex 46.009506026479464 -4.131350680114369 50.20978410352534
    vertex 45.6069634094428 -4.13135068011437 53.656581043803975
  endloop
endfacet
facet normal -2.2204304012221775e-16 -1.0 8.884487139669103e-17
  outer loop
    vertex 39.13572415976368 -4.13135068011438 53.55689273864036
    vertex 45.6069634094428 -4.13135068011437 53.656581043803975
    vertex 38.524319698345984 -4.1313506801143784 58.56584135036993
  endloop
endfacet
facet normal -2.2204304012221775e-16 -1.0 8.884487139669103e-17
  outer loop
    vertex 38.524319698345984 -4.1313506801143784 58.56584135036993
    vertex 45.6069634094428 -4.13135068011437 53.656581043803975
    vertex 45.858849327380184 -4.1313506801143705 57.117650703661816
  endloop
endfacet
facet normal -2.2204304012221775e-16 -1.0 8.884487139669103e-17
  outer loop
    vertex 38.524319698345984 -4.1313506801143784 58.56584135036993
    vertex 45.858849327380184 -4.1313506801143705 57.117650703661816
    vertex 46.75620146896656 -4.131350680114373 60.46984533405485
  endloop
endfacet
facet normal -2.2204304012221775e-16 -1.0 8.884487139669103e-17
  outer loop
    vertex 38.524319698345984 -4.1313506801143784 58.56584135036993
    vertex 46.75620146896656 -4.131350680114373 60.46984533405485
    vertex 39.08214572104188 -4.131350680114377 63.58103942609857
  endloop
endfacet
facet normal -2.2204304012221775e-16 -1.0 8.884487139669103e-17
  outer loop
    vertex 39.08214572104188 -4.131350680114377 63.58103942609857
    vertex 46.75620146896656 -4.131350680114373 60.46984533405485
    vertex 48.31704547308929 -4.131350680114377 63.675821693724664
  endloop
endfacet
facet normal -2.2204304012221775e-16 -1.0 8.884487139669103e-17
  outer loop
    vertex 39.08214572104188 -4.131350680114377 63.58103942609857
    vertex 48.31704547308929 -4.131350680114377 63.675821693724664
    vertex 40.77925232913837 -4.131350680114378 68.33321900721126
  endloop
endfacet
facet normal -2.2204304012221775e-16 -1.0 8.884487139669103e-17
  outer loop
    vertex 40.77925232913837 -4.131350680114378 68.33321900721126
    vertex 48.31704547308929 -4.131350680114377 63.675821693724664
    vertex 50.46703215034887 -4.13135068011438 66.52047909165057
  endloop
endfacet
facet normal -2.2204304012221775e-16 -1.0 8.884487139669103e-17
  outer loop
    vertex 40.77925232913837 -4.131350680114378 68.33321900721126
    vertex 50.46703215034887 -4.13135068011438 66.52047909165057
    vertex 53.12539393744912 -4.1313506801143784 68.89695358822188
  endloop
endfacet
facet normal -2.2204304012221775e-16 -1.0 8.884487139669103e-17
  outer loop
    vertex 40.77925232913837 -4.131350680114378 68.33321900721126
    vertex 53.12539393744912 -4.1313506801143784 68.89695358822188
    vertex 43.52452120088346 -4.1313506801143784 72.56723370159015
  endloop
endfacet
facet normal -2.2204304012221775e-16 -1.0 8.884487139669103e-17
  outer loop
    vertex 43.52452120088346 -4.1313506801143784 72.56723370159015
    vertex 53.12539393744912 -4.1313506801143784 68.89695358822188
    vertex 54.704100297176545 -4.131350680114378 69.83331223917915
  endloop
endfacet
facet normal -2.2204304012221775e-16 -1.0 8.884487139669103e-17
  outer loop
    vertex 43.52452120088346 -4.1313506801143784 72.56723370159015
    vertex 54.704100297176545 -4.131350680114378 69.83331223917915
    vertex 54.81040359026099 -4.131350680114376 69.91594817613729
  endloop
endfacet
facet normal -2.2204304012221775e-16 -1.0 8.884487139669103e-17
  outer loop
    vertex 43.52452120088346 -4.1313506801143784 72.56723370159015
    vertex 54.81040359026099 -4.131350680114376 69.91594817613729
    vertex 56.192265376535566 -4.131350680114366 70.71596925612428
  endloop
endfacet
facet normal -2.2204304012221775e-16 -1.0 8.884487139669103e-17
  outer loop
    vertex 43.52452120088346 -4.1313506801143784 72.56723370159015
    vertex 56.192265376535566 -4.131350680114366 70.71596925612428
    vertex 57.256502184011666 -4.13135068011437 71.00941196998528
  endloop
endfacet
facet normal -2.2204304012221775e-16 -1.0 8.884487139669103e-17
  outer loop
    vertex 43.52452120088346 -4.1313506801143784 72.56723370159015
    vertex 57.256502184011666 -4.13135068011437 71.00941196998528
    vertex 59.201278543215416 -4.1313506801143705 71.2876373438774
  endloop
endfacet
facet normal -2.2204304012221775e-16 -1.0 8.884487139669103e-17
  outer loop
    vertex 43.52452120088346 -4.1313506801143784 72.56723370159015
    vertex 59.201278543215416 -4.1313506801143705 71.2876373438774
    vertex 60.77802930734093 -4.131350680114373 71.3312849854163
  endloop
endfacet
facet normal -2.2204304012221775e-16 -1.0 8.884487139669103e-17
  outer loop
    vertex 43.52452120088346 -4.1313506801143784 72.56723370159015
    vertex 60.77802930734093 -4.131350680114373 71.3312849854163
    vertex 87.26543664749586 -4.131350680114387 72.07413465615251
  endloop
endfacet
facet normal -2.2204304012221775e-16 -1.0 8.884487139669103e-17
  outer loop
    vertex 43.52452120088346 -4.1313506801143784 72.56723370159015
    vertex 87.26543664749586 -4.131350680114387 72.07413465615251
    vertex 85.07440882773116 -4.131350680114387 74.22811576341867
  endloop
endfacet
facet normal -2.2204304012221775e-16 -1.0 8.884487139669103e-17
  outer loop
    vertex 43.52452120088346 -4.1313506801143784 72.56723370159015
    vertex 85.07440882773116 -4.131350680114387 74.22811576341867
    vertex 47.170557770044226 -4.13135068011438 76.05575759383046
  endloop
endfacet
facet normal -2.2204304012221775e-16 -1.0 8.884487139669103e-17
  outer loop
    vertex 47.170557770044226 -4.13135068011438 76.05575759383046
    vertex 85.07440882773116 -4.131350680114387 74.22811576341867
    vertex 82.40054713715111 -4.131350680114387 75.74162201616122
  endloop
endfacet
facet normal -2.2204304012221775e-16 -1.0 8.884487139669103e-17
  outer loop
    vertex 47.170557770044226 -4.13135068011438 76.05575759383046
    vertex 82.40054713715111 -4.131350680114387 75.74162201616122
    vertex 79.42607083120338 -4.131350680114387 76.51151046444308
  endloop
endfacet
facet normal -2.2204304012221775e-16 -1.0 8.884487139669103e-17
  outer loop
    vertex 47.170557770044226 -4.13135068011438 76.05575759383046
    vertex 79.42607083120338 -4.131350680114387 76.51151046444308
    vertex 51.991871770214445 -4.131350680114384 78.81211207851243
  endloop
endfacet
facet normal -2.2204304012221775e-16 -1.0 8.884487139669103e-17
  outer loop
    vertex 51.991871770214445 -4.131350680114384 78.81211207851243
    vertex 79.42607083120338 -4.131350680114387 76.51151046444308
    vertex 62.51979090637836 -4.131350680114387 79.3821594658162
  endloop
endfacet
facet normal -2.2204304012221775e-16 -1.0 8.884487139669103e-17
  outer loop
    vertex 51.991871770214445 -4.131350680114384 78.81211207851243
    vertex 62.51979090637836 -4.131350680114387 79.3821594658162
    vertex 57.353588420696546 -4.131350680114387 80.2593692406666
  endloop
endfacet
facet normal 0.08908660723808363 0.9810347606804307 -0.1721463759348352
  outer loop
    vertex 49.700879705268385 -3.1559975057935197 39.82609753343026
    vertex 53.41339046006022 -3.6504996091261517 38.92925167024438
    vertex 51.540789844481 -3.508105137969584 38.771654918798006
  endloop
endfacet
facet normal 0.08908660723808363 0.9810347606804307 -0.1721463759348352
  outer loop
    vertex 53.41339046006022 -3.6504996091261517 38.92925167024438
    vertex 49.700879705268385 -3.1559975057935197 39.82609753343026
    vertex 50.64206821778477 -3.00568223950589 41.16979002410579
  endloop
endfacet
facet normal 0.09558460882237335 0.9796410113931392 -0.1765419818425668
  outer loop
    vertex 50.64206821778477 -3.00568223950589 41.16979002410579
    vertex 49.700879705268385 -3.1559975057935197 39.82609753343026
    vertex 48.16937752723654 -2.8483968990509703 40.70379320263831
  endloop
endfacet
facet normal 0.09961674599527338 0.97480700291452 -0.1995690631989944
  outer loop
    vertex 47.357023447917726 -2.670069706142908 41.169348960579114
    vertex 50.64206821778477 -3.00568223950589 41.16979002410579
    vertex 48.16937752723654 -2.8483968990509703 40.70379320263831
  endloop
endfacet
facet normal 0.09961674599527338 0.97480700291452 -0.1995690631989944
  outer loop
    vertex 50.64206821778477 -3.00568223950589 41.16979002410579
    vertex 47.357023447917726 -2.670069706142908 41.169348960579114
    vertex 46.64396213544614 -2.4604839414273756 41.83715198263103
  endloop
endfacet
facet normal 0.09961674599527338 0.97480700291452 -0.1995690631989944
  outer loop
    vertex 50.64206821778477 -3.00568223950589 41.16979002410579
    vertex 46.64396213544614 -2.4604839414273756 41.83715198263103
    vertex 48.357835365577245 -2.2198417117906803 43.868079013023205
  endloop
endfacet
facet normal 0.09712207923874329 0.975471291224091 -0.1975425567363857
  outer loop
    vertex 48.357835365577245 -2.2198417117906803 43.868079013023205
    vertex 46.64396213544614 -2.4604839414273756 41.83715198263103
    vertex 45.27057871024584 -2.0632729692505234 43.123366205368434
  endloop
endfacet
facet normal 0.10371732104855792 0.9685089575336515 -0.2263473359498409
  outer loop
    vertex 43.99568586004169 -1.6477047886973357 44.31734108981098
    vertex 48.357835365577245 -2.2198417117906803 43.868079013023205
    vertex 45.27057871024584 -2.0632729692505234 43.123366205368434
  endloop
endfacet
facet normal 0.10371732104855792 0.9685089575336515 -0.2263473359498409
  outer loop
    vertex 48.357835365577245 -2.2198417117906803 43.868079013023205
    vertex 43.99568586004169 -1.6477047886973357 44.31734108981098
    vertex 46.64196681601885 -1.3209388882591686 46.928111261268334
  endloop
endfacet
facet normal 0.09315941612917274 0.9719227035380589 -0.2160730930350705
  outer loop
    vertex 43.67390437553185 -1.5498654185200065 44.618698973120054
    vertex 46.64196681601885 -1.3209388882591686 46.928111261268334
    vertex 43.99568586004169 -1.6477047886973357 44.31734108981098
  endloop
endfacet
facet normal 0.09315941612917274 0.9719227035380589 -0.2160730930350705
  outer loop
    vertex 46.64196681601885 -1.3209388882591686 46.928111261268334
    vertex 43.67390437553185 -1.5498654185200065 44.618698973120054
    vertex 42.79356072768391 -1.1705899110460605 45.945167587779025
  endloop
endfacet
facet normal 0.09505952276974042 0.9699862989284707 -0.2238085499301513
  outer loop
    vertex 41.73225101885207 -0.6976047519523895 47.544309039687874
    vertex 46.64196681601885 -1.3209388882591686 46.928111261268334
    vertex 42.79356072768391 -1.1705899110460605 45.945167587779025
  endloop
endfacet
facet normal 0.0901929568497452 0.9626754321870257 -0.2551886415932798
  outer loop
    vertex 41.73225101885207 -0.6976047519523895 47.544309039687874
    vertex 45.555514605127215 -0.340957482100163 50.24100826583225
    vertex 46.64196681601885 -1.3209388882591686 46.928111261268334
  endloop
endfacet
facet normal 0.0901929568497452 0.9626754321870257 -0.2551886415932798
  outer loop
    vertex 45.555514605127215 -0.340957482100163 50.24100826583225
    vertex 41.73225101885207 -0.6976047519523895 47.544309039687874
    vertex 40.88353255911911 -0.2790961037629505 48.82312601334307
  endloop
endfacet
facet normal 0.0901929568497452 0.9626754321870257 -0.2551886415932798
  outer loop
    vertex 45.555514605127215 -0.340957482100163 50.24100826583225
    vertex 40.88353255911911 -0.2790961037629505 48.82312601334307
    vertex 40.78622650977882 -0.20011858704270752 49.0866698541365
  endloop
endfacet
facet normal 0.08566549908213458 0.9680106971495501 -0.2358319581207155
  outer loop
    vertex 40.0916282880288 0.31967129203046957 50.96792065415756
    vertex 45.555514605127215 -0.340957482100163 50.24100826583225
    vertex 40.78622650977882 -0.20011858704270752 49.0866698541365
  endloop
endfacet
facet normal 0.07917705689428459 0.9580264983067709 -0.27552898614052546
  outer loop
    vertex 40.0916282880288 0.31967129203046957 50.96792065415756
    vertex 45.13713560992747 0.6852339498139836 53.688894384493835
    vertex 45.555514605127215 -0.340957482100163 50.24100826583225
  endloop
endfacet
facet normal 0.07917705689428459 0.9580264983067709 -0.27552898614052546
  outer loop
    vertex 45.13713560992747 0.6852339498139836 53.688894384493835
    vertex 40.0916282880288 0.31967129203046957 50.96792065415756
    vertex 39.521170664216626 0.8111683626898215 52.512948884248544
  endloop
endfacet
facet normal 0.07279164274894535 0.967021611990629 -0.24407084768352696
  outer loop
    vertex 39.135724159763676 1.1036680775039847 53.556892738640364
    vertex 45.13713560992747 0.6852339498139836 53.688894384493835
    vertex 39.521170664216626 0.8111683626898215 52.512948884248544
  endloop
endfacet
facet normal 0.07279164274894535 0.967021611990629 -0.24407084768352696
  outer loop
    vertex 45.13713560992747 0.6852339498139836 53.688894384493835
    vertex 39.135724159763676 1.1036680775039847 53.556892738640364
    vertex 39.00831766267815 1.3767030674622578 54.600674125550945
  endloop
endfacet
facet normal 0.0644541502905228 0.9546347421431517 -0.2907200915031592
  outer loop
    vertex 39.00831766267815 1.3767030674622578 54.600674125550945
    vertex 45.40171610448196 1.7211226593017905 57.14909094961468
    vertex 45.13713560992747 0.6852339498139836 53.688894384493835
  endloop
endfacet
facet normal 0.0644541502905228 0.9546347421431517 -0.2907200915031592
  outer loop
    vertex 45.40171610448196 1.7211226593017905 57.14909094961468
    vertex 39.00831766267815 1.3767030674622578 54.600674125550945
    vertex 38.82830764221324 1.837966549250724 56.07541138869494
  endloop
endfacet
facet normal 0.05763760479209078 0.9671396939068233 -0.24762616780874994
  outer loop
    vertex 38.55291184064275 2.4320527499468585 58.3315994033425
    vertex 45.40171610448196 1.7211226593017905 57.14909094961468
    vertex 38.82830764221324 1.837966549250724 56.07541138869494
  endloop
endfacet
facet normal 0.04707912012298819 0.9527388149519023 -0.3001204873588117
  outer loop
    vertex 38.55291184064275 2.4320527499468585 58.3315994033425
    vertex 46.33984209382773 2.7298508609469723 60.49848127759019
    vertex 45.40171610448196 1.7211226593017905 57.14909094961468
  endloop
endfacet
facet normal 0.04707912012298819 0.9527388149519023 -0.3001204873588117
  outer loop
    vertex 46.33984209382773 2.7298508609469723 60.49848127759019
    vertex 38.55291184064275 2.4320527499468585 58.3315994033425
    vertex 38.52431969834599 2.507253737960691 58.56584135036993
  endloop
endfacet
facet normal 0.04707912012298819 0.9527388149519023 -0.3001204873588117
  outer loop
    vertex 46.33984209382773 2.7298508609469723 60.49848127759019
    vertex 38.52431969834599 2.507253737960691 58.56584135036993
    vertex 38.64707922650231 2.848856913258058 59.66952480065342
  endloop
endfacet
facet normal 0.04148136428940921 0.9684009640789837 -0.2459245192891196
  outer loop
    vertex 38.90834752614644 3.4341822790323144 62.01848705826123
    vertex 46.33984209382773 2.7298508609469723 60.49848127759019
    vertex 38.64707922650231 2.848856913258058 59.66952480065342
  endloop
endfacet
facet normal 0.028263437784884656 0.9525121322650021 -0.30318610781590777
  outer loop
    vertex 38.90834752614644 3.4341822790323144 62.01848705826123
    vertex 47.97030636750571 3.700414069213478 63.69966936485169
    vertex 46.33984209382773 2.7298508609469723 60.49848127759019
  endloop
endfacet
facet normal 0.028263437784884656 0.9525121322650021 -0.30318610781590777
  outer loop
    vertex 47.97030636750571 3.700414069213478 63.69966936485169
    vertex 38.90834752614644 3.4341822790323144 62.01848705826123
    vertex 39.04488176855699 3.8208546020954834 63.246013638142045
  endloop
endfacet
facet normal 0.025194571805457113 0.9709603651010351 -0.2379100732512272
  outer loop
    vertex 39.0821457210419 3.9019775431116774 63.58103942609857
    vertex 47.97030636750571 3.700414069213478 63.69966936485169
    vertex 39.04488176855699 3.8208546020954834 63.246013638142045
  endloop
endfacet
facet normal 0.025194571805457113 0.9709603651010351 -0.2379100732512272
  outer loop
    vertex 47.97030636750571 3.700414069213478 63.69966936485169
    vertex 39.0821457210419 3.9019775431116774 63.58103942609857
    vertex 39.977621389412725 4.49313830351941 66.08851960814097
  endloop
endfacet
facet normal 0.006041451870100391 0.9549570499066784 -0.29668254699735036
  outer loop
    vertex 39.977621389412725 4.49313830351941 66.08851960814097
    vertex 50.215412516851345 4.567945855218852 66.5377847320358
    vertex 47.97030636750571 3.700414069213478 63.69966936485169
  endloop
endfacet
facet normal 0.006041451870100391 0.9549570499066784 -0.29668254699735036
  outer loop
    vertex 50.215412516851345 4.567945855218852 66.5377847320358
    vertex 39.977621389412725 4.49313830351941 66.08851960814097
    vertex 40.357408408849075 4.821129495775643 67.15198616370486
  endloop
endfacet
facet normal 0.011170868462589238 0.9748556054227594 -0.2225573190744729
  outer loop
    vertex 40.357408408849075 4.821129495775643 67.15198616370486
    vertex 41.79595527412842 5.432301574758074 69.90127496457536
    vertex 50.215412516851345 4.567945855218852 66.5377847320358
  endloop
endfacet
facet normal 0.011170868462589238 0.9748556054227594 -0.2225573190744729
  outer loop
    vertex 41.79595527412842 5.432301574758074 69.90127496457536
    vertex 40.357408408849075 4.821129495775643 67.15198616370486
    vertex 40.77925232913836 5.085968360600379 68.33321900721124
  endloop
endfacet
facet normal -0.01359166654725709 0.9597135219306373 -0.28065142512369456
  outer loop
    vertex 41.79595527412842 5.432301574758074 69.90127496457536
    vertex 52.990819668992586 5.299856050298997 68.90620920099964
    vertex 50.215412516851345 4.567945855218852 66.5377847320358
  endloop
endfacet
facet normal -0.01359166654725709 0.9597135219306373 -0.28065142512369456
  outer loop
    vertex 52.990819668992586 5.299856050298997 68.90620920099964
    vertex 41.79595527412842 5.432301574758074 69.90127496457536
    vertex 42.35336363517598 5.691596473595998 70.76096314147325
  endloop
endfacet
facet normal -0.013191998211045134 0.9603476103386832 -0.27849315700745775
  outer loop
    vertex 42.35336363517598 5.691596473595998 70.76096314147325
    vertex 54.63879963789708 5.5926487447114335 69.83780342180498
    vertex 52.990819668992586 5.299856050298997 68.90620920099964
  endloop
endfacet
facet normal -0.013191998211045134 0.9603476103386832 -0.27849315700745775
  outer loop
    vertex 54.63879963789708 5.5926487447114335 69.83780342180498
    vertex 42.35336363517598 5.691596473595998 70.76096314147325
    vertex 42.56173768032583 5.787654820598562 71.0823374076415
  endloop
endfacet
facet normal -0.05179751293270256 0.9713698735408417 -0.23185682312849024
  outer loop
    vertex 44.04259050164513 5.797419800243805 73.06292185481111
    vertex 54.7497772276747 5.618214218140437 69.92011787471804
    vertex 54.63879963789708 5.5926487447114335 69.83780342180498
  endloop
endfacet
facet normal -0.05179751293270256 0.9713698735408417 -0.23185682312849024
  outer loop
    vertex 54.7497772276747 5.618214218140437 69.92011787471804
    vertex 44.04259050164513 5.797419800243805 73.06292185481111
    vertex 44.06631550186182 5.80410320559163 73.08562190965954
  endloop
endfacet
facet normal -0.04807884436449671 0.9744302172165 -0.21948616471199062
  outer loop
    vertex 44.06631550186182 5.80410320559163 73.08562190965954
    vertex 56.1922653765364 5.868649319885891 70.71596925612478
    vertex 54.7497772276747 5.618214218140437 69.92011787471804
  endloop
endfacet
facet normal -0.04807884436449671 0.9744302172165 -0.21948616471199062
  outer loop
    vertex 56.1922653765364 5.868649319885891 70.71596925612478
    vertex 44.06631550186182 5.80410320559163 73.08562190965954
    vertex 44.310018849067696 5.86864931988565 73.31879701177934
  endloop
endfacet
facet normal 0.014316478831039566 0.9997623488732446 -0.016440322665129573
  outer loop
    vertex 42.83226505852855 5.789043406701834 71.49957045404035
    vertex 44.04259050164513 5.797419800243805 73.06292185481111
    vertex 54.63879963789708 5.5926487447114335 69.83780342180498
  endloop
endfacet
facet normal 0.014316478831039566 0.9997623488732446 -0.016440322665129573
  outer loop
    vertex 44.04259050164513 5.797419800243805 73.06292185481111
    vertex 42.83226505852855 5.789043406701834 71.49957045404035
    vertex 43.52452120088345 5.796687281156949 72.56723370159014
  endloop
endfacet
facet normal 0.014811183899451706 0.9998066932056817 -0.012930779273375347
  outer loop
    vertex 42.83226505852855 5.789043406701834 71.49957045404035
    vertex 54.63879963789708 5.5926487447114335 69.83780342180498
    vertex 42.56173768032583 5.787654820598562 71.0823374076415
  endloop
endfacet
facet normal 1.329647498251846e-15 1.0 -1.4460251813412837e-16
  outer loop
    vertex 44.310018849067696 5.86864931988565 73.31879701177934
    vertex 57.256502184011886 5.868649319885678 71.00941196998548
    vertex 56.1922653765364 5.868649319885891 70.71596925612478
  endloop
endfacet
facet normal 1.329647498251846e-15 1.0 -1.4460251813412837e-16
  outer loop
    vertex 57.256502184011886 5.868649319885678 71.00941196998548
    vertex 44.310018849067696 5.86864931988565 73.31879701177934
    vertex 59.20127854321548 5.868649319885663 71.28763734387748
  endloop
endfacet
facet normal 1.329647498251846e-15 1.0 -1.4460251813412837e-16
  outer loop
    vertex 59.20127854321548 5.868649319885663 71.28763734387748
    vertex 44.310018849067696 5.86864931988565 73.31879701177934
    vertex 60.778029307340994 5.868649319885655 71.33128498541632
  endloop
endfacet
facet normal 1.329647498251846e-15 1.0 -1.4460251813412837e-16
  outer loop
    vertex 60.778029307340994 5.868649319885655 71.33128498541632
    vertex 44.310018849067696 5.86864931988565 73.31879701177934
    vertex 87.26543664749586 5.868649319885613 72.07413465615251
  endloop
endfacet
facet normal 1.329647498251846e-15 1.0 -1.4460251813412837e-16
  outer loop
    vertex 87.26543664749586 5.868649319885613 72.07413465615251
    vertex 44.310018849067696 5.86864931988565 73.31879701177934
    vertex 85.07440882773116 5.868649319885613 74.22811576341867
  endloop
endfacet
facet normal 1.329647498251846e-15 1.0 -1.4460251813412837e-16
  outer loop
    vertex 85.07440882773116 5.868649319885613 74.22811576341867
    vertex 44.310018849067696 5.86864931988565 73.31879701177934
    vertex 47.170557770044226 5.868649319885615 76.05575759383046
  endloop
endfacet
facet normal 1.329647498251846e-15 1.0 -1.4460251813412837e-16
  outer loop
    vertex 85.07440882773116 5.868649319885613 74.22811576341867
    vertex 47.170557770044226 5.868649319885615 76.05575759383046
    vertex 82.40054713715111 5.868649319885613 75.74162201616122
  endloop
endfacet
facet normal 1.329647498251846e-15 1.0 -1.4460251813412837e-16
  outer loop
    vertex 82.40054713715111 5.868649319885613 75.74162201616122
    vertex 47.170557770044226 5.868649319885615 76.05575759383046
    vertex 79.42607083120338 5.868649319885613 76.51151046444308
  endloop
endfacet
facet normal 1.329647498251846e-15 1.0 -1.4460251813412837e-16
  outer loop
    vertex 79.42607083120338 5.868649319885613 76.51151046444308
    vertex 47.170557770044226 5.868649319885615 76.05575759383046
    vertex 51.991871770214445 5.868649319885613 78.81211207851243
  endloop
endfacet
facet normal 1.329647498251846e-15 1.0 -1.4460251813412837e-16
  outer loop
    vertex 79.42607083120338 5.868649319885613 76.51151046444308
    vertex 51.991871770214445 5.868649319885613 78.81211207851243
    vertex 62.51979090637836 5.868649319885613 79.3821594658162
  endloop
endfacet
facet normal 1.329647498251846e-15 1.0 -1.4460251813412837e-16
  outer loop
    vertex 62.51979090637836 5.868649319885613 79.3821594658162
    vertex 51.991871770214445 5.868649319885613 78.81211207851243
    vertex 57.353588420696546 5.868649319885613 80.2593692406666
  endloop
endfacet
facet normal 1.329647498251846e-15 1.0 -1.4460251813412837e-16
  outer loop
    vertex 76.85913407396178 5.868649319885613 0.26446753921124844
    vertex 83.07118627961194 5.868649319885613 0.5533646488058845
    vertex 79.98417718979881 5.868649319885613 0.0
  endloop
endfacet
facet normal 1.329647498251846e-15 1.0 -1.4460251813412837e-16
  outer loop
    vertex 83.07118627961194 5.868649319885613 0.5533646488058845
    vertex 76.85913407396178 5.868649319885613 0.26446753921124844
    vertex 73.90902345606722 5.868649319885613 1.3287442406956576
  endloop
endfacet
facet normal 1.329647498251846e-15 1.0 -1.4460251813412837e-16
  outer loop
    vertex 83.07118627961194 5.868649319885613 0.5533646488058845
    vertex 73.90902345606722 5.868649319885613 1.3287442406956576
    vertex 85.90978677545411 5.868649319885613 1.8868505992911035
  endloop
endfacet
facet normal 1.329647498251846e-15 1.0 -1.4460251813412837e-16
  outer loop
    vertex 85.90978677545411 5.868649319885613 1.8868505992911035
    vertex 73.90902345606722 5.868649319885613 1.3287442406956576
    vertex 71.33489049943628 5.868649319885613 3.1203014060474703
  endloop
endfacet
facet normal 1.329647498251846e-15 1.0 -1.4460251813412837e-16
  outer loop
    vertex 85.90978677545411 5.868649319885613 1.8868505992911035
    vertex 71.33489049943628 5.868649319885613 3.1203014060474703
    vertex 88.30653274454279 5.868649319885613 3.9095829876198116
  endloop
endfacet
facet normal 1.329647498251846e-15 1.0 -1.4460251813412837e-16
  outer loop
    vertex 88.30653274454279 5.868649319885613 3.9095829876198116
    vertex 71.33489049943628 5.868649319885613 3.1203014060474703
    vertex 70.6687767605803 5.868649319885613 3.9095829876198116
  endloop
endfacet
facet normal 1.329647498251846e-15 1.0 -1.4460251813412837e-16
  outer loop
    vertex 88.30653274454279 5.868649319885613 3.9095829876198116
    vertex 70.6687767605803 5.868649319885613 3.9095829876198116
    vertex 70.54560891786396 5.868649319885613 4.055525195425004
  endloop
endfacet
facet normal 1.329647498251846e-15 1.0 -1.4460251813412837e-16
  outer loop
    vertex 88.30653274454279 5.868649319885613 3.9095829876198116
    vertex 70.54560891786396 5.868649319885613 4.055525195425004
    vertex 89.6710068516829 5.868649319885613 63.39316740253469
  endloop
endfacet
facet normal 1.329647498251846e-15 1.0 -1.4460251813412837e-16
  outer loop
    vertex 89.6710068516829 5.868649319885613 63.39316740253469
    vertex 70.54560891786396 5.868649319885613 4.055525195425004
    vertex 72.48206506401806 5.868649319885613 12.949805276487773
  endloop
endfacet
facet normal 1.329647498251846e-15 1.0 -1.4460251813412837e-16
  outer loop
    vertex 72.48206506401806 5.868649319885613 12.949805276487773
    vertex 70.54560891786396 5.868649319885613 4.055525195425004
    vertex 70.54560891786396 5.868649319885613 8.31975186459231
  endloop
endfacet
facet normal 1.329647498251846e-15 1.0 -1.4460251813412837e-16
  outer loop
    vertex 89.6710068516829 5.868649319885613 63.39316740253469
    vertex 72.48206506401806 5.868649319885613 12.949805276487773
    vertex 74.0780887662269 5.868649319885613 17.707952536185704
  endloop
endfacet
facet normal 1.329647498251846e-15 1.0 -1.4460251813412837e-16
  outer loop
    vertex 89.6710068516829 5.868649319885613 63.39316740253469
    vertex 74.0780887662269 5.868649319885613 17.707952536185704
    vertex 75.32529651615215 5.868649319885613 22.569200301061453
  endloop
endfacet
facet normal 1.329647498251846e-15 1.0 -1.4460251813412837e-16
  outer loop
    vertex 89.6710068516829 5.868649319885613 63.39316740253469
    vertex 75.32529651615215 5.868649319885613 22.569200301061453
    vertex 75.49470866458307 5.868649319885613 23.50736688341691
  endloop
endfacet
facet normal 1.329647498251846e-15 1.0 -1.4460251813412837e-16
  outer loop
    vertex 89.6710068516829 5.868649319885613 63.39316740253469
    vertex 75.49470866458307 5.868649319885613 23.50736688341691
    vertex 76.21713704732043 5.868649319885613 27.508013667645457
  endloop
endfacet
facet normal 1.329647498251846e-15 1.0 -1.4460251813412837e-16
  outer loop
    vertex 89.6710068516829 5.868649319885613 63.39316740253469
    vertex 76.21713704732043 5.868649319885613 27.508013667645457
    vertex 76.74892574726697 5.868649319885613 32.498450300004606
  endloop
endfacet
facet normal 1.329647498251846e-15 1.0 -1.4460251813412837e-16
  outer loop
    vertex 89.6710068516829 5.868649319885613 63.39316740253469
    vertex 76.74892574726697 5.868649319885613 32.498450300004606
    vertex 76.9178692646186 5.868649319885613 37.51429669826365
  endloop
endfacet
facet normal 1.329647498251846e-15 1.0 -1.4460251813412837e-16
  outer loop
    vertex 89.6710068516829 5.868649319885613 63.39316740253469
    vertex 76.9178692646186 5.868649319885613 37.51429669826365
    vertex 76.69958115355028 5.868649319885613 42.83272993491638
  endloop
endfacet
facet normal 1.329647498251846e-15 1.0 -1.4460251813412837e-16
  outer loop
    vertex 89.6710068516829 5.868649319885613 63.39316740253469
    vertex 76.69958115355028 5.868649319885613 42.83272993491638
    vertex 76.07341666167657 5.868649319885613 48.11868300142035
  endloop
endfacet
facet normal 1.329647498251846e-15 1.0 -1.4460251813412837e-16
  outer loop
    vertex 89.6710068516829 5.868649319885613 63.39316740253469
    vertex 76.07341666167657 5.868649319885613 48.11868300142035
    vertex 75.04307570990564 5.868649319885613 53.34092191928594
  endloop
endfacet
facet normal 1.329647498251846e-15 1.0 -1.4460251813412837e-16
  outer loop
    vertex 89.6710068516829 5.868649319885613 63.39316740253469
    vertex 75.04307570990564 5.868649319885613 53.34092191928594
    vertex 75.0142924519557 5.868649319885613 53.44424588015487
  endloop
endfacet
facet normal 1.329647498251846e-15 1.0 -1.4460251813412837e-16
  outer loop
    vertex 89.6710068516829 5.868649319885613 63.39316740253469
    vertex 75.0142924519557 5.868649319885613 53.44424588015487
    vertex 73.61464644293338 5.868649319885613 58.468589188271245
  endloop
endfacet
facet normal 1.329647498251846e-15 1.0 -1.4460251813412837e-16
  outer loop
    vertex 89.6710068516829 5.868649319885613 63.39316740253469
    vertex 73.61464644293338 5.868649319885613 58.468589188271245
    vertex 71.79656925522357 5.868649319885613 63.471386119158566
  endloop
endfacet
facet normal 1.329647498251846e-15 1.0 -1.4460251813412837e-16
  outer loop
    vertex 89.6710068516829 5.868649319885613 63.39316740253469
    vertex 71.79656925522357 5.868649319885613 63.471386119158566
    vertex 89.64481087005451 5.868649319885613 66.4655526791543
  endloop
endfacet
facet normal 1.329647498251846e-15 1.0 -1.4460251813412837e-16
  outer loop
    vertex 89.64481087005451 5.868649319885613 66.4655526791543
    vertex 71.79656925522357 5.868649319885613 63.471386119158566
    vertex 69.59958691786385 5.868649319885609 68.31975186459206
  endloop
endfacet
facet normal 1.329647498251846e-15 1.0 -1.4460251813412837e-16
  outer loop
    vertex 89.64481087005451 5.868649319885613 66.4655526791543
    vertex 69.59958691786385 5.868649319885609 68.31975186459206
    vertex 88.82431567137293 5.868649319885613 69.42646894720086
  endloop
endfacet
facet normal 1.329647498251846e-15 1.0 -1.4460251813412837e-16
  outer loop
    vertex 88.82431567137293 5.868649319885613 69.42646894720086
    vertex 69.59958691786385 5.868649319885609 68.31975186459206
    vertex 68.28342216153249 5.868649319885614 69.18909553827564
  endloop
endfacet
facet normal 1.329647498251846e-15 1.0 -1.4460251813412837e-16
  outer loop
    vertex 88.82431567137293 5.868649319885613 69.42646894720086
    vertex 68.28342216153249 5.868649319885614 69.18909553827564
    vertex 67.8708444188515 5.868649319885614 69.40484817796016
  endloop
endfacet
facet normal 1.329647498251846e-15 1.0 -1.4460251813412837e-16
  outer loop
    vertex 88.82431567137293 5.868649319885613 69.42646894720086
    vertex 67.8708444188515 5.868649319885614 69.40484817796016
    vertex 66.88565125396802 5.868649319885618 69.92004326468891
  endloop
endfacet
facet normal 1.329647498251846e-15 1.0 -1.4460251813412837e-16
  outer loop
    vertex 88.82431567137293 5.868649319885613 69.42646894720086
    vertex 66.88565125396802 5.868649319885618 69.92004326468891
    vertex 88.30653274454279 5.868649319885613 70.30589325085157
  endloop
endfacet
facet normal 1.329647498251846e-15 1.0 -1.4460251813412837e-16
  outer loop
    vertex 88.30653274454279 5.868649319885613 70.30589325085157
    vertex 66.88565125396802 5.868649319885618 69.92004326468891
    vertex 65.4207757892477 5.868649319885628 70.50501160711643
  endloop
endfacet
facet normal 1.329647498251846e-15 1.0 -1.4460251813412837e-16
  outer loop
    vertex 88.30653274454279 5.868649319885613 70.30589325085157
    vertex 65.4207757892477 5.868649319885628 70.50501160711643
    vertex 87.26543664749586 5.868649319885613 72.07413465615251
  endloop
endfacet
facet normal 1.329647498251846e-15 1.0 -1.4460251813412837e-16
  outer loop
    vertex 87.26543664749586 5.868649319885613 72.07413465615251
    vertex 65.4207757892477 5.868649319885628 70.50501160711643
    vertex 63.90399355783051 5.868649319885634 70.93793163580466
  endloop
endfacet
facet normal 1.329647498251846e-15 1.0 -1.4460251813412837e-16
  outer loop
    vertex 87.26543664749586 5.868649319885613 72.07413465615251
    vertex 63.90399355783051 5.868649319885634 70.93793163580466
    vertex 62.35104087251609 5.868649319885646 71.21431189189552
  endloop
endfacet
facet normal 1.329647498251846e-15 1.0 -1.4460251813412837e-16
  outer loop
    vertex 87.26543664749586 5.868649319885613 72.07413465615251
    vertex 62.35104087251609 5.868649319885646 71.21431189189552
    vertex 60.778029307340994 5.868649319885655 71.33128498541632
  endloop
endfacet
facet normal -0.49631782122490375 8.288070727617713e-17 0.8681408988951992
  outer loop
    vertex 51.991871770214445 -4.131350680114384 78.81211207851243
    vertex 47.170557770044226 5.868649319885615 76.05575759383046
    vertex 47.170557770044226 -4.13135068011438 76.05575759383046
  endloop
endfacet
facet normal -0.49631782122490375 8.288070727617713e-17 0.8681408988951992
  outer loop
    vertex 47.170557770044226 5.868649319885615 76.05575759383046
    vertex 51.991871770214445 -4.131350680114384 78.81211207851243
    vertex 51.991871770214445 5.868649319885613 78.81211207851243
  endloop
endfacet
facet normal -0.6913272286647077 1.0187458464170516e-16 0.7225418070304134
  outer loop
    vertex 43.52452120088346 -4.1313506801143784 72.56723370159015
    vertex 44.04259050164513 5.797419800243805 73.06292185481111
    vertex 43.52452120088345 5.796687281156949 72.56723370159014
  endloop
endfacet
facet normal -0.6913272286647077 1.0187458464170516e-16 0.7225418070304134
  outer loop
    vertex 44.04259050164513 5.797419800243805 73.06292185481111
    vertex 43.52452120088346 -4.1313506801143784 72.56723370159015
    vertex 47.170557770044226 -4.13135068011438 76.05575759383046
  endloop
endfacet
facet normal -0.6913272286647077 1.0187458464170516e-16 0.7225418070304134
  outer loop
    vertex 44.04259050164513 5.797419800243805 73.06292185481111
    vertex 47.170557770044226 -4.13135068011438 76.05575759383046
    vertex 44.06631550186182 5.80410320559163 73.08562190965954
  endloop
endfacet
facet normal -0.6913272286647077 1.0187458464170516e-16 0.7225418070304134
  outer loop
    vertex 44.06631550186182 5.80410320559163 73.08562190965954
    vertex 47.170557770044226 -4.13135068011438 76.05575759383046
    vertex 44.310018849067696 5.86864931988565 73.31879701177934
  endloop
endfacet
facet normal -0.6913272286647077 1.0187458464170516e-16 0.7225418070304134
  outer loop
    vertex 44.310018849067696 5.86864931988565 73.31879701177934
    vertex 47.170557770044226 -4.13135068011438 76.05575759383046
    vertex 47.170557770044226 5.868649319885615 76.05575759383046
  endloop
endfacet
facet normal -0.26059765732758516 -1.7222554656988657e-18 0.9654474926143704
  outer loop
    vertex 57.353588420696546 -4.131350680114387 80.2593692406666
    vertex 51.991871770214445 5.868649319885613 78.81211207851243
    vertex 51.991871770214445 -4.131350680114384 78.81211207851243
  endloop
endfacet
facet normal -0.26059765732758516 -1.7222554656988657e-18 0.9654474926143704
  outer loop
    vertex 51.991871770214445 5.868649319885613 78.81211207851243
    vertex 57.353588420696546 -4.131350680114387 80.2593692406666
    vertex 57.353588420696546 5.868649319885613 80.2593692406666
  endloop
endfacet
facet normal 0.07170510302468372 0.9867470271050113 -0.14556332882852674
  outer loop
    vertex 53.41339046006022 -3.6504996091261517 38.92925167024438
    vertex 56.573196132525496 -4.131350680114401 37.22618417727819
    vertex 53.082562020283696 -3.7250571068708647 38.26087263969704
  endloop
endfacet
facet normal -0.2841960202998074 1.1810125575377854e-15 -0.9587661978009818
  outer loop
    vertex 51.735141663643475 -4.131350680114394 38.6602729355214
    vertex 53.082562020283696 -3.7250571068708647 38.26087263969704
    vertex 56.573196132525496 -4.131350680114401 37.22618417727819
  endloop
endfacet
facet normal -0.2841960202998074 1.1810125575377854e-15 -0.9587661978009818
  outer loop
    vertex 53.082562020283696 -3.7250571068708647 38.26087263969704
    vertex 51.735141663643475 -4.131350680114394 38.6602729355214
    vertex 53.03631748955811 -3.7193915735596477 38.2745803732644
  endloop
endfacet
facet normal -0.2841960202998074 1.1810125575377854e-15 -0.9587661978009818
  outer loop
    vertex 53.03631748955811 -3.7193915735596477 38.2745803732644
    vertex 51.735141663643475 -4.131350680114394 38.6602729355214
    vertex 51.735141663643496 -3.542890369912658 38.6602729355214
  endloop
endfacet
facet normal -0.9926326060066432 7.114955997634917e-17 -0.12116315237092665
  outer loop
    vertex 38.524319698345984 -4.1313506801143784 58.56584135036993
    vertex 39.135724159763676 1.1036680775039847 53.556892738640364
    vertex 39.13572415976368 -4.13135068011438 53.55689273864036
  endloop
endfacet
facet normal -0.9926326060066432 7.114955997634917e-17 -0.12116315237092665
  outer loop
    vertex 39.135724159763676 1.1036680775039847 53.556892738640364
    vertex 38.524319698345984 -4.1313506801143784 58.56584135036993
    vertex 39.00831766267815 1.3767030674622578 54.600674125550945
  endloop
endfacet
facet normal -0.9926326060066432 7.114955997634917e-17 -0.12116315237092665
  outer loop
    vertex 39.00831766267815 1.3767030674622578 54.600674125550945
    vertex 38.524319698345984 -4.1313506801143784 58.56584135036993
    vertex 38.55291184064275 2.4320527499468585 58.3315994033425
  endloop
endfacet
facet normal -0.9926326060066432 7.114955997634917e-17 -0.12116315237092665
  outer loop
    vertex 38.55291184064275 2.4320527499468585 58.3315994033425
    vertex 38.524319698345984 -4.1313506801143784 58.56584135036993
    vertex 38.52431969834599 2.507253737960691 58.56584135036993
  endloop
endfacet
facet normal -0.9926326060066432 7.114955997634917e-17 -0.12116315237092665
  outer loop
    vertex 39.00831766267815 1.3767030674622578 54.600674125550945
    vertex 38.55291184064275 2.4320527499468585 58.3315994033425
    vertex 38.82830764221324 1.837966549250724 56.07541138869494
  endloop
endfacet
facet normal -0.941748212542077 -2.2420342195416357e-16 0.33631875382411125
  outer loop
    vertex 40.77925232913836 5.085968360600379 68.33321900721124
    vertex 39.08214572104188 -4.131350680114377 63.58103942609857
    vertex 40.77925232913837 -4.131350680114378 68.33321900721126
  endloop
endfacet
facet normal -0.941748212542077 -2.2420342195416357e-16 0.33631875382411125
  outer loop
    vertex 39.08214572104188 -4.131350680114377 63.58103942609857
    vertex 40.77925232913836 5.085968360600379 68.33321900721124
    vertex 39.977621389412725 4.49313830351941 66.08851960814097
  endloop
endfacet
facet normal -0.941748212542077 -2.2420342195416357e-16 0.33631875382411125
  outer loop
    vertex 39.08214572104188 -4.131350680114377 63.58103942609857
    vertex 39.977621389412725 4.49313830351941 66.08851960814097
    vertex 39.0821457210419 3.9019775431116774 63.58103942609857
  endloop
endfacet
facet normal -0.941748212542077 -2.2420342195416357e-16 0.33631875382411125
  outer loop
    vertex 39.977621389412725 4.49313830351941 66.08851960814097
    vertex 40.77925232913836 5.085968360600379 68.33321900721124
    vertex 40.357408408849075 4.821129495775643 67.15198616370486
  endloop
endfacet
facet normal -0.8331990789301186 2.931096635912857e-15 -0.5529731411831883
  outer loop
    vertex 40.8835325591191 -4.131350680114383 48.82312601334308
    vertex 43.67390437553185 -1.5498654185200065 44.618698973120054
    vertex 43.673904375531826 -4.131350680114386 44.61869897312006
  endloop
endfacet
facet normal -0.8331990789301186 2.931096635912857e-15 -0.5529731411831883
  outer loop
    vertex 43.67390437553185 -1.5498654185200065 44.618698973120054
    vertex 40.8835325591191 -4.131350680114383 48.82312601334308
    vertex 42.79356072768391 -1.1705899110460605 45.945167587779025
  endloop
endfacet
facet normal -0.8331990789301186 2.931096635912857e-15 -0.5529731411831883
  outer loop
    vertex 42.79356072768391 -1.1705899110460605 45.945167587779025
    vertex 40.8835325591191 -4.131350680114383 48.82312601334308
    vertex 41.73225101885207 -0.6976047519523895 47.544309039687874
  endloop
endfacet
facet normal -0.8331990789301186 2.931096635912857e-15 -0.5529731411831883
  outer loop
    vertex 41.73225101885207 -0.6976047519523895 47.544309039687874
    vertex 40.8835325591191 -4.131350680114383 48.82312601334308
    vertex 40.88353255911911 -0.2790961037629505 48.82312601334307
  endloop
endfacet
facet normal -0.9380993028668467 2.8157994641272597e-16 -0.346366421526014
  outer loop
    vertex 39.13572415976368 -4.13135068011438 53.55689273864036
    vertex 40.88353255911911 -0.2790961037629505 48.82312601334307
    vertex 40.8835325591191 -4.131350680114383 48.82312601334308
  endloop
endfacet
facet normal -0.9380993028668467 2.8157994641272597e-16 -0.346366421526014
  outer loop
    vertex 40.88353255911911 -0.2790961037629505 48.82312601334307
    vertex 39.13572415976368 -4.13135068011438 53.55689273864036
    vertex 40.0916282880288 0.31967129203046957 50.96792065415756
  endloop
endfacet
facet normal -0.9380993028668467 2.8157994641272597e-16 -0.346366421526014
  outer loop
    vertex 40.0916282880288 0.31967129203046957 50.96792065415756
    vertex 39.13572415976368 -4.13135068011438 53.55689273864036
    vertex 39.135724159763676 1.1036680775039847 53.556892738640364
  endloop
endfacet
facet normal -0.9380993028668467 2.8157994641272597e-16 -0.346366421526014
  outer loop
    vertex 40.88353255911911 -0.2790961037629505 48.82312601334307
    vertex 40.0916282880288 0.31967129203046957 50.96792065415756
    vertex 40.78622650977882 -0.20011858704270752 49.0866698541365
  endloop
endfacet
facet normal -0.9380993028668467 2.8157994641272597e-16 -0.346366421526014
  outer loop
    vertex 40.0916282880288 0.31967129203046957 50.96792065415756
    vertex 39.135724159763676 1.1036680775039847 53.556892738640364
    vertex 39.521170664216626 0.8111683626898215 52.512948884248544
  endloop
endfacet
facet normal -0.9938710738401962 1.0843781125854374e-15 0.11054541412349536
  outer loop
    vertex 39.08214572104188 -4.131350680114377 63.58103942609857
    vertex 38.52431969834599 2.507253737960691 58.56584135036993
    vertex 38.524319698345984 -4.1313506801143784 58.56584135036993
  endloop
endfacet
facet normal -0.9938710738401962 1.0843781125854374e-15 0.11054541412349536
  outer loop
    vertex 38.52431969834599 2.507253737960691 58.56584135036993
    vertex 39.08214572104188 -4.131350680114377 63.58103942609857
    vertex 38.90834752614644 3.4341822790323144 62.01848705826123
  endloop
endfacet
facet normal -0.9938710738401962 1.0843781125854374e-15 0.11054541412349536
  outer loop
    vertex 38.90834752614644 3.4341822790323144 62.01848705826123
    vertex 39.08214572104188 -4.131350680114377 63.58103942609857
    vertex 39.0821457210419 3.9019775431116774 63.58103942609857
  endloop
endfacet
facet normal -0.9938710738401962 1.0843781125854374e-15 0.11054541412349536
  outer loop
    vertex 38.52431969834599 2.507253737960691 58.56584135036993
    vertex 38.90834752614644 3.4341822790323144 62.01848705826123
    vertex 38.64707922650231 2.848856913258058 59.66952480065342
  endloop
endfacet
facet normal -0.9938710738401962 1.0843781125854374e-15 0.11054541412349536
  outer loop
    vertex 38.90834752614644 3.4341822790323144 62.01848705826123
    vertex 39.0821457210419 3.9019775431116774 63.58103942609857
    vertex 39.04488176855699 3.8208546020954834 63.246013638142045
  endloop
endfacet
facet normal -0.49722823420259277 7.609966695777474e-15 -0.8676197802676999
  outer loop
    vertex 47.357023447917726 -2.670069706142908 41.169348960579114
    vertex 51.735141663643475 -4.131350680114394 38.6602729355214
    vertex 47.357023447917726 -4.131350680114391 41.169348960579114
  endloop
endfacet
facet normal -0.49722823420259277 7.609966695777474e-15 -0.8676197802676999
  outer loop
    vertex 51.735141663643475 -4.131350680114394 38.6602729355214
    vertex 47.357023447917726 -2.670069706142908 41.169348960579114
    vertex 48.16937752723654 -2.8483968990509703 40.70379320263831
  endloop
endfacet
facet normal -0.49722823420259277 7.609966695777474e-15 -0.8676197802676999
  outer loop
    vertex 51.735141663643475 -4.131350680114394 38.6602729355214
    vertex 48.16937752723654 -2.8483968990509703 40.70379320263831
    vertex 49.700879705268385 -3.1559975057935197 39.82609753343026
  endloop
endfacet
facet normal -0.49722823420259277 7.609966695777474e-15 -0.8676197802676999
  outer loop
    vertex 51.735141663643475 -4.131350680114394 38.6602729355214
    vertex 49.700879705268385 -3.1559975057935197 39.82609753343026
    vertex 51.540789844481 -3.508105137969584 38.771654918798006
  endloop
endfacet
facet normal -0.49722823420259277 7.609966695777474e-15 -0.8676197802676999
  outer loop
    vertex 51.735141663643475 -4.131350680114394 38.6602729355214
    vertex 51.540789844481 -3.508105137969584 38.771654918798006
    vertex 51.735141663643496 -3.542890369912658 38.6602729355214
  endloop
endfacet
facet normal -0.8390625190503869 -1.8892293161696706e-16 0.5440350072603962
  outer loop
    vertex 43.52452120088345 5.796687281156949 72.56723370159014
    vertex 40.77925232913837 -4.131350680114378 68.33321900721126
    vertex 43.52452120088346 -4.1313506801143784 72.56723370159015
  endloop
endfacet
facet normal -0.8390625190503869 -1.8892293161696706e-16 0.5440350072603962
  outer loop
    vertex 40.77925232913837 -4.131350680114378 68.33321900721126
    vertex 43.52452120088345 5.796687281156949 72.56723370159014
    vertex 40.77925232913836 5.085968360600379 68.33321900721124
  endloop
endfacet
facet normal -0.8390625190503869 -1.8892293161696706e-16 0.5440350072603962
  outer loop
    vertex 40.77925232913836 5.085968360600379 68.33321900721124
    vertex 43.52452120088345 5.796687281156949 72.56723370159014
    vertex 41.79595527412842 5.432301574758074 69.90127496457536
  endloop
endfacet
facet normal -0.8390625190503869 -1.8892293161696706e-16 0.5440350072603962
  outer loop
    vertex 41.79595527412842 5.432301574758074 69.90127496457536
    vertex 43.52452120088345 5.796687281156949 72.56723370159014
    vertex 42.35336363517598 5.691596473595998 70.76096314147325
  endloop
endfacet
facet normal -0.8390625190503869 -1.8892293161696706e-16 0.5440350072603962
  outer loop
    vertex 42.35336363517598 5.691596473595998 70.76096314147325
    vertex 43.52452120088345 5.796687281156949 72.56723370159014
    vertex 42.83226505852855 5.789043406701834 71.49957045404035
  endloop
endfacet
facet normal -0.8390625190503869 -1.8892293161696706e-16 0.5440350072603962
  outer loop
    vertex 42.35336363517598 5.691596473595998 70.76096314147325
    vertex 42.83226505852855 5.789043406701834 71.49957045404035
    vertex 42.56173768032583 5.787654820598562 71.0823374076415
  endloop
endfacet
facet normal -0.6835640685072436 2.1482275325575548e-15 -0.7298905152458308
  outer loop
    vertex 43.67390437553185 -1.5498654185200065 44.618698973120054
    vertex 47.357023447917726 -4.131350680114391 41.169348960579114
    vertex 43.673904375531826 -4.131350680114386 44.61869897312006
  endloop
endfacet
facet normal -0.6835640685072436 2.1482275325575548e-15 -0.7298905152458308
  outer loop
    vertex 47.357023447917726 -4.131350680114391 41.169348960579114
    vertex 43.67390437553185 -1.5498654185200065 44.618698973120054
    vertex 43.99568586004169 -1.6477047886973357 44.31734108981098
  endloop
endfacet
facet normal -0.6835640685072436 2.1482275325575548e-15 -0.7298905152458308
  outer loop
    vertex 47.357023447917726 -4.131350680114391 41.169348960579114
    vertex 43.99568586004169 -1.6477047886973357 44.31734108981098
    vertex 45.27057871024584 -2.0632729692505234 43.123366205368434
  endloop
endfacet
facet normal -0.6835640685072436 2.1482275325575548e-15 -0.7298905152458308
  outer loop
    vertex 47.357023447917726 -4.131350680114391 41.169348960579114
    vertex 45.27057871024584 -2.0632729692505234 43.123366205368434
    vertex 46.64396213544614 -2.4604839414273756 41.83715198263103
  endloop
endfacet
facet normal -0.6835640685072436 2.1482275325575548e-15 -0.7298905152458308
  outer loop
    vertex 47.357023447917726 -4.131350680114391 41.169348960579114
    vertex 46.64396213544614 -2.4604839414273756 41.83715198263103
    vertex 47.357023447917726 -2.670069706142908 41.169348960579114
  endloop
endfacet
facet normal 0.07690939281170665 0.9859842267413946 -0.1480542127550209
  outer loop
    vertex 53.41339046006022 -3.6504996091261517 38.92925167024438
    vertex 53.082562020283696 -3.7250571068708647 38.26087263969704
    vertex 53.03631748955811 -3.7193915735596477 38.2745803732644
  endloop
endfacet
facet normal 0.08780707718754703 0.9841400946579388 -0.15413692381270477
  outer loop
    vertex 51.735141663643496 -3.542890369912658 38.6602729355214
    vertex 53.41339046006022 -3.6504996091261517 38.92925167024438
    vertex 53.03631748955811 -3.7193915735596477 38.2745803732644
  endloop
endfacet
facet normal 0.08780707718754703 0.9841400946579388 -0.15413692381270477
  outer loop
    vertex 53.41339046006022 -3.6504996091261517 38.92925167024438
    vertex 51.735141663643496 -3.542890369912658 38.6602729355214
    vertex 51.540789844481 -3.508105137969584 38.771654918798006
  endloop
endfacet
facet normal 0.0769093928116975 0.9859842267413961 -0.14805421275501515
  outer loop
    vertex 53.41339046006022 -3.6504996091261517 38.92925167024438
    vertex 53.082562020283696 -3.7250571068708647 38.26087263969704
    vertex 53.03631748955811 -3.7193915735596477 38.2745803732644
  endloop
endfacet
facet normal 0.0769093928116975 0.9859842267413961 -0.14805421275501515
  outer loop
    vertex 53.41339046006022 -3.6504996091261517 38.92925167024438
    vertex 53.082562020283696 -3.7250571068708647 38.26087263969704
    vertex 53.03631748955811 -3.7193915735596477 38.2745803732644
  endloop
endfacet
facet normal 0.0769093928116975 0.9859842267413961 -0.14805421275501515
  outer loop
    vertex 53.41339046006022 -3.6504996091261517 38.92925167024438
    vertex 53.082562020283696 -3.7250571068708647 38.26087263969704
    vertex 53.03631748955811 -3.7193915735596477 38.2745803732644
  endloop
endfacet
facet normal 0.0769093928116975 0.9859842267413961 -0.14805421275501515
  outer loop
    vertex 53.41339046006022 -3.6504996091261517 38.92925167024438
    vertex 53.082562020283696 -3.7250571068708647 38.26087263969704
    vertex 53.03631748955811 -3.7193915735596477 38.2745803732644
  endloop
endfacet
facet normal 0.08780707718754703 0.9841400946579388 -0.15413692381270477
  outer loop
    vertex 51.735141663643496 -3.542890369912658 38.6602729355214
    vertex 53.41339046006022 -3.6504996091261517 38.92925167024438
    vertex 53.03631748955811 -3.7193915735596477 38.2745803732644
  endloop
endfacet
facet normal 0.08780707718754703 0.9841400946579388 -0.15413692381270477
  outer loop
    vertex 53.41339046006022 -3.6504996091261517 38.92925167024438
    vertex 51.735141663643496 -3.542890369912658 38.6602729355214
    vertex 51.540789844481 -3.508105137969584 38.771654918798006
  endloop
endfacet
endsolid ухо3
