solid ухо1
facet normal -0.12852246307836382 0.9233107617636164 0.3619105050917436
  outer loop
    vertex -9.213691097331095 -5.000000000000002 10.572935223337256
    vertex -1.603485038297737 0.0 0.5194238430724467
    vertex -2.908048153274428 0.0 0.056144489698937636
  endloop
endfacet
facet normal -0.12852246307836382 0.9233107617636164 0.3619105050917436
  outer loop
    vertex -1.603485038297737 0.0 0.5194238430724467
    vertex -9.213691097331095 -5.000000000000002 10.572935223337256
    vertex -3.3431570799361334 -5.000000000000002 12.657692313518044
  endloop
endfacet
facet normal -0.17205463797620132 0.9256744303239013 0.3369333028885674
  outer loop
    vertex -10.662060730719276 -5.000000000000002 9.833326788101203
    vertex -2.908048153274428 0.0 0.056144489698937636
    vertex -3.229908071805112 0.0 -0.1082129403535167
  endloop
endfacet
facet normal -0.17205463797620132 0.9256744303239013 0.3369333028885674
  outer loop
    vertex -2.908048153274428 0.0 0.056144489698937636
    vertex -10.662060730719276 -5.000000000000002 9.833326788101203
    vertex -9.213691097331095 -5.000000000000002 10.572935223337256
  endloop
endfacet
facet normal -0.2511768296947866 0.9270220932468899 0.2784604798829283
  outer loop
    vertex -11.869653616664136 -5.000000000000002 8.744054253696548
    vertex -3.229908071805112 0.0 -0.1082129403535167
    vertex -3.4982620464594727 0.0 -0.35027350355455383
  endloop
endfacet
facet normal -0.2511768296947866 0.9270220932468899 0.2784604798829283
  outer loop
    vertex -3.229908071805112 0.0 -0.1082129403535167
    vertex -11.869653616664136 -5.000000000000002 8.744054253696548
    vertex -10.662060730719276 -5.000000000000002 9.833326788101203
  endloop
endfacet
facet normal -0.3234128893413073 0.9227484914665269 0.20961709020057542
  outer loop
    vertex -12.754174295630287 -5.000000000000002 7.379349743234878
    vertex -3.4982620464594727 0.0 -0.35027350355455383
    vertex -3.6948221973408675 0.0 -0.6535411725460326
  endloop
endfacet
facet normal -0.3234128893413073 0.9227484914665269 0.20961709020057542
  outer loop
    vertex -3.4982620464594727 0.0 -0.35027350355455383
    vertex -12.754174295630287 -5.000000000000002 7.379349743234878
    vertex -11.869653616664136 -5.000000000000002 8.744054253696548
  endloop
endfacet
facet normal -0.3908953134801649 0.9116836692853821 0.1266244094066609
  outer loop
    vertex -13.255344145085564 -5.000000000000002 5.832215613823343
    vertex -3.6948221973408675 0.0 -0.6535411725460326
    vertex -3.8061932749976 0.0 -0.9973487568597093
  endloop
endfacet
facet normal -0.3908953134801649 0.9116836692853821 0.1266244094066609
  outer loop
    vertex -3.6948221973408675 0.0 -0.6535411725460326
    vertex -13.255344145085564 -5.000000000000002 5.832215613823343
    vertex -12.754174295630287 -5.000000000000002 7.379349743234878
  endloop
endfacet
facet normal -0.4543102607977162 0.8905360599819055 0.023403264853758196
  outer loop
    vertex -13.33900926801199 -5.000000000000002 4.208086499621322
    vertex -3.8061932749976 0.0 -0.9973487568597093
    vertex -3.824785524536786 0.0 -1.3582663377934923
  endloop
endfacet
facet normal -0.4543102607977162 0.8905360599819055 0.023403264853758196
  outer loop
    vertex -3.8061932749976 0.0 -0.9973487568597093
    vertex -13.33900926801199 -5.000000000000002 4.208086499621322
    vertex -13.255344145085564 -5.000000000000002 5.832215613823343
  endloop
endfacet
facet normal -0.511752862793291 0.8521576771698237 -0.10925337826997258
  outer loop
    vertex -12.999468024545337 -5.000000000000002 2.617644115761379
    vertex -3.824785524536786 0.0 -1.3582663377934923
    vertex -3.749331914877525 0.0 -1.7116979786512552
  endloop
endfacet
facet normal -0.511752862793291 0.8521576771698237 -0.10925337826997258
  outer loop
    vertex -3.824785524536786 0.0 -1.3582663377934923
    vertex -12.999468024545337 -5.000000000000002 2.617644115761379
    vertex -13.33900926801199 -5.000000000000002 4.208086499621322
  endloop
endfacet
facet normal -0.5553099103703619 0.7818055081174042 -0.28356842370360674
  outer loop
    vertex -12.25985958930936 -5.000000000000002 1.1692744823731982
    vertex -3.749331914877525 0.0 -1.7116979786512552
    vertex -3.5849744848250453 0.0 -2.033557897181962
  endloop
endfacet
facet normal -0.5553099103703619 0.7818055081174042 -0.28356842370360674
  outer loop
    vertex -3.749331914877525 0.0 -1.7116979786512552
    vertex -12.25985958930936 -5.000000000000002 1.1692744823731982
    vertex -12.999468024545337 -5.000000000000002 2.617644115761379
  endloop
endfacet
facet normal -0.5631957543973802 0.6517151802128253 -0.5080136475616878
  outer loop
    vertex -11.170587054904674 -5.000000000000002 -0.03831840357165109
    vertex -3.5849744848250453 0.0 -2.033557897181962
    vertex -3.3429139216240293 0.0 -2.3019118718363747
  endloop
endfacet
facet normal -0.5631957543973802 0.6517151802128253 -0.5080136475616878
  outer loop
    vertex -3.5849744848250453 0.0 -2.033557897181962
    vertex -11.170587054904674 -5.000000000000002 -0.03831840357165109
    vertex -12.25985958930936 -5.000000000000002 1.1692744823731982
  endloop
endfacet
facet normal -0.5386894697950899 0.5572802981126691 -0.6318641661522988
  outer loop
    vertex -3.3429139216240293 0.0 -2.3019118718363747
    vertex -6.42986744539079 -5.000000000000002 -4.079971451326035
    vertex -11.170587054904674 -5.000000000000002 -0.03831840357165109
  endloop
endfacet
facet normal -0.5386894697950899 0.5572802981126691 -0.6318641661522988
  outer loop
    vertex -6.42986744539079 -5.000000000000002 -4.079971451326035
    vertex -3.3429139216240293 0.0 -2.3019118718363747
    vertex -2.2894206750653683 0.0 -3.200056993559571
  endloop
endfacet
facet normal -0.46678027481498935 0.5132757407018337 -0.7201834412499548
  outer loop
    vertex -2.2894206750653683 0.0 -3.200056993559571
    vertex -5.065162934929137 -5.000000000000002 -4.964492130292124
    vertex -6.42986744539079 -5.000000000000002 -4.079971451326035
  endloop
endfacet
facet normal -0.46678027481498935 0.5132757407018337 -0.7201834412499548
  outer loop
    vertex -5.065162934929137 -5.000000000000002 -4.964492130292124
    vertex -2.2894206750653683 0.0 -3.200056993559571
    vertex -1.9861530060739148 0.0 -3.3966171444409237
  endloop
endfacet
facet normal -0.2769419848670722 0.43862688320534576 -0.8549325086505075
  outer loop
    vertex -1.9861530060739148 0.0 -3.3966171444409237
    vertex -3.5180288055176137 -5.000000000000002 -5.465661979747422
    vertex -5.065162934929137 -5.000000000000002 -4.964492130292124
  endloop
endfacet
facet normal -0.2769419848670722 0.43862688320534576 -0.8549325086505075
  outer loop
    vertex -3.5180288055176137 -5.000000000000002 -5.465661979747422
    vertex -1.9861530060739148 0.0 -3.3966171444409237
    vertex -1.6423454217602707 0.0 -3.5079882220976564
  endloop
endfacet
facet normal -0.07898726263716346 0.9256744303239005 0.3699835961034083
  outer loop
    vertex -3.3431570799361334 -5.000000000000002 12.657692313518044
    vertex -1.250053397439943 0.0 0.5948774527317021
    vertex -1.603485038297737 0.0 0.5194238430724467
  endloop
endfacet
facet normal -0.07898726263716346 0.9256744303239005 0.3699835961034083
  outer loop
    vertex -1.250053397439943 0.0 0.5948774527317021
    vertex -3.3431570799361334 -5.000000000000002 12.657692313518044
    vertex -1.7527146960761621 -5.000000000000002 12.997233556984725
  endloop
endfacet
facet normal 0.01929245406354805 0.9270220932468897 0.3745101331718023
  outer loop
    vertex -1.250053397439943 0.0 0.5948774527317021
    vertex -0.12858558187408767 -5.000000000000002 12.913568434058288
    vertex -0.8891358165061813 0.0 0.5762852031925023
  endloop
endfacet
facet normal 0.01929245406354805 0.9270220932468897 0.3745101331718023
  outer loop
    vertex -0.12858558187408767 -5.000000000000002 12.913568434058288
    vertex -1.250053397439943 0.0 0.5948774527317021
    vertex -1.7527146960761621 -5.000000000000002 12.997233556984725
  endloop
endfacet
facet normal 0.1187691458631227 0.9227484914665263 0.3666457574924252
  outer loop
    vertex -0.8891358165061813 0.0 0.5762852031925023
    vertex 1.4185485475374353 -5.000000000000002 12.412398584603018
    vertex -0.545328232192492 0.0 0.4649141255357751
  endloop
endfacet
facet normal 0.1187691458631227 0.9227484914665263 0.3666457574924252
  outer loop
    vertex 1.4185485475374353 -5.000000000000002 12.412398584603018
    vertex -0.8891358165061813 0.0 0.5762852031925023
    vertex -0.12858558187408767 -5.000000000000002 12.913568434058288
  endloop
endfacet
facet normal 0.2234809390544783 0.9116836692853832 0.34480306993654886
  outer loop
    vertex -0.545328232192492 0.0 0.4649141255357751
    vertex 2.7832530579991395 -5.000000000000002 11.527877905636938
    vertex -0.24206056320099342 0.0 0.26835397465442257
  endloop
endfacet
facet normal 0.2234809390544783 0.9116836692853832 0.34480306993654886
  outer loop
    vertex 2.7832530579991395 -5.000000000000002 11.527877905636938
    vertex -0.545328232192492 0.0 0.4649141255357751
    vertex 1.4185485475374353 -5.000000000000002 12.412398584603018
  endloop
endfacet
facet normal 0.3377944734527157 0.8905360599819029 0.3046972588926777
  outer loop
    vertex -0.24206056320099342 0.0 0.26835397465442257
    vertex 3.872525592403773 -5.000000000000002 10.320285019692022
    vertex 0.0 0.0 0.0
  endloop
endfacet
facet normal 0.3377944734527157 0.8905360599819029 0.3046972588926777
  outer loop
    vertex 3.872525592403773 -5.000000000000002 10.320285019692022
    vertex -0.24206056320099342 0.0 0.26835397465442257
    vertex 2.7832530579991395 -5.000000000000002 11.527877905636938
  endloop
endfacet
facet normal 0.4660384518113276 0.8521576771698277 0.23798204695695996
  outer loop
    vertex 0.0 0.0 0.0
    vertex 4.612134027639774 -5.000000000000002 8.871915386303959
    vertex 0.1643574300524797 0.0 -0.32185991853068285
  endloop
endfacet
facet normal 0.4660384518113276 0.8521576771698277 0.23798204695695996
  outer loop
    vertex 4.612134027639774 -5.000000000000002 8.871915386303959
    vertex 0.0 0.0 0.0
    vertex 3.872525592403773 -5.000000000000002 10.320285019692022
  endloop
endfacet
facet normal 0.6097810926651969 0.7818055081174007 0.13018128323738232
  outer loop
    vertex 0.1643574300524797 0.0 -0.32185991853068285
    vertex 4.951675271106461 -5.000000000000002 7.281473002443983
    vertex 0.23981103971171824 0.0 -0.6752915593884543
  endloop
endfacet
facet normal 0.6097810926651969 0.7818055081174007 0.13018128323738232
  outer loop
    vertex 4.951675271106461 -5.000000000000002 7.281473002443983
    vertex 0.1643574300524797 0.0 -0.32185991853068285
    vertex 4.612134027639774 -5.000000000000002 8.871915386303959
  endloop
endfacet
facet normal 0.7574594321960605 0.6517151802128023 -0.0390196419437209
  outer loop
    vertex 0.22121879017248744 0.0 -1.0362091403222387
    vertex 4.951675271106461 -5.000000000000002 7.281473002443983
    vertex 4.868010148179944 -5.000000000000002 5.657343888241959
  endloop
endfacet
facet normal 0.7574594321960605 0.6517151802128023 -0.0390196419437209
  outer loop
    vertex 4.951675271106461 -5.000000000000002 7.281473002443983
    vertex 0.22121879017248744 0.0 -1.0362091403222387
    vertex 0.23981103971171824 0.0 -0.6752915593884543
  endloop
endfacet
facet normal 0.8165551545265104 0.5572802981126641 -0.15058668251756868
  outer loop
    vertex -0.02985107824554234 0.0 -2.397633615418968
    vertex 4.868010148179944 -5.000000000000002 5.657343888241959
    vertex 3.7381957402987878 -5.000000000000002 -0.4690662496933196
  endloop
endfacet
facet normal 0.8165551545265104 0.5572802981126641 -0.15058668251756868
  outer loop
    vertex 4.868010148179944 -5.000000000000002 5.657343888241959
    vertex -0.02985107824554234 0.0 -2.397633615418968
    vertex 0.22121879017248744 0.0 -1.0362091403222387
  endloop
endfacet
facet normal 0.8164554105693824 0.5132757407018268 -0.2644779320831368
  outer loop
    vertex -0.14122215590229778 0.0 -2.741441199732653
    vertex 3.7381957402987878 -5.000000000000002 -0.4690662496933196
    vertex 3.2370258908434955 -5.000000000000002 -2.0162003791049043
  endloop
endfacet
facet normal 0.8164554105693824 0.5132757407018268 -0.2644779320831368
  outer loop
    vertex 3.7381957402987878 -5.000000000000002 -0.4690662496933196
    vertex -0.14122215590229778 0.0 -2.741441199732653
    vertex -0.02985107824554234 0.0 -2.397633615418968
  endloop
endfacet
facet normal 0.7541235297675422 0.43862688320534066 -0.4887782310828823
  outer loop
    vertex -0.337782306783625 0.0 -3.0447088687241264
    vertex 3.2370258908434955 -5.000000000000002 -2.0162003791049043
    vertex 2.352505211877433 -5.000000000000002 -3.3809048895665352
  endloop
endfacet
facet normal 0.7541235297675422 0.43862688320534066 -0.4887782310828823
  outer loop
    vertex 3.2370258908434955 -5.000000000000002 -2.0162003791049043
    vertex -0.337782306783625 0.0 -3.0447088687241264
    vertex -0.14122215590229778 0.0 -2.741441199732653
  endloop
endfacet
facet normal 0.6196585122278933 0.37960308378263735 -0.6869678500528434
  outer loop
    vertex -0.337782306783625 0.0 -3.0447088687241264
    vertex 1.1449123259325003 -5.000000000000002 -4.470177423971244
    vertex -0.6061362814379855 0.0 -3.286769431925172
  endloop
endfacet
facet normal 0.6196585122278933 0.37960308378263735 -0.6869678500528434
  outer loop
    vertex 1.1449123259325003 -5.000000000000002 -4.470177423971244
    vertex -0.337782306783625 0.0 -3.0447088687241264
    vertex 2.352505211877433 -5.000000000000002 -3.3809048895665352
  endloop
endfacet
facet normal -0.0 1.0 -0.0
  outer loop
    vertex -1.6423454217602707 0.0 -3.5079882220976564
    vertex -0.9279961999686698 0.0 -3.4511268619776025
    vertex -1.2814278408265087 0.0 -3.5265804716368647
  endloop
endfacet
facet normal -0.0 1.0 -0.0
  outer loop
    vertex -0.9279961999686698 0.0 -3.4511268619776025
    vertex -1.6423454217602707 0.0 -3.5079882220976564
    vertex -1.9861530060739148 0.0 -3.3966171444409237
  endloop
endfacet
facet normal -0.0 1.0 -0.0
  outer loop
    vertex -0.9279961999686698 0.0 -3.4511268619776025
    vertex -1.9861530060739148 0.0 -3.3966171444409237
    vertex -0.6061362814379855 0.0 -3.286769431925172
  endloop
endfacet
facet normal -0.0 1.0 -0.0
  outer loop
    vertex -0.6061362814379855 0.0 -3.286769431925172
    vertex -1.9861530060739148 0.0 -3.3966171444409237
    vertex -2.2894206750653683 0.0 -3.200056993559571
  endloop
endfacet
facet normal -0.0 1.0 -0.0
  outer loop
    vertex -0.6061362814379855 0.0 -3.286769431925172
    vertex -2.2894206750653683 0.0 -3.200056993559571
    vertex -0.337782306783625 0.0 -3.0447088687241264
  endloop
endfacet
facet normal -0.0 1.0 -0.0
  outer loop
    vertex -0.337782306783625 0.0 -3.0447088687241264
    vertex -2.2894206750653683 0.0 -3.200056993559571
    vertex -3.3429139216240293 0.0 -2.3019118718363747
  endloop
endfacet
facet normal -0.0 1.0 -0.0
  outer loop
    vertex -0.337782306783625 0.0 -3.0447088687241264
    vertex -3.3429139216240293 0.0 -2.3019118718363747
    vertex -0.14122215590229778 0.0 -2.741441199732653
  endloop
endfacet
facet normal -0.0 1.0 -0.0
  outer loop
    vertex -0.14122215590229778 0.0 -2.741441199732653
    vertex -3.3429139216240293 0.0 -2.3019118718363747
    vertex -0.02985107824554234 0.0 -2.397633615418968
  endloop
endfacet
facet normal -0.0 1.0 -0.0
  outer loop
    vertex -0.02985107824554234 0.0 -2.397633615418968
    vertex -3.3429139216240293 0.0 -2.3019118718363747
    vertex 0.22121879017248744 0.0 -1.0362091403222387
  endloop
endfacet
facet normal -0.0 1.0 -0.0
  outer loop
    vertex 0.22121879017248744 0.0 -1.0362091403222387
    vertex -3.3429139216240293 0.0 -2.3019118718363747
    vertex -3.5849744848250453 0.0 -2.033557897181962
  endloop
endfacet
facet normal -0.0 1.0 -0.0
  outer loop
    vertex 0.22121879017248744 0.0 -1.0362091403222387
    vertex -3.5849744848250453 0.0 -2.033557897181962
    vertex -3.749331914877525 0.0 -1.7116979786512552
  endloop
endfacet
facet normal -0.0 1.0 -0.0
  outer loop
    vertex 0.22121879017248744 0.0 -1.0362091403222387
    vertex -3.749331914877525 0.0 -1.7116979786512552
    vertex -3.824785524536786 0.0 -1.3582663377934923
  endloop
endfacet
facet normal -0.0 1.0 -0.0
  outer loop
    vertex 0.22121879017248744 0.0 -1.0362091403222387
    vertex -3.824785524536786 0.0 -1.3582663377934923
    vertex -3.8061932749976 0.0 -0.9973487568597093
  endloop
endfacet
facet normal -0.0 1.0 -0.0
  outer loop
    vertex 0.22121879017248744 0.0 -1.0362091403222387
    vertex -3.8061932749976 0.0 -0.9973487568597093
    vertex 0.23981103971171824 0.0 -0.6752915593884543
  endloop
endfacet
facet normal -0.0 1.0 -0.0
  outer loop
    vertex 0.23981103971171824 0.0 -0.6752915593884543
    vertex -3.8061932749976 0.0 -0.9973487568597093
    vertex -3.6948221973408675 0.0 -0.6535411725460326
  endloop
endfacet
facet normal -0.0 1.0 -0.0
  outer loop
    vertex 0.23981103971171824 0.0 -0.6752915593884543
    vertex -3.6948221973408675 0.0 -0.6535411725460326
    vertex 0.1643574300524797 0.0 -0.32185991853068285
  endloop
endfacet
facet normal -0.0 1.0 -0.0
  outer loop
    vertex 0.1643574300524797 0.0 -0.32185991853068285
    vertex -3.6948221973408675 0.0 -0.6535411725460326
    vertex -3.4982620464594727 0.0 -0.35027350355455383
  endloop
endfacet
facet normal -0.0 1.0 -0.0
  outer loop
    vertex 0.1643574300524797 0.0 -0.32185991853068285
    vertex -3.4982620464594727 0.0 -0.35027350355455383
    vertex -3.229908071805112 0.0 -0.1082129403535167
  endloop
endfacet
facet normal -0.0 1.0 -0.0
  outer loop
    vertex 0.1643574300524797 0.0 -0.32185991853068285
    vertex -3.229908071805112 0.0 -0.1082129403535167
    vertex 0.0 0.0 0.0
  endloop
endfacet
facet normal -0.0 1.0 -0.0
  outer loop
    vertex 0.0 0.0 0.0
    vertex -3.229908071805112 0.0 -0.1082129403535167
    vertex -2.908048153274428 0.0 0.056144489698937636
  endloop
endfacet
facet normal -0.0 1.0 -0.0
  outer loop
    vertex 0.0 0.0 0.0
    vertex -2.908048153274428 0.0 0.056144489698937636
    vertex -0.24206056320099342 0.0 0.26835397465442257
  endloop
endfacet
facet normal -0.0 1.0 -0.0
  outer loop
    vertex -0.24206056320099342 0.0 0.26835397465442257
    vertex -2.908048153274428 0.0 0.056144489698937636
    vertex -1.603485038297737 0.0 0.5194238430724467
  endloop
endfacet
facet normal -0.0 1.0 -0.0
  outer loop
    vertex -0.24206056320099342 0.0 0.26835397465442257
    vertex -1.603485038297737 0.0 0.5194238430724467
    vertex -0.545328232192492 0.0 0.4649141255357751
  endloop
endfacet
facet normal -0.0 1.0 -0.0
  outer loop
    vertex -0.545328232192492 0.0 0.4649141255357751
    vertex -1.603485038297737 0.0 0.5194238430724467
    vertex -0.8891358165061813 0.0 0.5762852031925023
  endloop
endfacet
facet normal -0.0 1.0 -0.0
  outer loop
    vertex -0.8891358165061813 0.0 0.5762852031925023
    vertex -1.603485038297737 0.0 0.5194238430724467
    vertex -1.250053397439943 0.0 0.5948774527317021
  endloop
endfacet
facet normal 0.42651701223322386 0.34705753889093194 -0.835245055642123
  outer loop
    vertex -0.6061362814379855 0.0 -3.286769431925172
    vertex -0.30345730745559024 -5.000000000000002 -5.209785859207174
    vertex -0.9279961999686698 0.0 -3.4511268619776025
  endloop
endfacet
facet normal 0.42651701223322386 0.34705753889093194 -0.835245055642123
  outer loop
    vertex -0.30345730745559024 -5.000000000000002 -5.209785859207174
    vertex -0.6061362814379855 0.0 -3.286769431925172
    vertex 1.1449123259325003 -5.000000000000002 -4.470177423971244
  endloop
endfacet
facet normal -0.04759488921318543 0.37960308378264046 -0.9239243612458189
  outer loop
    vertex -1.6423454217602707 0.0 -3.5079882220976564
    vertex -1.9861530060739148 -5.000000000000002 -5.544574780427957
    vertex -3.5180288055176137 -5.000000000000002 -5.465661979747422
  endloop
endfacet
facet normal -0.04759488921318543 0.37960308378264046 -0.9239243612458189
  outer loop
    vertex -1.9861530060739148 -5.000000000000002 -5.544574780427957
    vertex -1.6423454217602707 0.0 -3.5079882220976564
    vertex -1.8938996913155277 -5.000000000000002 -5.549327102673854
  endloop
endfacet
facet normal -0.04759488921318543 0.37960308378264046 -0.9239243612458189
  outer loop
    vertex -1.8938996913155277 -5.000000000000002 -5.549327102673854
    vertex -1.6423454217602707 0.0 -3.5079882220976564
    vertex -1.2814278408265087 0.0 -3.5265804716368647
  endloop
endfacet
facet normal 0.19580646973984453 0.34705753889093627 -0.917175496351154
  outer loop
    vertex -1.2814278408265087 0.0 -3.5265804716368647
    vertex -0.30345730745559024 -5.000000000000002 -5.209785859207174
    vertex -1.8938996913155277 -5.000000000000002 -5.549327102673854
  endloop
endfacet
facet normal 0.19580646973984453 0.34705753889093627 -0.917175496351154
  outer loop
    vertex -0.30345730745559024 -5.000000000000002 -5.209785859207174
    vertex -1.2814278408265087 0.0 -3.5265804716368647
    vertex -0.9279961999686698 0.0 -3.4511268619776025
  endloop
endfacet
facet normal -1.3889637952879298e-31 -1.0 -6.301614047500336e-32
  outer loop
    vertex -0.30345730745559024 -10.559952000000001 -5.209785859207174
    vertex -1.9861530060739148 -10.559952000000001 -5.544574780427957
    vertex -1.8938996913155277 -10.559952000000001 -5.549327102673854
  endloop
endfacet
facet normal -1.3889637952879298e-31 -1.0 -6.301614047500336e-32
  outer loop
    vertex -1.9861530060739148 -10.559952000000001 -5.544574780427957
    vertex -0.30345730745559024 -10.559952000000001 -5.209785859207174
    vertex -3.5180288055176137 -10.559952000000001 -5.465661979747422
  endloop
endfacet
facet normal -1.3889637952879298e-31 -1.0 -6.301614047500336e-32
  outer loop
    vertex -3.5180288055176137 -10.559952000000001 -5.465661979747422
    vertex -0.30345730745559024 -10.559952000000001 -5.209785859207174
    vertex -5.065162934929137 -10.559952000000001 -4.964492130292124
  endloop
endfacet
facet normal -1.3889637952879298e-31 -1.0 -6.301614047500336e-32
  outer loop
    vertex -5.065162934929137 -10.559952000000001 -4.964492130292124
    vertex -0.30345730745559024 -10.559952000000001 -5.209785859207174
    vertex 1.1449123259325003 -10.559952000000001 -4.470177423971244
  endloop
endfacet
facet normal -1.3889637952879298e-31 -1.0 -6.301614047500336e-32
  outer loop
    vertex -5.065162934929137 -10.559952000000001 -4.964492130292124
    vertex 1.1449123259325003 -10.559952000000001 -4.470177423971244
    vertex -6.42986744539079 -10.559952000000001 -4.079971451326035
  endloop
endfacet
facet normal -1.3889637952879298e-31 -1.0 -6.301614047500336e-32
  outer loop
    vertex -6.42986744539079 -10.559952000000001 -4.079971451326035
    vertex 1.1449123259325003 -10.559952000000001 -4.470177423971244
    vertex 2.352505211877433 -10.559952000000001 -3.3809048895665352
  endloop
endfacet
facet normal -1.3889637952879298e-31 -1.0 -6.301614047500336e-32
  outer loop
    vertex -6.42986744539079 -10.559952000000001 -4.079971451326035
    vertex 2.352505211877433 -10.559952000000001 -3.3809048895665352
    vertex -11.170587054904674 -10.559952000000001 -0.03831840357165109
  endloop
endfacet
facet normal -1.3889637952879298e-31 -1.0 -6.301614047500336e-32
  outer loop
    vertex -11.170587054904674 -10.559952000000001 -0.03831840357165109
    vertex 2.352505211877433 -10.559952000000001 -3.3809048895665352
    vertex 3.2370258908434955 -10.559952000000001 -2.0162003791049043
  endloop
endfacet
facet normal -1.3889637952879298e-31 -1.0 -6.301614047500336e-32
  outer loop
    vertex -11.170587054904674 -10.559952000000001 -0.03831840357165109
    vertex 3.2370258908434955 -10.559952000000001 -2.0162003791049043
    vertex 3.7381957402987878 -10.559952000000001 -0.4690662496933196
  endloop
endfacet
facet normal -1.3889637952879298e-31 -1.0 -6.301614047500336e-32
  outer loop
    vertex -11.170587054904674 -10.559952000000001 -0.03831840357165109
    vertex 3.7381957402987878 -10.559952000000001 -0.4690662496933196
    vertex 4.868010148179944 -10.559952000000001 5.657343888241959
  endloop
endfacet
facet normal -1.3889637952879298e-31 -1.0 -6.301614047500336e-32
  outer loop
    vertex -11.170587054904674 -10.559952000000001 -0.03831840357165109
    vertex 4.868010148179944 -10.559952000000001 5.657343888241959
    vertex -12.25985958930936 -10.559952000000001 1.1692744823731982
  endloop
endfacet
facet normal -1.3889637952879298e-31 -1.0 -6.301614047500336e-32
  outer loop
    vertex -12.25985958930936 -10.559952000000001 1.1692744823731982
    vertex 4.868010148179944 -10.559952000000001 5.657343888241959
    vertex -12.999468024545337 -10.559952000000001 2.617644115761379
  endloop
endfacet
facet normal -1.3889637952879298e-31 -1.0 -6.301614047500336e-32
  outer loop
    vertex -12.999468024545337 -10.559952000000001 2.617644115761379
    vertex 4.868010148179944 -10.559952000000001 5.657343888241959
    vertex -13.33900926801199 -10.559952000000001 4.208086499621322
  endloop
endfacet
facet normal -1.3889637952879298e-31 -1.0 -6.301614047500336e-32
  outer loop
    vertex -13.33900926801199 -10.559952000000001 4.208086499621322
    vertex 4.868010148179944 -10.559952000000001 5.657343888241959
    vertex -13.255344145085564 -10.559952000000001 5.832215613823343
  endloop
endfacet
facet normal -1.3889637952879298e-31 -1.0 -6.301614047500336e-32
  outer loop
    vertex -13.255344145085564 -10.559952000000001 5.832215613823343
    vertex 4.868010148179944 -10.559952000000001 5.657343888241959
    vertex 4.951675271106461 -10.559952000000001 7.281473002443983
  endloop
endfacet
facet normal -1.3889637952879298e-31 -1.0 -6.301614047500336e-32
  outer loop
    vertex -13.255344145085564 -10.559952000000001 5.832215613823343
    vertex 4.951675271106461 -10.559952000000001 7.281473002443983
    vertex -12.754174295630287 -10.559952000000001 7.379349743234878
  endloop
endfacet
facet normal -1.3889637952879298e-31 -1.0 -6.301614047500336e-32
  outer loop
    vertex -12.754174295630287 -10.559952000000001 7.379349743234878
    vertex 4.951675271106461 -10.559952000000001 7.281473002443983
    vertex 4.612134027639774 -10.559952000000001 8.871915386303959
  endloop
endfacet
facet normal -1.3889637952879298e-31 -1.0 -6.301614047500336e-32
  outer loop
    vertex -12.754174295630287 -10.559952000000001 7.379349743234878
    vertex 4.612134027639774 -10.559952000000001 8.871915386303959
    vertex -11.869653616664136 -10.559952000000001 8.744054253696548
  endloop
endfacet
facet normal -1.3889637952879298e-31 -1.0 -6.301614047500336e-32
  outer loop
    vertex -11.869653616664136 -10.559952000000001 8.744054253696548
    vertex 4.612134027639774 -10.559952000000001 8.871915386303959
    vertex -10.662060730719276 -10.559952000000001 9.833326788101203
  endloop
endfacet
facet normal -1.3889637952879298e-31 -1.0 -6.301614047500336e-32
  outer loop
    vertex -10.662060730719276 -10.559952000000001 9.833326788101203
    vertex 4.612134027639774 -10.559952000000001 8.871915386303959
    vertex 3.872525592403773 -10.559952000000001 10.320285019692022
  endloop
endfacet
facet normal -1.3889637952879298e-31 -1.0 -6.301614047500336e-32
  outer loop
    vertex -10.662060730719276 -10.559952000000001 9.833326788101203
    vertex 3.872525592403773 -10.559952000000001 10.320285019692022
    vertex -9.213691097331095 -10.559952000000001 10.572935223337256
  endloop
endfacet
facet normal -1.3889637952879298e-31 -1.0 -6.301614047500336e-32
  outer loop
    vertex -9.213691097331095 -10.559952000000001 10.572935223337256
    vertex 3.872525592403773 -10.559952000000001 10.320285019692022
    vertex 2.7832530579991395 -10.559952000000001 11.527877905636938
  endloop
endfacet
facet normal -1.3889637952879298e-31 -1.0 -6.301614047500336e-32
  outer loop
    vertex -9.213691097331095 -10.559952000000001 10.572935223337256
    vertex 2.7832530579991395 -10.559952000000001 11.527877905636938
    vertex -3.3431570799361334 -10.559952000000001 12.657692313518044
  endloop
endfacet
facet normal -1.3889637952879298e-31 -1.0 -6.301614047500336e-32
  outer loop
    vertex -3.3431570799361334 -10.559952000000001 12.657692313518044
    vertex 2.7832530579991395 -10.559952000000001 11.527877905636938
    vertex 1.4185485475374353 -10.559952000000001 12.412398584603018
  endloop
endfacet
facet normal -1.3889637952879298e-31 -1.0 -6.301614047500336e-32
  outer loop
    vertex -3.3431570799361334 -10.559952000000001 12.657692313518044
    vertex 1.4185485475374353 -10.559952000000001 12.412398584603018
    vertex -0.12858558187408767 -10.559952000000001 12.913568434058288
  endloop
endfacet
facet normal -1.3889637952879298e-31 -1.0 -6.301614047500336e-32
  outer loop
    vertex -3.3431570799361334 -10.559952000000001 12.657692313518044
    vertex -0.12858558187408767 -10.559952000000001 12.913568434058288
    vertex -1.7527146960761621 -10.559952000000001 12.997233556984725
  endloop
endfacet
facet normal -0.4547846825847032 7.045681573694605e-33 0.890601421785487
  outer loop
    vertex -9.213691097331095 -10.559952000000001 10.572935223337256
    vertex -10.662060730719276 -5.000000000000002 9.833326788101203
    vertex -10.662060730719276 -10.559952000000001 9.833326788101203
  endloop
endfacet
facet normal -0.4547846825847032 7.045681573694605e-33 0.890601421785487
  outer loop
    vertex -10.662060730719276 -5.000000000000002 9.833326788101203
    vertex -9.213691097331095 -10.559952000000001 10.572935223337256
    vertex -9.213691097331095 -5.000000000000002 10.572935223337256
  endloop
endfacet
facet normal -0.6697928798626867 4.6239298421640844e-32 0.7425479769585591
  outer loop
    vertex -10.662060730719276 -10.559952000000001 9.833326788101203
    vertex -11.869653616664136 -5.000000000000002 8.744054253696548
    vertex -11.869653616664136 -10.559952000000001 8.744054253696548
  endloop
endfacet
facet normal -0.6697928798626867 4.6239298421640844e-32 0.7425479769585591
  outer loop
    vertex -11.869653616664136 -5.000000000000002 8.744054253696548
    vertex -10.662060730719276 -10.559952000000001 9.833326788101203
    vertex -10.662060730719276 -5.000000000000002 9.833326788101203
  endloop
endfacet
facet normal -0.8391557992631041 8.228178349620581e-32 0.5438911146204735
  outer loop
    vertex -11.869653616664136 -5.000000000000002 8.744054253696548
    vertex -12.754174295630287 -10.559952000000001 7.379349743234878
    vertex -11.869653616664136 -10.559952000000001 8.744054253696548
  endloop
endfacet
facet normal -0.8391557992631041 8.228178349620581e-32 0.5438911146204735
  outer loop
    vertex -12.754174295630287 -10.559952000000001 7.379349743234878
    vertex -11.869653616664136 -5.000000000000002 8.744054253696548
    vertex -12.754174295630287 -5.000000000000002 7.379349743234878
  endloop
endfacet
facet normal -0.951331637714307 1.127169010025902e-31 0.3081689716435037
  outer loop
    vertex -12.754174295630287 -5.000000000000002 7.379349743234878
    vertex -13.255344145085564 -10.559952000000001 5.832215613823343
    vertex -12.754174295630287 -10.559952000000001 7.379349743234878
  endloop
endfacet
facet normal -0.951331637714307 1.127169010025902e-31 0.3081689716435037
  outer loop
    vertex -13.255344145085564 -10.559952000000001 5.832215613823343
    vertex -12.754174295630287 -5.000000000000002 7.379349743234878
    vertex -13.255344145085564 -5.000000000000002 5.832215613823343
  endloop
endfacet
facet normal -0.9986757972051226 1.354705479791295e-31 0.05144562252236053
  outer loop
    vertex -13.255344145085564 -5.000000000000002 5.832215613823343
    vertex -13.33900926801199 -10.559952000000001 4.208086499621322
    vertex -13.255344145085564 -10.559952000000001 5.832215613823343
  endloop
endfacet
facet normal -0.9986757972051226 1.354705479791295e-31 0.05144562252236053
  outer loop
    vertex -13.33900926801199 -10.559952000000001 4.208086499621322
    vertex -13.255344145085564 -5.000000000000002 5.832215613823343
    vertex -13.33900926801199 -5.000000000000002 4.208086499621322
  endloop
endfacet
facet normal -0.9779618515061987 1.489921009865552e-31 -0.20878366075573976
  outer loop
    vertex -13.33900926801199 -5.000000000000002 4.208086499621322
    vertex -12.999468024545337 -10.559952000000001 2.617644115761379
    vertex -13.33900926801199 -10.559952000000001 4.208086499621322
  endloop
endfacet
facet normal -0.9779618515061987 1.489921009865552e-31 -0.20878366075573976
  outer loop
    vertex -12.999468024545337 -10.559952000000001 2.617644115761379
    vertex -13.33900926801199 -5.000000000000002 4.208086499621322
    vertex -12.999468024545337 -5.000000000000002 2.617644115761379
  endloop
endfacet
facet normal -0.8906014217855052 1.5236008853283737e-31 -0.45478468258466737
  outer loop
    vertex -12.999468024545337 -5.000000000000002 2.617644115761379
    vertex -12.25985958930936 -10.559952000000001 1.1692744823731982
    vertex -12.999468024545337 -10.559952000000001 2.617644115761379
  endloop
endfacet
facet normal -0.8906014217855052 1.5236008853283737e-31 -0.45478468258466737
  outer loop
    vertex -12.25985958930936 -10.559952000000001 1.1692744823731982
    vertex -12.999468024545337 -5.000000000000002 2.617644115761379
    vertex -12.25985958930936 -5.000000000000002 1.1692744823731982
  endloop
endfacet
facet normal -0.7425479769585477 1.4534498783255675e-31 -0.6697928798626992
  outer loop
    vertex -12.25985958930936 -5.000000000000002 1.1692744823731982
    vertex -11.170587054904674 -10.559952000000001 -0.03831840357165109
    vertex -12.25985958930936 -10.559952000000001 1.1692744823731982
  endloop
endfacet
facet normal -0.7425479769585477 1.4534498783255675e-31 -0.6697928798626992
  outer loop
    vertex -11.170587054904674 -10.559952000000001 -0.03831840357165109
    vertex -12.25985958930936 -5.000000000000002 1.1692744823731982
    vertex -11.170587054904674 -5.000000000000002 -0.03831840357165109
  endloop
endfacet
facet normal -0.6487698618945013 1.3806610175912461e-31 -0.7609846688977315
  outer loop
    vertex -6.42986744539079 -5.000000000000002 -4.079971451326035
    vertex -11.170587054904674 -10.559952000000001 -0.03831840357165109
    vertex -11.170587054904674 -5.000000000000002 -0.03831840357165109
  endloop
endfacet
facet normal -0.6487698618945013 1.3806610175912461e-31 -0.7609846688977315
  outer loop
    vertex -11.170587054904674 -10.559952000000001 -0.03831840357165109
    vertex -6.42986744539079 -5.000000000000002 -4.079971451326035
    vertex -6.42986744539079 -10.559952000000001 -4.079971451326035
  endloop
endfacet
facet normal -0.5438911146204507 1.2842486640543877e-31 -0.8391557992631188
  outer loop
    vertex -5.065162934929137 -5.000000000000002 -4.964492130292124
    vertex -6.42986744539079 -10.559952000000001 -4.079971451326035
    vertex -6.42986744539079 -5.000000000000002 -4.079971451326035
  endloop
endfacet
facet normal -0.5438911146204507 1.2842486640543877e-31 -0.8391557992631188
  outer loop
    vertex -6.42986744539079 -10.559952000000001 -4.079971451326035
    vertex -5.065162934929137 -5.000000000000002 -4.964492130292124
    vertex -5.065162934929137 -10.559952000000001 -4.964492130292124
  endloop
endfacet
facet normal -0.30816897164351825 1.0275280256491544e-31 -0.9513316377143023
  outer loop
    vertex -3.5180288055176137 -5.000000000000002 -5.465661979747422
    vertex -5.065162934929137 -10.559952000000001 -4.964492130292124
    vertex -5.065162934929137 -5.000000000000002 -4.964492130292124
  endloop
endfacet
facet normal -0.30816897164351825 1.0275280256491544e-31 -0.9513316377143023
  outer loop
    vertex -5.065162934929137 -10.559952000000001 -4.964492130292124
    vertex -3.5180288055176137 -5.000000000000002 -5.465661979747422
    vertex -3.5180288055176137 -10.559952000000001 -5.465661979747422
  endloop
endfacet
facet normal -0.05144562252236227 7.007830503662501e-32 -0.9986757972051223
  outer loop
    vertex -1.9861530060739148 -5.000000000000002 -5.544574780427957
    vertex -3.5180288055176137 -10.559952000000001 -5.465661979747422
    vertex -3.5180288055176137 -5.000000000000002 -5.465661979747422
  endloop
endfacet
facet normal -0.05144562252236227 7.007830503662501e-32 -0.9986757972051223
  outer loop
    vertex -3.5180288055176137 -10.559952000000001 -5.465661979747422
    vertex -1.9861530060739148 -5.000000000000002 -5.544574780427957
    vertex -1.9861530060739148 -10.559952000000001 -5.544574780427957
  endloop
endfacet
facet normal -0.05144562252236403 7.007830503662524e-32 -0.9986757972051222
  outer loop
    vertex -1.8938996913155277 -5.000000000000002 -5.549327102673854
    vertex -1.9861530060739148 -10.559952000000001 -5.544574780427957
    vertex -1.9861530060739148 -5.000000000000002 -5.544574780427957
  endloop
endfacet
facet normal -0.05144562252236403 7.007830503662524e-32 -0.9986757972051222
  outer loop
    vertex -1.9861530060739148 -10.559952000000001 -5.544574780427957
    vertex -1.8938996913155277 -5.000000000000002 -5.549327102673854
    vertex -1.8938996913155277 -10.559952000000001 -5.549327102673854
  endloop
endfacet
facet normal 0.2087836607557566 3.2628086829966436e-32 -0.9779618515061951
  outer loop
    vertex -0.30345730745559024 -5.000000000000002 -5.209785859207174
    vertex -1.8938996913155277 -10.559952000000001 -5.549327102673854
    vertex -1.8938996913155277 -5.000000000000002 -5.549327102673854
  endloop
endfacet
facet normal 0.2087836607557566 3.2628086829966436e-32 -0.9779618515061951
  outer loop
    vertex -1.8938996913155277 -10.559952000000001 -5.549327102673854
    vertex -0.30345730745559024 -5.000000000000002 -5.209785859207174
    vertex -0.30345730745559024 -10.559952000000001 -5.209785859207174
  endloop
endfacet
facet normal 0.45478468258466653 -7.045681573688342e-33 -0.8906014217855056
  outer loop
    vertex 1.1449123259325003 -5.000000000000002 -4.470177423971244
    vertex -0.30345730745559024 -10.559952000000001 -5.209785859207174
    vertex -0.30345730745559024 -5.000000000000002 -5.209785859207174
  endloop
endfacet
facet normal 0.45478468258466653 -7.045681573688342e-33 -0.8906014217855056
  outer loop
    vertex -0.30345730745559024 -10.559952000000001 -5.209785859207174
    vertex 1.1449123259325003 -5.000000000000002 -4.470177423971244
    vertex 1.1449123259325003 -10.559952000000001 -4.470177423971244
  endloop
endfacet
facet normal 0.6697928798626819 -4.623929842163992e-32 -0.7425479769585633
  outer loop
    vertex 2.352505211877433 -5.000000000000002 -3.3809048895665352
    vertex 1.1449123259325003 -10.559952000000001 -4.470177423971244
    vertex 1.1449123259325003 -5.000000000000002 -4.470177423971244
  endloop
endfacet
facet normal 0.6697928798626819 -4.623929842163992e-32 -0.7425479769585633
  outer loop
    vertex 1.1449123259325003 -10.559952000000001 -4.470177423971244
    vertex 2.352505211877433 -5.000000000000002 -3.3809048895665352
    vertex 2.352505211877433 -10.559952000000001 -3.3809048895665352
  endloop
endfacet
facet normal 0.8391557992631222 -8.228178349621011e-32 -0.5438911146204455
  outer loop
    vertex 2.352505211877433 -5.000000000000002 -3.3809048895665352
    vertex 3.2370258908434955 -10.559952000000001 -2.0162003791049043
    vertex 2.352505211877433 -10.559952000000001 -3.3809048895665352
  endloop
endfacet
facet normal 0.8391557992631222 -8.228178349621011e-32 -0.5438911146204455
  outer loop
    vertex 3.2370258908434955 -10.559952000000001 -2.0162003791049043
    vertex 2.352505211877433 -5.000000000000002 -3.3809048895665352
    vertex 3.2370258908434955 -5.000000000000002 -2.0162003791049043
  endloop
endfacet
facet normal 0.951331637714307 -1.1271690100259016e-31 -0.30816897164350393
  outer loop
    vertex 3.2370258908434955 -5.000000000000002 -2.0162003791049043
    vertex 3.7381957402987878 -10.559952000000001 -0.4690662496933196
    vertex 3.2370258908434955 -10.559952000000001 -2.0162003791049043
  endloop
endfacet
facet normal 0.951331637714307 -1.1271690100259016e-31 -0.30816897164350393
  outer loop
    vertex 3.7381957402987878 -10.559952000000001 -0.4690662496933196
    vertex 3.2370258908434955 -5.000000000000002 -2.0162003791049043
    vertex 3.7381957402987878 -5.000000000000002 -0.4690662496933196
  endloop
endfacet
facet normal 0.9834169861031758 -1.2516452434773509e-31 -0.18135884716149392
  outer loop
    vertex 3.7381957402987878 -5.000000000000002 -0.4690662496933196
    vertex 4.868010148179944 -10.559952000000001 5.657343888241959
    vertex 3.7381957402987878 -10.559952000000001 -0.4690662496933196
  endloop
endfacet
facet normal 0.9834169861031758 -1.2516452434773509e-31 -0.18135884716149392
  outer loop
    vertex 4.868010148179944 -10.559952000000001 5.657343888241959
    vertex 3.7381957402987878 -5.000000000000002 -0.4690662496933196
    vertex 4.868010148179944 -5.000000000000002 5.657343888241959
  endloop
endfacet
facet normal 0.9986757972051196 -1.3547054797912563e-31 -0.051445622522415774
  outer loop
    vertex 4.868010148179944 -5.000000000000002 5.657343888241959
    vertex 4.951675271106461 -10.559952000000001 7.281473002443983
    vertex 4.868010148179944 -10.559952000000001 5.657343888241959
  endloop
endfacet
facet normal 0.9986757972051196 -1.3547054797912563e-31 -0.051445622522415774
  outer loop
    vertex 4.951675271106461 -10.559952000000001 7.281473002443983
    vertex 4.868010148179944 -5.000000000000002 5.657343888241959
    vertex 4.951675271106461 -5.000000000000002 7.281473002443983
  endloop
endfacet
facet normal 0.9779618515061953 -1.489921009865557e-31 0.20878366075575538
  outer loop
    vertex 4.951675271106461 -5.000000000000002 7.281473002443983
    vertex 4.612134027639774 -10.559952000000001 8.871915386303959
    vertex 4.951675271106461 -10.559952000000001 7.281473002443983
  endloop
endfacet
facet normal 0.9779618515061953 -1.489921009865557e-31 0.20878366075575538
  outer loop
    vertex 4.612134027639774 -10.559952000000001 8.871915386303959
    vertex 4.951675271106461 -5.000000000000002 7.281473002443983
    vertex 4.612134027639774 -5.000000000000002 8.871915386303959
  endloop
endfacet
facet normal 0.8906014217854845 -1.5236008853283706e-31 0.45478468258470794
  outer loop
    vertex 4.612134027639774 -5.000000000000002 8.871915386303959
    vertex 3.872525592403773 -10.559952000000001 10.320285019692022
    vertex 4.612134027639774 -10.559952000000001 8.871915386303959
  endloop
endfacet
facet normal 0.8906014217854845 -1.5236008853283706e-31 0.45478468258470794
  outer loop
    vertex 3.872525592403773 -10.559952000000001 10.320285019692022
    vertex 4.612134027639774 -5.000000000000002 8.871915386303959
    vertex 3.872525592403773 -5.000000000000002 10.320285019692022
  endloop
endfacet
facet normal 0.7425479769585815 -1.4534498783255912e-31 0.6697928798626618
  outer loop
    vertex 3.872525592403773 -5.000000000000002 10.320285019692022
    vertex 2.7832530579991395 -10.559952000000001 11.527877905636938
    vertex 3.872525592403773 -10.559952000000001 10.320285019692022
  endloop
endfacet
facet normal 0.7425479769585815 -1.4534498783255912e-31 0.6697928798626618
  outer loop
    vertex 2.7832530579991395 -10.559952000000001 11.527877905636938
    vertex 3.872525592403773 -5.000000000000002 10.320285019692022
    vertex 2.7832530579991395 -5.000000000000002 11.527877905636938
  endloop
endfacet
facet normal 0.5438911146204323 -1.2842486640543698e-31 0.8391557992631309
  outer loop
    vertex 2.7832530579991395 -10.559952000000001 11.527877905636938
    vertex 1.4185485475374353 -5.000000000000002 12.412398584603018
    vertex 1.4185485475374353 -10.559952000000001 12.412398584603018
  endloop
endfacet
facet normal 0.5438911146204323 -1.2842486640543698e-31 0.8391557992631309
  outer loop
    vertex 1.4185485475374353 -5.000000000000002 12.412398584603018
    vertex 2.7832530579991395 -10.559952000000001 11.527877905636938
    vertex 2.7832530579991395 -5.000000000000002 11.527877905636938
  endloop
endfacet
facet normal 0.3081689716435026 -1.027528025649136e-31 0.9513316377143075
  outer loop
    vertex 1.4185485475374353 -10.559952000000001 12.412398584603018
    vertex -0.12858558187408767 -5.000000000000002 12.913568434058288
    vertex -0.12858558187408767 -10.559952000000001 12.913568434058288
  endloop
endfacet
facet normal 0.3081689716435026 -1.027528025649136e-31 0.9513316377143075
  outer loop
    vertex -0.12858558187408767 -5.000000000000002 12.913568434058288
    vertex 1.4185485475374353 -10.559952000000001 12.412398584603018
    vertex 1.4185485475374353 -5.000000000000002 12.412398584603018
  endloop
endfacet
facet normal 0.05144562252236575 -7.007830503662549e-32 0.9986757972051222
  outer loop
    vertex -0.12858558187408767 -10.559952000000001 12.913568434058288
    vertex -1.7527146960761621 -5.000000000000002 12.997233556984725
    vertex -1.7527146960761621 -10.559952000000001 12.997233556984725
  endloop
endfacet
facet normal 0.05144562252236575 -7.007830503662549e-32 0.9986757972051222
  outer loop
    vertex -1.7527146960761621 -5.000000000000002 12.997233556984725
    vertex -0.12858558187408767 -10.559952000000001 12.913568434058288
    vertex -0.12858558187408767 -5.000000000000002 12.913568434058288
  endloop
endfacet
facet normal -0.2087836607557528 -3.2628086829967027e-32 0.977961851506196
  outer loop
    vertex -1.7527146960761621 -10.559952000000001 12.997233556984725
    vertex -3.3431570799361334 -5.000000000000002 12.657692313518044
    vertex -3.3431570799361334 -10.559952000000001 12.657692313518044
  endloop
endfacet
facet normal -0.2087836607557528 -3.2628086829967027e-32 0.977961851506196
  outer loop
    vertex -3.3431570799361334 -5.000000000000002 12.657692313518044
    vertex -1.7527146960761621 -10.559952000000001 12.997233556984725
    vertex -1.7527146960761621 -5.000000000000002 12.997233556984725
  endloop
endfacet
facet normal -0.3346471242086659 -1.2901577411390965e-32 0.9423435160592286
  outer loop
    vertex -3.3431570799361334 -10.559952000000001 12.657692313518044
    vertex -9.213691097331095 -5.000000000000002 10.572935223337256
    vertex -9.213691097331095 -10.559952000000001 10.572935223337256
  endloop
endfacet
facet normal -0.3346471242086659 -1.2901577411390965e-32 0.9423435160592286
  outer loop
    vertex -9.213691097331095 -5.000000000000002 10.572935223337256
    vertex -3.3431570799361334 -10.559952000000001 12.657692313518044
    vertex -3.3431570799361334 -5.000000000000002 12.657692313518044
  endloop
endfacet
endsolid ухо1
