solid Шприц-крепление
facet normal 0.0 0.0 -1.0
  outer loop
    vertex -25.0 20.0 0.0
    vertex -2.4587809284739457 9.176295349746148 0.0
    vertex -25.0 0.0 0.0
  endloop
endfacet
facet normal 0.0 0.0 -1.0
  outer loop
    vertex -2.4587809284739457 9.176295349746148 0.0
    vertex -25.0 20.0 0.0
    vertex 25.0 20.0 0.0
  endloop
endfacet
facet normal 0.0 0.0 -1.0
  outer loop
    vertex -25.0 0.0 0.0
    vertex -2.4587809284739457 9.176295349746148 0.0
    vertex -4.749999999999997 8.227241335952169 0.0
  endloop
endfacet
facet normal 0.0 0.0 -1.0
  outer loop
    vertex -25.0 0.0 0.0
    vertex -4.749999999999997 8.227241335952169 0.0
    vertex -6.7175144212722 6.7175144212722016 0.0
  endloop
endfacet
facet normal 0.0 0.0 -1.0
  outer loop
    vertex -25.0 0.0 0.0
    vertex -6.7175144212722 6.7175144212722016 0.0
    vertex -8.227241335952165 4.750000000000003 0.0
  endloop
endfacet
facet normal 0.0 0.0 -1.0
  outer loop
    vertex -25.0 0.0 0.0
    vertex -8.227241335952165 4.750000000000003 0.0
    vertex -9.176295349746148 2.4587809284739492 0.0
  endloop
endfacet
facet normal 0.0 0.0 -1.0
  outer loop
    vertex -25.0 0.0 0.0
    vertex -9.176295349746148 2.4587809284739492 0.0
    vertex -9.5 1.1634144591899855e-15 0.0
  endloop
endfacet
facet normal 0.0 0.0 -1.0
  outer loop
    vertex -2.4587809284739457 9.176295349746148 0.0
    vertex 25.0 20.0 0.0
    vertex 5.817072295949927e-16 9.5 0.0
  endloop
endfacet
facet normal 0.0 0.0 -1.0
  outer loop
    vertex 5.817072295949927e-16 9.5 0.0
    vertex 25.0 20.0 0.0
    vertex 2.458780928473949 9.176295349746148 0.0
  endloop
endfacet
facet normal 0.0 0.0 -1.0
  outer loop
    vertex 2.458780928473949 9.176295349746148 0.0
    vertex 25.0 20.0 0.0
    vertex 4.750000000000001 8.227241335952167 0.0
  endloop
endfacet
facet normal 0.0 0.0 -1.0
  outer loop
    vertex 4.750000000000001 8.227241335952167 0.0
    vertex 25.0 20.0 0.0
    vertex 6.7175144212722016 6.7175144212722 0.0
  endloop
endfacet
facet normal 0.0 0.0 -1.0
  outer loop
    vertex 6.7175144212722016 6.7175144212722 0.0
    vertex 25.0 20.0 0.0
    vertex 8.227241335952169 4.749999999999999 0.0
  endloop
endfacet
facet normal 0.0 0.0 -1.0
  outer loop
    vertex 8.227241335952169 4.749999999999999 0.0
    vertex 25.0 20.0 0.0
    vertex 9.176295349746148 2.458780928473947 0.0
  endloop
endfacet
facet normal 0.0 0.0 -1.0
  outer loop
    vertex 9.176295349746148 2.458780928473947 0.0
    vertex 25.0 20.0 0.0
    vertex 9.5 0.0 0.0
  endloop
endfacet
facet normal 0.0 0.0 -1.0
  outer loop
    vertex 9.5 0.0 0.0
    vertex 25.0 20.0 0.0
    vertex 25.0 0.0 0.0
  endloop
endfacet
facet normal 0.0 0.0 1.0
  outer loop
    vertex -9.5 1.1634144591899855e-15 10.0
    vertex -25.0 20.0 10.0
    vertex -25.0 0.0 10.0
  endloop
endfacet
facet normal 0.0 0.0 1.0
  outer loop
    vertex -25.0 20.0 10.0
    vertex -9.5 1.1634144591899855e-15 10.0
    vertex -9.176295349746148 2.4587809284739492 10.0
  endloop
endfacet
facet normal 0.0 0.0 1.0
  outer loop
    vertex -25.0 20.0 10.0
    vertex -9.176295349746148 2.4587809284739492 10.0
    vertex -8.227241335952165 4.750000000000003 10.0
  endloop
endfacet
facet normal 0.0 0.0 1.0
  outer loop
    vertex -25.0 20.0 10.0
    vertex -8.227241335952165 4.750000000000003 10.0
    vertex -6.7175144212722 6.7175144212722016 10.0
  endloop
endfacet
facet normal 0.0 0.0 1.0
  outer loop
    vertex -25.0 20.0 10.0
    vertex -6.7175144212722 6.7175144212722016 10.0
    vertex -4.749999999999997 8.227241335952169 10.0
  endloop
endfacet
facet normal 0.0 0.0 1.0
  outer loop
    vertex -25.0 20.0 10.0
    vertex -4.749999999999997 8.227241335952169 10.0
    vertex -2.4587809284739457 9.176295349746148 10.0
  endloop
endfacet
facet normal 0.0 0.0 1.0
  outer loop
    vertex -25.0 20.0 10.0
    vertex -2.4587809284739457 9.176295349746148 10.0
    vertex 25.0 20.0 10.0
  endloop
endfacet
facet normal 0.0 0.0 1.0
  outer loop
    vertex 25.0 20.0 10.0
    vertex -2.4587809284739457 9.176295349746148 10.0
    vertex 5.817072295949927e-16 9.5 10.0
  endloop
endfacet
facet normal 0.0 0.0 1.0
  outer loop
    vertex 25.0 20.0 10.0
    vertex 5.817072295949927e-16 9.5 10.0
    vertex 2.458780928473949 9.176295349746148 10.0
  endloop
endfacet
facet normal 0.0 0.0 1.0
  outer loop
    vertex 25.0 20.0 10.0
    vertex 2.458780928473949 9.176295349746148 10.0
    vertex 4.750000000000001 8.227241335952167 10.0
  endloop
endfacet
facet normal 0.0 0.0 1.0
  outer loop
    vertex 25.0 20.0 10.0
    vertex 4.750000000000001 8.227241335952167 10.0
    vertex 6.7175144212722016 6.7175144212722 10.0
  endloop
endfacet
facet normal 0.0 0.0 1.0
  outer loop
    vertex 25.0 20.0 10.0
    vertex 6.7175144212722016 6.7175144212722 10.0
    vertex 8.227241335952169 4.749999999999999 10.0
  endloop
endfacet
facet normal 0.0 0.0 1.0
  outer loop
    vertex 25.0 20.0 10.0
    vertex 8.227241335952169 4.749999999999999 10.0
    vertex 9.176295349746148 2.458780928473947 10.0
  endloop
endfacet
facet normal 0.0 0.0 1.0
  outer loop
    vertex 25.0 20.0 10.0
    vertex 9.176295349746148 2.458780928473947 10.0
    vertex 9.5 0.0 10.0
  endloop
endfacet
facet normal 0.0 0.0 1.0
  outer loop
    vertex 25.0 20.0 10.0
    vertex 9.5 0.0 10.0
    vertex 25.0 0.0 10.0
  endloop
endfacet
facet normal 0.0 -1.0 0.0
  outer loop
    vertex 25.0 0.0 0.0
    vertex 20.788228567653782 -9.86988268891764e-15 3.5511112605663975
    vertex 9.5 0.0 0.0
  endloop
endfacet
facet normal 0.0 -1.0 0.0
  outer loop
    vertex 20.788228567653782 -9.86988268891764e-15 3.5511112605663975
    vertex 25.0 0.0 0.0
    vertex 21.15 -9.86988268891764e-15 3.700961894323342
  endloop
endfacet
facet normal 0.0 -1.0 0.0
  outer loop
    vertex 21.15 -9.86988268891764e-15 3.700961894323342
    vertex 25.0 0.0 0.0
    vertex 21.46066017177982 -9.86988268891764e-15 3.939339828220178
  endloop
endfacet
facet normal 0.0 -1.0 0.0
  outer loop
    vertex 21.46066017177982 -9.86988268891764e-15 3.939339828220178
    vertex 25.0 0.0 0.0
    vertex 21.699038105676657 -9.86988268891764e-15 4.249999999999999
  endloop
endfacet
facet normal 0.0 -1.0 0.0
  outer loop
    vertex 21.699038105676657 -9.86988268891764e-15 4.249999999999999
    vertex 25.0 0.0 0.0
    vertex 25.0 0.0 10.0
  endloop
endfacet
facet normal 0.0 -1.0 0.0
  outer loop
    vertex 9.5 0.0 0.0
    vertex 20.788228567653782 -9.86988268891764e-15 3.5511112605663975
    vertex 20.4 -9.86988268891764e-15 3.5
  endloop
endfacet
facet normal 0.0 -1.0 0.0
  outer loop
    vertex 21.699038105676657 -9.86988268891764e-15 4.249999999999999
    vertex 25.0 0.0 10.0
    vertex 21.8488887394336 -9.86988268891764e-15 4.6117714323462184
  endloop
endfacet
facet normal 0.0 -1.0 0.0
  outer loop
    vertex 21.8488887394336 -9.86988268891764e-15 4.6117714323462184
    vertex 25.0 0.0 10.0
    vertex 21.9 -9.86988268891764e-15 5.0
  endloop
endfacet
facet normal 0.0 -1.0 0.0
  outer loop
    vertex 21.9 -9.86988268891764e-15 5.0
    vertex 25.0 0.0 10.0
    vertex 21.8488887394336 -9.86988268891764e-15 5.388228567653781
  endloop
endfacet
facet normal 0.0 -1.0 0.0
  outer loop
    vertex 21.8488887394336 -9.86988268891764e-15 5.388228567653781
    vertex 25.0 0.0 10.0
    vertex 21.699038105676657 -9.86988268891764e-15 5.749999999999999
  endloop
endfacet
facet normal 0.0 -1.0 0.0
  outer loop
    vertex 21.699038105676657 -9.86988268891764e-15 5.749999999999999
    vertex 25.0 0.0 10.0
    vertex 21.46066017177982 -9.86988268891764e-15 6.06066017177982
  endloop
endfacet
facet normal 0.0 -1.0 0.0
  outer loop
    vertex 21.46066017177982 -9.86988268891764e-15 6.06066017177982
    vertex 25.0 0.0 10.0
    vertex 21.150000000000002 -9.86988268891764e-15 6.299038105676658
  endloop
endfacet
facet normal 0.0 -1.0 0.0
  outer loop
    vertex 21.150000000000002 -9.86988268891764e-15 6.299038105676658
    vertex 25.0 0.0 10.0
    vertex 20.788228567653782 -9.86988268891764e-15 6.448888739433602
  endloop
endfacet
facet normal 0.0 -1.0 0.0
  outer loop
    vertex 20.788228567653782 -9.86988268891764e-15 6.448888739433602
    vertex 25.0 0.0 10.0
    vertex 20.4 -9.86988268891764e-15 6.499999999999999
  endloop
endfacet
facet normal 0.0 -1.0 0.0
  outer loop
    vertex 9.5 0.0 0.0
    vertex 19.65 -9.86988268891764e-15 3.700961894323342
    vertex 9.5 0.0 10.0
  endloop
endfacet
facet normal 0.0 -1.0 0.0
  outer loop
    vertex 19.65 -9.86988268891764e-15 3.700961894323342
    vertex 9.5 0.0 0.0
    vertex 20.01177143234622 -9.86988268891764e-15 3.5511112605663975
  endloop
endfacet
facet normal 0.0 -1.0 0.0
  outer loop
    vertex 20.01177143234622 -9.86988268891764e-15 3.5511112605663975
    vertex 9.5 0.0 0.0
    vertex 20.4 -9.86988268891764e-15 3.5
  endloop
endfacet
facet normal 0.0 -1.0 0.0
  outer loop
    vertex 9.5 0.0 10.0
    vertex 19.65 -9.86988268891764e-15 3.700961894323342
    vertex 19.33933982822018 -9.86988268891764e-15 3.939339828220179
  endloop
endfacet
facet normal 0.0 -1.0 0.0
  outer loop
    vertex 9.5 0.0 10.0
    vertex 19.33933982822018 -9.86988268891764e-15 3.939339828220179
    vertex 19.10096189432334 -9.86988268891764e-15 4.25
  endloop
endfacet
facet normal 0.0 -1.0 0.0
  outer loop
    vertex 9.5 0.0 10.0
    vertex 19.10096189432334 -9.86988268891764e-15 4.25
    vertex 18.951111260566396 -9.86988268891764e-15 4.6117714323462184
  endloop
endfacet
facet normal 0.0 -1.0 0.0
  outer loop
    vertex 9.5 0.0 10.0
    vertex 18.951111260566396 -9.86988268891764e-15 4.6117714323462184
    vertex 18.9 -9.86988268891764e-15 5.0
  endloop
endfacet
facet normal 0.0 -1.0 0.0
  outer loop
    vertex 9.5 0.0 10.0
    vertex 18.9 -9.86988268891764e-15 5.0
    vertex 18.951111260566396 -9.86988268891764e-15 5.388228567653782
  endloop
endfacet
facet normal 0.0 -1.0 0.0
  outer loop
    vertex 9.5 0.0 10.0
    vertex 18.951111260566396 -9.86988268891764e-15 5.388228567653782
    vertex 19.10096189432334 -9.86988268891764e-15 5.750000000000001
  endloop
endfacet
facet normal 0.0 -1.0 0.0
  outer loop
    vertex 9.5 0.0 10.0
    vertex 19.10096189432334 -9.86988268891764e-15 5.750000000000001
    vertex 19.33933982822018 -9.86988268891764e-15 6.060660171779822
  endloop
endfacet
facet normal 0.0 -1.0 0.0
  outer loop
    vertex 9.5 0.0 10.0
    vertex 19.33933982822018 -9.86988268891764e-15 6.060660171779822
    vertex 19.650000000000002 -9.86988268891764e-15 6.299038105676659
  endloop
endfacet
facet normal 0.0 -1.0 0.0
  outer loop
    vertex 9.5 0.0 10.0
    vertex 19.650000000000002 -9.86988268891764e-15 6.299038105676659
    vertex 20.01177143234622 -9.86988268891764e-15 6.448888739433603
  endloop
endfacet
facet normal 0.0 -1.0 0.0
  outer loop
    vertex 9.5 0.0 10.0
    vertex 20.01177143234622 -9.86988268891764e-15 6.448888739433603
    vertex 20.4 -9.86988268891764e-15 6.499999999999999
  endloop
endfacet
facet normal 0.0 -1.0 0.0
  outer loop
    vertex 9.5 0.0 10.0
    vertex 20.4 -9.86988268891764e-15 6.499999999999999
    vertex 25.0 0.0 10.0
  endloop
endfacet
facet normal -0.9914448613738105 -0.13052619222005177 0.0
  outer loop
    vertex 9.176295349746148 2.458780928473947 10.0
    vertex 9.5 0.0 0.0
    vertex 9.5 0.0 10.0
  endloop
endfacet
facet normal -0.9914448613738105 -0.13052619222005177 0.0
  outer loop
    vertex 9.5 0.0 0.0
    vertex 9.176295349746148 2.458780928473947 10.0
    vertex 9.176295349746148 2.458780928473947 0.0
  endloop
endfacet
facet normal -0.9238795325112871 -0.38268343236508945 0.0
  outer loop
    vertex 8.227241335952169 4.749999999999999 10.0
    vertex 9.176295349746148 2.458780928473947 0.0
    vertex 9.176295349746148 2.458780928473947 10.0
  endloop
endfacet
facet normal -0.9238795325112871 -0.38268343236508945 0.0
  outer loop
    vertex 9.176295349746148 2.458780928473947 0.0
    vertex 8.227241335952169 4.749999999999999 10.0
    vertex 8.227241335952169 4.749999999999999 0.0
  endloop
endfacet
facet normal -0.793353340291235 -0.6087614290087211 0.0
  outer loop
    vertex 6.7175144212722016 6.7175144212722 10.0
    vertex 8.227241335952169 4.749999999999999 0.0
    vertex 8.227241335952169 4.749999999999999 10.0
  endloop
endfacet
facet normal -0.793353340291235 -0.6087614290087211 0.0
  outer loop
    vertex 8.227241335952169 4.749999999999999 0.0
    vertex 6.7175144212722016 6.7175144212722 10.0
    vertex 6.7175144212722016 6.7175144212722 0.0
  endloop
endfacet
facet normal -0.6087614290087211 -0.793353340291235 0.0
  outer loop
    vertex 6.7175144212722016 6.7175144212722 10.0
    vertex 4.750000000000001 8.227241335952167 0.0
    vertex 6.7175144212722016 6.7175144212722 0.0
  endloop
endfacet
facet normal -0.6087614290087211 -0.793353340291235 0.0
  outer loop
    vertex 4.750000000000001 8.227241335952167 0.0
    vertex 6.7175144212722016 6.7175144212722 10.0
    vertex 4.750000000000001 8.227241335952167 10.0
  endloop
endfacet
facet normal -0.3826834323650899 -0.9238795325112867 0.0
  outer loop
    vertex 4.750000000000001 8.227241335952167 10.0
    vertex 2.458780928473949 9.176295349746148 0.0
    vertex 4.750000000000001 8.227241335952167 0.0
  endloop
endfacet
facet normal -0.3826834323650899 -0.9238795325112867 0.0
  outer loop
    vertex 2.458780928473949 9.176295349746148 0.0
    vertex 4.750000000000001 8.227241335952167 10.0
    vertex 2.458780928473949 9.176295349746148 10.0
  endloop
endfacet
facet normal -0.13052619222005163 -0.9914448613738105 0.0
  outer loop
    vertex 2.458780928473949 9.176295349746148 10.0
    vertex 5.817072295949927e-16 9.5 0.0
    vertex 2.458780928473949 9.176295349746148 0.0
  endloop
endfacet
facet normal -0.13052619222005163 -0.9914448613738105 0.0
  outer loop
    vertex 5.817072295949927e-16 9.5 0.0
    vertex 2.458780928473949 9.176295349746148 10.0
    vertex 5.817072295949927e-16 9.5 10.0
  endloop
endfacet
facet normal 0.1305261922200518 -0.9914448613738105 0.0
  outer loop
    vertex 5.817072295949927e-16 9.5 10.0
    vertex -2.4587809284739457 9.176295349746148 0.0
    vertex 5.817072295949927e-16 9.5 0.0
  endloop
endfacet
facet normal 0.1305261922200518 -0.9914448613738105 0.0
  outer loop
    vertex -2.4587809284739457 9.176295349746148 0.0
    vertex 5.817072295949927e-16 9.5 10.0
    vertex -2.4587809284739457 9.176295349746148 10.0
  endloop
endfacet
facet normal 0.38268343236508945 -0.9238795325112871 0.0
  outer loop
    vertex -2.4587809284739457 9.176295349746148 10.0
    vertex -4.749999999999997 8.227241335952169 0.0
    vertex -2.4587809284739457 9.176295349746148 0.0
  endloop
endfacet
facet normal 0.38268343236508945 -0.9238795325112871 0.0
  outer loop
    vertex -4.749999999999997 8.227241335952169 0.0
    vertex -2.4587809284739457 9.176295349746148 10.0
    vertex -4.749999999999997 8.227241335952169 10.0
  endloop
endfacet
facet normal 0.6087614290087208 -0.7933533402912352 0.0
  outer loop
    vertex -4.749999999999997 8.227241335952169 10.0
    vertex -6.7175144212722 6.7175144212722016 0.0
    vertex -4.749999999999997 8.227241335952169 0.0
  endloop
endfacet
facet normal 0.6087614290087208 -0.7933533402912352 0.0
  outer loop
    vertex -6.7175144212722 6.7175144212722016 0.0
    vertex -4.749999999999997 8.227241335952169 10.0
    vertex -6.7175144212722 6.7175144212722016 10.0
  endloop
endfacet
facet normal 0.793353340291235 -0.6087614290087211 -0.0
  outer loop
    vertex -6.7175144212722 6.7175144212722016 0.0
    vertex -8.227241335952165 4.750000000000003 10.0
    vertex -8.227241335952165 4.750000000000003 0.0
  endloop
endfacet
facet normal 0.793353340291235 -0.6087614290087211 -0.0
  outer loop
    vertex -8.227241335952165 4.750000000000003 10.0
    vertex -6.7175144212722 6.7175144212722016 0.0
    vertex -6.7175144212722 6.7175144212722016 10.0
  endloop
endfacet
facet normal 0.9238795325112867 -0.38268343236509017 -0.0
  outer loop
    vertex -8.227241335952165 4.750000000000003 0.0
    vertex -9.176295349746148 2.4587809284739492 10.0
    vertex -9.176295349746148 2.4587809284739492 0.0
  endloop
endfacet
facet normal 0.9238795325112867 -0.38268343236509017 -0.0
  outer loop
    vertex -9.176295349746148 2.4587809284739492 10.0
    vertex -8.227241335952165 4.750000000000003 0.0
    vertex -8.227241335952165 4.750000000000003 10.0
  endloop
endfacet
facet normal 0.9914448613738105 -0.13052619222005168 -0.0
  outer loop
    vertex -9.176295349746148 2.4587809284739492 0.0
    vertex -9.5 1.1634144591899855e-15 10.0
    vertex -9.5 1.1634144591899855e-15 0.0
  endloop
endfacet
facet normal 0.9914448613738105 -0.13052619222005168 -0.0
  outer loop
    vertex -9.5 1.1634144591899855e-15 10.0
    vertex -9.176295349746148 2.4587809284739492 0.0
    vertex -9.176295349746148 2.4587809284739492 10.0
  endloop
endfacet
facet normal 1.108013770657129e-16 -1.0 0.0
  outer loop
    vertex -9.5 1.1634144591899855e-15 10.0
    vertex -25.0 0.0 0.0
    vertex -9.5 1.1634144591899855e-15 0.0
  endloop
endfacet
facet normal 1.108013770657129e-16 -1.0 0.0
  outer loop
    vertex -25.0 0.0 0.0
    vertex -9.5 1.1634144591899855e-15 10.0
    vertex -19.650000000000002 1.4099832412739488e-14 3.700961894323341
  endloop
endfacet
facet normal 1.108013770657129e-16 -1.0 0.0
  outer loop
    vertex -25.0 0.0 0.0
    vertex -19.650000000000002 1.4099832412739488e-14 3.700961894323341
    vertex -20.01177143234622 1.4099832412739488e-14 3.5511112605663975
  endloop
endfacet
facet normal 1.108013770657129e-16 -1.0 0.0
  outer loop
    vertex -25.0 0.0 0.0
    vertex -20.01177143234622 1.4099832412739488e-14 3.5511112605663975
    vertex -20.4 1.4099832412739488e-14 3.5
  endloop
endfacet
facet normal 1.108013770657129e-16 -1.0 0.0
  outer loop
    vertex -19.650000000000002 1.4099832412739488e-14 3.700961894323341
    vertex -9.5 1.1634144591899855e-15 10.0
    vertex -19.33933982822018 1.4099832412739488e-14 3.939339828220178
  endloop
endfacet
facet normal 1.108013770657129e-16 -1.0 0.0
  outer loop
    vertex -19.33933982822018 1.4099832412739488e-14 3.939339828220178
    vertex -9.5 1.1634144591899855e-15 10.0
    vertex -19.10096189432334 1.4099832412739488e-14 4.249999999999999
  endloop
endfacet
facet normal 1.108013770657129e-16 -1.0 0.0
  outer loop
    vertex -19.10096189432334 1.4099832412739488e-14 4.249999999999999
    vertex -9.5 1.1634144591899855e-15 10.0
    vertex -18.951111260566396 1.4099832412739488e-14 4.611771432346218
  endloop
endfacet
facet normal 1.108013770657129e-16 -1.0 0.0
  outer loop
    vertex -18.951111260566396 1.4099832412739488e-14 4.611771432346218
    vertex -9.5 1.1634144591899855e-15 10.0
    vertex -18.9 1.4099832412739488e-14 5.0
  endloop
endfacet
facet normal 1.108013770657129e-16 -1.0 0.0
  outer loop
    vertex -18.9 1.4099832412739488e-14 5.0
    vertex -9.5 1.1634144591899855e-15 10.0
    vertex -18.951111260566396 1.4099832412739488e-14 5.3882285676537816
  endloop
endfacet
facet normal 1.108013770657129e-16 -1.0 0.0
  outer loop
    vertex -18.951111260566396 1.4099832412739488e-14 5.3882285676537816
    vertex -9.5 1.1634144591899855e-15 10.0
    vertex -19.10096189432334 1.4099832412739488e-14 5.75
  endloop
endfacet
facet normal 1.108013770657129e-16 -1.0 0.0
  outer loop
    vertex -19.10096189432334 1.4099832412739488e-14 5.75
    vertex -9.5 1.1634144591899855e-15 10.0
    vertex -19.33933982822018 1.4099832412739488e-14 6.060660171779821
  endloop
endfacet
facet normal 1.108013770657129e-16 -1.0 0.0
  outer loop
    vertex -19.33933982822018 1.4099832412739488e-14 6.060660171779821
    vertex -9.5 1.1634144591899855e-15 10.0
    vertex -19.65 1.4099832412739488e-14 6.299038105676658
  endloop
endfacet
facet normal 1.108013770657129e-16 -1.0 0.0
  outer loop
    vertex -19.65 1.4099832412739488e-14 6.299038105676658
    vertex -9.5 1.1634144591899855e-15 10.0
    vertex -20.01177143234622 1.4099832412739488e-14 6.448888739433602
  endloop
endfacet
facet normal 1.108013770657129e-16 -1.0 0.0
  outer loop
    vertex -20.01177143234622 1.4099832412739488e-14 6.448888739433602
    vertex -9.5 1.1634144591899855e-15 10.0
    vertex -20.4 1.4099832412739488e-14 6.499999999999999
  endloop
endfacet
facet normal 1.108013770657129e-16 -1.0 0.0
  outer loop
    vertex -25.0 0.0 0.0
    vertex -21.699038105676657 1.4099832412739488e-14 4.250000000000001
    vertex -25.0 0.0 10.0
  endloop
endfacet
facet normal 1.108013770657129e-16 -1.0 0.0
  outer loop
    vertex -21.699038105676657 1.4099832412739488e-14 4.250000000000001
    vertex -25.0 0.0 0.0
    vertex -21.46066017177982 1.4099832412739488e-14 3.9393398282201795
  endloop
endfacet
facet normal 1.108013770657129e-16 -1.0 0.0
  outer loop
    vertex -21.46066017177982 1.4099832412739488e-14 3.9393398282201795
    vertex -25.0 0.0 0.0
    vertex -21.150000000000002 1.4099832412739488e-14 3.700961894323342
  endloop
endfacet
facet normal 1.108013770657129e-16 -1.0 0.0
  outer loop
    vertex -21.150000000000002 1.4099832412739488e-14 3.700961894323342
    vertex -25.0 0.0 0.0
    vertex -20.788228567653782 1.4099832412739488e-14 3.5511112605663975
  endloop
endfacet
facet normal 1.108013770657129e-16 -1.0 0.0
  outer loop
    vertex -20.788228567653782 1.4099832412739488e-14 3.5511112605663975
    vertex -25.0 0.0 0.0
    vertex -20.4 1.4099832412739488e-14 3.5
  endloop
endfacet
facet normal 1.108013770657129e-16 -1.0 0.0
  outer loop
    vertex -25.0 0.0 10.0
    vertex -21.699038105676657 1.4099832412739488e-14 4.250000000000001
    vertex -21.8488887394336 1.4099832412739488e-14 4.611771432346219
  endloop
endfacet
facet normal 1.108013770657129e-16 -1.0 0.0
  outer loop
    vertex -25.0 0.0 10.0
    vertex -21.8488887394336 1.4099832412739488e-14 4.611771432346219
    vertex -21.9 1.4099832412739488e-14 5.0
  endloop
endfacet
facet normal 1.108013770657129e-16 -1.0 0.0
  outer loop
    vertex -25.0 0.0 10.0
    vertex -21.9 1.4099832412739488e-14 5.0
    vertex -21.8488887394336 1.4099832412739488e-14 5.3882285676537816
  endloop
endfacet
facet normal 1.108013770657129e-16 -1.0 0.0
  outer loop
    vertex -25.0 0.0 10.0
    vertex -21.8488887394336 1.4099832412739488e-14 5.3882285676537816
    vertex -21.699038105676657 1.4099832412739488e-14 5.750000000000001
  endloop
endfacet
facet normal 1.108013770657129e-16 -1.0 0.0
  outer loop
    vertex -25.0 0.0 10.0
    vertex -21.699038105676657 1.4099832412739488e-14 5.750000000000001
    vertex -21.46066017177982 1.4099832412739488e-14 6.060660171779822
  endloop
endfacet
facet normal 1.108013770657129e-16 -1.0 0.0
  outer loop
    vertex -25.0 0.0 10.0
    vertex -21.46066017177982 1.4099832412739488e-14 6.060660171779822
    vertex -21.15 1.4099832412739488e-14 6.299038105676658
  endloop
endfacet
facet normal 1.108013770657129e-16 -1.0 0.0
  outer loop
    vertex -25.0 0.0 10.0
    vertex -21.15 1.4099832412739488e-14 6.299038105676658
    vertex -20.788228567653782 1.4099832412739488e-14 6.448888739433603
  endloop
endfacet
facet normal 1.108013770657129e-16 -1.0 0.0
  outer loop
    vertex -25.0 0.0 10.0
    vertex -20.788228567653782 1.4099832412739488e-14 6.448888739433603
    vertex -20.4 1.4099832412739488e-14 6.499999999999999
  endloop
endfacet
facet normal 1.108013770657129e-16 -1.0 0.0
  outer loop
    vertex -25.0 0.0 10.0
    vertex -20.4 1.4099832412739488e-14 6.499999999999999
    vertex -9.5 1.1634144591899855e-15 10.0
  endloop
endfacet
facet normal -1.0 0.0 0.0
  outer loop
    vertex -25.0 20.0 10.0
    vertex -25.0 0.0 0.0
    vertex -25.0 0.0 10.0
  endloop
endfacet
facet normal -1.0 0.0 0.0
  outer loop
    vertex -25.0 0.0 0.0
    vertex -25.0 20.0 10.0
    vertex -25.0 20.0 0.0
  endloop
endfacet
facet normal -0.0 1.0 0.0
  outer loop
    vertex -25.0 20.0 0.0
    vertex -20.4 20.0 3.5
    vertex 25.0 20.0 0.0
  endloop
endfacet
facet normal -0.0 1.0 0.0
  outer loop
    vertex -20.4 20.0 3.5
    vertex -25.0 20.0 0.0
    vertex -20.788228567653782 20.0 3.5511112605663975
  endloop
endfacet
facet normal -0.0 1.0 0.0
  outer loop
    vertex -20.788228567653782 20.0 3.5511112605663975
    vertex -25.0 20.0 0.0
    vertex -21.150000000000002 20.0 3.700961894323342
  endloop
endfacet
facet normal -0.0 1.0 0.0
  outer loop
    vertex -21.150000000000002 20.0 3.700961894323342
    vertex -25.0 20.0 0.0
    vertex -21.46066017177982 20.0 3.9393398282201795
  endloop
endfacet
facet normal -0.0 1.0 0.0
  outer loop
    vertex -21.46066017177982 20.0 3.9393398282201795
    vertex -25.0 20.0 0.0
    vertex -21.699038105676657 20.0 4.250000000000001
  endloop
endfacet
facet normal -0.0 1.0 0.0
  outer loop
    vertex -21.699038105676657 20.0 4.250000000000001
    vertex -25.0 20.0 0.0
    vertex -25.0 20.0 10.0
  endloop
endfacet
facet normal -0.0 1.0 0.0
  outer loop
    vertex -21.699038105676657 20.0 4.250000000000001
    vertex -25.0 20.0 10.0
    vertex -21.8488887394336 20.0 4.611771432346219
  endloop
endfacet
facet normal -0.0 1.0 0.0
  outer loop
    vertex -21.8488887394336 20.0 4.611771432346219
    vertex -25.0 20.0 10.0
    vertex -21.9 20.0 5.0
  endloop
endfacet
facet normal -0.0 1.0 0.0
  outer loop
    vertex -21.9 20.0 5.0
    vertex -25.0 20.0 10.0
    vertex -21.8488887394336 20.0 5.3882285676537816
  endloop
endfacet
facet normal -0.0 1.0 0.0
  outer loop
    vertex -21.8488887394336 20.0 5.3882285676537816
    vertex -25.0 20.0 10.0
    vertex -21.699038105676657 20.0 5.750000000000001
  endloop
endfacet
facet normal -0.0 1.0 0.0
  outer loop
    vertex -21.699038105676657 20.0 5.750000000000001
    vertex -25.0 20.0 10.0
    vertex -21.46066017177982 20.0 6.060660171779822
  endloop
endfacet
facet normal -0.0 1.0 0.0
  outer loop
    vertex -21.46066017177982 20.0 6.060660171779822
    vertex -25.0 20.0 10.0
    vertex -21.15 20.0 6.299038105676658
  endloop
endfacet
facet normal -0.0 1.0 0.0
  outer loop
    vertex -21.15 20.0 6.299038105676658
    vertex -25.0 20.0 10.0
    vertex -20.788228567653782 20.0 6.448888739433603
  endloop
endfacet
facet normal -0.0 1.0 0.0
  outer loop
    vertex -20.788228567653782 20.0 6.448888739433603
    vertex -25.0 20.0 10.0
    vertex -20.4 20.0 6.499999999999999
  endloop
endfacet
facet normal -0.0 1.0 0.0
  outer loop
    vertex -20.4 20.0 6.499999999999999
    vertex -25.0 20.0 10.0
    vertex 20.4 20.0 6.499999999999999
  endloop
endfacet
facet normal -0.0 1.0 0.0
  outer loop
    vertex 25.0 20.0 0.0
    vertex 21.699038105676657 20.0 4.249999999999999
    vertex 25.0 20.0 10.0
  endloop
endfacet
facet normal -0.0 1.0 0.0
  outer loop
    vertex 21.699038105676657 20.0 4.249999999999999
    vertex 25.0 20.0 0.0
    vertex 21.46066017177982 20.0 3.939339828220178
  endloop
endfacet
facet normal -0.0 1.0 0.0
  outer loop
    vertex 21.46066017177982 20.0 3.939339828220178
    vertex 25.0 20.0 0.0
    vertex 21.15 20.0 3.700961894323342
  endloop
endfacet
facet normal -0.0 1.0 0.0
  outer loop
    vertex 21.15 20.0 3.700961894323342
    vertex 25.0 20.0 0.0
    vertex 20.788228567653782 20.0 3.5511112605663975
  endloop
endfacet
facet normal -0.0 1.0 0.0
  outer loop
    vertex 20.788228567653782 20.0 3.5511112605663975
    vertex 25.0 20.0 0.0
    vertex 20.4 20.0 3.5
  endloop
endfacet
facet normal -0.0 1.0 0.0
  outer loop
    vertex 20.4 20.0 3.5
    vertex 25.0 20.0 0.0
    vertex -20.4 20.0 3.5
  endloop
endfacet
facet normal -0.0 1.0 0.0
  outer loop
    vertex 25.0 20.0 10.0
    vertex 21.699038105676657 20.0 4.249999999999999
    vertex 21.8488887394336 20.0 4.6117714323462184
  endloop
endfacet
facet normal -0.0 1.0 0.0
  outer loop
    vertex 25.0 20.0 10.0
    vertex 21.8488887394336 20.0 4.6117714323462184
    vertex 21.9 20.0 5.0
  endloop
endfacet
facet normal -0.0 1.0 0.0
  outer loop
    vertex 25.0 20.0 10.0
    vertex 21.9 20.0 5.0
    vertex 21.8488887394336 20.0 5.388228567653781
  endloop
endfacet
facet normal -0.0 1.0 0.0
  outer loop
    vertex 25.0 20.0 10.0
    vertex 21.8488887394336 20.0 5.388228567653781
    vertex 21.699038105676657 20.0 5.749999999999999
  endloop
endfacet
facet normal -0.0 1.0 0.0
  outer loop
    vertex 25.0 20.0 10.0
    vertex 21.699038105676657 20.0 5.749999999999999
    vertex 21.46066017177982 20.0 6.06066017177982
  endloop
endfacet
facet normal -0.0 1.0 0.0
  outer loop
    vertex 25.0 20.0 10.0
    vertex 21.46066017177982 20.0 6.06066017177982
    vertex 21.150000000000002 20.0 6.299038105676658
  endloop
endfacet
facet normal -0.0 1.0 0.0
  outer loop
    vertex 25.0 20.0 10.0
    vertex 21.150000000000002 20.0 6.299038105676658
    vertex 20.788228567653782 20.0 6.448888739433602
  endloop
endfacet
facet normal -0.0 1.0 0.0
  outer loop
    vertex 25.0 20.0 10.0
    vertex 20.788228567653782 20.0 6.448888739433602
    vertex 20.4 20.0 6.499999999999999
  endloop
endfacet
facet normal -0.0 1.0 0.0
  outer loop
    vertex 25.0 20.0 10.0
    vertex 20.4 20.0 6.499999999999999
    vertex -25.0 20.0 10.0
  endloop
endfacet
facet normal -0.0 1.0 0.0
  outer loop
    vertex -20.01177143234622 20.0 3.5511112605663975
    vertex 20.4 20.0 3.5
    vertex -20.4 20.0 3.5
  endloop
endfacet
facet normal -0.0 1.0 0.0
  outer loop
    vertex 20.4 20.0 3.5
    vertex -20.01177143234622 20.0 3.5511112605663975
    vertex 20.01177143234622 20.0 3.5511112605663975
  endloop
endfacet
facet normal -0.0 1.0 0.0
  outer loop
    vertex 20.01177143234622 20.0 3.5511112605663975
    vertex -20.01177143234622 20.0 3.5511112605663975
    vertex -19.650000000000002 20.0 3.700961894323341
  endloop
endfacet
facet normal -0.0 1.0 0.0
  outer loop
    vertex 20.01177143234622 20.0 3.5511112605663975
    vertex -19.650000000000002 20.0 3.700961894323341
    vertex 19.65 20.0 3.700961894323342
  endloop
endfacet
facet normal -0.0 1.0 0.0
  outer loop
    vertex 19.65 20.0 3.700961894323342
    vertex -19.650000000000002 20.0 3.700961894323341
    vertex -19.33933982822018 20.0 3.939339828220178
  endloop
endfacet
facet normal -0.0 1.0 0.0
  outer loop
    vertex 19.65 20.0 3.700961894323342
    vertex -19.33933982822018 20.0 3.939339828220178
    vertex 19.33933982822018 20.0 3.939339828220179
  endloop
endfacet
facet normal -0.0 1.0 0.0
  outer loop
    vertex 19.33933982822018 20.0 3.939339828220179
    vertex -19.33933982822018 20.0 3.939339828220178
    vertex -19.10096189432334 20.0 4.249999999999999
  endloop
endfacet
facet normal -0.0 1.0 0.0
  outer loop
    vertex 19.33933982822018 20.0 3.939339828220179
    vertex -19.10096189432334 20.0 4.249999999999999
    vertex 19.10096189432334 20.0 4.25
  endloop
endfacet
facet normal -0.0 1.0 0.0
  outer loop
    vertex 19.10096189432334 20.0 4.25
    vertex -19.10096189432334 20.0 4.249999999999999
    vertex -18.951111260566396 20.0 4.611771432346218
  endloop
endfacet
facet normal -0.0 1.0 0.0
  outer loop
    vertex 19.10096189432334 20.0 4.25
    vertex -18.951111260566396 20.0 4.611771432346218
    vertex 18.951111260566396 20.0 4.6117714323462184
  endloop
endfacet
facet normal -0.0 1.0 0.0
  outer loop
    vertex 18.951111260566396 20.0 4.6117714323462184
    vertex -18.951111260566396 20.0 4.611771432346218
    vertex -18.9 20.0 5.0
  endloop
endfacet
facet normal -0.0 1.0 0.0
  outer loop
    vertex 18.951111260566396 20.0 4.6117714323462184
    vertex -18.9 20.0 5.0
    vertex 18.9 20.0 5.0
  endloop
endfacet
facet normal -0.0 1.0 0.0
  outer loop
    vertex 18.9 20.0 5.0
    vertex -18.9 20.0 5.0
    vertex -18.951111260566396 20.0 5.3882285676537816
  endloop
endfacet
facet normal -0.0 1.0 0.0
  outer loop
    vertex 18.9 20.0 5.0
    vertex -18.951111260566396 20.0 5.3882285676537816
    vertex 18.951111260566396 20.0 5.388228567653782
  endloop
endfacet
facet normal -0.0 1.0 0.0
  outer loop
    vertex 18.951111260566396 20.0 5.388228567653782
    vertex -18.951111260566396 20.0 5.3882285676537816
    vertex -19.10096189432334 20.0 5.75
  endloop
endfacet
facet normal -0.0 1.0 0.0
  outer loop
    vertex 18.951111260566396 20.0 5.388228567653782
    vertex -19.10096189432334 20.0 5.75
    vertex 19.10096189432334 20.0 5.750000000000001
  endloop
endfacet
facet normal -0.0 1.0 0.0
  outer loop
    vertex 19.10096189432334 20.0 5.750000000000001
    vertex -19.10096189432334 20.0 5.75
    vertex -19.33933982822018 20.0 6.060660171779821
  endloop
endfacet
facet normal -0.0 1.0 0.0
  outer loop
    vertex 19.10096189432334 20.0 5.750000000000001
    vertex -19.33933982822018 20.0 6.060660171779821
    vertex 19.33933982822018 20.0 6.060660171779822
  endloop
endfacet
facet normal -0.0 1.0 0.0
  outer loop
    vertex 19.33933982822018 20.0 6.060660171779822
    vertex -19.33933982822018 20.0 6.060660171779821
    vertex -19.65 20.0 6.299038105676658
  endloop
endfacet
facet normal -0.0 1.0 0.0
  outer loop
    vertex 19.33933982822018 20.0 6.060660171779822
    vertex -19.65 20.0 6.299038105676658
    vertex 19.650000000000002 20.0 6.299038105676659
  endloop
endfacet
facet normal -0.0 1.0 0.0
  outer loop
    vertex 19.650000000000002 20.0 6.299038105676659
    vertex -19.65 20.0 6.299038105676658
    vertex -20.01177143234622 20.0 6.448888739433602
  endloop
endfacet
facet normal -0.0 1.0 0.0
  outer loop
    vertex 19.650000000000002 20.0 6.299038105676659
    vertex -20.01177143234622 20.0 6.448888739433602
    vertex 20.01177143234622 20.0 6.448888739433603
  endloop
endfacet
facet normal -0.0 1.0 0.0
  outer loop
    vertex 20.01177143234622 20.0 6.448888739433603
    vertex -20.01177143234622 20.0 6.448888739433602
    vertex -20.4 20.0 6.499999999999999
  endloop
endfacet
facet normal -0.0 1.0 0.0
  outer loop
    vertex 20.01177143234622 20.0 6.448888739433603
    vertex -20.4 20.0 6.499999999999999
    vertex 20.4 20.0 6.499999999999999
  endloop
endfacet
facet normal 1.0 0.0 0.0
  outer loop
    vertex 25.0 20.0 0.0
    vertex 25.0 0.0 10.0
    vertex 25.0 0.0 0.0
  endloop
endfacet
facet normal 1.0 0.0 0.0
  outer loop
    vertex 25.0 0.0 10.0
    vertex 25.0 20.0 0.0
    vertex 25.0 20.0 10.0
  endloop
endfacet
facet normal 0.13052619222004813 -0.0 -0.9914448613738109
  outer loop
    vertex 20.4 20.0 6.499999999999999
    vertex 20.01177143234622 -9.86988268891764e-15 6.448888739433603
    vertex 20.01177143234622 20.0 6.448888739433603
  endloop
endfacet
facet normal 0.13052619222004813 -0.0 -0.9914448613738109
  outer loop
    vertex 20.01177143234622 -9.86988268891764e-15 6.448888739433603
    vertex 20.4 20.0 6.499999999999999
    vertex 20.4 -9.86988268891764e-15 6.499999999999999
  endloop
endfacet
facet normal -0.13052619222005168 -0.0 -0.9914448613738105
  outer loop
    vertex 20.788228567653782 20.0 6.448888739433602
    vertex 20.4 -9.86988268891764e-15 6.499999999999999
    vertex 20.4 20.0 6.499999999999999
  endloop
endfacet
facet normal -0.13052619222005168 -0.0 -0.9914448613738105
  outer loop
    vertex 20.4 -9.86988268891764e-15 6.499999999999999
    vertex 20.788228567653782 20.0 6.448888739433602
    vertex 20.788228567653782 -9.86988268891764e-15 6.448888739433602
  endloop
endfacet
facet normal -0.38268343236508695 -0.0 -0.923879532511288
  outer loop
    vertex 21.150000000000002 20.0 6.299038105676658
    vertex 20.788228567653782 -9.86988268891764e-15 6.448888739433602
    vertex 20.788228567653782 20.0 6.448888739433602
  endloop
endfacet
facet normal -0.38268343236508695 -0.0 -0.923879532511288
  outer loop
    vertex 20.788228567653782 -9.86988268891764e-15 6.448888739433602
    vertex 21.150000000000002 20.0 6.299038105676658
    vertex 21.150000000000002 -9.86988268891764e-15 6.299038105676658
  endloop
endfacet
facet normal -0.6087614290087243 -0.0 -0.7933533402912326
  outer loop
    vertex 21.46066017177982 20.0 6.06066017177982
    vertex 21.150000000000002 -9.86988268891764e-15 6.299038105676658
    vertex 21.150000000000002 20.0 6.299038105676658
  endloop
endfacet
facet normal -0.6087614290087243 -0.0 -0.7933533402912326
  outer loop
    vertex 21.150000000000002 -9.86988268891764e-15 6.299038105676658
    vertex 21.46066017177982 20.0 6.06066017177982
    vertex 21.46066017177982 -9.86988268891764e-15 6.06066017177982
  endloop
endfacet
facet normal -0.7933533402912339 -0.0 -0.6087614290087225
  outer loop
    vertex 21.46066017177982 20.0 6.06066017177982
    vertex 21.699038105676657 -9.86988268891764e-15 5.749999999999999
    vertex 21.46066017177982 -9.86988268891764e-15 6.06066017177982
  endloop
endfacet
facet normal -0.7933533402912339 -0.0 -0.6087614290087225
  outer loop
    vertex 21.699038105676657 -9.86988268891764e-15 5.749999999999999
    vertex 21.46066017177982 20.0 6.06066017177982
    vertex 21.699038105676657 20.0 5.749999999999999
  endloop
endfacet
facet normal -0.9238795325112874 -0.0 -0.3826834323650882
  outer loop
    vertex 21.699038105676657 20.0 5.749999999999999
    vertex 21.8488887394336 -9.86988268891764e-15 5.388228567653781
    vertex 21.699038105676657 -9.86988268891764e-15 5.749999999999999
  endloop
endfacet
facet normal -0.9238795325112874 -0.0 -0.3826834323650882
  outer loop
    vertex 21.8488887394336 -9.86988268891764e-15 5.388228567653781
    vertex 21.699038105676657 20.0 5.749999999999999
    vertex 21.8488887394336 20.0 5.388228567653781
  endloop
endfacet
facet normal -0.9914448613738104 -0.0 -0.1305261922200519
  outer loop
    vertex 21.8488887394336 20.0 5.388228567653781
    vertex 21.9 -9.86988268891764e-15 5.0
    vertex 21.8488887394336 -9.86988268891764e-15 5.388228567653781
  endloop
endfacet
facet normal -0.9914448613738104 -0.0 -0.1305261922200519
  outer loop
    vertex 21.9 -9.86988268891764e-15 5.0
    vertex 21.8488887394336 20.0 5.388228567653781
    vertex 21.9 20.0 5.0
  endloop
endfacet
facet normal -0.9914448613738105 -0.0 0.13052619222005168
  outer loop
    vertex 21.9 20.0 5.0
    vertex 21.8488887394336 -9.86988268891764e-15 4.6117714323462184
    vertex 21.9 -9.86988268891764e-15 5.0
  endloop
endfacet
facet normal -0.9914448613738105 -0.0 0.13052619222005168
  outer loop
    vertex 21.8488887394336 -9.86988268891764e-15 4.6117714323462184
    vertex 21.9 20.0 5.0
    vertex 21.8488887394336 20.0 4.6117714323462184
  endloop
endfacet
facet normal -0.9238795325112877 -0.0 0.3826834323650876
  outer loop
    vertex 21.8488887394336 20.0 4.6117714323462184
    vertex 21.699038105676657 -9.86988268891764e-15 4.249999999999999
    vertex 21.8488887394336 -9.86988268891764e-15 4.6117714323462184
  endloop
endfacet
facet normal -0.9238795325112877 -0.0 0.3826834323650876
  outer loop
    vertex 21.699038105676657 -9.86988268891764e-15 4.249999999999999
    vertex 21.8488887394336 20.0 4.6117714323462184
    vertex 21.699038105676657 20.0 4.249999999999999
  endloop
endfacet
facet normal -0.7933533402912339 -0.0 0.6087614290087225
  outer loop
    vertex 21.699038105676657 20.0 4.249999999999999
    vertex 21.46066017177982 -9.86988268891764e-15 3.939339828220178
    vertex 21.699038105676657 -9.86988268891764e-15 4.249999999999999
  endloop
endfacet
facet normal -0.7933533402912339 -0.0 0.6087614290087225
  outer loop
    vertex 21.46066017177982 -9.86988268891764e-15 3.939339828220178
    vertex 21.699038105676657 20.0 4.249999999999999
    vertex 21.46066017177982 20.0 3.939339828220178
  endloop
endfacet
facet normal -0.6087614290087184 -0.0 0.7933533402912368
  outer loop
    vertex 21.46066017177982 -9.86988268891764e-15 3.939339828220178
    vertex 21.15 20.0 3.700961894323342
    vertex 21.15 -9.86988268891764e-15 3.700961894323342
  endloop
endfacet
facet normal -0.6087614290087184 -0.0 0.7933533402912368
  outer loop
    vertex 21.15 20.0 3.700961894323342
    vertex 21.46066017177982 -9.86988268891764e-15 3.939339828220178
    vertex 21.46066017177982 20.0 3.939339828220178
  endloop
endfacet
facet normal -0.3826834323650911 -0.0 0.9238795325112864
  outer loop
    vertex 21.15 -9.86988268891764e-15 3.700961894323342
    vertex 20.788228567653782 20.0 3.5511112605663975
    vertex 20.788228567653782 -9.86988268891764e-15 3.5511112605663975
  endloop
endfacet
facet normal -0.3826834323650911 -0.0 0.9238795325112864
  outer loop
    vertex 20.788228567653782 20.0 3.5511112605663975
    vertex 21.15 -9.86988268891764e-15 3.700961894323342
    vertex 21.15 20.0 3.700961894323342
  endloop
endfacet
facet normal -0.13052619222005168 -0.0 0.9914448613738105
  outer loop
    vertex 20.788228567653782 -9.86988268891764e-15 3.5511112605663975
    vertex 20.4 20.0 3.5
    vertex 20.4 -9.86988268891764e-15 3.5
  endloop
endfacet
facet normal -0.13052619222005168 -0.0 0.9914448613738105
  outer loop
    vertex 20.4 20.0 3.5
    vertex 20.788228567653782 -9.86988268891764e-15 3.5511112605663975
    vertex 20.788228567653782 20.0 3.5511112605663975
  endloop
endfacet
facet normal 0.13052619222005168 0.0 0.9914448613738105
  outer loop
    vertex 20.4 -9.86988268891764e-15 3.5
    vertex 20.01177143234622 20.0 3.5511112605663975
    vertex 20.01177143234622 -9.86988268891764e-15 3.5511112605663975
  endloop
endfacet
facet normal 0.13052619222005168 0.0 0.9914448613738105
  outer loop
    vertex 20.01177143234622 20.0 3.5511112605663975
    vertex 20.4 -9.86988268891764e-15 3.5
    vertex 20.4 20.0 3.5
  endloop
endfacet
facet normal 0.3826834323650885 0.0 0.9238795325112873
  outer loop
    vertex 20.01177143234622 -9.86988268891764e-15 3.5511112605663975
    vertex 19.65 20.0 3.700961894323342
    vertex 19.65 -9.86988268891764e-15 3.700961894323342
  endloop
endfacet
facet normal 0.3826834323650885 0.0 0.9238795325112873
  outer loop
    vertex 19.65 20.0 3.700961894323342
    vertex 20.01177143234622 -9.86988268891764e-15 3.5511112605663975
    vertex 20.01177143234622 20.0 3.5511112605663975
  endloop
endfacet
facet normal 0.6087614290087231 0.0 0.7933533402912335
  outer loop
    vertex 19.65 -9.86988268891764e-15 3.700961894323342
    vertex 19.33933982822018 20.0 3.939339828220179
    vertex 19.33933982822018 -9.86988268891764e-15 3.939339828220179
  endloop
endfacet
facet normal 0.6087614290087231 0.0 0.7933533402912335
  outer loop
    vertex 19.33933982822018 20.0 3.939339828220179
    vertex 19.65 -9.86988268891764e-15 3.700961894323342
    vertex 19.65 20.0 3.700961894323342
  endloop
endfacet
facet normal 0.7933533402912339 0.0 0.6087614290087225
  outer loop
    vertex 19.33933982822018 20.0 3.939339828220179
    vertex 19.10096189432334 -9.86988268891764e-15 4.25
    vertex 19.33933982822018 -9.86988268891764e-15 3.939339828220179
  endloop
endfacet
facet normal 0.7933533402912339 0.0 0.6087614290087225
  outer loop
    vertex 19.10096189432334 -9.86988268891764e-15 4.25
    vertex 19.33933982822018 20.0 3.939339828220179
    vertex 19.10096189432334 20.0 4.25
  endloop
endfacet
facet normal 0.9238795325112874 0.0 0.3826834323650882
  outer loop
    vertex 19.10096189432334 20.0 4.25
    vertex 18.951111260566396 -9.86988268891764e-15 4.6117714323462184
    vertex 19.10096189432334 -9.86988268891764e-15 4.25
  endloop
endfacet
facet normal 0.9238795325112874 0.0 0.3826834323650882
  outer loop
    vertex 18.951111260566396 -9.86988268891764e-15 4.6117714323462184
    vertex 19.10096189432334 20.0 4.25
    vertex 18.951111260566396 20.0 4.6117714323462184
  endloop
endfacet
facet normal 0.9914448613738105 0.0 0.13052619222005168
  outer loop
    vertex 18.951111260566396 20.0 4.6117714323462184
    vertex 18.9 -9.86988268891764e-15 5.0
    vertex 18.951111260566396 -9.86988268891764e-15 4.6117714323462184
  endloop
endfacet
facet normal 0.9914448613738105 0.0 0.13052619222005168
  outer loop
    vertex 18.9 -9.86988268891764e-15 5.0
    vertex 18.951111260566396 20.0 4.6117714323462184
    vertex 18.9 20.0 5.0
  endloop
endfacet
facet normal 0.9914448613738105 -0.0 -0.13052619222005146
  outer loop
    vertex 18.9 20.0 5.0
    vertex 18.951111260566396 -9.86988268891764e-15 5.388228567653782
    vertex 18.9 -9.86988268891764e-15 5.0
  endloop
endfacet
facet normal 0.9914448613738105 -0.0 -0.13052619222005146
  outer loop
    vertex 18.951111260566396 -9.86988268891764e-15 5.388228567653782
    vertex 18.9 20.0 5.0
    vertex 18.951111260566396 20.0 5.388228567653782
  endloop
endfacet
facet normal 0.9238795325112874 -0.0 -0.3826834323650882
  outer loop
    vertex 18.951111260566396 20.0 5.388228567653782
    vertex 19.10096189432334 -9.86988268891764e-15 5.750000000000001
    vertex 18.951111260566396 -9.86988268891764e-15 5.388228567653782
  endloop
endfacet
facet normal 0.9238795325112874 -0.0 -0.3826834323650882
  outer loop
    vertex 19.10096189432334 -9.86988268891764e-15 5.750000000000001
    vertex 18.951111260566396 20.0 5.388228567653782
    vertex 19.10096189432334 20.0 5.750000000000001
  endloop
endfacet
facet normal 0.7933533402912339 -0.0 -0.6087614290087225
  outer loop
    vertex 19.10096189432334 20.0 5.750000000000001
    vertex 19.33933982822018 -9.86988268891764e-15 6.060660171779822
    vertex 19.10096189432334 -9.86988268891764e-15 5.750000000000001
  endloop
endfacet
facet normal 0.7933533402912339 -0.0 -0.6087614290087225
  outer loop
    vertex 19.33933982822018 -9.86988268891764e-15 6.060660171779822
    vertex 19.10096189432334 20.0 5.750000000000001
    vertex 19.33933982822018 20.0 6.060660171779822
  endloop
endfacet
facet normal 0.6087614290087197 -0.0 -0.7933533402912362
  outer loop
    vertex 19.650000000000002 20.0 6.299038105676659
    vertex 19.33933982822018 -9.86988268891764e-15 6.060660171779822
    vertex 19.33933982822018 20.0 6.060660171779822
  endloop
endfacet
facet normal 0.6087614290087197 -0.0 -0.7933533402912362
  outer loop
    vertex 19.33933982822018 -9.86988268891764e-15 6.060660171779822
    vertex 19.650000000000002 20.0 6.299038105676659
    vertex 19.650000000000002 -9.86988268891764e-15 6.299038105676659
  endloop
endfacet
facet normal 0.3826834323650911 -0.0 -0.9238795325112864
  outer loop
    vertex 20.01177143234622 20.0 6.448888739433603
    vertex 19.650000000000002 -9.86988268891764e-15 6.299038105676659
    vertex 19.650000000000002 20.0 6.299038105676659
  endloop
endfacet
facet normal 0.3826834323650911 -0.0 -0.9238795325112864
  outer loop
    vertex 19.650000000000002 -9.86988268891764e-15 6.299038105676659
    vertex 20.01177143234622 20.0 6.448888739433603
    vertex 20.01177143234622 -9.86988268891764e-15 6.448888739433603
  endloop
endfacet
facet normal 0.9914448613738104 0.0 0.1305261922200519
  outer loop
    vertex -21.8488887394336 20.0 4.611771432346219
    vertex -21.9 1.4099832412739488e-14 5.0
    vertex -21.8488887394336 1.4099832412739488e-14 4.611771432346219
  endloop
endfacet
facet normal 0.9914448613738104 0.0 0.1305261922200519
  outer loop
    vertex -21.9 1.4099832412739488e-14 5.0
    vertex -21.8488887394336 20.0 4.611771432346219
    vertex -21.9 20.0 5.0
  endloop
endfacet
facet normal 0.9914448613738105 -0.0 -0.13052619222005168
  outer loop
    vertex -21.9 20.0 5.0
    vertex -21.8488887394336 1.4099832412739488e-14 5.3882285676537816
    vertex -21.9 1.4099832412739488e-14 5.0
  endloop
endfacet
facet normal 0.9914448613738105 -0.0 -0.13052619222005168
  outer loop
    vertex -21.8488887394336 1.4099832412739488e-14 5.3882285676537816
    vertex -21.9 20.0 5.0
    vertex -21.8488887394336 20.0 5.3882285676537816
  endloop
endfacet
facet normal 0.9238795325112877 -0.0 -0.3826834323650876
  outer loop
    vertex -21.8488887394336 20.0 5.3882285676537816
    vertex -21.699038105676657 1.4099832412739488e-14 5.750000000000001
    vertex -21.8488887394336 1.4099832412739488e-14 5.3882285676537816
  endloop
endfacet
facet normal 0.9238795325112877 -0.0 -0.3826834323650876
  outer loop
    vertex -21.699038105676657 1.4099832412739488e-14 5.750000000000001
    vertex -21.8488887394336 20.0 5.3882285676537816
    vertex -21.699038105676657 20.0 5.750000000000001
  endloop
endfacet
facet normal 0.7933533402912339 -0.0 -0.6087614290087225
  outer loop
    vertex -21.699038105676657 20.0 5.750000000000001
    vertex -21.46066017177982 1.4099832412739488e-14 6.060660171779822
    vertex -21.699038105676657 1.4099832412739488e-14 5.750000000000001
  endloop
endfacet
facet normal 0.7933533402912339 -0.0 -0.6087614290087225
  outer loop
    vertex -21.46066017177982 1.4099832412739488e-14 6.060660171779822
    vertex -21.699038105676657 20.0 5.750000000000001
    vertex -21.46066017177982 20.0 6.060660171779822
  endloop
endfacet
facet normal 0.6087614290087184 -0.0 -0.7933533402912368
  outer loop
    vertex -21.15 20.0 6.299038105676658
    vertex -21.46066017177982 1.4099832412739488e-14 6.060660171779822
    vertex -21.46066017177982 20.0 6.060660171779822
  endloop
endfacet
facet normal 0.6087614290087184 -0.0 -0.7933533402912368
  outer loop
    vertex -21.46066017177982 1.4099832412739488e-14 6.060660171779822
    vertex -21.15 20.0 6.299038105676658
    vertex -21.15 1.4099832412739488e-14 6.299038105676658
  endloop
endfacet
facet normal 0.38268343236509256 -0.0 -0.9238795325112856
  outer loop
    vertex -20.788228567653782 20.0 6.448888739433603
    vertex -21.15 1.4099832412739488e-14 6.299038105676658
    vertex -21.15 20.0 6.299038105676658
  endloop
endfacet
facet normal 0.38268343236509256 -0.0 -0.9238795325112856
  outer loop
    vertex -21.15 1.4099832412739488e-14 6.299038105676658
    vertex -20.788228567653782 20.0 6.448888739433603
    vertex -20.788228567653782 1.4099832412739488e-14 6.448888739433603
  endloop
endfacet
facet normal 0.13052619222004813 -0.0 -0.9914448613738109
  outer loop
    vertex -20.4 20.0 6.499999999999999
    vertex -20.788228567653782 1.4099832412739488e-14 6.448888739433603
    vertex -20.788228567653782 20.0 6.448888739433603
  endloop
endfacet
facet normal 0.13052619222004813 -0.0 -0.9914448613738109
  outer loop
    vertex -20.788228567653782 1.4099832412739488e-14 6.448888739433603
    vertex -20.4 20.0 6.499999999999999
    vertex -20.4 1.4099832412739488e-14 6.499999999999999
  endloop
endfacet
facet normal -0.13052619222005168 -0.0 -0.9914448613738105
  outer loop
    vertex -20.01177143234622 20.0 6.448888739433602
    vertex -20.4 1.4099832412739488e-14 6.499999999999999
    vertex -20.4 20.0 6.499999999999999
  endloop
endfacet
facet normal -0.13052619222005168 -0.0 -0.9914448613738105
  outer loop
    vertex -20.4 1.4099832412739488e-14 6.499999999999999
    vertex -20.01177143234622 20.0 6.448888739433602
    vertex -20.01177143234622 1.4099832412739488e-14 6.448888739433602
  endloop
endfacet
facet normal -0.38268343236508695 -0.0 -0.923879532511288
  outer loop
    vertex -19.65 20.0 6.299038105676658
    vertex -20.01177143234622 1.4099832412739488e-14 6.448888739433602
    vertex -20.01177143234622 20.0 6.448888739433602
  endloop
endfacet
facet normal -0.38268343236508695 -0.0 -0.923879532511288
  outer loop
    vertex -20.01177143234622 1.4099832412739488e-14 6.448888739433602
    vertex -19.65 20.0 6.299038105676658
    vertex -19.65 1.4099832412739488e-14 6.299038105676658
  endloop
endfacet
facet normal -0.6087614290087231 -0.0 -0.7933533402912335
  outer loop
    vertex -19.33933982822018 20.0 6.060660171779821
    vertex -19.65 1.4099832412739488e-14 6.299038105676658
    vertex -19.65 20.0 6.299038105676658
  endloop
endfacet
facet normal -0.6087614290087231 -0.0 -0.7933533402912335
  outer loop
    vertex -19.65 1.4099832412739488e-14 6.299038105676658
    vertex -19.33933982822018 20.0 6.060660171779821
    vertex -19.33933982822018 1.4099832412739488e-14 6.060660171779821
  endloop
endfacet
facet normal -0.7933533402912339 -0.0 -0.6087614290087225
  outer loop
    vertex -19.33933982822018 20.0 6.060660171779821
    vertex -19.10096189432334 1.4099832412739488e-14 5.75
    vertex -19.33933982822018 1.4099832412739488e-14 6.060660171779821
  endloop
endfacet
facet normal -0.7933533402912339 -0.0 -0.6087614290087225
  outer loop
    vertex -19.10096189432334 1.4099832412739488e-14 5.75
    vertex -19.33933982822018 20.0 6.060660171779821
    vertex -19.10096189432334 20.0 5.75
  endloop
endfacet
facet normal -0.9238795325112874 -0.0 -0.3826834323650882
  outer loop
    vertex -19.10096189432334 20.0 5.75
    vertex -18.951111260566396 1.4099832412739488e-14 5.3882285676537816
    vertex -19.10096189432334 1.4099832412739488e-14 5.75
  endloop
endfacet
facet normal -0.9238795325112874 -0.0 -0.3826834323650882
  outer loop
    vertex -18.951111260566396 1.4099832412739488e-14 5.3882285676537816
    vertex -19.10096189432334 20.0 5.75
    vertex -18.951111260566396 20.0 5.3882285676537816
  endloop
endfacet
facet normal -0.9914448613738105 -0.0 -0.13052619222005168
  outer loop
    vertex -18.951111260566396 20.0 5.3882285676537816
    vertex -18.9 1.4099832412739488e-14 5.0
    vertex -18.951111260566396 1.4099832412739488e-14 5.3882285676537816
  endloop
endfacet
facet normal -0.9914448613738105 -0.0 -0.13052619222005168
  outer loop
    vertex -18.9 1.4099832412739488e-14 5.0
    vertex -18.951111260566396 20.0 5.3882285676537816
    vertex -18.9 20.0 5.0
  endloop
endfacet
facet normal -0.9914448613738105 -0.0 0.13052619222005146
  outer loop
    vertex -18.9 20.0 5.0
    vertex -18.951111260566396 1.4099832412739488e-14 4.611771432346218
    vertex -18.9 1.4099832412739488e-14 5.0
  endloop
endfacet
facet normal -0.9914448613738105 -0.0 0.13052619222005146
  outer loop
    vertex -18.951111260566396 1.4099832412739488e-14 4.611771432346218
    vertex -18.9 20.0 5.0
    vertex -18.951111260566396 20.0 4.611771432346218
  endloop
endfacet
facet normal -0.9238795325112874 -0.0 0.3826834323650882
  outer loop
    vertex -18.951111260566396 20.0 4.611771432346218
    vertex -19.10096189432334 1.4099832412739488e-14 4.249999999999999
    vertex -18.951111260566396 1.4099832412739488e-14 4.611771432346218
  endloop
endfacet
facet normal -0.9238795325112874 -0.0 0.3826834323650882
  outer loop
    vertex -19.10096189432334 1.4099832412739488e-14 4.249999999999999
    vertex -18.951111260566396 20.0 4.611771432346218
    vertex -19.10096189432334 20.0 4.249999999999999
  endloop
endfacet
facet normal -0.7933533402912339 -0.0 0.6087614290087225
  outer loop
    vertex -19.10096189432334 20.0 4.249999999999999
    vertex -19.33933982822018 1.4099832412739488e-14 3.939339828220178
    vertex -19.10096189432334 1.4099832412739488e-14 4.249999999999999
  endloop
endfacet
facet normal -0.7933533402912339 -0.0 0.6087614290087225
  outer loop
    vertex -19.33933982822018 1.4099832412739488e-14 3.939339828220178
    vertex -19.10096189432334 20.0 4.249999999999999
    vertex -19.33933982822018 20.0 3.939339828220178
  endloop
endfacet
facet normal -0.6087614290087197 -0.0 0.7933533402912362
  outer loop
    vertex -19.33933982822018 1.4099832412739488e-14 3.939339828220178
    vertex -19.650000000000002 20.0 3.700961894323341
    vertex -19.650000000000002 1.4099832412739488e-14 3.700961894323341
  endloop
endfacet
facet normal -0.6087614290087197 -0.0 0.7933533402912362
  outer loop
    vertex -19.650000000000002 20.0 3.700961894323341
    vertex -19.33933982822018 1.4099832412739488e-14 3.939339828220178
    vertex -19.33933982822018 20.0 3.939339828220178
  endloop
endfacet
facet normal -0.3826834323650895 -0.0 0.9238795325112868
  outer loop
    vertex -19.650000000000002 1.4099832412739488e-14 3.700961894323341
    vertex -20.01177143234622 20.0 3.5511112605663975
    vertex -20.01177143234622 1.4099832412739488e-14 3.5511112605663975
  endloop
endfacet
facet normal -0.3826834323650895 -0.0 0.9238795325112868
  outer loop
    vertex -20.01177143234622 20.0 3.5511112605663975
    vertex -19.650000000000002 1.4099832412739488e-14 3.700961894323341
    vertex -19.650000000000002 20.0 3.700961894323341
  endloop
endfacet
facet normal -0.13052619222005168 -0.0 0.9914448613738105
  outer loop
    vertex -20.01177143234622 1.4099832412739488e-14 3.5511112605663975
    vertex -20.4 20.0 3.5
    vertex -20.4 1.4099832412739488e-14 3.5
  endloop
endfacet
facet normal -0.13052619222005168 -0.0 0.9914448613738105
  outer loop
    vertex -20.4 20.0 3.5
    vertex -20.01177143234622 1.4099832412739488e-14 3.5511112605663975
    vertex -20.01177143234622 20.0 3.5511112605663975
  endloop
endfacet
facet normal 0.13052619222005168 0.0 0.9914448613738105
  outer loop
    vertex -20.4 1.4099832412739488e-14 3.5
    vertex -20.788228567653782 20.0 3.5511112605663975
    vertex -20.788228567653782 1.4099832412739488e-14 3.5511112605663975
  endloop
endfacet
facet normal 0.13052619222005168 0.0 0.9914448613738105
  outer loop
    vertex -20.788228567653782 20.0 3.5511112605663975
    vertex -20.4 1.4099832412739488e-14 3.5
    vertex -20.4 20.0 3.5
  endloop
endfacet
facet normal 0.3826834323650885 0.0 0.9238795325112873
  outer loop
    vertex -20.788228567653782 1.4099832412739488e-14 3.5511112605663975
    vertex -21.150000000000002 20.0 3.700961894323342
    vertex -21.150000000000002 1.4099832412739488e-14 3.700961894323342
  endloop
endfacet
facet normal 0.3826834323650885 0.0 0.9238795325112873
  outer loop
    vertex -21.150000000000002 20.0 3.700961894323342
    vertex -20.788228567653782 1.4099832412739488e-14 3.5511112605663975
    vertex -20.788228567653782 20.0 3.5511112605663975
  endloop
endfacet
facet normal 0.6087614290087243 0.0 0.7933533402912326
  outer loop
    vertex -21.150000000000002 1.4099832412739488e-14 3.700961894323342
    vertex -21.46066017177982 20.0 3.9393398282201795
    vertex -21.46066017177982 1.4099832412739488e-14 3.9393398282201795
  endloop
endfacet
facet normal 0.6087614290087243 0.0 0.7933533402912326
  outer loop
    vertex -21.46066017177982 20.0 3.9393398282201795
    vertex -21.150000000000002 1.4099832412739488e-14 3.700961894323342
    vertex -21.150000000000002 20.0 3.700961894323342
  endloop
endfacet
facet normal 0.7933533402912339 0.0 0.6087614290087225
  outer loop
    vertex -21.46066017177982 20.0 3.9393398282201795
    vertex -21.699038105676657 1.4099832412739488e-14 4.250000000000001
    vertex -21.46066017177982 1.4099832412739488e-14 3.9393398282201795
  endloop
endfacet
facet normal 0.7933533402912339 0.0 0.6087614290087225
  outer loop
    vertex -21.699038105676657 1.4099832412739488e-14 4.250000000000001
    vertex -21.46066017177982 20.0 3.9393398282201795
    vertex -21.699038105676657 20.0 4.250000000000001
  endloop
endfacet
facet normal 0.9238795325112874 0.0 0.3826834323650882
  outer loop
    vertex -21.699038105676657 20.0 4.250000000000001
    vertex -21.8488887394336 1.4099832412739488e-14 4.611771432346219
    vertex -21.699038105676657 1.4099832412739488e-14 4.250000000000001
  endloop
endfacet
facet normal 0.9238795325112874 0.0 0.3826834323650882
  outer loop
    vertex -21.8488887394336 1.4099832412739488e-14 4.611771432346219
    vertex -21.699038105676657 20.0 4.250000000000001
    vertex -21.8488887394336 20.0 4.611771432346219
  endloop
endfacet
endsolid Шприц-крепление
