solid ластохвост для головки - Под ламели
facet normal 0.8660254037844387 -0.5 -1.6311812380223773e-17
  outer loop
    vertex 31.11324865405188 -4.999999999999995 0.0
    vertex 33.44255693335314 -0.9655197137593761 47.96551971375935
    vertex 31.11324865405188 -4.999999999999998 51.99999999999997
  endloop
endfacet
facet normal 0.8660254037844387 -0.5 -1.6311812380223773e-17
  outer loop
    vertex 33.44255693335314 -0.9655197137593761 47.96551971375935
    vertex 31.11324865405188 -4.999999999999995 0.0
    vertex 33.44255693335314 -0.9655197137593756 0.0
  endloop
endfacet
facet normal 0.866025403784439 -0.0 0.49999999999999944
  outer loop
    vertex 33.44255693335314 -0.9655197137593761 47.96551971375935
    vertex 31.11324865405188 -0.9999999999999999 51.99999999999997
    vertex 31.11324865405188 -4.999999999999998 51.99999999999997
  endloop
endfacet
facet normal 0.866025403784439 -0.0 0.49999999999999944
  outer loop
    vertex 31.11324865405188 -0.9999999999999999 51.99999999999997
    vertex 33.44255693335314 -0.9655197137593761 47.96551971375935
    vertex 32.27790279370251 -0.5965519713759374 49.98275985687966
  endloop
endfacet
facet normal -0.8660254037844384 -0.5000000000000009 1.5112414411089672e-17
  outer loop
    vertex 9.886751345948133 -4.999999999999995 51.99999999999997
    vertex 7.557443066646866 -0.9655197137593756 0.0
    vertex 9.88675134594813 -4.999999999999996 0.0
  endloop
endfacet
facet normal -0.8660254037844384 -0.5000000000000009 1.5112414411089672e-17
  outer loop
    vertex 7.557443066646866 -0.9655197137593756 0.0
    vertex 9.886751345948133 -4.999999999999995 51.99999999999997
    vertex 7.557443066646866 -0.9655197137593756 47.96551971375935
  endloop
endfacet
facet normal -0.0 -0.0 1.0
  outer loop
    vertex 31.11324865405188 -6.999999999999998 51.99999999999997
    vertex 9.886751345948133 -4.999999999999995 51.99999999999997
    vertex 9.886751345948133 -6.999999999999996 51.99999999999997
  endloop
endfacet
facet normal -0.0 -0.0 1.0
  outer loop
    vertex 9.886751345948133 -4.999999999999995 51.99999999999997
    vertex 31.11324865405188 -6.999999999999998 51.99999999999997
    vertex 9.886751345948133 -0.9999999999999983 51.99999999999997
  endloop
endfacet
facet normal -0.0 -0.0 1.0
  outer loop
    vertex 9.886751345948133 -0.9999999999999983 51.99999999999997
    vertex 31.11324865405188 -6.999999999999998 51.99999999999997
    vertex 31.11324865405188 -0.9999999999999999 51.99999999999997
  endloop
endfacet
facet normal -0.0 -0.0 1.0
  outer loop
    vertex 31.11324865405188 -0.9999999999999999 51.99999999999997
    vertex 31.11324865405188 -6.999999999999998 51.99999999999997
    vertex 31.11324865405188 -4.999999999999998 51.99999999999997
  endloop
endfacet
facet normal -0.9090551710128597 0.41667576849965815 -4.394074683657338e-19
  outer loop
    vertex 7.999999999999998 5.606072321421933e-16 46.99999999999997
    vertex 7.557443066646866 -0.9655197137593756 0.0
    vertex 7.557443066646866 -0.9655197137593756 47.96551971375935
  endloop
endfacet
facet normal -0.9090551710128597 0.41667576849965815 -4.394074683657338e-19
  outer loop
    vertex 7.557443066646866 -0.9655197137593756 0.0
    vertex 7.999999999999998 5.606072321421933e-16 46.99999999999997
    vertex 7.999999999999998 4.543279332993832e-16 -3.916620114649858e-18
  endloop
endfacet
facet normal 0.9090551710128595 0.4166757684996583 1.098518670914336e-18
  outer loop
    vertex 33.44255693335314 -0.9655197137593756 0.0
    vertex 33.00000000000001 0.0 46.999999999999964
    vertex 33.44255693335314 -0.9655197137593761 47.96551971375935
  endloop
endfacet
facet normal 0.9090551710128595 0.4166757684996583 1.098518670914336e-18
  outer loop
    vertex 33.00000000000001 0.0 46.999999999999964
    vertex 33.44255693335314 -0.9655197137593756 0.0
    vertex 33.00000000000001 0.0 0.0
  endloop
endfacet
facet normal 0.7178338742206125 0.6285099082468504 0.29948259424708074
  outer loop
    vertex 33.00000000000001 0.0 46.999999999999964
    vertex 32.27790279370251 -0.5965519713759374 49.98275985687966
    vertex 33.44255693335314 -0.9655197137593761 47.96551971375935
  endloop
endfacet
facet normal 6.84450069872983e-17 0.9805806756909203 0.19611613513818374
  outer loop
    vertex 8.7220972062975 -0.5965519713759359 49.98275985687966
    vertex 9.999999999999998 5.381829428565055e-16 46.99999999999997
    vertex 7.999999999999998 5.606072321421933e-16 46.99999999999997
  endloop
endfacet
facet normal 6.84450069872983e-17 0.9805806756909203 0.19611613513818374
  outer loop
    vertex 9.999999999999998 5.381829428565055e-16 46.99999999999997
    vertex 12.999999999999998 4.867045744093615e-16 46.999999999999964
    vertex 10.999999999999998 5.381829428565055e-16 46.999999999999964
  endloop
endfacet
facet normal 6.84450069872983e-17 0.9805806756909203 0.19611613513818374
  outer loop
    vertex 12.999999999999998 4.867045744093615e-16 46.999999999999964
    vertex 9.999999999999998 5.381829428565055e-16 46.99999999999997
    vertex 13.999999999999996 4.361002074287867e-16 46.999999999999964
  endloop
endfacet
facet normal 6.84450069872983e-17 0.9805806756909203 0.19611613513818374
  outer loop
    vertex 13.999999999999996 4.361002074287867e-16 46.999999999999964
    vertex 9.999999999999998 5.381829428565055e-16 46.99999999999997
    vertex 15.999999999999996 4.361002074287867e-16 46.999999999999964
  endloop
endfacet
facet normal 6.84450069872983e-17 0.9805806756909203 0.19611613513818374
  outer loop
    vertex 15.999999999999996 4.361002074287867e-16 46.999999999999964
    vertex 9.999999999999998 5.381829428565055e-16 46.99999999999997
    vertex 16.999999999999993 4.40619762898109e-16 46.999999999999964
  endloop
endfacet
facet normal 6.84450069872983e-17 0.9805806756909203 0.19611613513818374
  outer loop
    vertex 16.999999999999993 4.40619762898109e-16 46.999999999999964
    vertex 9.999999999999998 5.381829428565055e-16 46.99999999999997
    vertex 19.0 4.40619762898109e-16 46.999999999999964
  endloop
endfacet
facet normal 6.84450069872983e-17 0.9805806756909203 0.19611613513818374
  outer loop
    vertex 19.0 4.40619762898109e-16 46.999999999999964
    vertex 9.999999999999998 5.381829428565055e-16 46.99999999999997
    vertex 19.999999999999996 4.337786234806956e-16 46.999999999999964
  endloop
endfacet
facet normal 6.84450069872983e-17 0.9805806756909203 0.19611613513818374
  outer loop
    vertex 19.999999999999996 4.337786234806956e-16 46.999999999999964
    vertex 9.999999999999998 5.381829428565055e-16 46.99999999999997
    vertex 22.0 4.337786234806956e-16 46.999999999999964
  endloop
endfacet
facet normal 6.84450069872983e-17 0.9805806756909203 0.19611613513818374
  outer loop
    vertex 22.0 4.337786234806956e-16 46.999999999999964
    vertex 9.999999999999998 5.381829428565055e-16 46.99999999999997
    vertex 29.000000000000004 9.878038346405151e-17 46.999999999999964
  endloop
endfacet
facet normal 6.84450069872983e-17 0.9805806756909203 0.19611613513818374
  outer loop
    vertex 29.000000000000004 9.878038346405151e-17 46.999999999999964
    vertex 9.999999999999998 5.381829428565055e-16 46.99999999999997
    vertex 31.000000000000004 2.3399258385065475e-17 46.999999999999964
  endloop
endfacet
facet normal 6.84450069872983e-17 0.9805806756909203 0.19611613513818374
  outer loop
    vertex 31.000000000000004 2.3399258385065475e-17 46.999999999999964
    vertex 9.999999999999998 5.381829428565055e-16 46.99999999999997
    vertex 33.00000000000001 0.0 46.999999999999964
  endloop
endfacet
facet normal 6.84450069872983e-17 0.9805806756909203 0.19611613513818374
  outer loop
    vertex 33.00000000000001 0.0 46.999999999999964
    vertex 9.999999999999998 5.381829428565055e-16 46.99999999999997
    vertex 32.27790279370251 -0.5965519713759374 49.98275985687966
  endloop
endfacet
facet normal 6.84450069872983e-17 0.9805806756909203 0.19611613513818374
  outer loop
    vertex 32.27790279370251 -0.5965519713759374 49.98275985687966
    vertex 9.999999999999998 5.381829428565055e-16 46.99999999999997
    vertex 8.7220972062975 -0.5965519713759359 49.98275985687966
  endloop
endfacet
facet normal 6.84450069872983e-17 0.9805806756909203 0.19611613513818374
  outer loop
    vertex 32.27790279370251 -0.5965519713759374 49.98275985687966
    vertex 8.7220972062975 -0.5965519713759359 49.98275985687966
    vertex 9.886751345948133 -0.9999999999999983 51.99999999999997
  endloop
endfacet
facet normal 6.84450069872983e-17 0.9805806756909203 0.19611613513818374
  outer loop
    vertex 32.27790279370251 -0.5965519713759374 49.98275985687966
    vertex 9.886751345948133 -0.9999999999999983 51.99999999999997
    vertex 31.11324865405188 -0.9999999999999999 51.99999999999997
  endloop
endfacet
facet normal 6.84450069872983e-17 0.9805806756909203 0.19611613513818374
  outer loop
    vertex 22.0 4.337786234806956e-16 46.999999999999964
    vertex 25.0 4.3377862348069553e-16 46.99999999999996
    vertex 22.999999999999996 4.3377862348069553e-16 46.99999999999996
  endloop
endfacet
facet normal 6.84450069872983e-17 0.9805806756909203 0.19611613513818374
  outer loop
    vertex 25.0 4.3377862348069553e-16 46.99999999999996
    vertex 22.0 4.337786234806956e-16 46.999999999999964
    vertex 25.999999999999996 4.3377862348069553e-16 46.99999999999996
  endloop
endfacet
facet normal 6.84450069872983e-17 0.9805806756909203 0.19611613513818374
  outer loop
    vertex 25.999999999999996 4.3377862348069553e-16 46.99999999999996
    vertex 22.0 4.337786234806956e-16 46.999999999999964
    vertex 28.0 4.3377862348069553e-16 46.99999999999996
  endloop
endfacet
facet normal 6.84450069872983e-17 0.9805806756909203 0.19611613513818374
  outer loop
    vertex 28.0 4.3377862348069553e-16 46.99999999999996
    vertex 22.0 4.337786234806956e-16 46.999999999999964
    vertex 29.000000000000004 9.878038346405151e-17 46.999999999999964
  endloop
endfacet
facet normal -0.8660254037844385 0.0 0.5000000000000003
  outer loop
    vertex 9.886751345948133 -0.9999999999999983 51.99999999999997
    vertex 7.557443066646866 -0.9655197137593756 47.96551971375935
    vertex 9.886751345948133 -4.999999999999995 51.99999999999997
  endloop
endfacet
facet normal -0.8660254037844385 0.0 0.5000000000000003
  outer loop
    vertex 7.557443066646866 -0.9655197137593756 47.96551971375935
    vertex 9.886751345948133 -0.9999999999999983 51.99999999999997
    vertex 8.7220972062975 -0.5965519713759359 49.98275985687966
  endloop
endfacet
facet normal -0.7178338742206128 0.6285099082468496 0.2994825942470817
  outer loop
    vertex 7.999999999999998 5.606072321421933e-16 46.99999999999997
    vertex 7.557443066646866 -0.9655197137593756 47.96551971375935
    vertex 8.7220972062975 -0.5965519713759359 49.98275985687966
  endloop
endfacet
facet normal 1.0149351654415783e-17 1.0 -2.2160364439564673e-18
  outer loop
    vertex 7.999999999999998 5.606072321421933e-16 46.99999999999997
    vertex 9.999999999999998 4.3615481596740785e-16 -1.801645252738935e-18
    vertex 7.999999999999998 4.543279332993832e-16 -3.916620114649858e-18
  endloop
endfacet
facet normal 1.0149351654415783e-17 1.0 -2.2160364439564673e-18
  outer loop
    vertex 9.999999999999998 4.3615481596740785e-16 -1.801645252738935e-18
    vertex 7.999999999999998 5.606072321421933e-16 46.99999999999997
    vertex 9.999999999999998 5.381829428565055e-16 46.99999999999997
  endloop
endfacet
facet normal -8.447272043015094e-17 -1.0 3.389382791523921e-18
  outer loop
    vertex 31.11324865405188 -6.999999999999998 51.99999999999997
    vertex 9.88675134594813 -6.999999999999996 6.778765583047842e-18
    vertex 31.11324865405188 -6.999999999999996 6.778765583047842e-18
  endloop
endfacet
facet normal -8.447272043015094e-17 -1.0 3.389382791523921e-18
  outer loop
    vertex 9.88675134594813 -6.999999999999996 6.778765583047842e-18
    vertex 31.11324865405188 -6.999999999999998 51.99999999999997
    vertex 9.886751345948133 -6.999999999999996 51.99999999999997
  endloop
endfacet
facet normal 1.0 -8.447272043015094e-17 -4.58096615966663e-33
  outer loop
    vertex 31.11324865405188 -6.999999999999996 6.778765583047842e-18
    vertex 31.11324865405188 -4.999999999999998 51.99999999999997
    vertex 31.11324865405188 -6.999999999999998 51.99999999999997
  endloop
endfacet
facet normal 1.0 -8.447272043015094e-17 -4.58096615966663e-33
  outer loop
    vertex 31.11324865405188 -4.999999999999998 51.99999999999997
    vertex 31.11324865405188 -6.999999999999996 6.778765583047842e-18
    vertex 31.11324865405188 -4.999999999999995 0.0
  endloop
endfacet
facet normal -1.0 8.447272043015094e-17 2.7115062332191335e-17
  outer loop
    vertex 9.886751345948133 -4.999999999999995 51.99999999999997
    vertex 9.88675134594813 -6.999999999999996 6.778765583047842e-18
    vertex 9.886751345948133 -6.999999999999996 51.99999999999997
  endloop
endfacet
facet normal -1.0 8.447272043015094e-17 2.7115062332191335e-17
  outer loop
    vertex 9.88675134594813 -6.999999999999996 6.778765583047842e-18
    vertex 9.886751345948133 -4.999999999999995 51.99999999999997
    vertex 9.88675134594813 -4.999999999999996 0.0
  endloop
endfacet
facet normal 1.0590627813303405e-17 1.0 -4.7191548052311676e-20
  outer loop
    vertex 31.000000000000004 2.3399258385065475e-17 46.999999999999964
    vertex 33.00000000000001 0.0 0.0
    vertex 31.000000000000004 1.896325286814818e-17 -7.833240229299724e-20
  endloop
endfacet
facet normal 1.0590627813303405e-17 1.0 -4.7191548052311676e-20
  outer loop
    vertex 33.00000000000001 0.0 0.0
    vertex 31.000000000000004 2.3399258385065475e-17 46.999999999999964
    vertex 33.00000000000001 0.0 46.999999999999964
  endloop
endfacet
facet normal 4.966566227372154e-18 1.0 -2.2764828322653173e-18
  outer loop
    vertex 9.999999999999998 5.381829428565055e-16 46.99999999999997
    vertex 11.0 4.262216835126635e-16 -8.597913680255166e-19
    vertex 9.999999999999998 4.3615481596740785e-16 -1.801645252738935e-18
  endloop
endfacet
facet normal 4.966566227372154e-18 1.0 -2.2764828322653173e-18
  outer loop
    vertex 11.0 4.262216835126635e-16 -8.597913680255166e-19
    vertex 9.999999999999998 5.381829428565055e-16 46.99999999999997
    vertex 10.999999999999998 5.381829428565055e-16 46.999999999999964
  endloop
endfacet
facet normal 2.5302183490287432e-17 1.0 -5.383443295805829e-19
  outer loop
    vertex 12.999999999999998 4.867045744093615e-16 46.999999999999964
    vertex 13.999999999999996 4.361002074287867e-16 10.0
    vertex 13.005544999999996 4.361002074287867e-16 10.0
  endloop
endfacet
facet normal 2.5302183490287432e-17 1.0 -5.383443295805829e-19
  outer loop
    vertex 13.999999999999996 4.361002074287867e-16 10.0
    vertex 12.999999999999998 4.867045744093615e-16 46.999999999999964
    vertex 13.999999999999996 4.361002074287867e-16 46.999999999999964
  endloop
endfacet
facet normal 3.2290443968023777e-16 0.9574737880737461 -0.28852026818182336
  outer loop
    vertex 11.0 -1.9999999999999996 10.0
    vertex 12.999999999999998 -5.013349 3.0680203775593314e-18
    vertex 11.0 -5.013349 2.599051745259947e-18
  endloop
endfacet
facet normal 3.2290443968023777e-16 0.9574737880737461 -0.28852026818182336
  outer loop
    vertex 12.999999999999998 -5.013349 3.0680203775593314e-18
    vertex 11.0 -1.9999999999999996 10.0
    vertex 12.999999999999998 -1.9999999999999996 10.000000000000004
  endloop
endfacet
facet normal -4.4513900046643956e-35 -1.729421556642732e-18 -1.0
  outer loop
    vertex 12.999999999999998 4.867045744093615e-16 46.999999999999964
    vertex 10.999999999999998 -1.9999999999999991 46.999999999999964
    vertex 10.999999999999998 5.381829428565055e-16 46.999999999999964
  endloop
endfacet
facet normal -4.4513900046643956e-35 -1.729421556642732e-18 -1.0
  outer loop
    vertex 10.999999999999998 -1.9999999999999991 46.999999999999964
    vertex 12.999999999999998 4.867045744093615e-16 46.999999999999964
    vertex 12.999999999999998 -1.9999999999999996 46.999999999999964
  endloop
endfacet
facet normal -1.0 0.0 0.0
  outer loop
    vertex 12.999999999999998 4.867045744093615e-16 46.999999999999964
    vertex 12.999999999999998 -1.9999999999999996 10.000000000000004
    vertex 12.999999999999998 -1.9999999999999996 46.999999999999964
  endloop
endfacet
facet normal -1.0 0.0 0.0
  outer loop
    vertex 12.999999999999998 -1.9999999999999996 10.000000000000004
    vertex 12.999999999999998 4.867045744093615e-16 46.999999999999964
    vertex 13.005544999999996 4.361002074287867e-16 10.0
  endloop
endfacet
facet normal -1.0 0.0 0.0
  outer loop
    vertex 12.999999999999998 -1.9999999999999996 10.000000000000004
    vertex 13.005544999999996 -2.499999999999999 -1.2249606026059124e-20
    vertex 12.999999999999998 -5.013349 3.0680203775593314e-18
  endloop
endfacet
facet normal -1.0 0.0 0.0
  outer loop
    vertex 13.005544999999996 -2.499999999999999 -1.2249606026059124e-20
    vertex 12.999999999999998 -1.9999999999999996 10.000000000000004
    vertex 13.005544999999996 4.361002074287867e-16 10.0
  endloop
endfacet
facet normal 1.0 -2.871226489915527e-18 3.14651320045299e-17
  outer loop
    vertex 11.0 4.262216835126635e-16 -8.597913680255166e-19
    vertex 11.0 -1.9999999999999996 10.0
    vertex 11.0 -5.013349 2.599051745259947e-18
  endloop
endfacet
facet normal 1.0 -2.871226489915527e-18 3.14651320045299e-17
  outer loop
    vertex 11.0 -1.9999999999999996 10.0
    vertex 11.0 4.262216835126635e-16 -8.597913680255166e-19
    vertex 10.999999999999998 -1.9999999999999991 46.999999999999964
  endloop
endfacet
facet normal 1.0 -2.871226489915527e-18 3.14651320045299e-17
  outer loop
    vertex 10.999999999999998 -1.9999999999999991 46.999999999999964
    vertex 11.0 4.262216835126635e-16 -8.597913680255166e-19
    vertex 10.999999999999998 5.381829428565055e-16 46.999999999999964
  endloop
endfacet
facet normal 1.6757156353729108e-19 -8.367931080428779e-19 -1.0
  outer loop
    vertex 33.00000000000001 0.0 0.0
    vertex 31.000000000000004 -2.999999999999999 5.5217566391905646e-18
    vertex 31.000000000000004 1.896325286814818e-17 -7.833240229299724e-20
  endloop
endfacet
facet normal 1.6757156353729108e-19 -8.367931080428779e-19 -1.0
  outer loop
    vertex 31.000000000000004 -2.999999999999999 5.5217566391905646e-18
    vertex 33.00000000000001 0.0 0.0
    vertex 31.11324865405188 -4.999999999999995 0.0
  endloop
endfacet
facet normal 1.6757156353729108e-19 -8.367931080428779e-19 -1.0
  outer loop
    vertex 31.11324865405188 -4.999999999999995 0.0
    vertex 33.00000000000001 0.0 0.0
    vertex 33.44255693335314 -0.9655197137593756 0.0
  endloop
endfacet
facet normal 1.6757156353729108e-19 -8.367931080428779e-19 -1.0
  outer loop
    vertex 7.999999999999998 4.543279332993832e-16 -3.916620114649858e-18
    vertex 9.88675134594813 -4.999999999999996 0.0
    vertex 7.557443066646866 -0.9655197137593756 0.0
  endloop
endfacet
facet normal 1.6757156353729108e-19 -8.367931080428779e-19 -1.0
  outer loop
    vertex 9.88675134594813 -4.999999999999996 0.0
    vertex 7.999999999999998 4.543279332993832e-16 -3.916620114649858e-18
    vertex 9.999999999999998 4.3615481596740785e-16 -1.801645252738935e-18
  endloop
endfacet
facet normal 1.6757156353729108e-19 -8.367931080428779e-19 -1.0
  outer loop
    vertex 9.88675134594813 -4.999999999999996 0.0
    vertex 9.999999999999998 4.3615481596740785e-16 -1.801645252738935e-18
    vertex 9.88675134594813 -6.999999999999996 6.778765583047842e-18
  endloop
endfacet
facet normal 1.6757156353729108e-19 -8.367931080428779e-19 -1.0
  outer loop
    vertex 9.88675134594813 -6.999999999999996 6.778765583047842e-18
    vertex 9.999999999999998 4.3615481596740785e-16 -1.801645252738935e-18
    vertex 11.0 -5.013349 2.599051745259947e-18
  endloop
endfacet
facet normal 1.6757156353729108e-19 -8.367931080428779e-19 -1.0
  outer loop
    vertex 9.88675134594813 -6.999999999999996 6.778765583047842e-18
    vertex 11.0 -5.013349 2.599051745259947e-18
    vertex 31.11324865405188 -6.999999999999996 6.778765583047842e-18
  endloop
endfacet
facet normal 1.6757156353729108e-19 -8.367931080428779e-19 -1.0
  outer loop
    vertex 11.0 -5.013349 2.599051745259947e-18
    vertex 9.999999999999998 4.3615481596740785e-16 -1.801645252738935e-18
    vertex 11.0 4.262216835126635e-16 -8.597913680255166e-19
  endloop
endfacet
facet normal 1.6757156353729108e-19 -8.367931080428779e-19 -1.0
  outer loop
    vertex 31.11324865405188 -6.999999999999996 6.778765583047842e-18
    vertex 11.0 -5.013349 2.599051745259947e-18
    vertex 12.999999999999998 -5.013349 3.0680203775593314e-18
  endloop
endfacet
facet normal 1.6757156353729108e-19 -8.367931080428779e-19 -1.0
  outer loop
    vertex 31.11324865405188 -6.999999999999996 6.778765583047842e-18
    vertex 12.999999999999998 -5.013349 3.0680203775593314e-18
    vertex 13.999999999999996 -4.999999999999999 -1.2249606026059124e-20
  endloop
endfacet
facet normal 1.6757156353729108e-19 -8.367931080428779e-19 -1.0
  outer loop
    vertex 13.999999999999996 -4.999999999999999 -1.2249606026059124e-20
    vertex 12.999999999999998 -5.013349 3.0680203775593314e-18
    vertex 13.005544999999996 -2.499999999999999 -1.2249606026059124e-20
  endloop
endfacet
facet normal 1.6757156353729108e-19 -8.367931080428779e-19 -1.0
  outer loop
    vertex 13.999999999999996 -4.999999999999999 -1.2249606026059124e-20
    vertex 13.005544999999996 -2.499999999999999 -1.2249606026059124e-20
    vertex 13.999999999999996 -2.499999999999999 -1.2249606026059124e-20
  endloop
endfacet
facet normal 1.6757156353729108e-19 -8.367931080428779e-19 -1.0
  outer loop
    vertex 31.11324865405188 -6.999999999999996 6.778765583047842e-18
    vertex 13.999999999999996 -4.999999999999999 -1.2249606026059124e-20
    vertex 15.999999999999996 -4.999999999999999 -1.2249606026059124e-20
  endloop
endfacet
facet normal 1.6757156353729108e-19 -8.367931080428779e-19 -1.0
  outer loop
    vertex 31.11324865405188 -6.999999999999996 6.778765583047842e-18
    vertex 15.999999999999996 -4.999999999999999 -1.2249606026059124e-20
    vertex 16.999999999999993 -4.9999999999999964 1.6551456415691417e-18
  endloop
endfacet
facet normal 1.6757156353729108e-19 -8.367931080428779e-19 -1.0
  outer loop
    vertex 16.999999999999993 -4.9999999999999964 1.6551456415691417e-18
    vertex 15.999999999999996 -4.999999999999999 -1.2249606026059124e-20
    vertex 16.00554499999999 -2.499999999999998 8.293212928169454e-19
  endloop
endfacet
facet normal 1.6757156353729108e-19 -8.367931080428779e-19 -1.0
  outer loop
    vertex 16.999999999999993 -4.9999999999999964 1.6551456415691417e-18
    vertex 16.00554499999999 -2.499999999999998 8.293212928169454e-19
    vertex 16.999999999999993 -2.499999999999998 8.293212928169454e-19
  endloop
endfacet
facet normal 1.6757156353729108e-19 -8.367931080428779e-19 -1.0
  outer loop
    vertex 31.11324865405188 -6.999999999999996 6.778765583047842e-18
    vertex 16.999999999999993 -4.9999999999999964 1.6551456415691417e-18
    vertex 19.0 -4.9999999999999964 1.6551456415691417e-18
  endloop
endfacet
facet normal 1.6757156353729108e-19 -8.367931080428779e-19 -1.0
  outer loop
    vertex 31.11324865405188 -6.999999999999996 6.778765583047842e-18
    vertex 19.0 -4.9999999999999964 1.6551456415691417e-18
    vertex 19.999999999999996 -4.999999999999999 4.4041939420636314e-18
  endloop
endfacet
facet normal 1.6757156353729108e-19 -8.367931080428779e-19 -1.0
  outer loop
    vertex 19.999999999999996 -4.999999999999999 4.4041939420636314e-18
    vertex 19.0 -4.9999999999999964 1.6551456415691417e-18
    vertex 19.005544999999998 -2.4999999999999996 2.6747723854208996e-18
  endloop
endfacet
facet normal 1.6757156353729108e-19 -8.367931080428779e-19 -1.0
  outer loop
    vertex 19.999999999999996 -4.999999999999999 4.4041939420636314e-18
    vertex 19.005544999999998 -2.4999999999999996 2.6747723854208996e-18
    vertex 19.999999999999996 -2.4999999999999996 2.6747723854208996e-18
  endloop
endfacet
facet normal 1.6757156353729108e-19 -8.367931080428779e-19 -1.0
  outer loop
    vertex 31.11324865405188 -6.999999999999996 6.778765583047842e-18
    vertex 19.999999999999996 -4.999999999999999 4.4041939420636314e-18
    vertex 22.0 -4.999999999999999 4.873162574363016e-18
  endloop
endfacet
facet normal 1.6757156353729108e-19 -8.367931080428779e-19 -1.0
  outer loop
    vertex 31.11324865405188 -6.999999999999996 6.778765583047842e-18
    vertex 22.0 -4.999999999999999 4.873162574363016e-18
    vertex 22.999999999999996 -4.999999999999999 5.8150164590764345e-18
  endloop
endfacet
facet normal 1.6757156353729108e-19 -8.367931080428779e-19 -1.0
  outer loop
    vertex 22.999999999999996 -4.999999999999999 5.8150164590764345e-18
    vertex 22.0 -4.999999999999999 4.873162574363016e-18
    vertex 22.000000000000004 -2.4999999999999996 4.085594902433703e-18
  endloop
endfacet
facet normal 1.6757156353729108e-19 -8.367931080428779e-19 -1.0
  outer loop
    vertex 22.999999999999996 -4.999999999999999 5.8150164590764345e-18
    vertex 22.000000000000004 -2.4999999999999996 4.085594902433703e-18
    vertex 22.999999999999996 -2.4999999999999996 4.085594902433703e-18
  endloop
endfacet
facet normal 1.6757156353729108e-19 -8.367931080428779e-19 -1.0
  outer loop
    vertex 31.11324865405188 -6.999999999999996 6.778765583047842e-18
    vertex 22.999999999999996 -4.999999999999999 5.8150164590764345e-18
    vertex 25.0 -4.999999999999999 6.283985091375818e-18
  endloop
endfacet
facet normal 1.6757156353729108e-19 -8.367931080428779e-19 -1.0
  outer loop
    vertex 31.11324865405188 -6.999999999999996 6.778765583047842e-18
    vertex 25.0 -4.999999999999999 6.283985091375818e-18
    vertex 25.999999999999996 -4.999999999999999 7.225838976089236e-18
  endloop
endfacet
facet normal 1.6757156353729108e-19 -8.367931080428779e-19 -1.0
  outer loop
    vertex 25.999999999999996 -4.999999999999999 7.225838976089236e-18
    vertex 25.0 -4.999999999999999 6.283985091375818e-18
    vertex 25.000000000000004 -2.4999999999999996 5.496417419446504e-18
  endloop
endfacet
facet normal 1.6757156353729108e-19 -8.367931080428779e-19 -1.0
  outer loop
    vertex 25.999999999999996 -4.999999999999999 7.225838976089236e-18
    vertex 25.000000000000004 -2.4999999999999996 5.496417419446504e-18
    vertex 25.999999999999996 -2.4999999999999996 5.496417419446504e-18
  endloop
endfacet
facet normal 1.6757156353729108e-19 -8.367931080428779e-19 -1.0
  outer loop
    vertex 31.11324865405188 -6.999999999999996 6.778765583047842e-18
    vertex 25.999999999999996 -4.999999999999999 7.225838976089236e-18
    vertex 28.0 -4.999999999999999 7.694807608388621e-18
  endloop
endfacet
facet normal 1.6757156353729108e-19 -8.367931080428779e-19 -1.0
  outer loop
    vertex 31.11324865405188 -6.999999999999996 6.778765583047842e-18
    vertex 28.0 -4.999999999999999 7.694807608388621e-18
    vertex 28.000000000000018 -1.4999999999999996 2.9973209458022987e-18
  endloop
endfacet
facet normal 1.6757156353729108e-19 -8.367931080428779e-19 -1.0
  outer loop
    vertex 31.11324865405188 -6.999999999999996 6.778765583047842e-18
    vertex 28.000000000000018 -1.4999999999999996 2.9973209458022987e-18
    vertex 29.000000000000004 -2.999999999999999 5.05278800689118e-18
  endloop
endfacet
facet normal 1.6757156353729108e-19 -8.367931080428779e-19 -1.0
  outer loop
    vertex 29.000000000000004 -2.999999999999999 5.05278800689118e-18
    vertex 28.000000000000018 -1.4999999999999996 2.9973209458022987e-18
    vertex 29.000000000000004 -1.4999999999999996 2.9973209458022987e-18
  endloop
endfacet
facet normal 1.6757156353729108e-19 -8.367931080428779e-19 -1.0
  outer loop
    vertex 31.11324865405188 -6.999999999999996 6.778765583047842e-18
    vertex 29.000000000000004 -2.999999999999999 5.05278800689118e-18
    vertex 31.000000000000004 -2.999999999999999 5.5217566391905646e-18
  endloop
endfacet
facet normal 1.6757156353729108e-19 -8.367931080428779e-19 -1.0
  outer loop
    vertex 31.11324865405188 -6.999999999999996 6.778765583047842e-18
    vertex 31.000000000000004 -2.999999999999999 5.5217566391905646e-18
    vertex 31.11324865405188 -4.999999999999995 0.0
  endloop
endfacet
facet normal 0.0 0.0 -1.0
  outer loop
    vertex 15.999999999999996 4.361002074287867e-16 46.999999999999964
    vertex 13.999999999999996 -1.9999999999999996 46.999999999999964
    vertex 13.999999999999996 4.361002074287867e-16 46.999999999999964
  endloop
endfacet
facet normal 0.0 0.0 -1.0
  outer loop
    vertex 13.999999999999996 -1.9999999999999996 46.999999999999964
    vertex 15.999999999999996 4.361002074287867e-16 46.999999999999964
    vertex 15.999999999999996 -1.9999999999999996 46.999999999999964
  endloop
endfacet
facet normal -0.9999993906552476 0.00109843517447572 -0.00011013310812630503
  outer loop
    vertex 15.999999999999996 4.361002074287867e-16 46.999999999999964
    vertex 15.999999999999996 -1.9999999999999996 10.000000000000004
    vertex 15.999999999999996 -1.9999999999999996 46.999999999999964
  endloop
endfacet
facet normal -0.9999993906552476 0.00109843517447572 -0.00011013310812630503
  outer loop
    vertex 15.999999999999996 -1.9999999999999996 10.000000000000004
    vertex 16.00554499999999 -2.499999999999998 8.293212928169454e-19
    vertex 15.999999999999996 -4.999999999999999 -1.2249606026059124e-20
  endloop
endfacet
facet normal -0.9999993906552476 0.00109843517447572 -0.00011013310812630503
  outer loop
    vertex 16.00554499999999 -2.499999999999998 8.293212928169454e-19
    vertex 15.999999999999996 -1.9999999999999996 10.000000000000004
    vertex 16.00554499999999 4.40619762898109e-16 10.0
  endloop
endfacet
facet normal -0.9999993906552476 0.00109843517447572 -0.00011013310812630503
  outer loop
    vertex 16.00554499999999 4.40619762898109e-16 10.0
    vertex 15.999999999999996 -1.9999999999999996 10.000000000000004
    vertex 15.999999999999996 4.361002074287867e-16 46.999999999999964
  endloop
endfacet
facet normal -6.699840402231091e-17 0.9578262852211515 -0.28734788556634533
  outer loop
    vertex 13.999999999999996 -1.9999999999999996 10.000000000000004
    vertex 15.999999999999996 -4.999999999999999 -1.2249606026059124e-20
    vertex 13.999999999999996 -4.999999999999999 -1.2249606026059124e-20
  endloop
endfacet
facet normal -6.699840402231091e-17 0.9578262852211515 -0.28734788556634533
  outer loop
    vertex 15.999999999999996 -4.999999999999999 -1.2249606026059124e-20
    vertex 13.999999999999996 -1.9999999999999996 10.000000000000004
    vertex 15.999999999999996 -1.9999999999999996 10.000000000000004
  endloop
endfacet
facet normal -2.272342942384016e-18 1.0 6.09048017257669e-20
  outer loop
    vertex 15.999999999999996 4.361002074287867e-16 46.999999999999964
    vertex 16.999999999999993 4.40619762898109e-16 10.0
    vertex 16.00554499999999 4.40619762898109e-16 10.0
  endloop
endfacet
facet normal -2.272342942384016e-18 1.0 6.09048017257669e-20
  outer loop
    vertex 16.999999999999993 4.40619762898109e-16 10.0
    vertex 15.999999999999996 4.361002074287867e-16 46.999999999999964
    vertex 16.999999999999993 4.40619762898109e-16 46.999999999999964
  endloop
endfacet
facet normal 0.0 0.0 -1.0
  outer loop
    vertex 19.0 4.40619762898109e-16 46.999999999999964
    vertex 16.999999999999993 -1.9999999999999967 46.999999999999964
    vertex 16.999999999999993 4.40619762898109e-16 46.999999999999964
  endloop
endfacet
facet normal 0.0 0.0 -1.0
  outer loop
    vertex 16.999999999999993 -1.9999999999999967 46.999999999999964
    vertex 19.0 4.40619762898109e-16 46.999999999999964
    vertex 19.0 -1.9999999999999967 46.999999999999964
  endloop
endfacet
facet normal -1.0 0.0 0.0
  outer loop
    vertex 19.0 -1.999999999999998 10.000000000000004
    vertex 19.005544999999998 -2.4999999999999996 2.6747723854208996e-18
    vertex 19.0 -4.9999999999999964 1.6551456415691417e-18
  endloop
endfacet
facet normal -1.0 0.0 0.0
  outer loop
    vertex 19.005544999999998 -2.4999999999999996 2.6747723854208996e-18
    vertex 19.0 -1.999999999999998 10.000000000000004
    vertex 19.005544999999998 3.6979002588491457e-16 10.0
  endloop
endfacet
facet normal -1.0 0.0 0.0
  outer loop
    vertex 19.005544999999998 3.6979002588491457e-16 10.0
    vertex 19.0 -1.999999999999998 10.000000000000004
    vertex 19.0 -1.9999999999999967 46.999999999999964
  endloop
endfacet
facet normal -1.0 0.0 0.0
  outer loop
    vertex 19.005544999999998 3.6979002588491457e-16 10.0
    vertex 19.0 -1.9999999999999967 46.999999999999964
    vertex 19.0 4.40619762898109e-16 46.999999999999964
  endloop
endfacet
facet normal -0.0 0.9578262852211515 -0.28734788556634516
  outer loop
    vertex 16.999999999999993 -1.999999999999998 10.000000000000004
    vertex 19.0 -4.9999999999999964 1.6551456415691417e-18
    vertex 16.999999999999993 -4.9999999999999964 1.6551456415691417e-18
  endloop
endfacet
facet normal -0.0 0.9578262852211515 -0.28734788556634516
  outer loop
    vertex 19.0 -4.9999999999999964 1.6551456415691417e-18
    vertex 16.999999999999993 -1.999999999999998 10.000000000000004
    vertex 19.0 -1.999999999999998 10.000000000000004
  endloop
endfacet
facet normal 4.748254599851768e-17 1.0 -8.647107783213669e-19
  outer loop
    vertex 19.0 4.40619762898109e-16 46.999999999999964
    vertex 19.999999999999996 3.6979002588491457e-16 10.0
    vertex 19.005544999999998 3.6979002588491457e-16 10.0
  endloop
endfacet
facet normal 4.748254599851768e-17 1.0 -8.647107783213669e-19
  outer loop
    vertex 19.999999999999996 3.6979002588491457e-16 10.0
    vertex 19.0 4.40619762898109e-16 46.999999999999964
    vertex 19.999999999999996 4.337786234806956e-16 46.999999999999964
  endloop
endfacet
facet normal 0.0 0.0 -1.0
  outer loop
    vertex 22.0 4.337786234806956e-16 46.999999999999964
    vertex 19.999999999999996 -1.999999999999999 46.999999999999964
    vertex 19.999999999999996 4.337786234806956e-16 46.999999999999964
  endloop
endfacet
facet normal 0.0 0.0 -1.0
  outer loop
    vertex 19.999999999999996 -1.999999999999999 46.999999999999964
    vertex 22.0 4.337786234806956e-16 46.999999999999964
    vertex 22.0 -1.999999999999999 46.999999999999964
  endloop
endfacet
facet normal -1.0 2.120830181911044e-16 -2.867839071777573e-17
  outer loop
    vertex 22.0 -1.9999999999999991 10.000000000000004
    vertex 22.000000000000004 -2.4999999999999996 4.085594902433703e-18
    vertex 22.0 -4.999999999999999 4.873162574363016e-18
  endloop
endfacet
facet normal -1.0 2.120830181911044e-16 -2.867839071777573e-17
  outer loop
    vertex 22.000000000000004 -2.4999999999999996 4.085594902433703e-18
    vertex 22.0 -1.9999999999999991 10.000000000000004
    vertex 22.000000000000004 3.6979002588491447e-16 10.0
  endloop
endfacet
facet normal -1.0 2.120830181911044e-16 -2.867839071777573e-17
  outer loop
    vertex 22.000000000000004 3.6979002588491447e-16 10.0
    vertex 22.0 -1.9999999999999991 10.000000000000004
    vertex 22.0 -1.999999999999999 46.999999999999964
  endloop
endfacet
facet normal -1.0 2.120830181911044e-16 -2.867839071777573e-17
  outer loop
    vertex 22.000000000000004 3.6979002588491447e-16 10.0
    vertex 22.0 -1.999999999999999 46.999999999999964
    vertex 22.0 4.337786234806956e-16 46.999999999999964
  endloop
endfacet
facet normal -0.0 0.9578262852211515 -0.28734788556634533
  outer loop
    vertex 19.999999999999996 -1.9999999999999991 10.000000000000004
    vertex 22.0 -4.999999999999999 4.873162574363016e-18
    vertex 19.999999999999996 -4.999999999999999 4.4041939420636314e-18
  endloop
endfacet
facet normal -0.0 0.9578262852211515 -0.28734788556634533
  outer loop
    vertex 22.0 -4.999999999999999 4.873162574363016e-18
    vertex 19.999999999999996 -1.9999999999999991 10.000000000000004
    vertex 22.0 -1.9999999999999991 10.000000000000004
  endloop
endfacet
facet normal 3.1360012638887153e-32 1.0 -1.729421556642734e-18
  outer loop
    vertex 22.0 4.337786234806956e-16 46.999999999999964
    vertex 22.999999999999996 3.6979002588491447e-16 10.0
    vertex 22.000000000000004 3.6979002588491447e-16 10.0
  endloop
endfacet
facet normal 3.1360012638887153e-32 1.0 -1.729421556642734e-18
  outer loop
    vertex 22.999999999999996 3.6979002588491447e-16 10.0
    vertex 22.0 4.337786234806956e-16 46.999999999999964
    vertex 22.999999999999996 4.3377862348069553e-16 46.99999999999996
  endloop
endfacet
facet normal 0.0 0.0 -1.0
  outer loop
    vertex 25.0 4.3377862348069553e-16 46.99999999999996
    vertex 22.999999999999996 -1.999999999999999 46.99999999999996
    vertex 22.999999999999996 4.3377862348069553e-16 46.99999999999996
  endloop
endfacet
facet normal 0.0 0.0 -1.0
  outer loop
    vertex 22.999999999999996 -1.999999999999999 46.99999999999996
    vertex 25.0 4.3377862348069553e-16 46.99999999999996
    vertex 25.0 -1.999999999999999 46.99999999999996
  endloop
endfacet
facet normal -1.0 2.120830181911044e-16 -2.867839071777573e-17
  outer loop
    vertex 25.0 -1.9999999999999991 10.000000000000004
    vertex 25.000000000000004 -2.4999999999999996 5.496417419446504e-18
    vertex 25.0 -4.999999999999999 6.283985091375818e-18
  endloop
endfacet
facet normal -1.0 2.120830181911044e-16 -2.867839071777573e-17
  outer loop
    vertex 25.000000000000004 -2.4999999999999996 5.496417419446504e-18
    vertex 25.0 -1.9999999999999991 10.000000000000004
    vertex 25.000000000000004 3.6979002588491447e-16 10.0
  endloop
endfacet
facet normal -1.0 2.120830181911044e-16 -2.867839071777573e-17
  outer loop
    vertex 25.000000000000004 3.6979002588491447e-16 10.0
    vertex 25.0 -1.9999999999999991 10.000000000000004
    vertex 25.0 -1.999999999999999 46.99999999999996
  endloop
endfacet
facet normal -1.0 2.120830181911044e-16 -2.867839071777573e-17
  outer loop
    vertex 25.000000000000004 3.6979002588491447e-16 10.0
    vertex 25.0 -1.999999999999999 46.99999999999996
    vertex 25.0 4.3377862348069553e-16 46.99999999999996
  endloop
endfacet
facet normal -0.0 0.9578262852211515 -0.28734788556634533
  outer loop
    vertex 22.999999999999996 -1.9999999999999991 10.000000000000004
    vertex 25.0 -4.999999999999999 6.283985091375818e-18
    vertex 22.999999999999996 -4.999999999999999 5.8150164590764345e-18
  endloop
endfacet
facet normal -0.0 0.9578262852211515 -0.28734788556634533
  outer loop
    vertex 25.0 -4.999999999999999 6.283985091375818e-18
    vertex 22.999999999999996 -1.9999999999999991 10.000000000000004
    vertex 25.0 -1.9999999999999991 10.000000000000004
  endloop
endfacet
facet normal 0.0 0.0 -1.0
  outer loop
    vertex 28.0 4.3377862348069553e-16 46.99999999999996
    vertex 25.999999999999996 -1.999999999999999 46.99999999999996
    vertex 25.999999999999996 4.3377862348069553e-16 46.99999999999996
  endloop
endfacet
facet normal 0.0 0.0 -1.0
  outer loop
    vertex 25.999999999999996 -1.999999999999999 46.99999999999996
    vertex 28.0 4.3377862348069553e-16 46.99999999999996
    vertex 28.0 -1.999999999999999 46.99999999999996
  endloop
endfacet
facet normal -1.0 1.701349204918873e-15 -1.862557479918394e-16
  outer loop
    vertex 28.000000000000004 -1.9999999999999991 10.000000000000002
    vertex 28.000000000000018 -1.4999999999999996 2.9973209458022987e-18
    vertex 28.0 -4.999999999999999 7.694807608388621e-18
  endloop
endfacet
facet normal -1.0 1.701349204918873e-15 -1.862557479918394e-16
  outer loop
    vertex 28.000000000000018 -1.4999999999999996 2.9973209458022987e-18
    vertex 28.000000000000004 -1.9999999999999991 10.000000000000002
    vertex 28.0 -1.999999999999999 46.99999999999996
  endloop
endfacet
facet normal -1.0 1.701349204918873e-15 -1.862557479918394e-16
  outer loop
    vertex 28.000000000000018 -1.4999999999999996 2.9973209458022987e-18
    vertex 28.0 -1.999999999999999 46.99999999999996
    vertex 28.0 4.3377862348069553e-16 46.99999999999996
  endloop
endfacet
facet normal -1.0 1.701349204918873e-15 -1.862557479918394e-16
  outer loop
    vertex 28.000000000000018 -1.4999999999999996 2.9973209458022987e-18
    vertex 28.0 4.3377862348069553e-16 46.99999999999996
    vertex 28.000000000000018 2.101710286469183e-17 10.0
  endloop
endfacet
facet normal -1.6079616965354486e-16 0.9578262852211515 -0.28734788556634544
  outer loop
    vertex 25.999999999999996 -1.9999999999999991 10.000000000000004
    vertex 28.0 -4.999999999999999 7.694807608388621e-18
    vertex 25.999999999999996 -4.999999999999999 7.225838976089236e-18
  endloop
endfacet
facet normal -1.6079616965354486e-16 0.9578262852211515 -0.28734788556634544
  outer loop
    vertex 28.0 -4.999999999999999 7.694807608388621e-18
    vertex 25.999999999999996 -1.9999999999999991 10.000000000000004
    vertex 28.000000000000004 -1.9999999999999991 10.000000000000002
  endloop
endfacet
facet normal 1.6749912000832425e-16 1.0 -6.62871352993731e-18
  outer loop
    vertex 28.0 4.3377862348069553e-16 46.99999999999996
    vertex 29.000000000000004 2.101710286469183e-17 10.0
    vertex 28.000000000000018 2.101710286469183e-17 10.0
  endloop
endfacet
facet normal 1.6749912000832425e-16 1.0 -6.62871352993731e-18
  outer loop
    vertex 29.000000000000004 2.101710286469183e-17 10.0
    vertex 28.0 4.3377862348069553e-16 46.99999999999996
    vertex 29.000000000000004 9.878038346405151e-17 46.999999999999964
  endloop
endfacet
facet normal 0.0 0.0 -1.0
  outer loop
    vertex 31.000000000000004 2.3399258385065475e-17 46.999999999999964
    vertex 29.000000000000004 -1.9999999999999991 46.999999999999964
    vertex 29.000000000000004 9.878038346405151e-17 46.999999999999964
  endloop
endfacet
facet normal 0.0 0.0 -1.0
  outer loop
    vertex 29.000000000000004 -1.9999999999999991 46.999999999999964
    vertex 31.000000000000004 2.3399258385065475e-17 46.999999999999964
    vertex 31.000000000000004 -1.9999999999999991 46.999999999999964
  endloop
endfacet
facet normal -1.0 0.0 0.0
  outer loop
    vertex 31.000000000000004 2.3399258385065475e-17 46.999999999999964
    vertex 31.000000000000004 -1.9999999999999991 10.000000000000004
    vertex 31.000000000000004 -1.9999999999999991 46.999999999999964
  endloop
endfacet
facet normal -1.0 0.0 0.0
  outer loop
    vertex 31.000000000000004 -1.9999999999999991 10.000000000000004
    vertex 31.000000000000004 2.3399258385065475e-17 46.999999999999964
    vertex 31.000000000000004 1.896325286814818e-17 -7.833240229299724e-20
  endloop
endfacet
facet normal -1.0 0.0 0.0
  outer loop
    vertex 31.000000000000004 1.896325286814818e-17 -7.833240229299724e-20
    vertex 31.000000000000004 -2.999999999999999 5.5217566391905646e-18
    vertex 31.000000000000004 -1.9999999999999991 10.000000000000004
  endloop
endfacet
facet normal 4.1760748091093754e-17 0.9950371902099893 -0.0995037190209989
  outer loop
    vertex 29.000000000000004 -1.9999999999999991 10.000000000000002
    vertex 31.000000000000004 -2.999999999999999 5.5217566391905646e-18
    vertex 29.000000000000004 -2.999999999999999 5.05278800689118e-18
  endloop
endfacet
facet normal 4.1760748091093754e-17 0.9950371902099893 -0.0995037190209989
  outer loop
    vertex 31.000000000000004 -2.999999999999999 5.5217566391905646e-18
    vertex 29.000000000000004 -1.9999999999999991 10.000000000000002
    vertex 31.000000000000004 -1.9999999999999991 10.000000000000004
  endloop
endfacet
facet normal 8.812395257962183e-17 1.0 -4.763456896195777e-18
  outer loop
    vertex 10.999999999999998 -1.9999999999999991 46.999999999999964
    vertex 12.999999999999998 -1.9999999999999996 10.000000000000004
    vertex 11.0 -1.9999999999999996 10.0
  endloop
endfacet
facet normal 8.812395257962183e-17 1.0 -4.763456896195777e-18
  outer loop
    vertex 12.999999999999998 -1.9999999999999996 10.000000000000004
    vertex 10.999999999999998 -1.9999999999999991 46.999999999999964
    vertex 12.999999999999998 -1.9999999999999996 46.999999999999964
  endloop
endfacet
facet normal -0.0 1.0 -3.810765516956623e-17
  outer loop
    vertex 16.999999999999993 -1.9999999999999967 46.999999999999964
    vertex 19.0 -1.999999999999998 10.000000000000004
    vertex 16.999999999999993 -1.999999999999998 10.000000000000004
  endloop
endfacet
facet normal -0.0 1.0 -3.810765516956623e-17
  outer loop
    vertex 19.0 -1.999999999999998 10.000000000000004
    vertex 16.999999999999993 -1.9999999999999967 46.999999999999964
    vertex 19.0 -1.9999999999999967 46.999999999999964
  endloop
endfacet
facet normal -7.388033833583755e-33 1.0 -9.526913792391555e-18
  outer loop
    vertex 25.999999999999996 -1.9999999999999991 10.000000000000004
    vertex 28.0 -1.999999999999999 46.99999999999996
    vertex 28.000000000000004 -1.9999999999999991 10.000000000000002
  endloop
endfacet
facet normal -7.388033833583755e-33 1.0 -9.526913792391555e-18
  outer loop
    vertex 28.0 -1.999999999999999 46.99999999999996
    vertex 25.999999999999996 -1.9999999999999991 10.000000000000004
    vertex 25.999999999999996 -1.999999999999999 46.99999999999996
  endloop
endfacet
facet normal -0.0 1.0 -9.526913792391558e-18
  outer loop
    vertex 22.999999999999996 -1.999999999999999 46.99999999999996
    vertex 25.0 -1.9999999999999991 10.000000000000004
    vertex 22.999999999999996 -1.9999999999999991 10.000000000000004
  endloop
endfacet
facet normal -0.0 1.0 -9.526913792391558e-18
  outer loop
    vertex 25.0 -1.9999999999999991 10.000000000000004
    vertex 22.999999999999996 -1.999999999999999 46.99999999999996
    vertex 25.0 -1.999999999999999 46.99999999999996
  endloop
endfacet
facet normal -0.0 1.0 -9.526913792391557e-18
  outer loop
    vertex 19.999999999999996 -1.999999999999999 46.999999999999964
    vertex 22.0 -1.9999999999999991 10.000000000000004
    vertex 19.999999999999996 -1.9999999999999991 10.000000000000004
  endloop
endfacet
facet normal -0.0 1.0 -9.526913792391557e-18
  outer loop
    vertex 22.0 -1.9999999999999991 10.000000000000004
    vertex 19.999999999999996 -1.999999999999999 46.999999999999964
    vertex 22.0 -1.999999999999999 46.999999999999964
  endloop
endfacet
facet normal -0.0 1.0 -0.0
  outer loop
    vertex 13.999999999999996 -1.9999999999999996 46.999999999999964
    vertex 15.999999999999996 -1.9999999999999996 10.000000000000004
    vertex 13.999999999999996 -1.9999999999999996 10.000000000000004
  endloop
endfacet
facet normal -0.0 1.0 -0.0
  outer loop
    vertex 15.999999999999996 -1.9999999999999996 10.000000000000004
    vertex 13.999999999999996 -1.9999999999999996 46.999999999999964
    vertex 15.999999999999996 -1.9999999999999996 46.999999999999964
  endloop
endfacet
facet normal -0.0 1.0 -0.0
  outer loop
    vertex 29.000000000000004 -1.9999999999999991 46.999999999999964
    vertex 31.000000000000004 -1.9999999999999991 10.000000000000004
    vertex 29.000000000000004 -1.9999999999999991 10.000000000000002
  endloop
endfacet
facet normal -0.0 1.0 -0.0
  outer loop
    vertex 31.000000000000004 -1.9999999999999991 10.000000000000004
    vertex 29.000000000000004 -1.9999999999999991 46.999999999999964
    vertex 31.000000000000004 -1.9999999999999991 46.999999999999964
  endloop
endfacet
facet normal 1.0 -0.0 -0.0
  outer loop
    vertex 13.999999999999996 -2.499999999999999 -1.2249606026059124e-20
    vertex 13.999999999999996 -1.9999999999999996 10.000000000000004
    vertex 13.999999999999996 -4.999999999999999 -1.2249606026059124e-20
  endloop
endfacet
facet normal 1.0 -0.0 -0.0
  outer loop
    vertex 13.999999999999996 -1.9999999999999996 10.000000000000004
    vertex 13.999999999999996 -2.499999999999999 -1.2249606026059124e-20
    vertex 13.999999999999996 4.361002074287867e-16 10.0
  endloop
endfacet
facet normal 1.0 -0.0 -0.0
  outer loop
    vertex 13.999999999999996 -1.9999999999999996 10.000000000000004
    vertex 13.999999999999996 4.361002074287867e-16 10.0
    vertex 13.999999999999996 -1.9999999999999996 46.999999999999964
  endloop
endfacet
facet normal 1.0 -0.0 -0.0
  outer loop
    vertex 13.999999999999996 -1.9999999999999996 46.999999999999964
    vertex 13.999999999999996 4.361002074287867e-16 10.0
    vertex 13.999999999999996 4.361002074287867e-16 46.999999999999964
  endloop
endfacet
facet normal 1.0 -0.0 -0.0
  outer loop
    vertex 16.999999999999993 -2.499999999999998 8.293212928169454e-19
    vertex 16.999999999999993 -1.999999999999998 10.000000000000004
    vertex 16.999999999999993 -4.9999999999999964 1.6551456415691417e-18
  endloop
endfacet
facet normal 1.0 -0.0 -0.0
  outer loop
    vertex 16.999999999999993 -1.999999999999998 10.000000000000004
    vertex 16.999999999999993 -2.499999999999998 8.293212928169454e-19
    vertex 16.999999999999993 4.40619762898109e-16 10.0
  endloop
endfacet
facet normal 1.0 -0.0 -0.0
  outer loop
    vertex 16.999999999999993 -1.999999999999998 10.000000000000004
    vertex 16.999999999999993 4.40619762898109e-16 10.0
    vertex 16.999999999999993 -1.9999999999999967 46.999999999999964
  endloop
endfacet
facet normal 1.0 -0.0 -0.0
  outer loop
    vertex 16.999999999999993 -1.9999999999999967 46.999999999999964
    vertex 16.999999999999993 4.40619762898109e-16 10.0
    vertex 16.999999999999993 4.40619762898109e-16 46.999999999999964
  endloop
endfacet
facet normal 1.0 -0.0 -0.0
  outer loop
    vertex 19.999999999999996 -2.4999999999999996 2.6747723854208996e-18
    vertex 19.999999999999996 -1.9999999999999991 10.000000000000004
    vertex 19.999999999999996 -4.999999999999999 4.4041939420636314e-18
  endloop
endfacet
facet normal 1.0 -0.0 -0.0
  outer loop
    vertex 19.999999999999996 -1.9999999999999991 10.000000000000004
    vertex 19.999999999999996 -2.4999999999999996 2.6747723854208996e-18
    vertex 19.999999999999996 3.6979002588491457e-16 10.0
  endloop
endfacet
facet normal 1.0 -0.0 -0.0
  outer loop
    vertex 19.999999999999996 -1.9999999999999991 10.000000000000004
    vertex 19.999999999999996 3.6979002588491457e-16 10.0
    vertex 19.999999999999996 -1.999999999999999 46.999999999999964
  endloop
endfacet
facet normal 1.0 -0.0 -0.0
  outer loop
    vertex 19.999999999999996 -1.999999999999999 46.999999999999964
    vertex 19.999999999999996 3.6979002588491457e-16 10.0
    vertex 19.999999999999996 4.337786234806956e-16 46.999999999999964
  endloop
endfacet
facet normal 1.0 -0.0 -0.0
  outer loop
    vertex 22.999999999999996 -2.4999999999999996 4.085594902433703e-18
    vertex 22.999999999999996 -1.9999999999999991 10.000000000000004
    vertex 22.999999999999996 -4.999999999999999 5.8150164590764345e-18
  endloop
endfacet
facet normal 1.0 -0.0 -0.0
  outer loop
    vertex 22.999999999999996 -1.9999999999999991 10.000000000000004
    vertex 22.999999999999996 -2.4999999999999996 4.085594902433703e-18
    vertex 22.999999999999996 3.6979002588491447e-16 10.0
  endloop
endfacet
facet normal 1.0 -0.0 -0.0
  outer loop
    vertex 22.999999999999996 -1.9999999999999991 10.000000000000004
    vertex 22.999999999999996 3.6979002588491447e-16 10.0
    vertex 22.999999999999996 -1.999999999999999 46.99999999999996
  endloop
endfacet
facet normal 1.0 -0.0 -0.0
  outer loop
    vertex 22.999999999999996 -1.999999999999999 46.99999999999996
    vertex 22.999999999999996 3.6979002588491447e-16 10.0
    vertex 22.999999999999996 4.3377862348069553e-16 46.99999999999996
  endloop
endfacet
facet normal 1.0 -0.0 -0.0
  outer loop
    vertex 25.999999999999996 -2.4999999999999996 5.496417419446504e-18
    vertex 25.999999999999996 -1.9999999999999991 10.000000000000004
    vertex 25.999999999999996 -4.999999999999999 7.225838976089236e-18
  endloop
endfacet
facet normal 1.0 -0.0 -0.0
  outer loop
    vertex 25.999999999999996 -1.9999999999999991 10.000000000000004
    vertex 25.999999999999996 -2.4999999999999996 5.496417419446504e-18
    vertex 25.999999999999996 3.6979002588491447e-16 10.0
  endloop
endfacet
facet normal 1.0 -0.0 -0.0
  outer loop
    vertex 25.999999999999996 -1.9999999999999991 10.000000000000004
    vertex 25.999999999999996 3.6979002588491447e-16 10.0
    vertex 25.999999999999996 -1.999999999999999 46.99999999999996
  endloop
endfacet
facet normal 1.0 -0.0 -0.0
  outer loop
    vertex 25.999999999999996 -1.999999999999999 46.99999999999996
    vertex 25.999999999999996 3.6979002588491447e-16 10.0
    vertex 25.999999999999996 4.3377862348069553e-16 46.99999999999996
  endloop
endfacet
facet normal 1.0 -0.0 -0.0
  outer loop
    vertex 29.000000000000004 -1.4999999999999996 2.9973209458022987e-18
    vertex 29.000000000000004 -1.9999999999999991 10.000000000000002
    vertex 29.000000000000004 -2.999999999999999 5.05278800689118e-18
  endloop
endfacet
facet normal 1.0 -0.0 -0.0
  outer loop
    vertex 29.000000000000004 -1.9999999999999991 10.000000000000002
    vertex 29.000000000000004 -1.4999999999999996 2.9973209458022987e-18
    vertex 29.000000000000004 -1.9999999999999991 46.999999999999964
  endloop
endfacet
facet normal 1.0 -0.0 -0.0
  outer loop
    vertex 29.000000000000004 -1.9999999999999991 46.999999999999964
    vertex 29.000000000000004 -1.4999999999999996 2.9973209458022987e-18
    vertex 29.000000000000004 9.878038346405151e-17 46.999999999999964
  endloop
endfacet
facet normal 1.0 -0.0 -0.0
  outer loop
    vertex 29.000000000000004 9.878038346405151e-17 46.999999999999964
    vertex 29.000000000000004 -1.4999999999999996 2.9973209458022987e-18
    vertex 29.000000000000004 2.101710286469183e-17 10.0
  endloop
endfacet
facet normal -0.0 0.970142500145332 -0.24253562503633297
  outer loop
    vertex 13.005544999999996 4.361002074287867e-16 10.0
    vertex 13.999999999999996 -2.499999999999999 -1.2249606026059124e-20
    vertex 13.005544999999996 -2.499999999999999 -1.2249606026059124e-20
  endloop
endfacet
facet normal -0.0 0.970142500145332 -0.24253562503633297
  outer loop
    vertex 13.999999999999996 -2.499999999999999 -1.2249606026059124e-20
    vertex 13.005544999999996 4.361002074287867e-16 10.0
    vertex 13.999999999999996 4.361002074287867e-16 10.0
  endloop
endfacet
facet normal 4.875657267788016e-31 0.9701425001453321 -0.24253562503633289
  outer loop
    vertex 16.00554499999999 4.40619762898109e-16 10.0
    vertex 16.999999999999993 -2.499999999999998 8.293212928169454e-19
    vertex 16.00554499999999 -2.499999999999998 8.293212928169454e-19
  endloop
endfacet
facet normal 4.875657267788016e-31 0.9701425001453321 -0.24253562503633289
  outer loop
    vertex 16.999999999999993 -2.499999999999998 8.293212928169454e-19
    vertex 16.00554499999999 4.40619762898109e-16 10.0
    vertex 16.999999999999993 4.40619762898109e-16 10.0
  endloop
endfacet
facet normal -0.0 0.970142500145332 -0.242535625036333
  outer loop
    vertex 19.005544999999998 3.6979002588491457e-16 10.0
    vertex 19.999999999999996 -2.4999999999999996 2.6747723854208996e-18
    vertex 19.005544999999998 -2.4999999999999996 2.6747723854208996e-18
  endloop
endfacet
facet normal -0.0 0.970142500145332 -0.242535625036333
  outer loop
    vertex 19.999999999999996 -2.4999999999999996 2.6747723854208996e-18
    vertex 19.005544999999998 3.6979002588491457e-16 10.0
    vertex 19.999999999999996 3.6979002588491457e-16 10.0
  endloop
endfacet
facet normal -0.0 0.9701425001453319 -0.24253562503633297
  outer loop
    vertex 22.000000000000004 3.6979002588491447e-16 10.0
    vertex 22.999999999999996 -2.4999999999999996 4.085594902433703e-18
    vertex 22.000000000000004 -2.4999999999999996 4.085594902433703e-18
  endloop
endfacet
facet normal -0.0 0.9701425001453319 -0.24253562503633297
  outer loop
    vertex 22.999999999999996 -2.4999999999999996 4.085594902433703e-18
    vertex 22.000000000000004 3.6979002588491447e-16 10.0
    vertex 22.999999999999996 3.6979002588491447e-16 10.0
  endloop
endfacet
facet normal -1.662570502650309e-33 1.0 -1.729421556642733e-18
  outer loop
    vertex 25.0 4.3377862348069553e-16 46.99999999999996
    vertex 25.999999999999996 3.6979002588491447e-16 10.0
    vertex 25.000000000000004 3.6979002588491447e-16 10.0
  endloop
endfacet
facet normal -1.662570502650309e-33 1.0 -1.729421556642733e-18
  outer loop
    vertex 25.999999999999996 3.6979002588491447e-16 10.0
    vertex 25.0 4.3377862348069553e-16 46.99999999999996
    vertex 25.999999999999996 4.3377862348069553e-16 46.99999999999996
  endloop
endfacet
facet normal -0.0 0.9701425001453319 -0.24253562503633297
  outer loop
    vertex 25.000000000000004 3.6979002588491447e-16 10.0
    vertex 25.999999999999996 -2.4999999999999996 5.496417419446504e-18
    vertex 25.000000000000004 -2.4999999999999996 5.496417419446504e-18
  endloop
endfacet
facet normal -0.0 0.9701425001453319 -0.24253562503633297
  outer loop
    vertex 25.999999999999996 -2.4999999999999996 5.496417419446504e-18
    vertex 25.000000000000004 3.6979002588491447e-16 10.0
    vertex 25.999999999999996 3.6979002588491447e-16 10.0
  endloop
endfacet
facet normal -0.0 0.9889363528682977 -0.14834045293024462
  outer loop
    vertex 28.000000000000018 2.101710286469183e-17 10.0
    vertex 29.000000000000004 -1.4999999999999996 2.9973209458022987e-18
    vertex 28.000000000000018 -1.4999999999999996 2.9973209458022987e-18
  endloop
endfacet
facet normal -0.0 0.9889363528682977 -0.14834045293024462
  outer loop
    vertex 29.000000000000004 -1.4999999999999996 2.9973209458022987e-18
    vertex 28.000000000000018 2.101710286469183e-17 10.0
    vertex 29.000000000000004 2.101710286469183e-17 10.0
  endloop
endfacet
endsolid ластохвост для головки - Под ламели
