solid Ластохвост-Ответ-FlatCNC
facet normal 0.7205766921228921 -5.419685674935294e-17 -0.6933752452815365
  outer loop
    vertex 3.0 -0.9999999999999999 0.0
    vertex 4.88675134594813 -6.0 1.9607695154586746
    vertex 3.0 -6.0 0.0
  endloop
endfacet
facet normal 0.7205766921228921 -5.419685674935294e-17 -0.6933752452815365
  outer loop
    vertex 4.88675134594813 -6.0 1.9607695154586746
    vertex 3.0 -0.9999999999999999 0.0
    vertex 5.388789129329541 -5.137504140566985 2.482502484340191
  endloop
endfacet
facet normal -0.7205766921228924 0.0 -0.6933752452815362
  outer loop
    vertex 27.61121087067046 -5.1375041405669855 2.4825024843401926
    vertex 30.0 -5.999999999999999 0.0
    vertex 28.113248654051873 -5.999999999999999 1.9607695154586715
  endloop
endfacet
facet normal -0.7205766921228924 0.0 -0.6933752452815362
  outer loop
    vertex 30.0 -5.999999999999999 0.0
    vertex 27.61121087067046 -5.1375041405669855 2.4825024843401926
    vertex 30.0 -0.9999999999999999 0.0
  endloop
endfacet
facet normal 1.6912633602960224e-16 -1.0 4.704227391870827e-18
  outer loop
    vertex 3.0 -6.0 0.0
    vertex -0.9999999999999989 -6.000000000000002 47.999999999999986
    vertex -0.9999999999999999 -6.0 -3.138196578870073e-18
  endloop
endfacet
facet normal 1.6912633602960224e-16 -1.0 4.704227391870827e-18
  outer loop
    vertex -0.9999999999999989 -6.000000000000002 47.999999999999986
    vertex 3.0 -6.0 0.0
    vertex 4.88675134594813 -6.0 1.9607695154586746
  endloop
endfacet
facet normal 1.6912633602960224e-16 -1.0 4.704227391870827e-18
  outer loop
    vertex -0.9999999999999989 -6.000000000000002 47.999999999999986
    vertex 4.88675134594813 -6.0 1.9607695154586746
    vertex 4.88675134594813 -6.0 47.999999999999986
  endloop
endfacet
facet normal 0.8660254037844385 0.5000000000000001 2.7390281897685208e-18
  outer loop
    vertex 5.388789129329541 -5.137504140566985 2.482502484340191
    vertex 3.0 -0.9999999999999999 47.999999999999986
    vertex 5.388789129329541 -5.1375041405669855 47.999999999999986
  endloop
endfacet
facet normal 0.8660254037844385 0.5000000000000001 2.7390281897685208e-18
  outer loop
    vertex 3.0 -0.9999999999999999 47.999999999999986
    vertex 5.388789129329541 -5.137504140566985 2.482502484340191
    vertex 3.0 -0.9999999999999999 0.0
  endloop
endfacet
facet normal -0.8660254037844385 0.5000000000000001 -5.0867666381415376e-18
  outer loop
    vertex 27.61121087067046 -5.1375041405669855 47.999999999999986
    vertex 30.0 -0.9999999999999999 0.0
    vertex 27.61121087067046 -5.1375041405669855 2.4825024843401926
  endloop
endfacet
facet normal -0.8660254037844385 0.5000000000000001 -5.0867666381415376e-18
  outer loop
    vertex 30.0 -0.9999999999999999 0.0
    vertex 27.61121087067046 -5.1375041405669855 47.999999999999986
    vertex 30.0 -0.9999999999999999 47.999999999999986
  endloop
endfacet
facet normal 0.8642516227652245 -0.5030597703530628 -3.9638883740786215e-18
  outer loop
    vertex 5.388789129329541 -5.137504140566985 2.482502484340191
    vertex 4.88675134594813 -6.0 47.999999999999986
    vertex 4.88675134594813 -6.0 1.9607695154586746
  endloop
endfacet
facet normal 0.8642516227652245 -0.5030597703530628 -3.9638883740786215e-18
  outer loop
    vertex 4.88675134594813 -6.0 47.999999999999986
    vertex 5.388789129329541 -5.137504140566985 2.482502484340191
    vertex 5.388789129329541 -5.1375041405669855 47.999999999999986
  endloop
endfacet
facet normal -0.864251622765223 -0.5030597703530651 3.7928731591723145e-18
  outer loop
    vertex 27.61121087067046 -5.1375041405669855 47.999999999999986
    vertex 28.113248654051873 -5.999999999999999 1.9607695154586715
    vertex 28.113248654051873 -5.999999999999999 47.999999999999986
  endloop
endfacet
facet normal -0.864251622765223 -0.5030597703530651 3.7928731591723145e-18
  outer loop
    vertex 28.113248654051873 -5.999999999999999 1.9607695154586715
    vertex 27.61121087067046 -5.1375041405669855 47.999999999999986
    vertex 27.61121087067046 -5.1375041405669855 2.4825024843401926
  endloop
endfacet
facet normal 3.021392659872747e-16 1.0 -1.9093523058918059e-16
  outer loop
    vertex -0.9999999999999994 4.0000000000000036 47.999999999999986
    vertex 34.00000000000001 3.999999999999984 -7.84549144717333e-19
    vertex -0.9999999999999994 4.0000000000000036 -2.353647434152757e-18
  endloop
endfacet
facet normal 3.021392659872747e-16 1.0 -1.9093523058918059e-16
  outer loop
    vertex 34.00000000000001 3.999999999999984 -7.84549144717333e-19
    vertex -0.9999999999999994 4.0000000000000036 47.999999999999986
    vertex 34.00000000000001 4.000000000000003 47.999999999999986
  endloop
endfacet
facet normal -1.0 -5.9952215460931856e-33 1.1015494072452729e-17
  outer loop
    vertex -0.9999999999999994 4.0000000000000036 47.999999999999986
    vertex -0.9999999999999999 -6.0 -3.138196578870073e-18
    vertex -0.9999999999999989 -6.000000000000002 47.999999999999986
  endloop
endfacet
facet normal -1.0 -5.9952215460931856e-33 1.1015494072452729e-17
  outer loop
    vertex -0.9999999999999999 -6.0 -3.138196578870073e-18
    vertex -0.9999999999999994 4.0000000000000036 47.999999999999986
    vertex -0.9999999999999994 4.0000000000000036 -2.353647434152757e-18
  endloop
endfacet
facet normal 3.780525938290306e-20 -7.309234664735329e-19 -1.0
  outer loop
    vertex -0.9999999999999994 4.0000000000000036 -2.353647434152757e-18
    vertex 3.0 -6.0 0.0
    vertex -0.9999999999999999 -6.0 -3.138196578870073e-18
  endloop
endfacet
facet normal 3.780525938290306e-20 -7.309234664735329e-19 -1.0
  outer loop
    vertex 3.0 -6.0 0.0
    vertex -0.9999999999999994 4.0000000000000036 -2.353647434152757e-18
    vertex 3.0 -0.9999999999999999 0.0
  endloop
endfacet
facet normal 3.780525938290306e-20 -7.309234664735329e-19 -1.0
  outer loop
    vertex -0.9999999999999994 4.0000000000000036 -2.353647434152757e-18
    vertex 9.0 1.0000000000000007 -2.2030988144905464e-17
    vertex 3.0 -0.9999999999999999 0.0
  endloop
endfacet
facet normal 3.780525938290306e-20 -7.309234664735329e-19 -1.0
  outer loop
    vertex 9.0 1.0000000000000007 -2.2030988144905464e-17
    vertex -0.9999999999999994 4.0000000000000036 -2.353647434152757e-18
    vertex 34.00000000000001 3.999999999999984 -7.84549144717333e-19
  endloop
endfacet
facet normal 3.780525938290306e-20 -7.309234664735329e-19 -1.0
  outer loop
    vertex 9.0 1.0000000000000007 -2.2030988144905464e-17
    vertex 34.00000000000001 3.999999999999984 -7.84549144717333e-19
    vertex 24.0 1.0000000000000007 -2.2030988144905464e-17
  endloop
endfacet
facet normal 3.780525938290306e-20 -7.309234664735329e-19 -1.0
  outer loop
    vertex 24.0 1.0000000000000007 -2.2030988144905464e-17
    vertex 34.00000000000001 3.999999999999984 -7.84549144717333e-19
    vertex 24.0 -0.9999999999999999 0.0
  endloop
endfacet
facet normal 3.780525938290306e-20 -7.309234664735329e-19 -1.0
  outer loop
    vertex 24.0 -0.9999999999999999 0.0
    vertex 34.00000000000001 3.999999999999984 -7.84549144717333e-19
    vertex 30.0 -0.9999999999999999 0.0
  endloop
endfacet
facet normal 3.780525938290306e-20 -7.309234664735329e-19 -1.0
  outer loop
    vertex 30.0 -0.9999999999999999 0.0
    vertex 34.00000000000001 3.999999999999984 -7.84549144717333e-19
    vertex 30.0 -5.999999999999999 0.0
  endloop
endfacet
facet normal 3.780525938290306e-20 -7.309234664735329e-19 -1.0
  outer loop
    vertex 30.0 -5.999999999999999 0.0
    vertex 34.00000000000001 3.999999999999984 -7.84549144717333e-19
    vertex 34.0 -5.999999999999998 -1.6794711354888622e-32
  endloop
endfacet
facet normal 3.780525938290306e-20 -7.309234664735329e-19 -1.0
  outer loop
    vertex 9.0 -0.9999999999999999 0.0
    vertex 3.0 -0.9999999999999999 0.0
    vertex 9.0 1.0000000000000007 -2.2030988144905464e-17
  endloop
endfacet
facet normal 1.0 -5.639932965095799e-16 1.1835126471821294e-31
  outer loop
    vertex 34.00000000000001 3.999999999999984 -7.84549144717333e-19
    vertex 34.0 -5.9999999999999964 47.999999999999986
    vertex 34.0 -5.999999999999998 -1.6794711354888622e-32
  endloop
endfacet
facet normal 1.0 -5.639932965095799e-16 1.1835126471821294e-31
  outer loop
    vertex 34.0 -5.9999999999999964 47.999999999999986
    vertex 34.00000000000001 3.999999999999984 -7.84549144717333e-19
    vertex 34.00000000000001 4.000000000000003 47.999999999999986
  endloop
endfacet
facet normal 2.063800812979848e-16 -1.0 2.9932137339416895e-17
  outer loop
    vertex 34.0 -5.9999999999999964 47.999999999999986
    vertex 30.0 -5.999999999999999 0.0
    vertex 34.0 -5.999999999999998 -1.6794711354888622e-32
  endloop
endfacet
facet normal 2.063800812979848e-16 -1.0 2.9932137339416895e-17
  outer loop
    vertex 30.0 -5.999999999999999 0.0
    vertex 34.0 -5.9999999999999964 47.999999999999986
    vertex 28.113248654051873 -5.999999999999999 1.9607695154586715
  endloop
endfacet
facet normal 2.063800812979848e-16 -1.0 2.9932137339416895e-17
  outer loop
    vertex 28.113248654051873 -5.999999999999999 1.9607695154586715
    vertex 34.0 -5.9999999999999964 47.999999999999986
    vertex 28.113248654051873 -5.999999999999999 47.999999999999986
  endloop
endfacet
facet normal -5.768113259757058e-17 -1.0 1.0614930651636265e-17
  outer loop
    vertex 30.0 -0.9999999999999999 47.999999999999986
    vertex 24.0 -0.9999999999999999 0.0
    vertex 30.0 -0.9999999999999999 0.0
  endloop
endfacet
facet normal -5.768113259757058e-17 -1.0 1.0614930651636265e-17
  outer loop
    vertex 24.0 -0.9999999999999999 0.0
    vertex 30.0 -0.9999999999999999 47.999999999999986
    vertex 24.0 -0.9999999999999994 47.999999999999986
  endloop
endfacet
facet normal 1.932829053432474e-34 -1.0 1.1015494072452728e-17
  outer loop
    vertex 24.0 1.000000000000001 47.999999999999986
    vertex 9.0 1.0000000000000007 -2.2030988144905464e-17
    vertex 24.0 1.0000000000000007 -2.2030988144905464e-17
  endloop
endfacet
facet normal 1.932829053432474e-34 -1.0 1.1015494072452728e-17
  outer loop
    vertex 9.0 1.0000000000000007 -2.2030988144905464e-17
    vertex 24.0 1.000000000000001 47.999999999999986
    vertex 9.0 1.000000000000001 47.999999999999986
  endloop
endfacet
facet normal -1.0 8.387097499715876e-32 -5.874930171974788e-17
  outer loop
    vertex 24.0 -0.9999999999999994 47.999999999999986
    vertex 24.0 1.0000000000000007 -2.2030988144905464e-17
    vertex 24.0 -0.9999999999999999 0.0
  endloop
endfacet
facet normal -1.0 8.387097499715876e-32 -5.874930171974788e-17
  outer loop
    vertex 24.0 1.0000000000000007 -2.2030988144905464e-17
    vertex 24.0 -0.9999999999999994 47.999999999999986
    vertex 24.0 1.000000000000001 47.999999999999986
  endloop
endfacet
facet normal 1.0 -0.0 -0.0
  outer loop
    vertex 9.0 1.0000000000000007 -2.2030988144905464e-17
    vertex 9.0 -0.9999999999999994 47.999999999999986
    vertex 9.0 -0.9999999999999999 0.0
  endloop
endfacet
facet normal 1.0 -0.0 -0.0
  outer loop
    vertex 9.0 -0.9999999999999994 47.999999999999986
    vertex 9.0 1.0000000000000007 -2.2030988144905464e-17
    vertex 9.0 1.000000000000001 47.999999999999986
  endloop
endfacet
facet normal 5.768113259757061e-17 -1.0 1.0614930651636267e-17
  outer loop
    vertex 9.0 -0.9999999999999994 47.999999999999986
    vertex 3.0 -0.9999999999999999 0.0
    vertex 9.0 -0.9999999999999999 0.0
  endloop
endfacet
facet normal 5.768113259757061e-17 -1.0 1.0614930651636267e-17
  outer loop
    vertex 3.0 -0.9999999999999999 0.0
    vertex 9.0 -0.9999999999999994 47.999999999999986
    vertex 3.0 -0.9999999999999999 47.999999999999986
  endloop
endfacet
facet normal -0.0 -0.0 1.0
  outer loop
    vertex 4.88675134594813 -6.0 47.999999999999986
    vertex 3.0 -0.9999999999999999 47.999999999999986
    vertex -0.9999999999999989 -6.000000000000002 47.999999999999986
  endloop
endfacet
facet normal -0.0 -0.0 1.0
  outer loop
    vertex 3.0 -0.9999999999999999 47.999999999999986
    vertex 4.88675134594813 -6.0 47.999999999999986
    vertex 5.388789129329541 -5.1375041405669855 47.999999999999986
  endloop
endfacet
facet normal -0.0 -0.0 1.0
  outer loop
    vertex 30.0 -0.9999999999999999 47.999999999999986
    vertex 24.0 1.000000000000001 47.999999999999986
    vertex 24.0 -0.9999999999999994 47.999999999999986
  endloop
endfacet
facet normal -0.0 -0.0 1.0
  outer loop
    vertex 28.113248654051873 -5.999999999999999 47.999999999999986
    vertex 30.0 -0.9999999999999999 47.999999999999986
    vertex 27.61121087067046 -5.1375041405669855 47.999999999999986
  endloop
endfacet
facet normal -0.0 -0.0 1.0
  outer loop
    vertex 30.0 -0.9999999999999999 47.999999999999986
    vertex 28.113248654051873 -5.999999999999999 47.999999999999986
    vertex 34.0 -5.9999999999999964 47.999999999999986
  endloop
endfacet
facet normal -0.0 -0.0 1.0
  outer loop
    vertex -0.9999999999999994 4.0000000000000036 47.999999999999986
    vertex 9.0 1.000000000000001 47.999999999999986
    vertex 34.00000000000001 4.000000000000003 47.999999999999986
  endloop
endfacet
facet normal -0.0 -0.0 1.0
  outer loop
    vertex 9.0 1.000000000000001 47.999999999999986
    vertex -0.9999999999999994 4.0000000000000036 47.999999999999986
    vertex 3.0 -0.9999999999999999 47.999999999999986
  endloop
endfacet
facet normal -0.0 -0.0 1.0
  outer loop
    vertex 3.0 -0.9999999999999999 47.999999999999986
    vertex -0.9999999999999994 4.0000000000000036 47.999999999999986
    vertex -0.9999999999999989 -6.000000000000002 47.999999999999986
  endloop
endfacet
facet normal -0.0 -0.0 1.0
  outer loop
    vertex 9.0 1.000000000000001 47.999999999999986
    vertex 3.0 -0.9999999999999999 47.999999999999986
    vertex 9.0 -0.9999999999999994 47.999999999999986
  endloop
endfacet
facet normal -0.0 -0.0 1.0
  outer loop
    vertex 34.00000000000001 4.000000000000003 47.999999999999986
    vertex 9.0 1.000000000000001 47.999999999999986
    vertex 24.0 1.000000000000001 47.999999999999986
  endloop
endfacet
facet normal -0.0 -0.0 1.0
  outer loop
    vertex 34.00000000000001 4.000000000000003 47.999999999999986
    vertex 24.0 1.000000000000001 47.999999999999986
    vertex 30.0 -0.9999999999999999 47.999999999999986
  endloop
endfacet
facet normal -0.0 -0.0 1.0
  outer loop
    vertex 34.00000000000001 4.000000000000003 47.999999999999986
    vertex 30.0 -0.9999999999999999 47.999999999999986
    vertex 34.0 -5.9999999999999964 47.999999999999986
  endloop
endfacet
endsolid Ластохвост-Ответ-FlatCNC
