solid abstract_statue (1)
facet normal 0.31904809976786624 -0.5091123977701084 0.7993828097171498
  outer loop
    vertex 5.504788142928277 7.632582650692069 1.260007538877883e-16
    vertex 3.7238984955157517 8.155818538092326 1.044024621235285
    vertex -0.8646760782588099 3.640997560228837 4.8005766090150963e-36
  endloop
endfacet
facet normal -0.3199272676185965 -0.9471205533971556 0.024681992763245474
  outer loop
    vertex 5.65374818140345 9.215465213430788 11.651896022742593
    vertex 2.5399211723468897 10.099128901657647 5.1993325299268935
    vertex 5.524528569554464 9.142938799606211 7.193903688230734
  endloop
endfacet
facet normal -0.7768736767234634 -0.6236741217719596 0.08659030110897367
  outer loop
    vertex 2.5399211723468897 10.099128901657647 5.1993325299268935
    vertex 4.000349099233086 8.211635360652945 4.707212017110781
    vertex 5.419349099233088 6.915991842791865 8.106257988421698
  endloop
endfacet
facet normal -0.7859382413557755 0.6137165827368202 0.07518667999340697
  outer loop
    vertex 2.5399211723468897 10.099128901657647 5.1993325299268935
    vertex 1.7641872962495295 9.574583185793704 1.3721052320061227
    vertex 0.5054125487042939 7.6272519619259205 4.1091625517086054
  endloop
endfacet
facet normal -0.8847683451451737 -0.40723117385061197 0.22660041145885768
  outer loop
    vertex 1.1140243861840917 15.842052493084731 3.9293306739726606
    vertex 2.9337182366694137 11.061541278253486 2.4431653369863304
    vertex 3.22363513578999 11.611960469469578 4.564331601949777
  endloop
endfacet
facet normal 0.9978901501762918 -0.05859037576182504 -0.027971700864021287
  outer loop
    vertex 5.524528569554464 9.142938799606211 7.193903688230734
    vertex 5.419349099233088 6.915991842791865 8.106257988421698
    vertex 5.461349099233089 9.107478389656206 5.014253166447934
  endloop
endfacet
facet normal -0.6706076576528185 0.6192550149380953 0.4084220806609502
  outer loop
    vertex 5.102057542603776 11.188097036880412 7.755118175285085
    vertex 2.5399211723468897 10.099128901657647 5.1993325299268935
    vertex 5.65374818140345 9.215465213430788 11.651896022742593
  endloop
endfacet
facet normal -0.5543038372866008 -0.15364395227514122 0.81801026393232
  outer loop
    vertex 4.819012789362488 12.200155332665553 5.755877211781562
    vertex 1.1140243861840917 15.842052493084731 3.9293306739726606
    vertex 3.22363513578999 11.611960469469578 4.564331601949777
  endloop
endfacet
facet normal -0.6573290867292941 -0.01914260490066964 -0.7533604930026853
  outer loop
    vertex 3.22363513578999 11.611960469469578 4.564331601949777
    vertex 2.5399211723468897 10.099128901657647 5.1993325299268935
    vertex -1.7069455651869245 12.4091199411848 8.846152098736658
  endloop
endfacet
facet normal -0.11649983818386886 0.943627865993133 -0.3098293695316479
  outer loop
    vertex -1.7069455651869245 12.4091199411848 8.846152098736658
    vertex 4.819012789362488 12.200155332665553 5.755877211781562
    vertex 3.22363513578999 11.611960469469578 4.564331601949777
  endloop
endfacet
facet normal 0.22457331278848047 0.8818500640425786 0.4146170422586454
  outer loop
    vertex -1.7069455651869245 12.4091199411848 8.846152098736658
    vertex 5.102057542603776 11.188097036880412 7.755118175285085
    vertex 4.819012789362488 12.200155332665553 5.755877211781562
  endloop
endfacet
facet normal -0.0845181837994765 -0.8833180796122398 0.4610920155862414
  outer loop
    vertex -1.7069455651869245 12.4091199411848 8.846152098736658
    vertex 2.5399211723468897 10.099128901657647 5.1993325299268935
    vertex 5.102057542603776 11.188097036880412 7.755118175285085
  endloop
endfacet
facet normal 0.5914000739036622 0.750092654081421 0.295984734200656
  outer loop
    vertex 4.819012789362488 12.200155332665553 5.755877211781562
    vertex 4.5604174406698235 13.124792037281509 3.9293306739726597
    vertex 1.1140243861840917 15.842052493084731 3.9293306739726606
  endloop
endfacet
facet normal 0.07906635511317564 0.9622321651385675 -0.2604952434534302
  outer loop
    vertex 3.22363513578999 11.611960469469578 4.564331601949777
    vertex 2.9337182366694137 11.061541278253486 2.4431653369863304
    vertex -1.0142626548519258 11.634662083990404 3.3618877346331844
  endloop
endfacet
facet normal 0.30482771106942136 0.3866232638835846 -0.8704036525590765
  outer loop
    vertex 4.5604174406698235 13.124792037281509 3.9293306739726597
    vertex 2.9337182366694137 11.061541278253486 2.4431653369863304
    vertex 1.1140243861840917 15.842052493084731 3.9293306739726606
  endloop
endfacet
facet normal -0.08898263847313498 0.6272805509678094 -0.7736932211334678
  outer loop
    vertex 2.9337182366694137 11.061541278253486 2.4431653369863304
    vertex 1.7641872962495295 9.574583185793704 1.3721052320061227
    vertex -1.0142626548519258 11.634662083990404 3.3618877346331844
  endloop
endfacet
facet normal -0.4784527329421939 -0.8517108694917566 0.21370909463507107
  outer loop
    vertex 2.5399211723468897 10.099128901657647 5.1993325299268935
    vertex -1.0142626548519258 11.634662083990404 3.3618877346331844
    vertex 1.7641872962495295 9.574583185793704 1.3721052320061227
  endloop
endfacet
facet normal -0.23924034857436577 0.4657327817401979 0.8519724359546812
  outer loop
    vertex 3.22363513578999 11.611960469469578 4.564331601949777
    vertex -1.0142626548519258 11.634662083990404 3.3618877346331844
    vertex 2.5399211723468897 10.099128901657647 5.1993325299268935
  endloop
endfacet
facet normal 0.6219150859035713 -0.7748804162472988 -0.11305735907921526
  outer loop
    vertex 3.849631768873453 5.816755555638431 3.6718799203412646
    vertex 4.289349099233092 6.371582650692069 2.2879999999999963
    vertex 5.461349099233091 7.26742567969532 2.59504114933715
  endloop
endfacet
facet normal -0.9572587783134152 0.16341256863370202 -0.23864610567625805
  outer loop
    vertex 4.000349099233086 8.211635360652945 4.707212017110781
    vertex 4.289349099233092 6.371582650692069 2.2879999999999963
    vertex 3.849631768873453 5.816755555638431 3.6718799203412646
  endloop
endfacet
facet normal 0.2249668691582526 -0.8398256230899364 -0.4940473971014663
  outer loop
    vertex 4.000349099233086 8.211635360652945 4.707212017110781
    vertex 0.5054125487042939 7.6272519619259205 4.1091625517086054
    vertex 1.7641872962495295 9.574583185793704 1.3721052320061227
  endloop
endfacet
facet normal -0.10603742976852656 -0.3268924582535426 0.9390939166159267
  outer loop
    vertex 4.000349099233086 8.211635360652945 4.707212017110781
    vertex 2.5399211723468897 10.099128901657647 5.1993325299268935
    vertex 0.5054125487042939 7.6272519619259205 4.1091625517086054
  endloop
endfacet
facet normal 0.9073757036998933 -0.34863949007510464 -0.23477614507290687
  outer loop
    vertex 5.461349099233089 9.107478389656206 5.014253166447934
    vertex 5.419349099233088 6.915991842791865 8.106257988421698
    vertex 3.849631768873453 5.816755555638431 3.6718799203412646
  endloop
endfacet
facet normal -0.9309568544948436 -0.09394677875643373 0.3528361345304032
  outer loop
    vertex 4.000349099233086 8.211635360652945 4.707212017110781
    vertex 3.849631768873453 5.816755555638431 3.6718799203412646
    vertex 5.419349099233088 6.915991842791865 8.106257988421698
  endloop
endfacet
facet normal -2.5038877265224614e-17 0.5844665374104692 -0.8114178126264031
  outer loop
    vertex 5.165839919224979 9.574583185793704 1.3721052320061227
    vertex 1.7641872962495295 9.574583185793704 1.3721052320061227
    vertex 2.9337182366694137 11.061541278253486 2.4431653369863304
  endloop
endfacet
facet normal -0.43651100395520415 0.35865845584489636 0.8251195401134157
  outer loop
    vertex 5.524528569554464 9.142938799606211 7.193903688230734
    vertex 2.5399211723468897 10.099128901657647 5.1993325299268935
    vertex 5.419349099233088 6.915991842791865 8.106257988421698
  endloop
endfacet
facet normal 0.8179962385186232 -0.2298072814435229 0.5273241575775959
  outer loop
    vertex 6.6611692083279666 11.748707065242314 0.0
    vertex 5.165839919224979 9.574583185793704 1.3721052320061227
    vertex 5.504788142928277 7.632582650692069 1.260007538877883e-16
  endloop
endfacet
facet normal 0.16844412798038713 0.44062348407830104 0.8817468576794738
  outer loop
    vertex 6.6611692083279666 11.748707065242314 0.0
    vertex 0.8123615340980614 13.984623542711724 -6.912996439019428e-35
    vertex 5.165839919224979 9.574583185793704 1.3721052320061227
  endloop
endfacet
facet normal 0.18766880714705966 -0.2994674359847686 0.9354676229612163
  outer loop
    vertex 3.15878315304008 8.850553541587624 0.8605477710342078
    vertex 1.7641872962495295 9.574583185793704 1.3721052320061227
    vertex -0.8646760782588099 3.640997560228837 4.8005766090150963e-36
  endloop
endfacet
facet normal -0.5299928045757729 -0.591569323178324 -0.6075799231148494
  outer loop
    vertex 5.504788142928277 7.632582650692069 1.260007538877883e-16
    vertex 4.289349099233092 6.371582650692069 2.2879999999999963
    vertex 3.7238984955157517 8.155818538092326 1.044024621235285
  endloop
endfacet
facet normal -4.1547128757825366e-16 0.5844665374104688 -0.8114178126264033
  outer loop
    vertex 5.165839919224979 9.574583185793704 1.3721052320061227
    vertex 2.9337182366694137 11.061541278253486 2.4431653369863304
    vertex 4.5604174406698235 13.124792037281509 3.9293306739726597
  endloop
endfacet
facet normal -0.26107294580828033 0.042328401126526805 0.9643905969186235
  outer loop
    vertex 3.7238984955157517 8.155818538092326 1.044024621235285
    vertex 3.15878315304008 8.850553541587624 0.8605477710342078
    vertex -0.8646760782588099 3.640997560228837 4.8005766090150963e-36
  endloop
endfacet
facet normal 0.6205477678241623 -0.7778851704660245 -0.09907133499400145
  outer loop
    vertex 5.461349099233091 7.26742567969532 2.59504114933715
    vertex 4.289349099233092 6.371582650692069 2.2879999999999963
    vertex 5.504788142928277 7.632582650692069 1.260007538877883e-16
  endloop
endfacet
facet normal 0.9997278796169112 -0.018567010792166203 0.014122068790317318
  outer loop
    vertex 5.461349099233089 9.107478389656206 5.014253166447934
    vertex 5.461349099233091 7.26742567969532 2.59504114933715
    vertex 5.504788142928277 7.632582650692069 1.260007538877883e-16
  endloop
endfacet
facet normal 0.7461967748496188 -0.5298722326564507 0.4030208310542963
  outer loop
    vertex 5.461349099233089 9.107478389656206 5.014253166447934
    vertex 3.849631768873453 5.816755555638431 3.6718799203412646
    vertex 5.461349099233091 7.26742567969532 2.59504114933715
  endloop
endfacet
facet normal 0.9773532338578657 0.2048634350775994 -0.053024798309643795
  outer loop
    vertex 4.5604174406698235 13.124792037281509 3.9293306739726597
    vertex 5.461349099233089 9.107478389656206 5.014253166447934
    vertex 5.165839919224979 9.574583185793704 1.3721052320061227
  endloop
endfacet
facet normal 0.9767844009830653 0.20766173062767304 -0.05261976462199662
  outer loop
    vertex 5.165839919224979 9.574583185793704 1.3721052320061227
    vertex 5.461349099233089 9.107478389656206 5.014253166447934
    vertex 5.504788142928277 7.632582650692069 1.260007538877883e-16
  endloop
endfacet
facet normal 0.9770683457011555 0.2105459451467031 -0.031746697640682955
  outer loop
    vertex 4.5604174406698235 13.124792037281509 3.9293306739726597
    vertex 5.524528569554464 9.142938799606211 7.193903688230734
    vertex 5.461349099233089 9.107478389656206 5.014253166447934
  endloop
endfacet
facet normal 0.9770683457011555 0.2105459451467031 -0.031746697640682955
  outer loop
    vertex 5.524528569554464 9.142938799606211 7.193903688230734
    vertex 4.5604174406698235 13.124792037281509 3.9293306739726597
    vertex 5.65374818140345 9.215465213430788 11.651896022742593
  endloop
endfacet
facet normal 0.9770683457011555 0.2105459451467031 -0.031746697640682955
  outer loop
    vertex 5.65374818140345 9.215465213430788 11.651896022742593
    vertex 4.5604174406698235 13.124792037281509 3.9293306739726597
    vertex 5.102057542603776 11.188097036880412 7.755118175285085
  endloop
endfacet
facet normal 0.9770683457011555 0.2105459451467031 -0.031746697640682955
  outer loop
    vertex 5.102057542603776 11.188097036880412 7.755118175285085
    vertex 4.5604174406698235 13.124792037281509 3.9293306739726597
    vertex 4.819012789362488 12.200155332665553 5.755877211781562
  endloop
endfacet
facet normal -0.7876262592323997 -0.5321172387305095 0.3106382462179997
  outer loop
    vertex 1.7641872962495295 9.574583185793704 1.3721052320061227
    vertex 4.289349099233092 6.371582650692069 2.2879999999999963
    vertex 4.000349099233086 8.211635360652945 4.707212017110781
  endloop
endfacet
facet normal -0.5299928045757717 -0.5915693231783236 -0.6075799231148509
  outer loop
    vertex 3.15878315304008 8.850553541587624 0.8605477710342078
    vertex 4.289349099233092 6.371582650692069 2.2879999999999963
    vertex 1.7641872962495295 9.574583185793704 1.3721052320061227
  endloop
endfacet
facet normal -0.5299928045757717 -0.5915693231783236 -0.6075799231148509
  outer loop
    vertex 4.289349099233092 6.371582650692069 2.2879999999999963
    vertex 3.15878315304008 8.850553541587624 0.8605477710342078
    vertex 3.7238984955157517 8.155818538092326 1.044024621235285
  endloop
endfacet
facet normal -0.632198736162219 0.10249994158953764 0.7679964322632198
  outer loop
    vertex 1.7641872962495295 9.574583185793704 1.3721052320061227
    vertex 0.8123615340980614 13.984623542711724 -6.912996439019428e-35
    vertex -0.8646760782588099 3.640997560228837 4.8005766090150963e-36
  endloop
endfacet
facet normal -0.0 0.2970848478705785 0.9548510842878671
  outer loop
    vertex 5.165839919224979 9.574583185793704 1.3721052320061227
    vertex 0.8123615340980614 13.984623542711724 -6.912996439019428e-35
    vertex 1.7641872962495295 9.574583185793704 1.3721052320061227
  endloop
endfacet
facet normal 1.0410229688004345e-17 -5.9758584957002406e-18 -1.0
  outer loop
    vertex 0.8123615340980614 13.984623542711724 -6.912996439019428e-35
    vertex 5.504788142928277 7.632582650692069 1.260007538877883e-16
    vertex -0.8646760782588099 3.640997560228837 4.8005766090150963e-36
  endloop
endfacet
facet normal 1.0410229688004345e-17 -5.9758584957002406e-18 -1.0
  outer loop
    vertex 5.504788142928277 7.632582650692069 1.260007538877883e-16
    vertex 0.8123615340980614 13.984623542711724 -6.912996439019428e-35
    vertex 6.6611692083279666 11.748707065242314 0.0
  endloop
endfacet
endsolid abstract_statue (1)
