solid Натяжитель-База
facet normal 0.0 -1.0 0.0
  outer loop
    vertex 45.0 0.0 -2.993578
    vertex 11.772866703859282 0.0 0.0
    vertex 11.772866703859282 0.0 -3.0
  endloop
endfacet
facet normal 0.0 -1.0 0.0
  outer loop
    vertex 11.772866703859282 0.0 0.0
    vertex 45.0 0.0 -2.993578
    vertex 45.0 0.0 0.0
  endloop
endfacet
facet normal 1.0 -0.0 -0.0
  outer loop
    vertex 50.0 15.0 -2.993578
    vertex 50.0 5.0 0.0
    vertex 50.0 5.0 -2.993578
  endloop
endfacet
facet normal 1.0 -0.0 -0.0
  outer loop
    vertex 50.0 5.0 0.0
    vertex 50.0 15.0 -2.993578
    vertex 50.0 15.0 0.0
  endloop
endfacet
facet normal 0.0 0.0 1.0
  outer loop
    vertex 35.170370868554656 8.705904774487395 5.0
    vertex 35.170370868554656 11.294095225512603 5.0
    vertex 35.0 10.0 5.0
  endloop
endfacet
facet normal 0.0 0.0 1.0
  outer loop
    vertex 35.170370868554656 11.294095225512603 5.0
    vertex 35.170370868554656 8.705904774487395 5.0
    vertex 35.6698729810778 7.499999999999997 5.0
  endloop
endfacet
facet normal 0.0 0.0 1.0
  outer loop
    vertex 35.170370868554656 11.294095225512603 5.0
    vertex 35.6698729810778 7.499999999999997 5.0
    vertex 35.6698729810778 12.5 5.0
  endloop
endfacet
facet normal 0.0 0.0 1.0
  outer loop
    vertex 35.6698729810778 12.5 5.0
    vertex 35.6698729810778 7.499999999999997 5.0
    vertex 36.46446609406726 6.4644660940672605 5.0
  endloop
endfacet
facet normal 0.0 0.0 1.0
  outer loop
    vertex 35.6698729810778 12.5 5.0
    vertex 36.46446609406726 6.4644660940672605 5.0
    vertex 36.46446609406726 13.535533905932736 5.0
  endloop
endfacet
facet normal 0.0 0.0 1.0
  outer loop
    vertex 36.46446609406726 13.535533905932736 5.0
    vertex 36.46446609406726 6.4644660940672605 5.0
    vertex 37.5 5.669872981077805 5.0
  endloop
endfacet
facet normal 0.0 0.0 1.0
  outer loop
    vertex 36.46446609406726 13.535533905932736 5.0
    vertex 37.5 5.669872981077805 5.0
    vertex 37.5 14.330127018922195 5.0
  endloop
endfacet
facet normal 0.0 0.0 1.0
  outer loop
    vertex 37.5 14.330127018922195 5.0
    vertex 37.5 5.669872981077805 5.0
    vertex 38.7059047744874 5.170370868554657 5.0
  endloop
endfacet
facet normal 0.0 0.0 1.0
  outer loop
    vertex 37.5 14.330127018922195 5.0
    vertex 38.7059047744874 5.170370868554657 5.0
    vertex 38.5 10.0 5.0
  endloop
endfacet
facet normal 0.0 0.0 1.0
  outer loop
    vertex 38.5 10.0 5.0
    vertex 38.7059047744874 5.170370868554657 5.0
    vertex 38.5511112605664 9.611771432346218 5.0
  endloop
endfacet
facet normal 0.0 0.0 1.0
  outer loop
    vertex 38.5511112605664 9.611771432346218 5.0
    vertex 38.7059047744874 5.170370868554657 5.0
    vertex 38.70096189432334 9.250000000000002 5.0
  endloop
endfacet
facet normal 0.0 0.0 1.0
  outer loop
    vertex 38.70096189432334 9.250000000000002 5.0
    vertex 38.7059047744874 5.170370868554657 5.0
    vertex 38.939339828220184 8.93933982822018 5.0
  endloop
endfacet
facet normal 0.0 0.0 1.0
  outer loop
    vertex 38.939339828220184 8.93933982822018 5.0
    vertex 38.7059047744874 5.170370868554657 5.0
    vertex 40.0 4.999999999999998 5.0
  endloop
endfacet
facet normal 0.0 0.0 1.0
  outer loop
    vertex 38.939339828220184 8.93933982822018 5.0
    vertex 40.0 4.999999999999998 5.0
    vertex 39.25 8.700961894323344 5.0
  endloop
endfacet
facet normal 0.0 0.0 1.0
  outer loop
    vertex 39.25 8.700961894323344 5.0
    vertex 40.0 4.999999999999998 5.0
    vertex 39.611771432346224 8.551111260566401 5.0
  endloop
endfacet
facet normal 0.0 0.0 1.0
  outer loop
    vertex 39.611771432346224 8.551111260566401 5.0
    vertex 40.0 4.999999999999998 5.0
    vertex 40.0 8.500000000000004 5.0
  endloop
endfacet
facet normal 0.0 0.0 1.0
  outer loop
    vertex 40.0 8.500000000000004 5.0
    vertex 40.0 4.999999999999998 5.0
    vertex 41.294095225512606 5.170370868554657 5.0
  endloop
endfacet
facet normal 0.0 0.0 1.0
  outer loop
    vertex 40.0 8.500000000000004 5.0
    vertex 41.294095225512606 5.170370868554657 5.0
    vertex 40.388228567653776 8.551111260566401 5.0
  endloop
endfacet
facet normal 0.0 0.0 1.0
  outer loop
    vertex 40.388228567653776 8.551111260566401 5.0
    vertex 41.294095225512606 5.170370868554657 5.0
    vertex 40.75 8.700961894323344 5.0
  endloop
endfacet
facet normal 0.0 0.0 1.0
  outer loop
    vertex 40.75 8.700961894323344 5.0
    vertex 41.294095225512606 5.170370868554657 5.0
    vertex 41.060660171779816 8.93933982822018 5.0
  endloop
endfacet
facet normal 0.0 0.0 1.0
  outer loop
    vertex 41.060660171779816 8.93933982822018 5.0
    vertex 41.294095225512606 5.170370868554657 5.0
    vertex 41.29903810567666 9.250000000000002 5.0
  endloop
endfacet
facet normal 0.0 0.0 1.0
  outer loop
    vertex 41.29903810567666 9.250000000000002 5.0
    vertex 41.294095225512606 5.170370868554657 5.0
    vertex 42.5 5.669872981077805 5.0
  endloop
endfacet
facet normal 0.0 0.0 1.0
  outer loop
    vertex 41.29903810567666 9.250000000000002 5.0
    vertex 42.5 5.669872981077805 5.0
    vertex 41.4488887394336 9.61177143234622 5.0
  endloop
endfacet
facet normal 0.0 0.0 1.0
  outer loop
    vertex 41.4488887394336 9.61177143234622 5.0
    vertex 42.5 5.669872981077805 5.0
    vertex 41.5 10.0 5.0
  endloop
endfacet
facet normal 0.0 0.0 1.0
  outer loop
    vertex 41.5 10.0 5.0
    vertex 42.5 5.669872981077805 5.0
    vertex 42.49999999999999 14.330127018922198 5.0
  endloop
endfacet
facet normal 0.0 0.0 1.0
  outer loop
    vertex 42.49999999999999 14.330127018922198 5.0
    vertex 42.5 5.669872981077805 5.0
    vertex 43.53553390593274 13.53553390593274 5.0
  endloop
endfacet
facet normal 0.0 0.0 1.0
  outer loop
    vertex 43.53553390593274 13.53553390593274 5.0
    vertex 42.5 5.669872981077805 5.0
    vertex 43.53553390593274 6.4644660940672605 5.0
  endloop
endfacet
facet normal 0.0 0.0 1.0
  outer loop
    vertex 43.53553390593274 13.53553390593274 5.0
    vertex 43.53553390593274 6.4644660940672605 5.0
    vertex 44.3301270189222 7.499999999999999 5.0
  endloop
endfacet
facet normal 0.0 0.0 1.0
  outer loop
    vertex 43.53553390593274 13.53553390593274 5.0
    vertex 44.3301270189222 7.499999999999999 5.0
    vertex 44.3301270189222 12.500000000000002 5.0
  endloop
endfacet
facet normal 0.0 0.0 1.0
  outer loop
    vertex 44.3301270189222 12.500000000000002 5.0
    vertex 44.3301270189222 7.499999999999999 5.0
    vertex 44.829629131445344 8.705904774487395 5.0
  endloop
endfacet
facet normal 0.0 0.0 1.0
  outer loop
    vertex 44.3301270189222 12.500000000000002 5.0
    vertex 44.829629131445344 8.705904774487395 5.0
    vertex 44.829629131445344 11.294095225512608 5.0
  endloop
endfacet
facet normal 0.0 0.0 1.0
  outer loop
    vertex 44.829629131445344 11.294095225512608 5.0
    vertex 44.829629131445344 8.705904774487395 5.0
    vertex 45.0 10.0 5.0
  endloop
endfacet
facet normal 0.0 0.0 1.0
  outer loop
    vertex 38.5 10.0 5.0
    vertex 38.705904774487394 14.829629131445342 5.0
    vertex 37.5 14.330127018922195 5.0
  endloop
endfacet
facet normal 0.0 0.0 1.0
  outer loop
    vertex 38.705904774487394 14.829629131445342 5.0
    vertex 38.5 10.0 5.0
    vertex 38.5511112605664 10.38822856765378 5.0
  endloop
endfacet
facet normal 0.0 0.0 1.0
  outer loop
    vertex 38.705904774487394 14.829629131445342 5.0
    vertex 38.5511112605664 10.38822856765378 5.0
    vertex 38.70096189432334 10.749999999999998 5.0
  endloop
endfacet
facet normal 0.0 0.0 1.0
  outer loop
    vertex 38.705904774487394 14.829629131445342 5.0
    vertex 38.70096189432334 10.749999999999998 5.0
    vertex 38.939339828220184 11.060660171779817 5.0
  endloop
endfacet
facet normal 0.0 0.0 1.0
  outer loop
    vertex 38.705904774487394 14.829629131445342 5.0
    vertex 38.939339828220184 11.060660171779817 5.0
    vertex 40.0 15.0 5.0
  endloop
endfacet
facet normal 0.0 0.0 1.0
  outer loop
    vertex 40.0 15.0 5.0
    vertex 38.939339828220184 11.060660171779817 5.0
    vertex 39.25 11.299038105676656 5.0
  endloop
endfacet
facet normal 0.0 0.0 1.0
  outer loop
    vertex 40.0 15.0 5.0
    vertex 39.25 11.299038105676656 5.0
    vertex 39.61177143234622 11.448888739433599 5.0
  endloop
endfacet
facet normal 0.0 0.0 1.0
  outer loop
    vertex 40.0 15.0 5.0
    vertex 39.61177143234622 11.448888739433599 5.0
    vertex 40.0 11.499999999999996 5.0
  endloop
endfacet
facet normal 0.0 0.0 1.0
  outer loop
    vertex 40.0 15.0 5.0
    vertex 40.0 11.499999999999996 5.0
    vertex 40.388228567653776 11.448888739433599 5.0
  endloop
endfacet
facet normal 0.0 0.0 1.0
  outer loop
    vertex 40.0 15.0 5.0
    vertex 40.388228567653776 11.448888739433599 5.0
    vertex 41.2940952255126 14.829629131445344 5.0
  endloop
endfacet
facet normal 0.0 0.0 1.0
  outer loop
    vertex 41.2940952255126 14.829629131445344 5.0
    vertex 40.388228567653776 11.448888739433599 5.0
    vertex 40.75 11.299038105676656 5.0
  endloop
endfacet
facet normal 0.0 0.0 1.0
  outer loop
    vertex 41.2940952255126 14.829629131445344 5.0
    vertex 40.75 11.299038105676656 5.0
    vertex 41.060660171779816 11.06066017177982 5.0
  endloop
endfacet
facet normal 0.0 0.0 1.0
  outer loop
    vertex 41.2940952255126 14.829629131445344 5.0
    vertex 41.060660171779816 11.06066017177982 5.0
    vertex 41.29903810567666 10.75 5.0
  endloop
endfacet
facet normal 0.0 0.0 1.0
  outer loop
    vertex 41.2940952255126 14.829629131445344 5.0
    vertex 41.29903810567666 10.75 5.0
    vertex 42.49999999999999 14.330127018922198 5.0
  endloop
endfacet
facet normal 0.0 0.0 1.0
  outer loop
    vertex 42.49999999999999 14.330127018922198 5.0
    vertex 41.29903810567666 10.75 5.0
    vertex 41.4488887394336 10.388228567653782 5.0
  endloop
endfacet
facet normal 0.0 0.0 1.0
  outer loop
    vertex 42.49999999999999 14.330127018922198 5.0
    vertex 41.4488887394336 10.388228567653782 5.0
    vertex 41.5 10.0 5.0
  endloop
endfacet
facet normal -0.9914448613738104 0.13052619222005188 0.0
  outer loop
    vertex 35.170370868554656 11.294095225512603 5.0
    vertex 35.0 10.0 0.0
    vertex 35.0 10.0 5.0
  endloop
endfacet
facet normal -0.9914448613738104 0.13052619222005188 0.0
  outer loop
    vertex 35.0 10.0 0.0
    vertex 35.170370868554656 11.294095225512603 5.0
    vertex 35.170370868554656 11.294095225512603 0.0
  endloop
endfacet
facet normal -0.9914448613738104 -0.13052619222005157 -0.0
  outer loop
    vertex 35.0 10.0 5.0
    vertex 35.170370868554656 8.705904774487395 0.0
    vertex 35.170370868554656 8.705904774487395 5.0
  endloop
endfacet
facet normal -0.9914448613738104 -0.13052619222005157 -0.0
  outer loop
    vertex 35.170370868554656 8.705904774487395 0.0
    vertex 35.0 10.0 5.0
    vertex 35.0 10.0 0.0
  endloop
endfacet
facet normal -0.9238795325112872 -0.38268343236508917 -0.0
  outer loop
    vertex 35.170370868554656 8.705904774487395 5.0
    vertex 35.6698729810778 7.499999999999997 0.0
    vertex 35.6698729810778 7.499999999999997 5.0
  endloop
endfacet
facet normal -0.9238795325112872 -0.38268343236508917 -0.0
  outer loop
    vertex 35.6698729810778 7.499999999999997 0.0
    vertex 35.170370868554656 8.705904774487395 5.0
    vertex 35.170370868554656 8.705904774487395 0.0
  endloop
endfacet
facet normal -0.7933533402912354 -0.6087614290087207 -0.0
  outer loop
    vertex 35.6698729810778 7.499999999999997 5.0
    vertex 36.46446609406726 6.4644660940672605 0.0
    vertex 36.46446609406726 6.4644660940672605 5.0
  endloop
endfacet
facet normal -0.7933533402912354 -0.6087614290087207 -0.0
  outer loop
    vertex 36.46446609406726 6.4644660940672605 0.0
    vertex 35.6698729810778 7.499999999999997 5.0
    vertex 35.6698729810778 7.499999999999997 0.0
  endloop
endfacet
facet normal -0.6087614290087199 -0.7933533402912357 -0.0
  outer loop
    vertex 37.5 5.669872981077805 5.0
    vertex 36.46446609406726 6.4644660940672605 0.0
    vertex 37.5 5.669872981077805 0.0
  endloop
endfacet
facet normal -0.6087614290087199 -0.7933533402912357 -0.0
  outer loop
    vertex 36.46446609406726 6.4644660940672605 0.0
    vertex 37.5 5.669872981077805 5.0
    vertex 36.46446609406726 6.4644660940672605 5.0
  endloop
endfacet
facet normal -0.38268343236508917 -0.9238795325112871 -0.0
  outer loop
    vertex 38.7059047744874 5.170370868554657 5.0
    vertex 37.5 5.669872981077805 0.0
    vertex 38.7059047744874 5.170370868554657 0.0
  endloop
endfacet
facet normal -0.38268343236508917 -0.9238795325112871 -0.0
  outer loop
    vertex 37.5 5.669872981077805 0.0
    vertex 38.7059047744874 5.170370868554657 5.0
    vertex 37.5 5.669872981077805 5.0
  endloop
endfacet
facet normal -0.13052619222005188 -0.9914448613738104 -0.0
  outer loop
    vertex 40.0 4.999999999999998 5.0
    vertex 38.7059047744874 5.170370868554657 0.0
    vertex 40.0 4.999999999999998 0.0
  endloop
endfacet
facet normal -0.13052619222005188 -0.9914448613738104 -0.0
  outer loop
    vertex 38.7059047744874 5.170370868554657 0.0
    vertex 40.0 4.999999999999998 5.0
    vertex 38.7059047744874 5.170370868554657 5.0
  endloop
endfacet
facet normal 0.13052619222005132 -0.9914448613738106 0.0
  outer loop
    vertex 41.294095225512606 5.170370868554657 5.0
    vertex 40.0 4.999999999999998 0.0
    vertex 41.294095225512606 5.170370868554657 0.0
  endloop
endfacet
facet normal 0.13052619222005132 -0.9914448613738106 0.0
  outer loop
    vertex 40.0 4.999999999999998 0.0
    vertex 41.294095225512606 5.170370868554657 5.0
    vertex 40.0 4.999999999999998 5.0
  endloop
endfacet
facet normal 0.3826834323650907 -0.9238795325112865 0.0
  outer loop
    vertex 42.5 5.669872981077805 5.0
    vertex 41.294095225512606 5.170370868554657 0.0
    vertex 42.5 5.669872981077805 0.0
  endloop
endfacet
facet normal 0.3826834323650907 -0.9238795325112865 0.0
  outer loop
    vertex 41.294095225512606 5.170370868554657 0.0
    vertex 42.5 5.669872981077805 5.0
    vertex 41.294095225512606 5.170370868554657 5.0
  endloop
endfacet
facet normal 0.6087614290087199 -0.7933533402912357 0.0
  outer loop
    vertex 43.53553390593274 6.4644660940672605 5.0
    vertex 42.5 5.669872981077805 0.0
    vertex 43.53553390593274 6.4644660940672605 0.0
  endloop
endfacet
facet normal 0.6087614290087199 -0.7933533402912357 0.0
  outer loop
    vertex 42.5 5.669872981077805 0.0
    vertex 43.53553390593274 6.4644660940672605 5.0
    vertex 42.5 5.669872981077805 5.0
  endloop
endfacet
facet normal 0.7933533402912356 -0.6087614290087201 0.0
  outer loop
    vertex 44.3301270189222 7.499999999999999 0.0
    vertex 43.53553390593274 6.4644660940672605 5.0
    vertex 43.53553390593274 6.4644660940672605 0.0
  endloop
endfacet
facet normal 0.7933533402912356 -0.6087614290087201 0.0
  outer loop
    vertex 43.53553390593274 6.4644660940672605 5.0
    vertex 44.3301270189222 7.499999999999999 0.0
    vertex 44.3301270189222 7.499999999999999 5.0
  endloop
endfacet
facet normal 0.9238795325112872 -0.38268343236508917 0.0
  outer loop
    vertex 44.829629131445344 8.705904774487395 0.0
    vertex 44.3301270189222 7.499999999999999 5.0
    vertex 44.3301270189222 7.499999999999999 0.0
  endloop
endfacet
facet normal 0.9238795325112872 -0.38268343236508917 0.0
  outer loop
    vertex 44.3301270189222 7.499999999999999 5.0
    vertex 44.829629131445344 8.705904774487395 0.0
    vertex 44.829629131445344 8.705904774487395 5.0
  endloop
endfacet
facet normal 0.9914448613738104 -0.13052619222005174 0.0
  outer loop
    vertex 45.0 10.0 0.0
    vertex 44.829629131445344 8.705904774487395 5.0
    vertex 44.829629131445344 8.705904774487395 0.0
  endloop
endfacet
facet normal 0.9914448613738104 -0.13052619222005174 0.0
  outer loop
    vertex 44.829629131445344 8.705904774487395 5.0
    vertex 45.0 10.0 0.0
    vertex 45.0 10.0 5.0
  endloop
endfacet
facet normal 0.9914448613738106 0.13052619222005132 0.0
  outer loop
    vertex 44.829629131445344 11.294095225512608 0.0
    vertex 45.0 10.0 5.0
    vertex 45.0 10.0 0.0
  endloop
endfacet
facet normal 0.9914448613738106 0.13052619222005132 0.0
  outer loop
    vertex 45.0 10.0 5.0
    vertex 44.829629131445344 11.294095225512608 0.0
    vertex 44.829629131445344 11.294095225512608 5.0
  endloop
endfacet
facet normal 0.9238795325112867 0.38268343236508984 0.0
  outer loop
    vertex 44.3301270189222 12.500000000000002 0.0
    vertex 44.829629131445344 11.294095225512608 5.0
    vertex 44.829629131445344 11.294095225512608 0.0
  endloop
endfacet
facet normal 0.9238795325112867 0.38268343236508984 0.0
  outer loop
    vertex 44.829629131445344 11.294095225512608 5.0
    vertex 44.3301270189222 12.500000000000002 0.0
    vertex 44.3301270189222 12.500000000000002 5.0
  endloop
endfacet
facet normal 0.7933533402912354 0.6087614290087207 0.0
  outer loop
    vertex 43.53553390593274 13.53553390593274 0.0
    vertex 44.3301270189222 12.500000000000002 5.0
    vertex 44.3301270189222 12.500000000000002 0.0
  endloop
endfacet
facet normal 0.7933533402912354 0.6087614290087207 0.0
  outer loop
    vertex 44.3301270189222 12.500000000000002 5.0
    vertex 43.53553390593274 13.53553390593274 0.0
    vertex 43.53553390593274 13.53553390593274 5.0
  endloop
endfacet
facet normal 0.6087614290087189 0.7933533402912365 0.0
  outer loop
    vertex 42.49999999999999 14.330127018922198 5.0
    vertex 43.53553390593274 13.53553390593274 0.0
    vertex 42.49999999999999 14.330127018922198 0.0
  endloop
endfacet
facet normal 0.6087614290087189 0.7933533402912365 0.0
  outer loop
    vertex 43.53553390593274 13.53553390593274 0.0
    vertex 42.49999999999999 14.330127018922198 5.0
    vertex 43.53553390593274 13.53553390593274 5.0
  endloop
endfacet
facet normal 0.3826834323650902 0.9238795325112866 0.0
  outer loop
    vertex 41.2940952255126 14.829629131445344 5.0
    vertex 42.49999999999999 14.330127018922198 0.0
    vertex 41.2940952255126 14.829629131445344 0.0
  endloop
endfacet
facet normal 0.3826834323650902 0.9238795325112866 0.0
  outer loop
    vertex 42.49999999999999 14.330127018922198 0.0
    vertex 41.2940952255126 14.829629131445344 5.0
    vertex 42.49999999999999 14.330127018922198 5.0
  endloop
endfacet
facet normal 0.13052619222004977 0.9914448613738108 0.0
  outer loop
    vertex 40.0 15.0 5.0
    vertex 41.2940952255126 14.829629131445344 0.0
    vertex 40.0 15.0 0.0
  endloop
endfacet
facet normal 0.13052619222004977 0.9914448613738108 0.0
  outer loop
    vertex 41.2940952255126 14.829629131445344 0.0
    vertex 40.0 15.0 5.0
    vertex 41.2940952255126 14.829629131445344 5.0
  endloop
endfacet
facet normal -0.13052619222005132 0.9914448613738106 0.0
  outer loop
    vertex 38.705904774487394 14.829629131445342 5.0
    vertex 40.0 15.0 0.0
    vertex 38.705904774487394 14.829629131445342 0.0
  endloop
endfacet
facet normal -0.13052619222005132 0.9914448613738106 0.0
  outer loop
    vertex 40.0 15.0 0.0
    vertex 38.705904774487394 14.829629131445342 5.0
    vertex 40.0 15.0 5.0
  endloop
endfacet
facet normal -0.3826834323650902 0.9238795325112866 0.0
  outer loop
    vertex 37.5 14.330127018922195 5.0
    vertex 38.705904774487394 14.829629131445342 0.0
    vertex 37.5 14.330127018922195 0.0
  endloop
endfacet
facet normal -0.3826834323650902 0.9238795325112866 0.0
  outer loop
    vertex 38.705904774487394 14.829629131445342 0.0
    vertex 37.5 14.330127018922195 5.0
    vertex 38.705904774487394 14.829629131445342 5.0
  endloop
endfacet
facet normal -0.608761429008721 0.7933533402912349 0.0
  outer loop
    vertex 36.46446609406726 13.535533905932736 5.0
    vertex 37.5 14.330127018922195 0.0
    vertex 36.46446609406726 13.535533905932736 0.0
  endloop
endfacet
facet normal -0.608761429008721 0.7933533402912349 0.0
  outer loop
    vertex 37.5 14.330127018922195 0.0
    vertex 36.46446609406726 13.535533905932736 5.0
    vertex 37.5 14.330127018922195 5.0
  endloop
endfacet
facet normal -0.7933533402912354 0.6087614290087207 0.0
  outer loop
    vertex 36.46446609406726 13.535533905932736 5.0
    vertex 35.6698729810778 12.5 0.0
    vertex 35.6698729810778 12.5 5.0
  endloop
endfacet
facet normal -0.7933533402912354 0.6087614290087207 0.0
  outer loop
    vertex 35.6698729810778 12.5 0.0
    vertex 36.46446609406726 13.535533905932736 5.0
    vertex 36.46446609406726 13.535533905932736 0.0
  endloop
endfacet
facet normal -0.9238795325112872 0.38268343236508917 0.0
  outer loop
    vertex 35.6698729810778 12.5 5.0
    vertex 35.170370868554656 11.294095225512603 0.0
    vertex 35.170370868554656 11.294095225512603 5.0
  endloop
endfacet
facet normal -0.9238795325112872 0.38268343236508917 0.0
  outer loop
    vertex 35.170370868554656 11.294095225512603 0.0
    vertex 35.6698729810778 12.5 5.0
    vertex 35.6698729810778 12.5 0.0
  endloop
endfacet
facet normal -0.38268343236508695 0.923879532511288 -0.0
  outer loop
    vertex 40.388228567653776 8.551111260566401 5.0
    vertex 40.75 8.700961894323344 -2.999999999999979
    vertex 40.388228567653776 8.551111260566401 -2.999999999999979
  endloop
endfacet
facet normal -0.38268343236508695 0.923879532511288 -0.0
  outer loop
    vertex 40.75 8.700961894323344 -2.999999999999979
    vertex 40.388228567653776 8.551111260566401 5.0
    vertex 40.75 8.700961894323344 5.0
  endloop
endfacet
facet normal -0.608761429008722 0.7933533402912343 -0.0
  outer loop
    vertex 40.75 8.700961894323344 5.0
    vertex 41.060660171779816 8.93933982822018 -2.999999999999979
    vertex 40.75 8.700961894323344 -2.999999999999979
  endloop
endfacet
facet normal -0.608761429008722 0.7933533402912343 -0.0
  outer loop
    vertex 41.060660171779816 8.93933982822018 -2.999999999999979
    vertex 40.75 8.700961894323344 5.0
    vertex 41.060660171779816 8.93933982822018 5.0
  endloop
endfacet
facet normal -0.7933533402912339 0.6087614290087225 -0.0
  outer loop
    vertex 41.29903810567666 9.250000000000002 5.0
    vertex 41.060660171779816 8.93933982822018 -2.999999999999979
    vertex 41.060660171779816 8.93933982822018 5.0
  endloop
endfacet
facet normal -0.7933533402912339 0.6087614290087225 -0.0
  outer loop
    vertex 41.060660171779816 8.93933982822018 -2.999999999999979
    vertex 41.29903810567666 9.250000000000002 5.0
    vertex 41.29903810567666 9.250000000000002 -2.999999999999979
  endloop
endfacet
facet normal -0.92387953251129 0.3826834323650821 -0.0
  outer loop
    vertex 41.4488887394336 9.61177143234622 5.0
    vertex 41.29903810567666 9.250000000000002 -2.999999999999979
    vertex 41.29903810567666 9.250000000000002 5.0
  endloop
endfacet
facet normal -0.92387953251129 0.3826834323650821 -0.0
  outer loop
    vertex 41.29903810567666 9.250000000000002 -2.999999999999979
    vertex 41.4488887394336 9.61177143234622 5.0
    vertex 41.4488887394336 9.61177143234622 -2.999999999999979
  endloop
endfacet
facet normal -0.9914448613738095 0.13052619222005923 -0.0
  outer loop
    vertex 41.5 10.0 5.0
    vertex 41.4488887394336 9.61177143234622 -2.999999999999979
    vertex 41.4488887394336 9.61177143234622 5.0
  endloop
endfacet
facet normal -0.9914448613738095 0.13052619222005923 -0.0
  outer loop
    vertex 41.4488887394336 9.61177143234622 -2.999999999999979
    vertex 41.5 10.0 5.0
    vertex 41.5 10.0 -2.999999999999979
  endloop
endfacet
facet normal -0.9914448613738096 -0.13052619222005876 -0.0
  outer loop
    vertex 41.4488887394336 10.388228567653782 5.0
    vertex 41.5 10.0 -2.999999999999979
    vertex 41.5 10.0 5.0
  endloop
endfacet
facet normal -0.9914448613738096 -0.13052619222005876 -0.0
  outer loop
    vertex 41.5 10.0 -2.999999999999979
    vertex 41.4488887394336 10.388228567653782 5.0
    vertex 41.4488887394336 10.388228567653782 -2.999999999999979
  endloop
endfacet
facet normal -0.92387953251129 -0.3826834323650821 -0.0
  outer loop
    vertex 41.29903810567666 10.75 5.0
    vertex 41.4488887394336 10.388228567653782 -2.999999999999979
    vertex 41.4488887394336 10.388228567653782 5.0
  endloop
endfacet
facet normal -0.92387953251129 -0.3826834323650821 -0.0
  outer loop
    vertex 41.4488887394336 10.388228567653782 -2.999999999999979
    vertex 41.29903810567666 10.75 5.0
    vertex 41.29903810567666 10.75 -2.999999999999979
  endloop
endfacet
facet normal -0.7933533402912326 -0.6087614290087243 -0.0
  outer loop
    vertex 41.060660171779816 11.06066017177982 5.0
    vertex 41.29903810567666 10.75 -2.999999999999979
    vertex 41.29903810567666 10.75 5.0
  endloop
endfacet
facet normal -0.7933533402912326 -0.6087614290087243 -0.0
  outer loop
    vertex 41.29903810567666 10.75 -2.999999999999979
    vertex 41.060660171779816 11.06066017177982 5.0
    vertex 41.060660171779816 11.06066017177982 -2.999999999999979
  endloop
endfacet
facet normal -0.608761429008722 -0.7933533402912343 -0.0
  outer loop
    vertex 41.060660171779816 11.06066017177982 5.0
    vertex 40.75 11.299038105676656 -2.999999999999979
    vertex 41.060660171779816 11.06066017177982 -2.999999999999979
  endloop
endfacet
facet normal -0.608761429008722 -0.7933533402912343 -0.0
  outer loop
    vertex 40.75 11.299038105676656 -2.999999999999979
    vertex 41.060660171779816 11.06066017177982 5.0
    vertex 40.75 11.299038105676656 5.0
  endloop
endfacet
facet normal -0.38268343236508695 -0.923879532511288 -0.0
  outer loop
    vertex 40.75 11.299038105676656 5.0
    vertex 40.388228567653776 11.448888739433599 -2.999999999999979
    vertex 40.75 11.299038105676656 -2.999999999999979
  endloop
endfacet
facet normal -0.38268343236508695 -0.923879532511288 -0.0
  outer loop
    vertex 40.388228567653776 11.448888739433599 -2.999999999999979
    vertex 40.75 11.299038105676656 5.0
    vertex 40.388228567653776 11.448888739433599 5.0
  endloop
endfacet
facet normal -0.13052619222005263 -0.9914448613738104 -0.0
  outer loop
    vertex 40.388228567653776 11.448888739433599 5.0
    vertex 40.0 11.499999999999996 -2.999999999999979
    vertex 40.388228567653776 11.448888739433599 -2.999999999999979
  endloop
endfacet
facet normal -0.13052619222005263 -0.9914448613738104 -0.0
  outer loop
    vertex 40.0 11.499999999999996 -2.999999999999979
    vertex 40.388228567653776 11.448888739433599 5.0
    vertex 40.0 11.499999999999996 5.0
  endloop
endfacet
facet normal 0.13052619222005074 -0.9914448613738105 -0.0
  outer loop
    vertex 40.0 11.499999999999996 5.0
    vertex 39.61177143234622 11.448888739433599 -2.999999999999979
    vertex 40.0 11.499999999999996 -2.999999999999979
  endloop
endfacet
facet normal 0.13052619222005074 -0.9914448613738105 -0.0
  outer loop
    vertex 39.61177143234622 11.448888739433599 -2.999999999999979
    vertex 40.0 11.499999999999996 5.0
    vertex 39.61177143234622 11.448888739433599 5.0
  endloop
endfacet
facet normal 0.38268343236509206 -0.9238795325112859 -0.0
  outer loop
    vertex 39.61177143234622 11.448888739433599 5.0
    vertex 39.25 11.299038105676656 -2.999999999999979
    vertex 39.61177143234622 11.448888739433599 -2.999999999999979
  endloop
endfacet
facet normal 0.38268343236509206 -0.9238795325112859 -0.0
  outer loop
    vertex 39.25 11.299038105676656 -2.999999999999979
    vertex 39.61177143234622 11.448888739433599 5.0
    vertex 39.25 11.299038105676656 5.0
  endloop
endfacet
facet normal 0.6087614290087243 -0.7933533402912326 -0.0
  outer loop
    vertex 39.25 11.299038105676656 5.0
    vertex 38.939339828220184 11.060660171779817 -2.999999999999979
    vertex 39.25 11.299038105676656 -2.999999999999979
  endloop
endfacet
facet normal 0.6087614290087243 -0.7933533402912326 -0.0
  outer loop
    vertex 38.939339828220184 11.060660171779817 -2.999999999999979
    vertex 39.25 11.299038105676656 5.0
    vertex 38.939339828220184 11.060660171779817 5.0
  endloop
endfacet
facet normal 0.7933533402912326 -0.6087614290087243 -0.0
  outer loop
    vertex 38.939339828220184 11.060660171779817 -2.999999999999979
    vertex 38.70096189432334 10.749999999999998 5.0
    vertex 38.70096189432334 10.749999999999998 -2.999999999999979
  endloop
endfacet
facet normal 0.7933533402912326 -0.6087614290087243 -0.0
  outer loop
    vertex 38.70096189432334 10.749999999999998 5.0
    vertex 38.939339828220184 11.060660171779817 -2.999999999999979
    vertex 38.939339828220184 11.060660171779817 5.0
  endloop
endfacet
facet normal 0.923879532511285 -0.38268343236509444 -0.0
  outer loop
    vertex 38.70096189432334 10.749999999999998 -2.999999999999979
    vertex 38.5511112605664 10.38822856765378 5.0
    vertex 38.5511112605664 10.38822856765378 -2.999999999999979
  endloop
endfacet
facet normal 0.923879532511285 -0.38268343236509444 -0.0
  outer loop
    vertex 38.5511112605664 10.38822856765378 5.0
    vertex 38.70096189432334 10.749999999999998 -2.999999999999979
    vertex 38.70096189432334 10.749999999999998 5.0
  endloop
endfacet
facet normal 0.9914448613738114 -0.13052619222004508 -0.0
  outer loop
    vertex 38.5511112605664 10.38822856765378 -2.999999999999979
    vertex 38.5 10.0 5.0
    vertex 38.5 10.0 -2.999999999999979
  endloop
endfacet
facet normal 0.9914448613738114 -0.13052619222004508 -0.0
  outer loop
    vertex 38.5 10.0 5.0
    vertex 38.5511112605664 10.38822856765378 -2.999999999999979
    vertex 38.5511112605664 10.38822856765378 5.0
  endloop
endfacet
facet normal 0.9914448613738096 0.13052619222005876 0.0
  outer loop
    vertex 38.5 10.0 -2.999999999999979
    vertex 38.5511112605664 9.611771432346218 5.0
    vertex 38.5511112605664 9.611771432346218 -2.999999999999979
  endloop
endfacet
facet normal 0.9914448613738096 0.13052619222005876 0.0
  outer loop
    vertex 38.5511112605664 9.611771432346218 5.0
    vertex 38.5 10.0 -2.999999999999979
    vertex 38.5 10.0 5.0
  endloop
endfacet
facet normal 0.9238795325112894 0.38268343236508334 0.0
  outer loop
    vertex 38.5511112605664 9.611771432346218 -2.999999999999979
    vertex 38.70096189432334 9.250000000000002 5.0
    vertex 38.70096189432334 9.250000000000002 -2.999999999999979
  endloop
endfacet
facet normal 0.9238795325112894 0.38268343236508334 0.0
  outer loop
    vertex 38.70096189432334 9.250000000000002 5.0
    vertex 38.5511112605664 9.611771432346218 -2.999999999999979
    vertex 38.5511112605664 9.611771432346218 5.0
  endloop
endfacet
facet normal 0.7933533402912339 0.6087614290087225 0.0
  outer loop
    vertex 38.70096189432334 9.250000000000002 -2.999999999999979
    vertex 38.939339828220184 8.93933982822018 5.0
    vertex 38.939339828220184 8.93933982822018 -2.999999999999979
  endloop
endfacet
facet normal 0.7933533402912339 0.6087614290087225 0.0
  outer loop
    vertex 38.939339828220184 8.93933982822018 5.0
    vertex 38.70096189432334 9.250000000000002 -2.999999999999979
    vertex 38.70096189432334 9.250000000000002 5.0
  endloop
endfacet
facet normal 0.608761429008722 0.7933533402912343 0.0
  outer loop
    vertex 38.939339828220184 8.93933982822018 5.0
    vertex 39.25 8.700961894323344 -2.999999999999979
    vertex 38.939339828220184 8.93933982822018 -2.999999999999979
  endloop
endfacet
facet normal 0.608761429008722 0.7933533402912343 0.0
  outer loop
    vertex 39.25 8.700961894323344 -2.999999999999979
    vertex 38.939339828220184 8.93933982822018 5.0
    vertex 39.25 8.700961894323344 5.0
  endloop
endfacet
facet normal 0.38268343236508695 0.923879532511288 0.0
  outer loop
    vertex 39.25 8.700961894323344 5.0
    vertex 39.611771432346224 8.551111260566401 -2.999999999999979
    vertex 39.25 8.700961894323344 -2.999999999999979
  endloop
endfacet
facet normal 0.38268343236508695 0.923879532511288 0.0
  outer loop
    vertex 39.611771432346224 8.551111260566401 -2.999999999999979
    vertex 39.25 8.700961894323344 5.0
    vertex 39.611771432346224 8.551111260566401 5.0
  endloop
endfacet
facet normal 0.13052619222005263 0.9914448613738104 0.0
  outer loop
    vertex 39.611771432346224 8.551111260566401 5.0
    vertex 40.0 8.500000000000004 -2.999999999999979
    vertex 39.611771432346224 8.551111260566401 -2.999999999999979
  endloop
endfacet
facet normal 0.13052619222005263 0.9914448613738104 0.0
  outer loop
    vertex 40.0 8.500000000000004 -2.999999999999979
    vertex 39.611771432346224 8.551111260566401 5.0
    vertex 40.0 8.500000000000004 5.0
  endloop
endfacet
facet normal -0.13052619222005263 0.9914448613738104 -0.0
  outer loop
    vertex 40.0 8.500000000000004 5.0
    vertex 40.388228567653776 8.551111260566401 -2.999999999999979
    vertex 40.0 8.500000000000004 -2.999999999999979
  endloop
endfacet
facet normal -0.13052619222005263 0.9914448613738104 -0.0
  outer loop
    vertex 40.388228567653776 8.551111260566401 -2.999999999999979
    vertex 40.0 8.500000000000004 5.0
    vertex 40.388228567653776 8.551111260566401 5.0
  endloop
endfacet
facet normal 0.6941938966166468 -0.7197880479003499 0.0
  outer loop
    vertex 18.51090704667225 -10.933678225367842 0.0
    vertex 14.911928136255302 -14.40468500430975 -3.0
    vertex 18.51090704667225 -10.933678225367842 -3.0
  endloop
endfacet
facet normal 0.6941938966166468 -0.7197880479003499 0.0
  outer loop
    vertex 14.911928136255302 -14.40468500430975 -3.0
    vertex 18.51090704667225 -10.933678225367842 0.0
    vertex 14.911928136255302 -14.40468500430975 0.0
  endloop
endfacet
facet normal 0.7604070406005955 0.6494467896641297 2.3385262361726074e-17
  outer loop
    vertex 15.962355907921973 -7.949698228733157 -3.0
    vertex 18.51090704667225 -10.933678225367842 0.0
    vertex 18.51090704667225 -10.933678225367842 -3.0
  endloop
endfacet
facet normal 0.7604070406005955 0.6494467896641297 2.3385262361726074e-17
  outer loop
    vertex 18.51090704667225 -10.933678225367842 0.0
    vertex 15.962355907921973 -7.949698228733157 -3.0
    vertex 15.962355907921973 -7.949698228733157 1.9999999999999998
  endloop
endfacet
facet normal 0.7604070406005955 0.6494467896641297 2.3385262361726074e-17
  outer loop
    vertex 15.962355907921973 -7.949698228733157 1.9999999999999998
    vertex 15.962355907921973 -7.949698228733157 -3.0
    vertex 15.962355907921973 -7.949698228733157 0.0
  endloop
endfacet
facet normal 0.8386714694603223 0.5446376468013058 2.1202960627230388e-17
  outer loop
    vertex 13.825095524081165 -4.658593918808311 -3.0
    vertex 15.962355907921973 -7.949698228733157 0.0
    vertex 15.962355907921973 -7.949698228733157 -3.0
  endloop
endfacet
facet normal 0.8386714694603223 0.5446376468013058 2.1202960627230388e-17
  outer loop
    vertex 15.962355907921973 -7.949698228733157 0.0
    vertex 13.825095524081165 -4.658593918808311 -3.0
    vertex 13.825095524081165 -4.658593918808311 1.9999999999999996
  endloop
endfacet
facet normal 0.8386714694603223 0.5446376468013058 2.1202960627230388e-17
  outer loop
    vertex 13.825095524081165 -4.658593918808311 1.9999999999999996
    vertex 13.825095524081165 -4.658593918808311 -3.0
    vertex 13.825095524081165 -4.658593918808311 0.0
  endloop
endfacet
facet normal 0.9025859969539227 0.430509602799628 1.970152229943851e-17
  outer loop
    vertex 12.135695012877868 -1.1166770028026165 -3.0
    vertex 13.825095524081165 -4.658593918808311 0.0
    vertex 13.825095524081165 -4.658593918808311 -3.0
  endloop
endfacet
facet normal 0.9025859969539227 0.430509602799628 1.970152229943851e-17
  outer loop
    vertex 13.825095524081165 -4.658593918808311 0.0
    vertex 12.135695012877868 -1.1166770028026165 -3.0
    vertex 12.135695012877868 -1.1166770028026165 1.9999999999999996
  endloop
endfacet
facet normal 0.9025859969539227 0.430509602799628 1.970152229943851e-17
  outer loop
    vertex 12.135695012877868 -1.1166770028026165 1.9999999999999996
    vertex 12.135695012877868 -1.1166770028026165 -3.0
    vertex 12.135695012877868 -1.1166770028026165 0.0
  endloop
endfacet
facet normal 0.9510570277955269 0.3090154201342362 -6.24390790215068e-17
  outer loop
    vertex 11.772866703859282 0.0 -3.0
    vertex 12.135695012877868 -1.1166770028026165 0.0
    vertex 12.135695012877868 -1.1166770028026165 -3.0
  endloop
endfacet
facet normal 0.9510570277955269 0.3090154201342362 -6.24390790215068e-17
  outer loop
    vertex 12.135695012877868 -1.1166770028026165 0.0
    vertex 11.772866703859282 0.0 -3.0
    vertex 11.772866703859282 0.0 0.0
  endloop
endfacet
facet normal 0.9510570277955269 0.3090154201342362 -6.24390790215068e-17
  outer loop
    vertex 12.135695012877868 -1.1166770028026165 0.0
    vertex 11.772866703859282 0.0 0.0
    vertex 10.923060485449081 2.6154493388461835 1.9999999999999996
  endloop
endfacet
facet normal 0.9510570277955269 0.3090154201342362 -6.24390790215068e-17
  outer loop
    vertex 10.923060485449081 2.6154493388461835 1.9999999999999996
    vertex 11.772866703859282 0.0 0.0
    vertex 10.923060485449081 2.6154493388461835 0.0
  endloop
endfacet
facet normal -0.8390121935034792 -0.5441126162408665 -3.117106103645336e-17
  outer loop
    vertex 9.45242264392143 -7.083486695472779 1.9999999999999996
    vertex 11.942356617186567 -10.922921588603845 -3.0
    vertex 11.942356617186567 -10.922921588603845 0.0
  endloop
endfacet
facet normal -0.8390121935034792 -0.5441126162408665 -3.117106103645336e-17
  outer loop
    vertex 11.942356617186567 -10.922921588603845 -3.0
    vertex 9.45242264392143 -7.083486695472779 1.9999999999999996
    vertex 9.45242264392143 -7.083486695472779 -3.0
  endloop
endfacet
facet normal -0.8390121935034792 -0.5441126162408665 -3.117106103645336e-17
  outer loop
    vertex 9.45242264392143 -7.083486695472779 -3.0
    vertex 9.45242264392143 -7.083486695472779 1.9999999999999996
    vertex 9.45242264392143 -7.083486695472779 0.0
  endloop
endfacet
facet normal -0.7608520633851149 -0.6489253713969066 0.0
  outer loop
    vertex 11.942356617186567 -10.922921588603845 1.9999999999999996
    vertex 14.911928136255302 -14.40468500430975 -3.0
    vertex 14.911928136255302 -14.40468500430975 0.0
  endloop
endfacet
facet normal -0.7608520633851149 -0.6489253713969066 0.0
  outer loop
    vertex 14.911928136255302 -14.40468500430975 -3.0
    vertex 11.942356617186567 -10.922921588603845 1.9999999999999996
    vertex 11.942356617186567 -10.922921588603845 -3.0
  endloop
endfacet
facet normal -0.7608520633851149 -0.6489253713969066 0.0
  outer loop
    vertex 11.942356617186567 -10.922921588603845 -3.0
    vertex 11.942356617186567 -10.922921588603845 1.9999999999999996
    vertex 11.942356617186567 -10.922921588603845 0.0
  endloop
endfacet
facet normal 0.7163030984442578 0.6977892741789286 -0.0
  outer loop
    vertex 15.577375403737532 35.07060844554904 -3.0
    vertex 19.06632177463217 31.48909295332776 1.9999999999999998
    vertex 19.06632177463217 31.48909295332776 -3.0
  endloop
endfacet
facet normal 0.7163030984442578 0.6977892741789286 -0.0
  outer loop
    vertex 19.06632177463217 31.48909295332776 1.9999999999999998
    vertex 15.577375403737532 35.07060844554904 -3.0
    vertex 15.577375403737532 35.07060844554904 1.9999999999999998
  endloop
endfacet
facet normal -0.7431237742712271 0.6691539853523151 0.0
  outer loop
    vertex 15.577375403737532 35.07060844554904 1.9999999999999998
    vertex 12.515234972248397 31.66997211279428 -3.0
    vertex 12.515234972248397 31.66997211279428 0.0
  endloop
endfacet
facet normal -0.7431237742712271 0.6691539853523151 0.0
  outer loop
    vertex 12.515234972248397 31.66997211279428 -3.0
    vertex 15.577375403737532 35.07060844554904 1.9999999999999998
    vertex 15.577375403737532 35.07060844554904 -3.0
  endloop
endfacet
facet normal -0.824074602903108 0.5664812872903084 -6.347216672347953e-17
  outer loop
    vertex 12.515234972248397 31.66997211279428 1.9999999999999998
    vertex 9.922938891727616 27.8988936833886 -3.0
    vertex 9.922938891727616 27.8988936833886 0.0
  endloop
endfacet
facet normal -0.824074602903108 0.5664812872903084 -6.347216672347953e-17
  outer loop
    vertex 9.922938891727616 27.8988936833886 -3.0
    vertex 12.515234972248397 31.66997211279428 1.9999999999999998
    vertex 12.515234972248397 31.66997211279428 -3.0
  endloop
endfacet
facet normal -0.824074602903108 0.5664812872903084 -6.347216672347953e-17
  outer loop
    vertex 12.515234972248397 31.66997211279428 -3.0
    vertex 12.515234972248397 31.66997211279428 1.9999999999999998
    vertex 12.515234972248397 31.66997211279428 0.0
  endloop
endfacet
facet normal -0.8909381072824599 0.45412475047276196 -8.806302058556209e-17
  outer loop
    vertex 9.922938891727616 27.8988936833886 1.9999999999999998
    vertex 7.844801736749157 23.82183868561015 -3.0
    vertex 7.844801736749157 23.82183868561015 0.0
  endloop
endfacet
facet normal -0.8909381072824599 0.45412475047276196 -8.806302058556209e-17
  outer loop
    vertex 7.844801736749157 23.82183868561015 -3.0
    vertex 9.922938891727616 27.8988936833886 1.9999999999999998
    vertex 9.922938891727616 27.8988936833886 -3.0
  endloop
endfacet
facet normal -0.8909381072824599 0.45412475047276196 -8.806302058556209e-17
  outer loop
    vertex 9.922938891727616 27.8988936833886 -3.0
    vertex 9.922938891727616 27.8988936833886 1.9999999999999998
    vertex 9.922938891727616 27.8988936833886 0.0
  endloop
endfacet
facet normal 0.9426409385556835 -0.3338084195445951 -2.1778155072435876e-16
  outer loop
    vertex 12.436283297613532 21.842361316501933 -3.0
    vertex 11.783865506133024 20.0 0.0
    vertex 11.783865506133024 20.0 -3.0
  endloop
endfacet
facet normal 0.9426409385556835 -0.3338084195445951 -2.1778155072435876e-16
  outer loop
    vertex 11.783865506133024 20.0 0.0
    vertex 12.436283297613532 21.842361316501933 1.9999999999999996
    vertex 11.126356385518434 18.143261289183087 0.0
  endloop
endfacet
facet normal 0.9426409385556835 -0.3338084195445951 -2.1778155072435876e-16
  outer loop
    vertex 12.436283297613532 21.842361316501933 1.9999999999999996
    vertex 11.783865506133024 20.0 0.0
    vertex 12.436283297613532 21.842361316501933 -3.0
  endloop
endfacet
facet normal 0.9426409385556835 -0.3338084195445951 -2.1778155072435876e-16
  outer loop
    vertex 12.436283297613532 21.842361316501933 1.9999999999999996
    vertex 12.436283297613532 21.842361316501933 -3.0
    vertex 12.436283297613532 21.842361316501933 0.0
  endloop
endfacet
facet normal 0.8910057727174682 -0.45399197458121165 1.995757905351671e-17
  outer loop
    vertex 14.217833044592503 25.33883525837258 -3.0
    vertex 12.436283297613532 21.842361316501933 0.0
    vertex 12.436283297613532 21.842361316501933 -3.0
  endloop
endfacet
facet normal 0.8910057727174682 -0.45399197458121165 1.995757905351671e-17
  outer loop
    vertex 12.436283297613532 21.842361316501933 0.0
    vertex 14.217833044592503 25.33883525837258 -3.0
    vertex 14.217833044592503 25.33883525837258 1.9999999999999996
  endloop
endfacet
facet normal 0.8910057727174682 -0.45399197458121165 1.995757905351671e-17
  outer loop
    vertex 14.217833044592503 25.33883525837258 1.9999999999999996
    vertex 14.217833044592503 25.33883525837258 -3.0
    vertex 14.217833044592503 25.33883525837258 0.0
  endloop
endfacet
facet normal 0.8241252510745868 -0.566407601062388 -4.3154406743300366e-17
  outer loop
    vertex 16.440522816345624 28.572857476243897 -3.0
    vertex 14.217833044592503 25.33883525837258 0.0
    vertex 14.217833044592503 25.33883525837258 -3.0
  endloop
endfacet
facet normal 0.8241252510745868 -0.566407601062388 -4.3154406743300366e-17
  outer loop
    vertex 14.217833044592503 25.33883525837258 0.0
    vertex 16.440522816345624 28.572857476243897 -3.0
    vertex 16.440522816345624 28.572857476243897 1.9999999999999998
  endloop
endfacet
facet normal 0.8241252510745868 -0.566407601062388 -4.3154406743300366e-17
  outer loop
    vertex 16.440522816345624 28.572857476243897 1.9999999999999998
    vertex 16.440522816345624 28.572857476243897 -3.0
    vertex 16.440522816345624 28.572857476243897 0.0
  endloop
endfacet
facet normal 0.7431437178951334 -0.669131836451531 -2.899571778566112e-17
  outer loop
    vertex 19.06632177463217 31.48909295332776 -3.0
    vertex 16.440522816345624 28.572857476243897 0.0
    vertex 16.440522816345624 28.572857476243897 -3.0
  endloop
endfacet
facet normal 0.7431437178951334 -0.669131836451531 -2.899571778566112e-17
  outer loop
    vertex 16.440522816345624 28.572857476243897 0.0
    vertex 19.06632177463217 31.48909295332776 -3.0
    vertex 19.06632177463217 31.48909295332776 1.9999999999999998
  endloop
endfacet
facet normal -0.0 1.0 -0.0
  outer loop
    vertex 11.783865506133024 20.0 0.0
    vertex 45.0 20.0 -2.993578
    vertex 11.783865506133024 20.0 -3.0
  endloop
endfacet
facet normal -0.0 1.0 -0.0
  outer loop
    vertex 45.0 20.0 -2.993578
    vertex 11.783865506133024 20.0 0.0
    vertex 45.0 20.0 0.0
  endloop
endfacet
facet normal 0.9986296213825169 0.05233430325714773 -8.597307045680734e-18
  outer loop
    vertex 10.002570822819116 10.39273752051134 1.9999999999999996
    vertex 10.207940454764922 6.473927389691564 0.0
    vertex 10.002570822819116 10.39273752051134 0.0
  endloop
endfacet
facet normal 0.996917203862015 -0.0784607458793371 -1.7224149501437844e-17
  outer loop
    vertex 10.3104655209535 14.304827803467761 1.9999999999999996
    vertex 10.002570822819116 10.39273752051134 0.0
    vertex 10.3104655209535 14.304827803467761 0.0
  endloop
endfacet
facet normal 0.9781472565857672 -0.20791330990039403 -3.5109337258299035e-17
  outer loop
    vertex 11.126356385518434 18.143261289183087 1.9999999999999996
    vertex 10.3104655209535 14.304827803467761 0.0
    vertex 11.126356385518434 18.143261289183087 0.0
  endloop
endfacet
facet normal 0.6194228810893367 0.7850575102392089 -0.0
  outer loop
    vertex 12.515234972248397 31.66997211279428 1.9999999999999998
    vertex 16.440522816345624 28.572857476243897 0.0
    vertex 12.515234972248397 31.66997211279428 0.0
  endloop
endfacet
facet normal 0.6194228810893367 0.7850575102392089 -0.0
  outer loop
    vertex 16.440522816345624 28.572857476243897 0.0
    vertex 12.515234972248397 31.66997211279428 1.9999999999999998
    vertex 16.440522816345624 28.572857476243897 1.9999999999999998
  endloop
endfacet
facet normal 0.512011532179986 0.8589785741883808 -1.2725189125413778e-17
  outer loop
    vertex 9.922938891727616 27.8988936833886 1.9999999999999998
    vertex 14.217833044592503 25.33883525837258 0.0
    vertex 9.922938891727616 27.8988936833886 0.0
  endloop
endfacet
facet normal 0.512011532179986 0.8589785741883808 -1.2725189125413778e-17
  outer loop
    vertex 14.217833044592503 25.33883525837258 0.0
    vertex 9.922938891727616 27.8988936833886 1.9999999999999998
    vertex 14.217833044592503 25.33883525837258 1.9999999999999996
  endloop
endfacet
facet normal 0.39589520794984057 0.9182956954719719 1.8843391061055658e-17
  outer loop
    vertex 7.844801736749157 23.82183868561015 1.9999999999999998
    vertex 12.436283297613532 21.842361316501933 0.0
    vertex 7.844801736749157 23.82183868561015 0.0
  endloop
endfacet
facet normal 0.39589520794984057 0.9182956954719719 1.8843391061055658e-17
  outer loop
    vertex 12.436283297613532 21.842361316501933 0.0
    vertex 7.844801736749157 23.82183868561015 1.9999999999999998
    vertex 12.436283297613532 21.842361316501933 1.9999999999999996
  endloop
endfacet
facet normal 0.015594585668546965 0.9998783970552753 -0.0
  outer loop
    vertex 5.003165407766496 10.470710658311342 1.9999999999999996
    vertex 10.002570822819116 10.39273752051134 0.0
    vertex 5.003165407766496 10.470710658311342 0.0
  endloop
endfacet
facet normal 0.015594585668546965 0.9998783970552753 -0.0
  outer loop
    vertex 10.002570822819116 10.39273752051134 0.0
    vertex 5.003165407766496 10.470710658311342 1.9999999999999996
    vertex 10.002570822819116 10.39273752051134 1.9999999999999996
  endloop
endfacet
facet normal -0.11463464496098816 0.9934077200095983 -0.0
  outer loop
    vertex 5.240883693602725 5.900752069178249 1.9999999999999996
    vertex 10.207940454764922 6.473927389691564 0.0
    vertex 5.240883693602725 5.900752069178249 0.0
  endloop
endfacet
facet normal -0.11463464496098816 0.9934077200095983 -0.0
  outer loop
    vertex 10.207940454764922 6.473927389691564 0.0
    vertex 5.240883693602725 5.900752069178249 1.9999999999999996
    vertex 10.207940454764922 6.473927389691564 1.9999999999999996
  endloop
endfacet
facet normal -0.24291491291784043 0.9700475993899054 -0.0
  outer loop
    vertex 6.072799325667773 1.4008689739258748 1.9999999999999996
    vertex 10.923060485449081 2.6154493388461835 0.0
    vertex 6.072799325667773 1.4008689739258748 0.0
  endloop
endfacet
facet normal -0.24291491291784043 0.9700475993899054 -0.0
  outer loop
    vertex 10.923060485449081 2.6154493388461835 0.0
    vertex 6.072799325667773 1.4008689739258748 1.9999999999999996
    vertex 10.923060485449081 2.6154493388461835 1.9999999999999996
  endloop
endfacet
facet normal -0.367065258406274 0.9301951924575483 -0.0
  outer loop
    vertex 7.484690939514353 -2.9520143877738088 1.9999999999999996
    vertex 12.135695012877868 -1.1166770028026165 0.0
    vertex 7.484690939514353 -2.9520143877738088 0.0
  endloop
endfacet
facet normal -0.367065258406274 0.9301951924575483 -0.0
  outer loop
    vertex 12.135695012877868 -1.1166770028026165 0.0
    vertex 7.484690939514353 -2.9520143877738088 1.9999999999999996
    vertex 12.135695012877868 -1.1166770028026165 1.9999999999999996
  endloop
endfacet
facet normal -0.4849749365099383 0.8745280504118674 -0.0
  outer loop
    vertex 9.45242264392143 -7.083486695472779 1.9999999999999996
    vertex 13.825095524081165 -4.658593918808311 0.0
    vertex 9.45242264392143 -7.083486695472779 0.0
  endloop
endfacet
facet normal -0.4849749365099383 0.8745280504118674 -0.0
  outer loop
    vertex 13.825095524081165 -4.658593918808311 0.0
    vertex 9.45242264392143 -7.083486695472779 1.9999999999999996
    vertex 13.825095524081165 -4.658593918808311 1.9999999999999996
  endloop
endfacet
facet normal -0.2817435461070356 -0.35708220278168024 0.8905688489295008
  outer loop
    vertex 19.06632177463217 31.48909295332776 1.9999999999999998
    vertex 12.515234972248397 31.66997211279428 0.0
    vertex 16.440522816345624 28.572857476243897 0.0
  endloop
endfacet
facet normal -0.28737580794014594 -0.2799481907514638 0.9159935346418829
  outer loop
    vertex 19.06632177463217 31.48909295332776 1.9999999999999998
    vertex 15.577375403737532 35.07060844554904 1.9999999999999998
    vertex 12.515234972248397 31.66997211279428 0.0
  endloop
endfacet
facet normal -0.23288265595428242 -0.39069669175828775 0.8905738395017051
  outer loop
    vertex 16.440522816345624 28.572857476243897 1.9999999999999998
    vertex 9.922938891727616 27.8988936833886 0.0
    vertex 14.217833044592503 25.33883525837258 0.0
  endloop
endfacet
facet normal -0.24851303941266592 -0.3149658075920316 0.915990070519205
  outer loop
    vertex 16.440522816345624 28.572857476243897 1.9999999999999998
    vertex 12.515234972248397 31.66997211279428 1.9999999999999998
    vertex 9.922938891727616 27.8988936833886 0.0
  endloop
endfacet
facet normal -0.18006461539737428 -0.41766749863558567 0.8905787976733384
  outer loop
    vertex 14.217833044592503 25.33883525837258 1.9999999999999996
    vertex 7.844801736749157 23.82183868561015 0.0
    vertex 12.436283297613532 21.842361316501933 0.0
  endloop
endfacet
facet normal -0.20542357748108345 -0.3446298385860357 0.9159865873314066
  outer loop
    vertex 14.217833044592503 25.33883525837258 1.9999999999999996
    vertex 9.922938891727616 27.8988936833886 1.9999999999999998
    vertex 7.844801736749157 23.82183868561015 0.0
  endloop
endfacet
facet normal -0.15883984164852824 -0.36843573735243024 0.9159830850767069
  outer loop
    vertex 12.436283297613532 21.842361316501933 1.9999999999999996
    vertex 7.844801736749157 23.82183868561015 1.9999999999999998
    vertex 6.3163486792334655 19.508503231372543 0.0
  endloop
endfacet
facet normal -0.00709242128678043 -0.45474493379902864 0.8905934778249883
  outer loop
    vertex 10.3104655209535 14.304827803467761 1.9999999999999996
    vertex 5.003165407766496 10.470710658311342 0.0
    vertex 10.002570822819116 10.39273752051134 0.0
  endloop
endfacet
facet normal -0.058402948211801246 -0.3969597212194746 0.9159760233595238
  outer loop
    vertex 10.3104655209535 14.304827803467761 1.9999999999999996
    vertex 5.363708195595344 15.032622580735625 1.9999999999999996
    vertex 5.003165407766496 10.470710658311342 0.0
  endloop
endfacet
facet normal 0.052134779975294046 -0.45179267512089594 0.8905983064345185
  outer loop
    vertex 10.207940454764922 6.473927389691564 0.0
    vertex 10.002570822819116 10.39273752051134 1.9999999999999996
    vertex 5.240883693602725 5.900752069178249 0.0
  endloop
endfacet
facet normal -0.006257189194674046 -0.40119233912453245 0.9159724638935215
  outer loop
    vertex 10.002570822819116 10.39273752051134 1.9999999999999996
    vertex 5.003165407766496 10.470710658311342 1.9999999999999996
    vertex 5.240883693602725 5.900752069178249 0.0
  endloop
endfacet
facet normal 0.11047318197168914 -0.4411595965079616 0.8906031026635729
  outer loop
    vertex 10.923060485449081 2.6154493388461835 0.0
    vertex 10.207940454764922 6.473927389691564 1.9999999999999996
    vertex 6.072799325667773 1.4008689739258748 0.0
  endloop
endfacet
facet normal 0.045997071091146216 -0.3986041526566882 0.91596888535358
  outer loop
    vertex 10.207940454764922 6.473927389691564 1.9999999999999996
    vertex 5.240883693602725 5.900752069178249 1.9999999999999996
    vertex 6.072799325667773 1.4008689739258748 0.0
  endloop
endfacet
facet normal 0.1669310243425092 -0.423026785453913 0.8906078665161732
  outer loop
    vertex 12.135695012877868 -1.1166770028026165 0.0
    vertex 10.923060485449081 2.6154493388461835 1.9999999999999996
    vertex 7.484690939514353 -2.9520143877738088 0.0
  endloop
endfacet
facet normal 0.09747143380386011 -0.3892388871263177 0.915965287737961
  outer loop
    vertex 10.923060485449081 2.6154493388461835 1.9999999999999996
    vertex 6.072799325667773 1.4008689739258748 1.9999999999999996
    vertex 7.484690939514353 -2.9520143877738088 0.0
  endloop
endfacet
facet normal 0.22054855793827127 -0.3977028210631102 0.8906125979963414
  outer loop
    vertex 13.825095524081165 -4.658593918808311 0.0
    vertex 12.135695012877868 -1.1166770028026165 1.9999999999999996
    vertex 9.45242264392143 -7.083486695472779 0.0
  endloop
endfacet
facet normal 0.1472907230985747 -0.3732554889960359 0.9159616710449348
  outer loop
    vertex 12.135695012877868 -1.1166770028026165 1.9999999999999996
    vertex 7.484690939514353 -2.9520143877738088 1.9999999999999996
    vertex 9.45242264392143 -7.083486695472779 0.0
  endloop
endfacet
facet normal 0.27041435943788217 -0.3656185229192584 0.8906172971081011
  outer loop
    vertex 15.962355907921973 -7.949698228733157 0.0
    vertex 13.825095524081165 -4.658593918808311 1.9999999999999996
    vertex 11.942356617186567 -10.922921588603845 0.0
  endloop
endfacet
facet normal 0.1946078656332316 -0.35092542833614476 0.91595803527278
  outer loop
    vertex 13.825095524081165 -4.658593918808311 1.9999999999999996
    vertex 9.45242264392143 -7.083486695472779 1.9999999999999996
    vertex 11.942356617186567 -10.922921588603845 0.0
  endloop
endfacet
facet normal -0.5946393030572656 0.803992599007957 -2.9287850880534754e-17
  outer loop
    vertex 11.942356617186567 -10.922921588603845 1.9999999999999996
    vertex 15.962355907921973 -7.949698228733157 0.0
    vertex 11.942356617186567 -10.922921588603845 0.0
  endloop
endfacet
facet normal -0.5946393030572656 0.803992599007957 -2.9287850880534754e-17
  outer loop
    vertex 15.962355907921973 -7.949698228733157 0.0
    vertex 11.942356617186567 -10.922921588603845 1.9999999999999996
    vertex 15.962355907921973 -7.949698228733157 1.9999999999999998
  endloop
endfacet
facet normal 0.3156808237653556 -0.32731962208984783 0.8906219638554765
  outer loop
    vertex 18.51090704667225 -10.933678225367842 0.0
    vertex 15.962355907921973 -7.949698228733157 1.9999999999999998
    vertex 14.911928136255302 -14.40468500430975 0.0
  endloop
endfacet
facet normal 0.2386182929185801 -0.3226280881672159 0.9159543804197837
  outer loop
    vertex 15.962355907921973 -7.949698228733157 1.9999999999999998
    vertex 11.942356617186567 -10.922921588603845 1.9999999999999996
    vertex 14.911928136255302 -14.40468500430975 0.0
  endloop
endfacet
facet normal 0.14555868391758597 0.9893496194653236 -0.0
  outer loop
    vertex 5.363708195595344 15.032622580735625 1.9999999999999996
    vertex 10.3104655209535 14.304827803467761 0.0
    vertex 5.363708195595344 15.032622580735625 0.0
  endloop
endfacet
facet normal 0.14555868391758597 0.9893496194653236 -0.0
  outer loop
    vertex 10.3104655209535 14.304827803467761 0.0
    vertex 5.363708195595344 15.032622580735625 1.9999999999999996
    vertex 10.3104655209535 14.304827803467761 1.9999999999999996
  endloop
endfacet
facet normal -0.0662015097432027 -0.4499658605703737 0.8905886168309607
  outer loop
    vertex 11.126356385518434 18.143261289183087 1.9999999999999996
    vertex 5.363708195595344 15.032622580735625 0.0
    vertex 10.3104655209535 14.304827803467761 0.0
  endloop
endfacet
facet normal -0.1241875393965167 -0.43753638315846505 0.8905837234484175
  outer loop
    vertex 12.436283297613532 21.842361316501933 1.9999999999999996
    vertex 6.3163486792334655 19.508503231372543 0.0
    vertex 11.126356385518434 18.143261289183087 0.0
  endloop
endfacet
facet normal 0.9832552092087256 0.18223389795508818 -3.492694632900682e-17
  outer loop
    vertex 10.207940454764922 6.473927389691564 1.9999999999999996
    vertex 10.923060485449081 2.6154493388461835 0.0
    vertex 10.207940454764922 6.473927389691564 0.0
  endloop
endfacet
facet normal -0.0 -0.0 1.0
  outer loop
    vertex 10.207940454764922 6.473927389691564 0.0
    vertex 10.3104655209535 14.304827803467761 0.0
    vertex 10.002570822819116 10.39273752051134 0.0
  endloop
endfacet
facet normal -0.0 -0.0 1.0
  outer loop
    vertex 10.3104655209535 14.304827803467761 0.0
    vertex 10.207940454764922 6.473927389691564 0.0
    vertex 10.923060485449081 2.6154493388461835 0.0
  endloop
endfacet
facet normal -0.0 -0.0 1.0
  outer loop
    vertex 10.3104655209535 14.304827803467761 0.0
    vertex 10.923060485449081 2.6154493388461835 0.0
    vertex 11.126356385518434 18.143261289183087 0.0
  endloop
endfacet
facet normal -0.0 -0.0 1.0
  outer loop
    vertex 11.126356385518434 18.143261289183087 0.0
    vertex 10.923060485449081 2.6154493388461835 0.0
    vertex 11.772866703859282 0.0 0.0
  endloop
endfacet
facet normal -0.0 -0.0 1.0
  outer loop
    vertex 11.126356385518434 18.143261289183087 0.0
    vertex 11.772866703859282 0.0 0.0
    vertex 11.783865506133024 20.0 0.0
  endloop
endfacet
facet normal -0.0 -0.0 1.0
  outer loop
    vertex 11.783865506133024 20.0 0.0
    vertex 11.772866703859282 0.0 0.0
    vertex 45.0 0.0 0.0
  endloop
endfacet
facet normal -0.0 -0.0 1.0
  outer loop
    vertex 11.783865506133024 20.0 0.0
    vertex 45.0 0.0 0.0
    vertex 37.5 5.669872981077805 0.0
  endloop
endfacet
facet normal -0.0 -0.0 1.0
  outer loop
    vertex 11.783865506133024 20.0 0.0
    vertex 37.5 5.669872981077805 0.0
    vertex 36.46446609406726 6.4644660940672605 0.0
  endloop
endfacet
facet normal -0.0 -0.0 1.0
  outer loop
    vertex 11.783865506133024 20.0 0.0
    vertex 36.46446609406726 6.4644660940672605 0.0
    vertex 35.6698729810778 7.499999999999997 0.0
  endloop
endfacet
facet normal -0.0 -0.0 1.0
  outer loop
    vertex 11.783865506133024 20.0 0.0
    vertex 35.6698729810778 7.499999999999997 0.0
    vertex 35.170370868554656 8.705904774487395 0.0
  endloop
endfacet
facet normal -0.0 -0.0 1.0
  outer loop
    vertex 11.783865506133024 20.0 0.0
    vertex 35.170370868554656 8.705904774487395 0.0
    vertex 35.0 10.0 0.0
  endloop
endfacet
facet normal -0.0 -0.0 1.0
  outer loop
    vertex 37.5 5.669872981077805 0.0
    vertex 45.0 0.0 0.0
    vertex 38.7059047744874 5.170370868554657 0.0
  endloop
endfacet
facet normal -0.0 -0.0 1.0
  outer loop
    vertex 38.7059047744874 5.170370868554657 0.0
    vertex 45.0 0.0 0.0
    vertex 40.0 4.999999999999998 0.0
  endloop
endfacet
facet normal -0.0 -0.0 1.0
  outer loop
    vertex 40.0 4.999999999999998 0.0
    vertex 45.0 0.0 0.0
    vertex 41.294095225512606 5.170370868554657 0.0
  endloop
endfacet
facet normal -0.0 -0.0 1.0
  outer loop
    vertex 41.294095225512606 5.170370868554657 0.0
    vertex 45.0 0.0 0.0
    vertex 42.5 5.669872981077805 0.0
  endloop
endfacet
facet normal -0.0 -0.0 1.0
  outer loop
    vertex 42.5 5.669872981077805 0.0
    vertex 45.0 0.0 0.0
    vertex 43.53553390593274 6.4644660940672605 0.0
  endloop
endfacet
facet normal -0.0 -0.0 1.0
  outer loop
    vertex 43.53553390593274 6.4644660940672605 0.0
    vertex 45.0 0.0 0.0
    vertex 44.3301270189222 7.499999999999999 0.0
  endloop
endfacet
facet normal -0.0 -0.0 1.0
  outer loop
    vertex 44.3301270189222 7.499999999999999 0.0
    vertex 45.0 0.0 0.0
    vertex 44.829629131445344 8.705904774487395 0.0
  endloop
endfacet
facet normal -0.0 -0.0 1.0
  outer loop
    vertex 44.829629131445344 8.705904774487395 0.0
    vertex 45.0 0.0 0.0
    vertex 45.0 10.0 0.0
  endloop
endfacet
facet normal -0.0 -0.0 1.0
  outer loop
    vertex 45.0 10.0 0.0
    vertex 45.0 0.0 0.0
    vertex 50.0 5.0 0.0
  endloop
endfacet
facet normal -0.0 -0.0 1.0
  outer loop
    vertex 11.783865506133024 20.0 0.0
    vertex 37.5 14.330127018922195 0.0
    vertex 45.0 20.0 0.0
  endloop
endfacet
facet normal -0.0 -0.0 1.0
  outer loop
    vertex 37.5 14.330127018922195 0.0
    vertex 11.783865506133024 20.0 0.0
    vertex 36.46446609406726 13.535533905932736 0.0
  endloop
endfacet
facet normal -0.0 -0.0 1.0
  outer loop
    vertex 36.46446609406726 13.535533905932736 0.0
    vertex 11.783865506133024 20.0 0.0
    vertex 35.6698729810778 12.5 0.0
  endloop
endfacet
facet normal -0.0 -0.0 1.0
  outer loop
    vertex 35.6698729810778 12.5 0.0
    vertex 11.783865506133024 20.0 0.0
    vertex 35.170370868554656 11.294095225512603 0.0
  endloop
endfacet
facet normal -0.0 -0.0 1.0
  outer loop
    vertex 35.170370868554656 11.294095225512603 0.0
    vertex 11.783865506133024 20.0 0.0
    vertex 35.0 10.0 0.0
  endloop
endfacet
facet normal -0.0 -0.0 1.0
  outer loop
    vertex 45.0 20.0 0.0
    vertex 37.5 14.330127018922195 0.0
    vertex 38.705904774487394 14.829629131445342 0.0
  endloop
endfacet
facet normal -0.0 -0.0 1.0
  outer loop
    vertex 45.0 20.0 0.0
    vertex 38.705904774487394 14.829629131445342 0.0
    vertex 40.0 15.0 0.0
  endloop
endfacet
facet normal -0.0 -0.0 1.0
  outer loop
    vertex 45.0 20.0 0.0
    vertex 40.0 15.0 0.0
    vertex 41.2940952255126 14.829629131445344 0.0
  endloop
endfacet
facet normal -0.0 -0.0 1.0
  outer loop
    vertex 45.0 20.0 0.0
    vertex 41.2940952255126 14.829629131445344 0.0
    vertex 42.49999999999999 14.330127018922198 0.0
  endloop
endfacet
facet normal -0.0 -0.0 1.0
  outer loop
    vertex 45.0 20.0 0.0
    vertex 42.49999999999999 14.330127018922198 0.0
    vertex 43.53553390593274 13.53553390593274 0.0
  endloop
endfacet
facet normal -0.0 -0.0 1.0
  outer loop
    vertex 45.0 20.0 0.0
    vertex 43.53553390593274 13.53553390593274 0.0
    vertex 44.3301270189222 12.500000000000002 0.0
  endloop
endfacet
facet normal -0.0 -0.0 1.0
  outer loop
    vertex 45.0 20.0 0.0
    vertex 44.3301270189222 12.500000000000002 0.0
    vertex 44.829629131445344 11.294095225512608 0.0
  endloop
endfacet
facet normal -0.0 -0.0 1.0
  outer loop
    vertex 45.0 20.0 0.0
    vertex 44.829629131445344 11.294095225512608 0.0
    vertex 45.0 10.0 0.0
  endloop
endfacet
facet normal -0.0 -0.0 1.0
  outer loop
    vertex 45.0 20.0 0.0
    vertex 45.0 10.0 0.0
    vertex 50.0 15.0 0.0
  endloop
endfacet
facet normal -0.0 -0.0 1.0
  outer loop
    vertex 50.0 15.0 0.0
    vertex 45.0 10.0 0.0
    vertex 50.0 5.0 0.0
  endloop
endfacet
facet normal 0.7071067811865474 -0.7071067811865477 0.0
  outer loop
    vertex 50.0 5.0 0.0
    vertex 45.0 0.0 -2.993578
    vertex 50.0 5.0 -2.993578
  endloop
endfacet
facet normal 0.7071067811865474 -0.7071067811865477 0.0
  outer loop
    vertex 45.0 0.0 -2.993578
    vertex 50.0 5.0 0.0
    vertex 45.0 0.0 0.0
  endloop
endfacet
facet normal 0.7071067811865474 0.7071067811865477 -0.0
  outer loop
    vertex 45.0 20.0 0.0
    vertex 50.0 15.0 -2.993578
    vertex 45.0 20.0 -2.993578
  endloop
endfacet
facet normal 0.7071067811865474 0.7071067811865477 -0.0
  outer loop
    vertex 50.0 15.0 -2.993578
    vertex 45.0 20.0 0.0
    vertex 50.0 15.0 0.0
  endloop
endfacet
facet normal -0.9028296454467492 -0.4299984084883308 -8.690310655810706e-17
  outer loop
    vertex 7.484690939514353 -2.9520143877738088 1.9999999999999996
    vertex 9.45242264392143 -7.083486695472779 -3.0
    vertex 9.45242264392143 -7.083486695472779 0.0
  endloop
endfacet
facet normal -0.9028296454467492 -0.4299984084883308 -8.690310655810706e-17
  outer loop
    vertex 9.45242264392143 -7.083486695472779 -3.0
    vertex 7.484690939514353 -2.9520143877738088 1.9999999999999996
    vertex 7.484690939514353 -2.9520143877738088 -3.0
  endloop
endfacet
facet normal -0.9028296454467492 -0.4299984084883308 -8.690310655810706e-17
  outer loop
    vertex 7.484690939514353 -2.9520143877738088 -3.0
    vertex 7.484690939514353 -2.9520143877738088 1.9999999999999996
    vertex 7.484690939514353 -2.9520143877738088 0.0
  endloop
endfacet
facet normal 0.00015968932689566337 -1.93249182488234e-06 -0.9999999872477922
  outer loop
    vertex 5.363708195595338 15.032622580735618 -2.999999999999996
    vertex 5.240883693602713 5.900752069178249 -2.999999999999992
    vertex 5.003165407766491 10.470710658311337 -2.999999999999994
  endloop
endfacet
facet normal 0.00015968932689566337 -1.93249182488234e-06 -0.9999999872477922
  outer loop
    vertex 5.240883693602713 5.900752069178249 -2.999999999999992
    vertex 5.363708195595338 15.032622580735618 -2.999999999999996
    vertex 6.072799325667766 1.4008689739258817 -2.99999999999999
  endloop
endfacet
facet normal 0.00015968932689566337 -1.93249182488234e-06 -0.9999999872477922
  outer loop
    vertex 6.072799325667766 1.4008689739258817 -2.99999999999999
    vertex 5.363708195595338 15.032622580735618 -2.999999999999996
    vertex 6.316348679233455 19.508503231372536 -2.9999999999999973
  endloop
endfacet
facet normal 0.00015968932689566337 -1.93249182488234e-06 -0.9999999872477922
  outer loop
    vertex 6.072799325667766 1.4008689739258817 -2.99999999999999
    vertex 6.316348679233455 19.508503231372536 -2.9999999999999973
    vertex 6.527182085791051 0.0 -3.0
  endloop
endfacet
facet normal 0.00015968932689566337 -1.93249182488234e-06 -0.9999999872477922
  outer loop
    vertex 6.527182085791051 0.0 -3.0
    vertex 6.316348679233455 19.508503231372536 -2.9999999999999973
    vertex 6.490513138904618 20.0 -3.0
  endloop
endfacet
facet normal 0.00015968932689566337 -1.93249182488234e-06 -0.9999999872477922
  outer loop
    vertex 6.527182085791051 0.0 -3.0
    vertex 6.490513138904618 20.0 -3.0
    vertex 7.844801736749157 23.82183868561015 -3.0
  endloop
endfacet
facet normal 0.00015968932689566337 -1.93249182488234e-06 -0.9999999872477922
  outer loop
    vertex 6.527182085791051 0.0 -3.0
    vertex 7.844801736749157 23.82183868561015 -3.0
    vertex 7.484690939514353 -2.9520143877738088 -3.0
  endloop
endfacet
facet normal 0.00015968932689566337 -1.93249182488234e-06 -0.9999999872477922
  outer loop
    vertex 7.484690939514353 -2.9520143877738088 -3.0
    vertex 7.844801736749157 23.82183868561015 -3.0
    vertex 9.45242264392143 -7.083486695472779 -3.0
  endloop
endfacet
facet normal 0.00015968932689566337 -1.93249182488234e-06 -0.9999999872477922
  outer loop
    vertex 9.45242264392143 -7.083486695472779 -3.0
    vertex 7.844801736749157 23.82183868561015 -3.0
    vertex 9.922938891727616 27.8988936833886 -3.0
  endloop
endfacet
facet normal 0.00015968932689566337 -1.93249182488234e-06 -0.9999999872477922
  outer loop
    vertex 9.45242264392143 -7.083486695472779 -3.0
    vertex 9.922938891727616 27.8988936833886 -3.0
    vertex 11.942356617186567 -10.922921588603845 -3.0
  endloop
endfacet
facet normal 0.00015968932689566337 -1.93249182488234e-06 -0.9999999872477922
  outer loop
    vertex 11.942356617186567 -10.922921588603845 -3.0
    vertex 9.922938891727616 27.8988936833886 -3.0
    vertex 11.772866703859282 0.0 -3.0
  endloop
endfacet
facet normal 0.00015968932689566337 -1.93249182488234e-06 -0.9999999872477922
  outer loop
    vertex 11.942356617186567 -10.922921588603845 -3.0
    vertex 11.772866703859282 0.0 -3.0
    vertex 12.135695012877868 -1.1166770028026165 -3.0
  endloop
endfacet
facet normal 0.00015968932689566337 -1.93249182488234e-06 -0.9999999872477922
  outer loop
    vertex 11.942356617186567 -10.922921588603845 -3.0
    vertex 12.135695012877868 -1.1166770028026165 -3.0
    vertex 14.911928136255302 -14.40468500430975 -3.0
  endloop
endfacet
facet normal 0.00015968932689566337 -1.93249182488234e-06 -0.9999999872477922
  outer loop
    vertex 14.911928136255302 -14.40468500430975 -3.0
    vertex 12.135695012877868 -1.1166770028026165 -3.0
    vertex 13.825095524081165 -4.658593918808311 -3.0
  endloop
endfacet
facet normal 0.00015968932689566337 -1.93249182488234e-06 -0.9999999872477922
  outer loop
    vertex 14.911928136255302 -14.40468500430975 -3.0
    vertex 13.825095524081165 -4.658593918808311 -3.0
    vertex 15.962355907921973 -7.949698228733157 -3.0
  endloop
endfacet
facet normal 0.00015968932689566337 -1.93249182488234e-06 -0.9999999872477922
  outer loop
    vertex 14.911928136255302 -14.40468500430975 -3.0
    vertex 15.962355907921973 -7.949698228733157 -3.0
    vertex 18.51090704667225 -10.933678225367842 -3.0
  endloop
endfacet
facet normal 0.00015968932689566337 -1.93249182488234e-06 -0.9999999872477922
  outer loop
    vertex 9.922938891727616 27.8988936833886 -3.0
    vertex 11.783865506133024 20.0 -3.0
    vertex 11.772866703859282 0.0 -3.0
  endloop
endfacet
facet normal 0.00015968932689566337 -1.93249182488234e-06 -0.9999999872477922
  outer loop
    vertex 11.783865506133024 20.0 -3.0
    vertex 9.922938891727616 27.8988936833886 -3.0
    vertex 12.515234972248397 31.66997211279428 -3.0
  endloop
endfacet
facet normal 0.00015968932689566337 -1.93249182488234e-06 -0.9999999872477922
  outer loop
    vertex 11.783865506133024 20.0 -3.0
    vertex 12.515234972248397 31.66997211279428 -3.0
    vertex 12.436283297613532 21.842361316501933 -3.0
  endloop
endfacet
facet normal 0.00015968932689566337 -1.93249182488234e-06 -0.9999999872477922
  outer loop
    vertex 12.436283297613532 21.842361316501933 -3.0
    vertex 12.515234972248397 31.66997211279428 -3.0
    vertex 14.217833044592503 25.33883525837258 -3.0
  endloop
endfacet
facet normal 0.00015968932689566337 -1.93249182488234e-06 -0.9999999872477922
  outer loop
    vertex 14.217833044592503 25.33883525837258 -3.0
    vertex 12.515234972248397 31.66997211279428 -3.0
    vertex 15.577375403737532 35.07060844554904 -3.0
  endloop
endfacet
facet normal 0.00015968932689566337 -1.93249182488234e-06 -0.9999999872477922
  outer loop
    vertex 14.217833044592503 25.33883525837258 -3.0
    vertex 15.577375403737532 35.07060844554904 -3.0
    vertex 16.440522816345624 28.572857476243897 -3.0
  endloop
endfacet
facet normal 0.00015968932689566337 -1.93249182488234e-06 -0.9999999872477922
  outer loop
    vertex 16.440522816345624 28.572857476243897 -3.0
    vertex 15.577375403737532 35.07060844554904 -3.0
    vertex 19.06632177463217 31.48909295332776 -3.0
  endloop
endfacet
facet normal 0.00015968932689566337 -1.93249182488234e-06 -0.9999999872477922
  outer loop
    vertex 11.783865506133024 20.0 -3.0
    vertex 38.5511112605664 10.38822856765378 -2.999999999999979
    vertex 38.5 10.0 -2.999999999999979
  endloop
endfacet
facet normal 0.00015968932689566337 -1.93249182488234e-06 -0.9999999872477922
  outer loop
    vertex 38.5511112605664 10.38822856765378 -2.999999999999979
    vertex 11.783865506133024 20.0 -3.0
    vertex 38.70096189432334 10.749999999999998 -2.999999999999979
  endloop
endfacet
facet normal 0.00015968932689566337 -1.93249182488234e-06 -0.9999999872477922
  outer loop
    vertex 38.70096189432334 10.749999999999998 -2.999999999999979
    vertex 11.783865506133024 20.0 -3.0
    vertex 45.0 20.0 -2.993578
  endloop
endfacet
facet normal 0.00015968932689566337 -1.93249182488234e-06 -0.9999999872477922
  outer loop
    vertex 38.70096189432334 10.749999999999998 -2.999999999999979
    vertex 45.0 20.0 -2.993578
    vertex 38.939339828220184 11.060660171779817 -2.999999999999979
  endloop
endfacet
facet normal 0.00015968932689566337 -1.93249182488234e-06 -0.9999999872477922
  outer loop
    vertex 38.939339828220184 11.060660171779817 -2.999999999999979
    vertex 45.0 20.0 -2.993578
    vertex 39.25 11.299038105676656 -2.999999999999979
  endloop
endfacet
facet normal 0.00015968932689566337 -1.93249182488234e-06 -0.9999999872477922
  outer loop
    vertex 39.25 11.299038105676656 -2.999999999999979
    vertex 45.0 20.0 -2.993578
    vertex 39.61177143234622 11.448888739433599 -2.999999999999979
  endloop
endfacet
facet normal 0.00015968932689566337 -1.93249182488234e-06 -0.9999999872477922
  outer loop
    vertex 39.61177143234622 11.448888739433599 -2.999999999999979
    vertex 45.0 20.0 -2.993578
    vertex 40.0 11.499999999999996 -2.999999999999979
  endloop
endfacet
facet normal 0.00015968932689566337 -1.93249182488234e-06 -0.9999999872477922
  outer loop
    vertex 40.0 11.499999999999996 -2.999999999999979
    vertex 45.0 20.0 -2.993578
    vertex 40.388228567653776 11.448888739433599 -2.999999999999979
  endloop
endfacet
facet normal 0.00015968932689566337 -1.93249182488234e-06 -0.9999999872477922
  outer loop
    vertex 40.388228567653776 11.448888739433599 -2.999999999999979
    vertex 45.0 20.0 -2.993578
    vertex 40.75 11.299038105676656 -2.999999999999979
  endloop
endfacet
facet normal 0.00015968932689566337 -1.93249182488234e-06 -0.9999999872477922
  outer loop
    vertex 40.75 11.299038105676656 -2.999999999999979
    vertex 45.0 20.0 -2.993578
    vertex 41.060660171779816 11.06066017177982 -2.999999999999979
  endloop
endfacet
facet normal 0.00015968932689566337 -1.93249182488234e-06 -0.9999999872477922
  outer loop
    vertex 41.060660171779816 11.06066017177982 -2.999999999999979
    vertex 45.0 20.0 -2.993578
    vertex 41.29903810567666 10.75 -2.999999999999979
  endloop
endfacet
facet normal 0.00015968932689566337 -1.93249182488234e-06 -0.9999999872477922
  outer loop
    vertex 41.29903810567666 10.75 -2.999999999999979
    vertex 45.0 20.0 -2.993578
    vertex 41.4488887394336 10.388228567653782 -2.999999999999979
  endloop
endfacet
facet normal 0.00015968932689566337 -1.93249182488234e-06 -0.9999999872477922
  outer loop
    vertex 41.4488887394336 10.388228567653782 -2.999999999999979
    vertex 45.0 20.0 -2.993578
    vertex 41.5 10.0 -2.999999999999979
  endloop
endfacet
facet normal 0.00015968932689566337 -1.93249182488234e-06 -0.9999999872477922
  outer loop
    vertex 11.783865506133024 20.0 -3.0
    vertex 45.0 0.0 -2.993578
    vertex 11.772866703859282 0.0 -3.0
  endloop
endfacet
facet normal 0.00015968932689566337 -1.93249182488234e-06 -0.9999999872477922
  outer loop
    vertex 45.0 0.0 -2.993578
    vertex 11.783865506133024 20.0 -3.0
    vertex 38.70096189432334 9.250000000000002 -2.999999999999979
  endloop
endfacet
facet normal 0.00015968932689566337 -1.93249182488234e-06 -0.9999999872477922
  outer loop
    vertex 38.70096189432334 9.250000000000002 -2.999999999999979
    vertex 11.783865506133024 20.0 -3.0
    vertex 38.5511112605664 9.611771432346218 -2.999999999999979
  endloop
endfacet
facet normal 0.00015968932689566337 -1.93249182488234e-06 -0.9999999872477922
  outer loop
    vertex 38.5511112605664 9.611771432346218 -2.999999999999979
    vertex 11.783865506133024 20.0 -3.0
    vertex 38.5 10.0 -2.999999999999979
  endloop
endfacet
facet normal 0.00015968932689566337 -1.93249182488234e-06 -0.9999999872477922
  outer loop
    vertex 45.0 0.0 -2.993578
    vertex 38.70096189432334 9.250000000000002 -2.999999999999979
    vertex 38.939339828220184 8.93933982822018 -2.999999999999979
  endloop
endfacet
facet normal 0.00015968932689566337 -1.93249182488234e-06 -0.9999999872477922
  outer loop
    vertex 45.0 0.0 -2.993578
    vertex 38.939339828220184 8.93933982822018 -2.999999999999979
    vertex 39.25 8.700961894323344 -2.999999999999979
  endloop
endfacet
facet normal 0.00015968932689566337 -1.93249182488234e-06 -0.9999999872477922
  outer loop
    vertex 45.0 0.0 -2.993578
    vertex 39.25 8.700961894323344 -2.999999999999979
    vertex 39.611771432346224 8.551111260566401 -2.999999999999979
  endloop
endfacet
facet normal 0.00015968932689566337 -1.93249182488234e-06 -0.9999999872477922
  outer loop
    vertex 45.0 0.0 -2.993578
    vertex 39.611771432346224 8.551111260566401 -2.999999999999979
    vertex 40.0 8.500000000000004 -2.999999999999979
  endloop
endfacet
facet normal 0.00015968932689566337 -1.93249182488234e-06 -0.9999999872477922
  outer loop
    vertex 45.0 0.0 -2.993578
    vertex 40.0 8.500000000000004 -2.999999999999979
    vertex 40.388228567653776 8.551111260566401 -2.999999999999979
  endloop
endfacet
facet normal 0.00015968932689566337 -1.93249182488234e-06 -0.9999999872477922
  outer loop
    vertex 45.0 0.0 -2.993578
    vertex 40.388228567653776 8.551111260566401 -2.999999999999979
    vertex 40.75 8.700961894323344 -2.999999999999979
  endloop
endfacet
facet normal 0.00015968932689566337 -1.93249182488234e-06 -0.9999999872477922
  outer loop
    vertex 45.0 0.0 -2.993578
    vertex 40.75 8.700961894323344 -2.999999999999979
    vertex 41.060660171779816 8.93933982822018 -2.999999999999979
  endloop
endfacet
facet normal 0.00015968932689566337 -1.93249182488234e-06 -0.9999999872477922
  outer loop
    vertex 45.0 0.0 -2.993578
    vertex 41.060660171779816 8.93933982822018 -2.999999999999979
    vertex 41.29903810567666 9.250000000000002 -2.999999999999979
  endloop
endfacet
facet normal 0.00015968932689566337 -1.93249182488234e-06 -0.9999999872477922
  outer loop
    vertex 45.0 0.0 -2.993578
    vertex 41.29903810567666 9.250000000000002 -2.999999999999979
    vertex 41.4488887394336 9.61177143234622 -2.999999999999979
  endloop
endfacet
facet normal 0.00015968932689566337 -1.93249182488234e-06 -0.9999999872477922
  outer loop
    vertex 45.0 0.0 -2.993578
    vertex 41.4488887394336 9.61177143234622 -2.999999999999979
    vertex 41.5 10.0 -2.999999999999979
  endloop
endfacet
facet normal 0.00015968932689566337 -1.93249182488234e-06 -0.9999999872477922
  outer loop
    vertex 45.0 0.0 -2.993578
    vertex 41.5 10.0 -2.999999999999979
    vertex 45.0 20.0 -2.993578
  endloop
endfacet
facet normal 0.00015968932689566337 -1.93249182488234e-06 -0.9999999872477922
  outer loop
    vertex 45.0 0.0 -2.993578
    vertex 45.0 20.0 -2.993578
    vertex 50.0 15.0 -2.993578
  endloop
endfacet
facet normal 0.00015968932689566337 -1.93249182488234e-06 -0.9999999872477922
  outer loop
    vertex 45.0 0.0 -2.993578
    vertex 50.0 15.0 -2.993578
    vertex 50.0 5.0 -2.993578
  endloop
endfacet
facet normal -0.9425712745515454 0.33400507838994825 4.933630497401748e-16
  outer loop
    vertex 6.3163486792334655 19.508503231372543 0.0
    vertex 6.490513138904618 20.0 -3.0
    vertex 6.316348679233455 19.508503231372536 -2.9999999999999973
  endloop
endfacet
facet normal -0.9425712745515454 0.33400507838994825 4.933630497401748e-16
  outer loop
    vertex 6.490513138904618 20.0 -3.0
    vertex 6.3163486792334655 19.508503231372543 0.0
    vertex 7.844801736749157 23.82183868561015 1.9999999999999998
  endloop
endfacet
facet normal -0.9425712745515454 0.33400507838994825 4.933630497401748e-16
  outer loop
    vertex 6.490513138904618 20.0 -3.0
    vertex 7.844801736749157 23.82183868561015 1.9999999999999998
    vertex 7.844801736749157 23.82183868561015 -3.0
  endloop
endfacet
facet normal -0.9425712745515454 0.33400507838994825 4.933630497401748e-16
  outer loop
    vertex 7.844801736749157 23.82183868561015 -3.0
    vertex 7.844801736749157 23.82183868561015 1.9999999999999998
    vertex 7.844801736749157 23.82183868561015 0.0
  endloop
endfacet
facet normal -0.9968914267697202 0.07878758298762345 1.242857163938348e-15
  outer loop
    vertex 5.003165407766496 10.470710658311342 0.0
    vertex 5.363708195595338 15.032622580735618 -2.999999999999996
    vertex 5.003165407766491 10.470710658311337 -2.999999999999994
  endloop
endfacet
facet normal -0.9968914267697202 0.07878758298762345 1.242857163938348e-15
  outer loop
    vertex 5.363708195595338 15.032622580735618 -2.999999999999996
    vertex 5.003165407766496 10.470710658311342 0.0
    vertex 5.363708195595344 15.032622580735625 1.9999999999999996
  endloop
endfacet
facet normal -0.9968914267697202 0.07878758298762345 1.242857163938348e-15
  outer loop
    vertex 5.363708195595338 15.032622580735618 -2.999999999999996
    vertex 5.363708195595344 15.032622580735625 1.9999999999999996
    vertex 5.363708195595344 15.032622580735625 0.0
  endloop
endfacet
facet normal -0.9986498239489056 -0.051947368815177176 1.91501644333988e-15
  outer loop
    vertex 5.003165407766496 10.470710658311342 1.9999999999999996
    vertex 5.240883693602713 5.900752069178249 -2.999999999999992
    vertex 5.240883693602725 5.900752069178249 0.0
  endloop
endfacet
facet normal -0.9986498239489056 -0.051947368815177176 1.91501644333988e-15
  outer loop
    vertex 5.240883693602713 5.900752069178249 -2.999999999999992
    vertex 5.003165407766496 10.470710658311342 1.9999999999999996
    vertex 5.003165407766491 10.470710658311337 -2.999999999999994
  endloop
endfacet
facet normal -0.9986498239489056 -0.051947368815177176 1.91501644333988e-15
  outer loop
    vertex 5.003165407766491 10.470710658311337 -2.999999999999994
    vertex 5.003165407766496 10.470710658311342 1.9999999999999996
    vertex 5.003165407766496 10.470710658311342 0.0
  endloop
endfacet
facet normal -0.9833365824255526 -0.18179429491497967 2.0877924301534345e-15
  outer loop
    vertex 5.240883693602725 5.900752069178249 1.9999999999999996
    vertex 6.072799325667766 1.4008689739258817 -2.99999999999999
    vertex 6.072799325667773 1.4008689739258748 0.0
  endloop
endfacet
facet normal -0.9833365824255526 -0.18179429491497967 2.0877924301534345e-15
  outer loop
    vertex 6.072799325667766 1.4008689739258817 -2.99999999999999
    vertex 5.240883693602725 5.900752069178249 1.9999999999999996
    vertex 5.240883693602713 5.900752069178249 -2.999999999999992
  endloop
endfacet
facet normal -0.9833365824255526 -0.18179429491497967 2.0877924301534345e-15
  outer loop
    vertex 5.240883693602713 5.900752069178249 -2.999999999999992
    vertex 5.240883693602725 5.900752069178249 1.9999999999999996
    vertex 5.240883693602725 5.900752069178249 0.0
  endloop
endfacet
facet normal -0.9512134777694173 -0.30853349852132805 4.3673569790826225e-16
  outer loop
    vertex 6.072799325667773 1.4008689739258748 1.9999999999999996
    vertex 7.484690939514353 -2.9520143877738088 -3.0
    vertex 7.484690939514353 -2.9520143877738088 0.0
  endloop
endfacet
facet normal -0.9512134777694173 -0.30853349852132805 4.3673569790826225e-16
  outer loop
    vertex 7.484690939514353 -2.9520143877738088 -3.0
    vertex 6.072799325667773 1.4008689739258748 1.9999999999999996
    vertex 6.527182085791051 0.0 -3.0
  endloop
endfacet
facet normal -0.9512134777694173 -0.30853349852132805 4.3673569790826225e-16
  outer loop
    vertex 6.527182085791051 0.0 -3.0
    vertex 6.072799325667773 1.4008689739258748 1.9999999999999996
    vertex 6.072799325667773 1.4008689739258748 0.0
  endloop
endfacet
facet normal -0.9512134777694173 -0.30853349852132805 4.3673569790826225e-16
  outer loop
    vertex 6.527182085791051 0.0 -3.0
    vertex 6.072799325667773 1.4008689739258748 0.0
    vertex 6.072799325667766 1.4008689739258817 -2.99999999999999
  endloop
endfacet
facet normal -0.10955368781263564 -0.38597853343535016 0.9159795637533339
  outer loop
    vertex 11.126356385518434 18.143261289183087 1.9999999999999996
    vertex 6.3163486792334655 19.508503231372543 1.9999999999999998
    vertex 5.363708195595344 15.032622580735625 0.0
  endloop
endfacet
facet normal 0.2730480624447263 0.9620003927209079 -9.992561191181218e-18
  outer loop
    vertex 6.3163486792334655 19.508503231372543 1.9999999999999998
    vertex 11.126356385518434 18.143261289183087 0.0
    vertex 6.3163486792334655 19.508503231372543 0.0
  endloop
endfacet
facet normal 0.2730480624447263 0.9620003927209079 -9.992561191181218e-18
  outer loop
    vertex 11.126356385518434 18.143261289183087 0.0
    vertex 6.3163486792334655 19.508503231372543 1.9999999999999998
    vertex 11.126356385518434 18.143261289183087 1.9999999999999996
  endloop
endfacet
facet normal -0.9780914501946915 0.20817568315258542 1.92518687367631e-15
  outer loop
    vertex 5.363708195595344 15.032622580735625 0.0
    vertex 6.316348679233455 19.508503231372536 -2.9999999999999973
    vertex 5.363708195595338 15.032622580735618 -2.999999999999996
  endloop
endfacet
facet normal -0.9780914501946915 0.20817568315258542 1.92518687367631e-15
  outer loop
    vertex 6.316348679233455 19.508503231372536 -2.9999999999999973
    vertex 5.363708195595344 15.032622580735625 0.0
    vertex 6.3163486792334655 19.508503231372543 1.9999999999999998
  endloop
endfacet
facet normal -0.9780914501946915 0.20817568315258542 1.92518687367631e-15
  outer loop
    vertex 6.316348679233455 19.508503231372536 -2.9999999999999973
    vertex 6.3163486792334655 19.508503231372543 1.9999999999999998
    vertex 6.3163486792334655 19.508503231372543 0.0
  endloop
endfacet
endsolid Натяжитель-База
