solid 
   facet normal 0.000000e+000 0.000000e+000 1.000000e+000
      outer loop
         vertex -2.817326e+000 -9.594930e+000 1.100000e+001
         vertex 1.224647e-015 -1.000000e+001 1.100000e+001
         vertex -5.510911e-016 -3.000000e+000 1.100000e+001
      endloop
   endfacet
   facet normal 0.000000e+000 0.000000e+000 1.000000e+000
      outer loop
         vertex 2.817326e+000 -9.594930e+000 1.100000e+001
         vertex 5.406408e+000 -8.412536e+000 1.100000e+001
         vertex 1.500000e+000 -2.598076e+000 1.100000e+001
      endloop
   endfacet
   facet normal 0.000000e+000 0.000000e+000 1.000000e+000
      outer loop
         vertex 7.557496e+000 -6.548607e+000 1.100000e+001
         vertex 9.096320e+000 -4.154150e+000 1.100000e+001
         vertex 2.598076e+000 -1.500000e+000 1.100000e+001
      endloop
   endfacet
   facet normal 0.000000e+000 0.000000e+000 1.000000e+000
      outer loop
         vertex 9.898214e+000 -1.423148e+000 1.100000e+001
         vertex 9.898214e+000 1.423148e+000 1.100000e+001
         vertex 3.000000e+000 0.000000e+000 1.100000e+001
      endloop
   endfacet
   facet normal 0.000000e+000 0.000000e+000 1.000000e+000
      outer loop
         vertex 9.096320e+000 4.154150e+000 1.100000e+001
         vertex 7.557496e+000 6.548607e+000 1.100000e+001
         vertex 2.598076e+000 1.500000e+000 1.100000e+001
      endloop
   endfacet
   facet normal 0.000000e+000 0.000000e+000 1.000000e+000
      outer loop
         vertex 5.406408e+000 8.412536e+000 1.100000e+001
         vertex 2.817326e+000 9.594930e+000 1.100000e+001
         vertex 1.500000e+000 2.598076e+000 1.100000e+001
      endloop
   endfacet
   facet normal -0.000000e+000 0.000000e+000 1.000000e+000
      outer loop
         vertex -5.665539e-015 1.000000e+001 1.100000e+001
         vertex -2.817326e+000 9.594930e+000 1.100000e+001
         vertex 1.836970e-016 3.000000e+000 1.100000e+001
      endloop
   endfacet
   facet normal -0.000000e+000 0.000000e+000 1.000000e+000
      outer loop
         vertex -5.406408e+000 8.412536e+000 1.100000e+001
         vertex -7.557496e+000 6.548607e+000 1.100000e+001
         vertex -1.500000e+000 2.598076e+000 1.100000e+001
      endloop
   endfacet
   facet normal 0.000000e+000 0.000000e+000 1.000000e+000
      outer loop
         vertex -9.096320e+000 4.154150e+000 1.100000e+001
         vertex -9.898214e+000 1.423148e+000 1.100000e+001
         vertex -2.598076e+000 1.500000e+000 1.100000e+001
      endloop
   endfacet
   facet normal 0.000000e+000 -0.000000e+000 1.000000e+000
      outer loop
         vertex -9.898214e+000 -1.423148e+000 1.100000e+001
         vertex -9.096320e+000 -4.154150e+000 1.100000e+001
         vertex -2.598076e+000 -1.500000e+000 1.100000e+001
      endloop
   endfacet
   facet normal 0.000000e+000 -0.000000e+000 1.000000e+000
      outer loop
         vertex -7.557496e+000 -6.548607e+000 1.100000e+001
         vertex -5.406408e+000 -8.412536e+000 1.100000e+001
         vertex -1.500000e+000 -2.598076e+000 1.100000e+001
      endloop
   endfacet
   facet normal 0.000000e+000 -0.000000e+000 1.000000e+000
      outer loop
         vertex 2.598076e+000 1.500000e+000 1.100000e+001
         vertex 3.000000e+000 0.000000e+000 1.100000e+001
         vertex 9.898214e+000 1.423148e+000 1.100000e+001
      endloop
   endfacet
   facet normal -0.000000e+000 0.000000e+000 1.000000e+000
      outer loop
         vertex 2.598076e+000 -1.500000e+000 1.100000e+001
         vertex 1.500000e+000 -2.598076e+000 1.100000e+001
         vertex 7.557496e+000 -6.548607e+000 1.100000e+001
      endloop
   endfacet
   facet normal 0.000000e+000 0.000000e+000 1.000000e+000
      outer loop
         vertex -5.510911e-016 -3.000000e+000 1.100000e+001
         vertex -1.500000e+000 -2.598076e+000 1.100000e+001
         vertex -2.817326e+000 -9.594930e+000 1.100000e+001
      endloop
   endfacet
   facet normal 0.000000e+000 0.000000e+000 1.000000e+000
      outer loop
         vertex -2.598076e+000 -1.500000e+000 1.100000e+001
         vertex -3.000000e+000 1.699662e-015 1.100000e+001
         vertex -9.898214e+000 -1.423148e+000 1.100000e+001
      endloop
   endfacet
   facet normal 0.000000e+000 0.000000e+000 1.000000e+000
      outer loop
         vertex -2.598076e+000 1.500000e+000 1.100000e+001
         vertex -1.500000e+000 2.598076e+000 1.100000e+001
         vertex -7.557496e+000 6.548607e+000 1.100000e+001
      endloop
   endfacet
   facet normal 0.000000e+000 -0.000000e+000 1.000000e+000
      outer loop
         vertex 1.836970e-016 3.000000e+000 1.100000e+001
         vertex 1.500000e+000 2.598076e+000 1.100000e+001
         vertex 2.817326e+000 9.594930e+000 1.100000e+001
      endloop
   endfacet
   facet normal 0.000000e+000 -0.000000e+000 1.000000e+000
      outer loop
         vertex -5.510911e-016 -3.000000e+000 1.100000e+001
         vertex 1.224647e-015 -1.000000e+001 1.100000e+001
         vertex 2.817326e+000 -9.594930e+000 1.100000e+001
      endloop
   endfacet
   facet normal 0.000000e+000 -0.000000e+000 1.000000e+000
      outer loop
         vertex 2.598076e+000 -1.500000e+000 1.100000e+001
         vertex 9.096320e+000 -4.154150e+000 1.100000e+001
         vertex 9.898214e+000 -1.423148e+000 1.100000e+001
      endloop
   endfacet
   facet normal 0.000000e+000 0.000000e+000 1.000000e+000
      outer loop
         vertex 2.598076e+000 1.500000e+000 1.100000e+001
         vertex 7.557496e+000 6.548607e+000 1.100000e+001
         vertex 1.500000e+000 2.598076e+000 1.100000e+001
      endloop
   endfacet
   facet normal 0.000000e+000 0.000000e+000 1.000000e+000
      outer loop
         vertex 1.836970e-016 3.000000e+000 1.100000e+001
         vertex -2.817326e+000 9.594930e+000 1.100000e+001
         vertex -1.500000e+000 2.598076e+000 1.100000e+001
      endloop
   endfacet
   facet normal -0.000000e+000 0.000000e+000 1.000000e+000
      outer loop
         vertex -2.598076e+000 1.500000e+000 1.100000e+001
         vertex -9.898214e+000 1.423148e+000 1.100000e+001
         vertex -3.000000e+000 1.699662e-015 1.100000e+001
      endloop
   endfacet
   facet normal -0.000000e+000 0.000000e+000 1.000000e+000
      outer loop
         vertex -1.500000e+000 -2.598076e+000 1.100000e+001
         vertex -5.406408e+000 -8.412536e+000 1.100000e+001
         vertex -2.817326e+000 -9.594930e+000 1.100000e+001
      endloop
   endfacet
   facet normal 0.000000e+000 0.000000e+000 1.000000e+000
      outer loop
         vertex -9.898214e+000 -1.423148e+000 1.100000e+001
         vertex -3.000000e+000 1.699662e-015 1.100000e+001
         vertex -9.898214e+000 1.423148e+000 1.100000e+001
      endloop
   endfacet
   facet normal 0.000000e+000 0.000000e+000 1.000000e+000
      outer loop
         vertex -5.510911e-016 -3.000000e+000 1.100000e+001
         vertex 2.817326e+000 -9.594930e+000 1.100000e+001
         vertex 1.500000e+000 -2.598076e+000 1.100000e+001
      endloop
   endfacet
   facet normal 0.000000e+000 0.000000e+000 1.000000e+000
      outer loop
         vertex 5.406408e+000 -8.412536e+000 1.100000e+001
         vertex 7.557496e+000 -6.548607e+000 1.100000e+001
         vertex 1.500000e+000 -2.598076e+000 1.100000e+001
      endloop
   endfacet
   facet normal 0.000000e+000 0.000000e+000 1.000000e+000
      outer loop
         vertex 7.557496e+000 6.548607e+000 1.100000e+001
         vertex 5.406408e+000 8.412536e+000 1.100000e+001
         vertex 1.500000e+000 2.598076e+000 1.100000e+001
      endloop
   endfacet
   facet normal -0.000000e+000 0.000000e+000 1.000000e+000
      outer loop
         vertex -2.817326e+000 9.594930e+000 1.100000e+001
         vertex -5.406408e+000 8.412536e+000 1.100000e+001
         vertex -1.500000e+000 2.598076e+000 1.100000e+001
      endloop
   endfacet
   facet normal 0.000000e+000 -0.000000e+000 1.000000e+000
      outer loop
         vertex -9.096320e+000 -4.154150e+000 1.100000e+001
         vertex -7.557496e+000 -6.548607e+000 1.100000e+001
         vertex -2.598076e+000 -1.500000e+000 1.100000e+001
      endloop
   endfacet
   facet normal 0.000000e+000 0.000000e+000 1.000000e+000
      outer loop
         vertex -1.500000e+000 -2.598076e+000 1.100000e+001
         vertex -2.598076e+000 -1.500000e+000 1.100000e+001
         vertex -7.557496e+000 -6.548607e+000 1.100000e+001
      endloop
   endfacet
   facet normal -0.000000e+000 0.000000e+000 1.000000e+000
      outer loop
         vertex 9.096320e+000 4.154150e+000 1.100000e+001
         vertex 2.598076e+000 1.500000e+000 1.100000e+001
         vertex 9.898214e+000 1.423148e+000 1.100000e+001
      endloop
   endfacet
   facet normal 0.000000e+000 0.000000e+000 1.000000e+000
      outer loop
         vertex -2.598076e+000 1.500000e+000 1.100000e+001
         vertex -7.557496e+000 6.548607e+000 1.100000e+001
         vertex -9.096320e+000 4.154150e+000 1.100000e+001
      endloop
   endfacet
   facet normal 0.000000e+000 0.000000e+000 1.000000e+000
      outer loop
         vertex 2.817326e+000 9.594930e+000 1.100000e+001
         vertex -5.665539e-015 1.000000e+001 1.100000e+001
         vertex 1.836970e-016 3.000000e+000 1.100000e+001
      endloop
   endfacet
   facet normal 0.000000e+000 0.000000e+000 1.000000e+000
      outer loop
         vertex 9.898214e+000 -1.423148e+000 1.100000e+001
         vertex 3.000000e+000 0.000000e+000 1.100000e+001
         vertex 2.598076e+000 -1.500000e+000 1.100000e+001
      endloop
   endfacet
   facet normal 1.391951e-017 2.915826e-017 -1.000000e+000
      outer loop
         vertex -5.510911e-016 -3.000000e+000 0.000000e+000
         vertex 2.817326e+000 -9.594930e+000 -1.530808e-016
         vertex 1.224647e-015 -1.000000e+001 -2.041078e-016
      endloop
   endfacet
   facet normal -1.441894e-017 1.664034e-017 -1.000000e+000
      outer loop
         vertex 1.500000e+000 -2.598076e+000 0.000000e+000
         vertex 7.557496e+000 -6.548607e+000 -1.530808e-016
         vertex 5.406408e+000 -8.412536e+000 -1.530808e-016
      endloop
   endfacet
   facet normal -2.103460e-017 6.176315e-018 -1.000000e+000
      outer loop
         vertex 2.598076e+000 -1.500000e+000 0.000000e+000
         vertex 9.898214e+000 -1.423148e+000 -1.530808e-016
         vertex 9.096320e+000 -4.154150e+000 -1.530808e-016
      endloop
   endfacet
   facet normal -2.103460e-017 -6.176315e-018 -1.000000e+000
      outer loop
         vertex 2.598076e+000 1.500000e+000 0.000000e+000
         vertex 9.096320e+000 4.154150e+000 -1.530808e-016
         vertex 9.898214e+000 1.423148e+000 -1.530808e-016
      endloop
   endfacet
   facet normal -1.441894e-017 -1.664034e-017 -1.000000e+000
      outer loop
         vertex 1.500000e+000 2.598076e+000 0.000000e+000
         vertex 5.406408e+000 8.412536e+000 -1.530808e-016
         vertex 7.557496e+000 6.548607e+000 -1.530808e-016
      endloop
   endfacet
   facet normal -3.144244e-018 -2.186869e-017 -1.000000e+000
      outer loop
         vertex 1.836970e-016 3.000000e+000 0.000000e+000
         vertex -5.665539e-015 1.000000e+001 -1.530808e-016
         vertex 2.817326e+000 9.594930e+000 -1.530808e-016
      endloop
   endfacet
   facet normal 9.200508e-018 -2.014631e-017 -1.000000e+000
      outer loop
         vertex -1.500000e+000 2.598076e+000 0.000000e+000
         vertex -5.406408e+000 8.412536e+000 -1.530808e-016
         vertex -2.817326e+000 9.594930e+000 -1.530808e-016
      endloop
   endfacet
   facet normal 1.865938e-017 -1.199166e-017 -1.000000e+000
      outer loop
         vertex -2.598076e+000 1.500000e+000 0.000000e+000
         vertex -9.096320e+000 4.154150e+000 -1.530808e-016
         vertex -7.557496e+000 6.548607e+000 -1.530808e-016
      endloop
   endfacet
   facet normal 2.219137e-017 0.000000e+000 -1.000000e+000
      outer loop
         vertex -3.000000e+000 1.699662e-015 0.000000e+000
         vertex -9.898214e+000 -1.423148e+000 -1.530808e-016
         vertex -9.898214e+000 1.423148e+000 -1.530808e-016
      endloop
   endfacet
   facet normal 1.865938e-017 1.199166e-017 -1.000000e+000
      outer loop
         vertex -2.598076e+000 -1.500000e+000 0.000000e+000
         vertex -7.557496e+000 -6.548607e+000 -1.530808e-016
         vertex -9.096320e+000 -4.154150e+000 -1.530808e-016
      endloop
   endfacet
   facet normal 9.200508e-018 2.014631e-017 -1.000000e+000
      outer loop
         vertex -1.500000e+000 -2.598076e+000 0.000000e+000
         vertex -2.817326e+000 -9.594930e+000 -1.530808e-016
         vertex -5.406408e+000 -8.412536e+000 -1.530808e-016
      endloop
   endfacet
   facet normal -2.102890e-017 5.634679e-018 -1.000000e+000
      outer loop
         vertex 9.898214e+000 -1.423148e+000 -1.530808e-016
         vertex 2.598076e+000 -1.500000e+000 0.000000e+000
         vertex 3.000000e+000 0.000000e+000 0.000000e+000
      endloop
   endfacet
   facet normal -5.580796e-018 2.082781e-017 -1.000000e+000
      outer loop
         vertex 2.817326e+000 -9.594930e+000 -1.530808e-016
         vertex -5.510911e-016 -3.000000e+000 0.000000e+000
         vertex 1.500000e+000 -2.598076e+000 0.000000e+000
      endloop
   endfacet
   facet normal 1.529581e-017 1.529581e-017 -1.000000e+000
      outer loop
         vertex -7.557496e+000 -6.548607e+000 -1.530808e-016
         vertex -2.598076e+000 -1.500000e+000 0.000000e+000
         vertex -1.500000e+000 -2.598076e+000 0.000000e+000
      endloop
   endfacet
   facet normal 2.102890e-017 -5.634679e-018 -1.000000e+000
      outer loop
         vertex -9.898214e+000 1.423148e+000 -1.530808e-016
         vertex -2.598076e+000 1.500000e+000 0.000000e+000
         vertex -3.000000e+000 1.699662e-015 0.000000e+000
      endloop
   endfacet
   facet normal 5.580796e-018 -2.082781e-017 -1.000000e+000
      outer loop
         vertex -2.817326e+000 9.594930e+000 -1.530808e-016
         vertex 1.836970e-016 3.000000e+000 0.000000e+000
         vertex -1.500000e+000 2.598076e+000 0.000000e+000
      endloop
   endfacet
   facet normal -1.529581e-017 -1.529581e-017 -1.000000e+000
      outer loop
         vertex 7.557496e+000 6.548607e+000 -1.530808e-016
         vertex 2.598076e+000 1.500000e+000 0.000000e+000
         vertex 1.500000e+000 2.598076e+000 0.000000e+000
      endloop
   endfacet
   facet normal -1.391951e-017 2.915826e-017 -1.000000e+000
      outer loop
         vertex -2.817326e+000 -9.594930e+000 -1.530808e-016
         vertex -5.510911e-016 -3.000000e+000 0.000000e+000
         vertex 1.224647e-015 -1.000000e+001 -2.041078e-016
      endloop
   endfacet
   facet normal -1.865938e-017 1.199166e-017 -1.000000e+000
      outer loop
         vertex 7.557496e+000 -6.548607e+000 -1.530808e-016
         vertex 2.598076e+000 -1.500000e+000 0.000000e+000
         vertex 9.096320e+000 -4.154150e+000 -1.530808e-016
      endloop
   endfacet
   facet normal -9.200508e-018 -2.014631e-017 -1.000000e+000
      outer loop
         vertex 2.817326e+000 9.594930e+000 -1.530808e-016
         vertex 5.406408e+000 8.412536e+000 -1.530808e-016
         vertex 1.500000e+000 2.598076e+000 0.000000e+000
      endloop
   endfacet
   facet normal 1.441894e-017 -1.664034e-017 -1.000000e+000
      outer loop
         vertex -7.557496e+000 6.548607e+000 -1.530808e-016
         vertex -5.406408e+000 8.412536e+000 -1.530808e-016
         vertex -1.500000e+000 2.598076e+000 0.000000e+000
      endloop
   endfacet
   facet normal 2.102890e-017 5.634679e-018 -1.000000e+000
      outer loop
         vertex -2.598076e+000 -1.500000e+000 0.000000e+000
         vertex -9.898214e+000 -1.423148e+000 -1.530808e-016
         vertex -3.000000e+000 1.699662e-015 0.000000e+000
      endloop
   endfacet
   facet normal 5.580796e-018 2.082781e-017 -1.000000e+000
      outer loop
         vertex -5.510911e-016 -3.000000e+000 0.000000e+000
         vertex -2.817326e+000 -9.594930e+000 -1.530808e-016
         vertex -1.500000e+000 -2.598076e+000 0.000000e+000
      endloop
   endfacet
   facet normal 1.441894e-017 1.664034e-017 -1.000000e+000
      outer loop
         vertex -5.406408e+000 -8.412536e+000 -1.530808e-016
         vertex -7.557496e+000 -6.548607e+000 -1.530808e-016
         vertex -1.500000e+000 -2.598076e+000 0.000000e+000
      endloop
   endfacet
   facet normal -1.529581e-017 1.529581e-017 -1.000000e+000
      outer loop
         vertex 1.500000e+000 -2.598076e+000 0.000000e+000
         vertex 2.598076e+000 -1.500000e+000 0.000000e+000
         vertex 7.557496e+000 -6.548607e+000 -1.530808e-016
      endloop
   endfacet
   facet normal -9.200508e-018 2.014631e-017 -1.000000e+000
      outer loop
         vertex 1.500000e+000 -2.598076e+000 0.000000e+000
         vertex 5.406408e+000 -8.412536e+000 -1.530808e-016
         vertex 2.817326e+000 -9.594930e+000 -1.530808e-016
      endloop
   endfacet
   facet normal -1.865938e-017 -1.199166e-017 -1.000000e+000
      outer loop
         vertex 2.598076e+000 1.500000e+000 0.000000e+000
         vertex 7.557496e+000 6.548607e+000 -1.530808e-016
         vertex 9.096320e+000 4.154150e+000 -1.530808e-016
      endloop
   endfacet
   facet normal 2.103460e-017 -6.176315e-018 -1.000000e+000
      outer loop
         vertex -2.598076e+000 1.500000e+000 0.000000e+000
         vertex -9.898214e+000 1.423148e+000 -1.530808e-016
         vertex -9.096320e+000 4.154150e+000 -1.530808e-016
      endloop
   endfacet
   facet normal 1.529581e-017 -1.529581e-017 -1.000000e+000
      outer loop
         vertex -7.557496e+000 6.548607e+000 -1.530808e-016
         vertex -1.500000e+000 2.598076e+000 0.000000e+000
         vertex -2.598076e+000 1.500000e+000 0.000000e+000
      endloop
   endfacet
   facet normal -2.102890e-017 -5.634679e-018 -1.000000e+000
      outer loop
         vertex 9.898214e+000 1.423148e+000 -1.530808e-016
         vertex 3.000000e+000 0.000000e+000 0.000000e+000
         vertex 2.598076e+000 1.500000e+000 0.000000e+000
      endloop
   endfacet
   facet normal 3.144244e-018 -2.186869e-017 -1.000000e+000
      outer loop
         vertex -2.817326e+000 9.594930e+000 -1.530808e-016
         vertex -5.665539e-015 1.000000e+001 -1.530808e-016
         vertex 1.836970e-016 3.000000e+000 0.000000e+000
      endloop
   endfacet
   facet normal -5.580796e-018 -2.082781e-017 -1.000000e+000
      outer loop
         vertex 1.836970e-016 3.000000e+000 0.000000e+000
         vertex 2.817326e+000 9.594930e+000 -1.530808e-016
         vertex 1.500000e+000 2.598076e+000 0.000000e+000
      endloop
   endfacet
   facet normal -2.219137e-017 -0.000000e+000 -1.000000e+000
      outer loop
         vertex 3.000000e+000 0.000000e+000 0.000000e+000
         vertex 9.898214e+000 1.423148e+000 -1.530808e-016
         vertex 9.898214e+000 -1.423148e+000 -1.530808e-016
      endloop
   endfacet
   facet normal 2.103460e-017 6.176315e-018 -1.000000e+000
      outer loop
         vertex -9.898214e+000 -1.423148e+000 -1.530808e-016
         vertex -2.598076e+000 -1.500000e+000 0.000000e+000
         vertex -9.096320e+000 -4.154150e+000 -1.530808e-016
      endloop
   endfacet
   facet normal -1.011452e-001 -7.034805e-001 -7.034805e-001
      outer loop
         vertex -2.817326e+000 -9.594930e+000 1.100000e+001
         vertex 0.000000e+000 -8.000000e+000 9.000000e+000
         vertex 1.224647e-015 -1.000000e+001 1.100000e+001
      endloop
   endfacet
   facet normal -3.171453e-001 -6.224327e-001 -7.155393e-001
      outer loop
         vertex -5.406408e+000 -8.412536e+000 1.100000e+001
         vertex -4.702282e+000 -6.472136e+000 9.000000e+000
         vertex -2.472136e+000 -7.608452e+000 9.000000e+000
      endloop
   endfacet
   facet normal -6.161286e-001 -3.139333e-001 -7.223790e-001
      outer loop
         vertex -9.096320e+000 -4.154150e+000 1.100000e+001
         vertex -7.608452e+000 -2.472136e+000 9.000000e+000
         vertex -6.472136e+000 -4.702282e+000 9.000000e+000
      endloop
   endfacet
   facet normal -6.815943e-001 1.079539e-001 -7.237232e-001
      outer loop
         vertex -9.898214e+000 1.423148e+000 1.100000e+001
         vertex -7.608452e+000 2.472136e+000 9.000000e+000
         vertex -8.000000e+000 -4.898587e-016 9.000000e+000
      endloop
   endfacet
   facet normal -4.909579e-001 4.909579e-001 -7.196670e-001
      outer loop
         vertex -7.557496e+000 6.548607e+000 1.100000e+001
         vertex -4.702282e+000 6.472136e+000 9.000000e+000
         vertex -6.472136e+000 4.702282e+000 9.000000e+000
      endloop
   endfacet
   facet normal -1.101737e-001 6.956096e-001 -7.099218e-001
      outer loop
         vertex -2.817326e+000 9.594930e+000 1.100000e+001
         vertex -4.532431e-015 8.000000e+000 9.000000e+000
         vertex -2.472136e+000 7.608452e+000 9.000000e+000
      endloop
   endfacet
   facet normal 3.171453e-001 6.224327e-001 -7.155393e-001
      outer loop
         vertex 5.406408e+000 8.412536e+000 1.100000e+001
         vertex 4.702282e+000 6.472136e+000 9.000000e+000
         vertex 2.472136e+000 7.608452e+000 9.000000e+000
      endloop
   endfacet
   facet normal 6.161286e-001 3.139333e-001 -7.223790e-001
      outer loop
         vertex 9.096320e+000 4.154150e+000 1.100000e+001
         vertex 7.608452e+000 2.472136e+000 9.000000e+000
         vertex 6.472136e+000 4.702282e+000 9.000000e+000
      endloop
   endfacet
   facet normal 6.815943e-001 -1.079539e-001 -7.237232e-001
      outer loop
         vertex 9.898214e+000 -1.423148e+000 1.100000e+001
         vertex 7.608452e+000 -2.472136e+000 9.000000e+000
         vertex 8.000000e+000 -5.635851e-015 9.000000e+000
      endloop
   endfacet
   facet normal 4.909579e-001 -4.909579e-001 -7.196670e-001
      outer loop
         vertex 7.557496e+000 -6.548607e+000 1.100000e+001
         vertex 4.702282e+000 -6.472136e+000 9.000000e+000
         vertex 6.472136e+000 -4.702282e+000 9.000000e+000
      endloop
   endfacet
   facet normal 1.101737e-001 -6.956096e-001 -7.099218e-001
      outer loop
         vertex 2.817326e+000 -9.594930e+000 1.100000e+001
         vertex 0.000000e+000 -8.000000e+000 9.000000e+000
         vertex 2.472136e+000 -7.608452e+000 9.000000e+000
      endloop
   endfacet
   facet normal 1.011452e-001 -7.034805e-001 -7.034805e-001
      outer loop
         vertex 0.000000e+000 -8.000000e+000 9.000000e+000
         vertex 2.817326e+000 -9.594930e+000 1.100000e+001
         vertex 1.224647e-015 -1.000000e+001 1.100000e+001
      endloop
   endfacet
   facet normal 6.081956e-001 -3.908636e-001 -6.908862e-001
      outer loop
         vertex 6.472136e+000 -4.702282e+000 9.000000e+000
         vertex 9.096320e+000 -4.154150e+000 1.100000e+001
         vertex 7.557496e+000 -6.548607e+000 1.100000e+001
      endloop
   endfacet
   facet normal 7.253227e-001 0.000000e+000 -6.884090e-001
      outer loop
         vertex 8.000000e+000 -5.635851e-015 9.000000e+000
         vertex 9.898214e+000 1.423148e+000 1.100000e+001
         vertex 9.898214e+000 -1.423148e+000 1.100000e+001
      endloop
   endfacet
   facet normal 6.081956e-001 3.908636e-001 -6.908862e-001
      outer loop
         vertex 6.472136e+000 4.702282e+000 9.000000e+000
         vertex 7.557496e+000 6.548607e+000 1.100000e+001
         vertex 9.096320e+000 4.154150e+000 1.100000e+001
      endloop
   endfacet
   facet normal 2.974103e-001 6.512380e-001 -6.981663e-001
      outer loop
         vertex 2.472136e+000 7.608452e+000 9.000000e+000
         vertex 2.817326e+000 9.594930e+000 1.100000e+001
         vertex 5.406408e+000 8.412536e+000 1.100000e+001
      endloop
   endfacet
   facet normal -1.011452e-001 7.034805e-001 -7.034805e-001
      outer loop
         vertex -4.532431e-015 8.000000e+000 9.000000e+000
         vertex -2.817326e+000 9.594930e+000 1.100000e+001
         vertex -5.665539e-015 1.000000e+001 1.100000e+001
      endloop
   endfacet
   facet normal -4.715169e-001 5.441593e-001 -6.939470e-001
      outer loop
         vertex -4.702282e+000 6.472136e+000 9.000000e+000
         vertex -7.557496e+000 6.548607e+000 1.100000e+001
         vertex -5.406408e+000 8.412536e+000 1.100000e+001
      endloop
   endfacet
   facet normal -6.953754e-001 2.041806e-001 -6.890307e-001
      outer loop
         vertex -7.608452e+000 2.472136e+000 9.000000e+000
         vertex -9.898214e+000 1.423148e+000 1.100000e+001
         vertex -9.096320e+000 4.154150e+000 1.100000e+001
      endloop
   endfacet
   facet normal -6.953754e-001 -2.041806e-001 -6.890307e-001
      outer loop
         vertex -7.608452e+000 -2.472136e+000 9.000000e+000
         vertex -9.096320e+000 -4.154150e+000 1.100000e+001
         vertex -9.898214e+000 -1.423148e+000 1.100000e+001
      endloop
   endfacet
   facet normal -4.715169e-001 -5.441593e-001 -6.939470e-001
      outer loop
         vertex -4.702282e+000 -6.472136e+000 9.000000e+000
         vertex -5.406408e+000 -8.412536e+000 1.100000e+001
         vertex -7.557496e+000 -6.548607e+000 1.100000e+001
      endloop
   endfacet
   facet normal -1.101737e-001 -6.956096e-001 -7.099218e-001
      outer loop
         vertex -2.472136e+000 -7.608452e+000 9.000000e+000
         vertex 0.000000e+000 -8.000000e+000 9.000000e+000
         vertex -2.817326e+000 -9.594930e+000 1.100000e+001
      endloop
   endfacet
   facet normal -7.253227e-001 -0.000000e+000 -6.884090e-001
      outer loop
         vertex -9.898214e+000 -1.423148e+000 1.100000e+001
         vertex -9.898214e+000 1.423148e+000 1.100000e+001
         vertex -8.000000e+000 -4.898587e-016 9.000000e+000
      endloop
   endfacet
   facet normal 4.715169e-001 5.441593e-001 -6.939470e-001
      outer loop
         vertex 7.557496e+000 6.548607e+000 1.100000e+001
         vertex 4.702282e+000 6.472136e+000 9.000000e+000
         vertex 5.406408e+000 8.412536e+000 1.100000e+001
      endloop
   endfacet
   facet normal 4.715169e-001 -5.441593e-001 -6.939470e-001
      outer loop
         vertex 5.406408e+000 -8.412536e+000 1.100000e+001
         vertex 4.702282e+000 -6.472136e+000 9.000000e+000
         vertex 7.557496e+000 -6.548607e+000 1.100000e+001
      endloop
   endfacet
   facet normal 6.815943e-001 1.079539e-001 -7.237232e-001
      outer loop
         vertex 7.608452e+000 2.472136e+000 9.000000e+000
         vertex 9.898214e+000 1.423148e+000 1.100000e+001
         vertex 8.000000e+000 -5.635851e-015 9.000000e+000
      endloop
   endfacet
   facet normal 1.011452e-001 7.034805e-001 -7.034805e-001
      outer loop
         vertex 2.817326e+000 9.594930e+000 1.100000e+001
         vertex -4.532431e-015 8.000000e+000 9.000000e+000
         vertex -5.665539e-015 1.000000e+001 1.100000e+001
      endloop
   endfacet
   facet normal -6.815943e-001 -1.079539e-001 -7.237232e-001
      outer loop
         vertex -8.000000e+000 -4.898587e-016 9.000000e+000
         vertex -7.608452e+000 -2.472136e+000 9.000000e+000
         vertex -9.898214e+000 -1.423148e+000 1.100000e+001
      endloop
   endfacet
   facet normal 4.909579e-001 4.909579e-001 -7.196670e-001
      outer loop
         vertex 6.472136e+000 4.702282e+000 9.000000e+000
         vertex 4.702282e+000 6.472136e+000 9.000000e+000
         vertex 7.557496e+000 6.548607e+000 1.100000e+001
      endloop
   endfacet
   facet normal -4.909579e-001 -4.909579e-001 -7.196670e-001
      outer loop
         vertex -7.557496e+000 -6.548607e+000 1.100000e+001
         vertex -6.472136e+000 -4.702282e+000 9.000000e+000
         vertex -4.702282e+000 -6.472136e+000 9.000000e+000
      endloop
   endfacet
   facet normal -3.171453e-001 6.224327e-001 -7.155393e-001
      outer loop
         vertex -5.406408e+000 8.412536e+000 1.100000e+001
         vertex -2.472136e+000 7.608452e+000 9.000000e+000
         vertex -4.702282e+000 6.472136e+000 9.000000e+000
      endloop
   endfacet
   facet normal 6.161286e-001 -3.139333e-001 -7.223790e-001
      outer loop
         vertex 9.096320e+000 -4.154150e+000 1.100000e+001
         vertex 6.472136e+000 -4.702282e+000 9.000000e+000
         vertex 7.608452e+000 -2.472136e+000 9.000000e+000
      endloop
   endfacet
   facet normal 2.974103e-001 -6.512380e-001 -6.981663e-001
      outer loop
         vertex 2.472136e+000 -7.608452e+000 9.000000e+000
         vertex 5.406408e+000 -8.412536e+000 1.100000e+001
         vertex 2.817326e+000 -9.594930e+000 1.100000e+001
      endloop
   endfacet
   facet normal 6.953754e-001 2.041806e-001 -6.890307e-001
      outer loop
         vertex 7.608452e+000 2.472136e+000 9.000000e+000
         vertex 9.096320e+000 4.154150e+000 1.100000e+001
         vertex 9.898214e+000 1.423148e+000 1.100000e+001
      endloop
   endfacet
   facet normal -6.081956e-001 3.908636e-001 -6.908862e-001
      outer loop
         vertex -6.472136e+000 4.702282e+000 9.000000e+000
         vertex -9.096320e+000 4.154150e+000 1.100000e+001
         vertex -7.557496e+000 6.548607e+000 1.100000e+001
      endloop
   endfacet
   facet normal -2.974103e-001 -6.512380e-001 -6.981663e-001
      outer loop
         vertex -2.472136e+000 -7.608452e+000 9.000000e+000
         vertex -2.817326e+000 -9.594930e+000 1.100000e+001
         vertex -5.406408e+000 -8.412536e+000 1.100000e+001
      endloop
   endfacet
   facet normal -2.974103e-001 6.512380e-001 -6.981663e-001
      outer loop
         vertex -5.406408e+000 8.412536e+000 1.100000e+001
         vertex -2.817326e+000 9.594930e+000 1.100000e+001
         vertex -2.472136e+000 7.608452e+000 9.000000e+000
      endloop
   endfacet
   facet normal -6.161286e-001 3.139333e-001 -7.223790e-001
      outer loop
         vertex -6.472136e+000 4.702282e+000 9.000000e+000
         vertex -7.608452e+000 2.472136e+000 9.000000e+000
         vertex -9.096320e+000 4.154150e+000 1.100000e+001
      endloop
   endfacet
   facet normal -6.081956e-001 -3.908636e-001 -6.908862e-001
      outer loop
         vertex -9.096320e+000 -4.154150e+000 1.100000e+001
         vertex -6.472136e+000 -4.702282e+000 9.000000e+000
         vertex -7.557496e+000 -6.548607e+000 1.100000e+001
      endloop
   endfacet
   facet normal 1.101737e-001 6.956096e-001 -7.099218e-001
      outer loop
         vertex 2.817326e+000 9.594930e+000 1.100000e+001
         vertex 2.472136e+000 7.608452e+000 9.000000e+000
         vertex -4.532431e-015 8.000000e+000 9.000000e+000
      endloop
   endfacet
   facet normal 6.953754e-001 -2.041806e-001 -6.890307e-001
      outer loop
         vertex 7.608452e+000 -2.472136e+000 9.000000e+000
         vertex 9.898214e+000 -1.423148e+000 1.100000e+001
         vertex 9.096320e+000 -4.154150e+000 1.100000e+001
      endloop
   endfacet
   facet normal 3.171453e-001 -6.224327e-001 -7.155393e-001
      outer loop
         vertex 4.702282e+000 -6.472136e+000 9.000000e+000
         vertex 5.406408e+000 -8.412536e+000 1.100000e+001
         vertex 2.472136e+000 -7.608452e+000 9.000000e+000
      endloop
   endfacet
   facet normal 1.011452e-001 -7.034805e-001 7.034805e-001
      outer loop
         vertex 2.817326e+000 -9.594930e+000 -1.530808e-016
         vertex 0.000000e+000 -8.000000e+000 2.000000e+000
         vertex 1.224647e-015 -1.000000e+001 -2.041078e-016
      endloop
   endfacet
   facet normal 3.171453e-001 -6.224327e-001 7.155393e-001
      outer loop
         vertex 5.406408e+000 -8.412536e+000 -1.530808e-016
         vertex 4.702282e+000 -6.472136e+000 2.000000e+000
         vertex 2.472136e+000 -7.608452e+000 2.000000e+000
      endloop
   endfacet
   facet normal 6.161286e-001 -3.139333e-001 7.223790e-001
      outer loop
         vertex 9.096320e+000 -4.154150e+000 -1.530808e-016
         vertex 7.608452e+000 -2.472136e+000 2.000000e+000
         vertex 6.472136e+000 -4.702282e+000 2.000000e+000
      endloop
   endfacet
   facet normal 6.815943e-001 1.079539e-001 7.237232e-001
      outer loop
         vertex 9.898214e+000 1.423148e+000 -1.530808e-016
         vertex 7.608452e+000 2.472136e+000 2.000000e+000
         vertex 8.000000e+000 -5.635851e-015 2.000000e+000
      endloop
   endfacet
   facet normal 4.909579e-001 4.909579e-001 7.196670e-001
      outer loop
         vertex 7.557496e+000 6.548607e+000 -1.530808e-016
         vertex 4.702282e+000 6.472136e+000 2.000000e+000
         vertex 6.472136e+000 4.702282e+000 2.000000e+000
      endloop
   endfacet
   facet normal 1.101737e-001 6.956096e-001 7.099218e-001
      outer loop
         vertex 2.817326e+000 9.594930e+000 -1.530808e-016
         vertex -4.532431e-015 8.000000e+000 2.000000e+000
         vertex 2.472136e+000 7.608452e+000 2.000000e+000
      endloop
   endfacet
   facet normal -3.171453e-001 6.224327e-001 7.155393e-001
      outer loop
         vertex -5.406408e+000 8.412536e+000 -1.530808e-016
         vertex -4.702282e+000 6.472136e+000 2.000000e+000
         vertex -2.472136e+000 7.608452e+000 2.000000e+000
      endloop
   endfacet
   facet normal -6.161286e-001 3.139333e-001 7.223790e-001
      outer loop
         vertex -9.096320e+000 4.154150e+000 -1.530808e-016
         vertex -7.608452e+000 2.472136e+000 2.000000e+000
         vertex -6.472136e+000 4.702282e+000 2.000000e+000
      endloop
   endfacet
   facet normal -6.815943e-001 -1.079539e-001 7.237232e-001
      outer loop
         vertex -9.898214e+000 -1.423148e+000 -1.530808e-016
         vertex -7.608452e+000 -2.472136e+000 2.000000e+000
         vertex -8.000000e+000 -4.898587e-016 2.000000e+000
      endloop
   endfacet
   facet normal -4.909579e-001 -4.909579e-001 7.196670e-001
      outer loop
         vertex -7.557496e+000 -6.548607e+000 -1.530808e-016
         vertex -4.702282e+000 -6.472136e+000 2.000000e+000
         vertex -6.472136e+000 -4.702282e+000 2.000000e+000
      endloop
   endfacet
   facet normal -1.101737e-001 -6.956096e-001 7.099218e-001
      outer loop
         vertex -2.817326e+000 -9.594930e+000 -1.530808e-016
         vertex 0.000000e+000 -8.000000e+000 2.000000e+000
         vertex -2.472136e+000 -7.608452e+000 2.000000e+000
      endloop
   endfacet
   facet normal -1.011452e-001 -7.034805e-001 7.034805e-001
      outer loop
         vertex 0.000000e+000 -8.000000e+000 2.000000e+000
         vertex -2.817326e+000 -9.594930e+000 -1.530808e-016
         vertex 1.224647e-015 -1.000000e+001 -2.041078e-016
      endloop
   endfacet
   facet normal -6.081956e-001 -3.908636e-001 6.908862e-001
      outer loop
         vertex -6.472136e+000 -4.702282e+000 2.000000e+000
         vertex -9.096320e+000 -4.154150e+000 -1.530808e-016
         vertex -7.557496e+000 -6.548607e+000 -1.530808e-016
      endloop
   endfacet
   facet normal -7.253227e-001 0.000000e+000 6.884090e-001
      outer loop
         vertex -8.000000e+000 -4.898587e-016 2.000000e+000
         vertex -9.898214e+000 1.423148e+000 -1.530808e-016
         vertex -9.898214e+000 -1.423148e+000 -1.530808e-016
      endloop
   endfacet
   facet normal -6.081956e-001 3.908636e-001 6.908862e-001
      outer loop
         vertex -6.472136e+000 4.702282e+000 2.000000e+000
         vertex -7.557496e+000 6.548607e+000 -1.530808e-016
         vertex -9.096320e+000 4.154150e+000 -1.530808e-016
      endloop
   endfacet
   facet normal -2.974103e-001 6.512380e-001 6.981663e-001
      outer loop
         vertex -2.472136e+000 7.608452e+000 2.000000e+000
         vertex -2.817326e+000 9.594930e+000 -1.530808e-016
         vertex -5.406408e+000 8.412536e+000 -1.530808e-016
      endloop
   endfacet
   facet normal 1.011452e-001 7.034805e-001 7.034805e-001
      outer loop
         vertex -4.532431e-015 8.000000e+000 2.000000e+000
         vertex 2.817326e+000 9.594930e+000 -1.530808e-016
         vertex -5.665539e-015 1.000000e+001 -1.530808e-016
      endloop
   endfacet
   facet normal 4.715169e-001 5.441593e-001 6.939470e-001
      outer loop
         vertex 4.702282e+000 6.472136e+000 2.000000e+000
         vertex 7.557496e+000 6.548607e+000 -1.530808e-016
         vertex 5.406408e+000 8.412536e+000 -1.530808e-016
      endloop
   endfacet
   facet normal 6.953754e-001 2.041806e-001 6.890307e-001
      outer loop
         vertex 7.608452e+000 2.472136e+000 2.000000e+000
         vertex 9.898214e+000 1.423148e+000 -1.530808e-016
         vertex 9.096320e+000 4.154150e+000 -1.530808e-016
      endloop
   endfacet
   facet normal 6.953754e-001 -2.041806e-001 6.890307e-001
      outer loop
         vertex 7.608452e+000 -2.472136e+000 2.000000e+000
         vertex 9.096320e+000 -4.154150e+000 -1.530808e-016
         vertex 9.898214e+000 -1.423148e+000 -1.530808e-016
      endloop
   endfacet
   facet normal 4.715169e-001 -5.441593e-001 6.939470e-001
      outer loop
         vertex 4.702282e+000 -6.472136e+000 2.000000e+000
         vertex 5.406408e+000 -8.412536e+000 -1.530808e-016
         vertex 7.557496e+000 -6.548607e+000 -1.530808e-016
      endloop
   endfacet
   facet normal 1.101737e-001 -6.956096e-001 7.099218e-001
      outer loop
         vertex 2.472136e+000 -7.608452e+000 2.000000e+000
         vertex 0.000000e+000 -8.000000e+000 2.000000e+000
         vertex 2.817326e+000 -9.594930e+000 -1.530808e-016
      endloop
   endfacet
   facet normal 7.253227e-001 0.000000e+000 6.884090e-001
      outer loop
         vertex 9.898214e+000 -1.423148e+000 -1.530808e-016
         vertex 9.898214e+000 1.423148e+000 -1.530808e-016
         vertex 8.000000e+000 -5.635851e-015 2.000000e+000
      endloop
   endfacet
   facet normal -4.715169e-001 5.441593e-001 6.939470e-001
      outer loop
         vertex -7.557496e+000 6.548607e+000 -1.530808e-016
         vertex -4.702282e+000 6.472136e+000 2.000000e+000
         vertex -5.406408e+000 8.412536e+000 -1.530808e-016
      endloop
   endfacet
   facet normal -4.715169e-001 -5.441593e-001 6.939470e-001
      outer loop
         vertex -5.406408e+000 -8.412536e+000 -1.530808e-016
         vertex -4.702282e+000 -6.472136e+000 2.000000e+000
         vertex -7.557496e+000 -6.548607e+000 -1.530808e-016
      endloop
   endfacet
   facet normal -6.815943e-001 1.079539e-001 7.237232e-001
      outer loop
         vertex -7.608452e+000 2.472136e+000 2.000000e+000
         vertex -9.898214e+000 1.423148e+000 -1.530808e-016
         vertex -8.000000e+000 -4.898587e-016 2.000000e+000
      endloop
   endfacet
   facet normal -1.011452e-001 7.034805e-001 7.034805e-001
      outer loop
         vertex -2.817326e+000 9.594930e+000 -1.530808e-016
         vertex -4.532431e-015 8.000000e+000 2.000000e+000
         vertex -5.665539e-015 1.000000e+001 -1.530808e-016
      endloop
   endfacet
   facet normal 6.815943e-001 -1.079539e-001 7.237232e-001
      outer loop
         vertex 8.000000e+000 -5.635851e-015 2.000000e+000
         vertex 7.608452e+000 -2.472136e+000 2.000000e+000
         vertex 9.898214e+000 -1.423148e+000 -1.530808e-016
      endloop
   endfacet
   facet normal -4.909579e-001 4.909579e-001 7.196670e-001
      outer loop
         vertex -6.472136e+000 4.702282e+000 2.000000e+000
         vertex -4.702282e+000 6.472136e+000 2.000000e+000
         vertex -7.557496e+000 6.548607e+000 -1.530808e-016
      endloop
   endfacet
   facet normal 4.909579e-001 -4.909579e-001 7.196670e-001
      outer loop
         vertex 7.557496e+000 -6.548607e+000 -1.530808e-016
         vertex 6.472136e+000 -4.702282e+000 2.000000e+000
         vertex 4.702282e+000 -6.472136e+000 2.000000e+000
      endloop
   endfacet
   facet normal 3.171453e-001 6.224327e-001 7.155393e-001
      outer loop
         vertex 5.406408e+000 8.412536e+000 -1.530808e-016
         vertex 2.472136e+000 7.608452e+000 2.000000e+000
         vertex 4.702282e+000 6.472136e+000 2.000000e+000
      endloop
   endfacet
   facet normal -6.161286e-001 -3.139333e-001 7.223790e-001
      outer loop
         vertex -9.096320e+000 -4.154150e+000 -1.530808e-016
         vertex -6.472136e+000 -4.702282e+000 2.000000e+000
         vertex -7.608452e+000 -2.472136e+000 2.000000e+000
      endloop
   endfacet
   facet normal -2.974103e-001 -6.512380e-001 6.981663e-001
      outer loop
         vertex -2.472136e+000 -7.608452e+000 2.000000e+000
         vertex -5.406408e+000 -8.412536e+000 -1.530808e-016
         vertex -2.817326e+000 -9.594930e+000 -1.530808e-016
      endloop
   endfacet
   facet normal -6.953754e-001 2.041806e-001 6.890307e-001
      outer loop
         vertex -7.608452e+000 2.472136e+000 2.000000e+000
         vertex -9.096320e+000 4.154150e+000 -1.530808e-016
         vertex -9.898214e+000 1.423148e+000 -1.530808e-016
      endloop
   endfacet
   facet normal 6.081956e-001 3.908636e-001 6.908862e-001
      outer loop
         vertex 6.472136e+000 4.702282e+000 2.000000e+000
         vertex 9.096320e+000 4.154150e+000 -1.530808e-016
         vertex 7.557496e+000 6.548607e+000 -1.530808e-016
      endloop
   endfacet
   facet normal 2.974103e-001 -6.512380e-001 6.981663e-001
      outer loop
         vertex 2.472136e+000 -7.608452e+000 2.000000e+000
         vertex 2.817326e+000 -9.594930e+000 -1.530808e-016
         vertex 5.406408e+000 -8.412536e+000 -1.530808e-016
      endloop
   endfacet
   facet normal 2.974103e-001 6.512380e-001 6.981663e-001
      outer loop
         vertex 5.406408e+000 8.412536e+000 -1.530808e-016
         vertex 2.817326e+000 9.594930e+000 -1.530808e-016
         vertex 2.472136e+000 7.608452e+000 2.000000e+000
      endloop
   endfacet
   facet normal 6.161286e-001 3.139333e-001 7.223790e-001
      outer loop
         vertex 6.472136e+000 4.702282e+000 2.000000e+000
         vertex 7.608452e+000 2.472136e+000 2.000000e+000
         vertex 9.096320e+000 4.154150e+000 -1.530808e-016
      endloop
   endfacet
   facet normal 6.081956e-001 -3.908636e-001 6.908862e-001
      outer loop
         vertex 9.096320e+000 -4.154150e+000 -1.530808e-016
         vertex 6.472136e+000 -4.702282e+000 2.000000e+000
         vertex 7.557496e+000 -6.548607e+000 -1.530808e-016
      endloop
   endfacet
   facet normal -1.101737e-001 6.956096e-001 7.099218e-001
      outer loop
         vertex -2.817326e+000 9.594930e+000 -1.530808e-016
         vertex -2.472136e+000 7.608452e+000 2.000000e+000
         vertex -4.532431e-015 8.000000e+000 2.000000e+000
      endloop
   endfacet
   facet normal -6.953754e-001 -2.041806e-001 6.890307e-001
      outer loop
         vertex -7.608452e+000 -2.472136e+000 2.000000e+000
         vertex -9.898214e+000 -1.423148e+000 -1.530808e-016
         vertex -9.096320e+000 -4.154150e+000 -1.530808e-016
      endloop
   endfacet
   facet normal -3.171453e-001 -6.224327e-001 7.155393e-001
      outer loop
         vertex -4.702282e+000 -6.472136e+000 2.000000e+000
         vertex -5.406408e+000 -8.412536e+000 -1.530808e-016
         vertex -2.472136e+000 -7.608452e+000 2.000000e+000
      endloop
   endfacet
   facet normal -9.659258e-001 -2.588191e-001 0.000000e+000
      outer loop
         vertex 2.598076e+000 1.500000e+000 0.000000e+000
         vertex 3.000000e+000 0.000000e+000 0.000000e+000
         vertex 3.000000e+000 0.000000e+000 1.100000e+001
      endloop
   endfacet
   facet normal -2.588191e-001 -9.659258e-001 0.000000e+000
      outer loop
         vertex 1.836970e-016 3.000000e+000 1.100000e+001
         vertex 1.836970e-016 3.000000e+000 0.000000e+000
         vertex 1.500000e+000 2.598076e+000 0.000000e+000
      endloop
   endfacet
   facet normal 7.071068e-001 -7.071068e-001 0.000000e+000
      outer loop
         vertex -2.598076e+000 1.500000e+000 1.100000e+001
         vertex -2.598076e+000 1.500000e+000 0.000000e+000
         vertex -1.500000e+000 2.598076e+000 0.000000e+000
      endloop
   endfacet
   facet normal 9.659258e-001 2.588191e-001 -0.000000e+000
      outer loop
         vertex -2.598076e+000 -1.500000e+000 1.100000e+001
         vertex -2.598076e+000 -1.500000e+000 0.000000e+000
         vertex -3.000000e+000 1.699662e-015 0.000000e+000
      endloop
   endfacet
   facet normal 2.588191e-001 9.659258e-001 -0.000000e+000
      outer loop
         vertex -5.510911e-016 -3.000000e+000 1.100000e+001
         vertex -5.510911e-016 -3.000000e+000 0.000000e+000
         vertex -1.500000e+000 -2.598076e+000 0.000000e+000
      endloop
   endfacet
   facet normal -7.071068e-001 7.071068e-001 0.000000e+000
      outer loop
         vertex 2.598076e+000 -1.500000e+000 1.100000e+001
         vertex 2.598076e+000 -1.500000e+000 0.000000e+000
         vertex 1.500000e+000 -2.598076e+000 0.000000e+000
      endloop
   endfacet
   facet normal -9.659258e-001 2.588191e-001 0.000000e+000
      outer loop
         vertex 2.598076e+000 -1.500000e+000 0.000000e+000
         vertex 3.000000e+000 0.000000e+000 1.100000e+001
         vertex 3.000000e+000 0.000000e+000 0.000000e+000
      endloop
   endfacet
   facet normal -2.588191e-001 9.659258e-001 0.000000e+000
      outer loop
         vertex -5.510911e-016 -3.000000e+000 0.000000e+000
         vertex -5.510911e-016 -3.000000e+000 1.100000e+001
         vertex 1.500000e+000 -2.598076e+000 1.100000e+001
      endloop
   endfacet
   facet normal 7.071068e-001 7.071068e-001 0.000000e+000
      outer loop
         vertex -2.598076e+000 -1.500000e+000 0.000000e+000
         vertex -2.598076e+000 -1.500000e+000 1.100000e+001
         vertex -1.500000e+000 -2.598076e+000 1.100000e+001
      endloop
   endfacet
   facet normal 9.659258e-001 -2.588191e-001 0.000000e+000
      outer loop
         vertex -2.598076e+000 1.500000e+000 0.000000e+000
         vertex -2.598076e+000 1.500000e+000 1.100000e+001
         vertex -3.000000e+000 1.699662e-015 1.100000e+001
      endloop
   endfacet
   facet normal 2.588191e-001 -9.659258e-001 0.000000e+000
      outer loop
         vertex 1.836970e-016 3.000000e+000 0.000000e+000
         vertex 1.836970e-016 3.000000e+000 1.100000e+001
         vertex -1.500000e+000 2.598076e+000 1.100000e+001
      endloop
   endfacet
   facet normal -7.071068e-001 -7.071068e-001 -0.000000e+000
      outer loop
         vertex 2.598076e+000 1.500000e+000 0.000000e+000
         vertex 2.598076e+000 1.500000e+000 1.100000e+001
         vertex 1.500000e+000 2.598076e+000 1.100000e+001
      endloop
   endfacet
   facet normal -9.659258e-001 -2.588191e-001 0.000000e+000
      outer loop
         vertex 2.598076e+000 1.500000e+000 1.100000e+001
         vertex 2.598076e+000 1.500000e+000 0.000000e+000
         vertex 3.000000e+000 0.000000e+000 1.100000e+001
      endloop
   endfacet
   facet normal 9.659258e-001 2.588191e-001 0.000000e+000
      outer loop
         vertex -3.000000e+000 1.699662e-015 1.100000e+001
         vertex -2.598076e+000 -1.500000e+000 1.100000e+001
         vertex -3.000000e+000 1.699662e-015 0.000000e+000
      endloop
   endfacet
   facet normal -9.659258e-001 2.588191e-001 0.000000e+000
      outer loop
         vertex 3.000000e+000 0.000000e+000 1.100000e+001
         vertex 2.598076e+000 -1.500000e+000 0.000000e+000
         vertex 2.598076e+000 -1.500000e+000 1.100000e+001
      endloop
   endfacet
   facet normal 9.659258e-001 -2.588191e-001 0.000000e+000
      outer loop
         vertex -3.000000e+000 1.699662e-015 0.000000e+000
         vertex -2.598076e+000 1.500000e+000 0.000000e+000
         vertex -3.000000e+000 1.699662e-015 1.100000e+001
      endloop
   endfacet
   facet normal -7.071068e-001 -7.071068e-001 0.000000e+000
      outer loop
         vertex 1.500000e+000 2.598076e+000 1.100000e+001
         vertex 1.500000e+000 2.598076e+000 0.000000e+000
         vertex 2.598076e+000 1.500000e+000 0.000000e+000
      endloop
   endfacet
   facet normal 7.071068e-001 7.071068e-001 -0.000000e+000
      outer loop
         vertex -1.500000e+000 -2.598076e+000 1.100000e+001
         vertex -1.500000e+000 -2.598076e+000 0.000000e+000
         vertex -2.598076e+000 -1.500000e+000 0.000000e+000
      endloop
   endfacet
   facet normal -7.071068e-001 7.071068e-001 0.000000e+000
      outer loop
         vertex 1.500000e+000 -2.598076e+000 0.000000e+000
         vertex 1.500000e+000 -2.598076e+000 1.100000e+001
         vertex 2.598076e+000 -1.500000e+000 1.100000e+001
      endloop
   endfacet
   facet normal 7.071068e-001 -7.071068e-001 0.000000e+000
      outer loop
         vertex -1.500000e+000 2.598076e+000 0.000000e+000
         vertex -1.500000e+000 2.598076e+000 1.100000e+001
         vertex -2.598076e+000 1.500000e+000 1.100000e+001
      endloop
   endfacet
   facet normal -2.588191e-001 -9.659258e-001 0.000000e+000
      outer loop
         vertex 1.500000e+000 2.598076e+000 1.100000e+001
         vertex 1.836970e-016 3.000000e+000 1.100000e+001
         vertex 1.500000e+000 2.598076e+000 0.000000e+000
      endloop
   endfacet
   facet normal 2.588191e-001 -9.659258e-001 0.000000e+000
      outer loop
         vertex -1.500000e+000 2.598076e+000 0.000000e+000
         vertex 1.836970e-016 3.000000e+000 0.000000e+000
         vertex -1.500000e+000 2.598076e+000 1.100000e+001
      endloop
   endfacet
   facet normal -2.588191e-001 9.659258e-001 0.000000e+000
      outer loop
         vertex 1.500000e+000 -2.598076e+000 1.100000e+001
         vertex 1.500000e+000 -2.598076e+000 0.000000e+000
         vertex -5.510911e-016 -3.000000e+000 0.000000e+000
      endloop
   endfacet
   facet normal 2.588191e-001 9.659258e-001 0.000000e+000
      outer loop
         vertex -1.500000e+000 -2.598076e+000 1.100000e+001
         vertex -5.510911e-016 -3.000000e+000 1.100000e+001
         vertex -1.500000e+000 -2.598076e+000 0.000000e+000
      endloop
   endfacet
   facet normal -1.564344e-001 -9.876884e-001 0.000000e+000
      outer loop
         vertex -2.472136e+000 -7.608452e+000 2.000000e+000
         vertex 0.000000e+000 -8.000000e+000 2.000000e+000
         vertex 0.000000e+000 -8.000000e+000 9.000000e+000
      endloop
   endfacet
   facet normal -7.071068e-001 -7.071068e-001 0.000000e+000
      outer loop
         vertex -6.472136e+000 -4.702282e+000 9.000000e+000
         vertex -6.472136e+000 -4.702282e+000 2.000000e+000
         vertex -4.702282e+000 -6.472136e+000 2.000000e+000
      endloop
   endfacet
   facet normal -9.876884e-001 -1.564344e-001 0.000000e+000
      outer loop
         vertex -8.000000e+000 -4.898587e-016 9.000000e+000
         vertex -8.000000e+000 -4.898587e-016 2.000000e+000
         vertex -7.608452e+000 -2.472136e+000 2.000000e+000
      endloop
   endfacet
   facet normal -8.910065e-001 4.539906e-001 0.000000e+000
      outer loop
         vertex -6.472136e+000 4.702282e+000 9.000000e+000
         vertex -6.472136e+000 4.702282e+000 2.000000e+000
         vertex -7.608452e+000 2.472136e+000 2.000000e+000
      endloop
   endfacet
   facet normal -4.539906e-001 8.910065e-001 0.000000e+000
      outer loop
         vertex -2.472136e+000 7.608452e+000 9.000000e+000
         vertex -2.472136e+000 7.608452e+000 2.000000e+000
         vertex -4.702282e+000 6.472136e+000 2.000000e+000
      endloop
   endfacet
   facet normal 1.564344e-001 9.876884e-001 -0.000000e+000
      outer loop
         vertex 2.472136e+000 7.608452e+000 9.000000e+000
         vertex 2.472136e+000 7.608452e+000 2.000000e+000
         vertex -4.532431e-015 8.000000e+000 2.000000e+000
      endloop
   endfacet
   facet normal 7.071068e-001 7.071068e-001 -0.000000e+000
      outer loop
         vertex 6.472136e+000 4.702282e+000 9.000000e+000
         vertex 6.472136e+000 4.702282e+000 2.000000e+000
         vertex 4.702282e+000 6.472136e+000 2.000000e+000
      endloop
   endfacet
   facet normal 9.876884e-001 1.564344e-001 -0.000000e+000
      outer loop
         vertex 8.000000e+000 -5.635851e-015 9.000000e+000
         vertex 8.000000e+000 -5.635851e-015 2.000000e+000
         vertex 7.608452e+000 2.472136e+000 2.000000e+000
      endloop
   endfacet
   facet normal 8.910065e-001 -4.539906e-001 0.000000e+000
      outer loop
         vertex 6.472136e+000 -4.702282e+000 9.000000e+000
         vertex 6.472136e+000 -4.702282e+000 2.000000e+000
         vertex 7.608452e+000 -2.472136e+000 2.000000e+000
      endloop
   endfacet
   facet normal 4.539906e-001 -8.910065e-001 0.000000e+000
      outer loop
         vertex 2.472136e+000 -7.608452e+000 9.000000e+000
         vertex 2.472136e+000 -7.608452e+000 2.000000e+000
         vertex 4.702282e+000 -6.472136e+000 2.000000e+000
      endloop
   endfacet
   facet normal 1.564344e-001 -9.876884e-001 0.000000e+000
      outer loop
         vertex 2.472136e+000 -7.608452e+000 2.000000e+000
         vertex 0.000000e+000 -8.000000e+000 9.000000e+000
         vertex 0.000000e+000 -8.000000e+000 2.000000e+000
      endloop
   endfacet
   facet normal 7.071068e-001 -7.071068e-001 0.000000e+000
      outer loop
         vertex 6.472136e+000 -4.702282e+000 2.000000e+000
         vertex 6.472136e+000 -4.702282e+000 9.000000e+000
         vertex 4.702282e+000 -6.472136e+000 9.000000e+000
      endloop
   endfacet
   facet normal 9.876884e-001 -1.564344e-001 0.000000e+000
      outer loop
         vertex 8.000000e+000 -5.635851e-015 2.000000e+000
         vertex 8.000000e+000 -5.635851e-015 9.000000e+000
         vertex 7.608452e+000 -2.472136e+000 9.000000e+000
      endloop
   endfacet
   facet normal 8.910065e-001 4.539906e-001 0.000000e+000
      outer loop
         vertex 6.472136e+000 4.702282e+000 2.000000e+000
         vertex 6.472136e+000 4.702282e+000 9.000000e+000
         vertex 7.608452e+000 2.472136e+000 9.000000e+000
      endloop
   endfacet
   facet normal 4.539906e-001 8.910065e-001 0.000000e+000
      outer loop
         vertex 2.472136e+000 7.608452e+000 2.000000e+000
         vertex 2.472136e+000 7.608452e+000 9.000000e+000
         vertex 4.702282e+000 6.472136e+000 9.000000e+000
      endloop
   endfacet
   facet normal -1.564344e-001 9.876884e-001 0.000000e+000
      outer loop
         vertex -2.472136e+000 7.608452e+000 2.000000e+000
         vertex -2.472136e+000 7.608452e+000 9.000000e+000
         vertex -4.532431e-015 8.000000e+000 9.000000e+000
      endloop
   endfacet
   facet normal -7.071068e-001 7.071068e-001 0.000000e+000
      outer loop
         vertex -6.472136e+000 4.702282e+000 2.000000e+000
         vertex -6.472136e+000 4.702282e+000 9.000000e+000
         vertex -4.702282e+000 6.472136e+000 9.000000e+000
      endloop
   endfacet
   facet normal -9.876884e-001 1.564344e-001 0.000000e+000
      outer loop
         vertex -8.000000e+000 -4.898587e-016 2.000000e+000
         vertex -8.000000e+000 -4.898587e-016 9.000000e+000
         vertex -7.608452e+000 2.472136e+000 9.000000e+000
      endloop
   endfacet
   facet normal -8.910065e-001 -4.539906e-001 -0.000000e+000
      outer loop
         vertex -6.472136e+000 -4.702282e+000 2.000000e+000
         vertex -6.472136e+000 -4.702282e+000 9.000000e+000
         vertex -7.608452e+000 -2.472136e+000 9.000000e+000
      endloop
   endfacet
   facet normal -4.539906e-001 -8.910065e-001 -0.000000e+000
      outer loop
         vertex -2.472136e+000 -7.608452e+000 2.000000e+000
         vertex -2.472136e+000 -7.608452e+000 9.000000e+000
         vertex -4.702282e+000 -6.472136e+000 9.000000e+000
      endloop
   endfacet
   facet normal -1.564344e-001 -9.876884e-001 0.000000e+000
      outer loop
         vertex -2.472136e+000 -7.608452e+000 9.000000e+000
         vertex -2.472136e+000 -7.608452e+000 2.000000e+000
         vertex 0.000000e+000 -8.000000e+000 9.000000e+000
      endloop
   endfacet
   facet normal -8.910065e-001 4.539906e-001 0.000000e+000
      outer loop
         vertex -7.608452e+000 2.472136e+000 9.000000e+000
         vertex -6.472136e+000 4.702282e+000 9.000000e+000
         vertex -7.608452e+000 2.472136e+000 2.000000e+000
      endloop
   endfacet
   facet normal 7.071068e-001 7.071068e-001 0.000000e+000
      outer loop
         vertex 4.702282e+000 6.472136e+000 9.000000e+000
         vertex 6.472136e+000 4.702282e+000 9.000000e+000
         vertex 4.702282e+000 6.472136e+000 2.000000e+000
      endloop
   endfacet
   facet normal 4.539906e-001 -8.910065e-001 0.000000e+000
      outer loop
         vertex 4.702282e+000 -6.472136e+000 9.000000e+000
         vertex 2.472136e+000 -7.608452e+000 9.000000e+000
         vertex 4.702282e+000 -6.472136e+000 2.000000e+000
      endloop
   endfacet
   facet normal 7.071068e-001 -7.071068e-001 0.000000e+000
      outer loop
         vertex 4.702282e+000 -6.472136e+000 2.000000e+000
         vertex 6.472136e+000 -4.702282e+000 2.000000e+000
         vertex 4.702282e+000 -6.472136e+000 9.000000e+000
      endloop
   endfacet
   facet normal 4.539906e-001 8.910065e-001 0.000000e+000
      outer loop
         vertex 4.702282e+000 6.472136e+000 2.000000e+000
         vertex 2.472136e+000 7.608452e+000 2.000000e+000
         vertex 4.702282e+000 6.472136e+000 9.000000e+000
      endloop
   endfacet
   facet normal -9.876884e-001 1.564344e-001 0.000000e+000
      outer loop
         vertex -7.608452e+000 2.472136e+000 2.000000e+000
         vertex -8.000000e+000 -4.898587e-016 2.000000e+000
         vertex -7.608452e+000 2.472136e+000 9.000000e+000
      endloop
   endfacet
   facet normal -4.539906e-001 -8.910065e-001 0.000000e+000
      outer loop
         vertex -4.702282e+000 -6.472136e+000 9.000000e+000
         vertex -4.702282e+000 -6.472136e+000 2.000000e+000
         vertex -2.472136e+000 -7.608452e+000 2.000000e+000
      endloop
   endfacet
   facet normal -7.071068e-001 7.071068e-001 0.000000e+000
      outer loop
         vertex -4.702282e+000 6.472136e+000 9.000000e+000
         vertex -4.702282e+000 6.472136e+000 2.000000e+000
         vertex -6.472136e+000 4.702282e+000 2.000000e+000
      endloop
   endfacet
   facet normal 8.910065e-001 4.539906e-001 -0.000000e+000
      outer loop
         vertex 7.608452e+000 2.472136e+000 9.000000e+000
         vertex 7.608452e+000 2.472136e+000 2.000000e+000
         vertex 6.472136e+000 4.702282e+000 2.000000e+000
      endloop
   endfacet
   facet normal 1.564344e-001 -9.876884e-001 0.000000e+000
      outer loop
         vertex 2.472136e+000 -7.608452e+000 2.000000e+000
         vertex 2.472136e+000 -7.608452e+000 9.000000e+000
         vertex 0.000000e+000 -8.000000e+000 9.000000e+000
      endloop
   endfacet
   facet normal 9.876884e-001 1.564344e-001 0.000000e+000
      outer loop
         vertex 7.608452e+000 2.472136e+000 2.000000e+000
         vertex 7.608452e+000 2.472136e+000 9.000000e+000
         vertex 8.000000e+000 -5.635851e-015 9.000000e+000
      endloop
   endfacet
   facet normal -4.539906e-001 8.910065e-001 0.000000e+000
      outer loop
         vertex -4.702282e+000 6.472136e+000 2.000000e+000
         vertex -4.702282e+000 6.472136e+000 9.000000e+000
         vertex -2.472136e+000 7.608452e+000 9.000000e+000
      endloop
   endfacet
   facet normal -7.071068e-001 -7.071068e-001 -0.000000e+000
      outer loop
         vertex -4.702282e+000 -6.472136e+000 2.000000e+000
         vertex -4.702282e+000 -6.472136e+000 9.000000e+000
         vertex -6.472136e+000 -4.702282e+000 9.000000e+000
      endloop
   endfacet
   facet normal 1.564344e-001 9.876884e-001 0.000000e+000
      outer loop
         vertex -4.532431e-015 8.000000e+000 9.000000e+000
         vertex 2.472136e+000 7.608452e+000 9.000000e+000
         vertex -4.532431e-015 8.000000e+000 2.000000e+000
      endloop
   endfacet
   facet normal -1.564344e-001 9.876884e-001 0.000000e+000
      outer loop
         vertex -4.532431e-015 8.000000e+000 2.000000e+000
         vertex -2.472136e+000 7.608452e+000 2.000000e+000
         vertex -4.532431e-015 8.000000e+000 9.000000e+000
      endloop
   endfacet
   facet normal -8.910065e-001 -4.539906e-001 0.000000e+000
      outer loop
         vertex -7.608452e+000 -2.472136e+000 9.000000e+000
         vertex -7.608452e+000 -2.472136e+000 2.000000e+000
         vertex -6.472136e+000 -4.702282e+000 2.000000e+000
      endloop
   endfacet
   facet normal 8.910065e-001 -4.539906e-001 0.000000e+000
      outer loop
         vertex 7.608452e+000 -2.472136e+000 2.000000e+000
         vertex 7.608452e+000 -2.472136e+000 9.000000e+000
         vertex 6.472136e+000 -4.702282e+000 9.000000e+000
      endloop
   endfacet
   facet normal -9.876884e-001 -1.564344e-001 0.000000e+000
      outer loop
         vertex -7.608452e+000 -2.472136e+000 9.000000e+000
         vertex -8.000000e+000 -4.898587e-016 9.000000e+000
         vertex -7.608452e+000 -2.472136e+000 2.000000e+000
      endloop
   endfacet
   facet normal 9.876884e-001 -1.564344e-001 0.000000e+000
      outer loop
         vertex 7.608452e+000 -2.472136e+000 9.000000e+000
         vertex 7.608452e+000 -2.472136e+000 2.000000e+000
         vertex 8.000000e+000 -5.635851e-015 2.000000e+000
      endloop
   endfacet
endsolid
