solid Втулка разрезная 12мм
facet normal -2.5974699439339998e-18 -7.047515551646214e-17 -1.0
  outer loop
    vertex 0.0 20.0 0.0
    vertex 4.610133373572978 12.63615965930142 2.8199664825478975e-15
    vertex 0.0 0.0 0.0
  endloop
endfacet
facet normal -2.5974699439339998e-18 -7.047515551646214e-17 -1.0
  outer loop
    vertex 4.610133373572978 12.63615965930142 2.8199664825478975e-15
    vertex 0.0 20.0 0.0
    vertex 5.476076951038788 13.941334830622424 2.8199664825478975e-15
  endloop
endfacet
facet normal -2.5974699439339998e-18 -7.047515551646214e-17 -1.0
  outer loop
    vertex 5.476076951038788 13.941334830622424 2.8199664825478975e-15
    vertex 0.0 20.0 0.0
    vertex 6.650318408154979 14.977914546600271 2.8199664825478975e-15
  endloop
endfacet
facet normal -2.5974699439339998e-18 -7.047515551646214e-17 -1.0
  outer loop
    vertex 6.650318408154979 14.977914546600271 2.8199664825478975e-15
    vertex 0.0 20.0 0.0
    vertex 8.052835130144848 15.675257612620062 2.8199664825478975e-15
  endloop
endfacet
facet normal -2.5974699439339998e-18 -7.047515551646214e-17 -1.0
  outer loop
    vertex 8.052835130144848 15.675257612620062 2.8199664825478975e-15
    vertex 0.0 20.0 0.0
    vertex 20.0 20.0 0.0
  endloop
endfacet
facet normal -2.5974699439339998e-18 -7.047515551646214e-17 -1.0
  outer loop
    vertex 0.0 0.0 0.0
    vertex 4.610133373572978 12.63615965930142 2.8199664825478975e-15
    vertex 4.111500299522426 11.151334563658848 2.8199664825478975e-15
  endloop
endfacet
facet normal -2.5974699439339998e-18 -7.047515551646214e-17 -1.0
  outer loop
    vertex 0.0 0.0 0.0
    vertex 4.111500299522426 11.151334563658848 2.8199664825478975e-15
    vertex 4.014158748853557 9.588047920173251 2.8199664825478975e-15
  endloop
endfacet
facet normal -2.5974699439339998e-18 -7.047515551646214e-17 -1.0
  outer loop
    vertex 8.052835130144848 15.675257612620062 2.8199664825478975e-15
    vertex 20.0 20.0 0.0
    vertex 9.588047920173251 15.985841251146443 2.8199664825478975e-15
  endloop
endfacet
facet normal -2.5974699439339998e-18 -7.047515551646214e-17 -1.0
  outer loop
    vertex 9.588047920173251 15.985841251146443 2.8199664825478975e-15
    vertex 20.0 20.0 0.0
    vertex 11.151334563658851 15.888499700477574 2.8199664825478975e-15
  endloop
endfacet
facet normal -2.5974699439339998e-18 -7.047515551646214e-17 -1.0
  outer loop
    vertex 11.151334563658851 15.888499700477574 2.8199664825478975e-15
    vertex 20.0 20.0 0.0
    vertex 12.636159659301423 15.389866626427022 2.8199664825478975e-15
  endloop
endfacet
facet normal -2.5974699439339998e-18 -7.047515551646214e-17 -1.0
  outer loop
    vertex 12.636159659301423 15.389866626427022 2.8199664825478975e-15
    vertex 20.0 20.0 0.0
    vertex 13.94133483062242 14.523923048961215 2.8199664825478975e-15
  endloop
endfacet
facet normal -2.5974699439339998e-18 -7.047515551646214e-17 -1.0
  outer loop
    vertex 13.94133483062242 14.523923048961215 2.8199664825478975e-15
    vertex 20.0 20.0 0.0
    vertex 14.977914546600275 13.349681591845018 2.8199664825478975e-15
  endloop
endfacet
facet normal -2.5974699439339998e-18 -7.047515551646214e-17 -1.0
  outer loop
    vertex 14.977914546600275 13.349681591845018 2.8199664825478975e-15
    vertex 20.0 20.0 0.0
    vertex 15.675257612620062 11.947164869855152 2.8199664825478975e-15
  endloop
endfacet
facet normal -2.5974699439339998e-18 -7.047515551646214e-17 -1.0
  outer loop
    vertex 15.675257612620062 11.947164869855152 2.8199664825478975e-15
    vertex 20.0 20.0 0.0
    vertex 15.985841251146443 10.411952079826749 2.8199664825478975e-15
  endloop
endfacet
facet normal -2.5974699439339998e-18 -7.047515551646214e-17 -1.0
  outer loop
    vertex 11.94716486985515 4.324742387379936 2.8199664825478975e-15
    vertex 10.411952079826747 0.0 2.8199664825478975e-15
    vertex 10.411952079826747 4.014158748853554 2.8199664825478975e-15
  endloop
endfacet
facet normal -2.5974699439339998e-18 -7.047515551646214e-17 -1.0
  outer loop
    vertex 10.411952079826747 0.0 2.8199664825478975e-15
    vertex 11.94716486985515 4.324742387379936 2.8199664825478975e-15
    vertex 20.0 0.0 0.0
  endloop
endfacet
facet normal -2.5974699439339998e-18 -7.047515551646214e-17 -1.0
  outer loop
    vertex 20.0 0.0 0.0
    vertex 11.94716486985515 4.324742387379936 2.8199664825478975e-15
    vertex 13.349681591845018 5.022085453399723 2.8199664825478975e-15
  endloop
endfacet
facet normal -2.5974699439339998e-18 -7.047515551646214e-17 -1.0
  outer loop
    vertex 20.0 0.0 0.0
    vertex 13.349681591845018 5.022085453399723 2.8199664825478975e-15
    vertex 14.523923048961212 6.058665169377574 2.8199664825478975e-15
  endloop
endfacet
facet normal -2.5974699439339998e-18 -7.047515551646214e-17 -1.0
  outer loop
    vertex 20.0 0.0 0.0
    vertex 14.523923048961212 6.058665169377574 2.8199664825478975e-15
    vertex 15.38986662642702 7.363840340698574 2.8199664825478975e-15
  endloop
endfacet
facet normal -2.5974699439339998e-18 -7.047515551646214e-17 -1.0
  outer loop
    vertex 20.0 0.0 0.0
    vertex 15.38986662642702 7.363840340698574 2.8199664825478975e-15
    vertex 15.888499700477574 8.848665436341147 2.8199664825478975e-15
  endloop
endfacet
facet normal -2.5974699439339998e-18 -7.047515551646214e-17 -1.0
  outer loop
    vertex 20.0 0.0 0.0
    vertex 15.888499700477574 8.848665436341147 2.8199664825478975e-15
    vertex 15.985841251146443 10.411952079826749 2.8199664825478975e-15
  endloop
endfacet
facet normal -2.5974699439339998e-18 -7.047515551646214e-17 -1.0
  outer loop
    vertex 20.0 0.0 0.0
    vertex 15.985841251146443 10.411952079826749 2.8199664825478975e-15
    vertex 20.0 20.0 0.0
  endloop
endfacet
facet normal -2.5974699439339998e-18 -7.047515551646214e-17 -1.0
  outer loop
    vertex 0.0 0.0 0.0
    vertex 5.0220854533997255 6.650318408154979 2.8199664825478975e-15
    vertex 8.848665436341149 0.0 2.8199664825478975e-15
  endloop
endfacet
facet normal -2.5974699439339998e-18 -7.047515551646214e-17 -1.0
  outer loop
    vertex 5.0220854533997255 6.650318408154979 2.8199664825478975e-15
    vertex 0.0 0.0 0.0
    vertex 4.3247423873799375 8.052835130144846 2.8199664825478975e-15
  endloop
endfacet
facet normal -2.5974699439339998e-18 -7.047515551646214e-17 -1.0
  outer loop
    vertex 4.3247423873799375 8.052835130144846 2.8199664825478975e-15
    vertex 0.0 0.0 0.0
    vertex 4.014158748853557 9.588047920173251 2.8199664825478975e-15
  endloop
endfacet
facet normal -2.5974699439339998e-18 -7.047515551646214e-17 -1.0
  outer loop
    vertex 8.848665436341149 0.0 2.8199664825478975e-15
    vertex 5.0220854533997255 6.650318408154979 2.8199664825478975e-15
    vertex 6.058665169377576 5.4760769510387854 2.8199664825478975e-15
  endloop
endfacet
facet normal -2.5974699439339998e-18 -7.047515551646214e-17 -1.0
  outer loop
    vertex 8.848665436341149 0.0 2.8199664825478975e-15
    vertex 6.058665169377576 5.4760769510387854 2.8199664825478975e-15
    vertex 7.363840340698577 4.610133373572976 2.8199664825478975e-15
  endloop
endfacet
facet normal -2.5974699439339998e-18 -7.047515551646214e-17 -1.0
  outer loop
    vertex 8.848665436341149 0.0 2.8199664825478975e-15
    vertex 7.363840340698577 4.610133373572976 2.8199664825478975e-15
    vertex 8.848665436341149 4.111500299522423 2.8199664825478975e-15
  endloop
endfacet
facet normal -0.0 -0.0 1.0
  outer loop
    vertex 0.0 0.0 20.0
    vertex 4.3247423873799375 8.052835130144846 20.0
    vertex 0.0 20.0 20.0
  endloop
endfacet
facet normal -0.0 -0.0 1.0
  outer loop
    vertex 4.3247423873799375 8.052835130144846 20.0
    vertex 0.0 0.0 20.0
    vertex 5.0220854533997255 6.650318408154979 20.0
  endloop
endfacet
facet normal -0.0 -0.0 1.0
  outer loop
    vertex 5.0220854533997255 6.650318408154979 20.0
    vertex 0.0 0.0 20.0
    vertex 8.848665436341149 0.0 20.0
  endloop
endfacet
facet normal -0.0 -0.0 1.0
  outer loop
    vertex 0.0 20.0 20.0
    vertex 4.3247423873799375 8.052835130144846 20.0
    vertex 4.014158748853557 9.588047920173251 20.0
  endloop
endfacet
facet normal -0.0 -0.0 1.0
  outer loop
    vertex 5.0220854533997255 6.650318408154979 20.0
    vertex 8.848665436341149 0.0 20.0
    vertex 6.058665169377576 5.4760769510387854 20.0
  endloop
endfacet
facet normal -0.0 -0.0 1.0
  outer loop
    vertex 6.058665169377576 5.4760769510387854 20.0
    vertex 8.848665436341149 0.0 20.0
    vertex 7.363840340698577 4.610133373572976 20.0
  endloop
endfacet
facet normal -0.0 -0.0 1.0
  outer loop
    vertex 7.363840340698577 4.610133373572976 20.0
    vertex 8.848665436341149 0.0 20.0
    vertex 8.848665436341149 4.111500299522423 20.0
  endloop
endfacet
facet normal -0.0 -0.0 1.0
  outer loop
    vertex 20.0 0.0 20.0
    vertex 10.411952079826747 4.014158748853554 20.0
    vertex 10.411952079826747 0.0 20.0
  endloop
endfacet
facet normal -0.0 -0.0 1.0
  outer loop
    vertex 10.411952079826747 4.014158748853554 20.0
    vertex 20.0 0.0 20.0
    vertex 11.94716486985515 4.324742387379936 20.0
  endloop
endfacet
facet normal -0.0 -0.0 1.0
  outer loop
    vertex 11.94716486985515 4.324742387379936 20.0
    vertex 20.0 0.0 20.0
    vertex 13.349681591845018 5.022085453399723 20.0
  endloop
endfacet
facet normal -0.0 -0.0 1.0
  outer loop
    vertex 13.349681591845018 5.022085453399723 20.0
    vertex 20.0 0.0 20.0
    vertex 14.523923048961212 6.058665169377574 20.0
  endloop
endfacet
facet normal -0.0 -0.0 1.0
  outer loop
    vertex 14.523923048961212 6.058665169377574 20.0
    vertex 20.0 0.0 20.0
    vertex 15.38986662642702 7.363840340698574 20.0
  endloop
endfacet
facet normal -0.0 -0.0 1.0
  outer loop
    vertex 15.38986662642702 7.363840340698574 20.0
    vertex 20.0 0.0 20.0
    vertex 15.888499700477574 8.848665436341147 20.0
  endloop
endfacet
facet normal -0.0 -0.0 1.0
  outer loop
    vertex 15.888499700477574 8.848665436341147 20.0
    vertex 20.0 0.0 20.0
    vertex 15.985841251146443 10.411952079826749 20.0
  endloop
endfacet
facet normal -0.0 -0.0 1.0
  outer loop
    vertex 0.0 20.0 20.0
    vertex 8.052835130144848 15.675257612620062 20.0
    vertex 20.0 20.0 20.0
  endloop
endfacet
facet normal -0.0 -0.0 1.0
  outer loop
    vertex 8.052835130144848 15.675257612620062 20.0
    vertex 0.0 20.0 20.0
    vertex 6.650318408154979 14.977914546600271 20.0
  endloop
endfacet
facet normal -0.0 -0.0 1.0
  outer loop
    vertex 6.650318408154979 14.977914546600271 20.0
    vertex 0.0 20.0 20.0
    vertex 5.476076951038788 13.941334830622424 20.0
  endloop
endfacet
facet normal -0.0 -0.0 1.0
  outer loop
    vertex 5.476076951038788 13.941334830622424 20.0
    vertex 0.0 20.0 20.0
    vertex 4.610133373572978 12.63615965930142 20.0
  endloop
endfacet
facet normal -0.0 -0.0 1.0
  outer loop
    vertex 4.610133373572978 12.63615965930142 20.0
    vertex 0.0 20.0 20.0
    vertex 4.111500299522426 11.151334563658848 20.0
  endloop
endfacet
facet normal -0.0 -0.0 1.0
  outer loop
    vertex 4.111500299522426 11.151334563658848 20.0
    vertex 0.0 20.0 20.0
    vertex 4.014158748853557 9.588047920173251 20.0
  endloop
endfacet
facet normal -0.0 -0.0 1.0
  outer loop
    vertex 20.0 20.0 20.0
    vertex 8.052835130144848 15.675257612620062 20.0
    vertex 9.588047920173251 15.985841251146443 20.0
  endloop
endfacet
facet normal -0.0 -0.0 1.0
  outer loop
    vertex 20.0 20.0 20.0
    vertex 9.588047920173251 15.985841251146443 20.0
    vertex 11.151334563658851 15.888499700477574 20.0
  endloop
endfacet
facet normal -0.0 -0.0 1.0
  outer loop
    vertex 20.0 20.0 20.0
    vertex 11.151334563658851 15.888499700477574 20.0
    vertex 12.636159659301423 15.389866626427022 20.0
  endloop
endfacet
facet normal -0.0 -0.0 1.0
  outer loop
    vertex 20.0 20.0 20.0
    vertex 12.636159659301423 15.389866626427022 20.0
    vertex 13.94133483062242 14.523923048961215 20.0
  endloop
endfacet
facet normal -0.0 -0.0 1.0
  outer loop
    vertex 20.0 20.0 20.0
    vertex 13.94133483062242 14.523923048961215 20.0
    vertex 14.977914546600275 13.349681591845018 20.0
  endloop
endfacet
facet normal -0.0 -0.0 1.0
  outer loop
    vertex 20.0 20.0 20.0
    vertex 14.977914546600275 13.349681591845018 20.0
    vertex 15.675257612620062 11.947164869855152 20.0
  endloop
endfacet
facet normal -0.0 -0.0 1.0
  outer loop
    vertex 20.0 20.0 20.0
    vertex 15.675257612620062 11.947164869855152 20.0
    vertex 15.985841251146443 10.411952079826749 20.0
  endloop
endfacet
facet normal -0.0 -0.0 1.0
  outer loop
    vertex 20.0 20.0 20.0
    vertex 15.985841251146443 10.411952079826749 20.0
    vertex 20.0 0.0 20.0
  endloop
endfacet
facet normal -1.0 0.0 0.0
  outer loop
    vertex 0.0 0.0 20.0
    vertex 0.0 0.39999999999999925 10.0
    vertex 0.0 0.0 0.0
  endloop
endfacet
facet normal -1.0 0.0 0.0
  outer loop
    vertex 0.0 0.39999999999999925 10.0
    vertex 0.0 0.0 20.0
    vertex 0.0 0.4545186779374902 10.414110472164033
  endloop
endfacet
facet normal -1.0 0.0 0.0
  outer loop
    vertex 0.0 0.4545186779374902 10.414110472164033
    vertex 0.0 0.0 20.0
    vertex 0.0 0.6143593539448978 10.8
  endloop
endfacet
facet normal -1.0 0.0 0.0
  outer loop
    vertex 0.0 0.6143593539448978 10.8
    vertex 0.0 0.0 20.0
    vertex 0.0 0.8686291501015235 11.131370849898477
  endloop
endfacet
facet normal -1.0 0.0 0.0
  outer loop
    vertex 0.0 0.8686291501015235 11.131370849898477
    vertex 0.0 0.0 20.0
    vertex 0.0 1.2 11.385640646055103
  endloop
endfacet
facet normal -1.0 0.0 0.0
  outer loop
    vertex 0.0 1.2 11.385640646055103
    vertex 0.0 0.0 20.0
    vertex 0.0 20.0 20.0
  endloop
endfacet
facet normal -1.0 0.0 0.0
  outer loop
    vertex 0.0 1.2 11.385640646055103
    vertex 0.0 20.0 20.0
    vertex 0.0 1.5858895278359668 11.54548132206251
  endloop
endfacet
facet normal -1.0 0.0 0.0
  outer loop
    vertex 0.0 1.5858895278359668 11.54548132206251
    vertex 0.0 20.0 20.0
    vertex 0.0 1.9999999999999998 11.600000000000001
  endloop
endfacet
facet normal -1.0 0.0 0.0
  outer loop
    vertex 0.0 1.9999999999999998 11.600000000000001
    vertex 0.0 20.0 20.0
    vertex 0.0 2.4141104721640336 11.54548132206251
  endloop
endfacet
facet normal -1.0 0.0 0.0
  outer loop
    vertex 0.0 2.4141104721640336 11.54548132206251
    vertex 0.0 20.0 20.0
    vertex 0.0 2.8000000000000007 11.385640646055103
  endloop
endfacet
facet normal -1.0 0.0 0.0
  outer loop
    vertex 0.0 2.8000000000000007 11.385640646055103
    vertex 0.0 20.0 20.0
    vertex 0.0 3.1313708498984765 11.131370849898477
  endloop
endfacet
facet normal -1.0 0.0 0.0
  outer loop
    vertex 0.0 3.1313708498984765 11.131370849898477
    vertex 0.0 20.0 20.0
    vertex 0.0 3.3856406460551023 10.8
  endloop
endfacet
facet normal -1.0 0.0 0.0
  outer loop
    vertex 0.0 3.3856406460551023 10.8
    vertex 0.0 20.0 20.0
    vertex 0.0 3.545481322062509 10.414110472164033
  endloop
endfacet
facet normal -1.0 0.0 0.0
  outer loop
    vertex 0.0 3.545481322062509 10.414110472164033
    vertex 0.0 20.0 20.0
    vertex 0.0 3.6000000000000005 10.0
  endloop
endfacet
facet normal -1.0 0.0 0.0
  outer loop
    vertex 0.0 0.0 0.0
    vertex 0.0 1.1999999999999988 8.614359353944899
    vertex 0.0 20.0 0.0
  endloop
endfacet
facet normal -1.0 0.0 0.0
  outer loop
    vertex 0.0 1.1999999999999988 8.614359353944899
    vertex 0.0 0.0 0.0
    vertex 0.0 0.8686291501015228 8.868629150101524
  endloop
endfacet
facet normal -1.0 0.0 0.0
  outer loop
    vertex 0.0 0.8686291501015228 8.868629150101524
    vertex 0.0 0.0 0.0
    vertex 0.0 0.6143593539448973 9.2
  endloop
endfacet
facet normal -1.0 0.0 0.0
  outer loop
    vertex 0.0 0.6143593539448973 9.2
    vertex 0.0 0.0 0.0
    vertex 0.0 0.45451867793748985 9.585889527835967
  endloop
endfacet
facet normal -1.0 0.0 0.0
  outer loop
    vertex 0.0 0.45451867793748985 9.585889527835967
    vertex 0.0 0.0 0.0
    vertex 0.0 0.39999999999999925 10.0
  endloop
endfacet
facet normal -1.0 0.0 0.0
  outer loop
    vertex 0.0 20.0 0.0
    vertex 0.0 1.1999999999999988 8.614359353944899
    vertex 0.0 1.5858895278359653 8.454518677937491
  endloop
endfacet
facet normal -1.0 0.0 0.0
  outer loop
    vertex 0.0 20.0 0.0
    vertex 0.0 1.5858895278359653 8.454518677937491
    vertex 0.0 1.9999999999999996 8.399999999999999
  endloop
endfacet
facet normal -1.0 0.0 0.0
  outer loop
    vertex 0.0 20.0 0.0
    vertex 0.0 1.9999999999999996 8.399999999999999
    vertex 0.0 2.4141104721640323 8.45451867793749
  endloop
endfacet
facet normal -1.0 0.0 0.0
  outer loop
    vertex 0.0 20.0 0.0
    vertex 0.0 2.4141104721640323 8.45451867793749
    vertex 0.0 2.799999999999999 8.614359353944897
  endloop
endfacet
facet normal -1.0 0.0 0.0
  outer loop
    vertex 0.0 20.0 0.0
    vertex 0.0 2.799999999999999 8.614359353944897
    vertex 0.0 3.131370849898476 8.868629150101523
  endloop
endfacet
facet normal -1.0 0.0 0.0
  outer loop
    vertex 0.0 20.0 0.0
    vertex 0.0 3.131370849898476 8.868629150101523
    vertex 0.0 3.3856406460551023 9.2
  endloop
endfacet
facet normal -1.0 0.0 0.0
  outer loop
    vertex 0.0 20.0 0.0
    vertex 0.0 3.3856406460551023 9.2
    vertex 0.0 3.545481322062509 9.585889527835965
  endloop
endfacet
facet normal -1.0 0.0 0.0
  outer loop
    vertex 0.0 20.0 0.0
    vertex 0.0 3.545481322062509 9.585889527835965
    vertex 0.0 3.6000000000000005 10.0
  endloop
endfacet
facet normal -1.0 0.0 0.0
  outer loop
    vertex 0.0 20.0 0.0
    vertex 0.0 3.6000000000000005 10.0
    vertex 0.0 20.0 20.0
  endloop
endfacet
facet normal -0.0 1.0 0.0
  outer loop
    vertex 0.0 20.0 20.0
    vertex 20.0 20.0 0.0
    vertex 0.0 20.0 0.0
  endloop
endfacet
facet normal -0.0 1.0 0.0
  outer loop
    vertex 20.0 20.0 0.0
    vertex 0.0 20.0 20.0
    vertex 20.0 20.0 20.0
  endloop
endfacet
facet normal 1.0 0.0 0.0
  outer loop
    vertex 20.0 0.0 0.0
    vertex 20.0 0.7999999999999999 10.0
    vertex 20.0 0.0 20.0
  endloop
endfacet
facet normal 1.0 0.0 0.0
  outer loop
    vertex 20.0 0.7999999999999999 10.0
    vertex 20.0 0.0 0.0
    vertex 20.0 0.8408890084531179 9.689417145876977
  endloop
endfacet
facet normal 1.0 0.0 0.0
  outer loop
    vertex 20.0 0.8408890084531179 9.689417145876977
    vertex 20.0 0.0 0.0
    vertex 20.0 0.9607695154586734 9.4
  endloop
endfacet
facet normal 1.0 0.0 0.0
  outer loop
    vertex 20.0 0.9607695154586734 9.4
    vertex 20.0 0.0 0.0
    vertex 20.0 1.1514718625761424 9.151471862576143
  endloop
endfacet
facet normal 1.0 0.0 0.0
  outer loop
    vertex 20.0 1.1514718625761424 9.151471862576143
    vertex 20.0 0.0 0.0
    vertex 20.0 1.3999999999999995 8.960769515458674
  endloop
endfacet
facet normal 1.0 0.0 0.0
  outer loop
    vertex 20.0 1.3999999999999995 8.960769515458674
    vertex 20.0 0.0 0.0
    vertex 20.0 20.0 0.0
  endloop
endfacet
facet normal 1.0 0.0 0.0
  outer loop
    vertex 20.0 1.3999999999999995 8.960769515458674
    vertex 20.0 20.0 0.0
    vertex 20.0 1.6894171458769742 8.840889008453118
  endloop
endfacet
facet normal 1.0 0.0 0.0
  outer loop
    vertex 20.0 1.6894171458769742 8.840889008453118
    vertex 20.0 20.0 0.0
    vertex 20.0 1.9999999999999996 8.8
  endloop
endfacet
facet normal 1.0 0.0 0.0
  outer loop
    vertex 20.0 1.9999999999999996 8.8
    vertex 20.0 20.0 0.0
    vertex 20.0 2.310582854123024 8.840889008453118
  endloop
endfacet
facet normal 1.0 0.0 0.0
  outer loop
    vertex 20.0 2.310582854123024 8.840889008453118
    vertex 20.0 20.0 0.0
    vertex 20.0 2.599999999999999 8.960769515458674
  endloop
endfacet
facet normal 1.0 0.0 0.0
  outer loop
    vertex 20.0 2.599999999999999 8.960769515458674
    vertex 20.0 20.0 0.0
    vertex 20.0 2.8485281374238567 9.151471862576143
  endloop
endfacet
facet normal 1.0 0.0 0.0
  outer loop
    vertex 20.0 2.8485281374238567 9.151471862576143
    vertex 20.0 20.0 0.0
    vertex 20.0 3.039230484541326 9.4
  endloop
endfacet
facet normal 1.0 0.0 0.0
  outer loop
    vertex 20.0 3.039230484541326 9.4
    vertex 20.0 20.0 0.0
    vertex 20.0 3.1591109915468816 9.689417145876975
  endloop
endfacet
facet normal 1.0 0.0 0.0
  outer loop
    vertex 20.0 3.1591109915468816 9.689417145876975
    vertex 20.0 20.0 0.0
    vertex 20.0 3.1999999999999997 10.0
  endloop
endfacet
facet normal 1.0 0.0 0.0
  outer loop
    vertex 20.0 0.0 20.0
    vertex 20.0 1.4000000000000004 11.039230484541326
    vertex 20.0 20.0 20.0
  endloop
endfacet
facet normal 1.0 0.0 0.0
  outer loop
    vertex 20.0 1.4000000000000004 11.039230484541326
    vertex 20.0 0.0 20.0
    vertex 20.0 1.1514718625761429 10.848528137423857
  endloop
endfacet
facet normal 1.0 0.0 0.0
  outer loop
    vertex 20.0 1.1514718625761429 10.848528137423857
    vertex 20.0 0.0 20.0
    vertex 20.0 0.9607695154586737 10.6
  endloop
endfacet
facet normal 1.0 0.0 0.0
  outer loop
    vertex 20.0 0.9607695154586737 10.6
    vertex 20.0 0.0 20.0
    vertex 20.0 0.8408890084531181 10.310582854123025
  endloop
endfacet
facet normal 1.0 0.0 0.0
  outer loop
    vertex 20.0 0.8408890084531181 10.310582854123025
    vertex 20.0 0.0 20.0
    vertex 20.0 0.7999999999999999 10.0
  endloop
endfacet
facet normal 1.0 0.0 0.0
  outer loop
    vertex 20.0 20.0 20.0
    vertex 20.0 1.4000000000000004 11.039230484541326
    vertex 20.0 1.6894171458769751 11.159110991546882
  endloop
endfacet
facet normal 1.0 0.0 0.0
  outer loop
    vertex 20.0 20.0 20.0
    vertex 20.0 1.6894171458769751 11.159110991546882
    vertex 20.0 1.9999999999999998 11.2
  endloop
endfacet
facet normal 1.0 0.0 0.0
  outer loop
    vertex 20.0 20.0 20.0
    vertex 20.0 1.9999999999999998 11.2
    vertex 20.0 2.310582854123025 11.159110991546882
  endloop
endfacet
facet normal 1.0 0.0 0.0
  outer loop
    vertex 20.0 20.0 20.0
    vertex 20.0 2.310582854123025 11.159110991546882
    vertex 20.0 2.6 11.039230484541326
  endloop
endfacet
facet normal 1.0 0.0 0.0
  outer loop
    vertex 20.0 20.0 20.0
    vertex 20.0 2.6 11.039230484541326
    vertex 20.0 2.8485281374238567 10.848528137423857
  endloop
endfacet
facet normal 1.0 0.0 0.0
  outer loop
    vertex 20.0 20.0 20.0
    vertex 20.0 2.8485281374238567 10.848528137423857
    vertex 20.0 3.039230484541326 10.6
  endloop
endfacet
facet normal 1.0 0.0 0.0
  outer loop
    vertex 20.0 20.0 20.0
    vertex 20.0 3.039230484541326 10.6
    vertex 20.0 3.159110991546882 10.310582854123025
  endloop
endfacet
facet normal 1.0 0.0 0.0
  outer loop
    vertex 20.0 20.0 20.0
    vertex 20.0 3.159110991546882 10.310582854123025
    vertex 20.0 3.1999999999999997 10.0
  endloop
endfacet
facet normal 1.0 0.0 0.0
  outer loop
    vertex 20.0 20.0 20.0
    vertex 20.0 3.1999999999999997 10.0
    vertex 20.0 20.0 0.0
  endloop
endfacet
facet normal 0.0 -1.0 0.0
  outer loop
    vertex 8.848665436341149 0.0 2.8199664825478975e-15
    vertex 0.0 0.0 20.0
    vertex 0.0 0.0 0.0
  endloop
endfacet
facet normal 0.0 -1.0 0.0
  outer loop
    vertex 0.0 0.0 20.0
    vertex 8.848665436341149 0.0 2.8199664825478975e-15
    vertex 8.848665436341149 0.0 20.0
  endloop
endfacet
facet normal 0.3183480301089795 0.9479739087789982 0.0
  outer loop
    vertex 7.363840340698577 4.610133373572976 20.0
    vertex 8.848665436341149 4.111500299522423 2.8199664825478975e-15
    vertex 7.363840340698577 4.610133373572976 2.8199664825478975e-15
  endloop
endfacet
facet normal 0.3183480301089795 0.9479739087789982 0.0
  outer loop
    vertex 8.848665436341149 4.111500299522423 2.8199664825478975e-15
    vertex 7.363840340698577 4.610133373572976 20.0
    vertex 8.848665436341149 4.111500299522423 20.0
  endloop
endfacet
facet normal 1.0 -0.0 -0.0
  outer loop
    vertex 8.848665436341149 0.0 2.8199664825478975e-15
    vertex 8.848665436341149 0.8000000000000003 10.000000000000004
    vertex 8.848665436341149 0.0 20.0
  endloop
endfacet
facet normal 1.0 -0.0 -0.0
  outer loop
    vertex 8.848665436341149 0.8000000000000003 10.000000000000004
    vertex 8.848665436341149 0.0 2.8199664825478975e-15
    vertex 8.84866543634115 0.8408890084531165 9.689417145876979
  endloop
endfacet
facet normal 1.0 -0.0 -0.0
  outer loop
    vertex 8.84866543634115 0.8408890084531165 9.689417145876979
    vertex 8.848665436341149 0.0 2.8199664825478975e-15
    vertex 8.848665436341149 4.111500299522423 2.8199664825478975e-15
  endloop
endfacet
facet normal 1.0 -0.0 -0.0
  outer loop
    vertex 8.84866543634115 0.8408890084531165 9.689417145876979
    vertex 8.848665436341149 4.111500299522423 2.8199664825478975e-15
    vertex 8.84866543634115 0.9607695154586716 9.400000000000002
  endloop
endfacet
facet normal 1.0 -0.0 -0.0
  outer loop
    vertex 8.84866543634115 0.9607695154586716 9.400000000000002
    vertex 8.848665436341149 4.111500299522423 2.8199664825478975e-15
    vertex 8.84866543634115 1.1514718625761424 9.151471862576143
  endloop
endfacet
facet normal 1.0 -0.0 -0.0
  outer loop
    vertex 8.84866543634115 1.1514718625761424 9.151471862576143
    vertex 8.848665436341149 4.111500299522423 2.8199664825478975e-15
    vertex 8.84866543634115 1.3999999999999995 8.960769515458672
  endloop
endfacet
facet normal 1.0 -0.0 -0.0
  outer loop
    vertex 8.84866543634115 1.3999999999999995 8.960769515458672
    vertex 8.848665436341149 4.111500299522423 2.8199664825478975e-15
    vertex 8.848665436341149 1.6894171458769742 8.840889008453118
  endloop
endfacet
facet normal 1.0 -0.0 -0.0
  outer loop
    vertex 8.848665436341149 1.6894171458769742 8.840889008453118
    vertex 8.848665436341149 4.111500299522423 2.8199664825478975e-15
    vertex 8.848665436341149 1.9999999999999991 8.8
  endloop
endfacet
facet normal 1.0 -0.0 -0.0
  outer loop
    vertex 8.848665436341149 1.9999999999999991 8.8
    vertex 8.848665436341149 4.111500299522423 2.8199664825478975e-15
    vertex 8.848665436341149 2.310582854123024 8.840889008453118
  endloop
endfacet
facet normal 1.0 -0.0 -0.0
  outer loop
    vertex 8.848665436341149 2.310582854123024 8.840889008453118
    vertex 8.848665436341149 4.111500299522423 2.8199664825478975e-15
    vertex 8.848665436341149 2.5999999999999996 8.960769515458674
  endloop
endfacet
facet normal 1.0 -0.0 -0.0
  outer loop
    vertex 8.848665436341149 2.5999999999999996 8.960769515458674
    vertex 8.848665436341149 4.111500299522423 2.8199664825478975e-15
    vertex 8.848665436341149 2.848528137423858 9.151471862576148
  endloop
endfacet
facet normal 1.0 -0.0 -0.0
  outer loop
    vertex 8.848665436341149 2.848528137423858 9.151471862576148
    vertex 8.848665436341149 4.111500299522423 2.8199664825478975e-15
    vertex 8.848665436341149 3.0392304845413274 9.400000000000004
  endloop
endfacet
facet normal 1.0 -0.0 -0.0
  outer loop
    vertex 8.848665436341149 3.0392304845413274 9.400000000000004
    vertex 8.848665436341149 4.111500299522423 2.8199664825478975e-15
    vertex 8.848665436341149 3.159110991546881 9.689417145876977
  endloop
endfacet
facet normal 1.0 -0.0 -0.0
  outer loop
    vertex 8.848665436341149 3.159110991546881 9.689417145876977
    vertex 8.848665436341149 4.111500299522423 2.8199664825478975e-15
    vertex 8.848665436341149 3.1999999999999997 10.000000000000002
  endloop
endfacet
facet normal 1.0 -0.0 -0.0
  outer loop
    vertex 8.848665436341149 0.0 20.0
    vertex 8.848665436341149 0.8408890084531183 10.310582854123027
    vertex 8.848665436341149 4.111500299522423 20.0
  endloop
endfacet
facet normal 1.0 -0.0 -0.0
  outer loop
    vertex 8.848665436341149 0.8408890084531183 10.310582854123027
    vertex 8.848665436341149 0.0 20.0
    vertex 8.848665436341149 0.8000000000000003 10.000000000000004
  endloop
endfacet
facet normal 1.0 -0.0 -0.0
  outer loop
    vertex 8.848665436341149 4.111500299522423 20.0
    vertex 8.848665436341149 0.8408890084531183 10.310582854123027
    vertex 8.848665436341149 0.960769515458673 10.6
  endloop
endfacet
facet normal 1.0 -0.0 -0.0
  outer loop
    vertex 8.848665436341149 4.111500299522423 20.0
    vertex 8.848665436341149 0.960769515458673 10.6
    vertex 8.848665436341149 1.1514718625761435 10.848528137423857
  endloop
endfacet
facet normal 1.0 -0.0 -0.0
  outer loop
    vertex 8.848665436341149 4.111500299522423 20.0
    vertex 8.848665436341149 1.1514718625761435 10.848528137423857
    vertex 8.848665436341149 1.4000000000000004 11.039230484541328
  endloop
endfacet
facet normal 1.0 -0.0 -0.0
  outer loop
    vertex 8.848665436341149 4.111500299522423 20.0
    vertex 8.848665436341149 1.4000000000000004 11.039230484541328
    vertex 8.848665436341149 1.6894171458769751 11.15911099154688
  endloop
endfacet
facet normal 1.0 -0.0 -0.0
  outer loop
    vertex 8.848665436341149 4.111500299522423 20.0
    vertex 8.848665436341149 1.6894171458769751 11.15911099154688
    vertex 8.848665436341149 1.9999999999999998 11.199999999999998
  endloop
endfacet
facet normal 1.0 -0.0 -0.0
  outer loop
    vertex 8.848665436341149 4.111500299522423 20.0
    vertex 8.848665436341149 1.9999999999999998 11.199999999999998
    vertex 8.848665436341149 2.3105828541230253 11.159110991546882
  endloop
endfacet
facet normal 1.0 -0.0 -0.0
  outer loop
    vertex 8.848665436341149 4.111500299522423 20.0
    vertex 8.848665436341149 2.3105828541230253 11.159110991546882
    vertex 8.848665436341149 2.6 11.039230484541324
  endloop
endfacet
facet normal 1.0 -0.0 -0.0
  outer loop
    vertex 8.848665436341149 4.111500299522423 20.0
    vertex 8.848665436341149 2.6 11.039230484541324
    vertex 8.848665436341147 2.8485281374238576 10.848528137423855
  endloop
endfacet
facet normal 1.0 -0.0 -0.0
  outer loop
    vertex 8.848665436341149 4.111500299522423 20.0
    vertex 8.848665436341147 2.8485281374238576 10.848528137423855
    vertex 8.848665436341149 3.0392304845413247 10.600000000000001
  endloop
endfacet
facet normal 1.0 -0.0 -0.0
  outer loop
    vertex 8.848665436341149 4.111500299522423 20.0
    vertex 8.848665436341149 3.0392304845413247 10.600000000000001
    vertex 8.848665436341149 3.159110991546881 10.310582854123027
  endloop
endfacet
facet normal 1.0 -0.0 -0.0
  outer loop
    vertex 8.848665436341149 4.111500299522423 20.0
    vertex 8.848665436341149 3.159110991546881 10.310582854123027
    vertex 8.848665436341149 3.1999999999999997 10.000000000000002
  endloop
endfacet
facet normal 1.0 -0.0 -0.0
  outer loop
    vertex 8.848665436341149 4.111500299522423 20.0
    vertex 8.848665436341149 3.1999999999999997 10.000000000000002
    vertex 8.848665436341149 4.111500299522423 2.8199664825478975e-15
  endloop
endfacet
facet normal -1.0 0.0 0.0
  outer loop
    vertex 10.411952079826747 0.0 20.0
    vertex 10.411952079826747 0.8000000000000003 10.000000000000004
    vertex 10.411952079826747 0.0 2.8199664825478975e-15
  endloop
endfacet
facet normal -1.0 0.0 0.0
  outer loop
    vertex 10.411952079826747 0.8000000000000003 10.000000000000004
    vertex 10.411952079826747 0.0 20.0
    vertex 10.411952079826747 0.8408890084531183 10.310582854123027
  endloop
endfacet
facet normal -1.0 0.0 0.0
  outer loop
    vertex 10.411952079826747 0.8408890084531183 10.310582854123027
    vertex 10.411952079826747 0.0 20.0
    vertex 10.411952079826747 4.014158748853554 20.0
  endloop
endfacet
facet normal -1.0 0.0 0.0
  outer loop
    vertex 10.411952079826747 0.8408890084531183 10.310582854123027
    vertex 10.411952079826747 4.014158748853554 20.0
    vertex 10.411952079826747 0.960769515458673 10.6
  endloop
endfacet
facet normal -1.0 0.0 0.0
  outer loop
    vertex 10.411952079826747 0.960769515458673 10.6
    vertex 10.411952079826747 4.014158748853554 20.0
    vertex 10.411952079826747 1.1514718625761435 10.848528137423857
  endloop
endfacet
facet normal -1.0 0.0 0.0
  outer loop
    vertex 10.411952079826747 1.1514718625761435 10.848528137423857
    vertex 10.411952079826747 4.014158748853554 20.0
    vertex 10.411952079826747 1.4000000000000004 11.039230484541328
  endloop
endfacet
facet normal -1.0 0.0 0.0
  outer loop
    vertex 10.411952079826747 1.4000000000000004 11.039230484541328
    vertex 10.411952079826747 4.014158748853554 20.0
    vertex 10.411952079826747 1.6894171458769751 11.15911099154688
  endloop
endfacet
facet normal -1.0 0.0 0.0
  outer loop
    vertex 10.411952079826747 1.6894171458769751 11.15911099154688
    vertex 10.411952079826747 4.014158748853554 20.0
    vertex 10.411952079826747 1.9999999999999998 11.199999999999998
  endloop
endfacet
facet normal -1.0 0.0 0.0
  outer loop
    vertex 10.411952079826747 1.9999999999999998 11.199999999999998
    vertex 10.411952079826747 4.014158748853554 20.0
    vertex 10.411952079826747 2.3105828541230253 11.159110991546882
  endloop
endfacet
facet normal -1.0 0.0 0.0
  outer loop
    vertex 10.411952079826747 2.3105828541230253 11.159110991546882
    vertex 10.411952079826747 4.014158748853554 20.0
    vertex 10.411952079826747 2.6 11.039230484541324
  endloop
endfacet
facet normal -1.0 0.0 0.0
  outer loop
    vertex 10.411952079826747 2.6 11.039230484541324
    vertex 10.411952079826747 4.014158748853554 20.0
    vertex 10.411952079826747 2.8485281374238576 10.848528137423855
  endloop
endfacet
facet normal -1.0 0.0 0.0
  outer loop
    vertex 10.411952079826747 2.8485281374238576 10.848528137423855
    vertex 10.411952079826747 4.014158748853554 20.0
    vertex 10.411952079826747 3.0392304845413247 10.600000000000001
  endloop
endfacet
facet normal -1.0 0.0 0.0
  outer loop
    vertex 10.411952079826747 3.0392304845413247 10.600000000000001
    vertex 10.411952079826747 4.014158748853554 20.0
    vertex 10.411952079826747 3.159110991546881 10.310582854123027
  endloop
endfacet
facet normal -1.0 0.0 0.0
  outer loop
    vertex 10.411952079826747 3.159110991546881 10.310582854123027
    vertex 10.411952079826747 4.014158748853554 20.0
    vertex 10.411952079826747 3.1999999999999997 10.000000000000002
  endloop
endfacet
facet normal -1.0 0.0 0.0
  outer loop
    vertex 10.411952079826747 0.0 2.8199664825478975e-15
    vertex 10.411952079826747 0.8408890084531165 9.689417145876979
    vertex 10.411952079826747 4.014158748853554 2.8199664825478975e-15
  endloop
endfacet
facet normal -1.0 0.0 0.0
  outer loop
    vertex 10.411952079826747 0.8408890084531165 9.689417145876979
    vertex 10.411952079826747 0.0 2.8199664825478975e-15
    vertex 10.411952079826747 0.8000000000000003 10.000000000000004
  endloop
endfacet
facet normal -1.0 0.0 0.0
  outer loop
    vertex 10.411952079826747 4.014158748853554 2.8199664825478975e-15
    vertex 10.411952079826747 0.8408890084531165 9.689417145876979
    vertex 10.411952079826747 0.9607695154586716 9.400000000000002
  endloop
endfacet
facet normal -1.0 0.0 0.0
  outer loop
    vertex 10.411952079826747 4.014158748853554 2.8199664825478975e-15
    vertex 10.411952079826747 0.9607695154586716 9.400000000000002
    vertex 10.411952079826747 1.1514718625761424 9.151471862576143
  endloop
endfacet
facet normal -1.0 0.0 0.0
  outer loop
    vertex 10.411952079826747 4.014158748853554 2.8199664825478975e-15
    vertex 10.411952079826747 1.1514718625761424 9.151471862576143
    vertex 10.411952079826747 1.3999999999999995 8.960769515458672
  endloop
endfacet
facet normal -1.0 0.0 0.0
  outer loop
    vertex 10.411952079826747 4.014158748853554 2.8199664825478975e-15
    vertex 10.411952079826747 1.3999999999999995 8.960769515458672
    vertex 10.411952079826747 1.6894171458769742 8.840889008453118
  endloop
endfacet
facet normal -1.0 0.0 0.0
  outer loop
    vertex 10.411952079826747 4.014158748853554 2.8199664825478975e-15
    vertex 10.411952079826747 1.6894171458769742 8.840889008453118
    vertex 10.411952079826747 1.9999999999999991 8.8
  endloop
endfacet
facet normal -1.0 0.0 0.0
  outer loop
    vertex 10.411952079826747 4.014158748853554 2.8199664825478975e-15
    vertex 10.411952079826747 1.9999999999999991 8.8
    vertex 10.411952079826747 2.310582854123024 8.840889008453118
  endloop
endfacet
facet normal -1.0 0.0 0.0
  outer loop
    vertex 10.411952079826747 4.014158748853554 2.8199664825478975e-15
    vertex 10.411952079826747 2.310582854123024 8.840889008453118
    vertex 10.411952079826747 2.5999999999999996 8.960769515458674
  endloop
endfacet
facet normal -1.0 0.0 0.0
  outer loop
    vertex 10.411952079826747 4.014158748853554 2.8199664825478975e-15
    vertex 10.411952079826747 2.5999999999999996 8.960769515458674
    vertex 10.411952079826747 2.848528137423858 9.151471862576148
  endloop
endfacet
facet normal -1.0 0.0 0.0
  outer loop
    vertex 10.411952079826747 4.014158748853554 2.8199664825478975e-15
    vertex 10.411952079826747 2.848528137423858 9.151471862576148
    vertex 10.411952079826747 3.0392304845413274 9.400000000000004
  endloop
endfacet
facet normal -1.0 0.0 0.0
  outer loop
    vertex 10.411952079826747 4.014158748853554 2.8199664825478975e-15
    vertex 10.411952079826747 3.0392304845413274 9.400000000000004
    vertex 10.411952079826747 3.159110991546881 9.689417145876977
  endloop
endfacet
facet normal -1.0 0.0 0.0
  outer loop
    vertex 10.411952079826747 4.014158748853554 2.8199664825478975e-15
    vertex 10.411952079826747 3.159110991546881 9.689417145876977
    vertex 10.411952079826747 3.1999999999999997 10.000000000000002
  endloop
endfacet
facet normal -1.0 0.0 0.0
  outer loop
    vertex 10.411952079826747 4.014158748853554 2.8199664825478975e-15
    vertex 10.411952079826747 3.1999999999999997 10.000000000000002
    vertex 10.411952079826747 4.014158748853554 20.0
  endloop
endfacet
facet normal -0.19828947307038988 0.9801435021819342 -0.0
  outer loop
    vertex 10.411952079826747 4.014158748853554 20.0
    vertex 11.94716486985515 4.324742387379936 2.8199664825478975e-15
    vertex 10.411952079826747 4.014158748853554 2.8199664825478975e-15
  endloop
endfacet
facet normal -0.19828947307038988 0.9801435021819342 -0.0
  outer loop
    vertex 11.94716486985515 4.324742387379936 2.8199664825478975e-15
    vertex 10.411952079826747 4.014158748853554 20.0
    vertex 11.94716486985515 4.324742387379936 20.0
  endloop
endfacet
facet normal -0.44521272841810855 0.8954248301529859 -0.0
  outer loop
    vertex 11.94716486985515 4.324742387379936 20.0
    vertex 13.349681591845018 5.022085453399723 2.8199664825478975e-15
    vertex 11.94716486985515 4.324742387379936 2.8199664825478975e-15
  endloop
endfacet
facet normal -0.44521272841810855 0.8954248301529859 -0.0
  outer loop
    vertex 13.349681591845018 5.022085453399723 2.8199664825478975e-15
    vertex 11.94716486985515 4.324742387379936 20.0
    vertex 13.349681591845018 5.022085453399723 20.0
  endloop
endfacet
facet normal -0.6617954720729544 0.7496844357086091 -0.0
  outer loop
    vertex 13.349681591845018 5.022085453399723 20.0
    vertex 14.523923048961212 6.058665169377574 2.8199664825478975e-15
    vertex 13.349681591845018 5.022085453399723 2.8199664825478975e-15
  endloop
endfacet
facet normal -0.6617954720729544 0.7496844357086091 -0.0
  outer loop
    vertex 14.523923048961212 6.058665169377574 2.8199664825478975e-15
    vertex 13.349681591845018 5.022085453399723 20.0
    vertex 14.523923048961212 6.058665169377574 20.0
  endloop
endfacet
facet normal -0.8332779479747574 0.552854285882797 -0.0
  outer loop
    vertex 15.38986662642702 7.363840340698574 20.0
    vertex 14.523923048961212 6.058665169377574 2.8199664825478975e-15
    vertex 14.523923048961212 6.058665169377574 20.0
  endloop
endfacet
facet normal -0.8332779479747574 0.552854285882797 -0.0
  outer loop
    vertex 14.523923048961212 6.058665169377574 2.8199664825478975e-15
    vertex 15.38986662642702 7.363840340698574 20.0
    vertex 15.38986662642702 7.363840340698574 2.8199664825478975e-15
  endloop
endfacet
facet normal -0.947973908778998 0.31834803010898005 -0.0
  outer loop
    vertex 15.888499700477574 8.848665436341147 20.0
    vertex 15.38986662642702 7.363840340698574 2.8199664825478975e-15
    vertex 15.38986662642702 7.363840340698574 20.0
  endloop
endfacet
facet normal -0.947973908778998 0.31834803010898005 -0.0
  outer loop
    vertex 15.38986662642702 7.363840340698574 2.8199664825478975e-15
    vertex 15.888499700477574 8.848665436341147 20.0
    vertex 15.888499700477574 8.848665436341147 2.8199664825478975e-15
  endloop
endfacet
facet normal -0.9980670143009063 0.062146882178228946 -0.0
  outer loop
    vertex 15.985841251146443 10.411952079826749 20.0
    vertex 15.888499700477574 8.848665436341147 2.8199664825478975e-15
    vertex 15.888499700477574 8.848665436341147 20.0
  endloop
endfacet
facet normal -0.9980670143009063 0.062146882178228946 -0.0
  outer loop
    vertex 15.888499700477574 8.848665436341147 2.8199664825478975e-15
    vertex 15.985841251146443 10.411952079826749 20.0
    vertex 15.985841251146443 10.411952079826749 2.8199664825478975e-15
  endloop
endfacet
facet normal -0.9801435021819342 -0.19828947307039005 -0.0
  outer loop
    vertex 15.675257612620062 11.947164869855152 20.0
    vertex 15.985841251146443 10.411952079826749 2.8199664825478975e-15
    vertex 15.985841251146443 10.411952079826749 20.0
  endloop
endfacet
facet normal -0.9801435021819342 -0.19828947307039005 -0.0
  outer loop
    vertex 15.985841251146443 10.411952079826749 2.8199664825478975e-15
    vertex 15.675257612620062 11.947164869855152 20.0
    vertex 15.675257612620062 11.947164869855152 2.8199664825478975e-15
  endloop
endfacet
facet normal -0.8954248301529858 -0.44521272841810894 -0.0
  outer loop
    vertex 14.977914546600275 13.349681591845018 20.0
    vertex 15.675257612620062 11.947164869855152 2.8199664825478975e-15
    vertex 15.675257612620062 11.947164869855152 20.0
  endloop
endfacet
facet normal -0.8954248301529858 -0.44521272841810894 -0.0
  outer loop
    vertex 15.675257612620062 11.947164869855152 2.8199664825478975e-15
    vertex 14.977914546600275 13.349681591845018 20.0
    vertex 14.977914546600275 13.349681591845018 2.8199664825478975e-15
  endloop
endfacet
facet normal -0.749684435708609 -0.6617954720729545 -0.0
  outer loop
    vertex 13.94133483062242 14.523923048961215 20.0
    vertex 14.977914546600275 13.349681591845018 2.8199664825478975e-15
    vertex 14.977914546600275 13.349681591845018 20.0
  endloop
endfacet
facet normal -0.749684435708609 -0.6617954720729545 -0.0
  outer loop
    vertex 14.977914546600275 13.349681591845018 2.8199664825478975e-15
    vertex 13.94133483062242 14.523923048961215 20.0
    vertex 13.94133483062242 14.523923048961215 2.8199664825478975e-15
  endloop
endfacet
facet normal -0.5528542858827978 -0.8332779479747568 -0.0
  outer loop
    vertex 13.94133483062242 14.523923048961215 20.0
    vertex 12.636159659301423 15.389866626427022 2.8199664825478975e-15
    vertex 13.94133483062242 14.523923048961215 2.8199664825478975e-15
  endloop
endfacet
facet normal -0.5528542858827978 -0.8332779479747568 -0.0
  outer loop
    vertex 12.636159659301423 15.389866626427022 2.8199664825478975e-15
    vertex 13.94133483062242 14.523923048961215 20.0
    vertex 12.636159659301423 15.389866626427022 20.0
  endloop
endfacet
facet normal -0.31834803010897866 -0.9479739087789985 -0.0
  outer loop
    vertex 12.636159659301423 15.389866626427022 20.0
    vertex 11.151334563658851 15.888499700477574 2.8199664825478975e-15
    vertex 12.636159659301423 15.389866626427022 2.8199664825478975e-15
  endloop
endfacet
facet normal -0.31834803010897866 -0.9479739087789985 -0.0
  outer loop
    vertex 11.151334563658851 15.888499700477574 2.8199664825478975e-15
    vertex 12.636159659301423 15.389866626427022 20.0
    vertex 11.151334563658851 15.888499700477574 20.0
  endloop
endfacet
facet normal -0.062146882178229015 -0.9980670143009064 -0.0
  outer loop
    vertex 11.151334563658851 15.888499700477574 20.0
    vertex 9.588047920173251 15.985841251146443 2.8199664825478975e-15
    vertex 11.151334563658851 15.888499700477574 2.8199664825478975e-15
  endloop
endfacet
facet normal -0.062146882178229015 -0.9980670143009064 -0.0
  outer loop
    vertex 9.588047920173251 15.985841251146443 2.8199664825478975e-15
    vertex 11.151334563658851 15.888499700477574 20.0
    vertex 9.588047920173251 15.985841251146443 20.0
  endloop
endfacet
facet normal 0.19828947307039005 -0.9801435021819342 -0.0
  outer loop
    vertex 9.588047920173251 15.985841251146443 20.0
    vertex 8.052835130144848 15.675257612620062 2.8199664825478975e-15
    vertex 9.588047920173251 15.985841251146443 2.8199664825478975e-15
  endloop
endfacet
facet normal 0.19828947307039005 -0.9801435021819342 -0.0
  outer loop
    vertex 8.052835130144848 15.675257612620062 2.8199664825478975e-15
    vertex 9.588047920173251 15.985841251146443 20.0
    vertex 8.052835130144848 15.675257612620062 20.0
  endloop
endfacet
facet normal 0.44521272841810966 -0.8954248301529855 -0.0
  outer loop
    vertex 8.052835130144848 15.675257612620062 20.0
    vertex 6.650318408154979 14.977914546600271 2.8199664825478975e-15
    vertex 8.052835130144848 15.675257612620062 2.8199664825478975e-15
  endloop
endfacet
facet normal 0.44521272841810966 -0.8954248301529855 -0.0
  outer loop
    vertex 6.650318408154979 14.977914546600271 2.8199664825478975e-15
    vertex 8.052835130144848 15.675257612620062 20.0
    vertex 6.650318408154979 14.977914546600271 20.0
  endloop
endfacet
facet normal 0.6617954720729542 -0.7496844357086091 -0.0
  outer loop
    vertex 6.650318408154979 14.977914546600271 20.0
    vertex 5.476076951038788 13.941334830622424 2.8199664825478975e-15
    vertex 6.650318408154979 14.977914546600271 2.8199664825478975e-15
  endloop
endfacet
facet normal 0.6617954720729542 -0.7496844357086091 -0.0
  outer loop
    vertex 5.476076951038788 13.941334830622424 2.8199664825478975e-15
    vertex 6.650318408154979 14.977914546600271 20.0
    vertex 5.476076951038788 13.941334830622424 20.0
  endloop
endfacet
facet normal 0.8332779479747574 -0.5528542858827972 -0.0
  outer loop
    vertex 5.476076951038788 13.941334830622424 2.8199664825478975e-15
    vertex 4.610133373572978 12.63615965930142 20.0
    vertex 4.610133373572978 12.63615965930142 2.8199664825478975e-15
  endloop
endfacet
facet normal 0.8332779479747574 -0.5528542858827972 -0.0
  outer loop
    vertex 4.610133373572978 12.63615965930142 20.0
    vertex 5.476076951038788 13.941334830622424 2.8199664825478975e-15
    vertex 5.476076951038788 13.941334830622424 20.0
  endloop
endfacet
facet normal 0.9479739087789985 -0.3183480301089791 -0.0
  outer loop
    vertex 4.610133373572978 12.63615965930142 2.8199664825478975e-15
    vertex 4.111500299522426 11.151334563658848 20.0
    vertex 4.111500299522426 11.151334563658848 2.8199664825478975e-15
  endloop
endfacet
facet normal 0.9479739087789985 -0.3183480301089791 -0.0
  outer loop
    vertex 4.111500299522426 11.151334563658848 20.0
    vertex 4.610133373572978 12.63615965930142 2.8199664825478975e-15
    vertex 4.610133373572978 12.63615965930142 20.0
  endloop
endfacet
facet normal 0.9980670143009064 -0.06214688217822918 -0.0
  outer loop
    vertex 4.111500299522426 11.151334563658848 2.8199664825478975e-15
    vertex 4.014158748853557 9.588047920173251 20.0
    vertex 4.014158748853557 9.588047920173251 2.8199664825478975e-15
  endloop
endfacet
facet normal 0.9980670143009064 -0.06214688217822918 -0.0
  outer loop
    vertex 4.014158748853557 9.588047920173251 20.0
    vertex 4.111500299522426 11.151334563658848 2.8199664825478975e-15
    vertex 4.111500299522426 11.151334563658848 20.0
  endloop
endfacet
facet normal 0.9801435021819344 0.19828947307038908 0.0
  outer loop
    vertex 4.014158748853557 9.588047920173251 2.8199664825478975e-15
    vertex 4.3247423873799375 8.052835130144846 20.0
    vertex 4.3247423873799375 8.052835130144846 2.8199664825478975e-15
  endloop
endfacet
facet normal 0.9801435021819344 0.19828947307038908 0.0
  outer loop
    vertex 4.3247423873799375 8.052835130144846 20.0
    vertex 4.014158748853557 9.588047920173251 2.8199664825478975e-15
    vertex 4.014158748853557 9.588047920173251 20.0
  endloop
endfacet
facet normal 0.8954248301529858 0.44521272841810894 0.0
  outer loop
    vertex 4.3247423873799375 8.052835130144846 2.8199664825478975e-15
    vertex 5.0220854533997255 6.650318408154979 20.0
    vertex 5.0220854533997255 6.650318408154979 2.8199664825478975e-15
  endloop
endfacet
facet normal 0.8954248301529858 0.44521272841810894 0.0
  outer loop
    vertex 5.0220854533997255 6.650318408154979 20.0
    vertex 4.3247423873799375 8.052835130144846 2.8199664825478975e-15
    vertex 4.3247423873799375 8.052835130144846 20.0
  endloop
endfacet
facet normal 0.7496844357086087 0.6617954720729549 0.0
  outer loop
    vertex 5.0220854533997255 6.650318408154979 2.8199664825478975e-15
    vertex 6.058665169377576 5.4760769510387854 20.0
    vertex 6.058665169377576 5.4760769510387854 2.8199664825478975e-15
  endloop
endfacet
facet normal 0.7496844357086087 0.6617954720729549 0.0
  outer loop
    vertex 6.058665169377576 5.4760769510387854 20.0
    vertex 5.0220854533997255 6.650318408154979 2.8199664825478975e-15
    vertex 5.0220854533997255 6.650318408154979 20.0
  endloop
endfacet
facet normal 0.552854285882798 0.8332779479747568 0.0
  outer loop
    vertex 6.058665169377576 5.4760769510387854 20.0
    vertex 7.363840340698577 4.610133373572976 2.8199664825478975e-15
    vertex 6.058665169377576 5.4760769510387854 2.8199664825478975e-15
  endloop
endfacet
facet normal 0.552854285882798 0.8332779479747568 0.0
  outer loop
    vertex 7.363840340698577 4.610133373572976 2.8199664825478975e-15
    vertex 6.058665169377576 5.4760769510387854 20.0
    vertex 7.363840340698577 4.610133373572976 20.0
  endloop
endfacet
facet normal 0.0 -1.0 0.0
  outer loop
    vertex 20.0 0.0 20.0
    vertex 10.411952079826747 0.0 2.8199664825478975e-15
    vertex 20.0 0.0 0.0
  endloop
endfacet
facet normal 0.0 -1.0 0.0
  outer loop
    vertex 10.411952079826747 0.0 2.8199664825478975e-15
    vertex 20.0 0.0 20.0
    vertex 10.411952079826747 0.0 20.0
  endloop
endfacet
facet normal -1.9112841855881534e-17 -0.9914448613738105 -0.1305261922200522
  outer loop
    vertex 8.848665436341149 3.1999999999999997 10.000000000000002
    vertex 3.0 3.159110991546882 10.310582854123025
    vertex 3.0 3.1999999999999997 10.0
  endloop
endfacet
facet normal -1.9112841855881534e-17 -0.9914448613738105 -0.1305261922200522
  outer loop
    vertex 3.0 3.159110991546882 10.310582854123025
    vertex 8.848665436341149 3.1999999999999997 10.000000000000002
    vertex 8.848665436341149 3.159110991546881 10.310582854123027
  endloop
endfacet
facet normal 3.7759280606535813e-17 -0.9914448613738103 0.13052619222005277
  outer loop
    vertex 20.0 3.1999999999999997 10.0
    vertex 10.411952079826747 3.159110991546881 9.689417145876977
    vertex 20.0 3.1591109915468816 9.689417145876975
  endloop
endfacet
facet normal 3.7759280606535813e-17 -0.9914448613738103 0.13052619222005277
  outer loop
    vertex 10.411952079826747 3.159110991546881 9.689417145876977
    vertex 20.0 3.1999999999999997 10.0
    vertex 10.411952079826747 3.1999999999999997 10.000000000000002
  endloop
endfacet
facet normal -6.682025877799258e-17 -0.9238795325112873 0.3826834323650887
  outer loop
    vertex 8.848665436341149 3.0392304845413274 9.400000000000004
    vertex 3.0 3.1591109915468816 9.689417145876975
    vertex 3.0 3.039230484541326 9.4
  endloop
endfacet
facet normal -6.682025877799258e-17 -0.9238795325112873 0.3826834323650887
  outer loop
    vertex 3.0 3.1591109915468816 9.689417145876975
    vertex 8.848665436341149 3.0392304845413274 9.400000000000004
    vertex 8.848665436341149 3.159110991546881 9.689417145876977
  endloop
endfacet
facet normal 1.5108249619859706e-16 -0.7933533402912342 0.6087614290087222
  outer loop
    vertex 20.0 3.039230484541326 9.4
    vertex 10.411952079826747 2.848528137423858 9.151471862576148
    vertex 20.0 2.8485281374238567 9.151471862576143
  endloop
endfacet
facet normal 1.5108249619859706e-16 -0.7933533402912342 0.6087614290087222
  outer loop
    vertex 10.411952079826747 2.848528137423858 9.151471862576148
    vertex 20.0 3.039230484541326 9.4
    vertex 10.411952079826747 3.0392304845413274 9.400000000000004
  endloop
endfacet
facet normal 1.1901133205378666e-16 -0.608761429008724 0.7933533402912326
  outer loop
    vertex 20.0 2.599999999999999 8.960769515458674
    vertex 10.411952079826747 2.848528137423858 9.151471862576148
    vertex 10.411952079826747 2.5999999999999996 8.960769515458674
  endloop
endfacet
facet normal 1.1901133205378666e-16 -0.608761429008724 0.7933533402912326
  outer loop
    vertex 10.411952079826747 2.848528137423858 9.151471862576148
    vertex 20.0 2.599999999999999 8.960769515458674
    vertex 20.0 2.8485281374238567 9.151471862576143
  endloop
endfacet
facet normal -0.0 -0.3826834323650902 0.9238795325112867
  outer loop
    vertex 8.848665436341149 2.310582854123024 8.840889008453118
    vertex 3.0 2.599999999999999 8.960769515458674
    vertex 3.0 2.310582854123024 8.840889008453118
  endloop
endfacet
facet normal -0.0 -0.3826834323650902 0.9238795325112867
  outer loop
    vertex 3.0 2.599999999999999 8.960769515458674
    vertex 8.848665436341149 2.310582854123024 8.840889008453118
    vertex 8.848665436341149 2.5999999999999996 8.960769515458674
  endloop
endfacet
facet normal 4.9657515588866184e-18 -0.13052619222004921 0.9914448613738107
  outer loop
    vertex 20.0 1.9999999999999996 8.8
    vertex 10.411952079826747 2.310582854123024 8.840889008453118
    vertex 10.411952079826747 1.9999999999999991 8.8
  endloop
endfacet
facet normal 4.9657515588866184e-18 -0.13052619222004921 0.9914448613738107
  outer loop
    vertex 10.411952079826747 2.310582854123024 8.840889008453118
    vertex 20.0 1.9999999999999996 8.8
    vertex 20.0 2.310582854123024 8.840889008453118
  endloop
endfacet
facet normal 2.5653256646574184e-18 0.13052619222004896 0.9914448613738109
  outer loop
    vertex 8.848665436341149 1.6894171458769742 8.840889008453118
    vertex 3.0 1.9999999999999996 8.8
    vertex 3.0 1.6894171458769742 8.840889008453118
  endloop
endfacet
facet normal 2.5653256646574184e-18 0.13052619222004896 0.9914448613738109
  outer loop
    vertex 3.0 1.9999999999999996 8.8
    vertex 8.848665436341149 1.6894171458769742 8.840889008453118
    vertex 8.848665436341149 1.9999999999999991 8.8
  endloop
endfacet
facet normal -6.783595974852374e-17 0.3826834323650889 0.9238795325112871
  outer loop
    vertex 20.0 1.3999999999999995 8.960769515458674
    vertex 10.411952079826747 1.6894171458769742 8.840889008453118
    vertex 10.411952079826747 1.3999999999999995 8.960769515458672
  endloop
endfacet
facet normal -6.783595974852374e-17 0.3826834323650889 0.9238795325112871
  outer loop
    vertex 10.411952079826747 1.6894171458769742 8.840889008453118
    vertex 20.0 1.3999999999999995 8.960769515458674
    vertex 20.0 1.6894171458769742 8.840889008453118
  endloop
endfacet
facet normal 1.2615626229590524e-16 0.6087614290087211 0.7933533402912348
  outer loop
    vertex 8.84866543634115 1.1514718625761424 9.151471862576143
    vertex 3.0 1.3999999999999995 8.960769515458674
    vertex 3.0 1.1514718625761424 9.151471862576143
  endloop
endfacet
facet normal 1.2615626229590524e-16 0.6087614290087211 0.7933533402912348
  outer loop
    vertex 3.0 1.3999999999999995 8.960769515458674
    vertex 8.84866543634115 1.1514718625761424 9.151471862576143
    vertex 8.84866543634115 1.3999999999999995 8.960769515458672
  endloop
endfacet
facet normal 2.97250881249857e-17 0.7933533402912359 0.6087614290087197
  outer loop
    vertex 3.0 1.1514718625761424 9.151471862576143
    vertex 8.84866543634115 0.9607695154586716 9.400000000000002
    vertex 8.84866543634115 1.1514718625761424 9.151471862576143
  endloop
endfacet
facet normal 2.97250881249857e-17 0.7933533402912359 0.6087614290087197
  outer loop
    vertex 8.84866543634115 0.9607695154586716 9.400000000000002
    vertex 3.0 1.1514718625761424 9.151471862576143
    vertex 3.0 0.9607695154586734 9.4
  endloop
endfacet
facet normal 4.309273358021491e-17 0.9238795325112878 0.3826834323650876
  outer loop
    vertex 3.0 0.8408890084531179 9.689417145876977
    vertex 8.84866543634115 0.9607695154586716 9.400000000000002
    vertex 3.0 0.9607695154586734 9.4
  endloop
endfacet
facet normal 4.309273358021491e-17 0.9238795325112878 0.3826834323650876
  outer loop
    vertex 8.84866543634115 0.9607695154586716 9.400000000000002
    vertex 3.0 0.8408890084531179 9.689417145876977
    vertex 8.84866543634115 0.8408890084531165 9.689417145876979
  endloop
endfacet
facet normal -1.6157778251008262e-17 0.9914448613738109 0.13052619222004896
  outer loop
    vertex 10.411952079826747 0.8408890084531165 9.689417145876979
    vertex 20.0 0.7999999999999999 10.0
    vertex 20.0 0.8408890084531179 9.689417145876977
  endloop
endfacet
facet normal -1.6157778251008262e-17 0.9914448613738109 0.13052619222004896
  outer loop
    vertex 20.0 0.7999999999999999 10.0
    vertex 10.411952079826747 0.8408890084531165 9.689417145876979
    vertex 10.411952079826747 0.8000000000000003 10.000000000000004
  endloop
endfacet
facet normal 1.345890789888282e-18 0.9914448613738105 -0.1305261922200517
  outer loop
    vertex 3.0 0.8408890084531181 10.310582854123025
    vertex 8.848665436341149 0.8000000000000003 10.000000000000004
    vertex 3.0 0.7999999999999999 10.0
  endloop
endfacet
facet normal 1.345890789888282e-18 0.9914448613738105 -0.1305261922200517
  outer loop
    vertex 8.848665436341149 0.8000000000000003 10.000000000000004
    vertex 3.0 0.8408890084531181 10.310582854123025
    vertex 8.848665436341149 0.8408890084531183 10.310582854123027
  endloop
endfacet
facet normal -2.5306679284423353e-17 0.9238795325112865 -0.3826834323650904
  outer loop
    vertex 10.411952079826747 0.8408890084531183 10.310582854123027
    vertex 20.0 0.9607695154586737 10.6
    vertex 20.0 0.8408890084531181 10.310582854123025
  endloop
endfacet
facet normal -2.5306679284423353e-17 0.9238795325112865 -0.3826834323650904
  outer loop
    vertex 20.0 0.9607695154586737 10.6
    vertex 10.411952079826747 0.8408890084531183 10.310582854123027
    vertex 10.411952079826747 0.960769515458673 10.6
  endloop
endfacet
facet normal -4.0605378868432146e-17 0.7933533402912344 -0.6087614290087217
  outer loop
    vertex 3.0 0.9607695154586737 10.6
    vertex 8.848665436341149 1.1514718625761435 10.848528137423857
    vertex 8.848665436341149 0.960769515458673 10.6
  endloop
endfacet
facet normal -4.0605378868432146e-17 0.7933533402912344 -0.6087614290087217
  outer loop
    vertex 8.848665436341149 1.1514718625761435 10.848528137423857
    vertex 3.0 0.9607695154586737 10.6
    vertex 3.0 1.1514718625761429 10.848528137423857
  endloop
endfacet
facet normal -4.141564550615323e-17 0.6087614290087224 -0.7933533402912338
  outer loop
    vertex 20.0 1.4000000000000004 11.039230484541326
    vertex 10.411952079826747 1.1514718625761435 10.848528137423857
    vertex 10.411952079826747 1.4000000000000004 11.039230484541328
  endloop
endfacet
facet normal -4.141564550615323e-17 0.6087614290087224 -0.7933533402912338
  outer loop
    vertex 10.411952079826747 1.1514718625761435 10.848528137423857
    vertex 20.0 1.4000000000000004 11.039230484541326
    vertex 20.0 1.1514718625761429 10.848528137423857
  endloop
endfacet
facet normal 0.0 0.38268343236508673 -0.9238795325112881
  outer loop
    vertex 8.848665436341149 1.6894171458769751 11.15911099154688
    vertex 3.0 1.4000000000000004 11.039230484541326
    vertex 3.0 1.6894171458769751 11.159110991546882
  endloop
endfacet
facet normal 0.0 0.38268343236508673 -0.9238795325112881
  outer loop
    vertex 3.0 1.4000000000000004 11.039230484541326
    vertex 8.848665436341149 1.6894171458769751 11.15911099154688
    vertex 8.848665436341149 1.4000000000000004 11.039230484541328
  endloop
endfacet
facet normal 1.455939034090743e-16 0.1305261922200492 -0.9914448613738107
  outer loop
    vertex 20.0 1.9999999999999998 11.2
    vertex 10.411952079826747 1.6894171458769751 11.15911099154688
    vertex 10.411952079826747 1.9999999999999998 11.199999999999998
  endloop
endfacet
facet normal 1.455939034090743e-16 0.1305261922200492 -0.9914448613738107
  outer loop
    vertex 10.411952079826747 1.6894171458769751 11.15911099154688
    vertex 20.0 1.9999999999999998 11.2
    vertex 20.0 1.6894171458769751 11.159110991546882
  endloop
endfacet
facet normal 7.040335403304711e-17 -0.13052619222004677 -0.9914448613738112
  outer loop
    vertex 20.0 2.310582854123025 11.159110991546882
    vertex 10.411952079826747 1.9999999999999998 11.199999999999998
    vertex 10.411952079826747 2.3105828541230253 11.159110991546882
  endloop
endfacet
facet normal 7.040335403304711e-17 -0.13052619222004677 -0.9914448613738112
  outer loop
    vertex 10.411952079826747 1.9999999999999998 11.199999999999998
    vertex 20.0 2.310582854123025 11.159110991546882
    vertex 20.0 1.9999999999999998 11.2
  endloop
endfacet
facet normal 6.119919488642875e-17 -0.3826834323650922 -0.9238795325112857
  outer loop
    vertex 20.0 2.6 11.039230484541326
    vertex 10.411952079826747 2.3105828541230253 11.159110991546882
    vertex 10.411952079826747 2.6 11.039230484541324
  endloop
endfacet
facet normal 6.119919488642875e-17 -0.3826834323650922 -0.9238795325112857
  outer loop
    vertex 10.411952079826747 2.3105828541230253 11.159110991546882
    vertex 20.0 2.6 11.039230484541326
    vertex 20.0 2.310582854123025 11.159110991546882
  endloop
endfacet
facet normal 9.38075331860135e-17 -0.6087614290087212 -0.7933533402912349
  outer loop
    vertex 20.0 2.8485281374238567 10.848528137423857
    vertex 10.411952079826747 2.6 11.039230484541324
    vertex 10.411952079826747 2.8485281374238576 10.848528137423855
  endloop
endfacet
facet normal 9.38075331860135e-17 -0.6087614290087212 -0.7933533402912349
  outer loop
    vertex 10.411952079826747 2.6 11.039230484541324
    vertex 20.0 2.8485281374238567 10.848528137423857
    vertex 20.0 2.6 11.039230484541326
  endloop
endfacet
facet normal -3.0854883291867544e-17 -0.7933533402912345 -0.6087614290087215
  outer loop
    vertex 8.848665436341149 3.0392304845413247 10.600000000000001
    vertex 3.0 2.8485281374238567 10.848528137423857
    vertex 3.0 3.039230484541326 10.6
  endloop
endfacet
facet normal -3.0854883291867544e-17 -0.7933533402912345 -0.6087614290087215
  outer loop
    vertex 3.0 2.8485281374238567 10.848528137423857
    vertex 8.848665436341149 3.0392304845413247 10.600000000000001
    vertex 8.848665436341147 2.8485281374238576 10.848528137423855
  endloop
endfacet
facet normal 4.5089872767269126e-17 -0.9238795325112862 -0.38268343236509156
  outer loop
    vertex 20.0 3.039230484541326 10.6
    vertex 10.411952079826747 3.159110991546881 10.310582854123027
    vertex 20.0 3.159110991546882 10.310582854123025
  endloop
endfacet
facet normal 4.5089872767269126e-17 -0.9238795325112862 -0.38268343236509156
  outer loop
    vertex 10.411952079826747 3.159110991546881 10.310582854123027
    vertex 20.0 3.039230484541326 10.6
    vertex 10.411952079826747 3.0392304845413247 10.600000000000001
  endloop
endfacet
facet normal -5.038398538076554e-32 0.3826834323650854 -0.9238795325112886
  outer loop
    vertex 20.0 1.6894171458769751 11.159110991546882
    vertex 10.411952079826747 1.4000000000000004 11.039230484541328
    vertex 10.411952079826747 1.6894171458769751 11.15911099154688
  endloop
endfacet
facet normal -5.038398538076554e-32 0.3826834323650854 -0.9238795325112886
  outer loop
    vertex 10.411952079826747 1.4000000000000004 11.039230484541328
    vertex 20.0 1.6894171458769751 11.159110991546882
    vertex 20.0 1.4000000000000004 11.039230484541326
  endloop
endfacet
facet normal 5.589909124103188e-17 -0.9238795325112873 0.3826834323650886
  outer loop
    vertex 20.0 3.1591109915468816 9.689417145876975
    vertex 10.411952079826747 3.0392304845413274 9.400000000000004
    vertex 20.0 3.039230484541326 9.4
  endloop
endfacet
facet normal 5.589909124103188e-17 -0.9238795325112873 0.3826834323650886
  outer loop
    vertex 10.411952079826747 3.0392304845413274 9.400000000000004
    vertex 20.0 3.1591109915468816 9.689417145876975
    vertex 10.411952079826747 3.159110991546881 9.689417145876977
  endloop
endfacet
facet normal -6.890237446008539e-17 -0.130526192220046 -0.9914448613738112
  outer loop
    vertex 8.848665436341149 2.3105828541230253 11.159110991546882
    vertex 3.0 1.9999999999999998 11.2
    vertex 3.0 2.310582854123025 11.159110991546882
  endloop
endfacet
facet normal -6.890237446008539e-17 -0.130526192220046 -0.9914448613738112
  outer loop
    vertex 3.0 1.9999999999999998 11.2
    vertex 8.848665436341149 2.3105828541230253 11.159110991546882
    vertex 8.848665436341149 1.9999999999999998 11.199999999999998
  endloop
endfacet
facet normal -3.627857164618325e-17 -0.9914448613738103 0.130526192220053
  outer loop
    vertex 8.848665436341149 3.159110991546881 9.689417145876977
    vertex 3.0 3.1999999999999997 10.0
    vertex 3.0 3.1591109915468816 9.689417145876975
  endloop
endfacet
facet normal -3.627857164618325e-17 -0.9914448613738103 0.130526192220053
  outer loop
    vertex 3.0 3.1999999999999997 10.0
    vertex 8.848665436341149 3.159110991546881 9.689417145876977
    vertex 8.848665436341149 3.1999999999999997 10.000000000000002
  endloop
endfacet
facet normal -2.1288426903679004e-18 0.130526192220049 0.9914448613738107
  outer loop
    vertex 20.0 1.6894171458769742 8.840889008453118
    vertex 10.411952079826747 1.9999999999999991 8.8
    vertex 10.411952079826747 1.6894171458769742 8.840889008453118
  endloop
endfacet
facet normal -2.1288426903679004e-18 0.130526192220049 0.9914448613738107
  outer loop
    vertex 10.411952079826747 1.9999999999999991 8.8
    vertex 20.0 1.6894171458769742 8.840889008453118
    vertex 20.0 1.9999999999999996 8.8
  endloop
endfacet
facet normal 3.344865504755902e-17 0.7933533402912344 -0.6087614290087218
  outer loop
    vertex 10.411952079826747 1.1514718625761435 10.848528137423857
    vertex 20.0 0.9607695154586737 10.6
    vertex 10.411952079826747 0.960769515458673 10.6
  endloop
endfacet
facet normal 3.344865504755902e-17 0.7933533402912344 -0.6087614290087218
  outer loop
    vertex 20.0 0.9607695154586737 10.6
    vertex 10.411952079826747 1.1514718625761435 10.848528137423857
    vertex 20.0 1.1514718625761429 10.848528137423857
  endloop
endfacet
facet normal 6.644618060615619e-17 0.38268343236508817 0.9238795325112875
  outer loop
    vertex 8.84866543634115 1.3999999999999995 8.960769515458672
    vertex 3.0 1.6894171458769742 8.840889008453118
    vertex 3.0 1.3999999999999995 8.960769515458674
  endloop
endfacet
facet normal 6.644618060615619e-17 0.38268343236508817 0.9238795325112875
  outer loop
    vertex 3.0 1.6894171458769742 8.840889008453118
    vertex 8.84866543634115 1.3999999999999995 8.960769515458672
    vertex 8.848665436341149 1.6894171458769742 8.840889008453118
  endloop
endfacet
facet normal 1.552840297975567e-17 -0.9914448613738103 -0.1305261922200526
  outer loop
    vertex 20.0 3.159110991546882 10.310582854123025
    vertex 10.411952079826747 3.1999999999999997 10.000000000000002
    vertex 20.0 3.1999999999999997 10.0
  endloop
endfacet
facet normal 1.552840297975567e-17 -0.9914448613738103 -0.1305261922200526
  outer loop
    vertex 10.411952079826747 3.1999999999999997 10.000000000000002
    vertex 20.0 3.159110991546882 10.310582854123025
    vertex 10.411952079826747 3.159110991546881 10.310582854123027
  endloop
endfacet
facet normal -3.6714417410786043e-19 -0.38268343236508995 0.9238795325112867
  outer loop
    vertex 20.0 2.310582854123024 8.840889008453118
    vertex 10.411952079826747 2.5999999999999996 8.960769515458674
    vertex 10.411952079826747 2.310582854123024 8.840889008453118
  endloop
endfacet
facet normal -3.6714417410786043e-19 -0.38268343236508995 0.9238795325112867
  outer loop
    vertex 10.411952079826747 2.5999999999999996 8.960769515458674
    vertex 20.0 2.310582854123024 8.840889008453118
    vertex 20.0 2.599999999999999 8.960769515458674
  endloop
endfacet
facet normal -5.931675767635285e-17 -0.382683432365093 -0.9238795325112856
  outer loop
    vertex 8.848665436341149 2.6 11.039230484541324
    vertex 3.0 2.310582854123025 11.159110991546882
    vertex 3.0 2.6 11.039230484541326
  endloop
endfacet
facet normal -5.931675767635285e-17 -0.382683432365093 -0.9238795325112856
  outer loop
    vertex 3.0 2.310582854123025 11.159110991546882
    vertex 8.848665436341149 2.6 11.039230484541324
    vertex 8.848665436341149 2.3105828541230253 11.159110991546882
  endloop
endfacet
facet normal -1.0579823813760724e-16 0.6087614290087211 0.7933533402912348
  outer loop
    vertex 20.0 1.1514718625761424 9.151471862576143
    vertex 10.411952079826747 1.3999999999999995 8.960769515458672
    vertex 10.411952079826747 1.1514718625761424 9.151471862576143
  endloop
endfacet
facet normal -1.0579823813760724e-16 0.6087614290087211 0.7933533402912348
  outer loop
    vertex 10.411952079826747 1.3999999999999995 8.960769515458672
    vertex 20.0 1.1514718625761424 9.151471862576143
    vertex 20.0 1.3999999999999995 8.960769515458674
  endloop
endfacet
facet normal -1.423010552127062e-16 0.1305261922200492 -0.9914448613738107
  outer loop
    vertex 8.848665436341149 1.9999999999999998 11.199999999999998
    vertex 3.0 1.6894171458769751 11.159110991546882
    vertex 3.0 1.9999999999999998 11.2
  endloop
endfacet
facet normal -1.423010552127062e-16 0.1305261922200492 -0.9914448613738107
  outer loop
    vertex 3.0 1.6894171458769751 11.159110991546882
    vertex 8.848665436341149 1.9999999999999998 11.199999999999998
    vertex 8.848665436341149 1.6894171458769751 11.15911099154688
  endloop
endfacet
facet normal 1.571075762218311e-17 0.9914448613738109 0.13052619222004805
  outer loop
    vertex 3.0 0.7999999999999999 10.0
    vertex 8.84866543634115 0.8408890084531165 9.689417145876979
    vertex 3.0 0.8408890084531179 9.689417145876977
  endloop
endfacet
facet normal 1.571075762218311e-17 0.9914448613738109 0.13052619222004805
  outer loop
    vertex 8.84866543634115 0.8408890084531165 9.689417145876979
    vertex 3.0 0.7999999999999999 10.0
    vertex 8.848665436341149 0.8000000000000003 10.000000000000004
  endloop
endfacet
facet normal -1.2036043966669045e-18 0.9914448613738105 -0.1305261922200517
  outer loop
    vertex 10.411952079826747 0.8000000000000003 10.000000000000004
    vertex 20.0 0.8408890084531181 10.310582854123025
    vertex 20.0 0.7999999999999999 10.0
  endloop
endfacet
facet normal -1.2036043966669045e-18 0.9914448613738105 -0.1305261922200517
  outer loop
    vertex 20.0 0.8408890084531181 10.310582854123025
    vertex 10.411952079826747 0.8000000000000003 10.000000000000004
    vertex 10.411952079826747 0.8408890084531183 10.310582854123027
  endloop
endfacet
facet normal 2.5471760057618892e-17 -0.7933533402912345 -0.6087614290087215
  outer loop
    vertex 20.0 2.8485281374238567 10.848528137423857
    vertex 10.411952079826747 3.0392304845413247 10.600000000000001
    vertex 20.0 3.039230484541326 10.6
  endloop
endfacet
facet normal 2.5471760057618892e-17 -0.7933533402912345 -0.6087614290087215
  outer loop
    vertex 10.411952079826747 3.0392304845413247 10.600000000000001
    vertex 20.0 2.8485281374238567 10.848528137423857
    vertex 10.411952079826747 2.8485281374238576 10.848528137423855
  endloop
endfacet
facet normal -9.104741125087332e-17 -0.6087614290087211 -0.793353340291235
  outer loop
    vertex 8.848665436341147 2.8485281374238576 10.848528137423855
    vertex 3.0 2.6 11.039230484541326
    vertex 3.0 2.8485281374238567 10.848528137423857
  endloop
endfacet
facet normal -9.104741125087332e-17 -0.6087614290087211 -0.793353340291235
  outer loop
    vertex 3.0 2.6 11.039230484541326
    vertex 8.848665436341147 2.8485281374238576 10.848528137423855
    vertex 8.848665436341149 2.6 11.039230484541324
  endloop
endfacet
facet normal -3.628281098463506e-17 0.9238795325112878 0.3826834323650873
  outer loop
    vertex 10.411952079826747 0.9607695154586716 9.400000000000002
    vertex 20.0 0.8408890084531179 9.689417145876977
    vertex 20.0 0.9607695154586734 9.4
  endloop
endfacet
facet normal -3.628281098463506e-17 0.9238795325112878 0.3826834323650873
  outer loop
    vertex 20.0 0.8408890084531179 9.689417145876977
    vertex 10.411952079826747 0.9607695154586716 9.400000000000002
    vertex 10.411952079826747 0.8408890084531165 9.689417145876979
  endloop
endfacet
facet normal 4.10009616597939e-17 0.608761429008723 -0.7933533402912334
  outer loop
    vertex 8.848665436341149 1.4000000000000004 11.039230484541328
    vertex 3.0 1.1514718625761429 10.848528137423857
    vertex 3.0 1.4000000000000004 11.039230484541326
  endloop
endfacet
facet normal 4.10009616597939e-17 0.608761429008723 -0.7933533402912334
  outer loop
    vertex 3.0 1.1514718625761429 10.848528137423857
    vertex 8.848665436341149 1.4000000000000004 11.039230484541328
    vertex 8.848665436341149 1.1514718625761435 10.848528137423857
  endloop
endfacet
facet normal -4.516610159144848e-17 -0.923879532511286 -0.38268343236509184
  outer loop
    vertex 8.848665436341149 3.159110991546881 10.310582854123027
    vertex 3.0 3.039230484541326 10.6
    vertex 3.0 3.159110991546882 10.310582854123025
  endloop
endfacet
facet normal -4.516610159144848e-17 -0.923879532511286 -0.38268343236509184
  outer loop
    vertex 3.0 3.039230484541326 10.6
    vertex 8.848665436341149 3.159110991546881 10.310582854123027
    vertex 8.848665436341149 3.0392304845413247 10.600000000000001
  endloop
endfacet
facet normal -2.533609841524538e-17 0.7933533402912365 0.6087614290087192
  outer loop
    vertex 10.411952079826747 0.9607695154586716 9.400000000000002
    vertex 20.0 1.1514718625761424 9.151471862576143
    vertex 10.411952079826747 1.1514718625761424 9.151471862576143
  endloop
endfacet
facet normal -2.533609841524538e-17 0.7933533402912365 0.6087614290087192
  outer loop
    vertex 20.0 1.1514718625761424 9.151471862576143
    vertex 10.411952079826747 0.9607695154586716 9.400000000000002
    vertex 20.0 0.9607695154586734 9.4
  endloop
endfacet
facet normal -4.496306292535579e-18 -0.1305261922200492 0.9914448613738107
  outer loop
    vertex 8.848665436341149 1.9999999999999991 8.8
    vertex 3.0 2.310582854123024 8.840889008453118
    vertex 3.0 1.9999999999999996 8.8
  endloop
endfacet
facet normal -4.496306292535579e-18 -0.1305261922200492 0.9914448613738107
  outer loop
    vertex 3.0 2.310582854123024 8.840889008453118
    vertex 8.848665436341149 1.9999999999999991 8.8
    vertex 8.848665436341149 2.310582854123024 8.840889008453118
  endloop
endfacet
facet normal -1.4762099725507219e-16 -0.7933533402912342 0.6087614290087222
  outer loop
    vertex 8.848665436341149 2.848528137423858 9.151471862576148
    vertex 3.0 3.039230484541326 9.4
    vertex 3.0 2.8485281374238567 9.151471862576143
  endloop
endfacet
facet normal -1.4762099725507219e-16 -0.7933533402912342 0.6087614290087222
  outer loop
    vertex 3.0 3.039230484541326 9.4
    vertex 8.848665436341149 2.848528137423858 9.151471862576148
    vertex 8.848665436341149 3.0392304845413274 9.400000000000004
  endloop
endfacet
facet normal 2.5111382414357757e-17 0.9238795325112865 -0.38268343236509056
  outer loop
    vertex 3.0 0.9607695154586737 10.6
    vertex 8.848665436341149 0.8408890084531183 10.310582854123027
    vertex 3.0 0.8408890084531181 10.310582854123025
  endloop
endfacet
facet normal 2.5111382414357757e-17 0.9238795325112865 -0.38268343236509056
  outer loop
    vertex 8.848665436341149 0.8408890084531183 10.310582854123027
    vertex 3.0 0.9607695154586737 10.6
    vertex 8.848665436341149 0.960769515458673 10.6
  endloop
endfacet
facet normal -1.1671984444739269e-16 -0.6087614290087252 0.7933533402912317
  outer loop
    vertex 8.848665436341149 2.5999999999999996 8.960769515458674
    vertex 3.0 2.8485281374238567 9.151471862576143
    vertex 3.0 2.599999999999999 8.960769515458674
  endloop
endfacet
facet normal -1.1671984444739269e-16 -0.6087614290087252 0.7933533402912317
  outer loop
    vertex 3.0 2.8485281374238567 9.151471862576143
    vertex 8.848665436341149 2.5999999999999996 8.960769515458674
    vertex 8.848665436341149 2.848528137423858 9.151471862576148
  endloop
endfacet
facet normal -1.0 0.0 0.0
  outer loop
    vertex 3.0 0.8686291501015235 11.131370849898477
    vertex 3.0 0.7999999999999999 10.0
    vertex 3.0 0.6143593539448978 10.8
  endloop
endfacet
facet normal -1.0 0.0 0.0
  outer loop
    vertex 3.0 0.7999999999999999 10.0
    vertex 3.0 0.8686291501015235 11.131370849898477
    vertex 3.0 0.8408890084531181 10.310582854123025
  endloop
endfacet
facet normal -1.0 0.0 0.0
  outer loop
    vertex 3.0 0.8408890084531181 10.310582854123025
    vertex 3.0 0.8686291501015235 11.131370849898477
    vertex 3.0 0.9607695154586737 10.6
  endloop
endfacet
facet normal -1.0 0.0 0.0
  outer loop
    vertex 3.0 0.9607695154586737 10.6
    vertex 3.0 0.8686291501015235 11.131370849898477
    vertex 3.0 1.2 11.385640646055103
  endloop
endfacet
facet normal -1.0 0.0 0.0
  outer loop
    vertex 3.0 0.9607695154586737 10.6
    vertex 3.0 1.2 11.385640646055103
    vertex 3.0 1.1514718625761429 10.848528137423857
  endloop
endfacet
facet normal -1.0 0.0 0.0
  outer loop
    vertex 3.0 1.1514718625761429 10.848528137423857
    vertex 3.0 1.2 11.385640646055103
    vertex 3.0 1.4000000000000004 11.039230484541326
  endloop
endfacet
facet normal -1.0 0.0 0.0
  outer loop
    vertex 3.0 1.4000000000000004 11.039230484541326
    vertex 3.0 1.2 11.385640646055103
    vertex 3.0 1.5858895278359668 11.54548132206251
  endloop
endfacet
facet normal -1.0 0.0 0.0
  outer loop
    vertex 3.0 1.4000000000000004 11.039230484541326
    vertex 3.0 1.5858895278359668 11.54548132206251
    vertex 3.0 1.6894171458769751 11.159110991546882
  endloop
endfacet
facet normal -1.0 0.0 0.0
  outer loop
    vertex 3.0 1.6894171458769751 11.159110991546882
    vertex 3.0 1.5858895278359668 11.54548132206251
    vertex 3.0 1.9999999999999998 11.600000000000001
  endloop
endfacet
facet normal -1.0 0.0 0.0
  outer loop
    vertex 3.0 1.6894171458769751 11.159110991546882
    vertex 3.0 1.9999999999999998 11.600000000000001
    vertex 3.0 1.9999999999999998 11.2
  endloop
endfacet
facet normal -1.0 0.0 0.0
  outer loop
    vertex 3.0 1.9999999999999998 11.2
    vertex 3.0 1.9999999999999998 11.600000000000001
    vertex 3.0 2.4141104721640336 11.54548132206251
  endloop
endfacet
facet normal -1.0 0.0 0.0
  outer loop
    vertex 3.0 1.9999999999999998 11.2
    vertex 3.0 2.4141104721640336 11.54548132206251
    vertex 3.0 2.310582854123025 11.159110991546882
  endloop
endfacet
facet normal -1.0 0.0 0.0
  outer loop
    vertex 3.0 2.310582854123025 11.159110991546882
    vertex 3.0 2.4141104721640336 11.54548132206251
    vertex 3.0 2.6 11.039230484541326
  endloop
endfacet
facet normal -1.0 0.0 0.0
  outer loop
    vertex 3.0 2.6 11.039230484541326
    vertex 3.0 2.4141104721640336 11.54548132206251
    vertex 3.0 2.8000000000000007 11.385640646055103
  endloop
endfacet
facet normal -1.0 0.0 0.0
  outer loop
    vertex 3.0 2.6 11.039230484541326
    vertex 3.0 2.8000000000000007 11.385640646055103
    vertex 3.0 2.8485281374238567 10.848528137423857
  endloop
endfacet
facet normal -1.0 0.0 0.0
  outer loop
    vertex 3.0 2.8485281374238567 10.848528137423857
    vertex 3.0 2.8000000000000007 11.385640646055103
    vertex 3.0 3.1313708498984765 11.131370849898477
  endloop
endfacet
facet normal -1.0 0.0 0.0
  outer loop
    vertex 3.0 2.8485281374238567 10.848528137423857
    vertex 3.0 3.1313708498984765 11.131370849898477
    vertex 3.0 3.039230484541326 10.6
  endloop
endfacet
facet normal -1.0 0.0 0.0
  outer loop
    vertex 3.0 3.039230484541326 10.6
    vertex 3.0 3.1313708498984765 11.131370849898477
    vertex 3.0 3.159110991546882 10.310582854123025
  endloop
endfacet
facet normal -1.0 0.0 0.0
  outer loop
    vertex 3.0 3.159110991546882 10.310582854123025
    vertex 3.0 3.1313708498984765 11.131370849898477
    vertex 3.0 3.3856406460551023 10.8
  endloop
endfacet
facet normal -1.0 0.0 0.0
  outer loop
    vertex 3.0 3.159110991546882 10.310582854123025
    vertex 3.0 3.3856406460551023 10.8
    vertex 3.0 3.1999999999999997 10.0
  endloop
endfacet
facet normal -1.0 0.0 0.0
  outer loop
    vertex 3.0 0.4545186779374902 10.414110472164033
    vertex 3.0 0.45451867793748985 9.585889527835967
    vertex 3.0 0.39999999999999925 10.0
  endloop
endfacet
facet normal -1.0 0.0 0.0
  outer loop
    vertex 3.0 0.45451867793748985 9.585889527835967
    vertex 3.0 0.4545186779374902 10.414110472164033
    vertex 3.0 0.6143593539448973 9.2
  endloop
endfacet
facet normal -1.0 0.0 0.0
  outer loop
    vertex 3.0 0.6143593539448973 9.2
    vertex 3.0 0.4545186779374902 10.414110472164033
    vertex 3.0 0.6143593539448978 10.8
  endloop
endfacet
facet normal -1.0 0.0 0.0
  outer loop
    vertex 3.0 0.6143593539448973 9.2
    vertex 3.0 0.6143593539448978 10.8
    vertex 3.0 0.8686291501015228 8.868629150101524
  endloop
endfacet
facet normal -1.0 0.0 0.0
  outer loop
    vertex 3.0 0.8686291501015228 8.868629150101524
    vertex 3.0 0.6143593539448978 10.8
    vertex 3.0 0.7999999999999999 10.0
  endloop
endfacet
facet normal -1.0 0.0 0.0
  outer loop
    vertex 3.0 0.8686291501015228 8.868629150101524
    vertex 3.0 0.7999999999999999 10.0
    vertex 3.0 0.8408890084531179 9.689417145876977
  endloop
endfacet
facet normal -1.0 0.0 0.0
  outer loop
    vertex 3.0 0.8686291501015228 8.868629150101524
    vertex 3.0 0.8408890084531179 9.689417145876977
    vertex 3.0 0.9607695154586734 9.4
  endloop
endfacet
facet normal -1.0 0.0 0.0
  outer loop
    vertex 3.0 0.8686291501015228 8.868629150101524
    vertex 3.0 0.9607695154586734 9.4
    vertex 3.0 1.1999999999999988 8.614359353944899
  endloop
endfacet
facet normal -1.0 0.0 0.0
  outer loop
    vertex 3.0 1.1999999999999988 8.614359353944899
    vertex 3.0 0.9607695154586734 9.4
    vertex 3.0 1.1514718625761424 9.151471862576143
  endloop
endfacet
facet normal -1.0 0.0 0.0
  outer loop
    vertex 3.0 1.1999999999999988 8.614359353944899
    vertex 3.0 1.1514718625761424 9.151471862576143
    vertex 3.0 1.3999999999999995 8.960769515458674
  endloop
endfacet
facet normal -1.0 0.0 0.0
  outer loop
    vertex 3.0 1.1999999999999988 8.614359353944899
    vertex 3.0 1.3999999999999995 8.960769515458674
    vertex 3.0 1.5858895278359653 8.454518677937491
  endloop
endfacet
facet normal -1.0 0.0 0.0
  outer loop
    vertex 3.0 1.5858895278359653 8.454518677937491
    vertex 3.0 1.3999999999999995 8.960769515458674
    vertex 3.0 1.6894171458769742 8.840889008453118
  endloop
endfacet
facet normal -1.0 0.0 0.0
  outer loop
    vertex 3.0 1.5858895278359653 8.454518677937491
    vertex 3.0 1.6894171458769742 8.840889008453118
    vertex 3.0 1.9999999999999996 8.399999999999999
  endloop
endfacet
facet normal -1.0 0.0 0.0
  outer loop
    vertex 3.0 1.9999999999999996 8.399999999999999
    vertex 3.0 1.6894171458769742 8.840889008453118
    vertex 3.0 1.9999999999999996 8.8
  endloop
endfacet
facet normal -1.0 0.0 0.0
  outer loop
    vertex 3.0 1.9999999999999996 8.399999999999999
    vertex 3.0 1.9999999999999996 8.8
    vertex 3.0 2.310582854123024 8.840889008453118
  endloop
endfacet
facet normal -1.0 0.0 0.0
  outer loop
    vertex 3.0 1.9999999999999996 8.399999999999999
    vertex 3.0 2.310582854123024 8.840889008453118
    vertex 3.0 2.4141104721640323 8.45451867793749
  endloop
endfacet
facet normal -1.0 0.0 0.0
  outer loop
    vertex 3.0 2.4141104721640323 8.45451867793749
    vertex 3.0 2.310582854123024 8.840889008453118
    vertex 3.0 2.599999999999999 8.960769515458674
  endloop
endfacet
facet normal -1.0 0.0 0.0
  outer loop
    vertex 3.0 2.4141104721640323 8.45451867793749
    vertex 3.0 2.599999999999999 8.960769515458674
    vertex 3.0 2.799999999999999 8.614359353944897
  endloop
endfacet
facet normal -1.0 0.0 0.0
  outer loop
    vertex 3.0 2.799999999999999 8.614359353944897
    vertex 3.0 2.599999999999999 8.960769515458674
    vertex 3.0 2.8485281374238567 9.151471862576143
  endloop
endfacet
facet normal -1.0 0.0 0.0
  outer loop
    vertex 3.0 2.799999999999999 8.614359353944897
    vertex 3.0 2.8485281374238567 9.151471862576143
    vertex 3.0 3.131370849898476 8.868629150101523
  endloop
endfacet
facet normal -1.0 0.0 0.0
  outer loop
    vertex 3.0 3.131370849898476 8.868629150101523
    vertex 3.0 2.8485281374238567 9.151471862576143
    vertex 3.0 3.039230484541326 9.4
  endloop
endfacet
facet normal -1.0 0.0 0.0
  outer loop
    vertex 3.0 3.131370849898476 8.868629150101523
    vertex 3.0 3.039230484541326 9.4
    vertex 3.0 3.1591109915468816 9.689417145876975
  endloop
endfacet
facet normal -1.0 0.0 0.0
  outer loop
    vertex 3.0 3.131370849898476 8.868629150101523
    vertex 3.0 3.1591109915468816 9.689417145876975
    vertex 3.0 3.3856406460551023 9.2
  endloop
endfacet
facet normal -1.0 0.0 0.0
  outer loop
    vertex 3.0 3.3856406460551023 9.2
    vertex 3.0 3.1591109915468816 9.689417145876975
    vertex 3.0 3.1999999999999997 10.0
  endloop
endfacet
facet normal -1.0 0.0 0.0
  outer loop
    vertex 3.0 3.3856406460551023 9.2
    vertex 3.0 3.1999999999999997 10.0
    vertex 3.0 3.3856406460551023 10.8
  endloop
endfacet
facet normal -1.0 0.0 0.0
  outer loop
    vertex 3.0 3.3856406460551023 9.2
    vertex 3.0 3.3856406460551023 10.8
    vertex 3.0 3.545481322062509 10.414110472164033
  endloop
endfacet
facet normal -1.0 0.0 0.0
  outer loop
    vertex 3.0 3.3856406460551023 9.2
    vertex 3.0 3.545481322062509 10.414110472164033
    vertex 3.0 3.545481322062509 9.585889527835965
  endloop
endfacet
facet normal -1.0 0.0 0.0
  outer loop
    vertex 3.0 3.545481322062509 9.585889527835965
    vertex 3.0 3.545481322062509 10.414110472164033
    vertex 3.0 3.6000000000000005 10.0
  endloop
endfacet
facet normal -0.0 0.7933533402912349 -0.6087614290087212
  outer loop
    vertex 0.0 0.8686291501015235 11.131370849898477
    vertex 3.0 0.6143593539448978 10.8
    vertex 0.0 0.6143593539448978 10.8
  endloop
endfacet
facet normal -0.0 0.7933533402912349 -0.6087614290087212
  outer loop
    vertex 3.0 0.6143593539448978 10.8
    vertex 0.0 0.8686291501015235 11.131370849898477
    vertex 3.0 0.8686291501015235 11.131370849898477
  endloop
endfacet
facet normal -0.0 0.6087614290087207 -0.7933533402912352
  outer loop
    vertex 3.0 1.2 11.385640646055103
    vertex 0.0 0.8686291501015235 11.131370849898477
    vertex 0.0 1.2 11.385640646055103
  endloop
endfacet
facet normal -0.0 0.6087614290087207 -0.7933533402912352
  outer loop
    vertex 0.0 0.8686291501015235 11.131370849898477
    vertex 3.0 1.2 11.385640646055103
    vertex 3.0 0.8686291501015235 11.131370849898477
  endloop
endfacet
facet normal -0.0 0.38268343236508945 -0.923879532511287
  outer loop
    vertex 3.0 1.5858895278359668 11.54548132206251
    vertex 0.0 1.2 11.385640646055103
    vertex 0.0 1.5858895278359668 11.54548132206251
  endloop
endfacet
facet normal -0.0 0.38268343236508945 -0.923879532511287
  outer loop
    vertex 0.0 1.2 11.385640646055103
    vertex 3.0 1.5858895278359668 11.54548132206251
    vertex 3.0 1.2 11.385640646055103
  endloop
endfacet
facet normal -0.0 0.13052619222005243 -0.9914448613738104
  outer loop
    vertex 3.0 1.9999999999999998 11.600000000000001
    vertex 0.0 1.5858895278359668 11.54548132206251
    vertex 0.0 1.9999999999999998 11.600000000000001
  endloop
endfacet
facet normal -0.0 0.13052619222005243 -0.9914448613738104
  outer loop
    vertex 0.0 1.5858895278359668 11.54548132206251
    vertex 3.0 1.9999999999999998 11.600000000000001
    vertex 3.0 1.5858895278359668 11.54548132206251
  endloop
endfacet
facet normal -0.0 -0.13052619222005227 -0.9914448613738104
  outer loop
    vertex 3.0 2.4141104721640336 11.54548132206251
    vertex 0.0 1.9999999999999998 11.600000000000001
    vertex 0.0 2.4141104721640336 11.54548132206251
  endloop
endfacet
facet normal -0.0 -0.13052619222005227 -0.9914448613738104
  outer loop
    vertex 0.0 1.9999999999999998 11.600000000000001
    vertex 3.0 2.4141104721640336 11.54548132206251
    vertex 3.0 1.9999999999999998 11.600000000000001
  endloop
endfacet
facet normal -0.0 -0.3826834323650893 -0.923879532511287
  outer loop
    vertex 3.0 2.8000000000000007 11.385640646055103
    vertex 0.0 2.4141104721640336 11.54548132206251
    vertex 0.0 2.8000000000000007 11.385640646055103
  endloop
endfacet
facet normal -0.0 -0.3826834323650893 -0.923879532511287
  outer loop
    vertex 0.0 2.4141104721640336 11.54548132206251
    vertex 3.0 2.8000000000000007 11.385640646055103
    vertex 3.0 2.4141104721640336 11.54548132206251
  endloop
endfacet
facet normal -0.0 -0.6087614290087212 -0.7933533402912347
  outer loop
    vertex 3.0 3.1313708498984765 11.131370849898477
    vertex 0.0 2.8000000000000007 11.385640646055103
    vertex 0.0 3.1313708498984765 11.131370849898477
  endloop
endfacet
facet normal -0.0 -0.6087614290087212 -0.7933533402912347
  outer loop
    vertex 0.0 2.8000000000000007 11.385640646055103
    vertex 3.0 3.1313708498984765 11.131370849898477
    vertex 3.0 2.8000000000000007 11.385640646055103
  endloop
endfacet
facet normal -0.0 -0.793353340291236 -0.6087614290087195
  outer loop
    vertex 3.0 3.1313708498984765 11.131370849898477
    vertex 0.0 3.3856406460551023 10.8
    vertex 3.0 3.3856406460551023 10.8
  endloop
endfacet
facet normal -0.0 -0.793353340291236 -0.6087614290087195
  outer loop
    vertex 0.0 3.3856406460551023 10.8
    vertex 3.0 3.1313708498984765 11.131370849898477
    vertex 0.0 3.1313708498984765 11.131370849898477
  endloop
endfacet
facet normal -0.0 -0.923879532511287 -0.38268343236508967
  outer loop
    vertex 3.0 3.3856406460551023 10.8
    vertex 0.0 3.545481322062509 10.414110472164033
    vertex 3.0 3.545481322062509 10.414110472164033
  endloop
endfacet
facet normal -0.0 -0.923879532511287 -0.38268343236508967
  outer loop
    vertex 0.0 3.545481322062509 10.414110472164033
    vertex 3.0 3.3856406460551023 10.8
    vertex 0.0 3.3856406460551023 10.8
  endloop
endfacet
facet normal -0.0 -0.9914448613738104 -0.13052619222005238
  outer loop
    vertex 3.0 3.545481322062509 10.414110472164033
    vertex 0.0 3.6000000000000005 10.0
    vertex 3.0 3.6000000000000005 10.0
  endloop
endfacet
facet normal -0.0 -0.9914448613738104 -0.13052619222005238
  outer loop
    vertex 0.0 3.6000000000000005 10.0
    vertex 3.0 3.545481322062509 10.414110472164033
    vertex 0.0 3.545481322062509 10.414110472164033
  endloop
endfacet
facet normal -0.0 -0.9914448613738104 0.13052619222005193
  outer loop
    vertex 3.0 3.6000000000000005 10.0
    vertex 0.0 3.545481322062509 9.585889527835965
    vertex 3.0 3.545481322062509 9.585889527835965
  endloop
endfacet
facet normal -0.0 -0.9914448613738104 0.13052619222005193
  outer loop
    vertex 0.0 3.545481322062509 9.585889527835965
    vertex 3.0 3.6000000000000005 10.0
    vertex 0.0 3.6000000000000005 10.0
  endloop
endfacet
facet normal -0.0 -0.923879532511287 0.38268343236508967
  outer loop
    vertex 3.0 3.545481322062509 9.585889527835965
    vertex 0.0 3.3856406460551023 9.2
    vertex 3.0 3.3856406460551023 9.2
  endloop
endfacet
facet normal -0.0 -0.923879532511287 0.38268343236508967
  outer loop
    vertex 0.0 3.3856406460551023 9.2
    vertex 3.0 3.545481322062509 9.585889527835965
    vertex 0.0 3.545481322062509 9.585889527835965
  endloop
endfacet
facet normal -0.0 -0.7933533402912344 0.6087614290087217
  outer loop
    vertex 3.0 3.3856406460551023 9.2
    vertex 0.0 3.131370849898476 8.868629150101523
    vertex 3.0 3.131370849898476 8.868629150101523
  endloop
endfacet
facet normal -0.0 -0.7933533402912344 0.6087614290087217
  outer loop
    vertex 0.0 3.131370849898476 8.868629150101523
    vertex 3.0 3.3856406460551023 9.2
    vertex 0.0 3.3856406460551023 9.2
  endloop
endfacet
facet normal -0.0 -0.6087614290087201 0.7933533402912358
  outer loop
    vertex 3.0 2.799999999999999 8.614359353944897
    vertex 0.0 3.131370849898476 8.868629150101523
    vertex 0.0 2.799999999999999 8.614359353944897
  endloop
endfacet
facet normal -0.0 -0.6087614290087201 0.7933533402912358
  outer loop
    vertex 0.0 3.131370849898476 8.868629150101523
    vertex 3.0 2.799999999999999 8.614359353944897
    vertex 3.0 3.131370849898476 8.868629150101523
  endloop
endfacet
facet normal -0.0 -0.38268343236508967 0.923879532511287
  outer loop
    vertex 3.0 2.4141104721640323 8.45451867793749
    vertex 0.0 2.799999999999999 8.614359353944897
    vertex 0.0 2.4141104721640323 8.45451867793749
  endloop
endfacet
facet normal -0.0 -0.38268343236508967 0.923879532511287
  outer loop
    vertex 0.0 2.799999999999999 8.614359353944897
    vertex 3.0 2.4141104721640323 8.45451867793749
    vertex 3.0 2.799999999999999 8.614359353944897
  endloop
endfacet
facet normal -0.0 -0.13052619222005246 0.9914448613738103
  outer loop
    vertex 3.0 1.9999999999999996 8.399999999999999
    vertex 0.0 2.4141104721640323 8.45451867793749
    vertex 0.0 1.9999999999999996 8.399999999999999
  endloop
endfacet
facet normal -0.0 -0.13052619222005246 0.9914448613738103
  outer loop
    vertex 0.0 2.4141104721640323 8.45451867793749
    vertex 3.0 1.9999999999999996 8.399999999999999
    vertex 3.0 2.4141104721640323 8.45451867793749
  endloop
endfacet
facet normal 0.0 0.13052619222005543 0.99144486137381
  outer loop
    vertex 3.0 1.5858895278359653 8.454518677937491
    vertex 0.0 1.9999999999999996 8.399999999999999
    vertex 0.0 1.5858895278359653 8.454518677937491
  endloop
endfacet
facet normal 0.0 0.13052619222005543 0.99144486137381
  outer loop
    vertex 0.0 1.9999999999999996 8.399999999999999
    vertex 3.0 1.5858895278359653 8.454518677937491
    vertex 3.0 1.9999999999999996 8.399999999999999
  endloop
endfacet
facet normal 0.0 0.3826834323650898 0.9238795325112868
  outer loop
    vertex 3.0 1.1999999999999988 8.614359353944899
    vertex 0.0 1.5858895278359653 8.454518677937491
    vertex 0.0 1.1999999999999988 8.614359353944899
  endloop
endfacet
facet normal 0.0 0.3826834323650898 0.9238795325112868
  outer loop
    vertex 0.0 1.5858895278359653 8.454518677937491
    vertex 3.0 1.1999999999999988 8.614359353944899
    vertex 3.0 1.5858895278359653 8.454518677937491
  endloop
endfacet
facet normal 0.0 0.6087614290087211 0.793353340291235
  outer loop
    vertex 3.0 0.8686291501015228 8.868629150101524
    vertex 0.0 1.1999999999999988 8.614359353944899
    vertex 0.0 0.8686291501015228 8.868629150101524
  endloop
endfacet
facet normal 0.0 0.6087614290087211 0.793353340291235
  outer loop
    vertex 0.0 1.1999999999999988 8.614359353944899
    vertex 3.0 0.8686291501015228 8.868629150101524
    vertex 3.0 1.1999999999999988 8.614359353944899
  endloop
endfacet
facet normal 0.0 0.7933533402912352 0.6087614290087209
  outer loop
    vertex 0.0 0.6143593539448973 9.2
    vertex 3.0 0.8686291501015228 8.868629150101524
    vertex 0.0 0.8686291501015228 8.868629150101524
  endloop
endfacet
facet normal 0.0 0.7933533402912352 0.6087614290087209
  outer loop
    vertex 3.0 0.8686291501015228 8.868629150101524
    vertex 0.0 0.6143593539448973 9.2
    vertex 3.0 0.6143593539448973 9.2
  endloop
endfacet
facet normal 0.0 0.9238795325112867 0.38268343236508995
  outer loop
    vertex 0.0 0.45451867793748985 9.585889527835967
    vertex 3.0 0.6143593539448973 9.2
    vertex 0.0 0.6143593539448973 9.2
  endloop
endfacet
facet normal 0.0 0.9238795325112867 0.38268343236508995
  outer loop
    vertex 3.0 0.6143593539448973 9.2
    vertex 0.0 0.45451867793748985 9.585889527835967
    vertex 3.0 0.45451867793748985 9.585889527835967
  endloop
endfacet
facet normal 0.0 0.9914448613738106 0.13052619222005113
  outer loop
    vertex 0.0 0.39999999999999925 10.0
    vertex 3.0 0.45451867793748985 9.585889527835967
    vertex 0.0 0.45451867793748985 9.585889527835967
  endloop
endfacet
facet normal 0.0 0.9914448613738106 0.13052619222005113
  outer loop
    vertex 3.0 0.45451867793748985 9.585889527835967
    vertex 0.0 0.39999999999999925 10.0
    vertex 3.0 0.39999999999999925 10.0
  endloop
endfacet
facet normal -0.0 0.9914448613738104 -0.13052619222005196
  outer loop
    vertex 0.0 0.4545186779374902 10.414110472164033
    vertex 3.0 0.39999999999999925 10.0
    vertex 0.0 0.39999999999999925 10.0
  endloop
endfacet
facet normal -0.0 0.9914448613738104 -0.13052619222005196
  outer loop
    vertex 3.0 0.39999999999999925 10.0
    vertex 0.0 0.4545186779374902 10.414110472164033
    vertex 3.0 0.4545186779374902 10.414110472164033
  endloop
endfacet
facet normal -0.0 0.9238795325112872 -0.38268343236508917
  outer loop
    vertex 0.0 0.6143593539448978 10.8
    vertex 3.0 0.4545186779374902 10.414110472164033
    vertex 0.0 0.4545186779374902 10.414110472164033
  endloop
endfacet
facet normal -0.0 0.9238795325112872 -0.38268343236508917
  outer loop
    vertex 3.0 0.4545186779374902 10.414110472164033
    vertex 0.0 0.6143593539448978 10.8
    vertex 3.0 0.6143593539448978 10.8
  endloop
endfacet
endsolid Втулка разрезная 12мм
