solid Переходник-Шаговый-6mm
facet normal 0.0 0.0 -1.0
  outer loop
    vertex -1.811733315717642 6.761480784023479 0.0
    vertex -3.0 5.510910596163089e-16 0.0
    vertex -3.499999999999995 6.062177826491073 0.0
  endloop
endfacet
facet normal 0.0 0.0 -1.0
  outer loop
    vertex -3.0 5.510910596163089e-16 0.0
    vertex -1.811733315717642 6.761480784023479 0.0
    vertex -2.77163859753386 1.1480502970952708 0.0
  endloop
endfacet
facet normal 0.0 0.0 -1.0
  outer loop
    vertex -2.77163859753386 1.1480502970952708 0.0
    vertex -1.811733315717642 6.761480784023479 0.0
    vertex -2.1213203435596424 2.121320343559643 0.0
  endloop
endfacet
facet normal 0.0 0.0 -1.0
  outer loop
    vertex -2.1213203435596424 2.121320343559643 0.0
    vertex -1.811733315717642 6.761480784023479 0.0
    vertex -1.1480502970952688 2.77163859753386 0.0
  endloop
endfacet
facet normal 0.0 0.0 -1.0
  outer loop
    vertex -1.1480502970952688 2.77163859753386 0.0
    vertex -1.811733315717642 6.761480784023479 0.0
    vertex 1.2858791391047208e-15 7.0 0.0
  endloop
endfacet
facet normal 0.0 0.0 -1.0
  outer loop
    vertex -1.1480502970952688 2.77163859753386 0.0
    vertex 1.2858791391047208e-15 7.0 0.0
    vertex 3.67394039744206e-16 3.0 0.0
  endloop
endfacet
facet normal 0.0 0.0 -1.0
  outer loop
    vertex 3.67394039744206e-16 3.0 0.0
    vertex 1.2858791391047208e-15 7.0 0.0
    vertex 1.1480502970952697 2.77163859753386 0.0
  endloop
endfacet
facet normal 0.0 0.0 -1.0
  outer loop
    vertex 1.1480502970952697 2.77163859753386 0.0
    vertex 1.2858791391047208e-15 7.0 0.0
    vertex 1.8117333157176505 6.761480784023476 0.0
  endloop
endfacet
facet normal 0.0 0.0 -1.0
  outer loop
    vertex 1.1480502970952697 2.77163859753386 0.0
    vertex 1.8117333157176505 6.761480784023476 0.0
    vertex 2.121320343559643 2.1213203435596424 0.0
  endloop
endfacet
facet normal 0.0 0.0 -1.0
  outer loop
    vertex 2.121320343559643 2.1213203435596424 0.0
    vertex 1.8117333157176505 6.761480784023476 0.0
    vertex 3.5000000000000027 6.062177826491069 0.0
  endloop
endfacet
facet normal 0.0 0.0 -1.0
  outer loop
    vertex 2.121320343559643 2.1213203435596424 0.0
    vertex 3.5000000000000027 6.062177826491069 0.0
    vertex 2.77163859753386 1.148050297095269 0.0
  endloop
endfacet
facet normal 0.0 0.0 -1.0
  outer loop
    vertex 2.77163859753386 1.148050297095269 0.0
    vertex 3.5000000000000027 6.062177826491069 0.0
    vertex 3.0 -1.8369701987210297e-16 0.0
  endloop
endfacet
facet normal 0.0 0.0 -1.0
  outer loop
    vertex 3.0 -1.8369701987210297e-16 0.0
    vertex 3.5000000000000027 6.062177826491069 0.0
    vertex 3.4999999999999987 -6.06217782649107 0.0
  endloop
endfacet
facet normal 0.0 0.0 -1.0
  outer loop
    vertex 3.4999999999999987 -6.06217782649107 0.0
    vertex 3.5000000000000027 6.062177826491069 0.0
    vertex 4.949747468305833 -4.949747468305833 0.0
  endloop
endfacet
facet normal 0.0 0.0 -1.0
  outer loop
    vertex 4.949747468305833 -4.949747468305833 0.0
    vertex 3.5000000000000027 6.062177826491069 0.0
    vertex 4.949747468305835 4.949747468305829 0.0
  endloop
endfacet
facet normal 0.0 0.0 -1.0
  outer loop
    vertex 4.949747468305833 -4.949747468305833 0.0
    vertex 4.949747468305835 4.949747468305829 0.0
    vertex 6.0621778264910695 -3.500000000000002 0.0
  endloop
endfacet
facet normal 0.0 0.0 -1.0
  outer loop
    vertex 6.0621778264910695 -3.500000000000002 0.0
    vertex 4.949747468305835 4.949747468305829 0.0
    vertex 6.062177826491071 3.499999999999998 0.0
  endloop
endfacet
facet normal 0.0 0.0 -1.0
  outer loop
    vertex 6.0621778264910695 -3.500000000000002 0.0
    vertex 6.062177826491071 3.499999999999998 0.0
    vertex 6.761480784023478 -1.811733315717647 0.0
  endloop
endfacet
facet normal 0.0 0.0 -1.0
  outer loop
    vertex 6.761480784023478 -1.811733315717647 0.0
    vertex 6.062177826491071 3.499999999999998 0.0
    vertex 6.761480784023479 1.8117333157176425 0.0
  endloop
endfacet
facet normal 0.0 0.0 -1.0
  outer loop
    vertex 6.761480784023478 -1.811733315717647 0.0
    vertex 6.761480784023479 1.8117333157176425 0.0
    vertex 7.0 -8.572527594031472e-16 0.0
  endloop
endfacet
facet normal 0.0 0.0 -1.0
  outer loop
    vertex -6.761480784023476 1.811733315717651 0.0
    vertex -6.761480784023478 -1.8117333157176452 0.0
    vertex -7.0 0.0 0.0
  endloop
endfacet
facet normal 0.0 0.0 -1.0
  outer loop
    vertex -6.761480784023478 -1.8117333157176452 0.0
    vertex -6.761480784023476 1.811733315717651 0.0
    vertex -6.06217782649107 -3.499999999999999 0.0
  endloop
endfacet
facet normal 0.0 0.0 -1.0
  outer loop
    vertex -6.06217782649107 -3.499999999999999 0.0
    vertex -6.761480784023476 1.811733315717651 0.0
    vertex -6.062177826491069 3.5000000000000027 0.0
  endloop
endfacet
facet normal 0.0 0.0 -1.0
  outer loop
    vertex -6.06217782649107 -3.499999999999999 0.0
    vertex -6.062177826491069 3.5000000000000027 0.0
    vertex -4.949747468305833 -4.949747468305833 0.0
  endloop
endfacet
facet normal 0.0 0.0 -1.0
  outer loop
    vertex -4.949747468305833 -4.949747468305833 0.0
    vertex -6.062177826491069 3.5000000000000027 0.0
    vertex -4.949747468305832 4.949747468305834 0.0
  endloop
endfacet
facet normal 0.0 0.0 -1.0
  outer loop
    vertex -4.949747468305833 -4.949747468305833 0.0
    vertex -4.949747468305832 4.949747468305834 0.0
    vertex -3.5000000000000004 -6.06217782649107 0.0
  endloop
endfacet
facet normal 0.0 0.0 -1.0
  outer loop
    vertex -3.5000000000000004 -6.06217782649107 0.0
    vertex -4.949747468305832 4.949747468305834 0.0
    vertex -3.499999999999995 6.062177826491073 0.0
  endloop
endfacet
facet normal 0.0 0.0 -1.0
  outer loop
    vertex -3.5000000000000004 -6.06217782649107 0.0
    vertex -3.499999999999995 6.062177826491073 0.0
    vertex -3.0 5.510910596163089e-16 0.0
  endloop
endfacet
facet normal 0.0 0.0 -1.0
  outer loop
    vertex -3.5000000000000004 -6.06217782649107 0.0
    vertex -3.0 5.510910596163089e-16 0.0
    vertex -1.8117333157176467 -6.761480784023478 0.0
  endloop
endfacet
facet normal 0.0 0.0 -1.0
  outer loop
    vertex -1.8117333157176467 -6.761480784023478 0.0
    vertex -3.0 5.510910596163089e-16 0.0
    vertex -2.77163859753386 -1.1480502970952697 0.0
  endloop
endfacet
facet normal 0.0 0.0 -1.0
  outer loop
    vertex -1.8117333157176467 -6.761480784023478 0.0
    vertex -2.77163859753386 -1.1480502970952697 0.0
    vertex -2.1213203435596433 -2.121320343559642 0.0
  endloop
endfacet
facet normal 0.0 0.0 -1.0
  outer loop
    vertex -1.8117333157176467 -6.761480784023478 0.0
    vertex -2.1213203435596433 -2.121320343559642 0.0
    vertex -1.1480502970952713 -2.7716385975338595 0.0
  endloop
endfacet
facet normal 0.0 0.0 -1.0
  outer loop
    vertex -1.8117333157176467 -6.761480784023478 0.0
    vertex -1.1480502970952713 -2.7716385975338595 0.0
    vertex -4.286263797015736e-16 -7.0 0.0
  endloop
endfacet
facet normal 0.0 0.0 -1.0
  outer loop
    vertex -4.286263797015736e-16 -7.0 0.0
    vertex -1.1480502970952713 -2.7716385975338595 0.0
    vertex 0.0 -3.0 0.0
  endloop
endfacet
facet normal 0.0 0.0 -1.0
  outer loop
    vertex -4.286263797015736e-16 -7.0 0.0
    vertex 0.0 -3.0 0.0
    vertex 1.8117333157176443 -6.761480784023478 0.0
  endloop
endfacet
facet normal 0.0 0.0 -1.0
  outer loop
    vertex 1.8117333157176443 -6.761480784023478 0.0
    vertex 0.0 -3.0 0.0
    vertex 1.1480502970952695 -2.77163859753386 0.0
  endloop
endfacet
facet normal 0.0 0.0 -1.0
  outer loop
    vertex 1.8117333157176443 -6.761480784023478 0.0
    vertex 1.1480502970952695 -2.77163859753386 0.0
    vertex 2.1213203435596424 -2.1213203435596424 0.0
  endloop
endfacet
facet normal 0.0 0.0 -1.0
  outer loop
    vertex 1.8117333157176443 -6.761480784023478 0.0
    vertex 2.1213203435596424 -2.1213203435596424 0.0
    vertex 3.4999999999999987 -6.06217782649107 0.0
  endloop
endfacet
facet normal 0.0 0.0 -1.0
  outer loop
    vertex 3.4999999999999987 -6.06217782649107 0.0
    vertex 2.1213203435596424 -2.1213203435596424 0.0
    vertex 2.77163859753386 -1.1480502970952695 0.0
  endloop
endfacet
facet normal 0.0 0.0 -1.0
  outer loop
    vertex 3.4999999999999987 -6.06217782649107 0.0
    vertex 2.77163859753386 -1.1480502970952695 0.0
    vertex 3.0 -1.8369701987210297e-16 0.0
  endloop
endfacet
facet normal -0.0 -0.0 1.0
  outer loop
    vertex -6.761480784023478 -1.8117333157176452 20.0
    vertex -6.761480784023476 1.811733315717651 20.0
    vertex -7.0 0.0 20.0
  endloop
endfacet
facet normal -0.0 -0.0 1.0
  outer loop
    vertex -6.761480784023476 1.811733315717651 20.0
    vertex -6.761480784023478 -1.8117333157176452 20.0
    vertex -6.06217782649107 -3.499999999999999 20.0
  endloop
endfacet
facet normal -0.0 -0.0 1.0
  outer loop
    vertex -6.761480784023476 1.811733315717651 20.0
    vertex -6.06217782649107 -3.499999999999999 20.0
    vertex -6.062177826491069 3.5000000000000027 20.0
  endloop
endfacet
facet normal -0.0 -0.0 1.0
  outer loop
    vertex -6.062177826491069 3.5000000000000027 20.0
    vertex -6.06217782649107 -3.499999999999999 20.0
    vertex -4.949747468305833 -4.949747468305833 20.0
  endloop
endfacet
facet normal -0.0 -0.0 1.0
  outer loop
    vertex -6.062177826491069 3.5000000000000027 20.0
    vertex -4.949747468305833 -4.949747468305833 20.0
    vertex -4.949747468305832 4.949747468305834 20.0
  endloop
endfacet
facet normal -0.0 -0.0 1.0
  outer loop
    vertex -4.949747468305832 4.949747468305834 20.0
    vertex -4.949747468305833 -4.949747468305833 20.0
    vertex -3.5000000000000004 -6.06217782649107 20.0
  endloop
endfacet
facet normal -0.0 -0.0 1.0
  outer loop
    vertex -4.949747468305832 4.949747468305834 20.0
    vertex -3.5000000000000004 -6.06217782649107 20.0
    vertex -3.499999999999995 6.062177826491073 20.0
  endloop
endfacet
facet normal -0.0 -0.0 1.0
  outer loop
    vertex -3.499999999999995 6.062177826491073 20.0
    vertex -3.5000000000000004 -6.06217782649107 20.0
    vertex -2.7999999999999994 0.0 20.0
  endloop
endfacet
facet normal -0.0 -0.0 1.0
  outer loop
    vertex -2.7999999999999994 0.0 20.0
    vertex -3.5000000000000004 -6.06217782649107 20.0
    vertex -1.8117333157176467 -6.761480784023478 20.0
  endloop
endfacet
facet normal -0.0 -0.0 1.0
  outer loop
    vertex -2.7999999999999994 0.0 20.0
    vertex -1.8117333157176467 -6.761480784023478 20.0
    vertex -2.5868626910316026 -1.0715136106222514 20.0
  endloop
endfacet
facet normal -0.0 -0.0 1.0
  outer loop
    vertex -2.5868626910316026 -1.0715136106222514 20.0
    vertex -1.8117333157176467 -6.761480784023478 20.0
    vertex -1.9798989873223327 -1.9798989873223325 20.0
  endloop
endfacet
facet normal -0.0 -0.0 1.0
  outer loop
    vertex -1.9798989873223327 -1.9798989873223325 20.0
    vertex -1.8117333157176467 -6.761480784023478 20.0
    vertex -1.0715136106222514 -2.5868626910316026 20.0
  endloop
endfacet
facet normal -0.0 -0.0 1.0
  outer loop
    vertex -1.0715136106222514 -2.5868626910316026 20.0
    vertex -1.8117333157176467 -6.761480784023478 20.0
    vertex -4.286263797015736e-16 -7.0 20.0
  endloop
endfacet
facet normal -0.0 -0.0 1.0
  outer loop
    vertex -1.0715136106222514 -2.5868626910316026 20.0
    vertex -4.286263797015736e-16 -7.0 20.0
    vertex -1.7145055188062941e-16 -2.7999999999999994 20.0
  endloop
endfacet
facet normal -0.0 -0.0 1.0
  outer loop
    vertex -1.7145055188062941e-16 -2.7999999999999994 20.0
    vertex -4.286263797015736e-16 -7.0 20.0
    vertex 1.8117333157176443 -6.761480784023478 20.0
  endloop
endfacet
facet normal -0.0 -0.0 1.0
  outer loop
    vertex -1.7145055188062941e-16 -2.7999999999999994 20.0
    vertex 1.8117333157176443 -6.761480784023478 20.0
    vertex 1.0715136106222511 -2.5868626910316026 20.0
  endloop
endfacet
facet normal -0.0 -0.0 1.0
  outer loop
    vertex 1.0715136106222511 -2.5868626910316026 20.0
    vertex 1.8117333157176443 -6.761480784023478 20.0
    vertex 1.9798989873223325 -1.9798989873223327 20.0
  endloop
endfacet
facet normal -0.0 -0.0 1.0
  outer loop
    vertex 1.9798989873223325 -1.9798989873223327 20.0
    vertex 1.8117333157176443 -6.761480784023478 20.0
    vertex 3.4999999999999987 -6.06217782649107 20.0
  endloop
endfacet
facet normal -0.0 -0.0 1.0
  outer loop
    vertex 1.9798989873223325 -1.9798989873223327 20.0
    vertex 3.4999999999999987 -6.06217782649107 20.0
    vertex 1.9798989873223332 1.9798989873223325 20.0
  endloop
endfacet
facet normal -0.0 -0.0 1.0
  outer loop
    vertex -2.7999999999999994 0.0 20.0
    vertex -1.811733315717642 6.761480784023479 20.0
    vertex -3.499999999999995 6.062177826491073 20.0
  endloop
endfacet
facet normal -0.0 -0.0 1.0
  outer loop
    vertex -1.811733315717642 6.761480784023479 20.0
    vertex -2.7999999999999994 0.0 20.0
    vertex -2.5868626910316017 1.071513610622253 20.0
  endloop
endfacet
facet normal -0.0 -0.0 1.0
  outer loop
    vertex -1.811733315717642 6.761480784023479 20.0
    vertex -2.5868626910316017 1.071513610622253 20.0
    vertex -1.979898987322332 1.9798989873223332 20.0
  endloop
endfacet
facet normal -0.0 -0.0 1.0
  outer loop
    vertex -1.811733315717642 6.761480784023479 20.0
    vertex -1.979898987322332 1.9798989873223332 20.0
    vertex -1.0715136106222518 2.586862691031602 20.0
  endloop
endfacet
facet normal -0.0 -0.0 1.0
  outer loop
    vertex -1.811733315717642 6.761480784023479 20.0
    vertex -1.0715136106222518 2.586862691031602 20.0
    vertex 1.2858791391047208e-15 7.0 20.0
  endloop
endfacet
facet normal -0.0 -0.0 1.0
  outer loop
    vertex 1.2858791391047208e-15 7.0 20.0
    vertex -1.0715136106222518 2.586862691031602 20.0
    vertex 5.143516556418882e-16 2.7999999999999994 20.0
  endloop
endfacet
facet normal -0.0 -0.0 1.0
  outer loop
    vertex 1.2858791391047208e-15 7.0 20.0
    vertex 5.143516556418882e-16 2.7999999999999994 20.0
    vertex 1.0715136106222527 2.5868626910316017 20.0
  endloop
endfacet
facet normal -0.0 -0.0 1.0
  outer loop
    vertex 1.2858791391047208e-15 7.0 20.0
    vertex 1.0715136106222527 2.5868626910316017 20.0
    vertex 1.8117333157176505 6.761480784023476 20.0
  endloop
endfacet
facet normal -0.0 -0.0 1.0
  outer loop
    vertex 1.8117333157176505 6.761480784023476 20.0
    vertex 1.0715136106222527 2.5868626910316017 20.0
    vertex 1.9798989873223332 1.9798989873223325 20.0
  endloop
endfacet
facet normal -0.0 -0.0 1.0
  outer loop
    vertex 1.8117333157176505 6.761480784023476 20.0
    vertex 1.9798989873223332 1.9798989873223325 20.0
    vertex 3.5000000000000027 6.062177826491069 20.0
  endloop
endfacet
facet normal -0.0 -0.0 1.0
  outer loop
    vertex 3.5000000000000027 6.062177826491069 20.0
    vertex 1.9798989873223332 1.9798989873223325 20.0
    vertex 3.4999999999999987 -6.06217782649107 20.0
  endloop
endfacet
facet normal -0.0 -0.0 1.0
  outer loop
    vertex 3.5000000000000027 6.062177826491069 20.0
    vertex 3.4999999999999987 -6.06217782649107 20.0
    vertex 4.949747468305833 -4.949747468305833 20.0
  endloop
endfacet
facet normal -0.0 -0.0 1.0
  outer loop
    vertex 3.5000000000000027 6.062177826491069 20.0
    vertex 4.949747468305833 -4.949747468305833 20.0
    vertex 4.949747468305835 4.949747468305829 20.0
  endloop
endfacet
facet normal -0.0 -0.0 1.0
  outer loop
    vertex 4.949747468305835 4.949747468305829 20.0
    vertex 4.949747468305833 -4.949747468305833 20.0
    vertex 6.0621778264910695 -3.500000000000002 20.0
  endloop
endfacet
facet normal -0.0 -0.0 1.0
  outer loop
    vertex 4.949747468305835 4.949747468305829 20.0
    vertex 6.0621778264910695 -3.500000000000002 20.0
    vertex 6.062177826491071 3.499999999999998 20.0
  endloop
endfacet
facet normal -0.0 -0.0 1.0
  outer loop
    vertex 6.062177826491071 3.499999999999998 20.0
    vertex 6.0621778264910695 -3.500000000000002 20.0
    vertex 6.761480784023478 -1.811733315717647 20.0
  endloop
endfacet
facet normal -0.0 -0.0 1.0
  outer loop
    vertex 6.062177826491071 3.499999999999998 20.0
    vertex 6.761480784023478 -1.811733315717647 20.0
    vertex 6.761480784023479 1.8117333157176425 20.0
  endloop
endfacet
facet normal -0.0 -0.0 1.0
  outer loop
    vertex 6.761480784023479 1.8117333157176425 20.0
    vertex 6.761480784023478 -1.811733315717647 20.0
    vertex 7.0 -8.572527594031472e-16 20.0
  endloop
endfacet
facet normal 0.13052619222005224 0.9914448613738104 0.0
  outer loop
    vertex 1.2858791391047208e-15 7.0 20.0
    vertex 1.8117333157176505 6.761480784023476 0.0
    vertex 1.2858791391047208e-15 7.0 0.0
  endloop
endfacet
facet normal 0.13052619222005224 0.9914448613738104 0.0
  outer loop
    vertex 1.8117333157176505 6.761480784023476 0.0
    vertex 1.2858791391047208e-15 7.0 20.0
    vertex 1.8117333157176505 6.761480784023476 20.0
  endloop
endfacet
facet normal 0.38268343236509034 0.9238795325112865 0.0
  outer loop
    vertex 1.8117333157176505 6.761480784023476 20.0
    vertex 3.5000000000000027 6.062177826491069 0.0
    vertex 1.8117333157176505 6.761480784023476 0.0
  endloop
endfacet
facet normal 0.38268343236509034 0.9238795325112865 0.0
  outer loop
    vertex 3.5000000000000027 6.062177826491069 0.0
    vertex 1.8117333157176505 6.761480784023476 20.0
    vertex 3.5000000000000027 6.062177826491069 20.0
  endloop
endfacet
facet normal 0.6087614290087211 0.7933533402912348 0.0
  outer loop
    vertex 3.5000000000000027 6.062177826491069 20.0
    vertex 4.949747468305835 4.949747468305829 0.0
    vertex 3.5000000000000027 6.062177826491069 0.0
  endloop
endfacet
facet normal 0.6087614290087211 0.7933533402912348 0.0
  outer loop
    vertex 4.949747468305835 4.949747468305829 0.0
    vertex 3.5000000000000027 6.062177826491069 20.0
    vertex 4.949747468305835 4.949747468305829 20.0
  endloop
endfacet
facet normal 0.7933533402912354 0.6087614290087203 0.0
  outer loop
    vertex 4.949747468305835 4.949747468305829 0.0
    vertex 6.062177826491071 3.499999999999998 20.0
    vertex 6.062177826491071 3.499999999999998 0.0
  endloop
endfacet
facet normal 0.7933533402912354 0.6087614290087203 0.0
  outer loop
    vertex 6.062177826491071 3.499999999999998 20.0
    vertex 4.949747468305835 4.949747468305829 0.0
    vertex 4.949747468305835 4.949747468305829 20.0
  endloop
endfacet
facet normal 0.9238795325112868 0.3826834323650898 0.0
  outer loop
    vertex 6.062177826491071 3.499999999999998 0.0
    vertex 6.761480784023479 1.8117333157176425 20.0
    vertex 6.761480784023479 1.8117333157176425 0.0
  endloop
endfacet
facet normal 0.9238795325112868 0.3826834323650898 0.0
  outer loop
    vertex 6.761480784023479 1.8117333157176425 20.0
    vertex 6.062177826491071 3.499999999999998 0.0
    vertex 6.062177826491071 3.499999999999998 20.0
  endloop
endfacet
facet normal 0.9238795325112867 -0.3826834323650901 0.0
  outer loop
    vertex 6.761480784023478 -1.811733315717647 0.0
    vertex 6.0621778264910695 -3.500000000000002 20.0
    vertex 6.0621778264910695 -3.500000000000002 0.0
  endloop
endfacet
facet normal 0.9238795325112867 -0.3826834323650901 0.0
  outer loop
    vertex 6.0621778264910695 -3.500000000000002 20.0
    vertex 6.761480784023478 -1.811733315717647 0.0
    vertex 6.761480784023478 -1.811733315717647 20.0
  endloop
endfacet
facet normal 0.793353340291235 -0.6087614290087208 0.0
  outer loop
    vertex 6.0621778264910695 -3.500000000000002 0.0
    vertex 4.949747468305833 -4.949747468305833 20.0
    vertex 4.949747468305833 -4.949747468305833 0.0
  endloop
endfacet
facet normal 0.793353340291235 -0.6087614290087208 0.0
  outer loop
    vertex 4.949747468305833 -4.949747468305833 20.0
    vertex 6.0621778264910695 -3.500000000000002 0.0
    vertex 6.0621778264910695 -3.500000000000002 20.0
  endloop
endfacet
facet normal 0.6087614290087203 -0.7933533402912356 0.0
  outer loop
    vertex 4.949747468305833 -4.949747468305833 20.0
    vertex 3.4999999999999987 -6.06217782649107 0.0
    vertex 4.949747468305833 -4.949747468305833 0.0
  endloop
endfacet
facet normal 0.6087614290087203 -0.7933533402912356 0.0
  outer loop
    vertex 3.4999999999999987 -6.06217782649107 0.0
    vertex 4.949747468305833 -4.949747468305833 20.0
    vertex 3.4999999999999987 -6.06217782649107 20.0
  endloop
endfacet
facet normal 0.38268343236508967 -0.923879532511287 0.0
  outer loop
    vertex 3.4999999999999987 -6.06217782649107 20.0
    vertex 1.8117333157176443 -6.761480784023478 0.0
    vertex 3.4999999999999987 -6.06217782649107 0.0
  endloop
endfacet
facet normal 0.38268343236508967 -0.923879532511287 0.0
  outer loop
    vertex 1.8117333157176443 -6.761480784023478 0.0
    vertex 3.4999999999999987 -6.06217782649107 20.0
    vertex 1.8117333157176443 -6.761480784023478 20.0
  endloop
endfacet
facet normal 0.1305261922200518 -0.9914448613738105 0.0
  outer loop
    vertex 1.8117333157176443 -6.761480784023478 20.0
    vertex -4.286263797015736e-16 -7.0 0.0
    vertex 1.8117333157176443 -6.761480784023478 0.0
  endloop
endfacet
facet normal 0.1305261922200518 -0.9914448613738105 0.0
  outer loop
    vertex -4.286263797015736e-16 -7.0 0.0
    vertex 1.8117333157176443 -6.761480784023478 20.0
    vertex -4.286263797015736e-16 -7.0 20.0
  endloop
endfacet
facet normal -0.13052619222005168 -0.9914448613738104 -0.0
  outer loop
    vertex -4.286263797015736e-16 -7.0 20.0
    vertex -1.8117333157176467 -6.761480784023478 0.0
    vertex -4.286263797015736e-16 -7.0 0.0
  endloop
endfacet
facet normal -0.13052619222005168 -0.9914448613738104 -0.0
  outer loop
    vertex -1.8117333157176467 -6.761480784023478 0.0
    vertex -4.286263797015736e-16 -7.0 20.0
    vertex -1.8117333157176467 -6.761480784023478 20.0
  endloop
endfacet
facet normal -0.38268343236509006 -0.9238795325112868 -0.0
  outer loop
    vertex -1.8117333157176467 -6.761480784023478 20.0
    vertex -3.5000000000000004 -6.06217782649107 0.0
    vertex -1.8117333157176467 -6.761480784023478 0.0
  endloop
endfacet
facet normal -0.38268343236509006 -0.9238795325112868 -0.0
  outer loop
    vertex -3.5000000000000004 -6.06217782649107 0.0
    vertex -1.8117333157176467 -6.761480784023478 20.0
    vertex -3.5000000000000004 -6.06217782649107 20.0
  endloop
endfacet
facet normal -0.6087614290087207 -0.7933533402912353 -0.0
  outer loop
    vertex -3.5000000000000004 -6.06217782649107 20.0
    vertex -4.949747468305833 -4.949747468305833 0.0
    vertex -3.5000000000000004 -6.06217782649107 0.0
  endloop
endfacet
facet normal -0.6087614290087207 -0.7933533402912353 -0.0
  outer loop
    vertex -4.949747468305833 -4.949747468305833 0.0
    vertex -3.5000000000000004 -6.06217782649107 20.0
    vertex -4.949747468305833 -4.949747468305833 20.0
  endloop
endfacet
facet normal -0.7933533402912353 -0.6087614290087204 -0.0
  outer loop
    vertex -6.06217782649107 -3.499999999999999 20.0
    vertex -4.949747468305833 -4.949747468305833 0.0
    vertex -4.949747468305833 -4.949747468305833 20.0
  endloop
endfacet
facet normal -0.7933533402912353 -0.6087614290087204 -0.0
  outer loop
    vertex -4.949747468305833 -4.949747468305833 0.0
    vertex -6.06217782649107 -3.499999999999999 20.0
    vertex -6.06217782649107 -3.499999999999999 0.0
  endloop
endfacet
facet normal -0.9238795325112868 -0.38268343236508967 -0.0
  outer loop
    vertex -6.761480784023478 -1.8117333157176452 20.0
    vertex -6.06217782649107 -3.499999999999999 0.0
    vertex -6.06217782649107 -3.499999999999999 20.0
  endloop
endfacet
facet normal -0.9238795325112868 -0.38268343236508967 -0.0
  outer loop
    vertex -6.06217782649107 -3.499999999999999 0.0
    vertex -6.761480784023478 -1.8117333157176452 20.0
    vertex -6.761480784023478 -1.8117333157176452 0.0
  endloop
endfacet
facet normal -0.9914448613738105 -0.13052619222005177 -0.0
  outer loop
    vertex -7.0 0.0 20.0
    vertex -6.761480784023478 -1.8117333157176452 0.0
    vertex -6.761480784023478 -1.8117333157176452 20.0
  endloop
endfacet
facet normal -0.9914448613738105 -0.13052619222005177 -0.0
  outer loop
    vertex -6.761480784023478 -1.8117333157176452 0.0
    vertex -7.0 0.0 20.0
    vertex -7.0 0.0 0.0
  endloop
endfacet
facet normal -0.9914448613738105 0.13052619222005213 0.0
  outer loop
    vertex -6.761480784023476 1.811733315717651 20.0
    vertex -7.0 0.0 0.0
    vertex -7.0 0.0 20.0
  endloop
endfacet
facet normal -0.9914448613738105 0.13052619222005213 0.0
  outer loop
    vertex -7.0 0.0 0.0
    vertex -6.761480784023476 1.811733315717651 20.0
    vertex -6.761480784023476 1.811733315717651 0.0
  endloop
endfacet
facet normal -0.9238795325112865 0.3826834323650904 0.0
  outer loop
    vertex -6.062177826491069 3.5000000000000027 20.0
    vertex -6.761480784023476 1.811733315717651 0.0
    vertex -6.761480784023476 1.811733315717651 20.0
  endloop
endfacet
facet normal -0.9238795325112865 0.3826834323650904 0.0
  outer loop
    vertex -6.761480784023476 1.811733315717651 0.0
    vertex -6.062177826491069 3.5000000000000027 20.0
    vertex -6.062177826491069 3.5000000000000027 0.0
  endloop
endfacet
facet normal -0.793353340291235 0.6087614290087208 0.0
  outer loop
    vertex -4.949747468305832 4.949747468305834 20.0
    vertex -6.062177826491069 3.5000000000000027 0.0
    vertex -6.062177826491069 3.5000000000000027 20.0
  endloop
endfacet
facet normal -0.793353340291235 0.6087614290087208 0.0
  outer loop
    vertex -6.062177826491069 3.5000000000000027 0.0
    vertex -4.949747468305832 4.949747468305834 20.0
    vertex -4.949747468305832 4.949747468305834 0.0
  endloop
endfacet
facet normal -0.6087614290087203 0.7933533402912356 0.0
  outer loop
    vertex -4.949747468305832 4.949747468305834 20.0
    vertex -3.499999999999995 6.062177826491073 0.0
    vertex -4.949747468305832 4.949747468305834 0.0
  endloop
endfacet
facet normal -0.6087614290087203 0.7933533402912356 0.0
  outer loop
    vertex -3.499999999999995 6.062177826491073 0.0
    vertex -4.949747468305832 4.949747468305834 20.0
    vertex -3.499999999999995 6.062177826491073 20.0
  endloop
endfacet
facet normal -0.38268343236508917 0.923879532511287 0.0
  outer loop
    vertex -3.499999999999995 6.062177826491073 20.0
    vertex -1.811733315717642 6.761480784023479 0.0
    vertex -3.499999999999995 6.062177826491073 0.0
  endloop
endfacet
facet normal -0.38268343236508917 0.923879532511287 0.0
  outer loop
    vertex -1.811733315717642 6.761480784023479 0.0
    vertex -3.499999999999995 6.062177826491073 20.0
    vertex -1.811733315717642 6.761480784023479 20.0
  endloop
endfacet
facet normal -0.13052619222005113 0.9914448613738106 0.0
  outer loop
    vertex -1.811733315717642 6.761480784023479 20.0
    vertex 1.2858791391047208e-15 7.0 0.0
    vertex -1.811733315717642 6.761480784023479 0.0
  endloop
endfacet
facet normal -0.13052619222005113 0.9914448613738106 0.0
  outer loop
    vertex 1.2858791391047208e-15 7.0 0.0
    vertex -1.811733315717642 6.761480784023479 20.0
    vertex 1.2858791391047208e-15 7.0 20.0
  endloop
endfacet
facet normal 0.9807852804032305 0.19509032201612816 0.0
  outer loop
    vertex -2.7999999999999994 0.0 5.0000000000000036
    vertex -2.5868626910316026 -1.0715136106222514 20.0
    vertex -2.5868626910316026 -1.0715136106222514 5.0000000000000036
  endloop
endfacet
facet normal 0.9807852804032305 0.19509032201612816 0.0
  outer loop
    vertex -2.5868626910316026 -1.0715136106222514 20.0
    vertex -2.7999999999999994 0.0 5.0000000000000036
    vertex -2.7999999999999994 0.0 20.0
  endloop
endfacet
facet normal 0.9807852804032304 -0.1950903220161285 -0.0
  outer loop
    vertex -2.5868626910316017 1.071513610622253 5.0000000000000036
    vertex -2.7999999999999994 0.0 20.0
    vertex -2.7999999999999994 0.0 5.0000000000000036
  endloop
endfacet
facet normal 0.9807852804032304 -0.1950903220161285 -0.0
  outer loop
    vertex -2.7999999999999994 0.0 20.0
    vertex -2.5868626910316017 1.071513610622253 5.0000000000000036
    vertex -2.5868626910316017 1.071513610622253 20.0
  endloop
endfacet
facet normal 0.831469612302545 -0.5555702330196028 -0.0
  outer loop
    vertex -1.979898987322332 1.9798989873223332 5.0000000000000036
    vertex -2.5868626910316017 1.071513610622253 20.0
    vertex -2.5868626910316017 1.071513610622253 5.0000000000000036
  endloop
endfacet
facet normal 0.831469612302545 -0.5555702330196028 -0.0
  outer loop
    vertex -2.5868626910316017 1.071513610622253 20.0
    vertex -1.979898987322332 1.9798989873223332 5.0000000000000036
    vertex -1.979898987322332 1.9798989873223332 20.0
  endloop
endfacet
facet normal 0.5555702330196024 -0.8314696123025453 -0.0
  outer loop
    vertex -1.0715136106222518 2.586862691031602 20.0
    vertex -1.979898987322332 1.9798989873223332 5.0000000000000036
    vertex -1.0715136106222518 2.586862691031602 5.0000000000000036
  endloop
endfacet
facet normal 0.5555702330196024 -0.8314696123025453 -0.0
  outer loop
    vertex -1.979898987322332 1.9798989873223332 5.0000000000000036
    vertex -1.0715136106222518 2.586862691031602 20.0
    vertex -1.979898987322332 1.9798989873223332 20.0
  endloop
endfacet
facet normal 0.19509032201612828 -0.9807852804032304 -0.0
  outer loop
    vertex 5.143516556418882e-16 2.7999999999999994 20.0
    vertex -1.0715136106222518 2.586862691031602 5.0000000000000036
    vertex 5.143516556418882e-16 2.7999999999999994 5.0000000000000036
  endloop
endfacet
facet normal 0.19509032201612828 -0.9807852804032304 -0.0
  outer loop
    vertex -1.0715136106222518 2.586862691031602 5.0000000000000036
    vertex 5.143516556418882e-16 2.7999999999999994 20.0
    vertex -1.0715136106222518 2.586862691031602 20.0
  endloop
endfacet
facet normal -0.19509032201612858 -0.9807852804032303 -0.0
  outer loop
    vertex 1.0715136106222527 2.5868626910316017 20.0
    vertex 5.143516556418882e-16 2.7999999999999994 5.0000000000000036
    vertex 1.0715136106222527 2.5868626910316017 5.0000000000000036
  endloop
endfacet
facet normal -0.19509032201612858 -0.9807852804032303 -0.0
  outer loop
    vertex 5.143516556418882e-16 2.7999999999999994 5.0000000000000036
    vertex 1.0715136106222527 2.5868626910316017 20.0
    vertex 5.143516556418882e-16 2.7999999999999994 20.0
  endloop
endfacet
facet normal -0.5555702330196025 -0.8314696123025451 0.0
  outer loop
    vertex 1.9798989873223332 1.9798989873223325 20.0
    vertex 1.0715136106222527 2.5868626910316017 5.0000000000000036
    vertex 1.9798989873223332 1.9798989873223325 5.0000000000000036
  endloop
endfacet
facet normal -0.5555702330196025 -0.8314696123025451 0.0
  outer loop
    vertex 1.0715136106222527 2.5868626910316017 5.0000000000000036
    vertex 1.9798989873223332 1.9798989873223325 20.0
    vertex 1.0715136106222527 2.5868626910316017 20.0
  endloop
endfacet
facet normal -0.5555702330196024 0.8314696123025453 -0.0
  outer loop
    vertex 1.0715136106222511 -2.5868626910316026 20.0
    vertex 1.9798989873223325 -1.9798989873223327 5.0000000000000036
    vertex 1.0715136106222511 -2.5868626910316026 5.0000000000000036
  endloop
endfacet
facet normal -0.5555702330196024 0.8314696123025453 -0.0
  outer loop
    vertex 1.9798989873223325 -1.9798989873223327 5.0000000000000036
    vertex 1.0715136106222511 -2.5868626910316026 20.0
    vertex 1.9798989873223325 -1.9798989873223327 20.0
  endloop
endfacet
facet normal -0.19509032201612816 0.9807852804032305 -0.0
  outer loop
    vertex -1.7145055188062941e-16 -2.7999999999999994 20.0
    vertex 1.0715136106222511 -2.5868626910316026 5.0000000000000036
    vertex -1.7145055188062941e-16 -2.7999999999999994 5.0000000000000036
  endloop
endfacet
facet normal -0.19509032201612816 0.9807852804032305 -0.0
  outer loop
    vertex 1.0715136106222511 -2.5868626910316026 5.0000000000000036
    vertex -1.7145055188062941e-16 -2.7999999999999994 20.0
    vertex 1.0715136106222511 -2.5868626910316026 20.0
  endloop
endfacet
facet normal 0.1950903220161282 0.9807852804032305 0.0
  outer loop
    vertex -1.0715136106222514 -2.5868626910316026 20.0
    vertex -1.7145055188062941e-16 -2.7999999999999994 5.0000000000000036
    vertex -1.0715136106222514 -2.5868626910316026 5.0000000000000036
  endloop
endfacet
facet normal 0.1950903220161282 0.9807852804032305 0.0
  outer loop
    vertex -1.7145055188062941e-16 -2.7999999999999994 5.0000000000000036
    vertex -1.0715136106222514 -2.5868626910316026 20.0
    vertex -1.7145055188062941e-16 -2.7999999999999994 20.0
  endloop
endfacet
facet normal 0.5555702330196025 0.8314696123025451 0.0
  outer loop
    vertex -1.9798989873223327 -1.9798989873223325 20.0
    vertex -1.0715136106222514 -2.5868626910316026 5.0000000000000036
    vertex -1.9798989873223327 -1.9798989873223325 5.0000000000000036
  endloop
endfacet
facet normal 0.5555702330196025 0.8314696123025451 0.0
  outer loop
    vertex -1.0715136106222514 -2.5868626910316026 5.0000000000000036
    vertex -1.9798989873223327 -1.9798989873223325 20.0
    vertex -1.0715136106222514 -2.5868626910316026 20.0
  endloop
endfacet
facet normal 0.8314696123025451 0.5555702330196024 0.0
  outer loop
    vertex -2.5868626910316026 -1.0715136106222514 5.0000000000000036
    vertex -1.9798989873223327 -1.9798989873223325 20.0
    vertex -1.9798989873223327 -1.9798989873223325 5.0000000000000036
  endloop
endfacet
facet normal 0.8314696123025451 0.5555702330196024 0.0
  outer loop
    vertex -1.9798989873223327 -1.9798989873223325 20.0
    vertex -2.5868626910316026 -1.0715136106222514 5.0000000000000036
    vertex -2.5868626910316026 -1.0715136106222514 20.0
  endloop
endfacet
facet normal -1.0 1.7803726986860664e-16 0.0
  outer loop
    vertex 1.9798989873223325 -1.9798989873223327 20.0
    vertex 1.9798989873223325 -1.2000000000000002 10.0
    vertex 1.9798989873223325 -1.9798989873223327 5.0000000000000036
  endloop
endfacet
facet normal -1.0 1.7803726986860664e-16 0.0
  outer loop
    vertex 1.9798989873223325 -1.2000000000000002 10.0
    vertex 1.9798989873223325 -1.9798989873223327 20.0
    vertex 1.9798989873223332 1.9798989873223325 20.0
  endloop
endfacet
facet normal -1.0 1.7803726986860664e-16 0.0
  outer loop
    vertex 1.9798989873223325 -1.2000000000000002 10.0
    vertex 1.9798989873223332 1.9798989873223325 20.0
    vertex 1.9798989873223325 -0.970820393249937 10.705342302750967
  endloop
endfacet
facet normal -1.0 1.7803726986860664e-16 0.0
  outer loop
    vertex 1.9798989873223325 -0.970820393249937 10.705342302750967
    vertex 1.9798989873223332 1.9798989873223325 20.0
    vertex 1.9798989873223327 -0.37082039324993693 11.141267819554184
  endloop
endfacet
facet normal -1.0 1.7803726986860664e-16 0.0
  outer loop
    vertex 1.9798989873223327 -0.37082039324993693 11.141267819554184
    vertex 1.9798989873223332 1.9798989873223325 20.0
    vertex 1.9798989873223327 0.3708203932499367 11.141267819554184
  endloop
endfacet
facet normal -1.0 1.7803726986860664e-16 0.0
  outer loop
    vertex 1.9798989873223327 0.3708203932499367 11.141267819554184
    vertex 1.9798989873223332 1.9798989873223325 20.0
    vertex 1.9798989873223332 0.9708203932499366 10.705342302750967
  endloop
endfacet
facet normal -1.0 1.7803726986860664e-16 0.0
  outer loop
    vertex 1.9798989873223332 0.9708203932499366 10.705342302750967
    vertex 1.9798989873223332 1.9798989873223325 20.0
    vertex 1.9798989873223332 1.1999999999999997 10.0
  endloop
endfacet
facet normal -1.0 1.7803726986860664e-16 0.0
  outer loop
    vertex 1.9798989873223325 -1.9798989873223327 5.0000000000000036
    vertex 1.9798989873223325 -0.970820393249937 9.294657697249033
    vertex 1.9798989873223332 1.9798989873223325 5.0000000000000036
  endloop
endfacet
facet normal -1.0 1.7803726986860664e-16 0.0
  outer loop
    vertex 1.9798989873223325 -0.970820393249937 9.294657697249033
    vertex 1.9798989873223325 -1.9798989873223327 5.0000000000000036
    vertex 1.9798989873223325 -1.2000000000000002 10.0
  endloop
endfacet
facet normal -1.0 1.7803726986860664e-16 0.0
  outer loop
    vertex 1.9798989873223332 1.9798989873223325 5.0000000000000036
    vertex 1.9798989873223325 -0.970820393249937 9.294657697249033
    vertex 1.9798989873223327 -0.3708203932499372 8.858732180445816
  endloop
endfacet
facet normal -1.0 1.7803726986860664e-16 0.0
  outer loop
    vertex 1.9798989873223332 1.9798989873223325 5.0000000000000036
    vertex 1.9798989873223327 -0.3708203932499372 8.858732180445816
    vertex 1.9798989873223327 0.3708203932499365 8.858732180445816
  endloop
endfacet
facet normal -1.0 1.7803726986860664e-16 0.0
  outer loop
    vertex 1.9798989873223332 1.9798989873223325 5.0000000000000036
    vertex 1.9798989873223327 0.3708203932499365 8.858732180445816
    vertex 1.9798989873223332 0.9708203932499366 9.294657697249033
  endloop
endfacet
facet normal -1.0 1.7803726986860664e-16 0.0
  outer loop
    vertex 1.9798989873223332 1.9798989873223325 5.0000000000000036
    vertex 1.9798989873223332 0.9708203932499366 9.294657697249033
    vertex 1.9798989873223332 1.1999999999999997 10.0
  endloop
endfacet
facet normal -1.0 1.7803726986860664e-16 0.0
  outer loop
    vertex 1.9798989873223332 1.9798989873223325 5.0000000000000036
    vertex 1.9798989873223332 1.1999999999999997 10.0
    vertex 1.9798989873223332 1.9798989873223325 20.0
  endloop
endfacet
facet normal -3.6979806360400587e-16 -0.9510565162951536 0.30901699437494723
  outer loop
    vertex 6.872189070519868 0.9708203932499352 9.294657697249033
    vertex 1.9798989873223332 1.1999999999999997 10.0
    vertex 1.9798989873223332 0.9708203932499366 9.294657697249033
  endloop
endfacet
facet normal -3.6979806360400587e-16 -0.9510565162951536 0.30901699437494723
  outer loop
    vertex 1.9798989873223332 1.1999999999999997 10.0
    vertex 6.872189070519868 0.9708203932499352 9.294657697249033
    vertex 6.842017002895125 1.1999999999999977 10.0
  endloop
endfacet
facet normal -3.0339708618091047e-16 -0.5877852522924729 0.8090169943749477
  outer loop
    vertex 6.951180569072305 0.37082039324993477 8.858732180445816
    vertex 1.9798989873223332 0.9708203932499366 9.294657697249033
    vertex 1.9798989873223327 0.3708203932499365 8.858732180445816
  endloop
endfacet
facet normal -3.0339708618091047e-16 -0.5877852522924729 0.8090169943749477
  outer loop
    vertex 1.9798989873223332 0.9708203932499366 9.294657697249033
    vertex 6.951180569072305 0.37082039324993477 8.858732180445816
    vertex 6.872189070519868 0.9708203932499352 9.294657697249033
  endloop
endfacet
facet normal -0.0 -0.0 1.0
  outer loop
    vertex 6.951180569072305 -0.370820393249939 8.858732180445816
    vertex 1.9798989873223327 0.3708203932499365 8.858732180445816
    vertex 1.9798989873223327 -0.3708203932499372 8.858732180445816
  endloop
endfacet
facet normal -0.0 -0.0 1.0
  outer loop
    vertex 1.9798989873223327 0.3708203932499365 8.858732180445816
    vertex 6.951180569072305 -0.370820393249939 8.858732180445816
    vertex 6.951180569072305 0.37082039324993477 8.858732180445816
  endloop
endfacet
facet normal -0.0 -0.0 1.0
  outer loop
    vertex 6.951180569072305 0.37082039324993477 8.858732180445816
    vertex 6.951180569072305 -0.370820393249939 8.858732180445816
    vertex 7.0 -8.426476696841081e-16 8.858732180445816
  endloop
endfacet
facet normal 2.2813628665228487e-16 0.5877852522924726 0.809016994374948
  outer loop
    vertex 6.872189070519868 -0.9708203932499391 9.294657697249033
    vertex 1.9798989873223327 -0.3708203932499372 8.858732180445816
    vertex 1.9798989873223325 -0.970820393249937 9.294657697249033
  endloop
endfacet
facet normal 2.2813628665228487e-16 0.5877852522924726 0.809016994374948
  outer loop
    vertex 1.9798989873223327 -0.3708203932499372 8.858732180445816
    vertex 6.872189070519868 -0.9708203932499391 9.294657697249033
    vertex 6.951180569072305 -0.370820393249939 8.858732180445816
  endloop
endfacet
facet normal 4.072620799242321e-16 0.9510565162951536 0.30901699437494734
  outer loop
    vertex 1.9798989873223325 -1.2000000000000002 10.0
    vertex 6.872189070519868 -0.9708203932499391 9.294657697249033
    vertex 1.9798989873223325 -0.970820393249937 9.294657697249033
  endloop
endfacet
facet normal 4.072620799242321e-16 0.9510565162951536 0.30901699437494734
  outer loop
    vertex 6.872189070519868 -0.9708203932499391 9.294657697249033
    vertex 1.9798989873223325 -1.2000000000000002 10.0
    vertex 6.842017002895125 -1.2000000000000017 9.999999999999998
  endloop
endfacet
facet normal 9.028440565206628e-17 0.9510565162951534 -0.30901699437494823
  outer loop
    vertex 1.9798989873223325 -1.2000000000000002 10.0
    vertex 6.872189070519868 -0.9708203932499369 10.705342302750967
    vertex 6.842017002895125 -1.2000000000000017 9.999999999999998
  endloop
endfacet
facet normal 9.028440565206628e-17 0.9510565162951534 -0.30901699437494823
  outer loop
    vertex 6.872189070519868 -0.9708203932499369 10.705342302750967
    vertex 1.9798989873223325 -1.2000000000000002 10.0
    vertex 1.9798989873223325 -0.970820393249937 10.705342302750967
  endloop
endfacet
facet normal -5.343962096707187e-17 0.5877852522924722 -0.8090169943749481
  outer loop
    vertex 1.9798989873223327 -0.37082039324993693 11.141267819554184
    vertex 6.872189070519868 -0.9708203932499369 10.705342302750967
    vertex 1.9798989873223325 -0.970820393249937 10.705342302750967
  endloop
endfacet
facet normal -5.343962096707187e-17 0.5877852522924722 -0.8090169943749481
  outer loop
    vertex 6.872189070519868 -0.9708203932499369 10.705342302750967
    vertex 1.9798989873223327 -0.37082039324993693 11.141267819554184
    vertex 6.951180569072305 -0.3708203932499382 11.141267819554182
  endloop
endfacet
facet normal -9.345980997307802e-17 9.505836699787476e-16 -1.0
  outer loop
    vertex 6.951180569072305 0.3708203932499351 11.141267819554184
    vertex 1.9798989873223327 -0.37082039324993693 11.141267819554184
    vertex 1.9798989873223327 0.3708203932499367 11.141267819554184
  endloop
endfacet
facet normal -9.345980997307802e-17 9.505836699787476e-16 -1.0
  outer loop
    vertex 1.9798989873223327 -0.37082039324993693 11.141267819554184
    vertex 6.951180569072305 0.3708203932499351 11.141267819554184
    vertex 6.951180569072305 -0.3708203932499382 11.141267819554182
  endloop
endfacet
facet normal -9.345980997307802e-17 9.505836699787476e-16 -1.0
  outer loop
    vertex 6.951180569072305 -0.3708203932499382 11.141267819554182
    vertex 6.951180569072305 0.3708203932499351 11.141267819554184
    vertex 7.0 -8.426476696841081e-16 11.141267819554184
  endloop
endfacet
facet normal -1.4345993485803174e-16 -0.5877852522924722 -0.8090169943749481
  outer loop
    vertex 1.9798989873223332 0.9708203932499366 10.705342302750967
    vertex 6.951180569072305 0.3708203932499351 11.141267819554184
    vertex 1.9798989873223327 0.3708203932499367 11.141267819554184
  endloop
endfacet
facet normal -1.4345993485803174e-16 -0.5877852522924722 -0.8090169943749481
  outer loop
    vertex 6.951180569072305 0.3708203932499351 11.141267819554184
    vertex 1.9798989873223332 0.9708203932499366 10.705342302750967
    vertex 6.872189070519868 0.970820393249936 10.705342302750967
  endloop
endfacet
facet normal -2.5660360956704415e-16 -0.951056516295154 -0.3090169943749466
  outer loop
    vertex 6.872189070519868 0.970820393249936 10.705342302750967
    vertex 1.9798989873223332 1.1999999999999997 10.0
    vertex 6.842017002895125 1.1999999999999977 10.0
  endloop
endfacet
facet normal -2.5660360956704415e-16 -0.951056516295154 -0.3090169943749466
  outer loop
    vertex 1.9798989873223332 1.1999999999999997 10.0
    vertex 6.872189070519868 0.970820393249936 10.705342302750967
    vertex 1.9798989873223332 0.9708203932499366 10.705342302750967
  endloop
endfacet
facet normal 0.9914448613738105 0.13052619222005113 -7.192503885919489e-19
  outer loop
    vertex 6.761480784023479 1.8117333157176425 0.0
    vertex 7.0 -8.426476696841081e-16 8.858732180445816
    vertex 7.0 -8.572527594031472e-16 0.0
  endloop
endfacet
facet normal 0.9914448613738105 0.13052619222005113 -7.192503885919489e-19
  outer loop
    vertex 7.0 -8.426476696841081e-16 8.858732180445816
    vertex 6.761480784023479 1.8117333157176425 0.0
    vertex 6.951180569072305 0.37082039324993477 8.858732180445816
  endloop
endfacet
facet normal 0.9914448613738105 0.13052619222005113 -7.192503885919489e-19
  outer loop
    vertex 6.951180569072305 0.37082039324993477 8.858732180445816
    vertex 6.761480784023479 1.8117333157176425 0.0
    vertex 6.872189070519868 0.9708203932499352 9.294657697249033
  endloop
endfacet
facet normal 0.9914448613738105 0.13052619222005113 -7.192503885919489e-19
  outer loop
    vertex 6.872189070519868 0.9708203932499352 9.294657697249033
    vertex 6.761480784023479 1.8117333157176425 0.0
    vertex 6.842017002895125 1.1999999999999977 10.0
  endloop
endfacet
facet normal 0.9914448613738105 0.13052619222005113 -7.192503885919489e-19
  outer loop
    vertex 7.0 -8.426476696841081e-16 11.141267819554184
    vertex 6.761480784023479 1.8117333157176425 20.0
    vertex 7.0 -8.572527594031472e-16 20.0
  endloop
endfacet
facet normal 0.9914448613738105 0.13052619222005113 -7.192503885919489e-19
  outer loop
    vertex 6.761480784023479 1.8117333157176425 20.0
    vertex 7.0 -8.426476696841081e-16 11.141267819554184
    vertex 6.951180569072305 0.3708203932499351 11.141267819554184
  endloop
endfacet
facet normal 0.9914448613738105 0.13052619222005113 -7.192503885919489e-19
  outer loop
    vertex 6.761480784023479 1.8117333157176425 20.0
    vertex 6.951180569072305 0.3708203932499351 11.141267819554184
    vertex 6.872189070519868 0.970820393249936 10.705342302750967
  endloop
endfacet
facet normal 0.9914448613738105 0.13052619222005113 -7.192503885919489e-19
  outer loop
    vertex 6.761480784023479 1.8117333157176425 20.0
    vertex 6.872189070519868 0.970820393249936 10.705342302750967
    vertex 6.842017002895125 1.1999999999999977 10.0
  endloop
endfacet
facet normal 0.9914448613738105 0.13052619222005113 -7.192503885919489e-19
  outer loop
    vertex 6.761480784023479 1.8117333157176425 20.0
    vertex 6.842017002895125 1.1999999999999977 10.0
    vertex 6.761480784023479 1.8117333157176425 0.0
  endloop
endfacet
facet normal 0.9914448613738105 -0.13052619222005155 7.192503885919618e-19
  outer loop
    vertex 6.761480784023478 -1.811733315717647 0.0
    vertex 6.842017002895125 -1.2000000000000017 9.999999999999998
    vertex 6.761480784023478 -1.811733315717647 20.0
  endloop
endfacet
facet normal 0.9914448613738105 -0.13052619222005155 7.192503885919618e-19
  outer loop
    vertex 6.842017002895125 -1.2000000000000017 9.999999999999998
    vertex 6.761480784023478 -1.811733315717647 0.0
    vertex 7.0 -8.572527594031472e-16 0.0
  endloop
endfacet
facet normal 0.9914448613738105 -0.13052619222005155 7.192503885919618e-19
  outer loop
    vertex 6.842017002895125 -1.2000000000000017 9.999999999999998
    vertex 7.0 -8.572527594031472e-16 0.0
    vertex 6.872189070519868 -0.9708203932499391 9.294657697249033
  endloop
endfacet
facet normal 0.9914448613738105 -0.13052619222005155 7.192503885919618e-19
  outer loop
    vertex 6.872189070519868 -0.9708203932499391 9.294657697249033
    vertex 7.0 -8.572527594031472e-16 0.0
    vertex 6.951180569072305 -0.370820393249939 8.858732180445816
  endloop
endfacet
facet normal 0.9914448613738105 -0.13052619222005155 7.192503885919618e-19
  outer loop
    vertex 6.951180569072305 -0.370820393249939 8.858732180445816
    vertex 7.0 -8.572527594031472e-16 0.0
    vertex 7.0 -8.426476696841081e-16 8.858732180445816
  endloop
endfacet
facet normal 0.9914448613738105 -0.13052619222005155 7.192503885919618e-19
  outer loop
    vertex 6.842017002895125 -1.2000000000000017 9.999999999999998
    vertex 7.0 -8.572527594031472e-16 20.0
    vertex 6.761480784023478 -1.811733315717647 20.0
  endloop
endfacet
facet normal 0.9914448613738105 -0.13052619222005155 7.192503885919618e-19
  outer loop
    vertex 7.0 -8.572527594031472e-16 20.0
    vertex 6.842017002895125 -1.2000000000000017 9.999999999999998
    vertex 6.872189070519868 -0.9708203932499369 10.705342302750967
  endloop
endfacet
facet normal 0.9914448613738105 -0.13052619222005155 7.192503885919618e-19
  outer loop
    vertex 7.0 -8.572527594031472e-16 20.0
    vertex 6.872189070519868 -0.9708203932499369 10.705342302750967
    vertex 6.951180569072305 -0.3708203932499382 11.141267819554182
  endloop
endfacet
facet normal 0.9914448613738105 -0.13052619222005155 7.192503885919618e-19
  outer loop
    vertex 7.0 -8.572527594031472e-16 20.0
    vertex 6.951180569072305 -0.3708203932499382 11.141267819554182
    vertex 7.0 -8.426476696841081e-16 11.141267819554184
  endloop
endfacet
facet normal 0.0 0.0 -1.0
  outer loop
    vertex -2.77163859753386 1.1480502970952708 5.0
    vertex -2.7999999999999994 0.0 5.0000000000000036
    vertex -3.0 5.510910596163089e-16 5.0
  endloop
endfacet
facet normal 0.0 0.0 -1.0
  outer loop
    vertex -2.7999999999999994 0.0 5.0000000000000036
    vertex -2.77163859753386 1.1480502970952708 5.0
    vertex -2.5868626910316017 1.071513610622253 5.0000000000000036
  endloop
endfacet
facet normal 0.0 0.0 -1.0
  outer loop
    vertex -2.5868626910316017 1.071513610622253 5.0000000000000036
    vertex -2.77163859753386 1.1480502970952708 5.0
    vertex -2.1213203435596424 2.121320343559643 5.0
  endloop
endfacet
facet normal 0.0 0.0 -1.0
  outer loop
    vertex -2.5868626910316017 1.071513610622253 5.0000000000000036
    vertex -2.1213203435596424 2.121320343559643 5.0
    vertex -1.979898987322332 1.9798989873223332 5.0000000000000036
  endloop
endfacet
facet normal 0.0 0.0 -1.0
  outer loop
    vertex -1.979898987322332 1.9798989873223332 5.0000000000000036
    vertex -2.1213203435596424 2.121320343559643 5.0
    vertex -1.1480502970952688 2.77163859753386 5.0
  endloop
endfacet
facet normal 0.0 0.0 -1.0
  outer loop
    vertex -1.979898987322332 1.9798989873223332 5.0000000000000036
    vertex -1.1480502970952688 2.77163859753386 5.0
    vertex -1.0715136106222518 2.586862691031602 5.0000000000000036
  endloop
endfacet
facet normal 0.0 0.0 -1.0
  outer loop
    vertex -1.0715136106222518 2.586862691031602 5.0000000000000036
    vertex -1.1480502970952688 2.77163859753386 5.0
    vertex 3.67394039744206e-16 3.0 5.0
  endloop
endfacet
facet normal 0.0 0.0 -1.0
  outer loop
    vertex -1.0715136106222518 2.586862691031602 5.0000000000000036
    vertex 3.67394039744206e-16 3.0 5.0
    vertex 5.143516556418882e-16 2.7999999999999994 5.0000000000000036
  endloop
endfacet
facet normal 0.0 0.0 -1.0
  outer loop
    vertex 5.143516556418882e-16 2.7999999999999994 5.0000000000000036
    vertex 3.67394039744206e-16 3.0 5.0
    vertex 1.1480502970952697 2.77163859753386 5.0
  endloop
endfacet
facet normal 0.0 0.0 -1.0
  outer loop
    vertex 5.143516556418882e-16 2.7999999999999994 5.0000000000000036
    vertex 1.1480502970952697 2.77163859753386 5.0
    vertex 1.0715136106222527 2.5868626910316017 5.0000000000000036
  endloop
endfacet
facet normal 0.0 0.0 -1.0
  outer loop
    vertex 1.0715136106222527 2.5868626910316017 5.0000000000000036
    vertex 1.1480502970952697 2.77163859753386 5.0
    vertex 1.9798989873223332 1.9798989873223325 5.0000000000000036
  endloop
endfacet
facet normal 0.0 0.0 -1.0
  outer loop
    vertex 1.9798989873223332 1.9798989873223325 5.0000000000000036
    vertex 1.1480502970952697 2.77163859753386 5.0
    vertex 2.121320343559643 2.1213203435596424 5.0
  endloop
endfacet
facet normal 0.0 0.0 -1.0
  outer loop
    vertex 1.9798989873223332 1.9798989873223325 5.0000000000000036
    vertex 2.121320343559643 2.1213203435596424 5.0
    vertex 2.1213203435596424 -2.1213203435596424 5.0
  endloop
endfacet
facet normal 0.0 0.0 -1.0
  outer loop
    vertex 2.1213203435596424 -2.1213203435596424 5.0
    vertex 2.121320343559643 2.1213203435596424 5.0
    vertex 2.77163859753386 -1.1480502970952695 5.0
  endloop
endfacet
facet normal 0.0 0.0 -1.0
  outer loop
    vertex 2.77163859753386 -1.1480502970952695 5.0
    vertex 2.121320343559643 2.1213203435596424 5.0
    vertex 2.77163859753386 1.148050297095269 5.0
  endloop
endfacet
facet normal 0.0 0.0 -1.0
  outer loop
    vertex 2.77163859753386 -1.1480502970952695 5.0
    vertex 2.77163859753386 1.148050297095269 5.0
    vertex 3.0 -1.8369701987210297e-16 5.0
  endloop
endfacet
facet normal 0.0 0.0 -1.0
  outer loop
    vertex -2.7999999999999994 0.0 5.0000000000000036
    vertex -2.77163859753386 -1.1480502970952697 5.0
    vertex -3.0 5.510910596163089e-16 5.0
  endloop
endfacet
facet normal 0.0 0.0 -1.0
  outer loop
    vertex -2.77163859753386 -1.1480502970952697 5.0
    vertex -2.7999999999999994 0.0 5.0000000000000036
    vertex -2.5868626910316026 -1.0715136106222514 5.0000000000000036
  endloop
endfacet
facet normal 0.0 0.0 -1.0
  outer loop
    vertex -2.77163859753386 -1.1480502970952697 5.0
    vertex -2.5868626910316026 -1.0715136106222514 5.0000000000000036
    vertex -2.1213203435596433 -2.121320343559642 5.0
  endloop
endfacet
facet normal 0.0 0.0 -1.0
  outer loop
    vertex -2.1213203435596433 -2.121320343559642 5.0
    vertex -2.5868626910316026 -1.0715136106222514 5.0000000000000036
    vertex -1.9798989873223327 -1.9798989873223325 5.0000000000000036
  endloop
endfacet
facet normal 0.0 0.0 -1.0
  outer loop
    vertex -2.1213203435596433 -2.121320343559642 5.0
    vertex -1.9798989873223327 -1.9798989873223325 5.0000000000000036
    vertex -1.1480502970952713 -2.7716385975338595 5.0
  endloop
endfacet
facet normal 0.0 0.0 -1.0
  outer loop
    vertex -1.1480502970952713 -2.7716385975338595 5.0
    vertex -1.9798989873223327 -1.9798989873223325 5.0000000000000036
    vertex -1.0715136106222514 -2.5868626910316026 5.0000000000000036
  endloop
endfacet
facet normal 0.0 0.0 -1.0
  outer loop
    vertex -1.1480502970952713 -2.7716385975338595 5.0
    vertex -1.0715136106222514 -2.5868626910316026 5.0000000000000036
    vertex 0.0 -3.0 5.0
  endloop
endfacet
facet normal 0.0 0.0 -1.0
  outer loop
    vertex 0.0 -3.0 5.0
    vertex -1.0715136106222514 -2.5868626910316026 5.0000000000000036
    vertex -1.7145055188062941e-16 -2.7999999999999994 5.0000000000000036
  endloop
endfacet
facet normal 0.0 0.0 -1.0
  outer loop
    vertex 0.0 -3.0 5.0
    vertex -1.7145055188062941e-16 -2.7999999999999994 5.0000000000000036
    vertex 1.0715136106222511 -2.5868626910316026 5.0000000000000036
  endloop
endfacet
facet normal 0.0 0.0 -1.0
  outer loop
    vertex 0.0 -3.0 5.0
    vertex 1.0715136106222511 -2.5868626910316026 5.0000000000000036
    vertex 1.1480502970952695 -2.77163859753386 5.0
  endloop
endfacet
facet normal 0.0 0.0 -1.0
  outer loop
    vertex 1.1480502970952695 -2.77163859753386 5.0
    vertex 1.0715136106222511 -2.5868626910316026 5.0000000000000036
    vertex 1.9798989873223325 -1.9798989873223327 5.0000000000000036
  endloop
endfacet
facet normal 0.0 0.0 -1.0
  outer loop
    vertex 1.1480502970952695 -2.77163859753386 5.0
    vertex 1.9798989873223325 -1.9798989873223327 5.0000000000000036
    vertex 2.1213203435596424 -2.1213203435596424 5.0
  endloop
endfacet
facet normal 0.0 0.0 -1.0
  outer loop
    vertex 2.1213203435596424 -2.1213203435596424 5.0
    vertex 1.9798989873223325 -1.9798989873223327 5.0000000000000036
    vertex 1.9798989873223332 1.9798989873223325 5.0000000000000036
  endloop
endfacet
facet normal -0.9807852804032305 0.1950903220161285 -0.0
  outer loop
    vertex 3.0 -1.8369701987210297e-16 5.0
    vertex 2.77163859753386 -1.1480502970952695 0.0
    vertex 2.77163859753386 -1.1480502970952695 5.0
  endloop
endfacet
facet normal -0.9807852804032305 0.1950903220161285 -0.0
  outer loop
    vertex 2.77163859753386 -1.1480502970952695 0.0
    vertex 3.0 -1.8369701987210297e-16 5.0
    vertex 3.0 -1.8369701987210297e-16 0.0
  endloop
endfacet
facet normal -0.8314696123025452 0.5555702330196023 -0.0
  outer loop
    vertex 2.77163859753386 -1.1480502970952695 5.0
    vertex 2.1213203435596424 -2.1213203435596424 0.0
    vertex 2.1213203435596424 -2.1213203435596424 5.0
  endloop
endfacet
facet normal -0.8314696123025452 0.5555702330196023 -0.0
  outer loop
    vertex 2.1213203435596424 -2.1213203435596424 0.0
    vertex 2.77163859753386 -1.1480502970952695 5.0
    vertex 2.77163859753386 -1.1480502970952695 0.0
  endloop
endfacet
facet normal -0.5555702330196021 0.8314696123025455 -0.0
  outer loop
    vertex 1.1480502970952695 -2.77163859753386 5.0
    vertex 2.1213203435596424 -2.1213203435596424 0.0
    vertex 1.1480502970952695 -2.77163859753386 0.0
  endloop
endfacet
facet normal -0.5555702330196021 0.8314696123025455 -0.0
  outer loop
    vertex 2.1213203435596424 -2.1213203435596424 0.0
    vertex 1.1480502970952695 -2.77163859753386 5.0
    vertex 2.1213203435596424 -2.1213203435596424 5.0
  endloop
endfacet
facet normal -0.19509032201612847 0.9807852804032305 -0.0
  outer loop
    vertex 0.0 -3.0 5.0
    vertex 1.1480502970952695 -2.77163859753386 0.0
    vertex 0.0 -3.0 0.0
  endloop
endfacet
facet normal -0.19509032201612847 0.9807852804032305 -0.0
  outer loop
    vertex 1.1480502970952695 -2.77163859753386 0.0
    vertex 0.0 -3.0 5.0
    vertex 1.1480502970952695 -2.77163859753386 5.0
  endloop
endfacet
facet normal 0.19509032201612844 0.9807852804032305 0.0
  outer loop
    vertex -1.1480502970952713 -2.7716385975338595 5.0
    vertex 0.0 -3.0 0.0
    vertex -1.1480502970952713 -2.7716385975338595 0.0
  endloop
endfacet
facet normal 0.19509032201612844 0.9807852804032305 0.0
  outer loop
    vertex 0.0 -3.0 0.0
    vertex -1.1480502970952713 -2.7716385975338595 5.0
    vertex 0.0 -3.0 5.0
  endloop
endfacet
facet normal 0.5555702330196026 0.8314696123025449 0.0
  outer loop
    vertex -2.1213203435596433 -2.121320343559642 5.0
    vertex -1.1480502970952713 -2.7716385975338595 0.0
    vertex -2.1213203435596433 -2.121320343559642 0.0
  endloop
endfacet
facet normal 0.5555702330196026 0.8314696123025449 0.0
  outer loop
    vertex -1.1480502970952713 -2.7716385975338595 0.0
    vertex -2.1213203435596433 -2.121320343559642 5.0
    vertex -1.1480502970952713 -2.7716385975338595 5.0
  endloop
endfacet
facet normal 0.8314696123025452 0.5555702330196022 0.0
  outer loop
    vertex -2.77163859753386 -1.1480502970952697 0.0
    vertex -2.1213203435596433 -2.121320343559642 5.0
    vertex -2.1213203435596433 -2.121320343559642 0.0
  endloop
endfacet
facet normal 0.8314696123025452 0.5555702330196022 0.0
  outer loop
    vertex -2.1213203435596433 -2.121320343559642 5.0
    vertex -2.77163859753386 -1.1480502970952697 0.0
    vertex -2.77163859753386 -1.1480502970952697 5.0
  endloop
endfacet
facet normal 0.9807852804032304 0.19509032201612828 0.0
  outer loop
    vertex -3.0 5.510910596163089e-16 0.0
    vertex -2.77163859753386 -1.1480502970952697 5.0
    vertex -2.77163859753386 -1.1480502970952697 0.0
  endloop
endfacet
facet normal 0.9807852804032304 0.19509032201612828 0.0
  outer loop
    vertex -2.77163859753386 -1.1480502970952697 5.0
    vertex -3.0 5.510910596163089e-16 0.0
    vertex -3.0 5.510910596163089e-16 5.0
  endloop
endfacet
facet normal 0.9807852804032304 -0.19509032201612858 -0.0
  outer loop
    vertex -2.77163859753386 1.1480502970952708 0.0
    vertex -3.0 5.510910596163089e-16 5.0
    vertex -3.0 5.510910596163089e-16 0.0
  endloop
endfacet
facet normal 0.9807852804032304 -0.19509032201612858 -0.0
  outer loop
    vertex -3.0 5.510910596163089e-16 5.0
    vertex -2.77163859753386 1.1480502970952708 0.0
    vertex -2.77163859753386 1.1480502970952708 5.0
  endloop
endfacet
facet normal 0.8314696123025451 -0.5555702330196024 -0.0
  outer loop
    vertex -2.1213203435596424 2.121320343559643 0.0
    vertex -2.77163859753386 1.1480502970952708 5.0
    vertex -2.77163859753386 1.1480502970952708 0.0
  endloop
endfacet
facet normal 0.8314696123025451 -0.5555702330196024 -0.0
  outer loop
    vertex -2.77163859753386 1.1480502970952708 5.0
    vertex -2.1213203435596424 2.121320343559643 0.0
    vertex -2.1213203435596424 2.121320343559643 5.0
  endloop
endfacet
facet normal 0.5555702330196018 -0.8314696123025457 -0.0
  outer loop
    vertex -1.1480502970952688 2.77163859753386 5.0
    vertex -2.1213203435596424 2.121320343559643 0.0
    vertex -1.1480502970952688 2.77163859753386 0.0
  endloop
endfacet
facet normal 0.5555702330196018 -0.8314696123025457 -0.0
  outer loop
    vertex -2.1213203435596424 2.121320343559643 0.0
    vertex -1.1480502970952688 2.77163859753386 5.0
    vertex -2.1213203435596424 2.121320343559643 5.0
  endloop
endfacet
facet normal 0.19509032201612816 -0.9807852804032304 -0.0
  outer loop
    vertex 3.67394039744206e-16 3.0 5.0
    vertex -1.1480502970952688 2.77163859753386 0.0
    vertex 3.67394039744206e-16 3.0 0.0
  endloop
endfacet
facet normal 0.19509032201612816 -0.9807852804032304 -0.0
  outer loop
    vertex -1.1480502970952688 2.77163859753386 0.0
    vertex 3.67394039744206e-16 3.0 5.0
    vertex -1.1480502970952688 2.77163859753386 5.0
  endloop
endfacet
facet normal -0.1950903220161285 -0.9807852804032305 -0.0
  outer loop
    vertex 1.1480502970952697 2.77163859753386 5.0
    vertex 3.67394039744206e-16 3.0 0.0
    vertex 1.1480502970952697 2.77163859753386 0.0
  endloop
endfacet
facet normal -0.1950903220161285 -0.9807852804032305 -0.0
  outer loop
    vertex 3.67394039744206e-16 3.0 0.0
    vertex 1.1480502970952697 2.77163859753386 5.0
    vertex 3.67394039744206e-16 3.0 5.0
  endloop
endfacet
facet normal -0.5555702330196022 -0.8314696123025453 -0.0
  outer loop
    vertex 2.121320343559643 2.1213203435596424 5.0
    vertex 1.1480502970952697 2.77163859753386 0.0
    vertex 2.121320343559643 2.1213203435596424 0.0
  endloop
endfacet
facet normal -0.5555702330196022 -0.8314696123025453 -0.0
  outer loop
    vertex 1.1480502970952697 2.77163859753386 0.0
    vertex 2.121320343559643 2.1213203435596424 5.0
    vertex 1.1480502970952697 2.77163859753386 5.0
  endloop
endfacet
facet normal -0.8314696123025455 -0.5555702330196021 -0.0
  outer loop
    vertex 2.121320343559643 2.1213203435596424 5.0
    vertex 2.77163859753386 1.148050297095269 0.0
    vertex 2.77163859753386 1.148050297095269 5.0
  endloop
endfacet
facet normal -0.8314696123025455 -0.5555702330196021 -0.0
  outer loop
    vertex 2.77163859753386 1.148050297095269 0.0
    vertex 2.121320343559643 2.1213203435596424 5.0
    vertex 2.121320343559643 2.1213203435596424 0.0
  endloop
endfacet
facet normal -0.9807852804032305 -0.1950903220161285 -0.0
  outer loop
    vertex 2.77163859753386 1.148050297095269 5.0
    vertex 3.0 -1.8369701987210297e-16 0.0
    vertex 3.0 -1.8369701987210297e-16 5.0
  endloop
endfacet
facet normal -0.9807852804032305 -0.1950903220161285 -0.0
  outer loop
    vertex 3.0 -1.8369701987210297e-16 0.0
    vertex 2.77163859753386 1.148050297095269 5.0
    vertex 2.77163859753386 1.148050297095269 0.0
  endloop
endfacet
endsolid Переходник-Шаговый-6mm
