solid Уголок-10-крепление-центр
facet normal 0.0 0.0 -1.0
  outer loop
    vertex -7.999999999999999 15.0 0.0
    vertex -5.9318516525781355 8.017638090205041 -0.013416000000002386
    vertex -7.999999999999999 0.0 0.0
  endloop
endfacet
facet normal 0.0 0.0 -1.0
  outer loop
    vertex -5.9318516525781355 8.017638090205041 -0.013416000000002386
    vertex -7.999999999999999 15.0 0.0
    vertex -5.732050807568877 8.5 -0.013416000000002386
  endloop
endfacet
facet normal 0.0 0.0 -1.0
  outer loop
    vertex -5.732050807568877 8.5 -0.013416000000002386
    vertex -7.999999999999999 15.0 0.0
    vertex -5.414213562373094 8.914213562373094 -0.013416000000002386
  endloop
endfacet
facet normal 0.0 0.0 -1.0
  outer loop
    vertex -5.414213562373094 8.914213562373094 -0.013416000000002386
    vertex -7.999999999999999 15.0 0.0
    vertex -5.0 9.232050807568877 -0.013416000000002386
  endloop
endfacet
facet normal 0.0 0.0 -1.0
  outer loop
    vertex -5.0 9.232050807568877 -0.013416000000002386
    vertex -7.999999999999999 15.0 0.0
    vertex -4.5176380902050415 9.431851652578136 -0.013416000000002386
  endloop
endfacet
facet normal 0.0 0.0 -1.0
  outer loop
    vertex -4.5176380902050415 9.431851652578136 -0.013416000000002386
    vertex -7.999999999999999 15.0 0.0
    vertex 13.021641 15.0 0.0
  endloop
endfacet
facet normal 0.0 0.0 -1.0
  outer loop
    vertex -7.999999999999999 0.0 0.0
    vertex -5.9318516525781355 8.017638090205041 -0.013416000000002386
    vertex -5.999999999999999 7.5 -0.013416000000002386
  endloop
endfacet
facet normal 0.0 0.0 -1.0
  outer loop
    vertex -4.5176380902050415 9.431851652578136 -0.013416000000002386
    vertex 13.021641 15.0 0.0
    vertex -3.9999999999999996 9.5 -0.013416000000002386
  endloop
endfacet
facet normal 0.0 0.0 -1.0
  outer loop
    vertex -3.9999999999999996 9.5 -0.013416000000002386
    vertex 13.021641 15.0 0.0
    vertex -3.482361909794959 9.431851652578136 -0.013416000000002386
  endloop
endfacet
facet normal 0.0 0.0 -1.0
  outer loop
    vertex -3.482361909794959 9.431851652578136 -0.013416000000002386
    vertex 13.021641 15.0 0.0
    vertex -3.000000000000001 9.232050807568877 -0.013416000000002386
  endloop
endfacet
facet normal 0.0 0.0 -1.0
  outer loop
    vertex -3.000000000000001 9.232050807568877 -0.013416000000002386
    vertex 13.021641 15.0 0.0
    vertex -2.585786437626906 8.914213562373096 -0.013416000000002386
  endloop
endfacet
facet normal 0.0 0.0 -1.0
  outer loop
    vertex -2.585786437626906 8.914213562373096 -0.013416000000002386
    vertex 13.021641 15.0 0.0
    vertex -2.2679491924311237 8.500000000000002 -0.013416000000002386
  endloop
endfacet
facet normal 0.0 0.0 -1.0
  outer loop
    vertex -2.2679491924311237 8.500000000000002 -0.013416000000002386
    vertex 13.021641 15.0 0.0
    vertex -2.0681483474218645 8.017638090205043 -0.013416000000002386
  endloop
endfacet
facet normal 0.0 0.0 -1.0
  outer loop
    vertex -2.0681483474218645 8.017638090205043 -0.013416000000002386
    vertex 13.021641 15.0 0.0
    vertex -2.0000000000000004 7.5 -0.013416000000002386
  endloop
endfacet
facet normal 0.0 0.0 -1.0
  outer loop
    vertex -7.999999999999999 0.0 0.0
    vertex -4.517638090205041 5.5681483474218645 -0.013416000000002386
    vertex 13.021641 0.0 0.0
  endloop
endfacet
facet normal 0.0 0.0 -1.0
  outer loop
    vertex -4.517638090205041 5.5681483474218645 -0.013416000000002386
    vertex -7.999999999999999 0.0 0.0
    vertex -4.999999999999999 5.767949192431123 -0.013416000000002386
  endloop
endfacet
facet normal 0.0 0.0 -1.0
  outer loop
    vertex -4.999999999999999 5.767949192431123 -0.013416000000002386
    vertex -7.999999999999999 0.0 0.0
    vertex -5.414213562373094 6.085786437626906 -0.013416000000002386
  endloop
endfacet
facet normal 0.0 0.0 -1.0
  outer loop
    vertex -5.414213562373094 6.085786437626906 -0.013416000000002386
    vertex -7.999999999999999 0.0 0.0
    vertex -5.732050807568877 6.500000000000001 -0.013416000000002386
  endloop
endfacet
facet normal 0.0 0.0 -1.0
  outer loop
    vertex -5.732050807568877 6.500000000000001 -0.013416000000002386
    vertex -7.999999999999999 0.0 0.0
    vertex -5.9318516525781355 6.982361909794959 -0.013416000000002386
  endloop
endfacet
facet normal 0.0 0.0 -1.0
  outer loop
    vertex -5.9318516525781355 6.982361909794959 -0.013416000000002386
    vertex -7.999999999999999 0.0 0.0
    vertex -5.999999999999999 7.5 -0.013416000000002386
  endloop
endfacet
facet normal 0.0 0.0 -1.0
  outer loop
    vertex 13.021641 0.0 0.0
    vertex -4.517638090205041 5.5681483474218645 -0.013416000000002386
    vertex -3.9999999999999996 5.500000000000001 -0.013416000000002386
  endloop
endfacet
facet normal 0.0 0.0 -1.0
  outer loop
    vertex 13.021641 0.0 0.0
    vertex -3.9999999999999996 5.500000000000001 -0.013416000000002386
    vertex -3.482361909794957 5.5681483474218645 -0.013416000000002386
  endloop
endfacet
facet normal 0.0 0.0 -1.0
  outer loop
    vertex 13.021641 0.0 0.0
    vertex -3.482361909794957 5.5681483474218645 -0.013416000000002386
    vertex -2.9999999999999996 5.767949192431125 -0.013416000000002386
  endloop
endfacet
facet normal 0.0 0.0 -1.0
  outer loop
    vertex 13.021641 0.0 0.0
    vertex -2.9999999999999996 5.767949192431125 -0.013416000000002386
    vertex -2.585786437626905 6.085786437626906 -0.013416000000002386
  endloop
endfacet
facet normal 0.0 0.0 -1.0
  outer loop
    vertex 13.021641 0.0 0.0
    vertex -2.585786437626905 6.085786437626906 -0.013416000000002386
    vertex -2.2679491924311224 6.500000000000002 -0.013416000000002386
  endloop
endfacet
facet normal 0.0 0.0 -1.0
  outer loop
    vertex 13.021641 0.0 0.0
    vertex -2.2679491924311224 6.500000000000002 -0.013416000000002386
    vertex -2.0681483474218636 6.98236190979496 -0.013416000000002386
  endloop
endfacet
facet normal 0.0 0.0 -1.0
  outer loop
    vertex 13.021641 0.0 0.0
    vertex -2.0681483474218636 6.98236190979496 -0.013416000000002386
    vertex -2.0000000000000004 7.5 -0.013416000000002386
  endloop
endfacet
facet normal 0.0 0.0 -1.0
  outer loop
    vertex 13.021641 0.0 0.0
    vertex -2.0000000000000004 7.5 -0.013416000000002386
    vertex 13.021641 15.0 0.0
  endloop
endfacet
facet normal -0.0 -0.0 1.0
  outer loop
    vertex 9.908831175456859 0.0 24.0
    vertex 0.0 15.0 24.0
    vertex 0.0 0.0 24.0
  endloop
endfacet
facet normal -0.0 -0.0 1.0
  outer loop
    vertex 0.0 15.0 24.0
    vertex 9.908831175456859 0.0 24.0
    vertex 9.908831175456859 15.0 24.0
  endloop
endfacet
facet normal -0.0 1.0 -0.0
  outer loop
    vertex -7.999999999999999 15.0 0.0
    vertex 6.5147186257614305 15.0 0.5147186257614274
    vertex 13.021641 15.0 0.0
  endloop
endfacet
facet normal -0.0 1.0 -0.0
  outer loop
    vertex 6.5147186257614305 15.0 0.5147186257614274
    vertex -7.999999999999999 15.0 0.0
    vertex -7.999999999999999 15.0 8.999999999999998
  endloop
endfacet
facet normal -0.0 1.0 -0.0
  outer loop
    vertex 6.5147186257614305 15.0 0.5147186257614274
    vertex -7.999999999999999 15.0 8.999999999999998
    vertex 0.0 15.0 8.999999999999998
  endloop
endfacet
facet normal -0.0 1.0 -0.0
  outer loop
    vertex 6.5147186257614305 15.0 0.5147186257614274
    vertex 0.0 15.0 8.999999999999998
    vertex 15.0 15.0 9.0
  endloop
endfacet
facet normal -0.0 1.0 -0.0
  outer loop
    vertex 15.0 15.0 9.0
    vertex 0.0 15.0 8.999999999999998
    vertex 0.0 15.0 24.0
  endloop
endfacet
facet normal -0.0 1.0 -0.0
  outer loop
    vertex 15.0 15.0 9.0
    vertex 0.0 15.0 24.0
    vertex 5.241926419625646 15.0 18.758073580374358
  endloop
endfacet
facet normal -0.0 1.0 -0.0
  outer loop
    vertex 5.241926419625646 15.0 18.758073580374358
    vertex 0.0 15.0 24.0
    vertex 7.787510831897216 15.0 18.758073580374358
  endloop
endfacet
facet normal -0.0 1.0 -0.0
  outer loop
    vertex 7.787510831897216 15.0 18.758073580374358
    vertex 9.908831175456859 15.0 24.0
    vertex 9.908831175456859 15.0 16.636753236814716
  endloop
endfacet
facet normal -0.0 1.0 -0.0
  outer loop
    vertex 9.908831175456859 15.0 24.0
    vertex 7.787510831897216 15.0 18.758073580374358
    vertex 0.0 15.0 24.0
  endloop
endfacet
facet normal -0.0 1.0 -0.0
  outer loop
    vertex 13.021641 15.0 0.0
    vertex 9.060303038033 15.0 0.5147186257614274
    vertex 13.021641 15.0 2.63603896932107
  endloop
endfacet
facet normal -0.0 1.0 -0.0
  outer loop
    vertex 9.060303038033 15.0 0.5147186257614274
    vertex 13.021641 15.0 0.0
    vertex 6.5147186257614305 15.0 0.5147186257614274
  endloop
endfacet
facet normal -0.0 1.0 -0.0
  outer loop
    vertex 13.021641 15.0 2.63603896932107
    vertex 9.060303038033 15.0 0.5147186257614274
    vertex 11.181623381592642 15.0 2.63603896932107
  endloop
endfacet
facet normal 1.0 0.0 0.0
  outer loop
    vertex 13.021641 15.0 0.0
    vertex 13.021641 0.0 0.5147186257614274
    vertex 13.021641 0.0 0.0
  endloop
endfacet
facet normal 1.0 0.0 0.0
  outer loop
    vertex 13.021641 0.0 0.5147186257614274
    vertex 13.021641 15.0 0.0
    vertex 13.021641 0.0 2.63603896932107
  endloop
endfacet
facet normal 1.0 0.0 0.0
  outer loop
    vertex 13.021641 0.0 2.63603896932107
    vertex 13.021641 15.0 0.0
    vertex 13.021641 15.0 2.63603896932107
  endloop
endfacet
facet normal 0.0 -1.0 0.0
  outer loop
    vertex 9.908831175456859 0.0 24.0
    vertex 7.787510831897216 0.0 18.758073580374358
    vertex 9.908831175456859 0.0 16.636753236814716
  endloop
endfacet
facet normal 0.0 -1.0 0.0
  outer loop
    vertex 7.787510831897216 0.0 18.758073580374358
    vertex 9.908831175456859 0.0 24.0
    vertex 5.241926419625646 0.0 18.758073580374358
  endloop
endfacet
facet normal 0.0 -1.0 0.0
  outer loop
    vertex 15.0 0.0 9.0
    vertex 0.0 0.0 8.999999999999998
    vertex 6.5147186257614305 0.0 0.5147186257614274
  endloop
endfacet
facet normal 0.0 -1.0 0.0
  outer loop
    vertex 0.0 0.0 8.999999999999998
    vertex 15.0 0.0 9.0
    vertex 0.0 0.0 24.0
  endloop
endfacet
facet normal 0.0 -1.0 0.0
  outer loop
    vertex 0.0 0.0 24.0
    vertex 15.0 0.0 9.0
    vertex 5.241926419625646 0.0 18.758073580374358
  endloop
endfacet
facet normal 0.0 -1.0 0.0
  outer loop
    vertex 0.0 0.0 24.0
    vertex 5.241926419625646 0.0 18.758073580374358
    vertex 9.908831175456859 0.0 24.0
  endloop
endfacet
facet normal 0.0 -1.0 0.0
  outer loop
    vertex 6.5147186257614305 0.0 0.5147186257614274
    vertex -7.999999999999999 0.0 8.999999999999998
    vertex -7.999999999999999 0.0 0.5147186257614272
  endloop
endfacet
facet normal 0.0 -1.0 0.0
  outer loop
    vertex -7.999999999999999 0.0 8.999999999999998
    vertex 6.5147186257614305 0.0 0.5147186257614274
    vertex 0.0 0.0 8.999999999999998
  endloop
endfacet
facet normal 0.0 -1.0 0.0
  outer loop
    vertex 13.021641 0.0 0.5147186257614274
    vertex -7.999999999999999 0.0 0.0
    vertex 13.021641 0.0 0.0
  endloop
endfacet
facet normal 0.0 -1.0 0.0
  outer loop
    vertex -7.999999999999999 0.0 0.0
    vertex 13.021641 0.0 0.5147186257614274
    vertex -7.999999999999999 0.0 0.5147186257614272
  endloop
endfacet
facet normal 0.0 -1.0 0.0
  outer loop
    vertex -7.999999999999999 0.0 0.5147186257614272
    vertex 13.021641 0.0 0.5147186257614274
    vertex 6.5147186257614305 0.0 0.5147186257614274
  endloop
endfacet
facet normal 0.0 -1.0 0.0
  outer loop
    vertex 6.5147186257614305 0.0 0.5147186257614274
    vertex 13.021641 0.0 0.5147186257614274
    vertex 9.060303038033 0.0 0.5147186257614274
  endloop
endfacet
facet normal 0.0 -1.0 0.0
  outer loop
    vertex 13.021641 0.0 2.63603896932107
    vertex 9.060303038033 0.0 0.5147186257614274
    vertex 13.021641 0.0 0.5147186257614274
  endloop
endfacet
facet normal 0.0 -1.0 0.0
  outer loop
    vertex 9.060303038033 0.0 0.5147186257614274
    vertex 13.021641 0.0 2.63603896932107
    vertex 11.181623381592642 0.0 2.63603896932107
  endloop
endfacet
facet normal -0.0 -0.0 1.0
  outer loop
    vertex 9.060303038033 0.0 0.5147186257614274
    vertex 6.5147186257614305 15.0 0.5147186257614274
    vertex 6.5147186257614305 0.0 0.5147186257614274
  endloop
endfacet
facet normal -0.0 -0.0 1.0
  outer loop
    vertex 6.5147186257614305 15.0 0.5147186257614274
    vertex 9.060303038033 0.0 0.5147186257614274
    vertex 9.060303038033 15.0 0.5147186257614274
  endloop
endfacet
facet normal -0.7071067811865477 -0.0 0.7071067811865475
  outer loop
    vertex 11.181623381592642 15.0 2.63603896932107
    vertex 9.060303038033 0.0 0.5147186257614274
    vertex 11.181623381592642 0.0 2.63603896932107
  endloop
endfacet
facet normal -0.7071067811865477 -0.0 0.7071067811865475
  outer loop
    vertex 9.060303038033 0.0 0.5147186257614274
    vertex 11.181623381592642 15.0 2.63603896932107
    vertex 9.060303038033 15.0 0.5147186257614274
  endloop
endfacet
facet normal -0.0 -0.0 1.0
  outer loop
    vertex 13.021641 0.0 2.63603896932107
    vertex 11.181623381592642 15.0 2.63603896932107
    vertex 11.181623381592642 0.0 2.63603896932107
  endloop
endfacet
facet normal -0.0 -0.0 1.0
  outer loop
    vertex 11.181623381592642 15.0 2.63603896932107
    vertex 13.021641 0.0 2.63603896932107
    vertex 13.021641 15.0 2.63603896932107
  endloop
endfacet
facet normal 0.7071067811865477 -0.0 -0.7071067811865475
  outer loop
    vertex 6.5147186257614305 15.0 0.5147186257614274
    vertex 15.0 0.0 9.0
    vertex 6.5147186257614305 0.0 0.5147186257614274
  endloop
endfacet
facet normal 0.7071067811865477 -0.0 -0.7071067811865475
  outer loop
    vertex 15.0 0.0 9.0
    vertex 6.5147186257614305 15.0 0.5147186257614274
    vertex 15.0 15.0 9.0
  endloop
endfacet
facet normal 1.0 -0.0 -0.0
  outer loop
    vertex 9.908831175456859 15.0 16.636753236814716
    vertex 9.908831175456859 0.0 24.0
    vertex 9.908831175456859 0.0 16.636753236814716
  endloop
endfacet
facet normal 1.0 -0.0 -0.0
  outer loop
    vertex 9.908831175456859 0.0 24.0
    vertex 9.908831175456859 15.0 16.636753236814716
    vertex 9.908831175456859 15.0 24.0
  endloop
endfacet
facet normal -0.7071067811865476 -0.0 -0.7071067811865476
  outer loop
    vertex 7.787510831897216 15.0 18.758073580374358
    vertex 9.908831175456859 0.0 16.636753236814716
    vertex 7.787510831897216 0.0 18.758073580374358
  endloop
endfacet
facet normal -0.7071067811865476 -0.0 -0.7071067811865476
  outer loop
    vertex 9.908831175456859 0.0 16.636753236814716
    vertex 7.787510831897216 15.0 18.758073580374358
    vertex 9.908831175456859 15.0 16.636753236814716
  endloop
endfacet
facet normal -0.0 -0.0 -1.0
  outer loop
    vertex 7.787510831897216 15.0 18.758073580374358
    vertex 5.241926419625646 0.0 18.758073580374358
    vertex 5.241926419625646 15.0 18.758073580374358
  endloop
endfacet
facet normal -0.0 -0.0 -1.0
  outer loop
    vertex 5.241926419625646 0.0 18.758073580374358
    vertex 7.787510831897216 15.0 18.758073580374358
    vertex 7.787510831897216 0.0 18.758073580374358
  endloop
endfacet
facet normal 0.7071067811865477 -0.0 0.7071067811865474
  outer loop
    vertex 15.0 15.0 9.0
    vertex 5.241926419625646 0.0 18.758073580374358
    vertex 15.0 0.0 9.0
  endloop
endfacet
facet normal 0.7071067811865477 -0.0 0.7071067811865474
  outer loop
    vertex 5.241926419625646 0.0 18.758073580374358
    vertex 15.0 15.0 9.0
    vertex 5.241926419625646 15.0 18.758073580374358
  endloop
endfacet
facet normal -1.0 0.0 0.0
  outer loop
    vertex 0.0 15.0 24.0
    vertex 0.0 0.0 8.999999999999998
    vertex 0.0 0.0 24.0
  endloop
endfacet
facet normal -1.0 0.0 0.0
  outer loop
    vertex 0.0 0.0 8.999999999999998
    vertex 0.0 15.0 24.0
    vertex 0.0 15.0 8.999999999999998
  endloop
endfacet
facet normal -1.0 0.0 0.0
  outer loop
    vertex -7.999999999999999 15.0 8.999999999999998
    vertex -7.999999999999999 0.0 0.5147186257614272
    vertex -7.999999999999999 0.0 8.999999999999998
  endloop
endfacet
facet normal -1.0 0.0 0.0
  outer loop
    vertex -7.999999999999999 0.0 0.5147186257614272
    vertex -7.999999999999999 15.0 8.999999999999998
    vertex -7.999999999999999 0.0 0.0
  endloop
endfacet
facet normal -1.0 0.0 0.0
  outer loop
    vertex -7.999999999999999 0.0 0.0
    vertex -7.999999999999999 15.0 8.999999999999998
    vertex -7.999999999999999 15.0 0.0
  endloop
endfacet
facet normal 0.0 9.399888275159658e-17 1.0
  outer loop
    vertex -7.999999999999999 0.0 8.999999999999998
    vertex -7.275507562554933 7.098689387574366 8.999999999999998
    vertex -7.999999999999999 15.0 8.999999999999998
  endloop
endfacet
facet normal 0.0 9.399888275159658e-17 1.0
  outer loop
    vertex -7.275507562554933 7.098689387574366 8.999999999999998
    vertex -7.999999999999999 0.0 8.999999999999998
    vertex -7.060030519379455 6.264599975527644 8.999999999999998
  endloop
endfacet
facet normal 0.0 9.399888275159658e-17 1.0
  outer loop
    vertex -7.060030519379455 6.264599975527644 8.999999999999998
    vertex -7.999999999999999 0.0 8.999999999999998
    vertex -6.636017453247801 5.514701033553644 8.999999999999998
  endloop
endfacet
facet normal 0.0 9.399888275159658e-17 1.0
  outer loop
    vertex -6.636017453247801 5.514701033553644 8.999999999999998
    vertex -7.999999999999999 0.0 8.999999999999998
    vertex -6.03236415390212 4.900096935281295 8.999999999999998
  endloop
endfacet
facet normal 0.0 9.399888275159658e-17 1.0
  outer loop
    vertex -6.03236415390212 4.900096935281295 8.999999999999998
    vertex -7.999999999999999 0.0 8.999999999999998
    vertex 0.0 0.0 8.999999999999998
  endloop
endfacet
facet normal 0.0 9.399888275159658e-17 1.0
  outer loop
    vertex -6.03236415390212 4.900096935281295 8.999999999999998
    vertex 0.0 0.0 8.999999999999998
    vertex -5.2902085961085765 4.462671934326565 8.999999999999998
  endloop
endfacet
facet normal 0.0 9.399888275159658e-17 1.0
  outer loop
    vertex -5.2902085961085765 4.462671934326565 8.999999999999998
    vertex 0.0 0.0 8.999999999999998
    vertex -4.46012745466075 4.232235821625523 8.999999999999998
  endloop
endfacet
facet normal 0.0 9.399888275159658e-17 1.0
  outer loop
    vertex -4.46012745466075 4.232235821625523 8.999999999999998
    vertex 0.0 0.0 8.999999999999998
    vertex -3.5986893875743657 4.224492437445067 8.999999999999998
  endloop
endfacet
facet normal 0.0 9.399888275159658e-17 1.0
  outer loop
    vertex -3.5986893875743657 4.224492437445067 8.999999999999998
    vertex 0.0 0.0 8.999999999999998
    vertex -2.7645999755276436 4.439969480620545 8.999999999999998
  endloop
endfacet
facet normal 0.0 9.399888275159658e-17 1.0
  outer loop
    vertex -2.7645999755276436 4.439969480620545 8.999999999999998
    vertex 0.0 0.0 8.999999999999998
    vertex -2.0147010335536426 4.863982546752199 8.999999999999998
  endloop
endfacet
facet normal 0.0 9.399888275159658e-17 1.0
  outer loop
    vertex -2.0147010335536426 4.863982546752199 8.999999999999998
    vertex 0.0 0.0 8.999999999999998
    vertex -1.400096935281293 5.467635846097882 8.999999999999998
  endloop
endfacet
facet normal 0.0 9.399888275159658e-17 1.0
  outer loop
    vertex -1.400096935281293 5.467635846097882 8.999999999999998
    vertex 0.0 0.0 8.999999999999998
    vertex -0.9626719343265634 6.209791403891425 8.999999999999998
  endloop
endfacet
facet normal 0.0 9.399888275159658e-17 1.0
  outer loop
    vertex -0.9626719343265634 6.209791403891425 8.999999999999998
    vertex 0.0 0.0 8.999999999999998
    vertex -0.7322358216255229 7.03987254533925 8.999999999999998
  endloop
endfacet
facet normal 0.0 9.399888275159658e-17 1.0
  outer loop
    vertex -0.7322358216255229 7.03987254533925 8.999999999999998
    vertex 0.0 0.0 8.999999999999998
    vertex -0.7244924374450668 7.901310612425637 8.999999999999998
  endloop
endfacet
facet normal 0.0 9.399888275159658e-17 1.0
  outer loop
    vertex -7.999999999999999 15.0 8.999999999999998
    vertex -5.985298966446357 10.136017453247801 8.999999999999998
    vertex 0.0 15.0 8.999999999999998
  endloop
endfacet
facet normal 0.0 9.399888275159658e-17 1.0
  outer loop
    vertex -5.985298966446357 10.136017453247801 8.999999999999998
    vertex -7.999999999999999 15.0 8.999999999999998
    vertex -6.599903064718705 9.53236415390212 8.999999999999998
  endloop
endfacet
facet normal 0.0 9.399888275159658e-17 1.0
  outer loop
    vertex -6.599903064718705 9.53236415390212 8.999999999999998
    vertex -7.999999999999999 15.0 8.999999999999998
    vertex -7.037328065673435 8.790208596108576 8.999999999999998
  endloop
endfacet
facet normal 0.0 9.399888275159658e-17 1.0
  outer loop
    vertex -7.037328065673435 8.790208596108576 8.999999999999998
    vertex -7.999999999999999 15.0 8.999999999999998
    vertex -7.267764178374477 7.96012745466075 8.999999999999998
  endloop
endfacet
facet normal 0.0 9.399888275159658e-17 1.0
  outer loop
    vertex -7.267764178374477 7.96012745466075 8.999999999999998
    vertex -7.999999999999999 15.0 8.999999999999998
    vertex -7.275507562554933 7.098689387574366 8.999999999999998
  endloop
endfacet
facet normal 0.0 9.399888275159658e-17 1.0
  outer loop
    vertex 0.0 15.0 8.999999999999998
    vertex -5.985298966446357 10.136017453247801 8.999999999999998
    vertex -5.235400024472357 10.560030519379456 8.999999999999998
  endloop
endfacet
facet normal 0.0 9.399888275159658e-17 1.0
  outer loop
    vertex 0.0 15.0 8.999999999999998
    vertex -5.235400024472357 10.560030519379456 8.999999999999998
    vertex -4.401310612425635 10.775507562554933 8.999999999999998
  endloop
endfacet
facet normal 0.0 9.399888275159658e-17 1.0
  outer loop
    vertex 0.0 15.0 8.999999999999998
    vertex -4.401310612425635 10.775507562554933 8.999999999999998
    vertex -3.539872545339251 10.767764178374478 8.999999999999998
  endloop
endfacet
facet normal 0.0 9.399888275159658e-17 1.0
  outer loop
    vertex 0.0 15.0 8.999999999999998
    vertex -3.539872545339251 10.767764178374478 8.999999999999998
    vertex -2.709791403891425 10.537328065673437 8.999999999999998
  endloop
endfacet
facet normal 0.0 9.399888275159658e-17 1.0
  outer loop
    vertex 0.0 15.0 8.999999999999998
    vertex -2.709791403891425 10.537328065673437 8.999999999999998
    vertex -1.9676358460978813 10.099903064718706 8.999999999999998
  endloop
endfacet
facet normal 0.0 9.399888275159658e-17 1.0
  outer loop
    vertex 0.0 15.0 8.999999999999998
    vertex -1.9676358460978813 10.099903064718706 8.999999999999998
    vertex -1.3639825467521984 9.485298966446358 8.999999999999998
  endloop
endfacet
facet normal 0.0 9.399888275159658e-17 1.0
  outer loop
    vertex 0.0 15.0 8.999999999999998
    vertex -1.3639825467521984 9.485298966446358 8.999999999999998
    vertex -0.9399694806205445 8.735400024472357 8.999999999999998
  endloop
endfacet
facet normal 0.0 9.399888275159658e-17 1.0
  outer loop
    vertex 0.0 15.0 8.999999999999998
    vertex -0.9399694806205445 8.735400024472357 8.999999999999998
    vertex -0.7244924374450668 7.901310612425637 8.999999999999998
  endloop
endfacet
facet normal 0.0 9.399888275159658e-17 1.0
  outer loop
    vertex 0.0 15.0 8.999999999999998
    vertex -0.7244924374450668 7.901310612425637 8.999999999999998
    vertex 0.0 0.0 8.999999999999998
  endloop
endfacet
facet normal -0.8052287083294986 -0.20802122487694505 0.5552782161067575
  outer loop
    vertex -0.9399694806205445 8.735400024472357 8.999999999999998
    vertex -2.0000000000000004 7.5 6.999999999999998
    vertex -0.7244924374450668 7.901310612425637 8.999999999999998
  endloop
endfacet
facet normal -0.8478640834492247 -0.11162342420073978 0.5183306928655758
  outer loop
    vertex -0.9399694806205445 8.735400024472357 8.999999999999998
    vertex -2.0681483474218645 8.017638090205043 6.999999999999998
    vertex -2.0000000000000004 7.5 6.999999999999998
  endloop
endfacet
facet normal -0.7239513506611425 -0.4093415989039041 0.5552782161067574
  outer loop
    vertex -1.3639825467521984 9.485298966446358 8.999999999999998
    vertex -2.0681483474218645 8.017638090205043 6.999999999999998
    vertex -0.9399694806205445 8.735400024472357 8.999999999999998
  endloop
endfacet
facet normal -0.7900835473238067 -0.3272633207093677 0.5183306928655756
  outer loop
    vertex -1.3639825467521984 9.485298966446358 8.999999999999998
    vertex -2.2679491924311237 8.500000000000002 6.999999999999998
    vertex -2.0681483474218645 8.017638090205043 6.999999999999998
  endloop
endfacet
facet normal -0.5933379048314019 -0.5827660194345405 0.5552782161067576
  outer loop
    vertex -1.9676358460978813 10.099903064718706 8.999999999999998
    vertex -2.2679491924311237 8.500000000000002 6.999999999999998
    vertex -1.3639825467521984 9.485298966446358 8.999999999999998
  endloop
endfacet
facet normal -0.6784601231230688 -0.5206007627398598 0.5183306928655746
  outer loop
    vertex -1.9676358460978813 10.099903064718706 8.999999999999998
    vertex -2.585786437626906 8.914213562373096 6.999999999999998
    vertex -2.2679491924311237 8.500000000000002 6.999999999999998
  endloop
endfacet
facet normal -0.42228946132465517 -0.716475898807092 0.555278216106757
  outer loop
    vertex -2.709791403891425 10.537328065673437 8.999999999999998
    vertex -2.585786437626906 8.914213562373096 6.999999999999998
    vertex -1.9676358460978813 10.099903064718706 8.999999999999998
  endloop
endfacet
facet normal -0.5206007627398582 -0.6784601231230695 0.5183306928655754
  outer loop
    vertex -2.709791403891425 10.537328065673437 8.999999999999998
    vertex -3.000000000000001 9.232050807568877 6.999999999999998
    vertex -2.585786437626906 8.914213562373096 6.999999999999998
  endloop
endfacet
facet normal -0.22246268889495888 -0.8013591297083487 0.5552782161067576
  outer loop
    vertex -3.539872545339251 10.767764178374478 8.999999999999998
    vertex -3.000000000000001 9.232050807568877 6.999999999999998
    vertex -2.709791403891425 10.537328065673437 8.999999999999998
  endloop
endfacet
facet normal -0.3272633207093653 -0.7900835473238078 0.5183306928655754
  outer loop
    vertex -3.539872545339251 10.767764178374478 8.999999999999998
    vertex -3.482361909794959 9.431851652578136 6.999999999999998
    vertex -3.000000000000001 9.232050807568877 6.999999999999998
  endloop
endfacet
facet normal -0.007475451854049584 -0.8316310602285577 0.5552782161067575
  outer loop
    vertex -4.401310612425635 10.775507562554933 8.999999999999998
    vertex -3.482361909794959 9.431851652578136 6.999999999999998
    vertex -3.539872545339251 10.767764178374478 8.999999999999998
  endloop
endfacet
facet normal -0.11162342420073866 -0.8478640834492253 0.5183306928655752
  outer loop
    vertex -4.401310612425635 10.775507562554933 8.999999999999998
    vertex -3.9999999999999996 9.5 6.999999999999998
    vertex -3.482361909794959 9.431851652578136 6.999999999999998
  endloop
endfacet
facet normal 0.20802122487694455 -0.8052287083294987 0.5552782161067574
  outer loop
    vertex -5.235400024472357 10.560030519379456 8.999999999999998
    vertex -3.9999999999999996 9.5 6.999999999999998
    vertex -4.401310612425635 10.775507562554933 8.999999999999998
  endloop
endfacet
facet normal 0.11162342420073841 -0.8478640834492251 0.5183306928655754
  outer loop
    vertex -5.235400024472357 10.560030519379456 8.999999999999998
    vertex -4.5176380902050415 9.431851652578136 6.999999999999998
    vertex -3.9999999999999996 9.5 6.999999999999998
  endloop
endfacet
facet normal 0.4093415989039052 -0.7239513506611417 0.5552782161067578
  outer loop
    vertex -5.985298966446357 10.136017453247801 8.999999999999998
    vertex -4.5176380902050415 9.431851652578136 6.999999999999998
    vertex -5.235400024472357 10.560030519379456 8.999999999999998
  endloop
endfacet
facet normal 0.3272633207093677 -0.7900835473238067 0.5183306928655756
  outer loop
    vertex -5.985298966446357 10.136017453247801 8.999999999999998
    vertex -5.0 9.232050807568877 6.999999999999998
    vertex -4.5176380902050415 9.431851652578136 6.999999999999998
  endloop
endfacet
facet normal 0.5827660194345394 -0.593337904831403 0.5552782161067575
  outer loop
    vertex -6.599903064718705 9.53236415390212 8.999999999999998
    vertex -5.0 9.232050807568877 6.999999999999998
    vertex -5.985298966446357 10.136017453247801 8.999999999999998
  endloop
endfacet
facet normal 0.5206007627398609 -0.6784601231230667 0.5183306928655764
  outer loop
    vertex -6.599903064718705 9.53236415390212 8.999999999999998
    vertex -5.414213562373094 8.914213562373094 6.999999999999998
    vertex -5.0 9.232050807568877 6.999999999999998
  endloop
endfacet
facet normal 0.7164758988070927 -0.4222894613246533 0.5552782161067574
  outer loop
    vertex -6.599903064718705 9.53236415390212 8.999999999999998
    vertex -7.037328065673435 8.790208596108576 8.999999999999998
    vertex -5.414213562373094 8.914213562373094 6.999999999999998
  endloop
endfacet
facet normal 0.6784601231230687 -0.5206007627398598 0.5183306928655745
  outer loop
    vertex -5.414213562373094 8.914213562373094 6.999999999999998
    vertex -7.037328065673435 8.790208596108576 8.999999999999998
    vertex -5.732050807568877 8.5 6.999999999999998
  endloop
endfacet
facet normal 0.8013591297083484 -0.22246268889496054 0.5552782161067571
  outer loop
    vertex -7.037328065673435 8.790208596108576 8.999999999999998
    vertex -7.267764178374477 7.96012745466075 8.999999999999998
    vertex -5.732050807568877 8.5 6.999999999999998
  endloop
endfacet
facet normal 0.790083547323808 -0.3272633207093651 0.5183306928655755
  outer loop
    vertex -5.732050807568877 8.5 6.999999999999998
    vertex -7.267764178374477 7.96012745466075 8.999999999999998
    vertex -5.9318516525781355 8.017638090205041 6.999999999999998
  endloop
endfacet
facet normal 0.8316310602285577 -0.007475451854049422 0.5552782161067574
  outer loop
    vertex -5.9318516525781355 8.017638090205041 6.999999999999998
    vertex -7.267764178374477 7.96012745466075 8.999999999999998
    vertex -7.275507562554933 7.098689387574366 8.999999999999998
  endloop
endfacet
facet normal 0.8478640834492253 -0.11162342420073956 0.518330692865575
  outer loop
    vertex -5.9318516525781355 8.017638090205041 6.999999999999998
    vertex -7.275507562554933 7.098689387574366 8.999999999999998
    vertex -5.999999999999999 7.5 6.999999999999998
  endloop
endfacet
facet normal 0.8052287083294989 0.20802122487694427 0.5552782161067573
  outer loop
    vertex -5.999999999999999 7.5 6.999999999999998
    vertex -7.275507562554933 7.098689387574366 8.999999999999998
    vertex -7.060030519379455 6.264599975527644 8.999999999999998
  endloop
endfacet
facet normal 0.847864083449225 0.11162342420073955 0.5183306928655756
  outer loop
    vertex -5.999999999999999 7.5 6.999999999999998
    vertex -7.060030519379455 6.264599975527644 8.999999999999998
    vertex -5.9318516525781355 6.982361909794959 6.999999999999998
  endloop
endfacet
facet normal 0.7239513506611419 0.409341598903905 0.5552782161067578
  outer loop
    vertex -5.9318516525781355 6.982361909794959 6.999999999999998
    vertex -7.060030519379455 6.264599975527644 8.999999999999998
    vertex -6.636017453247801 5.514701033553644 8.999999999999998
  endloop
endfacet
facet normal 0.7900835473238079 0.3272633207093656 0.518330692865575
  outer loop
    vertex -5.9318516525781355 6.982361909794959 6.999999999999998
    vertex -6.636017453247801 5.514701033553644 8.999999999999998
    vertex -5.732050807568877 6.500000000000001 6.999999999999998
  endloop
endfacet
facet normal 0.5933379048314038 0.582766019434539 0.5552782161067573
  outer loop
    vertex -5.732050807568877 6.500000000000001 6.999999999999998
    vertex -6.636017453247801 5.514701033553644 8.999999999999998
    vertex -6.03236415390212 4.900096935281295 8.999999999999998
  endloop
endfacet
facet normal 0.6784601231230678 0.5206007627398601 0.5183306928655756
  outer loop
    vertex -5.732050807568877 6.500000000000001 6.999999999999998
    vertex -6.03236415390212 4.900096935281295 8.999999999999998
    vertex -5.414213562373094 6.085786437626906 6.999999999999998
  endloop
endfacet
facet normal 0.4222894613246536 0.7164758988070925 0.5552782161067574
  outer loop
    vertex -5.2902085961085765 4.462671934326565 8.999999999999998
    vertex -5.414213562373094 6.085786437626906 6.999999999999998
    vertex -6.03236415390212 4.900096935281295 8.999999999999998
  endloop
endfacet
facet normal 0.5206007627398598 0.6784601231230686 0.5183306928655749
  outer loop
    vertex -5.2902085961085765 4.462671934326565 8.999999999999998
    vertex -4.999999999999999 5.767949192431123 6.999999999999998
    vertex -5.414213562373094 6.085786437626906 6.999999999999998
  endloop
endfacet
facet normal 0.22246268889496013 0.8013591297083484 0.5552782161067572
  outer loop
    vertex -4.46012745466075 4.232235821625523 8.999999999999998
    vertex -4.999999999999999 5.767949192431123 6.999999999999998
    vertex -5.2902085961085765 4.462671934326565 8.999999999999998
  endloop
endfacet
facet normal 0.3272633207093651 0.790083547323808 0.5183306928655755
  outer loop
    vertex -4.46012745466075 4.232235821625523 8.999999999999998
    vertex -4.517638090205041 5.5681483474218645 6.999999999999998
    vertex -4.999999999999999 5.767949192431123 6.999999999999998
  endloop
endfacet
facet normal 0.007475451854049286 0.8316310602285577 0.5552782161067576
  outer loop
    vertex -3.5986893875743657 4.224492437445067 8.999999999999998
    vertex -4.517638090205041 5.5681483474218645 6.999999999999998
    vertex -4.46012745466075 4.232235821625523 8.999999999999998
  endloop
endfacet
facet normal 0.11162342420073876 0.8478640834492253 0.518330692865575
  outer loop
    vertex -3.5986893875743657 4.224492437445067 8.999999999999998
    vertex -3.9999999999999996 5.500000000000001 6.999999999999998
    vertex -4.517638090205041 5.5681483474218645 6.999999999999998
  endloop
endfacet
facet normal -0.20802122487694416 0.805228708329499 0.5552782161067573
  outer loop
    vertex -2.7645999755276436 4.439969480620545 8.999999999999998
    vertex -3.9999999999999996 5.500000000000001 6.999999999999998
    vertex -3.5986893875743657 4.224492437445067 8.999999999999998
  endloop
endfacet
facet normal -0.11162342420073901 0.847864083449225 0.5183306928655756
  outer loop
    vertex -2.7645999755276436 4.439969480620545 8.999999999999998
    vertex -3.482361909794957 5.5681483474218645 6.999999999999998
    vertex -3.9999999999999996 5.500000000000001 6.999999999999998
  endloop
endfacet
facet normal -0.40934159890390454 0.7239513506611422 0.5552782161067574
  outer loop
    vertex -2.0147010335536426 4.863982546752199 8.999999999999998
    vertex -3.482361909794957 5.5681483474218645 6.999999999999998
    vertex -2.7645999755276436 4.439969480620545 8.999999999999998
  endloop
endfacet
facet normal -0.3272633207093667 0.7900835473238073 0.5183306928655753
  outer loop
    vertex -2.0147010335536426 4.863982546752199 8.999999999999998
    vertex -2.9999999999999996 5.767949192431125 6.999999999999998
    vertex -3.482361909794957 5.5681483474218645 6.999999999999998
  endloop
endfacet
facet normal -0.5827660194345394 0.593337904831403 0.5552782161067576
  outer loop
    vertex -1.400096935281293 5.467635846097882 8.999999999999998
    vertex -2.9999999999999996 5.767949192431125 6.999999999999998
    vertex -2.0147010335536426 4.863982546752199 8.999999999999998
  endloop
endfacet
facet normal -0.5206007627398584 0.6784601231230698 0.5183306928655745
  outer loop
    vertex -1.400096935281293 5.467635846097882 8.999999999999998
    vertex -2.585786437626905 6.085786437626906 6.999999999999998
    vertex -2.9999999999999996 5.767949192431125 6.999999999999998
  endloop
endfacet
facet normal -0.7164758988070925 0.4222894613246536 0.5552782161067574
  outer loop
    vertex -0.9626719343265634 6.209791403891425 8.999999999999998
    vertex -2.585786437626905 6.085786437626906 6.999999999999998
    vertex -1.400096935281293 5.467635846097882 8.999999999999998
  endloop
endfacet
facet normal -0.6784601231230692 0.5206007627398584 0.5183306928655752
  outer loop
    vertex -2.2679491924311224 6.500000000000002 6.999999999999998
    vertex -2.585786437626905 6.085786437626906 6.999999999999998
    vertex -0.9626719343265634 6.209791403891425 8.999999999999998
  endloop
endfacet
facet normal -0.8013591297083487 0.22246268889495993 0.5552782161067573
  outer loop
    vertex -0.7322358216255229 7.03987254533925 8.999999999999998
    vertex -2.2679491924311224 6.500000000000002 6.999999999999998
    vertex -0.9626719343265634 6.209791403891425 8.999999999999998
  endloop
endfacet
facet normal -0.7900835473238079 0.32726332070936553 0.5183306928655754
  outer loop
    vertex -0.7322358216255229 7.03987254533925 8.999999999999998
    vertex -2.0681483474218636 6.98236190979496 6.999999999999998
    vertex -2.2679491924311224 6.500000000000002 6.999999999999998
  endloop
endfacet
facet normal -0.8316310602285577 0.007475451854049547 0.5552782161067574
  outer loop
    vertex -0.7244924374450668 7.901310612425637 8.999999999999998
    vertex -2.0681483474218636 6.98236190979496 6.999999999999998
    vertex -0.7322358216255229 7.03987254533925 8.999999999999998
  endloop
endfacet
facet normal -0.8478640834492253 0.11162342420073845 0.5183306928655752
  outer loop
    vertex -0.7244924374450668 7.901310612425637 8.999999999999998
    vertex -2.0000000000000004 7.5 6.999999999999998
    vertex -2.0681483474218636 6.98236190979496 6.999999999999998
  endloop
endfacet
facet normal -0.9238795325112871 0.38268343236508906 0.0
  outer loop
    vertex -2.0681483474218636 6.98236190979496 6.999999999999998
    vertex -2.2679491924311224 6.500000000000002 -0.013416000000002386
    vertex -2.2679491924311224 6.500000000000002 6.999999999999998
  endloop
endfacet
facet normal -0.9238795325112871 0.38268343236508906 0.0
  outer loop
    vertex -2.2679491924311224 6.500000000000002 -0.013416000000002386
    vertex -2.0681483474218636 6.98236190979496 6.999999999999998
    vertex -2.0681483474218636 6.98236190979496 -0.013416000000002386
  endloop
endfacet
facet normal 0.1305261922200518 0.9914448613738105 -3.712326548593113e-19
  outer loop
    vertex -4.517638090205041 5.5681483474218645 6.999999999999998
    vertex -3.9999999999999996 5.500000000000001 -0.013416000000002386
    vertex -4.517638090205041 5.5681483474218645 -0.013416000000002386
  endloop
endfacet
facet normal 0.1305261922200518 0.9914448613738105 -3.712326548593113e-19
  outer loop
    vertex -3.9999999999999996 5.500000000000001 -0.013416000000002386
    vertex -4.517638090205041 5.5681483474218645 6.999999999999998
    vertex -3.9999999999999996 5.500000000000001 6.999999999999998
  endloop
endfacet
facet normal -0.9914448613738105 0.13052619222005146 3.524739956156782e-19
  outer loop
    vertex -2.0000000000000004 7.5 6.999999999999998
    vertex -2.0681483474218636 6.98236190979496 -0.013416000000002386
    vertex -2.0681483474218636 6.98236190979496 6.999999999999998
  endloop
endfacet
facet normal -0.9914448613738105 0.13052619222005146 3.524739956156782e-19
  outer loop
    vertex -2.0681483474218636 6.98236190979496 -0.013416000000002386
    vertex -2.0000000000000004 7.5 6.999999999999998
    vertex -2.0000000000000004 7.5 -0.013416000000002386
  endloop
endfacet
facet normal -0.60876142900872 0.7933533402912357 -1.1281975737915066e-18
  outer loop
    vertex -2.9999999999999996 5.767949192431125 6.999999999999998
    vertex -2.585786437626905 6.085786437626906 -0.013416000000002386
    vertex -2.9999999999999996 5.767949192431125 -0.013416000000002386
  endloop
endfacet
facet normal -0.60876142900872 0.7933533402912357 -1.1281975737915066e-18
  outer loop
    vertex -2.585786437626905 6.085786437626906 -0.013416000000002386
    vertex -2.9999999999999996 5.767949192431125 6.999999999999998
    vertex -2.585786437626905 6.085786437626906 6.999999999999998
  endloop
endfacet
facet normal -0.7933533402912355 0.6087614290087201 1.2302286423599416e-32
  outer loop
    vertex -2.2679491924311224 6.500000000000002 6.999999999999998
    vertex -2.585786437626905 6.085786437626906 -0.013416000000002386
    vertex -2.585786437626905 6.085786437626906 6.999999999999998
  endloop
endfacet
facet normal -0.7933533402912355 0.6087614290087201 1.2302286423599416e-32
  outer loop
    vertex -2.585786437626905 6.085786437626906 -0.013416000000002386
    vertex -2.2679491924311224 6.500000000000002 6.999999999999998
    vertex -2.2679491924311224 6.500000000000002 -0.013416000000002386
  endloop
endfacet
facet normal -0.13052619222005146 0.9914448613738105 -0.0
  outer loop
    vertex -3.9999999999999996 5.500000000000001 6.999999999999998
    vertex -3.482361909794957 5.5681483474218645 -0.013416000000002386
    vertex -3.9999999999999996 5.500000000000001 -0.013416000000002386
  endloop
endfacet
facet normal -0.13052619222005146 0.9914448613738105 -0.0
  outer loop
    vertex -3.482361909794957 5.5681483474218645 -0.013416000000002386
    vertex -3.9999999999999996 5.500000000000001 6.999999999999998
    vertex -3.482361909794957 5.5681483474218645 6.999999999999998
  endloop
endfacet
facet normal -0.38268343236509184 0.923879532511286 1.0883990726402333e-18
  outer loop
    vertex -3.482361909794957 5.5681483474218645 6.999999999999998
    vertex -2.9999999999999996 5.767949192431125 -0.013416000000002386
    vertex -3.482361909794957 5.5681483474218645 -0.013416000000002386
  endloop
endfacet
facet normal -0.38268343236509184 0.923879532511286 1.0883990726402333e-18
  outer loop
    vertex -2.9999999999999996 5.767949192431125 -0.013416000000002386
    vertex -3.482361909794957 5.5681483474218645 6.999999999999998
    vertex -2.9999999999999996 5.767949192431125 6.999999999999998
  endloop
endfacet
facet normal -0.38268343236508906 -0.9238795325112871 1.8670418473066854e-32
  outer loop
    vertex -3.000000000000001 9.232050807568877 6.999999999999998
    vertex -3.482361909794959 9.431851652578136 -0.013416000000002386
    vertex -3.000000000000001 9.232050807568877 -0.013416000000002386
  endloop
endfacet
facet normal -0.38268343236508906 -0.9238795325112871 1.8670418473066854e-32
  outer loop
    vertex -3.482361909794959 9.431851652578136 -0.013416000000002386
    vertex -3.000000000000001 9.232050807568877 6.999999999999998
    vertex -3.482361909794959 9.431851652578136 6.999999999999998
  endloop
endfacet
facet normal 0.3826834323650914 -0.9238795325112862 0.0
  outer loop
    vertex -4.5176380902050415 9.431851652578136 6.999999999999998
    vertex -5.0 9.232050807568877 -0.013416000000002386
    vertex -4.5176380902050415 9.431851652578136 -0.013416000000002386
  endloop
endfacet
facet normal 0.3826834323650914 -0.9238795325112862 0.0
  outer loop
    vertex -5.0 9.232050807568877 -0.013416000000002386
    vertex -4.5176380902050415 9.431851652578136 6.999999999999998
    vertex -5.0 9.232050807568877 6.999999999999998
  endloop
endfacet
facet normal -0.130526192220052 -0.9914448613738105 -3.7123265485931063e-19
  outer loop
    vertex -3.482361909794959 9.431851652578136 6.999999999999998
    vertex -3.9999999999999996 9.5 -0.013416000000002386
    vertex -3.482361909794959 9.431851652578136 -0.013416000000002386
  endloop
endfacet
facet normal -0.130526192220052 -0.9914448613738105 -3.7123265485931063e-19
  outer loop
    vertex -3.9999999999999996 9.5 -0.013416000000002386
    vertex -3.482361909794959 9.431851652578136 6.999999999999998
    vertex -3.9999999999999996 9.5 6.999999999999998
  endloop
endfacet
facet normal 0.9914448613738105 -0.1305261922200518 -3.712326548593113e-19
  outer loop
    vertex -5.9318516525781355 8.017638090205041 -0.013416000000002386
    vertex -5.999999999999999 7.5 6.999999999999998
    vertex -5.999999999999999 7.5 -0.013416000000002386
  endloop
endfacet
facet normal 0.9914448613738105 -0.1305261922200518 -3.712326548593113e-19
  outer loop
    vertex -5.999999999999999 7.5 6.999999999999998
    vertex -5.9318516525781355 8.017638090205041 -0.013416000000002386
    vertex -5.9318516525781355 8.017638090205041 6.999999999999998
  endloop
endfacet
facet normal 0.7933533402912347 -0.6087614290087213 -0.0
  outer loop
    vertex -5.414213562373094 8.914213562373094 -0.013416000000002386
    vertex -5.732050807568877 8.5 6.999999999999998
    vertex -5.732050807568877 8.5 -0.013416000000002386
  endloop
endfacet
facet normal 0.7933533402912347 -0.6087614290087213 -0.0
  outer loop
    vertex -5.732050807568877 8.5 6.999999999999998
    vertex -5.414213562373094 8.914213562373094 -0.013416000000002386
    vertex -5.414213562373094 8.914213562373094 6.999999999999998
  endloop
endfacet
facet normal 0.9238795325112871 0.38268343236508906 -0.0
  outer loop
    vertex -5.9318516525781355 6.982361909794959 -0.013416000000002386
    vertex -5.732050807568877 6.500000000000001 6.999999999999998
    vertex -5.732050807568877 6.500000000000001 -0.013416000000002386
  endloop
endfacet
facet normal 0.9238795325112871 0.38268343236508906 -0.0
  outer loop
    vertex -5.732050807568877 6.500000000000001 6.999999999999998
    vertex -5.9318516525781355 6.982361909794959 -0.013416000000002386
    vertex -5.9318516525781355 6.982361909794959 6.999999999999998
  endloop
endfacet
facet normal 0.38268343236508906 0.9238795325112871 -0.0
  outer loop
    vertex -4.999999999999999 5.767949192431123 6.999999999999998
    vertex -4.517638090205041 5.5681483474218645 -0.013416000000002386
    vertex -4.999999999999999 5.767949192431123 -0.013416000000002386
  endloop
endfacet
facet normal 0.38268343236508906 0.9238795325112871 -0.0
  outer loop
    vertex -4.517638090205041 5.5681483474218645 -0.013416000000002386
    vertex -4.999999999999999 5.767949192431123 6.999999999999998
    vertex -4.517638090205041 5.5681483474218645 6.999999999999998
  endloop
endfacet
facet normal 0.1305261922200516 -0.9914448613738105 -1.3188833309360894e-33
  outer loop
    vertex -3.9999999999999996 9.5 6.999999999999998
    vertex -4.5176380902050415 9.431851652578136 -0.013416000000002386
    vertex -3.9999999999999996 9.5 -0.013416000000002386
  endloop
endfacet
facet normal 0.1305261922200516 -0.9914448613738105 -1.3188833309360894e-33
  outer loop
    vertex -4.5176380902050415 9.431851652578136 -0.013416000000002386
    vertex -3.9999999999999996 9.5 6.999999999999998
    vertex -4.5176380902050415 9.431851652578136 6.999999999999998
  endloop
endfacet
facet normal 0.6087614290087203 -0.7933533402912354 -1.1281975737914971e-18
  outer loop
    vertex -5.0 9.232050807568877 6.999999999999998
    vertex -5.414213562373094 8.914213562373094 -0.013416000000002386
    vertex -5.0 9.232050807568877 -0.013416000000002386
  endloop
endfacet
facet normal 0.6087614290087203 -0.7933533402912354 -1.1281975737914971e-18
  outer loop
    vertex -5.414213562373094 8.914213562373094 -0.013416000000002386
    vertex -5.0 9.232050807568877 6.999999999999998
    vertex -5.414213562373094 8.914213562373094 6.999999999999998
  endloop
endfacet
facet normal 0.9238795325112871 -0.38268343236508906 1.8670418473066854e-32
  outer loop
    vertex -5.732050807568877 8.5 -0.013416000000002386
    vertex -5.9318516525781355 8.017638090205041 6.999999999999998
    vertex -5.9318516525781355 8.017638090205041 -0.013416000000002386
  endloop
endfacet
facet normal 0.9238795325112871 -0.38268343236508906 1.8670418473066854e-32
  outer loop
    vertex -5.9318516525781355 8.017638090205041 6.999999999999998
    vertex -5.732050807568877 8.5 -0.013416000000002386
    vertex -5.732050807568877 8.5 6.999999999999998
  endloop
endfacet
facet normal 0.6087614290087213 0.7933533402912347 -0.0
  outer loop
    vertex -5.414213562373094 6.085786437626906 6.999999999999998
    vertex -4.999999999999999 5.767949192431123 -0.013416000000002386
    vertex -5.414213562373094 6.085786437626906 -0.013416000000002386
  endloop
endfacet
facet normal 0.6087614290087213 0.7933533402912347 -0.0
  outer loop
    vertex -4.999999999999999 5.767949192431123 -0.013416000000002386
    vertex -5.414213562373094 6.085786437626906 6.999999999999998
    vertex -4.999999999999999 5.767949192431123 6.999999999999998
  endloop
endfacet
facet normal 0.9914448613738105 0.1305261922200518 -3.712326548593113e-19
  outer loop
    vertex -5.999999999999999 7.5 -0.013416000000002386
    vertex -5.9318516525781355 6.982361909794959 6.999999999999998
    vertex -5.9318516525781355 6.982361909794959 -0.013416000000002386
  endloop
endfacet
facet normal 0.9914448613738105 0.1305261922200518 -3.712326548593113e-19
  outer loop
    vertex -5.9318516525781355 6.982361909794959 6.999999999999998
    vertex -5.999999999999999 7.5 -0.013416000000002386
    vertex -5.999999999999999 7.5 6.999999999999998
  endloop
endfacet
facet normal -0.9914448613738105 -0.13052619222005213 3.524739956156883e-19
  outer loop
    vertex -2.0681483474218645 8.017638090205043 6.999999999999998
    vertex -2.0000000000000004 7.5 -0.013416000000002386
    vertex -2.0000000000000004 7.5 6.999999999999998
  endloop
endfacet
facet normal -0.9914448613738105 -0.13052619222005213 3.524739956156883e-19
  outer loop
    vertex -2.0000000000000004 7.5 -0.013416000000002386
    vertex -2.0681483474218645 8.017638090205043 6.999999999999998
    vertex -2.0681483474218645 8.017638090205043 -0.013416000000002386
  endloop
endfacet
facet normal -0.6087614290087197 -0.7933533402912359 1.1281975737915039e-18
  outer loop
    vertex -2.585786437626906 8.914213562373096 6.999999999999998
    vertex -3.000000000000001 9.232050807568877 -0.013416000000002386
    vertex -2.585786437626906 8.914213562373096 -0.013416000000002386
  endloop
endfacet
facet normal -0.6087614290087197 -0.7933533402912359 1.1281975737915039e-18
  outer loop
    vertex -3.000000000000001 9.232050807568877 -0.013416000000002386
    vertex -2.585786437626906 8.914213562373096 6.999999999999998
    vertex -3.000000000000001 9.232050807568877 6.999999999999998
  endloop
endfacet
facet normal -0.7933533402912349 -0.608761429008721 1.1281975737915149e-18
  outer loop
    vertex -2.585786437626906 8.914213562373096 6.999999999999998
    vertex -2.2679491924311237 8.500000000000002 -0.013416000000002386
    vertex -2.2679491924311237 8.500000000000002 6.999999999999998
  endloop
endfacet
facet normal -0.7933533402912349 -0.608761429008721 1.1281975737915149e-18
  outer loop
    vertex -2.2679491924311237 8.500000000000002 -0.013416000000002386
    vertex -2.585786437626906 8.914213562373096 6.999999999999998
    vertex -2.585786437626906 8.914213562373096 -0.013416000000002386
  endloop
endfacet
facet normal 0.7933533402912347 0.6087614290087213 -0.0
  outer loop
    vertex -5.732050807568877 6.500000000000001 -0.013416000000002386
    vertex -5.414213562373094 6.085786437626906 6.999999999999998
    vertex -5.414213562373094 6.085786437626906 -0.013416000000002386
  endloop
endfacet
facet normal 0.7933533402912347 0.6087614290087213 -0.0
  outer loop
    vertex -5.414213562373094 6.085786437626906 6.999999999999998
    vertex -5.732050807568877 6.500000000000001 -0.013416000000002386
    vertex -5.732050807568877 6.500000000000001 6.999999999999998
  endloop
endfacet
facet normal -0.9238795325112867 -0.3826834323650902 0.0
  outer loop
    vertex -2.2679491924311237 8.500000000000002 6.999999999999998
    vertex -2.0681483474218645 8.017638090205043 -0.013416000000002386
    vertex -2.0681483474218645 8.017638090205043 6.999999999999998
  endloop
endfacet
facet normal -0.9238795325112867 -0.3826834323650902 0.0
  outer loop
    vertex -2.0681483474218645 8.017638090205043 -0.013416000000002386
    vertex -2.2679491924311237 8.500000000000002 6.999999999999998
    vertex -2.2679491924311237 8.500000000000002 -0.013416000000002386
  endloop
endfacet
endsolid Уголок-10-крепление-центр
