solid Гайка для шпильки 6мм
facet normal 0.0 0.0 -1.0
  outer loop
    vertex 10.0 20.0 0.0
    vertex 0.0 5.0 0.0
    vertex 0.0 10.0 0.0
  endloop
endfacet
facet normal 0.0 0.0 -1.0
  outer loop
    vertex 0.0 5.0 0.0
    vertex 10.0 20.0 0.0
    vertex 0.042775693130948 4.347369038899743 0.0
  endloop
endfacet
facet normal 0.0 0.0 -1.0
  outer loop
    vertex 0.042775693130948 4.347369038899743 0.0
    vertex 10.0 20.0 0.0
    vertex 0.17037086855465877 3.7059047744873967 0.0
  endloop
endfacet
facet normal 0.0 0.0 -1.0
  outer loop
    vertex 0.17037086855465877 3.7059047744873967 0.0
    vertex 10.0 20.0 0.0
    vertex 0.38060233744356614 3.086582838174551 0.0
  endloop
endfacet
facet normal 0.0 0.0 -1.0
  outer loop
    vertex 0.38060233744356614 3.086582838174551 0.0
    vertex 10.0 20.0 0.0
    vertex 2.401923788646685 6.500000000000001 0.0
  endloop
endfacet
facet normal 0.0 0.0 -1.0
  outer loop
    vertex 0.38060233744356614 3.086582838174551 0.0
    vertex 2.401923788646685 6.500000000000001 0.0
    vertex 0.6698729810778062 2.5000000000000004 0.0
  endloop
endfacet
facet normal 0.0 0.0 -1.0
  outer loop
    vertex 0.6698729810778062 2.5000000000000004 0.0
    vertex 2.401923788646685 6.500000000000001 0.0
    vertex 2.102222521132796 5.776457135307563 0.0
  endloop
endfacet
facet normal 0.0 0.0 -1.0
  outer loop
    vertex 0.6698729810778062 2.5000000000000004 0.0
    vertex 2.102222521132796 5.776457135307563 0.0
    vertex 1.033233298543824 1.9561928549563972 0.0
  endloop
endfacet
facet normal 0.0 0.0 -1.0
  outer loop
    vertex 1.033233298543824 1.9561928549563972 0.0
    vertex 2.102222521132796 5.776457135307563 0.0
    vertex 1.464466094067262 1.4644660940672627 0.0
  endloop
endfacet
facet normal 0.0 0.0 -1.0
  outer loop
    vertex 1.464466094067262 1.4644660940672627 0.0
    vertex 2.102222521132796 5.776457135307563 0.0
    vertex 2.0000000000000004 5.000000000000001 0.0
  endloop
endfacet
facet normal 0.0 0.0 -1.0
  outer loop
    vertex 1.464466094067262 1.4644660940672627 0.0
    vertex 2.0000000000000004 5.000000000000001 0.0
    vertex 1.956192854956396 1.0332332985438246 0.0
  endloop
endfacet
facet normal 0.0 0.0 -1.0
  outer loop
    vertex 2.401923788646685 6.500000000000001 0.0
    vertex 10.0 20.0 0.0
    vertex 2.878679656440358 7.121320343559642 0.0
  endloop
endfacet
facet normal 0.0 0.0 -1.0
  outer loop
    vertex 2.878679656440358 7.121320343559642 0.0
    vertex 10.0 20.0 0.0
    vertex 3.5000000000000004 7.598076211353315 0.0
  endloop
endfacet
facet normal 0.0 0.0 -1.0
  outer loop
    vertex 3.5000000000000004 7.598076211353315 0.0
    vertex 10.0 20.0 0.0
    vertex 4.223542864692438 7.897777478867204 0.0
  endloop
endfacet
facet normal 0.0 0.0 -1.0
  outer loop
    vertex 4.223542864692438 7.897777478867204 0.0
    vertex 10.0 20.0 0.0
    vertex 5.0 7.999999999999999 0.0
  endloop
endfacet
facet normal 0.0 0.0 -1.0
  outer loop
    vertex 5.0 7.999999999999999 0.0
    vertex 10.0 20.0 0.0
    vertex 5.776457135307563 7.897777478867204 0.0
  endloop
endfacet
facet normal 0.0 0.0 -1.0
  outer loop
    vertex 5.776457135307563 7.897777478867204 0.0
    vertex 10.0 20.0 0.0
    vertex 6.499999999999999 7.598076211353315 0.0
  endloop
endfacet
facet normal 0.0 0.0 -1.0
  outer loop
    vertex 6.499999999999999 7.598076211353315 0.0
    vertex 10.0 20.0 0.0
    vertex 7.121320343559642 7.121320343559642 0.0
  endloop
endfacet
facet normal 0.0 0.0 -1.0
  outer loop
    vertex 7.121320343559642 7.121320343559642 0.0
    vertex 10.0 20.0 0.0
    vertex 7.598076211353315 6.499999999999999 0.0
  endloop
endfacet
facet normal 0.0 0.0 -1.0
  outer loop
    vertex 7.598076211353315 6.499999999999999 0.0
    vertex 10.0 20.0 0.0
    vertex 7.897777478867204 5.776457135307562 0.0
  endloop
endfacet
facet normal 0.0 0.0 -1.0
  outer loop
    vertex 7.897777478867204 5.776457135307562 0.0
    vertex 10.0 20.0 0.0
    vertex 7.999999999999999 5.0 0.0
  endloop
endfacet
facet normal 0.0 0.0 -1.0
  outer loop
    vertex 2.0000000000000004 5.000000000000001 0.0
    vertex 2.499999999999999 0.669872981077807 0.0
    vertex 1.956192854956396 1.0332332985438246 0.0
  endloop
endfacet
facet normal 0.0 0.0 -1.0
  outer loop
    vertex 2.499999999999999 0.669872981077807 0.0
    vertex 2.0000000000000004 5.000000000000001 0.0
    vertex 2.102222521132795 4.22354286469244 0.0
  endloop
endfacet
facet normal 0.0 0.0 -1.0
  outer loop
    vertex 2.499999999999999 0.669872981077807 0.0
    vertex 2.102222521132795 4.22354286469244 0.0
    vertex 2.401923788646684 3.5000000000000013 0.0
  endloop
endfacet
facet normal 0.0 0.0 -1.0
  outer loop
    vertex 2.499999999999999 0.669872981077807 0.0
    vertex 2.401923788646684 3.5000000000000013 0.0
    vertex 2.8786796564403567 2.878679656440359 0.0
  endloop
endfacet
facet normal 0.0 0.0 -1.0
  outer loop
    vertex 2.499999999999999 0.669872981077807 0.0
    vertex 2.8786796564403567 2.878679656440359 0.0
    vertex 3.086582838174551 0.38060233744356614 0.0
  endloop
endfacet
facet normal 0.0 0.0 -1.0
  outer loop
    vertex 3.086582838174551 0.38060233744356614 0.0
    vertex 2.8786796564403567 2.878679656440359 0.0
    vertex 3.499999999999999 2.4019237886466853 0.0
  endloop
endfacet
facet normal 0.0 0.0 -1.0
  outer loop
    vertex 3.086582838174551 0.38060233744356614 0.0
    vertex 3.499999999999999 2.4019237886466853 0.0
    vertex 3.7059047744873967 0.17037086855465877 0.0
  endloop
endfacet
facet normal 0.0 0.0 -1.0
  outer loop
    vertex 3.7059047744873967 0.17037086855465877 0.0
    vertex 3.499999999999999 2.4019237886466853 0.0
    vertex 4.223542864692435 2.1022225211327963 0.0
  endloop
endfacet
facet normal 0.0 0.0 -1.0
  outer loop
    vertex 3.7059047744873967 0.17037086855465877 0.0
    vertex 4.223542864692435 2.1022225211327963 0.0
    vertex 4.347369038899743 0.042775693130948 0.0
  endloop
endfacet
facet normal 0.0 0.0 -1.0
  outer loop
    vertex 4.347369038899743 0.042775693130948 0.0
    vertex 4.223542864692435 2.1022225211327963 0.0
    vertex 4.999999999999999 2.0000000000000004 0.0
  endloop
endfacet
facet normal 0.0 0.0 -1.0
  outer loop
    vertex 4.347369038899743 0.042775693130948 0.0
    vertex 4.999999999999999 2.0000000000000004 0.0
    vertex 5.000000000000001 0.0 0.0
  endloop
endfacet
facet normal 0.0 0.0 -1.0
  outer loop
    vertex 5.000000000000001 0.0 0.0
    vertex 4.999999999999999 2.0000000000000004 0.0
    vertex 5.77645713530756 2.102222521132795 0.0
  endloop
endfacet
facet normal 0.0 0.0 -1.0
  outer loop
    vertex 5.000000000000001 0.0 0.0
    vertex 5.77645713530756 2.102222521132795 0.0
    vertex 10.0 0.0 0.0
  endloop
endfacet
facet normal 0.0 0.0 -1.0
  outer loop
    vertex 10.0 0.0 0.0
    vertex 5.77645713530756 2.102222521132795 0.0
    vertex 6.499999999999998 2.401923788646683 0.0
  endloop
endfacet
facet normal 0.0 0.0 -1.0
  outer loop
    vertex 10.0 0.0 0.0
    vertex 6.499999999999998 2.401923788646683 0.0
    vertex 7.121320343559642 2.8786796564403576 0.0
  endloop
endfacet
facet normal 0.0 0.0 -1.0
  outer loop
    vertex 10.0 0.0 0.0
    vertex 7.121320343559642 2.8786796564403576 0.0
    vertex 7.598076211353314 3.499999999999999 0.0
  endloop
endfacet
facet normal 0.0 0.0 -1.0
  outer loop
    vertex 10.0 0.0 0.0
    vertex 7.598076211353314 3.499999999999999 0.0
    vertex 7.897777478867204 4.223542864692435 0.0
  endloop
endfacet
facet normal 0.0 0.0 -1.0
  outer loop
    vertex 10.0 0.0 0.0
    vertex 7.897777478867204 4.223542864692435 0.0
    vertex 7.999999999999999 5.0 0.0
  endloop
endfacet
facet normal 0.0 0.0 -1.0
  outer loop
    vertex 10.0 0.0 0.0
    vertex 7.999999999999999 5.0 0.0
    vertex 10.0 20.0 0.0
  endloop
endfacet
facet normal -0.0 -0.0 1.0
  outer loop
    vertex 2.499999999999999 0.669872981077807 40.0
    vertex 2.0000000000000004 5.000000000000001 40.0
    vertex 1.956192854956396 1.0332332985438246 40.0
  endloop
endfacet
facet normal -0.0 -0.0 1.0
  outer loop
    vertex 2.0000000000000004 5.000000000000001 40.0
    vertex 2.499999999999999 0.669872981077807 40.0
    vertex 2.102222521132795 4.22354286469244 40.0
  endloop
endfacet
facet normal -0.0 -0.0 1.0
  outer loop
    vertex 2.102222521132795 4.22354286469244 40.0
    vertex 2.499999999999999 0.669872981077807 40.0
    vertex 2.401923788646684 3.5000000000000013 40.0
  endloop
endfacet
facet normal -0.0 -0.0 1.0
  outer loop
    vertex 2.401923788646684 3.5000000000000013 40.0
    vertex 2.499999999999999 0.669872981077807 40.0
    vertex 2.8786796564403567 2.878679656440359 40.0
  endloop
endfacet
facet normal -0.0 -0.0 1.0
  outer loop
    vertex 2.8786796564403567 2.878679656440359 40.0
    vertex 2.499999999999999 0.669872981077807 40.0
    vertex 3.086582838174551 0.38060233744356614 40.0
  endloop
endfacet
facet normal -0.0 -0.0 1.0
  outer loop
    vertex 2.8786796564403567 2.878679656440359 40.0
    vertex 3.086582838174551 0.38060233744356614 40.0
    vertex 3.499999999999999 2.4019237886466853 40.0
  endloop
endfacet
facet normal -0.0 -0.0 1.0
  outer loop
    vertex 3.499999999999999 2.4019237886466853 40.0
    vertex 3.086582838174551 0.38060233744356614 40.0
    vertex 3.7059047744873967 0.17037086855465877 40.0
  endloop
endfacet
facet normal -0.0 -0.0 1.0
  outer loop
    vertex 3.499999999999999 2.4019237886466853 40.0
    vertex 3.7059047744873967 0.17037086855465877 40.0
    vertex 4.223542864692435 2.1022225211327963 40.0
  endloop
endfacet
facet normal -0.0 -0.0 1.0
  outer loop
    vertex 4.223542864692435 2.1022225211327963 40.0
    vertex 3.7059047744873967 0.17037086855465877 40.0
    vertex 4.347369038899743 0.042775693130948 40.0
  endloop
endfacet
facet normal -0.0 -0.0 1.0
  outer loop
    vertex 4.223542864692435 2.1022225211327963 40.0
    vertex 4.347369038899743 0.042775693130948 40.0
    vertex 4.999999999999999 2.0000000000000004 40.0
  endloop
endfacet
facet normal -0.0 -0.0 1.0
  outer loop
    vertex 4.999999999999999 2.0000000000000004 40.0
    vertex 4.347369038899743 0.042775693130948 40.0
    vertex 5.000000000000001 0.0 40.0
  endloop
endfacet
facet normal -0.0 -0.0 1.0
  outer loop
    vertex 4.999999999999999 2.0000000000000004 40.0
    vertex 5.000000000000001 0.0 40.0
    vertex 5.77645713530756 2.102222521132795 40.0
  endloop
endfacet
facet normal -0.0 -0.0 1.0
  outer loop
    vertex 5.77645713530756 2.102222521132795 40.0
    vertex 5.000000000000001 0.0 40.0
    vertex 10.0 0.0 40.0
  endloop
endfacet
facet normal -0.0 -0.0 1.0
  outer loop
    vertex 5.77645713530756 2.102222521132795 40.0
    vertex 10.0 0.0 40.0
    vertex 6.499999999999998 2.401923788646683 40.0
  endloop
endfacet
facet normal -0.0 -0.0 1.0
  outer loop
    vertex 6.499999999999998 2.401923788646683 40.0
    vertex 10.0 0.0 40.0
    vertex 7.121320343559642 2.8786796564403576 40.0
  endloop
endfacet
facet normal -0.0 -0.0 1.0
  outer loop
    vertex 7.121320343559642 2.8786796564403576 40.0
    vertex 10.0 0.0 40.0
    vertex 7.598076211353314 3.499999999999999 40.0
  endloop
endfacet
facet normal -0.0 -0.0 1.0
  outer loop
    vertex 7.598076211353314 3.499999999999999 40.0
    vertex 10.0 0.0 40.0
    vertex 7.897777478867204 4.223542864692435 40.0
  endloop
endfacet
facet normal -0.0 -0.0 1.0
  outer loop
    vertex 7.897777478867204 4.223542864692435 40.0
    vertex 10.0 0.0 40.0
    vertex 7.999999999999999 5.0 40.0
  endloop
endfacet
facet normal -0.0 -0.0 1.0
  outer loop
    vertex 0.042775693130948 4.347369038899743 40.0
    vertex 0.0 10.0 40.0
    vertex 0.0 5.0 40.0
  endloop
endfacet
facet normal -0.0 -0.0 1.0
  outer loop
    vertex 0.0 10.0 40.0
    vertex 0.042775693130948 4.347369038899743 40.0
    vertex 10.0 20.0 40.0
  endloop
endfacet
facet normal -0.0 -0.0 1.0
  outer loop
    vertex 10.0 20.0 40.0
    vertex 0.042775693130948 4.347369038899743 40.0
    vertex 0.17037086855465877 3.7059047744873967 40.0
  endloop
endfacet
facet normal -0.0 -0.0 1.0
  outer loop
    vertex 10.0 20.0 40.0
    vertex 0.17037086855465877 3.7059047744873967 40.0
    vertex 0.38060233744356614 3.086582838174551 40.0
  endloop
endfacet
facet normal -0.0 -0.0 1.0
  outer loop
    vertex 10.0 20.0 40.0
    vertex 0.38060233744356614 3.086582838174551 40.0
    vertex 2.401923788646685 6.500000000000001 40.0
  endloop
endfacet
facet normal -0.0 -0.0 1.0
  outer loop
    vertex 2.401923788646685 6.500000000000001 40.0
    vertex 0.38060233744356614 3.086582838174551 40.0
    vertex 0.6698729810778062 2.5000000000000004 40.0
  endloop
endfacet
facet normal -0.0 -0.0 1.0
  outer loop
    vertex 2.401923788646685 6.500000000000001 40.0
    vertex 0.6698729810778062 2.5000000000000004 40.0
    vertex 2.102222521132796 5.776457135307563 40.0
  endloop
endfacet
facet normal -0.0 -0.0 1.0
  outer loop
    vertex 2.102222521132796 5.776457135307563 40.0
    vertex 0.6698729810778062 2.5000000000000004 40.0
    vertex 1.033233298543824 1.9561928549563972 40.0
  endloop
endfacet
facet normal -0.0 -0.0 1.0
  outer loop
    vertex 2.102222521132796 5.776457135307563 40.0
    vertex 1.033233298543824 1.9561928549563972 40.0
    vertex 1.464466094067262 1.4644660940672627 40.0
  endloop
endfacet
facet normal -0.0 -0.0 1.0
  outer loop
    vertex 2.102222521132796 5.776457135307563 40.0
    vertex 1.464466094067262 1.4644660940672627 40.0
    vertex 2.0000000000000004 5.000000000000001 40.0
  endloop
endfacet
facet normal -0.0 -0.0 1.0
  outer loop
    vertex 2.0000000000000004 5.000000000000001 40.0
    vertex 1.464466094067262 1.4644660940672627 40.0
    vertex 1.956192854956396 1.0332332985438246 40.0
  endloop
endfacet
facet normal -0.0 -0.0 1.0
  outer loop
    vertex 10.0 20.0 40.0
    vertex 2.401923788646685 6.500000000000001 40.0
    vertex 2.878679656440358 7.121320343559642 40.0
  endloop
endfacet
facet normal -0.0 -0.0 1.0
  outer loop
    vertex 10.0 20.0 40.0
    vertex 2.878679656440358 7.121320343559642 40.0
    vertex 3.5000000000000004 7.598076211353315 40.0
  endloop
endfacet
facet normal -0.0 -0.0 1.0
  outer loop
    vertex 10.0 20.0 40.0
    vertex 3.5000000000000004 7.598076211353315 40.0
    vertex 4.223542864692438 7.897777478867204 40.0
  endloop
endfacet
facet normal -0.0 -0.0 1.0
  outer loop
    vertex 10.0 20.0 40.0
    vertex 4.223542864692438 7.897777478867204 40.0
    vertex 5.0 7.999999999999999 40.0
  endloop
endfacet
facet normal -0.0 -0.0 1.0
  outer loop
    vertex 10.0 20.0 40.0
    vertex 5.0 7.999999999999999 40.0
    vertex 5.776457135307563 7.897777478867204 40.0
  endloop
endfacet
facet normal -0.0 -0.0 1.0
  outer loop
    vertex 10.0 20.0 40.0
    vertex 5.776457135307563 7.897777478867204 40.0
    vertex 6.499999999999999 7.598076211353315 40.0
  endloop
endfacet
facet normal -0.0 -0.0 1.0
  outer loop
    vertex 10.0 20.0 40.0
    vertex 6.499999999999999 7.598076211353315 40.0
    vertex 7.121320343559642 7.121320343559642 40.0
  endloop
endfacet
facet normal -0.0 -0.0 1.0
  outer loop
    vertex 10.0 20.0 40.0
    vertex 7.121320343559642 7.121320343559642 40.0
    vertex 7.598076211353315 6.499999999999999 40.0
  endloop
endfacet
facet normal -0.0 -0.0 1.0
  outer loop
    vertex 10.0 20.0 40.0
    vertex 7.598076211353315 6.499999999999999 40.0
    vertex 7.897777478867204 5.776457135307562 40.0
  endloop
endfacet
facet normal -0.0 -0.0 1.0
  outer loop
    vertex 10.0 20.0 40.0
    vertex 7.897777478867204 5.776457135307562 40.0
    vertex 7.999999999999999 5.0 40.0
  endloop
endfacet
facet normal -0.0 -0.0 1.0
  outer loop
    vertex 10.0 20.0 40.0
    vertex 7.999999999999999 5.0 40.0
    vertex 10.0 0.0 40.0
  endloop
endfacet
facet normal -0.0 -1.0 -0.0
  outer loop
    vertex 10.0 0.0 40.0
    vertex 5.000000000000001 0.0 0.0
    vertex 10.0 0.0 0.0
  endloop
endfacet
facet normal -0.0 -1.0 -0.0
  outer loop
    vertex 5.000000000000001 0.0 0.0
    vertex 10.0 0.0 40.0
    vertex 5.000000000000001 0.0 40.0
  endloop
endfacet
facet normal -0.06540312923014317 -0.9978589232386036 -0.0
  outer loop
    vertex 5.000000000000001 0.0 40.0
    vertex 4.347369038899743 0.042775693130948 0.0
    vertex 5.000000000000001 0.0 0.0
  endloop
endfacet
facet normal -0.06540312923014317 -0.9978589232386036 -0.0
  outer loop
    vertex 4.347369038899743 0.042775693130948 0.0
    vertex 5.000000000000001 0.0 40.0
    vertex 4.347369038899743 0.042775693130948 40.0
  endloop
endfacet
facet normal -0.1950903220161284 -0.9807852804032304 -0.0
  outer loop
    vertex 4.347369038899743 0.042775693130948 40.0
    vertex 3.7059047744873967 0.17037086855465877 0.0
    vertex 4.347369038899743 0.042775693130948 0.0
  endloop
endfacet
facet normal -0.1950903220161284 -0.9807852804032304 -0.0
  outer loop
    vertex 3.7059047744873967 0.17037086855465877 0.0
    vertex 4.347369038899743 0.042775693130948 40.0
    vertex 3.7059047744873967 0.17037086855465877 40.0
  endloop
endfacet
facet normal -0.3214394653031608 -0.9469301294951059 -0.0
  outer loop
    vertex 3.7059047744873967 0.17037086855465877 40.0
    vertex 3.086582838174551 0.38060233744356614 0.0
    vertex 3.7059047744873967 0.17037086855465877 0.0
  endloop
endfacet
facet normal -0.3214394653031608 -0.9469301294951059 -0.0
  outer loop
    vertex 3.086582838174551 0.38060233744356614 0.0
    vertex 3.7059047744873967 0.17037086855465877 40.0
    vertex 3.086582838174551 0.38060233744356614 40.0
  endloop
endfacet
facet normal -0.4422886902190014 -0.8968727415326884 -0.0
  outer loop
    vertex 3.086582838174551 0.38060233744356614 40.0
    vertex 2.499999999999999 0.669872981077807 0.0
    vertex 3.086582838174551 0.38060233744356614 0.0
  endloop
endfacet
facet normal -0.4422886902190014 -0.8968727415326884 -0.0
  outer loop
    vertex 2.499999999999999 0.669872981077807 0.0
    vertex 3.086582838174551 0.38060233744356614 40.0
    vertex 2.499999999999999 0.669872981077807 40.0
  endloop
endfacet
facet normal -0.5555702330196025 -0.8314696123025451 -0.0
  outer loop
    vertex 2.499999999999999 0.669872981077807 40.0
    vertex 1.956192854956396 1.0332332985438246 0.0
    vertex 2.499999999999999 0.669872981077807 0.0
  endloop
endfacet
facet normal -0.5555702330196025 -0.8314696123025451 -0.0
  outer loop
    vertex 1.956192854956396 1.0332332985438246 0.0
    vertex 2.499999999999999 0.669872981077807 40.0
    vertex 1.956192854956396 1.0332332985438246 40.0
  endloop
endfacet
facet normal -0.6593458151000691 -0.7518398074789773 -0.0
  outer loop
    vertex 1.956192854956396 1.0332332985438246 40.0
    vertex 1.464466094067262 1.4644660940672627 0.0
    vertex 1.956192854956396 1.0332332985438246 0.0
  endloop
endfacet
facet normal -0.6593458151000691 -0.7518398074789773 -0.0
  outer loop
    vertex 1.464466094067262 1.4644660940672627 0.0
    vertex 1.956192854956396 1.0332332985438246 40.0
    vertex 1.464466094067262 1.4644660940672627 40.0
  endloop
endfacet
facet normal -0.7518398074789775 -0.6593458151000688 -0.0
  outer loop
    vertex 1.033233298543824 1.9561928549563972 40.0
    vertex 1.464466094067262 1.4644660940672627 0.0
    vertex 1.464466094067262 1.4644660940672627 40.0
  endloop
endfacet
facet normal -0.7518398074789775 -0.6593458151000688 -0.0
  outer loop
    vertex 1.464466094067262 1.4644660940672627 0.0
    vertex 1.033233298543824 1.9561928549563972 40.0
    vertex 1.033233298543824 1.9561928549563972 0.0
  endloop
endfacet
facet normal -0.8314696123025451 -0.5555702330196025 -0.0
  outer loop
    vertex 0.6698729810778062 2.5000000000000004 40.0
    vertex 1.033233298543824 1.9561928549563972 0.0
    vertex 1.033233298543824 1.9561928549563972 40.0
  endloop
endfacet
facet normal -0.8314696123025451 -0.5555702330196025 -0.0
  outer loop
    vertex 1.033233298543824 1.9561928549563972 0.0
    vertex 0.6698729810778062 2.5000000000000004 40.0
    vertex 0.6698729810778062 2.5000000000000004 0.0
  endloop
endfacet
facet normal -0.8968727415326886 -0.44228869021900097 -0.0
  outer loop
    vertex 0.38060233744356614 3.086582838174551 40.0
    vertex 0.6698729810778062 2.5000000000000004 0.0
    vertex 0.6698729810778062 2.5000000000000004 40.0
  endloop
endfacet
facet normal -0.8968727415326886 -0.44228869021900097 -0.0
  outer loop
    vertex 0.6698729810778062 2.5000000000000004 0.0
    vertex 0.38060233744356614 3.086582838174551 40.0
    vertex 0.38060233744356614 3.086582838174551 0.0
  endloop
endfacet
facet normal -0.946930129495106 -0.32143946530316103 -0.0
  outer loop
    vertex 0.17037086855465877 3.7059047744873967 40.0
    vertex 0.38060233744356614 3.086582838174551 0.0
    vertex 0.38060233744356614 3.086582838174551 40.0
  endloop
endfacet
facet normal -0.946930129495106 -0.32143946530316103 -0.0
  outer loop
    vertex 0.38060233744356614 3.086582838174551 0.0
    vertex 0.17037086855465877 3.7059047744873967 40.0
    vertex 0.17037086855465877 3.7059047744873967 0.0
  endloop
endfacet
facet normal -0.9807852804032304 -0.19509032201612858 -0.0
  outer loop
    vertex 0.042775693130948 4.347369038899743 40.0
    vertex 0.17037086855465877 3.7059047744873967 0.0
    vertex 0.17037086855465877 3.7059047744873967 40.0
  endloop
endfacet
facet normal -0.9807852804032304 -0.19509032201612858 -0.0
  outer loop
    vertex 0.17037086855465877 3.7059047744873967 0.0
    vertex 0.042775693130948 4.347369038899743 40.0
    vertex 0.042775693130948 4.347369038899743 0.0
  endloop
endfacet
facet normal -0.9978589232386036 -0.06540312923014317 -0.0
  outer loop
    vertex 0.0 5.0 40.0
    vertex 0.042775693130948 4.347369038899743 0.0
    vertex 0.042775693130948 4.347369038899743 40.0
  endloop
endfacet
facet normal -0.9978589232386036 -0.06540312923014317 -0.0
  outer loop
    vertex 0.042775693130948 4.347369038899743 0.0
    vertex 0.0 5.0 40.0
    vertex 0.0 5.0 0.0
  endloop
endfacet
facet normal -1.0 0.0 0.0
  outer loop
    vertex 0.0 10.0 40.0
    vertex 0.0 5.0 0.0
    vertex 0.0 5.0 40.0
  endloop
endfacet
facet normal -1.0 0.0 0.0
  outer loop
    vertex 0.0 5.0 0.0
    vertex 0.0 10.0 40.0
    vertex 0.0 10.0 0.0
  endloop
endfacet
facet normal -0.7071067811865476 0.7071067811865476 0.0
  outer loop
    vertex 10.0 20.0 40.0
    vertex 0.0 10.0 0.0
    vertex 0.0 10.0 40.0
  endloop
endfacet
facet normal -0.7071067811865476 0.7071067811865476 0.0
  outer loop
    vertex 0.0 10.0 0.0
    vertex 10.0 20.0 40.0
    vertex 10.0 20.0 0.0
  endloop
endfacet
facet normal 1.0 -0.0 -0.0
  outer loop
    vertex 10.0 20.0 0.0
    vertex 10.0 0.0 40.0
    vertex 10.0 0.0 0.0
  endloop
endfacet
facet normal 1.0 -0.0 -0.0
  outer loop
    vertex 10.0 0.0 40.0
    vertex 10.0 20.0 0.0
    vertex 10.0 20.0 40.0
  endloop
endfacet
facet normal 0.9914448613738104 -0.1305261922200518 0.0
  outer loop
    vertex 2.102222521132796 5.776457135307563 0.0
    vertex 2.0000000000000004 5.000000000000001 40.0
    vertex 2.0000000000000004 5.000000000000001 0.0
  endloop
endfacet
facet normal 0.9914448613738104 -0.1305261922200518 0.0
  outer loop
    vertex 2.0000000000000004 5.000000000000001 40.0
    vertex 2.102222521132796 5.776457135307563 0.0
    vertex 2.102222521132796 5.776457135307563 40.0
  endloop
endfacet
facet normal 0.9914448613738106 0.13052619222005105 0.0
  outer loop
    vertex 2.0000000000000004 5.000000000000001 0.0
    vertex 2.102222521132795 4.22354286469244 40.0
    vertex 2.102222521132795 4.22354286469244 0.0
  endloop
endfacet
facet normal 0.9914448613738106 0.13052619222005105 0.0
  outer loop
    vertex 2.102222521132795 4.22354286469244 40.0
    vertex 2.0000000000000004 5.000000000000001 0.0
    vertex 2.0000000000000004 5.000000000000001 40.0
  endloop
endfacet
facet normal 0.9238795325112868 0.38268343236508945 0.0
  outer loop
    vertex 2.102222521132795 4.22354286469244 0.0
    vertex 2.401923788646684 3.5000000000000013 40.0
    vertex 2.401923788646684 3.5000000000000013 0.0
  endloop
endfacet
facet normal 0.9238795325112868 0.38268343236508945 0.0
  outer loop
    vertex 2.401923788646684 3.5000000000000013 40.0
    vertex 2.102222521132795 4.22354286469244 0.0
    vertex 2.102222521132795 4.22354286469244 40.0
  endloop
endfacet
facet normal 0.7933533402912356 0.6087614290087203 0.0
  outer loop
    vertex 2.401923788646684 3.5000000000000013 0.0
    vertex 2.8786796564403567 2.878679656440359 40.0
    vertex 2.8786796564403567 2.878679656440359 0.0
  endloop
endfacet
facet normal 0.7933533402912356 0.6087614290087203 0.0
  outer loop
    vertex 2.8786796564403567 2.878679656440359 40.0
    vertex 2.401923788646684 3.5000000000000013 0.0
    vertex 2.401923788646684 3.5000000000000013 40.0
  endloop
endfacet
facet normal 0.6087614290087209 0.793353340291235 0.0
  outer loop
    vertex 2.8786796564403567 2.878679656440359 40.0
    vertex 3.499999999999999 2.4019237886466853 0.0
    vertex 2.8786796564403567 2.878679656440359 0.0
  endloop
endfacet
facet normal 0.6087614290087209 0.793353340291235 0.0
  outer loop
    vertex 3.499999999999999 2.4019237886466853 0.0
    vertex 2.8786796564403567 2.878679656440359 40.0
    vertex 3.499999999999999 2.4019237886466853 40.0
  endloop
endfacet
facet normal 0.3826834323650908 0.9238795325112864 0.0
  outer loop
    vertex 3.499999999999999 2.4019237886466853 40.0
    vertex 4.223542864692435 2.1022225211327963 0.0
    vertex 3.499999999999999 2.4019237886466853 0.0
  endloop
endfacet
facet normal 0.3826834323650908 0.9238795325112864 0.0
  outer loop
    vertex 4.223542864692435 2.1022225211327963 0.0
    vertex 3.499999999999999 2.4019237886466853 40.0
    vertex 4.223542864692435 2.1022225211327963 40.0
  endloop
endfacet
facet normal 0.1305261922200519 0.9914448613738105 0.0
  outer loop
    vertex 4.223542864692435 2.1022225211327963 40.0
    vertex 4.999999999999999 2.0000000000000004 0.0
    vertex 4.223542864692435 2.1022225211327963 0.0
  endloop
endfacet
facet normal 0.1305261922200519 0.9914448613738105 0.0
  outer loop
    vertex 4.999999999999999 2.0000000000000004 0.0
    vertex 4.223542864692435 2.1022225211327963 40.0
    vertex 4.999999999999999 2.0000000000000004 40.0
  endloop
endfacet
facet normal -0.13052619222005105 0.9914448613738106 0.0
  outer loop
    vertex 4.999999999999999 2.0000000000000004 40.0
    vertex 5.77645713530756 2.102222521132795 0.0
    vertex 4.999999999999999 2.0000000000000004 0.0
  endloop
endfacet
facet normal -0.13052619222005105 0.9914448613738106 0.0
  outer loop
    vertex 5.77645713530756 2.102222521132795 0.0
    vertex 4.999999999999999 2.0000000000000004 40.0
    vertex 5.77645713530756 2.102222521132795 40.0
  endloop
endfacet
facet normal -0.38268343236508906 0.9238795325112872 0.0
  outer loop
    vertex 5.77645713530756 2.102222521132795 40.0
    vertex 6.499999999999998 2.401923788646683 0.0
    vertex 5.77645713530756 2.102222521132795 0.0
  endloop
endfacet
facet normal -0.38268343236508906 0.9238795325112872 0.0
  outer loop
    vertex 6.499999999999998 2.401923788646683 0.0
    vertex 5.77645713530756 2.102222521132795 40.0
    vertex 6.499999999999998 2.401923788646683 40.0
  endloop
endfacet
facet normal -0.6087614290087208 0.7933533402912353 0.0
  outer loop
    vertex 6.499999999999998 2.401923788646683 40.0
    vertex 7.121320343559642 2.8786796564403576 0.0
    vertex 6.499999999999998 2.401923788646683 0.0
  endloop
endfacet
facet normal -0.6087614290087208 0.7933533402912353 0.0
  outer loop
    vertex 7.121320343559642 2.8786796564403576 0.0
    vertex 6.499999999999998 2.401923788646683 40.0
    vertex 7.121320343559642 2.8786796564403576 40.0
  endloop
endfacet
facet normal -0.7933533402912354 0.6087614290087204 0.0
  outer loop
    vertex 7.598076211353314 3.499999999999999 40.0
    vertex 7.121320343559642 2.8786796564403576 0.0
    vertex 7.121320343559642 2.8786796564403576 40.0
  endloop
endfacet
facet normal -0.7933533402912354 0.6087614290087204 0.0
  outer loop
    vertex 7.121320343559642 2.8786796564403576 0.0
    vertex 7.598076211353314 3.499999999999999 40.0
    vertex 7.598076211353314 3.499999999999999 0.0
  endloop
endfacet
facet normal -0.923879532511286 0.382683432365092 0.0
  outer loop
    vertex 7.897777478867204 4.223542864692435 40.0
    vertex 7.598076211353314 3.499999999999999 0.0
    vertex 7.598076211353314 3.499999999999999 40.0
  endloop
endfacet
facet normal -0.923879532511286 0.382683432365092 0.0
  outer loop
    vertex 7.598076211353314 3.499999999999999 0.0
    vertex 7.897777478867204 4.223542864692435 40.0
    vertex 7.897777478867204 4.223542864692435 0.0
  endloop
endfacet
facet normal -0.9914448613738104 0.13052619222005132 0.0
  outer loop
    vertex 7.999999999999999 5.0 40.0
    vertex 7.897777478867204 4.223542864692435 0.0
    vertex 7.897777478867204 4.223542864692435 40.0
  endloop
endfacet
facet normal -0.9914448613738104 0.13052619222005132 0.0
  outer loop
    vertex 7.897777478867204 4.223542864692435 0.0
    vertex 7.999999999999999 5.0 40.0
    vertex 7.999999999999999 5.0 0.0
  endloop
endfacet
facet normal -0.9914448613738104 -0.1305261922200518 -0.0
  outer loop
    vertex 7.897777478867204 5.776457135307562 40.0
    vertex 7.999999999999999 5.0 0.0
    vertex 7.999999999999999 5.0 40.0
  endloop
endfacet
facet normal -0.9914448613738104 -0.1305261922200518 -0.0
  outer loop
    vertex 7.999999999999999 5.0 0.0
    vertex 7.897777478867204 5.776457135307562 40.0
    vertex 7.897777478867204 5.776457135307562 0.0
  endloop
endfacet
facet normal -0.9238795325112867 -0.3826834323650898 -0.0
  outer loop
    vertex 7.598076211353315 6.499999999999999 40.0
    vertex 7.897777478867204 5.776457135307562 0.0
    vertex 7.897777478867204 5.776457135307562 40.0
  endloop
endfacet
facet normal -0.9238795325112867 -0.3826834323650898 -0.0
  outer loop
    vertex 7.897777478867204 5.776457135307562 0.0
    vertex 7.598076211353315 6.499999999999999 40.0
    vertex 7.598076211353315 6.499999999999999 0.0
  endloop
endfacet
facet normal -0.7933533402912346 -0.6087614290087213 -0.0
  outer loop
    vertex 7.121320343559642 7.121320343559642 40.0
    vertex 7.598076211353315 6.499999999999999 0.0
    vertex 7.598076211353315 6.499999999999999 40.0
  endloop
endfacet
facet normal -0.7933533402912346 -0.6087614290087213 -0.0
  outer loop
    vertex 7.598076211353315 6.499999999999999 0.0
    vertex 7.121320343559642 7.121320343559642 40.0
    vertex 7.121320343559642 7.121320343559642 0.0
  endloop
endfacet
facet normal -0.6087614290087213 -0.7933533402912346 -0.0
  outer loop
    vertex 7.121320343559642 7.121320343559642 40.0
    vertex 6.499999999999999 7.598076211353315 0.0
    vertex 7.121320343559642 7.121320343559642 0.0
  endloop
endfacet
facet normal -0.6087614290087213 -0.7933533402912346 -0.0
  outer loop
    vertex 6.499999999999999 7.598076211353315 0.0
    vertex 7.121320343559642 7.121320343559642 40.0
    vertex 6.499999999999999 7.598076211353315 40.0
  endloop
endfacet
facet normal -0.3826834323650901 -0.9238795325112867 -0.0
  outer loop
    vertex 6.499999999999999 7.598076211353315 40.0
    vertex 5.776457135307563 7.897777478867204 0.0
    vertex 6.499999999999999 7.598076211353315 0.0
  endloop
endfacet
facet normal -0.3826834323650901 -0.9238795325112867 -0.0
  outer loop
    vertex 5.776457135307563 7.897777478867204 0.0
    vertex 6.499999999999999 7.598076211353315 40.0
    vertex 5.776457135307563 7.897777478867204 40.0
  endloop
endfacet
facet normal -0.13052619222005168 -0.9914448613738105 -0.0
  outer loop
    vertex 5.776457135307563 7.897777478867204 40.0
    vertex 5.0 7.999999999999999 0.0
    vertex 5.776457135307563 7.897777478867204 0.0
  endloop
endfacet
facet normal -0.13052619222005168 -0.9914448613738105 -0.0
  outer loop
    vertex 5.0 7.999999999999999 0.0
    vertex 5.776457135307563 7.897777478867204 40.0
    vertex 5.0 7.999999999999999 40.0
  endloop
endfacet
facet normal 0.1305261922200518 -0.9914448613738104 0.0
  outer loop
    vertex 5.0 7.999999999999999 40.0
    vertex 4.223542864692438 7.897777478867204 0.0
    vertex 5.0 7.999999999999999 0.0
  endloop
endfacet
facet normal 0.1305261922200518 -0.9914448613738104 0.0
  outer loop
    vertex 4.223542864692438 7.897777478867204 0.0
    vertex 5.0 7.999999999999999 40.0
    vertex 4.223542864692438 7.897777478867204 40.0
  endloop
endfacet
facet normal 0.3826834323650898 -0.9238795325112867 0.0
  outer loop
    vertex 4.223542864692438 7.897777478867204 40.0
    vertex 3.5000000000000004 7.598076211353315 0.0
    vertex 4.223542864692438 7.897777478867204 0.0
  endloop
endfacet
facet normal 0.3826834323650898 -0.9238795325112867 0.0
  outer loop
    vertex 3.5000000000000004 7.598076211353315 0.0
    vertex 4.223542864692438 7.897777478867204 40.0
    vertex 3.5000000000000004 7.598076211353315 40.0
  endloop
endfacet
facet normal 0.6087614290087211 -0.7933533402912347 0.0
  outer loop
    vertex 3.5000000000000004 7.598076211353315 40.0
    vertex 2.878679656440358 7.121320343559642 0.0
    vertex 3.5000000000000004 7.598076211353315 0.0
  endloop
endfacet
facet normal 0.6087614290087211 -0.7933533402912347 0.0
  outer loop
    vertex 2.878679656440358 7.121320343559642 0.0
    vertex 3.5000000000000004 7.598076211353315 40.0
    vertex 2.878679656440358 7.121320343559642 40.0
  endloop
endfacet
facet normal 0.7933533402912346 -0.6087614290087217 0.0
  outer loop
    vertex 2.878679656440358 7.121320343559642 0.0
    vertex 2.401923788646685 6.500000000000001 40.0
    vertex 2.401923788646685 6.500000000000001 0.0
  endloop
endfacet
facet normal 0.7933533402912346 -0.6087614290087217 0.0
  outer loop
    vertex 2.401923788646685 6.500000000000001 40.0
    vertex 2.878679656440358 7.121320343559642 0.0
    vertex 2.878679656440358 7.121320343559642 40.0
  endloop
endfacet
facet normal 0.9238795325112868 -0.3826834323650899 0.0
  outer loop
    vertex 2.401923788646685 6.500000000000001 0.0
    vertex 2.102222521132796 5.776457135307563 40.0
    vertex 2.102222521132796 5.776457135307563 0.0
  endloop
endfacet
facet normal 0.9238795325112868 -0.3826834323650899 0.0
  outer loop
    vertex 2.102222521132796 5.776457135307563 40.0
    vertex 2.401923788646685 6.500000000000001 0.0
    vertex 2.401923788646685 6.500000000000001 40.0
  endloop
endfacet
endsolid Гайка для шпильки 6мм
