solid Ластохвост-подшипник-6мм
facet normal 1.686616753825177e-06 0.8660290593797791 0.49999366826683966
  outer loop
    vertex -17.40044891715463 16.852110107225393 5.000047655920054
    vertex 0.2892776831772195 16.8520444967884 4.999999999999999
    vertex -17.400444488136007 19.738799366643878 1.795628555550568e-05
  endloop
endfacet
facet normal 1.686616753825177e-06 0.8660290593797791 0.49999366826683966
  outer loop
    vertex 0.2892776831772195 16.8520444967884 4.999999999999999
    vertex -17.40044891715463 16.852110107225393 5.000047655920054
    vertex -4.710540735730369 16.852139683389666 5.000067434445387
  endloop
endfacet
facet normal 1.686616753825177e-06 0.8660290593797791 0.49999366826683966
  outer loop
    vertex -17.400444488136007 19.738799366643878 1.795628555550568e-05
    vertex 5.289277683177212 16.8520444967884 4.999999999999999
    vertex 5.289277683177212 19.73879584273653 7.112348959394109e-16
  endloop
endfacet
facet normal 1.686616753825177e-06 0.8660290593797791 0.49999366826683966
  outer loop
    vertex 5.289277683177212 16.8520444967884 4.999999999999999
    vertex -17.400444488136007 19.738799366643878 1.795628555550568e-05
    vertex 0.2892776831772195 16.8520444967884 4.999999999999999
  endloop
endfacet
facet normal 2.601967353343947e-06 -0.8660242923243356 0.5000019250936575
  outer loop
    vertex 5.289277683177212 6.725547188684666 4.999999999999999
    vertex -17.397607859978514 3.8387082567793263 1.6287291533450492e-05
    vertex 5.289277683177217 3.83879584273654 7.112348959394109e-16
  endloop
endfacet
facet normal 2.601967353343947e-06 -0.8660242923243356 0.5000019250936575
  outer loop
    vertex -17.397607859978514 3.8387082567793263 1.6287291533450492e-05
    vertex 5.289277683177212 6.725547188684666 4.999999999999999
    vertex 0.2892776831772201 6.725547188684667 4.999999999999999
  endloop
endfacet
facet normal 2.601967353343947e-06 -0.8660242923243356 0.5000019250936575
  outer loop
    vertex -17.397607859978514 3.8387082567793263 1.6287291533450492e-05
    vertex 0.2892776831772201 6.725547188684667 4.999999999999999
    vertex -17.397607859978514 6.72545960272745 5.000016287291532
  endloop
endfacet
facet normal 5.031311471679313e-17 0.38268343236509006 -0.9238795325112867
  outer loop
    vertex 5.289277683177217 11.400567275082757 3.9488887394336203
    vertex 0.2892776831772222 11.038795842736539 3.7990381056766753
    vertex 0.2892776831772222 11.400567275082759 3.9488887394336203
  endloop
endfacet
facet normal 5.031311471679313e-17 0.38268343236509006 -0.9238795325112867
  outer loop
    vertex 0.2892776831772222 11.038795842736539 3.7990381056766753
    vertex 5.289277683177217 11.400567275082757 3.9488887394336203
    vertex 5.289277683177217 11.038795842736537 3.7990381056766753
  endloop
endfacet
facet normal 3.2356137631816034e-17 0.608761429008722 -0.7933533402912343
  outer loop
    vertex 5.289277683177217 11.038795842736537 3.7990381056766753
    vertex 0.2892776831772222 10.72813567095672 3.560660171779839
    vertex 0.2892776831772222 11.038795842736539 3.7990381056766753
  endloop
endfacet
facet normal 3.2356137631816034e-17 0.608761429008722 -0.7933533402912343
  outer loop
    vertex 0.2892776831772222 10.72813567095672 3.560660171779839
    vertex 5.289277683177217 11.038795842736537 3.7990381056766753
    vertex 5.289277683177217 10.728135670956718 3.560660171779839
  endloop
endfacet
facet normal 1.2194143238276709e-17 0.7933533402912339 -0.6087614290087225
  outer loop
    vertex 0.2892776831772222 10.72813567095672 3.560660171779839
    vertex 5.289277683177217 10.489757737059879 3.250000000000018
    vertex 0.2892776831772222 10.48975773705988 3.250000000000018
  endloop
endfacet
facet normal 1.2194143238276709e-17 0.7933533402912339 -0.6087614290087225
  outer loop
    vertex 5.289277683177217 10.489757737059879 3.250000000000018
    vertex 0.2892776831772222 10.72813567095672 3.560660171779839
    vertex 5.289277683177217 10.728135670956718 3.560660171779839
  endloop
endfacet
facet normal -8.798861865177376e-18 0.923879532511288 -0.38268343236508695
  outer loop
    vertex 0.2892776831772222 10.339907103302938 2.888228567653798
    vertex 5.289277683177217 10.489757737059879 3.250000000000018
    vertex 5.289277683177217 10.339907103302936 2.8882285676537975
  endloop
endfacet
facet normal -8.798861865177376e-18 0.923879532511288 -0.38268343236508695
  outer loop
    vertex 5.289277683177217 10.489757737059879 3.250000000000018
    vertex 0.2892776831772222 10.339907103302938 2.888228567653798
    vertex 0.2892776831772222 10.48975773705988 3.250000000000018
  endloop
endfacet
facet normal -2.919223907332568e-17 0.9914448613738104 -0.13052619222005216
  outer loop
    vertex 0.2892776831772222 10.28879584273654 2.5000000000000178
    vertex 5.289277683177217 10.339907103302936 2.8882285676537975
    vertex 5.289277683177217 10.288795842736539 2.5000000000000178
  endloop
endfacet
facet normal -2.919223907332568e-17 0.9914448613738104 -0.13052619222005216
  outer loop
    vertex 5.289277683177217 10.339907103302936 2.8882285676537975
    vertex 0.2892776831772222 10.28879584273654 2.5000000000000178
    vertex 0.2892776831772222 10.339907103302938 2.888228567653798
  endloop
endfacet
facet normal -4.759621343108321e-17 0.9914448613738105 0.13052619222005168
  outer loop
    vertex 0.2892776831772222 10.339907103302938 2.1117714323462367
    vertex 5.289277683177217 10.288795842736539 2.5000000000000178
    vertex 5.289277683177217 10.339907103302936 2.111771432346236
  endloop
endfacet
facet normal -4.759621343108321e-17 0.9914448613738105 0.13052619222005168
  outer loop
    vertex 5.289277683177217 10.288795842736539 2.5000000000000178
    vertex 0.2892776831772222 10.339907103302938 2.1117714323462367
    vertex 0.2892776831772222 10.28879584273654 2.5000000000000178
  endloop
endfacet
facet normal -6.275658449997392e-17 0.923879532511288 0.38268343236508695
  outer loop
    vertex 0.2892776831772222 10.48975773705988 1.7500000000000164
    vertex 5.289277683177217 10.339907103302936 2.111771432346236
    vertex 5.289277683177217 10.489757737059879 1.7500000000000162
  endloop
endfacet
facet normal -6.275658449997392e-17 0.923879532511288 0.38268343236508695
  outer loop
    vertex 5.289277683177217 10.339907103302936 2.111771432346236
    vertex 0.2892776831772222 10.48975773705988 1.7500000000000164
    vertex 0.2892776831772222 10.339907103302938 2.1117714323462367
  endloop
endfacet
facet normal -7.364019804535133e-17 0.7933533402912326 0.6087614290087243
  outer loop
    vertex 0.2892776831772222 10.48975773705988 1.7500000000000164
    vertex 5.289277683177217 10.728135670956718 1.439339828220197
    vertex 0.2892776831772222 10.72813567095672 1.4393398282201968
  endloop
endfacet
facet normal -7.364019804535133e-17 0.7933533402912326 0.6087614290087243
  outer loop
    vertex 5.289277683177217 10.728135670956718 1.439339828220197
    vertex 0.2892776831772222 10.48975773705988 1.7500000000000164
    vertex 5.289277683177217 10.489757737059879 1.7500000000000162
  endloop
endfacet
facet normal -7.950535379011887e-17 0.6087614290087208 0.7933533402912353
  outer loop
    vertex 5.289277683177217 10.728135670956718 1.439339828220197
    vertex 0.2892776831772222 11.03879584273654 1.2009618943233593
    vertex 0.2892776831772222 10.72813567095672 1.4393398282201968
  endloop
endfacet
facet normal -7.950535379011887e-17 0.6087614290087208 0.7933533402912353
  outer loop
    vertex 0.2892776831772222 11.03879584273654 1.2009618943233593
    vertex 5.289277683177217 10.728135670956718 1.439339828220197
    vertex 5.289277683177217 11.03879584273654 1.2009618943233593
  endloop
endfacet
facet normal -7.995235106289934e-17 0.3826834323650895 0.9238795325112868
  outer loop
    vertex 5.289277683177217 11.03879584273654 1.2009618943233593
    vertex 0.2892776831772222 11.400567275082759 1.0511112605664155
    vertex 0.2892776831772222 11.03879584273654 1.2009618943233593
  endloop
endfacet
facet normal -7.995235106289934e-17 0.3826834323650895 0.9238795325112868
  outer loop
    vertex 0.2892776831772222 11.400567275082759 1.0511112605664155
    vertex 5.289277683177217 11.03879584273654 1.2009618943233593
    vertex 5.289277683177217 11.400567275082757 1.0511112605664157
  endloop
endfacet
facet normal -7.495072773825061e-17 0.13052619222005216 0.9914448613738104
  outer loop
    vertex 5.289277683177217 11.400567275082757 1.0511112605664157
    vertex 0.2892776831772222 11.788795842736539 1.000000000000018
    vertex 0.2892776831772222 11.400567275082759 1.0511112605664155
  endloop
endfacet
facet normal -7.495072773825061e-17 0.13052619222005216 0.9914448613738104
  outer loop
    vertex 0.2892776831772222 11.788795842736539 1.000000000000018
    vertex 5.289277683177217 11.400567275082757 1.0511112605664157
    vertex 5.289277683177217 11.788795842736537 1.000000000000018
  endloop
endfacet
facet normal -6.484133618017408e-17 -0.13052619222005074 0.9914448613738105
  outer loop
    vertex 5.289277683177217 11.788795842736537 1.000000000000018
    vertex 0.2892776831772222 12.177024410390322 1.0511112605664155
    vertex 0.2892776831772222 11.788795842736539 1.000000000000018
  endloop
endfacet
facet normal -6.484133618017408e-17 -0.13052619222005074 0.9914448613738105
  outer loop
    vertex 0.2892776831772222 12.177024410390322 1.0511112605664155
    vertex 5.289277683177217 11.788795842736537 1.000000000000018
    vertex 5.289277683177217 12.177024410390322 1.0511112605664157
  endloop
endfacet
facet normal -5.031311471679333e-17 -0.38268343236508695 0.923879532511288
  outer loop
    vertex 5.289277683177217 12.177024410390322 1.0511112605664157
    vertex 0.2892776831772222 12.538795842736542 1.2009618943233593
    vertex 0.2892776831772222 12.177024410390322 1.0511112605664155
  endloop
endfacet
facet normal -5.031311471679333e-17 -0.38268343236508695 0.923879532511288
  outer loop
    vertex 0.2892776831772222 12.538795842736542 1.2009618943233593
    vertex 5.289277683177217 12.177024410390322 1.0511112605664157
    vertex 5.289277683177217 12.53879584273654 1.2009618943233593
  endloop
endfacet
facet normal -3.2356137631815825e-17 -0.6087614290087243 0.7933533402912326
  outer loop
    vertex 5.289277683177217 12.53879584273654 1.2009618943233593
    vertex 0.2892776831772222 12.849456014516363 1.4393398282201968
    vertex 0.2892776831772222 12.538795842736542 1.2009618943233593
  endloop
endfacet
facet normal -3.2356137631815825e-17 -0.6087614290087243 0.7933533402912326
  outer loop
    vertex 0.2892776831772222 12.849456014516363 1.4393398282201968
    vertex 5.289277683177217 12.53879584273654 1.2009618943233593
    vertex 5.289277683177217 12.849456014516363 1.439339828220197
  endloop
endfacet
facet normal -1.2194143238276536e-17 -0.7933533402912353 0.6087614290087208
  outer loop
    vertex 5.289277683177217 12.849456014516363 1.439339828220197
    vertex 0.2892776831772222 13.0878339484132 1.7500000000000193
    vertex 0.2892776831772222 12.849456014516363 1.4393398282201968
  endloop
endfacet
facet normal -1.2194143238276536e-17 -0.7933533402912353 0.6087614290087208
  outer loop
    vertex 0.2892776831772222 13.0878339484132 1.7500000000000193
    vertex 5.289277683177217 12.849456014516363 1.439339828220197
    vertex 5.289277683177217 13.0878339484132 1.750000000000019
  endloop
endfacet
facet normal 8.798861865177694e-18 -0.9238795325112894 0.38268343236508334
  outer loop
    vertex 5.289277683177217 13.237684582170141 2.111771432346236
    vertex 0.2892776831772222 13.0878339484132 1.7500000000000193
    vertex 5.289277683177217 13.0878339484132 1.750000000000019
  endloop
endfacet
facet normal 8.798861865177694e-18 -0.9238795325112894 0.38268343236508334
  outer loop
    vertex 0.2892776831772222 13.0878339484132 1.7500000000000193
    vertex 5.289277683177217 13.237684582170141 2.111771432346236
    vertex 0.2892776831772222 13.237684582170141 2.1117714323462367
  endloop
endfacet
facet normal 2.919223907332518e-17 -0.9914448613738096 0.13052619222005876
  outer loop
    vertex 5.289277683177217 13.28879584273654 2.5000000000000178
    vertex 0.2892776831772222 13.237684582170141 2.1117714323462367
    vertex 5.289277683177217 13.237684582170141 2.111771432346236
  endloop
endfacet
facet normal 2.919223907332518e-17 -0.9914448613738096 0.13052619222005876
  outer loop
    vertex 0.2892776831772222 13.237684582170141 2.1117714323462367
    vertex 5.289277683177217 13.28879584273654 2.5000000000000178
    vertex 0.2892776831772222 13.28879584273654 2.5000000000000178
  endloop
endfacet
facet normal 4.7596213431083655e-17 -0.9914448613738097 -0.13052619222005832
  outer loop
    vertex 5.289277683177217 13.237684582170141 2.8882285676538
    vertex 0.2892776831772222 13.28879584273654 2.5000000000000178
    vertex 5.289277683177217 13.28879584273654 2.5000000000000178
  endloop
endfacet
facet normal 4.7596213431083655e-17 -0.9914448613738097 -0.13052619222005832
  outer loop
    vertex 0.2892776831772222 13.28879584273654 2.5000000000000178
    vertex 5.289277683177217 13.237684582170141 2.8882285676538
    vertex 0.2892776831772222 13.237684582170141 2.8882285676538006
  endloop
endfacet
facet normal 6.275658449997364e-17 -0.92387953251129 -0.3826834323650821
  outer loop
    vertex 5.289277683177217 13.0878339484132 3.2500000000000195
    vertex 0.2892776831772222 13.237684582170141 2.8882285676538006
    vertex 5.289277683177217 13.237684582170141 2.8882285676538
  endloop
endfacet
facet normal 6.275658449997364e-17 -0.92387953251129 -0.3826834323650821
  outer loop
    vertex 0.2892776831772222 13.237684582170141 2.8882285676538006
    vertex 5.289277683177217 13.0878339484132 3.2500000000000195
    vertex 0.2892776831772222 13.0878339484132 3.2500000000000195
  endloop
endfacet
facet normal 7.364019804535133e-17 -0.7933533402912326 -0.6087614290087243
  outer loop
    vertex 5.289277683177217 12.849456014516363 3.560660171779839
    vertex 0.2892776831772222 13.0878339484132 3.2500000000000195
    vertex 5.289277683177217 13.0878339484132 3.2500000000000195
  endloop
endfacet
facet normal 7.364019804535133e-17 -0.7933533402912326 -0.6087614290087243
  outer loop
    vertex 0.2892776831772222 13.0878339484132 3.2500000000000195
    vertex 5.289277683177217 12.849456014516363 3.560660171779839
    vertex 0.2892776831772222 12.849456014516363 3.560660171779839
  endloop
endfacet
facet normal 7.950535379011892e-17 -0.6087614290087172 -0.7933533402912378
  outer loop
    vertex 5.289277683177217 12.849456014516363 3.560660171779839
    vertex 0.2892776831772222 12.538795842736537 3.7990381056766767
    vertex 0.2892776831772222 12.849456014516363 3.560660171779839
  endloop
endfacet
facet normal 7.950535379011892e-17 -0.6087614290087172 -0.7933533402912378
  outer loop
    vertex 0.2892776831772222 12.538795842736537 3.7990381056766767
    vertex 5.289277683177217 12.849456014516363 3.560660171779839
    vertex 5.289277683177217 12.538795842736535 3.7990381056766767
  endloop
endfacet
facet normal 7.995235106289938e-17 -0.38268343236509206 -0.9238795325112859
  outer loop
    vertex 5.289277683177217 12.538795842736535 3.7990381056766767
    vertex 0.2892776831772222 12.177024410390322 3.9488887394336203
    vertex 0.2892776831772222 12.538795842736537 3.7990381056766767
  endloop
endfacet
facet normal 7.995235106289938e-17 -0.38268343236509206 -0.9238795325112859
  outer loop
    vertex 0.2892776831772222 12.177024410390322 3.9488887394336203
    vertex 5.289277683177217 12.538795842736535 3.7990381056766767
    vertex 5.289277683177217 12.177024410390322 3.9488887394336203
  endloop
endfacet
facet normal 7.495072773825056e-17 -0.13052619222005074 -0.9914448613738105
  outer loop
    vertex 5.289277683177217 12.177024410390322 3.9488887394336203
    vertex 0.2892776831772222 11.788795842736539 4.000000000000018
    vertex 0.2892776831772222 12.177024410390322 3.9488887394336203
  endloop
endfacet
facet normal 7.495072773825056e-17 -0.13052619222005074 -0.9914448613738105
  outer loop
    vertex 0.2892776831772222 11.788795842736539 4.000000000000018
    vertex 5.289277683177217 12.177024410390322 3.9488887394336203
    vertex 5.289277683177217 11.788795842736537 4.000000000000018
  endloop
endfacet
facet normal 6.4841336180174e-17 0.13052619222005216 -0.9914448613738104
  outer loop
    vertex 5.289277683177217 11.788795842736537 4.000000000000018
    vertex 0.2892776831772222 11.400567275082759 3.9488887394336203
    vertex 0.2892776831772222 11.788795842736539 4.000000000000018
  endloop
endfacet
facet normal 6.4841336180174e-17 0.13052619222005216 -0.9914448613738104
  outer loop
    vertex 0.2892776831772222 11.400567275082759 3.9488887394336203
    vertex 5.289277683177217 11.788795842736537 4.000000000000018
    vertex 5.289277683177217 11.400567275082757 3.9488887394336203
  endloop
endfacet
facet normal -0.8306622267017989 -0.5567766581505488 -0.00013442290194412004
  outer loop
    vertex -17.70107939675497 4.288706359972399 9.000000000000002
    vertex -17.397607859978507 3.8345765868268877 4.999999071242589
    vertex -17.397618599184423 3.834545181585259 8.999999999999998
  endloop
endfacet
facet normal -0.8306622267017989 -0.5567766581505488 -0.00013442290194412004
  outer loop
    vertex -17.397607859978507 3.8345765868268877 4.999999071242589
    vertex -17.70107939675497 4.288706359972399 9.000000000000002
    vertex -17.397607859978514 3.8387082567793263 1.6287291533450492e-05
  endloop
endfacet
facet normal -0.8306622267017989 -0.5567766581505488 -0.00013442290194412004
  outer loop
    vertex -17.397607859978514 3.8387082567793263 1.6287291533450492e-05
    vertex -17.70107939675497 4.288706359972399 9.000000000000002
    vertex -17.701065084728228 4.288709883879744 1.795628555691566e-05
  endloop
endfacet
facet normal -0.8968727415326879 -0.4422886902190019 -0.0
  outer loop
    vertex -18.5689016815524 6.04847587011755 9.000000000000002
    vertex -17.701065084728228 4.288709883879744 1.795628555691566e-05
    vertex -17.70107939675497 4.288706359972399 9.000000000000002
  endloop
endfacet
facet normal -0.8968727415326879 -0.4422886902190019 -0.0
  outer loop
    vertex -17.701065084728228 4.288709883879744 1.795628555691566e-05
    vertex -18.5689016815524 6.04847587011755 9.000000000000002
    vertex -18.568887369525658 6.048479394024896 1.795628555691566e-05
  endloop
endfacet
facet normal -0.9469301294951056 -0.32143946530316225 -0.0
  outer loop
    vertex -19.199603613056304 7.906463846511581 9.000000000000002
    vertex -18.568887369525658 6.048479394024896 1.795628555691566e-05
    vertex -18.5689016815524 6.04847587011755 9.000000000000002
  endloop
endfacet
facet normal -0.9469301294951056 -0.32143946530316225 -0.0
  outer loop
    vertex -18.568887369525658 6.048479394024896 1.795628555691566e-05
    vertex -19.199603613056304 7.906463846511581 9.000000000000002
    vertex -19.199589301029558 7.9064673704189286 1.795628555691566e-05
  endloop
endfacet
facet normal -0.9807852804032302 -0.19509032201612928 -0.0
  outer loop
    vertex -19.58239370635503 9.830879599746805 9.000000000000002
    vertex -19.199589301029558 7.9064673704189286 1.795628555691566e-05
    vertex -19.199603613056304 7.906463846511581 9.000000000000002
  endloop
endfacet
facet normal -0.9807852804032302 -0.19509032201612928 -0.0
  outer loop
    vertex -19.199589301029558 7.9064673704189286 1.795628555691566e-05
    vertex -19.58239370635503 9.830879599746805 9.000000000000002
    vertex -19.582379394328285 9.830883123654152 1.795628555691566e-05
  endloop
endfacet
facet normal -0.9807852804032305 0.1950903220161276 -0.0
  outer loop
    vertex -19.199603613056308 15.671127838961477 9.000000000000002
    vertex -19.58237939432829 13.746715609633595 1.795628555691566e-05
    vertex -19.582393706355035 13.746712085726251 9.000000000000002
  endloop
endfacet
facet normal -0.9807852804032305 0.1950903220161276 -0.0
  outer loop
    vertex -19.58237939432829 13.746715609633595 1.795628555691566e-05
    vertex -19.199603613056308 15.671127838961477 9.000000000000002
    vertex -19.199589301029565 15.67113136286882 1.795628555691566e-05
  endloop
endfacet
facet normal -0.9469301294951057 0.3214394653031617 -0.0
  outer loop
    vertex -18.568901681552408 17.52911581535551 9.000000000000002
    vertex -19.199589301029565 15.67113136286882 1.795628555691566e-05
    vertex -19.199603613056308 15.671127838961477 9.000000000000002
  endloop
endfacet
facet normal -0.9469301294951057 0.3214394653031617 -0.0
  outer loop
    vertex -19.199589301029565 15.67113136286882 1.795628555691566e-05
    vertex -18.568901681552408 17.52911581535551 9.000000000000002
    vertex -18.568887369525665 17.529119339262856 1.795628555691566e-05
  endloop
endfacet
facet normal -0.896872741532688 0.4422886902190018 -0.0
  outer loop
    vertex -17.701079396754974 19.288885325500665 9.000000000000002
    vertex -18.568887369525665 17.529119339262856 1.795628555691566e-05
    vertex -18.568901681552408 17.52911581535551 9.000000000000002
  endloop
endfacet
facet normal -0.896872741532688 0.4422886902190018 -0.0
  outer loop
    vertex -18.568887369525665 17.529119339262856 1.795628555691566e-05
    vertex -17.701079396754974 19.288885325500665 9.000000000000002
    vertex -17.70106508472823 19.288888849408007 1.795628555691566e-05
  endloop
endfacet
facet normal -0.8314643059893345 0.5555781743956306 -9.448830374466175e-07
  outer loop
    vertex -17.40045880016275 19.738795842736533 8.999999999999998
    vertex -17.70106508472823 19.288888849408007 1.795628555691566e-05
    vertex -17.701079396754974 19.288885325500665 9.000000000000002
  endloop
endfacet
facet normal -0.8314643059893345 0.5555781743956306 -9.448830374466175e-07
  outer loop
    vertex -17.70106508472823 19.288888849408007 1.795628555691566e-05
    vertex -17.40045880016275 19.738795842736533 8.999999999999998
    vertex -17.400448917154634 19.738766266320273 5.00002253413575
  endloop
endfacet
facet normal -0.8314643059893345 0.5555781743956306 -9.448830374466175e-07
  outer loop
    vertex -17.400448917154634 19.738766266320273 5.00002253413575
    vertex -17.400444488136007 19.738799366643878 1.795628555550568e-05
    vertex -17.70106508472823 19.288888849408007 1.795628555691566e-05
  endloop
endfacet
facet normal -0.8314643059893345 0.5555781743956306 -9.448830374466175e-07
  outer loop
    vertex -17.400444488136007 19.738799366643878 1.795628555550568e-05
    vertex -17.400448917154634 19.738766266320273 5.00002253413575
    vertex -17.400449347085523 19.73879810108261 3.3258801484981375
  endloop
endfacet
facet normal -0.9978589232386036 0.06540312923014296 0.0
  outer loop
    vertex -19.582393706355035 13.746712085726251 9.000000000000002
    vertex -19.710708004796036 11.788799366643882 1.795628555691566e-05
    vertex -19.710722316822782 11.788795842736535 9.000000000000002
  endloop
endfacet
facet normal -0.9978589232386036 0.06540312923014296 0.0
  outer loop
    vertex -19.710708004796036 11.788799366643882 1.795628555691566e-05
    vertex -19.582393706355035 13.746712085726251 9.000000000000002
    vertex -19.58237939432829 13.746715609633595 1.795628555691566e-05
  endloop
endfacet
facet normal -0.9978589232386036 -0.0654031292301439 0.0
  outer loop
    vertex -19.710722316822782 11.788795842736535 9.000000000000002
    vertex -19.582379394328285 9.830883123654152 1.795628555691566e-05
    vertex -19.58239370635503 9.830879599746805 9.000000000000002
  endloop
endfacet
facet normal -0.9978589232386036 -0.0654031292301439 0.0
  outer loop
    vertex -19.582379394328285 9.830883123654152 1.795628555691566e-05
    vertex -19.710722316822782 11.788795842736535 9.000000000000002
    vertex -19.710708004796036 11.788799366643882 1.795628555691566e-05
  endloop
endfacet
facet normal -1.2261566409701916e-06 -5.818577782957061e-06 -0.9999999999823204
  outer loop
    vertex 5.289277683177212 19.73879584273653 4.999999999999999
    vertex -17.40044891715463 16.852110107225393 5.000047655920054
    vertex -17.400448917154634 19.738766266320273 5.00002253413575
  endloop
endfacet
facet normal -1.2261566409701916e-06 -5.818577782957061e-06 -0.9999999999823204
  outer loop
    vertex -17.40044891715463 16.852110107225393 5.000047655920054
    vertex 5.289277683177212 19.73879584273653 4.999999999999999
    vertex -4.710540735730369 16.852139683389666 5.000067434445387
  endloop
endfacet
facet normal -1.2261566409701916e-06 -5.818577782957061e-06 -0.9999999999823204
  outer loop
    vertex -4.710540735730369 16.852139683389666 5.000067434445387
    vertex 5.289277683177212 19.73879584273653 4.999999999999999
    vertex 0.2892776831772195 16.8520444967884 4.999999999999999
  endloop
endfacet
facet normal -1.2261566409701916e-06 -5.818577782957061e-06 -0.9999999999823204
  outer loop
    vertex 0.2892776831772195 16.8520444967884 4.999999999999999
    vertex 5.289277683177212 19.73879584273653 4.999999999999999
    vertex 5.289277683177212 16.8520444967884 4.999999999999999
  endloop
endfacet
facet normal 1.0 1.0412381938494987e-16 3.462525350160511e-17
  outer loop
    vertex 5.289277683177217 3.83879584273654 7.112348959394109e-16
    vertex 5.289277683177217 10.728135670956718 1.439339828220197
    vertex 5.289277683177212 6.725547188684666 4.999999999999999
  endloop
endfacet
facet normal 1.0 1.0412381938494987e-16 3.462525350160511e-17
  outer loop
    vertex 5.289277683177217 10.728135670956718 1.439339828220197
    vertex 5.289277683177217 3.83879584273654 7.112348959394109e-16
    vertex 5.289277683177217 11.03879584273654 1.2009618943233593
  endloop
endfacet
facet normal 1.0 1.0412381938494987e-16 3.462525350160511e-17
  outer loop
    vertex 5.289277683177217 11.03879584273654 1.2009618943233593
    vertex 5.289277683177217 3.83879584273654 7.112348959394109e-16
    vertex 5.289277683177217 11.400567275082757 1.0511112605664157
  endloop
endfacet
facet normal 1.0 1.0412381938494987e-16 3.462525350160511e-17
  outer loop
    vertex 5.289277683177217 11.400567275082757 1.0511112605664157
    vertex 5.289277683177217 3.83879584273654 7.112348959394109e-16
    vertex 5.289277683177217 11.788795842736537 1.000000000000018
  endloop
endfacet
facet normal 1.0 1.0412381938494987e-16 3.462525350160511e-17
  outer loop
    vertex 5.289277683177217 11.788795842736537 1.000000000000018
    vertex 5.289277683177217 3.83879584273654 7.112348959394109e-16
    vertex 5.289277683177212 19.73879584273653 7.112348959394109e-16
  endloop
endfacet
facet normal 1.0 1.0412381938494987e-16 3.462525350160511e-17
  outer loop
    vertex 5.289277683177212 6.725547188684666 4.999999999999999
    vertex 5.289277683177217 10.728135670956718 1.439339828220197
    vertex 5.289277683177217 10.489757737059879 1.7500000000000162
  endloop
endfacet
facet normal 1.0 1.0412381938494987e-16 3.462525350160511e-17
  outer loop
    vertex 5.289277683177212 6.725547188684666 4.999999999999999
    vertex 5.289277683177217 10.489757737059879 1.7500000000000162
    vertex 5.289277683177217 10.339907103302936 2.111771432346236
  endloop
endfacet
facet normal 1.0 1.0412381938494987e-16 3.462525350160511e-17
  outer loop
    vertex 5.289277683177212 6.725547188684666 4.999999999999999
    vertex 5.289277683177217 10.339907103302936 2.111771432346236
    vertex 5.289277683177217 10.288795842736539 2.5000000000000178
  endloop
endfacet
facet normal 1.0 1.0412381938494987e-16 3.462525350160511e-17
  outer loop
    vertex 5.289277683177217 11.788795842736537 1.000000000000018
    vertex 5.289277683177212 19.73879584273653 7.112348959394109e-16
    vertex 5.289277683177217 12.177024410390322 1.0511112605664157
  endloop
endfacet
facet normal 1.0 1.0412381938494987e-16 3.462525350160511e-17
  outer loop
    vertex 5.289277683177217 12.177024410390322 1.0511112605664157
    vertex 5.289277683177212 19.73879584273653 7.112348959394109e-16
    vertex 5.289277683177217 12.53879584273654 1.2009618943233593
  endloop
endfacet
facet normal 1.0 1.0412381938494987e-16 3.462525350160511e-17
  outer loop
    vertex 5.289277683177217 12.53879584273654 1.2009618943233593
    vertex 5.289277683177212 19.73879584273653 7.112348959394109e-16
    vertex 5.289277683177217 12.849456014516363 1.439339828220197
  endloop
endfacet
facet normal 1.0 1.0412381938494987e-16 3.462525350160511e-17
  outer loop
    vertex 5.289277683177217 12.849456014516363 1.439339828220197
    vertex 5.289277683177212 19.73879584273653 7.112348959394109e-16
    vertex 5.289277683177217 13.0878339484132 1.750000000000019
  endloop
endfacet
facet normal 1.0 1.0412381938494987e-16 3.462525350160511e-17
  outer loop
    vertex 5.289277683177217 13.0878339484132 1.750000000000019
    vertex 5.289277683177212 19.73879584273653 7.112348959394109e-16
    vertex 5.289277683177217 13.237684582170141 2.111771432346236
  endloop
endfacet
facet normal 1.0 1.0412381938494987e-16 3.462525350160511e-17
  outer loop
    vertex 5.289277683177217 13.237684582170141 2.111771432346236
    vertex 5.289277683177212 19.73879584273653 7.112348959394109e-16
    vertex 5.289277683177217 13.28879584273654 2.5000000000000178
  endloop
endfacet
facet normal 1.0 1.0412381938494987e-16 3.462525350160511e-17
  outer loop
    vertex 5.289277683177217 13.28879584273654 2.5000000000000178
    vertex 5.289277683177212 19.73879584273653 7.112348959394109e-16
    vertex 5.289277683177212 16.8520444967884 4.999999999999999
  endloop
endfacet
facet normal 1.0 1.0412381938494987e-16 3.462525350160511e-17
  outer loop
    vertex 5.289277683177212 3.8345451815852583 4.999999999999999
    vertex 5.289277683177215 19.73879584273653 8.999999999999998
    vertex 5.289277683177215 3.8345451815852574 8.999999999999998
  endloop
endfacet
facet normal 1.0 1.0412381938494987e-16 3.462525350160511e-17
  outer loop
    vertex 5.289277683177215 19.73879584273653 8.999999999999998
    vertex 5.289277683177212 3.8345451815852583 4.999999999999999
    vertex 5.289277683177212 6.725547188684666 4.999999999999999
  endloop
endfacet
facet normal 1.0 1.0412381938494987e-16 3.462525350160511e-17
  outer loop
    vertex 5.289277683177215 19.73879584273653 8.999999999999998
    vertex 5.289277683177212 6.725547188684666 4.999999999999999
    vertex 5.289277683177217 11.038795842736537 3.7990381056766753
  endloop
endfacet
facet normal 1.0 1.0412381938494987e-16 3.462525350160511e-17
  outer loop
    vertex 5.289277683177217 11.038795842736537 3.7990381056766753
    vertex 5.289277683177212 6.725547188684666 4.999999999999999
    vertex 5.289277683177217 10.728135670956718 3.560660171779839
  endloop
endfacet
facet normal 1.0 1.0412381938494987e-16 3.462525350160511e-17
  outer loop
    vertex 5.289277683177217 10.728135670956718 3.560660171779839
    vertex 5.289277683177212 6.725547188684666 4.999999999999999
    vertex 5.289277683177217 10.489757737059879 3.250000000000018
  endloop
endfacet
facet normal 1.0 1.0412381938494987e-16 3.462525350160511e-17
  outer loop
    vertex 5.289277683177217 10.489757737059879 3.250000000000018
    vertex 5.289277683177212 6.725547188684666 4.999999999999999
    vertex 5.289277683177217 10.339907103302936 2.8882285676537975
  endloop
endfacet
facet normal 1.0 1.0412381938494987e-16 3.462525350160511e-17
  outer loop
    vertex 5.289277683177217 10.339907103302936 2.8882285676537975
    vertex 5.289277683177212 6.725547188684666 4.999999999999999
    vertex 5.289277683177217 10.288795842736539 2.5000000000000178
  endloop
endfacet
facet normal 1.0 1.0412381938494987e-16 3.462525350160511e-17
  outer loop
    vertex 5.289277683177215 19.73879584273653 8.999999999999998
    vertex 5.289277683177217 11.038795842736537 3.7990381056766753
    vertex 5.289277683177217 11.400567275082757 3.9488887394336203
  endloop
endfacet
facet normal 1.0 1.0412381938494987e-16 3.462525350160511e-17
  outer loop
    vertex 5.289277683177215 19.73879584273653 8.999999999999998
    vertex 5.289277683177217 11.400567275082757 3.9488887394336203
    vertex 5.289277683177217 11.788795842736537 4.000000000000018
  endloop
endfacet
facet normal 1.0 1.0412381938494987e-16 3.462525350160511e-17
  outer loop
    vertex 5.289277683177215 19.73879584273653 8.999999999999998
    vertex 5.289277683177217 11.788795842736537 4.000000000000018
    vertex 5.289277683177217 12.177024410390322 3.9488887394336203
  endloop
endfacet
facet normal 1.0 1.0412381938494987e-16 3.462525350160511e-17
  outer loop
    vertex 5.289277683177215 19.73879584273653 8.999999999999998
    vertex 5.289277683177217 12.177024410390322 3.9488887394336203
    vertex 5.289277683177217 12.538795842736535 3.7990381056766767
  endloop
endfacet
facet normal 1.0 1.0412381938494987e-16 3.462525350160511e-17
  outer loop
    vertex 5.289277683177215 19.73879584273653 8.999999999999998
    vertex 5.289277683177217 12.538795842736535 3.7990381056766767
    vertex 5.289277683177217 12.849456014516363 3.560660171779839
  endloop
endfacet
facet normal 1.0 1.0412381938494987e-16 3.462525350160511e-17
  outer loop
    vertex 5.289277683177215 19.73879584273653 8.999999999999998
    vertex 5.289277683177217 12.849456014516363 3.560660171779839
    vertex 5.289277683177217 13.0878339484132 3.2500000000000195
  endloop
endfacet
facet normal 1.0 1.0412381938494987e-16 3.462525350160511e-17
  outer loop
    vertex 5.289277683177215 19.73879584273653 8.999999999999998
    vertex 5.289277683177217 13.0878339484132 3.2500000000000195
    vertex 5.289277683177217 13.237684582170141 2.8882285676538
  endloop
endfacet
facet normal 1.0 1.0412381938494987e-16 3.462525350160511e-17
  outer loop
    vertex 5.289277683177215 19.73879584273653 8.999999999999998
    vertex 5.289277683177217 13.237684582170141 2.8882285676538
    vertex 5.289277683177217 13.28879584273654 2.5000000000000178
  endloop
endfacet
facet normal 1.0 1.0412381938494987e-16 3.462525350160511e-17
  outer loop
    vertex 5.289277683177215 19.73879584273653 8.999999999999998
    vertex 5.289277683177217 13.28879584273654 2.5000000000000178
    vertex 5.289277683177212 16.8520444967884 4.999999999999999
  endloop
endfacet
facet normal 1.0 1.0412381938494987e-16 3.462525350160511e-17
  outer loop
    vertex 5.289277683177215 19.73879584273653 8.999999999999998
    vertex 5.289277683177212 16.8520444967884 4.999999999999999
    vertex 5.289277683177212 19.73879584273653 4.999999999999999
  endloop
endfacet
facet normal -4.803949220494245e-07 -0.9999999999921794 -3.925655848531035e-06
  outer loop
    vertex 5.289277683177212 3.8345451815852583 4.999999999999999
    vertex -17.397618599184423 3.834545181585259 8.999999999999998
    vertex -17.397607859978507 3.8345765868268877 4.999999071242589
  endloop
endfacet
facet normal -4.803949220494245e-07 -0.9999999999921794 -3.925655848531035e-06
  outer loop
    vertex -17.397618599184423 3.834545181585259 8.999999999999998
    vertex 5.289277683177212 3.8345451815852583 4.999999999999999
    vertex 5.289277683177215 3.8345451815852574 8.999999999999998
  endloop
endfacet
facet normal 7.20896106336331e-17 -2.098821156514499e-17 1.0
  outer loop
    vertex -17.397618599184423 3.834545181585259 8.999999999999998
    vertex -14.608287059162512 11.01228696247379 8.999997681343865
    vertex -14.710524321407174 11.788742156888969 8.999997756875292
  endloop
endfacet
facet normal 7.20896106336331e-17 -2.098821156514499e-17 1.0
  outer loop
    vertex -14.608287059162512 11.01228696247379 8.999997681343865
    vertex -17.397618599184423 3.834545181585259 8.999999999999998
    vertex -14.3085720551679 10.288749787819935 8.999997503804405
  endloop
endfacet
facet normal 7.20896106336331e-17 -2.098821156514499e-17 1.0
  outer loop
    vertex -14.3085720551679 10.288749787819935 8.999997503804405
    vertex -17.397618599184423 3.834545181585259 8.999999999999998
    vertex -13.831804391643113 9.667438495678349 8.99999723635593
  endloop
endfacet
facet normal 7.20896106336331e-17 -2.098821156514499e-17 1.0
  outer loop
    vertex -13.831804391643113 9.667438495678349 8.99999723635593
    vertex -17.397618599184423 3.834545181585259 8.999999999999998
    vertex -13.210474996961546 9.190694423843025 8.999996897224628
  endloop
endfacet
facet normal 7.20896106336331e-17 -2.098821156514499e-17 1.0
  outer loop
    vertex -13.210474996961546 9.190694423843025 8.999996897224628
    vertex -17.397618599184423 3.834545181585259 8.999999999999998
    vertex -12.486926442575378 8.891006892952708 8.999996509521718
  endloop
endfacet
facet normal 7.20896106336331e-17 -2.098821156514499e-17 1.0
  outer loop
    vertex -12.486926442575378 8.891006892952708 8.999996509521718
    vertex -17.397618599184423 3.834545181585259 8.999999999999998
    vertex 5.289277683177215 3.8345451815852574 8.999999999999998
  endloop
endfacet
facet normal 7.20896106336331e-17 -2.098821156514499e-17 1.0
  outer loop
    vertex -12.486926442575378 8.891006892952708 8.999996509521718
    vertex 5.289277683177215 3.8345451815852574 8.999999999999998
    vertex -11.7104673667455 8.788799112980511 8.999996099668522
  endloop
endfacet
facet normal 7.20896106336331e-17 -2.098821156514499e-17 1.0
  outer loop
    vertex -11.7104673667455 8.788799112980511 8.999996099668522
    vertex 5.289277683177215 3.8345451815852574 8.999999999999998
    vertex -10.934012172330425 8.891036375225202 8.999995695595851
  endloop
endfacet
facet normal 7.20896106336331e-17 -2.098821156514499e-17 1.0
  outer loop
    vertex -10.934012172330425 8.891036375225202 8.999995695595851
    vertex 5.289277683177215 3.8345451815852574 8.999999999999998
    vertex -10.210474997676666 9.190751379219863 8.9999953248406
  endloop
endfacet
facet normal 7.20896106336331e-17 -2.098821156514499e-17 1.0
  outer loop
    vertex -10.210474997676666 9.190751379219863 8.9999953248406
    vertex 5.289277683177215 3.8345451815852574 8.999999999999998
    vertex -9.589163705535158 9.667519042744726 8.999995012669126
  endloop
endfacet
facet normal 7.20896106336331e-17 -2.098821156514499e-17 1.0
  outer loop
    vertex -9.589163705535158 9.667519042744726 8.999995012669126
    vertex 5.289277683177215 3.8345451815852574 8.999999999999998
    vertex -9.112419633699888 10.288848437426383 8.999994780355392
  endloop
endfacet
facet normal 7.20896106336331e-17 -2.098821156514499e-17 1.0
  outer loop
    vertex -9.112419633699888 10.288848437426383 8.999994780355392
    vertex 5.289277683177215 3.8345451815852574 8.999999999999998
    vertex -8.812732102809603 11.012396991812658 8.999994643731187
  endloop
endfacet
facet normal 7.20896106336331e-17 -2.098821156514499e-17 1.0
  outer loop
    vertex -8.812732102809603 11.012396991812658 8.999994643731187
    vertex 5.289277683177215 3.8345451815852574 8.999999999999998
    vertex -8.71052432283741 11.788856067642646 8.999994612107248
  endloop
endfacet
facet normal 7.20896106336331e-17 -2.098821156514499e-17 1.0
  outer loop
    vertex -19.58239370635503 9.830879599746805 9.000000000000002
    vertex -19.582393706355035 13.746712085726251 9.000000000000002
    vertex -19.710722316822782 11.788795842736535 9.000000000000002
  endloop
endfacet
facet normal 7.20896106336331e-17 -2.098821156514499e-17 1.0
  outer loop
    vertex -19.582393706355035 13.746712085726251 9.000000000000002
    vertex -19.58239370635503 9.830879599746805 9.000000000000002
    vertex -19.199603613056308 15.671127838961477 9.000000000000002
  endloop
endfacet
facet normal 7.20896106336331e-17 -2.098821156514499e-17 1.0
  outer loop
    vertex -19.199603613056308 15.671127838961477 9.000000000000002
    vertex -19.58239370635503 9.830879599746805 9.000000000000002
    vertex -19.199603613056304 7.906463846511581 9.000000000000002
  endloop
endfacet
facet normal 7.20896106336331e-17 -2.098821156514499e-17 1.0
  outer loop
    vertex -19.199603613056308 15.671127838961477 9.000000000000002
    vertex -19.199603613056304 7.906463846511581 9.000000000000002
    vertex -18.568901681552408 17.52911581535551 9.000000000000002
  endloop
endfacet
facet normal 7.20896106336331e-17 -2.098821156514499e-17 1.0
  outer loop
    vertex -18.568901681552408 17.52911581535551 9.000000000000002
    vertex -19.199603613056304 7.906463846511581 9.000000000000002
    vertex -18.5689016815524 6.04847587011755 9.000000000000002
  endloop
endfacet
facet normal 7.20896106336331e-17 -2.098821156514499e-17 1.0
  outer loop
    vertex -18.568901681552408 17.52911581535551 9.000000000000002
    vertex -18.5689016815524 6.04847587011755 9.000000000000002
    vertex -17.701079396754974 19.288885325500665 9.000000000000002
  endloop
endfacet
facet normal 7.20896106336331e-17 -2.098821156514499e-17 1.0
  outer loop
    vertex -17.701079396754974 19.288885325500665 9.000000000000002
    vertex -18.5689016815524 6.04847587011755 9.000000000000002
    vertex -17.70107939675497 4.288706359972399 9.000000000000002
  endloop
endfacet
facet normal 7.20896106336331e-17 -2.098821156514499e-17 1.0
  outer loop
    vertex -17.701079396754974 19.288885325500665 9.000000000000002
    vertex -17.70107939675497 4.288706359972399 9.000000000000002
    vertex -17.40045880016275 19.738795842736533 8.999999999999998
  endloop
endfacet
facet normal 7.20896106336331e-17 -2.098821156514499e-17 1.0
  outer loop
    vertex -17.40045880016275 19.738795842736533 8.999999999999998
    vertex -17.70107939675497 4.288706359972399 9.000000000000002
    vertex -17.397618599184423 3.834545181585259 8.999999999999998
  endloop
endfacet
facet normal 7.20896106336331e-17 -2.098821156514499e-17 1.0
  outer loop
    vertex -17.40045880016275 19.738795842736533 8.999999999999998
    vertex -17.397618599184423 3.834545181585259 8.999999999999998
    vertex -14.608316541434982 12.565201232718957 8.999997725251342
  endloop
endfacet
facet normal 7.20896106336331e-17 -2.098821156514499e-17 1.0
  outer loop
    vertex -17.40045880016275 19.738795842736533 8.999999999999998
    vertex -14.608316541434982 12.565201232718957 8.999997725251342
    vertex -14.308629010544696 13.288749787105235 8.999997588627147
  endloop
endfacet
facet normal 7.20896106336331e-17 -2.098821156514499e-17 1.0
  outer loop
    vertex -17.40045880016275 19.738795842736533 8.999999999999998
    vertex -14.308629010544696 13.288749787105235 8.999997588627147
    vertex -13.831884938709427 13.910079181786893 8.999997356313413
  endloop
endfacet
facet normal 7.20896106336331e-17 -2.098821156514499e-17 1.0
  outer loop
    vertex -17.40045880016275 19.738795842736533 8.999999999999998
    vertex -13.831884938709427 13.910079181786893 8.999997356313413
    vertex -13.210573646567918 14.386846845311755 8.999997044141939
  endloop
endfacet
facet normal 7.20896106336331e-17 -2.098821156514499e-17 1.0
  outer loop
    vertex -17.40045880016275 19.738795842736533 8.999999999999998
    vertex -13.210573646567918 14.386846845311755 8.999997044141939
    vertex -12.487036471914159 14.686561849306417 8.999996673386688
  endloop
endfacet
facet normal 7.20896106336331e-17 -2.098821156514499e-17 1.0
  outer loop
    vertex -17.40045880016275 19.738795842736533 8.999999999999998
    vertex -12.487036471914159 14.686561849306417 8.999996673386688
    vertex 5.289277683177215 19.73879584273653 8.999999999999998
  endloop
endfacet
facet normal 7.20896106336331e-17 -2.098821156514499e-17 1.0
  outer loop
    vertex -14.608316541434982 12.565201232718957 8.999997725251342
    vertex -17.397618599184423 3.834545181585259 8.999999999999998
    vertex -14.710524321407174 11.788742156888969 8.999997756875292
  endloop
endfacet
facet normal 7.20896106336331e-17 -2.098821156514499e-17 1.0
  outer loop
    vertex 5.289277683177215 19.73879584273653 8.999999999999998
    vertex -12.487036471914159 14.686561849306417 8.999996673386688
    vertex -11.710581277499086 14.788799111551105 8.999996269314018
  endloop
endfacet
facet normal 7.20896106336331e-17 -2.098821156514499e-17 1.0
  outer loop
    vertex 5.289277683177215 19.73879584273653 8.999999999999998
    vertex -11.710581277499086 14.788799111551105 8.999996269314018
    vertex -10.934122201669206 14.68659133157891 8.999995859460823
  endloop
endfacet
facet normal 7.20896106336331e-17 -2.098821156514499e-17 1.0
  outer loop
    vertex 5.289277683177215 19.73879584273653 8.999999999999998
    vertex -10.934122201669206 14.68659133157891 8.999995859460823
    vertex -10.210573647283036 14.386903800688591 8.999995471757911
  endloop
endfacet
facet normal 7.20896106336331e-17 -2.098821156514499e-17 1.0
  outer loop
    vertex 5.289277683177215 19.73879584273653 8.999999999999998
    vertex -10.210573647283036 14.386903800688591 8.999995471757911
    vertex -9.58924425260147 13.910159728853264 8.99999513262661
  endloop
endfacet
facet normal 7.20896106336331e-17 -2.098821156514499e-17 1.0
  outer loop
    vertex 5.289277683177215 19.73879584273653 8.999999999999998
    vertex -9.58924425260147 13.910159728853264 8.99999513262661
    vertex -9.112476589076682 13.288848436711682 8.999994865178135
  endloop
endfacet
facet normal 7.20896106336331e-17 -2.098821156514499e-17 1.0
  outer loop
    vertex 5.289277683177215 19.73879584273653 8.999999999999998
    vertex -9.112476589076682 13.288848436711682 8.999994865178135
    vertex -8.812761585082072 12.565311262057824 8.999994687638674
  endloop
endfacet
facet normal 7.20896106336331e-17 -2.098821156514499e-17 1.0
  outer loop
    vertex 5.289277683177215 19.73879584273653 8.999999999999998
    vertex -8.812761585082072 12.565311262057824 8.999994687638674
    vertex -8.71052432283741 11.788856067642646 8.999994612107248
  endloop
endfacet
facet normal 7.20896106336331e-17 -2.098821156514499e-17 1.0
  outer loop
    vertex 5.289277683177215 19.73879584273653 8.999999999999998
    vertex -8.71052432283741 11.788856067642646 8.999994612107248
    vertex 5.289277683177215 3.8345451815852574 8.999999999999998
  endloop
endfacet
facet normal -4.523820431874334e-07 0.9999999999930638 -3.6970525911708277e-06
  outer loop
    vertex -17.400448917154634 19.738766266320273 5.00002253413575
    vertex 5.289277683177215 19.73879584273653 8.999999999999998
    vertex 5.289277683177212 19.73879584273653 4.999999999999999
  endloop
endfacet
facet normal -4.523820431874334e-07 0.9999999999930638 -3.6970525911708277e-06
  outer loop
    vertex 5.289277683177215 19.73879584273653 8.999999999999998
    vertex -17.400448917154634 19.738766266320273 5.00002253413575
    vertex -17.40045880016275 19.738795842736533 8.999999999999998
  endloop
endfacet
facet normal -2.414905146249963e-07 2.075923942343792e-06 -0.9999999999978162
  outer loop
    vertex 0.2892776831772201 6.725547188684667 4.999999999999999
    vertex -17.397607859978507 3.8345765868268877 4.999999071242589
    vertex -17.397607859978514 6.72545960272745 5.000016287291532
  endloop
endfacet
facet normal -2.414905146249963e-07 2.075923942343792e-06 -0.9999999999978162
  outer loop
    vertex -17.397607859978507 3.8345765868268877 4.999999071242589
    vertex 0.2892776831772201 6.725547188684667 4.999999999999999
    vertex 5.289277683177212 3.8345451815852583 4.999999999999999
  endloop
endfacet
facet normal -2.414905146249963e-07 2.075923942343792e-06 -0.9999999999978162
  outer loop
    vertex 5.289277683177212 3.8345451815852583 4.999999999999999
    vertex 0.2892776831772201 6.725547188684667 4.999999999999999
    vertex 5.289277683177212 6.725547188684666 4.999999999999999
  endloop
endfacet
facet normal 1.0 1.950944512752437e-15 -1.1263783396116413e-15
  outer loop
    vertex -17.397607859978514 6.72545960272745 5.000016287291532
    vertex -17.397607859978507 3.8345765868268877 4.999999071242589
    vertex -17.397607859978514 3.8387082567793263 1.6287291533450492e-05
  endloop
endfacet
facet normal -5.241285440596621e-07 2.826429868245134e-08 -0.9999999999998623
  outer loop
    vertex -19.58237939432829 13.746715609633595 1.795628555691566e-05
    vertex -19.582379394328285 9.830883123654152 1.795628555691566e-05
    vertex -19.710708004796036 11.788799366643882 1.795628555691566e-05
  endloop
endfacet
facet normal -5.241285440596621e-07 2.826429868245134e-08 -0.9999999999998623
  outer loop
    vertex -19.582379394328285 9.830883123654152 1.795628555691566e-05
    vertex -19.58237939432829 13.746715609633595 1.795628555691566e-05
    vertex -19.199589301029565 15.67113136286882 1.795628555691566e-05
  endloop
endfacet
facet normal -5.241285440596621e-07 2.826429868245134e-08 -0.9999999999998623
  outer loop
    vertex -19.582379394328285 9.830883123654152 1.795628555691566e-05
    vertex -19.199589301029565 15.67113136286882 1.795628555691566e-05
    vertex -19.199589301029558 7.9064673704189286 1.795628555691566e-05
  endloop
endfacet
facet normal -5.241285440596621e-07 2.826429868245134e-08 -0.9999999999998623
  outer loop
    vertex -19.199589301029558 7.9064673704189286 1.795628555691566e-05
    vertex -19.199589301029565 15.67113136286882 1.795628555691566e-05
    vertex -18.568887369525665 17.529119339262856 1.795628555691566e-05
  endloop
endfacet
facet normal -5.241285440596621e-07 2.826429868245134e-08 -0.9999999999998623
  outer loop
    vertex -19.199589301029558 7.9064673704189286 1.795628555691566e-05
    vertex -18.568887369525665 17.529119339262856 1.795628555691566e-05
    vertex -18.568887369525658 6.048479394024896 1.795628555691566e-05
  endloop
endfacet
facet normal -5.241285440596621e-07 2.826429868245134e-08 -0.9999999999998623
  outer loop
    vertex -18.568887369525658 6.048479394024896 1.795628555691566e-05
    vertex -18.568887369525665 17.529119339262856 1.795628555691566e-05
    vertex -17.70106508472823 19.288888849408007 1.795628555691566e-05
  endloop
endfacet
facet normal -5.241285440596621e-07 2.826429868245134e-08 -0.9999999999998623
  outer loop
    vertex -18.568887369525658 6.048479394024896 1.795628555691566e-05
    vertex -17.70106508472823 19.288888849408007 1.795628555691566e-05
    vertex -17.701065084728228 4.288709883879744 1.795628555691566e-05
  endloop
endfacet
facet normal -5.241285440596621e-07 2.826429868245134e-08 -0.9999999999998623
  outer loop
    vertex -17.701065084728228 4.288709883879744 1.795628555691566e-05
    vertex -17.70106508472823 19.288888849408007 1.795628555691566e-05
    vertex -17.400444488136007 19.738799366643878 1.795628555550568e-05
  endloop
endfacet
facet normal -5.241285440596621e-07 2.826429868245134e-08 -0.9999999999998623
  outer loop
    vertex -17.701065084728228 4.288709883879744 1.795628555691566e-05
    vertex -17.400444488136007 19.738799366643878 1.795628555550568e-05
    vertex -17.397607859978514 3.8387082567793263 1.6287291533450492e-05
  endloop
endfacet
facet normal -5.241285440596621e-07 2.826429868245134e-08 -0.9999999999998623
  outer loop
    vertex -17.397607859978514 3.8387082567793263 1.6287291533450492e-05
    vertex -17.400444488136007 19.738799366643878 1.795628555550568e-05
    vertex -14.608321258580467 12.565201487097031 1.949704563524183e-05
  endloop
endfacet
facet normal -5.241285440596621e-07 2.826429868245134e-08 -0.9999999999998623
  outer loop
    vertex -14.608321258580467 12.565201487097031 1.949704563524183e-05
    vertex -17.400444488136007 19.738799366643878 1.795628555550568e-05
    vertex -14.30863372769018 13.288750041483306 1.936042143845588e-05
  endloop
endfacet
facet normal -5.241285440596621e-07 2.826429868245134e-08 -0.9999999999998623
  outer loop
    vertex -14.30863372769018 13.288750041483306 1.936042143845588e-05
    vertex -17.400444488136007 19.738799366643878 1.795628555550568e-05
    vertex -13.831889655854912 13.910079436164965 1.912810770178722e-05
  endloop
endfacet
facet normal -5.241285440596621e-07 2.826429868245134e-08 -0.9999999999998623
  outer loop
    vertex -13.831889655854912 13.910079436164965 1.912810770178722e-05
    vertex -17.400444488136007 19.738799366643878 1.795628555550568e-05
    vertex -13.210578363713402 14.386847099689826 1.8815936222473223e-05
  endloop
endfacet
facet normal -5.241285440596621e-07 2.826429868245134e-08 -0.9999999999998623
  outer loop
    vertex -13.210578363713402 14.386847099689826 1.8815936222473223e-05
    vertex -17.400444488136007 19.738799366643878 1.795628555550568e-05
    vertex -12.487041189059644 14.686562103684487 1.844518097094137e-05
  endloop
endfacet
facet normal -5.241285440596621e-07 2.826429868245134e-08 -0.9999999999998623
  outer loop
    vertex -12.487041189059644 14.686562103684487 1.844518097094137e-05
    vertex -17.400444488136007 19.738799366643878 1.795628555550568e-05
    vertex 5.289277683177212 19.73879584273653 7.112348959394109e-16
  endloop
endfacet
facet normal -5.241285440596621e-07 2.826429868245134e-08 -0.9999999999998623
  outer loop
    vertex -17.397607859978514 3.8387082567793263 1.6287291533450492e-05
    vertex -14.608321258580467 12.565201487097031 1.949704563524183e-05
    vertex -14.71052903855266 11.788742411267043 1.9528669578916272e-05
  endloop
endfacet
facet normal -5.241285440596621e-07 2.826429868245134e-08 -0.9999999999998623
  outer loop
    vertex -12.487041189059644 14.686562103684487 1.844518097094137e-05
    vertex 5.289277683177212 19.73879584273653 7.112348959394109e-16
    vertex -11.710585994644571 14.788799365929176 1.804110830488154e-05
  endloop
endfacet
facet normal -5.241285440596621e-07 2.826429868245134e-08 -0.9999999999998623
  outer loop
    vertex -11.710585994644571 14.788799365929176 1.804110830488154e-05
    vertex 5.289277683177212 19.73879584273653 7.112348959394109e-16
    vertex -10.93412691881469 14.68659158595698 1.7631255108724053e-05
  endloop
endfacet
facet normal -5.241285440596621e-07 2.826429868245134e-08 -0.9999999999998623
  outer loop
    vertex -10.93412691881469 14.68659158595698 1.7631255108724053e-05
    vertex 5.289277683177212 19.73879584273653 7.112348959394109e-16
    vertex -10.21057836442852 14.386904055066664 1.724355220047261e-05
  endloop
endfacet
facet normal -5.241285440596621e-07 2.826429868245134e-08 -0.9999999999998623
  outer loop
    vertex -10.21057836442852 14.386904055066664 1.724355220047261e-05
    vertex 5.289277683177212 19.73879584273653 7.112348959394109e-16
    vertex -9.589248969746953 13.910159983231337 1.6904420892615204e-05
  endloop
endfacet
facet normal -5.241285440596621e-07 2.826429868245134e-08 -0.9999999999998623
  outer loop
    vertex -9.589248969746953 13.910159983231337 1.6904420892615204e-05
    vertex 5.289277683177212 19.73879584273653 7.112348959394109e-16
    vertex -9.112481306222167 13.288848691089752 1.663697242334132e-05
  endloop
endfacet
facet normal -5.241285440596621e-07 2.826429868245134e-08 -0.9999999999998623
  outer loop
    vertex -9.112481306222167 13.288848691089752 1.663697242334132e-05
    vertex 5.289277683177212 19.73879584273653 7.112348959394109e-16
    vertex -8.812766302227557 12.565311516435898 1.6459432963852494e-05
  endloop
endfacet
facet normal -5.241285440596621e-07 2.826429868245134e-08 -0.9999999999998623
  outer loop
    vertex -8.812766302227557 12.565311516435898 1.6459432963852494e-05
    vertex 5.289277683177212 19.73879584273653 7.112348959394109e-16
    vertex -8.710529039982893 11.78885632202072 1.638390153491505e-05
  endloop
endfacet
facet normal -5.241285440596621e-07 2.826429868245134e-08 -0.9999999999998623
  outer loop
    vertex -17.397607859978514 3.8387082567793263 1.6287291533450492e-05
    vertex -12.486931159720863 8.891007147330782 1.8281316005107268e-05
    vertex 5.289277683177217 3.83879584273654 7.112348959394109e-16
  endloop
endfacet
facet normal -5.241285440596621e-07 2.826429868245134e-08 -0.9999999999998623
  outer loop
    vertex -12.486931159720863 8.891007147330782 1.8281316005107268e-05
    vertex -17.397607859978514 3.8387082567793263 1.6287291533450492e-05
    vertex -13.210479714107032 9.1906946782211 1.866901891335871e-05
  endloop
endfacet
facet normal -5.241285440596621e-07 2.826429868245134e-08 -0.9999999999998623
  outer loop
    vertex -13.210479714107032 9.1906946782211 1.866901891335871e-05
    vertex -17.397607859978514 3.8387082567793263 1.6287291533450492e-05
    vertex -13.831809108788597 9.667438750056423 1.9008150221216117e-05
  endloop
endfacet
facet normal -5.241285440596621e-07 2.826429868245134e-08 -0.9999999999998623
  outer loop
    vertex -13.831809108788597 9.667438750056423 1.9008150221216117e-05
    vertex -17.397607859978514 3.8387082567793263 1.6287291533450492e-05
    vertex -14.308576772313385 10.288750042198009 1.927559869049e-05
  endloop
endfacet
facet normal -5.241285440596621e-07 2.826429868245134e-08 -0.9999999999998623
  outer loop
    vertex -14.308576772313385 10.288750042198009 1.927559869049e-05
    vertex -17.397607859978514 3.8387082567793263 1.6287291533450492e-05
    vertex -14.608291776307997 11.012287216851863 1.9453138149978827e-05
  endloop
endfacet
facet normal -5.241285440596621e-07 2.826429868245134e-08 -0.9999999999998623
  outer loop
    vertex -14.608291776307997 11.012287216851863 1.9453138149978827e-05
    vertex -17.397607859978514 3.8387082567793263 1.6287291533450492e-05
    vertex -14.71052903855266 11.788742411267043 1.9528669578916272e-05
  endloop
endfacet
facet normal -5.241285440596621e-07 2.826429868245134e-08 -0.9999999999998623
  outer loop
    vertex 5.289277683177217 3.83879584273654 7.112348959394109e-16
    vertex -12.486931159720863 8.891007147330782 1.8281316005107268e-05
    vertex -11.710472083890982 8.788799367358585 1.7871462808949783e-05
  endloop
endfacet
facet normal -5.241285440596621e-07 2.826429868245134e-08 -0.9999999999998623
  outer loop
    vertex 5.289277683177217 3.83879584273654 7.112348959394109e-16
    vertex -11.710472083890982 8.788799367358585 1.7871462808949783e-05
    vertex -10.934016889475908 8.891036629603276 1.746739014288995e-05
  endloop
endfacet
facet normal -5.241285440596621e-07 2.826429868245134e-08 -0.9999999999998623
  outer loop
    vertex 5.289277683177217 3.83879584273654 7.112348959394109e-16
    vertex -10.934016889475908 8.891036629603276 1.746739014288995e-05
    vertex -10.210479714822151 9.190751633597937 1.7096634891358098e-05
  endloop
endfacet
facet normal -5.241285440596621e-07 2.826429868245134e-08 -0.9999999999998623
  outer loop
    vertex 5.289277683177217 3.83879584273654 7.112348959394109e-16
    vertex -10.210479714822151 9.190751633597937 1.7096634891358098e-05
    vertex -9.589168422680642 9.6675192971228 1.6784463412044097e-05
  endloop
endfacet
facet normal -5.241285440596621e-07 2.826429868245134e-08 -0.9999999999998623
  outer loop
    vertex 5.289277683177217 3.83879584273654 7.112348959394109e-16
    vertex -9.589168422680642 9.6675192971228 1.6784463412044097e-05
    vertex -9.112424350845373 10.288848691804457 1.6552149675375443e-05
  endloop
endfacet
facet normal -5.241285440596621e-07 2.826429868245134e-08 -0.9999999999998623
  outer loop
    vertex 5.289277683177217 3.83879584273654 7.112348959394109e-16
    vertex -9.112424350845373 10.288848691804457 1.6552149675375443e-05
    vertex -8.812736819955088 11.012397246190732 1.641552547858949e-05
  endloop
endfacet
facet normal -5.241285440596621e-07 2.826429868245134e-08 -0.9999999999998623
  outer loop
    vertex 5.289277683177217 3.83879584273654 7.112348959394109e-16
    vertex -8.812736819955088 11.012397246190732 1.641552547858949e-05
    vertex -8.710529039982893 11.78885632202072 1.638390153491505e-05
  endloop
endfacet
facet normal -5.241285440596621e-07 2.826429868245134e-08 -0.9999999999998623
  outer loop
    vertex 5.289277683177217 3.83879584273654 7.112348959394109e-16
    vertex -8.710529039982893 11.78885632202072 1.638390153491505e-05
    vertex 5.289277683177212 19.73879584273653 7.112348959394109e-16
  endloop
endfacet
facet normal 0.9999999999994922 2.835568787661345e-07 9.67103592559205e-07
  outer loop
    vertex -17.400444488136007 19.738799366643878 1.795628555550568e-05
    vertex -17.400448917154634 19.738766266320273 5.00002253413575
    vertex -17.40044891715463 16.852110107225393 5.000047655920054
  endloop
endfacet
facet normal 0.9999999999994922 2.835568787661345e-07 9.67103592559205e-07
  outer loop
    vertex -17.400448917154634 19.738766266320273 5.00002253413575
    vertex -17.400444488136007 19.738799366643878 1.795628555550568e-05
    vertex -17.400449347085523 19.73879810108261 3.3258801484981375
  endloop
endfacet
facet normal -0.7933417827359598 -0.6087764908118336 3.98606432959991e-07
  outer loop
    vertex -9.58924425260147 13.910159728853264 8.99999513262661
    vertex -9.112481306222167 13.288848691089752 1.663697242334132e-05
    vertex -9.112476589076682 13.288848436711682 8.999994865178135
  endloop
endfacet
facet normal -0.7933417827359598 -0.6087764908118336 3.98606432959991e-07
  outer loop
    vertex -9.112481306222167 13.288848691089752 1.663697242334132e-05
    vertex -9.58924425260147 13.910159728853264 8.99999513262661
    vertex -9.589248969746953 13.910159983231337 1.6904420892615204e-05
  endloop
endfacet
facet normal -0.9238722670516328 -0.38270097226509975 4.734110516407727e-07
  outer loop
    vertex -9.112476589076682 13.288848436711682 8.999994865178135
    vertex -8.812766302227557 12.565311516435898 1.6459432963852494e-05
    vertex -8.812761585082072 12.565311262057824 8.999994687638674
  endloop
endfacet
facet normal -0.9238722670516328 -0.38270097226509975 4.734110516407727e-07
  outer loop
    vertex -8.812766302227557 12.565311516435898 1.6459432963852494e-05
    vertex -9.112476589076682 13.288848436711682 8.999994865178135
    vertex -9.112481306222167 13.288848691089752 1.663697242334132e-05
  endloop
endfacet
facet normal -0.9914423831388453 -0.13054501490176082 5.159534895009886e-07
  outer loop
    vertex -8.812761585082072 12.565311262057824 8.999994687638674
    vertex -8.710529039982893 11.78885632202072 1.638390153491505e-05
    vertex -8.71052432283741 11.788856067642646 8.999994612107248
  endloop
endfacet
facet normal -0.9914423831388453 -0.13054501490176082 5.159534895009886e-07
  outer loop
    vertex -8.710529039982893 11.78885632202072 1.638390153491505e-05
    vertex -8.812761585082072 12.565311262057824 8.999994687638674
    vertex -8.812766302227557 12.565311516435898 1.6459432963852494e-05
  endloop
endfacet
facet normal -0.9914473392511517 0.13050736949129735 5.233345497051684e-07
  outer loop
    vertex -8.71052432283741 11.788856067642646 8.999994612107248
    vertex -8.812736819955088 11.012397246190732 1.641552547858949e-05
    vertex -8.812732102809603 11.012396991812658 8.999994643731187
  endloop
endfacet
facet normal -0.9914473392511517 0.13050736949129735 5.233345497051684e-07
  outer loop
    vertex -8.812736819955088 11.012397246190732 1.641552547858949e-05
    vertex -8.71052432283741 11.788856067642646 8.999994612107248
    vertex -8.710529039982893 11.78885632202072 1.638390153491505e-05
  endloop
endfacet
facet normal -0.9238867976376895 0.3826658923271452 4.950512251981764e-07
  outer loop
    vertex -8.812732102809603 11.012396991812658 8.999994643731187
    vertex -9.112424350845373 10.288848691804457 1.6552149675375443e-05
    vertex -9.112419633699888 10.288848437426383 8.999994780355392
  endloop
endfacet
facet normal -0.9238867976376895 0.3826658923271452 4.950512251981764e-07
  outer loop
    vertex -9.112424350845373 10.288848691804457 1.6552149675375443e-05
    vertex -8.812732102809603 11.012396991812658 8.999994643731187
    vertex -8.812736819955088 11.012397246190732 1.641552547858949e-05
  endloop
endfacet
facet normal -0.7933648975603393 0.6087463669861899 4.3303097780475907e-07
  outer loop
    vertex -9.112419633699888 10.288848437426383 8.999994780355392
    vertex -9.589168422680642 9.6675192971228 1.6784463412044097e-05
    vertex -9.589163705535158 9.667519042744726 8.999995012669126
  endloop
endfacet
facet normal -0.7933648975603393 0.6087463669861899 4.3303097780475907e-07
  outer loop
    vertex -9.589168422680642 9.6675192971228 1.6784463412044097e-05
    vertex -9.112419633699888 10.288848437426383 8.999994780355392
    vertex -9.112424350845373 10.288848691804457 1.6552149675375443e-05
  endloop
endfacet
facet normal -0.6087764908117378 0.79334178273606 3.4150038489147465e-07
  outer loop
    vertex -10.210479714822151 9.190751633597937 1.7096634891358098e-05
    vertex -9.589163705535158 9.667519042744726 8.999995012669126
    vertex -9.589168422680642 9.6675192971228 1.6784463412044097e-05
  endloop
endfacet
facet normal -0.6087764908117378 0.79334178273606 3.4150038489147465e-07
  outer loop
    vertex -9.589163705535158 9.667519042744726 8.999995012669126
    vertex -10.210479714822151 9.190751633597937 1.7096634891358098e-05
    vertex -10.210474997676666 9.190751379219863 8.9999953248406
  endloop
endfacet
facet normal -0.38270097226503363 0.9238722670517535 2.266971051039051e-07
  outer loop
    vertex -10.934016889475908 8.891036629603276 1.746739014288995e-05
    vertex -10.210474997676666 9.190751379219863 8.9999953248406
    vertex -10.210479714822151 9.190751633597937 1.7096634891358098e-05
  endloop
endfacet
facet normal -0.38270097226503363 0.9238722670517535 2.266971051039051e-07
  outer loop
    vertex -10.210474997676666 9.190751379219863 8.9999953248406
    vertex -10.934016889475908 8.891036629603276 1.746739014288995e-05
    vertex -10.934012172330425 8.891036375225202 8.999995695595851
  endloop
endfacet
facet normal -0.13054501490172954 0.9914423831389789 9.644479223818531e-08
  outer loop
    vertex -11.710472083890982 8.788799367358585 1.7871462808949783e-05
    vertex -10.934012172330425 8.891036375225202 8.999995695595851
    vertex -10.934016889475908 8.891036629603276 1.746739014288995e-05
  endloop
endfacet
facet normal -0.13054501490172954 0.9914423831389789 9.644479223818531e-08
  outer loop
    vertex -10.934012172330425 8.891036375225202 8.999995695595851
    vertex -11.710472083890982 8.788799367358585 1.7871462808949783e-05
    vertex -11.7104673667455 8.788799112980511 8.999996099668522
  endloop
endfacet
facet normal 0.13050736949129293 0.9914473392512896 -4.038007383601335e-08
  outer loop
    vertex -12.486931159720863 8.891007147330782 1.8281316005107268e-05
    vertex -11.7104673667455 8.788799112980511 8.999996099668522
    vertex -11.710472083890982 8.788799367358585 1.7871462808949783e-05
  endloop
endfacet
facet normal 0.13050736949129293 0.9914473392512896 -4.038007383601335e-08
  outer loop
    vertex -11.7104673667455 8.788799112980511 8.999996099668522
    vertex -12.486931159720863 8.891007147330782 1.8281316005107268e-05
    vertex -12.486926442575378 8.891006892952708 8.999996509521718
  endloop
endfacet
facet normal 0.38266589232710907 0.9238867976378206 -1.7445310460951473e-07
  outer loop
    vertex -13.210479714107032 9.1906946782211 1.866901891335871e-05
    vertex -12.486926442575378 8.891006892952708 8.999996509521718
    vertex -12.486931159720863 8.891007147330782 1.8281316005107268e-05
  endloop
endfacet
facet normal 0.38266589232710907 0.9238867976378206 -1.7445310460951473e-07
  outer loop
    vertex -12.486926442575378 8.891006892952708 8.999996509521718
    vertex -13.210479714107032 9.1906946782211 1.866901891335871e-05
    vertex -13.210474996961546 9.190694423843025 8.999996897224628
  endloop
endfacet
facet normal 0.608746366986118 0.7933648975604574 -2.966374446012632e-07
  outer loop
    vertex -13.831809108788597 9.667438750056423 1.9008150221216117e-05
    vertex -13.210474996961546 9.190694423843025 8.999996897224628
    vertex -13.210479714107032 9.1906946782211 1.866901891335871e-05
  endloop
endfacet
facet normal 0.608746366986118 0.7933648975604574 -2.966374446012632e-07
  outer loop
    vertex -13.210474996961546 9.190694423843025 8.999996897224628
    vertex -13.831809108788597 9.667438750056423 1.9008150221216117e-05
    vertex -13.831804391643113 9.667438495678349 8.99999723635593
  endloop
endfacet
facet normal 0.7933417827359603 0.608776490811833 -3.9860643295999127e-07
  outer loop
    vertex -13.831809108788597 9.667438750056423 1.9008150221216117e-05
    vertex -14.3085720551679 10.288749787819935 8.999997503804405
    vertex -13.831804391643113 9.667438495678349 8.99999723635593
  endloop
endfacet
facet normal 0.7933417827359603 0.608776490811833 -3.9860643295999127e-07
  outer loop
    vertex -14.3085720551679 10.288749787819935 8.999997503804405
    vertex -13.831809108788597 9.667438750056423 1.9008150221216117e-05
    vertex -14.308576772313385 10.288750042198009 1.927559869049e-05
  endloop
endfacet
facet normal 0.9238722670516318 0.38270097226510186 -4.734110516407721e-07
  outer loop
    vertex -14.308576772313385 10.288750042198009 1.927559869049e-05
    vertex -14.608287059162512 11.01228696247379 8.999997681343865
    vertex -14.3085720551679 10.288749787819935 8.999997503804405
  endloop
endfacet
facet normal 0.9238722670516318 0.38270097226510186 -4.734110516407721e-07
  outer loop
    vertex -14.608287059162512 11.01228696247379 8.999997681343865
    vertex -14.308576772313385 10.288750042198009 1.927559869049e-05
    vertex -14.608291776307997 11.012287216851863 1.9453138149978827e-05
  endloop
endfacet
facet normal 0.9914423831388454 0.13054501490176057 -5.159534895009887e-07
  outer loop
    vertex -14.608291776307997 11.012287216851863 1.9453138149978827e-05
    vertex -14.710524321407174 11.788742156888969 8.999997756875292
    vertex -14.608287059162512 11.01228696247379 8.999997681343865
  endloop
endfacet
facet normal 0.9914423831388454 0.13054501490176057 -5.159534895009887e-07
  outer loop
    vertex -14.710524321407174 11.788742156888969 8.999997756875292
    vertex -14.608291776307997 11.012287216851863 1.9453138149978827e-05
    vertex -14.71052903855266 11.788742411267043 1.9528669578916272e-05
  endloop
endfacet
facet normal 0.9914473392511519 -0.13050736949129535 -5.233345497051685e-07
  outer loop
    vertex -14.71052903855266 11.788742411267043 1.9528669578916272e-05
    vertex -14.608316541434982 12.565201232718957 8.999997725251342
    vertex -14.710524321407174 11.788742156888969 8.999997756875292
  endloop
endfacet
facet normal 0.9914473392511519 -0.13050736949129535 -5.233345497051685e-07
  outer loop
    vertex -14.608316541434982 12.565201232718957 8.999997725251342
    vertex -14.71052903855266 11.788742411267043 1.9528669578916272e-05
    vertex -14.608321258580467 12.565201487097031 1.949704563524183e-05
  endloop
endfacet
facet normal 0.9238867976376888 -0.3826658923271466 -4.95051225198176e-07
  outer loop
    vertex -14.608321258580467 12.565201487097031 1.949704563524183e-05
    vertex -14.308629010544696 13.288749787105235 8.999997588627147
    vertex -14.608316541434982 12.565201232718957 8.999997725251342
  endloop
endfacet
facet normal 0.9238867976376888 -0.3826658923271466 -4.95051225198176e-07
  outer loop
    vertex -14.308629010544696 13.288749787105235 8.999997588627147
    vertex -14.608321258580467 12.565201487097031 1.949704563524183e-05
    vertex -14.30863372769018 13.288750041483306 1.936042143845588e-05
  endloop
endfacet
facet normal 0.7933648975603402 -0.6087463669861888 -4.3303097780475955e-07
  outer loop
    vertex -14.30863372769018 13.288750041483306 1.936042143845588e-05
    vertex -13.831884938709427 13.910079181786893 8.999997356313413
    vertex -14.308629010544696 13.288749787105235 8.999997588627147
  endloop
endfacet
facet normal 0.7933648975603402 -0.6087463669861888 -4.3303097780475955e-07
  outer loop
    vertex -13.831884938709427 13.910079181786893 8.999997356313413
    vertex -14.30863372769018 13.288750041483306 1.936042143845588e-05
    vertex -13.831889655854912 13.910079436164965 1.912810770178722e-05
  endloop
endfacet
facet normal 0.6087764908117357 -0.7933417827360615 -3.415003848914736e-07
  outer loop
    vertex -13.210573646567918 14.386846845311755 8.999997044141939
    vertex -13.831889655854912 13.910079436164965 1.912810770178722e-05
    vertex -13.210578363713402 14.386847099689826 1.8815936222473223e-05
  endloop
endfacet
facet normal 0.6087764908117357 -0.7933417827360615 -3.415003848914736e-07
  outer loop
    vertex -13.831889655854912 13.910079436164965 1.912810770178722e-05
    vertex -13.210573646567918 14.386846845311755 8.999997044141939
    vertex -13.831884938709427 13.910079181786893 8.999997356313413
  endloop
endfacet
facet normal 0.3827009722650345 -0.9238722670517532 -2.2669710510390558e-07
  outer loop
    vertex -12.487036471914159 14.686561849306417 8.999996673386688
    vertex -13.210578363713402 14.386847099689826 1.8815936222473223e-05
    vertex -12.487041189059644 14.686562103684487 1.844518097094137e-05
  endloop
endfacet
facet normal 0.3827009722650345 -0.9238722670517532 -2.2669710510390558e-07
  outer loop
    vertex -13.210578363713402 14.386847099689826 1.8815936222473223e-05
    vertex -12.487036471914159 14.686561849306417 8.999996673386688
    vertex -13.210573646567918 14.386846845311755 8.999997044141939
  endloop
endfacet
facet normal 0.13054501490172804 -0.9914423831389793 -9.644479223818453e-08
  outer loop
    vertex -11.710581277499086 14.788799111551105 8.999996269314018
    vertex -12.487041189059644 14.686562103684487 1.844518097094137e-05
    vertex -11.710585994644571 14.788799365929176 1.804110830488154e-05
  endloop
endfacet
facet normal 0.13054501490172804 -0.9914423831389793 -9.644479223818453e-08
  outer loop
    vertex -12.487041189059644 14.686562103684487 1.844518097094137e-05
    vertex -11.710581277499086 14.788799111551105 8.999996269314018
    vertex -12.487036471914159 14.686561849306417 8.999996673386688
  endloop
endfacet
facet normal -0.13050736949129269 -0.9914473392512895 4.038007383601322e-08
  outer loop
    vertex -10.934122201669206 14.68659133157891 8.999995859460823
    vertex -11.710585994644571 14.788799365929176 1.804110830488154e-05
    vertex -10.93412691881469 14.68659158595698 1.7631255108724053e-05
  endloop
endfacet
facet normal -0.13050736949129269 -0.9914473392512895 4.038007383601322e-08
  outer loop
    vertex -11.710585994644571 14.788799365929176 1.804110830488154e-05
    vertex -10.934122201669206 14.68659133157891 8.999995859460823
    vertex -11.710581277499086 14.788799111551105 8.999996269314018
  endloop
endfacet
facet normal -0.38266589232710907 -0.9238867976378206 1.7445310460951473e-07
  outer loop
    vertex -10.210573647283036 14.386903800688591 8.999995471757911
    vertex -10.93412691881469 14.68659158595698 1.7631255108724053e-05
    vertex -10.21057836442852 14.386904055066664 1.724355220047261e-05
  endloop
endfacet
facet normal -0.38266589232710907 -0.9238867976378206 1.7445310460951473e-07
  outer loop
    vertex -10.93412691881469 14.68659158595698 1.7631255108724053e-05
    vertex -10.210573647283036 14.386903800688591 8.999995471757911
    vertex -10.934122201669206 14.68659133157891 8.999995859460823
  endloop
endfacet
facet normal -0.6087463669861193 -0.7933648975604561 2.9663744460126394e-07
  outer loop
    vertex -9.58924425260147 13.910159728853264 8.99999513262661
    vertex -10.21057836442852 14.386904055066664 1.724355220047261e-05
    vertex -9.589248969746953 13.910159983231337 1.6904420892615204e-05
  endloop
endfacet
facet normal -0.6087463669861193 -0.7933648975604561 2.9663744460126394e-07
  outer loop
    vertex -10.21057836442852 14.386904055066664 1.724355220047261e-05
    vertex -9.58924425260147 13.910159728853264 8.99999513262661
    vertex -10.210573647283036 14.386903800688591 8.999995471757911
  endloop
endfacet
endsolid Ластохвост-подшипник-6мм
