solid Ластохвост-подшипник-8мм
facet normal 5.110677098477619e-06 0.8660229896281816 0.5000041813918635
  outer loop
    vertex -4.710540735730369 16.852139683389666 5.000067434445387
    vertex 0.2892776831772195 16.8520444967884 4.999999999999999
    vertex -4.710540735730369 19.73889102933779 6.743444538808376e-05
  endloop
endfacet
facet normal 5.110677098477619e-06 0.8660229896281816 0.5000041813918635
  outer loop
    vertex -4.710540735730369 19.73889102933779 6.743444538808376e-05
    vertex 15.289277683177211 16.8520444967884 4.999999999999999
    vertex 15.289277683177211 19.73879584273653 1.057487430955462e-15
  endloop
endfacet
facet normal 5.110677098477619e-06 0.8660229896281816 0.5000041813918635
  outer loop
    vertex 15.289277683177211 16.8520444967884 4.999999999999999
    vertex -4.710540735730369 19.73889102933779 6.743444538808376e-05
    vertex 0.2892776831772195 16.8520444967884 4.999999999999999
  endloop
endfacet
facet normal 5.291692444034873e-06 -0.8660229041008225 0.5000043295260308
  outer loop
    vertex 15.289277683177211 6.725547188684667 4.999999999999999
    vertex -4.710564346479173 3.8386768515376977 3.443209788786064e-05
    vertex 15.289277683177218 3.8387958427365403 1.057487430955462e-15
  endloop
endfacet
facet normal 5.291692444034873e-06 -0.8660229041008225 0.5000043295260308
  outer loop
    vertex -4.710564346479173 3.8386768515376977 3.443209788786064e-05
    vertex 15.289277683177211 6.725547188684667 4.999999999999999
    vertex 0.2892776831772201 6.725547188684667 4.999999999999999
  endloop
endfacet
facet normal 5.291692444034873e-06 -0.8660229041008225 0.5000043295260308
  outer loop
    vertex -4.710564346479173 3.8386768515376977 3.443209788786064e-05
    vertex 0.2892776831772201 6.725547188684667 4.999999999999999
    vertex -4.710564346479173 6.725428197485822 5.000034432097888
  endloop
endfacet
facet normal 5.031311471679313e-17 0.38268343236509006 -0.9238795325112867
  outer loop
    vertex 15.289277683177218 11.400567275082759 3.9488887394336203
    vertex 0.2892776831772222 11.038795842736539 3.7990381056766753
    vertex 0.2892776831772222 11.400567275082759 3.9488887394336203
  endloop
endfacet
facet normal 5.031311471679313e-17 0.38268343236509006 -0.9238795325112867
  outer loop
    vertex 0.2892776831772222 11.038795842736539 3.7990381056766753
    vertex 15.289277683177218 11.400567275082759 3.9488887394336203
    vertex 15.289277683177218 11.038795842736539 3.7990381056766753
  endloop
endfacet
facet normal 3.2356137631816034e-17 0.608761429008722 -0.7933533402912343
  outer loop
    vertex 15.289277683177218 11.038795842736539 3.7990381056766753
    vertex 0.2892776831772222 10.72813567095672 3.560660171779839
    vertex 0.2892776831772222 11.038795842736539 3.7990381056766753
  endloop
endfacet
facet normal 3.2356137631816034e-17 0.608761429008722 -0.7933533402912343
  outer loop
    vertex 0.2892776831772222 10.72813567095672 3.560660171779839
    vertex 15.289277683177218 11.038795842736539 3.7990381056766753
    vertex 15.289277683177218 10.72813567095672 3.560660171779839
  endloop
endfacet
facet normal 1.2194143238276705e-17 0.7933533402912337 -0.6087614290087224
  outer loop
    vertex 0.2892776831772222 10.72813567095672 3.560660171779839
    vertex 15.289277683177218 10.48975773705988 3.250000000000018
    vertex 0.2892776831772222 10.48975773705988 3.250000000000018
  endloop
endfacet
facet normal 1.2194143238276705e-17 0.7933533402912337 -0.6087614290087224
  outer loop
    vertex 15.289277683177218 10.48975773705988 3.250000000000018
    vertex 0.2892776831772222 10.72813567095672 3.560660171779839
    vertex 15.289277683177218 10.72813567095672 3.560660171779839
  endloop
endfacet
facet normal -8.798861865177376e-18 0.923879532511288 -0.38268343236508695
  outer loop
    vertex 0.2892776831772222 10.48975773705988 3.250000000000018
    vertex 15.289277683177218 10.339907103302938 2.888228567653798
    vertex 0.2892776831772222 10.339907103302938 2.888228567653798
  endloop
endfacet
facet normal -8.798861865177376e-18 0.923879532511288 -0.38268343236508695
  outer loop
    vertex 15.289277683177218 10.339907103302938 2.888228567653798
    vertex 0.2892776831772222 10.48975773705988 3.250000000000018
    vertex 15.289277683177218 10.48975773705988 3.250000000000018
  endloop
endfacet
facet normal -2.919223907332568e-17 0.9914448613738104 -0.13052619222005216
  outer loop
    vertex 0.2892776831772222 10.339907103302938 2.888228567653798
    vertex 15.289277683177218 10.28879584273654 2.5000000000000178
    vertex 0.2892776831772222 10.28879584273654 2.5000000000000178
  endloop
endfacet
facet normal -2.919223907332568e-17 0.9914448613738104 -0.13052619222005216
  outer loop
    vertex 15.289277683177218 10.28879584273654 2.5000000000000178
    vertex 0.2892776831772222 10.339907103302938 2.888228567653798
    vertex 15.289277683177218 10.339907103302938 2.888228567653798
  endloop
endfacet
facet normal -4.759621343108321e-17 0.9914448613738105 0.13052619222005168
  outer loop
    vertex 0.2892776831772222 10.28879584273654 2.5000000000000178
    vertex 15.289277683177218 10.339907103302938 2.1117714323462367
    vertex 0.2892776831772222 10.339907103302938 2.1117714323462367
  endloop
endfacet
facet normal -4.759621343108321e-17 0.9914448613738105 0.13052619222005168
  outer loop
    vertex 15.289277683177218 10.339907103302938 2.1117714323462367
    vertex 0.2892776831772222 10.28879584273654 2.5000000000000178
    vertex 15.289277683177218 10.28879584273654 2.5000000000000178
  endloop
endfacet
facet normal -6.275658449997392e-17 0.923879532511288 0.38268343236508695
  outer loop
    vertex 0.2892776831772222 10.339907103302938 2.1117714323462367
    vertex 15.289277683177218 10.48975773705988 1.7500000000000164
    vertex 0.2892776831772222 10.48975773705988 1.7500000000000164
  endloop
endfacet
facet normal -6.275658449997392e-17 0.923879532511288 0.38268343236508695
  outer loop
    vertex 15.289277683177218 10.48975773705988 1.7500000000000164
    vertex 0.2892776831772222 10.339907103302938 2.1117714323462367
    vertex 15.289277683177218 10.339907103302938 2.1117714323462367
  endloop
endfacet
facet normal -7.364019804535132e-17 0.7933533402912324 0.6087614290087242
  outer loop
    vertex 0.2892776831772222 10.48975773705988 1.7500000000000164
    vertex 15.289277683177218 10.72813567095672 1.4393398282201975
    vertex 0.2892776831772222 10.72813567095672 1.4393398282201968
  endloop
endfacet
facet normal -7.364019804535132e-17 0.7933533402912324 0.6087614290087242
  outer loop
    vertex 15.289277683177218 10.72813567095672 1.4393398282201975
    vertex 0.2892776831772222 10.48975773705988 1.7500000000000164
    vertex 15.289277683177218 10.48975773705988 1.7500000000000164
  endloop
endfacet
facet normal -7.950535379011886e-17 0.6087614290087207 0.793353340291235
  outer loop
    vertex 15.289277683177218 10.72813567095672 1.4393398282201975
    vertex 0.2892776831772222 11.03879584273654 1.2009618943233593
    vertex 0.2892776831772222 10.72813567095672 1.4393398282201968
  endloop
endfacet
facet normal -7.950535379011886e-17 0.6087614290087207 0.793353340291235
  outer loop
    vertex 0.2892776831772222 11.03879584273654 1.2009618943233593
    vertex 15.289277683177218 10.72813567095672 1.4393398282201975
    vertex 15.289277683177218 11.03879584273654 1.2009618943233598
  endloop
endfacet
facet normal -7.995235106289934e-17 0.3826834323650895 0.9238795325112868
  outer loop
    vertex 15.289277683177218 11.03879584273654 1.2009618943233598
    vertex 0.2892776831772222 11.400567275082759 1.0511112605664155
    vertex 0.2892776831772222 11.03879584273654 1.2009618943233593
  endloop
endfacet
facet normal -7.995235106289934e-17 0.3826834323650895 0.9238795325112868
  outer loop
    vertex 0.2892776831772222 11.400567275082759 1.0511112605664155
    vertex 15.289277683177218 11.03879584273654 1.2009618943233598
    vertex 15.289277683177218 11.400567275082759 1.0511112605664161
  endloop
endfacet
facet normal -7.495072773825061e-17 0.13052619222005216 0.9914448613738104
  outer loop
    vertex 15.289277683177218 11.400567275082759 1.0511112605664161
    vertex 0.2892776831772222 11.788795842736539 1.000000000000018
    vertex 0.2892776831772222 11.400567275082759 1.0511112605664155
  endloop
endfacet
facet normal -7.495072773825061e-17 0.13052619222005216 0.9914448613738104
  outer loop
    vertex 0.2892776831772222 11.788795842736539 1.000000000000018
    vertex 15.289277683177218 11.400567275082759 1.0511112605664161
    vertex 15.289277683177218 11.788795842736539 1.0000000000000184
  endloop
endfacet
facet normal -6.484133618017408e-17 -0.13052619222005074 0.9914448613738105
  outer loop
    vertex 15.289277683177218 11.788795842736539 1.0000000000000184
    vertex 0.2892776831772222 12.177024410390322 1.0511112605664155
    vertex 0.2892776831772222 11.788795842736539 1.000000000000018
  endloop
endfacet
facet normal -6.484133618017408e-17 -0.13052619222005074 0.9914448613738105
  outer loop
    vertex 0.2892776831772222 12.177024410390322 1.0511112605664155
    vertex 15.289277683177218 11.788795842736539 1.0000000000000184
    vertex 15.289277683177218 12.177024410390322 1.0511112605664161
  endloop
endfacet
facet normal -5.031311471679333e-17 -0.38268343236508695 0.923879532511288
  outer loop
    vertex 15.289277683177218 12.177024410390322 1.0511112605664161
    vertex 0.2892776831772222 12.538795842736542 1.2009618943233593
    vertex 0.2892776831772222 12.177024410390322 1.0511112605664155
  endloop
endfacet
facet normal -5.031311471679333e-17 -0.38268343236508695 0.923879532511288
  outer loop
    vertex 0.2892776831772222 12.538795842736542 1.2009618943233593
    vertex 15.289277683177218 12.177024410390322 1.0511112605664161
    vertex 15.289277683177218 12.538795842736542 1.2009618943233598
  endloop
endfacet
facet normal -3.235613763181582e-17 -0.6087614290087242 0.7933533402912324
  outer loop
    vertex 15.289277683177218 12.538795842736542 1.2009618943233598
    vertex 0.2892776831772222 12.849456014516363 1.4393398282201968
    vertex 0.2892776831772222 12.538795842736542 1.2009618943233593
  endloop
endfacet
facet normal -3.235613763181582e-17 -0.6087614290087242 0.7933533402912324
  outer loop
    vertex 0.2892776831772222 12.849456014516363 1.4393398282201968
    vertex 15.289277683177218 12.538795842736542 1.2009618943233598
    vertex 15.289277683177218 12.849456014516363 1.4393398282201975
  endloop
endfacet
facet normal -1.2194143238276533e-17 -0.793353340291235 0.6087614290087207
  outer loop
    vertex 15.289277683177218 12.849456014516363 1.4393398282201975
    vertex 0.2892776831772222 13.0878339484132 1.7500000000000193
    vertex 0.2892776831772222 12.849456014516363 1.4393398282201968
  endloop
endfacet
facet normal -1.2194143238276533e-17 -0.793353340291235 0.6087614290087207
  outer loop
    vertex 0.2892776831772222 13.0878339484132 1.7500000000000193
    vertex 15.289277683177218 12.849456014516363 1.4393398282201975
    vertex 15.289277683177218 13.0878339484132 1.7500000000000193
  endloop
endfacet
facet normal 8.798861865177694e-18 -0.9238795325112894 0.38268343236508334
  outer loop
    vertex 15.289277683177218 13.237684582170141 2.1117714323462367
    vertex 0.2892776831772222 13.0878339484132 1.7500000000000193
    vertex 15.289277683177218 13.0878339484132 1.7500000000000193
  endloop
endfacet
facet normal 8.798861865177694e-18 -0.9238795325112894 0.38268343236508334
  outer loop
    vertex 0.2892776831772222 13.0878339484132 1.7500000000000193
    vertex 15.289277683177218 13.237684582170141 2.1117714323462367
    vertex 0.2892776831772222 13.237684582170141 2.1117714323462367
  endloop
endfacet
facet normal 2.919223907332518e-17 -0.9914448613738096 0.13052619222005876
  outer loop
    vertex 15.289277683177218 13.28879584273654 2.5000000000000178
    vertex 0.2892776831772222 13.237684582170141 2.1117714323462367
    vertex 15.289277683177218 13.237684582170141 2.1117714323462367
  endloop
endfacet
facet normal 2.919223907332518e-17 -0.9914448613738096 0.13052619222005876
  outer loop
    vertex 0.2892776831772222 13.237684582170141 2.1117714323462367
    vertex 15.289277683177218 13.28879584273654 2.5000000000000178
    vertex 0.2892776831772222 13.28879584273654 2.5000000000000178
  endloop
endfacet
facet normal 4.759621343108364e-17 -0.9914448613738095 -0.1305261922200583
  outer loop
    vertex 15.289277683177218 13.237684582170141 2.8882285676538006
    vertex 0.2892776831772222 13.28879584273654 2.5000000000000178
    vertex 15.289277683177218 13.28879584273654 2.5000000000000178
  endloop
endfacet
facet normal 4.759621343108364e-17 -0.9914448613738095 -0.1305261922200583
  outer loop
    vertex 0.2892776831772222 13.28879584273654 2.5000000000000178
    vertex 15.289277683177218 13.237684582170141 2.8882285676538006
    vertex 0.2892776831772222 13.237684582170141 2.8882285676538006
  endloop
endfacet
facet normal 6.275658449997364e-17 -0.92387953251129 -0.3826834323650821
  outer loop
    vertex 15.289277683177218 13.0878339484132 3.2500000000000195
    vertex 0.2892776831772222 13.237684582170141 2.8882285676538006
    vertex 15.289277683177218 13.237684582170141 2.8882285676538006
  endloop
endfacet
facet normal 6.275658449997364e-17 -0.92387953251129 -0.3826834323650821
  outer loop
    vertex 0.2892776831772222 13.237684582170141 2.8882285676538006
    vertex 15.289277683177218 13.0878339484132 3.2500000000000195
    vertex 0.2892776831772222 13.0878339484132 3.2500000000000195
  endloop
endfacet
facet normal 7.364019804535132e-17 -0.7933533402912324 -0.6087614290087242
  outer loop
    vertex 15.289277683177218 12.849456014516363 3.560660171779839
    vertex 0.2892776831772222 13.0878339484132 3.2500000000000195
    vertex 15.289277683177218 13.0878339484132 3.2500000000000195
  endloop
endfacet
facet normal 7.364019804535132e-17 -0.7933533402912324 -0.6087614290087242
  outer loop
    vertex 0.2892776831772222 13.0878339484132 3.2500000000000195
    vertex 15.289277683177218 12.849456014516363 3.560660171779839
    vertex 0.2892776831772222 12.849456014516363 3.560660171779839
  endloop
endfacet
facet normal 7.950535379011892e-17 -0.6087614290087172 -0.7933533402912378
  outer loop
    vertex 15.289277683177218 12.849456014516363 3.560660171779839
    vertex 0.2892776831772222 12.538795842736537 3.7990381056766767
    vertex 0.2892776831772222 12.849456014516363 3.560660171779839
  endloop
endfacet
facet normal 7.950535379011892e-17 -0.6087614290087172 -0.7933533402912378
  outer loop
    vertex 0.2892776831772222 12.538795842736537 3.7990381056766767
    vertex 15.289277683177218 12.849456014516363 3.560660171779839
    vertex 15.289277683177218 12.538795842736537 3.7990381056766767
  endloop
endfacet
facet normal 7.995235106289938e-17 -0.38268343236509206 -0.9238795325112859
  outer loop
    vertex 15.289277683177218 12.538795842736537 3.7990381056766767
    vertex 0.2892776831772222 12.177024410390322 3.9488887394336203
    vertex 0.2892776831772222 12.538795842736537 3.7990381056766767
  endloop
endfacet
facet normal 7.995235106289938e-17 -0.38268343236509206 -0.9238795325112859
  outer loop
    vertex 0.2892776831772222 12.177024410390322 3.9488887394336203
    vertex 15.289277683177218 12.538795842736537 3.7990381056766767
    vertex 15.289277683177218 12.177024410390322 3.9488887394336203
  endloop
endfacet
facet normal 7.495072773825056e-17 -0.13052619222005074 -0.9914448613738105
  outer loop
    vertex 15.289277683177218 12.177024410390322 3.9488887394336203
    vertex 0.2892776831772222 11.788795842736539 4.000000000000018
    vertex 0.2892776831772222 12.177024410390322 3.9488887394336203
  endloop
endfacet
facet normal 7.495072773825056e-17 -0.13052619222005074 -0.9914448613738105
  outer loop
    vertex 0.2892776831772222 11.788795842736539 4.000000000000018
    vertex 15.289277683177218 12.177024410390322 3.9488887394336203
    vertex 15.289277683177218 11.788795842736539 4.000000000000018
  endloop
endfacet
facet normal 6.4841336180174e-17 0.13052619222005216 -0.9914448613738104
  outer loop
    vertex 15.289277683177218 11.788795842736539 4.000000000000018
    vertex 0.2892776831772222 11.400567275082759 3.9488887394336203
    vertex 0.2892776831772222 11.788795842736539 4.000000000000018
  endloop
endfacet
facet normal 6.4841336180174e-17 0.13052619222005216 -0.9914448613738104
  outer loop
    vertex 0.2892776831772222 11.400567275082759 3.9488887394336203
    vertex 15.289277683177218 11.788795842736539 4.000000000000018
    vertex 15.289277683177218 11.400567275082759 3.9488887394336203
  endloop
endfacet
facet normal -0.8314696123025404 -0.5555702330196095 -4.775215059369882e-18
  outer loop
    vertex -17.70107939675497 4.288706359972399 9.000000000000002
    vertex -17.397604287157677 3.8345487054926046 1.795628555550568e-05
    vertex -17.397618599184423 3.834545181585259 8.999999999999998
  endloop
endfacet
facet normal -0.8314696123025404 -0.5555702330196095 -4.775215059369882e-18
  outer loop
    vertex -17.397604287157677 3.8345487054926046 1.795628555550568e-05
    vertex -17.70107939675497 4.288706359972399 9.000000000000002
    vertex -17.701065084728228 4.288709883879744 1.795628555691566e-05
  endloop
endfacet
facet normal -0.8968727415326881 -0.442288690219002 -0.0
  outer loop
    vertex -18.5689016815524 6.04847587011755 9.000000000000002
    vertex -17.701065084728228 4.288709883879744 1.795628555691566e-05
    vertex -17.70107939675497 4.288706359972399 9.000000000000002
  endloop
endfacet
facet normal -0.8968727415326881 -0.442288690219002 -0.0
  outer loop
    vertex -17.701065084728228 4.288709883879744 1.795628555691566e-05
    vertex -18.5689016815524 6.04847587011755 9.000000000000002
    vertex -18.568887369525658 6.048479394024896 1.795628555691566e-05
  endloop
endfacet
facet normal -0.9469301294951056 -0.32143946530316225 -0.0
  outer loop
    vertex -19.199603613056304 7.906463846511581 9.000000000000002
    vertex -18.568887369525658 6.048479394024896 1.795628555691566e-05
    vertex -18.5689016815524 6.04847587011755 9.000000000000002
  endloop
endfacet
facet normal -0.9469301294951056 -0.32143946530316225 -0.0
  outer loop
    vertex -18.568887369525658 6.048479394024896 1.795628555691566e-05
    vertex -19.199603613056304 7.906463846511581 9.000000000000002
    vertex -19.199589301029558 7.9064673704189286 1.795628555691566e-05
  endloop
endfacet
facet normal -0.9807852804032304 -0.19509032201612933 -0.0
  outer loop
    vertex -19.58239370635503 9.830879599746805 9.000000000000002
    vertex -19.199589301029558 7.9064673704189286 1.795628555691566e-05
    vertex -19.199603613056304 7.906463846511581 9.000000000000002
  endloop
endfacet
facet normal -0.9807852804032304 -0.19509032201612933 -0.0
  outer loop
    vertex -19.199589301029558 7.9064673704189286 1.795628555691566e-05
    vertex -19.58239370635503 9.830879599746805 9.000000000000002
    vertex -19.582379394328285 9.830883123654152 1.795628555691566e-05
  endloop
endfacet
facet normal -0.9807852804032305 0.1950903220161276 -0.0
  outer loop
    vertex -19.199603613056308 15.671127838961477 9.000000000000002
    vertex -19.58237939432829 13.746715609633595 1.795628555691566e-05
    vertex -19.582393706355035 13.746712085726251 9.000000000000002
  endloop
endfacet
facet normal -0.9807852804032305 0.1950903220161276 -0.0
  outer loop
    vertex -19.58237939432829 13.746715609633595 1.795628555691566e-05
    vertex -19.199603613056308 15.671127838961477 9.000000000000002
    vertex -19.199589301029565 15.67113136286882 1.795628555691566e-05
  endloop
endfacet
facet normal -0.9469301294951057 0.3214394653031617 -0.0
  outer loop
    vertex -18.568901681552408 17.52911581535551 9.000000000000002
    vertex -19.199589301029565 15.67113136286882 1.795628555691566e-05
    vertex -19.199603613056308 15.671127838961477 9.000000000000002
  endloop
endfacet
facet normal -0.9469301294951057 0.3214394653031617 -0.0
  outer loop
    vertex -19.199589301029565 15.67113136286882 1.795628555691566e-05
    vertex -18.568901681552408 17.52911581535551 9.000000000000002
    vertex -18.568887369525665 17.529119339262856 1.795628555691566e-05
  endloop
endfacet
facet normal -0.896872741532688 0.4422886902190018 -0.0
  outer loop
    vertex -17.701079396754974 19.288885325500665 9.000000000000002
    vertex -18.568887369525665 17.529119339262856 1.795628555691566e-05
    vertex -18.568901681552408 17.52911581535551 9.000000000000002
  endloop
endfacet
facet normal -0.896872741532688 0.4422886902190018 -0.0
  outer loop
    vertex -18.568887369525665 17.529119339262856 1.795628555691566e-05
    vertex -17.701079396754974 19.288885325500665 9.000000000000002
    vertex -17.70106508472823 19.288888849408007 1.795628555691566e-05
  endloop
endfacet
facet normal -0.8314696123025481 0.5555702330195981 -1.7185704952310882e-18
  outer loop
    vertex -17.40045880016275 19.738795842736533 8.999999999999998
    vertex -17.70106508472823 19.288888849408007 1.795628555691566e-05
    vertex -17.701079396754974 19.288885325500665 9.000000000000002
  endloop
endfacet
facet normal -0.8314696123025481 0.5555702330195981 -1.7185704952310882e-18
  outer loop
    vertex -17.70106508472823 19.288888849408007 1.795628555691566e-05
    vertex -17.40045880016275 19.738795842736533 8.999999999999998
    vertex -17.400444488136007 19.738799366643878 1.795628555550568e-05
  endloop
endfacet
facet normal -0.9978589232386036 0.06540312923014296 0.0
  outer loop
    vertex -19.582393706355035 13.746712085726251 9.000000000000002
    vertex -19.710708004796036 11.788799366643882 1.795628555691566e-05
    vertex -19.710722316822782 11.788795842736535 9.000000000000002
  endloop
endfacet
facet normal -0.9978589232386036 0.06540312923014296 0.0
  outer loop
    vertex -19.710708004796036 11.788799366643882 1.795628555691566e-05
    vertex -19.582393706355035 13.746712085726251 9.000000000000002
    vertex -19.58237939432829 13.746715609633595 1.795628555691566e-05
  endloop
endfacet
facet normal -0.9978589232386036 -0.0654031292301439 0.0
  outer loop
    vertex -19.710722316822782 11.788795842736535 9.000000000000002
    vertex -19.582379394328285 9.830883123654152 1.795628555691566e-05
    vertex -19.58239370635503 9.830879599746805 9.000000000000002
  endloop
endfacet
facet normal -0.9978589232386036 -0.0654031292301439 0.0
  outer loop
    vertex -19.582379394328285 9.830883123654152 1.795628555691566e-05
    vertex -19.710722316822782 11.788795842736535 9.000000000000002
    vertex -19.710708004796036 11.788799366643882 1.795628555691566e-05
  endloop
endfacet
facet normal -2.3642033436886434e-06 9.073574307529992e-07 -0.9999999999967937
  outer loop
    vertex 15.289277683177211 19.73879584273653 4.999999999999999
    vertex -4.710540735730369 16.852139683389666 5.000067434445387
    vertex -4.710540735730373 19.738795842484546 5.000042312661083
  endloop
endfacet
facet normal -2.3642033436886434e-06 9.073574307529992e-07 -0.9999999999967937
  outer loop
    vertex -4.710540735730369 16.852139683389666 5.000067434445387
    vertex 15.289277683177211 19.73879584273653 4.999999999999999
    vertex 0.2892776831772195 16.8520444967884 4.999999999999999
  endloop
endfacet
facet normal -2.3642033436886434e-06 9.073574307529992e-07 -0.9999999999967937
  outer loop
    vertex 0.2892776831772195 16.8520444967884 4.999999999999999
    vertex 15.289277683177211 19.73879584273653 4.999999999999999
    vertex 15.289277683177211 16.8520444967884 4.999999999999999
  endloop
endfacet
facet normal 1.0 1.0412381938494987e-16 3.462525350160511e-17
  outer loop
    vertex 15.289277683177218 3.8387958427365403 1.057487430955462e-15
    vertex 15.289277683177218 10.72813567095672 1.4393398282201975
    vertex 15.289277683177211 6.725547188684667 4.999999999999999
  endloop
endfacet
facet normal 1.0 1.0412381938494987e-16 3.462525350160511e-17
  outer loop
    vertex 15.289277683177218 10.72813567095672 1.4393398282201975
    vertex 15.289277683177218 3.8387958427365403 1.057487430955462e-15
    vertex 15.289277683177218 11.03879584273654 1.2009618943233598
  endloop
endfacet
facet normal 1.0 1.0412381938494987e-16 3.462525350160511e-17
  outer loop
    vertex 15.289277683177218 11.03879584273654 1.2009618943233598
    vertex 15.289277683177218 3.8387958427365403 1.057487430955462e-15
    vertex 15.289277683177218 11.400567275082759 1.0511112605664161
  endloop
endfacet
facet normal 1.0 1.0412381938494987e-16 3.462525350160511e-17
  outer loop
    vertex 15.289277683177218 11.400567275082759 1.0511112605664161
    vertex 15.289277683177218 3.8387958427365403 1.057487430955462e-15
    vertex 15.289277683177218 11.788795842736539 1.0000000000000184
  endloop
endfacet
facet normal 1.0 1.0412381938494987e-16 3.462525350160511e-17
  outer loop
    vertex 15.289277683177218 11.788795842736539 1.0000000000000184
    vertex 15.289277683177218 3.8387958427365403 1.057487430955462e-15
    vertex 15.289277683177211 19.73879584273653 1.057487430955462e-15
  endloop
endfacet
facet normal 1.0 1.0412381938494987e-16 3.462525350160511e-17
  outer loop
    vertex 15.289277683177211 6.725547188684667 4.999999999999999
    vertex 15.289277683177218 10.72813567095672 1.4393398282201975
    vertex 15.289277683177218 10.48975773705988 1.7500000000000164
  endloop
endfacet
facet normal 1.0 1.0412381938494987e-16 3.462525350160511e-17
  outer loop
    vertex 15.289277683177211 6.725547188684667 4.999999999999999
    vertex 15.289277683177218 10.48975773705988 1.7500000000000164
    vertex 15.289277683177218 10.339907103302938 2.1117714323462367
  endloop
endfacet
facet normal 1.0 1.0412381938494987e-16 3.462525350160511e-17
  outer loop
    vertex 15.289277683177211 6.725547188684667 4.999999999999999
    vertex 15.289277683177218 10.339907103302938 2.1117714323462367
    vertex 15.289277683177218 10.28879584273654 2.5000000000000178
  endloop
endfacet
facet normal 1.0 1.0412381938494987e-16 3.462525350160511e-17
  outer loop
    vertex 15.289277683177218 11.788795842736539 1.0000000000000184
    vertex 15.289277683177211 19.73879584273653 1.057487430955462e-15
    vertex 15.289277683177218 12.177024410390322 1.0511112605664161
  endloop
endfacet
facet normal 1.0 1.0412381938494987e-16 3.462525350160511e-17
  outer loop
    vertex 15.289277683177218 12.177024410390322 1.0511112605664161
    vertex 15.289277683177211 19.73879584273653 1.057487430955462e-15
    vertex 15.289277683177218 12.538795842736542 1.2009618943233598
  endloop
endfacet
facet normal 1.0 1.0412381938494987e-16 3.462525350160511e-17
  outer loop
    vertex 15.289277683177218 12.538795842736542 1.2009618943233598
    vertex 15.289277683177211 19.73879584273653 1.057487430955462e-15
    vertex 15.289277683177218 12.849456014516363 1.4393398282201975
  endloop
endfacet
facet normal 1.0 1.0412381938494987e-16 3.462525350160511e-17
  outer loop
    vertex 15.289277683177218 12.849456014516363 1.4393398282201975
    vertex 15.289277683177211 19.73879584273653 1.057487430955462e-15
    vertex 15.289277683177218 13.0878339484132 1.7500000000000193
  endloop
endfacet
facet normal 1.0 1.0412381938494987e-16 3.462525350160511e-17
  outer loop
    vertex 15.289277683177218 13.0878339484132 1.7500000000000193
    vertex 15.289277683177211 19.73879584273653 1.057487430955462e-15
    vertex 15.289277683177218 13.237684582170141 2.1117714323462367
  endloop
endfacet
facet normal 1.0 1.0412381938494987e-16 3.462525350160511e-17
  outer loop
    vertex 15.289277683177218 13.237684582170141 2.1117714323462367
    vertex 15.289277683177211 19.73879584273653 1.057487430955462e-15
    vertex 15.289277683177218 13.28879584273654 2.5000000000000178
  endloop
endfacet
facet normal 1.0 1.0412381938494987e-16 3.462525350160511e-17
  outer loop
    vertex 15.289277683177218 13.28879584273654 2.5000000000000178
    vertex 15.289277683177211 19.73879584273653 1.057487430955462e-15
    vertex 15.289277683177211 16.8520444967884 4.999999999999999
  endloop
endfacet
facet normal 1.0 1.0412381938494987e-16 3.462525350160511e-17
  outer loop
    vertex 15.289277683177211 3.834545181585259 4.999999999999999
    vertex 15.289277683177215 19.73879584273653 8.999999999999998
    vertex 15.289277683177215 3.8345451815852583 8.999999999999998
  endloop
endfacet
facet normal 1.0 1.0412381938494987e-16 3.462525350160511e-17
  outer loop
    vertex 15.289277683177215 19.73879584273653 8.999999999999998
    vertex 15.289277683177211 3.834545181585259 4.999999999999999
    vertex 15.289277683177211 6.725547188684667 4.999999999999999
  endloop
endfacet
facet normal 1.0 1.0412381938494987e-16 3.462525350160511e-17
  outer loop
    vertex 15.289277683177215 19.73879584273653 8.999999999999998
    vertex 15.289277683177211 6.725547188684667 4.999999999999999
    vertex 15.289277683177218 11.038795842736539 3.7990381056766753
  endloop
endfacet
facet normal 1.0 1.0412381938494987e-16 3.462525350160511e-17
  outer loop
    vertex 15.289277683177218 11.038795842736539 3.7990381056766753
    vertex 15.289277683177211 6.725547188684667 4.999999999999999
    vertex 15.289277683177218 10.72813567095672 3.560660171779839
  endloop
endfacet
facet normal 1.0 1.0412381938494987e-16 3.462525350160511e-17
  outer loop
    vertex 15.289277683177218 10.72813567095672 3.560660171779839
    vertex 15.289277683177211 6.725547188684667 4.999999999999999
    vertex 15.289277683177218 10.48975773705988 3.250000000000018
  endloop
endfacet
facet normal 1.0 1.0412381938494987e-16 3.462525350160511e-17
  outer loop
    vertex 15.289277683177218 10.48975773705988 3.250000000000018
    vertex 15.289277683177211 6.725547188684667 4.999999999999999
    vertex 15.289277683177218 10.339907103302938 2.888228567653798
  endloop
endfacet
facet normal 1.0 1.0412381938494987e-16 3.462525350160511e-17
  outer loop
    vertex 15.289277683177218 10.339907103302938 2.888228567653798
    vertex 15.289277683177211 6.725547188684667 4.999999999999999
    vertex 15.289277683177218 10.28879584273654 2.5000000000000178
  endloop
endfacet
facet normal 1.0 1.0412381938494987e-16 3.462525350160511e-17
  outer loop
    vertex 15.289277683177215 19.73879584273653 8.999999999999998
    vertex 15.289277683177218 11.038795842736539 3.7990381056766753
    vertex 15.289277683177218 11.400567275082759 3.9488887394336203
  endloop
endfacet
facet normal 1.0 1.0412381938494987e-16 3.462525350160511e-17
  outer loop
    vertex 15.289277683177215 19.73879584273653 8.999999999999998
    vertex 15.289277683177218 11.400567275082759 3.9488887394336203
    vertex 15.289277683177218 11.788795842736539 4.000000000000018
  endloop
endfacet
facet normal 1.0 1.0412381938494987e-16 3.462525350160511e-17
  outer loop
    vertex 15.289277683177215 19.73879584273653 8.999999999999998
    vertex 15.289277683177218 11.788795842736539 4.000000000000018
    vertex 15.289277683177218 12.177024410390322 3.9488887394336203
  endloop
endfacet
facet normal 1.0 1.0412381938494987e-16 3.462525350160511e-17
  outer loop
    vertex 15.289277683177215 19.73879584273653 8.999999999999998
    vertex 15.289277683177218 12.177024410390322 3.9488887394336203
    vertex 15.289277683177218 12.538795842736537 3.7990381056766767
  endloop
endfacet
facet normal 1.0 1.0412381938494987e-16 3.462525350160511e-17
  outer loop
    vertex 15.289277683177215 19.73879584273653 8.999999999999998
    vertex 15.289277683177218 12.538795842736537 3.7990381056766767
    vertex 15.289277683177218 12.849456014516363 3.560660171779839
  endloop
endfacet
facet normal 1.0 1.0412381938494987e-16 3.462525350160511e-17
  outer loop
    vertex 15.289277683177215 19.73879584273653 8.999999999999998
    vertex 15.289277683177218 12.849456014516363 3.560660171779839
    vertex 15.289277683177218 13.0878339484132 3.2500000000000195
  endloop
endfacet
facet normal 1.0 1.0412381938494987e-16 3.462525350160511e-17
  outer loop
    vertex 15.289277683177215 19.73879584273653 8.999999999999998
    vertex 15.289277683177218 13.0878339484132 3.2500000000000195
    vertex 15.289277683177218 13.237684582170141 2.8882285676538006
  endloop
endfacet
facet normal 1.0 1.0412381938494987e-16 3.462525350160511e-17
  outer loop
    vertex 15.289277683177215 19.73879584273653 8.999999999999998
    vertex 15.289277683177218 13.237684582170141 2.8882285676538006
    vertex 15.289277683177218 13.28879584273654 2.5000000000000178
  endloop
endfacet
facet normal 1.0 1.0412381938494987e-16 3.462525350160511e-17
  outer loop
    vertex 15.289277683177215 19.73879584273653 8.999999999999998
    vertex 15.289277683177218 13.28879584273654 2.5000000000000178
    vertex 15.289277683177211 16.8520444967884 4.999999999999999
  endloop
endfacet
facet normal 1.0 1.0412381938494987e-16 3.462525350160511e-17
  outer loop
    vertex 15.289277683177215 19.73879584273653 8.999999999999998
    vertex 15.289277683177211 16.8520444967884 4.999999999999999
    vertex 15.289277683177211 19.73879584273653 4.999999999999999
  endloop
endfacet
facet normal 1.3436674855573598e-05 -0.9999999678082215 -0.00025338313286329104
  outer loop
    vertex 15.289277683177215 3.8345451815852583 8.999999999999998
    vertex -4.7105643464791696 3.834545181585259 5.000017216048944
    vertex 15.289277683177211 3.834545181585259 4.999999999999999
  endloop
endfacet
facet normal 1.3436674855573598e-05 -0.9999999678082215 -0.00025338313286329104
  outer loop
    vertex -4.710564346479173 3.8386768515376977 3.443209788786064e-05
    vertex -17.397618599184423 3.834545181585259 8.999999999999998
    vertex -17.397604287157677 3.8345487054926046 1.795628555550568e-05
  endloop
endfacet
facet normal 1.3436674855573598e-05 -0.9999999678082215 -0.00025338313286329104
  outer loop
    vertex -17.397618599184423 3.834545181585259 8.999999999999998
    vertex -4.710564346479173 3.8386768515376977 3.443209788786064e-05
    vertex -4.7105643464791696 3.834545181585259 5.000017216048944
  endloop
endfacet
facet normal 1.3436674855573598e-05 -0.9999999678082215 -0.00025338313286329104
  outer loop
    vertex -17.397618599184423 3.834545181585259 8.999999999999998
    vertex -4.7105643464791696 3.834545181585259 5.000017216048944
    vertex 15.289277683177215 3.8345451815852583 8.999999999999998
  endloop
endfacet
facet normal 7.20896106336331e-17 -2.098821156514499e-17 1.0
  outer loop
    vertex -17.397618599184423 3.834545181585259 8.999999999999998
    vertex -15.574259105726089 10.75351577759958 8.99998631591593
    vertex -15.710555800571703 11.788791958008959 8.9999867628617
  endloop
endfacet
facet normal 7.20896106336331e-17 -2.098821156514499e-17 1.0
  outer loop
    vertex -15.574259105726089 10.75351577759958 8.99998631591593
    vertex -17.397618599184423 3.834545181585259 8.999999999999998
    vertex -15.174657415707111 9.788791958010316 8.999986709981588
  endloop
endfacet
facet normal 7.20896106336331e-17 -2.098821156514499e-17 1.0
  outer loop
    vertex -15.174657415707111 9.788791958010316 8.999986709981588
    vertex -17.397618599184423 3.834545181585259 8.999999999999998
    vertex -14.538982925316544 8.960364833264688 8.999987918203752
  endloop
endfacet
facet normal 7.20896106336331e-17 -2.098821156514499e-17 1.0
  outer loop
    vertex -14.538982925316544 8.960364833264688 8.999987918203752
    vertex -17.397618599184423 3.834545181585259 8.999999999999998
    vertex -13.710555800572743 8.324690342873554 8.99998985824409
  endloop
endfacet
facet normal 7.20896106336331e-17 -2.098821156514499e-17 1.0
  outer loop
    vertex -13.710555800572743 8.324690342873554 8.99998985824409
    vertex -17.397618599184423 3.834545181585259 8.999999999999998
    vertex -12.74583198098644 7.9250886528553055 8.999992397892065
  endloop
endfacet
facet normal 7.20896106336331e-17 -2.098821156514499e-17 1.0
  outer loop
    vertex -12.74583198098644 7.9250886528553055 8.999992397892065
    vertex -17.397618599184423 3.834545181585259 8.999999999999998
    vertex 15.289277683177215 3.8345451815852583 8.999999999999998
  endloop
endfacet
facet normal 7.20896106336331e-17 -2.098821156514499e-17 1.0
  outer loop
    vertex -12.74583198098644 7.9250886528553055 8.999992397892065
    vertex 15.289277683177215 3.8345451815852583 8.999999999999998
    vertex -11.71055580058096 7.78879195801167 8.999995364074847
  endloop
endfacet
facet normal 7.20896106336331e-17 -2.098821156514499e-17 1.0
  outer loop
    vertex -11.71055580058096 7.78879195801167 8.999995364074847
    vertex 15.289277683177215 3.8345451815852583 8.999999999999998
    vertex -10.67527962017614 7.925088652855304 8.999998554651985
  endloop
endfacet
facet normal 7.20896106336331e-17 -2.098821156514499e-17 1.0
  outer loop
    vertex -10.67527962017614 7.925088652855304 8.999998554651985
    vertex 15.289277683177215 3.8345451815852583 8.999999999999998
    vertex -9.71055580059179 8.324690342873552 9.000001752190931
  endloop
endfacet
facet normal 7.20896106336331e-17 -2.098821156514499e-17 1.0
  outer loop
    vertex -9.71055580059179 8.324690342873552 9.000001752190931
    vertex 15.289277683177215 3.8345451815852583 8.999999999999998
    vertex -8.8821286758511 8.960364833264684 9.000004738784675
  endloop
endfacet
facet normal 7.20896106336331e-17 -2.098821156514499e-17 1.0
  outer loop
    vertex -8.8821286758511 8.960364833264684 9.000004738784675
    vertex 15.289277683177215 3.8345451815852583 8.999999999999998
    vertex -8.246454185464588 9.788791958010313 9.000007310901788
  endloop
endfacet
facet normal 7.20896106336331e-17 -2.098821156514499e-17 1.0
  outer loop
    vertex -8.246454185464588 9.788791958010313 9.000007310901788
    vertex 15.289277683177215 3.8345451815852583 8.999999999999998
    vertex -7.846852495450334 10.753515777599576 9.00000929325675
  endloop
endfacet
facet normal 7.20896106336331e-17 -2.098821156514499e-17 1.0
  outer loop
    vertex -7.846852495450334 10.753515777599576 9.00000929325675
    vertex 15.289277683177215 3.8345451815852583 8.999999999999998
    vertex -7.710555800609788 11.788791958008959 9.000010550755357
  endloop
endfacet
facet normal 7.20896106336331e-17 -2.098821156514499e-17 1.0
  outer loop
    vertex -19.58239370635503 9.830879599746805 9.000000000000002
    vertex -19.582393706355035 13.746712085726251 9.000000000000002
    vertex -19.710722316822782 11.788795842736535 9.000000000000002
  endloop
endfacet
facet normal 7.20896106336331e-17 -2.098821156514499e-17 1.0
  outer loop
    vertex -19.582393706355035 13.746712085726251 9.000000000000002
    vertex -19.58239370635503 9.830879599746805 9.000000000000002
    vertex -19.199603613056308 15.671127838961477 9.000000000000002
  endloop
endfacet
facet normal 7.20896106336331e-17 -2.098821156514499e-17 1.0
  outer loop
    vertex -19.199603613056308 15.671127838961477 9.000000000000002
    vertex -19.58239370635503 9.830879599746805 9.000000000000002
    vertex -19.199603613056304 7.906463846511581 9.000000000000002
  endloop
endfacet
facet normal 7.20896106336331e-17 -2.098821156514499e-17 1.0
  outer loop
    vertex -19.199603613056308 15.671127838961477 9.000000000000002
    vertex -19.199603613056304 7.906463846511581 9.000000000000002
    vertex -18.568901681552408 17.52911581535551 9.000000000000002
  endloop
endfacet
facet normal 7.20896106336331e-17 -2.098821156514499e-17 1.0
  outer loop
    vertex -18.568901681552408 17.52911581535551 9.000000000000002
    vertex -19.199603613056304 7.906463846511581 9.000000000000002
    vertex -18.5689016815524 6.04847587011755 9.000000000000002
  endloop
endfacet
facet normal 7.20896106336331e-17 -2.098821156514499e-17 1.0
  outer loop
    vertex -18.568901681552408 17.52911581535551 9.000000000000002
    vertex -18.5689016815524 6.04847587011755 9.000000000000002
    vertex -17.701079396754974 19.288885325500665 9.000000000000002
  endloop
endfacet
facet normal 7.20896106336331e-17 -2.098821156514499e-17 1.0
  outer loop
    vertex -17.701079396754974 19.288885325500665 9.000000000000002
    vertex -18.5689016815524 6.04847587011755 9.000000000000002
    vertex -17.70107939675497 4.288706359972399 9.000000000000002
  endloop
endfacet
facet normal 7.20896106336331e-17 -2.098821156514499e-17 1.0
  outer loop
    vertex -17.701079396754974 19.288885325500665 9.000000000000002
    vertex -17.70107939675497 4.288706359972399 9.000000000000002
    vertex -17.40045880016275 19.738795842736533 8.999999999999998
  endloop
endfacet
facet normal 7.20896106336331e-17 -2.098821156514499e-17 1.0
  outer loop
    vertex -17.40045880016275 19.738795842736533 8.999999999999998
    vertex -17.70107939675497 4.288706359972399 9.000000000000002
    vertex -17.397618599184423 3.834545181585259 8.999999999999998
  endloop
endfacet
facet normal 7.20896106336331e-17 -2.098821156514499e-17 1.0
  outer loop
    vertex -17.40045880016275 19.738795842736533 8.999999999999998
    vertex -17.397618599184423 3.834545181585259 8.999999999999998
    vertex -15.574259105731157 12.824068138418358 8.999988020360309
  endloop
endfacet
facet normal 7.20896106336331e-17 -2.098821156514499e-17 1.0
  outer loop
    vertex -17.40045880016275 19.738795842736533 8.999999999999998
    vertex -15.574259105731157 12.824068138418358 8.999988020360309
    vertex -15.174657415716903 13.788791958007621 8.999990002715283
  endloop
endfacet
facet normal 7.20896106336331e-17 -2.098821156514499e-17 1.0
  outer loop
    vertex -17.40045880016275 19.738795842736533 8.999999999999998
    vertex -15.174657415716903 13.788791958007621 8.999990002715283
    vertex -14.53898292533039 14.61721908275325 8.999992574832406
  endloop
endfacet
facet normal 7.20896106336331e-17 -2.098821156514499e-17 1.0
  outer loop
    vertex -17.40045880016275 19.738795842736533 8.999999999999998
    vertex -14.53898292533039 14.61721908275325 8.999992574832406
    vertex -13.7105558005897 15.252893573144386 8.999995561426152
  endloop
endfacet
facet normal 7.20896106336331e-17 -2.098821156514499e-17 1.0
  outer loop
    vertex -17.40045880016275 19.738795842736533 8.999999999999998
    vertex -13.7105558005897 15.252893573144386 8.999995561426152
    vertex -12.745831981005352 15.652495263162633 8.999998758965075
  endloop
endfacet
facet normal 7.20896106336331e-17 -2.098821156514499e-17 1.0
  outer loop
    vertex -17.40045880016275 19.738795842736533 8.999999999999998
    vertex -12.745831981005352 15.652495263162633 8.999998758965075
    vertex 15.289277683177215 19.73879584273653 8.999999999999998
  endloop
endfacet
facet normal 7.20896106336331e-17 -2.098821156514499e-17 1.0
  outer loop
    vertex -15.574259105731157 12.824068138418358 8.999988020360309
    vertex -17.397618599184423 3.834545181585259 8.999999999999998
    vertex -15.710555800571703 11.788791958008959 8.9999867628617
  endloop
endfacet
facet normal 7.20896106336331e-17 -2.098821156514499e-17 1.0
  outer loop
    vertex 15.289277683177215 19.73879584273653 8.999999999999998
    vertex -12.745831981005352 15.652495263162633 8.999998758965075
    vertex -11.710555800600542 15.788791958006266 9.000001949542224
  endloop
endfacet
facet normal 7.20896106336331e-17 -2.098821156514499e-17 1.0
  outer loop
    vertex 15.289277683177215 19.73879584273653 8.999999999999998
    vertex -11.710555800600542 15.788791958006266 9.000001949542224
    vertex -10.675279620195047 15.65249526316263 9.000004915725006
  endloop
endfacet
facet normal 7.20896106336331e-17 -2.098821156514499e-17 1.0
  outer loop
    vertex 15.289277683177215 19.73879584273653 8.999999999999998
    vertex -10.675279620195047 15.65249526316263 9.000004915725006
    vertex -9.710555800608747 15.252893573144384 9.000007455372968
  endloop
endfacet
facet normal 7.20896106336331e-17 -2.098821156514499e-17 1.0
  outer loop
    vertex 15.289277683177215 19.73879584273653 8.999999999999998
    vertex -9.710555800608747 15.252893573144384 9.000007455372968
    vertex -8.882128675864946 14.61721908275325 9.000009395413308
  endloop
endfacet
facet normal 7.20896106336331e-17 -2.098821156514499e-17 1.0
  outer loop
    vertex 15.289277683177215 19.73879584273653 8.999999999999998
    vertex -8.882128675864946 14.61721908275325 9.000009395413308
    vertex -8.246454185474377 13.788791958007618 9.000010603635483
  endloop
endfacet
facet normal 7.20896106336331e-17 -2.098821156514499e-17 1.0
  outer loop
    vertex 15.289277683177215 19.73879584273653 8.999999999999998
    vertex -8.246454185474377 13.788791958007618 9.000010603635483
    vertex -7.846852495455399 12.824068138418356 9.00001099770114
  endloop
endfacet
facet normal 7.20896106336331e-17 -2.098821156514499e-17 1.0
  outer loop
    vertex 15.289277683177215 19.73879584273653 8.999999999999998
    vertex -7.846852495455399 12.824068138418356 9.00001099770114
    vertex -7.710555800609788 11.788791958008959 9.000010550755357
  endloop
endfacet
facet normal 7.20896106336331e-17 -2.098821156514499e-17 1.0
  outer loop
    vertex 15.289277683177215 19.73879584273653 8.999999999999998
    vertex -7.710555800609788 11.788791958008959 9.000010550755357
    vertex 15.289277683177215 3.8345451815852583 8.999999999999998
  endloop
endfacet
facet normal -2.757620726457018e-07 0.9999999999819951 5.994506681502247e-06
  outer loop
    vertex -17.40045880016275 19.738795842736533 8.999999999999998
    vertex -4.710540735730369 19.73889102933779 6.743444538808376e-05
    vertex -17.400444488136007 19.738799366643878 1.795628555550568e-05
  endloop
endfacet
facet normal -2.757620726457018e-07 0.9999999999819951 5.994506681502247e-06
  outer loop
    vertex -4.710540735730369 19.73889102933779 6.743444538808376e-05
    vertex -17.40045880016275 19.738795842736533 8.999999999999998
    vertex -4.710540735730373 19.738795842484546 5.000042312661083
  endloop
endfacet
facet normal -2.757620726457018e-07 0.9999999999819951 5.994506681502247e-06
  outer loop
    vertex -4.710540735730373 19.738795842484546 5.000042312661083
    vertex 15.289277683177215 19.73879584273653 8.999999999999998
    vertex 15.289277683177211 19.73879584273653 4.999999999999999
  endloop
endfacet
facet normal -2.757620726457018e-07 0.9999999999819951 5.994506681502247e-06
  outer loop
    vertex 15.289277683177215 19.73879584273653 8.999999999999998
    vertex -4.710540735730373 19.738795842484546 5.000042312661083
    vertex -17.40045880016275 19.738795842736533 8.999999999999998
  endloop
endfacet
facet normal -1.1018336005025996e-06 3.5713046934129433e-07 -0.9999999999993292
  outer loop
    vertex 0.2892776831772201 6.725547188684667 4.999999999999999
    vertex -4.7105643464791696 3.834545181585259 5.000017216048944
    vertex -4.710564346479173 6.725428197485822 5.000034432097888
  endloop
endfacet
facet normal -1.1018336005025996e-06 3.5713046934129433e-07 -0.9999999999993292
  outer loop
    vertex -4.7105643464791696 3.834545181585259 5.000017216048944
    vertex 0.2892776831772201 6.725547188684667 4.999999999999999
    vertex 15.289277683177211 3.834545181585259 4.999999999999999
  endloop
endfacet
facet normal -1.1018336005025996e-06 3.5713046934129433e-07 -0.9999999999993292
  outer loop
    vertex 15.289277683177211 3.834545181585259 4.999999999999999
    vertex 0.2892776831772201 6.725547188684667 4.999999999999999
    vertex 15.289277683177211 6.725547188684667 4.999999999999999
  endloop
endfacet
facet normal 0.9999999999960694 2.330683866664429e-06 1.5586027140932296e-06
  outer loop
    vertex -4.710540735730369 19.73889102933779 6.743444538808376e-05
    vertex -4.710540735730373 19.738795842484546 5.000042312661083
    vertex -4.710540735730369 16.852139683389666 5.000067434445387
  endloop
endfacet
facet normal 0.9999999999959135 -2.4753790428702057e-06 1.4301839774593238e-06
  outer loop
    vertex -4.710564346479173 6.725428197485822 5.000034432097888
    vertex -4.7105643464791696 3.834545181585259 5.000017216048944
    vertex -4.710564346479173 3.8386768515376977 3.443209788786064e-05
  endloop
endfacet
facet normal 0.13052619222190084 -0.9914448613734747 -4.2802307650926133e-07
  outer loop
    vertex -11.710529039277567 15.788799366641172 2.124901924557621e-05
    vertex -12.745831981005352 15.652495263162633 8.999998758965075
    vertex -12.74580521968239 15.652502671797537 1.8058442106290076e-05
  endloop
endfacet
facet normal 0.13052619222190084 -0.9914448613734747 -4.2802307650926133e-07
  outer loop
    vertex -12.745831981005352 15.652495263162633 8.999998758965075
    vertex -11.710529039277567 15.788799366641172 2.124901924557621e-05
    vertex -11.710555800600542 15.788791958006266 9.000001949542224
  endloop
endfacet
facet normal -0.13052619221704942 -0.9914448613734743 -1.2042588712387661e-06
  outer loop
    vertex -10.675252858872074 15.652502671797535 2.4215202025479846e-05
    vertex -11.710555800600542 15.788791958006266 9.000001949542224
    vertex -11.710529039277567 15.788799366641172 2.124901924557621e-05
  endloop
endfacet
facet normal -0.13052619221704942 -0.9914448613734743 -1.2042588712387661e-06
  outer loop
    vertex -11.710555800600542 15.788791958006266 9.000001949542224
    vertex -10.675252858872074 15.652502671797535 2.4215202025479846e-05
    vertex -10.675279620195047 15.65249526316263 9.000004915725006
  endloop
endfacet
facet normal -0.38268343236113644 -0.9238795325109739 -1.8984264140252225e-06
  outer loop
    vertex -9.710529039285774 15.252900981779288 2.675484999139933e-05
    vertex -10.675279620195047 15.65249526316263 9.000004915725006
    vertex -10.675252858872074 15.652502671797535 2.4215202025479846e-05
  endloop
endfacet
facet normal -0.38268343236113644 -0.9238795325109739 -1.8984264140252225e-06
  outer loop
    vertex -10.675279620195047 15.65249526316263 9.000004915725006
    vertex -9.710529039285774 15.252900981779288 2.675484999139933e-05
    vertex -9.710555800608747 15.252893573144384 9.000007455372968
  endloop
endfacet
facet normal -0.6087614290040884 -0.7933533402909657 -2.463219333993853e-06
  outer loop
    vertex -8.882101914541972 14.617226491388154 2.869489033142397e-05
    vertex -9.710555800608747 15.252893573144384 9.000007455372968
    vertex -9.710529039285774 15.252900981779288 2.675484999139933e-05
  endloop
endfacet
facet normal -0.6087614290040884 -0.7933533402909657 -2.463219333993853e-06
  outer loop
    vertex -9.710555800608747 15.252893573144384 9.000007455372968
    vertex -8.882101914541972 14.617226491388154 2.869489033142397e-05
    vertex -8.882128675864946 14.61721908275325 9.000009395413308
  endloop
endfacet
facet normal -0.793353340286238 -0.6087614290085143 -2.860147927013216e-06
  outer loop
    vertex -8.882128675864946 14.61721908275325 9.000009395413308
    vertex -8.246427424151404 13.788799366642522 2.990311250244934e-05
    vertex -8.246454185474377 13.788791958007618 9.000010603635483
  endloop
endfacet
facet normal -0.793353340286238 -0.6087614290085143 -2.860147927013216e-06
  outer loop
    vertex -8.246427424151404 13.788799366642522 2.990311250244934e-05
    vertex -8.882128675864946 14.61721908275325 9.000009395413308
    vertex -8.882101914541972 14.617226491388154 2.869489033142397e-05
  endloop
endfacet
facet normal -0.9238795325062655 -0.382683432364961 -3.0621621654245612e-06
  outer loop
    vertex -8.246454185474377 13.788791958007618 9.000010603635483
    vertex -7.846825734132425 12.82407554705326 3.0297178160201603e-05
    vertex -7.846852495455399 12.824068138418356 9.00001099770114
  endloop
endfacet
facet normal -0.9238795325062655 -0.382683432364961 -3.0621621654245612e-06
  outer loop
    vertex -7.846825734132425 12.82407554705326 3.0297178160201603e-05
    vertex -8.246454185474377 13.788791958007618 9.000010603635483
    vertex -8.246427424151404 13.788799366642522 2.990311250244934e-05
  endloop
endfacet
facet normal -0.9914448613691081 -0.1305261922200061 -3.0554951127244667e-06
  outer loop
    vertex -7.846852495455399 12.824068138418356 9.00001099770114
    vertex -7.710529039286815 11.78879936664388 2.985023238132923e-05
    vertex -7.710555800609788 11.788791958008959 9.000010550755357
  endloop
endfacet
facet normal -0.9914448613691081 -0.1305261922200061 -3.0554951127244667e-06
  outer loop
    vertex -7.710529039286815 11.78879936664388 2.985023238132923e-05
    vertex -7.846852495455399 12.824068138418356 9.00001099770114
    vertex -7.846825734132425 12.82407554705326 3.0297178160201603e-05
  endloop
endfacet
facet normal -0.9914448613697469 0.13052619222000908 -2.8406011175366196e-06
  outer loop
    vertex -7.710555800609788 11.788791958008959 9.000010550755357
    vertex -7.846825734127361 10.753523186234496 2.8592733782049547e-05
    vertex -7.846852495450334 10.753515777599576 9.00000929325675
  endloop
endfacet
facet normal -0.9914448613697469 0.13052619222000908 -2.8406011175366196e-06
  outer loop
    vertex -7.846825734127361 10.753523186234496 2.8592733782049547e-05
    vertex -7.710555800609788 11.788791958008959 9.000010550755357
    vertex -7.710529039286815 11.78879936664388 2.985023238132923e-05
  endloop
endfacet
facet normal -0.9238795325081397 0.3826834323649592 -2.4321248505039585e-06
  outer loop
    vertex -7.846852495450334 10.753515777599576 9.00000929325675
    vertex -8.246427424141615 9.788799366645234 2.661037881378878e-05
    vertex -8.246454185464588 9.788791958010313 9.000007310901788
  endloop
endfacet
facet normal -0.9238795325081397 0.3826834323649592 -2.4321248505039585e-06
  outer loop
    vertex -8.246427424141615 9.788799366645234 2.661037881378878e-05
    vertex -7.846852495450334 10.753515777599576 9.00000929325675
    vertex -7.846825734127361 10.753523186234496 2.8592733782049547e-05
  endloop
endfacet
facet normal -0.7933533402892176 0.608761429008515 -1.8579032941857979e-06
  outer loop
    vertex -8.246454185464588 9.788791958010313 9.000007310901788
    vertex -8.882101914528127 8.960372241899606 2.4038261691637424e-05
    vertex -8.8821286758511 8.960364833264684 9.000004738784675
  endloop
endfacet
facet normal -0.7933533402892176 0.608761429008515 -1.8579032941857979e-06
  outer loop
    vertex -8.882101914528127 8.960372241899606 2.4038261691637424e-05
    vertex -8.246454185464588 9.788791958010313 9.000007310901788
    vertex -8.246427424141615 9.788799366645234 2.661037881378878e-05
  endloop
endfacet
facet normal -0.6087614290079707 0.793353340290967 -1.157068698699242e-06
  outer loop
    vertex -9.71055580059179 8.324690342873552 9.000001752190931
    vertex -8.882101914528127 8.960372241899606 2.4038261691637424e-05
    vertex -9.710529039268817 8.324697751508474 2.105166794684556e-05
  endloop
endfacet
facet normal -0.6087614290079707 0.793353340290967 -1.157068698699242e-06
  outer loop
    vertex -8.882101914528127 8.960372241899606 2.4038261691637424e-05
    vertex -9.71055580059179 8.324690342873552 9.000001752190931
    vertex -8.8821286758511 8.960364833264684 9.000004738784675
  endloop
endfacet
facet normal -0.38268343236565927 0.9238795325109739 -3.7738178354276936e-07
  outer loop
    vertex -10.67527962017614 7.925088652855304 8.999998554651985
    vertex -9.710529039268817 8.324697751508474 2.105166794684556e-05
    vertex -10.675252858853165 7.925096061490225 1.785412900754124e-05
  endloop
endfacet
facet normal -0.38268343236565927 0.9238795325109739 -3.7738178354276936e-07
  outer loop
    vertex -9.710529039268817 8.324697751508474 2.105166794684556e-05
    vertex -10.67527962017614 7.925088652855304 8.999998554651985
    vertex -9.71055580059179 8.324690342873552 9.000001752190931
  endloop
endfacet
facet normal -0.130526192221901 0.9914448613734745 4.2802307650926075e-07
  outer loop
    vertex -11.71055580058096 7.78879195801167 8.999995364074847
    vertex -10.675252858853165 7.925096061490225 1.785412900754124e-05
    vertex -11.710529039257986 7.788799366646591 1.4663551868255111e-05
  endloop
endfacet
facet normal -0.130526192221901 0.9914448613734745 4.2802307650926075e-07
  outer loop
    vertex -10.675252858853165 7.925096061490225 1.785412900754124e-05
    vertex -11.71055580058096 7.78879195801167 8.999995364074847
    vertex -10.67527962017614 7.925088652855304 8.999998554651985
  endloop
endfacet
facet normal 0.13052619221704845 0.9914448613734745 1.2042588712387634e-06
  outer loop
    vertex -12.74583198098644 7.9250886528553055 8.999992397892065
    vertex -11.710529039257986 7.788799366646591 1.4663551868255111e-05
    vertex -12.745805219663476 7.925096061490227 1.1697369088351485e-05
  endloop
endfacet
facet normal 0.13052619221704845 0.9914448613734745 1.2042588712387634e-06
  outer loop
    vertex -11.710529039257986 7.788799366646591 1.4663551868255111e-05
    vertex -12.74583198098644 7.9250886528553055 8.999992397892065
    vertex -11.71055580058096 7.78879195801167 8.999995364074847
  endloop
endfacet
facet normal 0.3826834323611366 0.9238795325109738 1.898426414025223e-06
  outer loop
    vertex -13.710555800572743 8.324690342873554 8.99998985824409
    vertex -12.745805219663476 7.925096061490227 1.1697369088351485e-05
    vertex -13.71052903924978 8.324697751508475 9.157721122431997e-06
  endloop
endfacet
facet normal 0.3826834323611366 0.9238795325109738 1.898426414025223e-06
  outer loop
    vertex -12.745805219663476 7.925096061490227 1.1697369088351485e-05
    vertex -13.710555800572743 8.324690342873554 8.99998985824409
    vertex -12.74583198098644 7.9250886528553055 8.999992397892065
  endloop
endfacet
facet normal 0.6087614290040884 0.7933533402909657 2.463219333993853e-06
  outer loop
    vertex -14.538982925316544 8.960364833264688 8.999987918203752
    vertex -13.71052903924978 8.324697751508475 9.157721122431997e-06
    vertex -14.538956163993582 8.96037224189961 7.217680782407354e-06
  endloop
endfacet
facet normal 0.6087614290040884 0.7933533402909657 2.463219333993853e-06
  outer loop
    vertex -13.71052903924978 8.324697751508475 9.157721122431997e-06
    vertex -14.538982925316544 8.960364833264688 8.999987918203752
    vertex -13.710555800572743 8.324690342873554 8.99998985824409
  endloop
endfacet
facet normal 0.7933533402862376 0.6087614290085147 2.8601479270132152e-06
  outer loop
    vertex -14.538956163993582 8.96037224189961 7.217680782407354e-06
    vertex -15.174657415707111 9.788791958010316 8.999986709981588
    vertex -14.538982925316544 8.960364833264688 8.999987918203752
  endloop
endfacet
facet normal 0.7933533402862376 0.6087614290085147 2.8601479270132152e-06
  outer loop
    vertex -15.174657415707111 9.788791958010316 8.999986709981588
    vertex -14.538956163993582 8.96037224189961 7.217680782407354e-06
    vertex -15.174630654384147 9.788799366645238 6.009458611381982e-06
  endloop
endfacet
facet normal 0.9238795325062661 0.3826834323649593 3.0621621654245612e-06
  outer loop
    vertex -15.174630654384147 9.788799366645238 6.009458611381982e-06
    vertex -15.574259105726089 10.75351577759958 8.99998631591593
    vertex -15.174657415707111 9.788791958010316 8.999986709981588
  endloop
endfacet
facet normal 0.9238795325062661 0.3826834323649593 3.0621621654245612e-06
  outer loop
    vertex -15.574259105726089 10.75351577759958 8.99998631591593
    vertex -15.174630654384147 9.788799366645238 6.009458611381982e-06
    vertex -15.574232344403125 10.753523186234501 5.61539295362972e-06
  endloop
endfacet
facet normal 0.9914448613691078 0.13052619222000877 3.0554951127244684e-06
  outer loop
    vertex -15.574232344403125 10.753523186234501 5.61539295362972e-06
    vertex -15.710555800571703 11.788791958008959 8.9999867628617
    vertex -15.574259105726089 10.75351577759958 8.99998631591593
  endloop
endfacet
facet normal 0.9914448613691078 0.13052619222000877 3.0554951127244684e-06
  outer loop
    vertex -15.710555800571703 11.788791958008959 8.9999867628617
    vertex -15.574232344403125 10.753523186234501 5.61539295362972e-06
    vertex -15.710529039248739 11.78879936664388 6.062338732502092e-06
  endloop
endfacet
facet normal 0.9914448613697467 -0.13052619222000925 2.8406011175366196e-06
  outer loop
    vertex -15.710529039248739 11.78879936664388 6.062338732502092e-06
    vertex -15.574259105731157 12.824068138418358 8.999988020360309
    vertex -15.710555800571703 11.788791958008959 8.9999867628617
  endloop
endfacet
facet normal 0.9914448613697467 -0.13052619222000925 2.8406011175366196e-06
  outer loop
    vertex -15.574259105731157 12.824068138418358 8.999988020360309
    vertex -15.710529039248739 11.78879936664388 6.062338732502092e-06
    vertex -15.574232344408193 12.824075547053264 7.319837331781772e-06
  endloop
endfacet
facet normal 0.9238795325081397 -0.3826834323649592 2.4321248505039585e-06
  outer loop
    vertex -15.574232344408193 12.824075547053264 7.319837331781772e-06
    vertex -15.174657415716903 13.788791958007621 8.999990002715283
    vertex -15.574259105731157 12.824068138418358 8.999988020360309
  endloop
endfacet
facet normal 0.9238795325081397 -0.3826834323649592 2.4321248505039585e-06
  outer loop
    vertex -15.174657415716903 13.788791958007621 8.999990002715283
    vertex -15.574232344408193 12.824075547053264 7.319837331781772e-06
    vertex -15.174630654393939 13.788799366642525 9.302192300042535e-06
  endloop
endfacet
facet normal 0.7933533402892176 -0.608761429008515 1.8579032941857979e-06
  outer loop
    vertex -15.174630654393939 13.788799366642525 9.302192300042535e-06
    vertex -14.53898292533039 14.61721908275325 8.999992574832406
    vertex -15.174657415716903 13.788791958007621 8.999990002715283
  endloop
endfacet
facet normal 0.7933533402892176 -0.608761429008515 1.8579032941857979e-06
  outer loop
    vertex -14.53898292533039 14.61721908275325 8.999992574832406
    vertex -15.174630654393939 13.788799366642525 9.302192300042535e-06
    vertex -14.538956164007427 14.617226491388154 1.1874309422193893e-05
  endloop
endfacet
facet normal 0.6087614290079733 -0.7933533402909649 1.1570686986992514e-06
  outer loop
    vertex -13.710529039266737 15.252900981779291 1.4860903166985756e-05
    vertex -14.53898292533039 14.61721908275325 8.999992574832406
    vertex -14.538956164007427 14.617226491388154 1.1874309422193893e-05
  endloop
endfacet
facet normal 0.6087614290079733 -0.7933533402909649 1.1570686986992514e-06
  outer loop
    vertex -14.53898292533039 14.61721908275325 8.999992574832406
    vertex -13.710529039266737 15.252900981779291 1.4860903166985756e-05
    vertex -13.7105558005897 15.252893573144386 8.999995561426152
  endloop
endfacet
facet normal 0.3826834323656586 -0.9238795325109742 3.773817835427672e-07
  outer loop
    vertex -12.74580521968239 15.652502671797537 1.8058442106290076e-05
    vertex -13.7105558005897 15.252893573144386 8.999995561426152
    vertex -13.710529039266737 15.252900981779291 1.4860903166985756e-05
  endloop
endfacet
facet normal 0.3826834323656586 -0.9238795325109742 3.773817835427672e-07
  outer loop
    vertex -13.7105558005897 15.252893573144386 8.999995561426152
    vertex -12.74580521968239 15.652502671797537 1.8058442106290076e-05
    vertex -12.745831981005352 15.652495263162633 8.999998758965075
  endloop
endfacet
facet normal -2.3640646426931142e-07 4.4060171424213706e-07 -0.999999999999875
  outer loop
    vertex -19.58237939432829 13.746715609633595 1.795628555691566e-05
    vertex -19.582379394328285 9.830883123654152 1.795628555691566e-05
    vertex -19.710708004796036 11.788799366643882 1.795628555691566e-05
  endloop
endfacet
facet normal -2.3640646426931142e-07 4.4060171424213706e-07 -0.999999999999875
  outer loop
    vertex -19.582379394328285 9.830883123654152 1.795628555691566e-05
    vertex -19.58237939432829 13.746715609633595 1.795628555691566e-05
    vertex -19.199589301029565 15.67113136286882 1.795628555691566e-05
  endloop
endfacet
facet normal -2.3640646426931142e-07 4.4060171424213706e-07 -0.999999999999875
  outer loop
    vertex -19.582379394328285 9.830883123654152 1.795628555691566e-05
    vertex -19.199589301029565 15.67113136286882 1.795628555691566e-05
    vertex -19.199589301029558 7.9064673704189286 1.795628555691566e-05
  endloop
endfacet
facet normal -2.3640646426931142e-07 4.4060171424213706e-07 -0.999999999999875
  outer loop
    vertex -19.199589301029558 7.9064673704189286 1.795628555691566e-05
    vertex -19.199589301029565 15.67113136286882 1.795628555691566e-05
    vertex -18.568887369525665 17.529119339262856 1.795628555691566e-05
  endloop
endfacet
facet normal -2.3640646426931142e-07 4.4060171424213706e-07 -0.999999999999875
  outer loop
    vertex -19.199589301029558 7.9064673704189286 1.795628555691566e-05
    vertex -18.568887369525665 17.529119339262856 1.795628555691566e-05
    vertex -18.568887369525658 6.048479394024896 1.795628555691566e-05
  endloop
endfacet
facet normal -2.3640646426931142e-07 4.4060171424213706e-07 -0.999999999999875
  outer loop
    vertex -18.568887369525658 6.048479394024896 1.795628555691566e-05
    vertex -18.568887369525665 17.529119339262856 1.795628555691566e-05
    vertex -17.70106508472823 19.288888849408007 1.795628555691566e-05
  endloop
endfacet
facet normal -2.3640646426931142e-07 4.4060171424213706e-07 -0.999999999999875
  outer loop
    vertex -18.568887369525658 6.048479394024896 1.795628555691566e-05
    vertex -17.70106508472823 19.288888849408007 1.795628555691566e-05
    vertex -17.701065084728228 4.288709883879744 1.795628555691566e-05
  endloop
endfacet
facet normal -2.3640646426931142e-07 4.4060171424213706e-07 -0.999999999999875
  outer loop
    vertex -17.701065084728228 4.288709883879744 1.795628555691566e-05
    vertex -17.70106508472823 19.288888849408007 1.795628555691566e-05
    vertex -17.400444488136007 19.738799366643878 1.795628555550568e-05
  endloop
endfacet
facet normal -2.3640646426931142e-07 4.4060171424213706e-07 -0.999999999999875
  outer loop
    vertex -17.701065084728228 4.288709883879744 1.795628555691566e-05
    vertex -17.400444488136007 19.738799366643878 1.795628555550568e-05
    vertex -17.397604287157677 3.8345487054926046 1.795628555550568e-05
  endloop
endfacet
facet normal -2.3640646426931142e-07 4.4060171424213706e-07 -0.999999999999875
  outer loop
    vertex -17.397604287157677 3.8345487054926046 1.795628555550568e-05
    vertex -17.400444488136007 19.738799366643878 1.795628555550568e-05
    vertex -15.574232344408193 12.824075547053264 7.319837331781772e-06
  endloop
endfacet
facet normal -2.3640646426931142e-07 4.4060171424213706e-07 -0.999999999999875
  outer loop
    vertex -15.574232344408193 12.824075547053264 7.319837331781772e-06
    vertex -17.400444488136007 19.738799366643878 1.795628555550568e-05
    vertex -15.174630654393939 13.788799366642525 9.302192300042535e-06
  endloop
endfacet
facet normal -2.3640646426931142e-07 4.4060171424213706e-07 -0.999999999999875
  outer loop
    vertex -15.174630654393939 13.788799366642525 9.302192300042535e-06
    vertex -17.400444488136007 19.738799366643878 1.795628555550568e-05
    vertex -14.538956164007427 14.617226491388154 1.1874309422193893e-05
  endloop
endfacet
facet normal -2.3640646426931142e-07 4.4060171424213706e-07 -0.999999999999875
  outer loop
    vertex -14.538956164007427 14.617226491388154 1.1874309422193893e-05
    vertex -17.400444488136007 19.738799366643878 1.795628555550568e-05
    vertex -13.710529039266737 15.252900981779291 1.4860903166985756e-05
  endloop
endfacet
facet normal -2.3640646426931142e-07 4.4060171424213706e-07 -0.999999999999875
  outer loop
    vertex -13.710529039266737 15.252900981779291 1.4860903166985756e-05
    vertex -17.400444488136007 19.738799366643878 1.795628555550568e-05
    vertex -4.710540735730369 19.73889102933779 6.743444538808376e-05
  endloop
endfacet
facet normal -2.3640646426931142e-07 4.4060171424213706e-07 -0.999999999999875
  outer loop
    vertex -17.397604287157677 3.8345487054926046 1.795628555550568e-05
    vertex -15.574232344408193 12.824075547053264 7.319837331781772e-06
    vertex -15.710529039248739 11.78879936664388 6.062338732502092e-06
  endloop
endfacet
facet normal -2.3640646426931142e-07 4.4060171424213706e-07 -0.999999999999875
  outer loop
    vertex -13.710529039266737 15.252900981779291 1.4860903166985756e-05
    vertex -4.710540735730369 19.73889102933779 6.743444538808376e-05
    vertex -12.74580521968239 15.652502671797537 1.8058442106290076e-05
  endloop
endfacet
facet normal -2.3640646426931142e-07 4.4060171424213706e-07 -0.999999999999875
  outer loop
    vertex -12.74580521968239 15.652502671797537 1.8058442106290076e-05
    vertex -4.710540735730369 19.73889102933779 6.743444538808376e-05
    vertex -11.710529039277567 15.788799366641172 2.124901924557621e-05
  endloop
endfacet
facet normal -2.3640646426931142e-07 4.4060171424213706e-07 -0.999999999999875
  outer loop
    vertex -11.710529039277567 15.788799366641172 2.124901924557621e-05
    vertex -4.710540735730369 19.73889102933779 6.743444538808376e-05
    vertex -10.675252858872074 15.652502671797535 2.4215202025479846e-05
  endloop
endfacet
facet normal -2.3640646426931142e-07 4.4060171424213706e-07 -0.999999999999875
  outer loop
    vertex -10.675252858872074 15.652502671797535 2.4215202025479846e-05
    vertex -4.710540735730369 19.73889102933779 6.743444538808376e-05
    vertex -9.710529039285774 15.252900981779288 2.675484999139933e-05
  endloop
endfacet
facet normal -2.3640646426931142e-07 4.4060171424213706e-07 -0.999999999999875
  outer loop
    vertex -9.710529039285774 15.252900981779288 2.675484999139933e-05
    vertex -4.710540735730369 19.73889102933779 6.743444538808376e-05
    vertex -8.882101914541972 14.617226491388154 2.869489033142397e-05
  endloop
endfacet
facet normal -2.3640646426931142e-07 4.4060171424213706e-07 -0.999999999999875
  outer loop
    vertex -8.882101914541972 14.617226491388154 2.869489033142397e-05
    vertex -4.710540735730369 19.73889102933779 6.743444538808376e-05
    vertex -8.246427424151404 13.788799366642522 2.990311250244934e-05
  endloop
endfacet
facet normal -2.3640646426931142e-07 4.4060171424213706e-07 -0.999999999999875
  outer loop
    vertex -8.246427424151404 13.788799366642522 2.990311250244934e-05
    vertex -4.710540735730369 19.73889102933779 6.743444538808376e-05
    vertex -7.846825734132425 12.82407554705326 3.0297178160201603e-05
  endloop
endfacet
facet normal -2.3640646426931142e-07 4.4060171424213706e-07 -0.999999999999875
  outer loop
    vertex -7.846825734132425 12.82407554705326 3.0297178160201603e-05
    vertex -4.710540735730369 19.73889102933779 6.743444538808376e-05
    vertex -7.710529039286815 11.78879936664388 2.985023238132923e-05
  endloop
endfacet
facet normal -2.3640646426931142e-07 4.4060171424213706e-07 -0.999999999999875
  outer loop
    vertex -7.710529039286815 11.78879936664388 2.985023238132923e-05
    vertex -4.710540735730369 19.73889102933779 6.743444538808376e-05
    vertex -4.710564346479173 3.8386768515376977 3.443209788786064e-05
  endloop
endfacet
facet normal -2.3640646426931142e-07 4.4060171424213706e-07 -0.999999999999875
  outer loop
    vertex -4.710564346479173 3.8386768515376977 3.443209788786064e-05
    vertex -4.710540735730369 19.73889102933779 6.743444538808376e-05
    vertex 15.289277683177218 3.8387958427365403 1.057487430955462e-15
  endloop
endfacet
facet normal -2.3640646426931142e-07 4.4060171424213706e-07 -0.999999999999875
  outer loop
    vertex 15.289277683177218 3.8387958427365403 1.057487430955462e-15
    vertex -4.710540735730369 19.73889102933779 6.743444538808376e-05
    vertex 15.289277683177211 19.73879584273653 1.057487430955462e-15
  endloop
endfacet
facet normal -2.3640646426931142e-07 4.4060171424213706e-07 -0.999999999999875
  outer loop
    vertex -17.397604287157677 3.8345487054926046 1.795628555550568e-05
    vertex -13.71052903924978 8.324697751508475 9.157721122431997e-06
    vertex -4.710564346479173 3.8386768515376977 3.443209788786064e-05
  endloop
endfacet
facet normal -2.3640646426931142e-07 4.4060171424213706e-07 -0.999999999999875
  outer loop
    vertex -13.71052903924978 8.324697751508475 9.157721122431997e-06
    vertex -17.397604287157677 3.8345487054926046 1.795628555550568e-05
    vertex -14.538956163993582 8.96037224189961 7.217680782407354e-06
  endloop
endfacet
facet normal -2.3640646426931142e-07 4.4060171424213706e-07 -0.999999999999875
  outer loop
    vertex -14.538956163993582 8.96037224189961 7.217680782407354e-06
    vertex -17.397604287157677 3.8345487054926046 1.795628555550568e-05
    vertex -15.174630654384147 9.788799366645238 6.009458611381982e-06
  endloop
endfacet
facet normal -2.3640646426931142e-07 4.4060171424213706e-07 -0.999999999999875
  outer loop
    vertex -15.174630654384147 9.788799366645238 6.009458611381982e-06
    vertex -17.397604287157677 3.8345487054926046 1.795628555550568e-05
    vertex -15.574232344403125 10.753523186234501 5.61539295362972e-06
  endloop
endfacet
facet normal -2.3640646426931142e-07 4.4060171424213706e-07 -0.999999999999875
  outer loop
    vertex -15.574232344403125 10.753523186234501 5.61539295362972e-06
    vertex -17.397604287157677 3.8345487054926046 1.795628555550568e-05
    vertex -15.710529039248739 11.78879936664388 6.062338732502092e-06
  endloop
endfacet
facet normal -2.3640646426931142e-07 4.4060171424213706e-07 -0.999999999999875
  outer loop
    vertex -4.710564346479173 3.8386768515376977 3.443209788786064e-05
    vertex -13.71052903924978 8.324697751508475 9.157721122431997e-06
    vertex -12.745805219663476 7.925096061490227 1.1697369088351485e-05
  endloop
endfacet
facet normal -2.3640646426931142e-07 4.4060171424213706e-07 -0.999999999999875
  outer loop
    vertex -4.710564346479173 3.8386768515376977 3.443209788786064e-05
    vertex -12.745805219663476 7.925096061490227 1.1697369088351485e-05
    vertex -11.710529039257986 7.788799366646591 1.4663551868255111e-05
  endloop
endfacet
facet normal -2.3640646426931142e-07 4.4060171424213706e-07 -0.999999999999875
  outer loop
    vertex -4.710564346479173 3.8386768515376977 3.443209788786064e-05
    vertex -11.710529039257986 7.788799366646591 1.4663551868255111e-05
    vertex -10.675252858853165 7.925096061490225 1.785412900754124e-05
  endloop
endfacet
facet normal -2.3640646426931142e-07 4.4060171424213706e-07 -0.999999999999875
  outer loop
    vertex -4.710564346479173 3.8386768515376977 3.443209788786064e-05
    vertex -10.675252858853165 7.925096061490225 1.785412900754124e-05
    vertex -9.710529039268817 8.324697751508474 2.105166794684556e-05
  endloop
endfacet
facet normal -2.3640646426931142e-07 4.4060171424213706e-07 -0.999999999999875
  outer loop
    vertex -4.710564346479173 3.8386768515376977 3.443209788786064e-05
    vertex -9.710529039268817 8.324697751508474 2.105166794684556e-05
    vertex -8.882101914528127 8.960372241899606 2.4038261691637424e-05
  endloop
endfacet
facet normal -2.3640646426931142e-07 4.4060171424213706e-07 -0.999999999999875
  outer loop
    vertex -4.710564346479173 3.8386768515376977 3.443209788786064e-05
    vertex -8.882101914528127 8.960372241899606 2.4038261691637424e-05
    vertex -8.246427424141615 9.788799366645234 2.661037881378878e-05
  endloop
endfacet
facet normal -2.3640646426931142e-07 4.4060171424213706e-07 -0.999999999999875
  outer loop
    vertex -4.710564346479173 3.8386768515376977 3.443209788786064e-05
    vertex -8.246427424141615 9.788799366645234 2.661037881378878e-05
    vertex -7.846825734127361 10.753523186234496 2.8592733782049547e-05
  endloop
endfacet
facet normal -2.3640646426931142e-07 4.4060171424213706e-07 -0.999999999999875
  outer loop
    vertex -4.710564346479173 3.8386768515376977 3.443209788786064e-05
    vertex -7.846825734127361 10.753523186234496 2.8592733782049547e-05
    vertex -7.710529039286815 11.78879936664388 2.985023238132923e-05
  endloop
endfacet
endsolid Ластохвост-подшипник-8мм
