solid 16mm-подшиб под-напр-6mm-шпилька-Лев1
facet normal -0.6560818900783142 0.7040625922196374 -0.27175801689781226
  outer loop
    vertex 35.67037086855465 1.8962720274270405e-16 8.705904774487504
    vertex 37.901923788646684 1.999999999999999 8.500000000000103
    vertex 36.169872981077795 5.332687652070772e-16 7.500000000000106
  endloop
endfacet
facet normal -0.6560818900783142 0.7040625922196374 -0.27175801689781226
  outer loop
    vertex 37.901923788646684 1.999999999999999 8.500000000000103
    vertex 35.67037086855465 1.8962720274270405e-16 8.705904774487504
    vertex 37.60222252113279 1.999999999999999 9.223542864692542
  endloop
endfacet
facet normal -0.5633902913547434 0.7040625922196374 -0.4323045753218232
  outer loop
    vertex 36.169872981077795 5.332687652070772e-16 7.500000000000106
    vertex 38.378679656440355 1.9999999999999984 7.878679656440462
    vertex 36.964466094067255 7.584110614513017e-16 6.464466094067368
  endloop
endfacet
facet normal -0.5633902913547434 0.7040625922196374 -0.4323045753218232
  outer loop
    vertex 38.378679656440355 1.9999999999999984 7.878679656440462
    vertex 36.169872981077795 5.332687652070772e-16 7.500000000000106
    vertex 37.901923788646684 1.999999999999999 8.500000000000103
  endloop
endfacet
facet normal -0.43230457532182376 0.7040625922196373 -0.5633902913547434
  outer loop
    vertex 36.964466094067255 7.584110614513017e-16 6.464466094067368
    vertex 38.99999999999999 1.9999999999999984 7.401923788646788
    vertex 37.99999999999999 8.497110160515745e-16 5.669872981077912
  endloop
endfacet
facet normal -0.43230457532182376 0.7040625922196373 -0.5633902913547434
  outer loop
    vertex 38.99999999999999 1.9999999999999984 7.401923788646788
    vertex 36.964466094067255 7.584110614513017e-16 6.464466094067368
    vertex 38.378679656440355 1.9999999999999984 7.878679656440462
  endloop
endfacet
facet normal -0.2717580168978124 0.7040625922196373 -0.6560818900783142
  outer loop
    vertex 37.99999999999999 8.497110160515745e-16 5.669872981077912
    vertex 39.72354286469243 1.9999999999999984 7.102222521132901
    vertex 39.20590477448739 8.009466879821929e-16 5.170370868554763
  endloop
endfacet
facet normal -0.2717580168978124 0.7040625922196373 -0.6560818900783142
  outer loop
    vertex 39.72354286469243 1.9999999999999984 7.102222521132901
    vertex 37.99999999999999 8.497110160515745e-16 5.669872981077912
    vertex 38.99999999999999 1.9999999999999984 7.401923788646788
  endloop
endfacet
facet normal -0.09269159872357143 0.7040625922196374 -0.7040625922196359
  outer loop
    vertex 39.20590477448739 8.009466879821929e-16 5.170370868554763
    vertex 40.49999999999999 1.9999999999999984 7.000000000000106
    vertex 40.49999999999999 6.154412856142236e-16 5.000000000000104
  endloop
endfacet
facet normal -0.09269159872357143 0.7040625922196374 -0.7040625922196359
  outer loop
    vertex 40.49999999999999 1.9999999999999984 7.000000000000106
    vertex 39.20590477448739 8.009466879821929e-16 5.170370868554763
    vertex 39.72354286469243 1.9999999999999984 7.102222521132901
  endloop
endfacet
facet normal 0.09269159872357118 0.7040625922196373 -0.7040625922196359
  outer loop
    vertex 40.49999999999999 1.9999999999999984 7.000000000000106
    vertex 41.7940952255126 3.058366955568702e-16 5.170370868554762
    vertex 40.49999999999999 6.154412856142236e-16 5.000000000000104
  endloop
endfacet
facet normal 0.09269159872357118 0.7040625922196373 -0.7040625922196359
  outer loop
    vertex 41.7940952255126 3.058366955568702e-16 5.170370868554762
    vertex 40.49999999999999 1.9999999999999984 7.000000000000106
    vertex 41.27645713530756 1.9999999999999984 7.102222521132901
  endloop
endfacet
facet normal 0.2717580168978123 0.7040625922196373 -0.6560818900783142
  outer loop
    vertex 41.27645713530756 1.9999999999999984 7.102222521132901
    vertex 42.999999999999986 -1.0676804102323258e-16 5.6698729810779085
    vertex 41.7940952255126 3.058366955568702e-16 5.170370868554762
  endloop
endfacet
facet normal 0.2717580168978123 0.7040625922196373 -0.6560818900783142
  outer loop
    vertex 42.999999999999986 -1.0676804102323258e-16 5.6698729810779085
    vertex 41.27645713530756 1.9999999999999984 7.102222521132901
    vertex 41.99999999999999 1.9999999999999984 7.4019237886467915
  endloop
endfacet
facet normal 0.4323045753218242 0.704062592219637 -0.5633902913547433
  outer loop
    vertex 41.99999999999999 1.9999999999999984 7.4019237886467915
    vertex 44.03553390593273 -5.942545931897198e-16 6.464466094067365
    vertex 42.999999999999986 -1.0676804102323258e-16 5.6698729810779085
  endloop
endfacet
facet normal 0.4323045753218242 0.704062592219637 -0.5633902913547433
  outer loop
    vertex 44.03553390593273 -5.942545931897198e-16 6.464466094067365
    vertex 41.99999999999999 1.9999999999999984 7.4019237886467915
    vertex 42.62132034355964 1.9999999999999984 7.878679656440464
  endloop
endfacet
facet normal 0.563390291354742 0.7040625922196372 -0.4323045753218256
  outer loop
    vertex 42.62132034355964 1.9999999999999984 7.878679656440464
    vertex 44.83012701892219 -1.1234015580220622e-15 7.500000000000102
    vertex 44.03553390593273 -5.942545931897198e-16 6.464466094067365
  endloop
endfacet
facet normal 0.563390291354742 0.7040625922196372 -0.4323045753218256
  outer loop
    vertex 44.83012701892219 -1.1234015580220622e-15 7.500000000000102
    vertex 42.62132034355964 1.9999999999999984 7.878679656440464
    vertex 43.09807621135331 1.9999999999999984 8.500000000000107
  endloop
endfacet
facet normal 0.6560818900783146 0.7040625922196373 -0.2717580168978113
  outer loop
    vertex 43.09807621135331 1.9999999999999984 8.500000000000107
    vertex 45.32962913144534 -1.658148444323639e-15 8.705904774487498
    vertex 44.83012701892219 -1.1234015580220622e-15 7.500000000000102
  endloop
endfacet
facet normal 0.6560818900783146 0.7040625922196373 -0.2717580168978113
  outer loop
    vertex 45.32962913144534 -1.658148444323639e-15 8.705904774487498
    vertex 43.09807621135331 1.9999999999999984 8.500000000000107
    vertex 43.3977774788672 1.9999999999999984 9.223542864692545
  endloop
endfacet
facet normal 0.7040625922196363 0.704062592219637 -0.09269159872357104
  outer loop
    vertex 43.3977774788672 1.9999999999999984 9.223542864692545
    vertex 45.49999999999999 -2.1620531355040158e-15 10.000000000000107
    vertex 45.32962913144534 -1.658148444323639e-15 8.705904774487498
  endloop
endfacet
facet normal 0.7040625922196363 0.704062592219637 -0.09269159872357104
  outer loop
    vertex 45.49999999999999 -2.1620531355040158e-15 10.000000000000107
    vertex 43.3977774788672 1.9999999999999984 9.223542864692545
    vertex 43.49999999999999 1.999999999999999 10.000000000000107
  endloop
endfacet
facet normal 0.7040625922196364 0.7040625922196366 0.09269159872357162
  outer loop
    vertex 43.49999999999999 1.999999999999999 10.000000000000107
    vertex 45.32962913144534 -2.600775359601119e-15 11.29409522551271
    vertex 45.49999999999999 -2.1620531355040158e-15 10.000000000000107
  endloop
endfacet
facet normal 0.7040625922196364 0.7040625922196366 0.09269159872357162
  outer loop
    vertex 45.32962913144534 -2.600775359601119e-15 11.29409522551271
    vertex 43.49999999999999 1.999999999999999 10.000000000000107
    vertex 43.3977774788672 1.999999999999999 10.776457135307671
  endloop
endfacet
facet normal 0.6560818900783144 0.704062592219637 0.2717580168978129
  outer loop
    vertex 43.0980762113533 1.999999999999999 11.500000000000108
    vertex 45.32962913144534 -2.600775359601119e-15 11.29409522551271
    vertex 43.3977774788672 1.999999999999999 10.776457135307671
  endloop
endfacet
facet normal 0.6560818900783144 0.704062592219637 0.2717580168978129
  outer loop
    vertex 45.32962913144534 -2.600775359601119e-15 11.29409522551271
    vertex 43.0980762113533 1.999999999999999 11.500000000000108
    vertex 44.83012701892219 -2.944416922065492e-15 12.500000000000107
  endloop
endfacet
facet normal 0.5633902913547435 0.7040625922196364 0.4323045753218247
  outer loop
    vertex 42.62132034355964 1.999999999999999 12.12132034355975
    vertex 44.83012701892219 -2.944416922065492e-15 12.500000000000107
    vertex 43.0980762113533 1.999999999999999 11.500000000000108
  endloop
endfacet
facet normal 0.5633902913547435 0.7040625922196364 0.4323045753218247
  outer loop
    vertex 44.83012701892219 -2.944416922065492e-15 12.500000000000107
    vertex 42.62132034355964 1.999999999999999 12.12132034355975
    vertex 44.03553390593274 -3.1695592183097163e-15 13.535533905932837
  endloop
endfacet
facet normal 0.43230457532182526 0.7040625922196359 0.5633902913547437
  outer loop
    vertex 41.99999999999999 1.999999999999999 12.598076211353423
    vertex 44.03553390593274 -3.1695592183097163e-15 13.535533905932837
    vertex 42.62132034355964 1.999999999999999 12.12132034355975
  endloop
endfacet
facet normal 0.43230457532182526 0.7040625922196359 0.5633902913547437
  outer loop
    vertex 44.03553390593274 -3.1695592183097163e-15 13.535533905932837
    vertex 41.99999999999999 1.999999999999999 12.598076211353423
    vertex 42.99999999999999 -3.2608591729099892e-15 14.3301270189223
  endloop
endfacet
facet normal 0.2717580168978106 0.7040625922196365 0.6560818900783157
  outer loop
    vertex 41.27645713530755 1.999999999999999 12.897777478867308
    vertex 42.99999999999999 -3.2608591729099892e-15 14.3301270189223
    vertex 41.99999999999999 1.999999999999999 12.598076211353423
  endloop
endfacet
facet normal 0.2717580168978106 0.7040625922196365 0.6560818900783157
  outer loop
    vertex 42.99999999999999 -3.2608591729099892e-15 14.3301270189223
    vertex 41.27645713530755 1.999999999999999 12.897777478867308
    vertex 41.7940952255126 -3.2120948448406063e-15 14.829629131445447
  endloop
endfacet
facet normal 0.09269159872357187 0.7040625922196366 0.7040625922196365
  outer loop
    vertex 40.49999999999999 1.9999999999999991 13.000000000000103
    vertex 41.7940952255126 -3.2120948448406063e-15 14.829629131445447
    vertex 41.27645713530755 1.999999999999999 12.897777478867308
  endloop
endfacet
facet normal 0.09269159872357187 0.7040625922196366 0.7040625922196365
  outer loop
    vertex 41.7940952255126 -3.2120948448406063e-15 14.829629131445447
    vertex 40.49999999999999 1.9999999999999991 13.000000000000103
    vertex 40.49999999999999 -3.026589442472636e-15 15.000000000000105
  endloop
endfacet
facet normal -0.09269159872357123 0.7040625922196365 0.7040625922196366
  outer loop
    vertex 40.49999999999999 -3.026589442472636e-15 15.000000000000105
    vertex 39.723542864692426 1.9999999999999991 12.897777478867308
    vertex 39.205904774487394 -2.716984852415284e-15 14.829629131445447
  endloop
endfacet
facet normal -0.09269159872357123 0.7040625922196365 0.7040625922196366
  outer loop
    vertex 39.723542864692426 1.9999999999999991 12.897777478867308
    vertex 40.49999999999999 -3.026589442472636e-15 15.000000000000105
    vertex 40.49999999999999 1.9999999999999991 13.000000000000103
  endloop
endfacet
facet normal -0.27175801689781176 0.7040625922196363 0.6560818900783155
  outer loop
    vertex 37.99999999999999 -2.304380115835181e-15 14.3301270189223
    vertex 39.723542864692426 1.9999999999999991 12.897777478867308
    vertex 38.99999999999999 1.999999999999999 12.59807621135342
  endloop
endfacet
facet normal -0.27175801689781176 0.7040625922196363 0.6560818900783155
  outer loop
    vertex 39.723542864692426 1.9999999999999991 12.897777478867308
    vertex 37.99999999999999 -2.304380115835181e-15 14.3301270189223
    vertex 39.205904774487394 -2.716984852415284e-15 14.829629131445447
  endloop
endfacet
facet normal -0.432304575321824 0.7040625922196367 0.5633902913547437
  outer loop
    vertex 36.964466094067255 -1.816893563668694e-15 13.535533905932844
    vertex 38.99999999999999 1.999999999999999 12.59807621135342
    vertex 38.378679656440355 1.999999999999999 12.121320343559747
  endloop
endfacet
facet normal -0.432304575321824 0.7040625922196367 0.5633902913547437
  outer loop
    vertex 38.99999999999999 1.999999999999999 12.59807621135342
    vertex 36.964466094067255 -1.816893563668694e-15 13.535533905932844
    vertex 37.99999999999999 -2.304380115835181e-15 14.3301270189223
  endloop
endfacet
facet normal -0.5633902913547427 0.7040625922196372 0.4323045753218245
  outer loop
    vertex 36.169872981077795 -1.2877465988363526e-15 12.500000000000108
    vertex 38.378679656440355 1.999999999999999 12.121320343559747
    vertex 37.90192378864668 1.999999999999999 11.500000000000103
  endloop
endfacet
facet normal -0.5633902913547427 0.7040625922196372 0.4323045753218245
  outer loop
    vertex 38.378679656440355 1.999999999999999 12.121320343559747
    vertex 36.169872981077795 -1.2877465988363526e-15 12.500000000000108
    vertex 36.964466094067255 -1.816893563668694e-15 13.535533905932844
  endloop
endfacet
facet normal -0.6560818900783146 0.7040625922196373 0.27175801689781137
  outer loop
    vertex 35.67037086855465 -7.529997125347747e-16 11.294095225512711
    vertex 37.90192378864668 1.999999999999999 11.500000000000103
    vertex 37.60222252113279 1.999999999999999 10.776457135307666
  endloop
endfacet
facet normal -0.6560818900783146 0.7040625922196373 0.27175801689781137
  outer loop
    vertex 37.90192378864668 1.999999999999999 11.500000000000103
    vertex 35.67037086855465 -7.529997125347747e-16 11.294095225512711
    vertex 36.169872981077795 -1.2877465988363526e-15 12.500000000000108
  endloop
endfacet
facet normal -0.704062592219636 0.7040625922196372 0.09269159872357145
  outer loop
    vertex 35.49999999999999 -2.4909502135439904e-16 10.000000000000107
    vertex 37.60222252113279 1.999999999999999 10.776457135307666
    vertex 37.49999999999999 1.999999999999999 10.000000000000105
  endloop
endfacet
facet normal -0.704062592219636 0.7040625922196372 0.09269159872357145
  outer loop
    vertex 37.60222252113279 1.999999999999999 10.776457135307666
    vertex 35.49999999999999 -2.4909502135439904e-16 10.000000000000107
    vertex 35.67037086855465 -7.529997125347747e-16 11.294095225512711
  endloop
endfacet
facet normal -0.7040625922196361 0.7040625922196372 -0.09269159872357136
  outer loop
    vertex 35.49999999999999 -2.4909502135439904e-16 10.000000000000107
    vertex 37.60222252113279 1.999999999999999 9.223542864692542
    vertex 35.67037086855465 1.8962720274270405e-16 8.705904774487504
  endloop
endfacet
facet normal -0.7040625922196361 0.7040625922196372 -0.09269159872357136
  outer loop
    vertex 37.60222252113279 1.999999999999999 9.223542864692542
    vertex 35.49999999999999 -2.4909502135439904e-16 10.000000000000107
    vertex 37.49999999999999 1.999999999999999 10.000000000000105
  endloop
endfacet
facet normal 0.9914448613738105 -9.046212901367584e-18 0.13052619222005168
  outer loop
    vertex 37.60222252113279 1.999999999999999 9.223542864692542
    vertex 37.49999999999999 -4.808982999999998 10.000000000000103
    vertex 37.60222252113279 -4.808982999999998 9.22354286469254
  endloop
endfacet
facet normal 0.9914448613738105 -9.046212901367584e-18 0.13052619222005168
  outer loop
    vertex 37.49999999999999 -4.808982999999998 10.000000000000103
    vertex 37.60222252113279 1.999999999999999 9.223542864692542
    vertex 37.49999999999999 1.999999999999999 10.000000000000105
  endloop
endfacet
facet normal 0.9238795325112852 1.4071330748073025e-17 0.3826834323650937
  outer loop
    vertex 37.901923788646684 1.999999999999999 8.500000000000103
    vertex 37.60222252113279 -4.808982999999998 9.22354286469254
    vertex 37.901923788646684 -4.808982999999998 8.500000000000101
  endloop
endfacet
facet normal 0.9238795325112852 1.4071330748073025e-17 0.3826834323650937
  outer loop
    vertex 37.60222252113279 -4.808982999999998 9.22354286469254
    vertex 37.901923788646684 1.999999999999999 8.500000000000103
    vertex 37.60222252113279 1.999999999999999 9.223542864692542
  endloop
endfacet
facet normal 0.7933533402912366 3.622993646100509e-17 0.6087614290087189
  outer loop
    vertex 38.378679656440355 1.9999999999999984 7.878679656440462
    vertex 37.901923788646684 -4.808982999999998 8.500000000000101
    vertex 38.378679656440355 -4.808982999999998 7.878679656440461
  endloop
endfacet
facet normal 0.7933533402912366 3.622993646100509e-17 0.6087614290087189
  outer loop
    vertex 37.901923788646684 -4.808982999999998 8.500000000000101
    vertex 38.378679656440355 1.9999999999999984 7.878679656440462
    vertex 37.901923788646684 1.999999999999999 8.500000000000103
  endloop
endfacet
facet normal 0.6087614290087197 5.591953187692138e-17 0.7933533402912362
  outer loop
    vertex 38.99999999999999 -4.808982999999998 7.401923788646787
    vertex 38.378679656440355 1.9999999999999984 7.878679656440462
    vertex 38.378679656440355 -4.808982999999998 7.878679656440461
  endloop
endfacet
facet normal 0.6087614290087197 5.591953187692138e-17 0.7933533402912362
  outer loop
    vertex 38.378679656440355 1.9999999999999984 7.878679656440462
    vertex 38.99999999999999 -4.808982999999998 7.401923788646787
    vertex 38.99999999999999 1.9999999999999984 7.401923788646788
  endloop
endfacet
facet normal 0.3826834323650895 7.179830360682091e-17 0.9238795325112868
  outer loop
    vertex 39.72354286469243 -4.808982999999998 7.1022225211329
    vertex 38.99999999999999 1.9999999999999984 7.401923788646788
    vertex 38.99999999999999 -4.808982999999998 7.401923788646787
  endloop
endfacet
facet normal 0.3826834323650895 7.179830360682091e-17 0.9238795325112868
  outer loop
    vertex 38.99999999999999 1.9999999999999984 7.401923788646788
    vertex 39.72354286469243 -4.808982999999998 7.1022225211329
    vertex 39.72354286469243 1.9999999999999984 7.102222521132901
  endloop
endfacet
facet normal 0.13052619222005168 8.278413959822245e-17 0.9914448613738105
  outer loop
    vertex 40.49999999999999 -4.808982999999998 7.000000000000104
    vertex 39.72354286469243 1.9999999999999984 7.102222521132901
    vertex 39.72354286469243 -4.808982999999998 7.1022225211329
  endloop
endfacet
facet normal 0.13052619222005168 8.278413959822245e-17 0.9914448613738105
  outer loop
    vertex 39.72354286469243 1.9999999999999984 7.102222521132901
    vertex 40.49999999999999 -4.808982999999998 7.000000000000104
    vertex 40.49999999999999 1.9999999999999984 7.000000000000106
  endloop
endfacet
facet normal -0.13052619222005168 8.812837328326429e-17 0.9914448613738105
  outer loop
    vertex 41.27645713530756 -4.808982999999998 7.1022225211329
    vertex 40.49999999999999 1.9999999999999984 7.000000000000106
    vertex 40.49999999999999 -4.808982999999998 7.000000000000104
  endloop
endfacet
facet normal -0.13052619222005168 8.812837328326429e-17 0.9914448613738105
  outer loop
    vertex 40.49999999999999 1.9999999999999984 7.000000000000106
    vertex 41.27645713530756 -4.808982999999998 7.1022225211329
    vertex 41.27645713530756 1.9999999999999984 7.102222521132901
  endloop
endfacet
facet normal -0.38268343236509006 8.746680396807457e-17 0.9238795325112867
  outer loop
    vertex 41.99999999999999 -4.808982999999998 7.40192378864679
    vertex 41.27645713530756 1.9999999999999984 7.102222521132901
    vertex 41.27645713530756 -4.808982999999998 7.1022225211329
  endloop
endfacet
facet normal -0.38268343236509006 8.746680396807457e-17 0.9238795325112867
  outer loop
    vertex 41.27645713530756 1.9999999999999984 7.102222521132901
    vertex 41.99999999999999 -4.808982999999998 7.40192378864679
    vertex 41.99999999999999 1.9999999999999984 7.4019237886467915
  endloop
endfacet
facet normal -0.608761429008722 8.084451650818845e-17 0.7933533402912343
  outer loop
    vertex 42.62132034355964 -4.808982999999998 7.878679656440462
    vertex 41.99999999999999 1.9999999999999984 7.4019237886467915
    vertex 41.99999999999999 -4.808982999999998 7.40192378864679
  endloop
endfacet
facet normal -0.608761429008722 8.084451650818845e-17 0.7933533402912343
  outer loop
    vertex 41.99999999999999 1.9999999999999984 7.4019237886467915
    vertex 42.62132034355964 -4.808982999999998 7.878679656440462
    vertex 42.62132034355964 1.9999999999999984 7.878679656440464
  endloop
endfacet
facet normal -0.7933533402912346 6.871280885014987e-17 0.6087614290087217
  outer loop
    vertex 43.09807621135331 1.9999999999999984 8.500000000000107
    vertex 42.62132034355964 -4.808982999999998 7.878679656440462
    vertex 43.09807621135331 -4.808982999999998 8.500000000000105
  endloop
endfacet
facet normal -0.7933533402912346 6.871280885014987e-17 0.6087614290087217
  outer loop
    vertex 42.62132034355964 -4.808982999999998 7.878679656440462
    vertex 43.09807621135331 1.9999999999999984 8.500000000000107
    vertex 42.62132034355964 1.9999999999999984 7.878679656440464
  endloop
endfacet
facet normal -0.9238795325112874 5.1898436822258887e-17 0.3826834323650882
  outer loop
    vertex 43.3977774788672 1.9999999999999984 9.223542864692545
    vertex 43.09807621135331 -4.808982999999998 8.500000000000105
    vertex 43.3977774788672 -4.808982999999998 9.223542864692543
  endloop
endfacet
facet normal -0.9238795325112874 5.1898436822258887e-17 0.3826834323650882
  outer loop
    vertex 43.09807621135331 -4.808982999999998 8.500000000000105
    vertex 43.3977774788672 1.9999999999999984 9.223542864692545
    vertex 43.09807621135331 1.9999999999999984 8.500000000000107
  endloop
endfacet
facet normal -0.9914448613738105 3.15472720911533e-17 0.13052619222005168
  outer loop
    vertex 43.49999999999999 1.999999999999999 10.000000000000107
    vertex 43.3977774788672 -4.808982999999998 9.223542864692543
    vertex 43.49999999999999 -4.808982999999998 10.000000000000107
  endloop
endfacet
facet normal -0.9914448613738105 3.15472720911533e-17 0.13052619222005168
  outer loop
    vertex 43.3977774788672 -4.808982999999998 9.223542864692543
    vertex 43.49999999999999 1.999999999999999 10.000000000000107
    vertex 43.3977774788672 1.9999999999999984 9.223542864692545
  endloop
endfacet
facet normal -0.9914448613738105 9.046212901367606e-18 -0.13052619222005146
  outer loop
    vertex 43.3977774788672 1.999999999999999 10.776457135307671
    vertex 43.49999999999999 -4.808982999999998 10.000000000000107
    vertex 43.3977774788672 -4.808982999999998 10.77645713530767
  endloop
endfacet
facet normal -0.9914448613738105 9.046212901367606e-18 -0.13052619222005146
  outer loop
    vertex 43.49999999999999 -4.808982999999998 10.000000000000107
    vertex 43.3977774788672 1.999999999999999 10.776457135307671
    vertex 43.49999999999999 1.999999999999999 10.000000000000107
  endloop
endfacet
facet normal -0.923879532511285 -1.4071330748073084e-17 -0.38268343236509444
  outer loop
    vertex 43.0980762113533 1.999999999999999 11.500000000000108
    vertex 43.3977774788672 -4.808982999999998 10.77645713530767
    vertex 43.0980762113533 -4.808982999999998 11.500000000000107
  endloop
endfacet
facet normal -0.923879532511285 -1.4071330748073084e-17 -0.38268343236509444
  outer loop
    vertex 43.3977774788672 -4.808982999999998 10.77645713530767
    vertex 43.0980762113533 1.999999999999999 11.500000000000108
    vertex 43.3977774788672 1.999999999999999 10.776457135307671
  endloop
endfacet
facet normal -0.7933533402912373 -3.6229936461005e-17 -0.6087614290087179
  outer loop
    vertex 42.62132034355964 1.999999999999999 12.12132034355975
    vertex 43.0980762113533 -4.808982999999998 11.500000000000107
    vertex 42.62132034355964 -4.808982999999998 12.121320343559749
  endloop
endfacet
facet normal -0.7933533402912373 -3.6229936461005e-17 -0.6087614290087179
  outer loop
    vertex 43.0980762113533 -4.808982999999998 11.500000000000107
    vertex 42.62132034355964 1.999999999999999 12.12132034355975
    vertex 43.0980762113533 1.999999999999999 11.500000000000108
  endloop
endfacet
facet normal -0.6087614290087184 -5.591953187692147e-17 -0.7933533402912368
  outer loop
    vertex 42.62132034355964 1.999999999999999 12.12132034355975
    vertex 41.99999999999999 -4.808982999999998 12.598076211353423
    vertex 41.99999999999999 1.999999999999999 12.598076211353423
  endloop
endfacet
facet normal -0.6087614290087184 -5.591953187692147e-17 -0.7933533402912368
  outer loop
    vertex 41.99999999999999 -4.808982999999998 12.598076211353423
    vertex 42.62132034355964 1.999999999999999 12.12132034355975
    vertex 42.62132034355964 -4.808982999999998 12.121320343559749
  endloop
endfacet
facet normal -0.38268343236508384 -7.179830360682123e-17 -0.9238795325112892
  outer loop
    vertex 41.99999999999999 1.999999999999999 12.598076211353423
    vertex 41.27645713530755 -4.808982999999998 12.897777478867308
    vertex 41.27645713530755 1.999999999999999 12.897777478867308
  endloop
endfacet
facet normal -0.38268343236508384 -7.179830360682123e-17 -0.9238795325112892
  outer loop
    vertex 41.27645713530755 -4.808982999999998 12.897777478867308
    vertex 41.99999999999999 1.999999999999999 12.598076211353423
    vertex 41.99999999999999 -4.808982999999998 12.598076211353423
  endloop
endfacet
facet normal -0.13052619222005263 -8.278413959822242e-17 -0.9914448613738104
  outer loop
    vertex 41.27645713530755 1.999999999999999 12.897777478867308
    vertex 40.49999999999999 -4.808982999999997 13.000000000000103
    vertex 40.49999999999999 1.9999999999999991 13.000000000000103
  endloop
endfacet
facet normal -0.13052619222005263 -8.278413959822242e-17 -0.9914448613738104
  outer loop
    vertex 40.49999999999999 -4.808982999999997 13.000000000000103
    vertex 41.27645713530755 1.999999999999999 12.897777478867308
    vertex 41.27645713530755 -4.808982999999998 12.897777478867308
  endloop
endfacet
facet normal 0.13052619222005074 -8.812837328326428e-17 -0.9914448613738105
  outer loop
    vertex 40.49999999999999 1.9999999999999991 13.000000000000103
    vertex 39.723542864692426 -4.808982999999997 12.897777478867308
    vertex 39.723542864692426 1.9999999999999991 12.897777478867308
  endloop
endfacet
facet normal 0.13052619222005074 -8.812837328326428e-17 -0.9914448613738105
  outer loop
    vertex 39.723542864692426 -4.808982999999997 12.897777478867308
    vertex 40.49999999999999 1.9999999999999991 13.000000000000103
    vertex 40.49999999999999 -4.808982999999997 13.000000000000103
  endloop
endfacet
facet normal 0.3826834323650895 -8.746680396807456e-17 -0.9238795325112868
  outer loop
    vertex 39.723542864692426 1.9999999999999991 12.897777478867308
    vertex 38.99999999999999 -4.808982999999998 12.598076211353419
    vertex 38.99999999999999 1.999999999999999 12.59807621135342
  endloop
endfacet
facet normal 0.3826834323650895 -8.746680396807456e-17 -0.9238795325112868
  outer loop
    vertex 38.99999999999999 -4.808982999999998 12.598076211353419
    vertex 39.723542864692426 1.9999999999999991 12.897777478867308
    vertex 39.723542864692426 -4.808982999999997 12.897777478867308
  endloop
endfacet
facet normal 0.6087614290087231 -8.08445165081884e-17 -0.7933533402912335
  outer loop
    vertex 38.99999999999999 1.999999999999999 12.59807621135342
    vertex 38.378679656440355 -4.808982999999998 12.121320343559745
    vertex 38.378679656440355 1.999999999999999 12.121320343559747
  endloop
endfacet
facet normal 0.6087614290087231 -8.08445165081884e-17 -0.7933533402912335
  outer loop
    vertex 38.378679656440355 -4.808982999999998 12.121320343559745
    vertex 38.99999999999999 1.999999999999999 12.59807621135342
    vertex 38.99999999999999 -4.808982999999998 12.598076211353419
  endloop
endfacet
facet normal 0.7933533402912346 -6.871280885014987e-17 -0.6087614290087217
  outer loop
    vertex 37.90192378864668 1.999999999999999 11.500000000000103
    vertex 38.378679656440355 -4.808982999999998 12.121320343559745
    vertex 37.90192378864668 -4.808982999999998 11.500000000000101
  endloop
endfacet
facet normal 0.7933533402912346 -6.871280885014987e-17 -0.6087614290087217
  outer loop
    vertex 38.378679656440355 -4.808982999999998 12.121320343559745
    vertex 37.90192378864668 1.999999999999999 11.500000000000103
    vertex 38.378679656440355 1.999999999999999 12.121320343559747
  endloop
endfacet
facet normal 0.9238795325112874 -5.1898436822258887e-17 -0.3826834323650882
  outer loop
    vertex 37.60222252113279 1.999999999999999 10.776457135307666
    vertex 37.90192378864668 -4.808982999999998 11.500000000000101
    vertex 37.60222252113279 -4.808982999999998 10.776457135307664
  endloop
endfacet
facet normal 0.9238795325112874 -5.1898436822258887e-17 -0.3826834323650882
  outer loop
    vertex 37.90192378864668 -4.808982999999998 11.500000000000101
    vertex 37.60222252113279 1.999999999999999 10.776457135307666
    vertex 37.90192378864668 1.999999999999999 11.500000000000103
  endloop
endfacet
facet normal 0.9914448613738104 -3.154727209115332e-17 -0.1305261922200519
  outer loop
    vertex 37.49999999999999 1.999999999999999 10.000000000000105
    vertex 37.60222252113279 -4.808982999999998 10.776457135307664
    vertex 37.49999999999999 -4.808982999999998 10.000000000000103
  endloop
endfacet
facet normal 0.9914448613738104 -3.154727209115332e-17 -0.1305261922200519
  outer loop
    vertex 37.60222252113279 -4.808982999999998 10.776457135307664
    vertex 37.49999999999999 1.999999999999999 10.000000000000105
    vertex 37.60222252113279 1.999999999999999 10.776457135307666
  endloop
endfacet
facet normal -1.9129581141496153e-16 -1.0 -3.6420307280868583e-16
  outer loop
    vertex 41.7940952255126 -4.808982999999998 5.170370868554761
    vertex 39.20590477448739 -4.808982999999998 5.1703708685547625
    vertex 40.49999999999999 -4.808982999999998 5.000000000000103
  endloop
endfacet
facet normal -1.9129581141496153e-16 -1.0 -3.6420307280868583e-16
  outer loop
    vertex 39.20590477448739 -4.808982999999998 5.1703708685547625
    vertex 41.7940952255126 -4.808982999999998 5.170370868554761
    vertex 42.999999999999986 -4.808982999999998 5.669872981077908
  endloop
endfacet
facet normal -1.9129581141496153e-16 -1.0 -3.6420307280868583e-16
  outer loop
    vertex 39.20590477448739 -4.808982999999998 5.1703708685547625
    vertex 42.999999999999986 -4.808982999999998 5.669872981077908
    vertex 37.99999999999999 -4.808982999999998 5.669872981077911
  endloop
endfacet
facet normal -1.9129581141496153e-16 -1.0 -3.6420307280868583e-16
  outer loop
    vertex 37.99999999999999 -4.808982999999998 5.669872981077911
    vertex 42.999999999999986 -4.808982999999998 5.669872981077908
    vertex 44.03553390593273 -4.808983 6.4644660940673635
  endloop
endfacet
facet normal -1.9129581141496153e-16 -1.0 -3.6420307280868583e-16
  outer loop
    vertex 37.99999999999999 -4.808982999999998 5.669872981077911
    vertex 44.03553390593273 -4.808983 6.4644660940673635
    vertex 36.964466094067255 -4.808982999999998 6.464466094067366
  endloop
endfacet
facet normal -1.9129581141496153e-16 -1.0 -3.6420307280868583e-16
  outer loop
    vertex 36.964466094067255 -4.808982999999998 6.464466094067366
    vertex 44.03553390593273 -4.808983 6.4644660940673635
    vertex 44.83012701892219 -4.808983 7.5000000000001
  endloop
endfacet
facet normal -1.9129581141496153e-16 -1.0 -3.6420307280868583e-16
  outer loop
    vertex 36.964466094067255 -4.808982999999998 6.464466094067366
    vertex 44.83012701892219 -4.808983 7.5000000000001
    vertex 40.49999999999999 -4.808982999999998 7.000000000000104
  endloop
endfacet
facet normal -1.9129581141496153e-16 -1.0 -3.6420307280868583e-16
  outer loop
    vertex 40.49999999999999 -4.808982999999998 7.000000000000104
    vertex 44.83012701892219 -4.808983 7.5000000000001
    vertex 41.27645713530756 -4.808982999999998 7.1022225211329
  endloop
endfacet
facet normal -1.9129581141496153e-16 -1.0 -3.6420307280868583e-16
  outer loop
    vertex 41.27645713530756 -4.808982999999998 7.1022225211329
    vertex 44.83012701892219 -4.808983 7.5000000000001
    vertex 41.99999999999999 -4.808982999999998 7.40192378864679
  endloop
endfacet
facet normal -1.9129581141496153e-16 -1.0 -3.6420307280868583e-16
  outer loop
    vertex 41.99999999999999 -4.808982999999998 7.40192378864679
    vertex 44.83012701892219 -4.808983 7.5000000000001
    vertex 42.62132034355964 -4.808982999999998 7.878679656440462
  endloop
endfacet
facet normal -1.9129581141496153e-16 -1.0 -3.6420307280868583e-16
  outer loop
    vertex 42.62132034355964 -4.808982999999998 7.878679656440462
    vertex 44.83012701892219 -4.808983 7.5000000000001
    vertex 45.32962913144534 -4.8089830000000005 8.705904774487497
  endloop
endfacet
facet normal -1.9129581141496153e-16 -1.0 -3.6420307280868583e-16
  outer loop
    vertex 42.62132034355964 -4.808982999999998 7.878679656440462
    vertex 45.32962913144534 -4.8089830000000005 8.705904774487497
    vertex 43.09807621135331 -4.808982999999998 8.500000000000105
  endloop
endfacet
facet normal -1.9129581141496153e-16 -1.0 -3.6420307280868583e-16
  outer loop
    vertex 43.09807621135331 -4.808982999999998 8.500000000000105
    vertex 45.32962913144534 -4.8089830000000005 8.705904774487497
    vertex 43.3977774788672 -4.808982999999998 9.223542864692543
  endloop
endfacet
facet normal -1.9129581141496153e-16 -1.0 -3.6420307280868583e-16
  outer loop
    vertex 43.3977774788672 -4.808982999999998 9.223542864692543
    vertex 45.32962913144534 -4.8089830000000005 8.705904774487497
    vertex 45.49999999999999 -4.8089830000000005 10.000000000000105
  endloop
endfacet
facet normal -1.9129581141496153e-16 -1.0 -3.6420307280868583e-16
  outer loop
    vertex 43.3977774788672 -4.808982999999998 9.223542864692543
    vertex 45.49999999999999 -4.8089830000000005 10.000000000000105
    vertex 43.49999999999999 -4.808982999999998 10.000000000000107
  endloop
endfacet
facet normal -1.9129581141496153e-16 -1.0 -3.6420307280868583e-16
  outer loop
    vertex 43.49999999999999 -4.808982999999998 10.000000000000107
    vertex 45.49999999999999 -4.8089830000000005 10.000000000000105
    vertex 45.32962913144534 -4.8089830000000005 11.294095225512708
  endloop
endfacet
facet normal -1.9129581141496153e-16 -1.0 -3.6420307280868583e-16
  outer loop
    vertex 43.49999999999999 -4.808982999999998 10.000000000000107
    vertex 45.32962913144534 -4.8089830000000005 11.294095225512708
    vertex 43.3977774788672 -4.808982999999998 10.77645713530767
  endloop
endfacet
facet normal -1.9129581141496153e-16 -1.0 -3.6420307280868583e-16
  outer loop
    vertex 43.3977774788672 -4.808982999999998 10.77645713530767
    vertex 45.32962913144534 -4.8089830000000005 11.294095225512708
    vertex 43.0980762113533 -4.808982999999998 11.500000000000107
  endloop
endfacet
facet normal -1.9129581141496153e-16 -1.0 -3.6420307280868583e-16
  outer loop
    vertex 43.0980762113533 -4.808982999999998 11.500000000000107
    vertex 45.32962913144534 -4.8089830000000005 11.294095225512708
    vertex 44.83012701892219 -4.8089830000000005 12.500000000000105
  endloop
endfacet
facet normal -1.9129581141496153e-16 -1.0 -3.6420307280868583e-16
  outer loop
    vertex 43.0980762113533 -4.808982999999998 11.500000000000107
    vertex 44.83012701892219 -4.8089830000000005 12.500000000000105
    vertex 42.62132034355964 -4.808982999999998 12.121320343559749
  endloop
endfacet
facet normal -1.9129581141496153e-16 -1.0 -3.6420307280868583e-16
  outer loop
    vertex 42.62132034355964 -4.808982999999998 12.121320343559749
    vertex 44.83012701892219 -4.8089830000000005 12.500000000000105
    vertex 41.99999999999999 -4.808982999999998 12.598076211353423
  endloop
endfacet
facet normal -1.9129581141496153e-16 -1.0 -3.6420307280868583e-16
  outer loop
    vertex 41.99999999999999 -4.808982999999998 12.598076211353423
    vertex 44.83012701892219 -4.8089830000000005 12.500000000000105
    vertex 44.03553390593274 -4.808983000000002 13.535533905932837
  endloop
endfacet
facet normal -1.9129581141496153e-16 -1.0 -3.6420307280868583e-16
  outer loop
    vertex 41.99999999999999 -4.808982999999998 12.598076211353423
    vertex 44.03553390593274 -4.808983000000002 13.535533905932837
    vertex 41.27645713530755 -4.808982999999998 12.897777478867308
  endloop
endfacet
facet normal -1.9129581141496153e-16 -1.0 -3.6420307280868583e-16
  outer loop
    vertex 41.27645713530755 -4.808982999999998 12.897777478867308
    vertex 44.03553390593274 -4.808983000000002 13.535533905932837
    vertex 40.49999999999999 -4.808982999999997 13.000000000000103
  endloop
endfacet
facet normal -1.9129581141496153e-16 -1.0 -3.6420307280868583e-16
  outer loop
    vertex 40.49999999999999 -4.808982999999998 7.000000000000104
    vertex 36.169872981077795 -4.808982999999998 7.500000000000105
    vertex 36.964466094067255 -4.808982999999998 6.464466094067366
  endloop
endfacet
facet normal -1.9129581141496153e-16 -1.0 -3.6420307280868583e-16
  outer loop
    vertex 36.169872981077795 -4.808982999999998 7.500000000000105
    vertex 40.49999999999999 -4.808982999999998 7.000000000000104
    vertex 39.72354286469243 -4.808982999999998 7.1022225211329
  endloop
endfacet
facet normal -1.9129581141496153e-16 -1.0 -3.6420307280868583e-16
  outer loop
    vertex 36.169872981077795 -4.808982999999998 7.500000000000105
    vertex 39.72354286469243 -4.808982999999998 7.1022225211329
    vertex 38.99999999999999 -4.808982999999998 7.401923788646787
  endloop
endfacet
facet normal -1.9129581141496153e-16 -1.0 -3.6420307280868583e-16
  outer loop
    vertex 36.169872981077795 -4.808982999999998 7.500000000000105
    vertex 38.99999999999999 -4.808982999999998 7.401923788646787
    vertex 38.378679656440355 -4.808982999999998 7.878679656440461
  endloop
endfacet
facet normal -1.9129581141496153e-16 -1.0 -3.6420307280868583e-16
  outer loop
    vertex 36.169872981077795 -4.808982999999998 7.500000000000105
    vertex 38.378679656440355 -4.808982999999998 7.878679656440461
    vertex 35.67037086855465 -4.808982999999998 8.705904774487502
  endloop
endfacet
facet normal -1.9129581141496153e-16 -1.0 -3.6420307280868583e-16
  outer loop
    vertex 35.67037086855465 -4.808982999999998 8.705904774487502
    vertex 38.378679656440355 -4.808982999999998 7.878679656440461
    vertex 37.901923788646684 -4.808982999999998 8.500000000000101
  endloop
endfacet
facet normal -1.9129581141496153e-16 -1.0 -3.6420307280868583e-16
  outer loop
    vertex 35.67037086855465 -4.808982999999998 8.705904774487502
    vertex 37.901923788646684 -4.808982999999998 8.500000000000101
    vertex 37.60222252113279 -4.808982999999998 9.22354286469254
  endloop
endfacet
facet normal -1.9129581141496153e-16 -1.0 -3.6420307280868583e-16
  outer loop
    vertex 35.67037086855465 -4.808982999999998 8.705904774487502
    vertex 37.60222252113279 -4.808982999999998 9.22354286469254
    vertex 35.49999999999999 -4.808983 10.000000000000105
  endloop
endfacet
facet normal -1.9129581141496153e-16 -1.0 -3.6420307280868583e-16
  outer loop
    vertex 35.49999999999999 -4.808983 10.000000000000105
    vertex 37.60222252113279 -4.808982999999998 9.22354286469254
    vertex 37.49999999999999 -4.808982999999998 10.000000000000103
  endloop
endfacet
facet normal -1.9129581141496153e-16 -1.0 -3.6420307280868583e-16
  outer loop
    vertex 35.49999999999999 -4.808983 10.000000000000105
    vertex 37.49999999999999 -4.808982999999998 10.000000000000103
    vertex 37.60222252113279 -4.808982999999998 10.776457135307664
  endloop
endfacet
facet normal -1.9129581141496153e-16 -1.0 -3.6420307280868583e-16
  outer loop
    vertex 35.49999999999999 -4.808983 10.000000000000105
    vertex 37.60222252113279 -4.808982999999998 10.776457135307664
    vertex 35.67037086855465 -4.808983 11.29409522551271
  endloop
endfacet
facet normal -1.9129581141496153e-16 -1.0 -3.6420307280868583e-16
  outer loop
    vertex 35.67037086855465 -4.808983 11.29409522551271
    vertex 37.60222252113279 -4.808982999999998 10.776457135307664
    vertex 37.90192378864668 -4.808982999999998 11.500000000000101
  endloop
endfacet
facet normal -1.9129581141496153e-16 -1.0 -3.6420307280868583e-16
  outer loop
    vertex 35.67037086855465 -4.808983 11.29409522551271
    vertex 37.90192378864668 -4.808982999999998 11.500000000000101
    vertex 36.169872981077795 -4.808983 12.500000000000107
  endloop
endfacet
facet normal -1.9129581141496153e-16 -1.0 -3.6420307280868583e-16
  outer loop
    vertex 36.169872981077795 -4.808983 12.500000000000107
    vertex 37.90192378864668 -4.808982999999998 11.500000000000101
    vertex 38.378679656440355 -4.808982999999998 12.121320343559745
  endloop
endfacet
facet normal -1.9129581141496153e-16 -1.0 -3.6420307280868583e-16
  outer loop
    vertex 36.169872981077795 -4.808983 12.500000000000107
    vertex 38.378679656440355 -4.808982999999998 12.121320343559745
    vertex 38.99999999999999 -4.808982999999998 12.598076211353419
  endloop
endfacet
facet normal -1.9129581141496153e-16 -1.0 -3.6420307280868583e-16
  outer loop
    vertex 36.169872981077795 -4.808983 12.500000000000107
    vertex 38.99999999999999 -4.808982999999998 12.598076211353419
    vertex 36.964466094067255 -4.8089830000000005 13.535533905932844
  endloop
endfacet
facet normal -1.9129581141496153e-16 -1.0 -3.6420307280868583e-16
  outer loop
    vertex 36.964466094067255 -4.8089830000000005 13.535533905932844
    vertex 38.99999999999999 -4.808982999999998 12.598076211353419
    vertex 39.723542864692426 -4.808982999999997 12.897777478867308
  endloop
endfacet
facet normal -1.9129581141496153e-16 -1.0 -3.6420307280868583e-16
  outer loop
    vertex 36.964466094067255 -4.8089830000000005 13.535533905932844
    vertex 39.723542864692426 -4.808982999999997 12.897777478867308
    vertex 40.49999999999999 -4.808982999999997 13.000000000000103
  endloop
endfacet
facet normal -1.9129581141496153e-16 -1.0 -3.6420307280868583e-16
  outer loop
    vertex 36.964466094067255 -4.8089830000000005 13.535533905932844
    vertex 40.49999999999999 -4.808982999999997 13.000000000000103
    vertex 44.03553390593274 -4.808983000000002 13.535533905932837
  endloop
endfacet
facet normal -1.9129581141496153e-16 -1.0 -3.6420307280868583e-16
  outer loop
    vertex 36.964466094067255 -4.8089830000000005 13.535533905932844
    vertex 44.03553390593274 -4.808983000000002 13.535533905932837
    vertex 42.99999999999999 -4.808983000000002 14.3301270189223
  endloop
endfacet
facet normal -1.9129581141496153e-16 -1.0 -3.6420307280868583e-16
  outer loop
    vertex 36.964466094067255 -4.8089830000000005 13.535533905932844
    vertex 42.99999999999999 -4.808983000000002 14.3301270189223
    vertex 37.99999999999999 -4.8089830000000005 14.3301270189223
  endloop
endfacet
facet normal -1.9129581141496153e-16 -1.0 -3.6420307280868583e-16
  outer loop
    vertex 37.99999999999999 -4.8089830000000005 14.3301270189223
    vertex 42.99999999999999 -4.808983000000002 14.3301270189223
    vertex 41.7940952255126 -4.808983000000002 14.829629131445447
  endloop
endfacet
facet normal -1.9129581141496153e-16 -1.0 -3.6420307280868583e-16
  outer loop
    vertex 37.99999999999999 -4.8089830000000005 14.3301270189223
    vertex 41.7940952255126 -4.808983000000002 14.829629131445447
    vertex 39.205904774487394 -4.8089830000000005 14.829629131445447
  endloop
endfacet
facet normal -1.9129581141496153e-16 -1.0 -3.6420307280868583e-16
  outer loop
    vertex 39.205904774487394 -4.8089830000000005 14.829629131445447
    vertex 41.7940952255126 -4.808983000000002 14.829629131445447
    vertex 40.49999999999999 -4.808983000000002 15.000000000000105
  endloop
endfacet
facet normal 0.7933533402912331 6.994761208260216e-17 -0.6087614290087233
  outer loop
    vertex 44.03553390593273 -5.942545931897198e-16 6.464466094067365
    vertex 44.83012701892219 -4.808983 7.5000000000001
    vertex 44.03553390593273 -4.808983 6.4644660940673635
  endloop
endfacet
facet normal 0.7933533402912331 6.994761208260216e-17 -0.6087614290087233
  outer loop
    vertex 44.83012701892219 -4.808983 7.5000000000001
    vertex 44.03553390593273 -5.942545931897198e-16 6.464466094067365
    vertex 44.83012701892219 -1.1234015580220622e-15 7.500000000000102
  endloop
endfacet
facet normal 0.6087614290087203 1.724882128367483e-16 -0.7933533402912355
  outer loop
    vertex 44.03553390593273 -5.942545931897198e-16 6.464466094067365
    vertex 42.999999999999986 -4.808982999999998 5.669872981077908
    vertex 42.999999999999986 -1.0676804102323258e-16 5.6698729810779085
  endloop
endfacet
facet normal 0.6087614290087203 1.724882128367483e-16 -0.7933533402912355
  outer loop
    vertex 42.999999999999986 -4.808982999999998 5.669872981077908
    vertex 44.03553390593273 -5.942545931897198e-16 6.464466094067365
    vertex 44.03553390593273 -4.808983 6.4644660940673635
  endloop
endfacet
facet normal 0.3826834323650898 2.6327402693632043e-16 -0.9238795325112868
  outer loop
    vertex 42.999999999999986 -1.0676804102323258e-16 5.6698729810779085
    vertex 41.7940952255126 -4.808982999999998 5.170370868554761
    vertex 41.7940952255126 3.058366955568702e-16 5.170370868554762
  endloop
endfacet
facet normal 0.3826834323650898 2.6327402693632043e-16 -0.9238795325112868
  outer loop
    vertex 41.7940952255126 -4.808982999999998 5.170370868554761
    vertex 42.999999999999986 -1.0676804102323258e-16 5.6698729810779085
    vertex 42.999999999999986 -4.808982999999998 5.669872981077908
  endloop
endfacet
facet normal 0.13052619222005135 3.361181511810834e-16 -0.9914448613738106
  outer loop
    vertex 41.7940952255126 3.058366955568702e-16 5.170370868554762
    vertex 40.49999999999999 -4.808982999999998 5.000000000000103
    vertex 40.49999999999999 6.154412856142236e-16 5.000000000000104
  endloop
endfacet
facet normal 0.13052619222005135 3.361181511810834e-16 -0.9914448613738106
  outer loop
    vertex 40.49999999999999 -4.808982999999998 5.000000000000103
    vertex 41.7940952255126 3.058366955568702e-16 5.170370868554762
    vertex 41.7940952255126 -4.808982999999998 5.170370868554761
  endloop
endfacet
facet normal -0.13052619222005185 3.8605637888436334e-16 -0.9914448613738104
  outer loop
    vertex 40.49999999999999 6.154412856142236e-16 5.000000000000104
    vertex 39.20590477448739 -4.808982999999998 5.1703708685547625
    vertex 39.20590477448739 8.009466879821929e-16 5.170370868554763
  endloop
endfacet
facet normal -0.13052619222005185 3.8605637888436334e-16 -0.9914448613738104
  outer loop
    vertex 39.20590477448739 -4.808982999999998 5.1703708685547625
    vertex 40.49999999999999 6.154412856142236e-16 5.000000000000104
    vertex 40.49999999999999 -4.808982999999998 5.000000000000103
  endloop
endfacet
facet normal -0.38268343236509117 4.096855023550053e-16 -0.9238795325112863
  outer loop
    vertex 39.20590477448739 8.009466879821929e-16 5.170370868554763
    vertex 37.99999999999999 -4.808982999999998 5.669872981077911
    vertex 37.99999999999999 8.497110160515745e-16 5.669872981077912
  endloop
endfacet
facet normal -0.38268343236509117 4.096855023550053e-16 -0.9238795325112863
  outer loop
    vertex 37.99999999999999 -4.808982999999998 5.669872981077911
    vertex 39.20590477448739 8.009466879821929e-16 5.170370868554763
    vertex 39.20590477448739 -4.808982999999998 5.1703708685547625
  endloop
endfacet
facet normal -0.6087614290087199 4.053952358774576e-16 -0.7933533402912357
  outer loop
    vertex 37.99999999999999 8.497110160515745e-16 5.669872981077912
    vertex 36.964466094067255 -4.808982999999998 6.464466094067366
    vertex 36.964466094067255 7.584110614513017e-16 6.464466094067368
  endloop
endfacet
facet normal -0.6087614290087199 4.053952358774576e-16 -0.7933533402912357
  outer loop
    vertex 36.964466094067255 -4.808982999999998 6.464466094067366
    vertex 37.99999999999999 8.497110160515745e-16 5.669872981077912
    vertex 37.99999999999999 -4.808982999999998 5.669872981077911
  endloop
endfacet
facet normal -0.7933533402912356 3.734779540221646e-16 -0.6087614290087201
  outer loop
    vertex 36.169872981077795 5.332687652070772e-16 7.500000000000106
    vertex 36.964466094067255 -4.808982999999998 6.464466094067366
    vertex 36.169872981077795 -4.808982999999998 7.500000000000105
  endloop
endfacet
facet normal -0.7933533402912356 3.734779540221646e-16 -0.6087614290087201
  outer loop
    vertex 36.964466094067255 -4.808982999999998 6.464466094067366
    vertex 36.169872981077795 5.332687652070772e-16 7.500000000000106
    vertex 36.964466094067255 7.584110614513017e-16 6.464466094067368
  endloop
endfacet
facet normal -0.9238795325112872 3.1610876680176235e-16 -0.38268343236508917
  outer loop
    vertex 35.67037086855465 1.8962720274270405e-16 8.705904774487504
    vertex 36.169872981077795 -4.808982999999998 7.500000000000105
    vertex 35.67037086855465 -4.808982999999998 8.705904774487502
  endloop
endfacet
facet normal -0.9238795325112872 3.1610876680176235e-16 -0.38268343236508917
  outer loop
    vertex 36.169872981077795 -4.808982999999998 7.500000000000105
    vertex 35.67037086855465 1.8962720274270405e-16 8.705904774487504
    vertex 36.169872981077795 5.332687652070772e-16 7.500000000000106
  endloop
endfacet
facet normal -0.9914448613738104 2.371972895182572e-16 -0.13052619222005188
  outer loop
    vertex 35.49999999999999 -2.4909502135439904e-16 10.000000000000107
    vertex 35.67037086855465 -4.808982999999998 8.705904774487502
    vertex 35.49999999999999 -4.808983 10.000000000000105
  endloop
endfacet
facet normal -0.9914448613738104 2.371972895182572e-16 -0.13052619222005188
  outer loop
    vertex 35.67037086855465 -4.808982999999998 8.705904774487502
    vertex 35.49999999999999 -2.4909502135439904e-16 10.000000000000107
    vertex 35.67037086855465 1.8962720274270405e-16 8.705904774487504
  endloop
endfacet
facet normal -0.9914448613738104 1.4212120894113714e-16 0.13052619222005157
  outer loop
    vertex 35.67037086855465 -7.529997125347747e-16 11.294095225512711
    vertex 35.49999999999999 -4.808983 10.000000000000105
    vertex 35.67037086855465 -4.808983 11.29409522551271
  endloop
endfacet
facet normal -0.9914448613738104 1.4212120894113714e-16 0.13052619222005157
  outer loop
    vertex 35.49999999999999 -4.808983 10.000000000000105
    vertex 35.67037086855465 -7.529997125347747e-16 11.294095225512711
    vertex 35.49999999999999 -2.4909502135439904e-16 10.000000000000107
  endloop
endfacet
facet normal -0.9238795325112872 3.735980284108167e-17 0.38268343236508917
  outer loop
    vertex 36.169872981077795 -1.2877465988363526e-15 12.500000000000108
    vertex 35.67037086855465 -4.808983 11.29409522551271
    vertex 36.169872981077795 -4.808983 12.500000000000107
  endloop
endfacet
facet normal -0.9238795325112872 3.735980284108167e-17 0.38268343236508917
  outer loop
    vertex 35.67037086855465 -4.808983 11.29409522551271
    vertex 36.169872981077795 -1.2877465988363526e-15 12.500000000000108
    vertex 35.67037086855465 -7.529997125347747e-16 11.294095225512711
  endloop
endfacet
facet normal -0.7933533402912349 -6.994761208260107e-17 0.6087614290087212
  outer loop
    vertex 36.964466094067255 -1.816893563668694e-15 13.535533905932844
    vertex 36.169872981077795 -4.808983 12.500000000000107
    vertex 36.964466094067255 -4.8089830000000005 13.535533905932844
  endloop
endfacet
facet normal -0.7933533402912349 -6.994761208260107e-17 0.6087614290087212
  outer loop
    vertex 36.169872981077795 -4.808983 12.500000000000107
    vertex 36.964466094067255 -1.816893563668694e-15 13.535533905932844
    vertex 36.169872981077795 -1.2877465988363526e-15 12.500000000000108
  endloop
endfacet
facet normal -0.6087614290087197 -1.7248821283674864e-16 0.7933533402912362
  outer loop
    vertex 37.99999999999999 -4.8089830000000005 14.3301270189223
    vertex 36.964466094067255 -1.816893563668694e-15 13.535533905932844
    vertex 36.964466094067255 -4.8089830000000005 13.535533905932844
  endloop
endfacet
facet normal -0.6087614290087197 -1.7248821283674864e-16 0.7933533402912362
  outer loop
    vertex 36.964466094067255 -1.816893563668694e-15 13.535533905932844
    vertex 37.99999999999999 -4.8089830000000005 14.3301270189223
    vertex 37.99999999999999 -2.304380115835181e-15 14.3301270189223
  endloop
endfacet
facet normal -0.3826834323650887 -2.6327402693632077e-16 0.9238795325112873
  outer loop
    vertex 39.205904774487394 -4.8089830000000005 14.829629131445447
    vertex 37.99999999999999 -2.304380115835181e-15 14.3301270189223
    vertex 37.99999999999999 -4.8089830000000005 14.3301270189223
  endloop
endfacet
facet normal -0.3826834323650887 -2.6327402693632077e-16 0.9238795325112873
  outer loop
    vertex 37.99999999999999 -2.304380115835181e-15 14.3301270189223
    vertex 39.205904774487394 -4.8089830000000005 14.829629131445447
    vertex 39.205904774487394 -2.716984852415284e-15 14.829629131445447
  endloop
endfacet
facet normal -0.13052619222005188 -3.361181511810832e-16 0.9914448613738104
  outer loop
    vertex 40.49999999999999 -4.808983000000002 15.000000000000105
    vertex 39.205904774487394 -2.716984852415284e-15 14.829629131445447
    vertex 39.205904774487394 -4.8089830000000005 14.829629131445447
  endloop
endfacet
facet normal -0.13052619222005188 -3.361181511810832e-16 0.9914448613738104
  outer loop
    vertex 39.205904774487394 -2.716984852415284e-15 14.829629131445447
    vertex 40.49999999999999 -4.808983000000002 15.000000000000105
    vertex 40.49999999999999 -3.026589442472636e-15 15.000000000000105
  endloop
endfacet
facet normal 0.13052619222005188 -3.860563788843634e-16 0.9914448613738104
  outer loop
    vertex 41.7940952255126 -4.808983000000002 14.829629131445447
    vertex 40.49999999999999 -3.026589442472636e-15 15.000000000000105
    vertex 40.49999999999999 -4.808983000000002 15.000000000000105
  endloop
endfacet
facet normal 0.13052619222005188 -3.860563788843634e-16 0.9914448613738104
  outer loop
    vertex 40.49999999999999 -3.026589442472636e-15 15.000000000000105
    vertex 41.7940952255126 -4.808983000000002 14.829629131445447
    vertex 41.7940952255126 -3.2120948448406063e-15 14.829629131445447
  endloop
endfacet
facet normal 0.3826834323650887 -4.0968550235500513e-16 0.9238795325112873
  outer loop
    vertex 42.99999999999999 -4.808983000000002 14.3301270189223
    vertex 41.7940952255126 -3.2120948448406063e-15 14.829629131445447
    vertex 41.7940952255126 -4.808983000000002 14.829629131445447
  endloop
endfacet
facet normal 0.3826834323650887 -4.0968550235500513e-16 0.9238795325112873
  outer loop
    vertex 41.7940952255126 -3.2120948448406063e-15 14.829629131445447
    vertex 42.99999999999999 -4.808983000000002 14.3301270189223
    vertex 42.99999999999999 -3.2608591729099892e-15 14.3301270189223
  endloop
endfacet
facet normal 0.6087614290087223 -4.0539523587745744e-16 0.793353340291234
  outer loop
    vertex 44.03553390593274 -4.808983000000002 13.535533905932837
    vertex 42.99999999999999 -3.2608591729099892e-15 14.3301270189223
    vertex 42.99999999999999 -4.808983000000002 14.3301270189223
  endloop
endfacet
facet normal 0.6087614290087223 -4.0539523587745744e-16 0.793353340291234
  outer loop
    vertex 42.99999999999999 -3.2608591729099892e-15 14.3301270189223
    vertex 44.03553390593274 -4.808983000000002 13.535533905932837
    vertex 44.03553390593274 -3.1695592183097163e-15 13.535533905932837
  endloop
endfacet
facet normal 0.7933533402912337 -3.734779540221652e-16 0.6087614290087228
  outer loop
    vertex 44.83012701892219 -4.8089830000000005 12.500000000000105
    vertex 44.03553390593274 -3.1695592183097163e-15 13.535533905932837
    vertex 44.03553390593274 -4.808983000000002 13.535533905932837
  endloop
endfacet
facet normal 0.7933533402912337 -3.734779540221652e-16 0.6087614290087228
  outer loop
    vertex 44.03553390593274 -3.1695592183097163e-15 13.535533905932837
    vertex 44.83012701892219 -4.8089830000000005 12.500000000000105
    vertex 44.83012701892219 -2.944416922065492e-15 12.500000000000107
  endloop
endfacet
facet normal 0.9238795325112872 -3.1610876680176235e-16 0.38268343236508917
  outer loop
    vertex 45.32962913144534 -2.600775359601119e-15 11.29409522551271
    vertex 44.83012701892219 -4.8089830000000005 12.500000000000105
    vertex 45.32962913144534 -4.8089830000000005 11.294095225512708
  endloop
endfacet
facet normal 0.9238795325112872 -3.1610876680176235e-16 0.38268343236508917
  outer loop
    vertex 44.83012701892219 -4.8089830000000005 12.500000000000105
    vertex 45.32962913144534 -2.600775359601119e-15 11.29409522551271
    vertex 44.83012701892219 -2.944416922065492e-15 12.500000000000107
  endloop
endfacet
facet normal 0.9914448613738104 -2.3719728951825717e-16 0.13052619222005174
  outer loop
    vertex 45.49999999999999 -2.1620531355040158e-15 10.000000000000107
    vertex 45.32962913144534 -4.8089830000000005 11.294095225512708
    vertex 45.49999999999999 -4.8089830000000005 10.000000000000105
  endloop
endfacet
facet normal 0.9914448613738104 -2.3719728951825717e-16 0.13052619222005174
  outer loop
    vertex 45.32962913144534 -4.8089830000000005 11.294095225512708
    vertex 45.49999999999999 -2.1620531355040158e-15 10.000000000000107
    vertex 45.32962913144534 -2.600775359601119e-15 11.29409522551271
  endloop
endfacet
facet normal 0.9914448613738106 -1.4212120894113723e-16 -0.13052619222005132
  outer loop
    vertex 45.32962913144534 -1.658148444323639e-15 8.705904774487498
    vertex 45.49999999999999 -4.8089830000000005 10.000000000000105
    vertex 45.32962913144534 -4.8089830000000005 8.705904774487497
  endloop
endfacet
facet normal 0.9914448613738106 -1.4212120894113723e-16 -0.13052619222005132
  outer loop
    vertex 45.49999999999999 -4.8089830000000005 10.000000000000105
    vertex 45.32962913144534 -1.658148444323639e-15 8.705904774487498
    vertex 45.49999999999999 -2.1620531355040158e-15 10.000000000000107
  endloop
endfacet
facet normal 0.923879532511287 -3.7359802841081494e-17 -0.3826834323650895
  outer loop
    vertex 44.83012701892219 -4.808983 7.5000000000001
    vertex 45.32962913144534 -1.658148444323639e-15 8.705904774487498
    vertex 45.32962913144534 -4.8089830000000005 8.705904774487497
  endloop
endfacet
facet normal 0.923879532511287 -3.7359802841081494e-17 -0.3826834323650895
  outer loop
    vertex 45.32962913144534 -1.658148444323639e-15 8.705904774487498
    vertex 44.83012701892219 -4.808983 7.5000000000001
    vertex 44.83012701892219 -1.1234015580220622e-15 7.500000000000102
  endloop
endfacet
endsolid 16mm-подшиб под-напр-6mm-шпилька-Лев1
