solid Untitled-595d4055
facet normal 0.0 0.0 -1.0
  outer loop
    vertex 20.0 20.0 0.0
    vertex 0.0 0.0 0.0
    vertex 0.0 20.0 0.0
  endloop
endfacet
facet normal 0.0 0.0 -1.0
  outer loop
    vertex 0.0 0.0 0.0
    vertex 20.0 20.0 0.0
    vertex 20.0 0.0 0.0
  endloop
endfacet
facet normal -0.0 -0.0 1.0
  outer loop
    vertex 20.0 0.0 0.6
    vertex 0.0 20.0 0.6
    vertex 0.0 0.0 0.6
  endloop
endfacet
facet normal -0.0 -0.0 1.0
  outer loop
    vertex 0.0 20.0 0.6
    vertex 20.0 0.0 0.6
    vertex 20.0 20.0 0.6
  endloop
endfacet
facet normal -1.0 0.0 0.0
  outer loop
    vertex 0.0 20.0 0.6
    vertex 0.0 0.0 0.0
    vertex 0.0 0.0 0.6
  endloop
endfacet
facet normal -1.0 0.0 0.0
  outer loop
    vertex 0.0 0.0 0.0
    vertex 0.0 20.0 0.6
    vertex 0.0 20.0 0.0
  endloop
endfacet
facet normal -0.0 1.0 0.0
  outer loop
    vertex 0.0 20.0 0.6
    vertex 20.0 20.0 0.0
    vertex 0.0 20.0 0.0
  endloop
endfacet
facet normal -0.0 1.0 0.0
  outer loop
    vertex 20.0 20.0 0.0
    vertex 0.0 20.0 0.6
    vertex 20.0 20.0 0.6
  endloop
endfacet
facet normal 1.0 0.0 0.0
  outer loop
    vertex 20.0 20.0 0.0
    vertex 20.0 0.0 0.6
    vertex 20.0 0.0 0.0
  endloop
endfacet
facet normal 1.0 0.0 0.0
  outer loop
    vertex 20.0 0.0 0.6
    vertex 20.0 20.0 0.0
    vertex 20.0 20.0 0.6
  endloop
endfacet
facet normal -0.0 -1.0 -0.0
  outer loop
    vertex 20.0 0.0 0.6
    vertex 0.0 0.0 0.0
    vertex 20.0 0.0 0.0
  endloop
endfacet
facet normal -0.0 -1.0 -0.0
  outer loop
    vertex 0.0 0.0 0.0
    vertex 20.0 0.0 0.6
    vertex 0.0 0.0 0.6
  endloop
endfacet
endsolid Untitled-595d4055
