solid Untitled-595d47c4
facet normal 0.0 0.0 -1.0
  outer loop
    vertex 50.0 20.0 0.0
    vertex 0.0 0.0 0.0
    vertex 0.0 20.0 0.0
  endloop
endfacet
facet normal 0.0 0.0 -1.0
  outer loop
    vertex 0.0 0.0 0.0
    vertex 50.0 20.0 0.0
    vertex 50.0 0.0 0.0
  endloop
endfacet
facet normal -0.0 -0.0 1.0
  outer loop
    vertex 50.0 0.0 0.4000000000000001
    vertex 0.0 20.0 0.4000000000000001
    vertex 0.0 0.0 0.4000000000000001
  endloop
endfacet
facet normal -0.0 -0.0 1.0
  outer loop
    vertex 0.0 20.0 0.4000000000000001
    vertex 50.0 0.0 0.4000000000000001
    vertex 50.0 20.0 0.4000000000000001
  endloop
endfacet
facet normal -1.0 0.0 0.0
  outer loop
    vertex 0.0 20.0 0.4000000000000001
    vertex 0.0 0.0 0.0
    vertex 0.0 0.0 0.4000000000000001
  endloop
endfacet
facet normal -1.0 0.0 0.0
  outer loop
    vertex 0.0 0.0 0.0
    vertex 0.0 20.0 0.4000000000000001
    vertex 0.0 20.0 0.0
  endloop
endfacet
facet normal -0.0 1.0 0.0
  outer loop
    vertex 0.0 20.0 0.4000000000000001
    vertex 50.0 20.0 0.0
    vertex 0.0 20.0 0.0
  endloop
endfacet
facet normal -0.0 1.0 0.0
  outer loop
    vertex 50.0 20.0 0.0
    vertex 0.0 20.0 0.4000000000000001
    vertex 50.0 20.0 0.4000000000000001
  endloop
endfacet
facet normal 1.0 0.0 0.0
  outer loop
    vertex 50.0 20.0 0.0
    vertex 50.0 0.0 0.4000000000000001
    vertex 50.0 0.0 0.0
  endloop
endfacet
facet normal 1.0 0.0 0.0
  outer loop
    vertex 50.0 0.0 0.4000000000000001
    vertex 50.0 20.0 0.0
    vertex 50.0 20.0 0.4000000000000001
  endloop
endfacet
facet normal -0.0 -1.0 -0.0
  outer loop
    vertex 50.0 0.0 0.4000000000000001
    vertex 0.0 0.0 0.0
    vertex 50.0 0.0 0.0
  endloop
endfacet
facet normal -0.0 -1.0 -0.0
  outer loop
    vertex 0.0 0.0 0.0
    vertex 50.0 0.0 0.4000000000000001
    vertex 0.0 0.0 0.4000000000000001
  endloop
endfacet
endsolid Untitled-595d47c4
