solid Z-Крепление-подшип
facet normal 0.0 0.0 -1.0
  outer loop
    vertex 7.929447639179845 24.272593389687454 5.639932965095795e-15
    vertex 7.000000000000007 10.000000000000009 0.0
    vertex 6.00000000000001 25.07179676972449 5.639932965095795e-15
  endloop
endfacet
facet normal 0.0 0.0 -1.0
  outer loop
    vertex 7.000000000000007 10.000000000000009 0.0
    vertex 7.929447639179845 24.272593389687454 5.639932965095795e-15
    vertex 7.102222521132802 10.776457135307572 0.0
  endloop
endfacet
facet normal 0.0 0.0 -1.0
  outer loop
    vertex 7.102222521132802 10.776457135307572 0.0
    vertex 7.929447639179845 24.272593389687454 5.639932965095795e-15
    vertex 7.401923788646692 11.500000000000009 0.0
  endloop
endfacet
facet normal 0.0 0.0 -1.0
  outer loop
    vertex 7.401923788646692 11.500000000000009 0.0
    vertex 7.929447639179845 24.272593389687454 5.639932965095795e-15
    vertex 7.878679656440365 12.12132034355965 0.0
  endloop
endfacet
facet normal 0.0 0.0 -1.0
  outer loop
    vertex 7.878679656440365 12.12132034355965 0.0
    vertex 7.929447639179845 24.272593389687454 5.639932965095795e-15
    vertex 8.500000000000007 12.598076211353325 0.0
  endloop
endfacet
facet normal 0.0 0.0 -1.0
  outer loop
    vertex 8.500000000000007 12.598076211353325 0.0
    vertex 7.929447639179845 24.272593389687454 5.639932965095795e-15
    vertex 10.00000000000001 24.0 5.639932965095795e-15
  endloop
endfacet
facet normal 0.0 0.0 -1.0
  outer loop
    vertex 8.500000000000007 12.598076211353325 0.0
    vertex 10.00000000000001 24.0 5.639932965095795e-15
    vertex 9.223542864692446 12.897777478867214 0.0
  endloop
endfacet
facet normal 0.0 0.0 -1.0
  outer loop
    vertex 9.223542864692446 12.897777478867214 0.0
    vertex 10.00000000000001 24.0 5.639932965095795e-15
    vertex 10.000000000000009 13.00000000000001 0.0
  endloop
endfacet
facet normal 0.0 0.0 -1.0
  outer loop
    vertex 10.000000000000009 13.00000000000001 0.0
    vertex 10.00000000000001 24.0 5.639932965095795e-15
    vertex 10.776457135307572 12.897777478867212 0.0
  endloop
endfacet
facet normal 0.0 0.0 -1.0
  outer loop
    vertex 10.776457135307572 12.897777478867212 0.0
    vertex 10.00000000000001 24.0 5.639932965095795e-15
    vertex 12.070552360820178 24.272593389687454 5.639932965095795e-15
  endloop
endfacet
facet normal 0.0 0.0 -1.0
  outer loop
    vertex 10.776457135307572 12.897777478867212 0.0
    vertex 12.070552360820178 24.272593389687454 5.639932965095795e-15
    vertex 11.500000000000009 12.598076211353323 0.0
  endloop
endfacet
facet normal 0.0 0.0 -1.0
  outer loop
    vertex 11.500000000000009 12.598076211353323 0.0
    vertex 12.070552360820178 24.272593389687454 5.639932965095795e-15
    vertex 12.12132034355965 12.12132034355965 0.0
  endloop
endfacet
facet normal 0.0 0.0 -1.0
  outer loop
    vertex 12.12132034355965 12.12132034355965 0.0
    vertex 12.070552360820178 24.272593389687454 5.639932965095795e-15
    vertex 14.000000000000014 25.071796769724493 5.639932965095795e-15
  endloop
endfacet
facet normal 0.0 0.0 -1.0
  outer loop
    vertex 12.12132034355965 12.12132034355965 0.0
    vertex 14.000000000000014 25.071796769724493 5.639932965095795e-15
    vertex 12.598076211353325 11.500000000000007 0.0
  endloop
endfacet
facet normal 0.0 0.0 -1.0
  outer loop
    vertex 12.598076211353325 11.500000000000007 0.0
    vertex 14.000000000000014 25.071796769724493 5.639932965095795e-15
    vertex 12.897777478867212 10.77645713530757 0.0
  endloop
endfacet
facet normal 0.0 0.0 -1.0
  outer loop
    vertex 12.897777478867212 10.77645713530757 0.0
    vertex 14.000000000000014 25.071796769724493 5.639932965095795e-15
    vertex 13.000000000000007 10.000000000000009 0.0
  endloop
endfacet
facet normal 0.0 0.0 -1.0
  outer loop
    vertex 1.5921446313684686 52.0733709056835 5.639932965095795e-15
    vertex 2.272593389687459 34.070552360820166 5.639932965095795e-15
    vertex 2.000000000000006 32.0 5.639932965095795e-15
  endloop
endfacet
facet normal 0.0 0.0 -1.0
  outer loop
    vertex 2.272593389687459 34.070552360820166 5.639932965095795e-15
    vertex 1.5921446313684686 52.0733709056835 5.639932965095795e-15
    vertex 7.102222521132804 47.776457135307574 8.459899447643692e-15
  endloop
endfacet
facet normal 0.0 0.0 -1.0
  outer loop
    vertex 7.102222521132804 47.776457135307574 8.459899447643692e-15
    vertex 1.5921446313684686 52.0733709056835 5.639932965095795e-15
    vertex 7.401923788646692 48.500000000000014 8.459899447643692e-15
  endloop
endfacet
facet normal 0.0 0.0 -1.0
  outer loop
    vertex 7.401923788646692 48.500000000000014 8.459899447643692e-15
    vertex 1.5921446313684686 52.0733709056835 5.639932965095795e-15
    vertex 7.878679656440366 49.12132034355965 8.459899447643692e-15
  endloop
endfacet
facet normal 0.0 0.0 -1.0
  outer loop
    vertex 7.878679656440366 49.12132034355965 8.459899447643692e-15
    vertex 1.5921446313684686 52.0733709056835 5.639932965095795e-15
    vertex 8.500000000000007 49.59807621135333 8.459899447643692e-15
  endloop
endfacet
facet normal 0.0 0.0 -1.0
  outer loop
    vertex 8.500000000000007 49.59807621135333 8.459899447643692e-15
    vertex 1.5921446313684686 52.0733709056835 5.639932965095795e-15
    vertex 9.223542864692446 49.89777747886721 8.459899447643692e-15
  endloop
endfacet
facet normal 0.0 0.0 -1.0
  outer loop
    vertex 9.223542864692446 49.89777747886721 8.459899447643692e-15
    vertex 1.5921446313684686 52.0733709056835 5.639932965095795e-15
    vertex 18.407855368631537 52.0733709056835 5.639932965095795e-15
  endloop
endfacet
facet normal 0.0 0.0 -1.0
  outer loop
    vertex 2.272593389687459 34.070552360820166 5.639932965095795e-15
    vertex 7.102222521132804 47.776457135307574 8.459899447643692e-15
    vertex 3.071796769724494 36.0 5.639932965095795e-15
  endloop
endfacet
facet normal 0.0 0.0 -1.0
  outer loop
    vertex 3.071796769724494 36.0 5.639932965095795e-15
    vertex 7.102222521132804 47.776457135307574 8.459899447643692e-15
    vertex 4.343145750507626 37.65685424949238 5.639932965095795e-15
  endloop
endfacet
facet normal 0.0 0.0 -1.0
  outer loop
    vertex 4.343145750507626 37.65685424949238 5.639932965095795e-15
    vertex 7.102222521132804 47.776457135307574 8.459899447643692e-15
    vertex 7.000000000000008 47.00000000000001 8.459899447643692e-15
  endloop
endfacet
facet normal 0.0 0.0 -1.0
  outer loop
    vertex 4.343145750507626 37.65685424949238 5.639932965095795e-15
    vertex 7.000000000000008 47.00000000000001 8.459899447643692e-15
    vertex 6.0000000000000036 38.928203230275514 5.639932965095795e-15
  endloop
endfacet
facet normal 0.0 0.0 -1.0
  outer loop
    vertex 9.223542864692446 49.89777747886721 8.459899447643692e-15
    vertex 18.407855368631537 52.0733709056835 5.639932965095795e-15
    vertex 10.000000000000009 50.00000000000001 8.459899447643692e-15
  endloop
endfacet
facet normal 0.0 0.0 -1.0
  outer loop
    vertex 10.000000000000009 50.00000000000001 8.459899447643692e-15
    vertex 18.407855368631537 52.0733709056835 5.639932965095795e-15
    vertex 10.776457135307572 49.89777747886721 8.459899447643692e-15
  endloop
endfacet
facet normal 0.0 0.0 -1.0
  outer loop
    vertex 10.776457135307572 49.89777747886721 8.459899447643692e-15
    vertex 18.407855368631537 52.0733709056835 5.639932965095795e-15
    vertex 11.500000000000009 49.59807621135333 8.459899447643692e-15
  endloop
endfacet
facet normal 0.0 0.0 -1.0
  outer loop
    vertex 11.500000000000009 49.59807621135333 8.459899447643692e-15
    vertex 18.407855368631537 52.0733709056835 5.639932965095795e-15
    vertex 12.121320343559653 49.12132034355965 8.459899447643692e-15
  endloop
endfacet
facet normal 0.0 0.0 -1.0
  outer loop
    vertex 12.121320343559653 49.12132034355965 8.459899447643692e-15
    vertex 18.407855368631537 52.0733709056835 5.639932965095795e-15
    vertex 12.598076211353327 48.5 8.459899447643692e-15
  endloop
endfacet
facet normal 0.0 0.0 -1.0
  outer loop
    vertex 12.598076211353327 48.5 8.459899447643692e-15
    vertex 18.407855368631537 52.0733709056835 5.639932965095795e-15
    vertex 12.897777478867214 47.776457135307574 8.459899447643692e-15
  endloop
endfacet
facet normal 0.0 0.0 -1.0
  outer loop
    vertex 12.897777478867214 47.776457135307574 8.459899447643692e-15
    vertex 18.407855368631537 52.0733709056835 5.639932965095795e-15
    vertex 13.00000000000001 47.00000000000001 8.459899447643692e-15
  endloop
endfacet
facet normal 0.0 0.0 -1.0
  outer loop
    vertex 13.00000000000001 47.00000000000001 8.459899447643692e-15
    vertex 18.407855368631537 52.0733709056835 5.639932965095795e-15
    vertex 14.000000000000009 38.928203230275514 5.639932965095795e-15
  endloop
endfacet
facet normal 0.0 0.0 -1.0
  outer loop
    vertex 14.000000000000009 38.928203230275514 5.639932965095795e-15
    vertex 18.407855368631537 52.0733709056835 5.639932965095795e-15
    vertex 15.65685424949239 37.65685424949238 5.639932965095795e-15
  endloop
endfacet
facet normal 0.0 0.0 -1.0
  outer loop
    vertex 15.65685424949239 37.65685424949238 5.639932965095795e-15
    vertex 18.407855368631537 52.0733709056835 5.639932965095795e-15
    vertex 16.928203230275518 36.00000000000001 5.639932965095795e-15
  endloop
endfacet
facet normal 0.0 0.0 -1.0
  outer loop
    vertex 16.928203230275518 36.00000000000001 5.639932965095795e-15
    vertex 18.407855368631537 52.0733709056835 5.639932965095795e-15
    vertex 17.72740661031256 34.07055236082017 5.639932965095795e-15
  endloop
endfacet
facet normal 0.0 0.0 -1.0
  outer loop
    vertex 17.72740661031256 34.07055236082017 5.639932965095795e-15
    vertex 18.407855368631537 52.0733709056835 5.639932965095795e-15
    vertex 18.00000000000001 32.0 5.639932965095795e-15
  endloop
endfacet
facet normal 0.0 0.0 -1.0
  outer loop
    vertex 1.5921446313684686 52.0733709056835 5.639932965095795e-15
    vertex 0.0 25.455674622019156 5.639932965095795e-15
    vertex 0.0 39.49329243522261 5.639932965095795e-15
  endloop
endfacet
facet normal 0.0 0.0 -1.0
  outer loop
    vertex 0.0 25.455674622019156 5.639932965095795e-15
    vertex 1.5921446313684686 52.0733709056835 5.639932965095795e-15
    vertex 2.000000000000006 32.0 5.639932965095795e-15
  endloop
endfacet
facet normal 0.0 0.0 -1.0
  outer loop
    vertex 0.0 25.455674622019156 5.639932965095795e-15
    vertex 2.000000000000006 32.0 5.639932965095795e-15
    vertex 3.0 0.0 5.639932965095795e-15
  endloop
endfacet
facet normal 0.0 0.0 -1.0
  outer loop
    vertex 3.0 0.0 5.639932965095795e-15
    vertex 2.000000000000006 32.0 5.639932965095795e-15
    vertex 2.2725933896874615 29.929447639179834 5.639932965095795e-15
  endloop
endfacet
facet normal 0.0 0.0 -1.0
  outer loop
    vertex 3.0 0.0 5.639932965095795e-15
    vertex 2.2725933896874615 29.929447639179834 5.639932965095795e-15
    vertex 3.071796769724498 28.0 5.639932965095795e-15
  endloop
endfacet
facet normal 0.0 0.0 -1.0
  outer loop
    vertex 3.0 0.0 5.639932965095795e-15
    vertex 3.071796769724498 28.0 5.639932965095795e-15
    vertex 7.102222521132802 9.223542864692448 0.0
  endloop
endfacet
facet normal 0.0 0.0 -1.0
  outer loop
    vertex 3.0 0.0 5.639932965095795e-15
    vertex 7.102222521132802 9.223542864692448 0.0
    vertex 7.401923788646692 8.50000000000001 0.0
  endloop
endfacet
facet normal 0.0 0.0 -1.0
  outer loop
    vertex 3.0 0.0 5.639932965095795e-15
    vertex 7.401923788646692 8.50000000000001 0.0
    vertex 7.878679656440365 7.878679656440366 0.0
  endloop
endfacet
facet normal 0.0 0.0 -1.0
  outer loop
    vertex 3.0 0.0 5.639932965095795e-15
    vertex 7.878679656440365 7.878679656440366 0.0
    vertex 16.871729550733832 0.0 5.639932965095795e-15
  endloop
endfacet
facet normal 0.0 0.0 -1.0
  outer loop
    vertex 7.102222521132802 9.223542864692448 0.0
    vertex 3.071796769724498 28.0 5.639932965095795e-15
    vertex 4.34314575050763 26.34314575050762 5.639932965095795e-15
  endloop
endfacet
facet normal 0.0 0.0 -1.0
  outer loop
    vertex 7.102222521132802 9.223542864692448 0.0
    vertex 4.34314575050763 26.34314575050762 5.639932965095795e-15
    vertex 7.000000000000007 10.000000000000009 0.0
  endloop
endfacet
facet normal 0.0 0.0 -1.0
  outer loop
    vertex 7.000000000000007 10.000000000000009 0.0
    vertex 4.34314575050763 26.34314575050762 5.639932965095795e-15
    vertex 6.00000000000001 25.07179676972449 5.639932965095795e-15
  endloop
endfacet
facet normal 0.0 0.0 -1.0
  outer loop
    vertex 16.871729550733832 0.0 5.639932965095795e-15
    vertex 7.878679656440365 7.878679656440366 0.0
    vertex 8.500000000000005 7.401923788646692 0.0
  endloop
endfacet
facet normal 0.0 0.0 -1.0
  outer loop
    vertex 16.871729550733832 0.0 5.639932965095795e-15
    vertex 8.500000000000005 7.401923788646692 0.0
    vertex 9.223542864692444 7.102222521132807 0.0
  endloop
endfacet
facet normal 0.0 0.0 -1.0
  outer loop
    vertex 16.871729550733832 0.0 5.639932965095795e-15
    vertex 9.223542864692444 7.102222521132807 0.0
    vertex 10.000000000000007 7.000000000000012 0.0
  endloop
endfacet
facet normal 0.0 0.0 -1.0
  outer loop
    vertex 16.871729550733832 0.0 5.639932965095795e-15
    vertex 10.000000000000007 7.000000000000012 0.0
    vertex 10.776457135307568 7.102222521132807 0.0
  endloop
endfacet
facet normal 0.0 0.0 -1.0
  outer loop
    vertex 16.871729550733832 0.0 5.639932965095795e-15
    vertex 10.776457135307568 7.102222521132807 0.0
    vertex 11.500000000000007 7.401923788646692 0.0
  endloop
endfacet
facet normal 0.0 0.0 -1.0
  outer loop
    vertex 16.871729550733832 0.0 5.639932965095795e-15
    vertex 11.500000000000007 7.401923788646692 0.0
    vertex 12.121320343559649 7.878679656440365 0.0
  endloop
endfacet
facet normal 0.0 0.0 -1.0
  outer loop
    vertex 16.871729550733832 0.0 5.639932965095795e-15
    vertex 12.121320343559649 7.878679656440365 0.0
    vertex 12.598076211353323 8.500000000000007 0.0
  endloop
endfacet
facet normal 0.0 0.0 -1.0
  outer loop
    vertex 16.871729550733832 0.0 5.639932965095795e-15
    vertex 12.598076211353323 8.500000000000007 0.0
    vertex 12.897777478867212 9.223542864692444 0.0
  endloop
endfacet
facet normal 0.0 0.0 -1.0
  outer loop
    vertex 16.871729550733832 0.0 5.639932965095795e-15
    vertex 12.897777478867212 9.223542864692444 0.0
    vertex 13.000000000000007 10.000000000000009 0.0
  endloop
endfacet
facet normal 0.0 0.0 -1.0
  outer loop
    vertex 16.871729550733832 0.0 5.639932965095795e-15
    vertex 13.000000000000007 10.000000000000009 0.0
    vertex 14.000000000000014 25.071796769724493 5.639932965095795e-15
  endloop
endfacet
facet normal 0.0 0.0 -1.0
  outer loop
    vertex 16.871729550733832 0.0 5.639932965095795e-15
    vertex 14.000000000000014 25.071796769724493 5.639932965095795e-15
    vertex 15.65685424949239 26.34314575050762 5.639932965095795e-15
  endloop
endfacet
facet normal 0.0 0.0 -1.0
  outer loop
    vertex 16.871729550733832 0.0 5.639932965095795e-15
    vertex 15.65685424949239 26.34314575050762 5.639932965095795e-15
    vertex 16.92820323027552 28.000000000000004 5.639932965095795e-15
  endloop
endfacet
facet normal 0.0 0.0 -1.0
  outer loop
    vertex 16.871729550733832 0.0 5.639932965095795e-15
    vertex 16.92820323027552 28.000000000000004 5.639932965095795e-15
    vertex 20.000000000000004 25.45567462201915 5.639932965095795e-15
  endloop
endfacet
facet normal 0.0 0.0 -1.0
  outer loop
    vertex 20.000000000000004 25.45567462201915 5.639932965095795e-15
    vertex 16.92820323027552 28.000000000000004 5.639932965095795e-15
    vertex 17.72740661031256 29.929447639179838 5.639932965095795e-15
  endloop
endfacet
facet normal 0.0 0.0 -1.0
  outer loop
    vertex 20.000000000000004 25.45567462201915 5.639932965095795e-15
    vertex 17.72740661031256 29.929447639179838 5.639932965095795e-15
    vertex 18.00000000000001 32.0 5.639932965095795e-15
  endloop
endfacet
facet normal 0.0 0.0 -1.0
  outer loop
    vertex 20.000000000000004 25.45567462201915 5.639932965095795e-15
    vertex 18.00000000000001 32.0 5.639932965095795e-15
    vertex 18.407855368631537 52.0733709056835 5.639932965095795e-15
  endloop
endfacet
facet normal 0.0 0.0 -1.0
  outer loop
    vertex 20.000000000000004 25.45567462201915 5.639932965095795e-15
    vertex 18.407855368631537 52.0733709056835 5.639932965095795e-15
    vertex 20.000000000000007 39.49329243522261 5.639932965095795e-15
  endloop
endfacet
facet normal 0.0 0.0 -1.0
  outer loop
    vertex 7.000000000000008 47.00000000000001 8.459899447643692e-15
    vertex 7.929447639179835 39.72740661031255 5.639932965095795e-15
    vertex 6.0000000000000036 38.928203230275514 5.639932965095795e-15
  endloop
endfacet
facet normal 0.0 0.0 -1.0
  outer loop
    vertex 7.929447639179835 39.72740661031255 5.639932965095795e-15
    vertex 7.000000000000008 47.00000000000001 8.459899447643692e-15
    vertex 7.102222521132804 46.22354286469245 8.459899447643692e-15
  endloop
endfacet
facet normal 0.0 0.0 -1.0
  outer loop
    vertex 7.929447639179835 39.72740661031255 5.639932965095795e-15
    vertex 7.102222521132804 46.22354286469245 8.459899447643692e-15
    vertex 7.401923788646692 45.50000000000001 8.459899447643692e-15
  endloop
endfacet
facet normal 0.0 0.0 -1.0
  outer loop
    vertex 7.929447639179835 39.72740661031255 5.639932965095795e-15
    vertex 7.401923788646692 45.50000000000001 8.459899447643692e-15
    vertex 7.878679656440366 44.87867965644037 8.459899447643692e-15
  endloop
endfacet
facet normal 0.0 0.0 -1.0
  outer loop
    vertex 7.929447639179835 39.72740661031255 5.639932965095795e-15
    vertex 7.878679656440366 44.87867965644037 8.459899447643692e-15
    vertex 8.500000000000007 44.4019237886467 8.459899447643692e-15
  endloop
endfacet
facet normal 0.0 0.0 -1.0
  outer loop
    vertex 7.929447639179835 39.72740661031255 5.639932965095795e-15
    vertex 8.500000000000007 44.4019237886467 8.459899447643692e-15
    vertex 10.000000000000009 40.00000000000001 5.639932965095795e-15
  endloop
endfacet
facet normal 0.0 0.0 -1.0
  outer loop
    vertex 10.000000000000009 40.00000000000001 5.639932965095795e-15
    vertex 8.500000000000007 44.4019237886467 8.459899447643692e-15
    vertex 9.223542864692444 44.10222252113281 8.459899447643692e-15
  endloop
endfacet
facet normal 0.0 0.0 -1.0
  outer loop
    vertex 10.000000000000009 40.00000000000001 5.639932965095795e-15
    vertex 9.223542864692444 44.10222252113281 8.459899447643692e-15
    vertex 10.000000000000007 44.00000000000001 8.459899447643692e-15
  endloop
endfacet
facet normal 0.0 0.0 -1.0
  outer loop
    vertex 10.000000000000009 40.00000000000001 5.639932965095795e-15
    vertex 10.000000000000007 44.00000000000001 8.459899447643692e-15
    vertex 10.776457135307568 44.10222252113281 8.459899447643692e-15
  endloop
endfacet
facet normal 0.0 0.0 -1.0
  outer loop
    vertex 10.000000000000009 40.00000000000001 5.639932965095795e-15
    vertex 10.776457135307568 44.10222252113281 8.459899447643692e-15
    vertex 12.070552360820175 39.72740661031255 5.639932965095795e-15
  endloop
endfacet
facet normal 0.0 0.0 -1.0
  outer loop
    vertex 12.070552360820175 39.72740661031255 5.639932965095795e-15
    vertex 10.776457135307568 44.10222252113281 8.459899447643692e-15
    vertex 11.500000000000007 44.40192378864669 8.459899447643692e-15
  endloop
endfacet
facet normal 0.0 0.0 -1.0
  outer loop
    vertex 12.070552360820175 39.72740661031255 5.639932965095795e-15
    vertex 11.500000000000007 44.40192378864669 8.459899447643692e-15
    vertex 12.12132034355965 44.87867965644037 8.459899447643692e-15
  endloop
endfacet
facet normal 0.0 0.0 -1.0
  outer loop
    vertex 12.070552360820175 39.72740661031255 5.639932965095795e-15
    vertex 12.12132034355965 44.87867965644037 8.459899447643692e-15
    vertex 14.000000000000009 38.928203230275514 5.639932965095795e-15
  endloop
endfacet
facet normal 0.0 0.0 -1.0
  outer loop
    vertex 14.000000000000009 38.928203230275514 5.639932965095795e-15
    vertex 12.12132034355965 44.87867965644037 8.459899447643692e-15
    vertex 12.598076211353325 45.50000000000001 8.459899447643692e-15
  endloop
endfacet
facet normal 0.0 0.0 -1.0
  outer loop
    vertex 14.000000000000009 38.928203230275514 5.639932965095795e-15
    vertex 12.598076211353325 45.50000000000001 8.459899447643692e-15
    vertex 12.897777478867214 46.22354286469245 8.459899447643692e-15
  endloop
endfacet
facet normal 0.0 0.0 -1.0
  outer loop
    vertex 14.000000000000009 38.928203230275514 5.639932965095795e-15
    vertex 12.897777478867214 46.22354286469245 8.459899447643692e-15
    vertex 13.00000000000001 47.00000000000001 8.459899447643692e-15
  endloop
endfacet
facet normal 0.9920861288177862 0.12555920120540362 1.8679339296135633e-16
  outer loop
    vertex 18.407855368631537 52.0733709056835 5.639932965095795e-15
    vertex 20.000000000000007 39.49329243522261 3.0000000000000058
    vertex 20.000000000000007 39.49329243522261 5.639932965095795e-15
  endloop
endfacet
facet normal 0.9920861288177862 0.12555920120540362 1.8679339296135633e-16
  outer loop
    vertex 20.000000000000007 39.49329243522261 3.0000000000000058
    vertex 18.407855368631537 52.0733709056835 5.639932965095795e-15
    vertex 18.644491576944937 50.203627409468446 3.0000000000000058
  endloop
endfacet
facet normal -1.0 -0.0 -0.0
  outer loop
    vertex 0.0 39.49329243522261 3.0000000000000058
    vertex 0.0 25.455674622019156 5.639932965095795e-15
    vertex 0.0 25.455674622019156 3.0000000000000058
  endloop
endfacet
facet normal -1.0 -0.0 -0.0
  outer loop
    vertex 0.0 25.455674622019156 5.639932965095795e-15
    vertex 0.0 39.49329243522261 3.0000000000000058
    vertex 0.0 39.49329243522261 5.639932965095795e-15
  endloop
endfacet
facet normal -0.9931269757349357 -0.11704191585744278 0.0
  outer loop
    vertex 2.7228559516095636 2.3516295730853605 3.0000000000000058
    vertex 0.0 25.455674622019156 5.639932965095795e-15
    vertex 3.0 0.0 5.639932965095795e-15
  endloop
endfacet
facet normal -0.9931269757349357 -0.11704191585744278 0.0
  outer loop
    vertex 0.0 25.455674622019156 5.639932965095795e-15
    vertex 2.7228559516095636 2.3516295730853605 3.0000000000000058
    vertex 0.0 25.455674622019156 3.0000000000000058
  endloop
endfacet
facet normal 1.0 -2.008863982530927e-16 0.0
  outer loop
    vertex 20.000000000000007 39.49329243522261 5.639932965095795e-15
    vertex 20.000000000000004 25.45567462201915 3.0000000000000058
    vertex 20.000000000000004 25.45567462201915 5.639932965095795e-15
  endloop
endfacet
facet normal 1.0 -2.008863982530927e-16 0.0
  outer loop
    vertex 20.000000000000004 25.45567462201915 3.0000000000000058
    vertex 20.000000000000007 39.49329243522261 5.639932965095795e-15
    vertex 20.000000000000007 39.49329243522261 3.0000000000000058
  endloop
endfacet
facet normal 0.3826834323650908 -0.9238795325112865 0.0
  outer loop
    vertex 9.223542864692446 12.897777478867214 3.0
    vertex 8.500000000000007 12.598076211353325 0.0
    vertex 9.223542864692446 12.897777478867214 0.0
  endloop
endfacet
facet normal 0.3826834323650908 -0.9238795325112865 0.0
  outer loop
    vertex 8.500000000000007 12.598076211353325 0.0
    vertex 9.223542864692446 12.897777478867214 3.0
    vertex 8.500000000000007 12.598076211353325 3.0
  endloop
endfacet
facet normal 0.13052619222005168 -0.9914448613738105 0.0
  outer loop
    vertex 10.000000000000009 13.00000000000001 3.0
    vertex 9.223542864692446 12.897777478867214 0.0
    vertex 10.000000000000009 13.00000000000001 0.0
  endloop
endfacet
facet normal 0.13052619222005168 -0.9914448613738105 0.0
  outer loop
    vertex 9.223542864692446 12.897777478867214 0.0
    vertex 10.000000000000009 13.00000000000001 3.0
    vertex 9.223542864692446 12.897777478867214 3.0
  endloop
endfacet
facet normal -0.130526192220055 -0.99144486137381 -0.0
  outer loop
    vertex 10.776457135307572 12.897777478867212 3.0
    vertex 10.000000000000009 13.00000000000001 0.0
    vertex 10.776457135307572 12.897777478867212 0.0
  endloop
endfacet
facet normal -0.130526192220055 -0.99144486137381 -0.0
  outer loop
    vertex 10.000000000000009 13.00000000000001 0.0
    vertex 10.776457135307572 12.897777478867212 3.0
    vertex 10.000000000000009 13.00000000000001 3.0
  endloop
endfacet
facet normal -0.38268343236509045 -0.9238795325112866 -0.0
  outer loop
    vertex 11.500000000000009 12.598076211353323 3.0
    vertex 10.776457135307572 12.897777478867212 0.0
    vertex 11.500000000000009 12.598076211353323 0.0
  endloop
endfacet
facet normal -0.38268343236509045 -0.9238795325112866 -0.0
  outer loop
    vertex 10.776457135307572 12.897777478867212 0.0
    vertex 11.500000000000009 12.598076211353323 3.0
    vertex 10.776457135307572 12.897777478867212 3.0
  endloop
endfacet
facet normal -0.6087614290087202 -0.7933533402912355 -0.0
  outer loop
    vertex 12.12132034355965 12.12132034355965 3.0
    vertex 11.500000000000009 12.598076211353323 0.0
    vertex 12.12132034355965 12.12132034355965 0.0
  endloop
endfacet
facet normal -0.6087614290087202 -0.7933533402912355 -0.0
  outer loop
    vertex 11.500000000000009 12.598076211353323 0.0
    vertex 12.12132034355965 12.12132034355965 3.0
    vertex 11.500000000000009 12.598076211353323 3.0
  endloop
endfacet
facet normal -0.7933533402912354 -0.6087614290087205 -0.0
  outer loop
    vertex 12.12132034355965 12.12132034355965 3.0
    vertex 12.598076211353325 11.500000000000007 0.0
    vertex 12.598076211353325 11.500000000000007 3.0
  endloop
endfacet
facet normal -0.7933533402912354 -0.6087614290087205 -0.0
  outer loop
    vertex 12.598076211353325 11.500000000000007 0.0
    vertex 12.12132034355965 12.12132034355965 3.0
    vertex 12.12132034355965 12.12132034355965 0.0
  endloop
endfacet
facet normal -0.9238795325112874 -0.3826834323650882 -0.0
  outer loop
    vertex 12.598076211353325 11.500000000000007 3.0
    vertex 12.897777478867212 10.77645713530757 0.0
    vertex 12.897777478867212 10.77645713530757 3.0
  endloop
endfacet
facet normal -0.9238795325112874 -0.3826834323650882 -0.0
  outer loop
    vertex 12.897777478867212 10.77645713530757 0.0
    vertex 12.598076211353325 11.500000000000007 3.0
    vertex 12.598076211353325 11.500000000000007 0.0
  endloop
endfacet
facet normal -0.9914448613738104 -0.1305261922200519 -0.0
  outer loop
    vertex 12.897777478867212 10.77645713530757 3.0
    vertex 13.000000000000007 10.000000000000009 0.0
    vertex 13.000000000000007 10.000000000000009 3.0
  endloop
endfacet
facet normal -0.9914448613738104 -0.1305261922200519 -0.0
  outer loop
    vertex 13.000000000000007 10.000000000000009 0.0
    vertex 12.897777478867212 10.77645713530757 3.0
    vertex 12.897777478867212 10.77645713530757 0.0
  endloop
endfacet
facet normal -0.9914448613738105 0.13052619222005146 0.0
  outer loop
    vertex 13.000000000000007 10.000000000000009 3.0
    vertex 12.897777478867212 9.223542864692444 0.0
    vertex 12.897777478867212 9.223542864692444 3.0
  endloop
endfacet
facet normal -0.9914448613738105 0.13052619222005146 0.0
  outer loop
    vertex 12.897777478867212 9.223542864692444 0.0
    vertex 13.000000000000007 10.000000000000009 3.0
    vertex 13.000000000000007 10.000000000000009 0.0
  endloop
endfacet
facet normal -0.9238795325112867 0.3826834323650898 0.0
  outer loop
    vertex 12.897777478867212 9.223542864692444 3.0
    vertex 12.598076211353323 8.500000000000007 0.0
    vertex 12.598076211353323 8.500000000000007 3.0
  endloop
endfacet
facet normal -0.9238795325112867 0.3826834323650898 0.0
  outer loop
    vertex 12.598076211353323 8.500000000000007 0.0
    vertex 12.897777478867212 9.223542864692444 3.0
    vertex 12.897777478867212 9.223542864692444 0.0
  endloop
endfacet
facet normal -0.7933533402912346 0.6087614290087213 0.0
  outer loop
    vertex 12.598076211353323 8.500000000000007 3.0
    vertex 12.121320343559649 7.878679656440365 0.0
    vertex 12.121320343559649 7.878679656440365 3.0
  endloop
endfacet
facet normal -0.7933533402912346 0.6087614290087213 0.0
  outer loop
    vertex 12.121320343559649 7.878679656440365 0.0
    vertex 12.598076211353323 8.500000000000007 3.0
    vertex 12.598076211353323 8.500000000000007 0.0
  endloop
endfacet
facet normal -0.6087614290087202 0.7933533402912355 0.0
  outer loop
    vertex 11.500000000000007 7.401923788646692 3.0
    vertex 12.121320343559649 7.878679656440365 0.0
    vertex 11.500000000000007 7.401923788646692 0.0
  endloop
endfacet
facet normal -0.6087614290087202 0.7933533402912355 0.0
  outer loop
    vertex 12.121320343559649 7.878679656440365 0.0
    vertex 11.500000000000007 7.401923788646692 3.0
    vertex 12.121320343559649 7.878679656440365 3.0
  endloop
endfacet
facet normal -0.3826834323650845 0.923879532511289 0.0
  outer loop
    vertex 10.776457135307568 7.102222521132807 3.0
    vertex 11.500000000000007 7.401923788646692 0.0
    vertex 10.776457135307568 7.102222521132807 0.0
  endloop
endfacet
facet normal -0.3826834323650845 0.923879532511289 0.0
  outer loop
    vertex 11.500000000000007 7.401923788646692 0.0
    vertex 10.776457135307568 7.102222521132807 3.0
    vertex 11.500000000000007 7.401923788646692 3.0
  endloop
endfacet
facet normal -0.1305261922200519 0.9914448613738104 0.0
  outer loop
    vertex 10.000000000000007 7.000000000000012 3.0
    vertex 10.776457135307568 7.102222521132807 0.0
    vertex 10.000000000000007 7.000000000000012 0.0
  endloop
endfacet
facet normal -0.1305261922200519 0.9914448613738104 0.0
  outer loop
    vertex 10.776457135307568 7.102222521132807 0.0
    vertex 10.000000000000007 7.000000000000012 3.0
    vertex 10.776457135307568 7.102222521132807 3.0
  endloop
endfacet
facet normal 0.13052619222005168 0.9914448613738105 0.0
  outer loop
    vertex 9.223542864692444 7.102222521132807 3.0
    vertex 10.000000000000007 7.000000000000012 0.0
    vertex 9.223542864692444 7.102222521132807 0.0
  endloop
endfacet
facet normal 0.13052619222005168 0.9914448613738105 0.0
  outer loop
    vertex 10.000000000000007 7.000000000000012 0.0
    vertex 9.223542864692444 7.102222521132807 3.0
    vertex 10.000000000000007 7.000000000000012 3.0
  endloop
endfacet
facet normal 0.3826834323650845 0.923879532511289 0.0
  outer loop
    vertex 8.500000000000005 7.401923788646692 3.0
    vertex 9.223542864692444 7.102222521132807 0.0
    vertex 8.500000000000005 7.401923788646692 0.0
  endloop
endfacet
facet normal 0.3826834323650845 0.923879532511289 0.0
  outer loop
    vertex 9.223542864692444 7.102222521132807 0.0
    vertex 8.500000000000005 7.401923788646692 3.0
    vertex 9.223542864692444 7.102222521132807 3.0
  endloop
endfacet
facet normal 0.6087614290087222 0.793353340291234 0.0
  outer loop
    vertex 7.878679656440365 7.878679656440366 3.0
    vertex 8.500000000000005 7.401923788646692 0.0
    vertex 7.878679656440365 7.878679656440366 0.0
  endloop
endfacet
facet normal 0.6087614290087222 0.793353340291234 0.0
  outer loop
    vertex 8.500000000000005 7.401923788646692 0.0
    vertex 7.878679656440365 7.878679656440366 3.0
    vertex 8.500000000000005 7.401923788646692 3.0
  endloop
endfacet
facet normal 0.7933533402912363 0.6087614290087193 0.0
  outer loop
    vertex 7.401923788646692 8.50000000000001 0.0
    vertex 7.878679656440365 7.878679656440366 3.0
    vertex 7.878679656440365 7.878679656440366 0.0
  endloop
endfacet
facet normal 0.7933533402912363 0.6087614290087193 0.0
  outer loop
    vertex 7.878679656440365 7.878679656440366 3.0
    vertex 7.401923788646692 8.50000000000001 0.0
    vertex 7.401923788646692 8.50000000000001 3.0
  endloop
endfacet
facet normal 0.9238795325112862 0.38268343236509134 0.0
  outer loop
    vertex 7.102222521132802 9.223542864692448 0.0
    vertex 7.401923788646692 8.50000000000001 3.0
    vertex 7.401923788646692 8.50000000000001 0.0
  endloop
endfacet
facet normal 0.9238795325112862 0.38268343236509134 0.0
  outer loop
    vertex 7.401923788646692 8.50000000000001 3.0
    vertex 7.102222521132802 9.223542864692448 0.0
    vertex 7.102222521132802 9.223542864692448 3.0
  endloop
endfacet
facet normal 0.9914448613738104 0.1305261922200519 0.0
  outer loop
    vertex 7.000000000000007 10.000000000000009 0.0
    vertex 7.102222521132802 9.223542864692448 3.0
    vertex 7.102222521132802 9.223542864692448 0.0
  endloop
endfacet
facet normal 0.9914448613738104 0.1305261922200519 0.0
  outer loop
    vertex 7.102222521132802 9.223542864692448 3.0
    vertex 7.000000000000007 10.000000000000009 0.0
    vertex 7.000000000000007 10.000000000000009 3.0
  endloop
endfacet
facet normal 0.9914448613738105 -0.13052619222005168 0.0
  outer loop
    vertex 7.102222521132802 10.776457135307572 0.0
    vertex 7.000000000000007 10.000000000000009 3.0
    vertex 7.000000000000007 10.000000000000009 0.0
  endloop
endfacet
facet normal 0.9914448613738105 -0.13052619222005168 0.0
  outer loop
    vertex 7.000000000000007 10.000000000000009 3.0
    vertex 7.102222521132802 10.776457135307572 0.0
    vertex 7.102222521132802 10.776457135307572 3.0
  endloop
endfacet
facet normal 0.9238795325112862 -0.38268343236509134 0.0
  outer loop
    vertex 7.401923788646692 11.500000000000009 0.0
    vertex 7.102222521132802 10.776457135307572 3.0
    vertex 7.102222521132802 10.776457135307572 0.0
  endloop
endfacet
facet normal 0.9238795325112862 -0.38268343236509134 0.0
  outer loop
    vertex 7.102222521132802 10.776457135307572 3.0
    vertex 7.401923788646692 11.500000000000009 0.0
    vertex 7.401923788646692 11.500000000000009 3.0
  endloop
endfacet
facet normal 0.7933533402912355 -0.6087614290087202 0.0
  outer loop
    vertex 7.878679656440365 12.12132034355965 0.0
    vertex 7.401923788646692 11.500000000000009 3.0
    vertex 7.401923788646692 11.500000000000009 0.0
  endloop
endfacet
facet normal 0.7933533402912355 -0.6087614290087202 0.0
  outer loop
    vertex 7.401923788646692 11.500000000000009 3.0
    vertex 7.878679656440365 12.12132034355965 0.0
    vertex 7.878679656440365 12.12132034355965 3.0
  endloop
endfacet
facet normal 0.6087614290087213 -0.7933533402912346 0.0
  outer loop
    vertex 8.500000000000007 12.598076211353325 3.0
    vertex 7.878679656440365 12.12132034355965 0.0
    vertex 8.500000000000007 12.598076211353325 0.0
  endloop
endfacet
facet normal 0.6087614290087213 -0.7933533402912346 0.0
  outer loop
    vertex 7.878679656440365 12.12132034355965 0.0
    vertex 8.500000000000007 12.598076211353325 3.0
    vertex 7.878679656440365 12.12132034355965 3.0
  endloop
endfacet
facet normal 0.9238795325112873 -0.3826834323650885 0.0
  outer loop
    vertex 7.401923788646692 48.500000000000014 8.459899447643692e-15
    vertex 7.102222521132804 47.776457135307574 3.0000000000000084
    vertex 7.102222521132804 47.776457135307574 8.459899447643692e-15
  endloop
endfacet
facet normal 0.9238795325112873 -0.3826834323650885 0.0
  outer loop
    vertex 7.102222521132804 47.776457135307574 3.0000000000000084
    vertex 7.401923788646692 48.500000000000014 8.459899447643692e-15
    vertex 7.401923788646692 48.500000000000014 3.0000000000000084
  endloop
endfacet
facet normal 0.7933533402912335 -0.6087614290087231 0.0
  outer loop
    vertex 7.878679656440366 49.12132034355965 8.459899447643692e-15
    vertex 7.401923788646692 48.500000000000014 3.0000000000000084
    vertex 7.401923788646692 48.500000000000014 8.459899447643692e-15
  endloop
endfacet
facet normal 0.7933533402912335 -0.6087614290087231 0.0
  outer loop
    vertex 7.401923788646692 48.500000000000014 3.0000000000000084
    vertex 7.878679656440366 49.12132034355965 8.459899447643692e-15
    vertex 7.878679656440366 49.12132034355965 3.0000000000000084
  endloop
endfacet
facet normal 0.6087614290087233 -0.7933533402912332 0.0
  outer loop
    vertex 8.500000000000007 49.59807621135333 3.0000000000000084
    vertex 7.878679656440366 49.12132034355965 8.459899447643692e-15
    vertex 8.500000000000007 49.59807621135333 8.459899447643692e-15
  endloop
endfacet
facet normal 0.6087614290087233 -0.7933533402912332 0.0
  outer loop
    vertex 7.878679656440366 49.12132034355965 8.459899447643692e-15
    vertex 8.500000000000007 49.59807621135333 3.0000000000000084
    vertex 7.878679656440366 49.12132034355965 3.0000000000000084
  endloop
endfacet
facet normal 0.38268343236508146 -0.9238795325112902 0.0
  outer loop
    vertex 9.223542864692446 49.89777747886721 3.0000000000000084
    vertex 8.500000000000007 49.59807621135333 8.459899447643692e-15
    vertex 9.223542864692446 49.89777747886721 8.459899447643692e-15
  endloop
endfacet
facet normal 0.38268343236508146 -0.9238795325112902 0.0
  outer loop
    vertex 8.500000000000007 49.59807621135333 8.459899447643692e-15
    vertex 9.223542864692446 49.89777747886721 3.0000000000000084
    vertex 8.500000000000007 49.59807621135333 3.0000000000000084
  endloop
endfacet
facet normal 0.13052619222005876 -0.9914448613738096 0.0
  outer loop
    vertex 10.000000000000009 50.00000000000001 3.0000000000000084
    vertex 9.223542864692446 49.89777747886721 8.459899447643692e-15
    vertex 10.000000000000009 50.00000000000001 8.459899447643692e-15
  endloop
endfacet
facet normal 0.13052619222005876 -0.9914448613738096 0.0
  outer loop
    vertex 9.223542864692446 49.89777747886721 8.459899447643692e-15
    vertex 10.000000000000009 50.00000000000001 3.0000000000000084
    vertex 9.223542864692446 49.89777747886721 3.0000000000000084
  endloop
endfacet
facet normal -0.13052619222005854 -0.9914448613738096 -0.0
  outer loop
    vertex 10.776457135307572 49.89777747886721 3.0000000000000084
    vertex 10.000000000000009 50.00000000000001 8.459899447643692e-15
    vertex 10.776457135307572 49.89777747886721 8.459899447643692e-15
  endloop
endfacet
facet normal -0.13052619222005854 -0.9914448613738096 -0.0
  outer loop
    vertex 10.000000000000009 50.00000000000001 8.459899447643692e-15
    vertex 10.776457135307572 49.89777747886721 3.0000000000000084
    vertex 10.000000000000009 50.00000000000001 3.0000000000000084
  endloop
endfacet
facet normal -0.3826834323650828 -0.9238795325112898 -0.0
  outer loop
    vertex 11.500000000000009 49.59807621135333 3.0000000000000084
    vertex 10.776457135307572 49.89777747886721 8.459899447643692e-15
    vertex 11.500000000000009 49.59807621135333 8.459899447643692e-15
  endloop
endfacet
facet normal -0.3826834323650828 -0.9238795325112898 -0.0
  outer loop
    vertex 10.776457135307572 49.89777747886721 8.459899447643692e-15
    vertex 11.500000000000009 49.59807621135333 3.0000000000000084
    vertex 10.776457135307572 49.89777747886721 3.0000000000000084
  endloop
endfacet
facet normal -0.6087614290087217 -0.7933533402912346 -0.0
  outer loop
    vertex 12.121320343559653 49.12132034355965 3.0000000000000084
    vertex 11.500000000000009 49.59807621135333 8.459899447643692e-15
    vertex 12.121320343559653 49.12132034355965 8.459899447643692e-15
  endloop
endfacet
facet normal -0.6087614290087217 -0.7933533402912346 -0.0
  outer loop
    vertex 11.500000000000009 49.59807621135333 8.459899447643692e-15
    vertex 12.121320343559653 49.12132034355965 3.0000000000000084
    vertex 11.500000000000009 49.59807621135333 3.0000000000000084
  endloop
endfacet
facet normal -0.7933533402912388 -0.6087614290087162 -0.0
  outer loop
    vertex 12.121320343559653 49.12132034355965 3.0000000000000084
    vertex 12.598076211353327 48.5 8.459899447643692e-15
    vertex 12.598076211353327 48.5 3.0000000000000084
  endloop
endfacet
facet normal -0.7933533402912388 -0.6087614290087162 -0.0
  outer loop
    vertex 12.598076211353327 48.5 8.459899447643692e-15
    vertex 12.121320343559653 49.12132034355965 3.0000000000000084
    vertex 12.121320343559653 49.12132034355965 8.459899447643692e-15
  endloop
endfacet
facet normal -0.9238795325112853 -0.38268343236509367 -0.0
  outer loop
    vertex 12.598076211353327 48.5 3.0000000000000084
    vertex 12.897777478867214 47.776457135307574 8.459899447643692e-15
    vertex 12.897777478867214 47.776457135307574 3.0000000000000084
  endloop
endfacet
facet normal -0.9238795325112853 -0.38268343236509367 -0.0
  outer loop
    vertex 12.897777478867214 47.776457135307574 8.459899447643692e-15
    vertex 12.598076211353327 48.5 3.0000000000000084
    vertex 12.598076211353327 48.5 8.459899447643692e-15
  endloop
endfacet
facet normal -0.9914448613738105 -0.13052619222005074 -0.0
  outer loop
    vertex 12.897777478867214 47.776457135307574 3.0000000000000084
    vertex 13.00000000000001 47.00000000000001 8.459899447643692e-15
    vertex 13.00000000000001 47.00000000000001 3.0000000000000084
  endloop
endfacet
facet normal -0.9914448613738105 -0.13052619222005074 -0.0
  outer loop
    vertex 13.00000000000001 47.00000000000001 8.459899447643692e-15
    vertex 12.897777478867214 47.776457135307574 3.0000000000000084
    vertex 12.897777478867214 47.776457135307574 8.459899447643692e-15
  endloop
endfacet
facet normal -0.9914448613738104 0.13052619222005263 0.0
  outer loop
    vertex 13.00000000000001 47.00000000000001 3.0000000000000084
    vertex 12.897777478867214 46.22354286469245 8.459899447643692e-15
    vertex 12.897777478867214 46.22354286469245 3.0000000000000084
  endloop
endfacet
facet normal -0.9914448613738104 0.13052619222005263 0.0
  outer loop
    vertex 12.897777478867214 46.22354286469245 8.459899447643692e-15
    vertex 13.00000000000001 47.00000000000001 3.0000000000000084
    vertex 13.00000000000001 47.00000000000001 8.459899447643692e-15
  endloop
endfacet
facet normal -0.9238795325112867 0.38268343236509006 0.0
  outer loop
    vertex 12.897777478867214 46.22354286469245 3.0000000000000084
    vertex 12.598076211353325 45.50000000000001 8.459899447643692e-15
    vertex 12.598076211353325 45.50000000000001 3.0000000000000084
  endloop
endfacet
facet normal -0.9238795325112867 0.38268343236509006 0.0
  outer loop
    vertex 12.598076211353325 45.50000000000001 8.459899447643692e-15
    vertex 12.897777478867214 46.22354286469245 3.0000000000000084
    vertex 12.897777478867214 46.22354286469245 8.459899447643692e-15
  endloop
endfacet
facet normal -0.7933533402912335 0.6087614290087231 0.0
  outer loop
    vertex 12.598076211353325 45.50000000000001 3.0000000000000084
    vertex 12.12132034355965 44.87867965644037 8.459899447643692e-15
    vertex 12.12132034355965 44.87867965644037 3.0000000000000084
  endloop
endfacet
facet normal -0.7933533402912335 0.6087614290087231 0.0
  outer loop
    vertex 12.12132034355965 44.87867965644037 8.459899447643692e-15
    vertex 12.598076211353325 45.50000000000001 3.0000000000000084
    vertex 12.598076211353325 45.50000000000001 8.459899447643692e-15
  endloop
endfacet
facet normal -0.6087614290087217 0.7933533402912346 0.0
  outer loop
    vertex 11.500000000000007 44.40192378864669 3.0000000000000084
    vertex 12.12132034355965 44.87867965644037 8.459899447643692e-15
    vertex 11.500000000000007 44.40192378864669 8.459899447643692e-15
  endloop
endfacet
facet normal -0.6087614290087217 0.7933533402912346 0.0
  outer loop
    vertex 12.12132034355965 44.87867965644037 8.459899447643692e-15
    vertex 11.500000000000007 44.40192378864669 3.0000000000000084
    vertex 12.12132034355965 44.87867965644037 3.0000000000000084
  endloop
endfacet
facet normal -0.38268343236508146 0.9238795325112902 0.0
  outer loop
    vertex 10.776457135307568 44.10222252113281 3.0000000000000084
    vertex 11.500000000000007 44.40192378864669 8.459899447643692e-15
    vertex 10.776457135307568 44.10222252113281 8.459899447643692e-15
  endloop
endfacet
facet normal -0.38268343236508146 0.9238795325112902 0.0
  outer loop
    vertex 11.500000000000007 44.40192378864669 8.459899447643692e-15
    vertex 10.776457135307568 44.10222252113281 3.0000000000000084
    vertex 11.500000000000007 44.40192378864669 3.0000000000000084
  endloop
endfacet
facet normal -0.130526192220059 0.9914448613738095 0.0
  outer loop
    vertex 10.000000000000007 44.00000000000001 3.0000000000000084
    vertex 10.776457135307568 44.10222252113281 8.459899447643692e-15
    vertex 10.000000000000007 44.00000000000001 8.459899447643692e-15
  endloop
endfacet
facet normal -0.130526192220059 0.9914448613738095 0.0
  outer loop
    vertex 10.776457135307568 44.10222252113281 8.459899447643692e-15
    vertex 10.000000000000007 44.00000000000001 3.0000000000000084
    vertex 10.776457135307568 44.10222252113281 3.0000000000000084
  endloop
endfacet
facet normal 0.13052619222005876 0.9914448613738096 0.0
  outer loop
    vertex 9.223542864692444 44.10222252113281 3.0000000000000084
    vertex 10.000000000000007 44.00000000000001 8.459899447643692e-15
    vertex 9.223542864692444 44.10222252113281 8.459899447643692e-15
  endloop
endfacet
facet normal 0.13052619222005876 0.9914448613738096 0.0
  outer loop
    vertex 10.000000000000007 44.00000000000001 8.459899447643692e-15
    vertex 9.223542864692444 44.10222252113281 3.0000000000000084
    vertex 10.000000000000007 44.00000000000001 3.0000000000000084
  endloop
endfacet
facet normal 0.3826834323650882 0.9238795325112874 0.0
  outer loop
    vertex 8.500000000000007 44.4019237886467 3.0000000000000084
    vertex 9.223542864692444 44.10222252113281 8.459899447643692e-15
    vertex 8.500000000000007 44.4019237886467 8.459899447643692e-15
  endloop
endfacet
facet normal 0.3826834323650882 0.9238795325112874 0.0
  outer loop
    vertex 9.223542864692444 44.10222252113281 8.459899447643692e-15
    vertex 8.500000000000007 44.4019237886467 3.0000000000000084
    vertex 9.223542864692444 44.10222252113281 3.0000000000000084
  endloop
endfacet
facet normal 0.6087614290087189 0.7933533402912366 0.0
  outer loop
    vertex 7.878679656440366 44.87867965644037 3.0000000000000084
    vertex 8.500000000000007 44.4019237886467 8.459899447643692e-15
    vertex 7.878679656440366 44.87867965644037 8.459899447643692e-15
  endloop
endfacet
facet normal 0.6087614290087189 0.7933533402912366 0.0
  outer loop
    vertex 8.500000000000007 44.4019237886467 8.459899447643692e-15
    vertex 7.878679656440366 44.87867965644037 3.0000000000000084
    vertex 8.500000000000007 44.4019237886467 3.0000000000000084
  endloop
endfacet
facet normal 0.7933533402912335 0.6087614290087231 0.0
  outer loop
    vertex 7.401923788646692 45.50000000000001 8.459899447643692e-15
    vertex 7.878679656440366 44.87867965644037 3.0000000000000084
    vertex 7.878679656440366 44.87867965644037 8.459899447643692e-15
  endloop
endfacet
facet normal 0.7933533402912335 0.6087614290087231 0.0
  outer loop
    vertex 7.878679656440366 44.87867965644037 3.0000000000000084
    vertex 7.401923788646692 45.50000000000001 8.459899447643692e-15
    vertex 7.401923788646692 45.50000000000001 3.0000000000000084
  endloop
endfacet
facet normal 0.9238795325112873 0.3826834323650885 0.0
  outer loop
    vertex 7.102222521132804 46.22354286469245 8.459899447643692e-15
    vertex 7.401923788646692 45.50000000000001 3.0000000000000084
    vertex 7.401923788646692 45.50000000000001 8.459899447643692e-15
  endloop
endfacet
facet normal 0.9238795325112873 0.3826834323650885 0.0
  outer loop
    vertex 7.401923788646692 45.50000000000001 3.0000000000000084
    vertex 7.102222521132804 46.22354286469245 8.459899447643692e-15
    vertex 7.102222521132804 46.22354286469245 3.0000000000000084
  endloop
endfacet
facet normal 0.9914448613738104 0.13052619222005263 0.0
  outer loop
    vertex 7.000000000000008 47.00000000000001 8.459899447643692e-15
    vertex 7.102222521132804 46.22354286469245 3.0000000000000084
    vertex 7.102222521132804 46.22354286469245 8.459899447643692e-15
  endloop
endfacet
facet normal 0.9914448613738104 0.13052619222005263 0.0
  outer loop
    vertex 7.102222521132804 46.22354286469245 3.0000000000000084
    vertex 7.000000000000008 47.00000000000001 8.459899447643692e-15
    vertex 7.000000000000008 47.00000000000001 3.0000000000000084
  endloop
endfacet
facet normal 0.9914448613738105 -0.13052619222005074 0.0
  outer loop
    vertex 7.102222521132804 47.776457135307574 8.459899447643692e-15
    vertex 7.000000000000008 47.00000000000001 3.0000000000000084
    vertex 7.000000000000008 47.00000000000001 8.459899447643692e-15
  endloop
endfacet
facet normal 0.9914448613738105 -0.13052619222005074 0.0
  outer loop
    vertex 7.000000000000008 47.00000000000001 3.0000000000000084
    vertex 7.102222521132804 47.776457135307574 8.459899447643692e-15
    vertex 7.102222521132804 47.776457135307574 3.0000000000000084
  endloop
endfacet
facet normal -0.38268343236508895 -0.9238795325112871 -0.0
  outer loop
    vertex 14.000000000000009 38.928203230275514 3.0000000000000058
    vertex 12.070552360820175 39.72740661031255 5.639932965095795e-15
    vertex 14.000000000000009 38.928203230275514 5.639932965095795e-15
  endloop
endfacet
facet normal -0.38268343236508895 -0.9238795325112871 -0.0
  outer loop
    vertex 12.070552360820175 39.72740661031255 5.639932965095795e-15
    vertex 14.000000000000009 38.928203230275514 3.0000000000000058
    vertex 12.070552360820175 39.72740661031255 3.0000000000000058
  endloop
endfacet
facet normal -0.6087614290087207 -0.793353340291235 -0.0
  outer loop
    vertex 15.65685424949239 37.65685424949238 3.0000000000000058
    vertex 14.000000000000009 38.928203230275514 5.639932965095795e-15
    vertex 15.65685424949239 37.65685424949238 5.639932965095795e-15
  endloop
endfacet
facet normal -0.6087614290087207 -0.793353340291235 -0.0
  outer loop
    vertex 14.000000000000009 38.928203230275514 5.639932965095795e-15
    vertex 15.65685424949239 37.65685424949238 3.0000000000000058
    vertex 14.000000000000009 38.928203230275514 3.0000000000000058
  endloop
endfacet
facet normal -0.7933533402912354 -0.6087614290087205 -0.0
  outer loop
    vertex 15.65685424949239 37.65685424949238 3.0000000000000058
    vertex 16.928203230275518 36.00000000000001 5.639932965095795e-15
    vertex 16.928203230275518 36.00000000000001 3.0000000000000058
  endloop
endfacet
facet normal -0.7933533402912354 -0.6087614290087205 -0.0
  outer loop
    vertex 16.928203230275518 36.00000000000001 5.639932965095795e-15
    vertex 15.65685424949239 37.65685424949238 3.0000000000000058
    vertex 15.65685424949239 37.65685424949238 5.639932965095795e-15
  endloop
endfacet
facet normal -0.9238795325112863 -0.3826834323650914 -0.0
  outer loop
    vertex 16.928203230275518 36.00000000000001 3.0000000000000058
    vertex 17.72740661031256 34.07055236082017 5.639932965095795e-15
    vertex 17.72740661031256 34.07055236082017 3.0000000000000058
  endloop
endfacet
facet normal -0.9238795325112863 -0.3826834323650914 -0.0
  outer loop
    vertex 17.72740661031256 34.07055236082017 5.639932965095795e-15
    vertex 16.928203230275518 36.00000000000001 3.0000000000000058
    vertex 16.928203230275518 36.00000000000001 5.639932965095795e-15
  endloop
endfacet
facet normal -0.9914448613738105 -0.13052619222005143 -0.0
  outer loop
    vertex 17.72740661031256 34.07055236082017 3.0000000000000058
    vertex 18.00000000000001 32.0 5.639932965095795e-15
    vertex 18.00000000000001 32.0 3.0000000000000058
  endloop
endfacet
facet normal -0.9914448613738105 -0.13052619222005143 -0.0
  outer loop
    vertex 18.00000000000001 32.0 5.639932965095795e-15
    vertex 17.72740661031256 34.07055236082017 3.0000000000000058
    vertex 17.72740661031256 34.07055236082017 5.639932965095795e-15
  endloop
endfacet
facet normal -0.9914448613738104 0.1305261922200518 0.0
  outer loop
    vertex 18.00000000000001 32.0 3.0000000000000058
    vertex 17.72740661031256 29.929447639179838 5.639932965095795e-15
    vertex 17.72740661031256 29.929447639179838 3.0000000000000058
  endloop
endfacet
facet normal -0.9914448613738104 0.1305261922200518 0.0
  outer loop
    vertex 17.72740661031256 29.929447639179838 5.639932965095795e-15
    vertex 18.00000000000001 32.0 3.0000000000000058
    vertex 18.00000000000001 32.0 5.639932965095795e-15
  endloop
endfacet
facet normal -0.9238795325112867 0.3826834323650902 0.0
  outer loop
    vertex 17.72740661031256 29.929447639179838 3.0000000000000058
    vertex 16.92820323027552 28.000000000000004 5.639932965095795e-15
    vertex 16.92820323027552 28.000000000000004 3.0000000000000058
  endloop
endfacet
facet normal -0.9238795325112867 0.3826834323650902 0.0
  outer loop
    vertex 16.92820323027552 28.000000000000004 5.639932965095795e-15
    vertex 17.72740661031256 29.929447639179838 3.0000000000000058
    vertex 17.72740661031256 29.929447639179838 5.639932965095795e-15
  endloop
endfacet
facet normal -0.7933533402912358 0.6087614290087201 0.0
  outer loop
    vertex 16.92820323027552 28.000000000000004 3.0000000000000058
    vertex 15.65685424949239 26.34314575050762 5.639932965095795e-15
    vertex 15.65685424949239 26.34314575050762 3.0000000000000058
  endloop
endfacet
facet normal -0.7933533402912358 0.6087614290087201 0.0
  outer loop
    vertex 15.65685424949239 26.34314575050762 5.639932965095795e-15
    vertex 16.92820323027552 28.000000000000004 3.0000000000000058
    vertex 16.92820323027552 28.000000000000004 5.639932965095795e-15
  endloop
endfacet
facet normal -0.6087614290087212 0.7933533402912349 0.0
  outer loop
    vertex 14.000000000000014 25.071796769724493 3.0000000000000058
    vertex 15.65685424949239 26.34314575050762 5.639932965095795e-15
    vertex 14.000000000000014 25.071796769724493 5.639932965095795e-15
  endloop
endfacet
facet normal -0.6087614290087212 0.7933533402912349 0.0
  outer loop
    vertex 15.65685424949239 26.34314575050762 5.639932965095795e-15
    vertex 14.000000000000014 25.071796769724493 3.0000000000000058
    vertex 15.65685424949239 26.34314575050762 3.0000000000000058
  endloop
endfacet
facet normal -0.38268343236508967 0.9238795325112868 0.0
  outer loop
    vertex 12.070552360820178 24.272593389687454 3.0000000000000058
    vertex 14.000000000000014 25.071796769724493 5.639932965095795e-15
    vertex 12.070552360820178 24.272593389687454 5.639932965095795e-15
  endloop
endfacet
facet normal -0.38268343236508967 0.9238795325112868 0.0
  outer loop
    vertex 14.000000000000014 25.071796769724493 5.639932965095795e-15
    vertex 12.070552360820178 24.272593389687454 3.0000000000000058
    vertex 14.000000000000014 25.071796769724493 3.0000000000000058
  endloop
endfacet
facet normal -0.13052619222005163 0.9914448613738104 0.0
  outer loop
    vertex 10.00000000000001 24.0 3.0000000000000058
    vertex 12.070552360820178 24.272593389687454 5.639932965095795e-15
    vertex 10.00000000000001 24.0 5.639932965095795e-15
  endloop
endfacet
facet normal -0.13052619222005163 0.9914448613738104 0.0
  outer loop
    vertex 12.070552360820178 24.272593389687454 5.639932965095795e-15
    vertex 10.00000000000001 24.0 3.0000000000000058
    vertex 12.070552360820178 24.272593389687454 3.0000000000000058
  endloop
endfacet
facet normal 0.1305261922200518 0.9914448613738104 0.0
  outer loop
    vertex 7.929447639179845 24.272593389687454 3.0000000000000058
    vertex 10.00000000000001 24.0 5.639932965095795e-15
    vertex 7.929447639179845 24.272593389687454 5.639932965095795e-15
  endloop
endfacet
facet normal 0.1305261922200518 0.9914448613738104 0.0
  outer loop
    vertex 10.00000000000001 24.0 5.639932965095795e-15
    vertex 7.929447639179845 24.272593389687454 3.0000000000000058
    vertex 10.00000000000001 24.0 3.0000000000000058
  endloop
endfacet
facet normal 0.38268343236508867 0.9238795325112873 0.0
  outer loop
    vertex 6.00000000000001 25.07179676972449 3.0000000000000058
    vertex 7.929447639179845 24.272593389687454 5.639932965095795e-15
    vertex 6.00000000000001 25.07179676972449 5.639932965095795e-15
  endloop
endfacet
facet normal 0.38268343236508867 0.9238795325112873 0.0
  outer loop
    vertex 7.929447639179845 24.272593389687454 5.639932965095795e-15
    vertex 6.00000000000001 25.07179676972449 3.0000000000000058
    vertex 7.929447639179845 24.272593389687454 3.0000000000000058
  endloop
endfacet
facet normal 0.6087614290087212 0.7933533402912349 0.0
  outer loop
    vertex 4.34314575050763 26.34314575050762 3.0000000000000058
    vertex 6.00000000000001 25.07179676972449 5.639932965095795e-15
    vertex 4.34314575050763 26.34314575050762 5.639932965095795e-15
  endloop
endfacet
facet normal 0.6087614290087212 0.7933533402912349 0.0
  outer loop
    vertex 6.00000000000001 25.07179676972449 5.639932965095795e-15
    vertex 4.34314575050763 26.34314575050762 3.0000000000000058
    vertex 6.00000000000001 25.07179676972449 3.0000000000000058
  endloop
endfacet
facet normal 0.7933533402912344 0.6087614290087218 0.0
  outer loop
    vertex 3.071796769724498 28.0 5.639932965095795e-15
    vertex 4.34314575050763 26.34314575050762 3.0000000000000058
    vertex 4.34314575050763 26.34314575050762 5.639932965095795e-15
  endloop
endfacet
facet normal 0.7933533402912344 0.6087614290087218 0.0
  outer loop
    vertex 4.34314575050763 26.34314575050762 3.0000000000000058
    vertex 3.071796769724498 28.0 5.639932965095795e-15
    vertex 3.071796769724498 28.0 3.0000000000000058
  endloop
endfacet
facet normal 0.9238795325112868 0.38268343236508956 0.0
  outer loop
    vertex 2.2725933896874615 29.929447639179834 5.639932965095795e-15
    vertex 3.071796769724498 28.0 3.0000000000000058
    vertex 3.071796769724498 28.0 5.639932965095795e-15
  endloop
endfacet
facet normal 0.9238795325112868 0.38268343236508956 0.0
  outer loop
    vertex 3.071796769724498 28.0 3.0000000000000058
    vertex 2.2725933896874615 29.929447639179834 5.639932965095795e-15
    vertex 2.2725933896874615 29.929447639179834 3.0000000000000058
  endloop
endfacet
facet normal 0.9914448613738105 0.13052619222005213 0.0
  outer loop
    vertex 2.000000000000006 32.0 5.639932965095795e-15
    vertex 2.2725933896874615 29.929447639179834 3.0000000000000058
    vertex 2.2725933896874615 29.929447639179834 5.639932965095795e-15
  endloop
endfacet
facet normal 0.9914448613738105 0.13052619222005213 0.0
  outer loop
    vertex 2.2725933896874615 29.929447639179834 3.0000000000000058
    vertex 2.000000000000006 32.0 5.639932965095795e-15
    vertex 2.000000000000006 32.0 3.0000000000000058
  endloop
endfacet
facet normal 0.9914448613738105 -0.13052619222005113 0.0
  outer loop
    vertex 2.272593389687459 34.070552360820166 5.639932965095795e-15
    vertex 2.000000000000006 32.0 3.0000000000000058
    vertex 2.000000000000006 32.0 5.639932965095795e-15
  endloop
endfacet
facet normal 0.9914448613738105 -0.13052619222005113 0.0
  outer loop
    vertex 2.000000000000006 32.0 3.0000000000000058
    vertex 2.272593389687459 34.070552360820166 5.639932965095795e-15
    vertex 2.272593389687459 34.070552360820166 3.0000000000000058
  endloop
endfacet
facet normal 0.9238795325112871 -0.38268343236508895 0.0
  outer loop
    vertex 3.071796769724494 36.0 5.639932965095795e-15
    vertex 2.272593389687459 34.070552360820166 3.0000000000000058
    vertex 2.272593389687459 34.070552360820166 5.639932965095795e-15
  endloop
endfacet
facet normal 0.9238795325112871 -0.38268343236508895 0.0
  outer loop
    vertex 2.272593389687459 34.070552360820166 3.0000000000000058
    vertex 3.071796769724494 36.0 5.639932965095795e-15
    vertex 3.071796769724494 36.0 3.0000000000000058
  endloop
endfacet
facet normal 0.7933533402912344 -0.6087614290087218 0.0
  outer loop
    vertex 4.343145750507626 37.65685424949238 5.639932965095795e-15
    vertex 3.071796769724494 36.0 3.0000000000000058
    vertex 3.071796769724494 36.0 5.639932965095795e-15
  endloop
endfacet
facet normal 0.7933533402912344 -0.6087614290087218 0.0
  outer loop
    vertex 3.071796769724494 36.0 3.0000000000000058
    vertex 4.343145750507626 37.65685424949238 5.639932965095795e-15
    vertex 4.343145750507626 37.65685424949238 3.0000000000000058
  endloop
endfacet
facet normal 0.6087614290087214 -0.7933533402912345 0.0
  outer loop
    vertex 6.0000000000000036 38.928203230275514 3.0000000000000058
    vertex 4.343145750507626 37.65685424949238 5.639932965095795e-15
    vertex 6.0000000000000036 38.928203230275514 5.639932965095795e-15
  endloop
endfacet
facet normal 0.6087614290087214 -0.7933533402912345 0.0
  outer loop
    vertex 4.343145750507626 37.65685424949238 5.639932965095795e-15
    vertex 6.0000000000000036 38.928203230275514 3.0000000000000058
    vertex 4.343145750507626 37.65685424949238 3.0000000000000058
  endloop
endfacet
facet normal 0.38268343236509167 -0.923879532511286 0.0
  outer loop
    vertex 7.929447639179835 39.72740661031255 3.0000000000000058
    vertex 6.0000000000000036 38.928203230275514 5.639932965095795e-15
    vertex 7.929447639179835 39.72740661031255 5.639932965095795e-15
  endloop
endfacet
facet normal 0.38268343236509167 -0.923879532511286 0.0
  outer loop
    vertex 6.0000000000000036 38.928203230275514 5.639932965095795e-15
    vertex 7.929447639179835 39.72740661031255 3.0000000000000058
    vertex 6.0000000000000036 38.928203230275514 3.0000000000000058
  endloop
endfacet
facet normal 0.1305261922200513 -0.9914448613738106 0.0
  outer loop
    vertex 10.000000000000009 40.00000000000001 3.0000000000000058
    vertex 7.929447639179835 39.72740661031255 5.639932965095795e-15
    vertex 10.000000000000009 40.00000000000001 5.639932965095795e-15
  endloop
endfacet
facet normal 0.1305261922200513 -0.9914448613738106 0.0
  outer loop
    vertex 7.929447639179835 39.72740661031255 5.639932965095795e-15
    vertex 10.000000000000009 40.00000000000001 3.0000000000000058
    vertex 7.929447639179835 39.72740661031255 3.0000000000000058
  endloop
endfacet
facet normal -0.1305261922200517 -0.9914448613738105 -0.0
  outer loop
    vertex 12.070552360820175 39.72740661031255 3.0000000000000058
    vertex 10.000000000000009 40.00000000000001 5.639932965095795e-15
    vertex 12.070552360820175 39.72740661031255 5.639932965095795e-15
  endloop
endfacet
facet normal -0.1305261922200517 -0.9914448613738105 -0.0
  outer loop
    vertex 10.000000000000009 40.00000000000001 5.639932965095795e-15
    vertex 12.070552360820175 39.72740661031255 3.0000000000000058
    vertex 10.000000000000009 40.00000000000001 3.0000000000000058
  endloop
endfacet
facet normal -0.9920861288177862 0.12555920120540362 1.3667809241074853e-17
  outer loop
    vertex 1.3555084230550685 50.203627409468446 3.0000000000000058
    vertex 0.0 39.49329243522261 5.639932965095795e-15
    vertex 0.0 39.49329243522261 3.0000000000000058
  endloop
endfacet
facet normal -0.9920861288177862 0.12555920120540362 1.3667809241074853e-17
  outer loop
    vertex 0.0 39.49329243522261 5.639932965095795e-15
    vertex 1.3555084230550685 50.203627409468446 3.0000000000000058
    vertex 1.5921446313684686 52.0733709056835 5.639932965095795e-15
  endloop
endfacet
facet normal 8.049924446508373e-19 0.8486659467864671 0.5289292114877281
  outer loop
    vertex 1.3555084230550685 50.203627409468446 3.0000000000000058
    vertex 18.407855368631537 52.0733709056835 5.639932965095795e-15
    vertex 1.5921446313684686 52.0733709056835 5.639932965095795e-15
  endloop
endfacet
facet normal 8.049924446508373e-19 0.8486659467864671 0.5289292114877281
  outer loop
    vertex 18.407855368631537 52.0733709056835 5.639932965095795e-15
    vertex 1.3555084230550685 50.203627409468446 3.0000000000000058
    vertex 18.644491576944937 50.203627409468446 3.0000000000000058
  endloop
endfacet
facet normal 0.9925333808468827 -0.1219733081647657 -3.3689771449274236e-17
  outer loop
    vertex 20.000000000000004 25.45567462201915 5.639932965095795e-15
    vertex 17.160723396323764 2.3516295730853614 3.0000000000000058
    vertex 16.871729550733832 0.0 5.639932965095795e-15
  endloop
endfacet
facet normal 0.9925333808468827 -0.1219733081647657 -3.3689771449274236e-17
  outer loop
    vertex 17.160723396323764 2.3516295730853614 3.0000000000000058
    vertex 20.000000000000004 25.45567462201915 5.639932965095795e-15
    vertex 20.000000000000004 25.45567462201915 3.0000000000000058
  endloop
endfacet
facet normal -0.0 -0.0 1.0
  outer loop
    vertex 7.929447639179835 39.72740661031255 3.0000000000000058
    vertex 7.000000000000008 47.00000000000001 3.0000000000000084
    vertex 6.0000000000000036 38.928203230275514 3.0000000000000058
  endloop
endfacet
facet normal -0.0 -0.0 1.0
  outer loop
    vertex 7.000000000000008 47.00000000000001 3.0000000000000084
    vertex 7.929447639179835 39.72740661031255 3.0000000000000058
    vertex 7.102222521132804 46.22354286469245 3.0000000000000084
  endloop
endfacet
facet normal -0.0 -0.0 1.0
  outer loop
    vertex 7.102222521132804 46.22354286469245 3.0000000000000084
    vertex 7.929447639179835 39.72740661031255 3.0000000000000058
    vertex 7.401923788646692 45.50000000000001 3.0000000000000084
  endloop
endfacet
facet normal -0.0 -0.0 1.0
  outer loop
    vertex 7.401923788646692 45.50000000000001 3.0000000000000084
    vertex 7.929447639179835 39.72740661031255 3.0000000000000058
    vertex 7.878679656440366 44.87867965644037 3.0000000000000084
  endloop
endfacet
facet normal -0.0 -0.0 1.0
  outer loop
    vertex 7.878679656440366 44.87867965644037 3.0000000000000084
    vertex 7.929447639179835 39.72740661031255 3.0000000000000058
    vertex 8.500000000000007 44.4019237886467 3.0000000000000084
  endloop
endfacet
facet normal -0.0 -0.0 1.0
  outer loop
    vertex 8.500000000000007 44.4019237886467 3.0000000000000084
    vertex 7.929447639179835 39.72740661031255 3.0000000000000058
    vertex 10.000000000000009 40.00000000000001 3.0000000000000058
  endloop
endfacet
facet normal -0.0 -0.0 1.0
  outer loop
    vertex 8.500000000000007 44.4019237886467 3.0000000000000084
    vertex 10.000000000000009 40.00000000000001 3.0000000000000058
    vertex 9.223542864692444 44.10222252113281 3.0000000000000084
  endloop
endfacet
facet normal -0.0 -0.0 1.0
  outer loop
    vertex 9.223542864692444 44.10222252113281 3.0000000000000084
    vertex 10.000000000000009 40.00000000000001 3.0000000000000058
    vertex 10.000000000000007 44.00000000000001 3.0000000000000084
  endloop
endfacet
facet normal -0.0 -0.0 1.0
  outer loop
    vertex 10.000000000000007 44.00000000000001 3.0000000000000084
    vertex 10.000000000000009 40.00000000000001 3.0000000000000058
    vertex 10.776457135307568 44.10222252113281 3.0000000000000084
  endloop
endfacet
facet normal -0.0 -0.0 1.0
  outer loop
    vertex 10.776457135307568 44.10222252113281 3.0000000000000084
    vertex 10.000000000000009 40.00000000000001 3.0000000000000058
    vertex 12.070552360820175 39.72740661031255 3.0000000000000058
  endloop
endfacet
facet normal -0.0 -0.0 1.0
  outer loop
    vertex 10.776457135307568 44.10222252113281 3.0000000000000084
    vertex 12.070552360820175 39.72740661031255 3.0000000000000058
    vertex 11.500000000000007 44.40192378864669 3.0000000000000084
  endloop
endfacet
facet normal -0.0 -0.0 1.0
  outer loop
    vertex 11.500000000000007 44.40192378864669 3.0000000000000084
    vertex 12.070552360820175 39.72740661031255 3.0000000000000058
    vertex 12.12132034355965 44.87867965644037 3.0000000000000084
  endloop
endfacet
facet normal -0.0 -0.0 1.0
  outer loop
    vertex 12.12132034355965 44.87867965644037 3.0000000000000084
    vertex 12.070552360820175 39.72740661031255 3.0000000000000058
    vertex 14.000000000000009 38.928203230275514 3.0000000000000058
  endloop
endfacet
facet normal -0.0 -0.0 1.0
  outer loop
    vertex 12.12132034355965 44.87867965644037 3.0000000000000084
    vertex 14.000000000000009 38.928203230275514 3.0000000000000058
    vertex 12.598076211353325 45.50000000000001 3.0000000000000084
  endloop
endfacet
facet normal -0.0 -0.0 1.0
  outer loop
    vertex 12.598076211353325 45.50000000000001 3.0000000000000084
    vertex 14.000000000000009 38.928203230275514 3.0000000000000058
    vertex 12.897777478867214 46.22354286469245 3.0000000000000084
  endloop
endfacet
facet normal -0.0 -0.0 1.0
  outer loop
    vertex 12.897777478867214 46.22354286469245 3.0000000000000084
    vertex 14.000000000000009 38.928203230275514 3.0000000000000058
    vertex 13.00000000000001 47.00000000000001 3.0000000000000084
  endloop
endfacet
facet normal -0.0 -0.0 1.0
  outer loop
    vertex 2.7228559516095636 2.3516295730853605 3.0000000000000058
    vertex 0.0 39.49329243522261 3.0000000000000058
    vertex 0.0 25.455674622019156 3.0000000000000058
  endloop
endfacet
facet normal -0.0 -0.0 1.0
  outer loop
    vertex 0.0 39.49329243522261 3.0000000000000058
    vertex 2.7228559516095636 2.3516295730853605 3.0000000000000058
    vertex 1.3555084230550685 50.203627409468446 3.0000000000000058
  endloop
endfacet
facet normal -0.0 -0.0 1.0
  outer loop
    vertex 1.3555084230550685 50.203627409468446 3.0000000000000058
    vertex 2.7228559516095636 2.3516295730853605 3.0000000000000058
    vertex 2.000000000000006 32.0 3.0000000000000058
  endloop
endfacet
facet normal -0.0 -0.0 1.0
  outer loop
    vertex 2.000000000000006 32.0 3.0000000000000058
    vertex 2.7228559516095636 2.3516295730853605 3.0000000000000058
    vertex 2.2725933896874615 29.929447639179834 3.0000000000000058
  endloop
endfacet
facet normal -0.0 -0.0 1.0
  outer loop
    vertex 2.2725933896874615 29.929447639179834 3.0000000000000058
    vertex 2.7228559516095636 2.3516295730853605 3.0000000000000058
    vertex 3.071796769724498 28.0 3.0000000000000058
  endloop
endfacet
facet normal -0.0 -0.0 1.0
  outer loop
    vertex 3.071796769724498 28.0 3.0000000000000058
    vertex 2.7228559516095636 2.3516295730853605 3.0000000000000058
    vertex 7.102222521132802 9.223542864692448 3.0
  endloop
endfacet
facet normal -0.0 -0.0 1.0
  outer loop
    vertex 7.102222521132802 9.223542864692448 3.0
    vertex 2.7228559516095636 2.3516295730853605 3.0000000000000058
    vertex 7.401923788646692 8.50000000000001 3.0
  endloop
endfacet
facet normal -0.0 -0.0 1.0
  outer loop
    vertex 7.401923788646692 8.50000000000001 3.0
    vertex 2.7228559516095636 2.3516295730853605 3.0000000000000058
    vertex 7.878679656440365 7.878679656440366 3.0
  endloop
endfacet
facet normal -0.0 -0.0 1.0
  outer loop
    vertex 7.878679656440365 7.878679656440366 3.0
    vertex 2.7228559516095636 2.3516295730853605 3.0000000000000058
    vertex 8.500000000000005 7.401923788646692 3.0
  endloop
endfacet
facet normal -0.0 -0.0 1.0
  outer loop
    vertex 8.500000000000005 7.401923788646692 3.0
    vertex 2.7228559516095636 2.3516295730853605 3.0000000000000058
    vertex 17.160723396323764 2.3516295730853614 3.0000000000000058
  endloop
endfacet
facet normal -0.0 -0.0 1.0
  outer loop
    vertex 3.071796769724498 28.0 3.0000000000000058
    vertex 7.102222521132802 9.223542864692448 3.0
    vertex 4.34314575050763 26.34314575050762 3.0000000000000058
  endloop
endfacet
facet normal -0.0 -0.0 1.0
  outer loop
    vertex 4.34314575050763 26.34314575050762 3.0000000000000058
    vertex 7.102222521132802 9.223542864692448 3.0
    vertex 7.000000000000007 10.000000000000009 3.0
  endloop
endfacet
facet normal -0.0 -0.0 1.0
  outer loop
    vertex 4.34314575050763 26.34314575050762 3.0000000000000058
    vertex 7.000000000000007 10.000000000000009 3.0
    vertex 6.00000000000001 25.07179676972449 3.0000000000000058
  endloop
endfacet
facet normal -0.0 -0.0 1.0
  outer loop
    vertex 8.500000000000005 7.401923788646692 3.0
    vertex 17.160723396323764 2.3516295730853614 3.0000000000000058
    vertex 9.223542864692444 7.102222521132807 3.0
  endloop
endfacet
facet normal -0.0 -0.0 1.0
  outer loop
    vertex 9.223542864692444 7.102222521132807 3.0
    vertex 17.160723396323764 2.3516295730853614 3.0000000000000058
    vertex 10.000000000000007 7.000000000000012 3.0
  endloop
endfacet
facet normal -0.0 -0.0 1.0
  outer loop
    vertex 10.000000000000007 7.000000000000012 3.0
    vertex 17.160723396323764 2.3516295730853614 3.0000000000000058
    vertex 10.776457135307568 7.102222521132807 3.0
  endloop
endfacet
facet normal -0.0 -0.0 1.0
  outer loop
    vertex 10.776457135307568 7.102222521132807 3.0
    vertex 17.160723396323764 2.3516295730853614 3.0000000000000058
    vertex 11.500000000000007 7.401923788646692 3.0
  endloop
endfacet
facet normal -0.0 -0.0 1.0
  outer loop
    vertex 11.500000000000007 7.401923788646692 3.0
    vertex 17.160723396323764 2.3516295730853614 3.0000000000000058
    vertex 12.121320343559649 7.878679656440365 3.0
  endloop
endfacet
facet normal -0.0 -0.0 1.0
  outer loop
    vertex 12.121320343559649 7.878679656440365 3.0
    vertex 17.160723396323764 2.3516295730853614 3.0000000000000058
    vertex 12.598076211353323 8.500000000000007 3.0
  endloop
endfacet
facet normal -0.0 -0.0 1.0
  outer loop
    vertex 12.598076211353323 8.500000000000007 3.0
    vertex 17.160723396323764 2.3516295730853614 3.0000000000000058
    vertex 12.897777478867212 9.223542864692444 3.0
  endloop
endfacet
facet normal -0.0 -0.0 1.0
  outer loop
    vertex 12.897777478867212 9.223542864692444 3.0
    vertex 17.160723396323764 2.3516295730853614 3.0000000000000058
    vertex 13.000000000000007 10.000000000000009 3.0
  endloop
endfacet
facet normal -0.0 -0.0 1.0
  outer loop
    vertex 13.000000000000007 10.000000000000009 3.0
    vertex 17.160723396323764 2.3516295730853614 3.0000000000000058
    vertex 14.000000000000014 25.071796769724493 3.0000000000000058
  endloop
endfacet
facet normal -0.0 -0.0 1.0
  outer loop
    vertex 14.000000000000014 25.071796769724493 3.0000000000000058
    vertex 17.160723396323764 2.3516295730853614 3.0000000000000058
    vertex 15.65685424949239 26.34314575050762 3.0000000000000058
  endloop
endfacet
facet normal -0.0 -0.0 1.0
  outer loop
    vertex 15.65685424949239 26.34314575050762 3.0000000000000058
    vertex 17.160723396323764 2.3516295730853614 3.0000000000000058
    vertex 16.92820323027552 28.000000000000004 3.0000000000000058
  endloop
endfacet
facet normal -0.0 -0.0 1.0
  outer loop
    vertex 16.92820323027552 28.000000000000004 3.0000000000000058
    vertex 17.160723396323764 2.3516295730853614 3.0000000000000058
    vertex 17.72740661031256 29.929447639179838 3.0000000000000058
  endloop
endfacet
facet normal -0.0 -0.0 1.0
  outer loop
    vertex 17.72740661031256 29.929447639179838 3.0000000000000058
    vertex 17.160723396323764 2.3516295730853614 3.0000000000000058
    vertex 20.000000000000004 25.45567462201915 3.0000000000000058
  endloop
endfacet
facet normal -0.0 -0.0 1.0
  outer loop
    vertex 17.72740661031256 29.929447639179838 3.0000000000000058
    vertex 20.000000000000004 25.45567462201915 3.0000000000000058
    vertex 18.00000000000001 32.0 3.0000000000000058
  endloop
endfacet
facet normal -0.0 -0.0 1.0
  outer loop
    vertex 18.00000000000001 32.0 3.0000000000000058
    vertex 20.000000000000004 25.45567462201915 3.0000000000000058
    vertex 18.644491576944937 50.203627409468446 3.0000000000000058
  endloop
endfacet
facet normal -0.0 -0.0 1.0
  outer loop
    vertex 18.644491576944937 50.203627409468446 3.0000000000000058
    vertex 20.000000000000004 25.45567462201915 3.0000000000000058
    vertex 20.000000000000007 39.49329243522261 3.0000000000000058
  endloop
endfacet
facet normal -0.0 -0.0 1.0
  outer loop
    vertex 1.3555084230550685 50.203627409468446 3.0000000000000058
    vertex 10.000000000000009 50.00000000000001 3.0000000000000084
    vertex 18.644491576944937 50.203627409468446 3.0000000000000058
  endloop
endfacet
facet normal -0.0 -0.0 1.0
  outer loop
    vertex 10.000000000000009 50.00000000000001 3.0000000000000084
    vertex 1.3555084230550685 50.203627409468446 3.0000000000000058
    vertex 9.223542864692446 49.89777747886721 3.0000000000000084
  endloop
endfacet
facet normal -0.0 -0.0 1.0
  outer loop
    vertex 9.223542864692446 49.89777747886721 3.0000000000000084
    vertex 1.3555084230550685 50.203627409468446 3.0000000000000058
    vertex 8.500000000000007 49.59807621135333 3.0000000000000084
  endloop
endfacet
facet normal -0.0 -0.0 1.0
  outer loop
    vertex 8.500000000000007 49.59807621135333 3.0000000000000084
    vertex 1.3555084230550685 50.203627409468446 3.0000000000000058
    vertex 7.878679656440366 49.12132034355965 3.0000000000000084
  endloop
endfacet
facet normal -0.0 -0.0 1.0
  outer loop
    vertex 7.878679656440366 49.12132034355965 3.0000000000000084
    vertex 1.3555084230550685 50.203627409468446 3.0000000000000058
    vertex 7.401923788646692 48.500000000000014 3.0000000000000084
  endloop
endfacet
facet normal -0.0 -0.0 1.0
  outer loop
    vertex 7.401923788646692 48.500000000000014 3.0000000000000084
    vertex 1.3555084230550685 50.203627409468446 3.0000000000000058
    vertex 7.102222521132804 47.776457135307574 3.0000000000000084
  endloop
endfacet
facet normal -0.0 -0.0 1.0
  outer loop
    vertex 7.102222521132804 47.776457135307574 3.0000000000000084
    vertex 1.3555084230550685 50.203627409468446 3.0000000000000058
    vertex 2.272593389687459 34.070552360820166 3.0000000000000058
  endloop
endfacet
facet normal -0.0 -0.0 1.0
  outer loop
    vertex 2.272593389687459 34.070552360820166 3.0000000000000058
    vertex 1.3555084230550685 50.203627409468446 3.0000000000000058
    vertex 2.000000000000006 32.0 3.0000000000000058
  endloop
endfacet
facet normal -0.0 -0.0 1.0
  outer loop
    vertex 7.102222521132804 47.776457135307574 3.0000000000000084
    vertex 2.272593389687459 34.070552360820166 3.0000000000000058
    vertex 3.071796769724494 36.0 3.0000000000000058
  endloop
endfacet
facet normal -0.0 -0.0 1.0
  outer loop
    vertex 7.102222521132804 47.776457135307574 3.0000000000000084
    vertex 3.071796769724494 36.0 3.0000000000000058
    vertex 4.343145750507626 37.65685424949238 3.0000000000000058
  endloop
endfacet
facet normal -0.0 -0.0 1.0
  outer loop
    vertex 7.102222521132804 47.776457135307574 3.0000000000000084
    vertex 4.343145750507626 37.65685424949238 3.0000000000000058
    vertex 7.000000000000008 47.00000000000001 3.0000000000000084
  endloop
endfacet
facet normal -0.0 -0.0 1.0
  outer loop
    vertex 7.000000000000008 47.00000000000001 3.0000000000000084
    vertex 4.343145750507626 37.65685424949238 3.0000000000000058
    vertex 6.0000000000000036 38.928203230275514 3.0000000000000058
  endloop
endfacet
facet normal -0.0 -0.0 1.0
  outer loop
    vertex 18.644491576944937 50.203627409468446 3.0000000000000058
    vertex 10.000000000000009 50.00000000000001 3.0000000000000084
    vertex 10.776457135307572 49.89777747886721 3.0000000000000084
  endloop
endfacet
facet normal -0.0 -0.0 1.0
  outer loop
    vertex 18.644491576944937 50.203627409468446 3.0000000000000058
    vertex 10.776457135307572 49.89777747886721 3.0000000000000084
    vertex 11.500000000000009 49.59807621135333 3.0000000000000084
  endloop
endfacet
facet normal -0.0 -0.0 1.0
  outer loop
    vertex 18.644491576944937 50.203627409468446 3.0000000000000058
    vertex 11.500000000000009 49.59807621135333 3.0000000000000084
    vertex 12.121320343559653 49.12132034355965 3.0000000000000084
  endloop
endfacet
facet normal -0.0 -0.0 1.0
  outer loop
    vertex 18.644491576944937 50.203627409468446 3.0000000000000058
    vertex 12.121320343559653 49.12132034355965 3.0000000000000084
    vertex 12.598076211353327 48.5 3.0000000000000084
  endloop
endfacet
facet normal -0.0 -0.0 1.0
  outer loop
    vertex 18.644491576944937 50.203627409468446 3.0000000000000058
    vertex 12.598076211353327 48.5 3.0000000000000084
    vertex 12.897777478867214 47.776457135307574 3.0000000000000084
  endloop
endfacet
facet normal -0.0 -0.0 1.0
  outer loop
    vertex 18.644491576944937 50.203627409468446 3.0000000000000058
    vertex 12.897777478867214 47.776457135307574 3.0000000000000084
    vertex 13.00000000000001 47.00000000000001 3.0000000000000084
  endloop
endfacet
facet normal -0.0 -0.0 1.0
  outer loop
    vertex 18.644491576944937 50.203627409468446 3.0000000000000058
    vertex 13.00000000000001 47.00000000000001 3.0000000000000084
    vertex 14.000000000000009 38.928203230275514 3.0000000000000058
  endloop
endfacet
facet normal -0.0 -0.0 1.0
  outer loop
    vertex 18.644491576944937 50.203627409468446 3.0000000000000058
    vertex 14.000000000000009 38.928203230275514 3.0000000000000058
    vertex 15.65685424949239 37.65685424949238 3.0000000000000058
  endloop
endfacet
facet normal -0.0 -0.0 1.0
  outer loop
    vertex 18.644491576944937 50.203627409468446 3.0000000000000058
    vertex 15.65685424949239 37.65685424949238 3.0000000000000058
    vertex 16.928203230275518 36.00000000000001 3.0000000000000058
  endloop
endfacet
facet normal -0.0 -0.0 1.0
  outer loop
    vertex 18.644491576944937 50.203627409468446 3.0000000000000058
    vertex 16.928203230275518 36.00000000000001 3.0000000000000058
    vertex 17.72740661031256 34.07055236082017 3.0000000000000058
  endloop
endfacet
facet normal -0.0 -0.0 1.0
  outer loop
    vertex 18.644491576944937 50.203627409468446 3.0000000000000058
    vertex 17.72740661031256 34.07055236082017 3.0000000000000058
    vertex 18.00000000000001 32.0 3.0000000000000058
  endloop
endfacet
facet normal -0.0 -0.0 1.0
  outer loop
    vertex 7.000000000000007 10.000000000000009 3.0
    vertex 7.929447639179845 24.272593389687454 3.0000000000000058
    vertex 6.00000000000001 25.07179676972449 3.0000000000000058
  endloop
endfacet
facet normal -0.0 -0.0 1.0
  outer loop
    vertex 7.929447639179845 24.272593389687454 3.0000000000000058
    vertex 7.000000000000007 10.000000000000009 3.0
    vertex 7.102222521132802 10.776457135307572 3.0
  endloop
endfacet
facet normal -0.0 -0.0 1.0
  outer loop
    vertex 7.929447639179845 24.272593389687454 3.0000000000000058
    vertex 7.102222521132802 10.776457135307572 3.0
    vertex 7.401923788646692 11.500000000000009 3.0
  endloop
endfacet
facet normal -0.0 -0.0 1.0
  outer loop
    vertex 7.929447639179845 24.272593389687454 3.0000000000000058
    vertex 7.401923788646692 11.500000000000009 3.0
    vertex 7.878679656440365 12.12132034355965 3.0
  endloop
endfacet
facet normal -0.0 -0.0 1.0
  outer loop
    vertex 7.929447639179845 24.272593389687454 3.0000000000000058
    vertex 7.878679656440365 12.12132034355965 3.0
    vertex 8.500000000000007 12.598076211353325 3.0
  endloop
endfacet
facet normal -0.0 -0.0 1.0
  outer loop
    vertex 7.929447639179845 24.272593389687454 3.0000000000000058
    vertex 8.500000000000007 12.598076211353325 3.0
    vertex 10.00000000000001 24.0 3.0000000000000058
  endloop
endfacet
facet normal -0.0 -0.0 1.0
  outer loop
    vertex 10.00000000000001 24.0 3.0000000000000058
    vertex 8.500000000000007 12.598076211353325 3.0
    vertex 9.223542864692446 12.897777478867214 3.0
  endloop
endfacet
facet normal -0.0 -0.0 1.0
  outer loop
    vertex 10.00000000000001 24.0 3.0000000000000058
    vertex 9.223542864692446 12.897777478867214 3.0
    vertex 10.000000000000009 13.00000000000001 3.0
  endloop
endfacet
facet normal -0.0 -0.0 1.0
  outer loop
    vertex 10.00000000000001 24.0 3.0000000000000058
    vertex 10.000000000000009 13.00000000000001 3.0
    vertex 10.776457135307572 12.897777478867212 3.0
  endloop
endfacet
facet normal -0.0 -0.0 1.0
  outer loop
    vertex 10.00000000000001 24.0 3.0000000000000058
    vertex 10.776457135307572 12.897777478867212 3.0
    vertex 12.070552360820178 24.272593389687454 3.0000000000000058
  endloop
endfacet
facet normal -0.0 -0.0 1.0
  outer loop
    vertex 12.070552360820178 24.272593389687454 3.0000000000000058
    vertex 10.776457135307572 12.897777478867212 3.0
    vertex 11.500000000000009 12.598076211353323 3.0
  endloop
endfacet
facet normal -0.0 -0.0 1.0
  outer loop
    vertex 12.070552360820178 24.272593389687454 3.0000000000000058
    vertex 11.500000000000009 12.598076211353323 3.0
    vertex 12.12132034355965 12.12132034355965 3.0
  endloop
endfacet
facet normal -0.0 -0.0 1.0
  outer loop
    vertex 12.070552360820178 24.272593389687454 3.0000000000000058
    vertex 12.12132034355965 12.12132034355965 3.0
    vertex 14.000000000000014 25.071796769724493 3.0000000000000058
  endloop
endfacet
facet normal -0.0 -0.0 1.0
  outer loop
    vertex 14.000000000000014 25.071796769724493 3.0000000000000058
    vertex 12.12132034355965 12.12132034355965 3.0
    vertex 12.598076211353325 11.500000000000007 3.0
  endloop
endfacet
facet normal -0.0 -0.0 1.0
  outer loop
    vertex 14.000000000000014 25.071796769724493 3.0000000000000058
    vertex 12.598076211353325 11.500000000000007 3.0
    vertex 12.897777478867212 10.77645713530757 3.0
  endloop
endfacet
facet normal -0.0 -0.0 1.0
  outer loop
    vertex 14.000000000000014 25.071796769724493 3.0000000000000058
    vertex 12.897777478867212 10.77645713530757 3.0
    vertex 13.000000000000007 10.000000000000009 3.0
  endloop
endfacet
facet normal 3.779994660312852e-17 -0.7870204763361452 0.6169268755919355
  outer loop
    vertex 17.160723396323764 2.3516295730853614 3.0000000000000058
    vertex 3.0 0.0 5.639932965095795e-15
    vertex 16.871729550733832 0.0 5.639932965095795e-15
  endloop
endfacet
facet normal 3.779994660312852e-17 -0.7870204763361452 0.6169268755919355
  outer loop
    vertex 3.0 0.0 5.639932965095795e-15
    vertex 17.160723396323764 2.3516295730853614 3.0000000000000058
    vertex 2.7228559516095636 2.3516295730853605 3.0000000000000058
  endloop
endfacet
endsolid Z-Крепление-подшип
