solid Головка-крепление-разъема
facet normal 0.9999999997962388 -1.1693107782171024e-05 -1.6455822624013515e-05
  outer loop
    vertex -19.502677532853546 38.00373524284813 78.00017161242452
    vertex -19.5029275391278 0.003501919315831201 83.9992120249445
    vertex -19.50330245166845 0.0032038862380891647 77.99899941655713
  endloop
endfacet
facet normal 0.9999999997962388 -1.1693107782171024e-05 -1.6455822624013515e-05
  outer loop
    vertex -19.5029275391278 0.003501919315831201 83.9992120249445
    vertex -19.502677532853546 38.00373524284813 78.00017161242452
    vertex -19.502417411351406 38.003610457993595 84.00017160548833
  endloop
endfacet
facet normal 0.9999999999795495 2.785176452144781e-06 -5.757065332176801e-06
  outer loop
    vertex -19.50330245166845 0.0032038862380891647 77.99899941655713
    vertex -19.503187319915714 -15.491732371605314 83.99965715011884
    vertex -19.502987087945435 -15.492352588610185 77.99891676487606
  endloop
endfacet
facet normal 0.9999999999795495 2.785176452144781e-06 -5.757065332176801e-06
  outer loop
    vertex -19.503187319915714 -15.491732371605314 83.99965715011884
    vertex -19.50330245166845 0.0032038862380891647 77.99899941655713
    vertex -19.5029275391278 0.003501919315831201 83.9992120249445
  endloop
endfacet
facet normal 5.258356782984206e-06 0.999999999769912 2.0797247805702374e-05
  outer loop
    vertex -40.00024760849389 0.0037344562633580547 78.00025270490652
    vertex -27.502424424978308 0.003543975261448881 83.99926708033561
    vertex -27.502684546480452 0.003668760115979218 77.99926708727182
  endloop
endfacet
facet normal 5.258356782984206e-06 0.999999999769912 2.0797247805702374e-05
  outer loop
    vertex -27.502424424978308 0.003543975261448881 83.99926708033561
    vertex -40.00024760849389 0.0037344562633580547 78.00025270490652
    vertex -39.99998748699174 0.0036096714088277174 84.00025269797031
  endloop
endfacet
facet normal 1.0868158746032646e-05 -0.9999999970136089 7.651578571056102e-05
  outer loop
    vertex -19.503187319915714 -15.491732371605314 83.99965715011884
    vertex -39.999856888873325 -15.492414126099444 78.00091777468519
    vertex -19.502987087945435 -15.492352588610185 77.99891676487606
  endloop
endfacet
facet normal 1.0868158746032646e-05 -0.9999999970136089 7.651578571056102e-05
  outer loop
    vertex -39.999856888873325 -15.492414126099444 78.00091777468519
    vertex -19.503187319915714 -15.491732371605314 83.99965715011884
    vertex -39.99948197633267 -15.4921160930217 84.00113038307258
  endloop
endfacet
facet normal 9.271125397630721e-12 -0.9999999999956042 -2.965101514806035e-06
  outer loop
    vertex -27.502277341484515 30.00373445533576 78.00040901603835
    vertex -40.00024760849389 30.00371666472989 84.00036885245287
    vertex -40.00024760849389 30.00373445533576 78.00033086047243
  endloop
endfacet
facet normal 9.271125397630721e-12 -0.9999999999956042 -2.965101514806035e-06
  outer loop
    vertex -40.00024760849389 30.00371666472989 84.00036885245287
    vertex -27.502277341484515 30.00373445533576 78.00040901603835
    vertex -27.502348112071775 30.00371666472989 84.00036885245287
  endloop
endfacet
facet normal 2.3457951561085132e-06 0.9999999999575626 8.90909511213971e-06
  outer loop
    vertex -45.00024057115477 38.003734454287184 78.00037241326534
    vertex -19.502417411351406 38.003610457993595 84.00017160548833
    vertex -19.502677532853546 38.00373524284813 78.00017161242452
  endloop
endfacet
facet normal 2.3457951561085132e-06 0.9999999999575626 8.90909511213971e-06
  outer loop
    vertex -19.502417411351406 38.003610457993595 84.00017160548833
    vertex -45.00024057115477 38.003734454287184 78.00037241326534
    vertex -45.00024057115477 38.00371666368131 84.00041040524577
  endloop
endfacet
facet normal 5.243265936920169e-05 4.895340044381468e-06 0.999999998613426
  outer loop
    vertex -39.99948197633267 -15.4921160930217 84.00113038307258
    vertex -34.18267118662048 -10.01004710558537 84.00082671938353
    vertex -34.25081953384809 -9.492409016131504 84.00083192775409
  endloop
endfacet
facet normal 5.243265936920169e-05 4.895340044381468e-06 0.999999998613426
  outer loop
    vertex -34.18267118662048 -10.01004710558537 84.00082671938353
    vertex -39.99948197633267 -15.4921160930217 84.00113038307258
    vertex -33.98287034218075 -10.492409014658273 84.00081458908093
  endloop
endfacet
facet normal 5.243265936920169e-05 4.895340044381468e-06 0.999999998613426
  outer loop
    vertex -33.98287034218075 -10.492409014658273 84.00081458908093
    vertex -39.99948197633267 -15.4921160930217 84.00113038307258
    vertex -33.665033097890955 -10.906622576387644 84.00079636350637
  endloop
endfacet
facet normal 5.243265936920169e-05 4.895340044381468e-06 0.999999998613426
  outer loop
    vertex -33.665033097890955 -10.906622576387644 84.00079636350637
    vertex -39.99948197633267 -15.4921160930217 84.00113038307258
    vertex -33.25081953669857 -11.224459821061897 84.00077328470262
  endloop
endfacet
facet normal 5.243265936920169e-05 4.895340044381468e-06 0.999999998613426
  outer loop
    vertex -33.25081953669857 -11.224459821061897 84.00077328470262
    vertex -39.99948197633267 -15.4921160930217 84.00113038307258
    vertex -32.768457628278576 -11.424260665707367 84.00074692545203
  endloop
endfacet
facet normal 5.243265936920169e-05 4.895340044381468e-06 0.999999998613426
  outer loop
    vertex -32.768457628278576 -11.424260665707367 84.00074692545203
    vertex -39.99948197633267 -15.4921160930217 84.00113038307258
    vertex -19.503187319915714 -15.491732371605314 83.99965715011884
  endloop
endfacet
facet normal 5.243265936920169e-05 4.895340044381468e-06 0.999999998613426
  outer loop
    vertex -32.768457628278576 -11.424260665707367 84.00074692545203
    vertex -19.503187319915714 -15.491732371605314 83.99965715011884
    vertex -32.250819539549056 -11.49240901294797 84.00071908209397
  endloop
endfacet
facet normal 5.243265936920169e-05 4.895340044381468e-06 0.999999998613426
  outer loop
    vertex -32.250819539549056 -11.49240901294797 84.00071908209397
    vertex -19.503187319915714 -15.491732371605314 83.99965715011884
    vertex -31.733181450819536 -11.424260665539729 84.00069165210728
  endloop
endfacet
facet normal 5.243265936920169e-05 4.895340044381468e-06 0.999999998613426
  outer loop
    vertex -31.733181450819536 -11.424260665539729 84.00069165210728
    vertex -19.503187319915714 -15.491732371605314 83.99965715011884
    vertex -31.250819542399544 -11.224459820738046 84.00066650480021
  endloop
endfacet
facet normal 5.243265936920169e-05 4.895340044381468e-06 0.999999998613426
  outer loop
    vertex -31.250819542399544 -11.224459820738046 84.00066650480021
    vertex -19.503187319915714 -15.491732371605314 83.99965715011884
    vertex -30.836605981207157 -10.90662257592965 84.00064535392018
  endloop
endfacet
facet normal 5.243265936920169e-05 4.895340044381468e-06 0.999999998613426
  outer loop
    vertex -30.836605981207157 -10.90662257592965 84.00064535392018
    vertex -19.503187319915714 -15.491732371605314 83.99965715011884
    vertex -30.518768736917366 -10.49240901409735 84.00062964086472
  endloop
endfacet
facet normal 5.243265936920169e-05 4.895340044381468e-06 0.999999998613426
  outer loop
    vertex -30.518768736917366 -10.49240901409735 84.00062964086472
    vertex -19.503187319915714 -15.491732371605314 83.99965715011884
    vertex -30.318967892477637 -10.010047104959739 84.00062043645258
  endloop
endfacet
facet normal 5.243265936920169e-05 4.895340044381468e-06 0.999999998613426
  outer loop
    vertex -30.318967892477637 -10.010047104959739 84.00062043645258
    vertex -19.503187319915714 -15.491732371605314 83.99965715011884
    vertex -30.250819545250028 -9.492409015483803 84.00061836794926
  endloop
endfacet
facet normal 5.243265936920169e-05 4.895340044381468e-06 0.999999998613426
  outer loop
    vertex -30.250819545250028 -9.492409015483803 84.00061836794926
    vertex -19.503187319915714 -15.491732371605314 83.99965715011884
    vertex -27.502424424978308 0.003543975261448881 83.99926708033561
  endloop
endfacet
facet normal 5.243265936920169e-05 4.895340044381468e-06 0.999999998613426
  outer loop
    vertex -27.502424424978308 0.003543975261448881 83.99926708033561
    vertex -19.503187319915714 -15.491732371605314 83.99965715011884
    vertex -27.502348112071775 30.00371666472989 84.00036885245287
  endloop
endfacet
facet normal 5.243265936920169e-05 4.895340044381468e-06 0.999999998613426
  outer loop
    vertex -45.00024057115477 38.00371666368131 84.00041040524577
    vertex -40.00024760849389 30.00371666472989 84.00036885245287
    vertex -19.502417411351406 38.003610457993595 84.00017160548833
  endloop
endfacet
facet normal 5.243265936920169e-05 4.895340044381468e-06 0.999999998613426
  outer loop
    vertex -40.00024760849389 30.00371666472989 84.00036885245287
    vertex -45.00024057115477 38.00371666368131 84.00041040524577
    vertex -44.99951760890985 -15.4922656940534 84.00142111767126
  endloop
endfacet
facet normal 5.243265936920169e-05 4.895340044381468e-06 0.999999998613426
  outer loop
    vertex -19.502417411351406 38.003610457993595 84.00017160548833
    vertex -40.00024760849389 30.00371666472989 84.00036885245287
    vertex -27.502348112071775 30.00371666472989 84.00036885245287
  endloop
endfacet
facet normal 5.243265936920169e-05 4.895340044381468e-06 0.999999998613426
  outer loop
    vertex -19.502417411351406 38.003610457993595 84.00017160548833
    vertex -27.502348112071775 30.00371666472989 84.00036885245287
    vertex -19.503187319915714 -15.491732371605314 83.99965715011884
  endloop
endfacet
facet normal 5.243265936920169e-05 4.895340044381468e-06 0.999999998613426
  outer loop
    vertex -19.502417411351406 38.003610457993595 84.00017160548833
    vertex -19.503187319915714 -15.491732371605314 83.99965715011884
    vertex -19.5029275391278 0.003501919315831201 83.9992120249445
  endloop
endfacet
facet normal 5.243265936920169e-05 4.895340044381468e-06 0.999999998613426
  outer loop
    vertex -44.99951760890985 -15.4922656940534 84.00142111767126
    vertex -39.99998748699174 0.0036096714088277174 84.00025269797031
    vertex -40.00024760849389 30.00371666472989 84.00036885245287
  endloop
endfacet
facet normal 5.243265936920169e-05 4.895340044381468e-06 0.999999998613426
  outer loop
    vertex -39.99998748699174 0.0036096714088277174 84.00025269797031
    vertex -44.99951760890985 -15.4922656940534 84.00142111767126
    vertex -39.99948197633267 -15.4921160930217 84.00113038307258
  endloop
endfacet
facet normal 5.243265936920169e-05 4.895340044381468e-06 0.999999998613426
  outer loop
    vertex -39.99998748699174 0.0036096714088277174 84.00025269797031
    vertex -39.99948197633267 -15.4921160930217 84.00113038307258
    vertex -27.502424424978308 0.003543975261448881 83.99926708033561
  endloop
endfacet
facet normal 5.243265936920169e-05 4.895340044381468e-06 0.999999998613426
  outer loop
    vertex -27.502424424978308 0.003543975261448881 83.99926708033561
    vertex -39.99948197633267 -15.4921160930217 84.00113038307258
    vertex -33.98287034218075 -8.492409017517955 84.00082065483863
  endloop
endfacet
facet normal 5.243265936920169e-05 4.895340044381468e-06 0.999999998613426
  outer loop
    vertex -33.98287034218075 -8.492409017517955 84.00082065483863
    vertex -39.99948197633267 -15.4921160930217 84.00113038307258
    vertex -34.18267118662048 -8.974770926655566 84.00082985925077
  endloop
endfacet
facet normal 5.243265936920169e-05 4.895340044381468e-06 0.999999998613426
  outer loop
    vertex -34.18267118662048 -8.974770926655566 84.00082985925077
    vertex -39.99948197633267 -15.4921160930217 84.00113038307258
    vertex -34.25081953384809 -9.492409016131504 84.00083192775409
  endloop
endfacet
facet normal 5.243265936920169e-05 4.895340044381468e-06 0.999999998613426
  outer loop
    vertex -27.502424424978308 0.003543975261448881 83.99926708033561
    vertex -33.98287034218075 -8.492409017517955 84.00082065483863
    vertex -33.665033097890955 -8.078195455685655 84.00080494178317
  endloop
endfacet
facet normal 5.243265936920169e-05 4.895340044381468e-06 0.999999998613426
  outer loop
    vertex -27.502424424978308 0.003543975261448881 83.99926708033561
    vertex -33.665033097890955 -8.078195455685655 84.00080494178317
    vertex -33.25081953669857 -7.760358210877258 84.00078379090314
  endloop
endfacet
facet normal 5.243265936920169e-05 4.895340044381468e-06 0.999999998613426
  outer loop
    vertex -27.502424424978308 0.003543975261448881 83.99926708033561
    vertex -33.25081953669857 -7.760358210877258 84.00078379090314
    vertex -32.768457628278576 -7.560557366075575 84.00075864359607
  endloop
endfacet
facet normal 5.243265936920169e-05 4.895340044381468e-06 0.999999998613426
  outer loop
    vertex -27.502424424978308 0.003543975261448881 83.99926708033561
    vertex -32.768457628278576 -7.560557366075575 84.00075864359607
    vertex -32.250819539549056 -7.4924090186673356 84.00073121360938
  endloop
endfacet
facet normal 5.243265936920169e-05 4.895340044381468e-06 0.999999998613426
  outer loop
    vertex -27.502424424978308 0.003543975261448881 83.99926708033561
    vertex -32.250819539549056 -7.4924090186673356 84.00073121360938
    vertex -31.733181450819536 -7.56055736590794 84.00070337025132
  endloop
endfacet
facet normal 5.243265936920169e-05 4.895340044381468e-06 0.999999998613426
  outer loop
    vertex -27.502424424978308 0.003543975261448881 83.99926708033561
    vertex -31.733181450819536 -7.56055736590794 84.00070337025132
    vertex -31.250819542399544 -7.760358210553408 84.00067701100073
  endloop
endfacet
facet normal 5.243265936920169e-05 4.895340044381468e-06 0.999999998613426
  outer loop
    vertex -27.502424424978308 0.003543975261448881 83.99926708033561
    vertex -31.250819542399544 -7.760358210553408 84.00067701100073
    vertex -30.836605981207157 -8.078195455227663 84.00065393219698
  endloop
endfacet
facet normal 5.243265936920169e-05 4.895340044381468e-06 0.999999998613426
  outer loop
    vertex -27.502424424978308 0.003543975261448881 83.99926708033561
    vertex -30.836605981207157 -8.078195455227663 84.00065393219698
    vertex -30.518768736917366 -8.492409016957032 84.00063570662242
  endloop
endfacet
facet normal 5.243265936920169e-05 4.895340044381468e-06 0.999999998613426
  outer loop
    vertex -27.502424424978308 0.003543975261448881 83.99926708033561
    vertex -30.518768736917366 -8.492409016957032 84.00063570662242
    vertex -30.318967892477637 -8.974770926029937 84.00062357631982
  endloop
endfacet
facet normal 5.243265936920169e-05 4.895340044381468e-06 0.999999998613426
  outer loop
    vertex -27.502424424978308 0.003543975261448881 83.99926708033561
    vertex -30.318967892477637 -8.974770926029937 84.00062357631982
    vertex -30.250819545250028 -9.492409015483803 84.00061836794926
  endloop
endfacet
facet normal -0.9999999998430382 8.057999783298396e-06 1.5779483750469342e-05
  outer loop
    vertex -27.502348112071775 30.00371666472989 84.00036885245287
    vertex -27.502684546480452 0.003668760115979218 77.99926708727182
    vertex -27.502424424978308 0.003543975261448881 83.99926708033561
  endloop
endfacet
facet normal -0.9999999998430382 8.057999783298396e-06 1.5779483750469342e-05
  outer loop
    vertex -27.502684546480452 0.003668760115979218 77.99926708727182
    vertex -27.502348112071775 30.00371666472989 84.00036885245287
    vertex -27.502277341484515 30.00373445533576 78.00040901603835
  endloop
endfacet
facet normal -0.9999999997556646 -4.335428567765393e-06 2.167660307364569e-05
  outer loop
    vertex -40.00024760849389 30.00371666472989 84.00036885245287
    vertex -40.00024760849389 0.0037344562633580547 78.00025270490652
    vertex -39.99998748699174 0.0036096714088277174 84.00025269797031
  endloop
endfacet
facet normal -0.9999999997556646 -4.335428567765393e-06 2.167660307364569e-05
  outer loop
    vertex -40.00024760849389 0.0037344562633580547 78.00025270490652
    vertex -40.00024760849389 30.00371666472989 84.00036885245287
    vertex -40.00024760849389 30.00373445533576 78.00033086047243
  endloop
endfacet
facet normal -0.9999999993590956 -9.365267396963342e-06 3.455576230191651e-05
  outer loop
    vertex -44.99951760890985 -15.4922656940534 84.00142111767126
    vertex -45.00024057115477 38.003734454287184 78.00037241326534
    vertex -44.9998925214505 -15.492563727131143 78.00120850928388
  endloop
endfacet
facet normal -0.9999999993590956 -9.365267396963342e-06 3.455576230191651e-05
  outer loop
    vertex -45.00024057115477 38.003734454287184 78.00037241326534
    vertex -44.99951760890985 -15.4922656940534 84.00142111767126
    vertex -45.00024057115477 38.00371666368131 84.00041040524577
  endloop
endfacet
facet normal -6.025955691842407e-05 2.1305459778492217e-06 -0.9999999981821233
  outer loop
    vertex -44.9998925214505 -15.492563727131143 78.00120850928388
    vertex -40.00024760849389 0.0037344562633580547 78.00025270490652
    vertex -39.999856888873325 -15.492414126099444 78.00091777468519
  endloop
endfacet
facet normal -6.025955691842407e-05 2.1305459778492217e-06 -0.9999999981821233
  outer loop
    vertex -40.00024760849389 0.0037344562633580547 78.00025270490652
    vertex -44.9998925214505 -15.492563727131143 78.00120850928388
    vertex -40.00024760849389 30.00373445533576 78.00033086047243
  endloop
endfacet
facet normal -6.025955691842407e-05 2.1305459778492217e-06 -0.9999999981821233
  outer loop
    vertex -39.999856888873325 -15.492414126099444 78.00091777468519
    vertex -40.00024760849389 0.0037344562633580547 78.00025270490652
    vertex -27.502684546480452 0.003668760115979218 77.99926708727182
  endloop
endfacet
facet normal -6.025955691842407e-05 2.1305459778492217e-06 -0.9999999981821233
  outer loop
    vertex -39.999856888873325 -15.492414126099444 78.00091777468519
    vertex -27.502684546480452 0.003668760115979218 77.99926708727182
    vertex -33.98319066966239 -8.492390820939367 78.00104965905774
  endloop
endfacet
facet normal -6.025955691842407e-05 2.1305459778492217e-06 -0.9999999981821233
  outer loop
    vertex -39.999856888873325 -15.492414126099444 78.00091777468519
    vertex -33.98319066966239 -8.492390820939367 78.00104965905774
    vertex -34.18299151410212 -8.974752730076977 78.00105886346986
  endloop
endfacet
facet normal -6.025955691842407e-05 2.1305459778492217e-06 -0.9999999981821233
  outer loop
    vertex -39.999856888873325 -15.492414126099444 78.00091777468519
    vertex -34.18299151410212 -8.974752730076977 78.00105886346986
    vertex -34.251139861329726 -9.492390819552915 78.0010609319732
  endloop
endfacet
facet normal -6.025955691842407e-05 2.1305459778492217e-06 -0.9999999981821233
  outer loop
    vertex -33.98319066966239 -8.492390820939367 78.00104965905774
    vertex -27.502684546480452 0.003668760115979218 77.99926708727182
    vertex -33.6653534253726 -8.078177259107067 78.00103394600227
  endloop
endfacet
facet normal -6.025955691842407e-05 2.1305459778492217e-06 -0.9999999981821233
  outer loop
    vertex -33.6653534253726 -8.078177259107067 78.00103394600227
    vertex -27.502684546480452 0.003668760115979218 77.99926708727182
    vertex -33.25113986418021 -7.760340014298669 78.00101279512225
  endloop
endfacet
facet normal -6.025955691842407e-05 2.1305459778492217e-06 -0.9999999981821233
  outer loop
    vertex -33.25113986418021 -7.760340014298669 78.00101279512225
    vertex -27.502684546480452 0.003668760115979218 77.99926708727182
    vertex -32.76877795576022 -7.560539169496988 78.00098764781518
  endloop
endfacet
facet normal -6.025955691842407e-05 2.1305459778492217e-06 -0.9999999981821233
  outer loop
    vertex -32.76877795576022 -7.560539169496988 78.00098764781518
    vertex -27.502684546480452 0.003668760115979218 77.99926708727182
    vertex -32.2511398670307 -7.492390822088747 78.00096021782848
  endloop
endfacet
facet normal -6.025955691842407e-05 2.1305459778492217e-06 -0.9999999981821233
  outer loop
    vertex -32.2511398670307 -7.492390822088747 78.00096021782848
    vertex -27.502684546480452 0.003668760115979218 77.99926708727182
    vertex -31.73350177830118 -7.560539169329351 78.00093237447042
  endloop
endfacet
facet normal -6.025955691842407e-05 2.1305459778492217e-06 -0.9999999981821233
  outer loop
    vertex -31.73350177830118 -7.560539169329351 78.00093237447042
    vertex -27.502684546480452 0.003668760115979218 77.99926708727182
    vertex -31.251139869881186 -7.76034001397482 78.00090601521983
  endloop
endfacet
facet normal -6.025955691842407e-05 2.1305459778492217e-06 -0.9999999981821233
  outer loop
    vertex -31.251139869881186 -7.76034001397482 78.00090601521983
    vertex -27.502684546480452 0.003668760115979218 77.99926708727182
    vertex -30.8369263086888 -8.078177258649074 78.00088293641609
  endloop
endfacet
facet normal -6.025955691842407e-05 2.1305459778492217e-06 -0.9999999981821233
  outer loop
    vertex -30.8369263086888 -8.078177258649074 78.00088293641609
    vertex -27.502684546480452 0.003668760115979218 77.99926708727182
    vertex -30.519089064399008 -8.492390820378443 78.00086471084153
  endloop
endfacet
facet normal -6.025955691842407e-05 2.1305459778492217e-06 -0.9999999981821233
  outer loop
    vertex -30.519089064399008 -8.492390820378443 78.00086471084153
    vertex -27.502684546480452 0.003668760115979218 77.99926708727182
    vertex -30.31928821995928 -8.974752729451348 78.00085258053892
  endloop
endfacet
facet normal -6.025955691842407e-05 2.1305459778492217e-06 -0.9999999981821233
  outer loop
    vertex -30.31928821995928 -8.974752729451348 78.00085258053892
    vertex -27.502684546480452 0.003668760115979218 77.99926708727182
    vertex -30.25113987273167 -9.492390818905214 78.00084737216837
  endloop
endfacet
facet normal -6.025955691842407e-05 2.1305459778492217e-06 -0.9999999981821233
  outer loop
    vertex -45.00024057115477 38.003734454287184 78.00037241326534
    vertex -40.00024760849389 30.00373445533576 78.00033086047243
    vertex -44.9998925214505 -15.492563727131143 78.00120850928388
  endloop
endfacet
facet normal -6.025955691842407e-05 2.1305459778492217e-06 -0.9999999981821233
  outer loop
    vertex -40.00024760849389 30.00373445533576 78.00033086047243
    vertex -45.00024057115477 38.003734454287184 78.00037241326534
    vertex -19.502677532853546 38.00373524284813 78.00017161242452
  endloop
endfacet
facet normal -6.025955691842407e-05 2.1305459778492217e-06 -0.9999999981821233
  outer loop
    vertex -40.00024760849389 30.00373445533576 78.00033086047243
    vertex -19.502677532853546 38.00373524284813 78.00017161242452
    vertex -27.502277341484515 30.00373445533576 78.00040901603835
  endloop
endfacet
facet normal -6.025955691842407e-05 2.1305459778492217e-06 -0.9999999981821233
  outer loop
    vertex -27.502277341484515 30.00373445533576 78.00040901603835
    vertex -19.502677532853546 38.00373524284813 78.00017161242452
    vertex -19.50330245166845 0.0032038862380891647 77.99899941655713
  endloop
endfacet
facet normal -6.025955691842407e-05 2.1305459778492217e-06 -0.9999999981821233
  outer loop
    vertex -39.999856888873325 -15.492414126099444 78.00091777468519
    vertex -32.76877795576022 -11.424242469128778 78.00097592967114
    vertex -19.502987087945435 -15.492352588610185 77.99891676487606
  endloop
endfacet
facet normal -6.025955691842407e-05 2.1305459778492217e-06 -0.9999999981821233
  outer loop
    vertex -32.76877795576022 -11.424242469128778 78.00097592967114
    vertex -39.999856888873325 -15.492414126099444 78.00091777468519
    vertex -33.25113986418021 -11.224441624483308 78.00100228892173
  endloop
endfacet
facet normal -6.025955691842407e-05 2.1305459778492217e-06 -0.9999999981821233
  outer loop
    vertex -33.25113986418021 -11.224441624483308 78.00100228892173
    vertex -39.999856888873325 -15.492414126099444 78.00091777468519
    vertex -33.6653534253726 -10.906604379809055 78.00102536772548
  endloop
endfacet
facet normal -6.025955691842407e-05 2.1305459778492217e-06 -0.9999999981821233
  outer loop
    vertex -33.6653534253726 -10.906604379809055 78.00102536772548
    vertex -39.999856888873325 -15.492414126099444 78.00091777468519
    vertex -33.98319066966239 -10.492390818079684 78.00104359330003
  endloop
endfacet
facet normal -6.025955691842407e-05 2.1305459778492217e-06 -0.9999999981821233
  outer loop
    vertex -33.98319066966239 -10.492390818079684 78.00104359330003
    vertex -39.999856888873325 -15.492414126099444 78.00091777468519
    vertex -34.18299151410212 -10.010028909006781 78.00105572360263
  endloop
endfacet
facet normal -6.025955691842407e-05 2.1305459778492217e-06 -0.9999999981821233
  outer loop
    vertex -34.18299151410212 -10.010028909006781 78.00105572360263
    vertex -39.999856888873325 -15.492414126099444 78.00091777468519
    vertex -34.251139861329726 -9.492390819552915 78.0010609319732
  endloop
endfacet
facet normal -6.025955691842407e-05 2.1305459778492217e-06 -0.9999999981821233
  outer loop
    vertex -19.502987087945435 -15.492352588610185 77.99891676487606
    vertex -32.76877795576022 -11.424242469128778 78.00097592967114
    vertex -32.2511398670307 -11.492390816369381 78.00094808631307
  endloop
endfacet
facet normal -6.025955691842407e-05 2.1305459778492217e-06 -0.9999999981821233
  outer loop
    vertex -19.502987087945435 -15.492352588610185 77.99891676487606
    vertex -32.2511398670307 -11.492390816369381 78.00094808631307
    vertex -31.73350177830118 -11.42424246896114 78.00092065632637
  endloop
endfacet
facet normal -6.025955691842407e-05 2.1305459778492217e-06 -0.9999999981821233
  outer loop
    vertex -19.502987087945435 -15.492352588610185 77.99891676487606
    vertex -31.73350177830118 -11.42424246896114 78.00092065632637
    vertex -31.251139869881186 -11.224441624159457 78.0008955090193
  endloop
endfacet
facet normal -6.025955691842407e-05 2.1305459778492217e-06 -0.9999999981821233
  outer loop
    vertex -19.502987087945435 -15.492352588610185 77.99891676487606
    vertex -31.251139869881186 -11.224441624159457 78.0008955090193
    vertex -30.8369263086888 -10.90660437935106 78.00087435813928
  endloop
endfacet
facet normal -6.025955691842407e-05 2.1305459778492217e-06 -0.9999999981821233
  outer loop
    vertex -19.502987087945435 -15.492352588610185 77.99891676487606
    vertex -30.8369263086888 -10.90660437935106 78.00087435813928
    vertex -30.519089064399008 -10.49239081751876 78.00085864508382
  endloop
endfacet
facet normal -6.025955691842407e-05 2.1305459778492217e-06 -0.9999999981821233
  outer loop
    vertex -19.502987087945435 -15.492352588610185 77.99891676487606
    vertex -30.519089064399008 -10.49239081751876 78.00085864508382
    vertex -30.31928821995928 -10.01002890838115 78.00084944067169
  endloop
endfacet
facet normal -6.025955691842407e-05 2.1305459778492217e-06 -0.9999999981821233
  outer loop
    vertex -19.502987087945435 -15.492352588610185 77.99891676487606
    vertex -30.31928821995928 -10.01002890838115 78.00084944067169
    vertex -30.25113987273167 -9.492390818905214 78.00084737216837
  endloop
endfacet
facet normal -6.025955691842407e-05 2.1305459778492217e-06 -0.9999999981821233
  outer loop
    vertex -19.502987087945435 -15.492352588610185 77.99891676487606
    vertex -30.25113987273167 -9.492390818905214 78.00084737216837
    vertex -27.502684546480452 0.003668760115979218 77.99926708727182
  endloop
endfacet
facet normal -6.025955691842407e-05 2.1305459778492217e-06 -0.9999999981821233
  outer loop
    vertex -19.502987087945435 -15.492352588610185 77.99891676487606
    vertex -27.502684546480452 0.003668760115979218 77.99926708727182
    vertex -27.502277341484515 30.00373445533576 78.00040901603835
  endloop
endfacet
facet normal -6.025955691842407e-05 2.1305459778492217e-06 -0.9999999981821233
  outer loop
    vertex -19.502987087945435 -15.492352588610185 77.99891676487606
    vertex -27.502277341484515 30.00373445533576 78.00040901603835
    vertex -19.50330245166845 0.0032038862380891647 77.99899941655713
  endloop
endfacet
facet normal 2.992288111668885e-05 -0.9999999983188284 4.9668549804728525e-05
  outer loop
    vertex -39.99948197633267 -15.4921160930217 84.00113038307258
    vertex -44.9998925214505 -15.492563727131143 78.00120850928388
    vertex -39.999856888873325 -15.492414126099444 78.00091777468519
  endloop
endfacet
facet normal 2.992288111668885e-05 -0.9999999983188284 4.9668549804728525e-05
  outer loop
    vertex -44.9998925214505 -15.492563727131143 78.00120850928388
    vertex -39.99948197633267 -15.4921160930217 84.00113038307258
    vertex -44.99951760890985 -15.4922656940534 84.00142111767126
  endloop
endfacet
facet normal 0.9238795311945344 -0.3826834322137282 -5.048651572365955e-05
  outer loop
    vertex -34.18299151410212 -8.974752730076977 78.00105886346986
    vertex -33.98287034218075 -8.492409017517955 84.00082065483863
    vertex -34.18267118662048 -8.974770926655566 84.00082985925077
  endloop
endfacet
facet normal 0.9238795311945344 -0.3826834322137282 -5.048651572365955e-05
  outer loop
    vertex -33.98287034218075 -8.492409017517955 84.00082065483863
    vertex -34.18299151410212 -8.974752730076977 78.00105886346986
    vertex -33.98319066966239 -8.492390820939367 78.00104965905774
  endloop
endfacet
facet normal 0.7933533391605121 -0.6087614288774588 -4.420339585532918e-05
  outer loop
    vertex -33.98319066966239 -8.492390820939367 78.00104965905774
    vertex -33.665033097890955 -8.078195455685655 84.00080494178317
    vertex -33.98287034218075 -8.492409017517955 84.00082065483863
  endloop
endfacet
facet normal 0.7933533391605121 -0.6087614288774588 -4.420339585532918e-05
  outer loop
    vertex -33.665033097890955 -8.078195455685655 84.00080494178317
    vertex -33.98319066966239 -8.492390820939367 78.00104965905774
    vertex -33.6653534253726 -8.078177259107067 78.00103394600227
  endloop
endfacet
facet normal 0.6087614281410879 -0.7933533401890123 -3.4907887609023075e-05
  outer loop
    vertex -33.25081953669857 -7.760358210877258 84.00078379090314
    vertex -33.6653534253726 -8.078177259107067 78.00103394600227
    vertex -33.25113986418021 -7.760340014298669 78.00101279512225
  endloop
endfacet
facet normal 0.6087614281410879 -0.7933533401890123 -3.4907887609023075e-05
  outer loop
    vertex -33.6653534253726 -8.078177259107067 78.00103394600227
    vertex -33.25081953669857 -7.760358210877258 84.00078379090314
    vertex -33.665033097890955 -8.078195455685655 84.00080494178317
  endloop
endfacet
facet normal 0.3826834318196713 -0.9238795324450723 -2.3233464510066932e-05
  outer loop
    vertex -32.768457628278576 -7.560557366075575 84.00075864359607
    vertex -33.25113986418021 -7.760340014298669 78.00101279512225
    vertex -32.76877795576022 -7.560539169496988 78.00098764781518
  endloop
endfacet
facet normal 0.3826834318196713 -0.9238795324450723 -2.3233464510066932e-05
  outer loop
    vertex -33.25113986418021 -7.760340014298669 78.00101279512225
    vertex -32.768457628278576 -7.560557366075575 84.00075864359607
    vertex -33.25081953669857 -7.760358210877258 84.00078379090314
  endloop
endfacet
facet normal 0.13052619203402052 -0.991444861348115 -9.975719199959443e-06
  outer loop
    vertex -32.250819539549056 -7.4924090186673356 84.00073121360938
    vertex -32.76877795576022 -7.560539169496988 78.00098764781518
    vertex -32.2511398670307 -7.492390822088747 78.00096021782848
  endloop
endfacet
facet normal 0.13052619203402052 -0.991444861348115 -9.975719199959443e-06
  outer loop
    vertex -32.76877795576022 -7.560539169496988 78.00098764781518
    vertex -32.250819539549056 -7.4924090186673356 84.00073121360938
    vertex -32.768457628278576 -7.560557366075575 84.00075864359607
  endloop
endfacet
facet normal -0.1305261920340223 -0.9914448613903858 3.9618548878544145e-06
  outer loop
    vertex -31.733181450819536 -7.56055736590794 84.00070337025132
    vertex -32.2511398670307 -7.492390822088747 78.00096021782848
    vertex -31.73350177830118 -7.560539169329351 78.00093237447042
  endloop
endfacet
facet normal -0.1305261920340223 -0.9914448613903858 3.9618548878544145e-06
  outer loop
    vertex -32.2511398670307 -7.492390822088747 78.00096021782848
    vertex -31.733181450819536 -7.56055736590794 84.00070337025132
    vertex -32.250819539549056 -7.4924090186673356 84.00073121360938
  endloop
endfacet
facet normal -0.3826834318196707 -0.9238795325690047 1.7629435112561558e-05
  outer loop
    vertex -31.250819542399544 -7.760358210553408 84.00067701100073
    vertex -31.73350177830118 -7.560539169329351 78.00093237447042
    vertex -31.251139869881186 -7.76034001397482 78.00090601521983
  endloop
endfacet
facet normal -0.3826834318196707 -0.9238795325690047 1.7629435112561558e-05
  outer loop
    vertex -31.73350177830118 -7.560539169329351 78.00093237447042
    vertex -31.250819542399544 -7.760358210553408 84.00067701100073
    vertex -31.733181450819536 -7.56055736590794 84.00070337025132
  endloop
endfacet
facet normal -0.6087614281410875 -0.7933533403861603 3.0095598468249684e-05
  outer loop
    vertex -30.836605981207157 -8.078195455227663 84.00065393219698
    vertex -31.251139869881186 -7.76034001397482 78.00090601521983
    vertex -30.8369263086888 -8.078177258649074 78.00088293641609
  endloop
endfacet
facet normal -0.6087614281410875 -0.7933533403861603 3.0095598468249684e-05
  outer loop
    vertex -31.251139869881186 -7.76034001397482 78.00090601521983
    vertex -30.836605981207157 -8.078195455227663 84.00065393219698
    vertex -31.250819542399544 -7.760358210553408 84.00067701100073
  endloop
endfacet
facet normal -0.7933533391605133 -0.608761429134385 4.0510796523582514e-05
  outer loop
    vertex -30.836605981207157 -8.078195455227663 84.00065393219698
    vertex -30.519089064399008 -8.492390820378443 78.00086471084153
    vertex -30.518768736917366 -8.492409016957032 84.00063570662242
  endloop
endfacet
facet normal -0.7933533391605133 -0.608761429134385 4.0510796523582514e-05
  outer loop
    vertex -30.519089064399008 -8.492390820378443 78.00086471084153
    vertex -30.836605981207157 -8.078195455227663 84.00065393219698
    vertex -30.8369263086888 -8.078177258649074 78.00088293641609
  endloop
endfacet
facet normal -0.9238795311945346 -0.38268343251292697 4.8165250743184954e-05
  outer loop
    vertex -30.518768736917366 -8.492409016957032 84.00063570662242
    vertex -30.31928821995928 -8.974752729451348 78.00085258053892
    vertex -30.318967892477637 -8.974770926029937 84.00062357631982
  endloop
endfacet
facet normal -0.9238795311945346 -0.38268343251292697 4.8165250743184954e-05
  outer loop
    vertex -30.31928821995928 -8.974752729451348 78.00085258053892
    vertex -30.518768736917366 -8.492409016957032 84.00063570662242
    vertex -30.519089064399008 -8.492390820378443 78.00086471084153
  endloop
endfacet
facet normal -0.9914448599607601 -0.1305261923799909 5.2537322721477236e-05
  outer loop
    vertex -30.318967892477637 -8.974770926029937 84.00062357631982
    vertex -30.25113987273167 -9.492390818905214 78.00084737216837
    vertex -30.250819545250028 -9.492409015483803 84.00061836794926
  endloop
endfacet
facet normal -0.9914448599607601 -0.1305261923799909 5.2537322721477236e-05
  outer loop
    vertex -30.25113987273167 -9.492390818905214 78.00084737216837
    vertex -30.318967892477637 -8.974770926029937 84.00062357631982
    vertex -30.31928821995928 -8.974752729451348 78.00085258053892
  endloop
endfacet
facet normal -0.9914448599607604 0.13052619205891086 5.332906297833447e-05
  outer loop
    vertex -30.250819545250028 -9.492409015483803 84.00061836794926
    vertex -30.31928821995928 -10.01002890838115 78.00084944067169
    vertex -30.318967892477637 -10.010047104959739 84.00062043645258
  endloop
endfacet
facet normal -0.9914448599607604 0.13052619205891086 5.332906297833447e-05
  outer loop
    vertex -30.31928821995928 -10.01002890838115 78.00084944067169
    vertex -30.250819545250028 -9.492409015483803 84.00061836794926
    vertex -30.25113987273167 -9.492390818905214 78.00084737216837
  endloop
endfacet
facet normal -0.9238795311945349 0.38268343221372725 5.04865157236581e-05
  outer loop
    vertex -30.318967892477637 -10.010047104959739 84.00062043645258
    vertex -30.519089064399008 -10.49239081751876 78.00085864508382
    vertex -30.518768736917366 -10.49240901409735 84.00062964086472
  endloop
endfacet
facet normal -0.9238795311945349 0.38268343221372725 5.04865157236581e-05
  outer loop
    vertex -30.519089064399008 -10.49239081751876 78.00085864508382
    vertex -30.318967892477637 -10.010047104959739 84.00062043645258
    vertex -30.31928821995928 -10.01002890838115 78.00084944067169
  endloop
endfacet
facet normal -0.7933533391605122 0.6087614288774588 4.420339585533156e-05
  outer loop
    vertex -30.518768736917366 -10.49240901409735 84.00062964086472
    vertex -30.8369263086888 -10.90660437935106 78.00087435813928
    vertex -30.836605981207157 -10.90662257592965 84.00064535392018
  endloop
endfacet
facet normal -0.7933533391605122 0.6087614288774588 4.420339585533156e-05
  outer loop
    vertex -30.8369263086888 -10.90660437935106 78.00087435813928
    vertex -30.518768736917366 -10.49240901409735 84.00062964086472
    vertex -30.519089064399008 -10.49239081751876 78.00085864508382
  endloop
endfacet
facet normal -0.6087614281410864 0.7933533401890136 3.490788760902335e-05
  outer loop
    vertex -31.251139869881186 -11.224441624159457 78.0008955090193
    vertex -30.836605981207157 -10.90662257592965 84.00064535392018
    vertex -30.8369263086888 -10.90660437935106 78.00087435813928
  endloop
endfacet
facet normal -0.6087614281410864 0.7933533401890136 3.490788760902335e-05
  outer loop
    vertex -30.836605981207157 -10.90662257592965 84.00064535392018
    vertex -31.251139869881186 -11.224441624159457 78.0008955090193
    vertex -31.250819542399544 -11.224459820738046 84.00066650480021
  endloop
endfacet
facet normal -0.3826834318196724 0.9238795324450719 2.3233464510175603e-05
  outer loop
    vertex -31.73350177830118 -11.42424246896114 78.00092065632637
    vertex -31.250819542399544 -11.224459820738046 84.00066650480021
    vertex -31.251139869881186 -11.224441624159457 78.0008955090193
  endloop
endfacet
facet normal -0.3826834318196724 0.9238795324450719 2.3233464510175603e-05
  outer loop
    vertex -31.250819542399544 -11.224459820738046 84.00066650480021
    vertex -31.73350177830118 -11.42424246896114 78.00092065632637
    vertex -31.733181450819536 -11.424260665539729 84.00069165210728
  endloop
endfacet
facet normal -0.13052619203401922 0.9914448613481153 9.975719200075928e-06
  outer loop
    vertex -32.2511398670307 -11.492390816369381 78.00094808631307
    vertex -31.733181450819536 -11.424260665539729 84.00069165210728
    vertex -31.73350177830118 -11.42424246896114 78.00092065632637
  endloop
endfacet
facet normal -0.13052619203401922 0.9914448613481153 9.975719200075928e-06
  outer loop
    vertex -31.733181450819536 -11.424260665539729 84.00069165210728
    vertex -32.2511398670307 -11.492390816369381 78.00094808631307
    vertex -32.250819539549056 -11.49240901294797 84.00071908209397
  endloop
endfacet
facet normal 0.13052619203401966 0.9914448613903861 -3.961854887854272e-06
  outer loop
    vertex -32.76877795576022 -11.424242469128778 78.00097592967114
    vertex -32.250819539549056 -11.49240901294797 84.00071908209397
    vertex -32.2511398670307 -11.492390816369381 78.00094808631307
  endloop
endfacet
facet normal 0.13052619203401966 0.9914448613903861 -3.961854887854272e-06
  outer loop
    vertex -32.250819539549056 -11.49240901294797 84.00071908209397
    vertex -32.76877795576022 -11.424242469128778 78.00097592967114
    vertex -32.768457628278576 -11.424260665707367 84.00074692545203
  endloop
endfacet
facet normal 0.3826834318196719 0.9238795325690043 -1.7629435112453012e-05
  outer loop
    vertex -33.25113986418021 -11.224441624483308 78.00100228892173
    vertex -32.768457628278576 -11.424260665707367 84.00074692545203
    vertex -32.76877795576022 -11.424242469128778 78.00097592967114
  endloop
endfacet
facet normal 0.3826834318196719 0.9238795325690043 -1.7629435112453012e-05
  outer loop
    vertex -32.768457628278576 -11.424260665707367 84.00074692545203
    vertex -33.25113986418021 -11.224441624483308 78.00100228892173
    vertex -33.25081953669857 -11.224459821061897 84.00077328470262
  endloop
endfacet
facet normal 0.6087614281410866 0.7933533403861611 -3.009559846815713e-05
  outer loop
    vertex -33.6653534253726 -10.906604379809055 78.00102536772548
    vertex -33.25081953669857 -11.224459821061897 84.00077328470262
    vertex -33.25113986418021 -11.224441624483308 78.00100228892173
  endloop
endfacet
facet normal 0.6087614281410866 0.7933533403861611 -3.009559846815713e-05
  outer loop
    vertex -33.25081953669857 -11.224459821061897 84.00077328470262
    vertex -33.6653534253726 -10.906604379809055 78.00102536772548
    vertex -33.665033097890955 -10.906622576387644 84.00079636350637
  endloop
endfacet
facet normal 0.7933533391605133 0.608761429134385 -4.051079652358252e-05
  outer loop
    vertex -33.6653534253726 -10.906604379809055 78.00102536772548
    vertex -33.98287034218075 -10.492409014658273 84.00081458908093
    vertex -33.665033097890955 -10.906622576387644 84.00079636350637
  endloop
endfacet
facet normal 0.7933533391605133 0.608761429134385 -4.051079652358252e-05
  outer loop
    vertex -33.98287034218075 -10.492409014658273 84.00081458908093
    vertex -33.6653534253726 -10.906604379809055 78.00102536772548
    vertex -33.98319066966239 -10.492390818079684 78.00104359330003
  endloop
endfacet
facet normal 0.9238795311945346 0.38268343251292697 -4.8165250743184954e-05
  outer loop
    vertex -33.98319066966239 -10.492390818079684 78.00104359330003
    vertex -34.18267118662048 -10.01004710558537 84.00082671938353
    vertex -33.98287034218075 -10.492409014658273 84.00081458908093
  endloop
endfacet
facet normal 0.9238795311945346 0.38268343251292697 -4.8165250743184954e-05
  outer loop
    vertex -34.18267118662048 -10.01004710558537 84.00082671938353
    vertex -33.98319066966239 -10.492390818079684 78.00104359330003
    vertex -34.18299151410212 -10.010028909006781 78.00105572360263
  endloop
endfacet
facet normal 0.9914448599607601 0.1305261923799909 -5.2537322721477236e-05
  outer loop
    vertex -34.18299151410212 -10.010028909006781 78.00105572360263
    vertex -34.25081953384809 -9.492409016131504 84.00083192775409
    vertex -34.18267118662048 -10.01004710558537 84.00082671938353
  endloop
endfacet
facet normal 0.9914448599607601 0.1305261923799909 -5.2537322721477236e-05
  outer loop
    vertex -34.25081953384809 -9.492409016131504 84.00083192775409
    vertex -34.18299151410212 -10.010028909006781 78.00105572360263
    vertex -34.251139861329726 -9.492390819552915 78.0010609319732
  endloop
endfacet
facet normal 0.9914448599607604 -0.1305261920589105 -5.332906297833447e-05
  outer loop
    vertex -34.251139861329726 -9.492390819552915 78.0010609319732
    vertex -34.18267118662048 -8.974770926655566 84.00082985925077
    vertex -34.25081953384809 -9.492409016131504 84.00083192775409
  endloop
endfacet
facet normal 0.9914448599607604 -0.1305261920589105 -5.332906297833447e-05
  outer loop
    vertex -34.18267118662048 -8.974770926655566 84.00082985925077
    vertex -34.251139861329726 -9.492390819552915 78.0010609319732
    vertex -34.18299151410212 -8.974752730076977 78.00105886346986
  endloop
endfacet
endsolid Головка-крепление-разъема
