solid Эксперимент-Алюм-Узел
facet normal 0.0 1.0 0.0
  outer loop
    vertex 8.499999999999996 18.0 10.0
    vertex 48.49999999999999 18.0 0.0
    vertex 8.499999999999996 18.0 0.0
  endloop
endfacet
facet normal 0.0 1.0 0.0
  outer loop
    vertex 48.49999999999999 18.0 0.0
    vertex 8.499999999999996 18.0 10.0
    vertex 48.49999999999999 18.0 10.0
  endloop
endfacet
facet normal -1.0 0.0 0.0
  outer loop
    vertex 0.0 8.999999999999998 25.0
    vertex 0.0 0.0 0.0
    vertex 0.0 0.0 25.0
  endloop
endfacet
facet normal -1.0 0.0 0.0
  outer loop
    vertex 0.0 0.0 0.0
    vertex 0.0 8.999999999999998 25.0
    vertex 0.0 8.999999999999998 0.0
  endloop
endfacet
facet normal -1.0 0.0 0.0
  outer loop
    vertex 8.499999999999996 18.0 10.0
    vertex 8.499999999999996 8.999999999999998 0.0
    vertex 8.499999999999996 8.999999999999998 10.0
  endloop
endfacet
facet normal -1.0 0.0 0.0
  outer loop
    vertex 8.499999999999996 8.999999999999998 0.0
    vertex 8.499999999999996 18.0 10.0
    vertex 8.499999999999996 18.0 0.0
  endloop
endfacet
facet normal 0.0 0.0 -1.0
  outer loop
    vertex 48.49999999999999 18.0 0.0
    vertex 8.499999999999996 8.999999999999998 0.0
    vertex 8.499999999999996 18.0 0.0
  endloop
endfacet
facet normal 0.0 0.0 -1.0
  outer loop
    vertex 8.499999999999996 8.999999999999998 0.0
    vertex 48.49999999999999 18.0 0.0
    vertex 27.46472381958993 12.863703305156271 0.0
  endloop
endfacet
facet normal 0.0 0.0 -1.0
  outer loop
    vertex 8.499999999999996 8.999999999999998 0.0
    vertex 27.46472381958993 12.863703305156271 0.0
    vertex 26.500000000000014 12.464101615137752 0.0
  endloop
endfacet
facet normal 0.0 0.0 -1.0
  outer loop
    vertex 8.499999999999996 8.999999999999998 0.0
    vertex 26.500000000000014 12.464101615137752 0.0
    vertex 25.671572875253823 11.82842712474619 0.0
  endloop
endfacet
facet normal 0.0 0.0 -1.0
  outer loop
    vertex 8.499999999999996 8.999999999999998 0.0
    vertex 25.671572875253823 11.82842712474619 0.0
    vertex 25.03589838486226 10.999999999999996 0.0
  endloop
endfacet
facet normal 0.0 0.0 -1.0
  outer loop
    vertex 8.499999999999996 8.999999999999998 0.0
    vertex 25.03589838486226 10.999999999999996 0.0
    vertex 24.636296694843743 10.035276180410081 0.0
  endloop
endfacet
facet normal 0.0 0.0 -1.0
  outer loop
    vertex 8.499999999999996 8.999999999999998 0.0
    vertex 24.636296694843743 10.035276180410081 0.0
    vertex 24.500000000000018 8.999999999999998 0.0
  endloop
endfacet
facet normal 0.0 0.0 -1.0
  outer loop
    vertex 27.46472381958993 12.863703305156271 0.0
    vertex 48.49999999999999 18.0 0.0
    vertex 28.500000000000014 12.999999999999998 0.0
  endloop
endfacet
facet normal 0.0 0.0 -1.0
  outer loop
    vertex 28.500000000000014 12.999999999999998 0.0
    vertex 48.49999999999999 18.0 0.0
    vertex 29.535276180410094 12.863703305156271 0.0
  endloop
endfacet
facet normal 0.0 0.0 -1.0
  outer loop
    vertex 29.535276180410094 12.863703305156271 0.0
    vertex 48.49999999999999 18.0 0.0
    vertex 30.50000000000001 12.464101615137753 0.0
  endloop
endfacet
facet normal 0.0 0.0 -1.0
  outer loop
    vertex 30.50000000000001 12.464101615137753 0.0
    vertex 48.49999999999999 18.0 0.0
    vertex 31.328427124746202 11.82842712474619 0.0
  endloop
endfacet
facet normal 0.0 0.0 -1.0
  outer loop
    vertex 31.328427124746202 11.82842712474619 0.0
    vertex 48.49999999999999 18.0 0.0
    vertex 31.96410161513777 11.0 0.0
  endloop
endfacet
facet normal 0.0 0.0 -1.0
  outer loop
    vertex 31.96410161513777 11.0 0.0
    vertex 48.49999999999999 18.0 0.0
    vertex 32.363703305156285 10.035276180410085 0.0
  endloop
endfacet
facet normal 0.0 0.0 -1.0
  outer loop
    vertex 32.363703305156285 10.035276180410085 0.0
    vertex 48.49999999999999 18.0 0.0
    vertex 32.500000000000014 9.0 0.0
  endloop
endfacet
facet normal 0.0 0.0 -1.0
  outer loop
    vertex 8.499999999999996 8.999999999999998 0.0
    vertex 0.0 0.0 0.0
    vertex 0.0 8.999999999999998 0.0
  endloop
endfacet
facet normal 0.0 0.0 -1.0
  outer loop
    vertex 0.0 0.0 0.0
    vertex 8.499999999999996 8.999999999999998 0.0
    vertex 27.46472381958993 5.136296694843727 0.0
  endloop
endfacet
facet normal 0.0 0.0 -1.0
  outer loop
    vertex 0.0 0.0 0.0
    vertex 27.46472381958993 5.136296694843727 0.0
    vertex 57.00000000000003 0.0 0.0
  endloop
endfacet
facet normal 0.0 0.0 -1.0
  outer loop
    vertex 27.46472381958993 5.136296694843727 0.0
    vertex 8.499999999999996 8.999999999999998 0.0
    vertex 26.500000000000014 5.535898384862245 0.0
  endloop
endfacet
facet normal 0.0 0.0 -1.0
  outer loop
    vertex 26.500000000000014 5.535898384862245 0.0
    vertex 8.499999999999996 8.999999999999998 0.0
    vertex 25.671572875253823 6.171572875253809 0.0
  endloop
endfacet
facet normal 0.0 0.0 -1.0
  outer loop
    vertex 25.671572875253823 6.171572875253809 0.0
    vertex 8.499999999999996 8.999999999999998 0.0
    vertex 25.03589838486226 6.999999999999998 0.0
  endloop
endfacet
facet normal 0.0 0.0 -1.0
  outer loop
    vertex 25.03589838486226 6.999999999999998 0.0
    vertex 8.499999999999996 8.999999999999998 0.0
    vertex 24.636296694843743 7.964723819589915 0.0
  endloop
endfacet
facet normal 0.0 0.0 -1.0
  outer loop
    vertex 24.636296694843743 7.964723819589915 0.0
    vertex 8.499999999999996 8.999999999999998 0.0
    vertex 24.500000000000018 8.999999999999998 0.0
  endloop
endfacet
facet normal 0.0 0.0 -1.0
  outer loop
    vertex 57.00000000000003 0.0 0.0
    vertex 27.46472381958993 5.136296694843727 0.0
    vertex 28.500000000000014 5.0 0.0
  endloop
endfacet
facet normal 0.0 0.0 -1.0
  outer loop
    vertex 57.00000000000003 0.0 0.0
    vertex 28.500000000000014 5.0 0.0
    vertex 29.5352761804101 5.136296694843728 0.0
  endloop
endfacet
facet normal 0.0 0.0 -1.0
  outer loop
    vertex 57.00000000000003 0.0 0.0
    vertex 29.5352761804101 5.136296694843728 0.0
    vertex 30.500000000000018 5.5358983848622465 0.0
  endloop
endfacet
facet normal 0.0 0.0 -1.0
  outer loop
    vertex 57.00000000000003 0.0 0.0
    vertex 30.500000000000018 5.5358983848622465 0.0
    vertex 31.328427124746206 6.17157287525381 0.0
  endloop
endfacet
facet normal 0.0 0.0 -1.0
  outer loop
    vertex 57.00000000000003 0.0 0.0
    vertex 31.328427124746206 6.17157287525381 0.0
    vertex 31.96410161513777 7.000000000000003 0.0
  endloop
endfacet
facet normal 0.0 0.0 -1.0
  outer loop
    vertex 57.00000000000003 0.0 0.0
    vertex 31.96410161513777 7.000000000000003 0.0
    vertex 32.363703305156285 7.964723819589918 0.0
  endloop
endfacet
facet normal 0.0 0.0 -1.0
  outer loop
    vertex 57.00000000000003 0.0 0.0
    vertex 32.363703305156285 7.964723819589918 0.0
    vertex 32.500000000000014 9.0 0.0
  endloop
endfacet
facet normal 0.0 0.0 -1.0
  outer loop
    vertex 57.00000000000003 0.0 0.0
    vertex 32.500000000000014 9.0 0.0
    vertex 48.49999999999999 8.999999999999998 0.0
  endloop
endfacet
facet normal 0.0 0.0 -1.0
  outer loop
    vertex 48.49999999999999 8.999999999999998 0.0
    vertex 32.500000000000014 9.0 0.0
    vertex 48.49999999999999 18.0 0.0
  endloop
endfacet
facet normal 0.0 0.0 -1.0
  outer loop
    vertex 57.00000000000003 0.0 0.0
    vertex 48.49999999999999 8.999999999999998 0.0
    vertex 57.00000000000003 8.999999999999998 0.0
  endloop
endfacet
facet normal -0.0 -0.0 1.0
  outer loop
    vertex 20.400000000000016 8.999999999999998 10.0
    vertex 8.499999999999996 18.0 10.0
    vertex 8.499999999999996 8.999999999999998 10.0
  endloop
endfacet
facet normal -0.0 -0.0 1.0
  outer loop
    vertex 8.499999999999996 18.0 10.0
    vertex 20.400000000000016 8.999999999999998 10.0
    vertex 20.67600080705856 11.096434265330416 10.0
  endloop
endfacet
facet normal -0.0 -0.0 1.0
  outer loop
    vertex 8.499999999999996 18.0 10.0
    vertex 20.67600080705856 11.096434265330416 10.0
    vertex 21.485194229346064 13.049999999999995 10.0
  endloop
endfacet
facet normal -0.0 -0.0 1.0
  outer loop
    vertex 8.499999999999996 18.0 10.0
    vertex 21.485194229346064 13.049999999999995 10.0
    vertex 22.77243507238898 14.727564927611033 10.0
  endloop
endfacet
facet normal -0.0 -0.0 1.0
  outer loop
    vertex 8.499999999999996 18.0 10.0
    vertex 22.77243507238898 14.727564927611033 10.0
    vertex 24.45000000000001 16.014805770653947 10.0
  endloop
endfacet
facet normal -0.0 -0.0 1.0
  outer loop
    vertex 8.499999999999996 18.0 10.0
    vertex 24.45000000000001 16.014805770653947 10.0
    vertex 26.4035657346696 16.82399919294145 10.0
  endloop
endfacet
facet normal -0.0 -0.0 1.0
  outer loop
    vertex 8.499999999999996 18.0 10.0
    vertex 26.4035657346696 16.82399919294145 10.0
    vertex 28.500000000000014 17.099999999999998 10.0
  endloop
endfacet
facet normal -0.0 -0.0 1.0
  outer loop
    vertex 8.499999999999996 18.0 10.0
    vertex 28.500000000000014 17.099999999999998 10.0
    vertex 48.49999999999999 18.0 10.0
  endloop
endfacet
facet normal -0.0 -0.0 1.0
  outer loop
    vertex 48.49999999999999 18.0 10.0
    vertex 28.500000000000014 17.099999999999998 10.0
    vertex 30.59643426533043 16.823999192941454 10.0
  endloop
endfacet
facet normal -0.0 -0.0 1.0
  outer loop
    vertex 48.49999999999999 18.0 10.0
    vertex 30.59643426533043 16.823999192941454 10.0
    vertex 32.55000000000001 16.014805770653954 10.0
  endloop
endfacet
facet normal -0.0 -0.0 1.0
  outer loop
    vertex 48.49999999999999 18.0 10.0
    vertex 32.55000000000001 16.014805770653954 10.0
    vertex 34.22756492761104 14.727564927611034 10.0
  endloop
endfacet
facet normal -0.0 -0.0 1.0
  outer loop
    vertex 48.49999999999999 18.0 10.0
    vertex 34.22756492761104 14.727564927611034 10.0
    vertex 35.514805770653965 13.05 10.0
  endloop
endfacet
facet normal -0.0 -0.0 1.0
  outer loop
    vertex 48.49999999999999 18.0 10.0
    vertex 35.514805770653965 13.05 10.0
    vertex 36.32399919294147 11.096434265330423 10.0
  endloop
endfacet
facet normal -0.0 -0.0 1.0
  outer loop
    vertex 48.49999999999999 18.0 10.0
    vertex 36.32399919294147 11.096434265330423 10.0
    vertex 36.60000000000001 9.0 10.0
  endloop
endfacet
facet normal -0.0 -0.0 1.0
  outer loop
    vertex 48.49999999999999 18.0 10.0
    vertex 36.60000000000001 9.0 10.0
    vertex 48.49999999999999 8.999999999999998 10.0
  endloop
endfacet
facet normal 1.0 -0.0 -0.0
  outer loop
    vertex 48.49999999999999 18.0 0.0
    vertex 48.49999999999999 8.999999999999998 10.0
    vertex 48.49999999999999 8.999999999999998 0.0
  endloop
endfacet
facet normal 1.0 -0.0 -0.0
  outer loop
    vertex 48.49999999999999 8.999999999999998 10.0
    vertex 48.49999999999999 18.0 0.0
    vertex 48.49999999999999 18.0 10.0
  endloop
endfacet
facet normal 1.0 -0.0 -0.0
  outer loop
    vertex 57.00000000000003 8.999999999999998 0.0
    vertex 57.00000000000003 0.0 25.0
    vertex 57.00000000000003 0.0 0.0
  endloop
endfacet
facet normal 1.0 -0.0 -0.0
  outer loop
    vertex 57.00000000000003 0.0 25.0
    vertex 57.00000000000003 8.999999999999998 0.0
    vertex 57.00000000000003 8.999999999999998 25.0
  endloop
endfacet
facet normal 6.823242699835366e-17 1.0 -2.1122025960036666e-18
  outer loop
    vertex 36.60000000000001 9.0 20.0
    vertex 48.49999999999999 8.999999999999998 10.0
    vertex 36.60000000000001 9.0 10.0
  endloop
endfacet
facet normal 6.823242699835366e-17 1.0 -2.1122025960036666e-18
  outer loop
    vertex 48.49999999999999 8.999999999999998 10.0
    vertex 57.00000000000003 8.999999999999998 0.0
    vertex 48.49999999999999 8.999999999999998 0.0
  endloop
endfacet
facet normal 6.823242699835366e-17 1.0 -2.1122025960036666e-18
  outer loop
    vertex 57.00000000000003 8.999999999999998 0.0
    vertex 48.49999999999999 8.999999999999998 10.0
    vertex 57.00000000000003 8.999999999999998 25.0
  endloop
endfacet
facet normal 6.823242699835366e-17 1.0 -2.1122025960036666e-18
  outer loop
    vertex 57.00000000000003 8.999999999999998 25.0
    vertex 48.49999999999999 8.999999999999998 10.0
    vertex 48.49999999999999 8.999999999999998 20.0
  endloop
endfacet
facet normal 6.823242699835366e-17 1.0 -2.1122025960036666e-18
  outer loop
    vertex 48.49999999999999 8.999999999999998 20.0
    vertex 48.49999999999999 8.999999999999998 10.0
    vertex 36.60000000000001 9.0 20.0
  endloop
endfacet
facet normal 6.823242699835366e-17 1.0 -2.1122025960036666e-18
  outer loop
    vertex 57.00000000000003 8.999999999999998 25.0
    vertex 48.49999999999999 8.999999999999998 20.0
    vertex 48.49999999999999 8.999999999999998 25.0
  endloop
endfacet
facet normal 0.0 -1.0 0.0
  outer loop
    vertex 57.00000000000003 0.0 25.0
    vertex 0.0 0.0 0.0
    vertex 57.00000000000003 0.0 0.0
  endloop
endfacet
facet normal 0.0 -1.0 0.0
  outer loop
    vertex 0.0 0.0 0.0
    vertex 57.00000000000003 0.0 25.0
    vertex 0.0 0.0 25.0
  endloop
endfacet
facet normal 0.0 0.0 1.0
  outer loop
    vertex 24.450000000000017 1.9851942293460456 5.0
    vertex 24.636296694843743 7.964723819589915 5.0
    vertex 24.500000000000018 8.999999999999998 5.0
  endloop
endfacet
facet normal 0.0 0.0 1.0
  outer loop
    vertex 24.636296694843743 7.964723819589915 5.0
    vertex 24.450000000000017 1.9851942293460456 5.0
    vertex 26.4035657346696 1.176000807058546 5.0
  endloop
endfacet
facet normal 0.0 0.0 1.0
  outer loop
    vertex 24.636296694843743 7.964723819589915 5.0
    vertex 26.4035657346696 1.176000807058546 5.0
    vertex 25.03589838486226 6.999999999999998 5.0
  endloop
endfacet
facet normal 0.0 0.0 1.0
  outer loop
    vertex 25.03589838486226 6.999999999999998 5.0
    vertex 26.4035657346696 1.176000807058546 5.0
    vertex 25.671572875253823 6.171572875253809 5.0
  endloop
endfacet
facet normal 0.0 0.0 1.0
  outer loop
    vertex 25.671572875253823 6.171572875253809 5.0
    vertex 26.4035657346696 1.176000807058546 5.0
    vertex 26.500000000000014 5.535898384862245 5.0
  endloop
endfacet
facet normal 0.0 0.0 1.0
  outer loop
    vertex 26.500000000000014 5.535898384862245 5.0
    vertex 26.4035657346696 1.176000807058546 5.0
    vertex 28.500000000000014 0.8999999999999998 5.0
  endloop
endfacet
facet normal 0.0 0.0 1.0
  outer loop
    vertex 26.500000000000014 5.535898384862245 5.0
    vertex 28.500000000000014 0.8999999999999998 5.0
    vertex 27.46472381958993 5.136296694843727 5.0
  endloop
endfacet
facet normal 0.0 0.0 1.0
  outer loop
    vertex 27.46472381958993 5.136296694843727 5.0
    vertex 28.500000000000014 0.8999999999999998 5.0
    vertex 28.500000000000014 5.0 5.0
  endloop
endfacet
facet normal 0.0 0.0 1.0
  outer loop
    vertex 28.500000000000014 5.0 5.0
    vertex 28.500000000000014 0.8999999999999998 5.0
    vertex 30.59643426533044 1.1760008070585486 5.0
  endloop
endfacet
facet normal 0.0 0.0 1.0
  outer loop
    vertex 28.500000000000014 5.0 5.0
    vertex 30.59643426533044 1.1760008070585486 5.0
    vertex 29.5352761804101 5.136296694843728 5.0
  endloop
endfacet
facet normal 0.0 0.0 1.0
  outer loop
    vertex 29.5352761804101 5.136296694843728 5.0
    vertex 30.59643426533044 1.1760008070585486 5.0
    vertex 30.500000000000018 5.5358983848622465 5.0
  endloop
endfacet
facet normal 0.0 0.0 1.0
  outer loop
    vertex 30.500000000000018 5.5358983848622465 5.0
    vertex 30.59643426533044 1.1760008070585486 5.0
    vertex 31.328427124746206 6.17157287525381 5.0
  endloop
endfacet
facet normal 0.0 0.0 1.0
  outer loop
    vertex 31.328427124746206 6.17157287525381 5.0
    vertex 30.59643426533044 1.1760008070585486 5.0
    vertex 32.55000000000002 1.9851942293460485 5.0
  endloop
endfacet
facet normal 0.0 0.0 1.0
  outer loop
    vertex 31.328427124746206 6.17157287525381 5.0
    vertex 32.55000000000002 1.9851942293460485 5.0
    vertex 31.96410161513777 7.000000000000003 5.0
  endloop
endfacet
facet normal 0.0 0.0 1.0
  outer loop
    vertex 31.96410161513777 7.000000000000003 5.0
    vertex 32.55000000000002 1.9851942293460485 5.0
    vertex 32.363703305156285 7.964723819589918 5.0
  endloop
endfacet
facet normal 0.0 0.0 1.0
  outer loop
    vertex 32.363703305156285 7.964723819589918 5.0
    vertex 32.55000000000002 1.9851942293460485 5.0
    vertex 32.500000000000014 9.0 5.0
  endloop
endfacet
facet normal 0.0 0.0 1.0
  outer loop
    vertex 32.500000000000014 9.0 5.0
    vertex 32.55000000000002 1.9851942293460485 5.0
    vertex 32.55000000000001 16.014805770653954 5.0
  endloop
endfacet
facet normal 0.0 0.0 1.0
  outer loop
    vertex 32.55000000000001 16.014805770653954 5.0
    vertex 32.55000000000002 1.9851942293460485 5.0
    vertex 34.22756492761104 14.727564927611034 5.0
  endloop
endfacet
facet normal 0.0 0.0 1.0
  outer loop
    vertex 34.22756492761104 14.727564927611034 5.0
    vertex 32.55000000000002 1.9851942293460485 5.0
    vertex 34.22756492761105 3.2724350723889657 5.0
  endloop
endfacet
facet normal 0.0 0.0 1.0
  outer loop
    vertex 34.22756492761104 14.727564927611034 5.0
    vertex 34.22756492761105 3.2724350723889657 5.0
    vertex 35.514805770653965 13.05 5.0
  endloop
endfacet
facet normal 0.0 0.0 1.0
  outer loop
    vertex 35.514805770653965 13.05 5.0
    vertex 34.22756492761105 3.2724350723889657 5.0
    vertex 35.51480577065397 4.950000000000005 5.0
  endloop
endfacet
facet normal 0.0 0.0 1.0
  outer loop
    vertex 35.514805770653965 13.05 5.0
    vertex 35.51480577065397 4.950000000000005 5.0
    vertex 36.32399919294147 11.096434265330423 5.0
  endloop
endfacet
facet normal 0.0 0.0 1.0
  outer loop
    vertex 36.32399919294147 11.096434265330423 5.0
    vertex 35.51480577065397 4.950000000000005 5.0
    vertex 36.32399919294147 6.903565734669584 5.0
  endloop
endfacet
facet normal 0.0 0.0 1.0
  outer loop
    vertex 36.32399919294147 11.096434265330423 5.0
    vertex 36.32399919294147 6.903565734669584 5.0
    vertex 36.60000000000001 9.0 5.0
  endloop
endfacet
facet normal 0.0 0.0 1.0
  outer loop
    vertex 20.67600080705856 6.903565734669579 5.0
    vertex 20.67600080705856 11.096434265330416 5.0
    vertex 20.400000000000016 8.999999999999998 5.0
  endloop
endfacet
facet normal 0.0 0.0 1.0
  outer loop
    vertex 20.67600080705856 11.096434265330416 5.0
    vertex 20.67600080705856 6.903565734669579 5.0
    vertex 21.485194229346064 4.949999999999998 5.0
  endloop
endfacet
facet normal 0.0 0.0 1.0
  outer loop
    vertex 20.67600080705856 11.096434265330416 5.0
    vertex 21.485194229346064 4.949999999999998 5.0
    vertex 21.485194229346064 13.049999999999995 5.0
  endloop
endfacet
facet normal 0.0 0.0 1.0
  outer loop
    vertex 21.485194229346064 13.049999999999995 5.0
    vertex 21.485194229346064 4.949999999999998 5.0
    vertex 22.77243507238898 3.2724350723889644 5.0
  endloop
endfacet
facet normal 0.0 0.0 1.0
  outer loop
    vertex 21.485194229346064 13.049999999999995 5.0
    vertex 22.77243507238898 3.2724350723889644 5.0
    vertex 22.77243507238898 14.727564927611033 5.0
  endloop
endfacet
facet normal 0.0 0.0 1.0
  outer loop
    vertex 22.77243507238898 14.727564927611033 5.0
    vertex 22.77243507238898 3.2724350723889644 5.0
    vertex 24.450000000000017 1.9851942293460456 5.0
  endloop
endfacet
facet normal 0.0 0.0 1.0
  outer loop
    vertex 22.77243507238898 14.727564927611033 5.0
    vertex 24.450000000000017 1.9851942293460456 5.0
    vertex 24.45000000000001 16.014805770653947 5.0
  endloop
endfacet
facet normal 0.0 0.0 1.0
  outer loop
    vertex 24.45000000000001 16.014805770653947 5.0
    vertex 24.450000000000017 1.9851942293460456 5.0
    vertex 24.500000000000018 8.999999999999998 5.0
  endloop
endfacet
facet normal 0.0 0.0 1.0
  outer loop
    vertex 24.45000000000001 16.014805770653947 5.0
    vertex 24.500000000000018 8.999999999999998 5.0
    vertex 24.636296694843743 10.035276180410081 5.0
  endloop
endfacet
facet normal 0.0 0.0 1.0
  outer loop
    vertex 24.45000000000001 16.014805770653947 5.0
    vertex 24.636296694843743 10.035276180410081 5.0
    vertex 26.4035657346696 16.82399919294145 5.0
  endloop
endfacet
facet normal 0.0 0.0 1.0
  outer loop
    vertex 26.4035657346696 16.82399919294145 5.0
    vertex 24.636296694843743 10.035276180410081 5.0
    vertex 25.03589838486226 10.999999999999996 5.0
  endloop
endfacet
facet normal 0.0 0.0 1.0
  outer loop
    vertex 26.4035657346696 16.82399919294145 5.0
    vertex 25.03589838486226 10.999999999999996 5.0
    vertex 25.671572875253823 11.82842712474619 5.0
  endloop
endfacet
facet normal 0.0 0.0 1.0
  outer loop
    vertex 26.4035657346696 16.82399919294145 5.0
    vertex 25.671572875253823 11.82842712474619 5.0
    vertex 26.500000000000014 12.464101615137752 5.0
  endloop
endfacet
facet normal 0.0 0.0 1.0
  outer loop
    vertex 26.4035657346696 16.82399919294145 5.0
    vertex 26.500000000000014 12.464101615137752 5.0
    vertex 28.500000000000014 17.099999999999998 5.0
  endloop
endfacet
facet normal 0.0 0.0 1.0
  outer loop
    vertex 28.500000000000014 17.099999999999998 5.0
    vertex 26.500000000000014 12.464101615137752 5.0
    vertex 27.46472381958993 12.863703305156271 5.0
  endloop
endfacet
facet normal 0.0 0.0 1.0
  outer loop
    vertex 28.500000000000014 17.099999999999998 5.0
    vertex 27.46472381958993 12.863703305156271 5.0
    vertex 28.500000000000014 12.999999999999998 5.0
  endloop
endfacet
facet normal 0.0 0.0 1.0
  outer loop
    vertex 28.500000000000014 17.099999999999998 5.0
    vertex 28.500000000000014 12.999999999999998 5.0
    vertex 29.535276180410094 12.863703305156271 5.0
  endloop
endfacet
facet normal 0.0 0.0 1.0
  outer loop
    vertex 28.500000000000014 17.099999999999998 5.0
    vertex 29.535276180410094 12.863703305156271 5.0
    vertex 30.59643426533043 16.823999192941454 5.0
  endloop
endfacet
facet normal 0.0 0.0 1.0
  outer loop
    vertex 30.59643426533043 16.823999192941454 5.0
    vertex 29.535276180410094 12.863703305156271 5.0
    vertex 30.50000000000001 12.464101615137753 5.0
  endloop
endfacet
facet normal 0.0 0.0 1.0
  outer loop
    vertex 30.59643426533043 16.823999192941454 5.0
    vertex 30.50000000000001 12.464101615137753 5.0
    vertex 31.328427124746202 11.82842712474619 5.0
  endloop
endfacet
facet normal 0.0 0.0 1.0
  outer loop
    vertex 30.59643426533043 16.823999192941454 5.0
    vertex 31.328427124746202 11.82842712474619 5.0
    vertex 32.55000000000001 16.014805770653954 5.0
  endloop
endfacet
facet normal 0.0 0.0 1.0
  outer loop
    vertex 32.55000000000001 16.014805770653954 5.0
    vertex 31.328427124746202 11.82842712474619 5.0
    vertex 31.96410161513777 11.0 5.0
  endloop
endfacet
facet normal 0.0 0.0 1.0
  outer loop
    vertex 32.55000000000001 16.014805770653954 5.0
    vertex 31.96410161513777 11.0 5.0
    vertex 32.363703305156285 10.035276180410085 5.0
  endloop
endfacet
facet normal 0.0 0.0 1.0
  outer loop
    vertex 32.55000000000001 16.014805770653954 5.0
    vertex 32.363703305156285 10.035276180410085 5.0
    vertex 32.500000000000014 9.0 5.0
  endloop
endfacet
facet normal 0.13052619222005118 0.9914448613738105 -0.0
  outer loop
    vertex 26.4035657346696 1.176000807058546 25.0
    vertex 28.500000000000014 0.8999999999999998 5.0
    vertex 26.4035657346696 1.176000807058546 5.0
  endloop
endfacet
facet normal 0.13052619222005118 0.9914448613738105 -0.0
  outer loop
    vertex 28.500000000000014 0.8999999999999998 5.0
    vertex 26.4035657346696 1.176000807058546 25.0
    vertex 28.500000000000014 0.8999999999999998 25.0
  endloop
endfacet
facet normal -0.13052619222005216 0.9914448613738105 -0.0
  outer loop
    vertex 28.500000000000014 0.8999999999999998 25.0
    vertex 30.59643426533044 1.1760008070585486 5.0
    vertex 28.500000000000014 0.8999999999999998 5.0
  endloop
endfacet
facet normal -0.13052619222005216 0.9914448613738105 -0.0
  outer loop
    vertex 30.59643426533044 1.1760008070585486 5.0
    vertex 28.500000000000014 0.8999999999999998 25.0
    vertex 30.59643426533044 1.1760008070585486 25.0
  endloop
endfacet
facet normal -0.3826834323650901 0.9238795325112867 -0.0
  outer loop
    vertex 30.59643426533044 1.1760008070585486 25.0
    vertex 32.55000000000002 1.9851942293460485 5.0
    vertex 30.59643426533044 1.1760008070585486 5.0
  endloop
endfacet
facet normal -0.3826834323650901 0.9238795325112867 -0.0
  outer loop
    vertex 32.55000000000002 1.9851942293460485 5.0
    vertex 30.59643426533044 1.1760008070585486 25.0
    vertex 32.55000000000002 1.9851942293460485 25.0
  endloop
endfacet
facet normal -0.6087614290087214 0.7933533402912345 -0.0
  outer loop
    vertex 32.55000000000002 1.9851942293460485 25.0
    vertex 34.22756492761105 3.2724350723889657 5.0
    vertex 32.55000000000002 1.9851942293460485 5.0
  endloop
endfacet
facet normal -0.6087614290087214 0.7933533402912345 -0.0
  outer loop
    vertex 34.22756492761105 3.2724350723889657 5.0
    vertex 32.55000000000002 1.9851942293460485 25.0
    vertex 34.22756492761105 3.2724350723889657 25.0
  endloop
endfacet
facet normal -0.7933533402912345 0.6087614290087217 0.0
  outer loop
    vertex 35.51480577065397 4.950000000000005 25.0
    vertex 34.22756492761105 3.2724350723889657 5.0
    vertex 34.22756492761105 3.2724350723889657 25.0
  endloop
endfacet
facet normal -0.7933533402912345 0.6087614290087217 0.0
  outer loop
    vertex 34.22756492761105 3.2724350723889657 5.0
    vertex 35.51480577065397 4.950000000000005 25.0
    vertex 35.51480577065397 4.950000000000005 5.0
  endloop
endfacet
facet normal -0.9238795325112877 0.38268343236508784 0.0
  outer loop
    vertex 36.32399919294147 6.903565734669584 25.0
    vertex 35.51480577065397 4.950000000000005 5.0
    vertex 35.51480577065397 4.950000000000005 25.0
  endloop
endfacet
facet normal -0.9238795325112877 0.38268343236508784 0.0
  outer loop
    vertex 35.51480577065397 4.950000000000005 5.0
    vertex 36.32399919294147 6.903565734669584 25.0
    vertex 36.32399919294147 6.903565734669584 5.0
  endloop
endfacet
facet normal -0.9914448613738107 0.13052619222005005 -3.976593896701584e-19
  outer loop
    vertex 36.60000000000001 9.0 25.0
    vertex 36.32399919294147 6.903565734669584 5.0
    vertex 36.32399919294147 6.903565734669584 25.0
  endloop
endfacet
facet normal -0.9914448613738107 0.13052619222005005 -3.976593896701584e-19
  outer loop
    vertex 36.32399919294147 6.903565734669584 5.0
    vertex 36.60000000000001 9.0 25.0
    vertex 36.60000000000001 9.0 5.0
  endloop
endfacet
facet normal -0.9914448613738107 0.13052619222005005 -3.976593896701584e-19
  outer loop
    vertex 36.60000000000001 9.0 5.0
    vertex 36.60000000000001 9.0 25.0
    vertex 36.60000000000001 9.0 20.0
  endloop
endfacet
facet normal -0.9914448613738107 0.13052619222005005 -3.976593896701584e-19
  outer loop
    vertex 36.60000000000001 9.0 5.0
    vertex 36.60000000000001 9.0 20.0
    vertex 36.60000000000001 9.0 10.0
  endloop
endfacet
facet normal -0.9914448613738107 -0.1305261922200496 -0.0
  outer loop
    vertex 36.32399919294147 11.096434265330423 10.0
    vertex 36.60000000000001 9.0 5.0
    vertex 36.60000000000001 9.0 10.0
  endloop
endfacet
facet normal -0.9914448613738107 -0.1305261922200496 -0.0
  outer loop
    vertex 36.60000000000001 9.0 5.0
    vertex 36.32399919294147 11.096434265330423 10.0
    vertex 36.32399919294147 11.096434265330423 5.0
  endloop
endfacet
facet normal -0.9238795325112856 -0.3826834323650926 -0.0
  outer loop
    vertex 35.514805770653965 13.05 10.0
    vertex 36.32399919294147 11.096434265330423 5.0
    vertex 36.32399919294147 11.096434265330423 10.0
  endloop
endfacet
facet normal -0.9238795325112856 -0.3826834323650926 -0.0
  outer loop
    vertex 36.32399919294147 11.096434265330423 5.0
    vertex 35.514805770653965 13.05 10.0
    vertex 35.514805770653965 13.05 5.0
  endloop
endfacet
facet normal -0.7933533402912348 -0.6087614290087212 -0.0
  outer loop
    vertex 34.22756492761104 14.727564927611034 10.0
    vertex 35.514805770653965 13.05 5.0
    vertex 35.514805770653965 13.05 10.0
  endloop
endfacet
facet normal -0.7933533402912348 -0.6087614290087212 -0.0
  outer loop
    vertex 35.514805770653965 13.05 5.0
    vertex 34.22756492761104 14.727564927611034 10.0
    vertex 34.22756492761104 14.727564927611034 5.0
  endloop
endfacet
facet normal -0.6087614290087219 -0.7933533402912344 -0.0
  outer loop
    vertex 34.22756492761104 14.727564927611034 10.0
    vertex 32.55000000000001 16.014805770653954 5.0
    vertex 34.22756492761104 14.727564927611034 5.0
  endloop
endfacet
facet normal -0.6087614290087219 -0.7933533402912344 -0.0
  outer loop
    vertex 32.55000000000001 16.014805770653954 5.0
    vertex 34.22756492761104 14.727564927611034 10.0
    vertex 32.55000000000001 16.014805770653954 10.0
  endloop
endfacet
facet normal -0.38268343236508917 -0.9238795325112872 -0.0
  outer loop
    vertex 32.55000000000001 16.014805770653954 10.0
    vertex 30.59643426533043 16.823999192941454 5.0
    vertex 32.55000000000001 16.014805770653954 5.0
  endloop
endfacet
facet normal -0.38268343236508917 -0.9238795325112872 -0.0
  outer loop
    vertex 30.59643426533043 16.823999192941454 5.0
    vertex 32.55000000000001 16.014805770653954 10.0
    vertex 30.59643426533043 16.823999192941454 10.0
  endloop
endfacet
facet normal -0.13052619222005024 -0.9914448613738107 -0.0
  outer loop
    vertex 30.59643426533043 16.823999192941454 10.0
    vertex 28.500000000000014 17.099999999999998 5.0
    vertex 30.59643426533043 16.823999192941454 5.0
  endloop
endfacet
facet normal -0.13052619222005024 -0.9914448613738107 -0.0
  outer loop
    vertex 28.500000000000014 17.099999999999998 5.0
    vertex 30.59643426533043 16.823999192941454 10.0
    vertex 28.500000000000014 17.099999999999998 10.0
  endloop
endfacet
facet normal 0.1305261922200512 -0.9914448613738106 -0.0
  outer loop
    vertex 28.500000000000014 17.099999999999998 10.0
    vertex 26.4035657346696 16.82399919294145 5.0
    vertex 28.500000000000014 17.099999999999998 5.0
  endloop
endfacet
facet normal 0.1305261922200512 -0.9914448613738106 -0.0
  outer loop
    vertex 26.4035657346696 16.82399919294145 5.0
    vertex 28.500000000000014 17.099999999999998 10.0
    vertex 26.4035657346696 16.82399919294145 10.0
  endloop
endfacet
facet normal 0.38268343236509034 -0.9238795325112867 -0.0
  outer loop
    vertex 26.4035657346696 16.82399919294145 10.0
    vertex 24.45000000000001 16.014805770653947 5.0
    vertex 26.4035657346696 16.82399919294145 5.0
  endloop
endfacet
facet normal 0.38268343236509034 -0.9238795325112867 -0.0
  outer loop
    vertex 24.45000000000001 16.014805770653947 5.0
    vertex 26.4035657346696 16.82399919294145 10.0
    vertex 24.45000000000001 16.014805770653947 10.0
  endloop
endfacet
facet normal 0.6087614290087211 -0.793353340291235 -0.0
  outer loop
    vertex 24.45000000000001 16.014805770653947 10.0
    vertex 22.77243507238898 14.727564927611033 5.0
    vertex 24.45000000000001 16.014805770653947 5.0
  endloop
endfacet
facet normal 0.6087614290087211 -0.793353340291235 -0.0
  outer loop
    vertex 22.77243507238898 14.727564927611033 5.0
    vertex 24.45000000000001 16.014805770653947 10.0
    vertex 22.77243507238898 14.727564927611033 10.0
  endloop
endfacet
facet normal 0.7933533402912353 -0.6087614290087205 -0.0
  outer loop
    vertex 22.77243507238898 14.727564927611033 5.0
    vertex 21.485194229346064 13.049999999999995 10.0
    vertex 21.485194229346064 13.049999999999995 5.0
  endloop
endfacet
facet normal 0.7933533402912353 -0.6087614290087205 -0.0
  outer loop
    vertex 21.485194229346064 13.049999999999995 10.0
    vertex 22.77243507238898 14.727564927611033 5.0
    vertex 22.77243507238898 14.727564927611033 10.0
  endloop
endfacet
facet normal 0.9238795325112866 -0.38268343236509006 -0.0
  outer loop
    vertex 21.485194229346064 13.049999999999995 5.0
    vertex 20.67600080705856 11.096434265330416 10.0
    vertex 20.67600080705856 11.096434265330416 5.0
  endloop
endfacet
facet normal 0.9238795325112866 -0.38268343236509006 -0.0
  outer loop
    vertex 20.67600080705856 11.096434265330416 10.0
    vertex 21.485194229346064 13.049999999999995 5.0
    vertex 21.485194229346064 13.049999999999995 10.0
  endloop
endfacet
facet normal 0.9914448613738105 -0.13052619222005127 -0.0
  outer loop
    vertex 20.67600080705856 11.096434265330416 5.0
    vertex 20.400000000000016 8.999999999999998 10.0
    vertex 20.400000000000016 8.999999999999998 5.0
  endloop
endfacet
facet normal 0.9914448613738105 -0.13052619222005127 -0.0
  outer loop
    vertex 20.400000000000016 8.999999999999998 10.0
    vertex 20.67600080705856 11.096434265330416 5.0
    vertex 20.67600080705856 11.096434265330416 10.0
  endloop
endfacet
facet normal 0.9914448613738105 0.13052619222005113 3.976593896701568e-19
  outer loop
    vertex 20.400000000000016 8.999999999999998 5.0
    vertex 20.67600080705856 6.903565734669579 25.0
    vertex 20.67600080705856 6.903565734669579 5.0
  endloop
endfacet
facet normal 0.9914448613738105 0.13052619222005113 3.976593896701568e-19
  outer loop
    vertex 20.67600080705856 6.903565734669579 25.0
    vertex 20.400000000000016 8.999999999999998 5.0
    vertex 20.400000000000016 8.999999999999998 25.0
  endloop
endfacet
facet normal 0.9914448613738105 0.13052619222005113 3.976593896701568e-19
  outer loop
    vertex 20.400000000000016 8.999999999999998 25.0
    vertex 20.400000000000016 8.999999999999998 5.0
    vertex 20.400000000000016 8.999999999999998 10.0
  endloop
endfacet
facet normal 0.9914448613738105 0.13052619222005113 3.976593896701568e-19
  outer loop
    vertex 20.400000000000016 8.999999999999998 25.0
    vertex 20.400000000000016 8.999999999999998 10.0
    vertex 20.400000000000016 8.999999999999998 20.0
  endloop
endfacet
facet normal 0.9238795325112867 0.38268343236508995 -0.0
  outer loop
    vertex 20.67600080705856 6.903565734669579 5.0
    vertex 21.485194229346064 4.949999999999998 25.0
    vertex 21.485194229346064 4.949999999999998 5.0
  endloop
endfacet
facet normal 0.9238795325112867 0.38268343236508995 -0.0
  outer loop
    vertex 21.485194229346064 4.949999999999998 25.0
    vertex 20.67600080705856 6.903565734669579 5.0
    vertex 20.67600080705856 6.903565734669579 25.0
  endloop
endfacet
facet normal 0.793353340291235 0.6087614290087211 -1.572254039858758e-18
  outer loop
    vertex 21.485194229346064 4.949999999999998 5.0
    vertex 22.77243507238898 3.2724350723889644 25.0
    vertex 22.77243507238898 3.2724350723889644 5.0
  endloop
endfacet
facet normal 0.793353340291235 0.6087614290087211 -1.572254039858758e-18
  outer loop
    vertex 22.77243507238898 3.2724350723889644 25.0
    vertex 21.485194229346064 4.949999999999998 5.0
    vertex 21.485194229346064 4.949999999999998 25.0
  endloop
endfacet
facet normal 0.6087614290087204 0.7933533402912353 -1.5722540398587567e-18
  outer loop
    vertex 22.77243507238898 3.2724350723889644 25.0
    vertex 24.450000000000017 1.9851942293460456 5.0
    vertex 22.77243507238898 3.2724350723889644 5.0
  endloop
endfacet
facet normal 0.6087614290087204 0.7933533402912353 -1.5722540398587567e-18
  outer loop
    vertex 24.450000000000017 1.9851942293460456 5.0
    vertex 22.77243507238898 3.2724350723889644 25.0
    vertex 24.450000000000017 1.9851942293460456 25.0
  endloop
endfacet
facet normal 0.3826834323650901 0.9238795325112867 -0.0
  outer loop
    vertex 24.450000000000017 1.9851942293460456 25.0
    vertex 26.4035657346696 1.176000807058546 5.0
    vertex 24.450000000000017 1.9851942293460456 5.0
  endloop
endfacet
facet normal 0.3826834323650901 0.9238795325112867 -0.0
  outer loop
    vertex 26.4035657346696 1.176000807058546 5.0
    vertex 24.450000000000017 1.9851942293460456 25.0
    vertex 26.4035657346696 1.176000807058546 25.0
  endloop
endfacet
facet normal 0.13052619222005143 0.9914448613738105 0.0
  outer loop
    vertex 27.46472381958993 5.136296694843727 5.0
    vertex 28.500000000000014 5.0 0.0
    vertex 27.46472381958993 5.136296694843727 0.0
  endloop
endfacet
facet normal 0.13052619222005143 0.9914448613738105 0.0
  outer loop
    vertex 28.500000000000014 5.0 0.0
    vertex 27.46472381958993 5.136296694843727 5.0
    vertex 28.500000000000014 5.0 5.0
  endloop
endfacet
facet normal -0.13052619222005213 0.9914448613738105 -0.0
  outer loop
    vertex 28.500000000000014 5.0 5.0
    vertex 29.5352761804101 5.136296694843728 0.0
    vertex 28.500000000000014 5.0 0.0
  endloop
endfacet
facet normal -0.13052619222005213 0.9914448613738105 -0.0
  outer loop
    vertex 29.5352761804101 5.136296694843728 0.0
    vertex 28.500000000000014 5.0 5.0
    vertex 29.5352761804101 5.136296694843728 5.0
  endloop
endfacet
facet normal -0.3826834323650902 0.9238795325112867 -0.0
  outer loop
    vertex 29.5352761804101 5.136296694843728 5.0
    vertex 30.500000000000018 5.5358983848622465 0.0
    vertex 29.5352761804101 5.136296694843728 0.0
  endloop
endfacet
facet normal -0.3826834323650902 0.9238795325112867 -0.0
  outer loop
    vertex 30.500000000000018 5.5358983848622465 0.0
    vertex 29.5352761804101 5.136296694843728 5.0
    vertex 30.500000000000018 5.5358983848622465 5.0
  endloop
endfacet
facet normal -0.6087614290087205 0.7933533402912354 -0.0
  outer loop
    vertex 30.500000000000018 5.5358983848622465 5.0
    vertex 31.328427124746206 6.17157287525381 0.0
    vertex 30.500000000000018 5.5358983848622465 0.0
  endloop
endfacet
facet normal -0.6087614290087205 0.7933533402912354 -0.0
  outer loop
    vertex 31.328427124746206 6.17157287525381 0.0
    vertex 30.500000000000018 5.5358983848622465 5.0
    vertex 31.328427124746206 6.17157287525381 5.0
  endloop
endfacet
facet normal -0.7933533402912358 0.6087614290087201 -0.0
  outer loop
    vertex 31.96410161513777 7.000000000000003 5.0
    vertex 31.328427124746206 6.17157287525381 0.0
    vertex 31.328427124746206 6.17157287525381 5.0
  endloop
endfacet
facet normal -0.7933533402912358 0.6087614290087201 -0.0
  outer loop
    vertex 31.328427124746206 6.17157287525381 0.0
    vertex 31.96410161513777 7.000000000000003 5.0
    vertex 31.96410161513777 7.000000000000003 0.0
  endloop
endfacet
facet normal -0.923879532511288 0.38268343236508723 -0.0
  outer loop
    vertex 32.363703305156285 7.964723819589918 5.0
    vertex 31.96410161513777 7.000000000000003 0.0
    vertex 31.96410161513777 7.000000000000003 5.0
  endloop
endfacet
facet normal -0.923879532511288 0.38268343236508723 -0.0
  outer loop
    vertex 31.96410161513777 7.000000000000003 0.0
    vertex 32.363703305156285 7.964723819589918 5.0
    vertex 32.363703305156285 7.964723819589918 0.0
  endloop
endfacet
facet normal -0.9914448613738104 0.1305261922200518 -0.0
  outer loop
    vertex 32.500000000000014 9.0 5.0
    vertex 32.363703305156285 7.964723819589918 0.0
    vertex 32.363703305156285 7.964723819589918 5.0
  endloop
endfacet
facet normal -0.9914448613738104 0.1305261922200518 -0.0
  outer loop
    vertex 32.363703305156285 7.964723819589918 0.0
    vertex 32.500000000000014 9.0 5.0
    vertex 32.500000000000014 9.0 0.0
  endloop
endfacet
facet normal -0.9914448613738104 -0.13052619222005163 -0.0
  outer loop
    vertex 32.363703305156285 10.035276180410085 5.0
    vertex 32.500000000000014 9.0 0.0
    vertex 32.500000000000014 9.0 5.0
  endloop
endfacet
facet normal -0.9914448613738104 -0.13052619222005163 -0.0
  outer loop
    vertex 32.500000000000014 9.0 0.0
    vertex 32.363703305156285 10.035276180410085 5.0
    vertex 32.363703305156285 10.035276180410085 0.0
  endloop
endfacet
facet normal -0.923879532511288 -0.38268343236508723 -0.0
  outer loop
    vertex 31.96410161513777 11.0 5.0
    vertex 32.363703305156285 10.035276180410085 0.0
    vertex 32.363703305156285 10.035276180410085 5.0
  endloop
endfacet
facet normal -0.923879532511288 -0.38268343236508723 -0.0
  outer loop
    vertex 32.363703305156285 10.035276180410085 0.0
    vertex 31.96410161513777 11.0 5.0
    vertex 31.96410161513777 11.0 0.0
  endloop
endfacet
facet normal -0.7933533402912326 -0.6087614290087241 -0.0
  outer loop
    vertex 31.328427124746202 11.82842712474619 5.0
    vertex 31.96410161513777 11.0 0.0
    vertex 31.96410161513777 11.0 5.0
  endloop
endfacet
facet normal -0.7933533402912326 -0.6087614290087241 -0.0
  outer loop
    vertex 31.96410161513777 11.0 0.0
    vertex 31.328427124746202 11.82842712474619 5.0
    vertex 31.328427124746202 11.82842712474619 0.0
  endloop
endfacet
facet normal -0.6087614290087205 -0.7933533402912354 -0.0
  outer loop
    vertex 31.328427124746202 11.82842712474619 5.0
    vertex 30.50000000000001 12.464101615137753 0.0
    vertex 31.328427124746202 11.82842712474619 0.0
  endloop
endfacet
facet normal -0.6087614290087205 -0.7933533402912354 -0.0
  outer loop
    vertex 30.50000000000001 12.464101615137753 0.0
    vertex 31.328427124746202 11.82842712474619 5.0
    vertex 30.50000000000001 12.464101615137753 5.0
  endloop
endfacet
facet normal -0.38268343236508895 -0.9238795325112871 -0.0
  outer loop
    vertex 30.50000000000001 12.464101615137753 5.0
    vertex 29.535276180410094 12.863703305156271 0.0
    vertex 30.50000000000001 12.464101615137753 0.0
  endloop
endfacet
facet normal -0.38268343236508895 -0.9238795325112871 -0.0
  outer loop
    vertex 29.535276180410094 12.863703305156271 0.0
    vertex 30.50000000000001 12.464101615137753 5.0
    vertex 29.535276180410094 12.863703305156271 5.0
  endloop
endfacet
facet normal -0.13052619222005216 -0.9914448613738104 -0.0
  outer loop
    vertex 29.535276180410094 12.863703305156271 5.0
    vertex 28.500000000000014 12.999999999999998 0.0
    vertex 29.535276180410094 12.863703305156271 0.0
  endloop
endfacet
facet normal -0.13052619222005216 -0.9914448613738104 -0.0
  outer loop
    vertex 28.500000000000014 12.999999999999998 0.0
    vertex 29.535276180410094 12.863703305156271 5.0
    vertex 28.500000000000014 12.999999999999998 5.0
  endloop
endfacet
facet normal 0.13052619222005143 -0.9914448613738105 -0.0
  outer loop
    vertex 28.500000000000014 12.999999999999998 5.0
    vertex 27.46472381958993 12.863703305156271 0.0
    vertex 28.500000000000014 12.999999999999998 0.0
  endloop
endfacet
facet normal 0.13052619222005143 -0.9914448613738105 -0.0
  outer loop
    vertex 27.46472381958993 12.863703305156271 0.0
    vertex 28.500000000000014 12.999999999999998 5.0
    vertex 27.46472381958993 12.863703305156271 5.0
  endloop
endfacet
facet normal 0.3826834323650914 -0.9238795325112863 -0.0
  outer loop
    vertex 27.46472381958993 12.863703305156271 5.0
    vertex 26.500000000000014 12.464101615137752 0.0
    vertex 27.46472381958993 12.863703305156271 0.0
  endloop
endfacet
facet normal 0.3826834323650914 -0.9238795325112863 -0.0
  outer loop
    vertex 26.500000000000014 12.464101615137752 0.0
    vertex 27.46472381958993 12.863703305156271 5.0
    vertex 26.500000000000014 12.464101615137752 5.0
  endloop
endfacet
facet normal 0.6087614290087197 -0.7933533402912359 -0.0
  outer loop
    vertex 26.500000000000014 12.464101615137752 5.0
    vertex 25.671572875253823 11.82842712474619 0.0
    vertex 26.500000000000014 12.464101615137752 0.0
  endloop
endfacet
facet normal 0.6087614290087197 -0.7933533402912359 -0.0
  outer loop
    vertex 25.671572875253823 11.82842712474619 0.0
    vertex 26.500000000000014 12.464101615137752 5.0
    vertex 25.671572875253823 11.82842712474619 5.0
  endloop
endfacet
facet normal 0.7933533402912369 -0.6087614290087183 -0.0
  outer loop
    vertex 25.671572875253823 11.82842712474619 0.0
    vertex 25.03589838486226 10.999999999999996 5.0
    vertex 25.03589838486226 10.999999999999996 0.0
  endloop
endfacet
facet normal 0.7933533402912369 -0.6087614290087183 -0.0
  outer loop
    vertex 25.03589838486226 10.999999999999996 5.0
    vertex 25.671572875253823 11.82842712474619 0.0
    vertex 25.671572875253823 11.82842712474619 5.0
  endloop
endfacet
facet normal 0.923879532511287 -0.3826834323650895 -0.0
  outer loop
    vertex 25.03589838486226 10.999999999999996 0.0
    vertex 24.636296694843743 10.035276180410081 5.0
    vertex 24.636296694843743 10.035276180410081 0.0
  endloop
endfacet
facet normal 0.923879532511287 -0.3826834323650895 -0.0
  outer loop
    vertex 24.636296694843743 10.035276180410081 5.0
    vertex 25.03589838486226 10.999999999999996 0.0
    vertex 25.03589838486226 10.999999999999996 5.0
  endloop
endfacet
facet normal 0.9914448613738104 -0.1305261922200518 -0.0
  outer loop
    vertex 24.636296694843743 10.035276180410081 0.0
    vertex 24.500000000000018 8.999999999999998 5.0
    vertex 24.500000000000018 8.999999999999998 0.0
  endloop
endfacet
facet normal 0.9914448613738104 -0.1305261922200518 -0.0
  outer loop
    vertex 24.500000000000018 8.999999999999998 5.0
    vertex 24.636296694843743 10.035276180410081 0.0
    vertex 24.636296694843743 10.035276180410081 5.0
  endloop
endfacet
facet normal 0.9914448613738104 0.13052619222005163 0.0
  outer loop
    vertex 24.500000000000018 8.999999999999998 0.0
    vertex 24.636296694843743 7.964723819589915 5.0
    vertex 24.636296694843743 7.964723819589915 0.0
  endloop
endfacet
facet normal 0.9914448613738104 0.13052619222005163 0.0
  outer loop
    vertex 24.636296694843743 7.964723819589915 5.0
    vertex 24.500000000000018 8.999999999999998 0.0
    vertex 24.500000000000018 8.999999999999998 5.0
  endloop
endfacet
facet normal 0.9238795325112871 0.38268343236508895 0.0
  outer loop
    vertex 24.636296694843743 7.964723819589915 0.0
    vertex 25.03589838486226 6.999999999999998 5.0
    vertex 25.03589838486226 6.999999999999998 0.0
  endloop
endfacet
facet normal 0.9238795325112871 0.38268343236508895 0.0
  outer loop
    vertex 25.03589838486226 6.999999999999998 5.0
    vertex 24.636296694843743 7.964723819589915 0.0
    vertex 24.636296694843743 7.964723819589915 5.0
  endloop
endfacet
facet normal 0.7933533402912359 0.6087614290087197 0.0
  outer loop
    vertex 25.03589838486226 6.999999999999998 0.0
    vertex 25.671572875253823 6.171572875253809 5.0
    vertex 25.671572875253823 6.171572875253809 0.0
  endloop
endfacet
facet normal 0.7933533402912359 0.6087614290087197 0.0
  outer loop
    vertex 25.671572875253823 6.171572875253809 5.0
    vertex 25.03589838486226 6.999999999999998 0.0
    vertex 25.03589838486226 6.999999999999998 5.0
  endloop
endfacet
facet normal 0.6087614290087205 0.7933533402912354 0.0
  outer loop
    vertex 25.671572875253823 6.171572875253809 5.0
    vertex 26.500000000000014 5.535898384862245 0.0
    vertex 25.671572875253823 6.171572875253809 0.0
  endloop
endfacet
facet normal 0.6087614290087205 0.7933533402912354 0.0
  outer loop
    vertex 26.500000000000014 5.535898384862245 0.0
    vertex 25.671572875253823 6.171572875253809 5.0
    vertex 26.500000000000014 5.535898384862245 5.0
  endloop
endfacet
facet normal 0.38268343236508956 0.9238795325112868 0.0
  outer loop
    vertex 26.500000000000014 5.535898384862245 5.0
    vertex 27.46472381958993 5.136296694843727 0.0
    vertex 26.500000000000014 5.535898384862245 0.0
  endloop
endfacet
facet normal 0.38268343236508956 0.9238795325112868 0.0
  outer loop
    vertex 27.46472381958993 5.136296694843727 0.0
    vertex 26.500000000000014 5.535898384862245 5.0
    vertex 27.46472381958993 5.136296694843727 5.0
  endloop
endfacet
facet normal -0.0 1.0 -0.0
  outer loop
    vertex 0.0 8.999999999999998 25.0
    vertex 8.499999999999996 8.999999999999998 0.0
    vertex 0.0 8.999999999999998 0.0
  endloop
endfacet
facet normal -0.0 1.0 -0.0
  outer loop
    vertex 8.499999999999996 8.999999999999998 0.0
    vertex 0.0 8.999999999999998 25.0
    vertex 8.499999999999996 8.999999999999998 10.0
  endloop
endfacet
facet normal -0.0 1.0 -0.0
  outer loop
    vertex 8.499999999999996 8.999999999999998 10.0
    vertex 0.0 8.999999999999998 25.0
    vertex 20.400000000000016 8.999999999999998 10.0
  endloop
endfacet
facet normal -0.0 1.0 -0.0
  outer loop
    vertex 20.400000000000016 8.999999999999998 10.0
    vertex 0.0 8.999999999999998 25.0
    vertex 8.499999999999996 8.999999999999998 20.0
  endloop
endfacet
facet normal -0.0 1.0 -0.0
  outer loop
    vertex 8.499999999999996 8.999999999999998 20.0
    vertex 0.0 8.999999999999998 25.0
    vertex 8.499999999999996 8.999999999999998 25.0
  endloop
endfacet
facet normal -0.0 1.0 -0.0
  outer loop
    vertex 20.400000000000016 8.999999999999998 20.0
    vertex 20.400000000000016 8.999999999999998 10.0
    vertex 8.499999999999996 8.999999999999998 20.0
  endloop
endfacet
facet normal -0.0 -0.0 1.0
  outer loop
    vertex 0.0 0.0 25.0
    vertex 26.4035657346696 1.176000807058546 25.0
    vertex 0.0 8.999999999999998 25.0
  endloop
endfacet
facet normal -0.0 -0.0 1.0
  outer loop
    vertex 26.4035657346696 1.176000807058546 25.0
    vertex 0.0 0.0 25.0
    vertex 28.500000000000014 0.8999999999999998 25.0
  endloop
endfacet
facet normal -0.0 -0.0 1.0
  outer loop
    vertex 28.500000000000014 0.8999999999999998 25.0
    vertex 0.0 0.0 25.0
    vertex 57.00000000000003 0.0 25.0
  endloop
endfacet
facet normal -0.0 -0.0 1.0
  outer loop
    vertex 0.0 8.999999999999998 25.0
    vertex 26.4035657346696 1.176000807058546 25.0
    vertex 24.450000000000017 1.9851942293460456 25.0
  endloop
endfacet
facet normal -0.0 -0.0 1.0
  outer loop
    vertex 0.0 8.999999999999998 25.0
    vertex 24.450000000000017 1.9851942293460456 25.0
    vertex 8.499999999999996 8.999999999999998 25.0
  endloop
endfacet
facet normal -0.0 -0.0 1.0
  outer loop
    vertex 8.499999999999996 8.999999999999998 25.0
    vertex 24.450000000000017 1.9851942293460456 25.0
    vertex 22.77243507238898 3.2724350723889644 25.0
  endloop
endfacet
facet normal -0.0 -0.0 1.0
  outer loop
    vertex 8.499999999999996 8.999999999999998 25.0
    vertex 22.77243507238898 3.2724350723889644 25.0
    vertex 8.499999999999996 16.999999999999996 25.0
  endloop
endfacet
facet normal -0.0 -0.0 1.0
  outer loop
    vertex 8.499999999999996 16.999999999999996 25.0
    vertex 22.77243507238898 3.2724350723889644 25.0
    vertex 21.485194229346064 4.949999999999998 25.0
  endloop
endfacet
facet normal -0.0 -0.0 1.0
  outer loop
    vertex 8.499999999999996 16.999999999999996 25.0
    vertex 21.485194229346064 4.949999999999998 25.0
    vertex 20.67600080705856 6.903565734669579 25.0
  endloop
endfacet
facet normal -0.0 -0.0 1.0
  outer loop
    vertex 8.499999999999996 16.999999999999996 25.0
    vertex 20.67600080705856 6.903565734669579 25.0
    vertex 20.400000000000016 8.999999999999998 25.0
  endloop
endfacet
facet normal -0.0 -0.0 1.0
  outer loop
    vertex 28.500000000000014 0.8999999999999998 25.0
    vertex 57.00000000000003 0.0 25.0
    vertex 30.59643426533044 1.1760008070585486 25.0
  endloop
endfacet
facet normal -0.0 -0.0 1.0
  outer loop
    vertex 30.59643426533044 1.1760008070585486 25.0
    vertex 57.00000000000003 0.0 25.0
    vertex 32.55000000000002 1.9851942293460485 25.0
  endloop
endfacet
facet normal -0.0 -0.0 1.0
  outer loop
    vertex 32.55000000000002 1.9851942293460485 25.0
    vertex 57.00000000000003 0.0 25.0
    vertex 34.22756492761105 3.2724350723889657 25.0
  endloop
endfacet
facet normal -0.0 -0.0 1.0
  outer loop
    vertex 34.22756492761105 3.2724350723889657 25.0
    vertex 57.00000000000003 0.0 25.0
    vertex 35.51480577065397 4.950000000000005 25.0
  endloop
endfacet
facet normal -0.0 -0.0 1.0
  outer loop
    vertex 35.51480577065397 4.950000000000005 25.0
    vertex 57.00000000000003 0.0 25.0
    vertex 36.32399919294147 6.903565734669584 25.0
  endloop
endfacet
facet normal -0.0 -0.0 1.0
  outer loop
    vertex 36.32399919294147 6.903565734669584 25.0
    vertex 57.00000000000003 0.0 25.0
    vertex 36.60000000000001 9.0 25.0
  endloop
endfacet
facet normal -0.0 -0.0 1.0
  outer loop
    vertex 36.60000000000001 9.0 25.0
    vertex 57.00000000000003 0.0 25.0
    vertex 36.60000000000001 17.0 25.0
  endloop
endfacet
facet normal -0.0 -0.0 1.0
  outer loop
    vertex 36.60000000000001 17.0 25.0
    vertex 57.00000000000003 0.0 25.0
    vertex 48.49999999999999 8.999999999999998 25.0
  endloop
endfacet
facet normal -0.0 -0.0 1.0
  outer loop
    vertex 48.49999999999999 8.999999999999998 25.0
    vertex 57.00000000000003 0.0 25.0
    vertex 57.00000000000003 8.999999999999998 25.0
  endloop
endfacet
facet normal -0.0 -0.0 1.0
  outer loop
    vertex 48.49999999999999 16.999999999999996 25.0
    vertex 36.60000000000001 17.0 25.0
    vertex 48.49999999999999 8.999999999999998 25.0
  endloop
endfacet
facet normal -0.0 -0.0 1.0
  outer loop
    vertex 20.400000000000016 16.999999999999996 25.0
    vertex 8.499999999999996 16.999999999999996 25.0
    vertex 20.400000000000016 8.999999999999998 25.0
  endloop
endfacet
facet normal 0.0 1.0 0.0
  outer loop
    vertex 8.499999999999996 16.999999999999996 25.0
    vertex 20.400000000000016 16.999999999999996 20.0
    vertex 8.499999999999996 16.999999999999996 20.0
  endloop
endfacet
facet normal 0.0 1.0 0.0
  outer loop
    vertex 20.400000000000016 16.999999999999996 20.0
    vertex 8.499999999999996 16.999999999999996 25.0
    vertex 20.400000000000016 16.999999999999996 25.0
  endloop
endfacet
facet normal -0.0 0.0 -1.0
  outer loop
    vertex 20.400000000000016 16.999999999999996 20.0
    vertex 8.499999999999996 8.999999999999998 20.0
    vertex 8.499999999999996 16.999999999999996 20.0
  endloop
endfacet
facet normal -0.0 0.0 -1.0
  outer loop
    vertex 8.499999999999996 8.999999999999998 20.0
    vertex 20.400000000000016 16.999999999999996 20.0
    vertex 20.400000000000016 8.999999999999998 20.0
  endloop
endfacet
facet normal -1.0 0.0 0.0
  outer loop
    vertex 8.499999999999996 16.999999999999996 25.0
    vertex 8.499999999999996 8.999999999999998 20.0
    vertex 8.499999999999996 8.999999999999998 25.0
  endloop
endfacet
facet normal -1.0 0.0 0.0
  outer loop
    vertex 8.499999999999996 8.999999999999998 20.0
    vertex 8.499999999999996 16.999999999999996 25.0
    vertex 8.499999999999996 16.999999999999996 20.0
  endloop
endfacet
facet normal 1.0 0.0 0.0
  outer loop
    vertex 20.400000000000016 16.999999999999996 20.0
    vertex 20.400000000000016 8.999999999999998 25.0
    vertex 20.400000000000016 8.999999999999998 20.0
  endloop
endfacet
facet normal 1.0 0.0 0.0
  outer loop
    vertex 20.400000000000016 8.999999999999998 25.0
    vertex 20.400000000000016 16.999999999999996 20.0
    vertex 20.400000000000016 16.999999999999996 25.0
  endloop
endfacet
facet normal 1.1848598666167654e-16 1.0 0.0
  outer loop
    vertex 36.60000000000001 17.0 25.0
    vertex 48.49999999999999 16.999999999999996 20.0
    vertex 36.60000000000001 17.0 20.0
  endloop
endfacet
facet normal 1.1848598666167654e-16 1.0 0.0
  outer loop
    vertex 48.49999999999999 16.999999999999996 20.0
    vertex 36.60000000000001 17.0 25.0
    vertex 48.49999999999999 16.999999999999996 25.0
  endloop
endfacet
facet normal -0.0 0.0 -1.0
  outer loop
    vertex 48.49999999999999 16.999999999999996 20.0
    vertex 36.60000000000001 9.0 20.0
    vertex 36.60000000000001 17.0 20.0
  endloop
endfacet
facet normal -0.0 0.0 -1.0
  outer loop
    vertex 36.60000000000001 9.0 20.0
    vertex 48.49999999999999 16.999999999999996 20.0
    vertex 48.49999999999999 8.999999999999998 20.0
  endloop
endfacet
facet normal -1.0 1.1848598666167654e-16 0.0
  outer loop
    vertex 36.60000000000001 17.0 25.0
    vertex 36.60000000000001 9.0 20.0
    vertex 36.60000000000001 9.0 25.0
  endloop
endfacet
facet normal -1.0 1.1848598666167654e-16 0.0
  outer loop
    vertex 36.60000000000001 9.0 20.0
    vertex 36.60000000000001 17.0 25.0
    vertex 36.60000000000001 17.0 20.0
  endloop
endfacet
facet normal 1.0 -1.1848598666167654e-16 0.0
  outer loop
    vertex 48.49999999999999 16.999999999999996 20.0
    vertex 48.49999999999999 8.999999999999998 25.0
    vertex 48.49999999999999 8.999999999999998 20.0
  endloop
endfacet
facet normal 1.0 -1.1848598666167654e-16 0.0
  outer loop
    vertex 48.49999999999999 8.999999999999998 25.0
    vertex 48.49999999999999 16.999999999999996 20.0
    vertex 48.49999999999999 16.999999999999996 25.0
  endloop
endfacet
endsolid Эксперимент-Алюм-Узел
