solid угол_стол
facet normal 0.16681449489055108 0.9859882982542999 0.0
  outer loop
    vertex 10.647322624747494 23.1722400331698 42.50000000000002
    vertex 12.706479395062084 22.823861459967002 7.500000000000023
    vertex 10.647322624747494 23.1722400331698 7.500000000000023
  endloop
endfacet
facet normal 0.16681449489055108 0.9859882982542999 0.0
  outer loop
    vertex 12.706479395062084 22.823861459967002 7.500000000000023
    vertex 10.647322624747494 23.1722400331698 42.50000000000002
    vertex 12.706479395062084 22.823861459967002 42.50000000000002
  endloop
endfacet
facet normal 0.995566329979468 0.09406212102229658 0.0
  outer loop
    vertex 5.005386459967161 31.111995604937817 7.500000000000023
    vertex 5.201827587794074 29.032835890462433 42.50000000000002
    vertex 5.201827587794074 29.032835890462433 7.500000000000023
  endloop
endfacet
facet normal 0.995566329979468 0.09406212102229658 0.0
  outer loop
    vertex 5.201827587794074 29.032835890462433 42.50000000000002
    vertex 5.005386459967161 31.111995604937817 7.500000000000023
    vertex 5.005386459967161 31.111995604937817 42.50000000000002
  endloop
endfacet
facet normal 0.9859882982542996 -0.16681449489055372 0.0
  outer loop
    vertex 5.353765033169964 33.171152375252404 7.500000000000023
    vertex 5.005386459967161 31.111995604937817 42.50000000000002
    vertex 5.005386459967161 31.111995604937817 7.500000000000023
  endloop
endfacet
facet normal 0.9859882982542996 -0.16681449489055372 0.0
  outer loop
    vertex 5.005386459967161 31.111995604937817 42.50000000000002
    vertex 5.353765033169964 33.171152375252404 7.500000000000023
    vertex 5.353765033169964 33.171152375252404 42.50000000000002
  endloop
endfacet
facet normal 0.9092167934258043 -0.4163229786505888 0.0
  outer loop
    vertex 6.2232218833615045 35.06997807042674 7.500000000000023
    vertex 5.353765033169964 33.171152375252404 42.50000000000002
    vertex 5.353765033169964 33.171152375252404 7.500000000000023
  endloop
endfacet
facet normal 0.9092167934258043 -0.4163229786505888 0.0
  outer loop
    vertex 5.353765033169964 33.171152375252404 42.50000000000002
    vertex 6.2232218833615045 35.06997807042674 7.500000000000023
    vertex 6.2232218833615045 35.06997807042674 42.50000000000002
  endloop
endfacet
facet normal 0.7704836666771344 -0.6374597394218389 0.0
  outer loop
    vertex 7.554504963046607 36.679070857292494 7.500000000000023
    vertex 6.2232218833615045 35.06997807042674 42.50000000000002
    vertex 6.2232218833615045 35.06997807042674 7.500000000000023
  endloop
endfacet
facet normal 0.7704836666771344 -0.6374597394218389 0.0
  outer loop
    vertex 6.2232218833615045 35.06997807042674 42.50000000000002
    vertex 7.554504963046607 36.679070857292494 7.500000000000023
    vertex 7.554504963046607 36.679070857292494 42.50000000000002
  endloop
endfacet
facet normal 0.5792433513288789 -0.8151546724035195 0.0
  outer loop
    vertex 9.256889530394048 37.88877372157634 42.50000000000002
    vertex 7.554504963046607 36.679070857292494 7.500000000000023
    vertex 9.256889530394048 37.88877372157634 7.500000000000023
  endloop
endfacet
facet normal 0.5792433513288789 -0.8151546724035195 0.0
  outer loop
    vertex 7.554504963046607 36.679070857292494 7.500000000000023
    vertex 9.256889530394048 37.88877372157634 42.50000000000002
    vertex 7.554504963046607 36.679070857292494 42.50000000000002
  endloop
endfacet
facet normal 0.34852855883247097 -0.9372981615676843 0.0
  outer loop
    vertex 11.214360890462562 38.616647412205836 42.50000000000002
    vertex 9.256889530394048 37.88877372157634 7.500000000000023
    vertex 11.214360890462562 38.616647412205836 7.500000000000023
  endloop
endfacet
facet normal 0.34852855883247097 -0.9372981615676843 0.0
  outer loop
    vertex 9.256889530394048 37.88877372157634 7.500000000000023
    vertex 11.214360890462562 38.616647412205836 42.50000000000002
    vertex 9.256889530394048 37.88877372157634 42.50000000000002
  endloop
endfacet
facet normal 0.09406212102229022 -0.9955663299794687 0.0
  outer loop
    vertex 13.293520604937969 38.81308854003274 42.50000000000002
    vertex 11.214360890462562 38.616647412205836 7.500000000000023
    vertex 13.293520604937969 38.81308854003274 7.500000000000023
  endloop
endfacet
facet normal 0.09406212102229022 -0.9955663299794687 0.0
  outer loop
    vertex 11.214360890462562 38.616647412205836 7.500000000000023
    vertex 13.293520604937969 38.81308854003274 42.50000000000002
    vertex 11.214360890462562 38.616647412205836 42.50000000000002
  endloop
endfacet
facet normal -0.16681449489055372 -0.9859882982542996 0.0
  outer loop
    vertex 15.35267737525256 38.464709966829936 42.50000000000002
    vertex 13.293520604937969 38.81308854003274 7.500000000000023
    vertex 15.35267737525256 38.464709966829936 7.500000000000023
  endloop
endfacet
facet normal -0.16681449489055372 -0.9859882982542996 0.0
  outer loop
    vertex 13.293520604937969 38.81308854003274 7.500000000000023
    vertex 15.35267737525256 38.464709966829936 42.50000000000002
    vertex 13.293520604937969 38.81308854003274 42.50000000000002
  endloop
endfacet
facet normal -0.4163229786505847 -0.9092167934258062 0.0
  outer loop
    vertex 17.251503070426914 37.595253116638396 42.50000000000002
    vertex 15.35267737525256 38.464709966829936 7.500000000000023
    vertex 17.251503070426914 37.595253116638396 7.500000000000023
  endloop
endfacet
facet normal -0.4163229786505847 -0.9092167934258062 0.0
  outer loop
    vertex 15.35267737525256 38.464709966829936 7.500000000000023
    vertex 17.251503070426914 37.595253116638396 42.50000000000002
    vertex 15.35267737525256 38.464709966829936 42.50000000000002
  endloop
endfacet
facet normal -0.6374597394218389 -0.7704836666771344 0.0
  outer loop
    vertex 18.86059585729267 36.263970036953296 42.50000000000002
    vertex 17.251503070426914 37.595253116638396 7.500000000000023
    vertex 18.86059585729267 36.263970036953296 7.500000000000023
  endloop
endfacet
facet normal -0.6374597394218389 -0.7704836666771344 0.0
  outer loop
    vertex 17.251503070426914 37.595253116638396 7.500000000000023
    vertex 18.86059585729267 36.263970036953296 42.50000000000002
    vertex 17.251503070426914 37.595253116638396 42.50000000000002
  endloop
endfacet
facet normal 0.9372981615676889 0.3485285588324591 0.0
  outer loop
    vertex 5.201827587794074 29.032835890462433 7.500000000000023
    vertex 5.929701278423563 27.075364530393873 42.50000000000002
    vertex 5.929701278423563 27.075364530393873 7.500000000000023
  endloop
endfacet
facet normal 0.9372981615676889 0.3485285588324591 0.0
  outer loop
    vertex 5.929701278423563 27.075364530393873 42.50000000000002
    vertex 5.201827587794074 29.032835890462433 7.500000000000023
    vertex 5.201827587794074 29.032835890462433 42.50000000000002
  endloop
endfacet
facet normal -0.8151546724035227 -0.5792433513288743 0.0
  outer loop
    vertex 18.86059585729267 36.263970036953296 42.50000000000002
    vertex 20.070298721576492 34.561585469605866 7.500000000000023
    vertex 20.070298721576492 34.561585469605866 42.50000000000002
  endloop
endfacet
facet normal -0.8151546724035227 -0.5792433513288743 0.0
  outer loop
    vertex 20.070298721576492 34.561585469605866 7.500000000000023
    vertex 18.86059585729267 36.263970036953296 42.50000000000002
    vertex 18.86059585729267 36.263970036953296 7.500000000000023
  endloop
endfacet
facet normal -0.9372981615676889 -0.3485285588324591 0.0
  outer loop
    vertex 20.070298721576492 34.561585469605866 42.50000000000002
    vertex 20.79817241220598 32.604114109537306 7.500000000000023
    vertex 20.79817241220598 32.604114109537306 42.50000000000002
  endloop
endfacet
facet normal -0.9372981615676889 -0.3485285588324591 0.0
  outer loop
    vertex 20.79817241220598 32.604114109537306 7.500000000000023
    vertex 20.070298721576492 34.561585469605866 42.50000000000002
    vertex 20.070298721576492 34.561585469605866 7.500000000000023
  endloop
endfacet
facet normal -0.99556632997947 -0.09406212102227567 0.0
  outer loop
    vertex 20.79817241220598 32.604114109537306 42.50000000000002
    vertex 20.994613540032848 30.524954395061933 7.500000000000023
    vertex 20.994613540032848 30.524954395061933 42.50000000000002
  endloop
endfacet
facet normal -0.99556632997947 -0.09406212102227567 0.0
  outer loop
    vertex 20.994613540032848 30.524954395061933 7.500000000000023
    vertex 20.79817241220598 32.604114109537306 42.50000000000002
    vertex 20.79817241220598 32.604114109537306 7.500000000000023
  endloop
endfacet
facet normal -0.9859882982543032 0.1668144948905318 0.0
  outer loop
    vertex 20.994613540032848 30.524954395061933 42.50000000000002
    vertex 20.64623496683009 28.46579762474733 7.500000000000023
    vertex 20.64623496683009 28.46579762474733 42.50000000000002
  endloop
endfacet
facet normal -0.9859882982543032 0.1668144948905318 0.0
  outer loop
    vertex 20.64623496683009 28.46579762474733 7.500000000000023
    vertex 20.994613540032848 30.524954395061933 42.50000000000002
    vertex 20.994613540032848 30.524954395061933 7.500000000000023
  endloop
endfacet
facet normal -0.9092167934257961 0.4163229786506066 0.0
  outer loop
    vertex 20.64623496683009 28.46579762474733 42.50000000000002
    vertex 19.776778116638503 26.566971929572997 7.500000000000023
    vertex 19.776778116638503 26.566971929572997 42.50000000000002
  endloop
endfacet
facet normal -0.9092167934257961 0.4163229786506066 0.0
  outer loop
    vertex 19.776778116638503 26.566971929572997 7.500000000000023
    vertex 20.64623496683009 28.46579762474733 42.50000000000002
    vertex 20.64623496683009 28.46579762474733 7.500000000000023
  endloop
endfacet
facet normal -0.7704836666771344 0.6374597394218389 0.0
  outer loop
    vertex 19.776778116638503 26.566971929572997 42.50000000000002
    vertex 18.445495036953403 24.95787914270724 7.500000000000023
    vertex 18.445495036953403 24.95787914270724 42.50000000000002
  endloop
endfacet
facet normal -0.7704836666771344 0.6374597394218389 0.0
  outer loop
    vertex 18.445495036953403 24.95787914270724 7.500000000000023
    vertex 19.776778116638503 26.566971929572997 42.50000000000002
    vertex 19.776778116638503 26.566971929572997 7.500000000000023
  endloop
endfacet
facet normal -0.5792433513288892 0.8151546724035122 0.0
  outer loop
    vertex 16.743110469606005 23.7481762784234 42.50000000000002
    vertex 18.445495036953403 24.95787914270724 7.500000000000023
    vertex 16.743110469606005 23.7481762784234 7.500000000000023
  endloop
endfacet
facet normal -0.5792433513288892 0.8151546724035122 0.0
  outer loop
    vertex 18.445495036953403 24.95787914270724 7.500000000000023
    vertex 16.743110469606005 23.7481762784234 42.50000000000002
    vertex 18.445495036953403 24.95787914270724 42.50000000000002
  endloop
endfacet
facet normal -0.09406212102228755 0.9955663299794689 0.0
  outer loop
    vertex 12.706479395062084 22.823861459967002 42.50000000000002
    vertex 14.785639109537492 23.0203025877939 7.500000000000023
    vertex 12.706479395062084 22.823861459967002 7.500000000000023
  endloop
endfacet
facet normal -0.09406212102228755 0.9955663299794689 0.0
  outer loop
    vertex 14.785639109537492 23.0203025877939 7.500000000000023
    vertex 12.706479395062084 22.823861459967002 42.50000000000002
    vertex 14.785639109537492 23.0203025877939 42.50000000000002
  endloop
endfacet
facet normal -0.34852855883247097 0.9372981615676843 0.0
  outer loop
    vertex 14.785639109537492 23.0203025877939 42.50000000000002
    vertex 16.743110469606005 23.7481762784234 7.500000000000023
    vertex 14.785639109537492 23.0203025877939 7.500000000000023
  endloop
endfacet
facet normal -0.34852855883247097 0.9372981615676843 0.0
  outer loop
    vertex 16.743110469606005 23.7481762784234 7.500000000000023
    vertex 14.785639109537492 23.0203025877939 42.50000000000002
    vertex 16.743110469606005 23.7481762784234 42.50000000000002
  endloop
endfacet
facet normal 0.4163229786505824 0.9092167934258071 0.0
  outer loop
    vertex 8.74849692957314 24.041696883361336 42.50000000000002
    vertex 10.647322624747494 23.1722400331698 7.500000000000023
    vertex 8.74849692957314 24.041696883361336 7.500000000000023
  endloop
endfacet
facet normal 0.4163229786505824 0.9092167934258071 0.0
  outer loop
    vertex 10.647322624747494 23.1722400331698 7.500000000000023
    vertex 8.74849692957314 24.041696883361336 42.50000000000002
    vertex 10.647322624747494 23.1722400331698 42.50000000000002
  endloop
endfacet
facet normal 0.6374597394218373 0.7704836666771355 0.0
  outer loop
    vertex 7.1394041427073835 25.372979963046433 42.50000000000002
    vertex 8.74849692957314 24.041696883361336 7.500000000000023
    vertex 7.1394041427073835 25.372979963046433 7.500000000000023
  endloop
endfacet
facet normal 0.6374597394218373 0.7704836666771355 0.0
  outer loop
    vertex 8.74849692957314 24.041696883361336 7.500000000000023
    vertex 7.1394041427073835 25.372979963046433 42.50000000000002
    vertex 8.74849692957314 24.041696883361336 42.50000000000002
  endloop
endfacet
facet normal 0.8151546724035245 0.5792433513288717 0.0
  outer loop
    vertex 5.929701278423563 27.075364530393873 7.500000000000023
    vertex 7.1394041427073835 25.372979963046433 42.50000000000002
    vertex 7.1394041427073835 25.372979963046433 7.500000000000023
  endloop
endfacet
facet normal 0.8151546724035245 0.5792433513288717 0.0
  outer loop
    vertex 7.1394041427073835 25.372979963046433 42.50000000000002
    vertex 5.929701278423563 27.075364530393873 7.500000000000023
    vertex 5.929701278423563 27.075364530393873 42.50000000000002
  endloop
endfacet
facet normal 0.0 0.0 1.0
  outer loop
    vertex 0.0 17.818475000000067 42.50000000000002
    vertex 5.201827587794074 29.032835890462433 42.50000000000002
    vertex 0.0 43.818475000000014 42.50000000000002
  endloop
endfacet
facet normal 0.0 0.0 1.0
  outer loop
    vertex 5.201827587794074 29.032835890462433 42.50000000000002
    vertex 0.0 17.818475000000067 42.50000000000002
    vertex 5.929701278423563 27.075364530393873 42.50000000000002
  endloop
endfacet
facet normal 0.0 0.0 1.0
  outer loop
    vertex 5.929701278423563 27.075364530393873 42.50000000000002
    vertex 0.0 17.818475000000067 42.50000000000002
    vertex 7.1394041427073835 25.372979963046433 42.50000000000002
  endloop
endfacet
facet normal 0.0 0.0 1.0
  outer loop
    vertex 7.1394041427073835 25.372979963046433 42.50000000000002
    vertex 0.0 17.818475000000067 42.50000000000002
    vertex 8.74849692957314 24.041696883361336 42.50000000000002
  endloop
endfacet
facet normal 0.0 0.0 1.0
  outer loop
    vertex 8.74849692957314 24.041696883361336 42.50000000000002
    vertex 0.0 17.818475000000067 42.50000000000002
    vertex 10.647322624747494 23.1722400331698 42.50000000000002
  endloop
endfacet
facet normal 0.0 0.0 1.0
  outer loop
    vertex 10.647322624747494 23.1722400331698 42.50000000000002
    vertex 0.0 17.818475000000067 42.50000000000002
    vertex 26.000000000000053 17.818475000000067 42.50000000000002
  endloop
endfacet
facet normal 0.0 0.0 1.0
  outer loop
    vertex 0.0 43.818475000000014 42.50000000000002
    vertex 5.201827587794074 29.032835890462433 42.50000000000002
    vertex 5.005386459967161 31.111995604937817 42.50000000000002
  endloop
endfacet
facet normal 0.0 0.0 1.0
  outer loop
    vertex 10.647322624747494 23.1722400331698 42.50000000000002
    vertex 26.000000000000053 17.818475000000067 42.50000000000002
    vertex 12.706479395062084 22.823861459967002 42.50000000000002
  endloop
endfacet
facet normal 0.0 0.0 1.0
  outer loop
    vertex 12.706479395062084 22.823861459967002 42.50000000000002
    vertex 26.000000000000053 17.818475000000067 42.50000000000002
    vertex 14.785639109537492 23.0203025877939 42.50000000000002
  endloop
endfacet
facet normal 0.0 0.0 1.0
  outer loop
    vertex 14.785639109537492 23.0203025877939 42.50000000000002
    vertex 26.000000000000053 17.818475000000067 42.50000000000002
    vertex 16.743110469606005 23.7481762784234 42.50000000000002
  endloop
endfacet
facet normal 0.0 0.0 1.0
  outer loop
    vertex 16.743110469606005 23.7481762784234 42.50000000000002
    vertex 26.000000000000053 17.818475000000067 42.50000000000002
    vertex 18.445495036953403 24.95787914270724 42.50000000000002
  endloop
endfacet
facet normal 0.0 0.0 1.0
  outer loop
    vertex 18.445495036953403 24.95787914270724 42.50000000000002
    vertex 26.000000000000053 17.818475000000067 42.50000000000002
    vertex 19.776778116638503 26.566971929572997 42.50000000000002
  endloop
endfacet
facet normal 0.0 0.0 1.0
  outer loop
    vertex 19.776778116638503 26.566971929572997 42.50000000000002
    vertex 26.000000000000053 17.818475000000067 42.50000000000002
    vertex 20.64623496683009 28.46579762474733 42.50000000000002
  endloop
endfacet
facet normal 0.0 0.0 1.0
  outer loop
    vertex 20.64623496683009 28.46579762474733 42.50000000000002
    vertex 26.000000000000053 17.818475000000067 42.50000000000002
    vertex 20.994613540032848 30.524954395061933 42.50000000000002
  endloop
endfacet
facet normal 0.0 0.0 1.0
  outer loop
    vertex 0.0 43.818475000000014 42.50000000000002
    vertex 11.214360890462562 38.616647412205836 42.50000000000002
    vertex 26.000000000000053 43.818475000000014 42.50000000000002
  endloop
endfacet
facet normal 0.0 0.0 1.0
  outer loop
    vertex 11.214360890462562 38.616647412205836 42.50000000000002
    vertex 0.0 43.818475000000014 42.50000000000002
    vertex 9.256889530394048 37.88877372157634 42.50000000000002
  endloop
endfacet
facet normal 0.0 0.0 1.0
  outer loop
    vertex 9.256889530394048 37.88877372157634 42.50000000000002
    vertex 0.0 43.818475000000014 42.50000000000002
    vertex 7.554504963046607 36.679070857292494 42.50000000000002
  endloop
endfacet
facet normal 0.0 0.0 1.0
  outer loop
    vertex 7.554504963046607 36.679070857292494 42.50000000000002
    vertex 0.0 43.818475000000014 42.50000000000002
    vertex 6.2232218833615045 35.06997807042674 42.50000000000002
  endloop
endfacet
facet normal 0.0 0.0 1.0
  outer loop
    vertex 6.2232218833615045 35.06997807042674 42.50000000000002
    vertex 0.0 43.818475000000014 42.50000000000002
    vertex 5.353765033169964 33.171152375252404 42.50000000000002
  endloop
endfacet
facet normal 0.0 0.0 1.0
  outer loop
    vertex 5.353765033169964 33.171152375252404 42.50000000000002
    vertex 0.0 43.818475000000014 42.50000000000002
    vertex 5.005386459967161 31.111995604937817 42.50000000000002
  endloop
endfacet
facet normal 0.0 0.0 1.0
  outer loop
    vertex 26.000000000000053 43.818475000000014 42.50000000000002
    vertex 11.214360890462562 38.616647412205836 42.50000000000002
    vertex 13.293520604937969 38.81308854003274 42.50000000000002
  endloop
endfacet
facet normal 0.0 0.0 1.0
  outer loop
    vertex 26.000000000000053 43.818475000000014 42.50000000000002
    vertex 13.293520604937969 38.81308854003274 42.50000000000002
    vertex 15.35267737525256 38.464709966829936 42.50000000000002
  endloop
endfacet
facet normal 0.0 0.0 1.0
  outer loop
    vertex 26.000000000000053 43.818475000000014 42.50000000000002
    vertex 15.35267737525256 38.464709966829936 42.50000000000002
    vertex 17.251503070426914 37.595253116638396 42.50000000000002
  endloop
endfacet
facet normal 0.0 0.0 1.0
  outer loop
    vertex 26.000000000000053 43.818475000000014 42.50000000000002
    vertex 17.251503070426914 37.595253116638396 42.50000000000002
    vertex 18.86059585729267 36.263970036953296 42.50000000000002
  endloop
endfacet
facet normal 0.0 0.0 1.0
  outer loop
    vertex 26.000000000000053 43.818475000000014 42.50000000000002
    vertex 18.86059585729267 36.263970036953296 42.50000000000002
    vertex 20.070298721576492 34.561585469605866 42.50000000000002
  endloop
endfacet
facet normal 0.0 0.0 1.0
  outer loop
    vertex 26.000000000000053 43.818475000000014 42.50000000000002
    vertex 20.070298721576492 34.561585469605866 42.50000000000002
    vertex 20.79817241220598 32.604114109537306 42.50000000000002
  endloop
endfacet
facet normal 0.0 0.0 1.0
  outer loop
    vertex 26.000000000000053 43.818475000000014 42.50000000000002
    vertex 20.79817241220598 32.604114109537306 42.50000000000002
    vertex 20.994613540032848 30.524954395061933 42.50000000000002
  endloop
endfacet
facet normal 0.0 0.0 1.0
  outer loop
    vertex 26.000000000000053 43.818475000000014 42.50000000000002
    vertex 20.994613540032848 30.524954395061933 42.50000000000002
    vertex 26.000000000000053 17.818475000000067 42.50000000000002
  endloop
endfacet
facet normal 0.0 1.0 0.0
  outer loop
    vertex 0.0 43.818475000000014 42.50000000000002
    vertex 26.000000000000053 43.818475000000014 37.50000000000001
    vertex 0.0 43.818475000000014 37.50000000000001
  endloop
endfacet
facet normal 0.0 1.0 0.0
  outer loop
    vertex 26.000000000000053 43.818475000000014 37.50000000000001
    vertex 0.0 43.818475000000014 42.50000000000002
    vertex 26.000000000000053 43.818475000000014 42.50000000000002
  endloop
endfacet
facet normal -1.0 0.0 0.0
  outer loop
    vertex 0.0 43.818475000000014 42.50000000000002
    vertex 0.0 17.818475000000067 37.50000000000001
    vertex 0.0 17.818475000000067 42.50000000000002
  endloop
endfacet
facet normal -1.0 0.0 0.0
  outer loop
    vertex 0.0 4.511946372076636e-14 37.50000000000001
    vertex 0.0 43.818475000000014 7.5
    vertex 0.0 2.5732194153249563e-14 7.5
  endloop
endfacet
facet normal -1.0 0.0 0.0
  outer loop
    vertex 0.0 43.818475000000014 7.5
    vertex 0.0 4.511946372076636e-14 37.50000000000001
    vertex 0.0 17.818475000000067 37.50000000000001
  endloop
endfacet
facet normal -1.0 0.0 0.0
  outer loop
    vertex 0.0 43.818475000000014 7.5
    vertex 0.0 17.818475000000067 37.50000000000001
    vertex 0.0 43.818475000000014 42.50000000000002
  endloop
endfacet
facet normal -1.0 0.0 0.0
  outer loop
    vertex 0.0 43.818475000000014 7.5
    vertex 0.0 43.818475000000014 42.50000000000002
    vertex 0.0 43.818475000000014 37.50000000000001
  endloop
endfacet
facet normal -1.0 0.0 0.0
  outer loop
    vertex 0.0 43.818475000000014 7.5
    vertex 0.0 43.818475000000014 37.50000000000001
    vertex 0.0 43.818475000000014 22.500000000000004
  endloop
endfacet
facet normal -0.0 1.0 -0.0
  outer loop
    vertex 26.000000000000053 73.81847499999989 34.50000000000001
    vertex 56.0000000000001 73.81847499999989 22.500000000000004
    vertex 26.000000000000053 73.81847499999989 22.500000000000004
  endloop
endfacet
facet normal -0.0 1.0 -0.0
  outer loop
    vertex 56.0000000000001 73.81847499999989 22.500000000000004
    vertex 26.000000000000053 73.81847499999989 34.50000000000001
    vertex 56.0000000000001 73.81847499999989 34.50000000000001
  endloop
endfacet
facet normal 1.0 -0.0 -0.0
  outer loop
    vertex 56.0000000000001 73.81847499999989 22.500000000000004
    vertex 56.0000000000001 43.818475000000014 34.50000000000001
    vertex 56.0000000000001 43.818475000000014 22.500000000000004
  endloop
endfacet
facet normal 1.0 -0.0 -0.0
  outer loop
    vertex 56.0000000000001 43.818475000000014 34.50000000000001
    vertex 56.0000000000001 73.81847499999989 22.500000000000004
    vertex 56.0000000000001 73.81847499999989 34.50000000000001
  endloop
endfacet
facet normal 0.0 0.0 -1.0
  outer loop
    vertex 8.74849692957314 24.041696883361336 7.500000000000023
    vertex 7.500000000000026 9.818474999999868 7.500000000000026
    vertex 7.1394041427073835 25.372979963046433 7.500000000000023
  endloop
endfacet
facet normal 0.0 0.0 -1.0
  outer loop
    vertex 7.500000000000026 9.818474999999868 7.500000000000026
    vertex 8.74849692957314 24.041696883361336 7.500000000000023
    vertex 10.250000000000028 14.581614720814281 7.500000000000026
  endloop
endfacet
facet normal 0.0 0.0 -1.0
  outer loop
    vertex 10.250000000000028 14.581614720814281 7.500000000000026
    vertex 8.74849692957314 24.041696883361336 7.500000000000023
    vertex 10.647322624747494 23.1722400331698 7.500000000000023
  endloop
endfacet
facet normal 0.0 0.0 -1.0
  outer loop
    vertex 10.250000000000028 14.581614720814281 7.500000000000026
    vertex 10.647322624747494 23.1722400331698 7.500000000000023
    vertex 15.750000000000028 14.581614720814281 7.500000000000026
  endloop
endfacet
facet normal 0.0 0.0 -1.0
  outer loop
    vertex 15.750000000000028 14.581614720814281 7.500000000000026
    vertex 10.647322624747494 23.1722400331698 7.500000000000023
    vertex 12.706479395062084 22.823861459967002 7.500000000000023
  endloop
endfacet
facet normal 0.0 0.0 -1.0
  outer loop
    vertex 15.750000000000028 14.581614720814281 7.500000000000026
    vertex 12.706479395062084 22.823861459967002 7.500000000000023
    vertex 14.785639109537492 23.0203025877939 7.500000000000023
  endloop
endfacet
facet normal 0.0 0.0 -1.0
  outer loop
    vertex 15.750000000000028 14.581614720814281 7.500000000000026
    vertex 14.785639109537492 23.0203025877939 7.500000000000023
    vertex 16.743110469606005 23.7481762784234 7.500000000000023
  endloop
endfacet
facet normal 0.0 0.0 -1.0
  outer loop
    vertex 15.750000000000028 14.581614720814281 7.500000000000026
    vertex 16.743110469606005 23.7481762784234 7.500000000000023
    vertex 18.50000000000003 9.818474999999868 7.500000000000026
  endloop
endfacet
facet normal 0.0 0.0 -1.0
  outer loop
    vertex 18.50000000000003 9.818474999999868 7.500000000000026
    vertex 16.743110469606005 23.7481762784234 7.500000000000023
    vertex 18.445495036953403 24.95787914270724 7.500000000000023
  endloop
endfacet
facet normal 0.0 0.0 -1.0
  outer loop
    vertex 18.50000000000003 9.818474999999868 7.500000000000026
    vertex 18.445495036953403 24.95787914270724 7.500000000000023
    vertex 19.776778116638503 26.566971929572997 7.500000000000023
  endloop
endfacet
facet normal 0.0 0.0 -1.0
  outer loop
    vertex 0.0 43.818475000000014 7.5
    vertex 5.005386459967161 31.111995604937817 7.500000000000023
    vertex 0.0 2.5732194153249563e-14 7.5
  endloop
endfacet
facet normal 0.0 0.0 -1.0
  outer loop
    vertex 5.005386459967161 31.111995604937817 7.500000000000023
    vertex 0.0 43.818475000000014 7.5
    vertex 5.353765033169964 33.171152375252404 7.500000000000023
  endloop
endfacet
facet normal 0.0 0.0 -1.0
  outer loop
    vertex 5.353765033169964 33.171152375252404 7.500000000000023
    vertex 0.0 43.818475000000014 7.5
    vertex 6.2232218833615045 35.06997807042674 7.500000000000023
  endloop
endfacet
facet normal 0.0 0.0 -1.0
  outer loop
    vertex 6.2232218833615045 35.06997807042674 7.500000000000023
    vertex 0.0 43.818475000000014 7.5
    vertex 7.554504963046607 36.679070857292494 7.500000000000023
  endloop
endfacet
facet normal 0.0 0.0 -1.0
  outer loop
    vertex 7.554504963046607 36.679070857292494 7.500000000000023
    vertex 0.0 43.818475000000014 7.5
    vertex 9.256889530394048 37.88877372157634 7.500000000000023
  endloop
endfacet
facet normal 0.0 0.0 -1.0
  outer loop
    vertex 9.256889530394048 37.88877372157634 7.500000000000023
    vertex 0.0 43.818475000000014 7.5
    vertex 11.214360890462562 38.616647412205836 7.500000000000023
  endloop
endfacet
facet normal 0.0 0.0 -1.0
  outer loop
    vertex 11.214360890462562 38.616647412205836 7.500000000000023
    vertex 0.0 43.818475000000014 7.5
    vertex 25.999999999999996 43.81847500000006 7.5
  endloop
endfacet
facet normal 0.0 0.0 -1.0
  outer loop
    vertex 11.214360890462562 38.616647412205836 7.500000000000023
    vertex 25.999999999999996 43.81847500000006 7.5
    vertex 13.293520604937969 38.81308854003274 7.500000000000023
  endloop
endfacet
facet normal 0.0 0.0 -1.0
  outer loop
    vertex 13.293520604937969 38.81308854003274 7.500000000000023
    vertex 25.999999999999996 43.81847500000006 7.5
    vertex 15.35267737525256 38.464709966829936 7.500000000000023
  endloop
endfacet
facet normal 0.0 0.0 -1.0
  outer loop
    vertex 15.35267737525256 38.464709966829936 7.500000000000023
    vertex 25.999999999999996 43.81847500000006 7.5
    vertex 17.251503070426914 37.595253116638396 7.500000000000023
  endloop
endfacet
facet normal 0.0 0.0 -1.0
  outer loop
    vertex 17.251503070426914 37.595253116638396 7.500000000000023
    vertex 25.999999999999996 43.81847500000006 7.5
    vertex 18.86059585729267 36.263970036953296 7.500000000000023
  endloop
endfacet
facet normal 0.0 0.0 -1.0
  outer loop
    vertex 18.86059585729267 36.263970036953296 7.500000000000023
    vertex 25.999999999999996 43.81847500000006 7.5
    vertex 20.070298721576492 34.561585469605866 7.500000000000023
  endloop
endfacet
facet normal 0.0 0.0 -1.0
  outer loop
    vertex 20.070298721576492 34.561585469605866 7.500000000000023
    vertex 25.999999999999996 43.81847500000006 7.5
    vertex 20.79817241220598 32.604114109537306 7.500000000000023
  endloop
endfacet
facet normal 0.0 0.0 -1.0
  outer loop
    vertex 20.79817241220598 32.604114109537306 7.500000000000023
    vertex 25.999999999999996 43.81847500000006 7.5
    vertex 20.994613540032848 30.524954395061933 7.500000000000023
  endloop
endfacet
facet normal 0.0 0.0 -1.0
  outer loop
    vertex 0.0 2.5732194153249563e-14 7.5
    vertex 10.250000000000023 5.0553352791854556 7.500000000000026
    vertex 25.999999999999996 2.5732194153249563e-14 7.5
  endloop
endfacet
facet normal 0.0 0.0 -1.0
  outer loop
    vertex 10.250000000000023 5.0553352791854556 7.500000000000026
    vertex 0.0 2.5732194153249563e-14 7.5
    vertex 7.500000000000026 9.818474999999868 7.500000000000026
  endloop
endfacet
facet normal 0.0 0.0 -1.0
  outer loop
    vertex 7.500000000000026 9.818474999999868 7.500000000000026
    vertex 0.0 2.5732194153249563e-14 7.5
    vertex 5.201827587794074 29.032835890462433 7.500000000000023
  endloop
endfacet
facet normal 0.0 0.0 -1.0
  outer loop
    vertex 5.201827587794074 29.032835890462433 7.500000000000023
    vertex 0.0 2.5732194153249563e-14 7.5
    vertex 5.005386459967161 31.111995604937817 7.500000000000023
  endloop
endfacet
facet normal 0.0 0.0 -1.0
  outer loop
    vertex 7.500000000000026 9.818474999999868 7.500000000000026
    vertex 5.201827587794074 29.032835890462433 7.500000000000023
    vertex 5.929701278423563 27.075364530393873 7.500000000000023
  endloop
endfacet
facet normal 0.0 0.0 -1.0
  outer loop
    vertex 7.500000000000026 9.818474999999868 7.500000000000026
    vertex 5.929701278423563 27.075364530393873 7.500000000000023
    vertex 7.1394041427073835 25.372979963046433 7.500000000000023
  endloop
endfacet
facet normal 0.0 0.0 -1.0
  outer loop
    vertex 25.999999999999996 2.5732194153249563e-14 7.5
    vertex 10.250000000000023 5.0553352791854556 7.500000000000026
    vertex 15.750000000000025 5.055335279185453 7.500000000000026
  endloop
endfacet
facet normal 0.0 0.0 -1.0
  outer loop
    vertex 25.999999999999996 2.5732194153249563e-14 7.5
    vertex 15.750000000000025 5.055335279185453 7.500000000000026
    vertex 18.50000000000003 9.818474999999868 7.500000000000026
  endloop
endfacet
facet normal 0.0 0.0 -1.0
  outer loop
    vertex 25.999999999999996 2.5732194153249563e-14 7.5
    vertex 18.50000000000003 9.818474999999868 7.500000000000026
    vertex 19.776778116638503 26.566971929572997 7.500000000000023
  endloop
endfacet
facet normal 0.0 0.0 -1.0
  outer loop
    vertex 25.999999999999996 2.5732194153249563e-14 7.5
    vertex 19.776778116638503 26.566971929572997 7.500000000000023
    vertex 20.64623496683009 28.46579762474733 7.500000000000023
  endloop
endfacet
facet normal 0.0 0.0 -1.0
  outer loop
    vertex 25.999999999999996 2.5732194153249563e-14 7.5
    vertex 20.64623496683009 28.46579762474733 7.500000000000023
    vertex 20.994613540032848 30.524954395061933 7.500000000000023
  endloop
endfacet
facet normal 0.0 0.0 -1.0
  outer loop
    vertex 25.999999999999996 2.5732194153249563e-14 7.5
    vertex 20.994613540032848 30.524954395061933 7.500000000000023
    vertex 25.999999999999996 43.81847500000006 7.5
  endloop
endfacet
facet normal -1.9522844879177754e-15 1.0 -0.0
  outer loop
    vertex 0.0 43.818475000000014 22.500000000000004
    vertex 25.999999999999996 43.81847500000006 7.5
    vertex 0.0 43.818475000000014 7.5
  endloop
endfacet
facet normal -1.9522844879177754e-15 1.0 -0.0
  outer loop
    vertex 25.999999999999996 43.81847500000006 7.5
    vertex 0.0 43.818475000000014 22.500000000000004
    vertex 25.999999999999996 43.81847500000006 22.500000000000004
  endloop
endfacet
facet normal 1.0 -0.0 -0.0
  outer loop
    vertex 25.999999999999996 43.81847500000006 7.5
    vertex 25.999999999999996 2.5732194153249563e-14 22.500000000000004
    vertex 25.999999999999996 2.5732194153249563e-14 7.5
  endloop
endfacet
facet normal 1.0 -0.0 -0.0
  outer loop
    vertex 25.999999999999996 2.5732194153249563e-14 22.500000000000004
    vertex 25.999999999999996 43.81847500000006 7.5
    vertex 25.999999999999996 43.81847500000006 22.500000000000004
  endloop
endfacet
facet normal -0.0 -0.0 1.0
  outer loop
    vertex 26.000000000000053 73.81847499999989 37.50000000000001
    vertex 0.0 43.818475000000014 37.50000000000001
    vertex 26.000000000000053 43.818475000000014 37.50000000000001
  endloop
endfacet
facet normal -0.7556890827898156 0.6549305384178443 0.0
  outer loop
    vertex 26.000000000000053 73.81847499999989 37.50000000000001
    vertex 0.0 43.818475000000014 22.500000000000004
    vertex 0.0 43.818475000000014 37.50000000000001
  endloop
endfacet
facet normal -0.7556890827898156 0.6549305384178443 0.0
  outer loop
    vertex 0.0 43.818475000000014 22.500000000000004
    vertex 26.000000000000053 73.81847499999989 37.50000000000001
    vertex 26.000000000000053 73.81847499999989 22.500000000000004
  endloop
endfacet
facet normal -0.7556890827898156 0.6549305384178443 0.0
  outer loop
    vertex 26.000000000000053 73.81847499999989 22.500000000000004
    vertex 26.000000000000053 73.81847499999989 37.50000000000001
    vertex 26.000000000000053 73.81847499999989 34.50000000000001
  endloop
endfacet
facet normal 0.0 0.0 1.0
  outer loop
    vertex 56.0000000000001 43.818475000000014 34.50000000000001
    vertex 26.000000000000053 73.81847499999989 34.50000000000001
    vertex 26.000000000000053 43.818475000000014 34.50000000000001
  endloop
endfacet
facet normal 0.0 0.0 1.0
  outer loop
    vertex 26.000000000000053 73.81847499999989 34.50000000000001
    vertex 56.0000000000001 43.818475000000014 34.50000000000001
    vertex 56.0000000000001 73.81847499999989 34.50000000000001
  endloop
endfacet
facet normal 1.0 0.0 0.0
  outer loop
    vertex 26.000000000000053 73.81847499999989 34.50000000000001
    vertex 26.000000000000053 43.818475000000014 37.50000000000001
    vertex 26.000000000000053 43.818475000000014 34.50000000000001
  endloop
endfacet
facet normal 1.0 0.0 0.0
  outer loop
    vertex 26.000000000000053 43.818475000000014 37.50000000000001
    vertex 26.000000000000053 73.81847499999989 34.50000000000001
    vertex 26.000000000000053 73.81847499999989 37.50000000000001
  endloop
endfacet
facet normal -0.0 1.0 -0.0
  outer loop
    vertex 26.000000000000053 43.818475000000014 37.50000000000001
    vertex 56.0000000000001 43.818475000000014 34.50000000000001
    vertex 26.000000000000053 43.818475000000014 34.50000000000001
  endloop
endfacet
facet normal -0.0 1.0 -0.0
  outer loop
    vertex 56.0000000000001 43.818475000000014 34.50000000000001
    vertex 26.000000000000053 43.818475000000014 37.50000000000001
    vertex 56.0000000000001 43.818475000000014 37.50000000000001
  endloop
endfacet
facet normal 0.0 -1.0 0.0
  outer loop
    vertex 26.000000000000053 17.818475000000067 42.50000000000002
    vertex 0.0 17.818475000000067 37.50000000000001
    vertex 26.000000000000053 17.818475000000067 37.50000000000001
  endloop
endfacet
facet normal 0.0 -1.0 0.0
  outer loop
    vertex 0.0 17.818475000000067 37.50000000000001
    vertex 26.000000000000053 17.818475000000067 42.50000000000002
    vertex 0.0 17.818475000000067 42.50000000000002
  endloop
endfacet
facet normal 1.0 0.0 0.0
  outer loop
    vertex 26.000000000000053 43.818475000000014 37.50000000000001
    vertex 26.000000000000053 17.818475000000067 42.50000000000002
    vertex 26.000000000000053 17.818475000000067 37.50000000000001
  endloop
endfacet
facet normal 1.0 0.0 0.0
  outer loop
    vertex 26.000000000000053 17.818475000000067 42.50000000000002
    vertex 26.000000000000053 43.818475000000014 37.50000000000001
    vertex 26.000000000000053 43.818475000000014 42.50000000000002
  endloop
endfacet
facet normal 0.0 0.0 -1.0
  outer loop
    vertex 26.000000000000053 73.81847499999989 22.500000000000004
    vertex 25.999999999999996 43.81847500000006 22.500000000000004
    vertex 0.0 43.818475000000014 22.500000000000004
  endloop
endfacet
facet normal 0.0 0.0 -1.0
  outer loop
    vertex 25.999999999999996 43.81847500000006 22.500000000000004
    vertex 26.000000000000053 73.81847499999989 22.500000000000004
    vertex 25.999999999999996 2.5732194153249563e-14 22.500000000000004
  endloop
endfacet
facet normal 0.0 0.0 -1.0
  outer loop
    vertex 25.999999999999996 2.5732194153249563e-14 22.500000000000004
    vertex 26.000000000000053 73.81847499999989 22.500000000000004
    vertex 56.0000000000001 43.818475000000014 22.500000000000004
  endloop
endfacet
facet normal 0.0 0.0 -1.0
  outer loop
    vertex 56.0000000000001 43.818475000000014 22.500000000000004
    vertex 26.000000000000053 73.81847499999989 22.500000000000004
    vertex 56.0000000000001 73.81847499999989 22.500000000000004
  endloop
endfacet
facet normal -0.0 -0.0 1.0
  outer loop
    vertex 0.0 4.511946372076636e-14 37.50000000000001
    vertex 10.250000000000023 5.0553352791854556 37.50000000000001
    vertex 0.0 17.818475000000067 37.50000000000001
  endloop
endfacet
facet normal -0.0 -0.0 1.0
  outer loop
    vertex 10.250000000000023 5.0553352791854556 37.50000000000001
    vertex 0.0 4.511946372076636e-14 37.50000000000001
    vertex 25.999999999999996 2.5732194153249563e-14 37.50000000000001
  endloop
endfacet
facet normal -0.0 -0.0 1.0
  outer loop
    vertex 0.0 17.818475000000067 37.50000000000001
    vertex 10.250000000000023 5.0553352791854556 37.50000000000001
    vertex 7.500000000000026 9.818474999999868 37.50000000000001
  endloop
endfacet
facet normal -0.0 -0.0 1.0
  outer loop
    vertex 10.250000000000023 5.0553352791854556 37.50000000000001
    vertex 25.999999999999996 2.5732194153249563e-14 37.50000000000001
    vertex 15.750000000000025 5.055335279185453 37.50000000000001
  endloop
endfacet
facet normal -0.0 -0.0 1.0
  outer loop
    vertex 15.750000000000025 5.055335279185453 37.50000000000001
    vertex 25.999999999999996 2.5732194153249563e-14 37.50000000000001
    vertex 18.50000000000003 9.818474999999868 37.50000000000001
  endloop
endfacet
facet normal -0.0 -0.0 1.0
  outer loop
    vertex 0.0 17.818475000000067 37.50000000000001
    vertex 10.250000000000028 14.581614720814281 37.50000000000001
    vertex 26.000000000000053 17.818475000000067 37.50000000000001
  endloop
endfacet
facet normal -0.0 -0.0 1.0
  outer loop
    vertex 10.250000000000028 14.581614720814281 37.50000000000001
    vertex 0.0 17.818475000000067 37.50000000000001
    vertex 7.500000000000026 9.818474999999868 37.50000000000001
  endloop
endfacet
facet normal -0.0 -0.0 1.0
  outer loop
    vertex 26.000000000000053 17.818475000000067 37.50000000000001
    vertex 10.250000000000028 14.581614720814281 37.50000000000001
    vertex 15.750000000000028 14.581614720814281 37.50000000000001
  endloop
endfacet
facet normal -0.0 -0.0 1.0
  outer loop
    vertex 26.000000000000053 17.818475000000067 37.50000000000001
    vertex 15.750000000000028 14.581614720814281 37.50000000000001
    vertex 18.50000000000003 9.818474999999868 37.50000000000001
  endloop
endfacet
facet normal -0.0 -0.0 1.0
  outer loop
    vertex 26.000000000000053 17.818475000000067 37.50000000000001
    vertex 18.50000000000003 9.818474999999868 37.50000000000001
    vertex 25.999999999999996 2.5732194153249563e-14 37.50000000000001
  endloop
endfacet
facet normal -0.0 -0.0 1.0
  outer loop
    vertex 26.000000000000053 17.818475000000067 37.50000000000001
    vertex 25.999999999999996 2.5732194153249563e-14 37.50000000000001
    vertex 56.0000000000001 43.818475000000014 37.50000000000001
  endloop
endfacet
facet normal -0.0 -0.0 1.0
  outer loop
    vertex 26.000000000000053 17.818475000000067 37.50000000000001
    vertex 56.0000000000001 43.818475000000014 37.50000000000001
    vertex 26.000000000000053 43.818475000000014 37.50000000000001
  endloop
endfacet
facet normal -4.971094760901742e-16 -1.0 2.721020290177796e-16
  outer loop
    vertex 25.999999999999996 2.5732194153249563e-14 22.500000000000004
    vertex 0.0 2.5732194153249563e-14 7.5
    vertex 25.999999999999996 2.5732194153249563e-14 7.5
  endloop
endfacet
facet normal -4.971094760901742e-16 -1.0 2.721020290177796e-16
  outer loop
    vertex 0.0 2.5732194153249563e-14 7.5
    vertex 25.999999999999996 2.5732194153249563e-14 22.500000000000004
    vertex 0.0 4.511946372076636e-14 37.50000000000001
  endloop
endfacet
facet normal -4.971094760901742e-16 -1.0 2.721020290177796e-16
  outer loop
    vertex 0.0 4.511946372076636e-14 37.50000000000001
    vertex 25.999999999999996 2.5732194153249563e-14 22.500000000000004
    vertex 25.999999999999996 2.5732194153249563e-14 37.50000000000001
  endloop
endfacet
facet normal 0.8251410259934107 -0.5649267981097567 1.0408314078990177e-16
  outer loop
    vertex 56.0000000000001 43.818475000000014 22.500000000000004
    vertex 25.999999999999996 2.5732194153249563e-14 37.50000000000001
    vertex 25.999999999999996 2.5732194153249563e-14 22.500000000000004
  endloop
endfacet
facet normal 0.8251410259934107 -0.5649267981097567 1.0408314078990177e-16
  outer loop
    vertex 25.999999999999996 2.5732194153249563e-14 37.50000000000001
    vertex 56.0000000000001 43.818475000000014 22.500000000000004
    vertex 56.0000000000001 43.818475000000014 37.50000000000001
  endloop
endfacet
facet normal 0.8251410259934107 -0.5649267981097567 1.0408314078990177e-16
  outer loop
    vertex 56.0000000000001 43.818475000000014 37.50000000000001
    vertex 56.0000000000001 43.818475000000014 22.500000000000004
    vertex 56.0000000000001 43.818475000000014 34.50000000000001
  endloop
endfacet
facet normal -0.09398489264102974 0.9955736235734927 -0.0
  outer loop
    vertex 12.889697214087876 6.820503469878205 31.50000000000001
    vertex 13.669387819046477 6.894108410854068 13.500000000000027
    vertex 12.889697214087876 6.820503469878205 13.500000000000027
  endloop
endfacet
facet normal -0.09398489264102974 0.9955736235734927 -0.0
  outer loop
    vertex 13.669387819046477 6.894108410854068 13.500000000000027
    vertex 12.889697214087876 6.820503469878205 31.50000000000001
    vertex 13.669387819046477 6.894108410854068 31.50000000000001
  endloop
endfacet
facet normal -0.3484558496655231 0.9373251948144136 -0.0
  outer loop
    vertex 13.669387819046477 6.894108410854068 31.50000000000001
    vertex 14.403460750352739 7.167004102135929 13.500000000000027
    vertex 13.669387819046477 6.894108410854068 13.500000000000027
  endloop
endfacet
facet normal -0.3484558496655231 0.9373251948144136 -0.0
  outer loop
    vertex 14.403460750352739 7.167004102135929 13.500000000000027
    vertex 13.669387819046477 6.894108410854068 31.50000000000001
    vertex 14.403460750352739 7.167004102135929 31.50000000000001
  endloop
endfacet
facet normal -0.5791801163858291 0.8151996030318572 -0.0
  outer loop
    vertex 14.403460750352739 7.167004102135929 31.50000000000001
    vertex 15.041890150851014 7.620593153344381 13.500000000000027
    vertex 14.403460750352739 7.167004102135929 13.500000000000027
  endloop
endfacet
facet normal -0.5791801163858291 0.8151996030318572 -0.0
  outer loop
    vertex 15.041890150851014 7.620593153344381 13.500000000000027
    vertex 14.403460750352739 7.167004102135929 31.50000000000001
    vertex 15.041890150851014 7.620593153344381 31.50000000000001
  endloop
endfacet
facet normal -0.7704342153148404 0.6375195054837195 -0.0
  outer loop
    vertex 15.541168111951817 8.22396422023092 31.50000000000001
    vertex 15.041890150851014 7.620593153344381 13.500000000000027
    vertex 15.041890150851014 7.620593153344381 31.50000000000001
  endloop
endfacet
facet normal -0.7704342153148404 0.6375195054837195 -0.0
  outer loop
    vertex 15.041890150851014 7.620593153344381 13.500000000000027
    vertex 15.541168111951817 8.22396422023092 31.50000000000001
    vertex 15.541168111951817 8.22396422023092 13.500000000000027
  endloop
endfacet
facet normal -0.9091844956728856 0.41639350718766094 -0.0
  outer loop
    vertex 15.867269665701965 8.935998561705057 31.50000000000001
    vertex 15.541168111951817 8.22396422023092 13.500000000000027
    vertex 15.541168111951817 8.22396422023092 31.50000000000001
  endloop
endfacet
facet normal -0.9091844956728856 0.41639350718766094 -0.0
  outer loop
    vertex 15.541168111951817 8.22396422023092 13.500000000000027
    vertex 15.867269665701965 8.935998561705057 31.50000000000001
    vertex 15.867269665701965 8.935998561705057 13.500000000000027
  endloop
endfacet
facet normal -0.9859753551492415 0.16689097949957454 -0.0
  outer loop
    vertex 15.99797153012169 9.708172214087718 31.50000000000001
    vertex 15.867269665701965 8.935998561705057 13.500000000000027
    vertex 15.867269665701965 8.935998561705057 31.50000000000001
  endloop
endfacet
facet normal -0.9859753551492415 0.16689097949957454 -0.0
  outer loop
    vertex 15.867269665701965 8.935998561705057 13.500000000000027
    vertex 15.99797153012169 9.708172214087718 31.50000000000001
    vertex 15.99797153012169 9.708172214087718 13.500000000000027
  endloop
endfacet
facet normal -0.9955736235734925 -0.0939848926410312 -0.0
  outer loop
    vertex 15.924366589145825 10.48786281904632 31.50000000000001
    vertex 15.99797153012169 9.708172214087718 13.500000000000027
    vertex 15.99797153012169 9.708172214087718 31.50000000000001
  endloop
endfacet
facet normal -0.9955736235734925 -0.0939848926410312 -0.0
  outer loop
    vertex 15.99797153012169 9.708172214087718 13.500000000000027
    vertex 15.924366589145825 10.48786281904632 31.50000000000001
    vertex 15.924366589145825 10.48786281904632 13.500000000000027
  endloop
endfacet
facet normal -0.9373251948144143 -0.34845584966552157 -0.0
  outer loop
    vertex 15.651470897863964 11.221935750352582 31.50000000000001
    vertex 15.924366589145825 10.48786281904632 13.500000000000027
    vertex 15.924366589145825 10.48786281904632 31.50000000000001
  endloop
endfacet
facet normal -0.9373251948144143 -0.34845584966552157 -0.0
  outer loop
    vertex 15.924366589145825 10.48786281904632 13.500000000000027
    vertex 15.651470897863964 11.221935750352582 31.50000000000001
    vertex 15.651470897863964 11.221935750352582 13.500000000000027
  endloop
endfacet
facet normal -0.8151996030318552 -0.579180116385832 -0.0
  outer loop
    vertex 15.197881846655513 11.860365150850855 31.50000000000001
    vertex 15.651470897863964 11.221935750352582 13.500000000000027
    vertex 15.651470897863964 11.221935750352582 31.50000000000001
  endloop
endfacet
facet normal -0.8151996030318552 -0.579180116385832 -0.0
  outer loop
    vertex 15.651470897863964 11.221935750352582 13.500000000000027
    vertex 15.197881846655513 11.860365150850855 31.50000000000001
    vertex 15.197881846655513 11.860365150850855 13.500000000000027
  endloop
endfacet
facet normal -0.6375195054837204 -0.7704342153148396 -0.0
  outer loop
    vertex 15.197881846655513 11.860365150850855 31.50000000000001
    vertex 14.594510779768974 12.359643111951659 13.500000000000027
    vertex 15.197881846655513 11.860365150850855 13.500000000000027
  endloop
endfacet
facet normal -0.6375195054837204 -0.7704342153148396 -0.0
  outer loop
    vertex 14.594510779768974 12.359643111951659 13.500000000000027
    vertex 15.197881846655513 11.860365150850855 31.50000000000001
    vertex 14.594510779768974 12.359643111951659 31.50000000000001
  endloop
endfacet
facet normal -0.41639350718766094 -0.9091844956728856 -0.0
  outer loop
    vertex 14.594510779768974 12.359643111951659 31.50000000000001
    vertex 13.882476438294837 12.685744665701806 13.500000000000027
    vertex 14.594510779768974 12.359643111951659 13.500000000000027
  endloop
endfacet
facet normal -0.41639350718766094 -0.9091844956728856 -0.0
  outer loop
    vertex 13.882476438294837 12.685744665701806 13.500000000000027
    vertex 14.594510779768974 12.359643111951659 31.50000000000001
    vertex 13.882476438294837 12.685744665701806 31.50000000000001
  endloop
endfacet
facet normal -0.16689097949957393 -0.9859753551492415 -0.0
  outer loop
    vertex 13.882476438294837 12.685744665701806 31.50000000000001
    vertex 13.110302785912175 12.816446530121532 13.500000000000027
    vertex 13.882476438294837 12.685744665701806 13.500000000000027
  endloop
endfacet
facet normal -0.16689097949957393 -0.9859753551492415 -0.0
  outer loop
    vertex 13.110302785912175 12.816446530121532 13.500000000000027
    vertex 13.882476438294837 12.685744665701806 31.50000000000001
    vertex 13.110302785912175 12.816446530121532 31.50000000000001
  endloop
endfacet
facet normal 0.09398489264103169 -0.9955736235734923 -0.0
  outer loop
    vertex 13.110302785912175 12.816446530121532 31.50000000000001
    vertex 12.330612180953576 12.742841589145666 13.500000000000027
    vertex 13.110302785912175 12.816446530121532 13.500000000000027
  endloop
endfacet
facet normal 0.09398489264103169 -0.9955736235734923 -0.0
  outer loop
    vertex 12.330612180953576 12.742841589145666 13.500000000000027
    vertex 13.110302785912175 12.816446530121532 31.50000000000001
    vertex 12.330612180953576 12.742841589145666 31.50000000000001
  endloop
endfacet
facet normal 0.34845584966552157 -0.9373251948144143 -0.0
  outer loop
    vertex 12.330612180953576 12.742841589145666 31.50000000000001
    vertex 11.596539249647314 12.469945897863806 13.500000000000027
    vertex 12.330612180953576 12.742841589145666 13.500000000000027
  endloop
endfacet
facet normal 0.34845584966552157 -0.9373251948144143 -0.0
  outer loop
    vertex 11.596539249647314 12.469945897863806 13.500000000000027
    vertex 12.330612180953576 12.742841589145666 31.50000000000001
    vertex 11.596539249647314 12.469945897863806 31.50000000000001
  endloop
endfacet
facet normal 0.5791801163858311 -0.8151996030318558 -0.0
  outer loop
    vertex 11.596539249647314 12.469945897863806 31.50000000000001
    vertex 10.95810984914904 12.016356846655354 13.500000000000027
    vertex 11.596539249647314 12.469945897863806 13.500000000000027
  endloop
endfacet
facet normal 0.5791801163858311 -0.8151996030318558 -0.0
  outer loop
    vertex 10.95810984914904 12.016356846655354 13.500000000000027
    vertex 11.596539249647314 12.469945897863806 31.50000000000001
    vertex 10.95810984914904 12.016356846655354 31.50000000000001
  endloop
endfacet
facet normal 0.7704342153148406 -0.6375195054837194 -0.0
  outer loop
    vertex 10.95810984914904 12.016356846655354 13.500000000000027
    vertex 10.458831888048238 11.412985779768816 31.50000000000001
    vertex 10.458831888048238 11.412985779768816 13.500000000000027
  endloop
endfacet
facet normal 0.7704342153148406 -0.6375195054837194 -0.0
  outer loop
    vertex 10.458831888048238 11.412985779768816 31.50000000000001
    vertex 10.95810984914904 12.016356846655354 13.500000000000027
    vertex 10.95810984914904 12.016356846655354 31.50000000000001
  endloop
endfacet
facet normal 0.9091844956728851 -0.41639350718766244 -0.0
  outer loop
    vertex 10.458831888048238 11.412985779768816 13.500000000000027
    vertex 10.132730334298088 10.700951438294679 31.50000000000001
    vertex 10.132730334298088 10.700951438294679 13.500000000000027
  endloop
endfacet
facet normal 0.9091844956728851 -0.41639350718766244 -0.0
  outer loop
    vertex 10.132730334298088 10.700951438294679 31.50000000000001
    vertex 10.458831888048238 11.412985779768816 13.500000000000027
    vertex 10.458831888048238 11.412985779768816 31.50000000000001
  endloop
endfacet
facet normal 0.9859753551492415 -0.16689097949957454 -0.0
  outer loop
    vertex 10.132730334298088 10.700951438294679 13.500000000000027
    vertex 10.002028469878365 9.928777785912018 31.50000000000001
    vertex 10.002028469878365 9.928777785912018 13.500000000000027
  endloop
endfacet
facet normal 0.9859753551492415 -0.16689097949957454 -0.0
  outer loop
    vertex 10.002028469878365 9.928777785912018 31.50000000000001
    vertex 10.132730334298088 10.700951438294679 13.500000000000027
    vertex 10.132730334298088 10.700951438294679 31.50000000000001
  endloop
endfacet
facet normal 0.9955736235734925 0.0939848926410294 0.0
  outer loop
    vertex 10.002028469878365 9.928777785912018 13.500000000000027
    vertex 10.075633410854227 9.149087180953416 31.50000000000001
    vertex 10.075633410854227 9.149087180953416 13.500000000000027
  endloop
endfacet
facet normal 0.9955736235734925 0.0939848926410294 0.0
  outer loop
    vertex 10.075633410854227 9.149087180953416 31.50000000000001
    vertex 10.002028469878365 9.928777785912018 13.500000000000027
    vertex 10.002028469878365 9.928777785912018 31.50000000000001
  endloop
endfacet
facet normal 0.9373251948144133 0.34845584966552373 0.0
  outer loop
    vertex 10.075633410854227 9.149087180953416 13.500000000000027
    vertex 10.348529102136089 8.415014249647154 31.50000000000001
    vertex 10.348529102136089 8.415014249647154 13.500000000000027
  endloop
endfacet
facet normal 0.9373251948144133 0.34845584966552373 0.0
  outer loop
    vertex 10.348529102136089 8.415014249647154 31.50000000000001
    vertex 10.075633410854227 9.149087180953416 13.500000000000027
    vertex 10.075633410854227 9.149087180953416 31.50000000000001
  endloop
endfacet
facet normal 0.8151996030318567 0.57918011638583 0.0
  outer loop
    vertex 10.348529102136089 8.415014249647154 13.500000000000027
    vertex 10.80211815334454 7.776584849148881 31.50000000000001
    vertex 10.80211815334454 7.776584849148881 13.500000000000027
  endloop
endfacet
facet normal 0.8151996030318567 0.57918011638583 0.0
  outer loop
    vertex 10.80211815334454 7.776584849148881 31.50000000000001
    vertex 10.348529102136089 8.415014249647154 13.500000000000027
    vertex 10.348529102136089 8.415014249647154 31.50000000000001
  endloop
endfacet
facet normal 0.6375195054837194 0.7704342153148406 0.0
  outer loop
    vertex 10.80211815334454 7.776584849148881 31.50000000000001
    vertex 11.405489220231077 7.277306888048079 13.500000000000027
    vertex 10.80211815334454 7.776584849148881 13.500000000000027
  endloop
endfacet
facet normal 0.6375195054837194 0.7704342153148406 0.0
  outer loop
    vertex 11.405489220231077 7.277306888048079 13.500000000000027
    vertex 10.80211815334454 7.776584849148881 31.50000000000001
    vertex 11.405489220231077 7.277306888048079 31.50000000000001
  endloop
endfacet
facet normal 0.41639350718766244 0.9091844956728851 0.0
  outer loop
    vertex 11.405489220231077 7.277306888048079 31.50000000000001
    vertex 12.117523561705216 6.95120533429793 13.500000000000027
    vertex 11.405489220231077 7.277306888048079 13.500000000000027
  endloop
endfacet
facet normal 0.41639350718766244 0.9091844956728851 0.0
  outer loop
    vertex 12.117523561705216 6.95120533429793 13.500000000000027
    vertex 11.405489220231077 7.277306888048079 31.50000000000001
    vertex 12.117523561705216 6.95120533429793 31.50000000000001
  endloop
endfacet
facet normal 0.16689097949957424 0.9859753551492414 0.0
  outer loop
    vertex 12.117523561705216 6.95120533429793 31.50000000000001
    vertex 12.889697214087876 6.820503469878205 13.500000000000027
    vertex 12.117523561705216 6.95120533429793 13.500000000000027
  endloop
endfacet
facet normal 0.16689097949957424 0.9859753551492414 0.0
  outer loop
    vertex 12.889697214087876 6.820503469878205 13.500000000000027
    vertex 12.117523561705216 6.95120533429793 31.50000000000001
    vertex 12.889697214087876 6.820503469878205 31.50000000000001
  endloop
endfacet
facet normal 0.0 0.0 -1.0
  outer loop
    vertex 10.250000000000028 14.581614720814281 13.500000000000027
    vertex 10.002028469878365 9.928777785912018 13.500000000000027
    vertex 7.500000000000026 9.818474999999868 13.500000000000027
  endloop
endfacet
facet normal 0.0 0.0 -1.0
  outer loop
    vertex 10.002028469878365 9.928777785912018 13.500000000000027
    vertex 10.250000000000028 14.581614720814281 13.500000000000027
    vertex 10.132730334298088 10.700951438294679 13.500000000000027
  endloop
endfacet
facet normal 0.0 0.0 -1.0
  outer loop
    vertex 10.132730334298088 10.700951438294679 13.500000000000027
    vertex 10.250000000000028 14.581614720814281 13.500000000000027
    vertex 10.458831888048238 11.412985779768816 13.500000000000027
  endloop
endfacet
facet normal 0.0 0.0 -1.0
  outer loop
    vertex 10.458831888048238 11.412985779768816 13.500000000000027
    vertex 10.250000000000028 14.581614720814281 13.500000000000027
    vertex 10.95810984914904 12.016356846655354 13.500000000000027
  endloop
endfacet
facet normal 0.0 0.0 -1.0
  outer loop
    vertex 10.95810984914904 12.016356846655354 13.500000000000027
    vertex 10.250000000000028 14.581614720814281 13.500000000000027
    vertex 11.596539249647314 12.469945897863806 13.500000000000027
  endloop
endfacet
facet normal 0.0 0.0 -1.0
  outer loop
    vertex 11.596539249647314 12.469945897863806 13.500000000000027
    vertex 10.250000000000028 14.581614720814281 13.500000000000027
    vertex 15.750000000000028 14.581614720814281 13.500000000000027
  endloop
endfacet
facet normal 0.0 0.0 -1.0
  outer loop
    vertex 11.596539249647314 12.469945897863806 13.500000000000027
    vertex 15.750000000000028 14.581614720814281 13.500000000000027
    vertex 12.330612180953576 12.742841589145666 13.500000000000027
  endloop
endfacet
facet normal 0.0 0.0 -1.0
  outer loop
    vertex 12.330612180953576 12.742841589145666 13.500000000000027
    vertex 15.750000000000028 14.581614720814281 13.500000000000027
    vertex 13.110302785912175 12.816446530121532 13.500000000000027
  endloop
endfacet
facet normal 0.0 0.0 -1.0
  outer loop
    vertex 13.110302785912175 12.816446530121532 13.500000000000027
    vertex 15.750000000000028 14.581614720814281 13.500000000000027
    vertex 13.882476438294837 12.685744665701806 13.500000000000027
  endloop
endfacet
facet normal 0.0 0.0 -1.0
  outer loop
    vertex 13.882476438294837 12.685744665701806 13.500000000000027
    vertex 15.750000000000028 14.581614720814281 13.500000000000027
    vertex 14.594510779768974 12.359643111951659 13.500000000000027
  endloop
endfacet
facet normal 0.0 0.0 -1.0
  outer loop
    vertex 14.594510779768974 12.359643111951659 13.500000000000027
    vertex 15.750000000000028 14.581614720814281 13.500000000000027
    vertex 15.197881846655513 11.860365150850855 13.500000000000027
  endloop
endfacet
facet normal 0.0 0.0 -1.0
  outer loop
    vertex 15.197881846655513 11.860365150850855 13.500000000000027
    vertex 15.750000000000028 14.581614720814281 13.500000000000027
    vertex 15.651470897863964 11.221935750352582 13.500000000000027
  endloop
endfacet
facet normal 0.0 0.0 -1.0
  outer loop
    vertex 15.651470897863964 11.221935750352582 13.500000000000027
    vertex 15.750000000000028 14.581614720814281 13.500000000000027
    vertex 15.924366589145825 10.48786281904632 13.500000000000027
  endloop
endfacet
facet normal 0.0 0.0 -1.0
  outer loop
    vertex 15.924366589145825 10.48786281904632 13.500000000000027
    vertex 15.750000000000028 14.581614720814281 13.500000000000027
    vertex 18.50000000000003 9.818474999999868 13.500000000000027
  endloop
endfacet
facet normal 0.0 0.0 -1.0
  outer loop
    vertex 15.924366589145825 10.48786281904632 13.500000000000027
    vertex 18.50000000000003 9.818474999999868 13.500000000000027
    vertex 15.99797153012169 9.708172214087718 13.500000000000027
  endloop
endfacet
facet normal 0.0 0.0 -1.0
  outer loop
    vertex 10.002028469878365 9.928777785912018 13.500000000000027
    vertex 10.250000000000023 5.0553352791854556 13.500000000000027
    vertex 7.500000000000026 9.818474999999868 13.500000000000027
  endloop
endfacet
facet normal 0.0 0.0 -1.0
  outer loop
    vertex 10.250000000000023 5.0553352791854556 13.500000000000027
    vertex 10.002028469878365 9.928777785912018 13.500000000000027
    vertex 10.075633410854227 9.149087180953416 13.500000000000027
  endloop
endfacet
facet normal 0.0 0.0 -1.0
  outer loop
    vertex 10.250000000000023 5.0553352791854556 13.500000000000027
    vertex 10.075633410854227 9.149087180953416 13.500000000000027
    vertex 10.348529102136089 8.415014249647154 13.500000000000027
  endloop
endfacet
facet normal 0.0 0.0 -1.0
  outer loop
    vertex 10.250000000000023 5.0553352791854556 13.500000000000027
    vertex 10.348529102136089 8.415014249647154 13.500000000000027
    vertex 10.80211815334454 7.776584849148881 13.500000000000027
  endloop
endfacet
facet normal 0.0 0.0 -1.0
  outer loop
    vertex 10.250000000000023 5.0553352791854556 13.500000000000027
    vertex 10.80211815334454 7.776584849148881 13.500000000000027
    vertex 11.405489220231077 7.277306888048079 13.500000000000027
  endloop
endfacet
facet normal 0.0 0.0 -1.0
  outer loop
    vertex 10.250000000000023 5.0553352791854556 13.500000000000027
    vertex 11.405489220231077 7.277306888048079 13.500000000000027
    vertex 15.750000000000025 5.055335279185453 13.500000000000027
  endloop
endfacet
facet normal 0.0 0.0 -1.0
  outer loop
    vertex 15.750000000000025 5.055335279185453 13.500000000000027
    vertex 11.405489220231077 7.277306888048079 13.500000000000027
    vertex 12.117523561705216 6.95120533429793 13.500000000000027
  endloop
endfacet
facet normal 0.0 0.0 -1.0
  outer loop
    vertex 15.750000000000025 5.055335279185453 13.500000000000027
    vertex 12.117523561705216 6.95120533429793 13.500000000000027
    vertex 12.889697214087876 6.820503469878205 13.500000000000027
  endloop
endfacet
facet normal 0.0 0.0 -1.0
  outer loop
    vertex 15.750000000000025 5.055335279185453 13.500000000000027
    vertex 12.889697214087876 6.820503469878205 13.500000000000027
    vertex 13.669387819046477 6.894108410854068 13.500000000000027
  endloop
endfacet
facet normal 0.0 0.0 -1.0
  outer loop
    vertex 15.750000000000025 5.055335279185453 13.500000000000027
    vertex 13.669387819046477 6.894108410854068 13.500000000000027
    vertex 14.403460750352739 7.167004102135929 13.500000000000027
  endloop
endfacet
facet normal 0.0 0.0 -1.0
  outer loop
    vertex 15.750000000000025 5.055335279185453 13.500000000000027
    vertex 14.403460750352739 7.167004102135929 13.500000000000027
    vertex 15.041890150851014 7.620593153344381 13.500000000000027
  endloop
endfacet
facet normal 0.0 0.0 -1.0
  outer loop
    vertex 15.750000000000025 5.055335279185453 13.500000000000027
    vertex 15.041890150851014 7.620593153344381 13.500000000000027
    vertex 15.541168111951817 8.22396422023092 13.500000000000027
  endloop
endfacet
facet normal 0.0 0.0 -1.0
  outer loop
    vertex 15.750000000000025 5.055335279185453 13.500000000000027
    vertex 15.541168111951817 8.22396422023092 13.500000000000027
    vertex 15.867269665701965 8.935998561705057 13.500000000000027
  endloop
endfacet
facet normal 0.0 0.0 -1.0
  outer loop
    vertex 15.750000000000025 5.055335279185453 13.500000000000027
    vertex 15.867269665701965 8.935998561705057 13.500000000000027
    vertex 18.50000000000003 9.818474999999868 13.500000000000027
  endloop
endfacet
facet normal 0.0 0.0 -1.0
  outer loop
    vertex 18.50000000000003 9.818474999999868 13.500000000000027
    vertex 15.867269665701965 8.935998561705057 13.500000000000027
    vertex 15.99797153012169 9.708172214087718 13.500000000000027
  endloop
endfacet
facet normal 0.8660254037844385 -0.5000000000000003 -0.0
  outer loop
    vertex 10.250000000000028 14.581614720814281 7.500000000000026
    vertex 7.500000000000026 9.818474999999868 13.500000000000027
    vertex 7.500000000000026 9.818474999999868 7.500000000000026
  endloop
endfacet
facet normal 0.8660254037844385 -0.5000000000000003 -0.0
  outer loop
    vertex 7.500000000000026 9.818474999999868 13.500000000000027
    vertex 10.250000000000028 14.581614720814281 7.500000000000026
    vertex 10.250000000000028 14.581614720814281 13.500000000000027
  endloop
endfacet
facet normal 0.0 -1.0 -0.0
  outer loop
    vertex 15.750000000000028 14.581614720814281 13.500000000000027
    vertex 10.250000000000028 14.581614720814281 7.500000000000026
    vertex 15.750000000000028 14.581614720814281 7.500000000000026
  endloop
endfacet
facet normal 0.0 -1.0 -0.0
  outer loop
    vertex 10.250000000000028 14.581614720814281 7.500000000000026
    vertex 15.750000000000028 14.581614720814281 13.500000000000027
    vertex 10.250000000000028 14.581614720814281 13.500000000000027
  endloop
endfacet
facet normal -0.8660254037844387 -0.5000000000000001 -0.0
  outer loop
    vertex 15.750000000000028 14.581614720814281 13.500000000000027
    vertex 18.50000000000003 9.818474999999868 7.500000000000026
    vertex 18.50000000000003 9.818474999999868 13.500000000000027
  endloop
endfacet
facet normal -0.8660254037844387 -0.5000000000000001 -0.0
  outer loop
    vertex 18.50000000000003 9.818474999999868 7.500000000000026
    vertex 15.750000000000028 14.581614720814281 13.500000000000027
    vertex 15.750000000000028 14.581614720814281 7.500000000000026
  endloop
endfacet
facet normal -0.8660254037844386 0.5000000000000002 -0.0
  outer loop
    vertex 18.50000000000003 9.818474999999868 13.500000000000027
    vertex 15.750000000000025 5.055335279185453 7.500000000000026
    vertex 15.750000000000025 5.055335279185453 13.500000000000027
  endloop
endfacet
facet normal -0.8660254037844386 0.5000000000000002 -0.0
  outer loop
    vertex 15.750000000000025 5.055335279185453 7.500000000000026
    vertex 18.50000000000003 9.818474999999868 13.500000000000027
    vertex 18.50000000000003 9.818474999999868 7.500000000000026
  endloop
endfacet
facet normal 5.127211786450722e-16 1.0 0.0
  outer loop
    vertex 10.250000000000023 5.0553352791854556 13.500000000000027
    vertex 15.750000000000025 5.055335279185453 7.500000000000026
    vertex 10.250000000000023 5.0553352791854556 7.500000000000026
  endloop
endfacet
facet normal 5.127211786450722e-16 1.0 0.0
  outer loop
    vertex 15.750000000000025 5.055335279185453 7.500000000000026
    vertex 10.250000000000023 5.0553352791854556 13.500000000000027
    vertex 15.750000000000025 5.055335279185453 13.500000000000027
  endloop
endfacet
facet normal 0.8660254037844388 0.4999999999999997 0.0
  outer loop
    vertex 7.500000000000026 9.818474999999868 7.500000000000026
    vertex 10.250000000000023 5.0553352791854556 13.500000000000027
    vertex 10.250000000000023 5.0553352791854556 7.500000000000026
  endloop
endfacet
facet normal 0.8660254037844388 0.4999999999999997 0.0
  outer loop
    vertex 10.250000000000023 5.0553352791854556 13.500000000000027
    vertex 7.500000000000026 9.818474999999868 7.500000000000026
    vertex 7.500000000000026 9.818474999999868 13.500000000000027
  endloop
endfacet
facet normal 0.0 0.0 1.0
  outer loop
    vertex 10.250000000000023 5.0553352791854556 31.50000000000001
    vertex 10.002028469878365 9.928777785912018 31.50000000000001
    vertex 7.500000000000026 9.818474999999868 31.50000000000001
  endloop
endfacet
facet normal 0.0 0.0 1.0
  outer loop
    vertex 10.002028469878365 9.928777785912018 31.50000000000001
    vertex 10.250000000000023 5.0553352791854556 31.50000000000001
    vertex 10.075633410854227 9.149087180953416 31.50000000000001
  endloop
endfacet
facet normal 0.0 0.0 1.0
  outer loop
    vertex 10.075633410854227 9.149087180953416 31.50000000000001
    vertex 10.250000000000023 5.0553352791854556 31.50000000000001
    vertex 10.348529102136089 8.415014249647154 31.50000000000001
  endloop
endfacet
facet normal 0.0 0.0 1.0
  outer loop
    vertex 10.348529102136089 8.415014249647154 31.50000000000001
    vertex 10.250000000000023 5.0553352791854556 31.50000000000001
    vertex 10.80211815334454 7.776584849148881 31.50000000000001
  endloop
endfacet
facet normal 0.0 0.0 1.0
  outer loop
    vertex 10.80211815334454 7.776584849148881 31.50000000000001
    vertex 10.250000000000023 5.0553352791854556 31.50000000000001
    vertex 11.405489220231077 7.277306888048079 31.50000000000001
  endloop
endfacet
facet normal 0.0 0.0 1.0
  outer loop
    vertex 11.405489220231077 7.277306888048079 31.50000000000001
    vertex 10.250000000000023 5.0553352791854556 31.50000000000001
    vertex 15.750000000000025 5.055335279185453 31.50000000000001
  endloop
endfacet
facet normal 0.0 0.0 1.0
  outer loop
    vertex 11.405489220231077 7.277306888048079 31.50000000000001
    vertex 15.750000000000025 5.055335279185453 31.50000000000001
    vertex 12.117523561705216 6.95120533429793 31.50000000000001
  endloop
endfacet
facet normal 0.0 0.0 1.0
  outer loop
    vertex 12.117523561705216 6.95120533429793 31.50000000000001
    vertex 15.750000000000025 5.055335279185453 31.50000000000001
    vertex 12.889697214087876 6.820503469878205 31.50000000000001
  endloop
endfacet
facet normal 0.0 0.0 1.0
  outer loop
    vertex 12.889697214087876 6.820503469878205 31.50000000000001
    vertex 15.750000000000025 5.055335279185453 31.50000000000001
    vertex 13.669387819046477 6.894108410854068 31.50000000000001
  endloop
endfacet
facet normal 0.0 0.0 1.0
  outer loop
    vertex 13.669387819046477 6.894108410854068 31.50000000000001
    vertex 15.750000000000025 5.055335279185453 31.50000000000001
    vertex 14.403460750352739 7.167004102135929 31.50000000000001
  endloop
endfacet
facet normal 0.0 0.0 1.0
  outer loop
    vertex 14.403460750352739 7.167004102135929 31.50000000000001
    vertex 15.750000000000025 5.055335279185453 31.50000000000001
    vertex 15.041890150851014 7.620593153344381 31.50000000000001
  endloop
endfacet
facet normal 0.0 0.0 1.0
  outer loop
    vertex 15.041890150851014 7.620593153344381 31.50000000000001
    vertex 15.750000000000025 5.055335279185453 31.50000000000001
    vertex 15.541168111951817 8.22396422023092 31.50000000000001
  endloop
endfacet
facet normal 0.0 0.0 1.0
  outer loop
    vertex 15.541168111951817 8.22396422023092 31.50000000000001
    vertex 15.750000000000025 5.055335279185453 31.50000000000001
    vertex 15.867269665701965 8.935998561705057 31.50000000000001
  endloop
endfacet
facet normal 0.0 0.0 1.0
  outer loop
    vertex 15.867269665701965 8.935998561705057 31.50000000000001
    vertex 15.750000000000025 5.055335279185453 31.50000000000001
    vertex 18.50000000000003 9.818474999999868 31.50000000000001
  endloop
endfacet
facet normal 0.0 0.0 1.0
  outer loop
    vertex 15.867269665701965 8.935998561705057 31.50000000000001
    vertex 18.50000000000003 9.818474999999868 31.50000000000001
    vertex 15.99797153012169 9.708172214087718 31.50000000000001
  endloop
endfacet
facet normal 0.0 0.0 1.0
  outer loop
    vertex 10.002028469878365 9.928777785912018 31.50000000000001
    vertex 10.250000000000028 14.581614720814281 31.50000000000001
    vertex 7.500000000000026 9.818474999999868 31.50000000000001
  endloop
endfacet
facet normal 0.0 0.0 1.0
  outer loop
    vertex 10.250000000000028 14.581614720814281 31.50000000000001
    vertex 10.002028469878365 9.928777785912018 31.50000000000001
    vertex 10.132730334298088 10.700951438294679 31.50000000000001
  endloop
endfacet
facet normal 0.0 0.0 1.0
  outer loop
    vertex 10.250000000000028 14.581614720814281 31.50000000000001
    vertex 10.132730334298088 10.700951438294679 31.50000000000001
    vertex 10.458831888048238 11.412985779768816 31.50000000000001
  endloop
endfacet
facet normal 0.0 0.0 1.0
  outer loop
    vertex 10.250000000000028 14.581614720814281 31.50000000000001
    vertex 10.458831888048238 11.412985779768816 31.50000000000001
    vertex 10.95810984914904 12.016356846655354 31.50000000000001
  endloop
endfacet
facet normal 0.0 0.0 1.0
  outer loop
    vertex 10.250000000000028 14.581614720814281 31.50000000000001
    vertex 10.95810984914904 12.016356846655354 31.50000000000001
    vertex 11.596539249647314 12.469945897863806 31.50000000000001
  endloop
endfacet
facet normal 0.0 0.0 1.0
  outer loop
    vertex 10.250000000000028 14.581614720814281 31.50000000000001
    vertex 11.596539249647314 12.469945897863806 31.50000000000001
    vertex 15.750000000000028 14.581614720814281 31.50000000000001
  endloop
endfacet
facet normal 0.0 0.0 1.0
  outer loop
    vertex 15.750000000000028 14.581614720814281 31.50000000000001
    vertex 11.596539249647314 12.469945897863806 31.50000000000001
    vertex 12.330612180953576 12.742841589145666 31.50000000000001
  endloop
endfacet
facet normal 0.0 0.0 1.0
  outer loop
    vertex 15.750000000000028 14.581614720814281 31.50000000000001
    vertex 12.330612180953576 12.742841589145666 31.50000000000001
    vertex 13.110302785912175 12.816446530121532 31.50000000000001
  endloop
endfacet
facet normal 0.0 0.0 1.0
  outer loop
    vertex 15.750000000000028 14.581614720814281 31.50000000000001
    vertex 13.110302785912175 12.816446530121532 31.50000000000001
    vertex 13.882476438294837 12.685744665701806 31.50000000000001
  endloop
endfacet
facet normal 0.0 0.0 1.0
  outer loop
    vertex 15.750000000000028 14.581614720814281 31.50000000000001
    vertex 13.882476438294837 12.685744665701806 31.50000000000001
    vertex 14.594510779768974 12.359643111951659 31.50000000000001
  endloop
endfacet
facet normal 0.0 0.0 1.0
  outer loop
    vertex 15.750000000000028 14.581614720814281 31.50000000000001
    vertex 14.594510779768974 12.359643111951659 31.50000000000001
    vertex 15.197881846655513 11.860365150850855 31.50000000000001
  endloop
endfacet
facet normal 0.0 0.0 1.0
  outer loop
    vertex 15.750000000000028 14.581614720814281 31.50000000000001
    vertex 15.197881846655513 11.860365150850855 31.50000000000001
    vertex 15.651470897863964 11.221935750352582 31.50000000000001
  endloop
endfacet
facet normal 0.0 0.0 1.0
  outer loop
    vertex 15.750000000000028 14.581614720814281 31.50000000000001
    vertex 15.651470897863964 11.221935750352582 31.50000000000001
    vertex 15.924366589145825 10.48786281904632 31.50000000000001
  endloop
endfacet
facet normal 0.0 0.0 1.0
  outer loop
    vertex 15.750000000000028 14.581614720814281 31.50000000000001
    vertex 15.924366589145825 10.48786281904632 31.50000000000001
    vertex 18.50000000000003 9.818474999999868 31.50000000000001
  endloop
endfacet
facet normal 0.0 0.0 1.0
  outer loop
    vertex 18.50000000000003 9.818474999999868 31.50000000000001
    vertex 15.924366589145825 10.48786281904632 31.50000000000001
    vertex 15.99797153012169 9.708172214087718 31.50000000000001
  endloop
endfacet
facet normal -0.8660254037844387 -0.5000000000000001 -0.0
  outer loop
    vertex 15.750000000000028 14.581614720814281 37.50000000000001
    vertex 18.50000000000003 9.818474999999868 31.50000000000001
    vertex 18.50000000000003 9.818474999999868 37.50000000000001
  endloop
endfacet
facet normal -0.8660254037844387 -0.5000000000000001 -0.0
  outer loop
    vertex 18.50000000000003 9.818474999999868 31.50000000000001
    vertex 15.750000000000028 14.581614720814281 37.50000000000001
    vertex 15.750000000000028 14.581614720814281 31.50000000000001
  endloop
endfacet
facet normal -0.0 -1.0 -0.0
  outer loop
    vertex 15.750000000000028 14.581614720814281 37.50000000000001
    vertex 10.250000000000028 14.581614720814281 31.50000000000001
    vertex 15.750000000000028 14.581614720814281 31.50000000000001
  endloop
endfacet
facet normal -0.0 -1.0 -0.0
  outer loop
    vertex 10.250000000000028 14.581614720814281 31.50000000000001
    vertex 15.750000000000028 14.581614720814281 37.50000000000001
    vertex 10.250000000000028 14.581614720814281 37.50000000000001
  endloop
endfacet
facet normal 0.8660254037844385 -0.5000000000000003 -0.0
  outer loop
    vertex 10.250000000000028 14.581614720814281 31.50000000000001
    vertex 7.500000000000026 9.818474999999868 37.50000000000001
    vertex 7.500000000000026 9.818474999999868 31.50000000000001
  endloop
endfacet
facet normal 0.8660254037844385 -0.5000000000000003 -0.0
  outer loop
    vertex 7.500000000000026 9.818474999999868 37.50000000000001
    vertex 10.250000000000028 14.581614720814281 31.50000000000001
    vertex 10.250000000000028 14.581614720814281 37.50000000000001
  endloop
endfacet
facet normal 0.8660254037844388 0.4999999999999997 0.0
  outer loop
    vertex 7.500000000000026 9.818474999999868 31.50000000000001
    vertex 10.250000000000023 5.0553352791854556 37.50000000000001
    vertex 10.250000000000023 5.0553352791854556 31.50000000000001
  endloop
endfacet
facet normal 0.8660254037844388 0.4999999999999997 0.0
  outer loop
    vertex 10.250000000000023 5.0553352791854556 37.50000000000001
    vertex 7.500000000000026 9.818474999999868 31.50000000000001
    vertex 7.500000000000026 9.818474999999868 37.50000000000001
  endloop
endfacet
facet normal 5.127211786450722e-16 1.0 0.0
  outer loop
    vertex 10.250000000000023 5.0553352791854556 37.50000000000001
    vertex 15.750000000000025 5.055335279185453 31.50000000000001
    vertex 10.250000000000023 5.0553352791854556 31.50000000000001
  endloop
endfacet
facet normal 5.127211786450722e-16 1.0 0.0
  outer loop
    vertex 15.750000000000025 5.055335279185453 31.50000000000001
    vertex 10.250000000000023 5.0553352791854556 37.50000000000001
    vertex 15.750000000000025 5.055335279185453 37.50000000000001
  endloop
endfacet
facet normal -0.8660254037844386 0.5000000000000002 -0.0
  outer loop
    vertex 18.50000000000003 9.818474999999868 37.50000000000001
    vertex 15.750000000000025 5.055335279185453 31.50000000000001
    vertex 15.750000000000025 5.055335279185453 37.50000000000001
  endloop
endfacet
facet normal -0.8660254037844386 0.5000000000000002 -0.0
  outer loop
    vertex 15.750000000000025 5.055335279185453 31.50000000000001
    vertex 18.50000000000003 9.818474999999868 37.50000000000001
    vertex 18.50000000000003 9.818474999999868 31.50000000000001
  endloop
endfacet
endsolid угол_стол
