solid Дополнение для ремня-8mm
facet normal -1.0 0.0 0.0
  outer loop
    vertex 24.92336324335349 -18.17017434281835 31.843145750507553
    vertex 24.92336324335349 -18.860146815655803 32.62990856793017
    vertex 24.92336324335349 -19.441523323601437 33.499999999999936
  endloop
endfacet
facet normal -1.0 0.0 0.0
  outer loop
    vertex 24.92336324335349 -20.240726703638465 39.570552360820095
    vertex 24.92336324335349 -20.51332009332593 37.49999999999993
    vertex 24.92336324335349 -20.444878984316425 38.544209537760345
  endloop
endfacet
facet normal -1.0 0.0 0.0
  outer loop
    vertex 24.92336324335349 -19.441523323601437 33.499999999999936
    vertex 24.92336324335349 -19.90435635341622 34.43853254107921
    vertex 24.92336324335349 -20.240726703638472 35.42944763917976
  endloop
endfacet
facet normal -1.0 0.0 0.0
  outer loop
    vertex 24.92336324335349 -5.585116863050431 33.49999999999994
    vertex 24.92336324335349 -6.166493370996069 32.62990856793018
    vertex 24.92336324335349 -6.856465843833565 31.843145750507563
  endloop
endfacet
facet normal -1.0 0.0 0.0
  outer loop
    vertex 24.92336324335349 -16.51332009332594 44.42820323027545
    vertex 24.92336324335349 -18.170174342818324 43.15685424949231
    vertex 24.92336324335349 -17.383411525395694 43.846826722329816
  endloop
endfacet
facet normal -1.0 0.0 0.0
  outer loop
    vertex 24.92336324335349 -12.513320093325937 45.499999999999936
    vertex 24.92336324335349 -14.583872454146107 45.22740661031248
    vertex 24.92336324335349 -13.557529631086352 45.431558890990416
  endloop
endfacet
facet normal -1.0 0.0 0.0
  outer loop
    vertex 24.92336324335349 -4.785913483013393 35.42944763917978
    vertex 24.92336324335349 -5.122283833235635 34.43853254107923
    vertex 24.92336324335349 -5.585116863050431 33.49999999999994
  endloop
endfacet
facet normal -1.0 -5.230142785974939e-13 4.01322971066201e-13
  outer loop
    vertex 24.92336324335349 -18.170174342818324 43.15685424949231
    vertex 24.92336324335349 -19.44152332360144 41.49999999999993
    vertex 24.923363243353535 -18.860146815655806 42.37009143206969
  endloop
endfacet
facet normal -1.0 0.0 0.0
  outer loop
    vertex 24.92336324335349 -4.513320093325949 37.49999999999995
    vertex 24.92336324335349 -4.78591348301339 39.57055236082011
    vertex 24.92336324335349 -4.581761202335444 38.54420953776036
  endloop
endfacet
facet normal -1.0 8.604874876681913e-14 -6.536051373404213e-13
  outer loop
    vertex 24.92336324335349 -10.442767732505768 29.772593389687394
    vertex 24.923363243353535 -11.469110555565543 29.568441109009456
    vertex 24.92336324335349 -12.513320093325941 29.49999999999994
  endloop
endfacet
facet normal -1.0 0.0 0.0
  outer loop
    vertex 24.92336324335349 -14.58387245414612 29.772593389687383
    vertex 24.92336324335349 -15.574787552246661 30.10896373990964
    vertex 24.92336324335349 -16.51332009332596 30.571796769724422
  endloop
endfacet
facet normal -1.0 0.0 0.0
  outer loop
    vertex 24.92336324335349 -4.78591348301339 39.57055236082011
    vertex 24.92336324335349 -5.585116863050424 41.49999999999994
    vertex 24.92336324335349 -5.12228383323563 40.56146745892067
  endloop
endfacet
facet normal -1.0 0.0 0.0
  outer loop
    vertex 24.92336324335349 -12.513320093325941 29.49999999999994
    vertex 24.92336324335349 -13.55752963108637 29.568441109009456
    vertex 24.92336324335349 -14.58387245414612 29.772593389687383
  endloop
endfacet
facet normal -1.0 0.0 0.0
  outer loop
    vertex 24.92336324335349 -6.856465843833565 31.843145750507563
    vertex 24.92336324335349 -7.643228661256186 31.15317327767006
    vertex 24.92336324335349 -8.513320093325943 30.571796769724436
  endloop
endfacet
facet normal -1.0 0.0 0.0
  outer loop
    vertex 24.92336324335349 -19.44152332360144 41.49999999999993
    vertex 24.92336324335349 -20.240726703638465 39.570552360820095
    vertex 24.92336324335349 -19.904356353416222 40.56146745892065
  endloop
endfacet
facet normal -1.0 1.4610113308024108e-13 2.9626379029006426e-13
  outer loop
    vertex 24.923363243353535 -8.513320093325957 44.42820323027545
    vertex 24.92336324335349 -10.442767732505775 45.22740661031248
    vertex 24.923363243353535 -9.451852634405245 44.89103626009023
  endloop
endfacet
facet normal -1.0 5.2301427859746e-13 4.013229710661859e-13
  outer loop
    vertex 24.92336324335349 -5.585116863050424 41.49999999999994
    vertex 24.92336324335349 -6.856465843833578 43.15685424949232
    vertex 24.923363243353535 -6.166493370996073 42.37009143206971
  endloop
endfacet
facet normal -1.0 8.604874876682165e-14 6.536051373404369e-13
  outer loop
    vertex 24.92336324335349 -10.442767732505775 45.22740661031248
    vertex 24.92336324335349 -12.513320093325937 45.499999999999936
    vertex 24.923363243353535 -11.469110555565555 45.431558890990416
  endloop
endfacet
facet normal -1.0 0.0 0.0
  outer loop
    vertex 24.92336324335349 -14.583872454146107 45.22740661031248
    vertex 24.92336324335349 -16.51332009332594 44.42820323027545
    vertex 24.92336324335349 -15.574787552246676 44.891036260090225
  endloop
endfacet
facet normal -1.0 1.8352140207252267e-13 2.7465918791418863e-13
  outer loop
    vertex 24.92336324335349 -6.856465843833578 43.15685424949232
    vertex 24.923363243353535 -8.513320093325957 44.42820323027545
    vertex 24.923363243353535 -7.643228661256194 43.84682672232982
  endloop
endfacet
facet normal -1.0 0.0 0.0
  outer loop
    vertex 24.92336324335349 -8.513320093325943 30.571796769724436
    vertex 24.92336324335349 -9.451852634405231 30.10896373990965
    vertex 24.92336324335349 -10.442767732505768 29.772593389687394
  endloop
endfacet
facet normal -1.0 0.0 0.0
  outer loop
    vertex 24.92336324335349 -4.513320093325949 37.49999999999995
    vertex 24.92336324335349 -4.581761202335446 36.45579046223953
    vertex 24.92336324335349 -4.785913483013393 35.42944763917978
  endloop
endfacet
facet normal -1.0 0.0 0.0
  outer loop
    vertex 24.92336324335349 -20.240726703638472 35.42944763917976
    vertex 24.92336324335349 -20.44487898431643 36.45579046223951
    vertex 24.92336324335349 -20.51332009332593 37.49999999999993
  endloop
endfacet
facet normal -1.0 0.0 0.0
  outer loop
    vertex 24.92336324335349 -16.51332009332596 30.571796769724422
    vertex 24.92336324335349 -17.38341152539572 31.15317327767005
    vertex 24.92336324335349 -18.17017434281835 31.843145750507553
  endloop
endfacet
facet normal -1.0 2.349972068789903e-16 4.0702710195118775e-16
  outer loop
    vertex 20.923363243353492 -20.240726703638465 39.570552360820095
    vertex 20.923363243353492 -20.240726703638472 35.42944763917976
    vertex 20.923363243353492 -20.51332009332593 37.49999999999993
  endloop
endfacet
facet normal -1.0 2.349972068789903e-16 4.0702710195118775e-16
  outer loop
    vertex 20.923363243353492 -20.240726703638472 35.42944763917976
    vertex 20.923363243353492 -20.240726703638465 39.570552360820095
    vertex 20.923363243353492 -19.441523323601437 33.499999999999936
  endloop
endfacet
facet normal -1.0 2.349972068789903e-16 4.0702710195118775e-16
  outer loop
    vertex 20.923363243353492 -19.441523323601437 33.499999999999936
    vertex 20.923363243353492 -20.240726703638465 39.570552360820095
    vertex 20.923363243353492 -19.44152332360144 41.49999999999993
  endloop
endfacet
facet normal -1.0 2.349972068789903e-16 4.0702710195118775e-16
  outer loop
    vertex 20.923363243353492 -19.441523323601437 33.499999999999936
    vertex 20.923363243353492 -19.44152332360144 41.49999999999993
    vertex 20.923363243353492 -18.170174342818324 43.15685424949231
  endloop
endfacet
facet normal -1.0 2.349972068789903e-16 4.0702710195118775e-16
  outer loop
    vertex 20.923363243353492 -19.441523323601437 33.499999999999936
    vertex 20.923363243353492 -18.170174342818324 43.15685424949231
    vertex 20.923363243353492 -18.17017434281835 31.843145750507553
  endloop
endfacet
facet normal -1.0 2.349972068789903e-16 4.0702710195118775e-16
  outer loop
    vertex 20.923363243353492 -18.17017434281835 31.843145750507553
    vertex 20.923363243353492 -18.170174342818324 43.15685424949231
    vertex 20.923363243353492 -16.51332009332596 30.571796769724422
  endloop
endfacet
facet normal -1.0 2.349972068789903e-16 4.0702710195118775e-16
  outer loop
    vertex 20.923363243353492 -16.51332009332596 30.571796769724422
    vertex 20.923363243353492 -18.170174342818324 43.15685424949231
    vertex 20.923363243353492 -16.51332009332594 44.42820323027545
  endloop
endfacet
facet normal -1.0 2.349972068789903e-16 4.0702710195118775e-16
  outer loop
    vertex 20.923363243353492 -16.51332009332596 30.571796769724422
    vertex 20.923363243353492 -16.51332009332594 44.42820323027545
    vertex 20.923363243353492 -14.58387245414612 29.772593389687383
  endloop
endfacet
facet normal -1.0 2.349972068789903e-16 4.0702710195118775e-16
  outer loop
    vertex 20.923363243353492 -14.58387245414612 29.772593389687383
    vertex 20.923363243353492 -16.51332009332594 44.42820323027545
    vertex 20.923363243353492 -14.583872454146107 45.22740661031248
  endloop
endfacet
facet normal -1.0 2.349972068789903e-16 4.0702710195118775e-16
  outer loop
    vertex 20.923363243353492 -14.58387245414612 29.772593389687383
    vertex 20.923363243353492 -14.583872454146107 45.22740661031248
    vertex 20.923363243353492 -12.51332009332594 29.49999999999994
  endloop
endfacet
facet normal -1.0 2.349972068789903e-16 4.0702710195118775e-16
  outer loop
    vertex 20.923363243353492 -12.51332009332594 29.49999999999994
    vertex 20.923363243353492 -14.583872454146107 45.22740661031248
    vertex 20.923363243353492 -12.513320093325936 45.499999999999936
  endloop
endfacet
facet normal -1.0 2.349972068789903e-16 4.0702710195118775e-16
  outer loop
    vertex 20.923363243353492 -12.51332009332594 29.49999999999994
    vertex 20.923363243353492 -12.513320093325936 45.499999999999936
    vertex 20.923363243353492 -10.442767732505766 29.772593389687394
  endloop
endfacet
facet normal -1.0 2.349972068789903e-16 4.0702710195118775e-16
  outer loop
    vertex 20.923363243353492 -10.442767732505766 29.772593389687394
    vertex 20.923363243353492 -12.513320093325936 45.499999999999936
    vertex 20.923363243353492 -10.442767732505773 45.22740661031248
  endloop
endfacet
facet normal -1.0 2.349972068789903e-16 4.0702710195118775e-16
  outer loop
    vertex 20.923363243353492 -10.442767732505766 29.772593389687394
    vertex 20.923363243353492 -10.442767732505773 45.22740661031248
    vertex 20.92336324335354 -8.513320093325955 44.42820323027545
  endloop
endfacet
facet normal -1.0 2.349972068789903e-16 4.0702710195118775e-16
  outer loop
    vertex 20.923363243353492 -10.442767732505766 29.772593389687394
    vertex 20.92336324335354 -8.513320093325955 44.42820323027545
    vertex 20.923363243353492 -8.513320093325941 30.571796769724436
  endloop
endfacet
facet normal -1.0 2.349972068789903e-16 4.0702710195118775e-16
  outer loop
    vertex 20.923363243353492 -8.513320093325941 30.571796769724436
    vertex 20.92336324335354 -8.513320093325955 44.42820323027545
    vertex 20.923363243353492 -6.856465843833576 43.15685424949232
  endloop
endfacet
facet normal -1.0 2.349972068789903e-16 4.0702710195118775e-16
  outer loop
    vertex 20.923363243353492 -8.513320093325941 30.571796769724436
    vertex 20.923363243353492 -6.856465843833576 43.15685424949232
    vertex 20.923363243353492 -6.856465843833564 31.843145750507563
  endloop
endfacet
facet normal -1.0 2.349972068789903e-16 4.0702710195118775e-16
  outer loop
    vertex 20.923363243353492 -6.856465843833564 31.843145750507563
    vertex 20.923363243353492 -6.856465843833576 43.15685424949232
    vertex 20.923363243353492 -5.585116863050423 41.49999999999994
  endloop
endfacet
facet normal -1.0 2.349972068789903e-16 4.0702710195118775e-16
  outer loop
    vertex 20.923363243353492 -6.856465843833564 31.843145750507563
    vertex 20.923363243353492 -5.585116863050423 41.49999999999994
    vertex 20.923363243353492 -5.58511686305043 33.49999999999994
  endloop
endfacet
facet normal -1.0 2.349972068789903e-16 4.0702710195118775e-16
  outer loop
    vertex 20.923363243353492 -5.58511686305043 33.49999999999994
    vertex 20.923363243353492 -5.585116863050423 41.49999999999994
    vertex 20.923363243353492 -4.785913483013392 35.42944763917978
  endloop
endfacet
facet normal -1.0 2.349972068789903e-16 4.0702710195118775e-16
  outer loop
    vertex 20.923363243353492 -4.785913483013392 35.42944763917978
    vertex 20.923363243353492 -5.585116863050423 41.49999999999994
    vertex 20.923363243353492 -4.785913483013389 39.57055236082011
  endloop
endfacet
facet normal -1.0 2.349972068789903e-16 4.0702710195118775e-16
  outer loop
    vertex 20.923363243353492 -4.785913483013392 35.42944763917978
    vertex 20.923363243353492 -4.785913483013389 39.57055236082011
    vertex 20.923363243353492 -4.513320093325949 37.49999999999995
  endloop
endfacet
facet normal -4.3421821926563815e-16 -0.7933533402912439 -0.6087614290087094
  outer loop
    vertex 24.92336324335349 -19.441523323601437 33.499999999999936
    vertex 20.923363243353492 -18.17017434281835 31.843145750507553
    vertex 24.92336324335349 -18.17017434281835 31.843145750507553
  endloop
endfacet
facet normal -4.3421821926563815e-16 -0.7933533402912439 -0.6087614290087094
  outer loop
    vertex 20.923363243353492 -18.17017434281835 31.843145750507553
    vertex 24.92336324335349 -19.441523323601437 33.499999999999936
    vertex 20.923363243353492 -19.441523323601437 33.499999999999936
  endloop
endfacet
facet normal -4.659735463947481e-16 -0.6087614290087194 -0.7933533402912362
  outer loop
    vertex 24.92336324335349 -16.51332009332596 30.571796769724422
    vertex 20.923363243353492 -18.17017434281835 31.843145750507553
    vertex 20.923363243353492 -16.51332009332596 30.571796769724422
  endloop
endfacet
facet normal -4.659735463947481e-16 -0.6087614290087194 -0.7933533402912362
  outer loop
    vertex 20.923363243353492 -18.17017434281835 31.843145750507553
    vertex 24.92336324335349 -16.51332009332596 30.571796769724422
    vertex 24.92336324335349 -18.17017434281835 31.843145750507553
  endloop
endfacet
facet normal -4.659735463947483e-16 -0.38268343236508984 -0.9238795325112867
  outer loop
    vertex 24.92336324335349 -14.58387245414612 29.772593389687383
    vertex 20.923363243353492 -16.51332009332596 30.571796769724422
    vertex 20.923363243353492 -14.58387245414612 29.772593389687383
  endloop
endfacet
facet normal -4.659735463947483e-16 -0.38268343236508984 -0.9238795325112867
  outer loop
    vertex 20.923363243353492 -16.51332009332596 30.571796769724422
    vertex 24.92336324335349 -14.58387245414612 29.772593389687383
    vertex 24.92336324335349 -16.51332009332596 30.571796769724422
  endloop
endfacet
facet normal -4.342182192656404e-16 -0.1305261922200457 -0.9914448613738113
  outer loop
    vertex 24.92336324335349 -12.513320093325941 29.49999999999994
    vertex 20.923363243353492 -14.58387245414612 29.772593389687383
    vertex 20.923363243353492 -12.51332009332594 29.49999999999994
  endloop
endfacet
facet normal -4.342182192656404e-16 -0.1305261922200457 -0.9914448613738113
  outer loop
    vertex 20.923363243353492 -14.58387245414612 29.772593389687383
    vertex 24.92336324335349 -12.513320093325941 29.49999999999994
    vertex 24.92336324335349 -14.58387245414612 29.772593389687383
  endloop
endfacet
facet normal -3.72871638073117e-16 0.1305261922200513 -0.9914448613738106
  outer loop
    vertex 24.92336324335349 -10.442767732505768 29.772593389687394
    vertex 20.923363243353492 -12.51332009332594 29.49999999999994
    vertex 20.923363243353492 -10.442767732505766 29.772593389687394
  endloop
endfacet
facet normal -3.72871638073117e-16 0.1305261922200513 -0.9914448613738106
  outer loop
    vertex 20.923363243353492 -12.51332009332594 29.49999999999994
    vertex 24.92336324335349 -10.442767732505768 29.772593389687394
    vertex 24.92336324335349 -12.513320093325941 29.49999999999994
  endloop
endfacet
facet normal -2.8611447094542486e-16 0.3826834323650927 -0.9238795325112855
  outer loop
    vertex 24.92336324335349 -8.513320093325943 30.571796769724436
    vertex 20.923363243353492 -10.442767732505766 29.772593389687394
    vertex 20.923363243353492 -8.513320093325941 30.571796769724436
  endloop
endfacet
facet normal -2.8611447094542486e-16 0.3826834323650927 -0.9238795325112855
  outer loop
    vertex 20.923363243353492 -10.442767732505766 29.772593389687394
    vertex 24.92336324335349 -8.513320093325943 30.571796769724436
    vertex 24.92336324335349 -10.442767732505768 29.772593389687394
  endloop
endfacet
facet normal -1.7985907544932329e-16 0.6087614290087217 -0.7933533402912344
  outer loop
    vertex 24.92336324335349 -6.856465843833565 31.843145750507563
    vertex 20.923363243353492 -8.513320093325941 30.571796769724436
    vertex 20.923363243353492 -6.856465843833564 31.843145750507563
  endloop
endfacet
facet normal -1.7985907544932329e-16 0.6087614290087217 -0.7933533402912344
  outer loop
    vertex 20.923363243353492 -8.513320093325941 30.571796769724436
    vertex 24.92336324335349 -6.856465843833565 31.843145750507563
    vertex 24.92336324335349 -8.513320093325943 30.571796769724436
  endloop
endfacet
facet normal -6.134658119252696e-17 0.7933533402912338 -0.6087614290087224
  outer loop
    vertex 20.923363243353492 -5.58511686305043 33.49999999999994
    vertex 24.92336324335349 -6.856465843833565 31.843145750507563
    vertex 20.923363243353492 -6.856465843833564 31.843145750507563
  endloop
endfacet
facet normal -6.134658119252696e-17 0.7933533402912338 -0.6087614290087224
  outer loop
    vertex 24.92336324335349 -6.856465843833565 31.843145750507563
    vertex 20.923363243353492 -5.58511686305043 33.49999999999994
    vertex 24.92336324335349 -5.585116863050431 33.49999999999994
  endloop
endfacet
facet normal 6.134658119252352e-17 0.9238795325112865 -0.38268343236509045
  outer loop
    vertex 20.923363243353492 -4.785913483013392 35.42944763917978
    vertex 24.92336324335349 -5.585116863050431 33.49999999999994
    vertex 20.923363243353492 -5.58511686305043 33.49999999999994
  endloop
endfacet
facet normal 6.134658119252352e-17 0.9238795325112865 -0.38268343236509045
  outer loop
    vertex 24.92336324335349 -5.585116863050431 33.49999999999994
    vertex 20.923363243353492 -4.785913483013392 35.42944763917978
    vertex 24.92336324335349 -4.785913483013393 35.42944763917978
  endloop
endfacet
facet normal 1.7985907544932412e-16 0.991444861373811 -0.13052619222004647
  outer loop
    vertex 20.923363243353492 -4.513320093325949 37.49999999999995
    vertex 24.92336324335349 -4.785913483013393 35.42944763917978
    vertex 20.923363243353492 -4.785913483013392 35.42944763917978
  endloop
endfacet
facet normal 1.7985907544932412e-16 0.991444861373811 -0.13052619222004647
  outer loop
    vertex 24.92336324335349 -4.785913483013393 35.42944763917978
    vertex 20.923363243353492 -4.513320093325949 37.49999999999995
    vertex 24.92336324335349 -4.513320093325949 37.49999999999995
  endloop
endfacet
facet normal 2.8611447094542225e-16 0.9914448613738112 0.13052619222004583
  outer loop
    vertex 20.923363243353492 -4.785913483013389 39.57055236082011
    vertex 24.92336324335349 -4.513320093325949 37.49999999999995
    vertex 20.923363243353492 -4.513320093325949 37.49999999999995
  endloop
endfacet
facet normal 2.8611447094542225e-16 0.9914448613738112 0.13052619222004583
  outer loop
    vertex 24.92336324335349 -4.513320093325949 37.49999999999995
    vertex 20.923363243353492 -4.785913483013389 39.57055236082011
    vertex 24.92336324335349 -4.78591348301339 39.57055236082011
  endloop
endfacet
facet normal 3.7287163807311527e-16 0.9238795325112873 0.3826834323650887
  outer loop
    vertex 20.923363243353492 -5.585116863050423 41.49999999999994
    vertex 24.92336324335349 -4.78591348301339 39.57055236082011
    vertex 20.923363243353492 -4.785913483013389 39.57055236082011
  endloop
endfacet
facet normal 3.7287163807311527e-16 0.9238795325112873 0.3826834323650887
  outer loop
    vertex 24.92336324335349 -4.78591348301339 39.57055236082011
    vertex 20.923363243353492 -5.585116863050423 41.49999999999994
    vertex 24.92336324335349 -5.585116863050424 41.49999999999994
  endloop
endfacet
facet normal 4.342182192656424e-16 0.7933533402912294 0.6087614290087284
  outer loop
    vertex 20.923363243353492 -6.856465843833576 43.15685424949232
    vertex 24.92336324335349 -5.585116863050424 41.49999999999994
    vertex 20.923363243353492 -5.585116863050423 41.49999999999994
  endloop
endfacet
facet normal 4.342182192656424e-16 0.7933533402912294 0.6087614290087284
  outer loop
    vertex 24.92336324335349 -5.585116863050424 41.49999999999994
    vertex 20.923363243353492 -6.856465843833576 43.15685424949232
    vertex 24.92336324335349 -6.856465843833578 43.15685424949232
  endloop
endfacet
facet normal 4.65973546394748e-16 0.6087614290087213 0.7933533402912347
  outer loop
    vertex 20.92336324335354 -8.513320093325955 44.42820323027545
    vertex 24.92336324335349 -6.856465843833578 43.15685424949232
    vertex 20.923363243353492 -6.856465843833576 43.15685424949232
  endloop
endfacet
facet normal 4.65973546394748e-16 0.6087614290087213 0.7933533402912347
  outer loop
    vertex 24.92336324335349 -6.856465843833578 43.15685424949232
    vertex 20.92336324335354 -8.513320093325955 44.42820323027545
    vertex 24.923363243353535 -8.513320093325957 44.42820323027545
  endloop
endfacet
facet normal 4.659735463947483e-16 0.38268343236508934 0.923879532511287
  outer loop
    vertex 24.92336324335349 -10.442767732505775 45.22740661031248
    vertex 20.92336324335354 -8.513320093325955 44.42820323027545
    vertex 20.923363243353492 -10.442767732505773 45.22740661031248
  endloop
endfacet
facet normal 4.659735463947483e-16 0.38268343236508934 0.923879532511287
  outer loop
    vertex 20.92336324335354 -8.513320093325955 44.42820323027545
    vertex 24.92336324335349 -10.442767732505775 45.22740661031248
    vertex 24.923363243353535 -8.513320093325957 44.42820323027545
  endloop
endfacet
facet normal 4.3421821926564165e-16 0.130526192220052 0.9914448613738105
  outer loop
    vertex 24.92336324335349 -12.513320093325937 45.499999999999936
    vertex 20.923363243353492 -10.442767732505773 45.22740661031248
    vertex 20.923363243353492 -12.513320093325936 45.499999999999936
  endloop
endfacet
facet normal 4.3421821926564165e-16 0.130526192220052 0.9914448613738105
  outer loop
    vertex 20.923363243353492 -10.442767732505773 45.22740661031248
    vertex 24.92336324335349 -12.513320093325937 45.499999999999936
    vertex 24.92336324335349 -10.442767732505775 45.22740661031248
  endloop
endfacet
facet normal 3.728716380731169e-16 -0.13052619222005143 0.9914448613738105
  outer loop
    vertex 24.92336324335349 -14.583872454146107 45.22740661031248
    vertex 20.923363243353492 -12.513320093325936 45.499999999999936
    vertex 20.923363243353492 -14.583872454146107 45.22740661031248
  endloop
endfacet
facet normal 3.728716380731169e-16 -0.13052619222005143 0.9914448613738105
  outer loop
    vertex 20.923363243353492 -12.513320093325936 45.499999999999936
    vertex 24.92336324335349 -14.583872454146107 45.22740661031248
    vertex 24.92336324335349 -12.513320093325937 45.499999999999936
  endloop
endfacet
facet normal 2.8611447094542732e-16 -0.3826834323650867 0.9238795325112881
  outer loop
    vertex 24.92336324335349 -16.51332009332594 44.42820323027545
    vertex 20.923363243353492 -14.583872454146107 45.22740661031248
    vertex 20.923363243353492 -16.51332009332594 44.42820323027545
  endloop
endfacet
facet normal 2.8611447094542732e-16 -0.3826834323650867 0.9238795325112881
  outer loop
    vertex 20.923363243353492 -14.583872454146107 45.22740661031248
    vertex 24.92336324335349 -16.51332009332594 44.42820323027545
    vertex 24.92336324335349 -14.583872454146107 45.22740661031248
  endloop
endfacet
facet normal 1.7985907544932198e-16 -0.6087614290087241 0.7933533402912326
  outer loop
    vertex 24.92336324335349 -18.170174342818324 43.15685424949231
    vertex 20.923363243353492 -16.51332009332594 44.42820323027545
    vertex 20.923363243353492 -18.170174342818324 43.15685424949231
  endloop
endfacet
facet normal 1.7985907544932198e-16 -0.6087614290087241 0.7933533402912326
  outer loop
    vertex 20.923363243353492 -16.51332009332594 44.42820323027545
    vertex 24.92336324335349 -18.170174342818324 43.15685424949231
    vertex 24.92336324335349 -16.51332009332594 44.42820323027545
  endloop
endfacet
facet normal 6.134658119252433e-17 -0.7933533402912374 0.608761429008718
  outer loop
    vertex 24.92336324335349 -18.170174342818324 43.15685424949231
    vertex 20.923363243353492 -19.44152332360144 41.49999999999993
    vertex 24.92336324335349 -19.44152332360144 41.49999999999993
  endloop
endfacet
facet normal 6.134658119252433e-17 -0.7933533402912374 0.608761429008718
  outer loop
    vertex 20.923363243353492 -19.44152332360144 41.49999999999993
    vertex 24.92336324335349 -18.170174342818324 43.15685424949231
    vertex 20.923363243353492 -18.170174342818324 43.15685424949231
  endloop
endfacet
facet normal -6.134658119252658e-17 -0.923879532511289 0.3826834323650844
  outer loop
    vertex 24.92336324335349 -19.44152332360144 41.49999999999993
    vertex 20.923363243353492 -20.240726703638465 39.570552360820095
    vertex 24.92336324335349 -20.240726703638465 39.570552360820095
  endloop
endfacet
facet normal -6.134658119252658e-17 -0.923879532511289 0.3826834323650844
  outer loop
    vertex 20.923363243353492 -20.240726703638465 39.570552360820095
    vertex 24.92336324335349 -19.44152332360144 41.49999999999993
    vertex 20.923363243353492 -19.44152332360144 41.49999999999993
  endloop
endfacet
facet normal -1.7985907544931961e-16 -0.9914448613738097 0.13052619222005676
  outer loop
    vertex 24.92336324335349 -20.240726703638465 39.570552360820095
    vertex 20.923363243353492 -20.51332009332593 37.49999999999993
    vertex 24.92336324335349 -20.51332009332593 37.49999999999993
  endloop
endfacet
facet normal -1.7985907544931961e-16 -0.9914448613738097 0.13052619222005676
  outer loop
    vertex 20.923363243353492 -20.51332009332593 37.49999999999993
    vertex 24.92336324335349 -20.240726703638465 39.570552360820095
    vertex 20.923363243353492 -20.240726703638465 39.570552360820095
  endloop
endfacet
facet normal -2.861144709454251e-16 -0.9914448613738102 -0.13052619222005346
  outer loop
    vertex 24.92336324335349 -20.51332009332593 37.49999999999993
    vertex 20.923363243353492 -20.240726703638472 35.42944763917976
    vertex 24.92336324335349 -20.240726703638472 35.42944763917976
  endloop
endfacet
facet normal -2.861144709454251e-16 -0.9914448613738102 -0.13052619222005346
  outer loop
    vertex 20.923363243353492 -20.240726703638472 35.42944763917976
    vertex 24.92336324335349 -20.51332009332593 37.49999999999993
    vertex 20.923363243353492 -20.51332009332593 37.49999999999993
  endloop
endfacet
facet normal -3.728716380731153e-16 -0.9238795325112871 -0.38268343236508895
  outer loop
    vertex 24.92336324335349 -20.240726703638472 35.42944763917976
    vertex 20.923363243353492 -19.441523323601437 33.499999999999936
    vertex 24.92336324335349 -19.441523323601437 33.499999999999936
  endloop
endfacet
facet normal -3.728716380731153e-16 -0.9238795325112871 -0.38268343236508895
  outer loop
    vertex 20.923363243353492 -19.441523323601437 33.499999999999936
    vertex 24.92336324335349 -20.240726703638472 35.42944763917976
    vertex 20.923363243353492 -20.240726703638472 35.42944763917976
  endloop
endfacet
facet normal -1.0 7.236346120908375e-16 1.088751586590565e-15
  outer loop
    vertex 24.923363243353524 -22.01332009332592 43.99999999999995
    vertex 24.92336324335349 -20.444878984316425 38.544209537760345
    vertex 24.923363243353503 -22.01332009332592 26.49999999999994
  endloop
endfacet
facet normal -1.0 7.236346120908375e-16 1.088751586590565e-15
  outer loop
    vertex 24.92336324335349 -20.444878984316425 38.544209537760345
    vertex 24.923363243353524 -22.01332009332592 43.99999999999995
    vertex 24.92336324335353 -19.01332009332592 46.99999999999995
  endloop
endfacet
facet normal -1.0 7.236346120908375e-16 1.088751586590565e-15
  outer loop
    vertex 24.923363243353503 -22.01332009332592 26.49999999999994
    vertex 24.92336324335349 -20.444878984316425 38.544209537760345
    vertex 24.92336324335349 -20.51332009332593 37.49999999999993
  endloop
endfacet
facet normal -1.0 7.236346120908375e-16 1.088751586590565e-15
  outer loop
    vertex 24.923363243353503 -22.01332009332592 26.49999999999994
    vertex 24.92336324335349 -20.51332009332593 37.49999999999993
    vertex 24.923363243353503 -22.01332009332592 13.49999999999997
  endloop
endfacet
facet normal -1.0 7.236346120908375e-16 1.088751586590565e-15
  outer loop
    vertex 24.92336324335349 -20.444878984316425 38.544209537760345
    vertex 24.92336324335353 -19.01332009332592 46.99999999999995
    vertex 24.92336324335349 -20.240726703638465 39.570552360820095
  endloop
endfacet
facet normal -1.0 7.236346120908375e-16 1.088751586590565e-15
  outer loop
    vertex 24.92336324335349 -20.240726703638465 39.570552360820095
    vertex 24.92336324335353 -19.01332009332592 46.99999999999995
    vertex 24.92336324335349 -19.904356353416222 40.56146745892065
  endloop
endfacet
facet normal -1.0 7.236346120908375e-16 1.088751586590565e-15
  outer loop
    vertex 24.92336324335349 -19.904356353416222 40.56146745892065
    vertex 24.92336324335353 -19.01332009332592 46.99999999999995
    vertex 24.92336324335349 -19.44152332360144 41.49999999999993
  endloop
endfacet
facet normal -1.0 7.236346120908375e-16 1.088751586590565e-15
  outer loop
    vertex 24.92336324335349 -19.44152332360144 41.49999999999993
    vertex 24.92336324335353 -19.01332009332592 46.99999999999995
    vertex 24.923363243353535 -18.860146815655806 42.37009143206969
  endloop
endfacet
facet normal -1.0 7.236346120908375e-16 1.088751586590565e-15
  outer loop
    vertex 24.923363243353535 -18.860146815655806 42.37009143206969
    vertex 24.92336324335353 -19.01332009332592 46.99999999999995
    vertex 24.92336324335349 -18.170174342818324 43.15685424949231
  endloop
endfacet
facet normal -1.0 7.236346120908375e-16 1.088751586590565e-15
  outer loop
    vertex 24.92336324335349 -18.170174342818324 43.15685424949231
    vertex 24.92336324335353 -19.01332009332592 46.99999999999995
    vertex 24.92336324335349 -17.383411525395694 43.846826722329816
  endloop
endfacet
facet normal -1.0 7.236346120908375e-16 1.088751586590565e-15
  outer loop
    vertex 24.92336324335349 -17.383411525395694 43.846826722329816
    vertex 24.92336324335353 -19.01332009332592 46.99999999999995
    vertex 24.92336324335349 -16.51332009332594 44.42820323027545
  endloop
endfacet
facet normal -1.0 7.236346120908375e-16 1.088751586590565e-15
  outer loop
    vertex 24.92336324335349 -16.51332009332594 44.42820323027545
    vertex 24.92336324335353 -19.01332009332592 46.99999999999995
    vertex 24.92336324335349 -15.574787552246676 44.891036260090225
  endloop
endfacet
facet normal -1.0 7.236346120908375e-16 1.088751586590565e-15
  outer loop
    vertex 24.92336324335349 -15.574787552246676 44.891036260090225
    vertex 24.92336324335353 -19.01332009332592 46.99999999999995
    vertex 24.92336324335349 -14.583872454146107 45.22740661031248
  endloop
endfacet
facet normal -1.0 7.236346120908375e-16 1.088751586590565e-15
  outer loop
    vertex 24.92336324335349 -14.583872454146107 45.22740661031248
    vertex 24.92336324335353 -19.01332009332592 46.99999999999995
    vertex 24.923363243353542 -6.013320093325919 46.999999999999964
  endloop
endfacet
facet normal -1.0 7.236346120908375e-16 1.088751586590565e-15
  outer loop
    vertex 24.92336324335349 -14.583872454146107 45.22740661031248
    vertex 24.923363243353542 -6.013320093325919 46.999999999999964
    vertex 24.92336324335349 -13.557529631086352 45.431558890990416
  endloop
endfacet
facet normal -1.0 7.236346120908375e-16 1.088751586590565e-15
  outer loop
    vertex 24.92336324335349 -13.557529631086352 45.431558890990416
    vertex 24.923363243353542 -6.013320093325919 46.999999999999964
    vertex 24.92336324335349 -12.513320093325937 45.499999999999936
  endloop
endfacet
facet normal -1.0 7.236346120908375e-16 1.088751586590565e-15
  outer loop
    vertex 24.92336324335349 -12.513320093325937 45.499999999999936
    vertex 24.923363243353542 -6.013320093325919 46.999999999999964
    vertex 24.923363243353535 -11.469110555565555 45.431558890990416
  endloop
endfacet
facet normal -1.0 7.236346120908375e-16 1.088751586590565e-15
  outer loop
    vertex 24.923363243353535 -11.469110555565555 45.431558890990416
    vertex 24.923363243353542 -6.013320093325919 46.999999999999964
    vertex 24.92336324335349 -10.442767732505775 45.22740661031248
  endloop
endfacet
facet normal -1.0 7.236346120908375e-16 1.088751586590565e-15
  outer loop
    vertex 24.92336324335349 -10.442767732505775 45.22740661031248
    vertex 24.923363243353542 -6.013320093325919 46.999999999999964
    vertex 24.923363243353535 -9.451852634405245 44.89103626009023
  endloop
endfacet
facet normal -1.0 7.236346120908375e-16 1.088751586590565e-15
  outer loop
    vertex 24.923363243353535 -9.451852634405245 44.89103626009023
    vertex 24.923363243353542 -6.013320093325919 46.999999999999964
    vertex 24.923363243353535 -8.513320093325957 44.42820323027545
  endloop
endfacet
facet normal -1.0 7.236346120908375e-16 1.088751586590565e-15
  outer loop
    vertex 24.923363243353535 -8.513320093325957 44.42820323027545
    vertex 24.923363243353542 -6.013320093325919 46.999999999999964
    vertex 24.923363243353535 -7.643228661256194 43.84682672232982
  endloop
endfacet
facet normal -1.0 7.236346120908375e-16 1.088751586590565e-15
  outer loop
    vertex 24.923363243353535 -7.643228661256194 43.84682672232982
    vertex 24.923363243353542 -6.013320093325919 46.999999999999964
    vertex 24.92336324335349 -6.856465843833578 43.15685424949232
  endloop
endfacet
facet normal -1.0 7.236346120908375e-16 1.088751586590565e-15
  outer loop
    vertex 24.92336324335349 -6.856465843833578 43.15685424949232
    vertex 24.923363243353542 -6.013320093325919 46.999999999999964
    vertex 24.923363243353535 -6.166493370996073 42.37009143206971
  endloop
endfacet
facet normal -1.0 7.236346120908375e-16 1.088751586590565e-15
  outer loop
    vertex 24.923363243353535 -6.166493370996073 42.37009143206971
    vertex 24.923363243353542 -6.013320093325919 46.999999999999964
    vertex 24.92336324335349 -5.585116863050424 41.49999999999994
  endloop
endfacet
facet normal -1.0 7.236346120908375e-16 1.088751586590565e-15
  outer loop
    vertex 24.92336324335349 -5.585116863050424 41.49999999999994
    vertex 24.923363243353542 -6.013320093325919 46.999999999999964
    vertex 24.923363243353542 -3.0133200933259188 43.999999999999964
  endloop
endfacet
facet normal -1.0 7.236346120908375e-16 1.088751586590565e-15
  outer loop
    vertex 24.92336324335349 -5.585116863050424 41.49999999999994
    vertex 24.923363243353542 -3.0133200933259188 43.999999999999964
    vertex 24.92336324335349 -5.12228383323563 40.56146745892067
  endloop
endfacet
facet normal -1.0 7.236346120908375e-16 1.088751586590565e-15
  outer loop
    vertex 24.92336324335349 -5.12228383323563 40.56146745892067
    vertex 24.923363243353542 -3.0133200933259188 43.999999999999964
    vertex 24.92336324335349 -4.78591348301339 39.57055236082011
  endloop
endfacet
facet normal -1.0 7.236346120908375e-16 1.088751586590565e-15
  outer loop
    vertex 24.92336324335349 -4.78591348301339 39.57055236082011
    vertex 24.923363243353542 -3.0133200933259188 43.999999999999964
    vertex 24.92336324335349 -4.581761202335444 38.54420953776036
  endloop
endfacet
facet normal -1.0 7.236346120908375e-16 1.088751586590565e-15
  outer loop
    vertex 24.92336324335349 -4.581761202335444 38.54420953776036
    vertex 24.923363243353542 -3.0133200933259188 43.999999999999964
    vertex 24.92336324335349 -4.513320093325949 37.49999999999995
  endloop
endfacet
facet normal -1.0 7.236346120908375e-16 1.088751586590565e-15
  outer loop
    vertex 24.92336324335349 -4.513320093325949 37.49999999999995
    vertex 24.923363243353542 -3.0133200933259188 43.999999999999964
    vertex 24.923363243353506 -3.0133200933259245 16.499999999999957
  endloop
endfacet
facet normal -1.0 7.236346120908375e-16 1.088751586590565e-15
  outer loop
    vertex 24.923363243353503 -22.01332009332592 13.49999999999997
    vertex 24.92336324335349 -18.860146815655803 32.62990856793017
    vertex 24.923363243353506 -6.013320093325925 13.49999999999996
  endloop
endfacet
facet normal -1.0 7.236346120908375e-16 1.088751586590565e-15
  outer loop
    vertex 24.92336324335349 -18.860146815655803 32.62990856793017
    vertex 24.923363243353503 -22.01332009332592 13.49999999999997
    vertex 24.92336324335349 -19.441523323601437 33.499999999999936
  endloop
endfacet
facet normal -1.0 7.236346120908375e-16 1.088751586590565e-15
  outer loop
    vertex 24.92336324335349 -19.441523323601437 33.499999999999936
    vertex 24.923363243353503 -22.01332009332592 13.49999999999997
    vertex 24.92336324335349 -19.90435635341622 34.43853254107921
  endloop
endfacet
facet normal -1.0 7.236346120908375e-16 1.088751586590565e-15
  outer loop
    vertex 24.92336324335349 -19.90435635341622 34.43853254107921
    vertex 24.923363243353503 -22.01332009332592 13.49999999999997
    vertex 24.92336324335349 -20.240726703638472 35.42944763917976
  endloop
endfacet
facet normal -1.0 7.236346120908375e-16 1.088751586590565e-15
  outer loop
    vertex 24.92336324335349 -20.240726703638472 35.42944763917976
    vertex 24.923363243353503 -22.01332009332592 13.49999999999997
    vertex 24.92336324335349 -20.44487898431643 36.45579046223951
  endloop
endfacet
facet normal -1.0 7.236346120908375e-16 1.088751586590565e-15
  outer loop
    vertex 24.92336324335349 -20.44487898431643 36.45579046223951
    vertex 24.923363243353503 -22.01332009332592 13.49999999999997
    vertex 24.92336324335349 -20.51332009332593 37.49999999999993
  endloop
endfacet
facet normal -1.0 7.236346120908375e-16 1.088751586590565e-15
  outer loop
    vertex 24.923363243353506 -6.013320093325925 13.49999999999996
    vertex 24.92336324335349 -18.860146815655803 32.62990856793017
    vertex 24.92336324335349 -18.17017434281835 31.843145750507553
  endloop
endfacet
facet normal -1.0 7.236346120908375e-16 1.088751586590565e-15
  outer loop
    vertex 24.923363243353506 -6.013320093325925 13.49999999999996
    vertex 24.92336324335349 -18.17017434281835 31.843145750507553
    vertex 24.92336324335349 -17.38341152539572 31.15317327767005
  endloop
endfacet
facet normal -1.0 7.236346120908375e-16 1.088751586590565e-15
  outer loop
    vertex 24.923363243353506 -6.013320093325925 13.49999999999996
    vertex 24.92336324335349 -17.38341152539572 31.15317327767005
    vertex 24.92336324335349 -16.51332009332596 30.571796769724422
  endloop
endfacet
facet normal -1.0 7.236346120908375e-16 1.088751586590565e-15
  outer loop
    vertex 24.923363243353506 -6.013320093325925 13.49999999999996
    vertex 24.92336324335349 -16.51332009332596 30.571796769724422
    vertex 24.92336324335349 -15.574787552246661 30.10896373990964
  endloop
endfacet
facet normal -1.0 7.236346120908375e-16 1.088751586590565e-15
  outer loop
    vertex 24.923363243353506 -6.013320093325925 13.49999999999996
    vertex 24.92336324335349 -15.574787552246661 30.10896373990964
    vertex 24.92336324335349 -14.58387245414612 29.772593389687383
  endloop
endfacet
facet normal -1.0 7.236346120908375e-16 1.088751586590565e-15
  outer loop
    vertex 24.923363243353506 -6.013320093325925 13.49999999999996
    vertex 24.92336324335349 -14.58387245414612 29.772593389687383
    vertex 24.92336324335349 -13.55752963108637 29.568441109009456
  endloop
endfacet
facet normal -1.0 7.236346120908375e-16 1.088751586590565e-15
  outer loop
    vertex 24.923363243353506 -6.013320093325925 13.49999999999996
    vertex 24.92336324335349 -13.55752963108637 29.568441109009456
    vertex 24.92336324335349 -12.513320093325941 29.49999999999994
  endloop
endfacet
facet normal -1.0 7.236346120908375e-16 1.088751586590565e-15
  outer loop
    vertex 24.923363243353506 -6.013320093325925 13.49999999999996
    vertex 24.92336324335349 -12.513320093325941 29.49999999999994
    vertex 24.923363243353535 -11.469110555565543 29.568441109009456
  endloop
endfacet
facet normal -1.0 7.236346120908375e-16 1.088751586590565e-15
  outer loop
    vertex 24.923363243353506 -6.013320093325925 13.49999999999996
    vertex 24.923363243353535 -11.469110555565543 29.568441109009456
    vertex 24.92336324335349 -10.442767732505768 29.772593389687394
  endloop
endfacet
facet normal -1.0 7.236346120908375e-16 1.088751586590565e-15
  outer loop
    vertex 24.923363243353506 -6.013320093325925 13.49999999999996
    vertex 24.92336324335349 -10.442767732505768 29.772593389687394
    vertex 24.92336324335349 -9.451852634405231 30.10896373990965
  endloop
endfacet
facet normal -1.0 7.236346120908375e-16 1.088751586590565e-15
  outer loop
    vertex 24.923363243353506 -6.013320093325925 13.49999999999996
    vertex 24.92336324335349 -9.451852634405231 30.10896373990965
    vertex 24.92336324335349 -8.513320093325943 30.571796769724436
  endloop
endfacet
facet normal -1.0 7.236346120908375e-16 1.088751586590565e-15
  outer loop
    vertex 24.923363243353506 -6.013320093325925 13.49999999999996
    vertex 24.92336324335349 -8.513320093325943 30.571796769724436
    vertex 24.92336324335349 -7.643228661256186 31.15317327767006
  endloop
endfacet
facet normal -1.0 7.236346120908375e-16 1.088751586590565e-15
  outer loop
    vertex 24.923363243353506 -6.013320093325925 13.49999999999996
    vertex 24.92336324335349 -7.643228661256186 31.15317327767006
    vertex 24.92336324335349 -6.856465843833565 31.843145750507563
  endloop
endfacet
facet normal -1.0 7.236346120908375e-16 1.088751586590565e-15
  outer loop
    vertex 24.923363243353506 -6.013320093325925 13.49999999999996
    vertex 24.92336324335349 -6.856465843833565 31.843145750507563
    vertex 24.92336324335349 -6.166493370996069 32.62990856793018
  endloop
endfacet
facet normal -1.0 7.236346120908375e-16 1.088751586590565e-15
  outer loop
    vertex 24.923363243353506 -6.013320093325925 13.49999999999996
    vertex 24.92336324335349 -6.166493370996069 32.62990856793018
    vertex 24.92336324335349 -5.585116863050431 33.49999999999994
  endloop
endfacet
facet normal -1.0 7.236346120908375e-16 1.088751586590565e-15
  outer loop
    vertex 24.923363243353506 -6.013320093325925 13.49999999999996
    vertex 24.92336324335349 -5.585116863050431 33.49999999999994
    vertex 24.923363243353506 -3.0133200933259245 16.499999999999957
  endloop
endfacet
facet normal -1.0 7.236346120908375e-16 1.088751586590565e-15
  outer loop
    vertex 24.923363243353506 -3.0133200933259245 16.499999999999957
    vertex 24.92336324335349 -5.585116863050431 33.49999999999994
    vertex 24.92336324335349 -5.122283833235635 34.43853254107923
  endloop
endfacet
facet normal -1.0 7.236346120908375e-16 1.088751586590565e-15
  outer loop
    vertex 24.923363243353506 -3.0133200933259245 16.499999999999957
    vertex 24.92336324335349 -5.122283833235635 34.43853254107923
    vertex 24.92336324335349 -4.785913483013393 35.42944763917978
  endloop
endfacet
facet normal -1.0 7.236346120908375e-16 1.088751586590565e-15
  outer loop
    vertex 24.923363243353506 -3.0133200933259245 16.499999999999957
    vertex 24.92336324335349 -4.785913483013393 35.42944763917978
    vertex 24.92336324335349 -4.581761202335446 36.45579046223953
  endloop
endfacet
facet normal -1.0 7.236346120908375e-16 1.088751586590565e-15
  outer loop
    vertex 24.923363243353506 -3.0133200933259245 16.499999999999957
    vertex 24.92336324335349 -4.581761202335446 36.45579046223953
    vertex 24.92336324335349 -4.513320093325949 37.49999999999995
  endloop
endfacet
facet normal 2.5912653243819486e-32 -8.676819946301222e-16 1.0
  outer loop
    vertex 49.923363243353535 -19.013320093325923 46.999999999999936
    vertex 24.923363243353542 -6.013320093325919 46.999999999999964
    vertex 24.92336324335353 -19.01332009332592 46.99999999999995
  endloop
endfacet
facet normal 2.5912653243819486e-32 -8.676819946301222e-16 1.0
  outer loop
    vertex 24.923363243353542 -6.013320093325919 46.999999999999964
    vertex 49.923363243353535 -19.013320093325923 46.999999999999936
    vertex 49.92336324335355 -6.013320093325924 46.99999999999995
  endloop
endfacet
facet normal 5.495664337263584e-18 0.7071067811865476 0.7071067811865476
  outer loop
    vertex 24.923363243353542 -3.0133200933259188 43.999999999999964
    vertex 49.92336324335355 -6.013320093325924 46.99999999999995
    vertex 49.923363243353535 -3.0133200933259237 43.99999999999995
  endloop
endfacet
facet normal 5.495664337263584e-18 0.7071067811865476 0.7071067811865476
  outer loop
    vertex 49.92336324335355 -6.013320093325924 46.99999999999995
    vertex 24.923363243353542 -3.0133200933259188 43.999999999999964
    vertex 24.923363243353542 -6.013320093325919 46.999999999999964
  endloop
endfacet
facet normal 1.4214733233010364e-31 -0.7071067811865475 0.7071067811865476
  outer loop
    vertex 49.92336324335352 -22.013320093325927 43.999999999999936
    vertex 24.92336324335353 -19.01332009332592 46.99999999999995
    vertex 24.923363243353524 -22.01332009332592 43.99999999999995
  endloop
endfacet
facet normal 1.4214733233010364e-31 -0.7071067811865475 0.7071067811865476
  outer loop
    vertex 24.92336324335353 -19.01332009332592 46.99999999999995
    vertex 49.92336324335352 -22.013320093325927 43.999999999999936
    vertex 49.923363243353535 -19.013320093325923 46.999999999999936
  endloop
endfacet
facet normal 9.164891068280664e-17 1.0 -1.217712799282048e-16
  outer loop
    vertex 24.923363243353506 -3.0133200933259245 16.499999999999957
    vertex 35.423363243353506 -3.0133200933259063 23.035898384862186
    vertex 49.9233632433535 -3.0133200933259245 16.499999999999957
  endloop
endfacet
facet normal 9.164891068280664e-17 1.0 -1.217712799282048e-16
  outer loop
    vertex 35.423363243353506 -3.0133200933259063 23.035898384862186
    vertex 24.923363243353506 -3.0133200933259245 16.499999999999957
    vertex 34.594936118607315 -3.0133200933259063 23.67157287525375
  endloop
endfacet
facet normal 9.164891068280664e-17 1.0 -1.217712799282048e-16
  outer loop
    vertex 34.594936118607315 -3.0133200933259063 23.67157287525375
    vertex 24.923363243353506 -3.0133200933259245 16.499999999999957
    vertex 33.95926162821575 -3.0133200933259063 24.49999999999994
  endloop
endfacet
facet normal 9.164891068280664e-17 1.0 -1.217712799282048e-16
  outer loop
    vertex 33.95926162821575 -3.0133200933259063 24.49999999999994
    vertex 24.923363243353506 -3.0133200933259245 16.499999999999957
    vertex 24.923363243353542 -3.0133200933259188 43.999999999999964
  endloop
endfacet
facet normal 9.164891068280664e-17 1.0 -1.217712799282048e-16
  outer loop
    vertex 49.9233632433535 -3.0133200933259245 16.499999999999957
    vertex 35.423363243353506 -3.0133200933259063 23.035898384862186
    vertex 36.38808706294342 -3.0133200933259063 22.63629669484367
  endloop
endfacet
facet normal 9.164891068280664e-17 1.0 -1.217712799282048e-16
  outer loop
    vertex 49.9233632433535 -3.0133200933259245 16.499999999999957
    vertex 36.38808706294342 -3.0133200933259063 22.63629669484367
    vertex 37.4233632433535 -3.0133200933259063 22.499999999999943
  endloop
endfacet
facet normal 9.164891068280664e-17 1.0 -1.217712799282048e-16
  outer loop
    vertex 33.95926162821575 -3.0133200933259063 24.49999999999994
    vertex 24.923363243353542 -3.0133200933259188 43.999999999999964
    vertex 33.55965993819723 -3.0133200933259063 25.464723819589853
  endloop
endfacet
facet normal 9.164891068280664e-17 1.0 -1.217712799282048e-16
  outer loop
    vertex 33.55965993819723 -3.0133200933259063 25.464723819589853
    vertex 24.923363243353542 -3.0133200933259188 43.999999999999964
    vertex 33.4233632433535 -3.0133200933259063 26.49999999999994
  endloop
endfacet
facet normal 9.164891068280664e-17 1.0 -1.217712799282048e-16
  outer loop
    vertex 33.4233632433535 -3.0133200933259063 26.49999999999994
    vertex 24.923363243353542 -3.0133200933259188 43.999999999999964
    vertex 33.55965993819723 -3.0133200933259063 27.53527618041002
  endloop
endfacet
facet normal 9.164891068280664e-17 1.0 -1.217712799282048e-16
  outer loop
    vertex 33.55965993819723 -3.0133200933259063 27.53527618041002
    vertex 24.923363243353542 -3.0133200933259188 43.999999999999964
    vertex 33.95926162821575 -3.0133200933259063 28.499999999999936
  endloop
endfacet
facet normal 9.164891068280664e-17 1.0 -1.217712799282048e-16
  outer loop
    vertex 33.95926162821575 -3.0133200933259063 28.499999999999936
    vertex 24.923363243353542 -3.0133200933259188 43.999999999999964
    vertex 34.59493611860731 -3.0133200933259063 29.328427124746128
  endloop
endfacet
facet normal 9.164891068280664e-17 1.0 -1.217712799282048e-16
  outer loop
    vertex 34.59493611860731 -3.0133200933259063 29.328427124746128
    vertex 24.923363243353542 -3.0133200933259188 43.999999999999964
    vertex 35.4233632433535 -3.0133200933259063 29.96410161513769
  endloop
endfacet
facet normal 9.164891068280664e-17 1.0 -1.217712799282048e-16
  outer loop
    vertex 35.4233632433535 -3.0133200933259063 29.96410161513769
    vertex 24.923363243353542 -3.0133200933259188 43.999999999999964
    vertex 36.38808706294341 -3.0133200933259063 30.36370330515621
  endloop
endfacet
facet normal 9.164891068280664e-17 1.0 -1.217712799282048e-16
  outer loop
    vertex 36.38808706294341 -3.0133200933259063 30.36370330515621
    vertex 24.923363243353542 -3.0133200933259188 43.999999999999964
    vertex 37.4233632433535 -3.0133200933259063 30.49999999999994
  endloop
endfacet
facet normal 9.164891068280664e-17 1.0 -1.217712799282048e-16
  outer loop
    vertex 37.4233632433535 -3.0133200933259063 30.49999999999994
    vertex 24.923363243353542 -3.0133200933259188 43.999999999999964
    vertex 49.923363243353535 -3.0133200933259237 43.99999999999995
  endloop
endfacet
facet normal 9.164891068280664e-17 1.0 -1.217712799282048e-16
  outer loop
    vertex 49.9233632433535 -3.0133200933259245 16.499999999999957
    vertex 40.887464858491256 -3.0133200933259063 24.49999999999994
    vertex 49.923363243353535 -3.0133200933259237 43.99999999999995
  endloop
endfacet
facet normal 9.164891068280664e-17 1.0 -1.217712799282048e-16
  outer loop
    vertex 40.887464858491256 -3.0133200933259063 24.49999999999994
    vertex 49.9233632433535 -3.0133200933259245 16.499999999999957
    vertex 40.25179036809969 -3.0133200933259063 23.671572875253755
  endloop
endfacet
facet normal 9.164891068280664e-17 1.0 -1.217712799282048e-16
  outer loop
    vertex 40.25179036809969 -3.0133200933259063 23.671572875253755
    vertex 49.9233632433535 -3.0133200933259245 16.499999999999957
    vertex 39.423363243353506 -3.0133200933259063 23.03589838486219
  endloop
endfacet
facet normal 9.164891068280664e-17 1.0 -1.217712799282048e-16
  outer loop
    vertex 39.423363243353506 -3.0133200933259063 23.03589838486219
    vertex 49.9233632433535 -3.0133200933259245 16.499999999999957
    vertex 38.458639423763586 -3.0133200933259063 22.63629669484367
  endloop
endfacet
facet normal 9.164891068280664e-17 1.0 -1.217712799282048e-16
  outer loop
    vertex 38.458639423763586 -3.0133200933259063 22.63629669484367
    vertex 49.9233632433535 -3.0133200933259245 16.499999999999957
    vertex 37.4233632433535 -3.0133200933259063 22.499999999999943
  endloop
endfacet
facet normal 9.164891068280664e-17 1.0 -1.217712799282048e-16
  outer loop
    vertex 49.923363243353535 -3.0133200933259237 43.99999999999995
    vertex 40.887464858491256 -3.0133200933259063 24.49999999999994
    vertex 41.28706654850977 -3.0133200933259063 25.46472381958986
  endloop
endfacet
facet normal 9.164891068280664e-17 1.0 -1.217712799282048e-16
  outer loop
    vertex 49.923363243353535 -3.0133200933259237 43.99999999999995
    vertex 41.28706654850977 -3.0133200933259063 25.46472381958986
    vertex 41.4233632433535 -3.0133200933259063 26.49999999999994
  endloop
endfacet
facet normal 9.164891068280664e-17 1.0 -1.217712799282048e-16
  outer loop
    vertex 49.923363243353535 -3.0133200933259237 43.99999999999995
    vertex 41.4233632433535 -3.0133200933259063 26.49999999999994
    vertex 41.28706654850977 -3.0133200933259063 27.535276180410026
  endloop
endfacet
facet normal 9.164891068280664e-17 1.0 -1.217712799282048e-16
  outer loop
    vertex 49.923363243353535 -3.0133200933259237 43.99999999999995
    vertex 41.28706654850977 -3.0133200933259063 27.535276180410026
    vertex 40.88746485849125 -3.0133200933259063 28.499999999999943
  endloop
endfacet
facet normal 9.164891068280664e-17 1.0 -1.217712799282048e-16
  outer loop
    vertex 49.923363243353535 -3.0133200933259237 43.99999999999995
    vertex 40.88746485849125 -3.0133200933259063 28.499999999999943
    vertex 40.251790368099684 -3.0133200933259063 29.32842712474613
  endloop
endfacet
facet normal 9.164891068280664e-17 1.0 -1.217712799282048e-16
  outer loop
    vertex 49.923363243353535 -3.0133200933259237 43.99999999999995
    vertex 40.251790368099684 -3.0133200933259063 29.32842712474613
    vertex 39.4233632433535 -3.0133200933259063 29.96410161513769
  endloop
endfacet
facet normal 9.164891068280664e-17 1.0 -1.217712799282048e-16
  outer loop
    vertex 49.923363243353535 -3.0133200933259237 43.99999999999995
    vertex 39.4233632433535 -3.0133200933259063 29.96410161513769
    vertex 38.45863942376358 -3.0133200933259063 30.36370330515621
  endloop
endfacet
facet normal 9.164891068280664e-17 1.0 -1.217712799282048e-16
  outer loop
    vertex 49.923363243353535 -3.0133200933259237 43.99999999999995
    vertex 38.45863942376358 -3.0133200933259063 30.36370330515621
    vertex 37.4233632433535 -3.0133200933259063 30.49999999999994
  endloop
endfacet
facet normal -2.2559731860383186e-16 -3.524958103184871e-16 -1.0
  outer loop
    vertex 24.923363243353506 -6.013320093325925 13.49999999999996
    vertex 49.9233632433535 -22.013320093325927 13.49999999999996
    vertex 24.923363243353503 -22.01332009332592 13.49999999999997
  endloop
endfacet
facet normal -2.2559731860383186e-16 -3.524958103184871e-16 -1.0
  outer loop
    vertex 49.9233632433535 -22.013320093325927 13.49999999999996
    vertex 24.923363243353506 -6.013320093325925 13.49999999999996
    vertex 49.9233632433535 -6.013320093325925 13.49999999999996
  endloop
endfacet
facet normal -2.2559731860383176e-16 -1.0 1.7676200222527547e-31
  outer loop
    vertex 49.9233632433535 -22.013320093325927 13.49999999999996
    vertex 39.423363243353506 -22.013320093325927 23.03589838486219
    vertex 24.923363243353503 -22.01332009332592 13.49999999999997
  endloop
endfacet
facet normal -2.2559731860383176e-16 -1.0 1.7676200222527547e-31
  outer loop
    vertex 39.423363243353506 -22.013320093325927 23.03589838486219
    vertex 49.9233632433535 -22.013320093325927 13.49999999999996
    vertex 40.25179036809969 -22.013320093325927 23.671572875253755
  endloop
endfacet
facet normal -2.2559731860383176e-16 -1.0 1.7676200222527547e-31
  outer loop
    vertex 40.25179036809969 -22.013320093325927 23.671572875253755
    vertex 49.9233632433535 -22.013320093325927 13.49999999999996
    vertex 40.887464858491256 -22.013320093325927 24.49999999999994
  endloop
endfacet
facet normal -2.2559731860383176e-16 -1.0 1.7676200222527547e-31
  outer loop
    vertex 40.887464858491256 -22.013320093325927 24.49999999999994
    vertex 49.9233632433535 -22.013320093325927 13.49999999999996
    vertex 49.92336324335352 -22.013320093325927 43.999999999999936
  endloop
endfacet
facet normal -2.2559731860383176e-16 -1.0 1.7676200222527547e-31
  outer loop
    vertex 24.923363243353503 -22.01332009332592 13.49999999999997
    vertex 39.423363243353506 -22.013320093325927 23.03589838486219
    vertex 38.458639423763586 -22.013320093325927 22.63629669484367
  endloop
endfacet
facet normal -2.2559731860383176e-16 -1.0 1.7676200222527547e-31
  outer loop
    vertex 24.923363243353503 -22.01332009332592 13.49999999999997
    vertex 38.458639423763586 -22.013320093325927 22.63629669484367
    vertex 37.4233632433535 -22.013320093325927 22.499999999999943
  endloop
endfacet
facet normal -2.2559731860383176e-16 -1.0 1.7676200222527547e-31
  outer loop
    vertex 40.887464858491256 -22.013320093325927 24.49999999999994
    vertex 49.92336324335352 -22.013320093325927 43.999999999999936
    vertex 41.28706654850977 -22.013320093325927 25.46472381958986
  endloop
endfacet
facet normal -2.2559731860383176e-16 -1.0 1.7676200222527547e-31
  outer loop
    vertex 41.28706654850977 -22.013320093325927 25.46472381958986
    vertex 49.92336324335352 -22.013320093325927 43.999999999999936
    vertex 41.4233632433535 -22.013320093325927 26.49999999999994
  endloop
endfacet
facet normal -2.2559731860383176e-16 -1.0 1.7676200222527547e-31
  outer loop
    vertex 41.4233632433535 -22.013320093325927 26.49999999999994
    vertex 49.92336324335352 -22.013320093325927 43.999999999999936
    vertex 41.28706654850977 -22.013320093325927 27.535276180410026
  endloop
endfacet
facet normal -2.2559731860383176e-16 -1.0 1.7676200222527547e-31
  outer loop
    vertex 41.28706654850977 -22.013320093325927 27.535276180410026
    vertex 49.92336324335352 -22.013320093325927 43.999999999999936
    vertex 40.88746485849125 -22.013320093325927 28.499999999999943
  endloop
endfacet
facet normal -2.2559731860383176e-16 -1.0 1.7676200222527547e-31
  outer loop
    vertex 40.88746485849125 -22.013320093325927 28.499999999999943
    vertex 49.92336324335352 -22.013320093325927 43.999999999999936
    vertex 40.251790368099684 -22.013320093325927 29.32842712474613
  endloop
endfacet
facet normal -2.2559731860383176e-16 -1.0 1.7676200222527547e-31
  outer loop
    vertex 40.251790368099684 -22.013320093325927 29.32842712474613
    vertex 49.92336324335352 -22.013320093325927 43.999999999999936
    vertex 39.4233632433535 -22.013320093325927 29.96410161513769
  endloop
endfacet
facet normal -2.2559731860383176e-16 -1.0 1.7676200222527547e-31
  outer loop
    vertex 39.4233632433535 -22.013320093325927 29.96410161513769
    vertex 49.92336324335352 -22.013320093325927 43.999999999999936
    vertex 38.45863942376358 -22.013320093325927 30.36370330515621
  endloop
endfacet
facet normal -2.2559731860383176e-16 -1.0 1.7676200222527547e-31
  outer loop
    vertex 38.45863942376358 -22.013320093325927 30.36370330515621
    vertex 49.92336324335352 -22.013320093325927 43.999999999999936
    vertex 37.4233632433535 -22.013320093325927 30.49999999999994
  endloop
endfacet
facet normal -2.2559731860383176e-16 -1.0 1.7676200222527547e-31
  outer loop
    vertex 24.923363243353503 -22.01332009332592 13.49999999999997
    vertex 36.38808706294342 -22.013320093325927 22.63629669484367
    vertex 24.923363243353503 -22.01332009332592 26.49999999999994
  endloop
endfacet
facet normal -2.2559731860383176e-16 -1.0 1.7676200222527547e-31
  outer loop
    vertex 36.38808706294342 -22.013320093325927 22.63629669484367
    vertex 24.923363243353503 -22.01332009332592 13.49999999999997
    vertex 37.4233632433535 -22.013320093325927 22.499999999999943
  endloop
endfacet
facet normal -2.2559731860383176e-16 -1.0 1.7676200222527547e-31
  outer loop
    vertex 24.923363243353503 -22.01332009332592 26.49999999999994
    vertex 36.38808706294342 -22.013320093325927 22.63629669484367
    vertex 35.423363243353506 -22.013320093325927 23.035898384862186
  endloop
endfacet
facet normal -2.2559731860383176e-16 -1.0 1.7676200222527547e-31
  outer loop
    vertex 24.923363243353503 -22.01332009332592 26.49999999999994
    vertex 35.423363243353506 -22.013320093325927 23.035898384862186
    vertex 34.594936118607315 -22.013320093325927 23.67157287525375
  endloop
endfacet
facet normal -2.2559731860383176e-16 -1.0 1.7676200222527547e-31
  outer loop
    vertex 24.923363243353503 -22.01332009332592 26.49999999999994
    vertex 34.594936118607315 -22.013320093325927 23.67157287525375
    vertex 33.95926162821575 -22.013320093325927 24.49999999999994
  endloop
endfacet
facet normal -2.2559731860383176e-16 -1.0 1.7676200222527547e-31
  outer loop
    vertex 24.923363243353503 -22.01332009332592 26.49999999999994
    vertex 33.95926162821575 -22.013320093325927 24.49999999999994
    vertex 33.55965993819723 -22.013320093325927 25.464723819589853
  endloop
endfacet
facet normal -2.2559731860383176e-16 -1.0 1.7676200222527547e-31
  outer loop
    vertex 24.923363243353503 -22.01332009332592 26.49999999999994
    vertex 33.55965993819723 -22.013320093325927 25.464723819589853
    vertex 33.4233632433535 -22.013320093325927 26.49999999999994
  endloop
endfacet
facet normal -2.2559731860383176e-16 -1.0 1.7676200222527547e-31
  outer loop
    vertex 24.923363243353503 -22.01332009332592 26.49999999999994
    vertex 33.4233632433535 -22.013320093325927 26.49999999999994
    vertex 33.55965993819723 -22.013320093325927 27.53527618041002
  endloop
endfacet
facet normal -2.2559731860383176e-16 -1.0 1.7676200222527547e-31
  outer loop
    vertex 24.923363243353503 -22.01332009332592 26.49999999999994
    vertex 33.55965993819723 -22.013320093325927 27.53527618041002
    vertex 24.923363243353524 -22.01332009332592 43.99999999999995
  endloop
endfacet
facet normal -2.2559731860383176e-16 -1.0 1.7676200222527547e-31
  outer loop
    vertex 24.923363243353524 -22.01332009332592 43.99999999999995
    vertex 33.55965993819723 -22.013320093325927 27.53527618041002
    vertex 33.95926162821575 -22.013320093325927 28.499999999999936
  endloop
endfacet
facet normal -2.2559731860383176e-16 -1.0 1.7676200222527547e-31
  outer loop
    vertex 24.923363243353524 -22.01332009332592 43.99999999999995
    vertex 33.95926162821575 -22.013320093325927 28.499999999999936
    vertex 34.59493611860731 -22.013320093325927 29.328427124746128
  endloop
endfacet
facet normal -2.2559731860383176e-16 -1.0 1.7676200222527547e-31
  outer loop
    vertex 24.923363243353524 -22.01332009332592 43.99999999999995
    vertex 34.59493611860731 -22.013320093325927 29.328427124746128
    vertex 35.4233632433535 -22.013320093325927 29.96410161513769
  endloop
endfacet
facet normal -2.2559731860383176e-16 -1.0 1.7676200222527547e-31
  outer loop
    vertex 24.923363243353524 -22.01332009332592 43.99999999999995
    vertex 35.4233632433535 -22.013320093325927 29.96410161513769
    vertex 36.38808706294341 -22.013320093325927 30.36370330515621
  endloop
endfacet
facet normal -2.2559731860383176e-16 -1.0 1.7676200222527547e-31
  outer loop
    vertex 24.923363243353524 -22.01332009332592 43.99999999999995
    vertex 36.38808706294341 -22.013320093325927 30.36370330515621
    vertex 37.4233632433535 -22.013320093325927 30.49999999999994
  endloop
endfacet
facet normal -2.2559731860383176e-16 -1.0 1.7676200222527547e-31
  outer loop
    vertex 24.923363243353524 -22.01332009332592 43.99999999999995
    vertex 37.4233632433535 -22.013320093325927 30.49999999999994
    vertex 49.92336324335352 -22.013320093325927 43.999999999999936
  endloop
endfacet
facet normal 1.0 -3.3041480827294174e-16 -1.1206185458126495e-15
  outer loop
    vertex 49.9233632433535 -6.013320093325925 13.49999999999996
    vertex 49.92336324335352 -22.013320093325927 43.999999999999936
    vertex 49.9233632433535 -22.013320093325927 13.49999999999996
  endloop
endfacet
facet normal 1.0 -3.3041480827294174e-16 -1.1206185458126495e-15
  outer loop
    vertex 49.92336324335352 -22.013320093325927 43.999999999999936
    vertex 49.9233632433535 -6.013320093325925 13.49999999999996
    vertex 49.923363243353535 -19.013320093325923 46.999999999999936
  endloop
endfacet
facet normal 1.0 -3.3041480827294174e-16 -1.1206185458126495e-15
  outer loop
    vertex 49.923363243353535 -19.013320093325923 46.999999999999936
    vertex 49.9233632433535 -6.013320093325925 13.49999999999996
    vertex 49.92336324335355 -6.013320093325924 46.99999999999995
  endloop
endfacet
facet normal 1.0 -3.3041480827294174e-16 -1.1206185458126495e-15
  outer loop
    vertex 49.92336324335355 -6.013320093325924 46.99999999999995
    vertex 49.9233632433535 -6.013320093325925 13.49999999999996
    vertex 49.9233632433535 -3.0133200933259245 16.499999999999957
  endloop
endfacet
facet normal 1.0 -3.3041480827294174e-16 -1.1206185458126495e-15
  outer loop
    vertex 49.92336324335355 -6.013320093325924 46.99999999999995
    vertex 49.9233632433535 -3.0133200933259245 16.499999999999957
    vertex 49.923363243353535 -3.0133200933259237 43.99999999999995
  endloop
endfacet
facet normal 0.0 0.7071067811865476 -0.7071067811865476
  outer loop
    vertex 24.923363243353506 -3.0133200933259245 16.499999999999957
    vertex 49.9233632433535 -6.013320093325925 13.49999999999996
    vertex 24.923363243353506 -6.013320093325925 13.49999999999996
  endloop
endfacet
facet normal 0.0 0.7071067811865476 -0.7071067811865476
  outer loop
    vertex 49.9233632433535 -6.013320093325925 13.49999999999996
    vertex 24.923363243353506 -3.0133200933259245 16.499999999999957
    vertex 49.9233632433535 -3.0133200933259245 16.499999999999957
  endloop
endfacet
facet normal -0.6087614290087213 -0.0 0.7933533402912347
  outer loop
    vertex 40.25179036809969 -22.013320093325927 23.671572875253755
    vertex 39.423363243353506 -3.0133200933259063 23.03589838486219
    vertex 39.423363243353506 -22.013320093325927 23.03589838486219
  endloop
endfacet
facet normal -0.6087614290087213 -0.0 0.7933533402912347
  outer loop
    vertex 39.423363243353506 -3.0133200933259063 23.03589838486219
    vertex 40.25179036809969 -22.013320093325927 23.671572875253755
    vertex 40.25179036809969 -3.0133200933259063 23.671572875253755
  endloop
endfacet
facet normal -0.7933533402912337 -0.0 0.6087614290087227
  outer loop
    vertex 40.887464858491256 -3.0133200933259063 24.49999999999994
    vertex 40.25179036809969 -22.013320093325927 23.671572875253755
    vertex 40.887464858491256 -22.013320093325927 24.49999999999994
  endloop
endfacet
facet normal -0.7933533402912337 -0.0 0.6087614290087227
  outer loop
    vertex 40.25179036809969 -22.013320093325927 23.671572875253755
    vertex 40.887464858491256 -3.0133200933259063 24.49999999999994
    vertex 40.25179036809969 -3.0133200933259063 23.671572875253755
  endloop
endfacet
facet normal -0.9238795325112885 -0.0 0.38268343236508573
  outer loop
    vertex 41.28706654850977 -3.0133200933259063 25.46472381958986
    vertex 40.887464858491256 -22.013320093325927 24.49999999999994
    vertex 41.28706654850977 -22.013320093325927 25.46472381958986
  endloop
endfacet
facet normal -0.9238795325112885 -0.0 0.38268343236508573
  outer loop
    vertex 40.887464858491256 -22.013320093325927 24.49999999999994
    vertex 41.28706654850977 -3.0133200933259063 25.46472381958986
    vertex 40.887464858491256 -3.0133200933259063 24.49999999999994
  endloop
endfacet
facet normal -0.9914448613738104 -0.0 0.13052619222005216
  outer loop
    vertex 41.4233632433535 -3.0133200933259063 26.49999999999994
    vertex 41.28706654850977 -22.013320093325927 25.46472381958986
    vertex 41.4233632433535 -22.013320093325927 26.49999999999994
  endloop
endfacet
facet normal -0.9914448613738104 -0.0 0.13052619222005216
  outer loop
    vertex 41.28706654850977 -22.013320093325927 25.46472381958986
    vertex 41.4233632433535 -3.0133200933259063 26.49999999999994
    vertex 41.28706654850977 -3.0133200933259063 25.46472381958986
  endloop
endfacet
facet normal -0.9914448613738105 -0.0 -0.13052619222005143
  outer loop
    vertex 41.28706654850977 -3.0133200933259063 27.535276180410026
    vertex 41.4233632433535 -22.013320093325927 26.49999999999994
    vertex 41.28706654850977 -22.013320093325927 27.535276180410026
  endloop
endfacet
facet normal -0.9914448613738105 -0.0 -0.13052619222005143
  outer loop
    vertex 41.4233632433535 -22.013320093325927 26.49999999999994
    vertex 41.28706654850977 -3.0133200933259063 27.535276180410026
    vertex 41.4233632433535 -3.0133200933259063 26.49999999999994
  endloop
endfacet
facet normal -0.9238795325112863 -0.0 -0.3826834323650914
  outer loop
    vertex 40.88746485849125 -3.0133200933259063 28.499999999999943
    vertex 41.28706654850977 -22.013320093325927 27.535276180410026
    vertex 40.88746485849125 -22.013320093325927 28.499999999999943
  endloop
endfacet
facet normal -0.9238795325112863 -0.0 -0.3826834323650914
  outer loop
    vertex 41.28706654850977 -22.013320093325927 27.535276180410026
    vertex 40.88746485849125 -3.0133200933259063 28.499999999999943
    vertex 41.28706654850977 -3.0133200933259063 27.535276180410026
  endloop
endfacet
facet normal -0.7933533402912347 -0.0 -0.6087614290087213
  outer loop
    vertex 40.251790368099684 -3.0133200933259063 29.32842712474613
    vertex 40.88746485849125 -22.013320093325927 28.499999999999943
    vertex 40.251790368099684 -22.013320093325927 29.32842712474613
  endloop
endfacet
facet normal -0.7933533402912347 -0.0 -0.6087614290087213
  outer loop
    vertex 40.88746485849125 -22.013320093325927 28.499999999999943
    vertex 40.251790368099684 -3.0133200933259063 29.32842712474613
    vertex 40.88746485849125 -3.0133200933259063 28.499999999999943
  endloop
endfacet
facet normal -0.6087614290087179 -0.0 -0.7933533402912372
  outer loop
    vertex 40.251790368099684 -3.0133200933259063 29.32842712474613
    vertex 39.4233632433535 -22.013320093325927 29.96410161513769
    vertex 39.4233632433535 -3.0133200933259063 29.96410161513769
  endloop
endfacet
facet normal -0.6087614290087179 -0.0 -0.7933533402912372
  outer loop
    vertex 39.4233632433535 -22.013320093325927 29.96410161513769
    vertex 40.251790368099684 -3.0133200933259063 29.32842712474613
    vertex 40.251790368099684 -22.013320093325927 29.32842712474613
  endloop
endfacet
facet normal -0.3826834323650914 -0.0 -0.9238795325112863
  outer loop
    vertex 39.4233632433535 -3.0133200933259063 29.96410161513769
    vertex 38.45863942376358 -22.013320093325927 30.36370330515621
    vertex 38.45863942376358 -3.0133200933259063 30.36370330515621
  endloop
endfacet
facet normal -0.3826834323650914 -0.0 -0.9238795325112863
  outer loop
    vertex 38.45863942376358 -22.013320093325927 30.36370330515621
    vertex 39.4233632433535 -3.0133200933259063 29.96410161513769
    vertex 39.4233632433535 -22.013320093325927 29.96410161513769
  endloop
endfacet
facet normal -0.13052619222005216 -0.0 -0.9914448613738104
  outer loop
    vertex 38.45863942376358 -3.0133200933259063 30.36370330515621
    vertex 37.4233632433535 -22.013320093325927 30.49999999999994
    vertex 37.4233632433535 -3.0133200933259063 30.49999999999994
  endloop
endfacet
facet normal -0.13052619222005216 -0.0 -0.9914448613738104
  outer loop
    vertex 37.4233632433535 -22.013320093325927 30.49999999999994
    vertex 38.45863942376358 -3.0133200933259063 30.36370330515621
    vertex 38.45863942376358 -22.013320093325927 30.36370330515621
  endloop
endfacet
facet normal 0.13052619222005143 -0.0 -0.9914448613738105
  outer loop
    vertex 37.4233632433535 -3.0133200933259063 30.49999999999994
    vertex 36.38808706294341 -22.013320093325927 30.36370330515621
    vertex 36.38808706294341 -3.0133200933259063 30.36370330515621
  endloop
endfacet
facet normal 0.13052619222005143 -0.0 -0.9914448613738105
  outer loop
    vertex 36.38808706294341 -22.013320093325927 30.36370330515621
    vertex 37.4233632433535 -3.0133200933259063 30.49999999999994
    vertex 37.4233632433535 -22.013320093325927 30.49999999999994
  endloop
endfacet
facet normal 0.3826834323650914 -0.0 -0.9238795325112863
  outer loop
    vertex 36.38808706294341 -3.0133200933259063 30.36370330515621
    vertex 35.4233632433535 -22.013320093325927 29.96410161513769
    vertex 35.4233632433535 -3.0133200933259063 29.96410161513769
  endloop
endfacet
facet normal 0.3826834323650914 -0.0 -0.9238795325112863
  outer loop
    vertex 35.4233632433535 -22.013320093325927 29.96410161513769
    vertex 36.38808706294341 -3.0133200933259063 30.36370330515621
    vertex 36.38808706294341 -22.013320093325927 30.36370330515621
  endloop
endfacet
facet normal 0.6087614290087213 -0.0 -0.7933533402912347
  outer loop
    vertex 35.4233632433535 -3.0133200933259063 29.96410161513769
    vertex 34.59493611860731 -22.013320093325927 29.328427124746128
    vertex 34.59493611860731 -3.0133200933259063 29.328427124746128
  endloop
endfacet
facet normal 0.6087614290087213 -0.0 -0.7933533402912347
  outer loop
    vertex 34.59493611860731 -22.013320093325927 29.328427124746128
    vertex 35.4233632433535 -3.0133200933259063 29.96410161513769
    vertex 35.4233632433535 -22.013320093325927 29.96410161513769
  endloop
endfacet
facet normal 0.7933533402912372 -0.0 -0.6087614290087179
  outer loop
    vertex 33.95926162821575 -3.0133200933259063 28.499999999999936
    vertex 34.59493611860731 -22.013320093325927 29.328427124746128
    vertex 33.95926162821575 -22.013320093325927 28.499999999999936
  endloop
endfacet
facet normal 0.7933533402912372 -0.0 -0.6087614290087179
  outer loop
    vertex 34.59493611860731 -22.013320093325927 29.328427124746128
    vertex 33.95926162821575 -3.0133200933259063 28.499999999999936
    vertex 34.59493611860731 -3.0133200933259063 29.328427124746128
  endloop
endfacet
facet normal 0.9238795325112863 -0.0 -0.3826834323650914
  outer loop
    vertex 33.55965993819723 -3.0133200933259063 27.53527618041002
    vertex 33.95926162821575 -22.013320093325927 28.499999999999936
    vertex 33.55965993819723 -22.013320093325927 27.53527618041002
  endloop
endfacet
facet normal 0.9238795325112863 -0.0 -0.3826834323650914
  outer loop
    vertex 33.95926162821575 -22.013320093325927 28.499999999999936
    vertex 33.55965993819723 -3.0133200933259063 27.53527618041002
    vertex 33.95926162821575 -3.0133200933259063 28.499999999999936
  endloop
endfacet
facet normal 0.9914448613738104 -0.0 -0.13052619222005216
  outer loop
    vertex 33.4233632433535 -3.0133200933259063 26.49999999999994
    vertex 33.55965993819723 -22.013320093325927 27.53527618041002
    vertex 33.4233632433535 -22.013320093325927 26.49999999999994
  endloop
endfacet
facet normal 0.9914448613738104 -0.0 -0.13052619222005216
  outer loop
    vertex 33.55965993819723 -22.013320093325927 27.53527618041002
    vertex 33.4233632433535 -3.0133200933259063 26.49999999999994
    vertex 33.55965993819723 -3.0133200933259063 27.53527618041002
  endloop
endfacet
facet normal 0.9914448613738105 0.0 0.13052619222005143
  outer loop
    vertex 33.55965993819723 -3.0133200933259063 25.464723819589853
    vertex 33.4233632433535 -22.013320093325927 26.49999999999994
    vertex 33.55965993819723 -22.013320093325927 25.464723819589853
  endloop
endfacet
facet normal 0.9914448613738105 0.0 0.13052619222005143
  outer loop
    vertex 33.4233632433535 -22.013320093325927 26.49999999999994
    vertex 33.55965993819723 -3.0133200933259063 25.464723819589853
    vertex 33.4233632433535 -3.0133200933259063 26.49999999999994
  endloop
endfacet
facet normal 0.9238795325112863 0.0 0.3826834323650914
  outer loop
    vertex 33.95926162821575 -3.0133200933259063 24.49999999999994
    vertex 33.55965993819723 -22.013320093325927 25.464723819589853
    vertex 33.95926162821575 -22.013320093325927 24.49999999999994
  endloop
endfacet
facet normal 0.9238795325112863 0.0 0.3826834323650914
  outer loop
    vertex 33.55965993819723 -22.013320093325927 25.464723819589853
    vertex 33.95926162821575 -3.0133200933259063 24.49999999999994
    vertex 33.55965993819723 -3.0133200933259063 25.464723819589853
  endloop
endfacet
facet normal 0.7933533402912337 0.0 0.6087614290087227
  outer loop
    vertex 34.594936118607315 -3.0133200933259063 23.67157287525375
    vertex 33.95926162821575 -22.013320093325927 24.49999999999994
    vertex 34.594936118607315 -22.013320093325927 23.67157287525375
  endloop
endfacet
facet normal 0.7933533402912337 0.0 0.6087614290087227
  outer loop
    vertex 33.95926162821575 -22.013320093325927 24.49999999999994
    vertex 34.594936118607315 -3.0133200933259063 23.67157287525375
    vertex 33.95926162821575 -3.0133200933259063 24.49999999999994
  endloop
endfacet
facet normal 0.6087614290087213 0.0 0.7933533402912347
  outer loop
    vertex 35.423363243353506 -22.013320093325927 23.035898384862186
    vertex 34.594936118607315 -3.0133200933259063 23.67157287525375
    vertex 34.594936118607315 -22.013320093325927 23.67157287525375
  endloop
endfacet
facet normal 0.6087614290087213 0.0 0.7933533402912347
  outer loop
    vertex 34.594936118607315 -3.0133200933259063 23.67157287525375
    vertex 35.423363243353506 -22.013320093325927 23.035898384862186
    vertex 35.423363243353506 -3.0133200933259063 23.035898384862186
  endloop
endfacet
facet normal 0.38268343236508895 0.0 0.9238795325112871
  outer loop
    vertex 36.38808706294342 -22.013320093325927 22.63629669484367
    vertex 35.423363243353506 -3.0133200933259063 23.035898384862186
    vertex 35.423363243353506 -22.013320093325927 23.035898384862186
  endloop
endfacet
facet normal 0.38268343236508895 0.0 0.9238795325112871
  outer loop
    vertex 35.423363243353506 -3.0133200933259063 23.035898384862186
    vertex 36.38808706294342 -22.013320093325927 22.63629669484367
    vertex 36.38808706294342 -3.0133200933259063 22.63629669484367
  endloop
endfacet
facet normal 0.13052619222005216 0.0 0.9914448613738104
  outer loop
    vertex 37.4233632433535 -22.013320093325927 22.499999999999943
    vertex 36.38808706294342 -3.0133200933259063 22.63629669484367
    vertex 36.38808706294342 -22.013320093325927 22.63629669484367
  endloop
endfacet
facet normal 0.13052619222005216 0.0 0.9914448613738104
  outer loop
    vertex 36.38808706294342 -3.0133200933259063 22.63629669484367
    vertex 37.4233632433535 -22.013320093325927 22.499999999999943
    vertex 37.4233632433535 -3.0133200933259063 22.499999999999943
  endloop
endfacet
facet normal -0.13052619222005143 -0.0 0.9914448613738105
  outer loop
    vertex 38.458639423763586 -22.013320093325927 22.63629669484367
    vertex 37.4233632433535 -3.0133200933259063 22.499999999999943
    vertex 37.4233632433535 -22.013320093325927 22.499999999999943
  endloop
endfacet
facet normal -0.13052619222005143 -0.0 0.9914448613738105
  outer loop
    vertex 37.4233632433535 -3.0133200933259063 22.499999999999943
    vertex 38.458639423763586 -22.013320093325927 22.63629669484367
    vertex 38.458639423763586 -3.0133200933259063 22.63629669484367
  endloop
endfacet
facet normal -0.3826834323650914 -0.0 0.9238795325112863
  outer loop
    vertex 39.423363243353506 -22.013320093325927 23.03589838486219
    vertex 38.458639423763586 -3.0133200933259063 22.63629669484367
    vertex 38.458639423763586 -22.013320093325927 22.63629669484367
  endloop
endfacet
facet normal -0.3826834323650914 -0.0 0.9238795325112863
  outer loop
    vertex 38.458639423763586 -3.0133200933259063 22.63629669484367
    vertex 39.423363243353506 -22.013320093325927 23.03589838486219
    vertex 39.423363243353506 -3.0133200933259063 23.03589838486219
  endloop
endfacet
endsolid Дополнение для ремня-8mm
