solid Подшипник-на-ремень-верx-бок-лев
facet normal -2.1600855554827972e-16 1.0 2.7824878177815944e-16
  outer loop
    vertex -2.638817478775288 -20.666642899368437 4.999999999999989
    vertex 3.8816989147236622 -20.666642899368433 -1.127986593019159e-14
    vertex -2.6388174787752887 -20.666642899368433 -1.127986593019159e-14
  endloop
endfacet
facet normal -2.1600855554827972e-16 1.0 2.7824878177815944e-16
  outer loop
    vertex 3.8816989147236622 -20.666642899368433 -1.127986593019159e-14
    vertex -2.638817478775288 -20.666642899368437 4.999999999999989
    vertex 3.8816989147236622 -20.666642899368433 4.999999999999989
  endloop
endfacet
facet normal 4.756762733936617e-16 -1.0 -1.0804173756079733e-15
  outer loop
    vertex 15.529992280646045 -25.22538234981186 4.999999999999989
    vertex 12.082218625919635 -25.22538234981186 5.326962525965405
    vertex 3.8816989147236622 -25.225382349811863 4.999999999999989
  endloop
endfacet
facet normal 4.756762733936617e-16 -1.0 -1.0804173756079733e-15
  outer loop
    vertex 12.082218625919635 -25.22538234981186 5.326962525965405
    vertex 15.529992280646045 -25.22538234981186 4.999999999999989
    vertex 12.391955872664505 -25.22538234981186 5.376248932361023
  endloop
endfacet
facet normal 4.756762733936617e-16 -1.0 -1.0804173756079733e-15
  outer loop
    vertex 12.391955872664505 -25.22538234981186 5.376248932361023
    vertex 15.529992280646045 -25.22538234981186 4.999999999999989
    vertex 12.678382818019195 -25.22538234981186 5.504021843618725
  endloop
endfacet
facet normal 4.756762733936617e-16 -1.0 -1.0804173756079733e-15
  outer loop
    vertex 12.678382818019195 -25.22538234981186 5.504021843618725
    vertex 15.529992280646045 -25.22538234981186 4.999999999999989
    vertex 12.921979939000687 -25.22538234981186 5.701573746991009
  endloop
endfacet
facet normal 4.756762733936617e-16 -1.0 -1.0804173756079733e-15
  outer loop
    vertex 12.921979939000687 -25.22538234981186 5.701573746991009
    vertex 15.529992280646045 -25.22538234981186 4.999999999999989
    vertex 13.106146494377377 -25.22538234981186 5.955441806733017
  endloop
endfacet
facet normal 4.756762733936617e-16 -1.0 -1.0804173756079733e-15
  outer loop
    vertex 13.106146494377377 -25.22538234981186 5.955441806733017
    vertex 15.529992280646045 -25.22538234981186 4.999999999999989
    vertex 15.529992280646042 -25.22538234981187 12.000000000000005
  endloop
endfacet
facet normal 4.756762733936617e-16 -1.0 -1.0804173756079733e-15
  outer loop
    vertex 13.106146494377377 -25.22538234981186 5.955441806733017
    vertex 15.529992280646042 -25.22538234981187 12.000000000000005
    vertex 13.21833183774996 -25.22538234981186 6.24832533411013
  endloop
endfacet
facet normal 4.756762733936617e-16 -1.0 -1.0804173756079733e-15
  outer loop
    vertex 13.21833183774996 -25.22538234981186 6.24832533411013
    vertex 15.529992280646042 -25.22538234981187 12.000000000000005
    vertex 13.250890723362643 -25.225382349811863 6.560264800744518
  endloop
endfacet
facet normal 4.756762733936617e-16 -1.0 -1.0804173756079733e-15
  outer loop
    vertex 13.250890723362643 -25.225382349811863 6.560264800744518
    vertex 15.529992280646042 -25.22538234981187 12.000000000000005
    vertex 13.201604316967025 -25.225382349811863 6.870002047489386
  endloop
endfacet
facet normal 4.756762733936617e-16 -1.0 -1.0804173756079733e-15
  outer loop
    vertex 13.201604316967025 -25.225382349811863 6.870002047489386
    vertex 15.529992280646042 -25.22538234981187 12.000000000000005
    vertex 13.091013529041899 -25.225382349811863 7.117912040757643
  endloop
endfacet
facet normal 4.756762733936617e-16 -1.0 -1.0804173756079733e-15
  outer loop
    vertex 13.091013529041899 -25.225382349811863 7.117912040757643
    vertex 15.529992280646042 -25.22538234981187 12.000000000000005
    vertex 13.073831405709322 -25.225382349811863 7.156428992844077
  endloop
endfacet
facet normal 4.756762733936617e-16 -1.0 -1.0804173756079733e-15
  outer loop
    vertex 13.073831405709322 -25.225382349811863 7.156428992844077
    vertex 15.529992280646042 -25.22538234981187 12.000000000000005
    vertex 12.876279502337034 -25.225382349811863 7.400026113825573
  endloop
endfacet
facet normal 4.756762733936617e-16 -1.0 -1.0804173756079733e-15
  outer loop
    vertex 12.876279502337034 -25.225382349811863 7.400026113825573
    vertex 15.529992280646042 -25.22538234981187 12.000000000000005
    vertex 12.622411442595032 -25.225382349811863 7.584192669202262
  endloop
endfacet
facet normal 4.756762733936617e-16 -1.0 -1.0804173756079733e-15
  outer loop
    vertex 12.622411442595032 -25.225382349811863 7.584192669202262
    vertex 15.529992280646042 -25.22538234981187 12.000000000000005
    vertex 12.329527915217916 -25.225382349811863 7.696378012574844
  endloop
endfacet
facet normal 4.756762733936617e-16 -1.0 -1.0804173756079733e-15
  outer loop
    vertex 12.329527915217916 -25.225382349811863 7.696378012574844
    vertex 15.529992280646042 -25.22538234981187 12.000000000000005
    vertex 12.017588448583528 -25.225382349811863 7.728936898187529
  endloop
endfacet
facet normal 4.756762733936617e-16 -1.0 -1.0804173756079733e-15
  outer loop
    vertex 3.8816989147236622 -25.225382349811863 4.999999999999989
    vertex 11.177827135502474 -25.225382349811863 7.354325677161924
    vertex 15.529992280646042 -25.22538234981187 12.000000000000005
  endloop
endfacet
facet normal 4.756762733936617e-16 -1.0 -1.0804173756079733e-15
  outer loop
    vertex 11.177827135502474 -25.225382349811863 7.354325677161924
    vertex 3.8816989147236622 -25.225382349811863 4.999999999999989
    vertex 10.993660580125784 -25.225382349811863 7.100457617419917
  endloop
endfacet
facet normal 4.756762733936617e-16 -1.0 -1.0804173756079733e-15
  outer loop
    vertex 10.993660580125784 -25.225382349811863 7.100457617419917
    vertex 3.8816989147236622 -25.225382349811863 4.999999999999989
    vertex 10.881475236753202 -25.225382349811863 6.8075740900428015
  endloop
endfacet
facet normal 4.756762733936617e-16 -1.0 -1.0804173756079733e-15
  outer loop
    vertex 10.881475236753202 -25.225382349811863 6.8075740900428015
    vertex 3.8816989147236622 -25.225382349811863 4.999999999999989
    vertex 10.84891635114052 -25.225382349811863 6.495634623408415
  endloop
endfacet
facet normal 4.756762733936617e-16 -1.0 -1.0804173756079733e-15
  outer loop
    vertex 10.84891635114052 -25.225382349811863 6.495634623408415
    vertex 3.8816989147236622 -25.225382349811863 4.999999999999989
    vertex 10.898202757536136 -25.225382349811863 6.185897376663544
  endloop
endfacet
facet normal 4.756762733936617e-16 -1.0 -1.0804173756079733e-15
  outer loop
    vertex 10.898202757536136 -25.225382349811863 6.185897376663544
    vertex 3.8816989147236622 -25.225382349811863 4.999999999999989
    vertex 11.008793545461264 -25.225382349811863 5.937987383395284
  endloop
endfacet
facet normal 4.756762733936617e-16 -1.0 -1.0804173756079733e-15
  outer loop
    vertex 11.008793545461264 -25.225382349811863 5.937987383395284
    vertex 3.8816989147236622 -25.225382349811863 4.999999999999989
    vertex 11.025975668793839 -25.225382349811863 5.899470431308855
  endloop
endfacet
facet normal 4.756762733936617e-16 -1.0 -1.0804173756079733e-15
  outer loop
    vertex 11.025975668793839 -25.225382349811863 5.899470431308855
    vertex 3.8816989147236622 -25.225382349811863 4.999999999999989
    vertex 11.223527572166127 -25.225382349811863 5.655873310327359
  endloop
endfacet
facet normal 4.756762733936617e-16 -1.0 -1.0804173756079733e-15
  outer loop
    vertex 11.223527572166127 -25.225382349811863 5.655873310327359
    vertex 3.8816989147236622 -25.225382349811863 4.999999999999989
    vertex 11.477395631908129 -25.225382349811863 5.47170675495067
  endloop
endfacet
facet normal 4.756762733936617e-16 -1.0 -1.0804173756079733e-15
  outer loop
    vertex 11.477395631908129 -25.225382349811863 5.47170675495067
    vertex 3.8816989147236622 -25.225382349811863 4.999999999999989
    vertex 11.770279159285245 -25.225382349811863 5.359521411578086
  endloop
endfacet
facet normal 4.756762733936617e-16 -1.0 -1.0804173756079733e-15
  outer loop
    vertex 11.770279159285245 -25.225382349811863 5.359521411578086
    vertex 3.8816989147236622 -25.225382349811863 4.999999999999989
    vertex 12.082218625919635 -25.22538234981186 5.326962525965405
  endloop
endfacet
facet normal 4.756762733936617e-16 -1.0 -1.0804173756079733e-15
  outer loop
    vertex 15.529992280646042 -25.22538234981187 12.000000000000005
    vertex 11.177827135502474 -25.225382349811863 7.354325677161924
    vertex 11.421424256483972 -25.225382349811863 7.55187758053421
  endloop
endfacet
facet normal 4.756762733936617e-16 -1.0 -1.0804173756079733e-15
  outer loop
    vertex 15.529992280646042 -25.22538234981187 12.000000000000005
    vertex 11.421424256483972 -25.225382349811863 7.55187758053421
    vertex 11.707851201838661 -25.225382349811863 7.679650491791909
  endloop
endfacet
facet normal 4.756762733936617e-16 -1.0 -1.0804173756079733e-15
  outer loop
    vertex 15.529992280646042 -25.22538234981187 12.000000000000005
    vertex 11.707851201838661 -25.225382349811863 7.679650491791909
    vertex 12.017588448583528 -25.225382349811863 7.728936898187529
  endloop
endfacet
facet normal 4.756762733936617e-16 -1.0 -1.0804173756079733e-15
  outer loop
    vertex 15.529992280646045 -25.22538234981186 4.999999999999989
    vertex 0.5299922806460395 -25.225382349811863 -1.127986593019159e-14
    vertex 3.8816989147236622 -25.22538234981186 -1.127986593019159e-14
  endloop
endfacet
facet normal 4.756762733936617e-16 -1.0 -1.0804173756079733e-15
  outer loop
    vertex 0.5299922806460395 -25.225382349811863 -1.127986593019159e-14
    vertex 15.529992280646045 -25.22538234981186 4.999999999999989
    vertex 0.5299922806460395 -25.225382349811863 4.999999999999989
  endloop
endfacet
facet normal 4.756762733936617e-16 -1.0 -1.0804173756079733e-15
  outer loop
    vertex 0.5299922806460395 -25.225382349811863 4.999999999999989
    vertex 15.529992280646045 -25.22538234981186 4.999999999999989
    vertex 3.8816989147236622 -25.225382349811863 4.999999999999989
  endloop
endfacet
facet normal 1.0 4.639385261873643e-16 3.021392659872745e-16
  outer loop
    vertex 15.529992280646045 -25.22538234981186 4.999999999999989
    vertex 15.529992280646042 -20.666642899368433 12.000000000000005
    vertex 15.529992280646042 -25.22538234981187 12.000000000000005
  endloop
endfacet
facet normal 1.0 4.639385261873643e-16 3.021392659872745e-16
  outer loop
    vertex 15.529992280646042 -20.666642899368433 12.000000000000005
    vertex 15.529992280646045 -25.22538234981186 4.999999999999989
    vertex 15.529992280646042 -20.666642899368433 4.999999999999989
  endloop
endfacet
facet normal 6.03999632909009e-17 1.0 -2.12530408064945e-16
  outer loop
    vertex 3.8816989147236622 -20.666642899368433 4.999999999999989
    vertex 6.410496840224725 -20.666642899368437 1.0854800124193098
    vertex 3.8816989147236622 -20.666642899368433 -1.127986593019159e-14
  endloop
endfacet
facet normal 6.03999632909009e-17 1.0 -2.12530408064945e-16
  outer loop
    vertex 6.410496840224725 -20.666642899368437 1.0854800124193098
    vertex 3.8816989147236622 -20.666642899368433 4.999999999999989
    vertex 8.228773639292559 -20.666642899368437 1.8659706568201815
  endloop
endfacet
facet normal 6.03999632909009e-17 1.0 -2.12530408064945e-16
  outer loop
    vertex 8.228773639292559 -20.666642899368437 1.8659706568201815
    vertex 3.8816989147236622 -20.666642899368433 4.999999999999989
    vertex 15.529992280646042 -20.666642899368433 4.999999999999989
  endloop
endfacet
facet normal 6.03999632909009e-17 1.0 -2.12530408064945e-16
  outer loop
    vertex 15.529992280646042 -20.666642899368433 4.999999999999989
    vertex 3.8816989147236622 -20.666642899368433 4.999999999999989
    vertex 12.082218625919639 -20.666642899368433 5.326962525965405
  endloop
endfacet
facet normal 6.03999632909009e-17 1.0 -2.12530408064945e-16
  outer loop
    vertex 12.082218625919639 -20.666642899368433 5.326962525965405
    vertex 3.8816989147236622 -20.666642899368433 4.999999999999989
    vertex 11.770279159285248 -20.666642899368433 5.3595214115780845
  endloop
endfacet
facet normal 6.03999632909009e-17 1.0 -2.12530408064945e-16
  outer loop
    vertex 11.770279159285248 -20.666642899368433 5.3595214115780845
    vertex 3.8816989147236622 -20.666642899368433 4.999999999999989
    vertex 11.477395631908129 -20.666642899368433 5.471706754950669
  endloop
endfacet
facet normal 6.03999632909009e-17 1.0 -2.12530408064945e-16
  outer loop
    vertex 11.477395631908129 -20.666642899368433 5.471706754950669
    vertex 3.8816989147236622 -20.666642899368433 4.999999999999989
    vertex 11.223527572166127 -20.666642899368433 5.655873310327358
  endloop
endfacet
facet normal 6.03999632909009e-17 1.0 -2.12530408064945e-16
  outer loop
    vertex 11.223527572166127 -20.666642899368433 5.655873310327358
    vertex 3.8816989147236622 -20.666642899368433 4.999999999999989
    vertex 11.025975668793842 -20.666642899368433 5.899470431308851
  endloop
endfacet
facet normal 6.03999632909009e-17 1.0 -2.12530408064945e-16
  outer loop
    vertex 11.025975668793842 -20.666642899368433 5.899470431308851
    vertex 3.8816989147236622 -20.666642899368433 4.999999999999989
    vertex 11.008793545461264 -20.666642899368433 5.937987383395281
  endloop
endfacet
facet normal 6.03999632909009e-17 1.0 -2.12530408064945e-16
  outer loop
    vertex 11.008793545461264 -20.666642899368433 5.937987383395281
    vertex 3.8816989147236622 -20.666642899368433 4.999999999999989
    vertex 10.89820275753614 -20.666642899368433 6.185897376663541
  endloop
endfacet
facet normal 6.03999632909009e-17 1.0 -2.12530408064945e-16
  outer loop
    vertex 10.89820275753614 -20.666642899368433 6.185897376663541
    vertex 3.8816989147236622 -20.666642899368433 4.999999999999989
    vertex 10.84891635114052 -20.666642899368433 6.495634623408412
  endloop
endfacet
facet normal 6.03999632909009e-17 1.0 -2.12530408064945e-16
  outer loop
    vertex 10.84891635114052 -20.666642899368433 6.495634623408412
    vertex 3.8816989147236622 -20.666642899368433 4.999999999999989
    vertex 10.881475236753202 -20.666642899368433 6.8075740900428015
  endloop
endfacet
facet normal 6.03999632909009e-17 1.0 -2.12530408064945e-16
  outer loop
    vertex 10.881475236753202 -20.666642899368433 6.8075740900428015
    vertex 3.8816989147236622 -20.666642899368433 4.999999999999989
    vertex 10.993660580125784 -20.666642899368433 7.100457617419914
  endloop
endfacet
facet normal 6.03999632909009e-17 1.0 -2.12530408064945e-16
  outer loop
    vertex 10.993660580125784 -20.666642899368433 7.100457617419914
    vertex 3.8816989147236622 -20.666642899368433 4.999999999999989
    vertex 11.177827135502472 -20.666642899368433 7.354325677161923
  endloop
endfacet
facet normal 6.03999632909009e-17 1.0 -2.12530408064945e-16
  outer loop
    vertex 11.177827135502472 -20.666642899368433 7.354325677161923
    vertex 3.8816989147236622 -20.666642899368433 4.999999999999989
    vertex 15.529992280646042 -20.666642899368433 12.000000000000005
  endloop
endfacet
facet normal 6.03999632909009e-17 1.0 -2.12530408064945e-16
  outer loop
    vertex 11.177827135502472 -20.666642899368433 7.354325677161923
    vertex 15.529992280646042 -20.666642899368433 12.000000000000005
    vertex 11.421424256483972 -20.666642899368433 7.55187758053421
  endloop
endfacet
facet normal 6.03999632909009e-17 1.0 -2.12530408064945e-16
  outer loop
    vertex 11.421424256483972 -20.666642899368433 7.55187758053421
    vertex 15.529992280646042 -20.666642899368433 12.000000000000005
    vertex 11.707851201838661 -20.666642899368433 7.679650491791909
  endloop
endfacet
facet normal 6.03999632909009e-17 1.0 -2.12530408064945e-16
  outer loop
    vertex 11.707851201838661 -20.666642899368433 7.679650491791909
    vertex 15.529992280646042 -20.666642899368433 12.000000000000005
    vertex 12.017588448583531 -20.666642899368433 7.728936898187529
  endloop
endfacet
facet normal 6.03999632909009e-17 1.0 -2.12530408064945e-16
  outer loop
    vertex 15.529992280646042 -20.666642899368433 4.999999999999989
    vertex 13.106146494377379 -20.666642899368433 5.955441806733017
    vertex 15.529992280646042 -20.666642899368433 12.000000000000005
  endloop
endfacet
facet normal 6.03999632909009e-17 1.0 -2.12530408064945e-16
  outer loop
    vertex 13.106146494377379 -20.666642899368433 5.955441806733017
    vertex 15.529992280646042 -20.666642899368433 4.999999999999989
    vertex 12.921979939000687 -20.666642899368433 5.701573746991011
  endloop
endfacet
facet normal 6.03999632909009e-17 1.0 -2.12530408064945e-16
  outer loop
    vertex 12.921979939000687 -20.666642899368433 5.701573746991011
    vertex 15.529992280646042 -20.666642899368433 4.999999999999989
    vertex 12.678382818019195 -20.666642899368433 5.504021843618725
  endloop
endfacet
facet normal 6.03999632909009e-17 1.0 -2.12530408064945e-16
  outer loop
    vertex 12.678382818019195 -20.666642899368433 5.504021843618725
    vertex 15.529992280646042 -20.666642899368433 4.999999999999989
    vertex 12.391955872664505 -20.666642899368433 5.376248932361024
  endloop
endfacet
facet normal 6.03999632909009e-17 1.0 -2.12530408064945e-16
  outer loop
    vertex 12.391955872664505 -20.666642899368433 5.376248932361024
    vertex 15.529992280646042 -20.666642899368433 4.999999999999989
    vertex 12.082218625919639 -20.666642899368433 5.326962525965405
  endloop
endfacet
facet normal 6.03999632909009e-17 1.0 -2.12530408064945e-16
  outer loop
    vertex 15.529992280646042 -20.666642899368433 12.000000000000005
    vertex 13.106146494377379 -20.666642899368433 5.955441806733017
    vertex 13.21833183774996 -20.666642899368433 6.248325334110129
  endloop
endfacet
facet normal 6.03999632909009e-17 1.0 -2.12530408064945e-16
  outer loop
    vertex 15.529992280646042 -20.666642899368433 12.000000000000005
    vertex 13.21833183774996 -20.666642899368433 6.248325334110129
    vertex 13.250890723362641 -20.666642899368433 6.560264800744518
  endloop
endfacet
facet normal 6.03999632909009e-17 1.0 -2.12530408064945e-16
  outer loop
    vertex 15.529992280646042 -20.666642899368433 12.000000000000005
    vertex 13.250890723362641 -20.666642899368433 6.560264800744518
    vertex 13.201604316967025 -20.666642899368433 6.870002047489386
  endloop
endfacet
facet normal 6.03999632909009e-17 1.0 -2.12530408064945e-16
  outer loop
    vertex 15.529992280646042 -20.666642899368433 12.000000000000005
    vertex 13.201604316967025 -20.666642899368433 6.870002047489386
    vertex 13.091013529041899 -20.666642899368433 7.117912040757643
  endloop
endfacet
facet normal 6.03999632909009e-17 1.0 -2.12530408064945e-16
  outer loop
    vertex 15.529992280646042 -20.666642899368433 12.000000000000005
    vertex 13.091013529041899 -20.666642899368433 7.117912040757643
    vertex 13.073831405709328 -20.666642899368433 7.1564289928440745
  endloop
endfacet
facet normal 6.03999632909009e-17 1.0 -2.12530408064945e-16
  outer loop
    vertex 15.529992280646042 -20.666642899368433 12.000000000000005
    vertex 13.073831405709328 -20.666642899368433 7.1564289928440745
    vertex 12.87627950233704 -20.666642899368433 7.40002611382557
  endloop
endfacet
facet normal 6.03999632909009e-17 1.0 -2.12530408064945e-16
  outer loop
    vertex 15.529992280646042 -20.666642899368433 12.000000000000005
    vertex 12.87627950233704 -20.666642899368433 7.40002611382557
    vertex 12.622411442595038 -20.666642899368433 7.5841926692022605
  endloop
endfacet
facet normal 6.03999632909009e-17 1.0 -2.12530408064945e-16
  outer loop
    vertex 15.529992280646042 -20.666642899368433 12.000000000000005
    vertex 12.622411442595038 -20.666642899368433 7.5841926692022605
    vertex 12.329527915217916 -20.666642899368433 7.696378012574844
  endloop
endfacet
facet normal 6.03999632909009e-17 1.0 -2.12530408064945e-16
  outer loop
    vertex 15.529992280646042 -20.666642899368433 12.000000000000005
    vertex 12.329527915217916 -20.666642899368433 7.696378012574844
    vertex 12.017588448583531 -20.666642899368433 7.728936898187529
  endloop
endfacet
facet normal -0.9132520951699673 4.391025578192888e-16 -0.40739490751317115
  outer loop
    vertex 13.073831405709328 -20.666642899368433 7.1564289928440745
    vertex 13.091013529041899 -25.225382349811863 7.117912040757643
    vertex 13.073831405709322 -25.225382349811863 7.156428992844077
  endloop
endfacet
facet normal -0.9132520951699673 4.391025578192888e-16 -0.40739490751317115
  outer loop
    vertex 13.091013529041899 -25.225382349811863 7.117912040757643
    vertex 13.073831405709328 -20.666642899368433 7.1564289928440745
    vertex 13.091013529041899 -20.666642899368433 7.117912040757643
  endloop
endfacet
facet normal 0.9132520951699409 3.2531808243069924e-17 0.4073949075132301
  outer loop
    vertex 11.025975668793842 -20.666642899368433 5.899470431308851
    vertex 11.008793545461264 -25.225382349811863 5.937987383395284
    vertex 11.025975668793839 -25.225382349811863 5.899470431308855
  endloop
endfacet
facet normal 0.9132520951699409 3.2531808243069924e-17 0.4073949075132301
  outer loop
    vertex 11.008793545461264 -25.225382349811863 5.937987383395284
    vertex 11.025975668793842 -20.666642899368433 5.899470431308851
    vertex 11.008793545461264 -20.666642899368433 5.937987383395281
  endloop
endfacet
facet normal -0.8211151644217387 -0.5707625484881267 -6.14107616147952e-17
  outer loop
    vertex -2.638817478775288 -20.666642899368437 4.999999999999989
    vertex 0.5299922806460395 -25.225382349811863 -1.127986593019159e-14
    vertex 0.5299922806460395 -25.225382349811863 4.999999999999989
  endloop
endfacet
facet normal -0.8211151644217387 -0.5707625484881267 -6.14107616147952e-17
  outer loop
    vertex 0.5299922806460395 -25.225382349811863 -1.127986593019159e-14
    vertex -2.638817478775288 -20.666642899368437 4.999999999999989
    vertex -2.6388174787752887 -20.666642899368433 -1.127986593019159e-14
  endloop
endfacet
facet normal 0.40739490751318763 -9.48847931734552e-17 -0.9132520951699599
  outer loop
    vertex 11.707851201838661 -20.666642899368433 7.679650491791909
    vertex 11.421424256483972 -25.225382349811863 7.55187758053421
    vertex 11.421424256483972 -20.666642899368433 7.55187758053421
  endloop
endfacet
facet normal 0.40739490751318763 -9.48847931734552e-17 -0.9132520951699599
  outer loop
    vertex 11.421424256483972 -25.225382349811863 7.55187758053421
    vertex 11.707851201838661 -20.666642899368433 7.679650491791909
    vertex 11.707851201838661 -25.225382349811863 7.679650491791909
  endloop
endfacet
facet normal 0.933838451150944 -1.8268548218500332e-16 -0.3576950477040546
  outer loop
    vertex 10.881475236753202 -20.666642899368433 6.8075740900428015
    vertex 10.993660580125784 -25.225382349811863 7.100457617419917
    vertex 10.881475236753202 -25.225382349811863 6.8075740900428015
  endloop
endfacet
facet normal 0.933838451150944 -1.8268548218500332e-16 -0.3576950477040546
  outer loop
    vertex 10.993660580125784 -25.225382349811863 7.100457617419917
    vertex 10.881475236753202 -20.666642899368433 6.8075740900428015
    vertex 10.993660580125784 -20.666642899368433 7.100457617419914
  endloop
endfacet
facet normal 0.7766922236950685 -9.141579233438383e-17 0.6298802978754056
  outer loop
    vertex 11.223527572166127 -20.666642899368433 5.655873310327358
    vertex 11.025975668793839 -25.225382349811863 5.899470431308855
    vertex 11.223527572166127 -25.225382349811863 5.655873310327359
  endloop
endfacet
facet normal 0.7766922236950685 -9.141579233438383e-17 0.6298802978754056
  outer loop
    vertex 11.025975668793839 -25.225382349811863 5.899470431308855
    vertex 11.223527572166127 -20.666642899368433 5.655873310327358
    vertex 11.025975668793842 -20.666642899368433 5.899470431308851
  endloop
endfacet
facet normal -0.809440386863809 3.232565328640774e-17 0.5872020607199596
  outer loop
    vertex 13.106146494377379 -20.666642899368433 5.955441806733017
    vertex 12.921979939000687 -25.22538234981186 5.701573746991009
    vertex 13.106146494377377 -25.22538234981186 5.955441806733017
  endloop
endfacet
facet normal -0.809440386863809 3.232565328640774e-17 0.5872020607199596
  outer loop
    vertex 12.921979939000687 -25.22538234981186 5.701573746991009
    vertex 13.106146494377379 -20.666642899368433 5.955441806733017
    vertex 12.921979939000687 -20.666642899368433 5.701573746991011
  endloop
endfacet
facet normal 0.6298802978754008 -2.2658666859151434e-17 -0.7766922236950723
  outer loop
    vertex 11.421424256483972 -20.666642899368433 7.55187758053421
    vertex 11.177827135502474 -25.225382349811863 7.354325677161924
    vertex 11.177827135502472 -20.666642899368433 7.354325677161923
  endloop
endfacet
facet normal 0.6298802978754008 -2.2658666859151434e-17 -0.7766922236950723
  outer loop
    vertex 11.177827135502474 -25.225382349811863 7.354325677161924
    vertex 11.421424256483972 -20.666642899368433 7.55187758053421
    vertex 11.421424256483972 -25.225382349811863 7.55187758053421
  endloop
endfacet
facet normal -0.9338384511509434 1.9881052847952553e-16 0.35769504770405647
  outer loop
    vertex 13.21833183774996 -20.666642899368433 6.248325334110129
    vertex 13.106146494377377 -25.22538234981186 5.955441806733017
    vertex 13.21833183774996 -25.22538234981186 6.24832533411013
  endloop
endfacet
facet normal -0.9338384511509434 1.9881052847952553e-16 0.35769504770405647
  outer loop
    vertex 13.106146494377377 -25.22538234981186 5.955441806733017
    vertex 13.21833183774996 -20.666642899368433 6.248325334110129
    vertex 13.106146494377379 -20.666642899368433 5.955441806733017
  endloop
endfacet
facet normal -0.4073949075131953 -1.5244594760584004e-17 0.9132520951699564
  outer loop
    vertex 12.678382818019195 -25.22538234981186 5.504021843618725
    vertex 12.391955872664505 -20.666642899368433 5.376248932361024
    vertex 12.391955872664505 -25.22538234981186 5.376248932361023
  endloop
endfacet
facet normal -0.4073949075131953 -1.5244594760584004e-17 0.9132520951699564
  outer loop
    vertex 12.391955872664505 -20.666642899368433 5.376248932361024
    vertex 12.678382818019195 -25.22538234981186 5.504021843618725
    vertex 12.678382818019195 -20.666642899368433 5.504021843618725
  endloop
endfacet
facet normal -0.3576950477040543 2.0405707938602492e-17 -0.9338384511509442
  outer loop
    vertex 12.622411442595038 -20.666642899368433 7.5841926692022605
    vertex 12.329527915217916 -25.225382349811863 7.696378012574844
    vertex 12.329527915217916 -20.666642899368433 7.696378012574844
  endloop
endfacet
facet normal -0.3576950477040543 2.0405707938602492e-17 -0.9338384511509442
  outer loop
    vertex 12.329527915217916 -25.225382349811863 7.696378012574844
    vertex 12.622411442595038 -20.666642899368433 7.5841926692022605
    vertex 12.622411442595032 -25.225382349811863 7.584192669202262
  endloop
endfacet
facet normal 0.15714622745586765 -6.105294908944061e-17 -0.9875753455794596
  outer loop
    vertex 12.017588448583531 -20.666642899368433 7.728936898187529
    vertex 11.707851201838661 -25.225382349811863 7.679650491791909
    vertex 11.707851201838661 -20.666642899368433 7.679650491791909
  endloop
endfacet
facet normal 0.15714622745586765 -6.105294908944061e-17 -0.9875753455794596
  outer loop
    vertex 11.707851201838661 -25.225382349811863 7.679650491791909
    vertex 12.017588448583531 -20.666642899368433 7.728936898187529
    vertex 12.017588448583528 -25.225382349811863 7.728936898187529
  endloop
endfacet
facet normal -0.6298802978754048 -2.230802018100661e-17 0.7766922236950692
  outer loop
    vertex 12.921979939000687 -25.22538234981186 5.701573746991009
    vertex 12.678382818019195 -20.666642899368433 5.504021843618725
    vertex 12.678382818019195 -25.22538234981186 5.504021843618725
  endloop
endfacet
facet normal -0.6298802978754048 -2.230802018100661e-17 0.7766922236950692
  outer loop
    vertex 12.678382818019195 -20.666642899368433 5.504021843618725
    vertex 12.921979939000687 -25.22538234981186 5.701573746991009
    vertex 12.921979939000687 -20.666642899368433 5.701573746991011
  endloop
endfacet
facet normal 0.9875753455794596 2.0794995813528202e-17 0.15714622745586757
  outer loop
    vertex 10.89820275753614 -20.666642899368433 6.185897376663541
    vertex 10.84891635114052 -25.225382349811863 6.495634623408415
    vertex 10.898202757536136 -25.225382349811863 6.185897376663544
  endloop
endfacet
facet normal 0.9875753455794596 2.0794995813528202e-17 0.15714622745586757
  outer loop
    vertex 10.84891635114052 -25.225382349811863 6.495634623408415
    vertex 10.89820275753614 -20.666642899368433 6.185897376663541
    vertex 10.84891635114052 -20.666642899368433 6.495634623408412
  endloop
endfacet
facet normal -0.9945969682331428 -1.3742779326383912e-16 0.10381170830614778
  outer loop
    vertex 13.250890723362641 -20.666642899368433 6.560264800744518
    vertex 13.21833183774996 -25.22538234981186 6.24832533411013
    vertex 13.250890723362643 -25.225382349811863 6.560264800744518
  endloop
endfacet
facet normal -0.9945969682331428 -1.3742779326383912e-16 0.10381170830614778
  outer loop
    vertex 13.21833183774996 -25.22538234981186 6.24832533411013
    vertex 13.250890723362641 -20.666642899368433 6.560264800744518
    vertex 13.21833183774996 -20.666642899368433 6.248325334110129
  endloop
endfacet
facet normal -0.587202060719961 7.750927736292577e-17 -0.8094403868638081
  outer loop
    vertex 12.622411442595038 -20.666642899368433 7.5841926692022605
    vertex 12.876279502337034 -25.225382349811863 7.400026113825573
    vertex 12.622411442595032 -25.225382349811863 7.584192669202262
  endloop
endfacet
facet normal -0.587202060719961 7.750927736292577e-17 -0.8094403868638081
  outer loop
    vertex 12.876279502337034 -25.225382349811863 7.400026113825573
    vertex 12.622411442595038 -20.666642899368433 7.5841926692022605
    vertex 12.87627950233704 -20.666642899368433 7.40002611382557
  endloop
endfacet
facet normal -0.9132520951699595 -7.684557237036132e-19 -0.40739490751318824
  outer loop
    vertex 13.091013529041899 -20.666642899368433 7.117912040757643
    vertex 13.201604316967025 -25.225382349811863 6.870002047489386
    vertex 13.091013529041899 -25.225382349811863 7.117912040757643
  endloop
endfacet
facet normal -0.9132520951699595 -7.684557237036132e-19 -0.40739490751318824
  outer loop
    vertex 13.201604316967025 -25.225382349811863 6.870002047489386
    vertex 13.091013529041899 -20.666642899368433 7.117912040757643
    vertex 13.201604316967025 -20.666642899368433 6.870002047489386
  endloop
endfacet
facet normal 0.9945969682331428 -3.214565866692618e-17 -0.10381170830614754
  outer loop
    vertex 10.84891635114052 -20.666642899368433 6.495634623408412
    vertex 10.881475236753202 -25.225382349811863 6.8075740900428015
    vertex 10.84891635114052 -25.225382349811863 6.495634623408415
  endloop
endfacet
facet normal 0.9945969682331428 -3.214565866692618e-17 -0.10381170830614754
  outer loop
    vertex 10.881475236753202 -25.225382349811863 6.8075740900428015
    vertex 10.84891635114052 -20.666642899368433 6.495634623408412
    vertex 10.881475236753202 -20.666642899368433 6.8075740900428015
  endloop
endfacet
facet normal 0.8094403868638128 -1.4742073485412705e-16 -0.5872020607199545
  outer loop
    vertex 10.993660580125784 -20.666642899368433 7.100457617419914
    vertex 11.177827135502474 -25.225382349811863 7.354325677161924
    vertex 10.993660580125784 -25.225382349811863 7.100457617419917
  endloop
endfacet
facet normal 0.8094403868638128 -1.4742073485412705e-16 -0.5872020607199545
  outer loop
    vertex 11.177827135502474 -25.225382349811863 7.354325677161924
    vertex 10.993660580125784 -20.666642899368433 7.100457617419914
    vertex 11.177827135502472 -20.666642899368433 7.354325677161923
  endloop
endfacet
facet normal 0.9132520951699584 -3.024063634572681e-17 0.40739490751319085
  outer loop
    vertex 11.008793545461264 -20.666642899368433 5.937987383395281
    vertex 10.898202757536136 -25.225382349811863 6.185897376663544
    vertex 11.008793545461264 -25.225382349811863 5.937987383395284
  endloop
endfacet
facet normal 0.9132520951699584 -3.024063634572681e-17 0.40739490751319085
  outer loop
    vertex 10.898202757536136 -25.225382349811863 6.185897376663544
    vertex 11.008793545461264 -20.666642899368433 5.937987383395281
    vertex 10.89820275753614 -20.666642899368433 6.185897376663541
  endloop
endfacet
facet normal -0.10381170830615091 1.6072829333463605e-17 -0.9945969682331426
  outer loop
    vertex 12.017588448583531 -20.666642899368433 7.728936898187529
    vertex 12.329527915217916 -25.225382349811863 7.696378012574844
    vertex 12.017588448583528 -25.225382349811863 7.728936898187529
  endloop
endfacet
facet normal -0.10381170830615091 1.6072829333463605e-17 -0.9945969682331426
  outer loop
    vertex 12.329527915217916 -25.225382349811863 7.696378012574844
    vertex 12.017588448583531 -20.666642899368433 7.728936898187529
    vertex 12.329527915217916 -20.666642899368433 7.696378012574844
  endloop
endfacet
facet normal 0.10381170830613844 1.0556040277211828e-16 0.9945969682331439
  outer loop
    vertex 12.082218625919635 -25.22538234981186 5.326962525965405
    vertex 11.770279159285248 -20.666642899368433 5.3595214115780845
    vertex 11.770279159285245 -25.225382349811863 5.359521411578086
  endloop
endfacet
facet normal 0.10381170830613844 1.0556040277211828e-16 0.9945969682331439
  outer loop
    vertex 11.770279159285248 -20.666642899368433 5.3595214115780845
    vertex 12.082218625919635 -25.22538234981186 5.326962525965405
    vertex 12.082218625919639 -20.666642899368433 5.326962525965405
  endloop
endfacet
facet normal 0.5872020607199605 -2.3459917806892375e-17 0.8094403868638085
  outer loop
    vertex 11.477395631908129 -25.225382349811863 5.47170675495067
    vertex 11.223527572166127 -20.666642899368433 5.655873310327358
    vertex 11.223527572166127 -25.225382349811863 5.655873310327359
  endloop
endfacet
facet normal 0.5872020607199605 -2.3459917806892375e-17 0.8094403868638085
  outer loop
    vertex 11.223527572166127 -20.666642899368433 5.655873310327358
    vertex 11.477395631908129 -25.225382349811863 5.47170675495067
    vertex 11.477395631908129 -20.666642899368433 5.471706754950669
  endloop
endfacet
facet normal -0.7766922236950703 9.134404596444624e-17 -0.6298802978754033
  outer loop
    vertex 12.87627950233704 -20.666642899368433 7.40002611382557
    vertex 13.073831405709322 -25.225382349811863 7.156428992844077
    vertex 12.876279502337034 -25.225382349811863 7.400026113825573
  endloop
endfacet
facet normal -0.7766922236950703 9.134404596444624e-17 -0.6298802978754033
  outer loop
    vertex 13.073831405709322 -25.225382349811863 7.156428992844077
    vertex 12.87627950233704 -20.666642899368433 7.40002611382557
    vertex 13.073831405709328 -20.666642899368433 7.1564289928440745
  endloop
endfacet
facet normal -0.9875753455794591 -1.529030804177075e-16 -0.15714622745587
  outer loop
    vertex 13.201604316967025 -20.666642899368433 6.870002047489386
    vertex 13.250890723362643 -25.225382349811863 6.560264800744518
    vertex 13.201604316967025 -25.225382349811863 6.870002047489386
  endloop
endfacet
facet normal -0.9875753455794591 -1.529030804177075e-16 -0.15714622745587
  outer loop
    vertex 13.250890723362643 -25.225382349811863 6.560264800744518
    vertex 13.201604316967025 -20.666642899368433 6.870002047489386
    vertex 13.250890723362641 -20.666642899368433 6.560264800744518
  endloop
endfacet
facet normal 0.3944440344262101 2.0926567662190654e-16 -0.9189199658868964
  outer loop
    vertex 6.410496840224725 -20.666642899368437 1.0854800124193098
    vertex 3.8816989147236622 -25.22538234981186 -1.127986593019159e-14
    vertex 3.8816989147236622 -20.666642899368433 -1.127986593019159e-14
  endloop
endfacet
facet normal 0.3944440344262101 2.0926567662190654e-16 -0.9189199658868964
  outer loop
    vertex 3.8816989147236622 -25.22538234981186 -1.127986593019159e-14
    vertex 6.410496840224725 -20.666642899368437 1.0854800124193098
    vertex 15.529992280646045 -25.22538234981186 4.999999999999989
  endloop
endfacet
facet normal 0.3944440344262101 2.0926567662190654e-16 -0.9189199658868964
  outer loop
    vertex 15.529992280646045 -25.22538234981186 4.999999999999989
    vertex 6.410496840224725 -20.666642899368437 1.0854800124193098
    vertex 8.228773639292559 -20.666642899368437 1.8659706568201815
  endloop
endfacet
facet normal 0.3944440344262101 2.0926567662190654e-16 -0.9189199658868964
  outer loop
    vertex 15.529992280646045 -25.22538234981186 4.999999999999989
    vertex 8.228773639292559 -20.666642899368437 1.8659706568201815
    vertex 15.529992280646042 -20.666642899368433 4.999999999999989
  endloop
endfacet
facet normal -0.15714622745586565 -1.0477112390193338e-16 0.9875753455794598
  outer loop
    vertex 12.391955872664505 -25.22538234981186 5.376248932361023
    vertex 12.082218625919639 -20.666642899368433 5.326962525965405
    vertex 12.082218625919635 -25.22538234981186 5.326962525965405
  endloop
endfacet
facet normal -0.15714622745586565 -1.0477112390193338e-16 0.9875753455794598
  outer loop
    vertex 12.082218625919639 -20.666642899368433 5.326962525965405
    vertex 12.391955872664505 -25.22538234981186 5.376248932361023
    vertex 12.391955872664505 -20.666642899368433 5.376248932361024
  endloop
endfacet
facet normal 0.3576950477040574 9.653760793770502e-17 0.933838451150943
  outer loop
    vertex 11.770279159285245 -25.225382349811863 5.359521411578086
    vertex 11.477395631908129 -20.666642899368433 5.471706754950669
    vertex 11.477395631908129 -25.225382349811863 5.47170675495067
  endloop
endfacet
facet normal 0.3576950477040574 9.653760793770502e-17 0.933838451150943
  outer loop
    vertex 11.477395631908129 -20.666642899368433 5.471706754950669
    vertex 11.770279159285245 -25.225382349811863 5.359521411578086
    vertex 11.770279159285248 -20.666642899368433 5.3595214115780845
  endloop
endfacet
facet normal -0.5150920978922514 -4.74696491689653e-17 0.8571348381024769
  outer loop
    vertex 15.529992280646042 -25.22538234981187 12.000000000000005
    vertex 3.8816989147236622 -20.666642899368433 4.999999999999989
    vertex 3.8816989147236622 -25.225382349811863 4.999999999999989
  endloop
endfacet
facet normal -0.5150920978922514 -4.74696491689653e-17 0.8571348381024769
  outer loop
    vertex 3.8816989147236622 -20.666642899368433 4.999999999999989
    vertex 15.529992280646042 -25.22538234981187 12.000000000000005
    vertex 15.529992280646042 -20.666642899368433 12.000000000000005
  endloop
endfacet
facet normal -0.0 -0.0 1.0
  outer loop
    vertex 0.5299922806460395 -25.225382349811863 4.999999999999989
    vertex 3.8816989147236622 -20.666642899368433 4.999999999999989
    vertex -2.638817478775288 -20.666642899368437 4.999999999999989
  endloop
endfacet
facet normal -0.0 -0.0 1.0
  outer loop
    vertex 3.8816989147236622 -20.666642899368433 4.999999999999989
    vertex 0.5299922806460395 -25.225382349811863 4.999999999999989
    vertex 3.8816989147236622 -25.225382349811863 4.999999999999989
  endloop
endfacet
facet normal 0.0 0.0 -1.0
  outer loop
    vertex 3.8816989147236622 -20.666642899368433 -1.127986593019159e-14
    vertex 0.5299922806460395 -25.225382349811863 -1.127986593019159e-14
    vertex -2.6388174787752887 -20.666642899368433 -1.127986593019159e-14
  endloop
endfacet
facet normal 0.0 0.0 -1.0
  outer loop
    vertex 0.5299922806460395 -25.225382349811863 -1.127986593019159e-14
    vertex 3.8816989147236622 -20.666642899368433 -1.127986593019159e-14
    vertex 3.8816989147236622 -25.22538234981186 -1.127986593019159e-14
  endloop
endfacet
endsolid Подшипник-на-ремень-верx-бок-лев
