solid Подшипник-на-ремень-ластохвост
facet normal -1.9896430182421285e-17 0.8660254037844387 0.49999999999999983
  outer loop
    vertex 0.2892776831772195 16.8520444967884 4.999999999999999
    vertex 15.289277683177211 19.73879584273653 1.057487430955462e-15
    vertex 0.2892776831772199 19.73879584273653 0.0
  endloop
endfacet
facet normal -1.9896430182421285e-17 0.8660254037844387 0.49999999999999983
  outer loop
    vertex 15.289277683177211 19.73879584273653 1.057487430955462e-15
    vertex 0.2892776831772195 16.8520444967884 4.999999999999999
    vertex 15.289277683177211 16.8520444967884 4.999999999999999
  endloop
endfacet
facet normal 2.9351408126719554e-17 -2.4709907912301234e-17 -1.0
  outer loop
    vertex 0.28935759896035945 24.738795842736533 -3.524748615463866e-16
    vertex 0.2892776831772199 19.73879584273653 0.0
    vertex -4.710543351294521 24.738795842736533 7.049916206369744e-16
  endloop
endfacet
facet normal 2.9351408126719554e-17 -2.4709907912301234e-17 -1.0
  outer loop
    vertex 15.289277683177211 19.73879584273653 1.057487430955462e-15
    vertex 0.2892776831772204 3.8387958427365403 0.0
    vertex 0.2892776831772199 19.73879584273653 0.0
  endloop
endfacet
facet normal 2.9351408126719554e-17 -2.4709907912301234e-17 -1.0
  outer loop
    vertex 0.2892776831772204 3.8387958427365403 0.0
    vertex 15.289277683177211 19.73879584273653 1.057487430955462e-15
    vertex 15.289277683177218 3.8387958427365403 1.057487430955462e-15
  endloop
endfacet
facet normal 2.9351408126719554e-17 -2.4709907912301234e-17 -1.0
  outer loop
    vertex -4.710543351294521 24.738795842736533 7.049916206369744e-16
    vertex 0.28943751474351426 -1.112789601876395 1.4099832412739487e-15
    vertex -4.710543351294523 -1.1197058735152616 7.049916206369744e-16
  endloop
endfacet
facet normal 2.9351408126719554e-17 -2.4709907912301234e-17 -1.0
  outer loop
    vertex 0.28943751474351426 -1.112789601876395 1.4099832412739487e-15
    vertex -4.710543351294521 24.738795842736533 7.049916206369744e-16
    vertex 0.2892776831772204 3.8387958427365403 0.0
  endloop
endfacet
facet normal 2.9351408126719554e-17 -2.4709907912301234e-17 -1.0
  outer loop
    vertex 0.2892776831772204 3.8387958427365403 0.0
    vertex -4.710543351294521 24.738795842736533 7.049916206369744e-16
    vertex 0.2892776831772199 19.73879584273653 0.0
  endloop
endfacet
facet normal -2.3180604774079435e-17 -0.8660254037844387 0.49999999999999983
  outer loop
    vertex 15.289277683177218 3.8387958427365403 1.057487430955462e-15
    vertex 0.2892776831772201 6.725547188684667 4.999999999999999
    vertex 0.2892776831772204 3.8387958427365403 0.0
  endloop
endfacet
facet normal -2.3180604774079435e-17 -0.8660254037844387 0.49999999999999983
  outer loop
    vertex 0.2892776831772201 6.725547188684667 4.999999999999999
    vertex 15.289277683177218 3.8387958427365403 1.057487430955462e-15
    vertex 15.289277683177211 6.725547188684667 4.999999999999999
  endloop
endfacet
facet normal 5.031311471679313e-17 0.38268343236509006 -0.9238795325112867
  outer loop
    vertex 15.289277683177218 11.400567275082759 3.9488887394336203
    vertex 0.2892776831772222 11.038795842736539 3.7990381056766753
    vertex 0.2892776831772222 11.400567275082759 3.9488887394336203
  endloop
endfacet
facet normal 5.031311471679313e-17 0.38268343236509006 -0.9238795325112867
  outer loop
    vertex 0.2892776831772222 11.038795842736539 3.7990381056766753
    vertex 15.289277683177218 11.400567275082759 3.9488887394336203
    vertex 15.289277683177218 11.038795842736539 3.7990381056766753
  endloop
endfacet
facet normal 3.2356137631816034e-17 0.608761429008722 -0.7933533402912343
  outer loop
    vertex 15.289277683177218 11.038795842736539 3.7990381056766753
    vertex 0.2892776831772222 10.72813567095672 3.560660171779839
    vertex 0.2892776831772222 11.038795842736539 3.7990381056766753
  endloop
endfacet
facet normal 3.2356137631816034e-17 0.608761429008722 -0.7933533402912343
  outer loop
    vertex 0.2892776831772222 10.72813567095672 3.560660171779839
    vertex 15.289277683177218 11.038795842736539 3.7990381056766753
    vertex 15.289277683177218 10.72813567095672 3.560660171779839
  endloop
endfacet
facet normal 1.2194143238276709e-17 0.7933533402912339 -0.6087614290087225
  outer loop
    vertex 0.2892776831772222 10.72813567095672 3.560660171779839
    vertex 15.289277683177218 10.48975773705988 3.250000000000018
    vertex 0.2892776831772222 10.48975773705988 3.250000000000018
  endloop
endfacet
facet normal 1.2194143238276709e-17 0.7933533402912339 -0.6087614290087225
  outer loop
    vertex 15.289277683177218 10.48975773705988 3.250000000000018
    vertex 0.2892776831772222 10.72813567095672 3.560660171779839
    vertex 15.289277683177218 10.72813567095672 3.560660171779839
  endloop
endfacet
facet normal -8.798861865177376e-18 0.923879532511288 -0.38268343236508695
  outer loop
    vertex 0.2892776831772222 10.48975773705988 3.250000000000018
    vertex 15.289277683177218 10.339907103302938 2.888228567653798
    vertex 0.2892776831772222 10.339907103302938 2.888228567653798
  endloop
endfacet
facet normal -8.798861865177376e-18 0.923879532511288 -0.38268343236508695
  outer loop
    vertex 15.289277683177218 10.339907103302938 2.888228567653798
    vertex 0.2892776831772222 10.48975773705988 3.250000000000018
    vertex 15.289277683177218 10.48975773705988 3.250000000000018
  endloop
endfacet
facet normal -2.919223907332568e-17 0.9914448613738104 -0.13052619222005216
  outer loop
    vertex 0.2892776831772222 10.339907103302938 2.888228567653798
    vertex 15.289277683177218 10.28879584273654 2.5000000000000178
    vertex 0.2892776831772222 10.28879584273654 2.5000000000000178
  endloop
endfacet
facet normal -2.919223907332568e-17 0.9914448613738104 -0.13052619222005216
  outer loop
    vertex 15.289277683177218 10.28879584273654 2.5000000000000178
    vertex 0.2892776831772222 10.339907103302938 2.888228567653798
    vertex 15.289277683177218 10.339907103302938 2.888228567653798
  endloop
endfacet
facet normal -4.759621343108321e-17 0.9914448613738105 0.13052619222005168
  outer loop
    vertex 0.2892776831772222 10.28879584273654 2.5000000000000178
    vertex 15.289277683177218 10.339907103302938 2.1117714323462367
    vertex 0.2892776831772222 10.339907103302938 2.1117714323462367
  endloop
endfacet
facet normal -4.759621343108321e-17 0.9914448613738105 0.13052619222005168
  outer loop
    vertex 15.289277683177218 10.339907103302938 2.1117714323462367
    vertex 0.2892776831772222 10.28879584273654 2.5000000000000178
    vertex 15.289277683177218 10.28879584273654 2.5000000000000178
  endloop
endfacet
facet normal -6.275658449997392e-17 0.923879532511288 0.38268343236508695
  outer loop
    vertex 0.2892776831772222 10.339907103302938 2.1117714323462367
    vertex 15.289277683177218 10.48975773705988 1.7500000000000164
    vertex 0.2892776831772222 10.48975773705988 1.7500000000000164
  endloop
endfacet
facet normal -6.275658449997392e-17 0.923879532511288 0.38268343236508695
  outer loop
    vertex 15.289277683177218 10.48975773705988 1.7500000000000164
    vertex 0.2892776831772222 10.339907103302938 2.1117714323462367
    vertex 15.289277683177218 10.339907103302938 2.1117714323462367
  endloop
endfacet
facet normal -7.364019804535133e-17 0.7933533402912326 0.6087614290087243
  outer loop
    vertex 0.2892776831772222 10.48975773705988 1.7500000000000164
    vertex 15.289277683177218 10.72813567095672 1.4393398282201975
    vertex 0.2892776831772222 10.72813567095672 1.4393398282201968
  endloop
endfacet
facet normal -7.364019804535133e-17 0.7933533402912326 0.6087614290087243
  outer loop
    vertex 15.289277683177218 10.72813567095672 1.4393398282201975
    vertex 0.2892776831772222 10.48975773705988 1.7500000000000164
    vertex 15.289277683177218 10.48975773705988 1.7500000000000164
  endloop
endfacet
facet normal -7.950535379011887e-17 0.6087614290087208 0.7933533402912353
  outer loop
    vertex 15.289277683177218 10.72813567095672 1.4393398282201975
    vertex 0.2892776831772222 11.03879584273654 1.2009618943233593
    vertex 0.2892776831772222 10.72813567095672 1.4393398282201968
  endloop
endfacet
facet normal -7.950535379011887e-17 0.6087614290087208 0.7933533402912353
  outer loop
    vertex 0.2892776831772222 11.03879584273654 1.2009618943233593
    vertex 15.289277683177218 10.72813567095672 1.4393398282201975
    vertex 15.289277683177218 11.03879584273654 1.2009618943233598
  endloop
endfacet
facet normal -7.995235106289934e-17 0.3826834323650895 0.9238795325112868
  outer loop
    vertex 15.289277683177218 11.03879584273654 1.2009618943233598
    vertex 0.2892776831772222 11.400567275082759 1.0511112605664155
    vertex 0.2892776831772222 11.03879584273654 1.2009618943233593
  endloop
endfacet
facet normal -7.995235106289934e-17 0.3826834323650895 0.9238795325112868
  outer loop
    vertex 0.2892776831772222 11.400567275082759 1.0511112605664155
    vertex 15.289277683177218 11.03879584273654 1.2009618943233598
    vertex 15.289277683177218 11.400567275082759 1.0511112605664161
  endloop
endfacet
facet normal -7.495072773825061e-17 0.13052619222005216 0.9914448613738104
  outer loop
    vertex 15.289277683177218 11.400567275082759 1.0511112605664161
    vertex 0.2892776831772222 11.788795842736539 1.000000000000018
    vertex 0.2892776831772222 11.400567275082759 1.0511112605664155
  endloop
endfacet
facet normal -7.495072773825061e-17 0.13052619222005216 0.9914448613738104
  outer loop
    vertex 0.2892776831772222 11.788795842736539 1.000000000000018
    vertex 15.289277683177218 11.400567275082759 1.0511112605664161
    vertex 15.289277683177218 11.788795842736539 1.0000000000000184
  endloop
endfacet
facet normal -6.484133618017408e-17 -0.13052619222005074 0.9914448613738105
  outer loop
    vertex 15.289277683177218 11.788795842736539 1.0000000000000184
    vertex 0.2892776831772222 12.177024410390322 1.0511112605664155
    vertex 0.2892776831772222 11.788795842736539 1.000000000000018
  endloop
endfacet
facet normal -6.484133618017408e-17 -0.13052619222005074 0.9914448613738105
  outer loop
    vertex 0.2892776831772222 12.177024410390322 1.0511112605664155
    vertex 15.289277683177218 11.788795842736539 1.0000000000000184
    vertex 15.289277683177218 12.177024410390322 1.0511112605664161
  endloop
endfacet
facet normal -5.031311471679333e-17 -0.38268343236508695 0.923879532511288
  outer loop
    vertex 15.289277683177218 12.177024410390322 1.0511112605664161
    vertex 0.2892776831772222 12.538795842736542 1.2009618943233593
    vertex 0.2892776831772222 12.177024410390322 1.0511112605664155
  endloop
endfacet
facet normal -5.031311471679333e-17 -0.38268343236508695 0.923879532511288
  outer loop
    vertex 0.2892776831772222 12.538795842736542 1.2009618943233593
    vertex 15.289277683177218 12.177024410390322 1.0511112605664161
    vertex 15.289277683177218 12.538795842736542 1.2009618943233598
  endloop
endfacet
facet normal -3.2356137631815825e-17 -0.6087614290087243 0.7933533402912326
  outer loop
    vertex 15.289277683177218 12.538795842736542 1.2009618943233598
    vertex 0.2892776831772222 12.849456014516363 1.4393398282201968
    vertex 0.2892776831772222 12.538795842736542 1.2009618943233593
  endloop
endfacet
facet normal -3.2356137631815825e-17 -0.6087614290087243 0.7933533402912326
  outer loop
    vertex 0.2892776831772222 12.849456014516363 1.4393398282201968
    vertex 15.289277683177218 12.538795842736542 1.2009618943233598
    vertex 15.289277683177218 12.849456014516363 1.4393398282201975
  endloop
endfacet
facet normal -1.2194143238276536e-17 -0.7933533402912353 0.6087614290087208
  outer loop
    vertex 15.289277683177218 12.849456014516363 1.4393398282201975
    vertex 0.2892776831772222 13.0878339484132 1.7500000000000193
    vertex 0.2892776831772222 12.849456014516363 1.4393398282201968
  endloop
endfacet
facet normal -1.2194143238276536e-17 -0.7933533402912353 0.6087614290087208
  outer loop
    vertex 0.2892776831772222 13.0878339484132 1.7500000000000193
    vertex 15.289277683177218 12.849456014516363 1.4393398282201975
    vertex 15.289277683177218 13.0878339484132 1.7500000000000193
  endloop
endfacet
facet normal 8.798861865177694e-18 -0.9238795325112894 0.38268343236508334
  outer loop
    vertex 15.289277683177218 13.237684582170141 2.1117714323462367
    vertex 0.2892776831772222 13.0878339484132 1.7500000000000193
    vertex 15.289277683177218 13.0878339484132 1.7500000000000193
  endloop
endfacet
facet normal 8.798861865177694e-18 -0.9238795325112894 0.38268343236508334
  outer loop
    vertex 0.2892776831772222 13.0878339484132 1.7500000000000193
    vertex 15.289277683177218 13.237684582170141 2.1117714323462367
    vertex 0.2892776831772222 13.237684582170141 2.1117714323462367
  endloop
endfacet
facet normal 2.919223907332518e-17 -0.9914448613738096 0.13052619222005876
  outer loop
    vertex 15.289277683177218 13.28879584273654 2.5000000000000178
    vertex 0.2892776831772222 13.237684582170141 2.1117714323462367
    vertex 15.289277683177218 13.237684582170141 2.1117714323462367
  endloop
endfacet
facet normal 2.919223907332518e-17 -0.9914448613738096 0.13052619222005876
  outer loop
    vertex 0.2892776831772222 13.237684582170141 2.1117714323462367
    vertex 15.289277683177218 13.28879584273654 2.5000000000000178
    vertex 0.2892776831772222 13.28879584273654 2.5000000000000178
  endloop
endfacet
facet normal 4.7596213431083655e-17 -0.9914448613738097 -0.13052619222005832
  outer loop
    vertex 15.289277683177218 13.237684582170141 2.8882285676538006
    vertex 0.2892776831772222 13.28879584273654 2.5000000000000178
    vertex 15.289277683177218 13.28879584273654 2.5000000000000178
  endloop
endfacet
facet normal 4.7596213431083655e-17 -0.9914448613738097 -0.13052619222005832
  outer loop
    vertex 0.2892776831772222 13.28879584273654 2.5000000000000178
    vertex 15.289277683177218 13.237684582170141 2.8882285676538006
    vertex 0.2892776831772222 13.237684582170141 2.8882285676538006
  endloop
endfacet
facet normal 6.275658449997364e-17 -0.92387953251129 -0.3826834323650821
  outer loop
    vertex 15.289277683177218 13.0878339484132 3.2500000000000195
    vertex 0.2892776831772222 13.237684582170141 2.8882285676538006
    vertex 15.289277683177218 13.237684582170141 2.8882285676538006
  endloop
endfacet
facet normal 6.275658449997364e-17 -0.92387953251129 -0.3826834323650821
  outer loop
    vertex 0.2892776831772222 13.237684582170141 2.8882285676538006
    vertex 15.289277683177218 13.0878339484132 3.2500000000000195
    vertex 0.2892776831772222 13.0878339484132 3.2500000000000195
  endloop
endfacet
facet normal 7.364019804535133e-17 -0.7933533402912326 -0.6087614290087243
  outer loop
    vertex 15.289277683177218 12.849456014516363 3.560660171779839
    vertex 0.2892776831772222 13.0878339484132 3.2500000000000195
    vertex 15.289277683177218 13.0878339484132 3.2500000000000195
  endloop
endfacet
facet normal 7.364019804535133e-17 -0.7933533402912326 -0.6087614290087243
  outer loop
    vertex 0.2892776831772222 13.0878339484132 3.2500000000000195
    vertex 15.289277683177218 12.849456014516363 3.560660171779839
    vertex 0.2892776831772222 12.849456014516363 3.560660171779839
  endloop
endfacet
facet normal 7.950535379011892e-17 -0.6087614290087172 -0.7933533402912378
  outer loop
    vertex 15.289277683177218 12.849456014516363 3.560660171779839
    vertex 0.2892776831772222 12.538795842736537 3.7990381056766767
    vertex 0.2892776831772222 12.849456014516363 3.560660171779839
  endloop
endfacet
facet normal 7.950535379011892e-17 -0.6087614290087172 -0.7933533402912378
  outer loop
    vertex 0.2892776831772222 12.538795842736537 3.7990381056766767
    vertex 15.289277683177218 12.849456014516363 3.560660171779839
    vertex 15.289277683177218 12.538795842736537 3.7990381056766767
  endloop
endfacet
facet normal 7.995235106289938e-17 -0.38268343236509206 -0.9238795325112859
  outer loop
    vertex 15.289277683177218 12.538795842736537 3.7990381056766767
    vertex 0.2892776831772222 12.177024410390322 3.9488887394336203
    vertex 0.2892776831772222 12.538795842736537 3.7990381056766767
  endloop
endfacet
facet normal 7.995235106289938e-17 -0.38268343236509206 -0.9238795325112859
  outer loop
    vertex 0.2892776831772222 12.177024410390322 3.9488887394336203
    vertex 15.289277683177218 12.538795842736537 3.7990381056766767
    vertex 15.289277683177218 12.177024410390322 3.9488887394336203
  endloop
endfacet
facet normal 7.495072773825056e-17 -0.13052619222005074 -0.9914448613738105
  outer loop
    vertex 15.289277683177218 12.177024410390322 3.9488887394336203
    vertex 0.2892776831772222 11.788795842736539 4.000000000000018
    vertex 0.2892776831772222 12.177024410390322 3.9488887394336203
  endloop
endfacet
facet normal 7.495072773825056e-17 -0.13052619222005074 -0.9914448613738105
  outer loop
    vertex 0.2892776831772222 11.788795842736539 4.000000000000018
    vertex 15.289277683177218 12.177024410390322 3.9488887394336203
    vertex 15.289277683177218 11.788795842736539 4.000000000000018
  endloop
endfacet
facet normal 6.4841336180174e-17 0.13052619222005216 -0.9914448613738104
  outer loop
    vertex 15.289277683177218 11.788795842736539 4.000000000000018
    vertex 0.2892776831772222 11.400567275082759 3.9488887394336203
    vertex 0.2892776831772222 11.788795842736539 4.000000000000018
  endloop
endfacet
facet normal 6.4841336180174e-17 0.13052619222005216 -0.9914448613738104
  outer loop
    vertex 0.2892776831772222 11.400567275082759 3.9488887394336203
    vertex 15.289277683177218 11.788795842736539 4.000000000000018
    vertex 15.289277683177218 11.400567275082759 3.9488887394336203
  endloop
endfacet
facet normal 1.0 -0.0 -0.0
  outer loop
    vertex 20.28959734630981 24.738795842736533 4.999999999999999
    vertex 20.28959734630981 -1.050542503211596 9.999999999999998
    vertex 20.28959734630981 -1.050542503211596 4.999999999999999
  endloop
endfacet
facet normal 1.0 -0.0 -0.0
  outer loop
    vertex 20.28959734630981 -1.050542503211596 9.999999999999998
    vertex 20.28959734630981 24.738795842736533 4.999999999999999
    vertex 20.28959734630981 24.738795842736533 9.999999999999998
  endloop
endfacet
facet normal -0.0 1.0 -0.0
  outer loop
    vertex -4.710543351294521 24.738795842736533 7.049916206369744e-16
    vertex 0.28943751474351487 24.738795842736533 5.000000000000001
    vertex 0.28935759896035945 24.738795842736533 -3.524748615463866e-16
  endloop
endfacet
facet normal -0.0 1.0 -0.0
  outer loop
    vertex 0.28943751474351487 24.738795842736533 5.000000000000001
    vertex -4.710543351294521 24.738795842736533 7.049916206369744e-16
    vertex -4.710543351294521 24.738795842736533 5.000000000000001
  endloop
endfacet
facet normal -0.0 1.0 -0.0
  outer loop
    vertex 0.28943751474351487 24.738795842736533 5.000000000000001
    vertex -4.710543351294521 24.738795842736533 5.000000000000001
    vertex -12.271299313290443 24.738795842736533 5.000000000000002
  endloop
endfacet
facet normal -0.0 1.0 -0.0
  outer loop
    vertex 0.28943751474351487 24.738795842736533 5.000000000000001
    vertex 20.28959734630981 24.738795842736533 9.999999999999998
    vertex 20.28959734630981 24.738795842736533 4.999999999999999
  endloop
endfacet
facet normal -0.0 1.0 -0.0
  outer loop
    vertex 20.28959734630981 24.738795842736533 9.999999999999998
    vertex 0.28943751474351487 24.738795842736533 5.000000000000001
    vertex -12.271299313290443 24.738795842736533 5.000000000000002
  endloop
endfacet
facet normal -0.0 1.0 -0.0
  outer loop
    vertex 20.28959734630981 24.738795842736533 9.999999999999998
    vertex -12.271299313290443 24.738795842736533 5.000000000000002
    vertex -12.271299313290443 24.738795842736533 10.000000000000002
  endloop
endfacet
facet normal 1.0 2.523524221772639e-16 5.639932965095796e-16
  outer loop
    vertex 15.289277683177218 3.8387958427365403 1.057487430955462e-15
    vertex 15.289277683177218 10.72813567095672 1.4393398282201975
    vertex 15.289277683177211 6.725547188684667 4.999999999999999
  endloop
endfacet
facet normal 1.0 2.523524221772639e-16 5.639932965095796e-16
  outer loop
    vertex 15.289277683177218 10.72813567095672 1.4393398282201975
    vertex 15.289277683177218 3.8387958427365403 1.057487430955462e-15
    vertex 15.289277683177218 11.03879584273654 1.2009618943233598
  endloop
endfacet
facet normal 1.0 2.523524221772639e-16 5.639932965095796e-16
  outer loop
    vertex 15.289277683177218 11.03879584273654 1.2009618943233598
    vertex 15.289277683177218 3.8387958427365403 1.057487430955462e-15
    vertex 15.289277683177218 11.400567275082759 1.0511112605664161
  endloop
endfacet
facet normal 1.0 2.523524221772639e-16 5.639932965095796e-16
  outer loop
    vertex 15.289277683177218 11.400567275082759 1.0511112605664161
    vertex 15.289277683177218 3.8387958427365403 1.057487430955462e-15
    vertex 15.289277683177218 11.788795842736539 1.0000000000000184
  endloop
endfacet
facet normal 1.0 2.523524221772639e-16 5.639932965095796e-16
  outer loop
    vertex 15.289277683177218 11.788795842736539 1.0000000000000184
    vertex 15.289277683177218 3.8387958427365403 1.057487430955462e-15
    vertex 15.289277683177211 19.73879584273653 1.057487430955462e-15
  endloop
endfacet
facet normal 1.0 2.523524221772639e-16 5.639932965095796e-16
  outer loop
    vertex 15.289277683177211 6.725547188684667 4.999999999999999
    vertex 15.289277683177218 10.72813567095672 1.4393398282201975
    vertex 15.289277683177218 10.48975773705988 1.7500000000000164
  endloop
endfacet
facet normal 1.0 2.523524221772639e-16 5.639932965095796e-16
  outer loop
    vertex 15.289277683177211 6.725547188684667 4.999999999999999
    vertex 15.289277683177218 10.48975773705988 1.7500000000000164
    vertex 15.289277683177218 10.339907103302938 2.1117714323462367
  endloop
endfacet
facet normal 1.0 2.523524221772639e-16 5.639932965095796e-16
  outer loop
    vertex 15.289277683177211 6.725547188684667 4.999999999999999
    vertex 15.289277683177218 10.339907103302938 2.1117714323462367
    vertex 15.289277683177218 10.28879584273654 2.5000000000000178
  endloop
endfacet
facet normal 1.0 2.523524221772639e-16 5.639932965095796e-16
  outer loop
    vertex 15.289277683177218 11.788795842736539 1.0000000000000184
    vertex 15.289277683177211 19.73879584273653 1.057487430955462e-15
    vertex 15.289277683177218 12.177024410390322 1.0511112605664161
  endloop
endfacet
facet normal 1.0 2.523524221772639e-16 5.639932965095796e-16
  outer loop
    vertex 15.289277683177218 12.177024410390322 1.0511112605664161
    vertex 15.289277683177211 19.73879584273653 1.057487430955462e-15
    vertex 15.289277683177218 12.538795842736542 1.2009618943233598
  endloop
endfacet
facet normal 1.0 2.523524221772639e-16 5.639932965095796e-16
  outer loop
    vertex 15.289277683177218 12.538795842736542 1.2009618943233598
    vertex 15.289277683177211 19.73879584273653 1.057487430955462e-15
    vertex 15.289277683177218 12.849456014516363 1.4393398282201975
  endloop
endfacet
facet normal 1.0 2.523524221772639e-16 5.639932965095796e-16
  outer loop
    vertex 15.289277683177218 12.849456014516363 1.4393398282201975
    vertex 15.289277683177211 19.73879584273653 1.057487430955462e-15
    vertex 15.289277683177218 13.0878339484132 1.7500000000000193
  endloop
endfacet
facet normal 1.0 2.523524221772639e-16 5.639932965095796e-16
  outer loop
    vertex 15.289277683177218 13.0878339484132 1.7500000000000193
    vertex 15.289277683177211 19.73879584273653 1.057487430955462e-15
    vertex 15.289277683177218 13.237684582170141 2.1117714323462367
  endloop
endfacet
facet normal 1.0 2.523524221772639e-16 5.639932965095796e-16
  outer loop
    vertex 15.289277683177218 13.237684582170141 2.1117714323462367
    vertex 15.289277683177211 19.73879584273653 1.057487430955462e-15
    vertex 15.289277683177218 13.28879584273654 2.5000000000000178
  endloop
endfacet
facet normal 1.0 2.523524221772639e-16 5.639932965095796e-16
  outer loop
    vertex 15.289277683177218 13.28879584273654 2.5000000000000178
    vertex 15.289277683177211 19.73879584273653 1.057487430955462e-15
    vertex 15.289277683177211 16.8520444967884 4.999999999999999
  endloop
endfacet
facet normal 1.0 2.523524221772639e-16 5.639932965095796e-16
  outer loop
    vertex 15.289277683177211 6.725547188684667 4.999999999999999
    vertex 15.289277683177218 11.400567275082759 3.9488887394336203
    vertex 15.289277683177211 16.8520444967884 4.999999999999999
  endloop
endfacet
facet normal 1.0 2.523524221772639e-16 5.639932965095796e-16
  outer loop
    vertex 15.289277683177218 11.400567275082759 3.9488887394336203
    vertex 15.289277683177211 6.725547188684667 4.999999999999999
    vertex 15.289277683177218 11.038795842736539 3.7990381056766753
  endloop
endfacet
facet normal 1.0 2.523524221772639e-16 5.639932965095796e-16
  outer loop
    vertex 15.289277683177218 11.038795842736539 3.7990381056766753
    vertex 15.289277683177211 6.725547188684667 4.999999999999999
    vertex 15.289277683177218 10.72813567095672 3.560660171779839
  endloop
endfacet
facet normal 1.0 2.523524221772639e-16 5.639932965095796e-16
  outer loop
    vertex 15.289277683177218 10.72813567095672 3.560660171779839
    vertex 15.289277683177211 6.725547188684667 4.999999999999999
    vertex 15.289277683177218 10.48975773705988 3.250000000000018
  endloop
endfacet
facet normal 1.0 2.523524221772639e-16 5.639932965095796e-16
  outer loop
    vertex 15.289277683177218 10.48975773705988 3.250000000000018
    vertex 15.289277683177211 6.725547188684667 4.999999999999999
    vertex 15.289277683177218 10.339907103302938 2.888228567653798
  endloop
endfacet
facet normal 1.0 2.523524221772639e-16 5.639932965095796e-16
  outer loop
    vertex 15.289277683177218 10.339907103302938 2.888228567653798
    vertex 15.289277683177211 6.725547188684667 4.999999999999999
    vertex 15.289277683177218 10.28879584273654 2.5000000000000178
  endloop
endfacet
facet normal 1.0 2.523524221772639e-16 5.639932965095796e-16
  outer loop
    vertex 15.289277683177211 16.8520444967884 4.999999999999999
    vertex 15.289277683177218 11.400567275082759 3.9488887394336203
    vertex 15.289277683177218 11.788795842736539 4.000000000000018
  endloop
endfacet
facet normal 1.0 2.523524221772639e-16 5.639932965095796e-16
  outer loop
    vertex 15.289277683177211 16.8520444967884 4.999999999999999
    vertex 15.289277683177218 11.788795842736539 4.000000000000018
    vertex 15.289277683177218 12.177024410390322 3.9488887394336203
  endloop
endfacet
facet normal 1.0 2.523524221772639e-16 5.639932965095796e-16
  outer loop
    vertex 15.289277683177211 16.8520444967884 4.999999999999999
    vertex 15.289277683177218 12.177024410390322 3.9488887394336203
    vertex 15.289277683177218 12.538795842736537 3.7990381056766767
  endloop
endfacet
facet normal 1.0 2.523524221772639e-16 5.639932965095796e-16
  outer loop
    vertex 15.289277683177211 16.8520444967884 4.999999999999999
    vertex 15.289277683177218 12.538795842736537 3.7990381056766767
    vertex 15.289277683177218 12.849456014516363 3.560660171779839
  endloop
endfacet
facet normal 1.0 2.523524221772639e-16 5.639932965095796e-16
  outer loop
    vertex 15.289277683177211 16.8520444967884 4.999999999999999
    vertex 15.289277683177218 12.849456014516363 3.560660171779839
    vertex 15.289277683177218 13.0878339484132 3.2500000000000195
  endloop
endfacet
facet normal 1.0 2.523524221772639e-16 5.639932965095796e-16
  outer loop
    vertex 15.289277683177211 16.8520444967884 4.999999999999999
    vertex 15.289277683177218 13.0878339484132 3.2500000000000195
    vertex 15.289277683177218 13.237684582170141 2.8882285676538006
  endloop
endfacet
facet normal 1.0 2.523524221772639e-16 5.639932965095796e-16
  outer loop
    vertex 15.289277683177211 16.8520444967884 4.999999999999999
    vertex 15.289277683177218 13.237684582170141 2.8882285676538006
    vertex 15.289277683177218 13.28879584273654 2.5000000000000178
  endloop
endfacet
facet normal 0.0 0.0 -1.0
  outer loop
    vertex 15.289277683177211 16.8520444967884 4.999999999999999
    vertex 0.2892776831772201 6.725547188684667 4.999999999999999
    vertex 0.2892776831772195 16.8520444967884 4.999999999999999
  endloop
endfacet
facet normal 0.0 0.0 -1.0
  outer loop
    vertex 0.2892776831772201 6.725547188684667 4.999999999999999
    vertex 15.289277683177211 16.8520444967884 4.999999999999999
    vertex 15.289277683177211 6.725547188684667 4.999999999999999
  endloop
endfacet
facet normal -5.194607783184358e-17 5.624486401901817e-20 -1.0
  outer loop
    vertex 0.2893575989603606 20.79542016943877 5.000000000000001
    vertex 15.289277683177211 16.8520444967884 4.999999999999999
    vertex 0.2892776831772195 16.8520444967884 4.999999999999999
  endloop
endfacet
facet normal -5.194607783184358e-17 5.624486401901817e-20 -1.0
  outer loop
    vertex 15.289277683177211 16.8520444967884 4.999999999999999
    vertex 0.2893575989603606 20.79542016943877 5.000000000000001
    vertex 0.28943751474351487 24.738795842736533 5.000000000000001
  endloop
endfacet
facet normal -5.194607783184358e-17 5.624486401901817e-20 -1.0
  outer loop
    vertex 15.289277683177211 16.8520444967884 4.999999999999999
    vertex 0.28943751474351487 24.738795842736533 5.000000000000001
    vertex 20.28959734630981 24.738795842736533 4.999999999999999
  endloop
endfacet
facet normal -5.194607783184358e-17 5.624486401901817e-20 -1.0
  outer loop
    vertex 15.289277683177211 16.8520444967884 4.999999999999999
    vertex 20.28959734630981 24.738795842736533 4.999999999999999
    vertex 15.289277683177211 6.725547188684667 4.999999999999999
  endloop
endfacet
facet normal -5.194607783184358e-17 5.624486401901817e-20 -1.0
  outer loop
    vertex 15.289277683177211 6.725547188684667 4.999999999999999
    vertex 0.2893575989603597 2.8098369296059995 5.000000000000001
    vertex 0.2892776831772201 6.725547188684667 4.999999999999999
  endloop
endfacet
facet normal -5.194607783184358e-17 5.624486401901817e-20 -1.0
  outer loop
    vertex 0.2893575989603597 2.8098369296059995 5.000000000000001
    vertex 15.289277683177211 6.725547188684667 4.999999999999999
    vertex 0.28943751474351487 -1.1058733302375285 5.000000000000001
  endloop
endfacet
facet normal -5.194607783184358e-17 5.624486401901817e-20 -1.0
  outer loop
    vertex 0.28943751474351487 -1.1058733302375285 5.000000000000001
    vertex 15.289277683177211 6.725547188684667 4.999999999999999
    vertex 20.28959734630981 -1.050542503211596 4.999999999999999
  endloop
endfacet
facet normal -5.194607783184358e-17 5.624486401901817e-20 -1.0
  outer loop
    vertex 20.28959734630981 -1.050542503211596 4.999999999999999
    vertex 15.289277683177211 6.725547188684667 4.999999999999999
    vertex 20.28959734630981 24.738795842736533 4.999999999999999
  endloop
endfacet
facet normal 0.9999999996930911 2.3798991668488562e-05 -6.886637152346072e-06
  outer loop
    vertex 0.2892776831772204 3.8387958427365403 0.0
    vertex 0.28943751474351487 -1.1058733302375285 5.000000000000001
    vertex 0.28943751474351426 -1.112789601876395 1.4099832412739487e-15
  endloop
endfacet
facet normal 0.9999999996930911 2.3798991668488562e-05 -6.886637152346072e-06
  outer loop
    vertex 0.28943751474351487 -1.1058733302375285 5.000000000000001
    vertex 0.2892776831772204 3.8387958427365403 0.0
    vertex 0.2893575989603597 2.8098369296059995 5.000000000000001
  endloop
endfacet
facet normal 0.9999999996930911 2.3798991668488562e-05 -6.886637152346072e-06
  outer loop
    vertex 0.2893575989603597 2.8098369296059995 5.000000000000001
    vertex 0.2892776831772204 3.8387958427365403 0.0
    vertex 0.2892776831772201 6.725547188684667 4.999999999999999
  endloop
endfacet
facet normal -0.19163301460157672 -0.6995471136626115 -0.6884116671592815
  outer loop
    vertex -15.11184211341247 9.829432959352285 3.0000000000000018
    vertex -16.21264950899457 8.162822845698459 5.000000000000002
    vertex -15.364158654292384 9.898552220111583 3.0000000000000018
  endloop
endfacet
facet normal -0.6301595119543049 -0.3591495037063163 -0.6884116671592799
  outer loop
    vertex -18.336695313860858 10.286868650564745 5.000000000000002
    vertex -16.509375665773966 10.914241024382264 3.0000000000000018
    vertex -16.37983562670575 10.686951589327045 3.0000000000000018
  endloop
endfacet
facet normal -0.6716468271294294 -0.27382460832794203 -0.6884116671592804
  outer loop
    vertex -18.501715449602315 10.773002294296328 5.000000000000002
    vertex -16.608140247360712 11.15649433485193 3.0000000000000018
    vertex -16.509375665773966 10.914241024382264 3.0000000000000018
  endloop
endfacet
facet normal -0.5407433473440764 -0.4742191881406733 -0.6947753549906073
  outer loop
    vertex -17.82441591839722 9.39957470995106 5.000000000000002
    vertex -16.037783692322424 10.292497708788293 3.0000000000000018
    vertex -17.485921901162108 9.013596258397211 5.000000000000002
  endloop
endfacet
facet normal -0.36615939393567426 -0.6261123499433944 -0.6884116671592807
  outer loop
    vertex -17.099943449608258 8.675102241162095 5.000000000000002
    vertex -15.831124400439329 10.132082478564058 3.0000000000000018
    vertex -15.605294718271415 10.000014073328533 3.0000000000000018
  endloop
endfacet
facet normal -0.5157326156800662 -0.5100090642751146 -0.68841166715928
  outer loop
    vertex -17.82441591839722 9.39957470995106 5.000000000000002
    vertex -16.221736596139795 10.478515014936603 3.0000000000000018
    vertex -16.037783692322424 10.292497708788293 3.0000000000000018
  endloop
endfacet
facet normal -0.47421918814067304 -0.5407433473440769 -0.6947753549906072
  outer loop
    vertex -17.485921901162108 9.013596258397211 5.000000000000002
    vertex -15.831124400439329 10.132082478564058 3.0000000000000018
    vertex -17.099943449608258 8.675102241162095 5.000000000000002
  endloop
endfacet
facet normal -0.7176868914915581 -0.047039684085459346 -0.6947753549906076
  outer loop
    vertex -18.63544720728763 11.788795842736535 5.000000000000002
    vertex -16.674439482092318 11.409566499428596 3.0000000000000018
    vertex -18.60187064178005 11.276516447272899 5.000000000000002
  endloop
endfacet
facet normal -0.5778899928164157 -0.4383292515012255 -0.6884116671592794
  outer loop
    vertex -18.10963377483044 9.826433397504111 5.000000000000002
    vertex -16.37983562670575 10.686951589327045 3.0000000000000018
    vertex -16.221736596139795 10.478515014936603 3.0000000000000018
  endloop
endfacet
facet normal -0.7054070697977395 -0.14031419021981598 -0.6947753549906073
  outer loop
    vertex -18.60187064178005 11.276516447272899 5.000000000000002
    vertex -16.608140247360712 11.15649433485193 3.0000000000000018
    vertex -18.501715449602315 10.773002294296328 5.000000000000002
  endloop
endfacet
facet normal -0.4447509105013311 -0.5729624805580343 -0.6884116671592813
  outer loop
    vertex -17.485921901162108 9.013596258397211 5.000000000000002
    vertex -16.037783692322424 10.292497708788293 3.0000000000000018
    vertex -15.831124400439329 10.132082478564058 3.0000000000000018
  endloop
endfacet
facet normal -0.7016420788766909 -0.18381449798254385 -0.6884116671592813
  outer loop
    vertex -16.674439482092318 11.409566499428596 3.0000000000000018
    vertex -16.608140247360712 11.15649433485193 3.0000000000000018
    vertex -18.60187064178005 11.276516447272899 5.000000000000002
  endloop
endfacet
facet normal -0.645054922037505 -0.3181058843417779 -0.6947753549906069
  outer loop
    vertex -18.336695313860858 10.286868650564745 5.000000000000002
    vertex -16.37983562670575 10.686951589327045 3.0000000000000018
    vertex -18.10963377483044 9.826433397504111 5.000000000000002
  endloop
endfacet
facet normal -0.3181058843417775 -0.6450549220375051 -0.694775354990607
  outer loop
    vertex -16.673084762055208 8.389884384728878 5.000000000000002
    vertex -15.364158654292384 9.898552220111583 3.0000000000000018
    vertex -16.21264950899457 8.162822845698459 5.000000000000002
  endloop
endfacet
facet normal -0.5980152379520456 -0.3995810071497823 -0.694775354990607
  outer loop
    vertex -18.10963377483044 9.826433397504111 5.000000000000002
    vertex -16.221736596139795 10.478515014936603 3.0000000000000018
    vertex -17.82441591839722 9.39957470995106 5.000000000000002
  endloop
endfacet
facet normal -0.39958100714978084 -0.5980152379520466 -0.6947753549906072
  outer loop
    vertex -17.099943449608258 8.675102241162095 5.000000000000002
    vertex -15.605294718271415 10.000014073328533 3.0000000000000018
    vertex -16.673084762055208 8.389884384728878 5.000000000000002
  endloop
endfacet
facet normal -0.2813027886212101 -0.6685492634300881 -0.6884116671592786
  outer loop
    vertex -16.673084762055208 8.389884384728878 5.000000000000002
    vertex -15.605294718271415 10.000014073328533 3.0000000000000018
    vertex -15.364158654292384 9.898552220111583 3.0000000000000018
  endloop
endfacet
facet normal -0.6810575375638929 -0.23118788165706727 -0.6947753549906075
  outer loop
    vertex -18.501715449602315 10.773002294296328 5.000000000000002
    vertex -16.509375665773966 10.914241024382264 3.0000000000000018
    vertex -18.336695313860858 10.286868650564745 5.000000000000002
  endloop
endfacet
facet normal -0.1838144979825504 0.7016420788766905 -0.6884116671592798
  outer loop
    vertex -15.34302382470739 13.686213773274467 3.0000000000000018
    vertex -15.223001712286415 15.679944167693803 5.000000000000002
    vertex -15.089951660130719 13.752513008006074 3.0000000000000018
  endloop
endfacet
facet normal -0.231187881657068 0.6810575375638928 -0.6947753549906073
  outer loop
    vertex -16.21264950899457 15.414768839774613 5.000000000000002
    vertex -15.726515865262988 15.579788975516069 5.000000000000002
    vertex -15.585277135177051 13.587449191687721 3.0000000000000018
  endloop
endfacet
facet normal -0.35914950370631293 0.6301595119543056 -0.6884116671592809
  outer loop
    vertex -16.21264950899457 15.414768839774613 5.000000000000002
    vertex -15.585277135177051 13.587449191687721 3.0000000000000018
    vertex -15.812566570232272 13.457909152619504 3.0000000000000018
  endloop
endfacet
facet normal -0.1403141902198162 0.7054070697977396 -0.6947753549906073
  outer loop
    vertex -15.34302382470739 13.686213773274467 3.0000000000000018
    vertex -15.726515865262988 15.579788975516069 5.000000000000002
    vertex -15.223001712286415 15.679944167693803 5.000000000000002
  endloop
endfacet
facet normal -0.273824608327944 0.671646827129429 -0.6884116671592798
  outer loop
    vertex -15.726515865262988 15.579788975516069 5.000000000000002
    vertex -15.34302382470739 13.686213773274467 3.0000000000000018
    vertex -15.585277135177051 13.587449191687721 3.0000000000000018
  endloop
endfacet
facet normal -0.47421918814067315 0.5407433473440776 -0.6947753549906065
  outer loop
    vertex -17.485921901162108 14.563995427075861 5.000000000000002
    vertex -17.099943449608254 14.902489444310978 5.000000000000002
    vertex -16.207020450771022 13.115857218236181 3.0000000000000018
  endloop
endfacet
facet normal -0.510009064275108 0.5157326156800699 -0.688411667159282
  outer loop
    vertex -17.099943449608254 14.902489444310978 5.000000000000002
    vertex -16.021003144622714 13.29981012205355 3.0000000000000018
    vertex -16.207020450771022 13.115857218236181 3.0000000000000018
  endloop
endfacet
facet normal -0.645054922037506 0.3181058843417749 -0.6947753549906074
  outer loop
    vertex -18.336695313860854 13.290723034908329 5.000000000000002
    vertex -18.10963377483044 13.751158287968963 5.000000000000002
    vertex -16.600965939447732 12.442232180206139 3.0000000000000018
  endloop
endfacet
facet normal -0.5980152379520449 0.39958100714978345 -0.694775354990607
  outer loop
    vertex -18.10963377483044 13.751158287968963 5.000000000000002
    vertex -17.82441591839722 14.178016975522013 5.000000000000002
    vertex -16.499504086230782 12.683368244185168 3.0000000000000018
  endloop
endfacet
facet normal -0.5729624805580382 0.4447509105013289 -0.6884116671592795
  outer loop
    vertex -17.485921901162108 14.563995427075861 5.000000000000002
    vertex -16.207020450771022 13.115857218236181 3.0000000000000018
    vertex -16.36743568099526 12.909197926353087 3.0000000000000018
  endloop
endfacet
facet normal -0.6995471136626134 0.1916330146015735 -0.6884116671592805
  outer loop
    vertex -18.336695313860854 13.290723034908329 5.000000000000002
    vertex -16.600965939447732 12.442232180206139 3.0000000000000018
    vertex -16.67008520020703 12.189915639326225 3.0000000000000018
  endloop
endfacet
facet normal -0.681057537563893 0.2311878816570681 -0.694775354990607
  outer loop
    vertex -18.50171544960231 12.804589391176746 5.000000000000002
    vertex -18.336695313860854 13.290723034908329 5.000000000000002
    vertex -16.67008520020703 12.189915639326225 3.0000000000000018
  endloop
endfacet
facet normal -0.7196320401224351 -0.09065927061367741 -0.6884116671592792
  outer loop
    vertex -18.63544720728763 11.788795842736535 5.000000000000002
    vertex -16.707138971680905 11.669127383211501 3.0000000000000018
    vertex -16.674439482092318 11.409566499428596 3.0000000000000018
  endloop
endfacet
facet normal -0.7253088976419888 0.00404716201091226 -0.6884116671592808
  outer loop
    vertex -18.60187064178005 12.301075238200175 5.000000000000002
    vertex -16.705679218793602 11.930735827515244 3.0000000000000018
    vertex -16.707138971680905 11.669127383211501 3.0000000000000018
  endloop
endfacet
facet normal -0.6685492634300897 0.28130278862120606 -0.6884116671592787
  outer loop
    vertex -18.10963377483044 13.751158287968963 5.000000000000002
    vertex -16.499504086230782 12.683368244185168 3.0000000000000018
    vertex -16.600965939447732 12.442232180206139 3.0000000000000018
  endloop
endfacet
facet normal -0.7185755188292718 0.09868434657140121 -0.6884116671592795
  outer loop
    vertex -18.50171544960231 12.804589391176746 5.000000000000002
    vertex -16.67008520020703 12.189915639326225 3.0000000000000018
    vertex -16.705679218793602 11.930735827515244 3.0000000000000018
  endloop
endfacet
facet normal -0.43832925150122487 0.5778899928164157 -0.6884116671592799
  outer loop
    vertex -16.673084762055204 15.187707300744195 5.000000000000002
    vertex -15.812566570232272 13.457909152619504 3.0000000000000018
    vertex -16.021003144622714 13.29981012205355 3.0000000000000018
  endloop
endfacet
facet normal -0.31810588434177467 0.6450549220375063 -0.6947753549906073
  outer loop
    vertex -16.673084762055204 15.187707300744195 5.000000000000002
    vertex -16.21264950899457 15.414768839774613 5.000000000000002
    vertex -15.812566570232272 13.457909152619504 3.0000000000000018
  endloop
endfacet
facet normal -0.6261123499433962 0.3661593939356709 -0.6884116671592809
  outer loop
    vertex -17.82441591839722 14.178016975522013 5.000000000000002
    vertex -16.36743568099526 12.909197926353087 3.0000000000000018
    vertex -16.499504086230782 12.683368244185168 3.0000000000000018
  endloop
endfacet
facet normal -0.7176868914915587 0.047039684085459235 -0.6947753549906069
  outer loop
    vertex -18.60187064178005 12.301075238200175 5.000000000000002
    vertex -16.707138971680905 11.669127383211501 3.0000000000000018
    vertex -18.63544720728763 11.788795842736535 5.000000000000002
  endloop
endfacet
facet normal -0.5407433473440776 0.474219188140673 -0.6947753549906066
  outer loop
    vertex -17.82441591839722 14.178016975522013 5.000000000000002
    vertex -17.485921901162108 14.563995427075861 5.000000000000002
    vertex -16.36743568099526 12.909197926353087 3.0000000000000018
  endloop
endfacet
facet normal -0.705407069797739 0.14031419021981925 -0.6947753549906072
  outer loop
    vertex -18.50171544960231 12.804589391176746 5.000000000000002
    vertex -16.705679218793602 11.930735827515244 3.0000000000000018
    vertex -18.60187064178005 12.301075238200175 5.000000000000002
  endloop
endfacet
facet normal -0.3995810071497815 0.5980152379520456 -0.6947753549906074
  outer loop
    vertex -17.099943449608254 14.902489444310978 5.000000000000002
    vertex -16.673084762055204 15.187707300744195 5.000000000000002
    vertex -16.021003144622714 13.29981012205355 3.0000000000000018
  endloop
endfacet
facet normal 4.930380657631324e-32 1.1882671947029052e-31 -1.0
  outer loop
    vertex -12.715765414851958 11.646855857957826 3.0000000000000013
    vertex -12.747005151553243 12.168025186044474 3.0000000000000013
    vertex -12.714305661964657 11.90846430226157 3.0000000000000013
  endloop
endfacet
facet normal 4.930380657631324e-32 1.1882671947029052e-31 -1.0
  outer loop
    vertex -12.747005151553243 12.168025186044474 3.0000000000000013
    vertex -12.715765414851958 11.646855857957826 3.0000000000000013
    vertex -12.751359433438532 11.387676046146845 3.0000000000000013
  endloop
endfacet
facet normal 4.930380657631324e-32 1.1882671947029052e-31 -1.0
  outer loop
    vertex -12.747005151553243 12.168025186044474 3.0000000000000013
    vertex -12.751359433438532 11.387676046146845 3.0000000000000013
    vertex -12.81330438628485 12.421097350621142 3.0000000000000013
  endloop
endfacet
facet normal 4.930380657631324e-32 1.1882671947029052e-31 -1.0
  outer loop
    vertex -12.81330438628485 12.421097350621142 3.0000000000000013
    vertex -12.751359433438532 11.387676046146845 3.0000000000000013
    vertex -12.820478694197828 11.135359505266933 3.0000000000000013
  endloop
endfacet
facet normal 4.930380657631324e-32 1.1882671947029052e-31 -1.0
  outer loop
    vertex -12.81330438628485 12.421097350621142 3.0000000000000013
    vertex -12.820478694197828 11.135359505266933 3.0000000000000013
    vertex -12.912068967871594 12.663350661090806 3.0000000000000013
  endloop
endfacet
facet normal 4.930380657631324e-32 1.1882671947029052e-31 -1.0
  outer loop
    vertex -12.912068967871594 12.663350661090806 3.0000000000000013
    vertex -12.820478694197828 11.135359505266933 3.0000000000000013
    vertex -12.92194054741478 10.894223441287904 3.0000000000000013
  endloop
endfacet
facet normal 4.930380657631324e-32 1.1882671947029052e-31 -1.0
  outer loop
    vertex -12.912068967871594 12.663350661090806 3.0000000000000013
    vertex -12.92194054741478 10.894223441287904 3.0000000000000013
    vertex -13.041609006939813 12.890640096146027 3.0000000000000013
  endloop
endfacet
facet normal 4.930380657631324e-32 1.1882671947029052e-31 -1.0
  outer loop
    vertex -13.041609006939813 12.890640096146027 3.0000000000000013
    vertex -12.92194054741478 10.894223441287904 3.0000000000000013
    vertex -13.054008952650303 10.668393759119986 3.0000000000000013
  endloop
endfacet
facet normal 4.930380657631324e-32 1.1882671947029052e-31 -1.0
  outer loop
    vertex -13.041609006939813 12.890640096146027 3.0000000000000013
    vertex -13.054008952650303 10.668393759119986 3.0000000000000013
    vertex -13.199708037505767 13.099076670536467 3.0000000000000013
  endloop
endfacet
facet normal 4.930380657631324e-32 1.1882671947029052e-31 -1.0
  outer loop
    vertex -13.199708037505767 13.099076670536467 3.0000000000000013
    vertex -13.054008952650303 10.668393759119986 3.0000000000000013
    vertex -13.214424182874538 10.461734467236893 3.0000000000000013
  endloop
endfacet
facet normal 4.930380657631324e-32 1.1882671947029052e-31 -1.0
  outer loop
    vertex -13.199708037505767 13.099076670536467 3.0000000000000013
    vertex -13.214424182874538 10.461734467236893 3.0000000000000013
    vertex -13.383660941323136 13.285093976684777 3.0000000000000013
  endloop
endfacet
facet normal 4.930380657631324e-32 1.1882671947029052e-31 -1.0
  outer loop
    vertex -13.383660941323136 13.285093976684777 3.0000000000000013
    vertex -13.214424182874538 10.461734467236893 3.0000000000000013
    vertex -13.40044148902285 10.277781563419522 3.0000000000000013
  endloop
endfacet
facet normal 4.930380657631324e-32 1.1882671947029052e-31 -1.0
  outer loop
    vertex -13.383660941323136 13.285093976684777 3.0000000000000013
    vertex -13.40044148902285 10.277781563419522 3.0000000000000013
    vertex -13.59032023320623 13.445509206909014 3.0000000000000013
  endloop
endfacet
facet normal 4.930380657631324e-32 1.1882671947029052e-31 -1.0
  outer loop
    vertex -13.59032023320623 13.445509206909014 3.0000000000000013
    vertex -13.40044148902285 10.277781563419522 3.0000000000000013
    vertex -13.60887806341329 10.119682532853568 3.0000000000000013
  endloop
endfacet
facet normal 4.930380657631324e-32 1.1882671947029052e-31 -1.0
  outer loop
    vertex -13.59032023320623 13.445509206909014 3.0000000000000013
    vertex -13.60887806341329 10.119682532853568 3.0000000000000013
    vertex -13.816149915374147 13.577577612144538 3.0000000000000013
  endloop
endfacet
facet normal 4.930380657631324e-32 1.1882671947029052e-31 -1.0
  outer loop
    vertex -13.816149915374147 13.577577612144538 3.0000000000000013
    vertex -13.60887806341329 10.119682532853568 3.0000000000000013
    vertex -13.83616749846851 9.990142493785347 3.0000000000000013
  endloop
endfacet
facet normal 4.930380657631324e-32 1.1882671947029052e-31 -1.0
  outer loop
    vertex -13.816149915374147 13.577577612144538 3.0000000000000013
    vertex -13.83616749846851 9.990142493785347 3.0000000000000013
    vertex -14.057285979353178 13.679039465361488 3.0000000000000013
  endloop
endfacet
facet normal 4.930380657631324e-32 1.1882671947029052e-31 -1.0
  outer loop
    vertex -14.057285979353178 13.679039465361488 3.0000000000000013
    vertex -13.83616749846851 9.990142493785347 3.0000000000000013
    vertex -14.078420808938173 9.891377912198603 3.0000000000000013
  endloop
endfacet
facet normal 4.930380657631324e-32 1.1882671947029052e-31 -1.0
  outer loop
    vertex -14.057285979353178 13.679039465361488 3.0000000000000013
    vertex -14.078420808938173 9.891377912198603 3.0000000000000013
    vertex -14.309602520233092 13.748158726120785 3.0000000000000013
  endloop
endfacet
facet normal 4.930380657631324e-32 1.1882671947029052e-31 -1.0
  outer loop
    vertex -14.309602520233092 13.748158726120785 3.0000000000000013
    vertex -14.078420808938173 9.891377912198603 3.0000000000000013
    vertex -14.331492973514843 9.825078677467 3.0000000000000013
  endloop
endfacet
facet normal 4.930380657631324e-32 1.1882671947029052e-31 -1.0
  outer loop
    vertex -14.309602520233092 13.748158726120785 3.0000000000000013
    vertex -14.331492973514843 9.825078677467 3.0000000000000013
    vertex -14.568782332044073 13.783752744707359 3.0000000000000018
  endloop
endfacet
facet normal 4.930380657631324e-32 1.1882671947029052e-31 -1.0
  outer loop
    vertex -14.568782332044073 13.783752744707359 3.0000000000000018
    vertex -14.331492973514843 9.825078677467 3.0000000000000013
    vertex -14.591053857297746 9.792379187878412 3.0000000000000018
  endloop
endfacet
facet normal 4.930380657631324e-32 1.1882671947029052e-31 -1.0
  outer loop
    vertex -14.568782332044073 13.783752744707359 3.0000000000000018
    vertex -14.591053857297746 9.792379187878412 3.0000000000000018
    vertex -14.830390776347812 13.78521249759466 3.0000000000000018
  endloop
endfacet
facet normal 4.930380657631324e-32 1.1882671947029052e-31 -1.0
  outer loop
    vertex -14.830390776347812 13.78521249759466 3.0000000000000018
    vertex -14.591053857297746 9.792379187878412 3.0000000000000018
    vertex -14.85266230160149 9.793838940765715 3.0000000000000018
  endloop
endfacet
facet normal 4.930380657631324e-32 1.1882671947029052e-31 -1.0
  outer loop
    vertex -14.830390776347812 13.78521249759466 3.0000000000000018
    vertex -14.85266230160149 9.793838940765715 3.0000000000000018
    vertex -15.089951660130719 13.752513008006074 3.0000000000000018
  endloop
endfacet
facet normal 4.930380657631324e-32 1.1882671947029052e-31 -1.0
  outer loop
    vertex -15.089951660130719 13.752513008006074 3.0000000000000018
    vertex -14.85266230160149 9.793838940765715 3.0000000000000018
    vertex -15.11184211341247 9.829432959352285 3.0000000000000018
  endloop
endfacet
facet normal 4.930380657631324e-32 1.1882671947029052e-31 -1.0
  outer loop
    vertex -15.089951660130719 13.752513008006074 3.0000000000000018
    vertex -15.11184211341247 9.829432959352285 3.0000000000000018
    vertex -15.34302382470739 13.686213773274467 3.0000000000000018
  endloop
endfacet
facet normal 4.930380657631324e-32 1.1882671947029052e-31 -1.0
  outer loop
    vertex -15.34302382470739 13.686213773274467 3.0000000000000018
    vertex -15.11184211341247 9.829432959352285 3.0000000000000018
    vertex -15.364158654292384 9.898552220111583 3.0000000000000018
  endloop
endfacet
facet normal 4.930380657631324e-32 1.1882671947029052e-31 -1.0
  outer loop
    vertex -15.34302382470739 13.686213773274467 3.0000000000000018
    vertex -15.364158654292384 9.898552220111583 3.0000000000000018
    vertex -15.585277135177051 13.587449191687721 3.0000000000000018
  endloop
endfacet
facet normal 4.930380657631324e-32 1.1882671947029052e-31 -1.0
  outer loop
    vertex -15.585277135177051 13.587449191687721 3.0000000000000018
    vertex -15.364158654292384 9.898552220111583 3.0000000000000018
    vertex -15.605294718271415 10.000014073328533 3.0000000000000018
  endloop
endfacet
facet normal 4.930380657631324e-32 1.1882671947029052e-31 -1.0
  outer loop
    vertex -15.585277135177051 13.587449191687721 3.0000000000000018
    vertex -15.605294718271415 10.000014073328533 3.0000000000000018
    vertex -15.812566570232272 13.457909152619504 3.0000000000000018
  endloop
endfacet
facet normal 4.930380657631324e-32 1.1882671947029052e-31 -1.0
  outer loop
    vertex -15.812566570232272 13.457909152619504 3.0000000000000018
    vertex -15.605294718271415 10.000014073328533 3.0000000000000018
    vertex -15.831124400439329 10.132082478564058 3.0000000000000018
  endloop
endfacet
facet normal 4.930380657631324e-32 1.1882671947029052e-31 -1.0
  outer loop
    vertex -15.812566570232272 13.457909152619504 3.0000000000000018
    vertex -15.831124400439329 10.132082478564058 3.0000000000000018
    vertex -16.021003144622714 13.29981012205355 3.0000000000000018
  endloop
endfacet
facet normal 4.930380657631324e-32 1.1882671947029052e-31 -1.0
  outer loop
    vertex -16.021003144622714 13.29981012205355 3.0000000000000018
    vertex -15.831124400439329 10.132082478564058 3.0000000000000018
    vertex -16.037783692322424 10.292497708788293 3.0000000000000018
  endloop
endfacet
facet normal 4.930380657631324e-32 1.1882671947029052e-31 -1.0
  outer loop
    vertex -16.021003144622714 13.29981012205355 3.0000000000000018
    vertex -16.037783692322424 10.292497708788293 3.0000000000000018
    vertex -16.207020450771022 13.115857218236181 3.0000000000000018
  endloop
endfacet
facet normal 4.930380657631324e-32 1.1882671947029052e-31 -1.0
  outer loop
    vertex -16.207020450771022 13.115857218236181 3.0000000000000018
    vertex -16.037783692322424 10.292497708788293 3.0000000000000018
    vertex -16.221736596139795 10.478515014936603 3.0000000000000018
  endloop
endfacet
facet normal 4.930380657631324e-32 1.1882671947029052e-31 -1.0
  outer loop
    vertex -16.207020450771022 13.115857218236181 3.0000000000000018
    vertex -16.221736596139795 10.478515014936603 3.0000000000000018
    vertex -16.36743568099526 12.909197926353087 3.0000000000000018
  endloop
endfacet
facet normal 4.930380657631324e-32 1.1882671947029052e-31 -1.0
  outer loop
    vertex -16.36743568099526 12.909197926353087 3.0000000000000018
    vertex -16.221736596139795 10.478515014936603 3.0000000000000018
    vertex -16.37983562670575 10.686951589327045 3.0000000000000018
  endloop
endfacet
facet normal 4.930380657631324e-32 1.1882671947029052e-31 -1.0
  outer loop
    vertex -16.36743568099526 12.909197926353087 3.0000000000000018
    vertex -16.37983562670575 10.686951589327045 3.0000000000000018
    vertex -16.499504086230782 12.683368244185168 3.0000000000000018
  endloop
endfacet
facet normal 4.930380657631324e-32 1.1882671947029052e-31 -1.0
  outer loop
    vertex -16.499504086230782 12.683368244185168 3.0000000000000018
    vertex -16.37983562670575 10.686951589327045 3.0000000000000018
    vertex -16.509375665773966 10.914241024382264 3.0000000000000018
  endloop
endfacet
facet normal 4.930380657631324e-32 1.1882671947029052e-31 -1.0
  outer loop
    vertex -16.499504086230782 12.683368244185168 3.0000000000000018
    vertex -16.509375665773966 10.914241024382264 3.0000000000000018
    vertex -16.600965939447732 12.442232180206139 3.0000000000000018
  endloop
endfacet
facet normal 4.930380657631324e-32 1.1882671947029052e-31 -1.0
  outer loop
    vertex -16.600965939447732 12.442232180206139 3.0000000000000018
    vertex -16.509375665773966 10.914241024382264 3.0000000000000018
    vertex -16.608140247360712 11.15649433485193 3.0000000000000018
  endloop
endfacet
facet normal 4.930380657631324e-32 1.1882671947029052e-31 -1.0
  outer loop
    vertex -16.600965939447732 12.442232180206139 3.0000000000000018
    vertex -16.608140247360712 11.15649433485193 3.0000000000000018
    vertex -16.67008520020703 12.189915639326225 3.0000000000000018
  endloop
endfacet
facet normal 4.930380657631324e-32 1.1882671947029052e-31 -1.0
  outer loop
    vertex -16.67008520020703 12.189915639326225 3.0000000000000018
    vertex -16.608140247360712 11.15649433485193 3.0000000000000018
    vertex -16.674439482092318 11.409566499428596 3.0000000000000018
  endloop
endfacet
facet normal 4.930380657631324e-32 1.1882671947029052e-31 -1.0
  outer loop
    vertex -16.67008520020703 12.189915639326225 3.0000000000000018
    vertex -16.674439482092318 11.409566499428596 3.0000000000000018
    vertex -16.705679218793602 11.930735827515244 3.0000000000000018
  endloop
endfacet
facet normal 4.930380657631324e-32 1.1882671947029052e-31 -1.0
  outer loop
    vertex -16.705679218793602 11.930735827515244 3.0000000000000018
    vertex -16.674439482092318 11.409566499428596 3.0000000000000018
    vertex -16.707138971680905 11.669127383211501 3.0000000000000018
  endloop
endfacet
facet normal 0.6995471136626124 -0.19163301460157564 -0.6884116671592808
  outer loop
    vertex -12.751359433438532 11.387676046146845 3.0000000000000013
    vertex -11.084749319784704 10.286868650564745 5.000000000000002
    vertex -12.820478694197828 11.135359505266933 3.0000000000000013
  endloop
endfacet
facet normal 0.14031419021981617 -0.7054070697977395 -0.6947753549906073
  outer loop
    vertex -14.078420808938173 9.891377912198603 3.0000000000000013
    vertex -13.694928768382573 7.997802709957002 5.000000000000002
    vertex -14.198442921359145 7.897647517779268 5.000000000000002
  endloop
endfacet
facet normal 0.5407433473440769 -0.47421918814067304 -0.6947753549906072
  outer loop
    vertex -13.054008952650303 10.668393759119986 3.0000000000000013
    vertex -11.59702871524834 9.39957470995106 5.000000000000002
    vertex -11.935522732483456 9.013596258397211 5.000000000000002
  endloop
endfacet
facet normal -0.23118788165706855 -0.6810575375638925 -0.6947753549906074
  outer loop
    vertex -16.21264950899457 8.162822845698459 5.000000000000002
    vertex -15.11184211341247 9.829432959352285 3.0000000000000018
    vertex -15.72651586526299 7.997802709957002 5.000000000000002
  endloop
endfacet
facet normal 0.04703968408545954 -0.7176868914915583 -0.6947753549906073
  outer loop
    vertex -14.331492973514843 9.825078677467 3.0000000000000013
    vertex -14.198442921359145 7.897647517779268 5.000000000000002
    vertex -14.710722316822782 7.864070952271685 5.000000000000002
  endloop
endfacet
facet normal 0.18381449798254657 -0.7016420788766906 -0.6884116671592806
  outer loop
    vertex -14.078420808938173 9.891377912198603 3.0000000000000013
    vertex -14.198442921359145 7.897647517779268 5.000000000000002
    vertex -14.331492973514843 9.825078677467 3.0000000000000013
  endloop
endfacet
facet normal 0.4742191881406718 -0.5407433473440784 -0.6947753549906068
  outer loop
    vertex -13.214424182874538 10.461734467236893 3.0000000000000013
    vertex -11.935522732483456 9.013596258397211 5.000000000000002
    vertex -12.321501184037306 8.675102241162095 5.000000000000002
  endloop
endfacet
facet normal 0.6685492634300882 -0.28130278862120967 -0.6884116671592788
  outer loop
    vertex -12.92194054741478 10.894223441287904 3.0000000000000013
    vertex -12.820478694197828 11.135359505266933 3.0000000000000013
    vertex -11.311810858815123 9.82643339750411 5.000000000000002
  endloop
endfacet
facet normal 0.4383292515012268 -0.5778899928164138 -0.68841166715928
  outer loop
    vertex -13.60887806341329 10.119682532853568 3.0000000000000013
    vertex -13.40044148902285 10.277781563419522 3.0000000000000013
    vertex -12.748359871590356 8.389884384728877 5.000000000000002
  endloop
endfacet
facet normal 0.5729624805580387 -0.4447509105013276 -0.6884116671592801
  outer loop
    vertex -13.214424182874538 10.461734467236893 3.0000000000000013
    vertex -13.054008952650303 10.668393759119986 3.0000000000000013
    vertex -11.935522732483456 9.013596258397211 5.000000000000002
  endloop
endfacet
facet normal 0.23118788165706955 -0.6810575375638924 -0.694775354990607
  outer loop
    vertex -13.83616749846851 9.990142493785347 3.0000000000000013
    vertex -13.208795124650994 8.162822845698459 5.000000000000002
    vertex -13.694928768382573 7.997802709957002 5.000000000000002
  endloop
endfacet
facet normal -0.1403141902198164 -0.7054070697977393 -0.6947753549906074
  outer loop
    vertex -14.85266230160149 9.793838940765715 3.0000000000000018
    vertex -15.223001712286417 7.897647517779268 5.000000000000002
    vertex -15.72651586526299 7.997802709957002 5.000000000000002
  endloop
endfacet
facet normal -0.04703968408546009 -0.7176868914915584 -0.6947753549906072
  outer loop
    vertex -14.591053857297746 9.792379187878412 3.0000000000000018
    vertex -14.710722316822782 7.864070952271685 5.000000000000002
    vertex -15.223001712286417 7.897647517779268 5.000000000000002
  endloop
endfacet
facet normal 0.3181058843417746 -0.6450549220375063 -0.6947753549906073
  outer loop
    vertex -13.60887806341329 10.119682532853568 3.0000000000000013
    vertex -12.748359871590356 8.389884384728877 5.000000000000002
    vertex -13.208795124650994 8.162822845698459 5.000000000000002
  endloop
endfacet
facet normal -0.004047162010912268 -0.7253088976419888 -0.6884116671592808
  outer loop
    vertex -14.591053857297746 9.792379187878412 3.0000000000000018
    vertex -15.223001712286417 7.897647517779268 5.000000000000002
    vertex -14.85266230160149 9.793838940765715 3.0000000000000018
  endloop
endfacet
facet normal 0.5100090642751104 -0.515732615680068 -0.6884116671592816
  outer loop
    vertex -13.40044148902285 10.277781563419522 3.0000000000000013
    vertex -13.214424182874538 10.461734467236893 3.0000000000000013
    vertex -12.321501184037306 8.675102241162095 5.000000000000002
  endloop
endfacet
facet normal 0.5980152379520461 -0.3995810071497813 -0.694775354990607
  outer loop
    vertex -12.92194054741478 10.894223441287904 3.0000000000000013
    vertex -11.311810858815123 9.82643339750411 5.000000000000002
    vertex -11.59702871524834 9.39957470995106 5.000000000000002
  endloop
endfacet
facet normal 0.2738246083279415 -0.6716468271294296 -0.6884116671592803
  outer loop
    vertex -14.078420808938173 9.891377912198603 3.0000000000000013
    vertex -13.83616749846851 9.990142493785347 3.0000000000000013
    vertex -13.694928768382573 7.997802709957002 5.000000000000002
  endloop
endfacet
facet normal 0.6261123499433928 -0.3661593939356758 -0.6884116671592814
  outer loop
    vertex -13.054008952650303 10.668393759119986 3.0000000000000013
    vertex -12.92194054741478 10.894223441287904 3.0000000000000013
    vertex -11.59702871524834 9.39957470995106 5.000000000000002
  endloop
endfacet
facet normal 0.6450549220375053 -0.3181058843417765 -0.6947753549906073
  outer loop
    vertex -12.820478694197828 11.135359505266933 3.0000000000000013
    vertex -11.084749319784704 10.286868650564745 5.000000000000002
    vertex -11.311810858815123 9.82643339750411 5.000000000000002
  endloop
endfacet
facet normal 0.39958100714978245 -0.5980152379520449 -0.6947753549906076
  outer loop
    vertex -13.40044148902285 10.277781563419522 3.0000000000000013
    vertex -12.321501184037306 8.675102241162095 5.000000000000002
    vertex -12.748359871590356 8.389884384728877 5.000000000000002
  endloop
endfacet
facet normal 0.3591495037063172 -0.6301595119543042 -0.6884116671592799
  outer loop
    vertex -13.83616749846851 9.990142493785347 3.0000000000000013
    vertex -13.60887806341329 10.119682532853568 3.0000000000000013
    vertex -13.208795124650994 8.162822845698459 5.000000000000002
  endloop
endfacet
facet normal -0.09868434657139531 -0.7185755188292715 -0.6884116671592806
  outer loop
    vertex -14.85266230160149 9.793838940765715 3.0000000000000018
    vertex -15.72651586526299 7.997802709957002 5.000000000000002
    vertex -15.11184211341247 9.829432959352285 3.0000000000000018
  endloop
endfacet
facet normal 0.09065927061367032 -0.719632040122435 -0.68841166715928
  outer loop
    vertex -14.331492973514843 9.825078677467 3.0000000000000013
    vertex -14.710722316822782 7.864070952271685 5.000000000000002
    vertex -14.591053857297746 9.792379187878412 3.0000000000000018
  endloop
endfacet
facet normal 0.004047162010906739 0.7253088976419899 -0.6884116671592797
  outer loop
    vertex -14.830390776347812 13.78521249759466 3.0000000000000018
    vertex -14.198442921359142 15.679944167693803 5.000000000000002
    vertex -14.568782332044073 13.783752744707359 3.0000000000000018
  endloop
endfacet
facet normal 0.04703968408545923 0.7176868914915587 -0.6947753549906068
  outer loop
    vertex -14.830390776347812 13.78521249759466 3.0000000000000018
    vertex -14.710722316822782 15.713520733201385 5.000000000000002
    vertex -14.198442921359142 15.679944167693803 5.000000000000002
  endloop
endfacet
facet normal -0.09065927061366706 0.7196320401224352 -0.6884116671592804
  outer loop
    vertex -15.089951660130719 13.752513008006074 3.0000000000000018
    vertex -14.710722316822782 15.713520733201385 5.000000000000002
    vertex -14.830390776347812 13.78521249759466 3.0000000000000018
  endloop
endfacet
facet normal -0.04703968408545972 0.7176868914915586 -0.6947753549906072
  outer loop
    vertex -15.089951660130719 13.752513008006074 3.0000000000000018
    vertex -15.223001712286415 15.679944167693803 5.000000000000002
    vertex -14.710722316822782 15.713520733201385 5.000000000000002
  endloop
endfacet
facet normal 0.14031419021981925 0.705407069797739 -0.6947753549906072
  outer loop
    vertex -14.568782332044073 13.783752744707359 3.0000000000000018
    vertex -14.198442921359142 15.679944167693803 5.000000000000002
    vertex -13.69492876838257 15.579788975516067 5.000000000000002
  endloop
endfacet
facet normal 0.09868434657140109 0.7185755188292711 -0.6884116671592801
  outer loop
    vertex -14.568782332044073 13.783752744707359 3.0000000000000018
    vertex -13.69492876838257 15.579788975516067 5.000000000000002
    vertex -14.309602520233092 13.748158726120785 3.0000000000000013
  endloop
endfacet
facet normal 0.23118788165706738 0.6810575375638933 -0.6947753549906069
  outer loop
    vertex -14.309602520233092 13.748158726120785 3.0000000000000013
    vertex -13.69492876838257 15.579788975516067 5.000000000000002
    vertex -13.208795124650988 15.41476883977461 5.000000000000002
  endloop
endfacet
facet normal 0.1916330146015735 0.6995471136626134 -0.6884116671592805
  outer loop
    vertex -14.309602520233092 13.748158726120785 3.0000000000000013
    vertex -13.208795124650988 15.41476883977461 5.000000000000002
    vertex -14.057285979353178 13.679039465361488 3.0000000000000013
  endloop
endfacet
facet normal 0.3181058843417749 0.645054922037506 -0.6947753549906074
  outer loop
    vertex -14.057285979353178 13.679039465361488 3.0000000000000013
    vertex -13.208795124650988 15.41476883977461 5.000000000000002
    vertex -12.748359871590353 15.187707300744192 5.000000000000002
  endloop
endfacet
facet normal 0.2813027886212101 0.6685492634300851 -0.6884116671592815
  outer loop
    vertex -14.057285979353178 13.679039465361488 3.0000000000000013
    vertex -12.748359871590353 15.187707300744192 5.000000000000002
    vertex -13.816149915374147 13.577577612144538 3.0000000000000013
  endloop
endfacet
facet normal 0.3995810071497842 0.5980152379520449 -0.6947753549906066
  outer loop
    vertex -13.816149915374147 13.577577612144538 3.0000000000000013
    vertex -12.748359871590353 15.187707300744192 5.000000000000002
    vertex -12.321501184037304 14.902489444310977 5.000000000000002
  endloop
endfacet
facet normal 0.3661593939356682 0.6261123499433978 -0.6884116671592807
  outer loop
    vertex -13.816149915374147 13.577577612144538 3.0000000000000013
    vertex -12.321501184037304 14.902489444310977 5.000000000000002
    vertex -13.59032023320623 13.445509206909014 3.0000000000000013
  endloop
endfacet
facet normal 0.474219188140673 0.5407433473440769 -0.6947753549906069
  outer loop
    vertex -13.59032023320623 13.445509206909014 3.0000000000000013
    vertex -12.321501184037304 14.902489444310977 5.000000000000002
    vertex -11.935522732483454 14.563995427075858 5.000000000000002
  endloop
endfacet
facet normal 0.4447509105013285 0.5729624805580378 -0.6884116671592803
  outer loop
    vertex -13.59032023320623 13.445509206909014 3.0000000000000013
    vertex -11.935522732483454 14.563995427075858 5.000000000000002
    vertex -13.383660941323136 13.285093976684777 3.0000000000000013
  endloop
endfacet
facet normal 0.5407433473440784 0.47421918814067193 -0.6947753549906066
  outer loop
    vertex -13.383660941323136 13.285093976684777 3.0000000000000013
    vertex -11.935522732483454 14.563995427075858 5.000000000000002
    vertex -11.59702871524834 14.17801697552201 5.000000000000002
  endloop
endfacet
facet normal 0.5157326156800728 0.5100090642751064 -0.688411667159281
  outer loop
    vertex -13.383660941323136 13.285093976684777 3.0000000000000013
    vertex -11.59702871524834 14.17801697552201 5.000000000000002
    vertex -13.199708037505767 13.099076670536467 3.0000000000000013
  endloop
endfacet
facet normal 0.5980152379520428 0.3995810071497863 -0.694775354990607
  outer loop
    vertex -13.199708037505767 13.099076670536467 3.0000000000000013
    vertex -11.59702871524834 14.17801697552201 5.000000000000002
    vertex -11.311810858815122 13.751158287968961 5.000000000000002
  endloop
endfacet
facet normal 0.5778899928164136 0.43832925150122837 -0.6884116671592795
  outer loop
    vertex -13.199708037505767 13.099076670536467 3.0000000000000013
    vertex -11.311810858815122 13.751158287968961 5.000000000000002
    vertex -13.041609006939813 12.890640096146027 3.0000000000000013
  endloop
endfacet
facet normal 0.6450549220375066 0.31810588434177345 -0.6947753549906074
  outer loop
    vertex -13.041609006939813 12.890640096146027 3.0000000000000013
    vertex -11.311810858815122 13.751158287968961 5.000000000000002
    vertex -11.084749319784704 13.290723034908323 5.000000000000002
  endloop
endfacet
facet normal 0.6301595119543046 0.3591495037063154 -0.6884116671592806
  outer loop
    vertex -13.041609006939813 12.890640096146027 3.0000000000000013
    vertex -11.084749319784704 13.290723034908323 5.000000000000002
    vertex -12.912068967871594 12.663350661090806 3.0000000000000013
  endloop
endfacet
facet normal 0.6810575375638928 0.231187881657068 -0.6947753549906073
  outer loop
    vertex -12.912068967871594 12.663350661090806 3.0000000000000013
    vertex -11.084749319784704 13.290723034908323 5.000000000000002
    vertex -10.919729184043247 12.80458939117674 5.000000000000002
  endloop
endfacet
facet normal 0.6716468271294294 0.27382460832794236 -0.6884116671592801
  outer loop
    vertex -12.912068967871594 12.663350661090806 3.0000000000000013
    vertex -10.919729184043247 12.80458939117674 5.000000000000002
    vertex -12.81330438628485 12.421097350621142 3.0000000000000013
  endloop
endfacet
facet normal 0.7054070697977396 0.14031419021981623 -0.6947753549906072
  outer loop
    vertex -10.919729184043247 12.80458939117674 5.000000000000002
    vertex -10.819573991865514 12.30107523820017 5.000000000000002
    vertex -12.81330438628485 12.421097350621142 3.0000000000000013
  endloop
endfacet
facet normal 0.7016420788766902 0.18381449798255128 -0.6884116671592798
  outer loop
    vertex -12.81330438628485 12.421097350621142 3.0000000000000013
    vertex -10.819573991865514 12.30107523820017 5.000000000000002
    vertex -12.747005151553243 12.168025186044474 3.0000000000000013
  endloop
endfacet
facet normal 0.7176868914915586 0.04703968408546001 -0.694775354990607
  outer loop
    vertex -10.819573991865514 12.30107523820017 5.000000000000002
    vertex -10.785997426357932 11.788795842736535 5.000000000000002
    vertex -12.747005151553243 12.168025186044474 3.0000000000000013
  endloop
endfacet
facet normal 0.7196320401224353 0.09065927061366895 -0.68841166715928
  outer loop
    vertex -12.747005151553243 12.168025186044474 3.0000000000000013
    vertex -10.785997426357932 11.788795842736535 5.000000000000002
    vertex -12.714305661964657 11.90846430226157 3.0000000000000013
  endloop
endfacet
facet normal 0.7176868914915586 -0.0470396840854595 -0.694775354990607
  outer loop
    vertex -12.714305661964657 11.90846430226157 3.0000000000000013
    vertex -10.785997426357932 11.788795842736535 5.000000000000002
    vertex -10.819573991865514 11.276516447272899 5.000000000000002
  endloop
endfacet
facet normal 0.7253088976419894 -0.0040471620109122156 -0.6884116671592804
  outer loop
    vertex -12.714305661964657 11.90846430226157 3.0000000000000013
    vertex -10.819573991865514 11.276516447272899 5.000000000000002
    vertex -12.715765414851958 11.646855857957826 3.0000000000000013
  endloop
endfacet
facet normal 0.7054070697977394 -0.1403141902198173 -0.6947753549906073
  outer loop
    vertex -12.715765414851958 11.646855857957826 3.0000000000000013
    vertex -10.819573991865514 11.276516447272899 5.000000000000002
    vertex -10.919729184043247 10.773002294296328 5.000000000000002
  endloop
endfacet
facet normal 0.7185755188292706 -0.09868434657139802 -0.6884116671592811
  outer loop
    vertex -12.715765414851958 11.646855857957826 3.0000000000000013
    vertex -10.919729184043247 10.773002294296328 5.000000000000002
    vertex -12.751359433438532 11.387676046146845 3.0000000000000013
  endloop
endfacet
facet normal 0.6810575375638934 -0.2311878816570671 -0.694775354990607
  outer loop
    vertex -12.751359433438532 11.387676046146845 3.0000000000000013
    vertex -10.919729184043247 10.773002294296328 5.000000000000002
    vertex -11.084749319784704 10.286868650564745 5.000000000000002
  endloop
endfacet
facet normal 6.6672650976670075e-18 -1.525579390987893e-14 -1.0
  outer loop
    vertex -4.710543351294521 -1.1197058735152616 5.000000000000001
    vertex -12.301974408970391 -1.1407077136139896 5.000000000000002
    vertex -12.343940795236552 -1.1126666708002728 5.000000000000002
  endloop
endfacet
facet normal 0.0027511488420966144 -0.9999961524486527 0.0003553420037320678
  outer loop
    vertex 20.28959734630981 -1.050542503211596 9.999999999999998
    vertex 0.28943751474351487 -1.1058733302375285 5.000000000000001
    vertex 20.28959734630981 -1.050542503211596 4.999999999999999
  endloop
endfacet
facet normal 0.0027511488420966144 -0.9999961524486527 0.0003553420037320678
  outer loop
    vertex 0.28943751474351487 -1.1058733302375285 5.000000000000001
    vertex 20.28959734630981 -1.050542503211596 9.999999999999998
    vertex -4.710543351294521 -1.1197058735152616 5.000000000000001
  endloop
endfacet
facet normal 0.0027511488420966144 -0.9999961524486527 0.0003553420037320678
  outer loop
    vertex -4.710543351294521 -1.1197058735152616 5.000000000000001
    vertex 20.28959734630981 -1.050542503211596 9.999999999999998
    vertex -12.301974408970391 -1.1407077136139896 5.000000000000002
  endloop
endfacet
facet normal 0.0027511488420966144 -0.9999961524486527 0.0003553420037320678
  outer loop
    vertex -12.301974408970391 -1.1407077136139896 5.000000000000002
    vertex 20.28959734630981 -1.050542503211596 9.999999999999998
    vertex -12.301974408970391 -1.1407077136139896 10.000000000000002
  endloop
endfacet
facet normal 0.0027511488420966144 -0.9999961524486527 0.0003553420037320678
  outer loop
    vertex 0.28943751474351426 -1.112789601876395 1.4099832412739487e-15
    vertex -4.710543351294521 -1.1197058735152616 5.000000000000001
    vertex -4.710543351294523 -1.1197058735152616 7.049916206369744e-16
  endloop
endfacet
facet normal 0.0027511488420966144 -0.9999961524486527 0.0003553420037320678
  outer loop
    vertex -4.710543351294521 -1.1197058735152616 5.000000000000001
    vertex 0.28943751474351426 -1.112789601876395 1.4099832412739487e-15
    vertex 0.28943751474351487 -1.1058733302375285 5.000000000000001
  endloop
endfacet
facet normal 0.9999999997278224 -1.903801163530919e-05 -1.3487378884544244e-05
  outer loop
    vertex 0.2892776831772199 19.73879584273653 0.0
    vertex 0.2893575989603606 20.79542016943877 5.000000000000001
    vertex 0.2892776831772195 16.8520444967884 4.999999999999999
  endloop
endfacet
facet normal 0.9999999997278224 -1.903801163530919e-05 -1.3487378884544244e-05
  outer loop
    vertex 0.2893575989603606 20.79542016943877 5.000000000000001
    vertex 0.2892776831772199 19.73879584273653 0.0
    vertex 0.28935759896035945 24.738795842736533 -3.524748615463866e-16
  endloop
endfacet
facet normal 0.9999999997278224 -1.903801163530919e-05 -1.3487378884544244e-05
  outer loop
    vertex 0.2893575989603606 20.79542016943877 5.000000000000001
    vertex 0.28935759896035945 24.738795842736533 -3.524748615463866e-16
    vertex 0.28943751474351487 24.738795842736533 5.000000000000001
  endloop
endfacet
facet normal -1.0 4.089515481443544e-17 2.114974861910923e-16
  outer loop
    vertex -4.710543351294521 24.738795842736533 5.000000000000001
    vertex -4.710543351294523 -1.1197058735152616 7.049916206369744e-16
    vertex -4.710543351294521 -1.1197058735152616 5.000000000000001
  endloop
endfacet
facet normal -1.0 4.089515481443544e-17 2.114974861910923e-16
  outer loop
    vertex -4.710543351294523 -1.1197058735152616 7.049916206369744e-16
    vertex -4.710543351294521 24.738795842736533 5.000000000000001
    vertex -4.710543351294521 24.738795842736533 7.049916206369744e-16
  endloop
endfacet
facet normal 7.919530984753709e-17 -9.587826088625834e-18 1.0
  outer loop
    vertex -19.58239370635503 9.830879599746805 10.000000000000002
    vertex -19.582393706355035 13.746712085726251 10.000000000000002
    vertex -19.710722316822782 11.788795842736535 10.000000000000002
  endloop
endfacet
facet normal 7.919530984753709e-17 -9.587826088625834e-18 1.0
  outer loop
    vertex -19.582393706355035 13.746712085726251 10.000000000000002
    vertex -19.58239370635503 9.830879599746805 10.000000000000002
    vertex -19.199603613056308 15.671127838961477 10.000000000000002
  endloop
endfacet
facet normal 7.919530984753709e-17 -9.587826088625834e-18 1.0
  outer loop
    vertex -19.199603613056308 15.671127838961477 10.000000000000002
    vertex -19.58239370635503 9.830879599746805 10.000000000000002
    vertex -19.199603613056304 7.906463846511581 10.000000000000002
  endloop
endfacet
facet normal 7.919530984753709e-17 -9.587826088625834e-18 1.0
  outer loop
    vertex -19.199603613056308 15.671127838961477 10.000000000000002
    vertex -19.199603613056304 7.906463846511581 10.000000000000002
    vertex -18.568901681552408 17.52911581535551 10.000000000000002
  endloop
endfacet
facet normal 7.919530984753709e-17 -9.587826088625834e-18 1.0
  outer loop
    vertex -18.568901681552408 17.52911581535551 10.000000000000002
    vertex -19.199603613056304 7.906463846511581 10.000000000000002
    vertex -18.5689016815524 6.04847587011755 10.000000000000002
  endloop
endfacet
facet normal 7.919530984753709e-17 -9.587826088625834e-18 1.0
  outer loop
    vertex -18.568901681552408 17.52911581535551 10.000000000000002
    vertex -18.5689016815524 6.04847587011755 10.000000000000002
    vertex -17.701079396754974 19.288885325500665 10.000000000000002
  endloop
endfacet
facet normal 7.919530984753709e-17 -9.587826088625834e-18 1.0
  outer loop
    vertex -17.701079396754974 19.288885325500665 10.000000000000002
    vertex -18.5689016815524 6.04847587011755 10.000000000000002
    vertex -17.70107939675497 4.288706359972399 10.000000000000002
  endloop
endfacet
facet normal 7.919530984753709e-17 -9.587826088625834e-18 1.0
  outer loop
    vertex -17.701079396754974 19.288885325500665 10.000000000000002
    vertex -17.70107939675497 4.288706359972399 10.000000000000002
    vertex -16.610985438562693 20.92032622517807 10.000000000000002
  endloop
endfacet
facet normal 7.919530984753709e-17 -9.587826088625834e-18 1.0
  outer loop
    vertex -16.610985438562693 20.92032622517807 10.000000000000002
    vertex -17.70107939675497 4.288706359972399 10.000000000000002
    vertex -16.610985438562686 2.657265460294996 10.000000000000002
  endloop
endfacet
facet normal 7.919530984753709e-17 -9.587826088625834e-18 1.0
  outer loop
    vertex -16.610985438562693 20.92032622517807 10.000000000000002
    vertex -16.610985438562686 2.657265460294996 10.000000000000002
    vertex -15.317271616831365 22.395524108273378 10.000000000000002
  endloop
endfacet
facet normal 7.919530984753709e-17 -9.587826088625834e-18 1.0
  outer loop
    vertex -15.317271616831365 22.395524108273378 10.000000000000002
    vertex -16.610985438562686 2.657265460294996 10.000000000000002
    vertex -15.317271616831365 1.1820675771996894 10.000000000000002
  endloop
endfacet
facet normal 7.919530984753709e-17 -9.587826088625834e-18 1.0
  outer loop
    vertex -15.317271616831365 22.395524108273378 10.000000000000002
    vertex -15.317271616831365 1.1820675771996894 10.000000000000002
    vertex -13.842073733736049 -0.11164624453164178 10.000000000000002
  endloop
endfacet
facet normal 7.919530984753709e-17 -9.587826088625834e-18 1.0
  outer loop
    vertex -15.317271616831365 22.395524108273378 10.000000000000002
    vertex -13.842073733736049 -0.11164624453164178 10.000000000000002
    vertex -13.842073733736054 23.689237930004705 10.000000000000002
  endloop
endfacet
facet normal 7.919530984753709e-17 -9.587826088625834e-18 1.0
  outer loop
    vertex -13.842073733736054 23.689237930004705 10.000000000000002
    vertex -13.842073733736049 -0.11164624453164178 10.000000000000002
    vertex -12.271299313290443 24.738795842736533 10.000000000000002
  endloop
endfacet
facet normal 7.919530984753709e-17 -9.587826088625834e-18 1.0
  outer loop
    vertex -12.271299313290443 24.738795842736533 10.000000000000002
    vertex -13.842073733736049 -0.11164624453164178 10.000000000000002
    vertex -12.301974408970391 -1.1407077136139896 10.000000000000002
  endloop
endfacet
facet normal 7.919530984753709e-17 -9.587826088625834e-18 1.0
  outer loop
    vertex -12.271299313290443 24.738795842736533 10.000000000000002
    vertex -12.301974408970391 -1.1407077136139896 10.000000000000002
    vertex 20.28959734630981 -1.050542503211596 9.999999999999998
  endloop
endfacet
facet normal 7.919530984753709e-17 -9.587826088625834e-18 1.0
  outer loop
    vertex -12.271299313290443 24.738795842736533 10.000000000000002
    vertex 20.28959734630981 -1.050542503211596 9.999999999999998
    vertex 20.28959734630981 24.738795842736533 9.999999999999998
  endloop
endfacet
facet normal -0.555570233019602 -0.8314696123025453 5.0196393243413375e-17
  outer loop
    vertex -12.301974408970391 -1.1407077136139896 5.000000000000002
    vertex -13.842073733736049 -0.11164624453164178 5.000000000000002
    vertex -12.343940795236552 -1.1126666708002728 5.000000000000002
  endloop
endfacet
facet normal -0.555570233019602 -0.8314696123025453 5.0196393243413375e-17
  outer loop
    vertex -13.842073733736049 -0.11164624453164178 5.000000000000002
    vertex -12.301974408970391 -1.1407077136139896 5.000000000000002
    vertex -12.301974408970391 -1.1407077136139896 10.000000000000002
  endloop
endfacet
facet normal -0.555570233019602 -0.8314696123025453 5.0196393243413375e-17
  outer loop
    vertex -13.842073733736049 -0.11164624453164178 5.000000000000002
    vertex -12.301974408970391 -1.1407077136139896 10.000000000000002
    vertex -13.842073733736049 -0.11164624453164178 10.000000000000002
  endloop
endfacet
facet normal -0.6593458151000686 -0.7518398074789776 -0.0
  outer loop
    vertex -13.842073733736049 -0.11164624453164178 10.000000000000002
    vertex -15.317271616831365 1.1820675771996894 5.000000000000002
    vertex -13.842073733736049 -0.11164624453164178 5.000000000000002
  endloop
endfacet
facet normal -0.6593458151000686 -0.7518398074789776 -0.0
  outer loop
    vertex -15.317271616831365 1.1820675771996894 5.000000000000002
    vertex -13.842073733736049 -0.11164624453164178 10.000000000000002
    vertex -15.317271616831365 1.1820675771996894 10.000000000000002
  endloop
endfacet
facet normal -0.7518398074789779 -0.6593458151000684 -0.0
  outer loop
    vertex -16.610985438562686 2.657265460294996 10.000000000000002
    vertex -15.317271616831365 1.1820675771996894 5.000000000000002
    vertex -15.317271616831365 1.1820675771996894 10.000000000000002
  endloop
endfacet
facet normal -0.7518398074789779 -0.6593458151000684 -0.0
  outer loop
    vertex -15.317271616831365 1.1820675771996894 5.000000000000002
    vertex -16.610985438562686 2.657265460294996 10.000000000000002
    vertex -16.610985438562686 2.657265460294996 5.000000000000002
  endloop
endfacet
facet normal -0.831469612302545 -0.5555702330196024 -0.0
  outer loop
    vertex -17.70107939675497 4.288706359972399 10.000000000000002
    vertex -16.610985438562686 2.657265460294996 5.000000000000002
    vertex -16.610985438562686 2.657265460294996 10.000000000000002
  endloop
endfacet
facet normal -0.831469612302545 -0.5555702330196024 -0.0
  outer loop
    vertex -16.610985438562686 2.657265460294996 5.000000000000002
    vertex -17.70107939675497 4.288706359972399 10.000000000000002
    vertex -17.70107939675497 4.288706359972399 5.000000000000002
  endloop
endfacet
facet normal -0.8968727415326879 -0.4422886902190019 -0.0
  outer loop
    vertex -18.5689016815524 6.04847587011755 10.000000000000002
    vertex -17.70107939675497 4.288706359972399 5.000000000000002
    vertex -17.70107939675497 4.288706359972399 10.000000000000002
  endloop
endfacet
facet normal -0.8968727415326879 -0.4422886902190019 -0.0
  outer loop
    vertex -17.70107939675497 4.288706359972399 5.000000000000002
    vertex -18.5689016815524 6.04847587011755 10.000000000000002
    vertex -18.5689016815524 6.04847587011755 5.000000000000002
  endloop
endfacet
facet normal -0.9469301294951056 -0.32143946530316225 -0.0
  outer loop
    vertex -19.199603613056304 7.906463846511581 10.000000000000002
    vertex -18.5689016815524 6.04847587011755 5.000000000000002
    vertex -18.5689016815524 6.04847587011755 10.000000000000002
  endloop
endfacet
facet normal -0.9469301294951056 -0.32143946530316225 -0.0
  outer loop
    vertex -18.5689016815524 6.04847587011755 5.000000000000002
    vertex -19.199603613056304 7.906463846511581 10.000000000000002
    vertex -19.199603613056304 7.906463846511581 5.000000000000002
  endloop
endfacet
facet normal -0.9807852804032302 -0.19509032201612928 -0.0
  outer loop
    vertex -19.58239370635503 9.830879599746805 10.000000000000002
    vertex -19.199603613056304 7.906463846511581 5.000000000000002
    vertex -19.199603613056304 7.906463846511581 10.000000000000002
  endloop
endfacet
facet normal -0.9807852804032302 -0.19509032201612928 -0.0
  outer loop
    vertex -19.199603613056304 7.906463846511581 5.000000000000002
    vertex -19.58239370635503 9.830879599746805 10.000000000000002
    vertex -19.58239370635503 9.830879599746805 5.000000000000002
  endloop
endfacet
facet normal -8.163652892674046e-17 -9.636789870606064e-18 -1.0
  outer loop
    vertex -19.582393706355035 13.746712085726251 5.000000000000002
    vertex -19.58239370635503 9.830879599746805 5.000000000000002
    vertex -19.710722316822782 11.788795842736535 5.000000000000002
  endloop
endfacet
facet normal -8.163652892674046e-17 -9.636789870606064e-18 -1.0
  outer loop
    vertex -19.58239370635503 9.830879599746805 5.000000000000002
    vertex -19.582393706355035 13.746712085726251 5.000000000000002
    vertex -19.199603613056308 15.671127838961477 5.000000000000002
  endloop
endfacet
facet normal -8.163652892674046e-17 -9.636789870606064e-18 -1.0
  outer loop
    vertex -19.58239370635503 9.830879599746805 5.000000000000002
    vertex -19.199603613056308 15.671127838961477 5.000000000000002
    vertex -19.199603613056304 7.906463846511581 5.000000000000002
  endloop
endfacet
facet normal -8.163652892674046e-17 -9.636789870606064e-18 -1.0
  outer loop
    vertex -19.199603613056304 7.906463846511581 5.000000000000002
    vertex -19.199603613056308 15.671127838961477 5.000000000000002
    vertex -18.568901681552408 17.52911581535551 5.000000000000002
  endloop
endfacet
facet normal -8.163652892674046e-17 -9.636789870606064e-18 -1.0
  outer loop
    vertex -19.199603613056304 7.906463846511581 5.000000000000002
    vertex -18.568901681552408 17.52911581535551 5.000000000000002
    vertex -18.5689016815524 6.04847587011755 5.000000000000002
  endloop
endfacet
facet normal -8.163652892674046e-17 -9.636789870606064e-18 -1.0
  outer loop
    vertex -18.5689016815524 6.04847587011755 5.000000000000002
    vertex -18.568901681552408 17.52911581535551 5.000000000000002
    vertex -17.701079396754974 19.288885325500665 5.000000000000002
  endloop
endfacet
facet normal -8.163652892674046e-17 -9.636789870606064e-18 -1.0
  outer loop
    vertex -18.5689016815524 6.04847587011755 5.000000000000002
    vertex -17.701079396754974 19.288885325500665 5.000000000000002
    vertex -17.70107939675497 4.288706359972399 5.000000000000002
  endloop
endfacet
facet normal -8.163652892674046e-17 -9.636789870606064e-18 -1.0
  outer loop
    vertex -17.70107939675497 4.288706359972399 5.000000000000002
    vertex -17.701079396754974 19.288885325500665 5.000000000000002
    vertex -16.610985438562693 20.92032622517807 5.000000000000002
  endloop
endfacet
facet normal -8.163652892674046e-17 -9.636789870606064e-18 -1.0
  outer loop
    vertex -17.70107939675497 4.288706359972399 5.000000000000002
    vertex -16.610985438562693 20.92032622517807 5.000000000000002
    vertex -16.610985438562686 2.657265460294996 5.000000000000002
  endloop
endfacet
facet normal -8.163652892674046e-17 -9.636789870606064e-18 -1.0
  outer loop
    vertex -16.610985438562686 2.657265460294996 5.000000000000002
    vertex -16.610985438562693 20.92032622517807 5.000000000000002
    vertex -15.317271616831365 22.395524108273378 5.000000000000002
  endloop
endfacet
facet normal -8.163652892674046e-17 -9.636789870606064e-18 -1.0
  outer loop
    vertex -16.610985438562686 2.657265460294996 5.000000000000002
    vertex -15.317271616831365 22.395524108273378 5.000000000000002
    vertex -15.317271616831365 1.1820675771996894 5.000000000000002
  endloop
endfacet
facet normal -8.163652892674046e-17 -9.636789870606064e-18 -1.0
  outer loop
    vertex -15.317271616831365 1.1820675771996894 5.000000000000002
    vertex -15.317271616831365 22.395524108273378 5.000000000000002
    vertex -13.842073733736054 23.689237930004705 5.000000000000002
  endloop
endfacet
facet normal -8.163652892674046e-17 -9.636789870606064e-18 -1.0
  outer loop
    vertex -15.317271616831365 1.1820675771996894 5.000000000000002
    vertex -13.842073733736054 23.689237930004705 5.000000000000002
    vertex -13.842073733736049 -0.11164624453164178 5.000000000000002
  endloop
endfacet
facet normal -8.163652892674046e-17 -9.636789870606064e-18 -1.0
  outer loop
    vertex -13.842073733736049 -0.11164624453164178 5.000000000000002
    vertex -13.842073733736054 23.689237930004705 5.000000000000002
    vertex -12.271299313290443 24.738795842736533 5.000000000000002
  endloop
endfacet
facet normal -8.163652892674046e-17 -9.636789870606064e-18 -1.0
  outer loop
    vertex -13.842073733736049 -0.11164624453164178 5.000000000000002
    vertex -12.271299313290443 24.738795842736533 5.000000000000002
    vertex -12.343940795236552 -1.1126666708002728 5.000000000000002
  endloop
endfacet
facet normal -8.163652892674046e-17 -9.636789870606064e-18 -1.0
  outer loop
    vertex -12.343940795236552 -1.1126666708002728 5.000000000000002
    vertex -12.271299313290443 24.738795842736533 5.000000000000002
    vertex -4.710543351294521 -1.1197058735152616 5.000000000000001
  endloop
endfacet
facet normal -8.163652892674046e-17 -9.636789870606064e-18 -1.0
  outer loop
    vertex -4.710543351294521 -1.1197058735152616 5.000000000000001
    vertex -12.271299313290443 24.738795842736533 5.000000000000002
    vertex -4.710543351294521 24.738795842736533 5.000000000000001
  endloop
endfacet
facet normal -0.9807852804032305 0.1950903220161276 -0.0
  outer loop
    vertex -19.199603613056308 15.671127838961477 10.000000000000002
    vertex -19.582393706355035 13.746712085726251 5.000000000000002
    vertex -19.582393706355035 13.746712085726251 10.000000000000002
  endloop
endfacet
facet normal -0.9807852804032305 0.1950903220161276 -0.0
  outer loop
    vertex -19.582393706355035 13.746712085726251 5.000000000000002
    vertex -19.199603613056308 15.671127838961477 10.000000000000002
    vertex -19.199603613056308 15.671127838961477 5.000000000000002
  endloop
endfacet
facet normal -0.9469301294951057 0.3214394653031617 -0.0
  outer loop
    vertex -18.568901681552408 17.52911581535551 10.000000000000002
    vertex -19.199603613056308 15.671127838961477 5.000000000000002
    vertex -19.199603613056308 15.671127838961477 10.000000000000002
  endloop
endfacet
facet normal -0.9469301294951057 0.3214394653031617 -0.0
  outer loop
    vertex -19.199603613056308 15.671127838961477 5.000000000000002
    vertex -18.568901681552408 17.52911581535551 10.000000000000002
    vertex -18.568901681552408 17.52911581535551 5.000000000000002
  endloop
endfacet
facet normal -0.896872741532688 0.4422886902190018 -0.0
  outer loop
    vertex -17.701079396754974 19.288885325500665 10.000000000000002
    vertex -18.568901681552408 17.52911581535551 5.000000000000002
    vertex -18.568901681552408 17.52911581535551 10.000000000000002
  endloop
endfacet
facet normal -0.896872741532688 0.4422886902190018 -0.0
  outer loop
    vertex -18.568901681552408 17.52911581535551 5.000000000000002
    vertex -17.701079396754974 19.288885325500665 10.000000000000002
    vertex -17.701079396754974 19.288885325500665 5.000000000000002
  endloop
endfacet
facet normal -0.8314696123025455 0.5555702330196018 -0.0
  outer loop
    vertex -16.610985438562693 20.92032622517807 10.000000000000002
    vertex -17.701079396754974 19.288885325500665 5.000000000000002
    vertex -17.701079396754974 19.288885325500665 10.000000000000002
  endloop
endfacet
facet normal -0.8314696123025455 0.5555702330196018 -0.0
  outer loop
    vertex -17.701079396754974 19.288885325500665 5.000000000000002
    vertex -16.610985438562693 20.92032622517807 10.000000000000002
    vertex -16.610985438562693 20.92032622517807 5.000000000000002
  endloop
endfacet
facet normal -0.751839807478977 0.6593458151000692 -0.0
  outer loop
    vertex -15.317271616831365 22.395524108273378 10.000000000000002
    vertex -16.610985438562693 20.92032622517807 5.000000000000002
    vertex -16.610985438562693 20.92032622517807 10.000000000000002
  endloop
endfacet
facet normal -0.751839807478977 0.6593458151000692 -0.0
  outer loop
    vertex -16.610985438562693 20.92032622517807 5.000000000000002
    vertex -15.317271616831365 22.395524108273378 10.000000000000002
    vertex -15.317271616831365 22.395524108273378 5.000000000000002
  endloop
endfacet
facet normal -0.6593458151000685 0.7518398074789779 -0.0
  outer loop
    vertex -15.317271616831365 22.395524108273378 10.000000000000002
    vertex -13.842073733736054 23.689237930004705 5.000000000000002
    vertex -15.317271616831365 22.395524108273378 5.000000000000002
  endloop
endfacet
facet normal -0.6593458151000685 0.7518398074789779 -0.0
  outer loop
    vertex -13.842073733736054 23.689237930004705 5.000000000000002
    vertex -15.317271616831365 22.395524108273378 10.000000000000002
    vertex -13.842073733736054 23.689237930004705 10.000000000000002
  endloop
endfacet
facet normal -0.5555702330196033 0.8314696123025446 -0.0
  outer loop
    vertex -13.842073733736054 23.689237930004705 10.000000000000002
    vertex -12.271299313290443 24.738795842736533 5.000000000000002
    vertex -13.842073733736054 23.689237930004705 5.000000000000002
  endloop
endfacet
facet normal -0.5555702330196033 0.8314696123025446 -0.0
  outer loop
    vertex -12.271299313290443 24.738795842736533 5.000000000000002
    vertex -13.842073733736054 23.689237930004705 10.000000000000002
    vertex -12.271299313290443 24.738795842736533 10.000000000000002
  endloop
endfacet
facet normal -0.9978589232386036 0.06540312923014296 0.0
  outer loop
    vertex -19.582393706355035 13.746712085726251 10.000000000000002
    vertex -19.710722316822782 11.788795842736535 5.000000000000002
    vertex -19.710722316822782 11.788795842736535 10.000000000000002
  endloop
endfacet
facet normal -0.9978589232386036 0.06540312923014296 0.0
  outer loop
    vertex -19.710722316822782 11.788795842736535 5.000000000000002
    vertex -19.582393706355035 13.746712085726251 10.000000000000002
    vertex -19.582393706355035 13.746712085726251 5.000000000000002
  endloop
endfacet
facet normal -0.9978589232386036 -0.0654031292301439 0.0
  outer loop
    vertex -19.710722316822782 11.788795842736535 10.000000000000002
    vertex -19.58239370635503 9.830879599746805 5.000000000000002
    vertex -19.58239370635503 9.830879599746805 10.000000000000002
  endloop
endfacet
facet normal -0.9978589232386036 -0.0654031292301439 0.0
  outer loop
    vertex -19.58239370635503 9.830879599746805 5.000000000000002
    vertex -19.710722316822782 11.788795842736535 10.000000000000002
    vertex -19.710722316822782 11.788795842736535 5.000000000000002
  endloop
endfacet
endsolid Подшипник-на-ремень-ластохвост
