solid 2 двигателя от CD-Ножки
facet normal 3.646603607862135e-18 -1.0058881970191463e-17 -1.0
  outer loop
    vertex 0.0 10.0 0.0
    vertex 20.000000000000004 7.0 1.762479051592436e-16
    vertex 0.0 0.0 0.0
  endloop
endfacet
facet normal 3.646603607862135e-18 -1.0058881970191463e-17 -1.0
  outer loop
    vertex 20.000000000000004 7.0 1.762479051592436e-16
    vertex 0.0 10.0 0.0
    vertex 30.0 10.0 0.0
  endloop
endfacet
facet normal 3.646603607862135e-18 -1.0058881970191463e-17 -1.0
  outer loop
    vertex 0.0 0.0 0.0
    vertex 20.000000000000004 7.0 1.762479051592436e-16
    vertex 15.0 0.0 1.762479051592436e-16
  endloop
endfacet
facet normal 3.646603607862135e-18 -1.0058881970191463e-17 -1.0
  outer loop
    vertex 20.000000000000004 7.0 1.762479051592436e-16
    vertex 30.0 10.0 0.0
    vertex 25.000000000000004 7.0 0.0
  endloop
endfacet
facet normal -0.0 -0.0 1.0
  outer loop
    vertex 15.0 0.0 2.8
    vertex 0.0 10.0 2.8
    vertex 0.0 0.0 2.8
  endloop
endfacet
facet normal -0.0 -0.0 1.0
  outer loop
    vertex 0.0 10.0 2.8
    vertex 15.0 0.0 2.8
    vertex 15.0 10.0 2.8
  endloop
endfacet
facet normal -1.0 0.0 0.0
  outer loop
    vertex 0.0 10.0 2.8
    vertex 0.0 0.0 0.0
    vertex 0.0 0.0 2.8
  endloop
endfacet
facet normal -1.0 0.0 0.0
  outer loop
    vertex 0.0 0.0 0.0
    vertex 0.0 10.0 2.8
    vertex 0.0 10.0 0.0
  endloop
endfacet
facet normal -0.0 1.0 -0.0
  outer loop
    vertex 0.0 10.0 2.8
    vertex 30.0 10.0 0.0
    vertex 0.0 10.0 0.0
  endloop
endfacet
facet normal -0.0 1.0 -0.0
  outer loop
    vertex 30.0 10.0 0.0
    vertex 0.0 10.0 2.8
    vertex 15.0 10.0 2.8
  endloop
endfacet
facet normal -0.0 1.0 -0.0
  outer loop
    vertex 30.0 10.0 0.0
    vertex 15.0 10.0 2.8
    vertex 30.0 10.0 5.3
  endloop
endfacet
facet normal -0.0 1.0 -0.0
  outer loop
    vertex 30.0 10.0 5.3
    vertex 15.0 10.0 2.8
    vertex 15.0 10.0 5.3
  endloop
endfacet
facet normal 0.0 -1.0 0.0
  outer loop
    vertex 15.0 0.0 1.762479051592436e-16
    vertex 0.0 0.0 2.8
    vertex 0.0 0.0 0.0
  endloop
endfacet
facet normal 0.0 -1.0 0.0
  outer loop
    vertex 0.0 0.0 2.8
    vertex 15.0 0.0 1.762479051592436e-16
    vertex 15.0 0.0 2.8
  endloop
endfacet
facet normal 0.0 -1.0 0.0
  outer loop
    vertex 25.000000000000004 7.0 5.3
    vertex 20.000000000000004 7.0 1.762479051592436e-16
    vertex 25.000000000000004 7.0 0.0
  endloop
endfacet
facet normal 0.0 -1.0 0.0
  outer loop
    vertex 20.000000000000004 7.0 1.762479051592436e-16
    vertex 25.000000000000004 7.0 5.3
    vertex 20.000000000000004 7.0 5.3
  endloop
endfacet
facet normal 0.813733471206735 -0.5812381937190967 -0.0
  outer loop
    vertex 20.000000000000004 7.0 1.762479051592436e-16
    vertex 15.0 0.0 2.8
    vertex 15.0 0.0 1.762479051592436e-16
  endloop
endfacet
facet normal 0.813733471206735 -0.5812381937190967 -0.0
  outer loop
    vertex 15.0 0.0 2.8
    vertex 20.000000000000004 7.0 1.762479051592436e-16
    vertex 15.0 0.0 5.3
  endloop
endfacet
facet normal 0.813733471206735 -0.5812381937190967 -0.0
  outer loop
    vertex 15.0 0.0 5.3
    vertex 20.000000000000004 7.0 1.762479051592436e-16
    vertex 20.000000000000004 7.0 5.3
  endloop
endfacet
facet normal -1.0 -0.0 -0.0
  outer loop
    vertex 15.0 10.0 5.3
    vertex 15.0 0.0 2.8
    vertex 15.0 0.0 5.3
  endloop
endfacet
facet normal -1.0 -0.0 -0.0
  outer loop
    vertex 15.0 0.0 2.8
    vertex 15.0 10.0 5.3
    vertex 15.0 10.0 2.8
  endloop
endfacet
facet normal 0.0 0.0 1.0
  outer loop
    vertex 20.000000000000004 7.0 5.3
    vertex 15.0 10.0 5.3
    vertex 15.0 0.0 5.3
  endloop
endfacet
facet normal 0.0 0.0 1.0
  outer loop
    vertex 15.0 10.0 5.3
    vertex 20.000000000000004 7.0 5.3
    vertex 30.0 10.0 5.3
  endloop
endfacet
facet normal 0.0 0.0 1.0
  outer loop
    vertex 30.0 10.0 5.3
    vertex 20.000000000000004 7.0 5.3
    vertex 25.000000000000004 7.0 5.3
  endloop
endfacet
facet normal 0.5144957554275267 -0.8574929257125443 0.0
  outer loop
    vertex 30.0 10.0 5.3
    vertex 25.000000000000004 7.0 0.0
    vertex 30.0 10.0 0.0
  endloop
endfacet
facet normal 0.5144957554275267 -0.8574929257125443 0.0
  outer loop
    vertex 25.000000000000004 7.0 0.0
    vertex 30.0 10.0 5.3
    vertex 25.000000000000004 7.0 5.3
  endloop
endfacet
endsolid 2 двигателя от CD-Ножки
