<?xml version="1.0" encoding="UTF-8" standalone="no"?>
<svg
   xmlns:svg="http://www.w3.org/2000/svg"
   xmlns="http://www.w3.org/2000/svg"
   width="744.09448819"
   height="1052.3622047"
   id="svg2"
   version="1.1"
   inkscape:version="0.48.2 r9819">
  <g
     inkscape:label="Layer 1"
     inkscape:groupmode="layer"
     id="layer1">
    <path
       style="fill:#000000"
       d="m 113.46137,163.20633 -113.38581588,0 0,-81.496072 0,-81.49606007 113.38581588,0 113.38583,0 0,81.49606007 0,81.496072 -113.38583,0 z m 0.32993,-1.87601 111.95613,0 0,-79.951122 0,-79.9511101 -111.95613,0 -111.9561259,0 0,79.9511101 0,79.951122 111.9561259,0 z m 0,-0.11035 -111.8461459,0 0,-79.840772 0,-79.8407601 111.8461459,0 111.84616,0 0,79.8407601 0,79.840772 -111.84616,0 z m 58.72748,-3.42096 49.12953,0 0.28993,-0.29094 0.28994,-0.29092 0,-75.837952 0,-75.8379401 -0.28303,-0.284 -0.28304,-0.28401 -0.56928,-0.0669 -0.56928,-0.0669 -53.61357,0.0324 -53.61357,0.0324 -0.23116,0.15429 c -0.12714,0.0849 -0.30036,0.25866 -0.38492,0.38623 l -0.15376,0.23196 -0.0286,21.8775801 -0.0286,21.87758 -1.86853,0 -1.86853,0 0,3.15269 0,3.15269 2.76724,-0.0797 2.76723,-0.0797 -0.0724,1.42387 c -0.0398,0.78313 -0.0726,3.17435 -0.0728,5.31383 l 0,3.88996 -0.93481,0 -0.9348,0 0,1.60012 0,1.60013 0.9348,0 0.93481,0 0,1.10353 0,1.10354 0.4399,0 0.43991,0 0,6.1798 0,6.17979 -0.38492,0 -0.38492,0 0,3.97273 0,3.97272 3.24431,0 3.24431,0 0,-3.97272 0,-3.97273 -1.20974,0 -1.20975,0 0,-6.67639 0,-6.67638 -1.58409,0 -1.58408,0 -0.0155,-31.61628 -0.0155,-31.6162801 14.47466,0 14.47467,0 0.1571,0.15765 0.15712,0.15764 0,8.2844001 0,8.28439 -6.32365,0 -6.32366,0 0,18.09798 0,18.09797 6.15869,0 6.15869,0 0,0.36417 0,0.36417 0.13747,0.13788 0.13747,0.13788 0.055,6.31228 0.055,6.31228 21.36294,0.0279 21.36295,0.0279 0,-15.17389 0,-15.17388 -21.39044,0 -21.39044,0 0,3.53131 0,3.53131 -4.07238,0 -4.07239,0 0.0308,-8.54325 0.0307,-8.54325 0.0916,-0.0919 0.0916,-0.0919 25.0655,-0.0288 25.06549,-0.0288 0,-8.22016 0,-8.22016 4.39906,0 4.39907,0 0,0.38623 0,0.38624 0.60487,0 0.60487,0 0,34.20959 0,34.20959 4.01414,0 4.01415,0 0,-38.51338 0,-38.5133705 -0.10998,0 -0.10998,0 0,-1.2138896 0,-1.21389 6.43363,0 6.43363,0 0,62.8739101 1e-5,62.873912 -34.35101,0 -34.351,0 -0.26931,0.14461 c -0.14812,0.0795 -0.34121,0.25335 -0.42908,0.38624 l -0.15978,0.24163 -0.0308,6.59362 -0.0308,6.59362 -12.47902,0 -12.47902,0 0,5.00729 0,5.00729 0.0684,0.34329 0.0684,0.34329 0.2765,0.27745 0.27651,0.27745 49.12952,0 z m -34.16974,-5.9595 -0.30791,0 -0.35209,-0.21541 -0.35207,-0.21542 -0.17031,-0.33045 -0.1703,-0.33047 0,-0.30894 0,-0.30896 0.21467,-0.3533 0.21469,-0.35328 0.32932,-0.1709 0.32934,-0.17088 0.28586,0 0.28586,0 0.32934,0.17088 0.32932,0.1709 0.21469,0.35328 0.21467,0.3533 0,0.33106 0,0.33106 -0.21467,0.3533 -0.21469,0.35328 -0.32932,0.1709 -0.32934,0.17088 -0.30789,0 z M 116.90167,89.265158 c -0.16827,-0.002 -0.45688,-0.0703 -0.64135,-0.1509 l -0.33538,-0.14659 -0.29261,-0.34893 -0.2926,-0.34894 -0.07,-0.37436 -0.07,-0.37436 0.0762,-0.34789 0.0761,-0.34788 0.3296,-0.37668 0.3296,-0.37667 0.41909,-0.126 0.4191,-0.12599 0.39788,0.0749 0.39788,0.0749 0.3812,0.33585 0.38121,0.33586 0.12556,0.42053 0.12557,0.42053 -0.0736,0.39364 -0.0736,0.39363 -0.29292,0.34932 -0.29292,0.34931 -0.35903,0.15052 -0.35903,0.15053 -0.30597,-0.004 z m 83.91405,-3.85847 -0.3079,-4.4e-4 -0.35209,-0.21541 -0.35208,-0.21541 -0.17031,-0.33047 -0.1703,-0.33046 0,-0.30895 0,-0.30895 0.21467,-0.35329 0.21469,-0.35329 0.32932,-0.17089 0.32934,-0.17089 0.28586,0 0.28586,0 0.32934,0.17089 0.32932,0.17089 0.21469,0.35329 0.21467,0.35329 0,0.33106 0,0.33106 -0.21467,0.35329 -0.21469,0.35329 -0.32932,0.17089 -0.32934,0.17089 -0.30789,-4.4e-4 z m 0,-8.82828 -0.3079,-4.4e-4 -0.35209,-0.21541 -0.35208,-0.21542 -0.17031,-0.33046 -0.1703,-0.33046 0,-0.30895 0,-0.30895 0.21467,-0.35329 0.21469,-0.35329 0.32932,-0.17089 0.32934,-0.17089 0.28586,0 0.28586,0 0.32934,0.17089 0.32932,0.17089 0.21469,0.35329 0.21467,0.35329 0,0.33106 0,0.33106 -0.21467,0.35329 -0.21469,0.35329 -0.32932,0.17089 -0.32934,0.17089 -0.30789,-4.4e-4 z m 0,-8.82828 -0.3079,-4.4e-4 -0.35209,-0.21541 -0.35208,-0.21542 -0.17031,-0.33046 -0.1703,-0.33046 0,-0.30895 0,-0.30895 0.21467,-0.35329 0.21469,-0.35329 0.32932,-0.17089 0.32934,-0.17089 0.28586,0 0.28586,0 0.32934,0.17089 0.32932,0.17089 0.21469,0.35329 0.21467,0.35329 0,0.33106 0,0.33106 -0.21467,0.35329 -0.21469,0.35329 -0.32932,0.17089 -0.32934,0.17089 -0.30789,-4.4e-4 z m 0,-8.82828 -0.3079,-4.4e-4 -0.35209,-0.21541 -0.35208,-0.21542 -0.17031,-0.33046 -0.1703,-0.33046 0,-0.30895 0,-0.30895 0.21467,-0.35329 0.21469,-0.35329 0.32932,-0.17089 0.32934,-0.17089 0.28586,0 0.28586,0 0.32934,0.17089 0.32932,0.17089 0.21469,0.35329 0.21467,0.35329 0,0.33106 0,0.33106 -0.21467,0.35329 -0.21469,0.35329 -0.32932,0.17089 -0.32934,0.17089 -0.30789,-4.4e-4 z m -60.37713,-1.87601 -0.3079,-4.4e-4 -0.35209,-0.21541 -0.35208,-0.21542 -0.17031,-0.33046 -0.1703,-0.33046 0,-0.30895 0,-0.30895 0.21468,-0.35329 0.21468,-0.35329 0.32933,-0.17089 0.32933,-0.17089 0.28586,0 0.28587,0 0.32933,0.17089 0.32933,0.17089 0.21468,0.35329 0.21468,0.35329 0,0.33106 0,0.33106 -0.21468,0.35329 -0.21468,0.35329 -0.32933,0.17089 -0.32933,0.17089 -0.30789,-4.4e-4 z m 24.63475,-5.73838 -0.3079,-4.4e-4 -0.35209,-0.21541 -0.35208,-0.21542 -0.17031,-0.33046 -0.1703,-0.33046 0,-0.30895 0,-0.30895 0.21467,-0.3533 0.21469,-0.35329 0.32932,-0.17088 0.32934,-0.17089 0.28586,0 0.28586,0 0.32934,0.17089 0.32932,0.17088 0.21469,0.35329 0.21467,0.3533 0,0.33106 0,0.33106 -0.21467,0.35329 -0.21469,0.35329 -0.32932,0.17089 -0.32934,0.17089 -0.30789,-4.5e-4 z m 35.74238,-1.21389 -0.3079,-4.4e-4 -0.35209,-0.21541 -0.35208,-0.21542 -0.17031,-0.33046 -0.1703,-0.33046 0,-0.30895 0,-0.30895 0.21467,-0.35329 0.21469,-0.3533 0.32932,-0.17088 0.32934,-0.17089 0.28586,0 0.28586,0 0.32934,0.17089 0.32932,0.17088 0.21469,0.3533 0.21467,0.35329 0,0.33106 0,0.33106 -0.21467,0.35329 -0.21469,0.35329 -0.32932,0.17089 -0.32934,0.17089 -0.30789,-4.4e-4 z m 0,-8.82828 -0.3079,-4.4e-4 -0.35209,-0.21541 -0.35208,-0.21542 -0.17031,-0.33046 -0.1703,-0.33046 0,-0.30895 0,-0.30895 0.21467,-0.35329 0.21469,-0.3533 0.32932,-0.17088 0.32934,-0.17089 0.28586,0 0.28586,0 0.32934,0.17089 0.32932,0.17088 0.21469,0.3533 0.21467,0.35329 0,0.33106 0,0.33106 -0.21467,0.35329 -0.21469,0.35329 -0.32932,0.17089 -0.32934,0.17089 -0.30789,-4.5e-4 z m 0,-8.82828 -0.3079,-4.4e-4 -0.35209,-0.21541 -0.35208,-0.21542 -0.17031,-0.33046 -0.1703,-0.33046 0,-0.30895 0,-0.30895 0.21467,-0.3533 0.21469,-0.35329 0.32932,-0.17088 0.32934,-0.17089 0.28586,0 0.28586,0 0.32934,0.17089 0.32932,0.17088 0.21469,0.35329 0.21467,0.3533 0,0.33106 0,0.33106 -0.21467,0.35329 -0.21469,0.35329 -0.32932,0.17089 -0.32934,0.17089 -0.30789,-4.5e-4 z m -60.37713,-1.87601 -0.3079,-4.4e-4 -0.35209,-0.21541 -0.35208,-0.21542 -0.17031,-0.33046 -0.1703,-0.33046 0,-0.30895 0,-0.30895 0.21468,-0.35329 0.21468,-0.3533 0.32933,-0.17088 0.32933,-0.17089 0.28586,0 0.28587,0 0.32933,0.17089 0.32933,0.17088 0.21468,0.3533 0.21468,0.35329 0,0.33106 0,0.33106 -0.21468,0.35329 -0.21468,0.35329 -0.32933,0.17089 -0.32933,0.17089 -0.30789,-4.5e-4 z m 60.37713,-6.95227 -0.3079,-4.4e-4 -0.35209,-0.21542 -0.35208,-0.21541 -0.17031,-0.33046 -0.1703,-0.33046 0,-0.30895 0,-0.30895 0.21467,-0.3533 0.21469,-0.35329 0.32932,-0.17088 0.32934,-0.17089 0.28586,0 0.28586,0 0.32934,0.17089 0.32932,0.17088 0.21469,0.35329 0.21467,0.3533 0,0.33106 0,0.33106 -0.21467,0.35329 -0.21469,0.35329 -0.32932,0.17089 -0.32934,0.17088 -0.30789,-4.4e-4 z m -31.12337,-2.20707 -0.3079,-4.4e-4 -0.35209,-0.21542 -0.35208,-0.21541 -0.17031,-0.33046 -0.1703,-0.33046 0,-0.30895 0,-0.30895 0.21468,-0.3533 0.21468,-0.35329 0.32933,-0.17089 0.32933,-0.17088 0.28587,0 0.28586,0 0.32933,0.17088 0.32933,0.17089 0.21468,0.35329 0.21468,0.3533 0,0.33106 0,0.33106 -0.21468,0.35329 -0.21468,0.35329 -0.32933,0.17089 -0.32933,0.17088 -0.30789,-4.4e-4 z m 13.25097,-6.06944 -2.89114,-4.4e-4 -0.38492,-0.24789 -0.38492,-0.24788 -2.8044,-0.0356 -2.8044,-0.0356 -0.66233,0.17896 -0.66232,0.17896 -2.82241,-0.0331 -2.82241,-0.033 -0.3505,-0.33106 -0.35049,-0.33106 -0.15143,-0.35511 -0.15141,-0.3551 0,-2.47932 0,-2.4793101 0.11697,-0.31066 c 0.0643,-0.17086 0.24992,-0.45128 0.41241,-0.62316 l 0.29544,-0.31251 0.37085,-0.1565 0.37086,-0.15649 2.51723,0 2.51723,0 0.49509,0.23352 c 0.27231,0.12844 0.52214,0.27742 0.55518,0.33106 l 0.0601,0.0976 2.94599,0 2.94597,0 0.37433,-0.19312 0.37432,-0.19312 2.74941,-0.0303 2.74941,-0.0303 0.38273,0.1958 0.38272,0.1958 0.25457,0.3823 0.25457,0.3823 -0.0324,2.9639801 -0.0324,2.96397 -0.46315,0.43333 -0.46314,0.43333 -2.89114,-4.4e-4 z m -0.0317,-1.54454 2.36449,0 0,-2.3726 0,-2.3726001 -2.36449,0 -2.3645,0 0,0.2758796 0,0.27589 -4.2341,0 -4.23409,0 0,-0.38624 0,-0.3862396 -2.3645,0 -2.36449,0 0,2.3726001 0,2.3726 2.36449,0 2.3645,0 0,-0.16553 0,-0.16553 4.23409,0 4.2341,0 0,0.27589 0,0.27588 2.3645,0 z m -0.022,-0.99359 -0.3079,-4.4e-4 -0.35209,-0.21542 -0.35208,-0.21541 -0.17031,-0.33046 -0.1703,-0.33046 0,-0.30896 0,-0.30895 0.21467,-0.35329 0.21469,-0.35329 0.32932,-0.17089 0.32934,-0.17089 0.28586,0 0.28586,0 0.32934,0.17089 0.32933,0.17089 0.21468,0.35329 0.21467,0.35329 0,0.33106 0,0.33106 -0.21467,0.35329 -0.21468,0.3533 -0.32933,0.17088 -0.32934,0.17089 -0.30789,-4.4e-4 z m -13.19719,-0.22071 -0.3079,-4.4e-4 -0.35209,-0.21542 -0.35208,-0.21541 -0.17031,-0.33046 -0.1703,-0.33046 0,-0.30895 0,-0.30896 0.21468,-0.35329 0.21468,-0.35329 0.32933,-0.1708905 0.32933,-0.17088 0.28587,0 0.28586,0 0.32933,0.17088 0.32933,0.1708905 0.21468,0.35329 0.21468,0.35329 0,0.33107 0,0.33106 -0.21468,0.35329 -0.21468,0.35329 -0.32933,0.17089 -0.32933,0.17088 -0.30789,-4.4e-4 z M 63.913064,157.55082 l 52.682726,-0.0277 0.0278,-19.05536 0.0278,-19.05538 -0.17313,-0.17372 -0.17314,-0.17373 -4.07259,0 -4.07258,0 0.0388,-12.69066 0.0388,-12.690662 -0.59489,10e-6 -0.59489,0 0.0722,2.40019 0.0722,2.40019 2.2e-4,10.613642 2.2e-4,10.61364 0.17282,0.17342 0.17282,0.17341 4.06128,0 4.06128,0 0,16.93926 0,16.93927 -51.139096,0 -51.1391,0 0,-21.35341 0,-21.3534 0.38492,0 0.38492,0 0,-2.3726 0,-2.3726 -2.3645,0 -2.3644899,0 0,2.3726 0,2.3726 0.16496,0 0.16497,0 0,22.43355 0,22.43356 0.2474399,0.49238 0.24745,0.49239 0.49093,0.24841 0.49094,0.24841 52.68273,-0.0277 z m -52.14696,-47.31459 -0.3079,-4.1e-4 -0.35208,-0.21541 -0.35209,-0.21542 -0.1703,-0.33046 -0.1703,-0.33046 4e-4,-0.30895 4.1e-4,-0.30895 0.21468,-0.35329 0.21468,-0.3533 0.32933,-0.17088 0.32933,-0.17089 0.28586,0 0.28587,0 0.32933,0.17089 0.32933,0.17088 0.21468,0.3533 0.21468,0.35329 0,0.33106 0,0.33106 -0.21468,0.35329 -0.21468,0.35329 -0.32933,0.17089 -0.32933,0.17089 -0.3079,-4.4e-4 z m 54.86865,41.05192 45.726936,0 0,-13.34489 0,-13.34489 -0.17282,-0.17342 -0.17283,-0.17341 -2.74155,0 -2.74156,0 0,-15.28396 0,-15.283962 -0.60487,0 -0.60487,0 0,1.60013 0,1.60012 0.10998,0 0.10997,0 0,14.007022 0,14.007 0.17282,0.17342 0.17282,0.17341 2.74156,0 2.74156,0 0,11.20088 0,11.20089 -44.155586,0 -44.15558,0 0,-23.92333 0,-23.923333 -0.24745,-0.49239 -0.24745,-0.492379 -0.54988,-0.27589 -0.54988,-0.27588 -3.65672,-0.0355 -3.65672,-0.0355 0,-0.26796 0,-0.26796 -2.3645,0 -2.3644899,0 0,2.372602 0,2.3726 2.3644899,0 2.3645,0 0,-0.27589 0,-0.27588 2.63944,0 2.63943,0 0,23.9785 0,23.97851 0.24745,0.49238 0.24745,0.49239 0.4907,0.2483 0.4907,0.24829 45.72695,0 z m -54.86865,-49.8802 -0.3079,-4.1e-4 -0.35208,-0.21541 -0.35209,-0.21542 -0.1703,-0.33046 -0.1703,-0.33046 4e-4,-0.30895 4.1e-4,-0.308953 0.21468,-0.35329 0.21468,-0.353299 0.32933,-0.17088 0.32933,-0.17089 0.28586,0 0.28587,0 0.32933,0.17089 0.32933,0.17088 0.21468,0.353299 0.21468,0.35329 0,0.331063 0,0.33106 -0.21468,0.35329 -0.21468,0.35329 -0.32933,0.17089 -0.32933,0.17089 -0.3079,-4.5e-4 z m 56.16117,44.33508 40.420276,-0.0277 0.0281,-8.73697 0.0282,-8.73697 -0.17348,-0.17408 -0.17348,-0.17407 -1.64179,0 -1.64179,0 0,-17.1048 0,-17.104792 -0.60487,0 -0.60487,0 0,1.60013 0,1.60012 0.10997,0 0.10998,0 0,15.827852 0,15.82784 0.17282,0.17342 0.17282,0.17341 1.64179,0 1.64179,0 0,6.62121 0,6.62121 -38.876706,0 -38.87671,0 0,-25.63381 0,-25.633812 -0.24744,-0.49238 -0.24745,-0.49239 -0.49071,-0.24829 -0.4907,-0.2483 -7.01519,0 -7.0152,0 0,-0.27588 0,-0.27588 -2.3645,0 -2.3644899,0 0,2.3726 0,2.3726 2.3644899,0 2.3645,0 0,-0.27589 0,-0.27588 5.93873,0 5.93874,0 0,25.633812 0,25.6338 0.24744,0.49239 0.24745,0.49239 0.491,0.24843 0.49101,0.24845 40.42027,-0.0277 z m -56.16117,-53.163362 -0.3079,-4.1e-4 -0.35208,-0.21541 -0.35209,-0.21542 -0.1703,-0.33046 -0.1703,-0.33046 4e-4,-0.30895 4.1e-4,-0.30895 0.21468,-0.3533 0.21468,-0.35329 0.32933,-0.17088 0.32933,-0.17089 0.28586,0 0.28587,0 0.32933,0.17089 0.32933,0.17088 0.21468,0.35329 0.21468,0.3533 0,0.33106 0,0.33106 -0.21468,0.35329 -0.21468,0.35329 -0.32933,0.17089 -0.32933,0.17089 -0.3079,-4.5e-4 z m 126.605036,51.425152 2.3645,0 0,-2.3726 0,-2.3726 -2.3645,0 -2.36449,0 0,0.7173 0,0.71729 -8.24824,0 -8.24824,0 0,-12.131 0,-12.131 -0.17282,-0.17342 -0.17283,-0.17341 -4.62354,0 -4.62354,0 0.0407,-11.20088 0.0407,-11.200882 -0.59573,0 -0.59573,0 0.0722,2.40019 0.0722,2.40019 2.2e-4,9.123872 2.2e-4,9.12386 0.17282,0.17342 0.17282,0.17341 4.61115,0 4.61117,0 0,12.91136 0,12.91136 8.74313,0 8.74314,0 0,0.55177 0,0.55177 2.36449,0 z m -0.022,-0.99359 -0.30791,0 -0.35209,-0.21541 -0.35207,-0.21542 -0.17031,-0.33045 -0.1703,-0.33047 0,-0.30895 0,-0.30895 0.21467,-0.3533 0.21469,-0.35328 0.32932,-0.1709 0.32934,-0.17088 0.28586,0 0.28586,0 0.32934,0.17088 0.32932,0.1709 0.21469,0.35328 0.21467,0.3533 0,0.33106 0,0.33106 -0.21467,0.3533 -0.21469,0.35328 -0.32932,0.1709 -0.32934,0.17088 -0.30789,0 z m -69.841316,-4.19303 34.402806,0 0.0483,-0.13794 c 0.0265,-0.0759 0.0621,-10.23116 0.079,-22.5673 l 0.0308,-22.429362 -0.54988,0 -0.54988,-1e-5 0.0351,20.746482 0.0351,20.74647 -32.890606,0 -32.8906,0 0,-26.57181 0,-26.571822 -0.24745,-0.49238 -0.24745,-0.49239 -0.4907,-0.24829 -0.49071,-0.2483 -10.31449,0 -10.31449,0 0,-0.27588 0,-0.27588 -2.3645,0 -2.3644899,0 0,2.3726 0,2.3726 2.3644899,0 2.3645,0 0,-0.27589 0,-0.27588 9.23803,0 9.23803,0 0,26.571812 0,26.57181 0.24745,0.49239 0.24744,0.49238 0.49071,0.2483 0.4907,0.24829 34.40281,0 z m -56.7417,-55.066812 -0.3079,-4.1e-4 -0.35208,-0.21542 -0.35209,-0.21541 -0.1703,-0.33046 -0.1703,-0.33046 4e-4,-0.30895 4.1e-4,-0.30895 0.21468,-0.3533 0.21468,-0.35329 0.32933,-0.17088 0.32933,-0.17089 0.28586,0 0.28587,0 0.32933,0.17089 0.32933,0.17088 0.21468,0.35329 0.21468,0.3533 0,0.33106 0,0.33106 -0.21468,0.35329 -0.21468,0.35329 -0.32933,0.17089 -0.32933,0.17088 -0.3079,-4.4e-4 z m 117.861906,53.521872 9.01808,0 0,-1.04836 0,-1.04836 1.04477,0 1.04478,0 0,-2.3726 0,-2.3726 -2.3645,0 -2.36449,0 0,2.31742 0,2.31743 -7.20347,0 -7.20346,0 -0.002,-10.89741 -0.002,-10.89741 -0.0663,-0.2483 -0.0663,-0.24829 -3.1215,0 -3.12151,0 0,-9.54558 0,-9.545582 -0.60487,0 -0.60487,0 0,10.042172 0,10.04217 3.2993,0 3.29929,0 0,11.75265 0,11.75265 9.01808,0 z m 8.72111,-3.09031 -0.30791,0 -0.35209,-0.21541 -0.35207,-0.21542 -0.17031,-0.33046 -0.1703,-0.33046 0,-0.30895 0,-0.30895 0.21467,-0.3533 0.21469,-0.35328 0.32932,-0.1709 0.32934,-0.17088 0.28586,0 0.28586,0 0.32934,0.17088 0.32932,0.1709 0.21469,0.35328 0.21467,0.3533 0,0.33106 0,0.33106 -0.21467,0.3533 -0.21469,0.35328 -0.32932,0.17089 -0.32934,0.17089 -0.30789,0 z m -9.95835,-0.89113 5.52632,0.009 0,-2.48295 0,-2.48296 3.40928,0 3.40927,0 0,-3.36578 0,-3.36578 -2.3645,0 -2.36449,0 0,2.15189 0,2.1519 -2.14454,0 -2.14455,0 0,1.87601 0,1.876 -4.06913,0 -4.06913,0 0,-10.08946 0,-10.08946 -0.17282,-0.17341 -0.17283,-0.17342 -3.19705,0 -3.19706,0 0.0542,-7.72474 0.0542,-7.724752 -0.606,0 -0.606,0 0.0722,2.40019 c 0.0397,1.3201 0.0723,4.941672 0.0725,8.047922 l 0,5.64774 0.17282,0.17341 0.17283,0.17341 3.18146,0 3.18146,0 0,11.52275 0,11.52274 0.13747,0.0557 c 0.0756,0.0306 2.62432,0.0596 5.6638,0.0644 z m 9.95835,-7.93715 -0.30791,0 -0.35209,-0.21541 -0.35207,-0.21542 -0.17031,-0.33046 -0.1703,-0.33046 0,-0.30895 0,-0.30895 0.21467,-0.3533 0.21469,-0.35329 0.32932,-0.17089 0.32934,-0.17088 0.28586,0 0.28586,0 0.32934,0.17088 0.32932,0.17089 0.21469,0.35329 0.21467,0.3533 0,0.33106 0,0.33106 -0.21467,0.35329 -0.21469,0.35329 -0.32932,0.17089 -0.32934,0.17089 -0.30789,0 z m -69.153226,5.51808 6.21368,0 0,-8.44204 0,-8.44204 -6.21368,0 -6.21367,0 0,8.44204 0,8.44204 6.21367,0 z m -1.23177,-1.21429 -0.3079,0 -0.35208,-0.21541 -0.35209,-0.21543 -0.1703,-0.33045 -0.17031,-0.33046 4.4e-4,-0.30895 4.4e-4,-0.30896 0.21468,-0.35329 0.21468,-0.35329 0.32933,-0.17089 0.32933,-0.17088 0.28587,0 0.28586,0 0.32933,0.17088 0.32934,0.17089 0.21467,0.35329 0.21468,0.35329 0,0.33106 0,0.33106 -0.21468,0.3533 -0.21467,0.35329 -0.32934,0.17089 -0.32933,0.17088 -0.30789,0 z m -26.37234,0.99359 2.36449,0 0,-2.37261 0,-2.3726 -2.36449,0 -2.3645,0 0,2.3726 0,2.37261 2.3645,0 z m -0.022,-0.99359 -0.3079,0 -0.35209,-0.21541 -0.35208,-0.21543 -0.1703,-0.33045 -0.17031,-0.33046 4.4e-4,-0.30895 4.4e-4,-0.30896 0.21468,-0.35329 0.21468,-0.35329 0.32933,-0.17089 0.32933,-0.17088 0.28587,0 0.28586,0 0.32933,0.17088 0.32933,0.17089 0.21468,0.35329 0.21468,0.35329 0,0.33106 0,0.33106 -0.21468,0.3533 -0.21468,0.35329 -0.32933,0.17089 -0.32933,0.17088 -0.3079,0 z m 41.59316,0.88323 6.1037,0 0,-8.22133 0,-8.22134 -6.1037,0 -6.10369,0 0,8.22134 0,8.22133 6.10369,0 z m 8.90811,0 1.04477,0 0,-0.7173 0,-0.71729 2.63158,0 2.63159,0 0.17282,-0.17341 0.17282,-0.17342 0,-15.11054 0,-15.110562 1.07227,-0.002 1.072266,-0.002 0.16153,-0.10251 0.16153,-0.10251 0.0781,-0.86139 c 0.0429,-0.47377 0.0816,-1.51938 0.0859,-2.32358 l 0.008,-1.46219 -0.61872,0 -0.61872,0 0.0477,1.93119 0.0477,1.93118 -1.070736,0 -1.07073,0 -0.17282,0.17342 -0.17282,0.17341 0,15.110542 0,15.11055 -2.30951,0 -2.30951,0 0,-0.71729 0,-0.7173 -1.04477,0 -1.04478,0 0,1.93119 0,1.93118 1.04478,0 z m 34.532626,-2.31742 2.3645,0 0,-2.04154 0,-2.04154 2.30951,0 2.3095,0 0,-14.60424 0,-14.604232 -2.49224,-0.0728 c -1.37074,-0.04 -4.3401,-0.0728 -6.59859,-0.0728 l -4.10635,0 0,-0.55177 0,-0.55177 -0.60487,0 -0.60487,0 0,1.60013 0,1.60012 0.60487,0 0.60487,0 0,-0.55177 0,-0.55176 5.49883,0 5.49882,0 0,12.911362 0,12.91136 -2.96936,0 -2.96937,0 0,0.938 0,0.93801 -0.60487,0 -0.60487,0 0,2.3726 0,2.3726 2.36449,0 z m -0.022,-0.99359 -0.3079,0 -0.35209,-0.21541 -0.35208,-0.21542 -0.17031,-0.33046 -0.17029,-0.33046 0,-0.30895 0,-0.30895 0.21467,-0.3533 0.21469,-0.35329 0.32932,-0.17089 0.32934,-0.17088 0.28586,0 0.28586,0 0.32934,0.17088 0.32932,0.17089 0.21469,0.35329 0.21467,0.3533 0,0.33106 0,0.33106 -0.21467,0.35329 -0.21469,0.35329 -0.32932,0.17089 -0.32934,0.17089 -0.30789,0 z m 23.88694,-0.77207 2.3645,0 0,-2.3726 0,-2.3726 -2.3645,0 -2.36449,0 0,0.60695 0,0.60694 -1.15475,0 -1.15476,0 0,-16.16679 0,-16.166792 -9.32051,-2.2e-4 -9.32051,-2.2e-4 -2.39199,-0.0725 -2.39199,-0.0725 0,0.59903 0,0.59904 10.61273,-0.0426 10.61274,-0.0426 0,16.165862 0,16.16586 0.0684,0.34329 0.0684,0.34329 0.27651,0.27745 0.2765,0.27745 1.9096,0 1.90959,0 0,0.66212 0,0.66212 2.36449,0 z m -0.022,-0.99359 -0.3079,0 -0.35209,-0.21541 -0.35208,-0.21542 -0.17031,-0.33045 -0.1703,-0.33047 0,-0.30894 0,-0.30896 0.21467,-0.3533 0.21469,-0.35328 0.32932,-0.1709 0.32934,-0.17088 0.28586,0 0.28586,0 0.32934,0.17088 0.32932,0.1709 0.21469,0.35328 0.21467,0.3533 0,0.33106 0,0.33106 -0.21467,0.3533 -0.21469,0.35328 -0.32932,0.1709 -0.32934,0.17088 -0.30789,0 z m 8.82015,0.99359 2.36449,0 0,-2.3726 0,-2.3726 -0.64738,0 -0.64738,0 -0.0447,-1.9036 -0.0447,-1.90359 -0.14901,-0.23196 c -0.082,-0.12758 -0.25303,-0.30138 -0.38018,-0.38623 l -0.23116,-0.15429 -3.82168,-0.0341 -3.82169,-0.0341 0,-14.11873 0,-14.118732 -12.34487,-2.2e-4 -12.34486,-2.3e-4 -2.39199,-0.0725 -2.39199,-0.0725 -2e-5,0.59693 -1e-5,0.59692 13.63711,-0.0383 13.6371,-0.0383 0,14.122172 0,14.12218 0.0684,0.34329 0.0684,0.34328 0.27651,0.27745 0.2765,0.27745 3.88918,0 3.88917,0 0,1.21389 0,1.21389 -0.60488,0 -0.60487,0 0,2.3726 0,2.3726 2.3645,0 z m -0.022,-0.99359 -0.3079,0 -0.35209,-0.21541 -0.35208,-0.21542 -0.17031,-0.33045 -0.1703,-0.33047 0,-0.30894 0,-0.30896 0.21468,-0.3533 0.21468,-0.35328 0.32933,-0.1709 0.32933,-0.17088 0.28586,0 0.28587,0 0.32933,0.17088 0.32933,0.1709 0.21468,0.35328 0.21468,0.3533 0,0.33106 0,0.33106 -0.21468,0.3533 -0.21468,0.35328 -0.32933,0.1709 -0.32933,0.17088 -0.30789,0 z m 8.82015,0.99359 2.3645,0 0,-2.3726 0,-2.3726 -0.60487,0 -0.60487,0 0,-4.45426 0,-4.45428 -0.27567,-0.27661 -0.27567,-0.27661 -0.41168,-0.0683 -0.41169,-0.0683 -4.86646,-10e-4 -4.86646,-0.001 0,-12.525133 0,-12.525119 -15.4792,-2.2e-4 -15.4792,-2.2e-4 -2.39199,-0.0725 -2.39199,-0.0725 -2e-5,0.59693 -1e-5,0.59693 16.77144,-0.0367 16.77143,-0.0367 0,12.520432 0,12.52043 0.0684,0.34329 0.0684,0.34329 0.2765,0.27745 0.2765,0.27745 5.2089,0 5.20889,0 0,3.69684 0,3.69684 -0.65986,0 -0.65986,0 0,2.3726 0,2.3726 2.36449,0 z m -0.022,-0.99359 -0.3079,0 -0.35209,-0.21541 -0.35208,-0.21542 -0.17031,-0.33045 -0.17029,-0.33047 0,-0.30894 0,-0.30896 0.21467,-0.3533 0.21469,-0.35328 0.32932,-0.1709 0.32934,-0.17088 0.28586,0 0.28586,0 0.32934,0.17088 0.32932,0.1709 0.21469,0.35328 0.21467,0.3533 0,0.33106 0,0.33106 -0.21467,0.3533 -0.21469,0.35328 -0.32932,0.1709 -0.32934,0.17088 -0.30789,0 z m 8.82016,0.99359 2.36449,0 0,-2.3726 0,-2.3726 -0.65986,0 -0.65986,0 0,-6.4958 0,-6.49582 -0.27566,-0.27661 -0.27567,-0.27661 -0.41169,-0.0683 -0.41168,-0.0683 -6.79105,-0.001 -6.79106,-10e-4 0,-11.311242 0,-11.31123 -17.89868,-2.2e-4 -17.89868,-2.2e-4 -2.39199,-0.0725 -2.39199,-0.0725 -2e-5,0.59693 -10e-6,0.59693 19.19092,-0.0357 19.19092,-0.0357 0,11.30558 0,11.305582 0.0684,0.34329 0.0684,0.34328 0.2765,0.27746 0.2765,0.27745 7.13349,0 7.13347,0 0,5.73838 0,5.73838 -0.60487,0 -0.60487,0 0,2.3726 0,2.3726 2.3645,0 z m -0.022,-0.99359 -0.3079,0 -0.35209,-0.21541 -0.35208,-0.21542 -0.17031,-0.33045 -0.1703,-0.33047 0,-0.30894 0,-0.30896 0.21467,-0.3533 0.21469,-0.35328 0.32932,-0.1709 0.32934,-0.17088 0.28586,0 0.28586,0 0.32934,0.17088 0.32932,0.1709 0.21469,0.35328 0.21467,0.3533 0,0.33106 0,0.33106 -0.21467,0.3533 -0.21469,0.35328 -0.32932,0.1709 -0.32934,0.17088 -0.30789,0 z m 8.82015,0.99359 2.3645,0 0,-2.3726 0,-2.3726 -0.65986,0 -0.65986,0 0,-8.75805 0,-8.75806 -0.27567,-0.27661 -0.27567,-0.27661 -0.41168,-0.0683 -0.41169,-0.0683 -8.05578,-0.001 -8.05578,-10e-4 0,-9.931812 0,-9.93182 -21.03302,-2.2e-4 -21.03301,-2.2e-4 -2.39199,-0.0725 -2.39199,-0.0725 -2e-5,0.59693 -1e-5,0.59693 22.32525,-0.0347 22.32526,-0.0347 0,9.92518 0,9.925182 0.0684,0.34328 0.0684,0.34329 0.2765,0.27745 0.27651,0.27745 8.39821,0 8.39821,0 0,8.00063 0,8.00063 -0.60487,0 -0.60487,0 0,2.3726 0,2.3726 2.36449,0 z m -0.022,-0.99359 -0.3079,0 -0.35209,-0.21541 -0.35208,-0.21542 -0.17031,-0.33045 -0.1703,-0.33047 0,-0.30894 0,-0.30896 0.21468,-0.3533 0.21468,-0.35328 0.32933,-0.1709 0.32933,-0.17088 0.28587,0 0.28586,0 0.32933,0.17088 0.32933,0.1709 0.21468,0.35328 0.21468,0.3533 0,0.33106 0,0.33106 -0.21468,0.3533 -0.21468,0.35328 -0.32933,0.1709 -0.32933,0.17088 -0.30789,0 z m 8.82016,0.99359 2.36449,0 0,-2.3726 0,-2.3726 -0.65986,0 -0.65986,0 0,-11.13065 0,-11.130663 -0.27566,-0.27661 -0.27567,-0.276609 -0.41169,-0.0683 -0.41168,-0.0683 -9.70543,-10e-4 -9.70544,-0.001 0,-9.26969 0,-9.2697 -23.78242,-2.2e-4 -23.78243,-2.2e-4 -2.39199,-0.0725 -2.39199,-0.0725 -2e-5,0.59693 -1e-5,0.59693 25.07467,-0.034 25.07466,-0.0341 0,9.26237 0,9.262369 0.0684,0.343283 0.0684,0.34329 0.2765,0.27745 0.2765,0.27745 10.04787,0 10.04785,0 0,10.37323 0,10.37323 -0.60487,0 -0.60487,0 0,2.3726 0,2.3726 2.3645,0 z m -0.022,-0.99359 -0.3079,0 -0.35209,-0.21541 -0.35208,-0.21542 -0.17031,-0.33045 -0.1703,-0.33047 0,-0.30894 0,-0.30896 0.21467,-0.3533 0.21469,-0.35328 0.32932,-0.1709 0.32934,-0.17088 0.28586,0 0.28586,0 0.32934,0.17088 0.32932,0.1709 0.21469,0.35328 0.21467,0.3533 0,0.33106 0,0.33106 -0.21467,0.3533 -0.21469,0.35328 -0.32932,0.1709 -0.32934,0.17088 -0.30789,0 z m 8.82015,0.99359 2.3645,0 0,-2.3726 0,-2.3726 -0.65986,0 -0.65986,0 0,-13.44808 0,-13.448082 -0.27567,-0.27661 -0.27567,-0.27661 -0.41168,-0.0683 -0.41169,-0.0683 -11.30009,-10e-4 -11.30009,-0.001 0,-7.83509 0,-7.8351 -26.58683,-2.2e-4 -26.58683,-2.2e-4 -2.39199,-0.0725 -2.39199,-0.0725 -2e-5,0.59693 -10e-6,0.59693 27.87907,-0.0335 27.87907,-0.0335 0,7.82719 0,7.82719 0.0684,0.34329 0.0684,0.34328 0.2765,0.27745 0.27651,0.27746 11.64252,0 11.64252,0 0,12.690652 0,12.69065 -0.60488,0 -0.60487,0 0,2.3726 0,2.3726 2.3645,0 z m -0.022,-0.99359 -0.3079,0 -0.35209,-0.21541 -0.35208,-0.21542 -0.17031,-0.33045 -0.1703,-0.33047 0,-0.30894 0,-0.30896 0.21468,-0.3533 0.21468,-0.35328 0.32933,-0.1709 0.32933,-0.17088 0.28586,0 0.28587,0 0.32933,0.17088 0.32933,0.1709 0.21468,0.35328 0.21468,0.3533 0,0.33106 0,0.33106 -0.21468,0.3533 -0.21468,0.35328 -0.32933,0.1709 -0.32933,0.17088 -0.30789,0 z m 8.82015,0.99359 2.3645,0 0,-2.3726 0,-2.3726 -0.65986,0 -0.65986,0 0,-15.5448 0,-15.544792 -0.27567,-0.27661 -0.27566,-0.27661 -0.41169,-0.0683 -0.41169,-0.0683 -13.27966,-0.001 -13.27967,-0.001 0,-6.62121 0,-6.62121 -29.00632,-2.2e-4 -29.00631,-2.2e-4 -2.39199,-0.0725 -2.39199,-0.0725 -2e-5,0.59693 -1e-5,0.59693 30.29855,-0.0331 30.29856,-0.033 0,6.61288 0,6.61287 0.0684,0.34329 0.0684,0.34329 0.2765,0.27745 0.27651,0.27745 13.6221,0 13.62209,0 0,14.787372 0,14.78737 -0.60487,0 -0.60487,0 0,2.3726 0,2.3726 2.36449,0 z m -0.022,-0.99359 -0.30791,0 -0.35209,-0.21541 -0.35207,-0.21542 -0.17031,-0.33045 -0.1703,-0.33047 0,-0.30894 0,-0.30896 0.21467,-0.3533 0.21469,-0.35328 0.32932,-0.1709 0.32934,-0.17088 0.28586,0 0.28586,0 0.32934,0.17088 0.32932,0.1709 0.21469,0.35328 0.21467,0.3533 0,0.33106 0,0.33106 -0.21467,0.3533 -0.21469,0.35328 -0.32932,0.1709 -0.32934,0.17088 -0.30789,0 z m -119.962386,-0.99277 1.04477,0 0,-0.99318 0,-0.99318 1.1469,0 1.1469,0 0.17282,-0.17341 0.17282,-0.17342 0,-15.2209 0,-15.220902 1.20974,0 1.20974,0 0,-0.60695 0,-0.60694 -1.577,0 -1.57701,0 -0.12763,0.28107 -0.12763,0.28108 0,15.223592 0,15.22359 -0.82482,0 -0.82483,0 0,-0.66212 0,-0.66212 -1.04477,0 -1.04478,0 0,2.1519 0,2.15189 1.04478,0 z m -47.78482,-3.31061 4.49333,0 0.17282,-0.17341 0.17282,-0.17342 0,-4.40625 0,-4.40626 0.71485,0 0.71485,0 0,-2.81401 0,-2.81402 -0.71485,0 -0.71485,0 0,-2.04154 0,-2.04154 0.87981,0 0.87982,0 0,-2.814013 0,-2.814009 -0.87982,0 -0.87981,0 0,-1.21389 0,-1.21389 0.82483,0 0.82482,0 0,-2.81402 0,-2.81401 -0.82482,0 -0.82483,0 0,-1.6553 0,-1.65531 0.76984,0 0.76983,0 0,-2.81401 0,-2.81401 -0.76983,0 -0.76984,0 0,-1.71048 0,-1.71048 0.76984,0 0.76983,0 0,-2.81402 0,-2.81401 -0.76983,0 -0.76984,0 0,-2.04154 0,-2.04154 0.71485,0 0.71485,0 0,-2.81402 0,-2.81401 -0.71485,0 -0.71485,0 0,-1.87601 0,-1.87601 0.65986,0 0.65986,0 0,-2.81401 0,-2.81402 -0.65986,0 -0.65986,0 0,-1.54495 0,-1.54495 0.76984,0 0.76983,0 0,-2.81401 0,-2.81402 -0.76983,0 -0.76984,0 0,-0.76459 0,-0.76459 -0.17282,-0.17341 -0.17282,-0.17342 -4.49333,0 -4.49332,0 -0.17282,0.17342 -0.17282,0.17341 0,39.76667 0,39.766672 0.17282,0.17342 0.17282,0.17341 4.49332,0 z m -0.18892,-1.2182 c -0.16829,-0.002 -0.45689,-0.0703 -0.64135,-0.15091 l -0.33538,-0.14658 -0.29261,-0.34894 -0.29261,-0.34894 -0.07,-0.37436 -0.07,-0.37436 0.0762,-0.34788 0.0761,-0.34789 0.3296,-0.37667 0.3296,-0.37668 0.4191,-0.12599 0.41909,-0.126 0.39788,0.0749 0.39788,0.0749 0.38121,0.33586 0.3812,0.33585 0.12557,0.42054 0.12556,0.42053 -0.0736,0.39363 -0.0736,0.39363 -0.29293,0.34932 -0.29292,0.34931 -0.35903,0.15053 -0.35902,0.15053 -0.30597,-0.004 z m 82.506366,-0.54745 2.3645,0 0,-2.3726 0,-2.3726 -2.3645,0 -2.36449,0 0,2.3726 0,2.3726 2.36449,0 z m -0.022,-0.99359 -0.3079,0 -0.35209,-0.21541 -0.35208,-0.21542 -0.17031,-0.33046 -0.17029,-0.33046 0,-0.30895 0,-0.30895 0.21467,-0.3533 0.21469,-0.35329 0.32932,-0.17089 0.32934,-0.17088 0.28586,0 0.28586,0 0.32934,0.17088 0.32932,0.17089 0.21469,0.35329 0.21467,0.3533 0,0.33106 0,0.33106 -0.21467,0.35329 -0.21469,0.35329 -0.32932,0.17089 -0.32934,0.17089 -0.30789,0 z m -34.510596,-0.44101 1.04477,0 0,-1.93118 0,-1.93119 -0.32993,0 -0.32993,0 0,-12.14823 0,-12.148232 2.85939,0.0802 2.85939,0.0802 0,-0.62259 0,-0.62259 -0.79733,2.2e-4 c -0.43853,1.1e-4 -1.8782,0.033 -3.19927,0.0731 l -2.40195,0.0728 -0.15501,0.15553 -0.15501,0.15554 0,12.462072 0,12.46206 -0.21995,0 -0.21995,0 0,1.93119 0,1.93118 1.04478,0 z m 46.300116,-0.44141 2.3645,0 0,-2.3726 0,-2.3726 -2.3645,0 -2.36449,0 0,2.3726 0,2.3726 2.36449,0 z m -0.022,-0.99359 -0.30791,0 -0.35209,-0.21541 -0.35207,-0.21542 -0.17031,-0.33046 -0.1703,-0.33046 0,-0.30895 0,-0.30895 0.21467,-0.3533 0.21469,-0.35329 0.32932,-0.17089 0.32934,-0.17088 0.28586,0 0.28586,0 0.32934,0.17088 0.32932,0.17089 0.21469,0.35329 0.21467,0.3533 0,0.33106 0,0.33106 -0.21467,0.35329 -0.21469,0.35329 -0.32932,0.17089 -0.32934,0.17089 -0.30789,0 z m -83.450176,-4.52409 2.25452,0 0,-1.21389 0,-1.21388 3.95916,0 3.95915,0 0,0.66212 0,0.66212 2.3645,0 2.36449,0 0,-0.7173 0,-0.7173 7.86333,0 7.86332,0 0,-10.721372 0,-10.72137 6.32365,0.0622 6.32365,0.0622 0,-0.59688 0,-0.59688 -6.60359,0 -6.60359,0 -0.26994,0.27086 -0.26994,0.27087 0,9.88166 0,9.881652 -7.31345,0 -7.31344,0 0,-0.55177 0,-0.55176 -2.36449,0 -2.3645,0 0,0.60694 0,0.60695 -3.95915,0 -3.95916,0 0,-0.4966 0,-0.49659 -2.25452,0 -2.25452,0 0,2.81402 0,2.81401 2.25452,0 z m 12.5153,-2.09713 -0.3079,-4.4e-4 -0.35209,-0.21541 -0.35208,-0.21542 -0.1703,-0.33046 -0.17031,-0.33046 4.4e-4,-0.30895 4.4e-4,-0.30895 0.21468,-0.35329 0.21468,-0.35329 0.32933,-0.17089 0.32933,-0.17089 0.28587,0 0.28586,0 0.32933,0.17089 0.32933,0.17089 0.21468,0.35329 0.21468,0.35329 0,0.33106 0,0.33106 -0.21468,0.35329 -0.21468,0.35329 -0.32933,0.17089 -0.32933,0.17089 -0.3079,-4.4e-4 z m 59.189406,1.87643 2.3645,0 0,-2.3726 0,-2.37261 -2.3645,0 -2.36449,0 0,2.37261 0,2.3726 2.36449,0 z m -0.022,-0.99359 -0.3079,0 -0.35209,-0.21541 -0.35208,-0.21542 -0.17031,-0.33046 -0.17029,-0.33046 0,-0.30895 0,-0.30896 0.21467,-0.35329 0.21469,-0.35329 0.32932,-0.17089 0.32934,-0.17088 0.28586,0 0.28586,0 0.32934,0.17088 0.32932,0.17089 0.21469,0.35329 0.21467,0.35329 0,0.33106 0,0.33107 -0.21467,0.35329 -0.21469,0.35329 -0.32932,0.17089 -0.32934,0.17088 -0.30789,0 z m 0.022,-7.83469 2.3645,0 0,-2.37261 0,-2.372602 -2.3645,0 -2.36449,0 0,0.7173 0,0.717299 -2.8044,0 -2.80441,0 0,-2.979539 0,-2.97955 -0.60487,0 -0.60487,0 0,1.60013 0,1.60012 0.16497,0 0.16496,0 0,1.7026 0,1.702602 0.17282,0.17341 0.17283,0.17341 3.07148,0 3.07149,0 0,1.15871 0,1.15872 2.36449,0 z m -0.022,-0.9936 -0.3079,-4.4e-4 -0.35209,-0.21542 -0.35208,-0.21541 -0.17031,-0.33046 -0.17029,-0.33046 0,-0.30895 0,-0.30895 0.21467,-0.353303 0.21469,-0.35329 0.32932,-0.17088 0.32934,-0.17089 0.28586,0 0.28586,0 0.32934,0.17089 0.32932,0.17088 0.21469,0.35329 0.21467,0.353303 0,0.33106 0,0.33106 -0.21467,0.35329 -0.21469,0.35329 -0.32932,0.17089 -0.32934,0.17088 -0.30789,-4.4e-4 z m -71.462726,0.33147 2.25452,0 0,-0.71729 0,-0.7173 3.84918,0 3.84918,0 0,0.60694 0,0.60695 2.3645,0 2.36449,0 0,-0.60695 0,-0.60694 5.77377,0 5.77377,0 0,-7.243062 0,-7.24306 8.41321,0.051 8.4132,0.051 0,-0.58783 0,-0.58783 -8.69314,0 -8.69315,0 -0.26994,0.27087 -0.26994,0.27087 0,6.40552 0,6.40552 -5.22389,0 -5.22389,0 0,-0.66212 0,-0.66212 -2.36449,0 -2.3645,0 0,0.66212 0,0.66212 -3.84918,0 -3.84918,0 0,-0.99318 0,-0.99318 -2.25452,0 -2.25452,0 0,2.814009 0,2.814013 2.25452,0 z m 12.29535,-1.2143 -0.3079,-4.4e-4 -0.35209,-0.21541 -0.35208,-0.21542 -0.1703,-0.33046 -0.17031,-0.330463 4.4e-4,-0.30895 4.4e-4,-0.30895 0.21468,-0.353289 0.21468,-0.3533 0.32933,-0.17088 0.32933,-0.17089 0.28587,0 0.28586,0 0.32933,0.17089 0.32933,0.17088 0.21468,0.3533 0.21468,0.353289 0,0.33106 0,0.331063 -0.21468,0.35329 -0.21468,0.35329 -0.32933,0.17089 -0.32933,0.17089 -0.3079,-4.4e-4 z m 43.682716,-4.193022 0.60487,0 0,-1.60012 0,-1.60013 -0.10998,0 -0.10997,0 0,-1.32424 0,-1.32424 -0.38492,0 -0.38492,0 0,-8.88346 0,-8.88346 -5.47133,-2.2e-4 c -3.00924,-1.1e-4 -6.547726,-0.0329 -7.863326,-0.0727 l -2.39199,-0.0725 0,0.64208 0,0.64208 2.41949,-0.073 2.41948,-0.073 0,9.15961 0,9.15961 5.333866,0 5.33386,0 0,2.15189 0,2.15189 0.60487,0 z m -5.08095,-8.05622 -0.3079,-4.4e-4 -0.35209,-0.21541 -0.35208,-0.21542 -0.1703,-0.33046 -0.17031,-0.33046 4.4e-4,-0.30895 4.4e-4,-0.30895 0.21468,-0.35329 0.21468,-0.35329 0.32933,-0.17089 0.32933,-0.17089 0.28586,0 0.28587,0 0.32933,0.17089 0.32933,0.17089 0.21468,0.35329 0.21468,0.35329 0,0.33106 0,0.33106 -0.21468,0.35329 -0.21468,0.35329 -0.32933,0.17089 -0.32933,0.17089 -0.3079,-4.4e-4 z m 6.88559,8.05622 0.59488,0 -0.0722,-2.40019 -0.0722,-2.40019 0,-10.29046 0,-10.29046 -2.47448,0 -2.47447,0 0,-1.04836 0,-1.04836 0.82483,0 0.82482,0 0,-1.60013 0,-1.60012 -1.50155,0 -1.50155,0 0.0774,2.64848 0.0774,2.64849 -4.34962,0 -4.350156,0 0,-12.82149 0,-12.82148 -0.23912,-0.25541 -0.23912,-0.25541 -3.77502,0 -3.77502,0 0,1.82084 0,1.82083 0.10997,0 0.10998,0 0,11.81048 0,11.81047 10.392776,-0.0759 10.39279,-0.0759 0,0.29396 0,0.29395 0.45175,0 0.45175,0 -0.0393,11.91819 -0.0393,11.91818 0.5949,-10e-6 z M 94.686874,49.979308 c -0.16828,-0.002 -0.45689,-0.0703 -0.64135,-0.1509 l -0.33538,-0.14659 -0.29261,-0.34893 -0.29261,-0.34894 -0.07,-0.37436 -0.07,-0.37436 0.0761,-0.34789 0.0762,-0.34788 0.32959,-0.37668 0.3296,-0.37667 0.4191,-0.126 0.4191,-0.12599 0.39788,0.0749 0.39787,0.0749 0.38121,0.33585 0.38121,0.33586 0.12556,0.42053 0.12557,0.42054 -0.0736,0.39363 -0.0736,0.39363 -0.29292,0.34932 -0.29293,0.34931 -0.35902,0.15053 -0.35903,0.15052 -0.30597,-0.004 z m -39.5676,44.25608 2.25452,0 0,-1.21389 0,-1.21389 3.84918,0 3.84918,0 0,0.7173 0,0.7173 2.3645,0 2.36449,0 0,-0.71604 0,-0.71603 4.37157,-0.0289 4.37157,-0.0289 0.029,-3.57247 0.029,-3.57248 9.78637,0.0454 9.78637,0.0454 0,-0.58357 0,-0.58357 -10.06785,0 -10.06785,0 -0.26994,0.27087 -0.26995,0.27086 0,2.76386 0,2.76385 -3.84918,0 -3.84918,0 0,-0.55177 0,-0.55176 -2.36449,0 -2.3645,0 0,0.55176 0,0.55177 -3.84918,0 -3.84918,0 0,-0.49659 0,-0.49659 -2.25452,0 -2.25452,0 0,2.81401 0,2.81402 2.25452,0 z m 12.29535,-1.98678 -0.3079,-4.4e-4 -0.35209,-0.21541 -0.35208,-0.21542 -0.1703,-0.33046 -0.17031,-0.33046 4.4e-4,-0.30895 4.4e-4,-0.30895 0.21468,-0.35329 0.21468,-0.3533 0.32933,-0.17088 0.32933,-0.17089 0.28587,0 0.28586,0 0.32933,0.17089 0.32933,0.17088 0.21468,0.3533 0.21468,0.35329 0,0.33106 0,0.33106 -0.21468,0.35329 -0.21468,0.35329 -0.32933,0.17089 -0.32933,0.17089 -0.3079,-4.5e-4 z m 121.766066,-5.51726 0.71485,0 0,-0.11035 0,-0.11036 1.73213,-9.9e-4 c 0.95267,-5.5e-4 1.99195,-0.0323 2.30951,-0.0706 l 0.57737,-0.0696 0,-33.25565 0,-33.25566 -2.3095,0.0722 -2.30951,0.0722 0,-0.1279 0,-0.1279 -0.71485,0 -0.71485,0 0,7.90493 0,7.90493 -12.86725,-0.0497 -12.86726,-0.0498 0,0.16048 0,0.16049 -12.31737,-0.0514 -12.31738,-0.0514 0,2.35381 0,2.3538 0.27494,0 0.27495,0 0,2.04154 0,2.04154 -0.27495,0 -0.27494,0 0,2.3726 0,2.3726 2.3645,0 2.36449,0 0,-2.3726 0,-2.3726 -0.27494,0 -0.27494,0 0,-2.04154 0,-2.04154 0.27494,0 0.27494,0 0,-0.49659 0,-0.49659 9.95288,0 9.95288,0 0,0.36616 0,0.36615 12.86726,-0.0498 12.86725,-0.0498 0,23.35442 0,23.35443 0.71485,0 z m 2.1775,-1.2143 -0.3079,-4.4e-4 -0.35209,-0.21542 -0.35208,-0.21541 -0.17031,-0.33046 -0.17029,-0.33046 0,-0.30895 0,-0.30896 0.21467,-0.35329 0.21468,-0.35329 0.32933,-0.17089 0.32934,-0.17089 0.28586,0 0.28586,0 0.32934,0.17089 0.32932,0.17089 0.21469,0.35329 0.21467,0.35329 0,0.33106 0,0.33106 -0.21467,0.3533 -0.21469,0.35329 -0.32932,0.17088 -0.32934,0.17089 -0.30789,-4.4e-4 z m 0,-8.82828 -0.3079,-4.4e-4 -0.35209,-0.21542 -0.35208,-0.21541 -0.17031,-0.33046 -0.17029,-0.33046 0,-0.30896 0,-0.30895 0.21467,-0.35329 0.21468,-0.35329 0.32933,-0.17089 0.32934,-0.17089 0.28586,0 0.28586,0 0.32934,0.17089 0.32932,0.17089 0.21469,0.35329 0.21467,0.35329 0,0.33106 0,0.33106 -0.21467,0.35329 -0.21469,0.3533 -0.32932,0.17088 -0.32934,0.17089 -0.30789,-4.4e-4 z m 0,-8.82828 -0.3079,-4.4e-4 -0.35209,-0.21542 -0.35208,-0.21541 -0.17031,-0.33046 -0.17029,-0.33046 0,-0.30896 0,-0.30895 0.21467,-0.35329 0.21468,-0.35329 0.32933,-0.17089 0.32934,-0.17089 0.28586,0 0.28586,0 0.32934,0.17089 0.32932,0.17089 0.21469,0.35329 0.21467,0.35329 0,0.33106 0,0.33106 -0.21467,0.35329 -0.21469,0.3533 -0.32932,0.17088 -0.32934,0.17089 -0.30789,-4.4e-4 z m 0,-8.82828 -0.3079,-4.4e-4 -0.35209,-0.21542 -0.35208,-0.21541 -0.17031,-0.33046 -0.17029,-0.33046 0,-0.30896 0,-0.30895 0.21467,-0.35329 0.21468,-0.35329 0.32933,-0.17089 0.32934,-0.17089 0.28586,0 0.28586,0 0.32934,0.17089 0.32932,0.17089 0.21469,0.35329 0.21467,0.35329 0,0.33106 0,0.33106 -0.21467,0.35329 -0.21469,0.35329 -0.32932,0.17089 -0.32934,0.17089 -0.30789,-4.4e-4 z m 0,-8.82828 -0.3079,-4.5e-4 -0.35209,-0.21541 -0.35208,-0.21541 -0.17031,-0.33046 -0.17029,-0.33046 0,-0.30896 0,-0.30895 0.21467,-0.35329 0.21468,-0.35329 0.32933,-0.17089 0.32934,-0.17089 0.28586,0 0.28586,0 0.32934,0.17089 0.32932,0.17089 0.21469,0.35329 0.21467,0.35329 0,0.33106 0,0.33106 -0.21467,0.35329 -0.21469,0.35329 -0.32932,0.17089 -0.32934,0.17089 -0.30789,-4.4e-4 z m -50.91914,-1.98637 -0.3079,-4.4e-4 -0.35209,-0.21541 -0.35208,-0.21542 -0.17031,-0.33046 -0.1703,-0.33046 0,-0.30895 0,-0.30895 0.21468,-0.35329 0.21468,-0.35329 0.32933,-0.17089 0.32933,-0.17089 0.28586,0 0.28587,0 0.32933,0.17089 0.32933,0.17089 0.21468,0.35329 0.21468,0.35329 0,0.33106 0,0.33106 -0.21468,0.35329 -0.21468,0.35329 -0.32933,0.17089 -0.32933,0.17089 -0.30789,-4.4e-4 z m 50.91914,-6.84191 -0.3079,-4.5e-4 -0.35209,-0.21541 -0.35208,-0.21541 -0.17031,-0.33047 -0.17029,-0.33046 0,-0.30895 0,-0.30895 0.21467,-0.35329 0.21468,-0.35329 0.32933,-0.17089 0.32934,-0.17089 0.28586,0 0.28586,0 0.32934,0.17089 0.32932,0.17089 0.21469,0.35329 0.21467,0.35329 0,0.33106 0,0.33106 -0.21467,0.35329 -0.21469,0.35329 -0.32932,0.17089 -0.32934,0.17089 -0.30789,-4.4e-4 z m -50.91914,-1.98637 -0.3079,-4.4e-4 -0.35209,-0.21541 -0.35208,-0.21542 -0.17031,-0.33046 -0.1703,-0.33046 0,-0.30895 0,-0.30895 0.21468,-0.35329 0.21468,-0.3533 0.32933,-0.17088 0.32933,-0.17089 0.28586,0 0.28587,0 0.32933,0.17089 0.32933,0.17088 0.21468,0.3533 0.21468,0.35329 0,0.33106 0,0.33106 -0.21468,0.35329 -0.21468,0.35329 -0.32933,0.17089 -0.32933,0.17089 -0.30789,-4.5e-4 z m 24.63475,-0.2207 -0.3079,-4.5e-4 -0.35209,-0.21541 -0.35208,-0.21541 -0.17031,-0.33047 -0.1703,-0.33046 0,-0.30895 0,-0.30895 0.21467,-0.35329 0.21469,-0.35329 0.32932,-0.17089 0.32934,-0.17089 0.28586,0 0.28586,0 0.32934,0.17089 0.32932,0.17089 0.21469,0.35329 0.21467,0.35329 0,0.33106 0,0.33106 -0.21467,0.35329 -0.21469,0.35329 -0.32932,0.17089 -0.32934,0.17089 -0.30789,-4.4e-4 z m 26.28439,-6.62122 -0.3079,-4.4e-4 -0.35209,-0.21541 -0.35208,-0.21541 -0.17031,-0.33047 -0.17029,-0.33046 0,-0.30895 0,-0.30895 0.21467,-0.35329 0.21468,-0.35329 0.32933,-0.17089 0.32934,-0.17089 0.28586,0 0.28586,0 0.32934,0.17089 0.32932,0.17089 0.21469,0.35329 0.21467,0.35329 0,0.33106 0,0.33106 -0.21467,0.35329 -0.21469,0.35329 -0.32932,0.17089 -0.32934,0.17089 -0.30789,-4.4e-4 z m 0,-8.82828 -0.3079,-4.4e-4 -0.35209,-0.21541 -0.35208,-0.21541 -0.17031,-0.33047 -0.17029,-0.33046 0,-0.30895 0,-0.30895 0.21467,-0.35329 0.21468,-0.35329 0.32933,-0.17089 0.32934,-0.17089 0.28586,0 0.28586,0 0.32934,0.17089 0.32932,0.17089 0.21469,0.35329 0.21467,0.35329 0,0.33106 0,0.33106 -0.21467,0.35329 -0.21469,0.35329 -0.32932,0.17089 -0.32934,0.17089 -0.30789,-4.4e-4 z m 20.76479,62.65584 0.61704,0.0254 0.0693,-0.57936 0.0694,-0.57935 0.001,-37.9892 8.2e-4,-37.9891905 -3.13433,0 -3.13434,0 0,38.5112605 0,38.51126 2.44698,0.0319 c 1.34584,0.0176 2.72465,0.0433 3.06403,0.0573 z m -2.3987,-0.85787 -0.3079,-4.4e-4 -0.35209,-0.21542 -0.35208,-0.21541 -0.17031,-0.33046 -0.1703,-0.33046 0,-0.30895 0,-0.30896 0.21467,-0.35329 0.21469,-0.35329 0.32932,-0.17089 0.32934,-0.17089 0.28586,0 0.28586,0 0.32934,0.17089 0.32932,0.17089 0.21469,0.35329 0.21467,0.35329 0,0.33106 0,0.33106 -0.21467,0.3533 -0.21469,0.35329 -0.32932,0.17088 -0.32934,0.17089 -0.30789,-4.4e-4 z m 0,-8.82828 -0.3079,-4.4e-4 -0.35209,-0.21542 -0.35208,-0.21541 -0.17031,-0.33046 -0.1703,-0.33046 0,-0.30896 0,-0.30895 0.21467,-0.35329 0.21469,-0.35329 0.32932,-0.17089 0.32934,-0.17089 0.28586,0 0.28586,0 0.32934,0.17089 0.32932,0.17089 0.21469,0.35329 0.21467,0.35329 0,0.33106 0,0.33106 -0.21467,0.35329 -0.21469,0.3533 -0.32932,0.17088 -0.32934,0.17089 -0.30789,-4.4e-4 z m 0,-8.82828 -0.3079,-4.4e-4 -0.35209,-0.21542 -0.35208,-0.21541 -0.17031,-0.33046 -0.1703,-0.33046 0,-0.30896 0,-0.30895 0.21467,-0.35329 0.21469,-0.35329 0.32932,-0.17089 0.32934,-0.17089 0.28586,0 0.28586,0 0.32934,0.17089 0.32932,0.17089 0.21469,0.35329 0.21467,0.35329 0,0.33106 0,0.33106 -0.21467,0.35329 -0.21469,0.3533 -0.32932,0.17088 -0.32934,0.17089 -0.30789,-4.4e-4 z m 0,-8.82828 -0.3079,-4.4e-4 -0.35209,-0.21542 -0.35208,-0.21541 -0.17031,-0.33046 -0.1703,-0.33046 0,-0.30896 0,-0.30895 0.21467,-0.35329 0.21469,-0.35329 0.32932,-0.17089 0.32934,-0.17089 0.28586,0 0.28586,0 0.32934,0.17089 0.32932,0.17089 0.21469,0.35329 0.21467,0.35329 0,0.33106 0,0.33106 -0.21467,0.35329 -0.21469,0.35329 -0.32932,0.17089 -0.32934,0.17089 -0.30789,-4.4e-4 z m 0,-8.82828 -0.3079,-4.5e-4 -0.35209,-0.21541 -0.35208,-0.21541 -0.17031,-0.33046 -0.1703,-0.33046 0,-0.30896 0,-0.30895 0.21467,-0.35329 0.21469,-0.35329 0.32932,-0.17089 0.32934,-0.17089 0.28586,0 0.28586,0 0.32934,0.17089 0.32932,0.17089 0.21469,0.35329 0.21467,0.35329 0,0.33106 0,0.33106 -0.21467,0.35329 -0.21469,0.35329 -0.32932,0.17089 -0.32934,0.17089 -0.30789,-4.4e-4 z m 0,-8.82828 -0.3079,-4.5e-4 -0.35209,-0.21541 -0.35208,-0.21541 -0.17031,-0.33047 -0.1703,-0.33046 0,-0.30895 0,-0.30895 0.21467,-0.35329 0.21469,-0.35329 0.32932,-0.17089 0.32934,-0.17089 0.28586,0 0.28586,0 0.32934,0.17089 0.32932,0.17089 0.21469,0.35329 0.21467,0.35329 0,0.33106 0,0.33106 -0.21467,0.35329 -0.21469,0.35329 -0.32932,0.17089 -0.32934,0.17089 -0.30789,-4.4e-4 z m 0,-8.82829 -0.3079,-4.4e-4 -0.35209,-0.21541 -0.35208,-0.21541 -0.17031,-0.33047 -0.1703,-0.33046 0,-0.30895 0,-0.30895 0.21467,-0.35329 0.21469,-0.35329 0.32932,-0.17089 0.32934,-0.17089 0.28586,0 0.28586,0 0.32934,0.17089 0.32932,0.17089 0.21469,0.35329 0.21467,0.35329 0,0.33106 0,0.33106 -0.21467,0.35329 -0.21469,0.35329 -0.32932,0.17089 -0.32934,0.17089 -0.30789,-4.4e-4 z m 0,-8.82828 -0.3079,-4.4e-4 -0.35209,-0.21541 -0.35208,-0.21541 -0.17031,-0.33047 -0.1703,-0.33046 0,-0.30895 0,-0.30895 0.21467,-0.35329 0.21469,-0.35329 0.32932,-0.17089 0.32934,-0.17089 0.28586,0 0.28586,0 0.32934,0.17089 0.32932,0.17089 0.21469,0.35329 0.21467,0.35329 0,0.33106 0,0.33106 -0.21467,0.35329 -0.21469,0.35329 -0.32932,0.17089 -0.32934,0.17089 -0.30789,-4.4e-4 z m -0.43991,-10.92499 -0.3079,-4.4e-4 -0.35209,-0.21542 -0.35208,-0.21541 -0.17031,-0.33046 -0.1703,-0.33046 0,-0.30896 0,-0.30895 0.21468,-0.35329 0.21468,-0.35329 0.32933,-0.17089 0.32933,-0.17089 0.28587,0 0.28586,0 0.32933,0.17089 0.32933,0.17089 0.21468,0.35329 0.21468,0.35329 0,0.33106 0,0.33106 -0.21468,0.35329 -0.21468,0.3533 -0.32933,0.17088 -0.32933,0.17089 -0.30789,-4.4e-4 z m -154.275066,72.50266 2.25452,0 0,-0.88282 0,-0.88283 3.90416,0 3.90417,0 0,0.44141 0,0.44142 2.3645,0 2.36449,0 0,-0.78288 0,-0.78287 14.18699,0.038 14.18699,0.038 -1e-5,-0.57935 -2e-5,-0.57936 -14.18697,0 -14.18698,0 0,-1.04836 0,-1.04835 -2.36449,0 -2.3645,0 0,0.82765 0,0.82765 -3.90417,0 -3.90416,0 0,-0.82765 0,-0.82765 -2.25452,0 -2.25452,0 0,2.81401 0,2.81401 2.25452,0 z m 12.40532,-1.87642 -0.3079,-4.4e-4 -0.35209,-0.21541 -0.35208,-0.21542 -0.1703,-0.33046 -0.17031,-0.33046 4.4e-4,-0.30895 4.4e-4,-0.30895 0.21468,-0.35329 0.21468,-0.3533 0.32933,-0.17088 0.32933,-0.17089 0.28587,0 0.28586,0 0.32933,0.17089 0.32933,0.17088 0.21468,0.3533 0.21468,0.35329 0,0.33106 0,0.33106 -0.21468,0.35329 -0.21468,0.35329 -0.32933,0.17089 -0.32933,0.17089 -0.3079,-4.5e-4 z m 56.577466,-0.46473 1.56717,0.0237 0,-0.62452 0,-0.62452 -2.3645,0.0714 -2.3645,0.0714 0,-5.40595 0,-5.40595 0.38492,0 0.38492,0 0,-0.33106 0,-0.33106 0.32993,0 0.32993,0 0,-24.55365 0,-24.55366 7.91831,0 7.91831,0 0,0.7173 0,0.7173 2.3645,0 2.36449,0 0,-2.3726 0,-2.37261 -2.36449,0 -2.3645,0 0,0.55177 0,0.55177 -8.06953,0 -8.06953,0 -0.34367,0.069 -0.34368,0.069 0,25.20198 0,25.20199 -0.16496,0 -0.16497,0 0,0.2207 0,0.22071 -0.54988,0 -0.54988,0 0,6.397 0,6.397 1.29222,0.0349 c 0.71072,0.0192 1.99745,0.0456 2.85939,0.0587 z m 16.44696,-61.22288 -0.3079,-4.4e-4 -0.35209,-0.21541 -0.35208,-0.21542 -0.17031,-0.33046 -0.1703,-0.33046 0,-0.30895 0,-0.30895 0.21468,-0.3533 0.21468,-0.35329 0.32933,-0.17088 0.32933,-0.17089 0.28586,0 0.28587,0 0.32933,0.17089 0.32933,0.17088 0.21468,0.35329 0.21468,0.3533 0,0.33106 0,0.33106 -0.21468,0.35329 -0.21468,0.35329 -0.32933,0.17089 -0.32933,0.17089 -0.30789,-4.5e-4 z m -43.831116,59.56441 1.56716,0.0269 0,-0.60695 0,-0.60694 -9.78791,0 -9.78791,0 0,-3.90311 0,-3.90311 -0.41241,-0.0684 -0.41242,-0.0684 -3.98665,-0.001 -3.98665,-10e-4 0,-0.66212 0,-0.66213 -2.36449,0 -2.3645,0 0,0.88283 0,0.88283 -3.90417,0 -3.90416,0 0,-0.99318 0,-0.99318 -2.25452,0 -2.25452,0 0,2.81401 0,2.81402 2.25452,0 2.25452,0 0,-0.7173 0,-0.7173 3.90416,0 3.90417,0 0,0.38624 0,0.38624 2.3645,0 2.36449,0 0,-0.60695 0,-0.60694 3.84918,0 3.84918,0 0,3.18802 0,3.18803 0.19246,0.23402 0.19246,0.23402 8.57817,0.0272 c 4.718,0.0149 9.2834,0.0393 10.14534,0.0541 z m -29.19331,-6.70508 -0.3079,-4.4e-4 -0.35209,-0.21541 -0.35208,-0.21542 -0.1703,-0.33046 -0.17031,-0.33046 4.4e-4,-0.30895 4.4e-4,-0.30895 0.21468,-0.3533 0.21468,-0.35329 0.32933,-0.17088 0.32933,-0.17089 0.28587,0 0.28586,0 0.32933,0.17089 0.32933,0.17088 0.21468,0.35329 0.21468,0.3533 0,0.33106 0,0.33106 -0.21468,0.35329 -0.21468,0.35329 -0.32933,0.17089 -0.32933,0.17089 -0.3079,-4.5e-4 z m 29.19331,4.93958 1.56716,0.0267 0,-0.60694 0,-0.60695 -8.08327,0 -8.08328,0 0,-7.39368 0,-7.39369 -6.1037,0 -6.1037,0 0,-0.77247 0,-0.77248 -2.36449,0 -2.3645,0 0,0.27589 0,0.27588 -3.95915,0 -3.95916,0 0,-0.82765 0,-0.82765 -2.25452,0 -2.25452,0 0,2.81401 0,2.81402 2.25452,0 2.25452,0 0,-0.55177 0,-0.55177 3.95916,0 3.95915,0 0,0.66212 0,0.66212 2.3645,0 2.36449,0 0,-0.49659 0,-0.49659 5.55382,0 5.55382,0 0,6.60899 0,6.60898 0.19245,0.23391 0.19246,0.2339 6.87354,0.0275 c 3.78044,0.0151 7.57876,0.0395 8.4407,0.0542 z m -29.19331,-13.76786 -0.3079,-4.4e-4 -0.35209,-0.21542 -0.35208,-0.21541 -0.1703,-0.33046 -0.17031,-0.33046 4.4e-4,-0.30895 4.4e-4,-0.30895 0.21468,-0.3533 0.21468,-0.35329 0.32933,-0.17089 0.32933,-0.17088 0.28587,0 0.28586,0 0.32933,0.17088 0.32933,0.17089 0.21468,0.35329 0.21468,0.3533 0,0.33106 0,0.33106 -0.21468,0.35329 -0.21468,0.35329 -0.32933,0.17089 -0.32933,0.17088 -0.3079,-4.4e-4 z m 29.19331,12.00249 1.56716,0.0265 0,-0.60695 0,-0.60694 -6.32365,0 -6.32365,0 0,-10.96574 0,-10.96573 -0.41241,-0.0684 -0.41241,-0.0684 -7.31894,-0.001 -7.31894,-10e-4 -0.13197,-0.13243 -0.13198,-0.13242 0,-0.5297 0,-0.5297 -2.36449,0 -2.3645,0 0,0.4966 0,0.49659 -4.01414,0 -4.01415,0 0,-1.32425 0,-1.32424 -2.25452,0 -2.25451,0 0,2.81402 0,2.81401 2.25451,0 2.25452,0 0,-0.38624 0,-0.38623 4.01415,0 4.01414,0 0,0.77247 0,0.77248 2.3645,0 2.36449,0 0,-0.60695 0,-0.60694 7.31344,0 7.31345,0 0,10.25065 0,10.25065 0.19245,0.2337 0.19246,0.23371 5.11391,0.0279 c 2.81265,0.0154 5.81914,0.0398 6.68108,0.0544 z m -29.19331,-20.83077 -0.3079,-4.4e-4 -0.35209,-0.21542 -0.35208,-0.21541 -0.1703,-0.33046 -0.17031,-0.33046 4.4e-4,-0.30895 4.4e-4,-0.30896 0.21468,-0.35329 0.21468,-0.35329 0.32933,-0.17089 0.32933,-0.17088 0.28587,0 0.28586,0 0.32933,0.17088 0.32933,0.17089 0.21468,0.35329 0.21468,0.35329 0,0.33107 0,0.33106 -0.21468,0.35329 -0.21468,0.35329 -0.32933,0.17089 -0.32933,0.17088 -0.3079,-4.4e-4 z m 29.19331,19.06564 1.56716,0.0259 0,-0.60694 0,-0.60695 -4.60612,0 -4.60612,0 -0.0426,-14.55969 -0.0426,-14.55969 -0.0894,-0.0897 -0.0894,-0.0897 -9.44885,-0.03 -9.44886,-0.03 0,-0.54938 0,-0.54938 -2.36449,0 -2.3645,0 0,0.55177 0,0.55177 -3.90417,0 -3.90416,0 0,-1.32424 0,-1.32425 -2.25452,0 -2.25452,0 0,2.81402 0,2.81401 2.25452,0 2.25452,0 0,-0.38623 0,-0.38624 3.90416,0 3.90417,0 0,0.7173 0,0.71729 2.3645,0 2.36449,0 0,-0.71729 0,-0.7173 9.01808,0 9.01808,0 0,13.89231 0,13.89232 0.19246,0.23334 0.19246,0.23334 3.40927,0.0288 c 1.8751,0.0159 4.1145,0.0405 4.97644,0.0548 z m -29.19331,-27.89392 -0.3079,-4.4e-4 -0.35209,-0.21542 -0.35208,-0.21541 -0.1703,-0.33046 -0.17031,-0.33046 4.4e-4,-0.30895 4.4e-4,-0.30896 0.21468,-0.35329 0.21468,-0.35329 0.32933,-0.17089 0.32933,-0.17088 0.28587,0 0.28586,0 0.32933,0.17088 0.32933,0.17089 0.21468,0.35329 0.21468,0.35329 0,0.33106 0,0.33107 -0.21468,0.35329 -0.21468,0.35329 -0.32933,0.17089 -0.32933,0.17088 -0.3079,-4.4e-4 z m 57.347306,27.88252 c 1.31559,-0.0399 4.00923,-0.0726 5.98587,-0.0727 l 3.59386,-2.2e-4 0.17283,-0.17342 0.17282,-0.17341 0,-0.65424 0,-0.65424 1.70464,0 1.70463,0 0,0.7173 0,0.7173 2.3645,0 2.36449,0 0,-2.3726 0,-2.3726 -2.36449,0 -2.3645,0 0,1.15871 0,1.15871 -2.02671,0 -2.0267,0 -0.17283,0.17341 -0.17282,0.17342 0,0.67189 0,0.67189 -5.66379,-0.0666 -5.66379,-0.0666 0,0.61825 0,0.61825 2.39199,-0.0725 z m 15.67712,-1.28733 -0.3079,-4.4e-4 -0.35209,-0.21541 -0.35208,-0.21541 -0.17031,-0.33047 -0.1703,-0.33046 0,-0.30895 0,-0.30895 0.21468,-0.35329 0.21468,-0.35329 0.32933,-0.17089 0.32933,-0.17089 0.28586,0 0.28587,0 0.32933,0.17089 0.32933,0.17089 0.21468,0.35329 0.21468,0.35329 0,0.33106 0,0.33106 -0.21468,0.35329 -0.21468,0.35329 -0.32933,0.17089 -0.32933,0.17089 -0.30789,-4.4e-4 z m -128.650536,1.21431 2.3645,0 0,-0.27589 0,-0.27588 10.33779,0 10.3378,0 0,-20.4154 0,-20.4154 20.67559,0 20.67559,0 0,4.59457 0,4.59456 11.91514,-0.082 11.915136,-0.0821 0.0723,1.02212 0.0723,1.02212 0,11.90122 0,11.90123 0.57738,0 0.57738,1e-5 -0.0368,-12.11131 -0.0368,-12.1113 -0.0732,-1.21093 -0.0732,-1.21094 -0.27494,-0.13927 -0.27494,-0.13926 -5.911236,-0.002 -5.91124,-0.002 0,-5.79356 0,-5.79356 -28.02072,0 -28.02071,0 -0.49071,0.2483 -0.4907,0.2483 -0.24745,0.49238 -0.24745,0.49239 0,19.67471 0,19.67472 -8.52318,0 -8.52318,0 0,-0.27588 0,-0.27588 -2.3645,0 -2.3644899,0 0,2.3726 0,2.3726 2.3644899,0 z m -0.022,-0.9936 -0.3079,-4.4e-4 -0.35208,-0.21541 -0.35209,-0.21542 -0.1703,-0.33046 -0.1703,-0.33043 4e-4,-0.30895 4.1e-4,-0.30896 0.21468,-0.35329 0.21468,-0.35329 0.32933,-0.17089 0.32933,-0.17088 0.28586,0 0.28587,0 0.32933,0.17088 0.32933,0.17089 0.21468,0.35329 0.21468,0.35329 0,0.33107 0,0.33106 -0.21468,0.35329 -0.21468,0.35329 -0.32933,0.17089 -0.32933,0.17088 -0.3079,-4.4e-4 z M 126.4116,74.319268 c 2.22291,-0.0354 4.54891,-0.0925 5.1689,-0.1269 l 1.12726,-0.0626 0,-4.18281 0,-4.18282 2.69443,0 2.69442,0 0,0.55177 0,0.55177 2.3645,0 2.36449,0 0,-2.3726 0,-2.3726 -2.36449,0 -2.3645,0 0,0.7173 0,0.71729 -3.2718,0.002 -3.2718,0.002 -0.24745,0.0665 -0.24745,0.0665 0,4.27551 0,4.27551 -0.0723,0.52934 -0.0723,0.52933 -4.27178,-0.0761 -4.27176,-0.0761 0,0.61647 0,0.61647 4.04163,-0.0643 z m 14.02748,-8.44515 -0.3079,-4.4e-4 -0.35209,-0.21541 -0.35208,-0.21542 -0.17031,-0.33046 -0.1703,-0.33046 0,-0.30895 0,-0.30895 0.21468,-0.35329 0.21468,-0.35329 0.32933,-0.17089 0.32933,-0.17089 0.28586,0 0.28587,0 0.32933,0.17089 0.32933,0.17089 0.21468,0.35329 0.21468,0.35329 0,0.33106 0,0.33106 -0.21468,0.35329 -0.21468,0.35329 -0.32933,0.17089 -0.32933,0.17089 -0.30789,-4.4e-4 z m -14.49488,6.73198 3.57424,0 0,-0.16553 0,-0.16553 0.10998,0 0.10997,0 0,-5.29697 0,-5.29697 -2.52736,0 -2.52737,0 -0.069,0.27589 -0.069,0.27588 -0.15304,0 -0.15304,0 0,4.57967 0,4.57967 -0.9348,0 -0.9348,0 0,0.60695 0,0.60694 3.57423,0 z m 1.29576,-5.52199 c -0.16828,-0.002 -0.45689,-0.0703 -0.64135,-0.15091 l -0.33539,-0.14658 -0.29698,-0.35416 -0.29698,-0.35415 0,-0.70499 0,-0.70499 0.34013,-0.38872 0.34013,-0.38871 0.4191,-0.12599 0.4191,-0.126 0.39787,0.0749 0.39789,0.0749 0.3812,0.33585 0.38121,0.33585 0.12556,0.42053 0.12557,0.42054 -0.0736,0.39363 -0.0736,0.39364 -0.29292,0.34931 -0.29293,0.34932 -0.35903,0.15052 -0.35903,0.15053 -0.30596,-0.004 z m -24.72076,2.32174 0.60487,0 0,-1.60013 0,-1.60012 -0.16497,0 -0.16496,0 0,-13.39444 0,-13.39444 -0.18174,-0.15146 -0.18174,-0.15145 -4.327296,-0.0313 -4.3273,-0.0312 0,-6.81487 0,-6.81486 -0.24745,-0.49239 -0.24744,-0.49239 -0.49071,-0.24829 -0.4907,-0.2483 -33.27629,0 -33.27629,0 -0.4907,0.2483 -0.4907,0.24829 -0.24745,0.49239 -0.24745,0.49239 0,18.73671 0,18.73671 -5.05892,0 -5.05892,0 0,-0.27588 0,-0.27589 -2.3645,0 -2.3644899,0 0,2.3726 0,2.37261 2.3644899,0 2.3645,0 0,-0.27589 0,-0.27588 6.87353,0 6.87354,0 0,-19.4774 0,-19.47739 31.11606,0 31.11606,0 0.0676,1.13112 c 0.0371,0.62212 0.0913,3.45269 0.12042,6.29015 l 0.0529,5.15903 5.77063,0 5.770636,0 0,14.62184 0,14.62184 0.60487,0 z m -90.752686,-3.31102 -0.3079,-4.4e-4 -0.35208,-0.21541 -0.35209,-0.21542 -0.1703,-0.33046 -0.1703,-0.33043 4e-4,-0.30895 4.1e-4,-0.30896 0.21468,-0.35329 0.21468,-0.35329 0.32933,-0.17089 0.32933,-0.17088 0.28586,0 0.28587,0 0.32933,0.17088 0.32933,0.17089 0.21468,0.35329 0.21468,0.35329 0,0.33106 0,0.33107 -0.21468,0.35329 -0.21468,0.35329 -0.32933,0.17089 -0.32933,0.17088 -0.3079,-4.4e-4 z m 92.374836,3.31103 0.57738,2e-5 -0.0349,-16.74616 -0.0349,-16.74616 -0.16118,-0.16553 -0.16117,-0.16553 -1.81099,-0.035 -1.81098,-0.035 0,-8.025 0,-8.02499 -0.24744,-0.49239 -0.24745,-0.49238 -0.490696,-0.2483 -0.49071,-0.2483 -40.20481,0 -40.20481,0 -0.4907,0.2483 -0.49071,0.2483 -0.24744,0.49238 -0.24745,0.49239 0,17.30211 0,17.30212 -1.59466,0 -1.59466,0 0,-0.27588 0,-0.27589 -2.3645,0 -2.3644899,0 0,2.3726 0,2.3726 2.3644899,0 2.3645,0 0,-0.27588 0,-0.27588 2.67112,0 2.67112,0 0.49071,-0.2483 0.4907,-0.24829 0.24745,-0.49239 0.24744,-0.49238 0,-17.30212 0,-17.30212 38.03398,0 38.03398,0 0.0728,4.71761 c 0.04,2.59469 0.0728,5.97151 0.0729,7.50404 l 1.4e-4,2.78643 3.189316,0 3.18932,0 0,16.38749 0,16.3875 0.57737,1e-5 z m -92.374836,-12.13931 -0.3079,-4.1e-4 -0.35208,-0.21542 -0.35209,-0.21541 -0.1703,-0.33046 -0.1703,-0.33046 4e-4,-0.30895 4.1e-4,-0.30896 0.21468,-0.35329 0.21468,-0.35329 0.32933,-0.17089 0.32933,-0.17088 0.28586,0 0.28587,0 0.32933,0.17088 0.32933,0.17089 0.21468,0.35329 0.21468,0.35329 0,0.33106 0,0.33106 -0.21468,0.3533 -0.21468,0.35329 -0.32933,0.17089 -0.32933,0.17088 -0.3079,-4.4e-4 z m 94.161956,12.1393 0.60487,0 0,-1.60013 0,-1.60012 -0.10997,0 -0.10998,0 0,-16.49785 0,-16.49785 0.65986,0 0.65986,0 0,-9.96361 0,-9.96361 -0.24745,-0.49239 -0.24745,-0.49238 -0.4907,-0.2483 -0.4907,-0.24829 -47.133336,0 -47.13333,0 -0.49071,0.24829 -0.4907,0.2483 -0.24745,0.49238 -0.24744,0.49239 0,15.70199 0,15.70199 -0.4948999,0 -0.49489,0 0,2.3726 0,2.3726 2.3371899,0 2.33719,0 -0.0399,-16.99444 -0.0399,-16.99444 44.99257,0 44.992576,0 0,4.89269 c 0,2.69098 0.0328,6.68853 0.0728,8.88346 l 0.0728,3.99077 0.58704,0 0.58704,0 0,18.09797 0,18.09798 0.60487,0 z m -94.161956,-20.96758 -0.3079,-4.1e-4 -0.35208,-0.21542 -0.35209,-0.21541 -0.1703,-0.33046 -0.1703,-0.33046 4e-4,-0.30895 4.1e-4,-0.30896 0.21468,-0.35329 0.21468,-0.35329 0.32933,-0.17089 0.32933,-0.17089 0.28586,0 0.28587,0 0.32933,0.17089 0.32933,0.17089 0.21468,0.35329 0.21468,0.35329 0,0.33106 0,0.33106 -0.21468,0.3533 -0.21468,0.35329 -0.32933,0.17088 -0.32933,0.17089 -0.3079,-4.4e-4 z m 99.330856,20.96758 0.60487,0 0,-1.60013 0,-1.60012 -0.10998,0 -0.10997,0 0,-0.77248 0,-0.77247 0.87981,0 0.87981,0 0,-3.14508 0,-3.14507 -2.25452,0 -2.25452,0 0,3.14507 0,3.14508 0.87982,0 0.87981,0 0,2.3726 0,2.3726 0.60487,0 z m 5.27887,0 0.60487,0 0,-1.60013 0,-1.60012 -0.60487,0 -0.60487,0 0,1.60012 0,1.60013 0.60487,0 z m 1.64965,0 0.60487,0 0,-1.60013 0,-1.60012 -0.60487,0 -0.60487,0 0,1.60012 0,1.60013 0.60487,0 z m 1.74424,-0.0228 0.5345,-0.0324 -0.0177,-28.55397 -0.0176,-28.55397 8.91364,0 8.91364,0 0,0.82765 0,0.82765 2.3645,0 2.36449,0 0,-2.31742 0,-2.3174205 -2.36449,0 -2.3645,0 0,0.38441 0,0.3844105 -9.33887,0.0294 -9.33886,0.0294 -0.0585,0.0588 -0.0585,0.0588 -0.0331,29.60356 -0.0331,29.60357 0.5345,-0.0324 z m 20.66895,-56.47864 -0.3079,-4.4e-4 -0.35209,-0.21542 -0.35208,-0.21541 -0.17031,-0.33046 -0.1703,-0.33046 0,-0.30895 0,-0.30895 0.21468,-0.3533 0.21468,-0.35329 0.32933,-0.17089 0.32933,-0.17088 0.28586,0 0.28587,0 0.32933,0.17088 0.32933,0.17089 0.21468,0.35329 0.21468,0.3533 0,0.33106 0,0.33106 -0.21468,0.35329 -0.21468,0.35329 -0.32933,0.17089 -0.32933,0.17088 -0.30789,-4.4e-4 z"
       id="path4939" />
  </g>
</svg>
