G04 DipTrace 3.0.0.0*
G04 L298_Top.gbr*
%MOMM*%
G04 #@! TF.FileFunction,Copper,L1,Top*
G04 #@! TF.Part,Single*
G04 #@! TA.AperFunction,Conductor*
%ADD15C,0.33*%
%ADD16C,0.5*%
%ADD17R,1.0X1.1*%
%ADD18R,1.5X1.3*%
G04 #@! TA.AperFunction,ComponentPad*
%ADD20C,2.0*%
%ADD21R,2.0X2.0*%
%ADD22C,2.0*%
%ADD25R,0.33X1.8*%
G04 #@! TA.AperFunction,ViaPad*
%ADD27C,1.016*%
%FSLAX35Y35*%
G04*
G71*
G90*
G75*
G01*
G04 Top*
%LPD*%
X2667000Y2920000D2*
D15*
Y3440000D1*
X2577000D1*
X1529000Y2649000D2*
X1347000D1*
Y3490000D1*
X1427000Y3570000D1*
X1837000D1*
X1967000Y3700000D1*
X2147000D1*
X2237000Y3610000D1*
Y3460000D1*
X2397000D1*
X2577000D1*
Y3440000D1*
X2387000Y3450000D2*
X2397000Y3460000D1*
X2037000Y2776000D2*
X2081000D1*
X2087000Y2770000D1*
X2517000D1*
X2537000Y2790000D1*
Y2920000D1*
Y3110000D1*
X2397000D1*
Y3270000D1*
X2387000Y3280000D1*
X2602000Y2340000D2*
Y1810000D1*
X2357000D1*
X2317000Y1850000D1*
Y2240000D1*
X2097000Y2460000D1*
X2037000D1*
Y2522000D1*
X2667000Y2340000D2*
Y1730000D1*
X2297000D1*
X2237000Y1790000D1*
Y2080000D1*
X2049000Y2268000D1*
X2037000D1*
X2537000Y2340000D2*
Y2520000D1*
X3287000D1*
Y2280000D1*
X3137000D1*
Y1826000D1*
X3147000D1*
Y1820000D1*
X3297000Y1876000D2*
X3147000D1*
Y1826000D1*
X2862000Y2920000D2*
Y2745000D1*
X2807000Y2690000D1*
X2487000D1*
X2377000Y2580000D1*
X2297000D1*
Y2420000D1*
X2397000Y2320000D1*
Y2090000D1*
X2467000Y2020000D1*
X2862000Y2340000D2*
Y1585000D1*
X2607000Y1330000D1*
X2613000D1*
X3297000Y3122000D2*
X3147000D1*
Y2800000D1*
X3097000Y2750000D1*
X3017000D1*
X2992000Y2775000D1*
Y2920000D1*
X2927000Y2340000D2*
Y1330000D1*
X2867000D1*
X2797000Y2340000D2*
Y1630000D1*
X2667000Y1500000D1*
X1737000D1*
Y2903000D1*
X1529000D1*
X3057000Y2340000D2*
Y2390000D1*
X3177000D1*
X2732000Y2340000D2*
Y1675000D1*
X2647000Y1590000D1*
X1847000D1*
Y3140000D1*
X1546000D1*
X1529000Y3157000D1*
X3297000Y2868000D2*
Y2700000D1*
X3277000Y2680000D1*
X2947000D1*
X2927000Y2700000D1*
Y2920000D1*
X3057000D2*
Y3480000D1*
X2887000Y3650000D1*
Y3710000D1*
X2877000Y3700000D1*
Y3824000D1*
X2881000Y3820000D1*
X3297000Y3376000D2*
D16*
X3457000D1*
Y1622000D1*
X3297000D1*
X2472000Y2920000D2*
D15*
Y3010000D1*
X2057000D1*
X2087000Y3040000D1*
X2037000D1*
Y3030000D1*
X2602000Y2920000D2*
Y3260000D1*
X2577000D1*
Y3270000D1*
X2732000Y2920000D2*
Y3525000D1*
X2677000Y3580000D1*
X2317000D1*
Y3650000D1*
X2177000Y3790000D1*
X1917000D1*
X1787000Y3660000D1*
X1397000D1*
X1227000Y3490000D1*
Y2370000D1*
X1504000D1*
X1529000Y2395000D1*
X2472000Y2339980D2*
Y2545000D1*
X2527000Y2600000D1*
X3327000D1*
X3367000Y2560000D1*
Y2130000D1*
X3297000D1*
X2992000Y2340000D2*
Y2075000D1*
X3037000Y2030000D1*
X2797000Y2920000D2*
Y3590000D1*
X2567000Y3820000D1*
X2627000D1*
D27*
X3037000Y2030000D3*
X3177000Y2390000D3*
D17*
X2577000Y3270000D3*
Y3440000D3*
X2387000Y3280000D3*
Y3450000D3*
D20*
X2627000Y3820000D3*
X2881000D3*
X2867000Y1330000D3*
X2613000D3*
D21*
X1227000Y3830000D3*
D20*
X1481000D3*
D21*
X3297000Y3630000D3*
D20*
Y3376000D3*
Y3122000D3*
Y2868000D3*
D22*
Y2130000D3*
D20*
Y1876000D3*
Y1622000D3*
D21*
Y1368000D3*
D22*
X2467000Y2020000D3*
D18*
X2297000Y2580000D3*
Y2770000D3*
D20*
X1455000Y1320000D3*
X1709000D3*
X1963000D3*
X2217000D3*
D25*
X3057000Y2920000D3*
X2992000D3*
X2927000D3*
X2862000D3*
X2797000D3*
X2732000D3*
X2667000D3*
X2602000D3*
X2537000D3*
X2472000D3*
Y2339980D3*
X2537000Y2340000D3*
X2602000D3*
X2667000D3*
X2732000D3*
X2797000D3*
X2862000D3*
X2927000D3*
X2992000D3*
X3057000D3*
D20*
X2037000Y1760000D3*
X1529000Y1887000D3*
X2037000Y2014000D3*
X1529000Y2141000D3*
X2037000Y2268000D3*
X1529000Y2395000D3*
X2037000Y2522000D3*
X1529000Y2649000D3*
X2037000Y2776000D3*
X1529000Y2903000D3*
X2037000Y3030000D3*
X1529000Y3157000D3*
X2037000Y3284000D3*
X1529000Y3411000D3*
X2037000Y3538000D3*
M02*
