G04 DipTrace 3.0.0.0*
G04 L298_Bottom.gbr*
%MOMM*%
G04 #@! TF.FileFunction,Copper,L2,Bot*
G04 #@! TF.Part,Single*
G04 #@! TA.AperFunction,Conductor*
%ADD14C,1.0*%
%ADD15C,0.33*%
%ADD16C,0.5*%
%ADD18R,1.5X1.3*%
%ADD19R,1.3X1.5*%
G04 #@! TA.AperFunction,ComponentPad*
%ADD20C,2.0*%
%ADD21R,2.0X2.0*%
%ADD22C,2.0*%
%ADD23R,1.6X1.8*%
%ADD24R,1.8X1.6*%
%ADD26R,0.6X2.0*%
G04 #@! TA.AperFunction,ViaPad*
%ADD27C,1.016*%
%FSLAX35Y35*%
G04*
G71*
G90*
G75*
G01*
G04 Bottom*
%LPD*%
X30860Y38300D2*
D14*
Y36640D1*
X32200Y35300D1*
Y26490D1*
X30380D1*
X33400Y38300D2*
Y38100D1*
X34000Y37500D1*
Y21410D1*
X30380D1*
X15500Y22700D2*
D16*
Y25500D1*
X22400D1*
Y27760D1*
X25300D1*
X12700Y36300D2*
X10900D1*
Y22900D1*
Y13680D1*
X12700D1*
X14700Y36400D2*
D14*
X12800D1*
D15*
X12700Y36300D1*
X15500Y22700D2*
D16*
Y22900D1*
X10900D1*
X18040Y28100D2*
D15*
Y26600D1*
X21100D1*
Y29900D1*
X22500Y31300D1*
X25300Y32840D2*
D16*
X27800D1*
Y15500D1*
X25500Y13200D1*
X26040D1*
X28580D2*
X28700D1*
Y34110D1*
X30380D1*
X17300Y32000D2*
D15*
X16700D1*
Y28170D1*
X16770Y28100D1*
X15000Y32200D2*
X17100D1*
X17300Y32000D1*
X18400Y15300D2*
X19600D1*
Y13240D1*
X19540Y13300D1*
X19310Y22700D2*
Y22200D1*
X22700D1*
Y23800D1*
X23100Y21100D2*
Y22200D1*
X22700D1*
X16200Y15300D2*
X16100D1*
Y14200D1*
X17000Y13300D1*
X15500Y28100D2*
Y30300D1*
X15000D1*
X15500D2*
Y26500D1*
X13900D1*
Y23900D1*
X16860Y38200D2*
Y36160D1*
X16800Y36100D1*
X18100Y18800D2*
Y17400D1*
X20200D1*
X27200Y38300D2*
X30500D1*
D14*
Y38200D1*
X24100D1*
X20250Y34350D1*
D15*
X20150D1*
X2042657Y3462657D1*
X2022657D1*
X19200Y33600D1*
Y32000D1*
Y31600D1*
X19310Y31490D1*
Y28100D1*
X20150Y34350D2*
D14*
X19750D1*
X19400Y34000D1*
X12940D1*
D15*
X12700Y33760D1*
Y16220D2*
D16*
X1432007D1*
X15407Y17300D1*
X20200D1*
Y17400D1*
X14700Y34500D2*
D15*
Y34200D1*
X20300D1*
Y3475313D1*
X2042657Y3462657D1*
X18040Y22700D2*
Y20700D1*
X18100D1*
X16770Y22700D2*
Y24300D1*
X21300D1*
X20800Y23800D1*
X16770Y22700D2*
Y20300D1*
X15300D1*
X19400Y38200D2*
Y36300D1*
X27200Y35500D2*
X26600D1*
D14*
X26480Y35380D1*
X25300D1*
D15*
X24780D1*
X22500Y33100D1*
Y33200D1*
X23000Y17400D2*
D14*
X23200D1*
X23400Y17600D1*
X25300D1*
X22900Y19200D2*
D15*
X23100D1*
Y17600D1*
X25300D1*
X30380Y18870D2*
D16*
X30700D1*
D14*
Y12780D1*
D16*
X31120Y13200D1*
X25300Y20140D2*
X26900D1*
Y16200D1*
X26300Y15600D1*
X23500D1*
Y13200D1*
D27*
X15300Y20300D3*
X13900Y23900D3*
D18*
X14700Y36400D3*
Y34500D3*
D19*
X32000Y26300D3*
X33900D3*
D20*
X19400Y38200D3*
X16860D3*
X17000Y13300D3*
X19540D3*
D21*
X33400Y38300D3*
D20*
X30860D3*
D21*
X12700Y36300D3*
D20*
Y33760D3*
Y31220D3*
Y28680D3*
D22*
Y21300D3*
D20*
Y18760D3*
Y16220D3*
D21*
Y13680D3*
D22*
X21000Y20200D3*
D18*
X23100Y21100D3*
Y19200D3*
X18100Y20700D3*
Y18800D3*
X18400Y17200D3*
Y15300D3*
X16200Y17200D3*
Y15300D3*
X19400Y36300D3*
Y34400D3*
X16800Y36100D3*
Y34200D3*
D19*
X20800Y23800D3*
X22700D3*
D18*
X22500Y31300D3*
Y33200D3*
D23*
X20200Y17400D3*
X23000D3*
D24*
X27200Y38300D3*
Y35500D3*
D19*
X19200Y32000D3*
X17300D3*
D18*
X15000Y32200D3*
Y30300D3*
D20*
X31120Y13200D3*
X28580D3*
X26040D3*
X23500D3*
X25300Y17600D3*
X30380Y18870D3*
X25300Y20140D3*
X30380Y21410D3*
X25300Y22680D3*
X30380Y23950D3*
X25300Y25220D3*
X30380Y26490D3*
X25300Y27760D3*
X30380Y29030D3*
X25300Y30300D3*
X30380Y31570D3*
X25300Y32840D3*
X30380Y34110D3*
X25300Y35380D3*
D26*
X15500Y22700D3*
X16770D3*
X18040D3*
X19310D3*
Y28100D3*
X18040D3*
X16770D3*
X15500D3*
M02*
