<?xml version="1.0" encoding="UTF-8" standalone="no"?>
<!-- Created with Inkscape (http://www.inkscape.org/) -->

<svg
   xmlns:dc="http://purl.org/dc/elements/1.1/"
   xmlns:cc="http://creativecommons.org/ns#"
   xmlns:rdf="http://www.w3.org/1999/02/22-rdf-syntax-ns#"
   xmlns:svg="http://www.w3.org/2000/svg"
   xmlns="http://www.w3.org/2000/svg"
   xmlns:sodipodi="http://sodipodi.sourceforge.net/DTD/sodipodi-0.dtd"
   xmlns:inkscape="http://www.inkscape.org/namespaces/inkscape"
   width="210mm"
   height="297mm"
   viewBox="0 0 744.09448819 1052.3622047"
   id="svg4148"
   version="1.1"
   x-ratio="0.18"
   y-ratio="0.18"
   inkscape:version="0.91 r13725"
   sodipodi:docname="MC34063.svg">
  <defs
     id="defs4150" />
  <sodipodi:namedview
     id="base"
     pagecolor="#ffffff"
     bordercolor="#666666"
     borderopacity="1.0"
     inkscape:pageopacity="0.0"
     inkscape:pageshadow="2"
     inkscape:zoom="8"
     inkscape:cx="18.188288"
     inkscape:cy="1042.3268"
     inkscape:document-units="mm"
     inkscape:current-layer="layer1"
     showgrid="false"
     inkscape:window-width="1251"
     inkscape:window-height="746"
     inkscape:window-x="-8"
     inkscape:window-y="-8"
     inkscape:window-maximized="1" />
  <metadata
     id="metadata4153">
    <rdf:RDF>
      <cc:Work
         rdf:about="">
        <dc:format>image/svg+xml</dc:format>
        <dc:type
           rdf:resource="http://purl.org/dc/dcmitype/StillImage" />
        <dc:title></dc:title>
      </cc:Work>
    </rdf:RDF>
  </metadata>
  <g
     inkscape:label="Layer 1"
     inkscape:groupmode="layer"
     id="layer1">
    <path
       style="fill:none;fill-rule:evenodd;stroke:#000000;stroke-width:0.17893393px;stroke-linecap:butt;stroke-linejoin:miter;stroke-opacity:1"
       d="M 0.47087,1.09298 L 0.47087,85.32756 L 42.72107,85.32756 L 42.72107,1.09298 Z"
       id="path4816"
       inkscape:connector-curvature="0" />
    <path
       style="fill:none;fill-rule:evenodd;stroke:#000000;stroke-width:0.17893393px;stroke-linecap:butt;stroke-linejoin:miter;stroke-opacity:1"
       d="M 0.29184,19.33483 L 16.40421,19.51366 L 16.58323,47.41306 L 7.45289,47.41306 L 7.45289,41.33226 L 0.64989,41.33226"
       id="path4707"
       inkscape:connector-curvature="0" />
    <path
       style="fill:none;fill-rule:evenodd;stroke:#000000;stroke-width:0.17893393px;stroke-linecap:butt;stroke-linejoin:miter;stroke-opacity:1"
       d="M 0.47087,52.42056 L 16.76226,52.42056 L 16.76226,56.35506 L 7.09484,56.35506 L 7.27387,61.54156 L 0.82892,61.72036"
       id="path4709"
       inkscape:connector-curvature="0" />
    <path
       style="fill:none;fill-rule:evenodd;stroke:#000000;stroke-width:0.17893393px;stroke-linecap:butt;stroke-linejoin:miter;stroke-opacity:1"
       d="M 27.32481,85.32756 L 27.32481,77.10066 L 5.84166,76.92196 L 6.02068,68.69516 L 16.58323,68.69516 L 16.58323,73.52396 L 26.96675,73.52396 L 26.96675,67.08566 L 21.59597,67.08566 L 21.59597,20.76556 L 36.09709,20.76556 L 36.09709,11.64463"
       id="path4711"
       inkscape:connector-curvature="0"
       sodipodi:nodetypes="cccccccccccc" />
    <path
       style="fill:none;fill-rule:evenodd;stroke:#000000;stroke-width:0.17893393px;stroke-linecap:butt;stroke-linejoin:miter;stroke-opacity:1"
       d="M 36.09709,12.00231 L 11.39147,12.00231 L 11.39147,0.3776"
       id="path4713"
       inkscape:connector-curvature="0" />
    <path
       style="fill:none;fill-rule:evenodd;stroke:#000000;stroke-width:0.17893393px;stroke-linecap:butt;stroke-linejoin:miter;stroke-opacity:1"
       d="M 42.72107,31.67489 L 26.25065,31.67489 L 26.25065,60.11086 L 28.75702,60.11086 L 28.75702,66.72796 L 26.96675,67.08566"
       id="path4715"
       inkscape:connector-curvature="0" />
    <path
       style="fill:none;fill-rule:evenodd;stroke:#000000;stroke-width:0.17893393px;stroke-linecap:butt;stroke-linejoin:miter;stroke-opacity:1"
       d="M 26.25065,56.35506 L 35.91807,56.35506 L 35.91807,73.52396 L 16.58323,73.52396 L 16.58323,68.69516"
       id="path4717"
       inkscape:connector-curvature="0" />
    <path
       style="fill:none;fill-rule:evenodd;stroke:#000000;stroke-width:0.17893393px;stroke-linecap:butt;stroke-linejoin:miter;stroke-opacity:1"
       d="M 26.25065,47.41306 L 42.72107,47.41306"
       id="path4719"
       inkscape:connector-curvature="0" />
    <path
       style="fill:#ff0000;stroke:#ff0000;stroke-width:0.05045937;stroke-linejoin:round;stroke-miterlimit:4;stroke-dasharray:0.20183747, 0.20183747;stroke-dashoffset:0"
       d="M 4.94652,25.6837 A 1.3426969,1.3413124 0 0 1 3.60383,27.02501 A 1.3426969,1.3413124 0 0 1 2.26113,25.6837 A 1.3426969,1.3413124 0 0 1 3.60383,24.34238 A 1.3426969,1.3413124 0 0 1 4.94652,25.6837 Z"
       id="path4721"
       inkscape:connector-curvature="0" />
    <path
       style="fill:#ff0000;stroke:#ff0000;stroke-width:0.05045937;stroke-linejoin:round;stroke-miterlimit:4;stroke-dasharray:0.20183747, 0.20183747;stroke-dashoffset:0"
       d="M 8.61656,7.35242 A 1.3426969,1.3413124 0 0 1 7.27387,8.69375 A 1.3426969,1.3413124 0 0 1 5.93117,7.35242 A 1.3426969,1.3413124 0 0 1 7.27387,6.01113 A 1.3426969,1.3413124 0 0 1 8.61656,7.35242 Z"
       id="path4721-3"
       inkscape:connector-curvature="0" />
    <path
       style="fill:#ff0000;stroke:#ff0000;stroke-width:0.05045937;stroke-linejoin:round;stroke-miterlimit:4;stroke-dasharray:0.20183747, 0.20183747;stroke-dashoffset:0"
       d="M 17.56788,7.17359 A 1.3426969,1.3413124 0 0 1 16.22518,8.51491 A 1.3426969,1.3413124 0 0 1 14.88248,7.17359 A 1.3426969,1.3413124 0 0 1 16.22518,5.83228 A 1.3426969,1.3413124 0 0 1 17.56788,7.17359 Z"
       id="path4721-3-5"
       inkscape:connector-curvature="0" />
    <path
       style="fill:#ff0000;stroke:#ff0000;stroke-width:0.05045937;stroke-linejoin:round;stroke-miterlimit:4;stroke-dasharray:0.20183747, 0.20183747;stroke-dashoffset:0"
       d="M 33.50121,6.45823 A 1.3426969,1.3413124 0 0 1 32.15852,7.79953 A 1.3426969,1.3413124 0 0 1 30.81582,6.45823 A 1.3426969,1.3413124 0 0 1 32.15852,5.11691 A 1.3426969,1.3413124 0 0 1 33.50121,6.45823 Z"
       id="path4721-3-8"
       inkscape:connector-curvature="0" />
    <path
       style="fill:#ff0000;stroke:#ff0000;stroke-width:0.05045937;stroke-linejoin:round;stroke-miterlimit:4;stroke-dasharray:0.20183747, 0.20183747;stroke-dashoffset:0"
       d="M 33.50121,15.40029 A 1.3426969,1.3413124 0 0 1 32.15852,16.74162 A 1.3426969,1.3413124 0 0 1 30.81582,15.40029 A 1.3426969,1.3413124 0 0 1 32.15852,14.05899 A 1.3426969,1.3413124 0 0 1 33.50121,15.40029 Z"
       id="path4721-3-86"
       inkscape:connector-curvature="0" />
    <path
       style="fill:#ff0000;stroke:#ff0000;stroke-width:0.05045937;stroke-linejoin:round;stroke-miterlimit:4;stroke-dasharray:0.20183747, 0.20183747;stroke-dashoffset:0"
       d="M 40.48324,25.77313 A 1.3426969,1.3413124 0 0 1 39.14054,27.11444 A 1.3426969,1.3413124 0 0 1 37.79784,25.77313 A 1.3426969,1.3413124 0 0 1 39.14054,24.43181 A 1.3426969,1.3413124 0 0 1 40.48324,25.77313 Z"
       id="path4721-3-9"
       inkscape:connector-curvature="0" />
    <path
       style="fill:#ff0000;stroke:#ff0000;stroke-width:0.05045937;stroke-linejoin:round;stroke-miterlimit:4;stroke-dasharray:0.20183747, 0.20183747;stroke-dashoffset:0"
       d="M 4.85701,36.68256 A 1.3426969,1.3413124 0 0 1 3.51431,38.02376 A 1.3426969,1.3413124 0 0 1 2.17162,36.68256 A 1.3426969,1.3413124 0 0 1 3.51431,35.34116 A 1.3426969,1.3413124 0 0 1 4.85701,36.68256 Z"
       id="path4721-3-1"
       inkscape:connector-curvature="0" />
    <path
       style="fill:#ff0000;stroke:#ff0000;stroke-width:0.05045937;stroke-linejoin:round;stroke-miterlimit:4;stroke-dasharray:0.20183747, 0.20183747;stroke-dashoffset:0"
       d="M 40.66226,36.50366 A 1.3426969,1.3413124 0 0 1 39.31957,37.84486 A 1.3426969,1.3413124 0 0 1 37.97687,36.50366 A 1.3426969,1.3413124 0 0 1 39.31957,35.16236 A 1.3426969,1.3413124 0 0 1 40.66226,36.50366 Z"
       id="path4721-3-6"
       inkscape:connector-curvature="0" />
    <path
       style="fill:#ff0000;stroke:#ff0000;stroke-width:0.05045937;stroke-linejoin:round;stroke-miterlimit:4;stroke-dasharray:0.20183747, 0.20183747;stroke-dashoffset:0"
       d="M 11.48098,65.11826 A 1.3426969,1.3413124 0 0 1 10.13829,66.45956 A 1.3426969,1.3413124 0 0 1 8.79559,65.11826 A 1.3426969,1.3413124 0 0 1 10.13829,63.77706 A 1.3426969,1.3413124 0 0 1 11.48098,65.11826 Z"
       id="path4721-3-3"
       inkscape:connector-curvature="0" />
    <path
       style="fill:#ff0000;stroke:#ff0000;stroke-width:0.05045937;stroke-linejoin:round;stroke-miterlimit:4;stroke-dasharray:0.20183747, 0.20183747;stroke-dashoffset:0"
       d="M 11.48098,73.88156 A 1.3426969,1.3413124 0 0 1 10.13829,75.22286 A 1.3426969,1.3413124 0 0 1 8.79559,73.88156 A 1.3426969,1.3413124 0 0 1 10.13829,72.54026 A 1.3426969,1.3413124 0 0 1 11.48098,73.88156 Z"
       id="path4721-3-59"
       inkscape:connector-curvature="0" />
    <path
       style="fill:#ff0000;stroke:#ff0000;stroke-width:0.05045937;stroke-linejoin:round;stroke-miterlimit:4;stroke-dasharray:0.20183747, 0.20183747;stroke-dashoffset:0"
       d="M 33.50121,80.31986 A 1.3426969,1.3413124 0 0 1 32.15852,81.66126 A 1.3426969,1.3413124 0 0 1 30.81582,80.31986 A 1.3426969,1.3413124 0 0 1 32.15852,78.97856 A 1.3426969,1.3413124 0 0 1 33.50121,80.31986 Z"
       id="path4721-3-64"
       inkscape:connector-curvature="0" />
    <path
       style="fill:#ff0000;stroke:#ff0000;stroke-width:0.05045937;stroke-linejoin:round;stroke-miterlimit:4;stroke-dasharray:0.20183747, 0.20183747;stroke-dashoffset:0"
       d="M 24.5499,80.31986 A 1.3426969,1.3413124 0 0 1 23.2072,81.66126 A 1.3426969,1.3413124 0 0 1 21.86451,80.31986 A 1.3426969,1.3413124 0 0 1 23.2072,78.97856 A 1.3426969,1.3413124 0 0 1 24.5499,80.31986 Z"
       id="path4721-3-2"
       inkscape:connector-curvature="0" />
    <path
       style="fill:none;fill-rule:evenodd;stroke:#000000;stroke-width:1px;stroke-linecap:butt;stroke-linejoin:miter;stroke-opacity:1"
       d="M 0.375,0.98720306 L 42.75,1.1122031"
       id="path5016"
       inkscape:connector-curvature="0" />
  </g>
</svg>
