<?xml version="1.0" encoding="UTF-8" standalone="no"?>
<!-- Created with Inkscape (http://www.inkscape.org/) -->

<svg
   xmlns:dc="http://purl.org/dc/elements/1.1/"
   xmlns:cc="http://creativecommons.org/ns#"
   xmlns:rdf="http://www.w3.org/1999/02/22-rdf-syntax-ns#"
   xmlns:svg="http://www.w3.org/2000/svg"
   xmlns="http://www.w3.org/2000/svg"
   xmlns:sodipodi="http://sodipodi.sourceforge.net/DTD/sodipodi-0.dtd"
   xmlns:inkscape="http://www.inkscape.org/namespaces/inkscape"
   width="37mm"
   height="26mm"
   x-ratio="0.25"
   y-ratio="0.25"
   viewBox="0 0 130 91"
   id="svg3346"
   version="1.1"
   inkscape:version="0.91 r13725"
   sodipodi:docname="Prepare.svg"
   style="shape-rendering:crispEdges">
  <defs
     id="defs3348" />
  <sodipodi:namedview
     id="base"
     pagecolor="#ffffff"
     bordercolor="#666666"
     borderopacity="1.0"
     inkscape:pageopacity="0.0"
     inkscape:pageshadow="2"
     inkscape:zoom="5.7"
     inkscape:cx="63"
     inkscape:cy="42"
     inkscape:document-units="mm"
     inkscape:current-layer="layer1"
     showgrid="false"
     units="mm"
     inkscape:window-width="1251"
     inkscape:window-height="746"
     inkscape:window-x="-8"
     inkscape:window-y="-8"
     inkscape:window-maximized="1" />
  <metadata
     id="metadata3351">
    <rdf:RDF>
      <cc:Work
         rdf:about="">
        <dc:format>image/svg+xml</dc:format>
        <dc:type
           rdf:resource="http://purl.org/dc/dcmitype/StillImage" />
        <dc:title></dc:title>
      </cc:Work>
    </rdf:RDF>
  </metadata>
  <g
     inkscape:label="Layer 1"
     inkscape:groupmode="layer"
     id="layer1">
	 
    <path
       style="fill:none;fill-rule:evenodd;stroke:#000000;stroke-width:1px;stroke-linecap:butt;stroke-linejoin:miter;stroke-opacity:1"
       d="M 0.02,3.2 L 0.02,91"
       id="path4688"
       inkscape:connector-curvature="0" />
    <path
       style="fill:none;fill-rule:evenodd;stroke:#000000;stroke-width:0.87px;stroke-linecap:butt;stroke-linejoin:miter;stroke-opacity:1"
       d="M 0.25,91 L 110,91"
       id="path4692"
       inkscape:connector-curvature="0" />
    <path
       style="fill:none;fill-rule:evenodd;stroke:#000000;stroke-width:0.83px;stroke-linecap:butt;stroke-linejoin:miter;stroke-opacity:1;shape-rendering:crispEdges"
       d="M -0.53,3.1 L 110,3.1"
       id="path4692-7"
       inkscape:connector-curvature="0" />
    <path
       style="fill:none;fill-rule:evenodd;stroke:#000000;stroke-width:0.99px;stroke-linecap:butt;stroke-linejoin:miter;stroke-opacity:1;shape-rendering:crispEdges"
       d="M 110,3.2 L 110,91"
       id="path4688-1"
       inkscape:connector-curvature="0" />
    <path
       id="path4190-6-9-1-90-0-80"
       style="fill:none;fill-rule:evenodd;stroke:#ff0000;stroke-width:1.06;stroke-linecap:butt;stroke-linejoin:miter;stroke-miterlimit:4;stroke-dasharray:none;stroke-opacity:1"
       d="M 25,67 M 36,46 L 43,40 M 50,38 L 42,40 M 21,46 L 37,46 M 22,45 L 22,54 M 18,45 L 18,57 M 14,57 L 14,38 M 14,55 L 16,58 M 10,56 L 14,61 M 9.1,57 L 13,63 M 9.1,65 L 9.1,60 M 35,82 L 35,75 M 25,76 L 35,76 M 32,74 L 32,70 M 22,73 L 39,73 M 37,79 L 37,72 M 32,70 L 43,70 M 9.1,68 L 43,68 M 9.1,65 L 43,65 M 12,63 L 43,63 M 14,61 L 43,61 M 15,59 L 43,58 M 17,56 L 43,56 M 37,78 L 43,78 M 43,79 L 43,53 M 33,54 L 33,48 M 43,54 L 21,54 M 31,49 L 47,49 M 46,51 L 31,51 M 49,51 L 42,45 M 35,81 L 46,81 M 46,81 L 46,51 M 17,84 L 49,84 M 80,87 L 80,73 M 85,81 L 85,79 M 57,81 L 57,80 M 67,81 L 67,80 M 76,81 L 76,80 M 71,85 L 71,72 M 49,84 L 74,84 M 61,85 L 61,76 M 85,63 L 88,60 M 99,60 L 87,60 M 99,73 L 99,50 M 67,70 L 67,63 M 54,74 L 54,70 M 99,73 L 54,73 M 51,76 L 65,76 M 51,76 L 51,67 M 49,85 L 49,51 M 53,61 L 52,56 M 52,57 L 52,47 M 60,49 L 60,38 M 60,48 L 55,48 M 55,52 L 55,47 M 77,44 L 63,44 M 63,52 L 64,42 M 77,51 L 68,51 M 69,54 L 69,49 M 75,56 L 75,40 M 53,63 L 54,53 M 64,51 L 54,51 M 70,54 L 53,54 M 75,56 L 53,56 M 80,58 L 53,58 M 69,70 L 54,70 M 69,68 L 51,68 M 69,65 L 49,65 M 53,63 L 86,63 M 99,50 L 86,50 L 84,58 L 82,61 L 53,61"
       inkscape:connector-curvature="0" />
  </g>
</svg>
