solid Подложка стола-Кубик
facet normal -0.7071067810362431 -0.7071067810362456 2.061847584464192e-05
  outer loop
    vertex 27.999725589224276 1.9994000921852075 14.99999999362773
    vertex 21.514444093758947 8.484681249531288 -14.999999985482754
    vertex 27.999725467997518 1.9993998752927165 -14.99999999186047
  endloop
endfacet
facet normal -0.7071067810362431 -0.7071067810362456 2.061847584464192e-05
  outer loop
    vertex 21.514444093758947 8.484681249531288 -14.999999985482754
    vertex 27.999725589224276 1.9994000921852075 14.99999999362773
    vertex 21.514718624279485 8.485281486855822 14.999999999999998
  endloop
endfacet
facet normal 0.7071156597464545 -0.7070979025047412 3.8382114309310045e-06
  outer loop
    vertex 21.514444093758947 8.484681249531288 -14.999999985482754
    vertex 15.029162732300863 1.9993998752927147 14.999999999148082
    vertex 15.029162719520366 1.9993998752927147 -14.999999986334787
  endloop
endfacet
facet normal 0.7071156597464545 -0.7070979025047412 3.8382114309310045e-06
  outer loop
    vertex 15.029162732300863 1.9993998752927147 14.999999999148082
    vertex 21.514444093758947 8.484681249531288 -14.999999985482754
    vertex 21.514718624279485 8.485281486855822 14.999999999999998
  endloop
endfacet
facet normal -1.0 0.0 0.0
  outer loop
    vertex -1.4819492784435907e-09 2.0000001126172515 14.999999999999998
    vertex -0.00027453200248493556 19.999399875292717 -14.999999985482754
    vertex -0.0002745320024847191 1.9993998752927165 -14.999999985482754
  endloop
endfacet
facet normal -1.0 0.0 0.0
  outer loop
    vertex -0.00027453200248493556 19.999399875292717 -14.999999985482754
    vertex -1.4819492784435907e-09 2.0000001126172515 14.999999999999998
    vertex -1.4819494948740036e-09 20.00000011261725 14.999999999999998
  endloop
endfacet
facet normal 0.9914448611888977 1.0143448570444032e-05 0.13052619323046932
  outer loop
    vertex 5.068534713474344 1.9951685082457995 6.980981781777382
    vertex 5.000038627283855 17.99996143416252 7.499862017979939
    vertex 5.000386366077901 1.995131480368245 7.498619870563208
  endloop
endfacet
facet normal 0.9914448611888977 1.0143448570444032e-05 0.13052619323046932
  outer loop
    vertex 5.000038627283855 17.99996143416252 7.499862017979939
    vertex 5.068534713474344 1.9951685082457995 6.980981781777382
    vertex 5.068186974680298 17.999998462040075 6.982223929194113
  endloop
endfacet
facet normal 0.9914448611888976 2.8153368409955405e-05 -0.1305261905883853
  outer loop
    vertex 5.000386366077901 1.995131480368245 7.498619870563208
    vertex 5.068186974680299 17.999927038670172 8.017500106947374
    vertex 5.068534713474345 1.9950970848758984 8.016257959530643
  endloop
endfacet
facet normal 0.9914448611888976 2.8153368409955405e-05 -0.1305261905883853
  outer loop
    vertex 5.068186974680299 17.999927038670172 8.017500106947374
    vertex 5.000386366077901 1.995131480368245 7.498619870563208
    vertex 5.000038627283855 17.99996143416252 7.499862017979939
  endloop
endfacet
facet normal 0.9238795323389758 4.424468271796929e-05 -0.38268343022336815
  outer loop
    vertex 5.068534713474345 1.9950970848758984 8.016257959530643
    vertex 5.267987819615029 17.999897619559 8.49986201577067
    vertex 5.268335558409074 1.9950676657647242 8.49861986835394
  endloop
endfacet
facet normal 0.9238795323389758 4.424468271796929e-05 -0.38268343022336815
  outer loop
    vertex 5.267987819615029 17.999897619559 8.49986201577067
    vertex 5.068534713474345 1.9950970848758984 8.016257959530643
    vertex 5.068186974680299 17.999927038670172 8.017500106947374
  endloop
endfacet
facet normal 0.7933533401432671 5.7320795016549094e-05 -0.6087614265029019
  outer loop
    vertex 5.268335558409074 1.9950676657647242 8.49861986835394
    vertex 5.585825064692252 17.999875181692804 8.914075577504269
    vertex 5.586172803486298 1.9950452278985276 8.912833430087538
  endloop
endfacet
facet normal 0.7933533401432671 5.7320795016549094e-05 -0.6087614265029019
  outer loop
    vertex 5.585825064692252 17.999875181692804 8.914075577504269
    vertex 5.268335558409074 1.9950676657647242 8.49861986835394
    vertex 5.267987819615029 17.999897619559 8.49986201577067
  endloop
endfacet
facet normal 0.6087614288951817 6.64905898618435e-05 -0.7933533375920835
  outer loop
    vertex 6.00003862691084 17.999861254175087 9.231912822436303
    vertex 5.586172803486298 1.9950452278985276 8.912833430087538
    vertex 5.585825064692252 17.999875181692804 8.914075577504269
  endloop
endfacet
facet normal 0.6087614288951817 6.64905898618435e-05 -0.7933533375920835
  outer loop
    vertex 5.586172803486298 1.9950452278985276 8.912833430087538
    vertex 6.00003862691084 17.999861254175087 9.231912822436303
    vertex 6.000386365704885 1.9950313003808124 9.230670675019573
  endloop
endfacet
facet normal 0.38268343229371715 7.112916088894843e-05 -0.9238795298027457
  outer loop
    vertex 6.482400536525869 17.999856786143173 9.431713667575535
    vertex 6.000386365704885 1.9950313003808124 9.230670675019573
    vertex 6.00003862691084 17.999861254175087 9.231912822436303
  endloop
endfacet
facet normal 0.38268343229371715 7.112916088894843e-05 -0.9238795298027457
  outer loop
    vertex 6.000386365704885 1.9950313003808124 9.230670675019573
    vertex 6.482400536525869 17.999856786143173 9.431713667575535
    vertex 6.482748275319915 1.9950268323488958 9.430471520158804
  endloop
endfacet
facet normal 0.13052619219570608 7.092039714796769e-05 -0.9914448588404637
  outer loop
    vertex 7.000038626537822 17.99986208208604 9.49986201551223
    vertex 6.482748275319915 1.9950268323488958 9.430471520158804
    vertex 6.482400536525869 17.999856786143173 9.431713667575535
  endloop
endfacet
facet normal 0.13052619219570608 7.092039714796769e-05 -0.9914448588404637
  outer loop
    vertex 6.482748275319915 1.9950268323488958 9.430471520158804
    vertex 7.000038626537822 17.99986208208604 9.49986201551223
    vertex 7.000386365331868 1.995032128291766 9.4986198680955
  endloop
endfacet
facet normal -0.13052619219570955 6.587852554285069e-05 -0.9914448591883003
  outer loop
    vertex 7.517676716549777 17.999876781093946 9.431713668954977
    vertex 7.000386365331868 1.995032128291766 9.4986198680955
    vertex 7.000038626537822 17.99986208208604 9.49986201551223
  endloop
endfacet
facet normal -0.13052619219570955 6.587852554285069e-05 -0.9914448591883003
  outer loop
    vertex 7.000386365331868 1.995032128291766 9.4986198680955
    vertex 7.517676716549777 17.999876781093946 9.431713668954977
    vertex 7.518024455343823 1.9950468272996704 9.430471521538246
  endloop
endfacet
facet normal -0.3826834322937136 5.634714129139962e-05 -0.9238795308225541
  outer loop
    vertex 8.000038626164805 17.999899881453786 9.231912825101187
    vertex 7.518024455343823 1.9950468272996704 9.430471521538246
    vertex 7.517676716549777 17.999876781093946 9.431713668954977
  endloop
endfacet
facet normal -0.3826834322937136 5.634714129139962e-05 -0.9238795308225541
  outer loop
    vertex 7.518024455343823 1.9950468272996704 9.430471521538246
    vertex 8.000038626164805 17.999899881453786 9.231912825101187
    vertex 8.000386364958851 1.9950699276595099 9.230670677684456
  endloop
endfacet
facet normal -0.6087614288951831 4.2975792478992985e-05 -0.7933533392143607
  outer loop
    vertex 8.414252188383392 17.999929808914217 8.914075581272984
    vertex 8.000386364958851 1.9950699276595099 9.230670677684456
    vertex 8.000038626164805 17.999899881453786 9.231912825101187
  endloop
endfacet
facet normal -0.6087614288951831 4.2975792478992985e-05 -0.7933533392143607
  outer loop
    vertex 8.000386364958851 1.9950699276595099 9.230670677684456
    vertex 8.414252188383392 17.999929808914217 8.914075581272984
    vertex 8.414599927177438 1.9950998551199395 8.912833433856253
  endloop
endfacet
facet normal -0.7933533401432673 2.6675714429998486e-05 -0.6087614286170959
  outer loop
    vertex 8.414252188383392 17.999929808914217 8.914075581272984
    vertex 8.732437172254661 1.995134570173984 8.498619872969652
    vertex 8.414599927177438 1.9950998551199395 8.912833433856253
  endloop
endfacet
facet normal -0.7933533401432673 2.6675714429998486e-05 -0.6087614286170959
  outer loop
    vertex 8.732437172254661 1.995134570173984 8.498619872969652
    vertex 8.414252188383392 17.999929808914217 8.914075581272984
    vertex 8.732089433460615 17.99996452396826 8.499862020386384
  endloop
endfacet
facet normal -0.9238795323389761 8.557730526301624e-06 -0.3826834326853988
  outer loop
    vertex 8.732089433460615 17.99996452396826 8.499862020386384
    vertex 8.932238017189391 1.9951717070480852 8.0162579646788
    vertex 8.732437172254661 1.995134570173984 8.498619872969652
  endloop
endfacet
facet normal -0.9238795323389761 8.557730526301624e-06 -0.3826834326853988
  outer loop
    vertex 8.932238017189391 1.9951717070480852 8.0162579646788
    vertex 8.732089433460615 17.99996452396826 8.499862020386384
    vertex 8.931890278395345 18.00000166084236 8.017500112095531
  endloop
endfacet
facet normal -0.9914448611888977 -1.0143448570444006e-05 -0.13052619323046968
  outer loop
    vertex 8.931890278395345 18.00000166084236 8.017500112095531
    vertex 9.000386364585834 1.9952087349256398 7.498619875892976
    vertex 8.932238017189391 1.9951717070480852 8.0162579646788
  endloop
endfacet
facet normal -0.9914448611888977 -1.0143448570444006e-05 -0.13052619323046968
  outer loop
    vertex 9.000386364585834 1.9952087349256398 7.498619875892976
    vertex 8.931890278395345 18.00000166084236 8.017500112095531
    vertex 9.000038625791788 18.000038688719915 7.499862023309706
  endloop
endfacet
facet normal -0.9914448611888974 -2.8153368409955516e-05 0.13052619058838696
  outer loop
    vertex 9.000038625791788 18.000038688719915 7.499862023309706
    vertex 8.93223801718939 1.995243130417986 6.980981786925543
    vertex 9.000386364585834 1.9952087349256398 7.498619875892976
  endloop
endfacet
facet normal -0.9914448611888974 -2.8153368409955516e-05 0.13052619058838696
  outer loop
    vertex 8.93223801718939 1.995243130417986 6.980981786925543
    vertex 9.000038625791788 18.000038688719915 7.499862023309706
    vertex 8.931890278395345 18.00007308421226 6.982223934342274
  endloop
endfacet
facet normal -0.9238795323389758 -4.424468271796929e-05 0.38268343022336815
  outer loop
    vertex 8.931890278395345 18.00007308421226 6.982223934342274
    vertex 8.732437172254661 1.9952725495291603 6.498619878102245
    vertex 8.93223801718939 1.995243130417986 6.980981786925543
  endloop
endfacet
facet normal -0.9238795323389758 -4.424468271796929e-05 0.38268343022336815
  outer loop
    vertex 8.732437172254661 1.9952725495291603 6.498619878102245
    vertex 8.931890278395345 18.00007308421226 6.982223934342274
    vertex 8.732089433460615 18.000102503323436 6.499862025518976
  endloop
endfacet
facet normal -0.7933533401432675 -5.7320795016549074e-05 0.6087614265029014
  outer loop
    vertex 8.732089433460615 18.000102503323436 6.499862025518976
    vertex 8.414599927177436 1.9952949873953572 6.084406316368646
    vertex 8.732437172254661 1.9952725495291603 6.498619878102245
  endloop
endfacet
facet normal -0.7933533401432675 -5.7320795016549074e-05 0.6087614265029014
  outer loop
    vertex 8.414599927177436 1.9952949873953572 6.084406316368646
    vertex 8.732089433460615 18.000102503323436 6.499862025518976
    vertex 8.41425218838339 18.000124941189632 6.085648463785376
  endloop
endfacet
facet normal -0.608761428895183 -6.649058986184345e-05 0.7933533375920824
  outer loop
    vertex 8.00038636495885 1.9953089149130723 5.766569071436612
    vertex 8.41425218838339 18.000124941189632 6.085648463785376
    vertex 8.000038626164805 18.000138868707346 5.767811218853342
  endloop
endfacet
facet normal -0.608761428895183 -6.649058986184345e-05 0.7933533375920824
  outer loop
    vertex 8.41425218838339 18.000124941189632 6.085648463785376
    vertex 8.00038636495885 1.9953089149130723 5.766569071436612
    vertex 8.414599927177436 1.9952949873953572 6.084406316368646
  endloop
endfacet
facet normal -0.3826834322937153 -7.112916088894846e-05 0.9238795298027465
  outer loop
    vertex 7.518024455343822 1.995313382944989 5.566768226297382
    vertex 8.000038626164805 18.000138868707346 5.767811218853342
    vertex 7.517676716549776 18.000143336739267 5.568010373714112
  endloop
endfacet
facet normal -0.3826834322937153 -7.112916088894846e-05 0.9238795298027465
  outer loop
    vertex 8.000038626164805 18.000138868707346 5.767811218853342
    vertex 7.518024455343822 1.995313382944989 5.566768226297382
    vertex 8.00038636495885 1.9953089149130723 5.766569071436612
  endloop
endfacet
facet normal -0.13052619219570838 -7.092039714796772e-05 0.9914448588404634
  outer loop
    vertex 7.000386365331868 1.9953080870021187 5.498619878360684
    vertex 7.517676716549776 18.000143336739267 5.568010373714112
    vertex 7.000038626537822 18.000138040796394 5.499862025777415
  endloop
endfacet
facet normal -0.13052619219570838 -7.092039714796772e-05 0.9914448588404634
  outer loop
    vertex 7.517676716549776 18.000143336739267 5.568010373714112
    vertex 7.000386365331868 1.9953080870021187 5.498619878360684
    vertex 7.518024455343822 1.995313382944989 5.566768226297382
  endloop
endfacet
facet normal 0.13052619219570724 -6.587852554285077e-05 0.9914448591883007
  outer loop
    vertex 6.4827482753199135 1.9952933879942143 5.566768224917936
    vertex 7.000038626537822 18.000138040796394 5.499862025777415
    vertex 6.4824005365258675 18.000123341788488 5.568010372334666
  endloop
endfacet
facet normal 0.13052619219570724 -6.587852554285077e-05 0.9914448591883007
  outer loop
    vertex 7.000038626537822 18.000138040796394 5.499862025777415
    vertex 6.4827482753199135 1.9952933879942143 5.566768224917936
    vertex 7.000386365331868 1.9953080870021187 5.498619878360684
  endloop
endfacet
facet normal 0.38268343229371704 -5.6347141291399446e-05 0.9238795308225527
  outer loop
    vertex 6.000386365704885 1.9952702876343746 5.766569068771729
    vertex 6.4824005365258675 18.000123341788488 5.568010372334666
    vertex 6.000038626910839 18.000100241428648 5.767811216188459
  endloop
endfacet
facet normal 0.38268343229371704 -5.6347141291399446e-05 0.9238795308225527
  outer loop
    vertex 6.4824005365258675 18.000123341788488 5.568010372334666
    vertex 6.000386365704885 1.9952702876343746 5.766569068771729
    vertex 6.4827482753199135 1.9952933879942143 5.566768224917936
  endloop
endfacet
facet normal 0.6087614288951808 -4.2975792478993155e-05 0.7933533392143625
  outer loop
    vertex 5.586172803486298 1.995240360173945 6.08440631259993
    vertex 6.000038626910839 18.000100241428648 5.767811216188459
    vertex 5.585825064692252 18.000070313968223 6.085648460016661
  endloop
endfacet
facet normal 0.6087614288951808 -4.2975792478993155e-05 0.7933533392143625
  outer loop
    vertex 6.000038626910839 18.000100241428648 5.767811216188459
    vertex 5.586172803486298 1.995240360173945 6.08440631259993
    vertex 6.000386365704885 1.9952702876343746 5.766569068771729
  endloop
endfacet
facet normal 0.7933533401432684 -2.6675714429998357e-05 0.6087614286170945
  outer loop
    vertex 5.586172803486298 1.995240360173945 6.08440631259993
    vertex 5.267987819615029 18.000035598914177 6.499862020903262
    vertex 5.268335558409074 1.9952056451199005 6.498619873486531
  endloop
endfacet
facet normal 0.7933533401432684 -2.6675714429998357e-05 0.6087614286170945
  outer loop
    vertex 5.267987819615029 18.000035598914177 6.499862020903262
    vertex 5.586172803486298 1.995240360173945 6.08440631259993
    vertex 5.585825064692252 18.000070313968223 6.085648460016661
  endloop
endfacet
facet normal 0.9238795323389754 -8.557730526301787e-06 0.38268343268540095
  outer loop
    vertex 5.268335558409074 1.9952056451199005 6.498619873486531
    vertex 5.068186974680298 17.999998462040075 6.982223929194113
    vertex 5.068534713474344 1.9951685082457995 6.980981781777382
  endloop
endfacet
facet normal 0.9238795323389754 -8.557730526301787e-06 0.38268343268540095
  outer loop
    vertex 5.068186974680298 17.999998462040075 6.982223929194113
    vertex 5.268335558409074 1.9952056451199005 6.498619873486531
    vertex 5.267987819615029 18.000035598914177 6.499862020903262
  endloop
endfacet
facet normal -1.931363939816613e-05 0.9999999974337039 6.898967758829122e-05
  outer loop
    vertex 6.22358149151989 18.00018498196213 4.6020845481795885
    vertex 7.776495761555752 18.00021497438829 4.602084550248757
    vertex 7.000038626537822 18.000207030473984 4.499862028343711
  endloop
endfacet
facet normal -1.931363939816613e-05 0.9999999974337039 6.898967758829122e-05
  outer loop
    vertex 7.776495761555752 18.00021497438829 4.602084550248757
    vertex 6.22358149151989 18.00018498196213 4.6020845481795885
    vertex 5.500038627097346 18.00015033142237 4.901785813960277
  endloop
endfacet
facet normal -1.931363939816613e-05 0.9999999974337039 6.898967758829122e-05
  outer loop
    vertex 7.776495761555752 18.00021497438829 4.602084550248757
    vertex 5.500038627097346 18.00015033142237 4.901785813960277
    vertex 8.500038625978295 18.000208272340412 4.9017858179576015
  endloop
endfacet
facet normal -1.931363939816613e-05 0.9999999974337039 6.898967758829122e-05
  outer loop
    vertex 8.500038625978295 18.000208272340412 4.9017858179576015
    vertex 5.500038627097346 18.00015033142237 4.901785813960277
    vertex 4.878718283769467 18.000105440231724 5.37854167970258
  endloop
endfacet
facet normal -1.931363939816613e-05 0.9999999974337039 6.898967758829122e-05
  outer loop
    vertex 8.500038625978295 18.000208272340412 4.9017858179576015
    vertex 4.878718283769467 18.000105440231724 5.37854167970258
    vertex 9.121358969306176 18.00018738106384 5.378541685355652
  endloop
endfacet
facet normal -1.931363939816613e-05 0.9999999974337039 6.898967758829122e-05
  outer loop
    vertex 9.121358969306176 18.00018738106384 5.378541685355652
    vertex 4.878718283769467 18.000105440231724 5.37854167970258
    vertex 7.000038626537822 18.000138040796394 5.499862025777415
  endloop
endfacet
facet normal -1.931363939816613e-05 0.9999999974337039 6.898967758829122e-05
  outer loop
    vertex 7.000038626537822 18.000138040796394 5.499862025777415
    vertex 4.878718283769467 18.000105440231724 5.37854167970258
    vertex 6.4824005365258675 18.000123341788488 5.568010372334666
  endloop
endfacet
facet normal -1.931363939816613e-05 0.9999999974337039 6.898967758829122e-05
  outer loop
    vertex 6.4824005365258675 18.000123341788488 5.568010372334666
    vertex 4.878718283769467 18.000105440231724 5.37854167970258
    vertex 4.401962416153631 18.000053367650654 5.999862021032482
  endloop
endfacet
facet normal -1.931363939816613e-05 0.9999999974337039 6.898967758829122e-05
  outer loop
    vertex 6.4824005365258675 18.000123341788488 5.568010372334666
    vertex 4.401962416153631 18.000053367650654 5.999862021032482
    vertex 6.000038626910839 18.000100241428648 5.767811216188459
  endloop
endfacet
facet normal -1.931363939816613e-05 0.9999999974337039 6.898967758829122e-05
  outer loop
    vertex 6.000038626910839 18.000100241428648 5.767811216188459
    vertex 4.401962416153631 18.000053367650654 5.999862021032482
    vertex 5.585825064692252 18.000070313968223 6.085648460016661
  endloop
endfacet
facet normal -1.931363939816613e-05 0.9999999974337039 6.898967758829122e-05
  outer loop
    vertex 5.585825064692252 18.000070313968223 6.085648460016661
    vertex 4.401962416153631 18.000053367650654 5.999862021032482
    vertex 4.102261148751536 17.999997662339503 6.72340488346876
  endloop
endfacet
facet normal -1.931363939816613e-05 0.9999999974337039 6.898967758829122e-05
  outer loop
    vertex 5.585825064692252 18.000070313968223 6.085648460016661
    vertex 4.102261148751536 17.999997662339503 6.72340488346876
    vertex 5.267987819615029 18.000035598914177 6.499862020903262
  endloop
endfacet
facet normal -1.931363939816613e-05 0.9999999974337039 6.898967758829122e-05
  outer loop
    vertex 5.267987819615029 18.000035598914177 6.499862020903262
    vertex 4.102261148751536 17.999997662339503 6.72340488346876
    vertex 5.068186974680298 17.999998462040075 6.982223929194113
  endloop
endfacet
facet normal -1.931363939816613e-05 0.9999999974337039 6.898967758829122e-05
  outer loop
    vertex 5.068186974680298 17.999998462040075 6.982223929194113
    vertex 4.102261148751536 17.999997662339503 6.72340488346876
    vertex 4.000038627656871 17.999942120523173 7.499862016647498
  endloop
endfacet
facet normal -1.931363939816613e-05 0.9999999974337039 6.898967758829122e-05
  outer loop
    vertex 5.068186974680298 17.999998462040075 6.982223929194113
    vertex 4.000038627656871 17.999942120523173 7.499862016647498
    vertex 5.000038627283855 17.99996143416252 7.499862017979939
  endloop
endfacet
facet normal -1.931363939816613e-05 0.9999999974337039 6.898967758829122e-05
  outer loop
    vertex 5.000038627283855 17.99996143416252 7.499862017979939
    vertex 4.000038627656871 17.999942120523173 7.499862016647498
    vertex 4.102261148751537 17.999890527284652 8.276319150098649
  endloop
endfacet
facet normal -1.931363939816613e-05 0.9999999974337039 6.898967758829122e-05
  outer loop
    vertex 5.000038627283855 17.99996143416252 7.499862017979939
    vertex 4.102261148751537 17.999890527284652 8.276319150098649
    vertex 5.068186974680299 17.999927038670172 8.017500106947374
  endloop
endfacet
facet normal -1.931363939816613e-05 0.9999999974337039 6.898967758829122e-05
  outer loop
    vertex 5.068186974680299 17.999927038670172 8.017500106947374
    vertex 4.102261148751537 17.999890527284652 8.276319150098649
    vertex 5.267987819615029 17.999897619559 8.49986201577067
  endloop
endfacet
facet normal -1.931363939816613e-05 0.9999999974337039 6.898967758829122e-05
  outer loop
    vertex 5.267987819615029 17.999897619559 8.49986201577067
    vertex 4.102261148751537 17.999890527284652 8.276319150098649
    vertex 4.401962416153632 17.999846398617887 8.999862013333594
  endloop
endfacet
facet normal -1.931363939816613e-05 0.9999999974337039 6.898967758829122e-05
  outer loop
    vertex 5.267987819615029 17.999897619559 8.49986201577067
    vertex 4.401962416153632 17.999846398617887 8.999862013333594
    vertex 5.585825064692252 17.999875181692804 8.914075577504269
  endloop
endfacet
facet normal -1.931363939816613e-05 0.9999999974337039 6.898967758829122e-05
  outer loop
    vertex 5.585825064692252 17.999875181692804 8.914075577504269
    vertex 4.401962416153632 17.999846398617887 8.999862013333594
    vertex 6.00003862691084 17.999861254175087 9.231912822436303
  endloop
endfacet
facet normal -1.931363939816613e-05 0.9999999974337039 6.898967758829122e-05
  outer loop
    vertex 6.00003862691084 17.999861254175087 9.231912822436303
    vertex 4.401962416153632 17.999846398617887 8.999862013333594
    vertex 4.878718283769468 17.999812741818598 9.621182355933994
  endloop
endfacet
facet normal -1.931363939816613e-05 0.9999999974337039 6.898967758829122e-05
  outer loop
    vertex 6.00003862691084 17.999861254175087 9.231912822436303
    vertex 4.878718283769468 17.999812741818598 9.621182355933994
    vertex 6.482400536525869 17.999856786143173 9.431713667575535
  endloop
endfacet
facet normal -1.931363939816613e-05 0.9999999974337039 6.898967758829122e-05
  outer loop
    vertex 6.482400536525869 17.999856786143173 9.431713667575535
    vertex 4.878718283769468 17.999812741818598 9.621182355933994
    vertex 7.000038626537822 17.99986208208604 9.49986201551223
  endloop
endfacet
facet normal -1.931363939816613e-05 0.9999999974337039 6.898967758829122e-05
  outer loop
    vertex 9.121358969306176 18.00018738106384 5.378541685355652
    vertex 7.517676716549776 18.000143336739267 5.568010373714112
    vertex 9.598114836922012 18.000153724264546 5.999862027956051
  endloop
endfacet
facet normal -1.931363939816613e-05 0.9999999974337039 6.898967758829122e-05
  outer loop
    vertex 7.517676716549776 18.000143336739267 5.568010373714112
    vertex 9.121358969306176 18.00018738106384 5.378541685355652
    vertex 7.000038626537822 18.000138040796394 5.499862025777415
  endloop
endfacet
facet normal -1.931363939816613e-05 0.9999999974337039 6.898967758829122e-05
  outer loop
    vertex 9.598114836922012 18.000153724264546 5.999862027956051
    vertex 7.517676716549776 18.000143336739267 5.568010373714112
    vertex 8.000038626164805 18.000138868707346 5.767811218853342
  endloop
endfacet
facet normal -1.931363939816613e-05 0.9999999974337039 6.898967758829122e-05
  outer loop
    vertex 9.598114836922012 18.000153724264546 5.999862027956051
    vertex 8.000038626164805 18.000138868707346 5.767811218853342
    vertex 8.41425218838339 18.000124941189632 6.085648463785376
  endloop
endfacet
facet normal -1.931363939816613e-05 0.9999999974337039 6.898967758829122e-05
  outer loop
    vertex 9.598114836922012 18.000153724264546 5.999862027956051
    vertex 8.41425218838339 18.000124941189632 6.085648463785376
    vertex 9.897816104324107 18.000109595597785 6.723404891190999
  endloop
endfacet
facet normal -1.931363939816613e-05 0.9999999974337039 6.898967758829122e-05
  outer loop
    vertex 9.897816104324107 18.000109595597785 6.723404891190999
    vertex 8.41425218838339 18.000124941189632 6.085648463785376
    vertex 8.732089433460615 18.000102503323436 6.499862025518976
  endloop
endfacet
facet normal -1.931363939816613e-05 0.9999999974337039 6.898967758829122e-05
  outer loop
    vertex 9.897816104324107 18.000109595597785 6.723404891190999
    vertex 8.732089433460615 18.000102503323436 6.499862025518976
    vertex 8.931890278395345 18.00007308421226 6.982223934342274
  endloop
endfacet
facet normal -1.931363939816613e-05 0.9999999974337039 6.898967758829122e-05
  outer loop
    vertex 9.897816104324107 18.000109595597785 6.723404891190999
    vertex 8.931890278395345 18.00007308421226 6.982223934342274
    vertex 10.000038625418771 18.000058002359264 7.499862024642147
  endloop
endfacet
facet normal -1.931363939816613e-05 0.9999999974337039 6.898967758829122e-05
  outer loop
    vertex 10.000038625418771 18.000058002359264 7.499862024642147
    vertex 8.931890278395345 18.00007308421226 6.982223934342274
    vertex 9.000038625791788 18.000038688719915 7.499862023309706
  endloop
endfacet
facet normal -1.931363939816613e-05 0.9999999974337039 6.898967758829122e-05
  outer loop
    vertex 10.000038625418771 18.000058002359264 7.499862024642147
    vertex 9.000038625791788 18.000038688719915 7.499862023309706
    vertex 8.931890278395345 18.00000166084236 8.017500112095531
  endloop
endfacet
facet normal -1.931363939816613e-05 0.9999999974337039 6.898967758829122e-05
  outer loop
    vertex 10.000038625418771 18.000058002359264 7.499862024642147
    vertex 8.931890278395345 18.00000166084236 8.017500112095531
    vertex 9.897816104324107 18.00000246054293 8.276319157820884
  endloop
endfacet
facet normal -1.931363939816613e-05 0.9999999974337039 6.898967758829122e-05
  outer loop
    vertex 9.897816104324107 18.00000246054293 8.276319157820884
    vertex 8.931890278395345 18.00000166084236 8.017500112095531
    vertex 8.732089433460615 17.99996452396826 8.499862020386384
  endloop
endfacet
facet normal -1.931363939816613e-05 0.9999999974337039 6.898967758829122e-05
  outer loop
    vertex 9.897816104324107 18.00000246054293 8.276319157820884
    vertex 8.732089433460615 17.99996452396826 8.499862020386384
    vertex 9.598114836922013 17.999946755231782 8.999862020257163
  endloop
endfacet
facet normal -1.931363939816613e-05 0.9999999974337039 6.898967758829122e-05
  outer loop
    vertex 9.598114836922013 17.999946755231782 8.999862020257163
    vertex 8.732089433460615 17.99996452396826 8.499862020386384
    vertex 8.414252188383392 17.999929808914217 8.914075581272984
  endloop
endfacet
facet normal -1.931363939816613e-05 0.9999999974337039 6.898967758829122e-05
  outer loop
    vertex 9.598114836922013 17.999946755231782 8.999862020257163
    vertex 8.414252188383392 17.999929808914217 8.914075581272984
    vertex 8.000038626164805 17.999899881453786 9.231912825101187
  endloop
endfacet
facet normal -1.931363939816613e-05 0.9999999974337039 6.898967758829122e-05
  outer loop
    vertex 9.598114836922013 17.999946755231782 8.999862020257163
    vertex 8.000038626164805 17.999899881453786 9.231912825101187
    vertex 9.121358969306177 17.999894682650712 9.621182361587064
  endloop
endfacet
facet normal -1.931363939816613e-05 0.9999999974337039 6.898967758829122e-05
  outer loop
    vertex 9.121358969306177 17.999894682650712 9.621182361587064
    vertex 8.000038626164805 17.999899881453786 9.231912825101187
    vertex 7.517676716549777 17.999876781093946 9.431713668954977
  endloop
endfacet
facet normal -1.931363939816613e-05 0.9999999974337039 6.898967758829122e-05
  outer loop
    vertex 9.121358969306177 17.999894682650712 9.621182361587064
    vertex 7.517676716549777 17.999876781093946 9.431713668954977
    vertex 7.000038626537822 17.99986208208604 9.49986201551223
  endloop
endfacet
facet normal -1.931363939816613e-05 0.9999999974337039 6.898967758829122e-05
  outer loop
    vertex 9.121358969306177 17.999894682650712 9.621182361587064
    vertex 7.000038626537822 17.99986208208604 9.49986201551223
    vertex 4.878718283769468 17.999812741818598 9.621182355933994
  endloop
endfacet
facet normal -1.931363939816613e-05 0.9999999974337039 6.898967758829122e-05
  outer loop
    vertex 9.121358969306177 17.999894682650712 9.621182361587064
    vertex 4.878718283769468 17.999812741818598 9.621182355933994
    vertex 5.500038627097349 17.99979185054202 10.097938223332045
  endloop
endfacet
facet normal -1.931363939816613e-05 0.9999999974337039 6.898967758829122e-05
  outer loop
    vertex 9.121358969306177 17.999894682650712 9.621182361587064
    vertex 5.500038627097349 17.99979185054202 10.097938223332045
    vertex 8.500038625978299 17.999849791460072 10.097938227329369
  endloop
endfacet
facet normal -1.931363939816613e-05 0.9999999974337039 6.898967758829122e-05
  outer loop
    vertex 8.500038625978299 17.999849791460072 10.097938227329369
    vertex 5.500038627097349 17.99979185054202 10.097938223332045
    vertex 6.223581491519892 17.999785148494144 10.39763949104089
  endloop
endfacet
facet normal -1.931363939816613e-05 0.9999999974337039 6.898967758829122e-05
  outer loop
    vertex 8.500038625978299 17.999849791460072 10.097938227329369
    vertex 6.223581491519892 17.999785148494144 10.39763949104089
    vertex 7.776495761555755 17.99981514092031 10.397639493110056
  endloop
endfacet
facet normal -1.931363939816613e-05 0.9999999974337039 6.898967758829122e-05
  outer loop
    vertex 7.776495761555755 17.99981514092031 10.397639493110056
    vertex 6.223581491519892 17.999785148494144 10.39763949104089
    vertex 7.000038626537823 17.999793092408453 10.499862012945934
  endloop
endfacet
facet normal 0.9914448611888979 1.0143448570401251e-05 0.13052619323046946
  outer loop
    vertex 4.102261148751536 17.999997662339503 6.72340488346876
    vertex 4.000000000378075 19.999942115390578 7.499999996002674
    vertex 4.000038627656871 17.999942120523173 7.499862016647498
  endloop
endfacet
facet normal 0.9914448611888979 1.0143448570401251e-05 0.13052619323046946
  outer loop
    vertex 4.000000000378075 19.999942115390578 7.499999996002674
    vertex 4.102261148751536 17.999997662339503 6.72340488346876
    vertex 4.10222252147274 19.99999765720691 6.723542862823936
  endloop
endfacet
facet normal 0.9914448611888977 2.815336840993764e-05 -0.13052619058838472
  outer loop
    vertex 4.000038627656871 17.999942120523173 7.499862016647498
    vertex 4.102222521472741 19.99989052215206 8.276457129453826
    vertex 4.102261148751537 17.999890527284652 8.276319150098649
  endloop
endfacet
facet normal 0.9914448611888977 2.815336840993764e-05 -0.13052619058838472
  outer loop
    vertex 4.102222521472741 19.99989052215206 8.276457129453826
    vertex 4.000038627656871 17.999942120523173 7.499862016647498
    vertex 4.000000000378075 19.999942115390578 7.499999996002674
  endloop
endfacet
facet normal 0.9238795323389751 4.424468271797791e-05 -0.38268343022336976
  outer loop
    vertex 4.102261148751537 17.999890527284652 8.276319150098649
    vertex 4.401923788874836 19.999846393485296 8.999999992688771
    vertex 4.401962416153632 17.999846398617887 8.999862013333594
  endloop
endfacet
facet normal 0.9238795323389751 4.424468271797791e-05 -0.38268343022336976
  outer loop
    vertex 4.401923788874836 19.999846393485296 8.999999992688771
    vertex 4.102261148751537 17.999890527284652 8.276319150098649
    vertex 4.102222521472741 19.99989052215206 8.276457129453826
  endloop
endfacet
facet normal 0.793353340143268 5.732079501658322e-05 -0.6087614265029008
  outer loop
    vertex 4.401962416153632 17.999846398617887 8.999862013333594
    vertex 4.878679656490672 19.999812736686003 9.62132033528917
    vertex 4.878718283769468 17.999812741818598 9.621182355933994
  endloop
endfacet
facet normal 0.793353340143268 5.732079501658322e-05 -0.6087614265029008
  outer loop
    vertex 4.878679656490672 19.999812736686003 9.62132033528917
    vertex 4.401962416153632 17.999846398617887 8.999862013333594
    vertex 4.401923788874836 19.999846393485296 8.999999992688771
  endloop
endfacet
facet normal 0.6087614288951816 6.649058986190103e-05 -0.7933533375920834
  outer loop
    vertex 5.499999999818552 19.99979184540943 10.09807620268722
    vertex 4.878718283769468 17.999812741818598 9.621182355933994
    vertex 4.878679656490672 19.999812736686003 9.62132033528917
  endloop
endfacet
facet normal 0.6087614288951816 6.649058986190103e-05 -0.7933533375920834
  outer loop
    vertex 4.878718283769468 17.999812741818598 9.621182355933994
    vertex 5.499999999818552 19.99979184540943 10.09807620268722
    vertex 5.500038627097349 17.99979185054202 10.097938223332045
  endloop
endfacet
facet normal 0.3826834322937153 7.11291608890254e-05 -0.9238795298027466
  outer loop
    vertex 6.223542864241096 19.999785143361553 10.397777470396065
    vertex 5.500038627097349 17.99979185054202 10.097938223332045
    vertex 5.499999999818552 19.99979184540943 10.09807620268722
  endloop
endfacet
facet normal 0.3826834322937153 7.11291608890254e-05 -0.9238795298027466
  outer loop
    vertex 5.500038627097349 17.99979185054202 10.097938223332045
    vertex 6.223542864241096 19.999785143361553 10.397777470396065
    vertex 6.223581491519892 17.999785148494144 10.39763949104089
  endloop
endfacet
facet normal 0.1305261921957075 7.092039714805883e-05 -0.9914448588404635
  outer loop
    vertex 6.9999999992590265 19.99979308727586 10.499999992301111
    vertex 6.223581491519892 17.999785148494144 10.39763949104089
    vertex 6.223542864241096 19.999785143361553 10.397777470396065
  endloop
endfacet
facet normal 0.1305261921957075 7.092039714805883e-05 -0.9914448588404635
  outer loop
    vertex 6.223581491519892 17.999785148494144 10.39763949104089
    vertex 6.9999999992590265 19.99979308727586 10.499999992301111
    vertex 7.000038626537823 17.999793092408453 10.499862012945934
  endloop
endfacet
facet normal -0.1305261921957079 6.587852554294982e-05 -0.9914448591883006
  outer loop
    vertex 7.776457134276959 19.999815135787717 10.397777472465233
    vertex 7.000038626537823 17.999793092408453 10.499862012945934
    vertex 6.9999999992590265 19.99979308727586 10.499999992301111
  endloop
endfacet
facet normal -0.1305261921957079 6.587852554294982e-05 -0.9914448591883006
  outer loop
    vertex 7.000038626537823 17.999793092408453 10.499862012945934
    vertex 7.776457134276959 19.999815135787717 10.397777472465233
    vertex 7.776495761555755 17.99981514092031 10.397639493110056
  endloop
endfacet
facet normal -0.3826834322937169 5.6347141291499755e-05 -0.9238795308225527
  outer loop
    vertex 8.499999998699503 19.999849786327477 10.098076206684544
    vertex 7.776495761555755 17.99981514092031 10.397639493110056
    vertex 7.776457134276959 19.999815135787717 10.397777472465233
  endloop
endfacet
facet normal -0.3826834322937169 5.6347141291499755e-05 -0.9238795308225527
  outer loop
    vertex 7.776495761555755 17.99981514092031 10.397639493110056
    vertex 8.499999998699503 19.999849786327477 10.098076206684544
    vertex 8.500038625978299 17.999849791460072 10.097938227329369
  endloop
endfacet
facet normal -0.6087614288951831 4.2975792479087663e-05 -0.7933533392143607
  outer loop
    vertex 9.121320342027381 19.99989467751812 9.62132034094224
    vertex 8.500038625978299 17.999849791460072 10.097938227329369
    vertex 8.499999998699503 19.999849786327477 10.098076206684544
  endloop
endfacet
facet normal -0.6087614288951831 4.2975792479087663e-05 -0.7933533392143607
  outer loop
    vertex 8.500038625978299 17.999849791460072 10.097938227329369
    vertex 9.121320342027381 19.99989467751812 9.62132034094224
    vertex 9.121358969306177 17.999894682650712 9.621182361587064
  endloop
endfacet
facet normal -0.7933533401432677 2.6675714430081034e-05 -0.6087614286170954
  outer loop
    vertex 9.121320342027381 19.99989467751812 9.62132034094224
    vertex 9.598114836922013 17.999946755231782 8.999862020257163
    vertex 9.121358969306177 17.999894682650712 9.621182361587064
  endloop
endfacet
facet normal -0.7933533401432677 2.6675714430081034e-05 -0.6087614286170954
  outer loop
    vertex 9.598114836922013 17.999946755231782 8.999862020257163
    vertex 9.121320342027381 19.99989467751812 9.62132034094224
    vertex 9.598076209643216 19.99994675009919 8.99999999961234
  endloop
endfacet
facet normal -0.9238795323389758 8.557730526366587e-06 -0.38268343268539945
  outer loop
    vertex 9.598076209643216 19.99994675009919 8.99999999961234
    vertex 9.897816104324107 18.00000246054293 8.276319157820884
    vertex 9.598114836922013 17.999946755231782 8.999862020257163
  endloop
endfacet
facet normal -0.9238795323389758 8.557730526366587e-06 -0.38268343268539945
  outer loop
    vertex 9.897816104324107 18.00000246054293 8.276319157820884
    vertex 9.598076209643216 19.99994675009919 8.99999999961234
    vertex 9.897777477045311 20.00000245541034 8.27645713717606
  endloop
endfacet
facet normal -0.9914448611888977 -1.0143448570401297e-05 -0.1305261932304688
  outer loop
    vertex 9.897777477045311 20.00000245541034 8.27645713717606
    vertex 10.000038625418771 18.000058002359264 7.499862024642147
    vertex 9.897816104324107 18.00000246054293 8.276319157820884
  endloop
endfacet
facet normal -0.9914448611888977 -1.0143448570401297e-05 -0.1305261932304688
  outer loop
    vertex 10.000038625418771 18.000058002359264 7.499862024642147
    vertex 9.897777477045311 20.00000245541034 8.27645713717606
    vertex 9.999999998139975 20.000057997226673 7.500000003997324
  endloop
endfacet
facet normal -0.9914448611888976 -2.8153368409937668e-05 0.1305261905883852
  outer loop
    vertex 9.999999998139975 20.000057997226673 7.500000003997324
    vertex 9.897816104324107 18.000109595597785 6.723404891190999
    vertex 10.000038625418771 18.000058002359264 7.499862024642147
  endloop
endfacet
facet normal -0.9914448611888976 -2.8153368409937668e-05 0.1305261905883852
  outer loop
    vertex 9.897816104324107 18.000109595597785 6.723404891190999
    vertex 9.999999998139975 20.000057997226673 7.500000003997324
    vertex 9.897777477045311 20.00010959046519 6.723542870546175
  endloop
endfacet
facet normal -0.9238795323389757 -4.424468271797783e-05 0.38268343022336854
  outer loop
    vertex 9.897777477045311 20.00010959046519 6.723542870546175
    vertex 9.598114836922012 18.000153724264546 5.999862027956051
    vertex 9.897816104324107 18.000109595597785 6.723404891190999
  endloop
endfacet
facet normal -0.9238795323389757 -4.424468271797783e-05 0.38268343022336854
  outer loop
    vertex 9.598114836922012 18.000153724264546 5.999862027956051
    vertex 9.897777477045311 20.00010959046519 6.723542870546175
    vertex 9.598076209643216 20.000153719131955 6.000000007311227
  endloop
endfacet
facet normal -0.793353340143268 -5.732079501658322e-05 0.6087614265029008
  outer loop
    vertex 9.598076209643216 20.000153719131955 6.000000007311227
    vertex 9.121358969306176 18.00018738106384 5.378541685355652
    vertex 9.598114836922012 18.000153724264546 5.999862027956051
  endloop
endfacet
facet normal -0.793353340143268 -5.732079501658322e-05 0.6087614265029008
  outer loop
    vertex 9.121358969306176 18.00018738106384 5.378541685355652
    vertex 9.598076209643216 20.000153719131955 6.000000007311227
    vertex 9.12132034202738 20.000187375931247 5.378679664710828
  endloop
endfacet
facet normal -0.6087614288951809 -6.649058986190105e-05 0.7933533375920839
  outer loop
    vertex 8.500038625978295 18.000208272340412 4.9017858179576015
    vertex 9.12132034202738 20.000187375931247 5.378679664710828
    vertex 8.499999998699499 20.00020826720782 4.9019237973127785
  endloop
endfacet
facet normal -0.6087614288951809 -6.649058986190105e-05 0.7933533375920839
  outer loop
    vertex 9.12132034202738 20.000187375931247 5.378679664710828
    vertex 8.500038625978295 18.000208272340412 4.9017858179576015
    vertex 9.121358969306176 18.00018738106384 5.378541685355652
  endloop
endfacet
facet normal -0.3826834322937164 -7.11291608890254e-05 0.9238795298027461
  outer loop
    vertex 7.776495761555752 18.00021497438829 4.602084550248757
    vertex 8.499999998699499 20.00020826720782 4.9019237973127785
    vertex 7.776457134276956 20.000214969255698 4.602222529603933
  endloop
endfacet
facet normal -0.3826834322937164 -7.11291608890254e-05 0.9238795298027461
  outer loop
    vertex 8.499999998699499 20.00020826720782 4.9019237973127785
    vertex 7.776495761555752 18.00021497438829 4.602084550248757
    vertex 8.500038625978295 18.000208272340412 4.9017858179576015
  endloop
endfacet
facet normal -0.1305261921957075 -7.092039714805883e-05 0.9914448588404635
  outer loop
    vertex 7.000038626537822 18.000207030473984 4.499862028343711
    vertex 7.776457134276956 20.000214969255698 4.602222529603933
    vertex 6.999999999259026 20.00020702534139 4.500000007698887
  endloop
endfacet
facet normal -0.1305261921957075 -7.092039714805883e-05 0.9914448588404635
  outer loop
    vertex 7.776457134276956 20.000214969255698 4.602222529603933
    vertex 7.000038626537822 18.000207030473984 4.499862028343711
    vertex 7.776495761555752 18.00021497438829 4.602084550248757
  endloop
endfacet
facet normal 0.13052619219570713 -6.587852554294984e-05 0.9914448591883006
  outer loop
    vertex 6.22358149151989 18.00018498196213 4.6020845481795885
    vertex 6.999999999259026 20.00020702534139 4.500000007698887
    vertex 6.223542864241094 20.000184976829534 4.6022225275347655
  endloop
endfacet
facet normal 0.13052619219570713 -6.587852554294984e-05 0.9914448591883006
  outer loop
    vertex 6.999999999259026 20.00020702534139 4.500000007698887
    vertex 6.22358149151989 18.00018498196213 4.6020845481795885
    vertex 7.000038626537822 18.000207030473984 4.499862028343711
  endloop
endfacet
facet normal 0.3826834322937163 -5.634714129149979e-05 0.923879530822553
  outer loop
    vertex 5.500038627097346 18.00015033142237 4.901785813960277
    vertex 6.223542864241094 20.000184976829534 4.6022225275347655
    vertex 5.49999999981855 20.000150326289774 4.901923793315453
  endloop
endfacet
facet normal 0.3826834322937163 -5.634714129149979e-05 0.923879530822553
  outer loop
    vertex 6.223542864241094 20.000184976829534 4.6022225275347655
    vertex 5.500038627097346 18.00015033142237 4.901785813960277
    vertex 6.22358149151989 18.00018498196213 4.6020845481795885
  endloop
endfacet
facet normal 0.608761428895182 -4.2975792479087745e-05 0.7933533392143615
  outer loop
    vertex 4.878718283769467 18.000105440231724 5.37854167970258
    vertex 5.49999999981855 20.000150326289774 4.901923793315453
    vertex 4.878679656490671 20.00010543509913 5.378679659057757
  endloop
endfacet
facet normal 0.608761428895182 -4.2975792479087745e-05 0.7933533392143615
  outer loop
    vertex 5.49999999981855 20.000150326289774 4.901923793315453
    vertex 4.878718283769467 18.000105440231724 5.37854167970258
    vertex 5.500038627097346 18.00015033142237 4.901785813960277
  endloop
endfacet
facet normal 0.793353340143268 -2.667571443008101e-05 0.608761428617095
  outer loop
    vertex 4.878718283769467 18.000105440231724 5.37854167970258
    vertex 4.401923788874835 20.000053362518063 6.000000000387658
    vertex 4.401962416153631 18.000053367650654 5.999862021032482
  endloop
endfacet
facet normal 0.793353340143268 -2.667571443008101e-05 0.608761428617095
  outer loop
    vertex 4.401923788874835 20.000053362518063 6.000000000387658
    vertex 4.878718283769467 18.000105440231724 5.37854167970258
    vertex 4.878679656490671 20.00010543509913 5.378679659057757
  endloop
endfacet
facet normal 0.923879532338976 -8.557730526366578e-06 0.3826834326853994
  outer loop
    vertex 4.401962416153631 18.000053367650654 5.999862021032482
    vertex 4.10222252147274 19.99999765720691 6.723542862823936
    vertex 4.102261148751536 17.999997662339503 6.72340488346876
  endloop
endfacet
facet normal 0.923879532338976 -8.557730526366578e-06 0.3826834326853994
  outer loop
    vertex 4.10222252147274 19.99999765720691 6.723542862823936
    vertex 4.401962416153631 18.000053367650654 5.999862021032482
    vertex 4.401923788874835 20.000053362518063 6.000000000387658
  endloop
endfacet
facet normal -1.7507744390518285e-05 -4.473210221171377e-05 -0.9999999988462591
  outer loop
    vertex 39.999725424160395 20.000348336634616 -15.001614727227391
    vertex -0.0002745320024847191 1.9993998752927165 -14.999999985482754
    vertex -0.00027453200248493556 19.999399875292717 -14.999999985482754
  endloop
endfacet
facet normal -1.7507744390518285e-05 -4.473210221171377e-05 -0.9999999988462591
  outer loop
    vertex -0.0002745320024847191 1.9993998752927165 -14.999999985482754
    vertex 39.999725424160395 20.000348336634616 -15.001614727227391
    vertex 21.514444093758947 8.484681249531288 -14.999999985482754
  endloop
endfacet
facet normal -1.7507744390518285e-05 -4.473210221171377e-05 -0.9999999988462591
  outer loop
    vertex -0.0002745320024847191 1.9993998752927165 -14.999999985482754
    vertex 21.514444093758947 8.484681249531288 -14.999999985482754
    vertex 13.029162719520366 1.9993998752927151 -14.999999985482754
  endloop
endfacet
facet normal -1.7507744390518285e-05 -4.473210221171377e-05 -0.9999999988462591
  outer loop
    vertex 13.029162719520366 1.9993998752927151 -14.999999985482754
    vertex 21.514444093758947 8.484681249531288 -14.999999985482754
    vertex 15.029162719520366 1.9993998752927147 -14.999999986334787
  endloop
endfacet
facet normal -1.7507744390518285e-05 -4.473210221171377e-05 -0.9999999988462591
  outer loop
    vertex 21.514444093758947 8.484681249531288 -14.999999985482754
    vertex 39.999725424160395 20.000348336634616 -15.001614727227391
    vertex 27.999725467997518 1.9993998752927165 -14.99999999186047
  endloop
endfacet
facet normal -1.7507744390518285e-05 -4.473210221171377e-05 -0.9999999988462591
  outer loop
    vertex 27.999725467997518 1.9993998752927165 -14.99999999186047
    vertex 39.999725424160395 20.000348336634616 -15.001614727227391
    vertex 29.999725468106003 1.9993998752927165 -14.999999999942254
  endloop
endfacet
facet normal -1.7507744390518285e-05 -4.473210221171377e-05 -0.9999999988462591
  outer loop
    vertex 29.999725468106003 1.9993998752927165 -14.999999999942254
    vertex 39.999725424160395 20.000348336634616 -15.001614727227391
    vertex 39.999725468106 1.9993998752927165 -14.999999999942254
  endloop
endfacet
facet normal 4.190209987838766e-05 -0.9999999990620678 1.0958028112015305e-05
  outer loop
    vertex 39.999531648373 2.0000571301496737 14.999698455766381
    vertex 29.999725468106003 1.9993998752927165 -14.999999999942254
    vertex 39.999725468106 1.9993998752927165 -14.999999999942254
  endloop
endfacet
facet normal 4.190209987838766e-05 -0.9999999990620678 1.0958028112015305e-05
  outer loop
    vertex 29.999725468106003 1.9993998752927165 -14.999999999942254
    vertex 39.999531648373 2.0000571301496737 14.999698455766381
    vertex 29.999725589332765 1.9994000921852075 14.999999985545946
  endloop
endfacet
facet normal -1.0821520638653469e-16 -1.0 -0.0
  outer loop
    vertex 13.029162732300865 1.9993998752927151 15.000000000000115
    vertex -0.0002745320024847191 1.9993998752927165 -14.999999985482754
    vertex 13.029162719520366 1.9993998752927151 -14.999999985482754
  endloop
endfacet
facet normal -1.0821520638653469e-16 -1.0 -0.0
  outer loop
    vertex -0.0002745320024847191 1.9993998752927165 -14.999999985482754
    vertex 13.029162732300865 1.9993998752927151 15.000000000000115
    vertex 8.732437172254661 1.9952725495291603 6.498619878102245
  endloop
endfacet
facet normal -1.0821520638653469e-16 -1.0 -0.0
  outer loop
    vertex -0.0002745320024847191 1.9993998752927165 -14.999999985482754
    vertex 8.732437172254661 1.9952725495291603 6.498619878102245
    vertex 8.414599927177436 1.9952949873953572 6.084406316368646
  endloop
endfacet
facet normal -1.0821520638653469e-16 -1.0 -0.0
  outer loop
    vertex -0.0002745320024847191 1.9993998752927165 -14.999999985482754
    vertex 8.414599927177436 1.9952949873953572 6.084406316368646
    vertex 8.00038636495885 1.9953089149130723 5.766569071436612
  endloop
endfacet
facet normal -1.0821520638653469e-16 -1.0 -0.0
  outer loop
    vertex -0.0002745320024847191 1.9993998752927165 -14.999999985482754
    vertex 8.00038636495885 1.9953089149130723 5.766569071436612
    vertex 7.518024455343822 1.995313382944989 5.566768226297382
  endloop
endfacet
facet normal -1.0821520638653469e-16 -1.0 -0.0
  outer loop
    vertex -0.0002745320024847191 1.9993998752927165 -14.999999985482754
    vertex 7.518024455343822 1.995313382944989 5.566768226297382
    vertex 7.000386365331868 1.9953080870021187 5.498619878360684
  endloop
endfacet
facet normal -1.0821520638653469e-16 -1.0 -0.0
  outer loop
    vertex 8.732437172254661 1.9952725495291603 6.498619878102245
    vertex 13.029162732300865 1.9993998752927151 15.000000000000115
    vertex 8.93223801718939 1.995243130417986 6.980981786925543
  endloop
endfacet
facet normal -1.0821520638653469e-16 -1.0 -0.0
  outer loop
    vertex 8.93223801718939 1.995243130417986 6.980981786925543
    vertex 13.029162732300865 1.9993998752927151 15.000000000000115
    vertex 9.000386364585834 1.9952087349256398 7.498619875892976
  endloop
endfacet
facet normal -1.0821520638653469e-16 -1.0 -0.0
  outer loop
    vertex 9.000386364585834 1.9952087349256398 7.498619875892976
    vertex 13.029162732300865 1.9993998752927151 15.000000000000115
    vertex 8.932238017189391 1.9951717070480852 8.0162579646788
  endloop
endfacet
facet normal -1.0821520638653469e-16 -1.0 -0.0
  outer loop
    vertex 8.932238017189391 1.9951717070480852 8.0162579646788
    vertex 13.029162732300865 1.9993998752927151 15.000000000000115
    vertex 8.732437172254661 1.995134570173984 8.498619872969652
  endloop
endfacet
facet normal -1.0821520638653469e-16 -1.0 -0.0
  outer loop
    vertex 8.732437172254661 1.995134570173984 8.498619872969652
    vertex 13.029162732300865 1.9993998752927151 15.000000000000115
    vertex 8.414599927177438 1.9950998551199395 8.912833433856253
  endloop
endfacet
facet normal -1.0821520638653469e-16 -1.0 -0.0
  outer loop
    vertex 8.414599927177438 1.9950998551199395 8.912833433856253
    vertex 13.029162732300865 1.9993998752927151 15.000000000000115
    vertex 8.000386364958851 1.9950699276595099 9.230670677684456
  endloop
endfacet
facet normal -1.0821520638653469e-16 -1.0 -0.0
  outer loop
    vertex 8.000386364958851 1.9950699276595099 9.230670677684456
    vertex 13.029162732300865 1.9993998752927151 15.000000000000115
    vertex 7.518024455343823 1.9950468272996704 9.430471521538246
  endloop
endfacet
facet normal -1.0821520638653469e-16 -1.0 -0.0
  outer loop
    vertex 7.518024455343823 1.9950468272996704 9.430471521538246
    vertex 13.029162732300865 1.9993998752927151 15.000000000000115
    vertex 7.000386365331868 1.995032128291766 9.4986198680955
  endloop
endfacet
facet normal -1.0821520638653469e-16 -1.0 -0.0
  outer loop
    vertex 7.000386365331868 1.995032128291766 9.4986198680955
    vertex 13.029162732300865 1.9993998752927151 15.000000000000115
    vertex -1.4819492784435907e-09 2.0000001126172515 14.999999999999998
  endloop
endfacet
facet normal -1.0821520638653469e-16 -1.0 -0.0
  outer loop
    vertex -0.0002745320024847191 1.9993998752927165 -14.999999985482754
    vertex 5.268335558409074 1.9952056451199005 6.498619873486531
    vertex -1.4819492784435907e-09 2.0000001126172515 14.999999999999998
  endloop
endfacet
facet normal -1.0821520638653469e-16 -1.0 -0.0
  outer loop
    vertex 5.268335558409074 1.9952056451199005 6.498619873486531
    vertex -0.0002745320024847191 1.9993998752927165 -14.999999985482754
    vertex 5.586172803486298 1.995240360173945 6.08440631259993
  endloop
endfacet
facet normal -1.0821520638653469e-16 -1.0 -0.0
  outer loop
    vertex 5.586172803486298 1.995240360173945 6.08440631259993
    vertex -0.0002745320024847191 1.9993998752927165 -14.999999985482754
    vertex 6.000386365704885 1.9952702876343746 5.766569068771729
  endloop
endfacet
facet normal -1.0821520638653469e-16 -1.0 -0.0
  outer loop
    vertex 6.000386365704885 1.9952702876343746 5.766569068771729
    vertex -0.0002745320024847191 1.9993998752927165 -14.999999985482754
    vertex 6.4827482753199135 1.9952933879942143 5.566768224917936
  endloop
endfacet
facet normal -1.0821520638653469e-16 -1.0 -0.0
  outer loop
    vertex 6.4827482753199135 1.9952933879942143 5.566768224917936
    vertex -0.0002745320024847191 1.9993998752927165 -14.999999985482754
    vertex 7.000386365331868 1.9953080870021187 5.498619878360684
  endloop
endfacet
facet normal -1.0821520638653469e-16 -1.0 -0.0
  outer loop
    vertex -1.4819492784435907e-09 2.0000001126172515 14.999999999999998
    vertex 5.268335558409074 1.9952056451199005 6.498619873486531
    vertex 5.068534713474344 1.9951685082457995 6.980981781777382
  endloop
endfacet
facet normal -1.0821520638653469e-16 -1.0 -0.0
  outer loop
    vertex -1.4819492784435907e-09 2.0000001126172515 14.999999999999998
    vertex 5.068534713474344 1.9951685082457995 6.980981781777382
    vertex 5.000386366077901 1.995131480368245 7.498619870563208
  endloop
endfacet
facet normal -1.0821520638653469e-16 -1.0 -0.0
  outer loop
    vertex -1.4819492784435907e-09 2.0000001126172515 14.999999999999998
    vertex 5.000386366077901 1.995131480368245 7.498619870563208
    vertex 5.068534713474345 1.9950970848758984 8.016257959530643
  endloop
endfacet
facet normal -1.0821520638653469e-16 -1.0 -0.0
  outer loop
    vertex -1.4819492784435907e-09 2.0000001126172515 14.999999999999998
    vertex 5.068534713474345 1.9950970848758984 8.016257959530643
    vertex 5.268335558409074 1.9950676657647242 8.49861986835394
  endloop
endfacet
facet normal -1.0821520638653469e-16 -1.0 -0.0
  outer loop
    vertex -1.4819492784435907e-09 2.0000001126172515 14.999999999999998
    vertex 5.268335558409074 1.9950676657647242 8.49861986835394
    vertex 5.586172803486298 1.9950452278985276 8.912833430087538
  endloop
endfacet
facet normal -1.0821520638653469e-16 -1.0 -0.0
  outer loop
    vertex -1.4819492784435907e-09 2.0000001126172515 14.999999999999998
    vertex 5.586172803486298 1.9950452278985276 8.912833430087538
    vertex 6.000386365704885 1.9950313003808124 9.230670675019573
  endloop
endfacet
facet normal -1.0821520638653469e-16 -1.0 -0.0
  outer loop
    vertex -1.4819492784435907e-09 2.0000001126172515 14.999999999999998
    vertex 6.000386365704885 1.9950313003808124 9.230670675019573
    vertex 6.482748275319915 1.9950268323488958 9.430471520158804
  endloop
endfacet
facet normal -1.0821520638653469e-16 -1.0 -0.0
  outer loop
    vertex -1.4819492784435907e-09 2.0000001126172515 14.999999999999998
    vertex 6.482748275319915 1.9950268323488958 9.430471520158804
    vertex 7.000386365331868 1.995032128291766 9.4986198680955
  endloop
endfacet
facet normal 2.9214638592053414e-17 -1.0 7.229749698692361e-09
  outer loop
    vertex 29.999725589332765 1.9994000921852075 14.999999985545946
    vertex 27.999725467997518 1.9993998752927165 -14.99999999186047
    vertex 29.999725468106003 1.9993998752927165 -14.999999999942254
  endloop
endfacet
facet normal 2.9214638592053414e-17 -1.0 7.229749698692361e-09
  outer loop
    vertex 27.999725467997518 1.9993998752927165 -14.99999999186047
    vertex 29.999725589332765 1.9994000921852075 14.999999985545946
    vertex 27.999725589224276 1.9994000921852075 14.99999999362773
  endloop
endfacet
facet normal -1.7624790515924364e-16 -1.0 7.508452798664659e-26
  outer loop
    vertex 15.029162732300863 1.9993998752927147 14.999999999148082
    vertex 13.029162719520366 1.9993998752927151 -14.999999985482754
    vertex 15.029162719520366 1.9993998752927147 -14.999999986334787
  endloop
endfacet
facet normal -1.7624790515924364e-16 -1.0 7.508452798664659e-26
  outer loop
    vertex 13.029162719520366 1.9993998752927151 -14.999999985482754
    vertex 15.029162732300863 1.9993998752927147 14.999999999148082
    vertex 13.029162732300865 1.9993998752927151 15.000000000000115
  endloop
endfacet
facet normal 1.899699682450488e-10 -3.77428195096514e-10 1.0
  outer loop
    vertex -1.4819492784435907e-09 2.0000001126172515 14.999999999999998
    vertex 39.999999958525045 20.000616679701825 15.000000000076232
    vertex -1.4819494948740036e-09 20.00000011261725 14.999999999999998
  endloop
endfacet
facet normal 1.899699682450488e-10 -3.77428195096514e-10 1.0
  outer loop
    vertex 39.999999958525045 20.000616679701825 15.000000000076232
    vertex -1.4819492784435907e-09 2.0000001126172515 14.999999999999998
    vertex 21.514718624279485 8.485281486855822 14.999999999999998
  endloop
endfacet
facet normal 1.899699682450488e-10 -3.77428195096514e-10 1.0
  outer loop
    vertex 21.514718624279485 8.485281486855822 14.999999999999998
    vertex -1.4819492784435907e-09 2.0000001126172515 14.999999999999998
    vertex 13.029162732300865 1.9993998752927151 15.000000000000115
  endloop
endfacet
facet normal 1.899699682450488e-10 -3.77428195096514e-10 1.0
  outer loop
    vertex 21.514718624279485 8.485281486855822 14.999999999999998
    vertex 13.029162732300865 1.9993998752927151 15.000000000000115
    vertex 15.029162732300863 1.9993998752927147 14.999999999148082
  endloop
endfacet
facet normal 1.899699682450488e-10 -3.77428195096514e-10 1.0
  outer loop
    vertex 39.999999958525045 20.000616679701825 15.000000000076232
    vertex 21.514718624279485 8.485281486855822 14.999999999999998
    vertex 27.999725589224276 1.9994000921852075 14.99999999362773
  endloop
endfacet
facet normal 1.899699682450488e-10 -3.77428195096514e-10 1.0
  outer loop
    vertex 39.999999958525045 20.000616679701825 15.000000000076232
    vertex 27.999725589224276 1.9994000921852075 14.99999999362773
    vertex 29.999725589332765 1.9994000921852075 14.999999985545946
  endloop
endfacet
facet normal 1.899699682450488e-10 -3.77428195096514e-10 1.0
  outer loop
    vertex 39.999999958525045 20.000616679701825 15.000000000076232
    vertex 29.999725589332765 1.9994000921852075 14.999999985545946
    vertex 39.999531648373 2.0000571301496737 14.999698455766381
  endloop
endfacet
facet normal -2.3446183416731963e-05 0.999999999620371 -1.447530820378819e-05
  outer loop
    vertex -0.00027453200248493556 19.999399875292717 -14.999999985482754
    vertex 6.223542864241094 20.000184976829534 4.6022225275347655
    vertex 6.999999999259026 20.00020702534139 4.500000007698887
  endloop
endfacet
facet normal -2.3446183416731963e-05 0.999999999620371 -1.447530820378819e-05
  outer loop
    vertex 6.223542864241094 20.000184976829534 4.6022225275347655
    vertex -0.00027453200248493556 19.999399875292717 -14.999999985482754
    vertex 5.49999999981855 20.000150326289774 4.901923793315453
  endloop
endfacet
facet normal -2.3446183416731963e-05 0.999999999620371 -1.447530820378819e-05
  outer loop
    vertex 5.49999999981855 20.000150326289774 4.901923793315453
    vertex -0.00027453200248493556 19.999399875292717 -14.999999985482754
    vertex 4.878679656490671 20.00010543509913 5.378679659057757
  endloop
endfacet
facet normal -2.3446183416731963e-05 0.999999999620371 -1.447530820378819e-05
  outer loop
    vertex 4.878679656490671 20.00010543509913 5.378679659057757
    vertex -0.00027453200248493556 19.999399875292717 -14.999999985482754
    vertex 4.401923788874835 20.000053362518063 6.000000000387658
  endloop
endfacet
facet normal -2.3446183416731963e-05 0.999999999620371 -1.447530820378819e-05
  outer loop
    vertex 4.401923788874835 20.000053362518063 6.000000000387658
    vertex -0.00027453200248493556 19.999399875292717 -14.999999985482754
    vertex -1.4819494948740036e-09 20.00000011261725 14.999999999999998
  endloop
endfacet
facet normal -2.3446183416731963e-05 0.999999999620371 -1.447530820378819e-05
  outer loop
    vertex 4.401923788874835 20.000053362518063 6.000000000387658
    vertex -1.4819494948740036e-09 20.00000011261725 14.999999999999998
    vertex 4.10222252147274 19.99999765720691 6.723542862823936
  endloop
endfacet
facet normal -2.3446183416731963e-05 0.999999999620371 -1.447530820378819e-05
  outer loop
    vertex 4.10222252147274 19.99999765720691 6.723542862823936
    vertex -1.4819494948740036e-09 20.00000011261725 14.999999999999998
    vertex 4.000000000378075 19.999942115390578 7.499999996002674
  endloop
endfacet
facet normal -2.3446183416731963e-05 0.999999999620371 -1.447530820378819e-05
  outer loop
    vertex 4.000000000378075 19.999942115390578 7.499999996002674
    vertex -1.4819494948740036e-09 20.00000011261725 14.999999999999998
    vertex 4.102222521472741 19.99989052215206 8.276457129453826
  endloop
endfacet
facet normal -2.3446183416731963e-05 0.999999999620371 -1.447530820378819e-05
  outer loop
    vertex 4.102222521472741 19.99989052215206 8.276457129453826
    vertex -1.4819494948740036e-09 20.00000011261725 14.999999999999998
    vertex 4.401923788874836 19.999846393485296 8.999999992688771
  endloop
endfacet
facet normal -2.3446183416731963e-05 0.999999999620371 -1.447530820378819e-05
  outer loop
    vertex 4.401923788874836 19.999846393485296 8.999999992688771
    vertex -1.4819494948740036e-09 20.00000011261725 14.999999999999998
    vertex 4.878679656490672 19.999812736686003 9.62132033528917
  endloop
endfacet
facet normal -2.3446183416731963e-05 0.999999999620371 -1.447530820378819e-05
  outer loop
    vertex 4.878679656490672 19.999812736686003 9.62132033528917
    vertex -1.4819494948740036e-09 20.00000011261725 14.999999999999998
    vertex 5.499999999818552 19.99979184540943 10.09807620268722
  endloop
endfacet
facet normal -2.3446183416731963e-05 0.999999999620371 -1.447530820378819e-05
  outer loop
    vertex 5.499999999818552 19.99979184540943 10.09807620268722
    vertex -1.4819494948740036e-09 20.00000011261725 14.999999999999998
    vertex 6.223542864241096 19.999785143361553 10.397777470396065
  endloop
endfacet
facet normal -2.3446183416731963e-05 0.999999999620371 -1.447530820378819e-05
  outer loop
    vertex 6.223542864241096 19.999785143361553 10.397777470396065
    vertex -1.4819494948740036e-09 20.00000011261725 14.999999999999998
    vertex 6.9999999992590265 19.99979308727586 10.499999992301111
  endloop
endfacet
facet normal -2.3446183416731963e-05 0.999999999620371 -1.447530820378819e-05
  outer loop
    vertex -0.00027453200248493556 19.999399875292717 -14.999999985482754
    vertex 39.999999958525045 20.000616679701825 15.000000000076232
    vertex 39.999725424160395 20.000348336634616 -15.001614727227391
  endloop
endfacet
facet normal -2.3446183416731963e-05 0.999999999620371 -1.447530820378819e-05
  outer loop
    vertex 39.999999958525045 20.000616679701825 15.000000000076232
    vertex -0.00027453200248493556 19.999399875292717 -14.999999985482754
    vertex 7.776457134276956 20.000214969255698 4.602222529603933
  endloop
endfacet
facet normal -2.3446183416731963e-05 0.999999999620371 -1.447530820378819e-05
  outer loop
    vertex 7.776457134276956 20.000214969255698 4.602222529603933
    vertex -0.00027453200248493556 19.999399875292717 -14.999999985482754
    vertex 6.999999999259026 20.00020702534139 4.500000007698887
  endloop
endfacet
facet normal -2.3446183416731963e-05 0.999999999620371 -1.447530820378819e-05
  outer loop
    vertex 39.999999958525045 20.000616679701825 15.000000000076232
    vertex 7.776457134276956 20.000214969255698 4.602222529603933
    vertex 8.499999998699499 20.00020826720782 4.9019237973127785
  endloop
endfacet
facet normal -2.3446183416731963e-05 0.999999999620371 -1.447530820378819e-05
  outer loop
    vertex 39.999999958525045 20.000616679701825 15.000000000076232
    vertex 8.499999998699499 20.00020826720782 4.9019237973127785
    vertex 9.12132034202738 20.000187375931247 5.378679664710828
  endloop
endfacet
facet normal -2.3446183416731963e-05 0.999999999620371 -1.447530820378819e-05
  outer loop
    vertex 39.999999958525045 20.000616679701825 15.000000000076232
    vertex 9.12132034202738 20.000187375931247 5.378679664710828
    vertex 9.598076209643216 20.000153719131955 6.000000007311227
  endloop
endfacet
facet normal -2.3446183416731963e-05 0.999999999620371 -1.447530820378819e-05
  outer loop
    vertex 39.999999958525045 20.000616679701825 15.000000000076232
    vertex 9.598076209643216 20.000153719131955 6.000000007311227
    vertex 9.897777477045311 20.00010959046519 6.723542870546175
  endloop
endfacet
facet normal -2.3446183416731963e-05 0.999999999620371 -1.447530820378819e-05
  outer loop
    vertex 39.999999958525045 20.000616679701825 15.000000000076232
    vertex 9.897777477045311 20.00010959046519 6.723542870546175
    vertex 9.999999998139975 20.000057997226673 7.500000003997324
  endloop
endfacet
facet normal -2.3446183416731963e-05 0.999999999620371 -1.447530820378819e-05
  outer loop
    vertex 39.999999958525045 20.000616679701825 15.000000000076232
    vertex 9.999999998139975 20.000057997226673 7.500000003997324
    vertex 9.897777477045311 20.00000245541034 8.27645713717606
  endloop
endfacet
facet normal -2.3446183416731963e-05 0.999999999620371 -1.447530820378819e-05
  outer loop
    vertex 39.999999958525045 20.000616679701825 15.000000000076232
    vertex 9.897777477045311 20.00000245541034 8.27645713717606
    vertex 9.598076209643216 19.99994675009919 8.99999999961234
  endloop
endfacet
facet normal -2.3446183416731963e-05 0.999999999620371 -1.447530820378819e-05
  outer loop
    vertex 39.999999958525045 20.000616679701825 15.000000000076232
    vertex 9.598076209643216 19.99994675009919 8.99999999961234
    vertex 9.121320342027381 19.99989467751812 9.62132034094224
  endloop
endfacet
facet normal -2.3446183416731963e-05 0.999999999620371 -1.447530820378819e-05
  outer loop
    vertex 39.999999958525045 20.000616679701825 15.000000000076232
    vertex 9.121320342027381 19.99989467751812 9.62132034094224
    vertex 8.499999998699503 19.999849786327477 10.098076206684544
  endloop
endfacet
facet normal -2.3446183416731963e-05 0.999999999620371 -1.447530820378819e-05
  outer loop
    vertex 39.999999958525045 20.000616679701825 15.000000000076232
    vertex 8.499999998699503 19.999849786327477 10.098076206684544
    vertex 7.776457134276959 19.999815135787717 10.397777472465233
  endloop
endfacet
facet normal -2.3446183416731963e-05 0.999999999620371 -1.447530820378819e-05
  outer loop
    vertex 39.999999958525045 20.000616679701825 15.000000000076232
    vertex 7.776457134276959 19.999815135787717 10.397777472465233
    vertex 6.9999999992590265 19.99979308727586 10.499999992301111
  endloop
endfacet
facet normal -2.3446183416731963e-05 0.999999999620371 -1.447530820378819e-05
  outer loop
    vertex 39.999999958525045 20.000616679701825 15.000000000076232
    vertex 6.9999999992590265 19.99979308727586 10.499999992301111
    vertex -1.4819494948740036e-09 20.00000011261725 14.999999999999998
  endloop
endfacet
facet normal 0.9999999999615057 -8.670593479093135e-06 -1.3452893516869654e-06
  outer loop
    vertex 39.999725424160395 20.000348336634616 -15.001614727227391
    vertex 39.999531648373 2.0000571301496737 14.999698455766381
    vertex 39.999725468106 1.9993998752927165 -14.999999999942254
  endloop
endfacet
facet normal 0.9999999999615057 -8.670593479093135e-06 -1.3452893516869654e-06
  outer loop
    vertex 39.999531648373 2.0000571301496737 14.999698455766381
    vertex 39.999725424160395 20.000348336634616 -15.001614727227391
    vertex 39.999999958525045 20.000616679701825 15.000000000076232
  endloop
endfacet
endsolid Подложка стола-Кубик
