solid Верх-хаб
facet normal -0.0 1.0 -0.0
  outer loop
    vertex 3.0 25.0 5.639932965095795e-15
    vertex 10.377683830159327 25.0 3.579408224429642
    vertex 12.5 25.0 3.300000000000001
  endloop
endfacet
facet normal -0.0 1.0 -0.0
  outer loop
    vertex 10.377683830159327 25.0 3.579408224429642
    vertex 3.0 25.0 5.639932965095795e-15
    vertex 8.399999999999999 25.0 4.3985916889676036
  endloop
endfacet
facet normal -0.0 1.0 -0.0
  outer loop
    vertex 8.399999999999999 25.0 4.3985916889676036
    vertex 3.0 25.0 5.639932965095795e-15
    vertex 6.701724394270311 25.0 5.70172439427031
  endloop
endfacet
facet normal -0.0 1.0 -0.0
  outer loop
    vertex 6.701724394270311 25.0 5.70172439427031
    vertex 3.0 25.0 5.639932965095795e-15
    vertex 5.3985916889676036 25.0 7.4
  endloop
endfacet
facet normal -0.0 1.0 -0.0
  outer loop
    vertex 5.3985916889676036 25.0 7.4
    vertex 3.0 25.0 5.639932965095795e-15
    vertex 4.57940822442964 25.0 9.377683830159329
  endloop
endfacet
facet normal -0.0 1.0 -0.0
  outer loop
    vertex 4.57940822442964 25.0 9.377683830159329
    vertex 3.0 25.0 5.639932965095795e-15
    vertex 4.300000000000001 25.0 11.5
  endloop
endfacet
facet normal -0.0 1.0 -0.0
  outer loop
    vertex 4.300000000000001 25.0 11.5
    vertex 3.0 25.0 5.639932965095795e-15
    vertex 3.0 25.0 45.0
  endloop
endfacet
facet normal -0.0 1.0 -0.0
  outer loop
    vertex 4.300000000000001 25.0 11.5
    vertex 3.0 25.0 45.0
    vertex 4.579408224429642 25.0 13.622316169840676
  endloop
endfacet
facet normal -0.0 1.0 -0.0
  outer loop
    vertex 4.579408224429642 25.0 13.622316169840676
    vertex 3.0 25.0 45.0
    vertex 5.398591688967606 25.0 15.600000000000003
  endloop
endfacet
facet normal -0.0 1.0 -0.0
  outer loop
    vertex 5.398591688967606 25.0 15.600000000000003
    vertex 3.0 25.0 45.0
    vertex 6.701724394270312 25.0 17.29827560572969
  endloop
endfacet
facet normal -0.0 1.0 -0.0
  outer loop
    vertex 6.701724394270312 25.0 17.29827560572969
    vertex 3.0 25.0 45.0
    vertex 8.400000000000006 25.0 18.6014083110324
  endloop
endfacet
facet normal -0.0 1.0 -0.0
  outer loop
    vertex 8.400000000000006 25.0 18.6014083110324
    vertex 3.0 25.0 45.0
    vertex 10.377683830159333 25.0 19.420591775570358
  endloop
endfacet
facet normal -0.0 1.0 -0.0
  outer loop
    vertex 10.377683830159333 25.0 19.420591775570358
    vertex 3.0 25.0 45.0
    vertex 12.500000000000002 25.0 19.7
  endloop
endfacet
facet normal -0.0 1.0 -0.0
  outer loop
    vertex 22.0 25.0 2.8199664825478975e-15
    vertex 20.7 25.0 11.499999999999998
    vertex 22.0 25.0 45.0
  endloop
endfacet
facet normal -0.0 1.0 -0.0
  outer loop
    vertex 20.7 25.0 11.499999999999998
    vertex 22.0 25.0 2.8199664825478975e-15
    vertex 20.420591775570358 25.0 9.377683830159327
  endloop
endfacet
facet normal -0.0 1.0 -0.0
  outer loop
    vertex 20.420591775570358 25.0 9.377683830159327
    vertex 22.0 25.0 2.8199664825478975e-15
    vertex 19.601408311032394 25.0 7.399999999999998
  endloop
endfacet
facet normal -0.0 1.0 -0.0
  outer loop
    vertex 19.601408311032394 25.0 7.399999999999998
    vertex 22.0 25.0 2.8199664825478975e-15
    vertex 18.29827560572969 25.0 5.70172439427031
  endloop
endfacet
facet normal -0.0 1.0 -0.0
  outer loop
    vertex 18.29827560572969 25.0 5.70172439427031
    vertex 22.0 25.0 2.8199664825478975e-15
    vertex 16.599999999999998 25.0 4.3985916889676036
  endloop
endfacet
facet normal -0.0 1.0 -0.0
  outer loop
    vertex 16.599999999999998 25.0 4.3985916889676036
    vertex 22.0 25.0 2.8199664825478975e-15
    vertex 14.62231616984067 25.0 3.5794082244296406
  endloop
endfacet
facet normal -0.0 1.0 -0.0
  outer loop
    vertex 14.62231616984067 25.0 3.5794082244296406
    vertex 22.0 25.0 2.8199664825478975e-15
    vertex 3.0 25.0 5.639932965095795e-15
  endloop
endfacet
facet normal -0.0 1.0 -0.0
  outer loop
    vertex 14.62231616984067 25.0 3.5794082244296406
    vertex 3.0 25.0 5.639932965095795e-15
    vertex 12.5 25.0 3.300000000000001
  endloop
endfacet
facet normal -0.0 1.0 -0.0
  outer loop
    vertex 22.0 25.0 45.0
    vertex 20.7 25.0 11.499999999999998
    vertex 20.420591775570358 25.0 13.622316169840667
  endloop
endfacet
facet normal -0.0 1.0 -0.0
  outer loop
    vertex 22.0 25.0 45.0
    vertex 20.420591775570358 25.0 13.622316169840667
    vertex 19.601408311032397 25.0 15.599999999999996
  endloop
endfacet
facet normal -0.0 1.0 -0.0
  outer loop
    vertex 22.0 25.0 45.0
    vertex 19.601408311032397 25.0 15.599999999999996
    vertex 18.298275605729692 25.0 17.29827560572969
  endloop
endfacet
facet normal -0.0 1.0 -0.0
  outer loop
    vertex 22.0 25.0 45.0
    vertex 18.298275605729692 25.0 17.29827560572969
    vertex 16.600000000000005 25.0 18.601408311032394
  endloop
endfacet
facet normal -0.0 1.0 -0.0
  outer loop
    vertex 22.0 25.0 45.0
    vertex 16.600000000000005 25.0 18.601408311032394
    vertex 14.622316169840678 25.0 19.420591775570358
  endloop
endfacet
facet normal -0.0 1.0 -0.0
  outer loop
    vertex 22.0 25.0 45.0
    vertex 14.622316169840678 25.0 19.420591775570358
    vertex 12.500000000000002 25.0 19.7
  endloop
endfacet
facet normal -0.0 1.0 -0.0
  outer loop
    vertex 22.0 25.0 45.0
    vertex 12.500000000000002 25.0 19.7
    vertex 3.0 25.0 45.0
  endloop
endfacet
facet normal 1.0 -0.0 -0.0
  outer loop
    vertex 25.0 3.0 5.639932965095795e-15
    vertex 25.0 4.300000000000001 28.5
    vertex 25.0 3.0 45.0
  endloop
endfacet
facet normal 1.0 -0.0 -0.0
  outer loop
    vertex 25.0 4.300000000000001 28.5
    vertex 25.0 3.0 5.639932965095795e-15
    vertex 25.0 4.57940822442964 26.37768383015933
  endloop
endfacet
facet normal 1.0 -0.0 -0.0
  outer loop
    vertex 25.0 4.57940822442964 26.37768383015933
    vertex 25.0 3.0 5.639932965095795e-15
    vertex 25.0 5.398591688967602 24.400000000000002
  endloop
endfacet
facet normal 1.0 -0.0 -0.0
  outer loop
    vertex 25.0 5.398591688967602 24.400000000000002
    vertex 25.0 3.0 5.639932965095795e-15
    vertex 25.0 22.0 2.8199664825478975e-15
  endloop
endfacet
facet normal 1.0 -0.0 -0.0
  outer loop
    vertex 25.0 5.398591688967602 24.400000000000002
    vertex 25.0 22.0 2.8199664825478975e-15
    vertex 25.0 6.7017243942703075 22.70172439427031
  endloop
endfacet
facet normal 1.0 -0.0 -0.0
  outer loop
    vertex 25.0 6.7017243942703075 22.70172439427031
    vertex 25.0 22.0 2.8199664825478975e-15
    vertex 25.0 8.399999999999995 21.398591688967606
  endloop
endfacet
facet normal 1.0 -0.0 -0.0
  outer loop
    vertex 25.0 8.399999999999995 21.398591688967606
    vertex 25.0 22.0 2.8199664825478975e-15
    vertex 25.0 10.377683830159324 20.579408224429642
  endloop
endfacet
facet normal 1.0 -0.0 -0.0
  outer loop
    vertex 25.0 10.377683830159324 20.579408224429642
    vertex 25.0 22.0 2.8199664825478975e-15
    vertex 25.0 12.499999999999998 20.3
  endloop
endfacet
facet normal 1.0 -0.0 -0.0
  outer loop
    vertex 25.0 12.499999999999998 20.3
    vertex 25.0 22.0 2.8199664825478975e-15
    vertex 25.0 14.622316169840666 20.579408224429642
  endloop
endfacet
facet normal 1.0 -0.0 -0.0
  outer loop
    vertex 25.0 14.622316169840666 20.579408224429642
    vertex 25.0 22.0 2.8199664825478975e-15
    vertex 25.0 16.59999999999999 21.3985916889676
  endloop
endfacet
facet normal 1.0 -0.0 -0.0
  outer loop
    vertex 25.0 16.59999999999999 21.3985916889676
    vertex 25.0 22.0 2.8199664825478975e-15
    vertex 25.0 18.298275605729685 22.701724394270308
  endloop
endfacet
facet normal 1.0 -0.0 -0.0
  outer loop
    vertex 25.0 18.298275605729685 22.701724394270308
    vertex 25.0 22.0 2.8199664825478975e-15
    vertex 25.0 19.601408311032394 24.399999999999995
  endloop
endfacet
facet normal 1.0 -0.0 -0.0
  outer loop
    vertex 25.0 19.601408311032394 24.399999999999995
    vertex 25.0 22.0 2.8199664825478975e-15
    vertex 25.0 20.420591775570358 26.37768383015932
  endloop
endfacet
facet normal 1.0 -0.0 -0.0
  outer loop
    vertex 25.0 20.420591775570358 26.37768383015932
    vertex 25.0 22.0 2.8199664825478975e-15
    vertex 25.0 20.7 28.5
  endloop
endfacet
facet normal 1.0 -0.0 -0.0
  outer loop
    vertex 25.0 3.0 45.0
    vertex 25.0 8.400000000000002 35.6014083110324
    vertex 25.0 22.0 45.0
  endloop
endfacet
facet normal 1.0 -0.0 -0.0
  outer loop
    vertex 25.0 8.400000000000002 35.6014083110324
    vertex 25.0 3.0 45.0
    vertex 25.0 6.701724394270311 34.29827560572969
  endloop
endfacet
facet normal 1.0 -0.0 -0.0
  outer loop
    vertex 25.0 6.701724394270311 34.29827560572969
    vertex 25.0 3.0 45.0
    vertex 25.0 5.398591688967605 32.6
  endloop
endfacet
facet normal 1.0 -0.0 -0.0
  outer loop
    vertex 25.0 5.398591688967605 32.6
    vertex 25.0 3.0 45.0
    vertex 25.0 4.579408224429642 30.62231616984067
  endloop
endfacet
facet normal 1.0 -0.0 -0.0
  outer loop
    vertex 25.0 4.579408224429642 30.62231616984067
    vertex 25.0 3.0 45.0
    vertex 25.0 4.300000000000001 28.5
  endloop
endfacet
facet normal 1.0 -0.0 -0.0
  outer loop
    vertex 25.0 22.0 45.0
    vertex 25.0 8.400000000000002 35.6014083110324
    vertex 25.0 10.37768383015933 36.42059177557036
  endloop
endfacet
facet normal 1.0 -0.0 -0.0
  outer loop
    vertex 25.0 22.0 45.0
    vertex 25.0 10.37768383015933 36.42059177557036
    vertex 25.0 12.5 36.7
  endloop
endfacet
facet normal 1.0 -0.0 -0.0
  outer loop
    vertex 25.0 22.0 45.0
    vertex 25.0 12.5 36.7
    vertex 25.0 14.622316169840671 36.42059177557036
  endloop
endfacet
facet normal 1.0 -0.0 -0.0
  outer loop
    vertex 25.0 22.0 45.0
    vertex 25.0 14.622316169840671 36.42059177557036
    vertex 25.0 16.6 35.6014083110324
  endloop
endfacet
facet normal 1.0 -0.0 -0.0
  outer loop
    vertex 25.0 22.0 45.0
    vertex 25.0 16.6 35.6014083110324
    vertex 25.0 18.29827560572969 34.29827560572969
  endloop
endfacet
facet normal 1.0 -0.0 -0.0
  outer loop
    vertex 25.0 22.0 45.0
    vertex 25.0 18.29827560572969 34.29827560572969
    vertex 25.0 19.601408311032397 32.599999999999994
  endloop
endfacet
facet normal 1.0 -0.0 -0.0
  outer loop
    vertex 25.0 22.0 45.0
    vertex 25.0 19.601408311032397 32.599999999999994
    vertex 25.0 20.420591775570358 30.62231616984067
  endloop
endfacet
facet normal 1.0 -0.0 -0.0
  outer loop
    vertex 25.0 22.0 45.0
    vertex 25.0 20.420591775570358 30.62231616984067
    vertex 25.0 20.7 28.5
  endloop
endfacet
facet normal 1.0 -0.0 -0.0
  outer loop
    vertex 25.0 22.0 45.0
    vertex 25.0 20.7 28.5
    vertex 25.0 22.0 2.8199664825478975e-15
  endloop
endfacet
facet normal 0.0 0.38268343236509084 0.9238795325112863
  outer loop
    vertex 25.0 8.399999999999995 21.398591688967606
    vertex 0.0 10.377683830159324 20.579408224429642
    vertex 0.0 8.399999999999995 21.398591688967606
  endloop
endfacet
facet normal 0.0 0.38268343236509084 0.9238795325112863
  outer loop
    vertex 0.0 10.377683830159324 20.579408224429642
    vertex 25.0 8.399999999999995 21.398591688967606
    vertex 25.0 10.377683830159324 20.579408224429642
  endloop
endfacet
facet normal 0.0 0.6087614290087211 0.793353340291235
  outer loop
    vertex 25.0 6.7017243942703075 22.70172439427031
    vertex 0.0 8.399999999999995 21.398591688967606
    vertex 0.0 6.7017243942703075 22.70172439427031
  endloop
endfacet
facet normal 0.0 0.6087614290087211 0.793353340291235
  outer loop
    vertex 0.0 8.399999999999995 21.398591688967606
    vertex 25.0 6.7017243942703075 22.70172439427031
    vertex 25.0 8.399999999999995 21.398591688967606
  endloop
endfacet
facet normal 0.0 0.7933533402912353 0.6087614290087207
  outer loop
    vertex 0.0 5.398591688967602 24.400000000000002
    vertex 25.0 6.7017243942703075 22.70172439427031
    vertex 0.0 6.7017243942703075 22.70172439427031
  endloop
endfacet
facet normal 0.0 0.7933533402912353 0.6087614290087207
  outer loop
    vertex 25.0 6.7017243942703075 22.70172439427031
    vertex 0.0 5.398591688967602 24.400000000000002
    vertex 25.0 5.398591688967602 24.400000000000002
  endloop
endfacet
facet normal 0.0 0.9238795325112871 0.382683432365089
  outer loop
    vertex 0.0 4.57940822442964 26.37768383015933
    vertex 25.0 5.398591688967602 24.400000000000002
    vertex 0.0 5.398591688967602 24.400000000000002
  endloop
endfacet
facet normal 0.0 0.9238795325112871 0.382683432365089
  outer loop
    vertex 25.0 5.398591688967602 24.400000000000002
    vertex 0.0 4.57940822442964 26.37768383015933
    vertex 25.0 4.57940822442964 26.37768383015933
  endloop
endfacet
facet normal 0.0 0.9914448613738105 0.1305261922200516
  outer loop
    vertex 0.0 4.300000000000001 28.5
    vertex 25.0 4.57940822442964 26.37768383015933
    vertex 0.0 4.57940822442964 26.37768383015933
  endloop
endfacet
facet normal 0.0 0.9914448613738105 0.1305261922200516
  outer loop
    vertex 25.0 4.57940822442964 26.37768383015933
    vertex 0.0 4.300000000000001 28.5
    vertex 25.0 4.300000000000001 28.5
  endloop
endfacet
facet normal -0.0 0.9914448613738104 -0.1305261922200519
  outer loop
    vertex 0.0 4.579408224429642 30.62231616984067
    vertex 25.0 4.300000000000001 28.5
    vertex 0.0 4.300000000000001 28.5
  endloop
endfacet
facet normal -0.0 0.9914448613738104 -0.1305261922200519
  outer loop
    vertex 25.0 4.300000000000001 28.5
    vertex 0.0 4.579408224429642 30.62231616984067
    vertex 25.0 4.579408224429642 30.62231616984067
  endloop
endfacet
facet normal -0.0 0.923879532511287 -0.38268343236508967
  outer loop
    vertex 0.0 5.398591688967605 32.6
    vertex 25.0 4.579408224429642 30.62231616984067
    vertex 0.0 4.579408224429642 30.62231616984067
  endloop
endfacet
facet normal -0.0 0.923879532511287 -0.38268343236508967
  outer loop
    vertex 25.0 4.579408224429642 30.62231616984067
    vertex 0.0 5.398591688967605 32.6
    vertex 25.0 5.398591688967605 32.6
  endloop
endfacet
facet normal -0.0 0.7933533402912353 -0.6087614290087207
  outer loop
    vertex 0.0 6.701724394270311 34.29827560572969
    vertex 25.0 5.398591688967605 32.6
    vertex 0.0 5.398591688967605 32.6
  endloop
endfacet
facet normal -0.0 0.7933533402912353 -0.6087614290087207
  outer loop
    vertex 25.0 5.398591688967605 32.6
    vertex 0.0 6.701724394270311 34.29827560572969
    vertex 25.0 6.701724394270311 34.29827560572969
  endloop
endfacet
facet normal -0.0 0.6087614290087204 -0.7933533402912355
  outer loop
    vertex 25.0 8.400000000000002 35.6014083110324
    vertex 0.0 6.701724394270311 34.29827560572969
    vertex 0.0 8.400000000000002 35.6014083110324
  endloop
endfacet
facet normal -0.0 0.6087614290087204 -0.7933533402912355
  outer loop
    vertex 0.0 6.701724394270311 34.29827560572969
    vertex 25.0 8.400000000000002 35.6014083110324
    vertex 25.0 6.701724394270311 34.29827560572969
  endloop
endfacet
facet normal -0.0 0.3826834323650884 -0.9238795325112874
  outer loop
    vertex 25.0 10.37768383015933 36.42059177557036
    vertex 0.0 8.400000000000002 35.6014083110324
    vertex 0.0 10.37768383015933 36.42059177557036
  endloop
endfacet
facet normal -0.0 0.3826834323650884 -0.9238795325112874
  outer loop
    vertex 0.0 8.400000000000002 35.6014083110324
    vertex 25.0 10.37768383015933 36.42059177557036
    vertex 25.0 8.400000000000002 35.6014083110324
  endloop
endfacet
facet normal -0.0 0.13052619222005335 -0.9914448613738102
  outer loop
    vertex 25.0 12.5 36.7
    vertex 0.0 10.37768383015933 36.42059177557036
    vertex 0.0 12.5 36.7
  endloop
endfacet
facet normal -0.0 0.13052619222005335 -0.9914448613738102
  outer loop
    vertex 0.0 10.37768383015933 36.42059177557036
    vertex 25.0 12.5 36.7
    vertex 25.0 10.37768383015933 36.42059177557036
  endloop
endfacet
facet normal -0.0 -0.13052619222005318 -0.9914448613738103
  outer loop
    vertex 25.0 14.622316169840671 36.42059177557036
    vertex 0.0 12.5 36.7
    vertex 0.0 14.622316169840671 36.42059177557036
  endloop
endfacet
facet normal -0.0 -0.13052619222005318 -0.9914448613738103
  outer loop
    vertex 0.0 12.5 36.7
    vertex 25.0 14.622316169840671 36.42059177557036
    vertex 25.0 12.5 36.7
  endloop
endfacet
facet normal -0.0 -0.3826834323650884 -0.9238795325112874
  outer loop
    vertex 25.0 16.6 35.6014083110324
    vertex 0.0 14.622316169840671 36.42059177557036
    vertex 0.0 16.6 35.6014083110324
  endloop
endfacet
facet normal -0.0 -0.3826834323650884 -0.9238795325112874
  outer loop
    vertex 0.0 14.622316169840671 36.42059177557036
    vertex 25.0 16.6 35.6014083110324
    vertex 25.0 14.622316169840671 36.42059177557036
  endloop
endfacet
facet normal -0.0 -0.6087614290087211 -0.793353340291235
  outer loop
    vertex 25.0 18.29827560572969 34.29827560572969
    vertex 0.0 16.6 35.6014083110324
    vertex 0.0 18.29827560572969 34.29827560572969
  endloop
endfacet
facet normal -0.0 -0.6087614290087211 -0.793353340291235
  outer loop
    vertex 0.0 16.6 35.6014083110324
    vertex 25.0 18.29827560572969 34.29827560572969
    vertex 25.0 16.6 35.6014083110324
  endloop
endfacet
facet normal -0.0 -0.7933533402912358 -0.6087614290087198
  outer loop
    vertex 25.0 18.29827560572969 34.29827560572969
    vertex 0.0 19.601408311032397 32.599999999999994
    vertex 25.0 19.601408311032397 32.599999999999994
  endloop
endfacet
facet normal -0.0 -0.7933533402912358 -0.6087614290087198
  outer loop
    vertex 0.0 19.601408311032397 32.599999999999994
    vertex 25.0 18.29827560572969 34.29827560572969
    vertex 0.0 18.29827560572969 34.29827560572969
  endloop
endfacet
facet normal -0.0 -0.9238795325112867 -0.38268343236509
  outer loop
    vertex 25.0 19.601408311032397 32.599999999999994
    vertex 0.0 20.420591775570358 30.62231616984067
    vertex 25.0 20.420591775570358 30.62231616984067
  endloop
endfacet
facet normal -0.0 -0.9238795325112867 -0.38268343236509
  outer loop
    vertex 0.0 20.420591775570358 30.62231616984067
    vertex 25.0 19.601408311032397 32.599999999999994
    vertex 0.0 19.601408311032397 32.599999999999994
  endloop
endfacet
facet normal -0.0 -0.9914448613738104 -0.1305261922200519
  outer loop
    vertex 25.0 20.420591775570358 30.62231616984067
    vertex 0.0 20.7 28.5
    vertex 25.0 20.7 28.5
  endloop
endfacet
facet normal -0.0 -0.9914448613738104 -0.1305261922200519
  outer loop
    vertex 0.0 20.7 28.5
    vertex 25.0 20.420591775570358 30.62231616984067
    vertex 0.0 20.420591775570358 30.62231616984067
  endloop
endfacet
facet normal -0.0 -0.9914448613738104 0.13052619222005155
  outer loop
    vertex 25.0 20.7 28.5
    vertex 0.0 20.420591775570358 26.37768383015932
    vertex 25.0 20.420591775570358 26.37768383015932
  endloop
endfacet
facet normal -0.0 -0.9914448613738104 0.13052619222005155
  outer loop
    vertex 0.0 20.420591775570358 26.37768383015932
    vertex 25.0 20.7 28.5
    vertex 0.0 20.7 28.5
  endloop
endfacet
facet normal -0.0 -0.9238795325112862 0.3826834323650911
  outer loop
    vertex 25.0 20.420591775570358 26.37768383015932
    vertex 0.0 19.601408311032394 24.399999999999995
    vertex 25.0 19.601408311032394 24.399999999999995
  endloop
endfacet
facet normal -0.0 -0.9238795325112862 0.3826834323650911
  outer loop
    vertex 0.0 19.601408311032394 24.399999999999995
    vertex 25.0 20.420591775570358 26.37768383015932
    vertex 0.0 20.420591775570358 26.37768383015932
  endloop
endfacet
facet normal -0.0 -0.793353340291235 0.6087614290087211
  outer loop
    vertex 25.0 19.601408311032394 24.399999999999995
    vertex 0.0 18.298275605729685 22.701724394270308
    vertex 25.0 18.298275605729685 22.701724394270308
  endloop
endfacet
facet normal -0.0 -0.793353340291235 0.6087614290087211
  outer loop
    vertex 0.0 18.298275605729685 22.701724394270308
    vertex 25.0 19.601408311032394 24.399999999999995
    vertex 0.0 19.601408311032394 24.399999999999995
  endloop
endfacet
facet normal -0.0 -0.6087614290087198 0.7933533402912358
  outer loop
    vertex 25.0 16.59999999999999 21.3985916889676
    vertex 0.0 18.298275605729685 22.701724394270308
    vertex 0.0 16.59999999999999 21.3985916889676
  endloop
endfacet
facet normal -0.0 -0.6087614290087198 0.7933533402912358
  outer loop
    vertex 0.0 18.298275605729685 22.701724394270308
    vertex 25.0 16.59999999999999 21.3985916889676
    vertex 25.0 18.298275605729685 22.701724394270308
  endloop
endfacet
facet normal -0.0 -0.38268343236508884 0.9238795325112872
  outer loop
    vertex 25.0 14.622316169840666 20.579408224429642
    vertex 0.0 16.59999999999999 21.3985916889676
    vertex 0.0 14.622316169840666 20.579408224429642
  endloop
endfacet
facet normal -0.0 -0.38268343236508884 0.9238795325112872
  outer loop
    vertex 0.0 16.59999999999999 21.3985916889676
    vertex 25.0 14.622316169840666 20.579408224429642
    vertex 25.0 16.59999999999999 21.3985916889676
  endloop
endfacet
facet normal -0.0 -0.13052619222005216 0.9914448613738104
  outer loop
    vertex 25.0 12.499999999999998 20.3
    vertex 0.0 14.622316169840666 20.579408224429642
    vertex 0.0 12.499999999999998 20.3
  endloop
endfacet
facet normal -0.0 -0.13052619222005216 0.9914448613738104
  outer loop
    vertex 0.0 14.622316169840666 20.579408224429642
    vertex 25.0 12.499999999999998 20.3
    vertex 25.0 14.622316169840666 20.579408224429642
  endloop
endfacet
facet normal 0.0 0.1305261922200517 0.9914448613738104
  outer loop
    vertex 25.0 10.377683830159324 20.579408224429642
    vertex 0.0 12.499999999999998 20.3
    vertex 0.0 10.377683830159324 20.579408224429642
  endloop
endfacet
facet normal 0.0 0.1305261922200517 0.9914448613738104
  outer loop
    vertex 0.0 12.499999999999998 20.3
    vertex 25.0 10.377683830159324 20.579408224429642
    vertex 25.0 12.499999999999998 20.3
  endloop
endfacet
facet normal -0.6087614290087211 -0.0 -0.793353340291235
  outer loop
    vertex 18.298275605729692 25.0 17.29827560572969
    vertex 16.600000000000005 1.4099832412739487e-15 18.601408311032394
    vertex 16.600000000000005 25.0 18.601408311032394
  endloop
endfacet
facet normal -0.6087614290087211 -0.0 -0.793353340291235
  outer loop
    vertex 16.600000000000005 1.4099832412739487e-15 18.601408311032394
    vertex 18.298275605729692 25.0 17.29827560572969
    vertex 18.298275605729692 1.4099832412739487e-15 17.29827560572969
  endloop
endfacet
facet normal -0.7933533402912355 -0.0 -0.6087614290087204
  outer loop
    vertex 18.298275605729692 25.0 17.29827560572969
    vertex 19.601408311032397 1.4099832412739487e-15 15.599999999999996
    vertex 18.298275605729692 1.4099832412739487e-15 17.29827560572969
  endloop
endfacet
facet normal -0.7933533402912355 -0.0 -0.6087614290087204
  outer loop
    vertex 19.601408311032397 1.4099832412739487e-15 15.599999999999996
    vertex 18.298275605729692 25.0 17.29827560572969
    vertex 19.601408311032397 25.0 15.599999999999996
  endloop
endfacet
facet normal -0.9238795325112874 -0.0 -0.3826834323650884
  outer loop
    vertex 19.601408311032397 25.0 15.599999999999996
    vertex 20.420591775570358 1.4099832412739487e-15 13.622316169840667
    vertex 19.601408311032397 1.4099832412739487e-15 15.599999999999996
  endloop
endfacet
facet normal -0.9238795325112874 -0.0 -0.3826834323650884
  outer loop
    vertex 20.420591775570358 1.4099832412739487e-15 13.622316169840667
    vertex 19.601408311032397 25.0 15.599999999999996
    vertex 20.420591775570358 25.0 13.622316169840667
  endloop
endfacet
facet normal -0.9914448613738104 -0.0 -0.13052619222005207
  outer loop
    vertex 20.420591775570358 25.0 13.622316169840667
    vertex 20.7 1.4099832412739487e-15 11.499999999999998
    vertex 20.420591775570358 1.4099832412739487e-15 13.622316169840667
  endloop
endfacet
facet normal -0.9914448613738104 -0.0 -0.13052619222005207
  outer loop
    vertex 20.7 1.4099832412739487e-15 11.499999999999998
    vertex 20.420591775570358 25.0 13.622316169840667
    vertex 20.7 25.0 11.499999999999998
  endloop
endfacet
facet normal -0.9914448613738104 -0.0 0.13052619222005196
  outer loop
    vertex 20.7 25.0 11.499999999999998
    vertex 20.420591775570358 1.4099832412739487e-15 9.377683830159327
    vertex 20.7 1.4099832412739487e-15 11.499999999999998
  endloop
endfacet
facet normal -0.9914448613738104 -0.0 0.13052619222005196
  outer loop
    vertex 20.420591775570358 1.4099832412739487e-15 9.377683830159327
    vertex 20.7 25.0 11.499999999999998
    vertex 20.420591775570358 25.0 9.377683830159327
  endloop
endfacet
facet normal -0.9238795325112865 -0.0 0.3826834323650904
  outer loop
    vertex 20.420591775570358 25.0 9.377683830159327
    vertex 19.601408311032394 1.4099832412739487e-15 7.399999999999998
    vertex 20.420591775570358 1.4099832412739487e-15 9.377683830159327
  endloop
endfacet
facet normal -0.9238795325112865 -0.0 0.3826834323650904
  outer loop
    vertex 19.601408311032394 1.4099832412739487e-15 7.399999999999998
    vertex 20.420591775570358 25.0 9.377683830159327
    vertex 19.601408311032394 25.0 7.399999999999998
  endloop
endfacet
facet normal -0.7933533402912355 -0.0 0.6087614290087204
  outer loop
    vertex 19.601408311032394 25.0 7.399999999999998
    vertex 18.29827560572969 1.4099832412739487e-15 5.70172439427031
    vertex 19.601408311032394 1.4099832412739487e-15 7.399999999999998
  endloop
endfacet
facet normal -0.7933533402912355 -0.0 0.6087614290087204
  outer loop
    vertex 18.29827560572969 1.4099832412739487e-15 5.70172439427031
    vertex 19.601408311032394 25.0 7.399999999999998
    vertex 18.29827560572969 25.0 5.70172439427031
  endloop
endfacet
facet normal -0.6087614290087202 -0.0 0.7933533402912357
  outer loop
    vertex 18.29827560572969 1.4099832412739487e-15 5.70172439427031
    vertex 16.599999999999998 25.0 4.3985916889676036
    vertex 16.599999999999998 1.4099832412739487e-15 4.3985916889676036
  endloop
endfacet
facet normal -0.6087614290087202 -0.0 0.7933533402912357
  outer loop
    vertex 16.599999999999998 25.0 4.3985916889676036
    vertex 18.29827560572969 1.4099832412739487e-15 5.70172439427031
    vertex 18.29827560572969 25.0 5.70172439427031
  endloop
endfacet
facet normal -0.3826834323650901 -0.0 0.9238795325112867
  outer loop
    vertex 16.599999999999998 1.4099832412739487e-15 4.3985916889676036
    vertex 14.62231616984067 25.0 3.5794082244296406
    vertex 14.62231616984067 1.4099832412739487e-15 3.5794082244296406
  endloop
endfacet
facet normal -0.3826834323650901 -0.0 0.9238795325112867
  outer loop
    vertex 14.62231616984067 25.0 3.5794082244296406
    vertex 16.599999999999998 1.4099832412739487e-15 4.3985916889676036
    vertex 16.599999999999998 25.0 4.3985916889676036
  endloop
endfacet
facet normal -0.13052619222005143 -0.0 0.9914448613738106
  outer loop
    vertex 14.62231616984067 1.4099832412739487e-15 3.5794082244296406
    vertex 12.5 25.0 3.300000000000001
    vertex 12.5 1.4099832412739487e-15 3.300000000000001
  endloop
endfacet
facet normal -0.13052619222005143 -0.0 0.9914448613738106
  outer loop
    vertex 12.5 25.0 3.300000000000001
    vertex 14.62231616984067 1.4099832412739487e-15 3.5794082244296406
    vertex 14.62231616984067 25.0 3.5794082244296406
  endloop
endfacet
facet normal 0.1305261922200519 0.0 0.9914448613738104
  outer loop
    vertex 12.5 1.4099832412739487e-15 3.300000000000001
    vertex 10.377683830159327 25.0 3.579408224429642
    vertex 10.377683830159327 1.4099832412739487e-15 3.579408224429642
  endloop
endfacet
facet normal 0.1305261922200519 0.0 0.9914448613738104
  outer loop
    vertex 10.377683830159327 25.0 3.579408224429642
    vertex 12.5 1.4099832412739487e-15 3.300000000000001
    vertex 12.5 25.0 3.300000000000001
  endloop
endfacet
facet normal 0.3826834323650895 0.0 0.9238795325112868
  outer loop
    vertex 10.377683830159327 1.4099832412739487e-15 3.579408224429642
    vertex 8.399999999999999 25.0 4.3985916889676036
    vertex 8.399999999999999 1.4099832412739487e-15 4.3985916889676036
  endloop
endfacet
facet normal 0.3826834323650895 0.0 0.9238795325112868
  outer loop
    vertex 8.399999999999999 25.0 4.3985916889676036
    vertex 10.377683830159327 1.4099832412739487e-15 3.579408224429642
    vertex 10.377683830159327 25.0 3.579408224429642
  endloop
endfacet
facet normal 0.6087614290087209 0.0 0.7933533402912352
  outer loop
    vertex 8.399999999999999 1.4099832412739487e-15 4.3985916889676036
    vertex 6.701724394270311 25.0 5.70172439427031
    vertex 6.701724394270311 1.4099832412739487e-15 5.70172439427031
  endloop
endfacet
facet normal 0.6087614290087209 0.0 0.7933533402912352
  outer loop
    vertex 6.701724394270311 25.0 5.70172439427031
    vertex 8.399999999999999 1.4099832412739487e-15 4.3985916889676036
    vertex 8.399999999999999 25.0 4.3985916889676036
  endloop
endfacet
facet normal 0.7933533402912353 0.0 0.6087614290087205
  outer loop
    vertex 6.701724394270311 25.0 5.70172439427031
    vertex 5.3985916889676036 1.4099832412739487e-15 7.4
    vertex 6.701724394270311 1.4099832412739487e-15 5.70172439427031
  endloop
endfacet
facet normal 0.7933533402912353 0.0 0.6087614290087205
  outer loop
    vertex 5.3985916889676036 1.4099832412739487e-15 7.4
    vertex 6.701724394270311 25.0 5.70172439427031
    vertex 5.3985916889676036 25.0 7.4
  endloop
endfacet
facet normal 0.9238795325112867 0.0 0.3826834323650901
  outer loop
    vertex 5.3985916889676036 25.0 7.4
    vertex 4.57940822442964 1.4099832412739487e-15 9.377683830159329
    vertex 5.3985916889676036 1.4099832412739487e-15 7.4
  endloop
endfacet
facet normal 0.9238795325112867 0.0 0.3826834323650901
  outer loop
    vertex 4.57940822442964 1.4099832412739487e-15 9.377683830159329
    vertex 5.3985916889676036 25.0 7.4
    vertex 4.57940822442964 25.0 9.377683830159329
  endloop
endfacet
facet normal 0.9914448613738105 0.0 0.13052619222005132
  outer loop
    vertex 4.57940822442964 25.0 9.377683830159329
    vertex 4.300000000000001 1.4099832412739487e-15 11.5
    vertex 4.57940822442964 1.4099832412739487e-15 9.377683830159329
  endloop
endfacet
facet normal 0.9914448613738105 0.0 0.13052619222005132
  outer loop
    vertex 4.300000000000001 1.4099832412739487e-15 11.5
    vertex 4.57940822442964 25.0 9.377683830159329
    vertex 4.300000000000001 25.0 11.5
  endloop
endfacet
facet normal 0.9914448613738105 -0.0 -0.13052619222005163
  outer loop
    vertex 4.300000000000001 25.0 11.5
    vertex 4.579408224429642 1.4099832412739487e-15 13.622316169840676
    vertex 4.300000000000001 1.4099832412739487e-15 11.5
  endloop
endfacet
facet normal 0.9914448613738105 -0.0 -0.13052619222005163
  outer loop
    vertex 4.579408224429642 1.4099832412739487e-15 13.622316169840676
    vertex 4.300000000000001 25.0 11.5
    vertex 4.579408224429642 25.0 13.622316169840676
  endloop
endfacet
facet normal 0.9238795325112862 -0.0 -0.3826834323650911
  outer loop
    vertex 4.579408224429642 25.0 13.622316169840676
    vertex 5.398591688967606 1.4099832412739487e-15 15.600000000000003
    vertex 4.579408224429642 1.4099832412739487e-15 13.622316169840676
  endloop
endfacet
facet normal 0.9238795325112862 -0.0 -0.3826834323650911
  outer loop
    vertex 5.398591688967606 1.4099832412739487e-15 15.600000000000003
    vertex 4.579408224429642 25.0 13.622316169840676
    vertex 5.398591688967606 25.0 15.600000000000003
  endloop
endfacet
facet normal 0.7933533402912353 -0.0 -0.6087614290087207
  outer loop
    vertex 5.398591688967606 25.0 15.600000000000003
    vertex 6.701724394270312 1.4099832412739487e-15 17.29827560572969
    vertex 5.398591688967606 1.4099832412739487e-15 15.600000000000003
  endloop
endfacet
facet normal 0.7933533402912353 -0.0 -0.6087614290087207
  outer loop
    vertex 6.701724394270312 1.4099832412739487e-15 17.29827560572969
    vertex 5.398591688967606 25.0 15.600000000000003
    vertex 6.701724394270312 25.0 17.29827560572969
  endloop
endfacet
facet normal 0.6087614290087207 -0.0 -0.7933533402912354
  outer loop
    vertex 8.400000000000006 25.0 18.6014083110324
    vertex 6.701724394270312 1.4099832412739487e-15 17.29827560572969
    vertex 6.701724394270312 25.0 17.29827560572969
  endloop
endfacet
facet normal 0.6087614290087207 -0.0 -0.7933533402912354
  outer loop
    vertex 6.701724394270312 1.4099832412739487e-15 17.29827560572969
    vertex 8.400000000000006 25.0 18.6014083110324
    vertex 8.400000000000006 1.4099832412739487e-15 18.6014083110324
  endloop
endfacet
facet normal 0.38268343236508867 -0.0 -0.9238795325112874
  outer loop
    vertex 10.377683830159333 25.0 19.420591775570358
    vertex 8.400000000000006 1.4099832412739487e-15 18.6014083110324
    vertex 8.400000000000006 25.0 18.6014083110324
  endloop
endfacet
facet normal 0.38268343236508867 -0.0 -0.9238795325112874
  outer loop
    vertex 8.400000000000006 1.4099832412739487e-15 18.6014083110324
    vertex 10.377683830159333 25.0 19.420591775570358
    vertex 10.377683830159333 1.4099832412739487e-15 19.420591775570358
  endloop
endfacet
facet normal 0.13052619222005085 -0.0 -0.9914448613738105
  outer loop
    vertex 12.500000000000002 25.0 19.7
    vertex 10.377683830159333 1.4099832412739487e-15 19.420591775570358
    vertex 10.377683830159333 25.0 19.420591775570358
  endloop
endfacet
facet normal 0.13052619222005085 -0.0 -0.9914448613738105
  outer loop
    vertex 10.377683830159333 1.4099832412739487e-15 19.420591775570358
    vertex 12.500000000000002 25.0 19.7
    vertex 12.500000000000002 1.4099832412739487e-15 19.7
  endloop
endfacet
facet normal -0.13052619222005035 -0.0 -0.9914448613738106
  outer loop
    vertex 14.622316169840678 25.0 19.420591775570358
    vertex 12.500000000000002 1.4099832412739487e-15 19.7
    vertex 12.500000000000002 25.0 19.7
  endloop
endfacet
facet normal -0.13052619222005035 -0.0 -0.9914448613738106
  outer loop
    vertex 12.500000000000002 1.4099832412739487e-15 19.7
    vertex 14.622316169840678 25.0 19.420591775570358
    vertex 14.622316169840678 1.4099832412739487e-15 19.420591775570358
  endloop
endfacet
facet normal -0.3826834323650911 -0.0 -0.9238795325112862
  outer loop
    vertex 16.600000000000005 25.0 18.601408311032394
    vertex 14.622316169840678 1.4099832412739487e-15 19.420591775570358
    vertex 14.622316169840678 25.0 19.420591775570358
  endloop
endfacet
facet normal -0.3826834323650911 -0.0 -0.9238795325112862
  outer loop
    vertex 14.622316169840678 1.4099832412739487e-15 19.420591775570358
    vertex 16.600000000000005 25.0 18.601408311032394
    vertex 16.600000000000005 1.4099832412739487e-15 18.601408311032394
  endloop
endfacet
facet normal 0.7071067811865475 0.7071067811865476 -7.028827871433276e-33
  outer loop
    vertex 22.0 25.0 45.0
    vertex 25.0 22.0 2.8199664825478975e-15
    vertex 22.0 25.0 2.8199664825478975e-15
  endloop
endfacet
facet normal 0.7071067811865475 0.7071067811865476 -7.028827871433276e-33
  outer loop
    vertex 25.0 22.0 2.8199664825478975e-15
    vertex 22.0 25.0 45.0
    vertex 25.0 22.0 45.0
  endloop
endfacet
facet normal 0.7071067811865476 -0.7071067811865476 0.0
  outer loop
    vertex 25.0 3.0 5.639932965095795e-15
    vertex 22.0 0.0 45.0
    vertex 22.0 0.0 5.639932965095795e-15
  endloop
endfacet
facet normal 0.7071067811865476 -0.7071067811865476 0.0
  outer loop
    vertex 22.0 0.0 45.0
    vertex 25.0 3.0 5.639932965095795e-15
    vertex 25.0 3.0 45.0
  endloop
endfacet
facet normal -0.7071067811865475 0.7071067811865476 -0.0
  outer loop
    vertex 0.0 22.0 45.0
    vertex 3.0 25.0 5.639932965095795e-15
    vertex 0.0 22.0 5.639932965095795e-15
  endloop
endfacet
facet normal -0.7071067811865475 0.7071067811865476 -0.0
  outer loop
    vertex 3.0 25.0 5.639932965095795e-15
    vertex 0.0 22.0 45.0
    vertex 3.0 25.0 45.0
  endloop
endfacet
facet normal -1.0 0.0 0.0
  outer loop
    vertex 0.0 3.0 45.0
    vertex 0.0 4.300000000000001 28.5
    vertex 0.0 3.0 5.639932965095795e-15
  endloop
endfacet
facet normal -1.0 0.0 0.0
  outer loop
    vertex 0.0 4.300000000000001 28.5
    vertex 0.0 3.0 45.0
    vertex 0.0 4.579408224429642 30.62231616984067
  endloop
endfacet
facet normal -1.0 0.0 0.0
  outer loop
    vertex 0.0 4.579408224429642 30.62231616984067
    vertex 0.0 3.0 45.0
    vertex 0.0 5.398591688967605 32.6
  endloop
endfacet
facet normal -1.0 0.0 0.0
  outer loop
    vertex 0.0 5.398591688967605 32.6
    vertex 0.0 3.0 45.0
    vertex 0.0 6.701724394270311 34.29827560572969
  endloop
endfacet
facet normal -1.0 0.0 0.0
  outer loop
    vertex 0.0 6.701724394270311 34.29827560572969
    vertex 0.0 3.0 45.0
    vertex 0.0 8.400000000000002 35.6014083110324
  endloop
endfacet
facet normal -1.0 0.0 0.0
  outer loop
    vertex 0.0 8.400000000000002 35.6014083110324
    vertex 0.0 3.0 45.0
    vertex 0.0 22.0 45.0
  endloop
endfacet
facet normal -1.0 0.0 0.0
  outer loop
    vertex 0.0 8.400000000000002 35.6014083110324
    vertex 0.0 22.0 45.0
    vertex 0.0 10.37768383015933 36.42059177557036
  endloop
endfacet
facet normal -1.0 0.0 0.0
  outer loop
    vertex 0.0 10.37768383015933 36.42059177557036
    vertex 0.0 22.0 45.0
    vertex 0.0 12.5 36.7
  endloop
endfacet
facet normal -1.0 0.0 0.0
  outer loop
    vertex 0.0 12.5 36.7
    vertex 0.0 22.0 45.0
    vertex 0.0 14.622316169840671 36.42059177557036
  endloop
endfacet
facet normal -1.0 0.0 0.0
  outer loop
    vertex 0.0 14.622316169840671 36.42059177557036
    vertex 0.0 22.0 45.0
    vertex 0.0 16.6 35.6014083110324
  endloop
endfacet
facet normal -1.0 0.0 0.0
  outer loop
    vertex 0.0 16.6 35.6014083110324
    vertex 0.0 22.0 45.0
    vertex 0.0 18.29827560572969 34.29827560572969
  endloop
endfacet
facet normal -1.0 0.0 0.0
  outer loop
    vertex 0.0 18.29827560572969 34.29827560572969
    vertex 0.0 22.0 45.0
    vertex 0.0 19.601408311032397 32.599999999999994
  endloop
endfacet
facet normal -1.0 0.0 0.0
  outer loop
    vertex 0.0 19.601408311032397 32.599999999999994
    vertex 0.0 22.0 45.0
    vertex 0.0 20.420591775570358 30.62231616984067
  endloop
endfacet
facet normal -1.0 0.0 0.0
  outer loop
    vertex 0.0 20.420591775570358 30.62231616984067
    vertex 0.0 22.0 45.0
    vertex 0.0 20.7 28.5
  endloop
endfacet
facet normal -1.0 0.0 0.0
  outer loop
    vertex 0.0 3.0 5.639932965095795e-15
    vertex 0.0 5.398591688967602 24.400000000000002
    vertex 0.0 22.0 5.639932965095795e-15
  endloop
endfacet
facet normal -1.0 0.0 0.0
  outer loop
    vertex 0.0 5.398591688967602 24.400000000000002
    vertex 0.0 3.0 5.639932965095795e-15
    vertex 0.0 4.57940822442964 26.37768383015933
  endloop
endfacet
facet normal -1.0 0.0 0.0
  outer loop
    vertex 0.0 4.57940822442964 26.37768383015933
    vertex 0.0 3.0 5.639932965095795e-15
    vertex 0.0 4.300000000000001 28.5
  endloop
endfacet
facet normal -1.0 0.0 0.0
  outer loop
    vertex 0.0 22.0 5.639932965095795e-15
    vertex 0.0 5.398591688967602 24.400000000000002
    vertex 0.0 6.7017243942703075 22.70172439427031
  endloop
endfacet
facet normal -1.0 0.0 0.0
  outer loop
    vertex 0.0 22.0 5.639932965095795e-15
    vertex 0.0 6.7017243942703075 22.70172439427031
    vertex 0.0 8.399999999999995 21.398591688967606
  endloop
endfacet
facet normal -1.0 0.0 0.0
  outer loop
    vertex 0.0 22.0 5.639932965095795e-15
    vertex 0.0 8.399999999999995 21.398591688967606
    vertex 0.0 10.377683830159324 20.579408224429642
  endloop
endfacet
facet normal -1.0 0.0 0.0
  outer loop
    vertex 0.0 22.0 5.639932965095795e-15
    vertex 0.0 10.377683830159324 20.579408224429642
    vertex 0.0 12.499999999999998 20.3
  endloop
endfacet
facet normal -1.0 0.0 0.0
  outer loop
    vertex 0.0 22.0 5.639932965095795e-15
    vertex 0.0 12.499999999999998 20.3
    vertex 0.0 14.622316169840666 20.579408224429642
  endloop
endfacet
facet normal -1.0 0.0 0.0
  outer loop
    vertex 0.0 22.0 5.639932965095795e-15
    vertex 0.0 14.622316169840666 20.579408224429642
    vertex 0.0 16.59999999999999 21.3985916889676
  endloop
endfacet
facet normal -1.0 0.0 0.0
  outer loop
    vertex 0.0 22.0 5.639932965095795e-15
    vertex 0.0 16.59999999999999 21.3985916889676
    vertex 0.0 18.298275605729685 22.701724394270308
  endloop
endfacet
facet normal -1.0 0.0 0.0
  outer loop
    vertex 0.0 22.0 5.639932965095795e-15
    vertex 0.0 18.298275605729685 22.701724394270308
    vertex 0.0 19.601408311032394 24.399999999999995
  endloop
endfacet
facet normal -1.0 0.0 0.0
  outer loop
    vertex 0.0 22.0 5.639932965095795e-15
    vertex 0.0 19.601408311032394 24.399999999999995
    vertex 0.0 20.420591775570358 26.37768383015932
  endloop
endfacet
facet normal -1.0 0.0 0.0
  outer loop
    vertex 0.0 22.0 5.639932965095795e-15
    vertex 0.0 20.420591775570358 26.37768383015932
    vertex 0.0 20.7 28.5
  endloop
endfacet
facet normal -1.0 0.0 0.0
  outer loop
    vertex 0.0 22.0 5.639932965095795e-15
    vertex 0.0 20.7 28.5
    vertex 0.0 22.0 45.0
  endloop
endfacet
facet normal 0.0 -1.0 0.0
  outer loop
    vertex 22.0 0.0 5.639932965095795e-15
    vertex 14.62231616984067 1.4099832412739487e-15 3.5794082244296406
    vertex 3.0 0.0 5.639932965095795e-15
  endloop
endfacet
facet normal 0.0 -1.0 0.0
  outer loop
    vertex 14.62231616984067 1.4099832412739487e-15 3.5794082244296406
    vertex 22.0 0.0 5.639932965095795e-15
    vertex 16.599999999999998 1.4099832412739487e-15 4.3985916889676036
  endloop
endfacet
facet normal 0.0 -1.0 0.0
  outer loop
    vertex 16.599999999999998 1.4099832412739487e-15 4.3985916889676036
    vertex 22.0 0.0 5.639932965095795e-15
    vertex 18.29827560572969 1.4099832412739487e-15 5.70172439427031
  endloop
endfacet
facet normal 0.0 -1.0 0.0
  outer loop
    vertex 18.29827560572969 1.4099832412739487e-15 5.70172439427031
    vertex 22.0 0.0 5.639932965095795e-15
    vertex 19.601408311032394 1.4099832412739487e-15 7.399999999999998
  endloop
endfacet
facet normal 0.0 -1.0 0.0
  outer loop
    vertex 19.601408311032394 1.4099832412739487e-15 7.399999999999998
    vertex 22.0 0.0 5.639932965095795e-15
    vertex 20.420591775570358 1.4099832412739487e-15 9.377683830159327
  endloop
endfacet
facet normal 0.0 -1.0 0.0
  outer loop
    vertex 20.420591775570358 1.4099832412739487e-15 9.377683830159327
    vertex 22.0 0.0 5.639932965095795e-15
    vertex 20.7 1.4099832412739487e-15 11.499999999999998
  endloop
endfacet
facet normal 0.0 -1.0 0.0
  outer loop
    vertex 20.7 1.4099832412739487e-15 11.499999999999998
    vertex 22.0 0.0 5.639932965095795e-15
    vertex 22.0 0.0 45.0
  endloop
endfacet
facet normal 0.0 -1.0 0.0
  outer loop
    vertex 3.0 0.0 5.639932965095795e-15
    vertex 14.62231616984067 1.4099832412739487e-15 3.5794082244296406
    vertex 12.5 1.4099832412739487e-15 3.300000000000001
  endloop
endfacet
facet normal 0.0 -1.0 0.0
  outer loop
    vertex 20.7 1.4099832412739487e-15 11.499999999999998
    vertex 22.0 0.0 45.0
    vertex 20.420591775570358 1.4099832412739487e-15 13.622316169840667
  endloop
endfacet
facet normal 0.0 -1.0 0.0
  outer loop
    vertex 20.420591775570358 1.4099832412739487e-15 13.622316169840667
    vertex 22.0 0.0 45.0
    vertex 19.601408311032397 1.4099832412739487e-15 15.599999999999996
  endloop
endfacet
facet normal 0.0 -1.0 0.0
  outer loop
    vertex 19.601408311032397 1.4099832412739487e-15 15.599999999999996
    vertex 22.0 0.0 45.0
    vertex 18.298275605729692 1.4099832412739487e-15 17.29827560572969
  endloop
endfacet
facet normal 0.0 -1.0 0.0
  outer loop
    vertex 18.298275605729692 1.4099832412739487e-15 17.29827560572969
    vertex 22.0 0.0 45.0
    vertex 16.600000000000005 1.4099832412739487e-15 18.601408311032394
  endloop
endfacet
facet normal 0.0 -1.0 0.0
  outer loop
    vertex 16.600000000000005 1.4099832412739487e-15 18.601408311032394
    vertex 22.0 0.0 45.0
    vertex 14.622316169840678 1.4099832412739487e-15 19.420591775570358
  endloop
endfacet
facet normal 0.0 -1.0 0.0
  outer loop
    vertex 14.622316169840678 1.4099832412739487e-15 19.420591775570358
    vertex 22.0 0.0 45.0
    vertex 12.500000000000002 1.4099832412739487e-15 19.7
  endloop
endfacet
facet normal 0.0 -1.0 0.0
  outer loop
    vertex 3.0 0.0 5.639932965095795e-15
    vertex 4.300000000000001 1.4099832412739487e-15 11.5
    vertex 3.0 0.0 45.0
  endloop
endfacet
facet normal 0.0 -1.0 0.0
  outer loop
    vertex 4.300000000000001 1.4099832412739487e-15 11.5
    vertex 3.0 0.0 5.639932965095795e-15
    vertex 4.57940822442964 1.4099832412739487e-15 9.377683830159329
  endloop
endfacet
facet normal 0.0 -1.0 0.0
  outer loop
    vertex 4.57940822442964 1.4099832412739487e-15 9.377683830159329
    vertex 3.0 0.0 5.639932965095795e-15
    vertex 5.3985916889676036 1.4099832412739487e-15 7.4
  endloop
endfacet
facet normal 0.0 -1.0 0.0
  outer loop
    vertex 5.3985916889676036 1.4099832412739487e-15 7.4
    vertex 3.0 0.0 5.639932965095795e-15
    vertex 6.701724394270311 1.4099832412739487e-15 5.70172439427031
  endloop
endfacet
facet normal 0.0 -1.0 0.0
  outer loop
    vertex 6.701724394270311 1.4099832412739487e-15 5.70172439427031
    vertex 3.0 0.0 5.639932965095795e-15
    vertex 8.399999999999999 1.4099832412739487e-15 4.3985916889676036
  endloop
endfacet
facet normal 0.0 -1.0 0.0
  outer loop
    vertex 8.399999999999999 1.4099832412739487e-15 4.3985916889676036
    vertex 3.0 0.0 5.639932965095795e-15
    vertex 10.377683830159327 1.4099832412739487e-15 3.579408224429642
  endloop
endfacet
facet normal 0.0 -1.0 0.0
  outer loop
    vertex 10.377683830159327 1.4099832412739487e-15 3.579408224429642
    vertex 3.0 0.0 5.639932965095795e-15
    vertex 12.5 1.4099832412739487e-15 3.300000000000001
  endloop
endfacet
facet normal 0.0 -1.0 0.0
  outer loop
    vertex 3.0 0.0 45.0
    vertex 4.300000000000001 1.4099832412739487e-15 11.5
    vertex 4.579408224429642 1.4099832412739487e-15 13.622316169840676
  endloop
endfacet
facet normal 0.0 -1.0 0.0
  outer loop
    vertex 3.0 0.0 45.0
    vertex 4.579408224429642 1.4099832412739487e-15 13.622316169840676
    vertex 5.398591688967606 1.4099832412739487e-15 15.600000000000003
  endloop
endfacet
facet normal 0.0 -1.0 0.0
  outer loop
    vertex 3.0 0.0 45.0
    vertex 5.398591688967606 1.4099832412739487e-15 15.600000000000003
    vertex 6.701724394270312 1.4099832412739487e-15 17.29827560572969
  endloop
endfacet
facet normal 0.0 -1.0 0.0
  outer loop
    vertex 3.0 0.0 45.0
    vertex 6.701724394270312 1.4099832412739487e-15 17.29827560572969
    vertex 8.400000000000006 1.4099832412739487e-15 18.6014083110324
  endloop
endfacet
facet normal 0.0 -1.0 0.0
  outer loop
    vertex 3.0 0.0 45.0
    vertex 8.400000000000006 1.4099832412739487e-15 18.6014083110324
    vertex 10.377683830159333 1.4099832412739487e-15 19.420591775570358
  endloop
endfacet
facet normal 0.0 -1.0 0.0
  outer loop
    vertex 3.0 0.0 45.0
    vertex 10.377683830159333 1.4099832412739487e-15 19.420591775570358
    vertex 12.500000000000002 1.4099832412739487e-15 19.7
  endloop
endfacet
facet normal 0.0 -1.0 0.0
  outer loop
    vertex 3.0 0.0 45.0
    vertex 12.500000000000002 1.4099832412739487e-15 19.7
    vertex 22.0 0.0 45.0
  endloop
endfacet
facet normal -1.9532230587407412e-17 -1.0630805869464885e-16 -1.0
  outer loop
    vertex 3.0 25.0 5.639932965095795e-15
    vertex 0.0 3.0 5.639932965095795e-15
    vertex 0.0 22.0 5.639932965095795e-15
  endloop
endfacet
facet normal -1.9532230587407412e-17 -1.0630805869464885e-16 -1.0
  outer loop
    vertex 0.0 3.0 5.639932965095795e-15
    vertex 3.0 25.0 5.639932965095795e-15
    vertex 3.0 0.0 5.639932965095795e-15
  endloop
endfacet
facet normal -1.9532230587407412e-17 -1.0630805869464885e-16 -1.0
  outer loop
    vertex 3.0 0.0 5.639932965095795e-15
    vertex 3.0 25.0 5.639932965095795e-15
    vertex 22.0 25.0 2.8199664825478975e-15
  endloop
endfacet
facet normal -1.9532230587407412e-17 -1.0630805869464885e-16 -1.0
  outer loop
    vertex 3.0 0.0 5.639932965095795e-15
    vertex 22.0 25.0 2.8199664825478975e-15
    vertex 22.0 0.0 5.639932965095795e-15
  endloop
endfacet
facet normal -1.9532230587407412e-17 -1.0630805869464885e-16 -1.0
  outer loop
    vertex 22.0 0.0 5.639932965095795e-15
    vertex 22.0 25.0 2.8199664825478975e-15
    vertex 25.0 22.0 2.8199664825478975e-15
  endloop
endfacet
facet normal -1.9532230587407412e-17 -1.0630805869464885e-16 -1.0
  outer loop
    vertex 22.0 0.0 5.639932965095795e-15
    vertex 25.0 22.0 2.8199664825478975e-15
    vertex 25.0 3.0 5.639932965095795e-15
  endloop
endfacet
facet normal -0.7071067811865476 -0.7071067811865476 0.0
  outer loop
    vertex 0.0 3.0 45.0
    vertex 3.0 0.0 5.639932965095795e-15
    vertex 3.0 0.0 45.0
  endloop
endfacet
facet normal -0.7071067811865476 -0.7071067811865476 0.0
  outer loop
    vertex 3.0 0.0 5.639932965095795e-15
    vertex 0.0 3.0 45.0
    vertex 0.0 3.0 5.639932965095795e-15
  endloop
endfacet
facet normal -0.0 -0.0 1.0
  outer loop
    vertex 4.579408224429642 10.377683830159327 40.0
    vertex 4.57940822442964 14.62231616984067 40.0
    vertex 4.300000000000001 12.5 40.0
  endloop
endfacet
facet normal -0.0 -0.0 1.0
  outer loop
    vertex 4.57940822442964 14.62231616984067 40.0
    vertex 4.579408224429642 10.377683830159327 40.0
    vertex 5.3985916889676036 16.599999999999998 40.0
  endloop
endfacet
facet normal -0.0 -0.0 1.0
  outer loop
    vertex 5.3985916889676036 16.599999999999998 40.0
    vertex 4.579408224429642 10.377683830159327 40.0
    vertex 5.3985916889676036 8.399999999999999 40.0
  endloop
endfacet
facet normal -0.0 -0.0 1.0
  outer loop
    vertex 5.3985916889676036 16.599999999999998 40.0
    vertex 5.3985916889676036 8.399999999999999 40.0
    vertex 6.701724394270311 6.701724394270311 40.0
  endloop
endfacet
facet normal -0.0 -0.0 1.0
  outer loop
    vertex 5.3985916889676036 16.599999999999998 40.0
    vertex 6.701724394270311 6.701724394270311 40.0
    vertex 6.701724394270311 18.29827560572969 40.0
  endloop
endfacet
facet normal -0.0 -0.0 1.0
  outer loop
    vertex 6.701724394270311 18.29827560572969 40.0
    vertex 6.701724394270311 6.701724394270311 40.0
    vertex 8.400000000000002 5.3985916889676036 40.0
  endloop
endfacet
facet normal -0.0 -0.0 1.0
  outer loop
    vertex 6.701724394270311 18.29827560572969 40.0
    vertex 8.400000000000002 5.3985916889676036 40.0
    vertex 8.399999999999997 19.601408311032394 40.0
  endloop
endfacet
facet normal -0.0 -0.0 1.0
  outer loop
    vertex 8.399999999999997 19.601408311032394 40.0
    vertex 8.400000000000002 5.3985916889676036 40.0
    vertex 10.377683830159327 20.420591775570358 40.0
  endloop
endfacet
facet normal -0.0 -0.0 1.0
  outer loop
    vertex 10.377683830159327 20.420591775570358 40.0
    vertex 8.400000000000002 5.3985916889676036 40.0
    vertex 10.37768383015933 4.57940822442964 40.0
  endloop
endfacet
facet normal -0.0 -0.0 1.0
  outer loop
    vertex 10.377683830159327 20.420591775570358 40.0
    vertex 10.37768383015933 4.57940822442964 40.0
    vertex 12.499999999999998 20.7 40.0
  endloop
endfacet
facet normal -0.0 -0.0 1.0
  outer loop
    vertex 12.499999999999998 20.7 40.0
    vertex 10.37768383015933 4.57940822442964 40.0
    vertex 12.5 4.300000000000001 40.0
  endloop
endfacet
facet normal -0.0 -0.0 1.0
  outer loop
    vertex 12.499999999999998 20.7 40.0
    vertex 12.5 4.300000000000001 40.0
    vertex 14.622316169840666 20.420591775570358 40.0
  endloop
endfacet
facet normal -0.0 -0.0 1.0
  outer loop
    vertex 14.622316169840666 20.420591775570358 40.0
    vertex 12.5 4.300000000000001 40.0
    vertex 14.622316169840678 4.579408224429642 40.0
  endloop
endfacet
facet normal -0.0 -0.0 1.0
  outer loop
    vertex 14.622316169840666 20.420591775570358 40.0
    vertex 14.622316169840678 4.579408224429642 40.0
    vertex 16.599999999999998 19.601408311032397 40.0
  endloop
endfacet
facet normal -0.0 -0.0 1.0
  outer loop
    vertex 16.599999999999998 19.601408311032397 40.0
    vertex 14.622316169840678 4.579408224429642 40.0
    vertex 16.600000000000005 5.398591688967606 40.0
  endloop
endfacet
facet normal -0.0 -0.0 1.0
  outer loop
    vertex 16.599999999999998 19.601408311032397 40.0
    vertex 16.600000000000005 5.398591688967606 40.0
    vertex 18.298275605729685 18.298275605729692 40.0
  endloop
endfacet
facet normal -0.0 -0.0 1.0
  outer loop
    vertex 18.298275605729685 18.298275605729692 40.0
    vertex 16.600000000000005 5.398591688967606 40.0
    vertex 18.298275605729692 6.701724394270312 40.0
  endloop
endfacet
facet normal -0.0 -0.0 1.0
  outer loop
    vertex 18.298275605729685 18.298275605729692 40.0
    vertex 18.298275605729692 6.701724394270312 40.0
    vertex 19.601408311032394 16.600000000000005 40.0
  endloop
endfacet
facet normal -0.0 -0.0 1.0
  outer loop
    vertex 19.601408311032394 16.600000000000005 40.0
    vertex 18.298275605729692 6.701724394270312 40.0
    vertex 19.601408311032397 8.400000000000006 40.0
  endloop
endfacet
facet normal -0.0 -0.0 1.0
  outer loop
    vertex 19.601408311032394 16.600000000000005 40.0
    vertex 19.601408311032397 8.400000000000006 40.0
    vertex 20.420591775570358 14.622316169840678 40.0
  endloop
endfacet
facet normal -0.0 -0.0 1.0
  outer loop
    vertex 20.420591775570358 14.622316169840678 40.0
    vertex 19.601408311032397 8.400000000000006 40.0
    vertex 20.420591775570358 10.377683830159333 40.0
  endloop
endfacet
facet normal -0.0 -0.0 1.0
  outer loop
    vertex 20.420591775570358 14.622316169840678 40.0
    vertex 20.420591775570358 10.377683830159333 40.0
    vertex 20.7 12.500000000000002 40.0
  endloop
endfacet
facet normal 0.0 0.0 1.0
  outer loop
    vertex 3.0 0.0 45.0
    vertex 0.0 22.0 45.0
    vertex 0.0 3.0 45.0
  endloop
endfacet
facet normal 0.0 0.0 1.0
  outer loop
    vertex 0.0 22.0 45.0
    vertex 3.0 0.0 45.0
    vertex 3.0 25.0 45.0
  endloop
endfacet
facet normal 0.0 0.0 1.0
  outer loop
    vertex 3.0 25.0 45.0
    vertex 3.0 0.0 45.0
    vertex 4.300000000000001 12.5 45.0
  endloop
endfacet
facet normal 0.0 0.0 1.0
  outer loop
    vertex 4.300000000000001 12.5 45.0
    vertex 3.0 0.0 45.0
    vertex 4.579408224429642 10.377683830159327 45.0
  endloop
endfacet
facet normal 0.0 0.0 1.0
  outer loop
    vertex 4.579408224429642 10.377683830159327 45.0
    vertex 3.0 0.0 45.0
    vertex 5.3985916889676036 8.399999999999999 45.0
  endloop
endfacet
facet normal 0.0 0.0 1.0
  outer loop
    vertex 5.3985916889676036 8.399999999999999 45.0
    vertex 3.0 0.0 45.0
    vertex 6.701724394270311 6.701724394270311 45.0
  endloop
endfacet
facet normal 0.0 0.0 1.0
  outer loop
    vertex 6.701724394270311 6.701724394270311 45.0
    vertex 3.0 0.0 45.0
    vertex 8.400000000000002 5.3985916889676036 45.0
  endloop
endfacet
facet normal 0.0 0.0 1.0
  outer loop
    vertex 8.400000000000002 5.3985916889676036 45.0
    vertex 3.0 0.0 45.0
    vertex 10.37768383015933 4.57940822442964 45.0
  endloop
endfacet
facet normal 0.0 0.0 1.0
  outer loop
    vertex 10.37768383015933 4.57940822442964 45.0
    vertex 3.0 0.0 45.0
    vertex 22.0 0.0 45.0
  endloop
endfacet
facet normal 0.0 0.0 1.0
  outer loop
    vertex 10.37768383015933 4.57940822442964 45.0
    vertex 22.0 0.0 45.0
    vertex 12.5 4.300000000000001 45.0
  endloop
endfacet
facet normal 0.0 0.0 1.0
  outer loop
    vertex 12.5 4.300000000000001 45.0
    vertex 22.0 0.0 45.0
    vertex 14.622316169840678 4.579408224429642 45.0
  endloop
endfacet
facet normal 0.0 0.0 1.0
  outer loop
    vertex 14.622316169840678 4.579408224429642 45.0
    vertex 22.0 0.0 45.0
    vertex 16.600000000000005 5.398591688967606 45.0
  endloop
endfacet
facet normal 0.0 0.0 1.0
  outer loop
    vertex 16.600000000000005 5.398591688967606 45.0
    vertex 22.0 0.0 45.0
    vertex 18.298275605729692 6.701724394270312 45.0
  endloop
endfacet
facet normal 0.0 0.0 1.0
  outer loop
    vertex 18.298275605729692 6.701724394270312 45.0
    vertex 22.0 0.0 45.0
    vertex 19.601408311032397 8.400000000000006 45.0
  endloop
endfacet
facet normal 0.0 0.0 1.0
  outer loop
    vertex 19.601408311032397 8.400000000000006 45.0
    vertex 22.0 0.0 45.0
    vertex 20.420591775570358 10.377683830159333 45.0
  endloop
endfacet
facet normal 0.0 0.0 1.0
  outer loop
    vertex 20.420591775570358 10.377683830159333 45.0
    vertex 22.0 0.0 45.0
    vertex 20.7 12.500000000000002 45.0
  endloop
endfacet
facet normal 0.0 0.0 1.0
  outer loop
    vertex 3.0 25.0 45.0
    vertex 10.377683830159327 20.420591775570358 45.0
    vertex 22.0 25.0 45.0
  endloop
endfacet
facet normal 0.0 0.0 1.0
  outer loop
    vertex 10.377683830159327 20.420591775570358 45.0
    vertex 3.0 25.0 45.0
    vertex 8.399999999999997 19.601408311032394 45.0
  endloop
endfacet
facet normal 0.0 0.0 1.0
  outer loop
    vertex 8.399999999999997 19.601408311032394 45.0
    vertex 3.0 25.0 45.0
    vertex 6.701724394270311 18.29827560572969 45.0
  endloop
endfacet
facet normal 0.0 0.0 1.0
  outer loop
    vertex 6.701724394270311 18.29827560572969 45.0
    vertex 3.0 25.0 45.0
    vertex 5.3985916889676036 16.599999999999998 45.0
  endloop
endfacet
facet normal 0.0 0.0 1.0
  outer loop
    vertex 5.3985916889676036 16.599999999999998 45.0
    vertex 3.0 25.0 45.0
    vertex 4.57940822442964 14.62231616984067 45.0
  endloop
endfacet
facet normal 0.0 0.0 1.0
  outer loop
    vertex 4.57940822442964 14.62231616984067 45.0
    vertex 3.0 25.0 45.0
    vertex 4.300000000000001 12.5 45.0
  endloop
endfacet
facet normal 0.0 0.0 1.0
  outer loop
    vertex 22.0 25.0 45.0
    vertex 10.377683830159327 20.420591775570358 45.0
    vertex 12.499999999999998 20.7 45.0
  endloop
endfacet
facet normal 0.0 0.0 1.0
  outer loop
    vertex 22.0 25.0 45.0
    vertex 12.499999999999998 20.7 45.0
    vertex 14.622316169840666 20.420591775570358 45.0
  endloop
endfacet
facet normal 0.0 0.0 1.0
  outer loop
    vertex 22.0 25.0 45.0
    vertex 14.622316169840666 20.420591775570358 45.0
    vertex 16.599999999999998 19.601408311032397 45.0
  endloop
endfacet
facet normal 0.0 0.0 1.0
  outer loop
    vertex 22.0 25.0 45.0
    vertex 16.599999999999998 19.601408311032397 45.0
    vertex 18.298275605729685 18.298275605729692 45.0
  endloop
endfacet
facet normal 0.0 0.0 1.0
  outer loop
    vertex 22.0 25.0 45.0
    vertex 18.298275605729685 18.298275605729692 45.0
    vertex 19.601408311032394 16.600000000000005 45.0
  endloop
endfacet
facet normal 0.0 0.0 1.0
  outer loop
    vertex 22.0 25.0 45.0
    vertex 19.601408311032394 16.600000000000005 45.0
    vertex 20.420591775570358 14.622316169840678 45.0
  endloop
endfacet
facet normal 0.0 0.0 1.0
  outer loop
    vertex 22.0 25.0 45.0
    vertex 20.420591775570358 14.622316169840678 45.0
    vertex 20.7 12.500000000000002 45.0
  endloop
endfacet
facet normal 0.0 0.0 1.0
  outer loop
    vertex 22.0 25.0 45.0
    vertex 20.7 12.500000000000002 45.0
    vertex 22.0 0.0 45.0
  endloop
endfacet
facet normal 0.0 0.0 1.0
  outer loop
    vertex 22.0 25.0 45.0
    vertex 22.0 0.0 45.0
    vertex 25.0 3.0 45.0
  endloop
endfacet
facet normal 0.0 0.0 1.0
  outer loop
    vertex 22.0 25.0 45.0
    vertex 25.0 3.0 45.0
    vertex 25.0 22.0 45.0
  endloop
endfacet
facet normal 0.13052619222005143 0.9914448613738106 0.0
  outer loop
    vertex 10.37768383015933 4.57940822442964 45.0
    vertex 12.5 4.300000000000001 40.0
    vertex 10.37768383015933 4.57940822442964 40.0
  endloop
endfacet
facet normal 0.13052619222005143 0.9914448613738106 0.0
  outer loop
    vertex 12.5 4.300000000000001 40.0
    vertex 10.37768383015933 4.57940822442964 45.0
    vertex 12.5 4.300000000000001 45.0
  endloop
endfacet
facet normal 0.3826834323650901 0.9238795325112867 0.0
  outer loop
    vertex 8.400000000000002 5.3985916889676036 45.0
    vertex 10.37768383015933 4.57940822442964 40.0
    vertex 8.400000000000002 5.3985916889676036 40.0
  endloop
endfacet
facet normal 0.3826834323650901 0.9238795325112867 0.0
  outer loop
    vertex 10.37768383015933 4.57940822442964 40.0
    vertex 8.400000000000002 5.3985916889676036 45.0
    vertex 10.37768383015933 4.57940822442964 45.0
  endloop
endfacet
facet normal 0.6087614290087204 0.7933533402912355 0.0
  outer loop
    vertex 6.701724394270311 6.701724394270311 45.0
    vertex 8.400000000000002 5.3985916889676036 40.0
    vertex 6.701724394270311 6.701724394270311 40.0
  endloop
endfacet
facet normal 0.6087614290087204 0.7933533402912355 0.0
  outer loop
    vertex 8.400000000000002 5.3985916889676036 40.0
    vertex 6.701724394270311 6.701724394270311 45.0
    vertex 8.400000000000002 5.3985916889676036 45.0
  endloop
endfacet
facet normal 0.793353340291235 0.6087614290087211 0.0
  outer loop
    vertex 5.3985916889676036 8.399999999999999 40.0
    vertex 6.701724394270311 6.701724394270311 45.0
    vertex 6.701724394270311 6.701724394270311 40.0
  endloop
endfacet
facet normal 0.793353340291235 0.6087614290087211 0.0
  outer loop
    vertex 6.701724394270311 6.701724394270311 45.0
    vertex 5.3985916889676036 8.399999999999999 40.0
    vertex 5.3985916889676036 8.399999999999999 45.0
  endloop
endfacet
facet normal 0.9238795325112868 0.3826834323650895 0.0
  outer loop
    vertex 4.579408224429642 10.377683830159327 40.0
    vertex 5.3985916889676036 8.399999999999999 45.0
    vertex 5.3985916889676036 8.399999999999999 40.0
  endloop
endfacet
facet normal 0.9238795325112868 0.3826834323650895 0.0
  outer loop
    vertex 5.3985916889676036 8.399999999999999 45.0
    vertex 4.579408224429642 10.377683830159327 40.0
    vertex 4.579408224429642 10.377683830159327 45.0
  endloop
endfacet
facet normal 0.9914448613738104 0.1305261922200519 0.0
  outer loop
    vertex 4.300000000000001 12.5 40.0
    vertex 4.579408224429642 10.377683830159327 45.0
    vertex 4.579408224429642 10.377683830159327 40.0
  endloop
endfacet
facet normal 0.9914448613738104 0.1305261922200519 0.0
  outer loop
    vertex 4.579408224429642 10.377683830159327 45.0
    vertex 4.300000000000001 12.5 40.0
    vertex 4.300000000000001 12.5 45.0
  endloop
endfacet
facet normal 0.9914448613738106 -0.13052619222005143 0.0
  outer loop
    vertex 4.57940822442964 14.62231616984067 40.0
    vertex 4.300000000000001 12.5 45.0
    vertex 4.300000000000001 12.5 40.0
  endloop
endfacet
facet normal 0.9914448613738106 -0.13052619222005143 0.0
  outer loop
    vertex 4.300000000000001 12.5 45.0
    vertex 4.57940822442964 14.62231616984067 40.0
    vertex 4.57940822442964 14.62231616984067 45.0
  endloop
endfacet
facet normal 0.9238795325112867 -0.3826834323650901 0.0
  outer loop
    vertex 5.3985916889676036 16.599999999999998 40.0
    vertex 4.57940822442964 14.62231616984067 45.0
    vertex 4.57940822442964 14.62231616984067 40.0
  endloop
endfacet
facet normal 0.9238795325112867 -0.3826834323650901 0.0
  outer loop
    vertex 4.57940822442964 14.62231616984067 45.0
    vertex 5.3985916889676036 16.599999999999998 40.0
    vertex 5.3985916889676036 16.599999999999998 45.0
  endloop
endfacet
facet normal 0.7933533402912355 -0.6087614290087204 0.0
  outer loop
    vertex 6.701724394270311 18.29827560572969 40.0
    vertex 5.3985916889676036 16.599999999999998 45.0
    vertex 5.3985916889676036 16.599999999999998 40.0
  endloop
endfacet
facet normal 0.7933533402912355 -0.6087614290087204 0.0
  outer loop
    vertex 5.3985916889676036 16.599999999999998 45.0
    vertex 6.701724394270311 18.29827560572969 40.0
    vertex 6.701724394270311 18.29827560572969 45.0
  endloop
endfacet
facet normal 0.6087614290087205 -0.7933533402912353 0.0
  outer loop
    vertex 8.399999999999997 19.601408311032394 45.0
    vertex 6.701724394270311 18.29827560572969 40.0
    vertex 8.399999999999997 19.601408311032394 40.0
  endloop
endfacet
facet normal 0.6087614290087205 -0.7933533402912353 0.0
  outer loop
    vertex 6.701724394270311 18.29827560572969 40.0
    vertex 8.399999999999997 19.601408311032394 45.0
    vertex 6.701724394270311 18.29827560572969 45.0
  endloop
endfacet
facet normal 0.3826834323650904 -0.9238795325112865 0.0
  outer loop
    vertex 10.377683830159327 20.420591775570358 45.0
    vertex 8.399999999999997 19.601408311032394 40.0
    vertex 10.377683830159327 20.420591775570358 40.0
  endloop
endfacet
facet normal 0.3826834323650904 -0.9238795325112865 0.0
  outer loop
    vertex 8.399999999999997 19.601408311032394 40.0
    vertex 10.377683830159327 20.420591775570358 45.0
    vertex 8.399999999999997 19.601408311032394 45.0
  endloop
endfacet
facet normal 0.13052619222005196 -0.9914448613738104 0.0
  outer loop
    vertex 12.499999999999998 20.7 45.0
    vertex 10.377683830159327 20.420591775570358 40.0
    vertex 12.499999999999998 20.7 40.0
  endloop
endfacet
facet normal 0.13052619222005196 -0.9914448613738104 0.0
  outer loop
    vertex 10.377683830159327 20.420591775570358 40.0
    vertex 12.499999999999998 20.7 45.0
    vertex 10.377683830159327 20.420591775570358 45.0
  endloop
endfacet
facet normal -0.13052619222005216 -0.9914448613738104 -0.0
  outer loop
    vertex 14.622316169840666 20.420591775570358 45.0
    vertex 12.499999999999998 20.7 40.0
    vertex 14.622316169840666 20.420591775570358 40.0
  endloop
endfacet
facet normal -0.13052619222005216 -0.9914448613738104 -0.0
  outer loop
    vertex 12.499999999999998 20.7 40.0
    vertex 14.622316169840666 20.420591775570358 45.0
    vertex 12.499999999999998 20.7 45.0
  endloop
endfacet
facet normal -0.382683432365088 -0.9238795325112876 -0.0
  outer loop
    vertex 16.599999999999998 19.601408311032397 45.0
    vertex 14.622316169840666 20.420591775570358 40.0
    vertex 16.599999999999998 19.601408311032397 40.0
  endloop
endfacet
facet normal -0.382683432365088 -0.9238795325112876 -0.0
  outer loop
    vertex 14.622316169840666 20.420591775570358 40.0
    vertex 16.599999999999998 19.601408311032397 45.0
    vertex 14.622316169840666 20.420591775570358 45.0
  endloop
endfacet
facet normal -0.6087614290087211 -0.793353340291235 -0.0
  outer loop
    vertex 18.298275605729685 18.298275605729692 45.0
    vertex 16.599999999999998 19.601408311032397 40.0
    vertex 18.298275605729685 18.298275605729692 40.0
  endloop
endfacet
facet normal -0.6087614290087211 -0.793353340291235 -0.0
  outer loop
    vertex 16.599999999999998 19.601408311032397 40.0
    vertex 18.298275605729685 18.298275605729692 45.0
    vertex 16.599999999999998 19.601408311032397 45.0
  endloop
endfacet
facet normal -0.793353340291235 -0.6087614290087211 -0.0
  outer loop
    vertex 18.298275605729685 18.298275605729692 45.0
    vertex 19.601408311032394 16.600000000000005 40.0
    vertex 19.601408311032394 16.600000000000005 45.0
  endloop
endfacet
facet normal -0.793353340291235 -0.6087614290087211 -0.0
  outer loop
    vertex 19.601408311032394 16.600000000000005 40.0
    vertex 18.298275605729685 18.298275605729692 45.0
    vertex 18.298275605729685 18.298275605729692 40.0
  endloop
endfacet
facet normal -0.9238795325112862 -0.3826834323650911 -0.0
  outer loop
    vertex 19.601408311032394 16.600000000000005 45.0
    vertex 20.420591775570358 14.622316169840678 40.0
    vertex 20.420591775570358 14.622316169840678 45.0
  endloop
endfacet
facet normal -0.9238795325112862 -0.3826834323650911 -0.0
  outer loop
    vertex 20.420591775570358 14.622316169840678 40.0
    vertex 19.601408311032394 16.600000000000005 45.0
    vertex 19.601408311032394 16.600000000000005 40.0
  endloop
endfacet
facet normal -0.9914448613738105 -0.13052619222005163 -0.0
  outer loop
    vertex 20.420591775570358 14.622316169840678 45.0
    vertex 20.7 12.500000000000002 40.0
    vertex 20.7 12.500000000000002 45.0
  endloop
endfacet
facet normal -0.9914448613738105 -0.13052619222005163 -0.0
  outer loop
    vertex 20.7 12.500000000000002 40.0
    vertex 20.420591775570358 14.622316169840678 45.0
    vertex 20.420591775570358 14.622316169840678 40.0
  endloop
endfacet
facet normal -0.9914448613738104 0.13052619222005216 0.0
  outer loop
    vertex 20.7 12.500000000000002 45.0
    vertex 20.420591775570358 10.377683830159333 40.0
    vertex 20.420591775570358 10.377683830159333 45.0
  endloop
endfacet
facet normal -0.9914448613738104 0.13052619222005216 0.0
  outer loop
    vertex 20.420591775570358 10.377683830159333 40.0
    vertex 20.7 12.500000000000002 45.0
    vertex 20.7 12.500000000000002 40.0
  endloop
endfacet
facet normal -0.9238795325112874 0.38268343236508867 0.0
  outer loop
    vertex 20.420591775570358 10.377683830159333 45.0
    vertex 19.601408311032397 8.400000000000006 40.0
    vertex 19.601408311032397 8.400000000000006 45.0
  endloop
endfacet
facet normal -0.9238795325112874 0.38268343236508867 0.0
  outer loop
    vertex 19.601408311032397 8.400000000000006 40.0
    vertex 20.420591775570358 10.377683830159333 45.0
    vertex 20.420591775570358 10.377683830159333 40.0
  endloop
endfacet
facet normal -0.7933533402912358 0.6087614290087198 0.0
  outer loop
    vertex 19.601408311032397 8.400000000000006 45.0
    vertex 18.298275605729692 6.701724394270312 40.0
    vertex 18.298275605729692 6.701724394270312 45.0
  endloop
endfacet
facet normal -0.7933533402912358 0.6087614290087198 0.0
  outer loop
    vertex 18.298275605729692 6.701724394270312 40.0
    vertex 19.601408311032397 8.400000000000006 45.0
    vertex 19.601408311032397 8.400000000000006 40.0
  endloop
endfacet
facet normal -0.6087614290087207 0.7933533402912353 0.0
  outer loop
    vertex 16.600000000000005 5.398591688967606 45.0
    vertex 18.298275605729692 6.701724394270312 40.0
    vertex 16.600000000000005 5.398591688967606 40.0
  endloop
endfacet
facet normal -0.6087614290087207 0.7933533402912353 0.0
  outer loop
    vertex 18.298275605729692 6.701724394270312 40.0
    vertex 16.600000000000005 5.398591688967606 45.0
    vertex 18.298275605729692 6.701724394270312 45.0
  endloop
endfacet
facet normal -0.3826834323650911 0.9238795325112862 0.0
  outer loop
    vertex 14.622316169840678 4.579408224429642 45.0
    vertex 16.600000000000005 5.398591688967606 40.0
    vertex 14.622316169840678 4.579408224429642 40.0
  endloop
endfacet
facet normal -0.3826834323650911 0.9238795325112862 0.0
  outer loop
    vertex 16.600000000000005 5.398591688967606 40.0
    vertex 14.622316169840678 4.579408224429642 45.0
    vertex 16.600000000000005 5.398591688967606 45.0
  endloop
endfacet
facet normal -0.13052619222005155 0.9914448613738104 0.0
  outer loop
    vertex 12.5 4.300000000000001 45.0
    vertex 14.622316169840678 4.579408224429642 40.0
    vertex 12.5 4.300000000000001 40.0
  endloop
endfacet
facet normal -0.13052619222005155 0.9914448613738104 0.0
  outer loop
    vertex 14.622316169840678 4.579408224429642 40.0
    vertex 12.5 4.300000000000001 45.0
    vertex 14.622316169840678 4.579408224429642 45.0
  endloop
endfacet
endsolid Верх-хаб
