solid Гайка-Подшипник-8х22мм
facet normal 0.0 0.0 -1.0
  outer loop
    vertex -4.499999999999998 7.794228634059948 0.0
    vertex -3.863703305156273 1.0352761804100814 4.229949723821846e-15
    vertex -3.999999999999999 -4.898587196589413e-16 4.229949723821846e-15
  endloop
endfacet
facet normal 0.0 0.0 -1.0
  outer loop
    vertex -3.863703305156273 1.0352761804100814 4.229949723821846e-15
    vertex -4.499999999999998 7.794228634059948 0.0
    vertex -2.3293714059226858 8.693332436601615 0.0
  endloop
endfacet
facet normal 0.0 0.0 -1.0
  outer loop
    vertex -3.863703305156273 1.0352761804100814 4.229949723821846e-15
    vertex -2.3293714059226858 8.693332436601615 0.0
    vertex -3.4641016151377544 1.999999999999999 4.229949723821846e-15
  endloop
endfacet
facet normal 0.0 0.0 -1.0
  outer loop
    vertex -3.4641016151377544 1.999999999999999 4.229949723821846e-15
    vertex -2.3293714059226858 8.693332436601615 0.0
    vertex -2.828427124746191 2.8284271247461885 4.229949723821846e-15
  endloop
endfacet
facet normal 0.0 0.0 -1.0
  outer loop
    vertex -2.828427124746191 2.8284271247461885 4.229949723821846e-15
    vertex -2.3293714059226858 8.693332436601615 0.0
    vertex -2.0000000000000013 3.464101615137754 4.229949723821846e-15
  endloop
endfacet
facet normal 0.0 0.0 -1.0
  outer loop
    vertex -2.0000000000000013 3.464101615137754 4.229949723821846e-15
    vertex -2.3293714059226858 8.693332436601615 0.0
    vertex 5.51091059616309e-16 9.0 0.0
  endloop
endfacet
facet normal 0.0 0.0 -1.0
  outer loop
    vertex -2.0000000000000013 3.464101615137754 4.229949723821846e-15
    vertex 5.51091059616309e-16 9.0 0.0
    vertex -1.0352761804100858 3.863703305156272 4.229949723821846e-15
  endloop
endfacet
facet normal 0.0 0.0 -1.0
  outer loop
    vertex -1.0352761804100858 3.863703305156272 4.229949723821846e-15
    vertex 5.51091059616309e-16 9.0 0.0
    vertex -7.347880794884123e-16 3.9999999999999996 4.229949723821846e-15
  endloop
endfacet
facet normal 0.0 0.0 -1.0
  outer loop
    vertex -7.347880794884123e-16 3.9999999999999996 4.229949723821846e-15
    vertex 5.51091059616309e-16 9.0 0.0
    vertex 1.035276180410081 3.8637033051562732 4.229949723821846e-15
  endloop
endfacet
facet normal 0.0 0.0 -1.0
  outer loop
    vertex 1.035276180410081 3.8637033051562732 4.229949723821846e-15
    vertex 5.51091059616309e-16 9.0 0.0
    vertex 2.329371405922689 8.693332436601615 0.0
  endloop
endfacet
facet normal 0.0 0.0 -1.0
  outer loop
    vertex 1.035276180410081 3.8637033051562732 4.229949723821846e-15
    vertex 2.329371405922689 8.693332436601615 0.0
    vertex 1.9999999999999967 3.464101615137756 4.229949723821846e-15
  endloop
endfacet
facet normal 0.0 0.0 -1.0
  outer loop
    vertex 1.9999999999999967 3.464101615137756 4.229949723821846e-15
    vertex 2.329371405922689 8.693332436601615 0.0
    vertex 2.8284271247461885 2.8284271247461903 4.229949723821846e-15
  endloop
endfacet
facet normal 0.0 0.0 -1.0
  outer loop
    vertex 2.8284271247461885 2.8284271247461903 4.229949723821846e-15
    vertex 2.329371405922689 8.693332436601615 0.0
    vertex 4.500000000000001 7.794228634059948 0.0
  endloop
endfacet
facet normal 0.0 0.0 -1.0
  outer loop
    vertex 2.8284271247461885 2.8284271247461903 4.229949723821846e-15
    vertex 4.500000000000001 7.794228634059948 0.0
    vertex 3.4641016151377526 2.0000000000000018 4.229949723821846e-15
  endloop
endfacet
facet normal 0.0 0.0 -1.0
  outer loop
    vertex 3.4641016151377526 2.0000000000000018 4.229949723821846e-15
    vertex 4.500000000000001 7.794228634059948 0.0
    vertex 3.8637033051562715 1.035276180410086 4.229949723821846e-15
  endloop
endfacet
facet normal 0.0 0.0 -1.0
  outer loop
    vertex 3.8637033051562715 1.035276180410086 4.229949723821846e-15
    vertex 4.500000000000001 7.794228634059948 0.0
    vertex 3.999999999999999 -1.3590204281946997e-32 4.229949723821846e-15
  endloop
endfacet
facet normal 0.0 0.0 -1.0
  outer loop
    vertex 3.999999999999999 -1.3590204281946997e-32 4.229949723821846e-15
    vertex 4.500000000000001 7.794228634059948 0.0
    vertex 4.499999999999994 -7.794228634059951 0.0
  endloop
endfacet
facet normal 0.0 0.0 -1.0
  outer loop
    vertex 4.499999999999994 -7.794228634059951 0.0
    vertex 4.500000000000001 7.794228634059948 0.0
    vertex 6.363961030678927 -6.363961030678929 0.0
  endloop
endfacet
facet normal 0.0 0.0 -1.0
  outer loop
    vertex 6.363961030678927 -6.363961030678929 0.0
    vertex 4.500000000000001 7.794228634059948 0.0
    vertex 6.3639610306789285 6.3639610306789285 0.0
  endloop
endfacet
facet normal 0.0 0.0 -1.0
  outer loop
    vertex 6.363961030678927 -6.363961030678929 0.0
    vertex 6.3639610306789285 6.3639610306789285 0.0
    vertex 7.794228634059945 -4.500000000000004 0.0
  endloop
endfacet
facet normal 0.0 0.0 -1.0
  outer loop
    vertex 7.794228634059945 -4.500000000000004 0.0
    vertex 6.3639610306789285 6.3639610306789285 0.0
    vertex 7.794228634059948 4.499999999999999 0.0
  endloop
endfacet
facet normal 0.0 0.0 -1.0
  outer loop
    vertex 7.794228634059945 -4.500000000000004 0.0
    vertex 7.794228634059948 4.499999999999999 0.0
    vertex 8.693332436601613 -2.329371405922694 0.0
  endloop
endfacet
facet normal 0.0 0.0 -1.0
  outer loop
    vertex 8.693332436601613 -2.329371405922694 0.0
    vertex 7.794228634059948 4.499999999999999 0.0
    vertex 8.693332436601615 2.329371405922687 0.0
  endloop
endfacet
facet normal 0.0 0.0 -1.0
  outer loop
    vertex 8.693332436601613 -2.329371405922694 0.0
    vertex 8.693332436601615 2.329371405922687 0.0
    vertex 9.0 0.0 0.0
  endloop
endfacet
facet normal 0.0 0.0 -1.0
  outer loop
    vertex -8.693332436601615 2.3293714059226893 0.0
    vertex -8.693332436601617 -2.3293714059226835 0.0
    vertex -9.0 1.102182119232618e-15 0.0
  endloop
endfacet
facet normal 0.0 0.0 -1.0
  outer loop
    vertex -8.693332436601617 -2.3293714059226835 0.0
    vertex -8.693332436601615 2.3293714059226893 0.0
    vertex -7.79422863405995 -4.499999999999997 0.0
  endloop
endfacet
facet normal 0.0 0.0 -1.0
  outer loop
    vertex -7.79422863405995 -4.499999999999997 0.0
    vertex -8.693332436601615 2.3293714059226893 0.0
    vertex -7.794228634059947 4.500000000000003 0.0
  endloop
endfacet
facet normal 0.0 0.0 -1.0
  outer loop
    vertex -7.79422863405995 -4.499999999999997 0.0
    vertex -7.794228634059947 4.500000000000003 0.0
    vertex -6.363961030678931 -6.363961030678924 0.0
  endloop
endfacet
facet normal 0.0 0.0 -1.0
  outer loop
    vertex -6.363961030678931 -6.363961030678924 0.0
    vertex -7.794228634059947 4.500000000000003 0.0
    vertex -6.3639610306789285 6.3639610306789285 0.0
  endloop
endfacet
facet normal 0.0 0.0 -1.0
  outer loop
    vertex -6.363961030678931 -6.363961030678924 0.0
    vertex -6.3639610306789285 6.3639610306789285 0.0
    vertex -4.500000000000004 -7.794228634059947 0.0
  endloop
endfacet
facet normal 0.0 0.0 -1.0
  outer loop
    vertex -4.500000000000004 -7.794228634059947 0.0
    vertex -6.3639610306789285 6.3639610306789285 0.0
    vertex -4.499999999999998 7.794228634059948 0.0
  endloop
endfacet
facet normal 0.0 0.0 -1.0
  outer loop
    vertex -4.500000000000004 -7.794228634059947 0.0
    vertex -4.499999999999998 7.794228634059948 0.0
    vertex -3.999999999999999 -4.898587196589413e-16 4.229949723821846e-15
  endloop
endfacet
facet normal 0.0 0.0 -1.0
  outer loop
    vertex -4.500000000000004 -7.794228634059947 0.0
    vertex -3.999999999999999 -4.898587196589413e-16 4.229949723821846e-15
    vertex -3.863703305156272 -1.035276180410084 4.229949723821846e-15
  endloop
endfacet
facet normal 0.0 0.0 -1.0
  outer loop
    vertex -4.500000000000004 -7.794228634059947 0.0
    vertex -3.863703305156272 -1.035276180410084 4.229949723821846e-15
    vertex -2.3293714059226938 -8.693332436601613 0.0
  endloop
endfacet
facet normal 0.0 0.0 -1.0
  outer loop
    vertex -2.3293714059226938 -8.693332436601613 0.0
    vertex -3.863703305156272 -1.035276180410084 4.229949723821846e-15
    vertex -3.464101615137753 -2.0000000000000013 4.229949723821846e-15
  endloop
endfacet
facet normal 0.0 0.0 -1.0
  outer loop
    vertex -2.3293714059226938 -8.693332436601613 0.0
    vertex -3.464101615137753 -2.0000000000000013 4.229949723821846e-15
    vertex -2.8284271247461894 -2.8284271247461903 4.229949723821846e-15
  endloop
endfacet
facet normal 0.0 0.0 -1.0
  outer loop
    vertex -2.3293714059226938 -8.693332436601613 0.0
    vertex -2.8284271247461894 -2.8284271247461903 4.229949723821846e-15
    vertex -1.9999999999999984 -3.4641016151377544 4.229949723821846e-15
  endloop
endfacet
facet normal 0.0 0.0 -1.0
  outer loop
    vertex -2.3293714059226938 -8.693332436601613 0.0
    vertex -1.9999999999999984 -3.4641016151377544 4.229949723821846e-15
    vertex -1.6532731788489267e-15 -9.0 0.0
  endloop
endfacet
facet normal 0.0 0.0 -1.0
  outer loop
    vertex -1.6532731788489267e-15 -9.0 0.0
    vertex -1.9999999999999984 -3.4641016151377544 4.229949723821846e-15
    vertex -1.0352761804100823 -3.863703305156273 4.229949723821846e-15
  endloop
endfacet
facet normal 0.0 0.0 -1.0
  outer loop
    vertex -1.6532731788489267e-15 -9.0 0.0
    vertex -1.0352761804100823 -3.863703305156273 4.229949723821846e-15
    vertex 2.449293598294704e-16 -3.9999999999999996 4.229949723821846e-15
  endloop
endfacet
facet normal 0.0 0.0 -1.0
  outer loop
    vertex -1.6532731788489267e-15 -9.0 0.0
    vertex 2.449293598294704e-16 -3.9999999999999996 4.229949723821846e-15
    vertex 2.3293714059226827 -8.693332436601617 0.0
  endloop
endfacet
facet normal 0.0 0.0 -1.0
  outer loop
    vertex 2.3293714059226827 -8.693332436601617 0.0
    vertex 2.449293598294704e-16 -3.9999999999999996 4.229949723821846e-15
    vertex 1.0352761804100836 -3.863703305156273 4.229949723821846e-15
  endloop
endfacet
facet normal 0.0 0.0 -1.0
  outer loop
    vertex 2.3293714059226827 -8.693332436601617 0.0
    vertex 1.0352761804100836 -3.863703305156273 4.229949723821846e-15
    vertex 1.9999999999999998 -3.464101615137754 4.229949723821846e-15
  endloop
endfacet
facet normal 0.0 0.0 -1.0
  outer loop
    vertex 2.3293714059226827 -8.693332436601617 0.0
    vertex 1.9999999999999998 -3.464101615137754 4.229949723821846e-15
    vertex 2.82842712474619 -2.8284271247461903 4.229949723821846e-15
  endloop
endfacet
facet normal 0.0 0.0 -1.0
  outer loop
    vertex 2.3293714059226827 -8.693332436601617 0.0
    vertex 2.82842712474619 -2.8284271247461903 4.229949723821846e-15
    vertex 4.499999999999994 -7.794228634059951 0.0
  endloop
endfacet
facet normal 0.0 0.0 -1.0
  outer loop
    vertex 4.499999999999994 -7.794228634059951 0.0
    vertex 2.82842712474619 -2.8284271247461903 4.229949723821846e-15
    vertex 3.464101615137754 -1.9999999999999996 4.229949723821846e-15
  endloop
endfacet
facet normal 0.0 0.0 -1.0
  outer loop
    vertex 4.499999999999994 -7.794228634059951 0.0
    vertex 3.464101615137754 -1.9999999999999996 4.229949723821846e-15
    vertex 3.863703305156272 -1.035276180410083 4.229949723821846e-15
  endloop
endfacet
facet normal 0.0 0.0 -1.0
  outer loop
    vertex 4.499999999999994 -7.794228634059951 0.0
    vertex 3.863703305156272 -1.035276180410083 4.229949723821846e-15
    vertex 3.999999999999999 -1.3590204281946997e-32 4.229949723821846e-15
  endloop
endfacet
facet normal -0.7933533402912352 0.6087614290087209 0.0
  outer loop
    vertex -6.3639610306789285 6.3639610306789285 10.3
    vertex -7.794228634059947 4.500000000000003 0.0
    vertex -7.794228634059947 4.500000000000003 10.3
  endloop
endfacet
facet normal -0.7933533402912352 0.6087614290087209 0.0
  outer loop
    vertex -7.794228634059947 4.500000000000003 0.0
    vertex -6.3639610306789285 6.3639610306789285 10.3
    vertex -6.3639610306789285 6.3639610306789285 0.0
  endloop
endfacet
facet normal -0.6087614290087202 0.7933533402912357 -0.0
  outer loop
    vertex -6.3639610306789285 6.3639610306789285 10.3
    vertex -4.499999999999998 7.794228634059948 0.0
    vertex -6.3639610306789285 6.3639610306789285 0.0
  endloop
endfacet
facet normal -0.6087614290087202 0.7933533402912357 -0.0
  outer loop
    vertex -4.499999999999998 7.794228634059948 0.0
    vertex -6.3639610306789285 6.3639610306789285 10.3
    vertex -4.499999999999998 7.794228634059948 10.3
  endloop
endfacet
facet normal -0.3826834323650898 0.9238795325112867 -0.0
  outer loop
    vertex -4.499999999999998 7.794228634059948 10.3
    vertex -2.3293714059226858 8.693332436601615 0.0
    vertex -4.499999999999998 7.794228634059948 0.0
  endloop
endfacet
facet normal -0.3826834323650898 0.9238795325112867 -0.0
  outer loop
    vertex -2.3293714059226858 8.693332436601615 0.0
    vertex -4.499999999999998 7.794228634059948 10.3
    vertex -2.3293714059226858 8.693332436601615 10.3
  endloop
endfacet
facet normal -0.13052619222005174 0.9914448613738105 -0.0
  outer loop
    vertex -2.3293714059226858 8.693332436601615 10.3
    vertex 5.51091059616309e-16 9.0 0.0
    vertex -2.3293714059226858 8.693332436601615 0.0
  endloop
endfacet
facet normal -0.13052619222005174 0.9914448613738105 -0.0
  outer loop
    vertex 5.51091059616309e-16 9.0 0.0
    vertex -2.3293714059226858 8.693332436601615 10.3
    vertex 5.51091059616309e-16 9.0 10.3
  endloop
endfacet
facet normal 0.13052619222005166 0.9914448613738105 -0.0
  outer loop
    vertex 5.51091059616309e-16 9.0 10.3
    vertex 2.329371405922689 8.693332436601615 0.0
    vertex 5.51091059616309e-16 9.0 0.0
  endloop
endfacet
facet normal 0.13052619222005166 0.9914448613738105 -0.0
  outer loop
    vertex 2.329371405922689 8.693332436601615 0.0
    vertex 5.51091059616309e-16 9.0 10.3
    vertex 2.329371405922689 8.693332436601615 10.3
  endloop
endfacet
facet normal 0.3826834323650898 0.9238795325112867 -0.0
  outer loop
    vertex 2.329371405922689 8.693332436601615 10.3
    vertex 4.500000000000001 7.794228634059948 0.0
    vertex 2.329371405922689 8.693332436601615 0.0
  endloop
endfacet
facet normal 0.3826834323650898 0.9238795325112867 -0.0
  outer loop
    vertex 4.500000000000001 7.794228634059948 0.0
    vertex 2.329371405922689 8.693332436601615 10.3
    vertex 4.500000000000001 7.794228634059948 10.3
  endloop
endfacet
facet normal 0.6087614290087209 0.7933533402912352 -0.0
  outer loop
    vertex 4.500000000000001 7.794228634059948 10.3
    vertex 6.3639610306789285 6.3639610306789285 0.0
    vertex 4.500000000000001 7.794228634059948 0.0
  endloop
endfacet
facet normal 0.6087614290087209 0.7933533402912352 -0.0
  outer loop
    vertex 6.3639610306789285 6.3639610306789285 0.0
    vertex 4.500000000000001 7.794228634059948 10.3
    vertex 6.3639610306789285 6.3639610306789285 10.3
  endloop
endfacet
facet normal 0.7933533402912354 0.6087614290087207 -0.0
  outer loop
    vertex 6.3639610306789285 6.3639610306789285 0.0
    vertex 7.794228634059948 4.499999999999999 10.3
    vertex 7.794228634059948 4.499999999999999 0.0
  endloop
endfacet
facet normal 0.7933533402912354 0.6087614290087207 -0.0
  outer loop
    vertex 7.794228634059948 4.499999999999999 10.3
    vertex 6.3639610306789285 6.3639610306789285 0.0
    vertex 6.3639610306789285 6.3639610306789285 10.3
  endloop
endfacet
facet normal 0.9238795325112868 0.3826834323650897 -0.0
  outer loop
    vertex 7.794228634059948 4.499999999999999 0.0
    vertex 8.693332436601615 2.329371405922687 10.3
    vertex 8.693332436601615 2.329371405922687 0.0
  endloop
endfacet
facet normal 0.9238795325112868 0.3826834323650897 -0.0
  outer loop
    vertex 8.693332436601615 2.329371405922687 10.3
    vertex 7.794228634059948 4.499999999999999 0.0
    vertex 7.794228634059948 4.499999999999999 10.3
  endloop
endfacet
facet normal 0.9914448613738105 0.13052619222005174 -0.0
  outer loop
    vertex 8.693332436601615 2.329371405922687 0.0
    vertex 9.0 0.0 10.3
    vertex 9.0 0.0 0.0
  endloop
endfacet
facet normal 0.9914448613738105 0.13052619222005174 -0.0
  outer loop
    vertex 9.0 0.0 10.3
    vertex 8.693332436601615 2.329371405922687 0.0
    vertex 8.693332436601615 2.329371405922687 10.3
  endloop
endfacet
facet normal 0.9914448613738105 -0.13052619222005196 -0.0
  outer loop
    vertex 9.0 0.0 0.0
    vertex 8.693332436601613 -2.329371405922694 10.3
    vertex 8.693332436601613 -2.329371405922694 0.0
  endloop
endfacet
facet normal 0.9914448613738105 -0.13052619222005196 -0.0
  outer loop
    vertex 8.693332436601613 -2.329371405922694 10.3
    vertex 9.0 0.0 0.0
    vertex 9.0 0.0 10.3
  endloop
endfacet
facet normal 0.9238795325112865 -0.38268343236509056 -0.0
  outer loop
    vertex 8.693332436601613 -2.329371405922694 0.0
    vertex 7.794228634059945 -4.500000000000004 10.3
    vertex 7.794228634059945 -4.500000000000004 0.0
  endloop
endfacet
facet normal 0.9238795325112865 -0.38268343236509056 -0.0
  outer loop
    vertex 7.794228634059945 -4.500000000000004 10.3
    vertex 8.693332436601613 -2.329371405922694 0.0
    vertex 8.693332436601613 -2.329371405922694 10.3
  endloop
endfacet
facet normal 0.7933533402912352 -0.6087614290087209 -0.0
  outer loop
    vertex 7.794228634059945 -4.500000000000004 0.0
    vertex 6.363961030678927 -6.363961030678929 10.3
    vertex 6.363961030678927 -6.363961030678929 0.0
  endloop
endfacet
facet normal 0.7933533402912352 -0.6087614290087209 -0.0
  outer loop
    vertex 6.363961030678927 -6.363961030678929 10.3
    vertex 7.794228634059945 -4.500000000000004 0.0
    vertex 7.794228634059945 -4.500000000000004 10.3
  endloop
endfacet
facet normal 0.6087614290087201 -0.7933533402912355 0.0
  outer loop
    vertex 6.363961030678927 -6.363961030678929 10.3
    vertex 4.499999999999994 -7.794228634059951 0.0
    vertex 6.363961030678927 -6.363961030678929 0.0
  endloop
endfacet
facet normal 0.6087614290087201 -0.7933533402912355 0.0
  outer loop
    vertex 4.499999999999994 -7.794228634059951 0.0
    vertex 6.363961030678927 -6.363961030678929 10.3
    vertex 4.499999999999994 -7.794228634059951 10.3
  endloop
endfacet
facet normal 0.3826834323650895 -0.9238795325112871 0.0
  outer loop
    vertex 4.499999999999994 -7.794228634059951 10.3
    vertex 2.3293714059226827 -8.693332436601617 0.0
    vertex 4.499999999999994 -7.794228634059951 0.0
  endloop
endfacet
facet normal 0.3826834323650895 -0.9238795325112871 0.0
  outer loop
    vertex 2.3293714059226827 -8.693332436601617 0.0
    vertex 4.499999999999994 -7.794228634059951 10.3
    vertex 2.3293714059226827 -8.693332436601617 10.3
  endloop
endfacet
facet normal 0.1305261922200513 -0.9914448613738105 0.0
  outer loop
    vertex 2.3293714059226827 -8.693332436601617 10.3
    vertex -1.6532731788489267e-15 -9.0 0.0
    vertex 2.3293714059226827 -8.693332436601617 0.0
  endloop
endfacet
facet normal 0.1305261922200513 -0.9914448613738105 0.0
  outer loop
    vertex -1.6532731788489267e-15 -9.0 0.0
    vertex 2.3293714059226827 -8.693332436601617 10.3
    vertex -1.6532731788489267e-15 -9.0 10.3
  endloop
endfacet
facet normal -0.13052619222005202 -0.9914448613738105 0.0
  outer loop
    vertex -1.6532731788489267e-15 -9.0 10.3
    vertex -2.3293714059226938 -8.693332436601613 0.0
    vertex -1.6532731788489267e-15 -9.0 0.0
  endloop
endfacet
facet normal -0.13052619222005202 -0.9914448613738105 0.0
  outer loop
    vertex -2.3293714059226938 -8.693332436601613 0.0
    vertex -1.6532731788489267e-15 -9.0 10.3
    vertex -2.3293714059226938 -8.693332436601613 10.3
  endloop
endfacet
facet normal -0.38268343236509 -0.9238795325112867 0.0
  outer loop
    vertex -2.3293714059226938 -8.693332436601613 10.3
    vertex -4.500000000000004 -7.794228634059947 0.0
    vertex -2.3293714059226938 -8.693332436601613 0.0
  endloop
endfacet
facet normal -0.38268343236509 -0.9238795325112867 0.0
  outer loop
    vertex -4.500000000000004 -7.794228634059947 0.0
    vertex -2.3293714059226938 -8.693332436601613 10.3
    vertex -4.500000000000004 -7.794228634059947 10.3
  endloop
endfacet
facet normal -0.6087614290087218 -0.7933533402912344 0.0
  outer loop
    vertex -4.500000000000004 -7.794228634059947 10.3
    vertex -6.363961030678931 -6.363961030678924 0.0
    vertex -4.500000000000004 -7.794228634059947 0.0
  endloop
endfacet
facet normal -0.6087614290087218 -0.7933533402912344 0.0
  outer loop
    vertex -6.363961030678931 -6.363961030678924 0.0
    vertex -4.500000000000004 -7.794228634059947 10.3
    vertex -6.363961030678931 -6.363961030678924 10.3
  endloop
endfacet
facet normal -0.7933533402912353 -0.6087614290087205 0.0
  outer loop
    vertex -7.79422863405995 -4.499999999999997 10.3
    vertex -6.363961030678931 -6.363961030678924 0.0
    vertex -6.363961030678931 -6.363961030678924 10.3
  endloop
endfacet
facet normal -0.7933533402912353 -0.6087614290087205 0.0
  outer loop
    vertex -6.363961030678931 -6.363961030678924 0.0
    vertex -7.79422863405995 -4.499999999999997 10.3
    vertex -7.79422863405995 -4.499999999999997 0.0
  endloop
endfacet
facet normal -0.9238795325112868 -0.3826834323650895 0.0
  outer loop
    vertex -8.693332436601617 -2.3293714059226835 10.3
    vertex -7.79422863405995 -4.499999999999997 0.0
    vertex -7.79422863405995 -4.499999999999997 10.3
  endloop
endfacet
facet normal -0.9238795325112868 -0.3826834323650895 0.0
  outer loop
    vertex -7.79422863405995 -4.499999999999997 0.0
    vertex -8.693332436601617 -2.3293714059226835 10.3
    vertex -8.693332436601617 -2.3293714059226835 0.0
  endloop
endfacet
facet normal -0.9914448613738105 -0.13052619222005127 0.0
  outer loop
    vertex -9.0 1.102182119232618e-15 10.3
    vertex -8.693332436601617 -2.3293714059226835 0.0
    vertex -8.693332436601617 -2.3293714059226835 10.3
  endloop
endfacet
facet normal -0.9914448613738105 -0.13052619222005127 0.0
  outer loop
    vertex -8.693332436601617 -2.3293714059226835 0.0
    vertex -9.0 1.102182119232618e-15 10.3
    vertex -9.0 1.102182119232618e-15 0.0
  endloop
endfacet
facet normal -0.9914448613738105 0.13052619222005168 0.0
  outer loop
    vertex -8.693332436601615 2.3293714059226893 10.3
    vertex -9.0 1.102182119232618e-15 0.0
    vertex -9.0 1.102182119232618e-15 10.3
  endloop
endfacet
facet normal -0.9914448613738105 0.13052619222005168 0.0
  outer loop
    vertex -9.0 1.102182119232618e-15 0.0
    vertex -8.693332436601615 2.3293714059226893 10.3
    vertex -8.693332436601615 2.3293714059226893 0.0
  endloop
endfacet
facet normal -0.9238795325112867 0.3826834323650901 0.0
  outer loop
    vertex -7.794228634059947 4.500000000000003 10.3
    vertex -8.693332436601615 2.3293714059226893 0.0
    vertex -8.693332436601615 2.3293714059226893 10.3
  endloop
endfacet
facet normal -0.9238795325112867 0.3826834323650901 0.0
  outer loop
    vertex -8.693332436601615 2.3293714059226893 0.0
    vertex -7.794228634059947 4.500000000000003 10.3
    vertex -7.794228634059947 4.500000000000003 0.0
  endloop
endfacet
facet normal -0.0 -0.0 1.0
  outer loop
    vertex -6.499999999999998 -3.7527767497325675 1.5
    vertex -3.863703305156272 -1.035276180410084 1.5
    vertex -3.999999999999999 -4.898587196589412e-16 1.5
  endloop
endfacet
facet normal -0.0 -0.0 1.0
  outer loop
    vertex -3.863703305156272 -1.035276180410084 1.5
    vertex -6.499999999999998 -3.7527767497325675 1.5
    vertex -3.464101615137753 -2.0000000000000013 1.5
  endloop
endfacet
facet normal -0.0 -0.0 1.0
  outer loop
    vertex -3.464101615137753 -2.0000000000000013 1.5
    vertex -6.499999999999998 -3.7527767497325675 1.5
    vertex 2.114974861910923e-15 -7.505553499465132 1.5
  endloop
endfacet
facet normal -0.0 -0.0 1.0
  outer loop
    vertex -3.464101615137753 -2.0000000000000013 1.5
    vertex 2.114974861910923e-15 -7.505553499465132 1.5
    vertex -2.8284271247461894 -2.8284271247461903 1.5
  endloop
endfacet
facet normal -0.0 -0.0 1.0
  outer loop
    vertex -2.8284271247461894 -2.8284271247461903 1.5
    vertex 2.114974861910923e-15 -7.505553499465132 1.5
    vertex -1.9999999999999984 -3.4641016151377544 1.5
  endloop
endfacet
facet normal -0.0 -0.0 1.0
  outer loop
    vertex -1.9999999999999984 -3.4641016151377544 1.5
    vertex 2.114974861910923e-15 -7.505553499465132 1.5
    vertex -1.0352761804100823 -3.863703305156273 1.5
  endloop
endfacet
facet normal -0.0 -0.0 1.0
  outer loop
    vertex -1.0352761804100823 -3.863703305156273 1.5
    vertex 2.114974861910923e-15 -7.505553499465132 1.5
    vertex 2.449293598294706e-16 -3.9999999999999996 1.5
  endloop
endfacet
facet normal -0.0 -0.0 1.0
  outer loop
    vertex 2.449293598294706e-16 -3.9999999999999996 1.5
    vertex 2.114974861910923e-15 -7.505553499465132 1.5
    vertex 1.0352761804100836 -3.863703305156273 1.5
  endloop
endfacet
facet normal -0.0 -0.0 1.0
  outer loop
    vertex 1.0352761804100836 -3.863703305156273 1.5
    vertex 2.114974861910923e-15 -7.505553499465132 1.5
    vertex 6.499999999999999 -3.7527767497325666 1.5
  endloop
endfacet
facet normal -0.0 -0.0 1.0
  outer loop
    vertex 1.0352761804100836 -3.863703305156273 1.5
    vertex 6.499999999999999 -3.7527767497325666 1.5
    vertex 1.9999999999999998 -3.464101615137754 1.5
  endloop
endfacet
facet normal -0.0 -0.0 1.0
  outer loop
    vertex 1.9999999999999998 -3.464101615137754 1.5
    vertex 6.499999999999999 -3.7527767497325666 1.5
    vertex 2.82842712474619 -2.8284271247461903 1.5
  endloop
endfacet
facet normal -0.0 -0.0 1.0
  outer loop
    vertex 2.82842712474619 -2.8284271247461903 1.5
    vertex 6.499999999999999 -3.7527767497325666 1.5
    vertex 3.464101615137754 -1.9999999999999996 1.5
  endloop
endfacet
facet normal -0.0 -0.0 1.0
  outer loop
    vertex 3.464101615137754 -1.9999999999999996 1.5
    vertex 6.499999999999999 -3.7527767497325666 1.5
    vertex 3.863703305156272 -1.035276180410083 1.5
  endloop
endfacet
facet normal -0.0 -0.0 1.0
  outer loop
    vertex 3.863703305156272 -1.035276180410083 1.5
    vertex 6.499999999999999 -3.7527767497325666 1.5
    vertex 3.999999999999999 0.0 1.5
  endloop
endfacet
facet normal -0.0 -0.0 1.0
  outer loop
    vertex 3.999999999999999 0.0 1.5
    vertex 6.499999999999999 -3.7527767497325666 1.5
    vertex 6.4999999999999964 3.7527767497325715 1.5
  endloop
endfacet
facet normal -0.0 -0.0 1.0
  outer loop
    vertex -6.499999999999999 3.752776749732566 1.5
    vertex -3.4641016151377544 1.999999999999999 1.5
    vertex -4.93494134445882e-15 7.505553499465135 1.5
  endloop
endfacet
facet normal -0.0 -0.0 1.0
  outer loop
    vertex -3.4641016151377544 1.999999999999999 1.5
    vertex -6.499999999999999 3.752776749732566 1.5
    vertex -6.499999999999998 -3.7527767497325675 1.5
  endloop
endfacet
facet normal -0.0 -0.0 1.0
  outer loop
    vertex -3.4641016151377544 1.999999999999999 1.5
    vertex -6.499999999999998 -3.7527767497325675 1.5
    vertex -3.863703305156273 1.0352761804100814 1.5
  endloop
endfacet
facet normal -0.0 -0.0 1.0
  outer loop
    vertex -3.863703305156273 1.0352761804100814 1.5
    vertex -6.499999999999998 -3.7527767497325675 1.5
    vertex -3.999999999999999 -4.898587196589412e-16 1.5
  endloop
endfacet
facet normal -0.0 -0.0 1.0
  outer loop
    vertex -4.93494134445882e-15 7.505553499465135 1.5
    vertex -3.4641016151377544 1.999999999999999 1.5
    vertex -2.828427124746191 2.8284271247461885 1.5
  endloop
endfacet
facet normal -0.0 -0.0 1.0
  outer loop
    vertex -4.93494134445882e-15 7.505553499465135 1.5
    vertex -2.828427124746191 2.8284271247461885 1.5
    vertex -2.0000000000000013 3.464101615137754 1.5
  endloop
endfacet
facet normal -0.0 -0.0 1.0
  outer loop
    vertex -4.93494134445882e-15 7.505553499465135 1.5
    vertex -2.0000000000000013 3.464101615137754 1.5
    vertex -1.0352761804100858 3.863703305156272 1.5
  endloop
endfacet
facet normal -0.0 -0.0 1.0
  outer loop
    vertex -4.93494134445882e-15 7.505553499465135 1.5
    vertex -1.0352761804100858 3.863703305156272 1.5
    vertex -7.347880794884117e-16 3.9999999999999996 1.5
  endloop
endfacet
facet normal -0.0 -0.0 1.0
  outer loop
    vertex -4.93494134445882e-15 7.505553499465135 1.5
    vertex -7.347880794884117e-16 3.9999999999999996 1.5
    vertex 6.4999999999999964 3.7527767497325715 1.5
  endloop
endfacet
facet normal -0.0 -0.0 1.0
  outer loop
    vertex 6.4999999999999964 3.7527767497325715 1.5
    vertex -7.347880794884117e-16 3.9999999999999996 1.5
    vertex 1.035276180410081 3.8637033051562732 1.5
  endloop
endfacet
facet normal -0.0 -0.0 1.0
  outer loop
    vertex 6.4999999999999964 3.7527767497325715 1.5
    vertex 1.035276180410081 3.8637033051562732 1.5
    vertex 1.9999999999999967 3.464101615137756 1.5
  endloop
endfacet
facet normal -0.0 -0.0 1.0
  outer loop
    vertex 6.4999999999999964 3.7527767497325715 1.5
    vertex 1.9999999999999967 3.464101615137756 1.5
    vertex 2.8284271247461885 2.8284271247461903 1.5
  endloop
endfacet
facet normal -0.0 -0.0 1.0
  outer loop
    vertex 6.4999999999999964 3.7527767497325715 1.5
    vertex 2.8284271247461885 2.8284271247461903 1.5
    vertex 3.4641016151377526 2.0000000000000018 1.5
  endloop
endfacet
facet normal -0.0 -0.0 1.0
  outer loop
    vertex 6.4999999999999964 3.7527767497325715 1.5
    vertex 3.4641016151377526 2.0000000000000018 1.5
    vertex 3.8637033051562715 1.035276180410086 1.5
  endloop
endfacet
facet normal -0.0 -0.0 1.0
  outer loop
    vertex 6.4999999999999964 3.7527767497325715 1.5
    vertex 3.8637033051562715 1.035276180410086 1.5
    vertex 3.999999999999999 0.0 1.5
  endloop
endfacet
facet normal -0.13052619222005127 -0.9914448613738106 1.8823422719874402e-32
  outer loop
    vertex 1.035276180410081 3.8637033051562732 1.5
    vertex -7.347880794884123e-16 3.9999999999999996 4.229949723821846e-15
    vertex 1.035276180410081 3.8637033051562732 4.229949723821846e-15
  endloop
endfacet
facet normal -0.13052619222005127 -0.9914448613738106 1.8823422719874402e-32
  outer loop
    vertex -7.347880794884123e-16 3.9999999999999996 4.229949723821846e-15
    vertex 1.035276180410081 3.8637033051562732 1.5
    vertex -7.347880794884117e-16 3.9999999999999996 1.5
  endloop
endfacet
facet normal 0.13052619222005216 -0.9914448613738104 -8.58171786065517e-34
  outer loop
    vertex -7.347880794884117e-16 3.9999999999999996 1.5
    vertex -1.0352761804100858 3.863703305156272 4.229949723821846e-15
    vertex -7.347880794884123e-16 3.9999999999999996 4.229949723821846e-15
  endloop
endfacet
facet normal 0.13052619222005216 -0.9914448613738104 -8.58171786065517e-34
  outer loop
    vertex -1.0352761804100858 3.863703305156272 4.229949723821846e-15
    vertex -7.347880794884117e-16 3.9999999999999996 1.5
    vertex -1.0352761804100858 3.863703305156272 1.5
  endloop
endfacet
facet normal 0.38268343236509 -0.9238795325112868 -2.048128330298096e-32
  outer loop
    vertex -1.0352761804100858 3.863703305156272 1.5
    vertex -2.0000000000000013 3.464101615137754 4.229949723821846e-15
    vertex -1.0352761804100858 3.863703305156272 4.229949723821846e-15
  endloop
endfacet
facet normal 0.38268343236509 -0.9238795325112868 -2.048128330298096e-32
  outer loop
    vertex -2.0000000000000013 3.464101615137754 4.229949723821846e-15
    vertex -1.0352761804100858 3.863703305156272 1.5
    vertex -2.0000000000000013 3.464101615137754 1.5
  endloop
endfacet
facet normal 0.6087614290087213 -0.7933533402912346 -3.8708629209719303e-32
  outer loop
    vertex -2.0000000000000013 3.464101615137754 1.5
    vertex -2.828427124746191 2.8284271247461885 4.229949723821846e-15
    vertex -2.0000000000000013 3.464101615137754 4.229949723821846e-15
  endloop
endfacet
facet normal 0.6087614290087213 -0.7933533402912346 -3.8708629209719303e-32
  outer loop
    vertex -2.828427124746191 2.8284271247461885 4.229949723821846e-15
    vertex -2.0000000000000013 3.464101615137754 1.5
    vertex -2.828427124746191 2.8284271247461885 1.5
  endloop
endfacet
facet normal 0.7933533402912355 -0.6087614290087203 -5.429804600484955e-32
  outer loop
    vertex -2.828427124746191 2.8284271247461885 4.229949723821846e-15
    vertex -3.4641016151377544 1.999999999999999 1.5
    vertex -3.4641016151377544 1.999999999999999 4.229949723821846e-15
  endloop
endfacet
facet normal 0.7933533402912355 -0.6087614290087203 -5.429804600484955e-32
  outer loop
    vertex -3.4641016151377544 1.999999999999999 1.5
    vertex -2.828427124746191 2.8284271247461885 4.229949723821846e-15
    vertex -2.828427124746191 2.8284271247461885 1.5
  endloop
endfacet
facet normal 0.9238795325112871 -0.38268343236508934 -6.618714069651301e-32
  outer loop
    vertex -3.4641016151377544 1.999999999999999 4.229949723821846e-15
    vertex -3.863703305156273 1.0352761804100814 1.5
    vertex -3.863703305156273 1.0352761804100814 4.229949723821846e-15
  endloop
endfacet
facet normal 0.9238795325112871 -0.38268343236508934 -6.618714069651301e-32
  outer loop
    vertex -3.863703305156273 1.0352761804100814 1.5
    vertex -3.4641016151377544 1.999999999999999 4.229949723821846e-15
    vertex -3.4641016151377544 1.999999999999999 1.5
  endloop
endfacet
facet normal 0.9914448613738106 -0.13052619222005124 -7.356569112913074e-32
  outer loop
    vertex -3.863703305156273 1.0352761804100814 4.229949723821846e-15
    vertex -3.999999999999999 -4.898587196589412e-16 1.5
    vertex -3.999999999999999 -4.898587196589413e-16 4.229949723821846e-15
  endloop
endfacet
facet normal 0.9914448613738106 -0.13052619222005124 -7.356569112913074e-32
  outer loop
    vertex -3.999999999999999 -4.898587196589412e-16 1.5
    vertex -3.863703305156273 1.0352761804100814 4.229949723821846e-15
    vertex -3.863703305156273 1.0352761804100814 1.5
  endloop
endfacet
facet normal 0.9914448613738104 0.13052619222005168 -7.593086128435096e-32
  outer loop
    vertex -3.999999999999999 -4.898587196589413e-16 4.229949723821846e-15
    vertex -3.863703305156272 -1.035276180410084 1.5
    vertex -3.863703305156272 -1.035276180410084 4.229949723821846e-15
  endloop
endfacet
facet normal 0.9914448613738104 0.13052619222005168 -7.593086128435096e-32
  outer loop
    vertex -3.863703305156272 -1.035276180410084 1.5
    vertex -3.999999999999999 -4.898587196589413e-16 4.229949723821846e-15
    vertex -3.999999999999999 -4.898587196589412e-16 1.5
  endloop
endfacet
facet normal 0.9238795325112867 0.3826834323650899 -7.312146872472394e-32
  outer loop
    vertex -3.863703305156272 -1.035276180410084 4.229949723821846e-15
    vertex -3.464101615137753 -2.0000000000000013 1.5
    vertex -3.464101615137753 -2.0000000000000013 4.229949723821846e-15
  endloop
endfacet
facet normal 0.9238795325112867 0.3826834323650899 -7.312146872472394e-32
  outer loop
    vertex -3.464101615137753 -2.0000000000000013 1.5
    vertex -3.863703305156272 -1.035276180410084 4.229949723821846e-15
    vertex -3.863703305156272 -1.035276180410084 1.5
  endloop
endfacet
facet normal 0.793353340291235 0.6087614290087208 -6.532896891044751e-32
  outer loop
    vertex -3.464101615137753 -2.0000000000000013 4.229949723821846e-15
    vertex -2.8284271247461894 -2.8284271247461903 1.5
    vertex -2.8284271247461894 -2.8284271247461903 4.229949723821846e-15
  endloop
endfacet
facet normal 0.793353340291235 0.6087614290087208 -6.532896891044751e-32
  outer loop
    vertex -2.8284271247461894 -2.8284271247461903 1.5
    vertex -3.464101615137753 -2.0000000000000013 4.229949723821846e-15
    vertex -3.464101615137753 -2.0000000000000013 1.5
  endloop
endfacet
facet normal 0.6087614290087202 0.7933533402912355 -5.308440782614976e-32
  outer loop
    vertex -2.8284271247461894 -2.8284271247461903 1.5
    vertex -1.9999999999999984 -3.4641016151377544 4.229949723821846e-15
    vertex -2.8284271247461894 -2.8284271247461903 4.229949723821846e-15
  endloop
endfacet
facet normal 0.6087614290087202 0.7933533402912355 -5.308440782614976e-32
  outer loop
    vertex -1.9999999999999984 -3.4641016151377544 4.229949723821846e-15
    vertex -2.8284271247461894 -2.8284271247461903 1.5
    vertex -1.9999999999999984 -3.4641016151377544 1.5
  endloop
endfacet
facet normal 0.3826834323650896 0.9238795325112867 -3.722223207463171e-32
  outer loop
    vertex -1.9999999999999984 -3.4641016151377544 1.5
    vertex -1.0352761804100823 -3.863703305156273 4.229949723821846e-15
    vertex -1.9999999999999984 -3.4641016151377544 4.229949723821846e-15
  endloop
endfacet
facet normal 0.3826834323650896 0.9238795325112867 -3.722223207463171e-32
  outer loop
    vertex -1.0352761804100823 -3.863703305156273 4.229949723821846e-15
    vertex -1.9999999999999984 -3.4641016151377544 1.5
    vertex -1.0352761804100823 -3.863703305156273 1.5
  endloop
endfacet
facet normal 0.1305261922200518 0.9914448613738104 -1.8823422719874437e-32
  outer loop
    vertex -1.0352761804100823 -3.863703305156273 1.5
    vertex 2.449293598294704e-16 -3.9999999999999996 4.229949723821846e-15
    vertex -1.0352761804100823 -3.863703305156273 4.229949723821846e-15
  endloop
endfacet
facet normal 0.1305261922200518 0.9914448613738104 -1.8823422719874437e-32
  outer loop
    vertex 2.449293598294704e-16 -3.9999999999999996 4.229949723821846e-15
    vertex -1.0352761804100823 -3.863703305156273 1.5
    vertex 2.449293598294706e-16 -3.9999999999999996 1.5
  endloop
endfacet
facet normal -0.13052619222005168 0.9914448613738104 8.5817178606548e-34
  outer loop
    vertex 2.449293598294706e-16 -3.9999999999999996 1.5
    vertex 1.0352761804100836 -3.863703305156273 4.229949723821846e-15
    vertex 2.449293598294704e-16 -3.9999999999999996 4.229949723821846e-15
  endloop
endfacet
facet normal -0.13052619222005168 0.9914448613738104 8.5817178606548e-34
  outer loop
    vertex 1.0352761804100836 -3.863703305156273 4.229949723821846e-15
    vertex 2.449293598294706e-16 -3.9999999999999996 1.5
    vertex 1.0352761804100836 -3.863703305156273 1.5
  endloop
endfacet
facet normal -0.38268343236509034 0.9238795325112867 2.0481283302980984e-32
  outer loop
    vertex 1.0352761804100836 -3.863703305156273 1.5
    vertex 1.9999999999999998 -3.464101615137754 4.229949723821846e-15
    vertex 1.0352761804100836 -3.863703305156273 4.229949723821846e-15
  endloop
endfacet
facet normal -0.38268343236509034 0.9238795325112867 2.0481283302980984e-32
  outer loop
    vertex 1.9999999999999998 -3.464101615137754 4.229949723821846e-15
    vertex 1.0352761804100836 -3.863703305156273 1.5
    vertex 1.9999999999999998 -3.464101615137754 1.5
  endloop
endfacet
facet normal -0.6087614290087203 0.7933533402912356 3.8708629209719226e-32
  outer loop
    vertex 1.9999999999999998 -3.464101615137754 1.5
    vertex 2.82842712474619 -2.8284271247461903 4.229949723821846e-15
    vertex 1.9999999999999998 -3.464101615137754 4.229949723821846e-15
  endloop
endfacet
facet normal -0.6087614290087203 0.7933533402912356 3.8708629209719226e-32
  outer loop
    vertex 2.82842712474619 -2.8284271247461903 4.229949723821846e-15
    vertex 1.9999999999999998 -3.464101615137754 1.5
    vertex 2.82842712474619 -2.8284271247461903 1.5
  endloop
endfacet
facet normal -0.7933533402912356 0.6087614290087202 5.429804600484956e-32
  outer loop
    vertex 3.464101615137754 -1.9999999999999996 1.5
    vertex 2.82842712474619 -2.8284271247461903 4.229949723821846e-15
    vertex 2.82842712474619 -2.8284271247461903 1.5
  endloop
endfacet
facet normal -0.7933533402912356 0.6087614290087202 5.429804600484956e-32
  outer loop
    vertex 2.82842712474619 -2.8284271247461903 4.229949723821846e-15
    vertex 3.464101615137754 -1.9999999999999996 1.5
    vertex 3.464101615137754 -1.9999999999999996 4.229949723821846e-15
  endloop
endfacet
facet normal -0.9238795325112868 0.38268343236508956 6.6187140696513e-32
  outer loop
    vertex 3.863703305156272 -1.035276180410083 1.5
    vertex 3.464101615137754 -1.9999999999999996 4.229949723821846e-15
    vertex 3.464101615137754 -1.9999999999999996 1.5
  endloop
endfacet
facet normal -0.9238795325112868 0.38268343236508956 6.6187140696513e-32
  outer loop
    vertex 3.464101615137754 -1.9999999999999996 4.229949723821846e-15
    vertex 3.863703305156272 -1.035276180410083 1.5
    vertex 3.863703305156272 -1.035276180410083 4.229949723821846e-15
  endloop
endfacet
facet normal -0.9914448613738104 0.13052619222005174 7.356569112913072e-32
  outer loop
    vertex 3.999999999999999 0.0 1.5
    vertex 3.863703305156272 -1.035276180410083 4.229949723821846e-15
    vertex 3.863703305156272 -1.035276180410083 1.5
  endloop
endfacet
facet normal -0.9914448613738104 0.13052619222005174 7.356569112913072e-32
  outer loop
    vertex 3.863703305156272 -1.035276180410083 4.229949723821846e-15
    vertex 3.999999999999999 0.0 1.5
    vertex 3.999999999999999 -1.3590204281946997e-32 4.229949723821846e-15
  endloop
endfacet
facet normal -0.9914448613738104 -0.13052619222005202 7.593086128435097e-32
  outer loop
    vertex 3.999999999999999 0.0 1.5
    vertex 3.8637033051562715 1.035276180410086 4.229949723821846e-15
    vertex 3.999999999999999 -1.3590204281946997e-32 4.229949723821846e-15
  endloop
endfacet
facet normal -0.9914448613738104 -0.13052619222005202 7.593086128435097e-32
  outer loop
    vertex 3.8637033051562715 1.035276180410086 4.229949723821846e-15
    vertex 3.999999999999999 0.0 1.5
    vertex 3.8637033051562715 1.035276180410086 1.5
  endloop
endfacet
facet normal -0.9238795325112865 -0.3826834323650905 7.312146872472394e-32
  outer loop
    vertex 3.4641016151377526 2.0000000000000018 1.5
    vertex 3.8637033051562715 1.035276180410086 4.229949723821846e-15
    vertex 3.8637033051562715 1.035276180410086 1.5
  endloop
endfacet
facet normal -0.9238795325112865 -0.3826834323650905 7.312146872472394e-32
  outer loop
    vertex 3.8637033051562715 1.035276180410086 4.229949723821846e-15
    vertex 3.4641016151377526 2.0000000000000018 1.5
    vertex 3.4641016151377526 2.0000000000000018 4.229949723821846e-15
  endloop
endfacet
facet normal -0.793353340291235 -0.6087614290087208 6.532896891044751e-32
  outer loop
    vertex 2.8284271247461885 2.8284271247461903 1.5
    vertex 3.4641016151377526 2.0000000000000018 4.229949723821846e-15
    vertex 3.4641016151377526 2.0000000000000018 1.5
  endloop
endfacet
facet normal -0.793353340291235 -0.6087614290087208 6.532896891044751e-32
  outer loop
    vertex 3.4641016151377526 2.0000000000000018 4.229949723821846e-15
    vertex 2.8284271247461885 2.8284271247461903 1.5
    vertex 2.8284271247461885 2.8284271247461903 4.229949723821846e-15
  endloop
endfacet
facet normal -0.6087614290087204 -0.7933533402912355 5.308440782614978e-32
  outer loop
    vertex 2.8284271247461885 2.8284271247461903 1.5
    vertex 1.9999999999999967 3.464101615137756 4.229949723821846e-15
    vertex 2.8284271247461885 2.8284271247461903 4.229949723821846e-15
  endloop
endfacet
facet normal -0.6087614290087204 -0.7933533402912355 5.308440782614978e-32
  outer loop
    vertex 1.9999999999999967 3.464101615137756 4.229949723821846e-15
    vertex 2.8284271247461885 2.8284271247461903 1.5
    vertex 1.9999999999999967 3.464101615137756 1.5
  endloop
endfacet
facet normal -0.3826834323650892 -0.923879532511287 3.7222232074631683e-32
  outer loop
    vertex 1.9999999999999967 3.464101615137756 1.5
    vertex 1.035276180410081 3.8637033051562732 4.229949723821846e-15
    vertex 1.9999999999999967 3.464101615137756 4.229949723821846e-15
  endloop
endfacet
facet normal -0.3826834323650892 -0.923879532511287 3.7222232074631683e-32
  outer loop
    vertex 1.035276180410081 3.8637033051562732 4.229949723821846e-15
    vertex 1.9999999999999967 3.464101615137756 1.5
    vertex 1.035276180410081 3.8637033051562732 1.5
  endloop
endfacet
facet normal 0.4999999999999998 0.8660254037844389 0.0
  outer loop
    vertex -6.499999999999998 -3.7527767497325675 8.3
    vertex 2.114974861910923e-15 -7.505553499465132 1.5
    vertex -6.499999999999998 -3.7527767497325675 1.5
  endloop
endfacet
facet normal 0.4999999999999998 0.8660254037844389 0.0
  outer loop
    vertex 2.114974861910923e-15 -7.505553499465132 1.5
    vertex -6.499999999999998 -3.7527767497325675 8.3
    vertex 2.114974861910923e-15 -7.505553499465132 8.3
  endloop
endfacet
facet normal 1.0 1.8785866243900974e-16 0.0
  outer loop
    vertex -6.499999999999999 3.752776749732566 1.5
    vertex -6.499999999999998 -3.7527767497325675 8.3
    vertex -6.499999999999998 -3.7527767497325675 1.5
  endloop
endfacet
facet normal 1.0 1.8785866243900974e-16 0.0
  outer loop
    vertex -6.499999999999998 -3.7527767497325675 8.3
    vertex -6.499999999999999 3.752776749732566 1.5
    vertex -6.499999999999999 3.752776749732566 8.3
  endloop
endfacet
facet normal 0.5000000000000004 -0.8660254037844384 0.0
  outer loop
    vertex -4.93494134445882e-15 7.505553499465135 8.3
    vertex -6.499999999999999 3.752776749732566 1.5
    vertex -4.93494134445882e-15 7.505553499465135 1.5
  endloop
endfacet
facet normal 0.5000000000000004 -0.8660254037844384 0.0
  outer loop
    vertex -6.499999999999999 3.752776749732566 1.5
    vertex -4.93494134445882e-15 7.505553499465135 8.3
    vertex -6.499999999999999 3.752776749732566 8.3
  endloop
endfacet
facet normal -0.4999999999999995 -0.8660254037844392 -0.0
  outer loop
    vertex 6.4999999999999964 3.7527767497325715 8.3
    vertex -4.93494134445882e-15 7.505553499465135 1.5
    vertex 6.4999999999999964 3.7527767497325715 1.5
  endloop
endfacet
facet normal -0.4999999999999995 -0.8660254037844392 -0.0
  outer loop
    vertex -4.93494134445882e-15 7.505553499465135 1.5
    vertex 6.4999999999999964 3.7527767497325715 8.3
    vertex -4.93494134445882e-15 7.505553499465135 8.3
  endloop
endfacet
facet normal -1.0 -3.757173248780193e-16 -0.0
  outer loop
    vertex 6.4999999999999964 3.7527767497325715 8.3
    vertex 6.499999999999999 -3.7527767497325666 1.5
    vertex 6.499999999999999 -3.7527767497325666 8.3
  endloop
endfacet
facet normal -1.0 -3.757173248780193e-16 -0.0
  outer loop
    vertex 6.499999999999999 -3.7527767497325666 1.5
    vertex 6.4999999999999964 3.7527767497325715 8.3
    vertex 6.4999999999999964 3.7527767497325715 1.5
  endloop
endfacet
facet normal -0.5 0.8660254037844387 0.0
  outer loop
    vertex 2.114974861910923e-15 -7.505553499465132 8.3
    vertex 6.499999999999999 -3.7527767497325666 1.5
    vertex 2.114974861910923e-15 -7.505553499465132 1.5
  endloop
endfacet
facet normal -0.5 0.8660254037844387 0.0
  outer loop
    vertex 6.499999999999999 -3.7527767497325666 1.5
    vertex 2.114974861910923e-15 -7.505553499465132 8.3
    vertex 6.499999999999999 -3.7527767497325666 8.3
  endloop
endfacet
facet normal -0.0 -0.0 1.0
  outer loop
    vertex -8.693332436601617 -2.3293714059226835 10.3
    vertex -8.693332436601615 2.3293714059226893 10.3
    vertex -9.0 1.102182119232618e-15 10.3
  endloop
endfacet
facet normal -0.0 -0.0 1.0
  outer loop
    vertex -8.693332436601615 2.3293714059226893 10.3
    vertex -8.693332436601617 -2.3293714059226835 10.3
    vertex -7.79422863405995 -4.499999999999997 10.3
  endloop
endfacet
facet normal -0.0 -0.0 1.0
  outer loop
    vertex -8.693332436601615 2.3293714059226893 10.3
    vertex -7.79422863405995 -4.499999999999997 10.3
    vertex -7.794228634059947 4.500000000000003 10.3
  endloop
endfacet
facet normal -0.0 -0.0 1.0
  outer loop
    vertex -7.794228634059947 4.500000000000003 10.3
    vertex -7.79422863405995 -4.499999999999997 10.3
    vertex -6.363961030678931 -6.363961030678924 10.3
  endloop
endfacet
facet normal -0.0 -0.0 1.0
  outer loop
    vertex -7.794228634059947 4.500000000000003 10.3
    vertex -6.363961030678931 -6.363961030678924 10.3
    vertex -6.3639610306789285 6.3639610306789285 10.3
  endloop
endfacet
facet normal -0.0 -0.0 1.0
  outer loop
    vertex -6.3639610306789285 6.3639610306789285 10.3
    vertex -6.363961030678931 -6.363961030678924 10.3
    vertex -4.500000000000004 -7.794228634059947 10.3
  endloop
endfacet
facet normal -0.0 -0.0 1.0
  outer loop
    vertex -6.3639610306789285 6.3639610306789285 10.3
    vertex -4.500000000000004 -7.794228634059947 10.3
    vertex -4.499999999999998 7.794228634059948 10.3
  endloop
endfacet
facet normal -0.0 -0.0 1.0
  outer loop
    vertex -4.499999999999998 7.794228634059948 10.3
    vertex -4.500000000000004 -7.794228634059947 10.3
    vertex -3.999999999999999 -4.898587196589412e-16 10.3
  endloop
endfacet
facet normal -0.0 -0.0 1.0
  outer loop
    vertex -3.999999999999999 -4.898587196589412e-16 10.3
    vertex -4.500000000000004 -7.794228634059947 10.3
    vertex -3.863703305156272 -1.035276180410084 10.3
  endloop
endfacet
facet normal -0.0 -0.0 1.0
  outer loop
    vertex -3.863703305156272 -1.035276180410084 10.3
    vertex -4.500000000000004 -7.794228634059947 10.3
    vertex -2.3293714059226938 -8.693332436601613 10.3
  endloop
endfacet
facet normal -0.0 -0.0 1.0
  outer loop
    vertex -3.863703305156272 -1.035276180410084 10.3
    vertex -2.3293714059226938 -8.693332436601613 10.3
    vertex -3.464101615137753 -2.0000000000000013 10.3
  endloop
endfacet
facet normal -0.0 -0.0 1.0
  outer loop
    vertex -3.464101615137753 -2.0000000000000013 10.3
    vertex -2.3293714059226938 -8.693332436601613 10.3
    vertex -2.8284271247461894 -2.8284271247461903 10.3
  endloop
endfacet
facet normal -0.0 -0.0 1.0
  outer loop
    vertex -2.8284271247461894 -2.8284271247461903 10.3
    vertex -2.3293714059226938 -8.693332436601613 10.3
    vertex -1.9999999999999984 -3.4641016151377544 10.3
  endloop
endfacet
facet normal -0.0 -0.0 1.0
  outer loop
    vertex -1.9999999999999984 -3.4641016151377544 10.3
    vertex -2.3293714059226938 -8.693332436601613 10.3
    vertex -1.6532731788489267e-15 -9.0 10.3
  endloop
endfacet
facet normal -0.0 -0.0 1.0
  outer loop
    vertex -1.9999999999999984 -3.4641016151377544 10.3
    vertex -1.6532731788489267e-15 -9.0 10.3
    vertex -1.0352761804100823 -3.863703305156273 10.3
  endloop
endfacet
facet normal -0.0 -0.0 1.0
  outer loop
    vertex -1.0352761804100823 -3.863703305156273 10.3
    vertex -1.6532731788489267e-15 -9.0 10.3
    vertex 2.449293598294706e-16 -3.9999999999999996 10.3
  endloop
endfacet
facet normal -0.0 -0.0 1.0
  outer loop
    vertex 2.449293598294706e-16 -3.9999999999999996 10.3
    vertex -1.6532731788489267e-15 -9.0 10.3
    vertex 2.3293714059226827 -8.693332436601617 10.3
  endloop
endfacet
facet normal -0.0 -0.0 1.0
  outer loop
    vertex 2.449293598294706e-16 -3.9999999999999996 10.3
    vertex 2.3293714059226827 -8.693332436601617 10.3
    vertex 1.0352761804100836 -3.863703305156273 10.3
  endloop
endfacet
facet normal -0.0 -0.0 1.0
  outer loop
    vertex 1.0352761804100836 -3.863703305156273 10.3
    vertex 2.3293714059226827 -8.693332436601617 10.3
    vertex 1.9999999999999998 -3.464101615137754 10.3
  endloop
endfacet
facet normal -0.0 -0.0 1.0
  outer loop
    vertex 1.9999999999999998 -3.464101615137754 10.3
    vertex 2.3293714059226827 -8.693332436601617 10.3
    vertex 2.82842712474619 -2.8284271247461903 10.3
  endloop
endfacet
facet normal -0.0 -0.0 1.0
  outer loop
    vertex 2.82842712474619 -2.8284271247461903 10.3
    vertex 2.3293714059226827 -8.693332436601617 10.3
    vertex 4.499999999999994 -7.794228634059951 10.3
  endloop
endfacet
facet normal -0.0 -0.0 1.0
  outer loop
    vertex 2.82842712474619 -2.8284271247461903 10.3
    vertex 4.499999999999994 -7.794228634059951 10.3
    vertex 3.464101615137754 -1.9999999999999996 10.3
  endloop
endfacet
facet normal -0.0 -0.0 1.0
  outer loop
    vertex 3.464101615137754 -1.9999999999999996 10.3
    vertex 4.499999999999994 -7.794228634059951 10.3
    vertex 3.863703305156272 -1.035276180410083 10.3
  endloop
endfacet
facet normal -0.0 -0.0 1.0
  outer loop
    vertex 3.863703305156272 -1.035276180410083 10.3
    vertex 4.499999999999994 -7.794228634059951 10.3
    vertex 3.999999999999999 0.0 10.3
  endloop
endfacet
facet normal -0.0 -0.0 1.0
  outer loop
    vertex -4.499999999999998 7.794228634059948 10.3
    vertex -3.863703305156273 1.0352761804100814 10.3
    vertex -2.3293714059226858 8.693332436601615 10.3
  endloop
endfacet
facet normal -0.0 -0.0 1.0
  outer loop
    vertex -3.863703305156273 1.0352761804100814 10.3
    vertex -4.499999999999998 7.794228634059948 10.3
    vertex -3.999999999999999 -4.898587196589412e-16 10.3
  endloop
endfacet
facet normal -0.0 -0.0 1.0
  outer loop
    vertex -2.3293714059226858 8.693332436601615 10.3
    vertex -3.863703305156273 1.0352761804100814 10.3
    vertex -3.4641016151377544 1.999999999999999 10.3
  endloop
endfacet
facet normal -0.0 -0.0 1.0
  outer loop
    vertex -2.3293714059226858 8.693332436601615 10.3
    vertex -3.4641016151377544 1.999999999999999 10.3
    vertex -2.828427124746191 2.8284271247461885 10.3
  endloop
endfacet
facet normal -0.0 -0.0 1.0
  outer loop
    vertex -2.3293714059226858 8.693332436601615 10.3
    vertex -2.828427124746191 2.8284271247461885 10.3
    vertex -2.0000000000000013 3.464101615137754 10.3
  endloop
endfacet
facet normal -0.0 -0.0 1.0
  outer loop
    vertex -2.3293714059226858 8.693332436601615 10.3
    vertex -2.0000000000000013 3.464101615137754 10.3
    vertex 5.51091059616309e-16 9.0 10.3
  endloop
endfacet
facet normal -0.0 -0.0 1.0
  outer loop
    vertex 5.51091059616309e-16 9.0 10.3
    vertex -2.0000000000000013 3.464101615137754 10.3
    vertex -1.0352761804100858 3.863703305156272 10.3
  endloop
endfacet
facet normal -0.0 -0.0 1.0
  outer loop
    vertex 5.51091059616309e-16 9.0 10.3
    vertex -1.0352761804100858 3.863703305156272 10.3
    vertex -7.347880794884117e-16 3.9999999999999996 10.3
  endloop
endfacet
facet normal -0.0 -0.0 1.0
  outer loop
    vertex 5.51091059616309e-16 9.0 10.3
    vertex -7.347880794884117e-16 3.9999999999999996 10.3
    vertex 1.035276180410081 3.8637033051562732 10.3
  endloop
endfacet
facet normal -0.0 -0.0 1.0
  outer loop
    vertex 5.51091059616309e-16 9.0 10.3
    vertex 1.035276180410081 3.8637033051562732 10.3
    vertex 2.329371405922689 8.693332436601615 10.3
  endloop
endfacet
facet normal -0.0 -0.0 1.0
  outer loop
    vertex 2.329371405922689 8.693332436601615 10.3
    vertex 1.035276180410081 3.8637033051562732 10.3
    vertex 1.9999999999999967 3.464101615137756 10.3
  endloop
endfacet
facet normal -0.0 -0.0 1.0
  outer loop
    vertex 2.329371405922689 8.693332436601615 10.3
    vertex 1.9999999999999967 3.464101615137756 10.3
    vertex 2.8284271247461885 2.8284271247461903 10.3
  endloop
endfacet
facet normal -0.0 -0.0 1.0
  outer loop
    vertex 2.329371405922689 8.693332436601615 10.3
    vertex 2.8284271247461885 2.8284271247461903 10.3
    vertex 4.500000000000001 7.794228634059948 10.3
  endloop
endfacet
facet normal -0.0 -0.0 1.0
  outer loop
    vertex 4.500000000000001 7.794228634059948 10.3
    vertex 2.8284271247461885 2.8284271247461903 10.3
    vertex 3.4641016151377526 2.0000000000000018 10.3
  endloop
endfacet
facet normal -0.0 -0.0 1.0
  outer loop
    vertex 4.500000000000001 7.794228634059948 10.3
    vertex 3.4641016151377526 2.0000000000000018 10.3
    vertex 3.8637033051562715 1.035276180410086 10.3
  endloop
endfacet
facet normal -0.0 -0.0 1.0
  outer loop
    vertex 4.500000000000001 7.794228634059948 10.3
    vertex 3.8637033051562715 1.035276180410086 10.3
    vertex 3.999999999999999 0.0 10.3
  endloop
endfacet
facet normal -0.0 -0.0 1.0
  outer loop
    vertex 4.500000000000001 7.794228634059948 10.3
    vertex 3.999999999999999 0.0 10.3
    vertex 4.499999999999994 -7.794228634059951 10.3
  endloop
endfacet
facet normal -0.0 -0.0 1.0
  outer loop
    vertex 4.500000000000001 7.794228634059948 10.3
    vertex 4.499999999999994 -7.794228634059951 10.3
    vertex 6.363961030678927 -6.363961030678929 10.3
  endloop
endfacet
facet normal -0.0 -0.0 1.0
  outer loop
    vertex 4.500000000000001 7.794228634059948 10.3
    vertex 6.363961030678927 -6.363961030678929 10.3
    vertex 6.3639610306789285 6.3639610306789285 10.3
  endloop
endfacet
facet normal -0.0 -0.0 1.0
  outer loop
    vertex 6.3639610306789285 6.3639610306789285 10.3
    vertex 6.363961030678927 -6.363961030678929 10.3
    vertex 7.794228634059945 -4.500000000000004 10.3
  endloop
endfacet
facet normal -0.0 -0.0 1.0
  outer loop
    vertex 6.3639610306789285 6.3639610306789285 10.3
    vertex 7.794228634059945 -4.500000000000004 10.3
    vertex 7.794228634059948 4.499999999999999 10.3
  endloop
endfacet
facet normal -0.0 -0.0 1.0
  outer loop
    vertex 7.794228634059948 4.499999999999999 10.3
    vertex 7.794228634059945 -4.500000000000004 10.3
    vertex 8.693332436601613 -2.329371405922694 10.3
  endloop
endfacet
facet normal -0.0 -0.0 1.0
  outer loop
    vertex 7.794228634059948 4.499999999999999 10.3
    vertex 8.693332436601613 -2.329371405922694 10.3
    vertex 8.693332436601615 2.329371405922687 10.3
  endloop
endfacet
facet normal -0.0 -0.0 1.0
  outer loop
    vertex 8.693332436601615 2.329371405922687 10.3
    vertex 8.693332436601613 -2.329371405922694 10.3
    vertex 9.0 0.0 10.3
  endloop
endfacet
facet normal 0.0 0.0 -1.0
  outer loop
    vertex -4.93494134445882e-15 7.505553499465135 8.3
    vertex -6.499999999999998 -3.7527767497325675 8.3
    vertex -6.499999999999999 3.752776749732566 8.3
  endloop
endfacet
facet normal 0.0 0.0 -1.0
  outer loop
    vertex -6.499999999999998 -3.7527767497325675 8.3
    vertex -4.93494134445882e-15 7.505553499465135 8.3
    vertex 2.114974861910923e-15 -7.505553499465132 8.3
  endloop
endfacet
facet normal 0.0 0.0 -1.0
  outer loop
    vertex 2.114974861910923e-15 -7.505553499465132 8.3
    vertex -4.93494134445882e-15 7.505553499465135 8.3
    vertex 6.4999999999999964 3.7527767497325715 8.3
  endloop
endfacet
facet normal 0.0 0.0 -1.0
  outer loop
    vertex 2.114974861910923e-15 -7.505553499465132 8.3
    vertex 6.4999999999999964 3.7527767497325715 8.3
    vertex 6.499999999999999 -3.7527767497325666 8.3
  endloop
endfacet
facet normal 0.0 0.0 1.0
  outer loop
    vertex -3.863703305156272 -1.035276180410084 19.3
    vertex -3.863703305156273 1.0352761804100814 19.3
    vertex -3.999999999999999 -4.898587196589412e-16 19.3
  endloop
endfacet
facet normal 0.0 0.0 1.0
  outer loop
    vertex -3.863703305156273 1.0352761804100814 19.3
    vertex -3.863703305156272 -1.035276180410084 19.3
    vertex -3.4641016151377544 1.999999999999999 19.3
  endloop
endfacet
facet normal 0.0 0.0 1.0
  outer loop
    vertex -3.4641016151377544 1.999999999999999 19.3
    vertex -3.863703305156272 -1.035276180410084 19.3
    vertex -3.464101615137753 -2.0000000000000013 19.3
  endloop
endfacet
facet normal 0.0 0.0 1.0
  outer loop
    vertex -3.4641016151377544 1.999999999999999 19.3
    vertex -3.464101615137753 -2.0000000000000013 19.3
    vertex -2.828427124746191 2.8284271247461885 19.3
  endloop
endfacet
facet normal 0.0 0.0 1.0
  outer loop
    vertex -2.828427124746191 2.8284271247461885 19.3
    vertex -3.464101615137753 -2.0000000000000013 19.3
    vertex -2.8284271247461894 -2.8284271247461903 19.3
  endloop
endfacet
facet normal 0.0 0.0 1.0
  outer loop
    vertex -2.828427124746191 2.8284271247461885 19.3
    vertex -2.8284271247461894 -2.8284271247461903 19.3
    vertex -2.0000000000000013 3.464101615137754 19.3
  endloop
endfacet
facet normal 0.0 0.0 1.0
  outer loop
    vertex -2.0000000000000013 3.464101615137754 19.3
    vertex -2.8284271247461894 -2.8284271247461903 19.3
    vertex -1.9999999999999984 -3.4641016151377544 19.3
  endloop
endfacet
facet normal 0.0 0.0 1.0
  outer loop
    vertex -2.0000000000000013 3.464101615137754 19.3
    vertex -1.9999999999999984 -3.4641016151377544 19.3
    vertex -1.0352761804100858 3.863703305156272 19.3
  endloop
endfacet
facet normal 0.0 0.0 1.0
  outer loop
    vertex -1.0352761804100858 3.863703305156272 19.3
    vertex -1.9999999999999984 -3.4641016151377544 19.3
    vertex -1.0352761804100823 -3.863703305156273 19.3
  endloop
endfacet
facet normal 0.0 0.0 1.0
  outer loop
    vertex -1.0352761804100858 3.863703305156272 19.3
    vertex -1.0352761804100823 -3.863703305156273 19.3
    vertex -7.347880794884117e-16 3.9999999999999996 19.3
  endloop
endfacet
facet normal 0.0 0.0 1.0
  outer loop
    vertex -7.347880794884117e-16 3.9999999999999996 19.3
    vertex -1.0352761804100823 -3.863703305156273 19.3
    vertex 2.449293598294706e-16 -3.9999999999999996 19.3
  endloop
endfacet
facet normal 0.0 0.0 1.0
  outer loop
    vertex -7.347880794884117e-16 3.9999999999999996 19.3
    vertex 2.449293598294706e-16 -3.9999999999999996 19.3
    vertex 1.035276180410081 3.8637033051562732 19.3
  endloop
endfacet
facet normal 0.0 0.0 1.0
  outer loop
    vertex 1.035276180410081 3.8637033051562732 19.3
    vertex 2.449293598294706e-16 -3.9999999999999996 19.3
    vertex 1.0352761804100836 -3.863703305156273 19.3
  endloop
endfacet
facet normal 0.0 0.0 1.0
  outer loop
    vertex 1.035276180410081 3.8637033051562732 19.3
    vertex 1.0352761804100836 -3.863703305156273 19.3
    vertex 1.9999999999999967 3.464101615137756 19.3
  endloop
endfacet
facet normal 0.0 0.0 1.0
  outer loop
    vertex 1.9999999999999967 3.464101615137756 19.3
    vertex 1.0352761804100836 -3.863703305156273 19.3
    vertex 1.9999999999999998 -3.464101615137754 19.3
  endloop
endfacet
facet normal 0.0 0.0 1.0
  outer loop
    vertex 1.9999999999999967 3.464101615137756 19.3
    vertex 1.9999999999999998 -3.464101615137754 19.3
    vertex 2.8284271247461885 2.8284271247461903 19.3
  endloop
endfacet
facet normal 0.0 0.0 1.0
  outer loop
    vertex 2.8284271247461885 2.8284271247461903 19.3
    vertex 1.9999999999999998 -3.464101615137754 19.3
    vertex 2.82842712474619 -2.8284271247461903 19.3
  endloop
endfacet
facet normal 0.0 0.0 1.0
  outer loop
    vertex 2.8284271247461885 2.8284271247461903 19.3
    vertex 2.82842712474619 -2.8284271247461903 19.3
    vertex 3.4641016151377526 2.0000000000000018 19.3
  endloop
endfacet
facet normal 0.0 0.0 1.0
  outer loop
    vertex 3.4641016151377526 2.0000000000000018 19.3
    vertex 2.82842712474619 -2.8284271247461903 19.3
    vertex 3.464101615137754 -1.9999999999999996 19.3
  endloop
endfacet
facet normal 0.0 0.0 1.0
  outer loop
    vertex 3.4641016151377526 2.0000000000000018 19.3
    vertex 3.464101615137754 -1.9999999999999996 19.3
    vertex 3.8637033051562715 1.035276180410086 19.3
  endloop
endfacet
facet normal 0.0 0.0 1.0
  outer loop
    vertex 3.8637033051562715 1.035276180410086 19.3
    vertex 3.464101615137754 -1.9999999999999996 19.3
    vertex 3.863703305156272 -1.035276180410083 19.3
  endloop
endfacet
facet normal 0.0 0.0 1.0
  outer loop
    vertex 3.8637033051562715 1.035276180410086 19.3
    vertex 3.863703305156272 -1.035276180410083 19.3
    vertex 3.999999999999999 0.0 19.3
  endloop
endfacet
facet normal 0.13052619222005127 0.9914448613738106 0.0
  outer loop
    vertex -7.347880794884117e-16 3.9999999999999996 19.3
    vertex 1.035276180410081 3.8637033051562732 10.3
    vertex -7.347880794884117e-16 3.9999999999999996 10.3
  endloop
endfacet
facet normal 0.13052619222005127 0.9914448613738106 0.0
  outer loop
    vertex 1.035276180410081 3.8637033051562732 10.3
    vertex -7.347880794884117e-16 3.9999999999999996 19.3
    vertex 1.035276180410081 3.8637033051562732 19.3
  endloop
endfacet
facet normal -0.13052619222005216 0.9914448613738104 0.0
  outer loop
    vertex -1.0352761804100858 3.863703305156272 19.3
    vertex -7.347880794884117e-16 3.9999999999999996 10.3
    vertex -1.0352761804100858 3.863703305156272 10.3
  endloop
endfacet
facet normal -0.13052619222005216 0.9914448613738104 0.0
  outer loop
    vertex -7.347880794884117e-16 3.9999999999999996 10.3
    vertex -1.0352761804100858 3.863703305156272 19.3
    vertex -7.347880794884117e-16 3.9999999999999996 19.3
  endloop
endfacet
facet normal -0.38268343236509 0.9238795325112868 0.0
  outer loop
    vertex -2.0000000000000013 3.464101615137754 19.3
    vertex -1.0352761804100858 3.863703305156272 10.3
    vertex -2.0000000000000013 3.464101615137754 10.3
  endloop
endfacet
facet normal -0.38268343236509 0.9238795325112868 0.0
  outer loop
    vertex -1.0352761804100858 3.863703305156272 10.3
    vertex -2.0000000000000013 3.464101615137754 19.3
    vertex -1.0352761804100858 3.863703305156272 19.3
  endloop
endfacet
facet normal -0.6087614290087213 0.7933533402912346 0.0
  outer loop
    vertex -2.828427124746191 2.8284271247461885 19.3
    vertex -2.0000000000000013 3.464101615137754 10.3
    vertex -2.828427124746191 2.8284271247461885 10.3
  endloop
endfacet
facet normal -0.6087614290087213 0.7933533402912346 0.0
  outer loop
    vertex -2.0000000000000013 3.464101615137754 10.3
    vertex -2.828427124746191 2.8284271247461885 19.3
    vertex -2.0000000000000013 3.464101615137754 19.3
  endloop
endfacet
facet normal -0.7933533402912355 0.6087614290087203 0.0
  outer loop
    vertex -2.828427124746191 2.8284271247461885 19.3
    vertex -3.4641016151377544 1.999999999999999 10.3
    vertex -3.4641016151377544 1.999999999999999 19.3
  endloop
endfacet
facet normal -0.7933533402912355 0.6087614290087203 0.0
  outer loop
    vertex -3.4641016151377544 1.999999999999999 10.3
    vertex -2.828427124746191 2.8284271247461885 19.3
    vertex -2.828427124746191 2.8284271247461885 10.3
  endloop
endfacet
facet normal -0.9238795325112871 0.38268343236508934 0.0
  outer loop
    vertex -3.4641016151377544 1.999999999999999 19.3
    vertex -3.863703305156273 1.0352761804100814 10.3
    vertex -3.863703305156273 1.0352761804100814 19.3
  endloop
endfacet
facet normal -0.9238795325112871 0.38268343236508934 0.0
  outer loop
    vertex -3.863703305156273 1.0352761804100814 10.3
    vertex -3.4641016151377544 1.999999999999999 19.3
    vertex -3.4641016151377544 1.999999999999999 10.3
  endloop
endfacet
facet normal -0.9914448613738106 0.13052619222005124 0.0
  outer loop
    vertex -3.863703305156273 1.0352761804100814 19.3
    vertex -3.999999999999999 -4.898587196589412e-16 10.3
    vertex -3.999999999999999 -4.898587196589412e-16 19.3
  endloop
endfacet
facet normal -0.9914448613738106 0.13052619222005124 0.0
  outer loop
    vertex -3.999999999999999 -4.898587196589412e-16 10.3
    vertex -3.863703305156273 1.0352761804100814 19.3
    vertex -3.863703305156273 1.0352761804100814 10.3
  endloop
endfacet
facet normal -0.9914448613738104 -0.13052619222005168 -0.0
  outer loop
    vertex -3.999999999999999 -4.898587196589412e-16 19.3
    vertex -3.863703305156272 -1.035276180410084 10.3
    vertex -3.863703305156272 -1.035276180410084 19.3
  endloop
endfacet
facet normal -0.9914448613738104 -0.13052619222005168 -0.0
  outer loop
    vertex -3.863703305156272 -1.035276180410084 10.3
    vertex -3.999999999999999 -4.898587196589412e-16 19.3
    vertex -3.999999999999999 -4.898587196589412e-16 10.3
  endloop
endfacet
facet normal -0.9238795325112867 -0.3826834323650899 -0.0
  outer loop
    vertex -3.863703305156272 -1.035276180410084 19.3
    vertex -3.464101615137753 -2.0000000000000013 10.3
    vertex -3.464101615137753 -2.0000000000000013 19.3
  endloop
endfacet
facet normal -0.9238795325112867 -0.3826834323650899 -0.0
  outer loop
    vertex -3.464101615137753 -2.0000000000000013 10.3
    vertex -3.863703305156272 -1.035276180410084 19.3
    vertex -3.863703305156272 -1.035276180410084 10.3
  endloop
endfacet
facet normal -0.793353340291235 -0.6087614290087208 -0.0
  outer loop
    vertex -3.464101615137753 -2.0000000000000013 19.3
    vertex -2.8284271247461894 -2.8284271247461903 10.3
    vertex -2.8284271247461894 -2.8284271247461903 19.3
  endloop
endfacet
facet normal -0.793353340291235 -0.6087614290087208 -0.0
  outer loop
    vertex -2.8284271247461894 -2.8284271247461903 10.3
    vertex -3.464101615137753 -2.0000000000000013 19.3
    vertex -3.464101615137753 -2.0000000000000013 10.3
  endloop
endfacet
facet normal -0.6087614290087202 -0.7933533402912355 -0.0
  outer loop
    vertex -1.9999999999999984 -3.4641016151377544 19.3
    vertex -2.8284271247461894 -2.8284271247461903 10.3
    vertex -1.9999999999999984 -3.4641016151377544 10.3
  endloop
endfacet
facet normal -0.6087614290087202 -0.7933533402912355 -0.0
  outer loop
    vertex -2.8284271247461894 -2.8284271247461903 10.3
    vertex -1.9999999999999984 -3.4641016151377544 19.3
    vertex -2.8284271247461894 -2.8284271247461903 19.3
  endloop
endfacet
facet normal -0.3826834323650896 -0.9238795325112867 -0.0
  outer loop
    vertex -1.0352761804100823 -3.863703305156273 19.3
    vertex -1.9999999999999984 -3.4641016151377544 10.3
    vertex -1.0352761804100823 -3.863703305156273 10.3
  endloop
endfacet
facet normal -0.3826834323650896 -0.9238795325112867 -0.0
  outer loop
    vertex -1.9999999999999984 -3.4641016151377544 10.3
    vertex -1.0352761804100823 -3.863703305156273 19.3
    vertex -1.9999999999999984 -3.4641016151377544 19.3
  endloop
endfacet
facet normal -0.1305261922200518 -0.9914448613738104 -0.0
  outer loop
    vertex 2.449293598294706e-16 -3.9999999999999996 19.3
    vertex -1.0352761804100823 -3.863703305156273 10.3
    vertex 2.449293598294706e-16 -3.9999999999999996 10.3
  endloop
endfacet
facet normal -0.1305261922200518 -0.9914448613738104 -0.0
  outer loop
    vertex -1.0352761804100823 -3.863703305156273 10.3
    vertex 2.449293598294706e-16 -3.9999999999999996 19.3
    vertex -1.0352761804100823 -3.863703305156273 19.3
  endloop
endfacet
facet normal 0.13052619222005168 -0.9914448613738104 0.0
  outer loop
    vertex 1.0352761804100836 -3.863703305156273 19.3
    vertex 2.449293598294706e-16 -3.9999999999999996 10.3
    vertex 1.0352761804100836 -3.863703305156273 10.3
  endloop
endfacet
facet normal 0.13052619222005168 -0.9914448613738104 0.0
  outer loop
    vertex 2.449293598294706e-16 -3.9999999999999996 10.3
    vertex 1.0352761804100836 -3.863703305156273 19.3
    vertex 2.449293598294706e-16 -3.9999999999999996 19.3
  endloop
endfacet
facet normal 0.38268343236509034 -0.9238795325112867 0.0
  outer loop
    vertex 1.9999999999999998 -3.464101615137754 19.3
    vertex 1.0352761804100836 -3.863703305156273 10.3
    vertex 1.9999999999999998 -3.464101615137754 10.3
  endloop
endfacet
facet normal 0.38268343236509034 -0.9238795325112867 0.0
  outer loop
    vertex 1.0352761804100836 -3.863703305156273 10.3
    vertex 1.9999999999999998 -3.464101615137754 19.3
    vertex 1.0352761804100836 -3.863703305156273 19.3
  endloop
endfacet
facet normal 0.6087614290087203 -0.7933533402912356 0.0
  outer loop
    vertex 2.82842712474619 -2.8284271247461903 19.3
    vertex 1.9999999999999998 -3.464101615137754 10.3
    vertex 2.82842712474619 -2.8284271247461903 10.3
  endloop
endfacet
facet normal 0.6087614290087203 -0.7933533402912356 0.0
  outer loop
    vertex 1.9999999999999998 -3.464101615137754 10.3
    vertex 2.82842712474619 -2.8284271247461903 19.3
    vertex 1.9999999999999998 -3.464101615137754 19.3
  endloop
endfacet
facet normal 0.7933533402912356 -0.6087614290087202 0.0
  outer loop
    vertex 3.464101615137754 -1.9999999999999996 10.3
    vertex 2.82842712474619 -2.8284271247461903 19.3
    vertex 2.82842712474619 -2.8284271247461903 10.3
  endloop
endfacet
facet normal 0.7933533402912356 -0.6087614290087202 0.0
  outer loop
    vertex 2.82842712474619 -2.8284271247461903 19.3
    vertex 3.464101615137754 -1.9999999999999996 10.3
    vertex 3.464101615137754 -1.9999999999999996 19.3
  endloop
endfacet
facet normal 0.9238795325112868 -0.38268343236508956 0.0
  outer loop
    vertex 3.863703305156272 -1.035276180410083 10.3
    vertex 3.464101615137754 -1.9999999999999996 19.3
    vertex 3.464101615137754 -1.9999999999999996 10.3
  endloop
endfacet
facet normal 0.9238795325112868 -0.38268343236508956 0.0
  outer loop
    vertex 3.464101615137754 -1.9999999999999996 19.3
    vertex 3.863703305156272 -1.035276180410083 10.3
    vertex 3.863703305156272 -1.035276180410083 19.3
  endloop
endfacet
facet normal 0.9914448613738104 -0.13052619222005174 0.0
  outer loop
    vertex 3.999999999999999 0.0 10.3
    vertex 3.863703305156272 -1.035276180410083 19.3
    vertex 3.863703305156272 -1.035276180410083 10.3
  endloop
endfacet
facet normal 0.9914448613738104 -0.13052619222005174 0.0
  outer loop
    vertex 3.863703305156272 -1.035276180410083 19.3
    vertex 3.999999999999999 0.0 10.3
    vertex 3.999999999999999 0.0 19.3
  endloop
endfacet
facet normal 0.9914448613738104 0.13052619222005202 0.0
  outer loop
    vertex 3.8637033051562715 1.035276180410086 10.3
    vertex 3.999999999999999 0.0 19.3
    vertex 3.999999999999999 0.0 10.3
  endloop
endfacet
facet normal 0.9914448613738104 0.13052619222005202 0.0
  outer loop
    vertex 3.999999999999999 0.0 19.3
    vertex 3.8637033051562715 1.035276180410086 10.3
    vertex 3.8637033051562715 1.035276180410086 19.3
  endloop
endfacet
facet normal 0.9238795325112865 0.3826834323650905 0.0
  outer loop
    vertex 3.4641016151377526 2.0000000000000018 10.3
    vertex 3.8637033051562715 1.035276180410086 19.3
    vertex 3.8637033051562715 1.035276180410086 10.3
  endloop
endfacet
facet normal 0.9238795325112865 0.3826834323650905 0.0
  outer loop
    vertex 3.8637033051562715 1.035276180410086 19.3
    vertex 3.4641016151377526 2.0000000000000018 10.3
    vertex 3.4641016151377526 2.0000000000000018 19.3
  endloop
endfacet
facet normal 0.793353340291235 0.6087614290087208 0.0
  outer loop
    vertex 2.8284271247461885 2.8284271247461903 10.3
    vertex 3.4641016151377526 2.0000000000000018 19.3
    vertex 3.4641016151377526 2.0000000000000018 10.3
  endloop
endfacet
facet normal 0.793353340291235 0.6087614290087208 0.0
  outer loop
    vertex 3.4641016151377526 2.0000000000000018 19.3
    vertex 2.8284271247461885 2.8284271247461903 10.3
    vertex 2.8284271247461885 2.8284271247461903 19.3
  endloop
endfacet
facet normal 0.6087614290087204 0.7933533402912355 0.0
  outer loop
    vertex 1.9999999999999967 3.464101615137756 19.3
    vertex 2.8284271247461885 2.8284271247461903 10.3
    vertex 1.9999999999999967 3.464101615137756 10.3
  endloop
endfacet
facet normal 0.6087614290087204 0.7933533402912355 0.0
  outer loop
    vertex 2.8284271247461885 2.8284271247461903 10.3
    vertex 1.9999999999999967 3.464101615137756 19.3
    vertex 2.8284271247461885 2.8284271247461903 19.3
  endloop
endfacet
facet normal 0.3826834323650892 0.923879532511287 0.0
  outer loop
    vertex 1.035276180410081 3.8637033051562732 19.3
    vertex 1.9999999999999967 3.464101615137756 10.3
    vertex 1.035276180410081 3.8637033051562732 10.3
  endloop
endfacet
facet normal 0.3826834323650892 0.923879532511287 0.0
  outer loop
    vertex 1.9999999999999967 3.464101615137756 10.3
    vertex 1.035276180410081 3.8637033051562732 19.3
    vertex 1.9999999999999967 3.464101615137756 19.3
  endloop
endfacet
endsolid Гайка-Подшипник-8х22мм
