solid 
   facet normal 9.807853e-001 1.950903e-001 -0.000000e+000
      outer loop
         vertex 5.000000e+000 0.000000e+000 2.000000e+001
         vertex 5.000000e+000 0.000000e+000 0.000000e+000
         vertex 4.619398e+000 1.913417e+000 0.000000e+000
      endloop
   endfacet
   facet normal 5.555702e-001 8.314696e-001 -0.000000e+000
      outer loop
         vertex 3.535534e+000 3.535534e+000 0.000000e+000
         vertex 1.913417e+000 4.619398e+000 0.000000e+000
         vertex 1.913417e+000 4.619398e+000 2.000000e+001
      endloop
   endfacet
   facet normal -1.950903e-001 9.807853e-001 0.000000e+000
      outer loop
         vertex 3.061617e-016 5.000000e+000 0.000000e+000
         vertex -1.913417e+000 4.619398e+000 0.000000e+000
         vertex -1.913417e+000 4.619398e+000 2.000000e+001
      endloop
   endfacet
   facet normal -8.314696e-001 5.555702e-001 0.000000e+000
      outer loop
         vertex -3.535534e+000 3.535534e+000 0.000000e+000
         vertex -4.619398e+000 1.913417e+000 0.000000e+000
         vertex -4.619398e+000 1.913417e+000 2.000000e+001
      endloop
   endfacet
   facet normal -9.807853e-001 -1.950903e-001 0.000000e+000
      outer loop
         vertex -5.000000e+000 6.123234e-016 0.000000e+000
         vertex -4.619398e+000 -1.913417e+000 0.000000e+000
         vertex -4.619398e+000 -1.913417e+000 2.000000e+001
      endloop
   endfacet
   facet normal -5.555702e-001 -8.314696e-001 0.000000e+000
      outer loop
         vertex -3.535534e+000 -3.535534e+000 0.000000e+000
         vertex -1.913417e+000 -4.619398e+000 0.000000e+000
         vertex -1.913417e+000 -4.619398e+000 2.000000e+001
      endloop
   endfacet
   facet normal 1.950903e-001 -9.807853e-001 0.000000e+000
      outer loop
         vertex -9.184850e-016 -5.000000e+000 0.000000e+000
         vertex 1.913417e+000 -4.619398e+000 0.000000e+000
         vertex 1.913417e+000 -4.619398e+000 2.000000e+001
      endloop
   endfacet
   facet normal 8.314696e-001 -5.555702e-001 0.000000e+000
      outer loop
         vertex 3.535534e+000 -3.535534e+000 0.000000e+000
         vertex 4.619398e+000 -1.913417e+000 0.000000e+000
         vertex 4.619398e+000 -1.913417e+000 2.000000e+001
      endloop
   endfacet
   facet normal 9.807853e-001 -1.950903e-001 0.000000e+000
      outer loop
         vertex 5.000000e+000 0.000000e+000 0.000000e+000
         vertex 5.000000e+000 0.000000e+000 2.000000e+001
         vertex 4.619398e+000 -1.913417e+000 0.000000e+000
      endloop
   endfacet
   facet normal 5.555702e-001 -8.314696e-001 0.000000e+000
      outer loop
         vertex 3.535534e+000 -3.535534e+000 2.000000e+001
         vertex 1.913417e+000 -4.619398e+000 2.000000e+001
         vertex 1.913417e+000 -4.619398e+000 0.000000e+000
      endloop
   endfacet
   facet normal -1.950903e-001 -9.807853e-001 -0.000000e+000
      outer loop
         vertex -9.184850e-016 -5.000000e+000 2.000000e+001
         vertex -1.913417e+000 -4.619398e+000 2.000000e+001
         vertex -1.913417e+000 -4.619398e+000 0.000000e+000
      endloop
   endfacet
   facet normal -8.314696e-001 -5.555702e-001 -0.000000e+000
      outer loop
         vertex -3.535534e+000 -3.535534e+000 2.000000e+001
         vertex -4.619398e+000 -1.913417e+000 2.000000e+001
         vertex -4.619398e+000 -1.913417e+000 0.000000e+000
      endloop
   endfacet
   facet normal -9.807853e-001 1.950903e-001 0.000000e+000
      outer loop
         vertex -5.000000e+000 6.123234e-016 2.000000e+001
         vertex -4.619398e+000 1.913417e+000 2.000000e+001
         vertex -4.619398e+000 1.913417e+000 0.000000e+000
      endloop
   endfacet
   facet normal -5.555702e-001 8.314696e-001 0.000000e+000
      outer loop
         vertex -3.535534e+000 3.535534e+000 2.000000e+001
         vertex -1.913417e+000 4.619398e+000 2.000000e+001
         vertex -1.913417e+000 4.619398e+000 0.000000e+000
      endloop
   endfacet
   facet normal 1.950903e-001 9.807853e-001 0.000000e+000
      outer loop
         vertex 3.061617e-016 5.000000e+000 2.000000e+001
         vertex 1.913417e+000 4.619398e+000 2.000000e+001
         vertex 1.913417e+000 4.619398e+000 0.000000e+000
      endloop
   endfacet
   facet normal 8.314696e-001 5.555702e-001 0.000000e+000
      outer loop
         vertex 3.535534e+000 3.535534e+000 2.000000e+001
         vertex 4.619398e+000 1.913417e+000 2.000000e+001
         vertex 4.619398e+000 1.913417e+000 0.000000e+000
      endloop
   endfacet
   facet normal 9.807853e-001 1.950903e-001 -0.000000e+000
      outer loop
         vertex 5.000000e+000 0.000000e+000 2.000000e+001
         vertex 4.619398e+000 1.913417e+000 0.000000e+000
         vertex 4.619398e+000 1.913417e+000 2.000000e+001
      endloop
   endfacet
   facet normal -8.314696e-001 5.555702e-001 0.000000e+000
      outer loop
         vertex -3.535534e+000 3.535534e+000 0.000000e+000
         vertex -4.619398e+000 1.913417e+000 2.000000e+001
         vertex -3.535534e+000 3.535534e+000 2.000000e+001
      endloop
   endfacet
   facet normal 1.950903e-001 -9.807853e-001 0.000000e+000
      outer loop
         vertex -9.184850e-016 -5.000000e+000 0.000000e+000
         vertex 1.913417e+000 -4.619398e+000 2.000000e+001
         vertex -9.184850e-016 -5.000000e+000 2.000000e+001
      endloop
   endfacet
   facet normal 9.807853e-001 -1.950903e-001 0.000000e+000
      outer loop
         vertex 4.619398e+000 -1.913417e+000 0.000000e+000
         vertex 5.000000e+000 0.000000e+000 2.000000e+001
         vertex 4.619398e+000 -1.913417e+000 2.000000e+001
      endloop
   endfacet
   facet normal -9.807853e-001 1.950903e-001 0.000000e+000
      outer loop
         vertex -5.000000e+000 6.123234e-016 2.000000e+001
         vertex -4.619398e+000 1.913417e+000 0.000000e+000
         vertex -5.000000e+000 6.123234e-016 0.000000e+000
      endloop
   endfacet
   facet normal 8.314696e-001 5.555702e-001 0.000000e+000
      outer loop
         vertex 3.535534e+000 3.535534e+000 2.000000e+001
         vertex 4.619398e+000 1.913417e+000 0.000000e+000
         vertex 3.535534e+000 3.535534e+000 0.000000e+000
      endloop
   endfacet
   facet normal -9.807853e-001 -1.950903e-001 0.000000e+000
      outer loop
         vertex -5.000000e+000 6.123234e-016 2.000000e+001
         vertex -5.000000e+000 6.123234e-016 0.000000e+000
         vertex -4.619398e+000 -1.913417e+000 2.000000e+001
      endloop
   endfacet
   facet normal 1.950903e-001 9.807853e-001 -0.000000e+000
      outer loop
         vertex 1.913417e+000 4.619398e+000 0.000000e+000
         vertex 3.061617e-016 5.000000e+000 0.000000e+000
         vertex 3.061617e-016 5.000000e+000 2.000000e+001
      endloop
   endfacet
   facet normal -8.314696e-001 -5.555702e-001 0.000000e+000
      outer loop
         vertex -4.619398e+000 -1.913417e+000 0.000000e+000
         vertex -3.535534e+000 -3.535534e+000 0.000000e+000
         vertex -3.535534e+000 -3.535534e+000 2.000000e+001
      endloop
   endfacet
   facet normal 5.555702e-001 -8.314696e-001 0.000000e+000
      outer loop
         vertex 1.913417e+000 -4.619398e+000 0.000000e+000
         vertex 3.535534e+000 -3.535534e+000 0.000000e+000
         vertex 3.535534e+000 -3.535534e+000 2.000000e+001
      endloop
   endfacet
   facet normal -5.555702e-001 -8.314696e-001 -0.000000e+000
      outer loop
         vertex -1.913417e+000 -4.619398e+000 2.000000e+001
         vertex -3.535534e+000 -3.535534e+000 2.000000e+001
         vertex -3.535534e+000 -3.535534e+000 0.000000e+000
      endloop
   endfacet
   facet normal 5.555702e-001 8.314696e-001 0.000000e+000
      outer loop
         vertex 1.913417e+000 4.619398e+000 2.000000e+001
         vertex 3.535534e+000 3.535534e+000 2.000000e+001
         vertex 3.535534e+000 3.535534e+000 0.000000e+000
      endloop
   endfacet
   facet normal 8.314696e-001 -5.555702e-001 0.000000e+000
      outer loop
         vertex 3.535534e+000 -3.535534e+000 0.000000e+000
         vertex 4.619398e+000 -1.913417e+000 2.000000e+001
         vertex 3.535534e+000 -3.535534e+000 2.000000e+001
      endloop
   endfacet
   facet normal -5.555702e-001 8.314696e-001 0.000000e+000
      outer loop
         vertex -3.535534e+000 3.535534e+000 0.000000e+000
         vertex -3.535534e+000 3.535534e+000 2.000000e+001
         vertex -1.913417e+000 4.619398e+000 0.000000e+000
      endloop
   endfacet
   facet normal -1.950903e-001 -9.807853e-001 0.000000e+000
      outer loop
         vertex -1.913417e+000 -4.619398e+000 0.000000e+000
         vertex -9.184850e-016 -5.000000e+000 0.000000e+000
         vertex -9.184850e-016 -5.000000e+000 2.000000e+001
      endloop
   endfacet
   facet normal -1.950903e-001 9.807853e-001 0.000000e+000
      outer loop
         vertex 3.061617e-016 5.000000e+000 0.000000e+000
         vertex -1.913417e+000 4.619398e+000 2.000000e+001
         vertex 3.061617e-016 5.000000e+000 2.000000e+001
      endloop
   endfacet
   facet normal 0.000000e+000 0.000000e+000 1.000000e+000
      outer loop
         vertex 2.641377e+000 -1.525000e+000 1.000000e+001
         vertex 3.050000e+000 0.000000e+000 1.000000e+001
         vertex 2.550000e+000 0.000000e+000 1.000000e+001
      endloop
   endfacet
   facet normal 0.000000e+000 0.000000e+000 1.000000e+000
      outer loop
         vertex 2.641377e+000 1.525000e+000 1.000000e+001
         vertex 1.525000e+000 2.641377e+000 1.000000e+001
         vertex 2.145196e+000 1.378634e+000 1.000000e+001
      endloop
   endfacet
   facet normal -0.000000e+000 0.000000e+000 1.000000e+000
      outer loop
         vertex 1.867586e-016 3.050000e+000 1.000000e+001
         vertex -1.525000e+000 2.641377e+000 1.000000e+001
         vertex -3.629028e-001 2.524045e+000 1.000000e+001
      endloop
   endfacet
   facet normal 0.000000e+000 0.000000e+000 1.000000e+000
      outer loop
         vertex -2.641377e+000 1.525000e+000 1.000000e+001
         vertex -3.050000e+000 1.727989e-015 1.000000e+001
         vertex -2.446707e+000 7.184180e-001 1.000000e+001
      endloop
   endfacet
   facet normal 0.000000e+000 0.000000e+000 1.000000e+000
      outer loop
         vertex -2.641377e+000 -1.525000e+000 1.000000e+001
         vertex -1.525000e+000 -2.641377e+000 1.000000e+001
         vertex -1.669895e+000 -1.927161e+000 1.000000e+001
      endloop
   endfacet
   facet normal 0.000000e+000 0.000000e+000 1.000000e+000
      outer loop
         vertex -5.602759e-016 -3.050000e+000 1.000000e+001
         vertex 1.525000e+000 -2.641377e+000 1.000000e+001
         vertex 1.059308e+000 -2.319561e+000 1.000000e+001
      endloop
   endfacet
   facet normal 0.000000e+000 -0.000000e+000 1.000000e+000
      outer loop
         vertex 2.145196e+000 1.378634e+000 1.000000e+001
         vertex 2.550000e+000 0.000000e+000 1.000000e+001
         vertex 2.641377e+000 1.525000e+000 1.000000e+001
      endloop
   endfacet
   facet normal -0.000000e+000 0.000000e+000 1.000000e+000
      outer loop
         vertex 2.145196e+000 -1.378634e+000 1.000000e+001
         vertex 1.059308e+000 -2.319561e+000 1.000000e+001
         vertex 1.525000e+000 -2.641377e+000 1.000000e+001
      endloop
   endfacet
   facet normal 0.000000e+000 0.000000e+000 1.000000e+000
      outer loop
         vertex -3.629028e-001 -2.524045e+000 1.000000e+001
         vertex -1.669895e+000 -1.927161e+000 1.000000e+001
         vertex -1.525000e+000 -2.641377e+000 1.000000e+001
      endloop
   endfacet
   facet normal 0.000000e+000 0.000000e+000 1.000000e+000
      outer loop
         vertex -2.446707e+000 -7.184180e-001 1.000000e+001
         vertex -2.446707e+000 7.184180e-001 1.000000e+001
         vertex -3.050000e+000 1.727989e-015 1.000000e+001
      endloop
   endfacet
   facet normal 0.000000e+000 0.000000e+000 1.000000e+000
      outer loop
         vertex -1.669895e+000 1.927161e+000 1.000000e+001
         vertex -3.629028e-001 2.524045e+000 1.000000e+001
         vertex -1.525000e+000 2.641377e+000 1.000000e+001
      endloop
   endfacet
   facet normal 0.000000e+000 0.000000e+000 1.000000e+000
      outer loop
         vertex 1.059308e+000 2.319561e+000 1.000000e+001
         vertex 2.145196e+000 1.378634e+000 1.000000e+001
         vertex 1.525000e+000 2.641377e+000 1.000000e+001
      endloop
   endfacet
   facet normal 0.000000e+000 0.000000e+000 1.000000e+000
      outer loop
         vertex 2.550000e+000 0.000000e+000 1.000000e+001
         vertex 3.050000e+000 0.000000e+000 1.000000e+001
         vertex 2.641377e+000 1.525000e+000 1.000000e+001
      endloop
   endfacet
   facet normal 0.000000e+000 0.000000e+000 1.000000e+000
      outer loop
         vertex -2.641377e+000 -1.525000e+000 1.000000e+001
         vertex -1.669895e+000 -1.927161e+000 1.000000e+001
         vertex -2.446707e+000 -7.184180e-001 1.000000e+001
      endloop
   endfacet
   facet normal -0.000000e+000 0.000000e+000 1.000000e+000
      outer loop
         vertex -3.629028e-001 -2.524045e+000 1.000000e+001
         vertex -1.525000e+000 -2.641377e+000 1.000000e+001
         vertex -5.602759e-016 -3.050000e+000 1.000000e+001
      endloop
   endfacet
   facet normal 0.000000e+000 0.000000e+000 1.000000e+000
      outer loop
         vertex 1.059308e+000 2.319561e+000 1.000000e+001
         vertex 1.525000e+000 2.641377e+000 1.000000e+001
         vertex 1.867586e-016 3.050000e+000 1.000000e+001
      endloop
   endfacet
   facet normal 0.000000e+000 0.000000e+000 1.000000e+000
      outer loop
         vertex 1.059308e+000 2.319561e+000 1.000000e+001
         vertex 1.867586e-016 3.050000e+000 1.000000e+001
         vertex -3.629028e-001 2.524045e+000 1.000000e+001
      endloop
   endfacet
   facet normal 0.000000e+000 0.000000e+000 1.000000e+000
      outer loop
         vertex -1.525000e+000 2.641377e+000 1.000000e+001
         vertex -2.641377e+000 1.525000e+000 1.000000e+001
         vertex -1.669895e+000 1.927161e+000 1.000000e+001
      endloop
   endfacet
   facet normal 0.000000e+000 0.000000e+000 1.000000e+000
      outer loop
         vertex 1.525000e+000 -2.641377e+000 1.000000e+001
         vertex 2.641377e+000 -1.525000e+000 1.000000e+001
         vertex 2.145196e+000 -1.378634e+000 1.000000e+001
      endloop
   endfacet
   facet normal -0.000000e+000 0.000000e+000 1.000000e+000
      outer loop
         vertex 1.059308e+000 -2.319561e+000 1.000000e+001
         vertex -3.629028e-001 -2.524045e+000 1.000000e+001
         vertex -5.602759e-016 -3.050000e+000 1.000000e+001
      endloop
   endfacet
   facet normal 0.000000e+000 0.000000e+000 1.000000e+000
      outer loop
         vertex 2.641377e+000 -1.525000e+000 1.000000e+001
         vertex 2.550000e+000 0.000000e+000 1.000000e+001
         vertex 2.145196e+000 -1.378634e+000 1.000000e+001
      endloop
   endfacet
   facet normal 0.000000e+000 0.000000e+000 1.000000e+000
      outer loop
         vertex -2.641377e+000 -1.525000e+000 1.000000e+001
         vertex -2.446707e+000 -7.184180e-001 1.000000e+001
         vertex -3.050000e+000 1.727989e-015 1.000000e+001
      endloop
   endfacet
   facet normal 0.000000e+000 0.000000e+000 1.000000e+000
      outer loop
         vertex -2.446707e+000 7.184180e-001 1.000000e+001
         vertex -1.669895e+000 1.927161e+000 1.000000e+001
         vertex -2.641377e+000 1.525000e+000 1.000000e+001
      endloop
   endfacet
   facet normal -9.659258e-001 2.588190e-001 0.000000e+000
      outer loop
         vertex 2.641377e+000 -1.525000e+000 2.000000e+001
         vertex 3.050000e+000 0.000000e+000 2.000000e+001
         vertex 3.050000e+000 0.000000e+000 1.000000e+001
      endloop
   endfacet
   facet normal -2.588190e-001 9.659258e-001 0.000000e+000
      outer loop
         vertex -5.602759e-016 -3.050000e+000 1.000000e+001
         vertex -5.602759e-016 -3.050000e+000 2.000000e+001
         vertex 1.525000e+000 -2.641377e+000 2.000000e+001
      endloop
   endfacet
   facet normal 7.071068e-001 7.071068e-001 0.000000e+000
      outer loop
         vertex -2.641377e+000 -1.525000e+000 1.000000e+001
         vertex -2.641377e+000 -1.525000e+000 2.000000e+001
         vertex -1.525000e+000 -2.641377e+000 2.000000e+001
      endloop
   endfacet
   facet normal 9.659258e-001 -2.588190e-001 0.000000e+000
      outer loop
         vertex -2.641377e+000 1.525000e+000 1.000000e+001
         vertex -2.641377e+000 1.525000e+000 2.000000e+001
         vertex -3.050000e+000 1.727989e-015 2.000000e+001
      endloop
   endfacet
   facet normal 2.588190e-001 -9.659258e-001 0.000000e+000
      outer loop
         vertex 1.867586e-016 3.050000e+000 1.000000e+001
         vertex 1.867586e-016 3.050000e+000 2.000000e+001
         vertex -1.525000e+000 2.641377e+000 2.000000e+001
      endloop
   endfacet
   facet normal -7.071068e-001 -7.071068e-001 -0.000000e+000
      outer loop
         vertex 2.641377e+000 1.525000e+000 1.000000e+001
         vertex 2.641377e+000 1.525000e+000 2.000000e+001
         vertex 1.525000e+000 2.641377e+000 2.000000e+001
      endloop
   endfacet
   facet normal -9.659258e-001 -2.588190e-001 0.000000e+000
      outer loop
         vertex 2.641377e+000 1.525000e+000 2.000000e+001
         vertex 3.050000e+000 0.000000e+000 1.000000e+001
         vertex 3.050000e+000 0.000000e+000 2.000000e+001
      endloop
   endfacet
   facet normal -2.588190e-001 -9.659258e-001 0.000000e+000
      outer loop
         vertex 1.867586e-016 3.050000e+000 2.000000e+001
         vertex 1.867586e-016 3.050000e+000 1.000000e+001
         vertex 1.525000e+000 2.641377e+000 1.000000e+001
      endloop
   endfacet
   facet normal 7.071068e-001 -7.071068e-001 0.000000e+000
      outer loop
         vertex -2.641377e+000 1.525000e+000 2.000000e+001
         vertex -2.641377e+000 1.525000e+000 1.000000e+001
         vertex -1.525000e+000 2.641377e+000 1.000000e+001
      endloop
   endfacet
   facet normal 9.659258e-001 2.588190e-001 -0.000000e+000
      outer loop
         vertex -2.641377e+000 -1.525000e+000 2.000000e+001
         vertex -2.641377e+000 -1.525000e+000 1.000000e+001
         vertex -3.050000e+000 1.727989e-015 1.000000e+001
      endloop
   endfacet
   facet normal 2.588190e-001 9.659258e-001 -0.000000e+000
      outer loop
         vertex -5.602759e-016 -3.050000e+000 2.000000e+001
         vertex -5.602759e-016 -3.050000e+000 1.000000e+001
         vertex -1.525000e+000 -2.641377e+000 1.000000e+001
      endloop
   endfacet
   facet normal -7.071068e-001 7.071068e-001 0.000000e+000
      outer loop
         vertex 2.641377e+000 -1.525000e+000 2.000000e+001
         vertex 2.641377e+000 -1.525000e+000 1.000000e+001
         vertex 1.525000e+000 -2.641377e+000 1.000000e+001
      endloop
   endfacet
   facet normal -9.659258e-001 2.588190e-001 0.000000e+000
      outer loop
         vertex 2.641377e+000 -1.525000e+000 1.000000e+001
         vertex 2.641377e+000 -1.525000e+000 2.000000e+001
         vertex 3.050000e+000 0.000000e+000 1.000000e+001
      endloop
   endfacet
   facet normal 9.659258e-001 -2.588190e-001 0.000000e+000
      outer loop
         vertex -3.050000e+000 1.727989e-015 1.000000e+001
         vertex -2.641377e+000 1.525000e+000 1.000000e+001
         vertex -3.050000e+000 1.727989e-015 2.000000e+001
      endloop
   endfacet
   facet normal -9.659258e-001 -2.588190e-001 -0.000000e+000
      outer loop
         vertex 3.050000e+000 0.000000e+000 1.000000e+001
         vertex 2.641377e+000 1.525000e+000 2.000000e+001
         vertex 2.641377e+000 1.525000e+000 1.000000e+001
      endloop
   endfacet
   facet normal 9.659258e-001 2.588190e-001 0.000000e+000
      outer loop
         vertex -3.050000e+000 1.727989e-015 2.000000e+001
         vertex -2.641377e+000 -1.525000e+000 2.000000e+001
         vertex -3.050000e+000 1.727989e-015 1.000000e+001
      endloop
   endfacet
   facet normal -7.071068e-001 7.071068e-001 0.000000e+000
      outer loop
         vertex 1.525000e+000 -2.641377e+000 1.000000e+001
         vertex 1.525000e+000 -2.641377e+000 2.000000e+001
         vertex 2.641377e+000 -1.525000e+000 2.000000e+001
      endloop
   endfacet
   facet normal 7.071068e-001 -7.071068e-001 0.000000e+000
      outer loop
         vertex -1.525000e+000 2.641377e+000 1.000000e+001
         vertex -1.525000e+000 2.641377e+000 2.000000e+001
         vertex -2.641377e+000 1.525000e+000 2.000000e+001
      endloop
   endfacet
   facet normal -7.071068e-001 -7.071068e-001 0.000000e+000
      outer loop
         vertex 1.525000e+000 2.641377e+000 2.000000e+001
         vertex 1.525000e+000 2.641377e+000 1.000000e+001
         vertex 2.641377e+000 1.525000e+000 1.000000e+001
      endloop
   endfacet
   facet normal 7.071068e-001 7.071068e-001 -0.000000e+000
      outer loop
         vertex -1.525000e+000 -2.641377e+000 2.000000e+001
         vertex -1.525000e+000 -2.641377e+000 1.000000e+001
         vertex -2.641377e+000 -1.525000e+000 1.000000e+001
      endloop
   endfacet
   facet normal -2.588190e-001 9.659258e-001 0.000000e+000
      outer loop
         vertex 1.525000e+000 -2.641377e+000 1.000000e+001
         vertex -5.602759e-016 -3.050000e+000 1.000000e+001
         vertex 1.525000e+000 -2.641377e+000 2.000000e+001
      endloop
   endfacet
   facet normal 2.588190e-001 9.659258e-001 0.000000e+000
      outer loop
         vertex -1.525000e+000 -2.641377e+000 2.000000e+001
         vertex -5.602759e-016 -3.050000e+000 2.000000e+001
         vertex -1.525000e+000 -2.641377e+000 1.000000e+001
      endloop
   endfacet
   facet normal -2.588190e-001 -9.659258e-001 -0.000000e+000
      outer loop
         vertex 1.525000e+000 2.641377e+000 1.000000e+001
         vertex 1.525000e+000 2.641377e+000 2.000000e+001
         vertex 1.867586e-016 3.050000e+000 2.000000e+001
      endloop
   endfacet
   facet normal 2.588190e-001 -9.659258e-001 0.000000e+000
      outer loop
         vertex -1.525000e+000 2.641377e+000 1.000000e+001
         vertex 1.867586e-016 3.050000e+000 1.000000e+001
         vertex -1.525000e+000 2.641377e+000 2.000000e+001
      endloop
   endfacet
   facet normal 0.000000e+000 -0.000000e+000 -1.000000e+000
      outer loop
         vertex 2.550000e+000 0.000000e+000 0.000000e+000
         vertex 4.619398e+000 1.913417e+000 0.000000e+000
         vertex 5.000000e+000 0.000000e+000 0.000000e+000
      endloop
   endfacet
   facet normal 0.000000e+000 0.000000e+000 -1.000000e+000
      outer loop
         vertex 2.550000e+000 2.550000e+000 0.000000e+000
         vertex 1.913417e+000 4.619398e+000 0.000000e+000
         vertex 3.535534e+000 3.535534e+000 0.000000e+000
      endloop
   endfacet
   facet normal 0.000000e+000 0.000000e+000 -1.000000e+000
      outer loop
         vertex -2.550000e+000 2.550000e+000 0.000000e+000
         vertex -3.535534e+000 3.535534e+000 0.000000e+000
         vertex -1.913417e+000 4.619398e+000 0.000000e+000
      endloop
   endfacet
   facet normal 0.000000e+000 0.000000e+000 -1.000000e+000
      outer loop
         vertex -2.550000e+000 -2.550000e+000 0.000000e+000
         vertex -3.535534e+000 -3.535534e+000 0.000000e+000
         vertex -4.619398e+000 -1.913417e+000 0.000000e+000
      endloop
   endfacet
   facet normal -0.000000e+000 0.000000e+000 -1.000000e+000
      outer loop
         vertex 2.550000e+000 -2.550000e+000 0.000000e+000
         vertex 1.913417e+000 -4.619398e+000 0.000000e+000
         vertex -9.184850e-016 -5.000000e+000 0.000000e+000
      endloop
   endfacet
   facet normal 0.000000e+000 0.000000e+000 -1.000000e+000
      outer loop
         vertex 2.550000e+000 -2.550000e+000 0.000000e+000
         vertex 4.619398e+000 -1.913417e+000 0.000000e+000
         vertex 3.535534e+000 -3.535534e+000 0.000000e+000
      endloop
   endfacet
   facet normal 0.000000e+000 0.000000e+000 -1.000000e+000
      outer loop
         vertex 4.619398e+000 -1.913417e+000 0.000000e+000
         vertex 2.145196e+000 -1.378634e+000 0.000000e+000
         vertex 2.550000e+000 0.000000e+000 0.000000e+000
      endloop
   endfacet
   facet normal 0.000000e+000 -0.000000e+000 -1.000000e+000
      outer loop
         vertex -2.550000e+000 -2.550000e+000 0.000000e+000
         vertex -1.669895e+000 -1.927161e+000 0.000000e+000
         vertex -3.629028e-001 -2.524045e+000 0.000000e+000
      endloop
   endfacet
   facet normal -0.000000e+000 0.000000e+000 -1.000000e+000
      outer loop
         vertex -2.550000e+000 2.550000e+000 0.000000e+000
         vertex -1.669895e+000 1.927161e+000 0.000000e+000
         vertex -2.446707e+000 7.184180e-001 0.000000e+000
      endloop
   endfacet
   facet normal 0.000000e+000 0.000000e+000 -1.000000e+000
      outer loop
         vertex 2.550000e+000 2.550000e+000 0.000000e+000
         vertex 2.145196e+000 1.378634e+000 0.000000e+000
         vertex 1.059308e+000 2.319561e+000 0.000000e+000
      endloop
   endfacet
   facet normal 0.000000e+000 0.000000e+000 -1.000000e+000
      outer loop
         vertex -9.184850e-016 -5.000000e+000 0.000000e+000
         vertex -2.550000e+000 -2.550000e+000 0.000000e+000
         vertex 2.550000e+000 -2.550000e+000 0.000000e+000
      endloop
   endfacet
   facet normal 0.000000e+000 0.000000e+000 -1.000000e+000
      outer loop
         vertex -3.629028e-001 -2.524045e+000 0.000000e+000
         vertex 2.550000e+000 -2.550000e+000 0.000000e+000
         vertex -2.550000e+000 -2.550000e+000 0.000000e+000
      endloop
   endfacet
   facet normal 0.000000e+000 0.000000e+000 -1.000000e+000
      outer loop
         vertex -2.446707e+000 7.184180e-001 0.000000e+000
         vertex -2.550000e+000 -2.550000e+000 0.000000e+000
         vertex -2.550000e+000 2.550000e+000 0.000000e+000
      endloop
   endfacet
   facet normal 0.000000e+000 0.000000e+000 -1.000000e+000
      outer loop
         vertex 4.619398e+000 -1.913417e+000 0.000000e+000
         vertex 2.550000e+000 0.000000e+000 0.000000e+000
         vertex 5.000000e+000 0.000000e+000 0.000000e+000
      endloop
   endfacet
   facet normal -0.000000e+000 -0.000000e+000 -1.000000e+000
      outer loop
         vertex 3.061617e-016 5.000000e+000 0.000000e+000
         vertex 1.913417e+000 4.619398e+000 0.000000e+000
         vertex 2.550000e+000 2.550000e+000 0.000000e+000
      endloop
   endfacet
   facet normal 0.000000e+000 0.000000e+000 -1.000000e+000
      outer loop
         vertex -1.913417e+000 -4.619398e+000 0.000000e+000
         vertex -3.535534e+000 -3.535534e+000 0.000000e+000
         vertex -2.550000e+000 -2.550000e+000 0.000000e+000
      endloop
   endfacet
   facet normal -0.000000e+000 0.000000e+000 -1.000000e+000
      outer loop
         vertex 2.145196e+000 -1.378634e+000 0.000000e+000
         vertex 4.619398e+000 -1.913417e+000 0.000000e+000
         vertex 2.550000e+000 -2.550000e+000 0.000000e+000
      endloop
   endfacet
   facet normal 0.000000e+000 0.000000e+000 -1.000000e+000
      outer loop
         vertex -3.629028e-001 2.524045e+000 0.000000e+000
         vertex -1.669895e+000 1.927161e+000 0.000000e+000
         vertex -2.550000e+000 2.550000e+000 0.000000e+000
      endloop
   endfacet
   facet normal 0.000000e+000 0.000000e+000 -1.000000e+000
      outer loop
         vertex -1.913417e+000 -4.619398e+000 0.000000e+000
         vertex -2.550000e+000 -2.550000e+000 0.000000e+000
         vertex -9.184850e-016 -5.000000e+000 0.000000e+000
      endloop
   endfacet
   facet normal 0.000000e+000 -0.000000e+000 -1.000000e+000
      outer loop
         vertex 1.059308e+000 -2.319561e+000 0.000000e+000
         vertex 2.145196e+000 -1.378634e+000 0.000000e+000
         vertex 2.550000e+000 -2.550000e+000 0.000000e+000
      endloop
   endfacet
   facet normal 0.000000e+000 -0.000000e+000 -1.000000e+000
      outer loop
         vertex 2.550000e+000 2.550000e+000 0.000000e+000
         vertex 3.535534e+000 3.535534e+000 0.000000e+000
         vertex 4.619398e+000 1.913417e+000 0.000000e+000
      endloop
   endfacet
   facet normal 0.000000e+000 0.000000e+000 -1.000000e+000
      outer loop
         vertex -2.550000e+000 2.550000e+000 0.000000e+000
         vertex -4.619398e+000 1.913417e+000 0.000000e+000
         vertex -3.535534e+000 3.535534e+000 0.000000e+000
      endloop
   endfacet
   facet normal -0.000000e+000 0.000000e+000 -1.000000e+000
      outer loop
         vertex 2.550000e+000 -2.550000e+000 0.000000e+000
         vertex 3.535534e+000 -3.535534e+000 0.000000e+000
         vertex 1.913417e+000 -4.619398e+000 0.000000e+000
      endloop
   endfacet
   facet normal 0.000000e+000 -0.000000e+000 -1.000000e+000
      outer loop
         vertex -2.550000e+000 -2.550000e+000 0.000000e+000
         vertex -2.446707e+000 -7.184180e-001 0.000000e+000
         vertex -1.669895e+000 -1.927161e+000 0.000000e+000
      endloop
   endfacet
   facet normal 0.000000e+000 0.000000e+000 -1.000000e+000
      outer loop
         vertex 2.550000e+000 2.550000e+000 0.000000e+000
         vertex 1.059308e+000 2.319561e+000 0.000000e+000
         vertex -3.629028e-001 2.524045e+000 0.000000e+000
      endloop
   endfacet
   facet normal 0.000000e+000 -0.000000e+000 -1.000000e+000
      outer loop
         vertex -5.000000e+000 6.123234e-016 0.000000e+000
         vertex -2.550000e+000 2.550000e+000 0.000000e+000
         vertex -2.550000e+000 -2.550000e+000 0.000000e+000
      endloop
   endfacet
   facet normal 0.000000e+000 0.000000e+000 -1.000000e+000
      outer loop
         vertex 3.061617e-016 5.000000e+000 0.000000e+000
         vertex 2.550000e+000 2.550000e+000 0.000000e+000
         vertex -2.550000e+000 2.550000e+000 0.000000e+000
      endloop
   endfacet
   facet normal 0.000000e+000 0.000000e+000 -1.000000e+000
      outer loop
         vertex 3.061617e-016 5.000000e+000 0.000000e+000
         vertex -2.550000e+000 2.550000e+000 0.000000e+000
         vertex -1.913417e+000 4.619398e+000 0.000000e+000
      endloop
   endfacet
   facet normal 0.000000e+000 0.000000e+000 -1.000000e+000
      outer loop
         vertex 1.059308e+000 -2.319561e+000 0.000000e+000
         vertex 2.550000e+000 -2.550000e+000 0.000000e+000
         vertex -3.629028e-001 -2.524045e+000 0.000000e+000
      endloop
   endfacet
   facet normal 0.000000e+000 -0.000000e+000 -1.000000e+000
      outer loop
         vertex 2.145196e+000 1.378634e+000 0.000000e+000
         vertex 2.550000e+000 2.550000e+000 0.000000e+000
         vertex 4.619398e+000 1.913417e+000 0.000000e+000
      endloop
   endfacet
   facet normal -0.000000e+000 0.000000e+000 -1.000000e+000
      outer loop
         vertex -2.550000e+000 2.550000e+000 0.000000e+000
         vertex 2.550000e+000 2.550000e+000 0.000000e+000
         vertex -3.629028e-001 2.524045e+000 0.000000e+000
      endloop
   endfacet
   facet normal 0.000000e+000 0.000000e+000 -1.000000e+000
      outer loop
         vertex -2.550000e+000 2.550000e+000 0.000000e+000
         vertex -5.000000e+000 6.123234e-016 0.000000e+000
         vertex -4.619398e+000 1.913417e+000 0.000000e+000
      endloop
   endfacet
   facet normal 0.000000e+000 -0.000000e+000 -1.000000e+000
      outer loop
         vertex -2.550000e+000 -2.550000e+000 0.000000e+000
         vertex -2.446707e+000 7.184180e-001 0.000000e+000
         vertex -2.446707e+000 -7.184180e-001 0.000000e+000
      endloop
   endfacet
   facet normal 0.000000e+000 0.000000e+000 -1.000000e+000
      outer loop
         vertex 2.145196e+000 1.378634e+000 0.000000e+000
         vertex 4.619398e+000 1.913417e+000 0.000000e+000
         vertex 2.550000e+000 0.000000e+000 0.000000e+000
      endloop
   endfacet
   facet normal 0.000000e+000 0.000000e+000 -1.000000e+000
      outer loop
         vertex -2.550000e+000 -2.550000e+000 0.000000e+000
         vertex -4.619398e+000 -1.913417e+000 0.000000e+000
         vertex -5.000000e+000 6.123234e-016 0.000000e+000
      endloop
   endfacet
   facet normal 0.000000e+000 0.000000e+000 1.000000e+000
      outer loop
         vertex 4.619398e+000 -1.913417e+000 2.000000e+001
         vertex 5.000000e+000 0.000000e+000 2.000000e+001
         vertex 3.050000e+000 0.000000e+000 2.000000e+001
      endloop
   endfacet
   facet normal 0.000000e+000 0.000000e+000 1.000000e+000
      outer loop
         vertex 4.619398e+000 1.913417e+000 2.000000e+001
         vertex 3.535534e+000 3.535534e+000 2.000000e+001
         vertex 2.641377e+000 1.525000e+000 2.000000e+001
      endloop
   endfacet
   facet normal 0.000000e+000 0.000000e+000 1.000000e+000
      outer loop
         vertex 1.913417e+000 4.619398e+000 2.000000e+001
         vertex 3.061617e-016 5.000000e+000 2.000000e+001
         vertex 1.867586e-016 3.050000e+000 2.000000e+001
      endloop
   endfacet
   facet normal -0.000000e+000 0.000000e+000 1.000000e+000
      outer loop
         vertex -1.913417e+000 4.619398e+000 2.000000e+001
         vertex -3.535534e+000 3.535534e+000 2.000000e+001
         vertex -1.525000e+000 2.641377e+000 2.000000e+001
      endloop
   endfacet
   facet normal 0.000000e+000 0.000000e+000 1.000000e+000
      outer loop
         vertex -4.619398e+000 1.913417e+000 2.000000e+001
         vertex -5.000000e+000 6.123234e-016 2.000000e+001
         vertex -3.050000e+000 1.727989e-015 2.000000e+001
      endloop
   endfacet
   facet normal 0.000000e+000 -0.000000e+000 1.000000e+000
      outer loop
         vertex -4.619398e+000 -1.913417e+000 2.000000e+001
         vertex -3.535534e+000 -3.535534e+000 2.000000e+001
         vertex -2.641377e+000 -1.525000e+000 2.000000e+001
      endloop
   endfacet
   facet normal 0.000000e+000 -0.000000e+000 1.000000e+000
      outer loop
         vertex -1.913417e+000 -4.619398e+000 2.000000e+001
         vertex -9.184850e-016 -5.000000e+000 2.000000e+001
         vertex -5.602759e-016 -3.050000e+000 2.000000e+001
      endloop
   endfacet
   facet normal 0.000000e+000 0.000000e+000 1.000000e+000
      outer loop
         vertex 1.913417e+000 -4.619398e+000 2.000000e+001
         vertex 3.535534e+000 -3.535534e+000 2.000000e+001
         vertex 1.525000e+000 -2.641377e+000 2.000000e+001
      endloop
   endfacet
   facet normal 0.000000e+000 -0.000000e+000 1.000000e+000
      outer loop
         vertex 2.641377e+000 1.525000e+000 2.000000e+001
         vertex 3.050000e+000 0.000000e+000 2.000000e+001
         vertex 4.619398e+000 1.913417e+000 2.000000e+001
      endloop
   endfacet
   facet normal -0.000000e+000 0.000000e+000 1.000000e+000
      outer loop
         vertex 2.641377e+000 -1.525000e+000 2.000000e+001
         vertex 1.525000e+000 -2.641377e+000 2.000000e+001
         vertex 3.535534e+000 -3.535534e+000 2.000000e+001
      endloop
   endfacet
   facet normal 0.000000e+000 0.000000e+000 1.000000e+000
      outer loop
         vertex -5.602759e-016 -3.050000e+000 2.000000e+001
         vertex -1.525000e+000 -2.641377e+000 2.000000e+001
         vertex -1.913417e+000 -4.619398e+000 2.000000e+001
      endloop
   endfacet
   facet normal 0.000000e+000 0.000000e+000 1.000000e+000
      outer loop
         vertex -2.641377e+000 -1.525000e+000 2.000000e+001
         vertex -3.050000e+000 1.727989e-015 2.000000e+001
         vertex -4.619398e+000 -1.913417e+000 2.000000e+001
      endloop
   endfacet
   facet normal 0.000000e+000 0.000000e+000 1.000000e+000
      outer loop
         vertex -2.641377e+000 1.525000e+000 2.000000e+001
         vertex -1.525000e+000 2.641377e+000 2.000000e+001
         vertex -3.535534e+000 3.535534e+000 2.000000e+001
      endloop
   endfacet
   facet normal 0.000000e+000 -0.000000e+000 1.000000e+000
      outer loop
         vertex 1.867586e-016 3.050000e+000 2.000000e+001
         vertex 1.525000e+000 2.641377e+000 2.000000e+001
         vertex 1.913417e+000 4.619398e+000 2.000000e+001
      endloop
   endfacet
   facet normal 0.000000e+000 0.000000e+000 1.000000e+000
      outer loop
         vertex 4.619398e+000 -1.913417e+000 2.000000e+001
         vertex 3.050000e+000 0.000000e+000 2.000000e+001
         vertex 2.641377e+000 -1.525000e+000 2.000000e+001
      endloop
   endfacet
   facet normal 0.000000e+000 0.000000e+000 1.000000e+000
      outer loop
         vertex 1.867586e-016 3.050000e+000 2.000000e+001
         vertex 3.061617e-016 5.000000e+000 2.000000e+001
         vertex -1.913417e+000 4.619398e+000 2.000000e+001
      endloop
   endfacet
   facet normal -0.000000e+000 0.000000e+000 1.000000e+000
      outer loop
         vertex -3.050000e+000 1.727989e-015 2.000000e+001
         vertex -5.000000e+000 6.123234e-016 2.000000e+001
         vertex -4.619398e+000 -1.913417e+000 2.000000e+001
      endloop
   endfacet
   facet normal 0.000000e+000 0.000000e+000 1.000000e+000
      outer loop
         vertex 1.913417e+000 -4.619398e+000 2.000000e+001
         vertex 1.525000e+000 -2.641377e+000 2.000000e+001
         vertex -5.602759e-016 -3.050000e+000 2.000000e+001
      endloop
   endfacet
   facet normal 0.000000e+000 0.000000e+000 1.000000e+000
      outer loop
         vertex -1.913417e+000 -4.619398e+000 2.000000e+001
         vertex -1.525000e+000 -2.641377e+000 2.000000e+001
         vertex -3.535534e+000 -3.535534e+000 2.000000e+001
      endloop
   endfacet
   facet normal 0.000000e+000 0.000000e+000 1.000000e+000
      outer loop
         vertex 4.619398e+000 -1.913417e+000 2.000000e+001
         vertex 2.641377e+000 -1.525000e+000 2.000000e+001
         vertex 3.535534e+000 -3.535534e+000 2.000000e+001
      endloop
   endfacet
   facet normal 0.000000e+000 0.000000e+000 1.000000e+000
      outer loop
         vertex 5.000000e+000 0.000000e+000 2.000000e+001
         vertex 4.619398e+000 1.913417e+000 2.000000e+001
         vertex 3.050000e+000 0.000000e+000 2.000000e+001
      endloop
   endfacet
   facet normal -0.000000e+000 0.000000e+000 1.000000e+000
      outer loop
         vertex -3.535534e+000 3.535534e+000 2.000000e+001
         vertex -4.619398e+000 1.913417e+000 2.000000e+001
         vertex -2.641377e+000 1.525000e+000 2.000000e+001
      endloop
   endfacet
   facet normal 0.000000e+000 0.000000e+000 1.000000e+000
      outer loop
         vertex -1.525000e+000 -2.641377e+000 2.000000e+001
         vertex -2.641377e+000 -1.525000e+000 2.000000e+001
         vertex -3.535534e+000 -3.535534e+000 2.000000e+001
      endloop
   endfacet
   facet normal 0.000000e+000 0.000000e+000 1.000000e+000
      outer loop
         vertex -1.525000e+000 2.641377e+000 2.000000e+001
         vertex 1.867586e-016 3.050000e+000 2.000000e+001
         vertex -1.913417e+000 4.619398e+000 2.000000e+001
      endloop
   endfacet
   facet normal 0.000000e+000 0.000000e+000 1.000000e+000
      outer loop
         vertex 2.641377e+000 1.525000e+000 2.000000e+001
         vertex 3.535534e+000 3.535534e+000 2.000000e+001
         vertex 1.525000e+000 2.641377e+000 2.000000e+001
      endloop
   endfacet
   facet normal 0.000000e+000 0.000000e+000 1.000000e+000
      outer loop
         vertex 1.913417e+000 4.619398e+000 2.000000e+001
         vertex 1.525000e+000 2.641377e+000 2.000000e+001
         vertex 3.535534e+000 3.535534e+000 2.000000e+001
      endloop
   endfacet
   facet normal 0.000000e+000 0.000000e+000 1.000000e+000
      outer loop
         vertex -9.184850e-016 -5.000000e+000 2.000000e+001
         vertex 1.913417e+000 -4.619398e+000 2.000000e+001
         vertex -5.602759e-016 -3.050000e+000 2.000000e+001
      endloop
   endfacet
   facet normal 0.000000e+000 -0.000000e+000 1.000000e+000
      outer loop
         vertex -4.619398e+000 1.913417e+000 2.000000e+001
         vertex -3.050000e+000 1.727989e-015 2.000000e+001
         vertex -2.641377e+000 1.525000e+000 2.000000e+001
      endloop
   endfacet
   facet normal -9.594930e-001 -2.817326e-001 0.000000e+000
      outer loop
         vertex 2.145196e+000 1.378634e+000 0.000000e+000
         vertex 2.550000e+000 0.000000e+000 0.000000e+000
         vertex 2.550000e+000 0.000000e+000 1.000000e+001
      endloop
   endfacet
   facet normal -1.423150e-001 -9.898214e-001 0.000000e+000
      outer loop
         vertex -3.629028e-001 2.524045e+000 1.000000e+001
         vertex -3.629028e-001 2.524045e+000 0.000000e+000
         vertex 1.059308e+000 2.319561e+000 0.000000e+000
      endloop
   endfacet
   facet normal 8.412535e-001 -5.406408e-001 0.000000e+000
      outer loop
         vertex -2.446707e+000 7.184180e-001 1.000000e+001
         vertex -2.446707e+000 7.184180e-001 0.000000e+000
         vertex -1.669895e+000 1.927161e+000 0.000000e+000
      endloop
   endfacet
   facet normal 8.412535e-001 5.406408e-001 -0.000000e+000
      outer loop
         vertex -1.669895e+000 -1.927161e+000 1.000000e+001
         vertex -1.669895e+000 -1.927161e+000 0.000000e+000
         vertex -2.446707e+000 -7.184180e-001 0.000000e+000
      endloop
   endfacet
   facet normal -1.423150e-001 9.898214e-001 0.000000e+000
      outer loop
         vertex 1.059308e+000 -2.319561e+000 1.000000e+001
         vertex 1.059308e+000 -2.319561e+000 0.000000e+000
         vertex -3.629028e-001 -2.524045e+000 0.000000e+000
      endloop
   endfacet
   facet normal -9.594930e-001 2.817326e-001 0.000000e+000
      outer loop
         vertex 2.550000e+000 0.000000e+000 1.000000e+001
         vertex 2.550000e+000 0.000000e+000 0.000000e+000
         vertex 2.145196e+000 -1.378634e+000 0.000000e+000
      endloop
   endfacet
   facet normal -6.548607e-001 7.557496e-001 0.000000e+000
      outer loop
         vertex 1.059308e+000 -2.319561e+000 0.000000e+000
         vertex 1.059308e+000 -2.319561e+000 1.000000e+001
         vertex 2.145196e+000 -1.378634e+000 1.000000e+001
      endloop
   endfacet
   facet normal 4.154151e-001 9.096320e-001 0.000000e+000
      outer loop
         vertex -1.669895e+000 -1.927161e+000 0.000000e+000
         vertex -1.669895e+000 -1.927161e+000 1.000000e+001
         vertex -3.629028e-001 -2.524045e+000 1.000000e+001
      endloop
   endfacet
   facet normal 1.000000e+000 0.000000e+000 0.000000e+000
      outer loop
         vertex -2.446707e+000 7.184180e-001 0.000000e+000
         vertex -2.446707e+000 7.184180e-001 1.000000e+001
         vertex -2.446707e+000 -7.184180e-001 1.000000e+001
      endloop
   endfacet
   facet normal 4.154151e-001 -9.096320e-001 0.000000e+000
      outer loop
         vertex -3.629028e-001 2.524045e+000 0.000000e+000
         vertex -3.629028e-001 2.524045e+000 1.000000e+001
         vertex -1.669895e+000 1.927161e+000 1.000000e+001
      endloop
   endfacet
   facet normal -6.548607e-001 -7.557496e-001 -0.000000e+000
      outer loop
         vertex 2.145196e+000 1.378634e+000 0.000000e+000
         vertex 2.145196e+000 1.378634e+000 1.000000e+001
         vertex 1.059308e+000 2.319561e+000 1.000000e+001
      endloop
   endfacet
   facet normal -9.594930e-001 -2.817326e-001 0.000000e+000
      outer loop
         vertex 2.145196e+000 1.378634e+000 1.000000e+001
         vertex 2.145196e+000 1.378634e+000 0.000000e+000
         vertex 2.550000e+000 0.000000e+000 1.000000e+001
      endloop
   endfacet
   facet normal 8.412535e-001 5.406408e-001 0.000000e+000
      outer loop
         vertex -2.446707e+000 -7.184180e-001 1.000000e+001
         vertex -1.669895e+000 -1.927161e+000 1.000000e+001
         vertex -2.446707e+000 -7.184180e-001 0.000000e+000
      endloop
   endfacet
   facet normal -6.548607e-001 7.557496e-001 0.000000e+000
      outer loop
         vertex 2.145196e+000 -1.378634e+000 0.000000e+000
         vertex 1.059308e+000 -2.319561e+000 0.000000e+000
         vertex 2.145196e+000 -1.378634e+000 1.000000e+001
      endloop
   endfacet
   facet normal 4.154151e-001 -9.096320e-001 0.000000e+000
      outer loop
         vertex -1.669895e+000 1.927161e+000 0.000000e+000
         vertex -3.629028e-001 2.524045e+000 0.000000e+000
         vertex -1.669895e+000 1.927161e+000 1.000000e+001
      endloop
   endfacet
   facet normal -9.594930e-001 2.817326e-001 0.000000e+000
      outer loop
         vertex 2.550000e+000 0.000000e+000 1.000000e+001
         vertex 2.145196e+000 -1.378634e+000 0.000000e+000
         vertex 2.145196e+000 -1.378634e+000 1.000000e+001
      endloop
   endfacet
   facet normal -6.548607e-001 -7.557496e-001 0.000000e+000
      outer loop
         vertex 1.059308e+000 2.319561e+000 1.000000e+001
         vertex 1.059308e+000 2.319561e+000 0.000000e+000
         vertex 2.145196e+000 1.378634e+000 0.000000e+000
      endloop
   endfacet
   facet normal 4.154151e-001 9.096320e-001 -0.000000e+000
      outer loop
         vertex -3.629028e-001 -2.524045e+000 1.000000e+001
         vertex -3.629028e-001 -2.524045e+000 0.000000e+000
         vertex -1.669895e+000 -1.927161e+000 0.000000e+000
      endloop
   endfacet
   facet normal 8.412535e-001 -5.406408e-001 0.000000e+000
      outer loop
         vertex -1.669895e+000 1.927161e+000 0.000000e+000
         vertex -1.669895e+000 1.927161e+000 1.000000e+001
         vertex -2.446707e+000 7.184180e-001 1.000000e+001
      endloop
   endfacet
   facet normal -1.423150e-001 -9.898214e-001 0.000000e+000
      outer loop
         vertex 1.059308e+000 2.319561e+000 1.000000e+001
         vertex -3.629028e-001 2.524045e+000 1.000000e+001
         vertex 1.059308e+000 2.319561e+000 0.000000e+000
      endloop
   endfacet
   facet normal 1.000000e+000 0.000000e+000 0.000000e+000
      outer loop
         vertex -2.446707e+000 7.184180e-001 0.000000e+000
         vertex -2.446707e+000 -7.184180e-001 1.000000e+001
         vertex -2.446707e+000 -7.184180e-001 0.000000e+000
      endloop
   endfacet
   facet normal -1.423150e-001 9.898214e-001 0.000000e+000
      outer loop
         vertex -3.629028e-001 -2.524045e+000 0.000000e+000
         vertex -3.629028e-001 -2.524045e+000 1.000000e+001
         vertex 1.059308e+000 -2.319561e+000 1.000000e+001
      endloop
   endfacet
endsolid
