solid Подшипник-8х22мм-Вал-ШД
facet normal -0.0 -0.0 1.0
  outer loop
    vertex -2.8284271247461894 -2.8284271247461903 17.8
    vertex -2.5114071483515774 -0.6729295172665561 17.8
    vertex -2.6 0.0 17.8
  endloop
endfacet
facet normal -0.0 -0.0 1.0
  outer loop
    vertex -2.5114071483515774 -0.6729295172665561 17.8
    vertex -2.8284271247461894 -2.8284271247461903 17.8
    vertex -1.9999999999999984 -3.4641016151377544 17.8
  endloop
endfacet
facet normal -0.0 -0.0 1.0
  outer loop
    vertex -2.5114071483515774 -0.6729295172665561 17.8
    vertex -1.9999999999999984 -3.4641016151377544 17.8
    vertex -2.25166604983954 -1.3000000000000014 17.8
  endloop
endfacet
facet normal -0.0 -0.0 1.0
  outer loop
    vertex -2.25166604983954 -1.3000000000000014 17.8
    vertex -1.9999999999999984 -3.4641016151377544 17.8
    vertex -1.8384776310850233 -1.8384776310850242 17.8
  endloop
endfacet
facet normal -0.0 -0.0 1.0
  outer loop
    vertex -1.8384776310850233 -1.8384776310850242 17.8
    vertex -1.9999999999999984 -3.4641016151377544 17.8
    vertex -1.0352761804100823 -3.863703305156273 17.8
  endloop
endfacet
facet normal -0.0 -0.0 1.0
  outer loop
    vertex -1.8384776310850233 -1.8384776310850242 17.8
    vertex -1.0352761804100823 -3.863703305156273 17.8
    vertex -1.2999999999999983 -2.2516660498395416 17.8
  endloop
endfacet
facet normal -0.0 -0.0 1.0
  outer loop
    vertex -1.2999999999999983 -2.2516660498395416 17.8
    vertex -1.0352761804100823 -3.863703305156273 17.8
    vertex -0.6729295172665528 -2.511407148351578 17.8
  endloop
endfacet
facet normal -0.0 -0.0 1.0
  outer loop
    vertex -0.6729295172665528 -2.511407148351578 17.8
    vertex -1.0352761804100823 -3.863703305156273 17.8
    vertex 1.762479051592436e-16 -3.9999999999999996 17.8
  endloop
endfacet
facet normal -0.0 -0.0 1.0
  outer loop
    vertex -0.6729295172665528 -2.511407148351578 17.8
    vertex 1.762479051592436e-16 -3.9999999999999996 17.8
    vertex 4.776122516674678e-16 -2.6 17.8
  endloop
endfacet
facet normal -0.0 -0.0 1.0
  outer loop
    vertex 4.776122516674678e-16 -2.6 17.8
    vertex 1.762479051592436e-16 -3.9999999999999996 17.8
    vertex 1.0352761804100836 -3.863703305156273 17.8
  endloop
endfacet
facet normal -0.0 -0.0 1.0
  outer loop
    vertex 4.776122516674678e-16 -2.6 17.8
    vertex 1.0352761804100836 -3.863703305156273 17.8
    vertex 0.672929517266556 -2.5114071483515774 17.8
  endloop
endfacet
facet normal -0.0 -0.0 1.0
  outer loop
    vertex 0.672929517266556 -2.5114071483515774 17.8
    vertex 1.0352761804100836 -3.863703305156273 17.8
    vertex 1.3000000000000014 -2.25166604983954 17.8
  endloop
endfacet
facet normal -0.0 -0.0 1.0
  outer loop
    vertex 1.3000000000000014 -2.25166604983954 17.8
    vertex 1.0352761804100836 -3.863703305156273 17.8
    vertex 1.9999999999999998 -3.464101615137754 17.8
  endloop
endfacet
facet normal -0.0 -0.0 1.0
  outer loop
    vertex 1.3000000000000014 -2.25166604983954 17.8
    vertex 1.9999999999999998 -3.464101615137754 17.8
    vertex 1.8384776310850248 -1.8384776310850226 17.8
  endloop
endfacet
facet normal -0.0 -0.0 1.0
  outer loop
    vertex 1.8384776310850248 -1.8384776310850226 17.8
    vertex 1.9999999999999998 -3.464101615137754 17.8
    vertex 2.251666049839541 -1.2999999999999994 17.8
  endloop
endfacet
facet normal -0.0 -0.0 1.0
  outer loop
    vertex 2.251666049839541 -1.2999999999999994 17.8
    vertex 1.9999999999999998 -3.464101615137754 17.8
    vertex 2.82842712474619 -2.8284271247461903 17.8
  endloop
endfacet
facet normal -0.0 -0.0 1.0
  outer loop
    vertex 2.251666049839541 -1.2999999999999994 17.8
    vertex 2.82842712474619 -2.8284271247461903 17.8
    vertex 2.511407148351578 -0.6729295172665529 17.8
  endloop
endfacet
facet normal -0.0 -0.0 1.0
  outer loop
    vertex 2.511407148351578 -0.6729295172665529 17.8
    vertex 2.82842712474619 -2.8284271247461903 17.8
    vertex 2.6 3.1840816777831187e-16 17.8
  endloop
endfacet
facet normal -0.0 -0.0 1.0
  outer loop
    vertex 2.6 3.1840816777831187e-16 17.8
    vertex 2.82842712474619 -2.8284271247461903 17.8
    vertex 2.8284271247461885 2.8284271247461907 17.8
  endloop
endfacet
facet normal -0.0 -0.0 1.0
  outer loop
    vertex 2.8284271247461885 2.8284271247461907 17.8
    vertex 2.82842712474619 -2.8284271247461903 17.8
    vertex 3.4641016151377526 2.0000000000000018 17.8
  endloop
endfacet
facet normal -0.0 -0.0 1.0
  outer loop
    vertex 3.4641016151377526 2.0000000000000018 17.8
    vertex 2.82842712474619 -2.8284271247461903 17.8
    vertex 3.464101615137754 -1.9999999999999991 17.8
  endloop
endfacet
facet normal -0.0 -0.0 1.0
  outer loop
    vertex 3.4641016151377526 2.0000000000000018 17.8
    vertex 3.464101615137754 -1.9999999999999991 17.8
    vertex 3.8637033051562715 1.035276180410086 17.8
  endloop
endfacet
facet normal -0.0 -0.0 1.0
  outer loop
    vertex 3.8637033051562715 1.035276180410086 17.8
    vertex 3.464101615137754 -1.9999999999999991 17.8
    vertex 3.863703305156272 -1.0352761804100827 17.8
  endloop
endfacet
facet normal -0.0 -0.0 1.0
  outer loop
    vertex 3.8637033051562715 1.035276180410086 17.8
    vertex 3.863703305156272 -1.0352761804100827 17.8
    vertex 3.999999999999999 0.0 17.8
  endloop
endfacet
facet normal -0.0 -0.0 1.0
  outer loop
    vertex -3.863703305156272 -1.0352761804100843 17.8
    vertex -3.863703305156273 1.0352761804100814 17.8
    vertex -3.999999999999999 -5.287437154777307e-16 17.8
  endloop
endfacet
facet normal -0.0 -0.0 1.0
  outer loop
    vertex -3.863703305156273 1.0352761804100814 17.8
    vertex -3.863703305156272 -1.0352761804100843 17.8
    vertex -3.4641016151377544 1.999999999999999 17.8
  endloop
endfacet
facet normal -0.0 -0.0 1.0
  outer loop
    vertex -3.4641016151377544 1.999999999999999 17.8
    vertex -3.863703305156272 -1.0352761804100843 17.8
    vertex -3.464101615137753 -2.0000000000000013 17.8
  endloop
endfacet
facet normal -0.0 -0.0 1.0
  outer loop
    vertex -3.4641016151377544 1.999999999999999 17.8
    vertex -3.464101615137753 -2.0000000000000013 17.8
    vertex -2.8284271247461916 2.8284271247461885 17.8
  endloop
endfacet
facet normal -0.0 -0.0 1.0
  outer loop
    vertex -2.8284271247461916 2.8284271247461885 17.8
    vertex -3.464101615137753 -2.0000000000000013 17.8
    vertex -2.8284271247461894 -2.8284271247461903 17.8
  endloop
endfacet
facet normal -0.0 -0.0 1.0
  outer loop
    vertex -2.8284271247461916 2.8284271247461885 17.8
    vertex -2.8284271247461894 -2.8284271247461903 17.8
    vertex -2.6 0.0 17.8
  endloop
endfacet
facet normal -0.0 -0.0 1.0
  outer loop
    vertex -2.8284271247461916 2.8284271247461885 17.8
    vertex -2.6 0.0 17.8
    vertex -2.511407148351578 0.672929517266554 17.8
  endloop
endfacet
facet normal -0.0 -0.0 1.0
  outer loop
    vertex -2.8284271247461916 2.8284271247461885 17.8
    vertex -2.511407148351578 0.672929517266554 17.8
    vertex -2.0000000000000013 3.464101615137754 17.8
  endloop
endfacet
facet normal -0.0 -0.0 1.0
  outer loop
    vertex -2.0000000000000013 3.464101615137754 17.8
    vertex -2.511407148351578 0.672929517266554 17.8
    vertex -2.2516660498395407 1.2999999999999998 17.8
  endloop
endfacet
facet normal -0.0 -0.0 1.0
  outer loop
    vertex -2.0000000000000013 3.464101615137754 17.8
    vertex -2.2516660498395407 1.2999999999999998 17.8
    vertex -1.8384776310850237 1.8384776310850237 17.8
  endloop
endfacet
facet normal -0.0 -0.0 1.0
  outer loop
    vertex -2.0000000000000013 3.464101615137754 17.8
    vertex -1.8384776310850237 1.8384776310850237 17.8
    vertex -1.0352761804100858 3.863703305156272 17.8
  endloop
endfacet
facet normal -0.0 -0.0 1.0
  outer loop
    vertex -1.0352761804100858 3.863703305156272 17.8
    vertex -1.8384776310850237 1.8384776310850237 17.8
    vertex -1.3000000000000005 2.25166604983954 17.8
  endloop
endfacet
facet normal -0.0 -0.0 1.0
  outer loop
    vertex -1.0352761804100858 3.863703305156272 17.8
    vertex -1.3000000000000005 2.25166604983954 17.8
    vertex -0.6729295172665545 2.5114071483515774 17.8
  endloop
endfacet
facet normal -0.0 -0.0 1.0
  outer loop
    vertex -1.0352761804100858 3.863703305156272 17.8
    vertex -0.6729295172665545 2.5114071483515774 17.8
    vertex -7.049916206369744e-16 3.9999999999999996 17.8
  endloop
endfacet
facet normal -0.0 -0.0 1.0
  outer loop
    vertex -7.049916206369744e-16 3.9999999999999996 17.8
    vertex -0.6729295172665545 2.5114071483515774 17.8
    vertex -1.5920408388915593e-16 2.6 17.8
  endloop
endfacet
facet normal -0.0 -0.0 1.0
  outer loop
    vertex -7.049916206369744e-16 3.9999999999999996 17.8
    vertex -1.5920408388915593e-16 2.6 17.8
    vertex 1.035276180410081 3.8637033051562732 17.8
  endloop
endfacet
facet normal -0.0 -0.0 1.0
  outer loop
    vertex 1.035276180410081 3.8637033051562732 17.8
    vertex -1.5920408388915593e-16 2.6 17.8
    vertex 0.6729295172665537 2.511407148351578 17.8
  endloop
endfacet
facet normal -0.0 -0.0 1.0
  outer loop
    vertex 1.035276180410081 3.8637033051562732 17.8
    vertex 0.6729295172665537 2.511407148351578 17.8
    vertex 1.2999999999999996 2.2516660498395407 17.8
  endloop
endfacet
facet normal -0.0 -0.0 1.0
  outer loop
    vertex 1.035276180410081 3.8637033051562732 17.8
    vertex 1.2999999999999996 2.2516660498395407 17.8
    vertex 1.9999999999999967 3.464101615137756 17.8
  endloop
endfacet
facet normal -0.0 -0.0 1.0
  outer loop
    vertex 1.9999999999999967 3.464101615137756 17.8
    vertex 1.2999999999999996 2.2516660498395407 17.8
    vertex 1.8384776310850233 1.8384776310850237 17.8
  endloop
endfacet
facet normal -0.0 -0.0 1.0
  outer loop
    vertex 1.9999999999999967 3.464101615137756 17.8
    vertex 1.8384776310850233 1.8384776310850237 17.8
    vertex 2.25166604983954 1.300000000000001 17.8
  endloop
endfacet
facet normal -0.0 -0.0 1.0
  outer loop
    vertex 1.9999999999999967 3.464101615137756 17.8
    vertex 2.25166604983954 1.300000000000001 17.8
    vertex 2.8284271247461885 2.8284271247461907 17.8
  endloop
endfacet
facet normal -0.0 -0.0 1.0
  outer loop
    vertex 2.8284271247461885 2.8284271247461907 17.8
    vertex 2.25166604983954 1.300000000000001 17.8
    vertex 2.5114071483515774 0.6729295172665547 17.8
  endloop
endfacet
facet normal -0.0 -0.0 1.0
  outer loop
    vertex 2.8284271247461885 2.8284271247461907 17.8
    vertex 2.5114071483515774 0.6729295172665547 17.8
    vertex 2.6 3.1840816777831187e-16 17.8
  endloop
endfacet
facet normal 0.1305261922200513 0.9914448613738105 -0.0
  outer loop
    vertex -7.049916206369744e-16 3.9999999999999996 17.8
    vertex 1.035276180410081 3.8637033051562732 8.8
    vertex -7.049916206369744e-16 3.9999999999999996 8.8
  endloop
endfacet
facet normal 0.1305261922200513 0.9914448613738105 -0.0
  outer loop
    vertex 1.035276180410081 3.8637033051562732 8.8
    vertex -7.049916206369744e-16 3.9999999999999996 17.8
    vertex 1.035276180410081 3.8637033051562732 17.8
  endloop
endfacet
facet normal -0.13052619222005218 0.9914448613738105 -0.0
  outer loop
    vertex -1.0352761804100858 3.863703305156272 17.8
    vertex -7.049916206369744e-16 3.9999999999999996 8.8
    vertex -1.0352761804100858 3.863703305156272 8.8
  endloop
endfacet
facet normal -0.13052619222005218 0.9914448613738105 -0.0
  outer loop
    vertex -7.049916206369744e-16 3.9999999999999996 8.8
    vertex -1.0352761804100858 3.863703305156272 17.8
    vertex -7.049916206369744e-16 3.9999999999999996 17.8
  endloop
endfacet
facet normal -0.38268343236509006 0.9238795325112867 -0.0
  outer loop
    vertex -2.0000000000000013 3.464101615137754 17.8
    vertex -1.0352761804100858 3.863703305156272 8.8
    vertex -2.0000000000000013 3.464101615137754 8.8
  endloop
endfacet
facet normal -0.38268343236509006 0.9238795325112867 -0.0
  outer loop
    vertex -1.0352761804100858 3.863703305156272 8.8
    vertex -2.0000000000000013 3.464101615137754 17.8
    vertex -1.0352761804100858 3.863703305156272 17.8
  endloop
endfacet
facet normal -0.608761429008721 0.7933533402912349 -0.0
  outer loop
    vertex -2.8284271247461916 2.8284271247461885 17.8
    vertex -2.0000000000000013 3.464101615137754 8.8
    vertex -2.8284271247461916 2.8284271247461885 8.8
  endloop
endfacet
facet normal -0.608761429008721 0.7933533402912349 -0.0
  outer loop
    vertex -2.0000000000000013 3.464101615137754 8.8
    vertex -2.8284271247461916 2.8284271247461885 17.8
    vertex -2.0000000000000013 3.464101615137754 17.8
  endloop
endfacet
facet normal -0.7933533402912358 0.6087614290087199 0.0
  outer loop
    vertex -2.8284271247461916 2.8284271247461885 17.8
    vertex -3.4641016151377544 1.999999999999999 8.8
    vertex -3.4641016151377544 1.999999999999999 17.8
  endloop
endfacet
facet normal -0.7933533402912358 0.6087614290087199 0.0
  outer loop
    vertex -3.4641016151377544 1.999999999999999 8.8
    vertex -2.8284271247461916 2.8284271247461885 17.8
    vertex -2.8284271247461916 2.8284271247461885 8.8
  endloop
endfacet
facet normal -0.9238795325112871 0.3826834323650893 0.0
  outer loop
    vertex -3.4641016151377544 1.999999999999999 17.8
    vertex -3.863703305156273 1.0352761804100814 8.8
    vertex -3.863703305156273 1.0352761804100814 17.8
  endloop
endfacet
facet normal -0.9238795325112871 0.3826834323650893 0.0
  outer loop
    vertex -3.863703305156273 1.0352761804100814 8.8
    vertex -3.4641016151377544 1.999999999999999 17.8
    vertex -3.4641016151377544 1.999999999999999 8.8
  endloop
endfacet
facet normal -0.9914448613738105 0.13052619222005124 0.0
  outer loop
    vertex -3.863703305156273 1.0352761804100814 17.8
    vertex -3.999999999999999 -5.287437154777307e-16 8.8
    vertex -3.999999999999999 -5.287437154777307e-16 17.8
  endloop
endfacet
facet normal -0.9914448613738105 0.13052619222005124 0.0
  outer loop
    vertex -3.999999999999999 -5.287437154777307e-16 8.8
    vertex -3.863703305156273 1.0352761804100814 17.8
    vertex -3.863703305156273 1.0352761804100814 8.8
  endloop
endfacet
facet normal -0.9914448613738105 -0.13052619222005166 0.0
  outer loop
    vertex -3.999999999999999 -5.287437154777307e-16 17.8
    vertex -3.863703305156272 -1.0352761804100843 8.8
    vertex -3.863703305156272 -1.0352761804100843 17.8
  endloop
endfacet
facet normal -0.9914448613738105 -0.13052619222005166 0.0
  outer loop
    vertex -3.863703305156272 -1.0352761804100843 8.8
    vertex -3.999999999999999 -5.287437154777307e-16 17.8
    vertex -3.999999999999999 -5.287437154777307e-16 8.8
  endloop
endfacet
facet normal -0.9238795325112867 -0.38268343236509006 0.0
  outer loop
    vertex -3.863703305156272 -1.0352761804100843 17.8
    vertex -3.464101615137753 -2.0000000000000013 8.8
    vertex -3.464101615137753 -2.0000000000000013 17.8
  endloop
endfacet
facet normal -0.9238795325112867 -0.38268343236509006 0.0
  outer loop
    vertex -3.464101615137753 -2.0000000000000013 8.8
    vertex -3.863703305156272 -1.0352761804100843 17.8
    vertex -3.863703305156272 -1.0352761804100843 8.8
  endloop
endfacet
facet normal -0.7933533402912352 -0.6087614290087208 0.0
  outer loop
    vertex -3.464101615137753 -2.0000000000000013 17.8
    vertex -2.8284271247461894 -2.8284271247461903 8.8
    vertex -2.8284271247461894 -2.8284271247461903 17.8
  endloop
endfacet
facet normal -0.7933533402912352 -0.6087614290087208 0.0
  outer loop
    vertex -2.8284271247461894 -2.8284271247461903 8.8
    vertex -3.464101615137753 -2.0000000000000013 17.8
    vertex -3.464101615137753 -2.0000000000000013 8.8
  endloop
endfacet
facet normal -0.6087614290087202 -0.7933533402912357 0.0
  outer loop
    vertex -1.9999999999999984 -3.4641016151377544 17.8
    vertex -2.8284271247461894 -2.8284271247461903 8.8
    vertex -1.9999999999999984 -3.4641016151377544 8.8
  endloop
endfacet
facet normal -0.6087614290087202 -0.7933533402912357 0.0
  outer loop
    vertex -2.8284271247461894 -2.8284271247461903 8.8
    vertex -1.9999999999999984 -3.4641016151377544 17.8
    vertex -2.8284271247461894 -2.8284271247461903 17.8
  endloop
endfacet
facet normal -0.3826834323650898 -0.923879532511287 0.0
  outer loop
    vertex -1.0352761804100823 -3.863703305156273 17.8
    vertex -1.9999999999999984 -3.4641016151377544 8.8
    vertex -1.0352761804100823 -3.863703305156273 8.8
  endloop
endfacet
facet normal -0.3826834323650898 -0.923879532511287 0.0
  outer loop
    vertex -1.9999999999999984 -3.4641016151377544 8.8
    vertex -1.0352761804100823 -3.863703305156273 17.8
    vertex -1.9999999999999984 -3.4641016151377544 17.8
  endloop
endfacet
facet normal -0.13052619222005182 -0.9914448613738105 0.0
  outer loop
    vertex 1.762479051592436e-16 -3.9999999999999996 17.8
    vertex -1.0352761804100823 -3.863703305156273 8.8
    vertex 1.762479051592436e-16 -3.9999999999999996 8.8
  endloop
endfacet
facet normal -0.13052619222005182 -0.9914448613738105 0.0
  outer loop
    vertex -1.0352761804100823 -3.863703305156273 8.8
    vertex 1.762479051592436e-16 -3.9999999999999996 17.8
    vertex -1.0352761804100823 -3.863703305156273 17.8
  endloop
endfacet
facet normal 0.13052619222005168 -0.9914448613738105 0.0
  outer loop
    vertex 1.0352761804100836 -3.863703305156273 17.8
    vertex 1.762479051592436e-16 -3.9999999999999996 8.8
    vertex 1.0352761804100836 -3.863703305156273 8.8
  endloop
endfacet
facet normal 0.13052619222005168 -0.9914448613738105 0.0
  outer loop
    vertex 1.762479051592436e-16 -3.9999999999999996 8.8
    vertex 1.0352761804100836 -3.863703305156273 17.8
    vertex 1.762479051592436e-16 -3.9999999999999996 17.8
  endloop
endfacet
facet normal 0.38268343236509034 -0.9238795325112865 0.0
  outer loop
    vertex 1.9999999999999998 -3.464101615137754 17.8
    vertex 1.0352761804100836 -3.863703305156273 8.8
    vertex 1.9999999999999998 -3.464101615137754 8.8
  endloop
endfacet
facet normal 0.38268343236509034 -0.9238795325112865 0.0
  outer loop
    vertex 1.0352761804100836 -3.863703305156273 8.8
    vertex 1.9999999999999998 -3.464101615137754 17.8
    vertex 1.0352761804100836 -3.863703305156273 17.8
  endloop
endfacet
facet normal 0.6087614290087203 -0.7933533402912356 0.0
  outer loop
    vertex 2.82842712474619 -2.8284271247461903 17.8
    vertex 1.9999999999999998 -3.464101615137754 8.8
    vertex 2.82842712474619 -2.8284271247461903 8.8
  endloop
endfacet
facet normal 0.6087614290087203 -0.7933533402912356 0.0
  outer loop
    vertex 1.9999999999999998 -3.464101615137754 8.8
    vertex 2.82842712474619 -2.8284271247461903 17.8
    vertex 1.9999999999999998 -3.464101615137754 17.8
  endloop
endfacet
facet normal 0.7933533402912357 -0.60876142900872 -0.0
  outer loop
    vertex 3.464101615137754 -1.9999999999999991 8.8
    vertex 2.82842712474619 -2.8284271247461903 17.8
    vertex 2.82842712474619 -2.8284271247461903 8.8
  endloop
endfacet
facet normal 0.7933533402912357 -0.60876142900872 -0.0
  outer loop
    vertex 2.82842712474619 -2.8284271247461903 17.8
    vertex 3.464101615137754 -1.9999999999999991 8.8
    vertex 3.464101615137754 -1.9999999999999991 17.8
  endloop
endfacet
facet normal 0.9238795325112868 -0.38268343236508967 -0.0
  outer loop
    vertex 3.863703305156272 -1.0352761804100827 8.8
    vertex 3.464101615137754 -1.9999999999999991 17.8
    vertex 3.464101615137754 -1.9999999999999991 8.8
  endloop
endfacet
facet normal 0.9238795325112868 -0.38268343236508967 -0.0
  outer loop
    vertex 3.464101615137754 -1.9999999999999991 17.8
    vertex 3.863703305156272 -1.0352761804100827 8.8
    vertex 3.863703305156272 -1.0352761804100827 17.8
  endloop
endfacet
facet normal 0.9914448613738105 -0.13052619222005177 -0.0
  outer loop
    vertex 3.999999999999999 0.0 8.8
    vertex 3.863703305156272 -1.0352761804100827 17.8
    vertex 3.863703305156272 -1.0352761804100827 8.8
  endloop
endfacet
facet normal 0.9914448613738105 -0.13052619222005177 -0.0
  outer loop
    vertex 3.863703305156272 -1.0352761804100827 17.8
    vertex 3.999999999999999 0.0 8.8
    vertex 3.999999999999999 0.0 17.8
  endloop
endfacet
facet normal 0.9914448613738105 0.13052619222005205 -0.0
  outer loop
    vertex 3.8637033051562715 1.035276180410086 8.8
    vertex 3.999999999999999 0.0 17.8
    vertex 3.999999999999999 0.0 8.8
  endloop
endfacet
facet normal 0.9914448613738105 0.13052619222005205 -0.0
  outer loop
    vertex 3.999999999999999 0.0 17.8
    vertex 3.8637033051562715 1.035276180410086 8.8
    vertex 3.8637033051562715 1.035276180410086 17.8
  endloop
endfacet
facet normal 0.9238795325112865 0.38268343236509056 -0.0
  outer loop
    vertex 3.4641016151377526 2.0000000000000018 8.8
    vertex 3.8637033051562715 1.035276180410086 17.8
    vertex 3.8637033051562715 1.035276180410086 8.8
  endloop
endfacet
facet normal 0.9238795325112865 0.38268343236509056 -0.0
  outer loop
    vertex 3.8637033051562715 1.035276180410086 17.8
    vertex 3.4641016151377526 2.0000000000000018 8.8
    vertex 3.4641016151377526 2.0000000000000018 17.8
  endloop
endfacet
facet normal 0.7933533402912354 0.6087614290087207 -0.0
  outer loop
    vertex 2.8284271247461885 2.8284271247461907 8.8
    vertex 3.4641016151377526 2.0000000000000018 17.8
    vertex 3.4641016151377526 2.0000000000000018 8.8
  endloop
endfacet
facet normal 0.7933533402912354 0.6087614290087207 -0.0
  outer loop
    vertex 3.4641016151377526 2.0000000000000018 17.8
    vertex 2.8284271247461885 2.8284271247461907 8.8
    vertex 2.8284271247461885 2.8284271247461907 17.8
  endloop
endfacet
facet normal 0.6087614290087202 0.7933533402912357 -0.0
  outer loop
    vertex 1.9999999999999967 3.464101615137756 17.8
    vertex 2.8284271247461885 2.8284271247461907 8.8
    vertex 1.9999999999999967 3.464101615137756 8.8
  endloop
endfacet
facet normal 0.6087614290087202 0.7933533402912357 -0.0
  outer loop
    vertex 2.8284271247461885 2.8284271247461907 8.8
    vertex 1.9999999999999967 3.464101615137756 17.8
    vertex 2.8284271247461885 2.8284271247461907 17.8
  endloop
endfacet
facet normal 0.38268343236508934 0.9238795325112871 -0.0
  outer loop
    vertex 1.035276180410081 3.8637033051562732 17.8
    vertex 1.9999999999999967 3.464101615137756 8.8
    vertex 1.035276180410081 3.8637033051562732 8.8
  endloop
endfacet
facet normal 0.38268343236508934 0.9238795325112871 -0.0
  outer loop
    vertex 1.9999999999999967 3.464101615137756 8.8
    vertex 1.035276180410081 3.8637033051562732 17.8
    vertex 1.9999999999999967 3.464101615137756 17.8
  endloop
endfacet
facet normal -0.0 -0.0 1.0
  outer loop
    vertex -5.795554957734422 -1.5529142706151275 8.8
    vertex -5.795554957734421 1.5529142706151282 8.8
    vertex -6.000000000000012 0.0 8.8
  endloop
endfacet
facet normal -0.0 -0.0 1.0
  outer loop
    vertex -5.795554957734421 1.5529142706151282 8.8
    vertex -5.795554957734422 -1.5529142706151275 8.8
    vertex -5.196152422706643 -3.000000000000005 8.8
  endloop
endfacet
facet normal -0.0 -0.0 1.0
  outer loop
    vertex -5.795554957734421 1.5529142706151282 8.8
    vertex -5.196152422706643 -3.000000000000005 8.8
    vertex -5.196152422706642 3.0000000000000058 8.8
  endloop
endfacet
facet normal -0.0 -0.0 1.0
  outer loop
    vertex -5.196152422706642 3.0000000000000058 8.8
    vertex -5.196152422706643 -3.000000000000005 8.8
    vertex -4.242640687119295 -4.242640687119292 8.8
  endloop
endfacet
facet normal -0.0 -0.0 1.0
  outer loop
    vertex -5.196152422706642 3.0000000000000058 8.8
    vertex -4.242640687119295 -4.242640687119292 8.8
    vertex -4.242640687119285 4.242640687119302 8.8
  endloop
endfacet
facet normal -0.0 -0.0 1.0
  outer loop
    vertex -4.242640687119285 4.242640687119302 8.8
    vertex -4.242640687119295 -4.242640687119292 8.8
    vertex -3.999999999999999 -5.287437154777307e-16 8.8
  endloop
endfacet
facet normal -0.0 -0.0 1.0
  outer loop
    vertex -3.999999999999999 -5.287437154777307e-16 8.8
    vertex -4.242640687119295 -4.242640687119292 8.8
    vertex -3.863703305156272 -1.0352761804100843 8.8
  endloop
endfacet
facet normal -0.0 -0.0 1.0
  outer loop
    vertex -3.863703305156272 -1.0352761804100843 8.8
    vertex -4.242640687119295 -4.242640687119292 8.8
    vertex -3.000000000000008 -5.196152422706642 8.8
  endloop
endfacet
facet normal -0.0 -0.0 1.0
  outer loop
    vertex -3.863703305156272 -1.0352761804100843 8.8
    vertex -3.000000000000008 -5.196152422706642 8.8
    vertex -3.464101615137753 -2.0000000000000013 8.8
  endloop
endfacet
facet normal -0.0 -0.0 1.0
  outer loop
    vertex -3.464101615137753 -2.0000000000000013 8.8
    vertex -3.000000000000008 -5.196152422706642 8.8
    vertex -2.8284271247461894 -2.8284271247461903 8.8
  endloop
endfacet
facet normal -0.0 -0.0 1.0
  outer loop
    vertex -2.8284271247461894 -2.8284271247461903 8.8
    vertex -3.000000000000008 -5.196152422706642 8.8
    vertex -1.5529142706151289 -5.795554957734421 8.8
  endloop
endfacet
facet normal -0.0 -0.0 1.0
  outer loop
    vertex -2.8284271247461894 -2.8284271247461903 8.8
    vertex -1.5529142706151289 -5.795554957734421 8.8
    vertex -1.9999999999999984 -3.4641016151377544 8.8
  endloop
endfacet
facet normal -0.0 -0.0 1.0
  outer loop
    vertex -1.9999999999999984 -3.4641016151377544 8.8
    vertex -1.5529142706151289 -5.795554957734421 8.8
    vertex -1.0352761804100823 -3.863703305156273 8.8
  endloop
endfacet
facet normal -0.0 -0.0 1.0
  outer loop
    vertex -1.0352761804100823 -3.863703305156273 8.8
    vertex -1.5529142706151289 -5.795554957734421 8.8
    vertex -3.524958103184872e-16 -6.0000000000000115 8.8
  endloop
endfacet
facet normal -0.0 -0.0 1.0
  outer loop
    vertex -1.0352761804100823 -3.863703305156273 8.8
    vertex -3.524958103184872e-16 -6.0000000000000115 8.8
    vertex 1.762479051592436e-16 -3.9999999999999996 8.8
  endloop
endfacet
facet normal -0.0 -0.0 1.0
  outer loop
    vertex 1.762479051592436e-16 -3.9999999999999996 8.8
    vertex -3.524958103184872e-16 -6.0000000000000115 8.8
    vertex 1.5529142706151282 -5.795554957734421 8.8
  endloop
endfacet
facet normal -0.0 -0.0 1.0
  outer loop
    vertex 1.762479051592436e-16 -3.9999999999999996 8.8
    vertex 1.5529142706151282 -5.795554957734421 8.8
    vertex 1.0352761804100836 -3.863703305156273 8.8
  endloop
endfacet
facet normal -0.0 -0.0 1.0
  outer loop
    vertex 1.0352761804100836 -3.863703305156273 8.8
    vertex 1.5529142706151282 -5.795554957734421 8.8
    vertex 1.9999999999999998 -3.464101615137754 8.8
  endloop
endfacet
facet normal -0.0 -0.0 1.0
  outer loop
    vertex 1.9999999999999998 -3.464101615137754 8.8
    vertex 1.5529142706151282 -5.795554957734421 8.8
    vertex 3.0000000000000067 -5.196152422706642 8.8
  endloop
endfacet
facet normal -0.0 -0.0 1.0
  outer loop
    vertex 1.9999999999999998 -3.464101615137754 8.8
    vertex 3.0000000000000067 -5.196152422706642 8.8
    vertex 2.82842712474619 -2.8284271247461903 8.8
  endloop
endfacet
facet normal -0.0 -0.0 1.0
  outer loop
    vertex 2.82842712474619 -2.8284271247461903 8.8
    vertex 3.0000000000000067 -5.196152422706642 8.8
    vertex 3.464101615137754 -1.9999999999999991 8.8
  endloop
endfacet
facet normal -0.0 -0.0 1.0
  outer loop
    vertex 3.464101615137754 -1.9999999999999991 8.8
    vertex 3.0000000000000067 -5.196152422706642 8.8
    vertex 4.242640687119295 -4.242640687119292 8.8
  endloop
endfacet
facet normal -0.0 -0.0 1.0
  outer loop
    vertex 3.464101615137754 -1.9999999999999991 8.8
    vertex 4.242640687119295 -4.242640687119292 8.8
    vertex 3.863703305156272 -1.0352761804100827 8.8
  endloop
endfacet
facet normal -0.0 -0.0 1.0
  outer loop
    vertex 3.863703305156272 -1.0352761804100827 8.8
    vertex 4.242640687119295 -4.242640687119292 8.8
    vertex 3.999999999999999 0.0 8.8
  endloop
endfacet
facet normal -0.0 -0.0 1.0
  outer loop
    vertex 3.999999999999999 0.0 8.8
    vertex 4.242640687119295 -4.242640687119292 8.8
    vertex 4.2426406871192945 4.242640687119293 8.8
  endloop
endfacet
facet normal -0.0 -0.0 1.0
  outer loop
    vertex 4.2426406871192945 4.242640687119293 8.8
    vertex 4.242640687119295 -4.242640687119292 8.8
    vertex 5.196152422706642 3.0000000000000067 8.8
  endloop
endfacet
facet normal -0.0 -0.0 1.0
  outer loop
    vertex 5.196152422706642 3.0000000000000067 8.8
    vertex 4.242640687119295 -4.242640687119292 8.8
    vertex 5.196152422706644 -3.000000000000004 8.8
  endloop
endfacet
facet normal -0.0 -0.0 1.0
  outer loop
    vertex 5.196152422706642 3.0000000000000067 8.8
    vertex 5.196152422706644 -3.000000000000004 8.8
    vertex 5.795554957734421 1.5529142706151302 8.8
  endloop
endfacet
facet normal -0.0 -0.0 1.0
  outer loop
    vertex 5.795554957734421 1.5529142706151302 8.8
    vertex 5.196152422706644 -3.000000000000004 8.8
    vertex 5.7955549577344225 -1.552914270615124 8.8
  endloop
endfacet
facet normal -0.0 -0.0 1.0
  outer loop
    vertex 5.795554957734421 1.5529142706151302 8.8
    vertex 5.7955549577344225 -1.552914270615124 8.8
    vertex 6.0000000000000115 4.229949723821846e-15 8.8
  endloop
endfacet
facet normal -0.0 -0.0 1.0
  outer loop
    vertex -4.242640687119285 4.242640687119302 8.8
    vertex -3.863703305156273 1.0352761804100814 8.8
    vertex -2.9999999999999973 5.196152422706648 8.8
  endloop
endfacet
facet normal -0.0 -0.0 1.0
  outer loop
    vertex -3.863703305156273 1.0352761804100814 8.8
    vertex -4.242640687119285 4.242640687119302 8.8
    vertex -3.999999999999999 -5.287437154777307e-16 8.8
  endloop
endfacet
facet normal -0.0 -0.0 1.0
  outer loop
    vertex -2.9999999999999973 5.196152422706648 8.8
    vertex -3.863703305156273 1.0352761804100814 8.8
    vertex -3.4641016151377544 1.999999999999999 8.8
  endloop
endfacet
facet normal -0.0 -0.0 1.0
  outer loop
    vertex -2.9999999999999973 5.196152422706648 8.8
    vertex -3.4641016151377544 1.999999999999999 8.8
    vertex -2.8284271247461916 2.8284271247461885 8.8
  endloop
endfacet
facet normal -0.0 -0.0 1.0
  outer loop
    vertex -2.9999999999999973 5.196152422706648 8.8
    vertex -2.8284271247461916 2.8284271247461885 8.8
    vertex -1.5529142706151198 5.795554957734424 8.8
  endloop
endfacet
facet normal -0.0 -0.0 1.0
  outer loop
    vertex -1.5529142706151198 5.795554957734424 8.8
    vertex -2.8284271247461916 2.8284271247461885 8.8
    vertex -2.0000000000000013 3.464101615137754 8.8
  endloop
endfacet
facet normal -0.0 -0.0 1.0
  outer loop
    vertex -1.5529142706151198 5.795554957734424 8.8
    vertex -2.0000000000000013 3.464101615137754 8.8
    vertex -1.0352761804100858 3.863703305156272 8.8
  endloop
endfacet
facet normal -0.0 -0.0 1.0
  outer loop
    vertex -1.5529142706151198 5.795554957734424 8.8
    vertex -1.0352761804100858 3.863703305156272 8.8
    vertex 6.697420396051256e-15 6.000000000000013 8.8
  endloop
endfacet
facet normal -0.0 -0.0 1.0
  outer loop
    vertex 6.697420396051256e-15 6.000000000000013 8.8
    vertex -1.0352761804100858 3.863703305156272 8.8
    vertex -7.049916206369744e-16 3.9999999999999996 8.8
  endloop
endfacet
facet normal -0.0 -0.0 1.0
  outer loop
    vertex 6.697420396051256e-15 6.000000000000013 8.8
    vertex -7.049916206369744e-16 3.9999999999999996 8.8
    vertex 1.035276180410081 3.8637033051562732 8.8
  endloop
endfacet
facet normal -0.0 -0.0 1.0
  outer loop
    vertex 6.697420396051256e-15 6.000000000000013 8.8
    vertex 1.035276180410081 3.8637033051562732 8.8
    vertex 1.552914270615132 5.79555495773442 8.8
  endloop
endfacet
facet normal -0.0 -0.0 1.0
  outer loop
    vertex 1.552914270615132 5.79555495773442 8.8
    vertex 1.035276180410081 3.8637033051562732 8.8
    vertex 1.9999999999999967 3.464101615137756 8.8
  endloop
endfacet
facet normal -0.0 -0.0 1.0
  outer loop
    vertex 1.552914270615132 5.79555495773442 8.8
    vertex 1.9999999999999967 3.464101615137756 8.8
    vertex 3.0000000000000084 5.196152422706641 8.8
  endloop
endfacet
facet normal -0.0 -0.0 1.0
  outer loop
    vertex 3.0000000000000084 5.196152422706641 8.8
    vertex 1.9999999999999967 3.464101615137756 8.8
    vertex 2.8284271247461885 2.8284271247461907 8.8
  endloop
endfacet
facet normal -0.0 -0.0 1.0
  outer loop
    vertex 3.0000000000000084 5.196152422706641 8.8
    vertex 2.8284271247461885 2.8284271247461907 8.8
    vertex 3.4641016151377526 2.0000000000000018 8.8
  endloop
endfacet
facet normal -0.0 -0.0 1.0
  outer loop
    vertex 3.0000000000000084 5.196152422706641 8.8
    vertex 3.4641016151377526 2.0000000000000018 8.8
    vertex 4.2426406871192945 4.242640687119293 8.8
  endloop
endfacet
facet normal -0.0 -0.0 1.0
  outer loop
    vertex 4.2426406871192945 4.242640687119293 8.8
    vertex 3.4641016151377526 2.0000000000000018 8.8
    vertex 3.8637033051562715 1.035276180410086 8.8
  endloop
endfacet
facet normal -0.0 -0.0 1.0
  outer loop
    vertex 4.2426406871192945 4.242640687119293 8.8
    vertex 3.8637033051562715 1.035276180410086 8.8
    vertex 3.999999999999999 0.0 8.8
  endloop
endfacet
facet normal 0.0 0.0 -1.0
  outer loop
    vertex -3.960295887785179 1.061158084920336 7.999999999999999
    vertex -3.96029588778518 -1.0611580849203344 7.999999999999999
    vertex -4.1 2.5105259382520737e-16 7.999999999999999
  endloop
endfacet
facet normal 0.0 0.0 -1.0
  outer loop
    vertex -3.96029588778518 -1.0611580849203344 7.999999999999999
    vertex -3.960295887785179 1.061158084920336 7.999999999999999
    vertex -3.5507041555161982 -2.0499999999999985 7.999999999999999
  endloop
endfacet
facet normal 0.0 0.0 -1.0
  outer loop
    vertex -3.5507041555161982 -2.0499999999999985 7.999999999999999
    vertex -3.960295887785179 1.061158084920336 7.999999999999999
    vertex -3.5507041555161982 2.0500000000000003 7.999999999999999
  endloop
endfacet
facet normal 0.0 0.0 -1.0
  outer loop
    vertex -3.5507041555161982 -2.0499999999999985 7.999999999999999
    vertex -3.5507041555161982 2.0500000000000003 7.999999999999999
    vertex -2.899137802864845 2.899137802864845 7.999999999999999
  endloop
endfacet
facet normal 0.0 0.0 -1.0
  outer loop
    vertex -3.5507041555161982 -2.0499999999999985 7.999999999999999
    vertex -2.899137802864845 2.899137802864845 7.999999999999999
    vertex -2.899137802864845 -2.899137802864844 7.999999999999999
  endloop
endfacet
facet normal 0.0 0.0 -1.0
  outer loop
    vertex -2.899137802864845 -2.899137802864844 7.999999999999999
    vertex -2.899137802864845 2.899137802864845 7.999999999999999
    vertex -2.6 0.0 7.999999999999985
  endloop
endfacet
facet normal 0.0 0.0 -1.0
  outer loop
    vertex -2.6 0.0 7.999999999999985
    vertex -2.899137802864845 2.899137802864845 7.999999999999999
    vertex -2.511407148351578 0.672929517266554 7.999999999999985
  endloop
endfacet
facet normal 0.0 0.0 -1.0
  outer loop
    vertex -2.511407148351578 0.672929517266554 7.999999999999985
    vertex -2.899137802864845 2.899137802864845 7.999999999999999
    vertex -2.0499999999999994 3.5507041555161982 7.999999999999999
  endloop
endfacet
facet normal 0.0 0.0 -1.0
  outer loop
    vertex -2.511407148351578 0.672929517266554 7.999999999999985
    vertex -2.0499999999999994 3.5507041555161982 7.999999999999999
    vertex -2.2516660498395407 1.2999999999999998 7.999999999999985
  endloop
endfacet
facet normal 0.0 0.0 -1.0
  outer loop
    vertex -2.2516660498395407 1.2999999999999998 7.999999999999985
    vertex -2.0499999999999994 3.5507041555161982 7.999999999999999
    vertex -1.8384776310850237 1.8384776310850237 7.999999999999985
  endloop
endfacet
facet normal 0.0 0.0 -1.0
  outer loop
    vertex -1.8384776310850237 1.8384776310850237 7.999999999999985
    vertex -2.0499999999999994 3.5507041555161982 7.999999999999999
    vertex -1.061158084920335 3.96029588778518 7.999999999999999
  endloop
endfacet
facet normal 0.0 0.0 -1.0
  outer loop
    vertex -1.8384776310850237 1.8384776310850237 7.999999999999985
    vertex -1.061158084920335 3.96029588778518 7.999999999999999
    vertex -1.3000000000000005 2.25166604983954 7.999999999999985
  endloop
endfacet
facet normal 0.0 0.0 -1.0
  outer loop
    vertex -1.3000000000000005 2.25166604983954 7.999999999999985
    vertex -1.061158084920335 3.96029588778518 7.999999999999999
    vertex -0.6729295172665545 2.5114071483515774 7.999999999999985
  endloop
endfacet
facet normal 0.0 0.0 -1.0
  outer loop
    vertex -0.6729295172665545 2.5114071483515774 7.999999999999985
    vertex -1.061158084920335 3.96029588778518 7.999999999999999
    vertex 0.0 4.1 7.999999999999999
  endloop
endfacet
facet normal 0.0 0.0 -1.0
  outer loop
    vertex -0.6729295172665545 2.5114071483515774 7.999999999999985
    vertex 0.0 4.1 7.999999999999999
    vertex -1.5920408388915593e-16 2.6 7.999999999999985
  endloop
endfacet
facet normal 0.0 0.0 -1.0
  outer loop
    vertex -1.5920408388915593e-16 2.6 7.999999999999985
    vertex 0.0 4.1 7.999999999999999
    vertex 0.6729295172665537 2.511407148351578 7.999999999999985
  endloop
endfacet
facet normal 0.0 0.0 -1.0
  outer loop
    vertex 0.6729295172665537 2.511407148351578 7.999999999999985
    vertex 0.0 4.1 7.999999999999999
    vertex 1.0611580849203384 3.960295887785179 7.999999999999999
  endloop
endfacet
facet normal 0.0 0.0 -1.0
  outer loop
    vertex 0.6729295172665537 2.511407148351578 7.999999999999985
    vertex 1.0611580849203384 3.960295887785179 7.999999999999999
    vertex 1.2999999999999996 2.2516660498395407 7.999999999999985
  endloop
endfacet
facet normal 0.0 0.0 -1.0
  outer loop
    vertex 1.2999999999999996 2.2516660498395407 7.999999999999985
    vertex 1.0611580849203384 3.960295887785179 7.999999999999999
    vertex 2.0500000000000016 3.5507041555161964 7.999999999999999
  endloop
endfacet
facet normal 0.0 0.0 -1.0
  outer loop
    vertex 1.2999999999999996 2.2516660498395407 7.999999999999985
    vertex 2.0500000000000016 3.5507041555161964 7.999999999999999
    vertex 1.8384776310850233 1.8384776310850237 7.999999999999985
  endloop
endfacet
facet normal 0.0 0.0 -1.0
  outer loop
    vertex 1.8384776310850233 1.8384776310850237 7.999999999999985
    vertex 2.0500000000000016 3.5507041555161964 7.999999999999999
    vertex 2.25166604983954 1.300000000000001 7.999999999999985
  endloop
endfacet
facet normal 0.0 0.0 -1.0
  outer loop
    vertex 2.25166604983954 1.300000000000001 7.999999999999985
    vertex 2.0500000000000016 3.5507041555161964 7.999999999999999
    vertex 2.8991378028648453 2.8991378028648436 7.999999999999999
  endloop
endfacet
facet normal 0.0 0.0 -1.0
  outer loop
    vertex 2.25166604983954 1.300000000000001 7.999999999999985
    vertex 2.8991378028648453 2.8991378028648436 7.999999999999999
    vertex 2.5114071483515774 0.6729295172665547 7.999999999999985
  endloop
endfacet
facet normal 0.0 0.0 -1.0
  outer loop
    vertex 2.5114071483515774 0.6729295172665547 7.999999999999985
    vertex 2.8991378028648453 2.8991378028648436 7.999999999999999
    vertex 2.6 3.1840816777831187e-16 7.999999999999985
  endloop
endfacet
facet normal 0.0 0.0 -1.0
  outer loop
    vertex 2.6 3.1840816777831187e-16 7.999999999999985
    vertex 2.8991378028648453 2.8991378028648436 7.999999999999999
    vertex 2.899137802864843 -2.8991378028648462 7.999999999999999
  endloop
endfacet
facet normal 0.0 0.0 -1.0
  outer loop
    vertex 2.899137802864843 -2.8991378028648462 7.999999999999999
    vertex 2.8991378028648453 2.8991378028648436 7.999999999999999
    vertex 3.5507041555161973 -2.0500000000000016 7.999999999999999
  endloop
endfacet
facet normal 0.0 0.0 -1.0
  outer loop
    vertex 3.5507041555161973 -2.0500000000000016 7.999999999999999
    vertex 2.8991378028648453 2.8991378028648436 7.999999999999999
    vertex 3.5507041555161996 2.049999999999997 7.999999999999999
  endloop
endfacet
facet normal 0.0 0.0 -1.0
  outer loop
    vertex 3.5507041555161973 -2.0500000000000016 7.999999999999999
    vertex 3.5507041555161996 2.049999999999997 7.999999999999999
    vertex 3.960295887785179 -1.0611580849203381 7.999999999999999
  endloop
endfacet
facet normal 0.0 0.0 -1.0
  outer loop
    vertex 3.960295887785179 -1.0611580849203381 7.999999999999999
    vertex 3.5507041555161996 2.049999999999997 7.999999999999999
    vertex 3.96029588778518 1.061158084920333 7.999999999999999
  endloop
endfacet
facet normal 0.0 0.0 -1.0
  outer loop
    vertex 3.960295887785179 -1.0611580849203381 7.999999999999999
    vertex 3.96029588778518 1.061158084920333 7.999999999999999
    vertex 4.1 -7.53157781475622e-16 7.999999999999999
  endloop
endfacet
facet normal 0.0 0.0 -1.0
  outer loop
    vertex -2.899137802864845 -2.899137802864844 7.999999999999999
    vertex -2.5114071483515774 -0.6729295172665561 7.999999999999985
    vertex -2.050000000000001 -3.5507041555161973 7.999999999999999
  endloop
endfacet
facet normal 0.0 0.0 -1.0
  outer loop
    vertex -2.5114071483515774 -0.6729295172665561 7.999999999999985
    vertex -2.899137802864845 -2.899137802864844 7.999999999999999
    vertex -2.6 0.0 7.999999999999985
  endloop
endfacet
facet normal 0.0 0.0 -1.0
  outer loop
    vertex -2.050000000000001 -3.5507041555161973 7.999999999999999
    vertex -2.5114071483515774 -0.6729295172665561 7.999999999999985
    vertex -2.25166604983954 -1.3000000000000014 7.999999999999985
  endloop
endfacet
facet normal 0.0 0.0 -1.0
  outer loop
    vertex -2.050000000000001 -3.5507041555161973 7.999999999999999
    vertex -2.25166604983954 -1.3000000000000014 7.999999999999985
    vertex -1.8384776310850233 -1.8384776310850242 7.999999999999985
  endloop
endfacet
facet normal 0.0 0.0 -1.0
  outer loop
    vertex -2.050000000000001 -3.5507041555161973 7.999999999999999
    vertex -1.8384776310850233 -1.8384776310850242 7.999999999999985
    vertex -1.061158084920336 -3.960295887785179 7.999999999999999
  endloop
endfacet
facet normal 0.0 0.0 -1.0
  outer loop
    vertex -1.061158084920336 -3.960295887785179 7.999999999999999
    vertex -1.8384776310850233 -1.8384776310850242 7.999999999999985
    vertex -1.2999999999999983 -2.2516660498395416 7.999999999999985
  endloop
endfacet
facet normal 0.0 0.0 -1.0
  outer loop
    vertex -1.061158084920336 -3.960295887785179 7.999999999999999
    vertex -1.2999999999999983 -2.2516660498395416 7.999999999999985
    vertex -0.6729295172665528 -2.511407148351578 7.999999999999985
  endloop
endfacet
facet normal 0.0 0.0 -1.0
  outer loop
    vertex -1.061158084920336 -3.960295887785179 7.999999999999999
    vertex -0.6729295172665528 -2.511407148351578 7.999999999999985
    vertex -5.021051876504147e-16 -4.1 7.999999999999999
  endloop
endfacet
facet normal 0.0 0.0 -1.0
  outer loop
    vertex -5.021051876504147e-16 -4.1 7.999999999999999
    vertex -0.6729295172665528 -2.511407148351578 7.999999999999985
    vertex 4.776122516674678e-16 -2.6 7.999999999999985
  endloop
endfacet
facet normal 0.0 0.0 -1.0
  outer loop
    vertex -5.021051876504147e-16 -4.1 7.999999999999999
    vertex 4.776122516674678e-16 -2.6 7.999999999999985
    vertex 1.0611580849203335 -3.96029588778518 7.999999999999999
  endloop
endfacet
facet normal 0.0 0.0 -1.0
  outer loop
    vertex 1.0611580849203335 -3.96029588778518 7.999999999999999
    vertex 4.776122516674678e-16 -2.6 7.999999999999985
    vertex 0.672929517266556 -2.5114071483515774 7.999999999999985
  endloop
endfacet
facet normal 0.0 0.0 -1.0
  outer loop
    vertex 1.0611580849203335 -3.96029588778518 7.999999999999999
    vertex 0.672929517266556 -2.5114071483515774 7.999999999999985
    vertex 1.3000000000000014 -2.25166604983954 7.999999999999985
  endloop
endfacet
facet normal 0.0 0.0 -1.0
  outer loop
    vertex 1.0611580849203335 -3.96029588778518 7.999999999999999
    vertex 1.3000000000000014 -2.25166604983954 7.999999999999985
    vertex 2.0499999999999985 -3.5507041555161987 7.999999999999999
  endloop
endfacet
facet normal 0.0 0.0 -1.0
  outer loop
    vertex 2.0499999999999985 -3.5507041555161987 7.999999999999999
    vertex 1.3000000000000014 -2.25166604983954 7.999999999999985
    vertex 1.8384776310850248 -1.8384776310850226 7.999999999999985
  endloop
endfacet
facet normal 0.0 0.0 -1.0
  outer loop
    vertex 2.0499999999999985 -3.5507041555161987 7.999999999999999
    vertex 1.8384776310850248 -1.8384776310850226 7.999999999999985
    vertex 2.251666049839541 -1.2999999999999994 7.999999999999985
  endloop
endfacet
facet normal 0.0 0.0 -1.0
  outer loop
    vertex 2.0499999999999985 -3.5507041555161987 7.999999999999999
    vertex 2.251666049839541 -1.2999999999999994 7.999999999999985
    vertex 2.899137802864843 -2.8991378028648462 7.999999999999999
  endloop
endfacet
facet normal 0.0 0.0 -1.0
  outer loop
    vertex 2.899137802864843 -2.8991378028648462 7.999999999999999
    vertex 2.251666049839541 -1.2999999999999994 7.999999999999985
    vertex 2.511407148351578 -0.6729295172665529 7.999999999999985
  endloop
endfacet
facet normal 0.0 0.0 -1.0
  outer loop
    vertex 2.899137802864843 -2.8991378028648462 7.999999999999999
    vertex 2.511407148351578 -0.6729295172665529 7.999999999999985
    vertex 2.6 3.1840816777831187e-16 7.999999999999985
  endloop
endfacet
facet normal -0.3826834323650892 0.923879532511287 -0.0
  outer loop
    vertex 1.0611580849203335 -3.96029588778518 7.999999999999999
    vertex 2.0499999999999985 -3.5507041555161987 0.0
    vertex 1.0611580849203335 -3.96029588778518 0.0
  endloop
endfacet
facet normal -0.3826834323650892 0.923879532511287 -0.0
  outer loop
    vertex 2.0499999999999985 -3.5507041555161987 0.0
    vertex 1.0611580849203335 -3.96029588778518 7.999999999999999
    vertex 2.0499999999999985 -3.5507041555161987 7.999999999999999
  endloop
endfacet
facet normal -0.13052619222005152 0.9914448613738106 -0.0
  outer loop
    vertex -5.021051876504147e-16 -4.1 7.999999999999999
    vertex 1.0611580849203335 -3.96029588778518 0.0
    vertex -5.021051876504147e-16 -4.1 0.0
  endloop
endfacet
facet normal -0.13052619222005152 0.9914448613738106 -0.0
  outer loop
    vertex 1.0611580849203335 -3.96029588778518 0.0
    vertex -5.021051876504147e-16 -4.1 7.999999999999999
    vertex 1.0611580849203335 -3.96029588778518 7.999999999999999
  endloop
endfacet
facet normal 0.13052619222005196 0.9914448613738104 0.0
  outer loop
    vertex -1.061158084920336 -3.960295887785179 7.999999999999999
    vertex -5.021051876504147e-16 -4.1 0.0
    vertex -1.061158084920336 -3.960295887785179 0.0
  endloop
endfacet
facet normal 0.13052619222005196 0.9914448613738104 0.0
  outer loop
    vertex -5.021051876504147e-16 -4.1 0.0
    vertex -1.061158084920336 -3.960295887785179 7.999999999999999
    vertex -5.021051876504147e-16 -4.1 7.999999999999999
  endloop
endfacet
facet normal 0.3826834323650899 0.9238795325112868 0.0
  outer loop
    vertex -2.050000000000001 -3.5507041555161973 7.999999999999999
    vertex -1.061158084920336 -3.960295887785179 0.0
    vertex -2.050000000000001 -3.5507041555161973 0.0
  endloop
endfacet
facet normal 0.3826834323650899 0.9238795325112868 0.0
  outer loop
    vertex -1.061158084920336 -3.960295887785179 0.0
    vertex -2.050000000000001 -3.5507041555161973 7.999999999999999
    vertex -1.061158084920336 -3.960295887785179 7.999999999999999
  endloop
endfacet
facet normal 0.608761429008721 0.7933533402912349 0.0
  outer loop
    vertex -2.899137802864845 -2.899137802864844 7.999999999999999
    vertex -2.050000000000001 -3.5507041555161973 0.0
    vertex -2.899137802864845 -2.899137802864844 0.0
  endloop
endfacet
facet normal 0.608761429008721 0.7933533402912349 0.0
  outer loop
    vertex -2.050000000000001 -3.5507041555161973 0.0
    vertex -2.899137802864845 -2.899137802864844 7.999999999999999
    vertex -2.050000000000001 -3.5507041555161973 7.999999999999999
  endloop
endfacet
facet normal 0.7933533402912357 0.6087614290087202 0.0
  outer loop
    vertex -3.5507041555161982 -2.0499999999999985 0.0
    vertex -2.899137802864845 -2.899137802864844 7.999999999999999
    vertex -2.899137802864845 -2.899137802864844 0.0
  endloop
endfacet
facet normal 0.7933533402912357 0.6087614290087202 0.0
  outer loop
    vertex -2.899137802864845 -2.899137802864844 7.999999999999999
    vertex -3.5507041555161982 -2.0499999999999985 0.0
    vertex -3.5507041555161982 -2.0499999999999985 7.999999999999999
  endloop
endfacet
facet normal 0.9238795325112866 0.38268343236509017 0.0
  outer loop
    vertex -3.96029588778518 -1.0611580849203344 0.0
    vertex -3.5507041555161982 -2.0499999999999985 7.999999999999999
    vertex -3.5507041555161982 -2.0499999999999985 0.0
  endloop
endfacet
facet normal 0.9238795325112866 0.38268343236509017 0.0
  outer loop
    vertex -3.5507041555161982 -2.0499999999999985 7.999999999999999
    vertex -3.96029588778518 -1.0611580849203344 0.0
    vertex -3.96029588778518 -1.0611580849203344 7.999999999999999
  endloop
endfacet
facet normal 0.9914448613738106 0.13052619222005143 0.0
  outer loop
    vertex -4.1 2.5105259382520737e-16 0.0
    vertex -3.96029588778518 -1.0611580849203344 7.999999999999999
    vertex -3.96029588778518 -1.0611580849203344 0.0
  endloop
endfacet
facet normal 0.9914448613738106 0.13052619222005143 0.0
  outer loop
    vertex -3.96029588778518 -1.0611580849203344 7.999999999999999
    vertex -4.1 2.5105259382520737e-16 0.0
    vertex -4.1 2.5105259382520737e-16 7.999999999999999
  endloop
endfacet
facet normal 0.9914448613738104 -0.13052619222005193 -0.0
  outer loop
    vertex -3.960295887785179 1.061158084920336 0.0
    vertex -4.1 2.5105259382520737e-16 7.999999999999999
    vertex -4.1 2.5105259382520737e-16 0.0
  endloop
endfacet
facet normal 0.9914448613738104 -0.13052619222005193 -0.0
  outer loop
    vertex -4.1 2.5105259382520737e-16 7.999999999999999
    vertex -3.960295887785179 1.061158084920336 0.0
    vertex -3.960295887785179 1.061158084920336 7.999999999999999
  endloop
endfacet
facet normal 0.923879532511287 -0.3826834323650896 -0.0
  outer loop
    vertex -3.5507041555161982 2.0500000000000003 0.0
    vertex -3.960295887785179 1.061158084920336 7.999999999999999
    vertex -3.960295887785179 1.061158084920336 0.0
  endloop
endfacet
facet normal 0.923879532511287 -0.3826834323650896 -0.0
  outer loop
    vertex -3.960295887785179 1.061158084920336 7.999999999999999
    vertex -3.5507041555161982 2.0500000000000003 0.0
    vertex -3.5507041555161982 2.0500000000000003 7.999999999999999
  endloop
endfacet
facet normal 0.7933533402912353 -0.6087614290087205 -0.0
  outer loop
    vertex -2.899137802864845 2.899137802864845 0.0
    vertex -3.5507041555161982 2.0500000000000003 7.999999999999999
    vertex -3.5507041555161982 2.0500000000000003 0.0
  endloop
endfacet
facet normal 0.7933533402912353 -0.6087614290087205 -0.0
  outer loop
    vertex -3.5507041555161982 2.0500000000000003 7.999999999999999
    vertex -2.899137802864845 2.899137802864845 0.0
    vertex -2.899137802864845 2.899137802864845 7.999999999999999
  endloop
endfacet
facet normal 0.6087614290087202 -0.7933533402912357 -0.0
  outer loop
    vertex -2.0499999999999994 3.5507041555161982 7.999999999999999
    vertex -2.899137802864845 2.899137802864845 0.0
    vertex -2.0499999999999994 3.5507041555161982 0.0
  endloop
endfacet
facet normal 0.6087614290087202 -0.7933533402912357 -0.0
  outer loop
    vertex -2.899137802864845 2.899137802864845 0.0
    vertex -2.0499999999999994 3.5507041555161982 7.999999999999999
    vertex -2.899137802864845 2.899137802864845 7.999999999999999
  endloop
endfacet
facet normal 0.3826834323650901 -0.9238795325112867 -0.0
  outer loop
    vertex -1.061158084920335 3.96029588778518 7.999999999999999
    vertex -2.0499999999999994 3.5507041555161982 0.0
    vertex -1.061158084920335 3.96029588778518 0.0
  endloop
endfacet
facet normal 0.3826834323650901 -0.9238795325112867 -0.0
  outer loop
    vertex -2.0499999999999994 3.5507041555161982 0.0
    vertex -1.061158084920335 3.96029588778518 7.999999999999999
    vertex -2.0499999999999994 3.5507041555161982 7.999999999999999
  endloop
endfacet
facet normal 0.13052619222005138 -0.9914448613738105 -0.0
  outer loop
    vertex 0.0 4.1 7.999999999999999
    vertex -1.061158084920335 3.96029588778518 0.0
    vertex 0.0 4.1 0.0
  endloop
endfacet
facet normal 0.13052619222005138 -0.9914448613738105 -0.0
  outer loop
    vertex -1.061158084920335 3.96029588778518 0.0
    vertex 0.0 4.1 7.999999999999999
    vertex -1.061158084920335 3.96029588778518 7.999999999999999
  endloop
endfacet
facet normal -0.13052619222005163 -0.9914448613738105 -0.0
  outer loop
    vertex 1.0611580849203384 3.960295887785179 7.999999999999999
    vertex 0.0 4.1 0.0
    vertex 1.0611580849203384 3.960295887785179 0.0
  endloop
endfacet
facet normal -0.13052619222005163 -0.9914448613738105 -0.0
  outer loop
    vertex 0.0 4.1 0.0
    vertex 1.0611580849203384 3.960295887785179 7.999999999999999
    vertex 0.0 4.1 7.999999999999999
  endloop
endfacet
facet normal -0.38268343236509106 -0.9238795325112862 -0.0
  outer loop
    vertex 2.0500000000000016 3.5507041555161964 7.999999999999999
    vertex 1.0611580849203384 3.960295887785179 0.0
    vertex 2.0500000000000016 3.5507041555161964 0.0
  endloop
endfacet
facet normal -0.38268343236509106 -0.9238795325112862 -0.0
  outer loop
    vertex 1.0611580849203384 3.960295887785179 0.0
    vertex 2.0500000000000016 3.5507041555161964 7.999999999999999
    vertex 1.0611580849203384 3.960295887785179 7.999999999999999
  endloop
endfacet
facet normal -0.6087614290087208 -0.793353340291235 -0.0
  outer loop
    vertex 2.8991378028648453 2.8991378028648436 7.999999999999999
    vertex 2.0500000000000016 3.5507041555161964 0.0
    vertex 2.8991378028648453 2.8991378028648436 0.0
  endloop
endfacet
facet normal -0.6087614290087208 -0.793353340291235 -0.0
  outer loop
    vertex 2.0500000000000016 3.5507041555161964 0.0
    vertex 2.8991378028648453 2.8991378028648436 7.999999999999999
    vertex 2.0500000000000016 3.5507041555161964 7.999999999999999
  endloop
endfacet
facet normal -0.7933533402912357 -0.6087614290087202 -0.0
  outer loop
    vertex 2.8991378028648453 2.8991378028648436 7.999999999999999
    vertex 3.5507041555161996 2.049999999999997 0.0
    vertex 3.5507041555161996 2.049999999999997 7.999999999999999
  endloop
endfacet
facet normal -0.7933533402912357 -0.6087614290087202 -0.0
  outer loop
    vertex 3.5507041555161996 2.049999999999997 0.0
    vertex 2.8991378028648453 2.8991378028648436 7.999999999999999
    vertex 2.8991378028648453 2.8991378028648436 0.0
  endloop
endfacet
facet normal -0.9238795325112871 -0.3826834323650891 -0.0
  outer loop
    vertex 3.5507041555161996 2.049999999999997 7.999999999999999
    vertex 3.96029588778518 1.061158084920333 0.0
    vertex 3.96029588778518 1.061158084920333 7.999999999999999
  endloop
endfacet
facet normal -0.9238795325112871 -0.3826834323650891 -0.0
  outer loop
    vertex 3.96029588778518 1.061158084920333 0.0
    vertex 3.5507041555161996 2.049999999999997 7.999999999999999
    vertex 3.5507041555161996 2.049999999999997 0.0
  endloop
endfacet
facet normal -0.9914448613738105 -0.13052619222005152 -0.0
  outer loop
    vertex 3.96029588778518 1.061158084920333 7.999999999999999
    vertex 4.1 -7.53157781475622e-16 0.0
    vertex 4.1 -7.53157781475622e-16 7.999999999999999
  endloop
endfacet
facet normal -0.9914448613738105 -0.13052619222005152 -0.0
  outer loop
    vertex 4.1 -7.53157781475622e-16 0.0
    vertex 3.96029588778518 1.061158084920333 7.999999999999999
    vertex 3.96029588778518 1.061158084920333 0.0
  endloop
endfacet
facet normal -0.9914448613738104 0.1305261922200517 -0.0
  outer loop
    vertex 4.1 -7.53157781475622e-16 7.999999999999999
    vertex 3.960295887785179 -1.0611580849203381 0.0
    vertex 3.960295887785179 -1.0611580849203381 7.999999999999999
  endloop
endfacet
facet normal -0.9914448613738104 0.1305261922200517 -0.0
  outer loop
    vertex 3.960295887785179 -1.0611580849203381 0.0
    vertex 4.1 -7.53157781475622e-16 7.999999999999999
    vertex 4.1 -7.53157781475622e-16 0.0
  endloop
endfacet
facet normal -0.9238795325112866 0.3826834323650905 -0.0
  outer loop
    vertex 3.960295887785179 -1.0611580849203381 7.999999999999999
    vertex 3.5507041555161973 -2.0500000000000016 0.0
    vertex 3.5507041555161973 -2.0500000000000016 7.999999999999999
  endloop
endfacet
facet normal -0.9238795325112866 0.3826834323650905 -0.0
  outer loop
    vertex 3.5507041555161973 -2.0500000000000016 0.0
    vertex 3.960295887785179 -1.0611580849203381 7.999999999999999
    vertex 3.960295887785179 -1.0611580849203381 0.0
  endloop
endfacet
facet normal -0.7933533402912349 0.6087614290087212 -0.0
  outer loop
    vertex 3.5507041555161973 -2.0500000000000016 7.999999999999999
    vertex 2.899137802864843 -2.8991378028648462 0.0
    vertex 2.899137802864843 -2.8991378028648462 7.999999999999999
  endloop
endfacet
facet normal -0.7933533402912349 0.6087614290087212 -0.0
  outer loop
    vertex 2.899137802864843 -2.8991378028648462 0.0
    vertex 3.5507041555161973 -2.0500000000000016 7.999999999999999
    vertex 3.5507041555161973 -2.0500000000000016 0.0
  endloop
endfacet
facet normal -0.6087614290087202 0.7933533402912355 -0.0
  outer loop
    vertex 2.0499999999999985 -3.5507041555161987 7.999999999999999
    vertex 2.899137802864843 -2.8991378028648462 0.0
    vertex 2.0499999999999985 -3.5507041555161987 0.0
  endloop
endfacet
facet normal -0.6087614290087202 0.7933533402912355 -0.0
  outer loop
    vertex 2.899137802864843 -2.8991378028648462 0.0
    vertex 2.0499999999999985 -3.5507041555161987 7.999999999999999
    vertex 2.899137802864843 -2.8991378028648462 7.999999999999999
  endloop
endfacet
facet normal -0.6087614290087214 0.7933533402912346 -0.0
  outer loop
    vertex 1.3000000000000014 -2.25166604983954 17.8
    vertex 1.8384776310850248 -1.8384776310850226 7.999999999999985
    vertex 1.3000000000000014 -2.25166604983954 7.999999999999985
  endloop
endfacet
facet normal -0.6087614290087214 0.7933533402912346 -0.0
  outer loop
    vertex 1.8384776310850248 -1.8384776310850226 7.999999999999985
    vertex 1.3000000000000014 -2.25166604983954 17.8
    vertex 1.8384776310850248 -1.8384776310850226 17.8
  endloop
endfacet
facet normal -0.7933533402912355 0.6087614290087203 -0.0
  outer loop
    vertex 2.251666049839541 -1.2999999999999994 17.8
    vertex 1.8384776310850248 -1.8384776310850226 7.999999999999985
    vertex 1.8384776310850248 -1.8384776310850226 17.8
  endloop
endfacet
facet normal -0.7933533402912355 0.6087614290087203 -0.0
  outer loop
    vertex 1.8384776310850248 -1.8384776310850226 7.999999999999985
    vertex 2.251666049839541 -1.2999999999999994 17.8
    vertex 2.251666049839541 -1.2999999999999994 7.999999999999985
  endloop
endfacet
facet normal -0.923879532511287 0.38268343236508945 -0.0
  outer loop
    vertex 2.511407148351578 -0.6729295172665529 17.8
    vertex 2.251666049839541 -1.2999999999999994 7.999999999999985
    vertex 2.251666049839541 -1.2999999999999994 17.8
  endloop
endfacet
facet normal -0.923879532511287 0.38268343236508945 -0.0
  outer loop
    vertex 2.251666049839541 -1.2999999999999994 7.999999999999985
    vertex 2.511407148351578 -0.6729295172665529 17.8
    vertex 2.511407148351578 -0.6729295172665529 7.999999999999985
  endloop
endfacet
facet normal -0.9914448613738106 0.13052619222005127 -0.0
  outer loop
    vertex 2.6 3.1840816777831187e-16 17.8
    vertex 2.511407148351578 -0.6729295172665529 7.999999999999985
    vertex 2.511407148351578 -0.6729295172665529 17.8
  endloop
endfacet
facet normal -0.9914448613738106 0.13052619222005127 -0.0
  outer loop
    vertex 2.511407148351578 -0.6729295172665529 7.999999999999985
    vertex 2.6 3.1840816777831187e-16 17.8
    vertex 2.6 3.1840816777831187e-16 7.999999999999985
  endloop
endfacet
facet normal -0.9914448613738104 -0.1305261922200521 -0.0
  outer loop
    vertex 2.5114071483515774 0.6729295172665547 17.8
    vertex 2.6 3.1840816777831187e-16 7.999999999999985
    vertex 2.6 3.1840816777831187e-16 17.8
  endloop
endfacet
facet normal -0.9914448613738104 -0.1305261922200521 -0.0
  outer loop
    vertex 2.6 3.1840816777831187e-16 7.999999999999985
    vertex 2.5114071483515774 0.6729295172665547 17.8
    vertex 2.5114071483515774 0.6729295172665547 7.999999999999985
  endloop
endfacet
facet normal -0.9238795325112868 -0.3826834323650895 -0.0
  outer loop
    vertex 2.25166604983954 1.300000000000001 17.8
    vertex 2.5114071483515774 0.6729295172665547 7.999999999999985
    vertex 2.5114071483515774 0.6729295172665547 17.8
  endloop
endfacet
facet normal -0.9238795325112868 -0.3826834323650895 -0.0
  outer loop
    vertex 2.5114071483515774 0.6729295172665547 7.999999999999985
    vertex 2.25166604983954 1.300000000000001 17.8
    vertex 2.25166604983954 1.300000000000001 7.999999999999985
  endloop
endfacet
facet normal -0.7933533402912347 -0.6087614290087213 -0.0
  outer loop
    vertex 1.8384776310850233 1.8384776310850237 17.8
    vertex 2.25166604983954 1.300000000000001 7.999999999999985
    vertex 2.25166604983954 1.300000000000001 17.8
  endloop
endfacet
facet normal -0.7933533402912347 -0.6087614290087213 -0.0
  outer loop
    vertex 2.25166604983954 1.300000000000001 7.999999999999985
    vertex 1.8384776310850233 1.8384776310850237 17.8
    vertex 1.8384776310850233 1.8384776310850237 7.999999999999985
  endloop
endfacet
facet normal -0.6087614290087205 -0.7933533402912353 -0.0
  outer loop
    vertex 1.8384776310850233 1.8384776310850237 17.8
    vertex 1.2999999999999996 2.2516660498395407 7.999999999999985
    vertex 1.8384776310850233 1.8384776310850237 7.999999999999985
  endloop
endfacet
facet normal -0.6087614290087205 -0.7933533402912353 -0.0
  outer loop
    vertex 1.2999999999999996 2.2516660498395407 7.999999999999985
    vertex 1.8384776310850233 1.8384776310850237 17.8
    vertex 1.2999999999999996 2.2516660498395407 17.8
  endloop
endfacet
facet normal -0.3826834323650897 -0.9238795325112867 -0.0
  outer loop
    vertex 1.2999999999999996 2.2516660498395407 17.8
    vertex 0.6729295172665537 2.511407148351578 7.999999999999985
    vertex 1.2999999999999996 2.2516660498395407 7.999999999999985
  endloop
endfacet
facet normal -0.3826834323650897 -0.9238795325112867 -0.0
  outer loop
    vertex 0.6729295172665537 2.511407148351578 7.999999999999985
    vertex 1.2999999999999996 2.2516660498395407 17.8
    vertex 0.6729295172665537 2.511407148351578 17.8
  endloop
endfacet
facet normal -0.13052619222005166 -0.9914448613738105 -0.0
  outer loop
    vertex 0.6729295172665537 2.511407148351578 17.8
    vertex -1.5920408388915593e-16 2.6 7.999999999999985
    vertex 0.6729295172665537 2.511407148351578 7.999999999999985
  endloop
endfacet
facet normal -0.13052619222005166 -0.9914448613738105 -0.0
  outer loop
    vertex -1.5920408388915593e-16 2.6 7.999999999999985
    vertex 0.6729295172665537 2.511407148351578 17.8
    vertex -1.5920408388915593e-16 2.6 17.8
  endloop
endfacet
facet normal 0.1305261922200521 -0.9914448613738104 -0.0
  outer loop
    vertex -1.5920408388915593e-16 2.6 17.8
    vertex -0.6729295172665545 2.5114071483515774 7.999999999999985
    vertex -1.5920408388915593e-16 2.6 7.999999999999985
  endloop
endfacet
facet normal 0.1305261922200521 -0.9914448613738104 -0.0
  outer loop
    vertex -0.6729295172665545 2.5114071483515774 7.999999999999985
    vertex -1.5920408388915593e-16 2.6 17.8
    vertex -0.6729295172665545 2.5114071483515774 17.8
  endloop
endfacet
facet normal 0.3826834323650898 -0.9238795325112868 -0.0
  outer loop
    vertex -0.6729295172665545 2.5114071483515774 17.8
    vertex -1.3000000000000005 2.25166604983954 7.999999999999985
    vertex -0.6729295172665545 2.5114071483515774 7.999999999999985
  endloop
endfacet
facet normal 0.3826834323650898 -0.9238795325112868 -0.0
  outer loop
    vertex -1.3000000000000005 2.25166604983954 7.999999999999985
    vertex -0.6729295172665545 2.5114071483515774 17.8
    vertex -1.3000000000000005 2.25166604983954 17.8
  endloop
endfacet
facet normal 0.6087614290087207 -0.7933533402912352 -0.0
  outer loop
    vertex -1.3000000000000005 2.25166604983954 17.8
    vertex -1.8384776310850237 1.8384776310850237 7.999999999999985
    vertex -1.3000000000000005 2.25166604983954 7.999999999999985
  endloop
endfacet
facet normal 0.6087614290087207 -0.7933533402912352 -0.0
  outer loop
    vertex -1.8384776310850237 1.8384776310850237 7.999999999999985
    vertex -1.3000000000000005 2.25166604983954 17.8
    vertex -1.8384776310850237 1.8384776310850237 17.8
  endloop
endfacet
facet normal 0.7933533402912353 -0.6087614290087205 -0.0
  outer loop
    vertex -1.8384776310850237 1.8384776310850237 7.999999999999985
    vertex -2.2516660498395407 1.2999999999999998 17.8
    vertex -2.2516660498395407 1.2999999999999998 7.999999999999985
  endloop
endfacet
facet normal 0.7933533402912353 -0.6087614290087205 -0.0
  outer loop
    vertex -2.2516660498395407 1.2999999999999998 17.8
    vertex -1.8384776310850237 1.8384776310850237 7.999999999999985
    vertex -1.8384776310850237 1.8384776310850237 17.8
  endloop
endfacet
facet normal 0.9238795325112868 -0.3826834323650898 -0.0
  outer loop
    vertex -2.2516660498395407 1.2999999999999998 7.999999999999985
    vertex -2.511407148351578 0.672929517266554 17.8
    vertex -2.511407148351578 0.672929517266554 7.999999999999985
  endloop
endfacet
facet normal 0.9238795325112868 -0.3826834323650898 -0.0
  outer loop
    vertex -2.511407148351578 0.672929517266554 17.8
    vertex -2.2516660498395407 1.2999999999999998 7.999999999999985
    vertex -2.2516660498395407 1.2999999999999998 17.8
  endloop
endfacet
facet normal 0.9914448613738105 -0.13052619222005163 -0.0
  outer loop
    vertex -2.511407148351578 0.672929517266554 7.999999999999985
    vertex -2.6 0.0 17.8
    vertex -2.6 0.0 7.999999999999985
  endloop
endfacet
facet normal 0.9914448613738105 -0.13052619222005163 -0.0
  outer loop
    vertex -2.6 0.0 17.8
    vertex -2.511407148351578 0.672929517266554 7.999999999999985
    vertex -2.511407148351578 0.672929517266554 17.8
  endloop
endfacet
facet normal 0.9914448613738104 0.13052619222005174 0.0
  outer loop
    vertex -2.6 0.0 7.999999999999985
    vertex -2.5114071483515774 -0.6729295172665561 17.8
    vertex -2.5114071483515774 -0.6729295172665561 7.999999999999985
  endloop
endfacet
facet normal 0.9914448613738104 0.13052619222005174 0.0
  outer loop
    vertex -2.5114071483515774 -0.6729295172665561 17.8
    vertex -2.6 0.0 7.999999999999985
    vertex -2.6 0.0 17.8
  endloop
endfacet
facet normal 0.9238795325112865 0.3826834323650905 0.0
  outer loop
    vertex -2.5114071483515774 -0.6729295172665561 7.999999999999985
    vertex -2.25166604983954 -1.3000000000000014 17.8
    vertex -2.25166604983954 -1.3000000000000014 7.999999999999985
  endloop
endfacet
facet normal 0.9238795325112865 0.3826834323650905 0.0
  outer loop
    vertex -2.25166604983954 -1.3000000000000014 17.8
    vertex -2.5114071483515774 -0.6729295172665561 7.999999999999985
    vertex -2.5114071483515774 -0.6729295172665561 17.8
  endloop
endfacet
facet normal 0.793353340291235 0.6087614290087211 0.0
  outer loop
    vertex -2.25166604983954 -1.3000000000000014 7.999999999999985
    vertex -1.8384776310850233 -1.8384776310850242 17.8
    vertex -1.8384776310850233 -1.8384776310850242 7.999999999999985
  endloop
endfacet
facet normal 0.793353340291235 0.6087614290087211 0.0
  outer loop
    vertex -1.8384776310850233 -1.8384776310850242 17.8
    vertex -2.25166604983954 -1.3000000000000014 7.999999999999985
    vertex -2.25166604983954 -1.3000000000000014 17.8
  endloop
endfacet
facet normal 0.6087614290087203 0.7933533402912354 0.0
  outer loop
    vertex -1.8384776310850233 -1.8384776310850242 17.8
    vertex -1.2999999999999983 -2.2516660498395416 7.999999999999985
    vertex -1.8384776310850233 -1.8384776310850242 7.999999999999985
  endloop
endfacet
facet normal 0.6087614290087203 0.7933533402912354 0.0
  outer loop
    vertex -1.2999999999999983 -2.2516660498395416 7.999999999999985
    vertex -1.8384776310850233 -1.8384776310850242 17.8
    vertex -1.2999999999999983 -2.2516660498395416 17.8
  endloop
endfacet
facet normal 0.38268343236508906 0.9238795325112871 0.0
  outer loop
    vertex -1.2999999999999983 -2.2516660498395416 17.8
    vertex -0.6729295172665528 -2.511407148351578 7.999999999999985
    vertex -1.2999999999999983 -2.2516660498395416 7.999999999999985
  endloop
endfacet
facet normal 0.38268343236508906 0.9238795325112871 0.0
  outer loop
    vertex -0.6729295172665528 -2.511407148351578 7.999999999999985
    vertex -1.2999999999999983 -2.2516660498395416 17.8
    vertex -0.6729295172665528 -2.511407148351578 17.8
  endloop
endfacet
facet normal 0.13052619222005127 0.9914448613738106 0.0
  outer loop
    vertex -0.6729295172665528 -2.511407148351578 17.8
    vertex 4.776122516674678e-16 -2.6 7.999999999999985
    vertex -0.6729295172665528 -2.511407148351578 7.999999999999985
  endloop
endfacet
facet normal 0.13052619222005127 0.9914448613738106 0.0
  outer loop
    vertex 4.776122516674678e-16 -2.6 7.999999999999985
    vertex -0.6729295172665528 -2.511407148351578 17.8
    vertex 4.776122516674678e-16 -2.6 17.8
  endloop
endfacet
facet normal -0.13052619222005185 0.9914448613738104 -0.0
  outer loop
    vertex 4.776122516674678e-16 -2.6 17.8
    vertex 0.672929517266556 -2.5114071483515774 7.999999999999985
    vertex 4.776122516674678e-16 -2.6 7.999999999999985
  endloop
endfacet
facet normal -0.13052619222005185 0.9914448613738104 -0.0
  outer loop
    vertex 0.672929517266556 -2.5114071483515774 7.999999999999985
    vertex 4.776122516674678e-16 -2.6 17.8
    vertex 0.672929517266556 -2.5114071483515774 17.8
  endloop
endfacet
facet normal -0.3826834323650901 0.9238795325112868 -0.0
  outer loop
    vertex 0.672929517266556 -2.5114071483515774 17.8
    vertex 1.3000000000000014 -2.25166604983954 7.999999999999985
    vertex 0.672929517266556 -2.5114071483515774 7.999999999999985
  endloop
endfacet
facet normal -0.3826834323650901 0.9238795325112868 -0.0
  outer loop
    vertex 1.3000000000000014 -2.25166604983954 7.999999999999985
    vertex 0.672929517266556 -2.5114071483515774 17.8
    vertex 1.3000000000000014 -2.25166604983954 17.8
  endloop
endfacet
facet normal 0.0732381423163546 0.9973137308368936 -0.0012234354276120796
  outer loop
    vertex 6.697420396051256e-15 6.000000000000013 8.8
    vertex 1.190014758017069 5.901815548165551 0.0
    vertex -0.3150935866311828 6.012343795936071 0.0
  endloop
endfacet
facet normal 0.130523358878632 0.9914233400090554 0.006588905245096509
  outer loop
    vertex 1.552914270615132 5.79555495773442 8.8
    vertex 1.190014758017069 5.901815548165551 0.0
    vertex 6.697420396051256e-15 6.000000000000013 8.8
  endloop
endfacet
facet normal 0.5446378110295561 0.8386686831730795 -0.00212006171290214
  outer loop
    vertex 3.0000000000000084 5.196152422706641 8.8
    vertex 3.8860392060005258 4.59850640733422 0.0
    vertex 2.6203500988509743 5.4204545241445174 0.0
  endloop
endfacet
facet normal 0.608744699282877 0.7933315376880344 0.007413663368306185
  outer loop
    vertex 4.2426406871192945 4.242640687119293 8.8
    vertex 3.8860392060005258 4.59850640733422 0.0
    vertex 3.0000000000000084 5.196152422706641 8.8
  endloop
endfacet
facet normal -0.9914367636593638 -0.13052512613571987 0.0040416719190597425
  outer loop
    vertex -6.000000000000012 0.0 8.8
    vertex -5.846806007265251 -1.4361132971580097 0.0
    vertex -5.795554957734422 -1.5529142706151275 8.8
  endloop
endfacet
facet normal -0.9933717009190122 -0.1149370273050267 0.0014640927403474129
  outer loop
    vertex -6.020264698849019 0.06304636912142426 0.0
    vertex -5.846806007265251 -1.4361132971580097 0.0
    vertex -6.000000000000012 0.0 8.8
  endloop
endfacet
facet normal -0.6087502353592545 -0.7933387524432356 0.006064224753643311
  outer loop
    vertex -4.242640687119295 -4.242640687119292 8.8
    vertex -3.2790509485601915 -5.04929567025081 0.0
    vertex -3.000000000000008 -5.196152422706642 8.8
  endloop
endfacet
facet normal -0.6454575457587076 -0.7637958606414621 -0.0006632421235194782
  outer loop
    vertex -4.242640687119295 -4.242640687119292 8.8
    vertex -4.4317423037549295 -4.0751959513593965 0.0
    vertex -3.2790509485601915 -5.04929567025081 0.0
  endloop
endfacet
facet normal 0.9711301823898969 0.23853245113120064 -0.002904928348001728
  outer loop
    vertex 5.620709472244153 2.1575882177774153 0.0
    vertex 5.795554957734421 1.5529142706151302 8.8
    vertex 5.980694918839167 0.6919900119499099 0.0
  endloop
endfacet
facet normal 0.9914124271699474 0.13052192217610623 0.008088701035907185
  outer loop
    vertex 5.795554957734421 1.5529142706151302 8.8
    vertex 6.0000000000000115 4.229949723821846e-15 8.8
    vertex 5.980694918839167 0.6919900119499099 0.0
  endloop
endfacet
facet normal -0.416280792090849 0.9092361086767317 -2.8541374095618364e-05
  outer loop
    vertex -2.9999999999999973 5.196152422706648 8.8
    vertex -1.8004034423982471 5.745094371154194 0.0
    vertex -3.1725873284587447 5.116859538053597 0.0
  endloop
endfacet
facet normal -0.3826777181941895 0.9238657372824057 0.005464748239896709
  outer loop
    vertex -1.5529142706151198 5.795554957734424 8.8
    vertex -1.8004034423982471 5.745094371154194 0.0
    vertex -2.9999999999999973 5.196152422706648 8.8
  endloop
endfacet
facet normal 0.9913681684137917 -0.13051609540031675 -0.012437986064457474
  outer loop
    vertex 5.980694918839167 0.6919900119499099 0.0
    vertex 6.0000000000000115 4.229949723821846e-15 8.8
    vertex 5.7955549577344225 -1.552914270615124 8.8
  endloop
endfacet
facet normal 0.990653823071202 -0.13570269365246873 -0.013776130439132787
  outer loop
    vertex 5.980694918839167 0.6919900119499099 0.0
    vertex 5.7955549577344225 -1.552914270615124 8.8
    vertex 5.574291639381714 -2.2748262808368884 0.0
  endloop
endfacet
facet normal 0.0 0.0 -1.0
  outer loop
    vertex 5.980694918839167 0.6919900119499099 0.0
    vertex 5.964891308226212 -0.8170884712896493 0.0
    vertex 5.574291639381714 -2.2748262808368884 0.0
  endloop
endfacet
facet normal -0.6293202452955347 0.777145781465395 0.0006805965829034769
  outer loop
    vertex -4.242640687119285 4.242640687119302 8.8
    vertex -3.1725873284587447 5.116859538053597 0.0
    vertex -4.345425884712172 4.167113601684086 0.0
  endloop
endfacet
facet normal -0.6087544436530226 0.7933442367984539 0.004790539779414124
  outer loop
    vertex -2.9999999999999973 5.196152422706648 8.8
    vertex -3.1725873284587447 5.116859538053597 0.0
    vertex -4.242640687119285 4.242640687119302 8.8
  endloop
endfacet
facet normal 0.608742245857326 -0.7933283403216065 0.007938674394663447
  outer loop
    vertex 3.0000000000000067 -5.196152422706642 8.8
    vertex 3.788883081366545 -4.678880943623318 0.0
    vertex 4.242640687119295 -4.242640687119292 8.8
  endloop
endfacet
facet normal 0.5269538490030475 -0.8498895536140245 -0.0027180284449898067
  outer loop
    vertex 3.0000000000000067 -5.196152422706642 8.8
    vertex 2.5062579781693253 -5.4741422009050575 0.0
    vertex 3.788883081366545 -4.678880943623318 0.0
  endloop
endfacet
facet normal -0.17708470137066604 0.9841953915002587 -0.0006632421235196164
  outer loop
    vertex -1.5529142706151198 5.795554957734424 8.8
    vertex -0.3150935866311828 6.012343795936071 0.0
    vertex -1.8004034423982471 5.745094371154194 0.0
  endloop
endfacet
facet normal -0.13052379215925136 0.9914266311021234 0.0060642247536432485
  outer loop
    vertex 6.697420396051256e-15 6.000000000000013 8.8
    vertex -0.3150935866311828 6.012343795936071 0.0
    vertex -1.5529142706151198 5.795554957734424 8.8
  endloop
endfacet
facet normal -0.38267512542836074 -0.9238594777919744 0.006588905245096471
  outer loop
    vertex -3.000000000000008 -5.196152422706642 8.8
    vertex -1.9203247627616031 -5.706129572169884 0.0
    vertex -1.5529142706151289 -5.795554957734421 8.8
  endloop
endfacet
facet normal -0.43523077364650314 -0.9003180976059635 -0.0012234354276118515
  outer loop
    vertex -3.000000000000008 -5.196152422706642 8.8
    vertex -3.2790509485601915 -5.04929567025081 0.0
    vertex -1.9203247627616031 -5.706129572169884 0.0
  endloop
endfacet
facet normal -0.9238689312694076 -0.3826790411869257 0.004790539779413956
  outer loop
    vertex -5.795554957734422 -1.5529142706151275 8.8
    vertex -5.3059709911966735 -2.8450366833217564 0.0
    vertex -5.196152422706643 -3.000000000000005 8.8
  endloop
endfacet
facet normal -0.9335802102744843 -0.35836786654517566 0.0006805965829036818
  outer loop
    vertex -5.846806007265251 -1.4361132971580097 0.0
    vertex -5.3059709911966735 -2.8450366833217564 0.0
    vertex -5.795554957734422 -1.5529142706151275 8.8
  endloop
endfacet
facet normal -0.13052295879979797 -0.9914203011086186 0.0070387339658992435
  outer loop
    vertex -1.5529142706151289 -5.795554957734421 8.8
    vertex -0.44093750965825323 -6.004426367392929 0.0
    vertex -3.524958103184872e-16 -6.0000000000000115 8.8
  endloop
endfacet
facet normal -0.19765705171174067 -0.9802697429910165 -0.0017090596680215085
  outer loop
    vertex -1.5529142706151289 -5.795554957734421 8.8
    vertex -1.9203247627616031 -5.706129572169884 0.0
    vertex -0.44093750965825323 -6.004426367392929 0.0
  endloop
endfacet
facet normal 0.7360948663537082 0.6768739275836165 -0.0024563968012959727
  outer loop
    vertex 3.8860392060005258 4.59850640733422 0.0
    vertex 4.2426406871192945 4.242640687119293 8.8
    vertex 4.907554177984594 3.4876172208275693 0.0
  endloop
endfacet
facet normal 0.7933297374965944 0.6087433179474007 0.007713653996311537
  outer loop
    vertex 4.2426406871192945 4.242640687119293 8.8
    vertex 5.196152422706642 3.0000000000000067 8.8
    vertex 4.907554177984594 3.4876172208275693 0.0
  endloop
endfacet
facet normal 0.8813001966656414 0.47254901933923643 -0.0027180284449897923
  outer loop
    vertex 4.907554177984594 3.4876172208275693 0.0
    vertex 5.196152422706642 3.0000000000000067 8.8
    vertex 5.620709472244153 2.1575882177774153 0.0
  endloop
endfacet
facet normal 0.9238504194300398 0.3826713733319953 0.007938674394663389
  outer loop
    vertex 5.196152422706642 3.0000000000000067 8.8
    vertex 5.795554957734421 1.5529142706151302 8.8
    vertex 5.620709472244153 2.1575882177774153 0.0
  endloop
endfacet
facet normal 0.7933273864687114 -0.6087415139402566 0.008088701035907128
  outer loop
    vertex 5.196152422706644 -3.000000000000004 8.8
    vertex 4.242640687119295 -4.242640687119292 8.8
    vertex 4.833438726024268 -3.589628388933312 0.0
  endloop
endfacet
facet normal 0.7217571827658648 -0.6921402535015395 -0.0029049283480018077
  outer loop
    vertex 4.833438726024268 -3.589628388933312 0.0
    vertex 4.242640687119295 -4.242640687119292 8.8
    vertex 3.788883081366545 -4.678880943623318 0.0
  endloop
endfacet
facet normal -0.8028166147439092 0.5962242359411242 0.0014640927403474452
  outer loop
    vertex -4.345425884712172 4.167113601684086 0.0
    vertex -5.2452253512706415 2.9555325921489763 0.0
    vertex -5.196152422706642 3.0000000000000058 8.8
  endloop
endfacet
facet normal -0.7933468605069771 0.6087564568953842 0.004041671919060037
  outer loop
    vertex -4.242640687119285 4.242640687119302 8.8
    vertex -4.345425884712172 4.167113601684086 0.0
    vertex -5.196152422706642 3.0000000000000058 8.8
  endloop
endfacet
facet normal 0.9238487454239583 -0.3826706799359719 0.008163718265569981
  outer loop
    vertex 5.7955549577344225 -1.552914270615124 8.8
    vertex 5.196152422706644 -3.000000000000004 8.8
    vertex 5.574291639381714 -2.2748262808368884 0.0
  endloop
endfacet
facet normal 0.8712098458905518 -0.49090151932306797 -0.003017076343826201
  outer loop
    vertex 5.574291639381714 -2.2748262808368884 0.0
    vertex 5.196152422706644 -3.000000000000004 8.8
    vertex 4.833438726024268 -3.589628388933312 0.0
  endloop
endfacet
facet normal 0.3826720472759906 -0.9238520464747737 0.007713653996311587
  outer loop
    vertex 1.5529142706151282 -5.795554957734421 8.8
    vertex 2.5062579781693253 -5.4741422009050575 0.0
    vertex 3.0000000000000067 -5.196152422706642 8.8
  endloop
endfacet
facet normal 0.29903989006581333 -0.9542374496236149 -0.002456396801295976
  outer loop
    vertex 1.5529142706151282 -5.795554957734421 8.8
    vertex 1.0661554688316488 -5.92544297121721 0.0
    vertex 2.5062579781693253 -5.4741422009050575 0.0
  endloop
endfacet
facet normal 0.13052260515407246 -0.9914176149026482 0.00741366336830625
  outer loop
    vertex -3.524958103184872e-16 -6.0000000000000115 8.8
    vertex 1.0661554688316488 -5.92544297121721 0.0
    vertex 1.5529142706151282 -5.795554957734421 8.8
  endloop
endfacet
facet normal 0.052335838626603085 -0.9986272905011077 -0.0021200617129021404
  outer loop
    vertex -3.524958103184872e-16 -6.0000000000000115 8.8
    vertex -0.44093750965825323 -6.004426367392929 0.0
    vertex 1.0661554688316488 -5.92544297121721 0.0
  endloop
endfacet
facet normal 0.31895884347600656 0.9477670258473333 -0.0017090596680215161
  outer loop
    vertex 1.552914270615132 5.79555495773442 8.8
    vertex 2.6203500988509743 5.4204545241445174 0.0
    vertex 1.190014758017069 5.901815548165551 0.0
  endloop
endfacet
facet normal 0.38267395245657526 0.9238566459875799 0.007038733965899275
  outer loop
    vertex 3.0000000000000084 5.196152422706641 8.8
    vertex 2.6203500988509743 5.4204545241445174 0.0
    vertex 1.552914270615132 5.79555495773442 8.8
  endloop
endfacet
facet normal -0.7933414940596347 -0.6087523390755074 0.005464748239896537
  outer loop
    vertex -5.196152422706643 -3.000000000000005 8.8
    vertex -4.4317423037549295 -4.0751959513593965 0.0
    vertex -4.242640687119295 -4.242640687119292 8.8
  endloop
endfacet
facet normal -0.8151277953965486 -0.579281172106735 -2.8541374095387575e-05
  outer loop
    vertex -5.3059709911966735 -2.8450366833217564 0.0
    vertex -4.4317423037549295 -4.0751959513593965 0.0
    vertex -5.196152422706643 -3.000000000000005 8.8
  endloop
endfacet
facet normal -0.9258680891086127 0.3778397683415961 0.0023218591549446846
  outer loop
    vertex -5.2452253512706415 2.9555325921489763 0.0
    vertex -5.815448018419333 1.558244600160619 0.0
    vertex -5.795554957734421 1.5529142706151282 8.8
  endloop
endfacet
facet normal -0.923874748199112 0.3826814506381005 0.0032182258383988897
  outer loop
    vertex -5.196152422706642 3.0000000000000058 8.8
    vertex -5.2452253512706415 2.9555325921489763 0.0
    vertex -5.795554957734421 1.5529142706151282 8.8
  endloop
endfacet
facet normal -0.9907425958316255 0.13571485400801322 0.003253798763915939
  outer loop
    vertex -5.815448018419333 1.558244600160619 0.0
    vertex -6.020264698849019 0.06304636912142426 0.0
    vertex -6.000000000000012 0.0 8.8
  endloop
endfacet
facet normal -0.9914421925232062 0.13052584085920413 0.002320291528116764
  outer loop
    vertex -5.815448018419333 1.558244600160619 0.0
    vertex -6.000000000000012 0.0 8.8
    vertex -5.795554957734421 1.5529142706151282 8.8
  endloop
endfacet
facet normal 0.0 0.0 -1.0
  outer loop
    vertex -4.345425884712172 4.167113601684086 0.0
    vertex -3.960295887785179 1.061158084920336 0.0
    vertex -4.1 2.5105259382520737e-16 0.0
  endloop
endfacet
facet normal 0.0 0.0 -1.0
  outer loop
    vertex -3.960295887785179 1.061158084920336 0.0
    vertex -4.345425884712172 4.167113601684086 0.0
    vertex -3.1725873284587447 5.116859538053597 0.0
  endloop
endfacet
facet normal 0.0 0.0 -1.0
  outer loop
    vertex -3.960295887785179 1.061158084920336 0.0
    vertex -3.1725873284587447 5.116859538053597 0.0
    vertex -3.5507041555161982 2.0500000000000003 0.0
  endloop
endfacet
facet normal 0.0 0.0 -1.0
  outer loop
    vertex -3.5507041555161982 2.0500000000000003 0.0
    vertex -3.1725873284587447 5.116859538053597 0.0
    vertex -2.899137802864845 2.899137802864845 0.0
  endloop
endfacet
facet normal 0.0 0.0 -1.0
  outer loop
    vertex -2.899137802864845 2.899137802864845 0.0
    vertex -3.1725873284587447 5.116859538053597 0.0
    vertex -1.8004034423982471 5.745094371154194 0.0
  endloop
endfacet
facet normal 0.0 0.0 -1.0
  outer loop
    vertex -2.899137802864845 2.899137802864845 0.0
    vertex -1.8004034423982471 5.745094371154194 0.0
    vertex -2.0499999999999994 3.5507041555161982 0.0
  endloop
endfacet
facet normal 0.0 0.0 -1.0
  outer loop
    vertex -2.0499999999999994 3.5507041555161982 0.0
    vertex -1.8004034423982471 5.745094371154194 0.0
    vertex -1.061158084920335 3.96029588778518 0.0
  endloop
endfacet
facet normal 0.0 0.0 -1.0
  outer loop
    vertex -1.061158084920335 3.96029588778518 0.0
    vertex -1.8004034423982471 5.745094371154194 0.0
    vertex -0.3150935866311828 6.012343795936071 0.0
  endloop
endfacet
facet normal 0.0 0.0 -1.0
  outer loop
    vertex -1.061158084920335 3.96029588778518 0.0
    vertex -0.3150935866311828 6.012343795936071 0.0
    vertex 0.0 4.1 0.0
  endloop
endfacet
facet normal 0.0 0.0 -1.0
  outer loop
    vertex 0.0 4.1 0.0
    vertex -0.3150935866311828 6.012343795936071 0.0
    vertex 1.190014758017069 5.901815548165551 0.0
  endloop
endfacet
facet normal 0.0 0.0 -1.0
  outer loop
    vertex 0.0 4.1 0.0
    vertex 1.190014758017069 5.901815548165551 0.0
    vertex 1.0611580849203384 3.960295887785179 0.0
  endloop
endfacet
facet normal 0.0 0.0 -1.0
  outer loop
    vertex 1.0611580849203384 3.960295887785179 0.0
    vertex 1.190014758017069 5.901815548165551 0.0
    vertex 2.0500000000000016 3.5507041555161964 0.0
  endloop
endfacet
facet normal 0.0 0.0 -1.0
  outer loop
    vertex 2.0500000000000016 3.5507041555161964 0.0
    vertex 1.190014758017069 5.901815548165551 0.0
    vertex 2.6203500988509743 5.4204545241445174 0.0
  endloop
endfacet
facet normal 0.0 0.0 -1.0
  outer loop
    vertex 2.0500000000000016 3.5507041555161964 0.0
    vertex 2.6203500988509743 5.4204545241445174 0.0
    vertex 2.8991378028648453 2.8991378028648436 0.0
  endloop
endfacet
facet normal 0.0 0.0 -1.0
  outer loop
    vertex 2.8991378028648453 2.8991378028648436 0.0
    vertex 2.6203500988509743 5.4204545241445174 0.0
    vertex 3.8860392060005258 4.59850640733422 0.0
  endloop
endfacet
facet normal 0.0 0.0 -1.0
  outer loop
    vertex 2.8991378028648453 2.8991378028648436 0.0
    vertex 3.8860392060005258 4.59850640733422 0.0
    vertex 3.5507041555161996 2.049999999999997 0.0
  endloop
endfacet
facet normal 0.0 0.0 -1.0
  outer loop
    vertex 3.5507041555161996 2.049999999999997 0.0
    vertex 3.8860392060005258 4.59850640733422 0.0
    vertex 3.96029588778518 1.061158084920333 0.0
  endloop
endfacet
facet normal 0.0 0.0 -1.0
  outer loop
    vertex 3.96029588778518 1.061158084920333 0.0
    vertex 3.8860392060005258 4.59850640733422 0.0
    vertex 4.907554177984594 3.4876172208275693 0.0
  endloop
endfacet
facet normal 0.0 0.0 -1.0
  outer loop
    vertex 3.96029588778518 1.061158084920333 0.0
    vertex 4.907554177984594 3.4876172208275693 0.0
    vertex 4.1 -7.53157781475622e-16 0.0
  endloop
endfacet
facet normal 0.0 0.0 -1.0
  outer loop
    vertex 4.1 -7.53157781475622e-16 0.0
    vertex 4.907554177984594 3.4876172208275693 0.0
    vertex 4.833438726024268 -3.589628388933312 0.0
  endloop
endfacet
facet normal 0.0 0.0 -1.0
  outer loop
    vertex 4.833438726024268 -3.589628388933312 0.0
    vertex 4.907554177984594 3.4876172208275693 0.0
    vertex 5.574291639381714 -2.2748262808368884 0.0
  endloop
endfacet
facet normal 0.0 0.0 -1.0
  outer loop
    vertex 5.574291639381714 -2.2748262808368884 0.0
    vertex 4.907554177984594 3.4876172208275693 0.0
    vertex 5.620709472244153 2.1575882177774153 0.0
  endloop
endfacet
facet normal 0.0 0.0 -1.0
  outer loop
    vertex 5.574291639381714 -2.2748262808368884 0.0
    vertex 5.620709472244153 2.1575882177774153 0.0
    vertex 5.980694918839167 0.6919900119499099 0.0
  endloop
endfacet
facet normal 0.0 0.0 -1.0
  outer loop
    vertex -5.815448018419333 1.558244600160619 0.0
    vertex -5.846806007265251 -1.4361132971580097 0.0
    vertex -6.020264698849019 0.06304636912142426 0.0
  endloop
endfacet
facet normal 0.0 0.0 -1.0
  outer loop
    vertex -5.846806007265251 -1.4361132971580097 0.0
    vertex -5.815448018419333 1.558244600160619 0.0
    vertex -5.3059709911966735 -2.8450366833217564 0.0
  endloop
endfacet
facet normal 0.0 0.0 -1.0
  outer loop
    vertex -5.3059709911966735 -2.8450366833217564 0.0
    vertex -5.815448018419333 1.558244600160619 0.0
    vertex -5.2452253512706415 2.9555325921489763 0.0
  endloop
endfacet
facet normal 0.0 0.0 -1.0
  outer loop
    vertex -5.3059709911966735 -2.8450366833217564 0.0
    vertex -5.2452253512706415 2.9555325921489763 0.0
    vertex -4.4317423037549295 -4.0751959513593965 0.0
  endloop
endfacet
facet normal 0.0 0.0 -1.0
  outer loop
    vertex -4.4317423037549295 -4.0751959513593965 0.0
    vertex -5.2452253512706415 2.9555325921489763 0.0
    vertex -4.345425884712172 4.167113601684086 0.0
  endloop
endfacet
facet normal 0.0 0.0 -1.0
  outer loop
    vertex -4.4317423037549295 -4.0751959513593965 0.0
    vertex -4.345425884712172 4.167113601684086 0.0
    vertex -4.1 2.5105259382520737e-16 0.0
  endloop
endfacet
facet normal 0.0 0.0 -1.0
  outer loop
    vertex -4.4317423037549295 -4.0751959513593965 0.0
    vertex -4.1 2.5105259382520737e-16 0.0
    vertex -3.96029588778518 -1.0611580849203344 0.0
  endloop
endfacet
facet normal 0.0 0.0 -1.0
  outer loop
    vertex -4.4317423037549295 -4.0751959513593965 0.0
    vertex -3.96029588778518 -1.0611580849203344 0.0
    vertex -3.2790509485601915 -5.04929567025081 0.0
  endloop
endfacet
facet normal 0.0 0.0 -1.0
  outer loop
    vertex -3.2790509485601915 -5.04929567025081 0.0
    vertex -3.96029588778518 -1.0611580849203344 0.0
    vertex -3.5507041555161982 -2.0499999999999985 0.0
  endloop
endfacet
facet normal 0.0 0.0 -1.0
  outer loop
    vertex -3.2790509485601915 -5.04929567025081 0.0
    vertex -3.5507041555161982 -2.0499999999999985 0.0
    vertex -2.899137802864845 -2.899137802864844 0.0
  endloop
endfacet
facet normal 0.0 0.0 -1.0
  outer loop
    vertex -3.2790509485601915 -5.04929567025081 0.0
    vertex -2.899137802864845 -2.899137802864844 0.0
    vertex -1.9203247627616031 -5.706129572169884 0.0
  endloop
endfacet
facet normal 0.0 0.0 -1.0
  outer loop
    vertex -1.9203247627616031 -5.706129572169884 0.0
    vertex -2.899137802864845 -2.899137802864844 0.0
    vertex -2.050000000000001 -3.5507041555161973 0.0
  endloop
endfacet
facet normal 0.0 0.0 -1.0
  outer loop
    vertex -1.9203247627616031 -5.706129572169884 0.0
    vertex -2.050000000000001 -3.5507041555161973 0.0
    vertex -1.061158084920336 -3.960295887785179 0.0
  endloop
endfacet
facet normal 0.0 0.0 -1.0
  outer loop
    vertex -1.9203247627616031 -5.706129572169884 0.0
    vertex -1.061158084920336 -3.960295887785179 0.0
    vertex -0.44093750965825323 -6.004426367392929 0.0
  endloop
endfacet
facet normal 0.0 0.0 -1.0
  outer loop
    vertex -0.44093750965825323 -6.004426367392929 0.0
    vertex -1.061158084920336 -3.960295887785179 0.0
    vertex -5.021051876504147e-16 -4.1 0.0
  endloop
endfacet
facet normal 0.0 0.0 -1.0
  outer loop
    vertex -0.44093750965825323 -6.004426367392929 0.0
    vertex -5.021051876504147e-16 -4.1 0.0
    vertex 1.0661554688316488 -5.92544297121721 0.0
  endloop
endfacet
facet normal 0.0 0.0 -1.0
  outer loop
    vertex 1.0661554688316488 -5.92544297121721 0.0
    vertex -5.021051876504147e-16 -4.1 0.0
    vertex 1.0611580849203335 -3.96029588778518 0.0
  endloop
endfacet
facet normal 0.0 0.0 -1.0
  outer loop
    vertex 1.0661554688316488 -5.92544297121721 0.0
    vertex 1.0611580849203335 -3.96029588778518 0.0
    vertex 2.0499999999999985 -3.5507041555161987 0.0
  endloop
endfacet
facet normal 0.0 0.0 -1.0
  outer loop
    vertex 1.0661554688316488 -5.92544297121721 0.0
    vertex 2.0499999999999985 -3.5507041555161987 0.0
    vertex 2.5062579781693253 -5.4741422009050575 0.0
  endloop
endfacet
facet normal 0.0 0.0 -1.0
  outer loop
    vertex 2.5062579781693253 -5.4741422009050575 0.0
    vertex 2.0499999999999985 -3.5507041555161987 0.0
    vertex 2.899137802864843 -2.8991378028648462 0.0
  endloop
endfacet
facet normal 0.0 0.0 -1.0
  outer loop
    vertex 2.5062579781693253 -5.4741422009050575 0.0
    vertex 2.899137802864843 -2.8991378028648462 0.0
    vertex 3.788883081366545 -4.678880943623318 0.0
  endloop
endfacet
facet normal 0.0 0.0 -1.0
  outer loop
    vertex 3.788883081366545 -4.678880943623318 0.0
    vertex 2.899137802864843 -2.8991378028648462 0.0
    vertex 3.5507041555161973 -2.0500000000000016 0.0
  endloop
endfacet
facet normal 0.0 0.0 -1.0
  outer loop
    vertex 3.788883081366545 -4.678880943623318 0.0
    vertex 3.5507041555161973 -2.0500000000000016 0.0
    vertex 3.960295887785179 -1.0611580849203381 0.0
  endloop
endfacet
facet normal 0.0 0.0 -1.0
  outer loop
    vertex 3.788883081366545 -4.678880943623318 0.0
    vertex 3.960295887785179 -1.0611580849203381 0.0
    vertex 4.833438726024268 -3.589628388933312 0.0
  endloop
endfacet
facet normal 0.0 0.0 -1.0
  outer loop
    vertex 4.833438726024268 -3.589628388933312 0.0
    vertex 3.960295887785179 -1.0611580849203381 0.0
    vertex 4.1 -7.53157781475622e-16 0.0
  endloop
endfacet
endsolid Подшипник-8х22мм-Вал-ШД
