solid Шайба-5-9мм
facet normal 0.0 0.0 -1.0
  outer loop
    vertex -4.5 4.500000000000001 0.0
    vertex -1.2499999999999991 2.1650635094610964 0.0
    vertex -4.5 5.51091059616309e-16 0.0
  endloop
endfacet
facet normal 0.0 0.0 -1.0
  outer loop
    vertex -1.2499999999999991 2.1650635094610964 0.0
    vertex -4.5 4.500000000000001 0.0
    vertex -0.6470476127563014 2.4148145657226703 0.0
  endloop
endfacet
facet normal 0.0 0.0 -1.0
  outer loop
    vertex -0.6470476127563014 2.4148145657226703 0.0
    vertex -4.5 4.500000000000001 0.0
    vertex 4.5 4.500000000000001 0.0
  endloop
endfacet
facet normal 0.0 0.0 -1.0
  outer loop
    vertex -4.5 5.51091059616309e-16 0.0
    vertex -1.2499999999999991 2.1650635094610964 0.0
    vertex -1.767766952966368 1.7677669529663687 0.0
  endloop
endfacet
facet normal 0.0 0.0 -1.0
  outer loop
    vertex -4.5 5.51091059616309e-16 0.0
    vertex -1.767766952966368 1.7677669529663687 0.0
    vertex -4.3466662183008085 -1.1646857029613418 0.0
  endloop
endfacet
facet normal 0.0 0.0 -1.0
  outer loop
    vertex -4.3466662183008085 -1.1646857029613418 0.0
    vertex -1.767766952966368 1.7677669529663687 0.0
    vertex -2.1650635094610955 1.2500000000000007 0.0
  endloop
endfacet
facet normal 0.0 0.0 -1.0
  outer loop
    vertex -4.3466662183008085 -1.1646857029613418 0.0
    vertex -2.1650635094610955 1.2500000000000007 0.0
    vertex -3.897114317029975 -2.2499999999999987 0.0
  endloop
endfacet
facet normal 0.0 0.0 -1.0
  outer loop
    vertex -3.897114317029975 -2.2499999999999987 0.0
    vertex -2.1650635094610955 1.2500000000000007 0.0
    vertex -2.41481456572267 0.6470476127563024 0.0
  endloop
endfacet
facet normal 0.0 0.0 -1.0
  outer loop
    vertex -3.897114317029975 -2.2499999999999987 0.0
    vertex -2.41481456572267 0.6470476127563024 0.0
    vertex -3.1819805153394656 -3.181980515339462 0.0
  endloop
endfacet
facet normal 0.0 0.0 -1.0
  outer loop
    vertex -3.1819805153394656 -3.181980515339462 0.0
    vertex -2.41481456572267 0.6470476127563024 0.0
    vertex -2.499999999999999 3.0616169978683826e-16 0.0
  endloop
endfacet
facet normal 0.0 0.0 -1.0
  outer loop
    vertex -0.6470476127563014 2.4148145657226703 0.0
    vertex 4.5 4.500000000000001 0.0
    vertex 1.530808498934191e-16 2.4999999999999996 0.0
  endloop
endfacet
facet normal 0.0 0.0 -1.0
  outer loop
    vertex 1.530808498934191e-16 2.4999999999999996 0.0
    vertex 4.5 4.500000000000001 0.0
    vertex 0.6470476127563023 2.4148145657226703 0.0
  endloop
endfacet
facet normal 0.0 0.0 -1.0
  outer loop
    vertex 0.6470476127563023 2.4148145657226703 0.0
    vertex 4.5 4.500000000000001 0.0
    vertex 1.25 2.1650635094610964 0.0
  endloop
endfacet
facet normal 0.0 0.0 -1.0
  outer loop
    vertex 1.25 2.1650635094610964 0.0
    vertex 4.5 4.500000000000001 0.0
    vertex 1.7677669529663682 1.7677669529663682 0.0
  endloop
endfacet
facet normal 0.0 0.0 -1.0
  outer loop
    vertex 1.7677669529663682 1.7677669529663682 0.0
    vertex 4.5 4.500000000000001 0.0
    vertex 2.1650635094610964 1.2499999999999996 0.0
  endloop
endfacet
facet normal 0.0 0.0 -1.0
  outer loop
    vertex 2.1650635094610964 1.2499999999999996 0.0
    vertex 4.5 4.500000000000001 0.0
    vertex 2.41481456572267 0.6470476127563017 0.0
  endloop
endfacet
facet normal 0.0 0.0 -1.0
  outer loop
    vertex 2.41481456572267 0.6470476127563017 0.0
    vertex 4.5 4.500000000000001 0.0
    vertex 2.499999999999999 0.0 0.0
  endloop
endfacet
facet normal 0.0 0.0 -1.0
  outer loop
    vertex 2.499999999999999 0.0 0.0
    vertex 4.5 4.500000000000001 0.0
    vertex 3.1819805153394634 -3.1819805153394647 0.0
  endloop
endfacet
facet normal 0.0 0.0 -1.0
  outer loop
    vertex 3.1819805153394634 -3.1819805153394647 0.0
    vertex 4.5 4.500000000000001 0.0
    vertex 3.8971143170299727 -2.250000000000002 0.0
  endloop
endfacet
facet normal 0.0 0.0 -1.0
  outer loop
    vertex 3.8971143170299727 -2.250000000000002 0.0
    vertex 4.5 4.500000000000001 0.0
    vertex 4.346666218300807 -1.164685702961347 0.0
  endloop
endfacet
facet normal 0.0 0.0 -1.0
  outer loop
    vertex 4.346666218300807 -1.164685702961347 0.0
    vertex 4.5 4.500000000000001 0.0
    vertex 4.5 0.0 0.0
  endloop
endfacet
facet normal 0.0 0.0 -1.0
  outer loop
    vertex -2.499999999999999 3.0616169978683826e-16 0.0
    vertex -2.250000000000002 -3.8971143170299727 0.0
    vertex -3.1819805153394656 -3.181980515339462 0.0
  endloop
endfacet
facet normal 0.0 0.0 -1.0
  outer loop
    vertex -2.250000000000002 -3.8971143170299727 0.0
    vertex -2.499999999999999 3.0616169978683826e-16 0.0
    vertex -2.4148145657226703 -0.6470476127563007 0.0
  endloop
endfacet
facet normal 0.0 0.0 -1.0
  outer loop
    vertex -2.250000000000002 -3.8971143170299727 0.0
    vertex -2.4148145657226703 -0.6470476127563007 0.0
    vertex -2.1650635094610964 -1.2499999999999991 0.0
  endloop
endfacet
facet normal 0.0 0.0 -1.0
  outer loop
    vertex -2.250000000000002 -3.8971143170299727 0.0
    vertex -2.1650635094610964 -1.2499999999999991 0.0
    vertex -1.1646857029613469 -4.346666218300807 0.0
  endloop
endfacet
facet normal 0.0 0.0 -1.0
  outer loop
    vertex -1.1646857029613469 -4.346666218300807 0.0
    vertex -2.1650635094610964 -1.2499999999999991 0.0
    vertex -1.767766952966369 -1.7677669529663675 0.0
  endloop
endfacet
facet normal 0.0 0.0 -1.0
  outer loop
    vertex -1.1646857029613469 -4.346666218300807 0.0
    vertex -1.767766952966369 -1.7677669529663675 0.0
    vertex -1.2500000000000007 -2.1650635094610955 0.0
  endloop
endfacet
facet normal 0.0 0.0 -1.0
  outer loop
    vertex -1.1646857029613469 -4.346666218300807 0.0
    vertex -1.2500000000000007 -2.1650635094610955 0.0
    vertex -0.6470476127563036 -2.41481456572267 0.0
  endloop
endfacet
facet normal 0.0 0.0 -1.0
  outer loop
    vertex -1.1646857029613469 -4.346666218300807 0.0
    vertex -0.6470476127563036 -2.41481456572267 0.0
    vertex -8.266365894244633e-16 -4.5 0.0
  endloop
endfacet
facet normal 0.0 0.0 -1.0
  outer loop
    vertex -8.266365894244633e-16 -4.5 0.0
    vertex -0.6470476127563036 -2.41481456572267 0.0
    vertex -4.592425496802573e-16 -2.4999999999999996 0.0
  endloop
endfacet
facet normal 0.0 0.0 -1.0
  outer loop
    vertex -8.266365894244633e-16 -4.5 0.0
    vertex -4.592425496802573e-16 -2.4999999999999996 0.0
    vertex 1.1646857029613413 -4.3466662183008085 0.0
  endloop
endfacet
facet normal 0.0 0.0 -1.0
  outer loop
    vertex 1.1646857029613413 -4.3466662183008085 0.0
    vertex -4.592425496802573e-16 -2.4999999999999996 0.0
    vertex 0.6470476127563006 -2.4148145657226707 0.0
  endloop
endfacet
facet normal 0.0 0.0 -1.0
  outer loop
    vertex 1.1646857029613413 -4.3466662183008085 0.0
    vertex 0.6470476127563006 -2.4148145657226707 0.0
    vertex 1.249999999999998 -2.1650635094610973 0.0
  endloop
endfacet
facet normal 0.0 0.0 -1.0
  outer loop
    vertex 1.1646857029613413 -4.3466662183008085 0.0
    vertex 1.249999999999998 -2.1650635094610973 0.0
    vertex 2.249999999999997 -3.8971143170299753 0.0
  endloop
endfacet
facet normal 0.0 0.0 -1.0
  outer loop
    vertex 2.249999999999997 -3.8971143170299753 0.0
    vertex 1.249999999999998 -2.1650635094610973 0.0
    vertex 1.767766952966368 -1.767766952966369 0.0
  endloop
endfacet
facet normal 0.0 0.0 -1.0
  outer loop
    vertex 2.249999999999997 -3.8971143170299753 0.0
    vertex 1.767766952966368 -1.767766952966369 0.0
    vertex 2.165063509461095 -1.2500000000000009 0.0
  endloop
endfacet
facet normal 0.0 0.0 -1.0
  outer loop
    vertex 2.249999999999997 -3.8971143170299753 0.0
    vertex 2.165063509461095 -1.2500000000000009 0.0
    vertex 2.4148145657226694 -0.6470476127563038 0.0
  endloop
endfacet
facet normal 0.0 0.0 -1.0
  outer loop
    vertex 2.249999999999997 -3.8971143170299753 0.0
    vertex 2.4148145657226694 -0.6470476127563038 0.0
    vertex 3.1819805153394634 -3.1819805153394647 0.0
  endloop
endfacet
facet normal 0.0 0.0 -1.0
  outer loop
    vertex 3.1819805153394634 -3.1819805153394647 0.0
    vertex 2.4148145657226694 -0.6470476127563038 0.0
    vertex 2.499999999999999 0.0 0.0
  endloop
endfacet
facet normal -0.0 -0.0 1.0
  outer loop
    vertex -2.250000000000002 -3.8971143170299727 15.0
    vertex -2.499999999999999 3.0616169978683826e-16 15.0
    vertex -3.1819805153394656 -3.181980515339462 15.0
  endloop
endfacet
facet normal -0.0 -0.0 1.0
  outer loop
    vertex -2.499999999999999 3.0616169978683826e-16 15.0
    vertex -2.250000000000002 -3.8971143170299727 15.0
    vertex -2.4148145657226703 -0.6470476127563007 15.0
  endloop
endfacet
facet normal -0.0 -0.0 1.0
  outer loop
    vertex -2.4148145657226703 -0.6470476127563007 15.0
    vertex -2.250000000000002 -3.8971143170299727 15.0
    vertex -2.1650635094610964 -1.2499999999999991 15.0
  endloop
endfacet
facet normal -0.0 -0.0 1.0
  outer loop
    vertex -2.1650635094610964 -1.2499999999999991 15.0
    vertex -2.250000000000002 -3.8971143170299727 15.0
    vertex -1.1646857029613469 -4.346666218300807 15.0
  endloop
endfacet
facet normal -0.0 -0.0 1.0
  outer loop
    vertex -2.1650635094610964 -1.2499999999999991 15.0
    vertex -1.1646857029613469 -4.346666218300807 15.0
    vertex -1.767766952966369 -1.7677669529663675 15.0
  endloop
endfacet
facet normal -0.0 -0.0 1.0
  outer loop
    vertex -1.767766952966369 -1.7677669529663675 15.0
    vertex -1.1646857029613469 -4.346666218300807 15.0
    vertex -1.2500000000000007 -2.1650635094610955 15.0
  endloop
endfacet
facet normal -0.0 -0.0 1.0
  outer loop
    vertex -1.2500000000000007 -2.1650635094610955 15.0
    vertex -1.1646857029613469 -4.346666218300807 15.0
    vertex -0.6470476127563036 -2.41481456572267 15.0
  endloop
endfacet
facet normal -0.0 -0.0 1.0
  outer loop
    vertex -0.6470476127563036 -2.41481456572267 15.0
    vertex -1.1646857029613469 -4.346666218300807 15.0
    vertex -8.266365894244633e-16 -4.5 15.0
  endloop
endfacet
facet normal -0.0 -0.0 1.0
  outer loop
    vertex -0.6470476127563036 -2.41481456572267 15.0
    vertex -8.266365894244633e-16 -4.5 15.0
    vertex -4.592425496802573e-16 -2.4999999999999996 15.0
  endloop
endfacet
facet normal -0.0 -0.0 1.0
  outer loop
    vertex -4.592425496802573e-16 -2.4999999999999996 15.0
    vertex -8.266365894244633e-16 -4.5 15.0
    vertex 1.1646857029613413 -4.3466662183008085 15.0
  endloop
endfacet
facet normal -0.0 -0.0 1.0
  outer loop
    vertex -4.592425496802573e-16 -2.4999999999999996 15.0
    vertex 1.1646857029613413 -4.3466662183008085 15.0
    vertex 0.6470476127563006 -2.4148145657226707 15.0
  endloop
endfacet
facet normal -0.0 -0.0 1.0
  outer loop
    vertex 0.6470476127563006 -2.4148145657226707 15.0
    vertex 1.1646857029613413 -4.3466662183008085 15.0
    vertex 1.249999999999998 -2.1650635094610973 15.0
  endloop
endfacet
facet normal -0.0 -0.0 1.0
  outer loop
    vertex 1.249999999999998 -2.1650635094610973 15.0
    vertex 1.1646857029613413 -4.3466662183008085 15.0
    vertex 2.249999999999997 -3.8971143170299753 15.0
  endloop
endfacet
facet normal -0.0 -0.0 1.0
  outer loop
    vertex 1.249999999999998 -2.1650635094610973 15.0
    vertex 2.249999999999997 -3.8971143170299753 15.0
    vertex 1.767766952966368 -1.767766952966369 15.0
  endloop
endfacet
facet normal -0.0 -0.0 1.0
  outer loop
    vertex 1.767766952966368 -1.767766952966369 15.0
    vertex 2.249999999999997 -3.8971143170299753 15.0
    vertex 2.165063509461095 -1.2500000000000009 15.0
  endloop
endfacet
facet normal -0.0 -0.0 1.0
  outer loop
    vertex 2.165063509461095 -1.2500000000000009 15.0
    vertex 2.249999999999997 -3.8971143170299753 15.0
    vertex 2.4148145657226694 -0.6470476127563038 15.0
  endloop
endfacet
facet normal -0.0 -0.0 1.0
  outer loop
    vertex 2.4148145657226694 -0.6470476127563038 15.0
    vertex 2.249999999999997 -3.8971143170299753 15.0
    vertex 3.1819805153394634 -3.1819805153394647 15.0
  endloop
endfacet
facet normal -0.0 -0.0 1.0
  outer loop
    vertex 2.4148145657226694 -0.6470476127563038 15.0
    vertex 3.1819805153394634 -3.1819805153394647 15.0
    vertex 2.499999999999999 0.0 15.0
  endloop
endfacet
facet normal -0.0 -0.0 1.0
  outer loop
    vertex -4.3466662183008085 -1.1646857029613418 15.0
    vertex -4.5 4.500000000000001 15.0
    vertex -4.5 5.51091059616309e-16 15.0
  endloop
endfacet
facet normal -0.0 -0.0 1.0
  outer loop
    vertex -4.5 4.500000000000001 15.0
    vertex -4.3466662183008085 -1.1646857029613418 15.0
    vertex -1.767766952966368 1.7677669529663687 15.0
  endloop
endfacet
facet normal -0.0 -0.0 1.0
  outer loop
    vertex -4.5 4.500000000000001 15.0
    vertex -1.767766952966368 1.7677669529663687 15.0
    vertex -1.2499999999999991 2.1650635094610964 15.0
  endloop
endfacet
facet normal -0.0 -0.0 1.0
  outer loop
    vertex -4.5 4.500000000000001 15.0
    vertex -1.2499999999999991 2.1650635094610964 15.0
    vertex -0.6470476127563014 2.4148145657226703 15.0
  endloop
endfacet
facet normal -0.0 -0.0 1.0
  outer loop
    vertex -4.5 4.500000000000001 15.0
    vertex -0.6470476127563014 2.4148145657226703 15.0
    vertex 4.5 4.500000000000001 15.0
  endloop
endfacet
facet normal -0.0 -0.0 1.0
  outer loop
    vertex -1.767766952966368 1.7677669529663687 15.0
    vertex -4.3466662183008085 -1.1646857029613418 15.0
    vertex -2.1650635094610955 1.2500000000000007 15.0
  endloop
endfacet
facet normal -0.0 -0.0 1.0
  outer loop
    vertex -2.1650635094610955 1.2500000000000007 15.0
    vertex -4.3466662183008085 -1.1646857029613418 15.0
    vertex -3.897114317029975 -2.2499999999999987 15.0
  endloop
endfacet
facet normal -0.0 -0.0 1.0
  outer loop
    vertex -2.1650635094610955 1.2500000000000007 15.0
    vertex -3.897114317029975 -2.2499999999999987 15.0
    vertex -2.41481456572267 0.6470476127563024 15.0
  endloop
endfacet
facet normal -0.0 -0.0 1.0
  outer loop
    vertex -2.41481456572267 0.6470476127563024 15.0
    vertex -3.897114317029975 -2.2499999999999987 15.0
    vertex -3.1819805153394656 -3.181980515339462 15.0
  endloop
endfacet
facet normal -0.0 -0.0 1.0
  outer loop
    vertex -2.41481456572267 0.6470476127563024 15.0
    vertex -3.1819805153394656 -3.181980515339462 15.0
    vertex -2.499999999999999 3.0616169978683826e-16 15.0
  endloop
endfacet
facet normal -0.0 -0.0 1.0
  outer loop
    vertex 4.5 4.500000000000001 15.0
    vertex -0.6470476127563014 2.4148145657226703 15.0
    vertex 1.530808498934191e-16 2.4999999999999996 15.0
  endloop
endfacet
facet normal -0.0 -0.0 1.0
  outer loop
    vertex 4.5 4.500000000000001 15.0
    vertex 1.530808498934191e-16 2.4999999999999996 15.0
    vertex 0.6470476127563023 2.4148145657226703 15.0
  endloop
endfacet
facet normal -0.0 -0.0 1.0
  outer loop
    vertex 4.5 4.500000000000001 15.0
    vertex 0.6470476127563023 2.4148145657226703 15.0
    vertex 1.25 2.1650635094610964 15.0
  endloop
endfacet
facet normal -0.0 -0.0 1.0
  outer loop
    vertex 4.5 4.500000000000001 15.0
    vertex 1.25 2.1650635094610964 15.0
    vertex 1.7677669529663682 1.7677669529663682 15.0
  endloop
endfacet
facet normal -0.0 -0.0 1.0
  outer loop
    vertex 4.5 4.500000000000001 15.0
    vertex 1.7677669529663682 1.7677669529663682 15.0
    vertex 2.1650635094610964 1.2499999999999996 15.0
  endloop
endfacet
facet normal -0.0 -0.0 1.0
  outer loop
    vertex 4.5 4.500000000000001 15.0
    vertex 2.1650635094610964 1.2499999999999996 15.0
    vertex 2.41481456572267 0.6470476127563017 15.0
  endloop
endfacet
facet normal -0.0 -0.0 1.0
  outer loop
    vertex 4.5 4.500000000000001 15.0
    vertex 2.41481456572267 0.6470476127563017 15.0
    vertex 2.499999999999999 0.0 15.0
  endloop
endfacet
facet normal -0.0 -0.0 1.0
  outer loop
    vertex 4.5 4.500000000000001 15.0
    vertex 2.499999999999999 0.0 15.0
    vertex 3.1819805153394634 -3.1819805153394647 15.0
  endloop
endfacet
facet normal -0.0 -0.0 1.0
  outer loop
    vertex 4.5 4.500000000000001 15.0
    vertex 3.1819805153394634 -3.1819805153394647 15.0
    vertex 3.8971143170299727 -2.250000000000002 15.0
  endloop
endfacet
facet normal -0.0 -0.0 1.0
  outer loop
    vertex 4.5 4.500000000000001 15.0
    vertex 3.8971143170299727 -2.250000000000002 15.0
    vertex 4.346666218300807 -1.164685702961347 15.0
  endloop
endfacet
facet normal -0.0 -0.0 1.0
  outer loop
    vertex 4.5 4.500000000000001 15.0
    vertex 4.346666218300807 -1.164685702961347 15.0
    vertex 4.5 0.0 15.0
  endloop
endfacet
facet normal -1.0 0.0 0.0
  outer loop
    vertex -4.5 4.500000000000001 15.0
    vertex -4.5 5.51091059616309e-16 0.0
    vertex -4.5 5.51091059616309e-16 15.0
  endloop
endfacet
facet normal -1.0 0.0 0.0
  outer loop
    vertex -4.5 5.51091059616309e-16 0.0
    vertex -4.5 4.500000000000001 15.0
    vertex -4.5 4.500000000000001 0.0
  endloop
endfacet
facet normal -0.0 1.0 0.0
  outer loop
    vertex -4.5 4.500000000000001 15.0
    vertex 4.5 4.500000000000001 0.0
    vertex -4.5 4.500000000000001 0.0
  endloop
endfacet
facet normal -0.0 1.0 0.0
  outer loop
    vertex 4.5 4.500000000000001 0.0
    vertex -4.5 4.500000000000001 15.0
    vertex 4.5 4.500000000000001 15.0
  endloop
endfacet
facet normal 1.0 0.0 0.0
  outer loop
    vertex 4.5 4.500000000000001 0.0
    vertex 4.5 0.0 15.0
    vertex 4.5 0.0 0.0
  endloop
endfacet
facet normal 1.0 0.0 0.0
  outer loop
    vertex 4.5 0.0 15.0
    vertex 4.5 4.500000000000001 0.0
    vertex 4.5 4.500000000000001 15.0
  endloop
endfacet
facet normal 0.9914448613738104 -0.13052619222005193 0.0
  outer loop
    vertex 4.5 0.0 0.0
    vertex 4.346666218300807 -1.164685702961347 15.0
    vertex 4.346666218300807 -1.164685702961347 0.0
  endloop
endfacet
facet normal 0.9914448613738104 -0.13052619222005193 0.0
  outer loop
    vertex 4.346666218300807 -1.164685702961347 15.0
    vertex 4.5 0.0 0.0
    vertex 4.5 0.0 15.0
  endloop
endfacet
facet normal 0.9238795325112864 -0.3826834323650906 0.0
  outer loop
    vertex 4.346666218300807 -1.164685702961347 0.0
    vertex 3.8971143170299727 -2.250000000000002 15.0
    vertex 3.8971143170299727 -2.250000000000002 0.0
  endloop
endfacet
facet normal 0.9238795325112864 -0.3826834323650906 0.0
  outer loop
    vertex 3.8971143170299727 -2.250000000000002 15.0
    vertex 4.346666218300807 -1.164685702961347 0.0
    vertex 4.346666218300807 -1.164685702961347 15.0
  endloop
endfacet
facet normal 0.7933533402912349 -0.6087614290087209 0.0
  outer loop
    vertex 3.8971143170299727 -2.250000000000002 0.0
    vertex 3.1819805153394634 -3.1819805153394647 15.0
    vertex 3.1819805153394634 -3.1819805153394647 0.0
  endloop
endfacet
facet normal 0.7933533402912349 -0.6087614290087209 0.0
  outer loop
    vertex 3.1819805153394634 -3.1819805153394647 15.0
    vertex 3.8971143170299727 -2.250000000000002 0.0
    vertex 3.8971143170299727 -2.250000000000002 15.0
  endloop
endfacet
facet normal 0.60876142900872 -0.7933533402912357 0.0
  outer loop
    vertex 3.1819805153394634 -3.1819805153394647 15.0
    vertex 2.249999999999997 -3.8971143170299753 0.0
    vertex 3.1819805153394634 -3.1819805153394647 0.0
  endloop
endfacet
facet normal 0.60876142900872 -0.7933533402912357 0.0
  outer loop
    vertex 2.249999999999997 -3.8971143170299753 0.0
    vertex 3.1819805153394634 -3.1819805153394647 15.0
    vertex 2.249999999999997 -3.8971143170299753 15.0
  endloop
endfacet
facet normal 0.3826834323650895 -0.9238795325112871 0.0
  outer loop
    vertex 2.249999999999997 -3.8971143170299753 15.0
    vertex 1.1646857029613413 -4.3466662183008085 0.0
    vertex 2.249999999999997 -3.8971143170299753 0.0
  endloop
endfacet
facet normal 0.3826834323650895 -0.9238795325112871 0.0
  outer loop
    vertex 1.1646857029613413 -4.3466662183008085 0.0
    vertex 2.249999999999997 -3.8971143170299753 15.0
    vertex 1.1646857029613413 -4.3466662183008085 15.0
  endloop
endfacet
facet normal 0.1305261922200513 -0.9914448613738106 0.0
  outer loop
    vertex 1.1646857029613413 -4.3466662183008085 15.0
    vertex -8.266365894244633e-16 -4.5 0.0
    vertex 1.1646857029613413 -4.3466662183008085 0.0
  endloop
endfacet
facet normal 0.1305261922200513 -0.9914448613738106 0.0
  outer loop
    vertex -8.266365894244633e-16 -4.5 0.0
    vertex 1.1646857029613413 -4.3466662183008085 15.0
    vertex -8.266365894244633e-16 -4.5 15.0
  endloop
endfacet
facet normal -0.13052619222005207 -0.9914448613738105 -0.0
  outer loop
    vertex -8.266365894244633e-16 -4.5 15.0
    vertex -1.1646857029613469 -4.346666218300807 0.0
    vertex -8.266365894244633e-16 -4.5 0.0
  endloop
endfacet
facet normal -0.13052619222005207 -0.9914448613738105 -0.0
  outer loop
    vertex -1.1646857029613469 -4.346666218300807 0.0
    vertex -8.266365894244633e-16 -4.5 15.0
    vertex -1.1646857029613469 -4.346666218300807 15.0
  endloop
endfacet
facet normal -0.38268343236509056 -0.9238795325112866 -0.0
  outer loop
    vertex -1.1646857029613469 -4.346666218300807 15.0
    vertex -2.250000000000002 -3.8971143170299727 0.0
    vertex -1.1646857029613469 -4.346666218300807 0.0
  endloop
endfacet
facet normal -0.38268343236509056 -0.9238795325112866 -0.0
  outer loop
    vertex -2.250000000000002 -3.8971143170299727 0.0
    vertex -1.1646857029613469 -4.346666218300807 15.0
    vertex -2.250000000000002 -3.8971143170299727 15.0
  endloop
endfacet
facet normal -0.6087614290087213 -0.7933533402912347 -0.0
  outer loop
    vertex -2.250000000000002 -3.8971143170299727 15.0
    vertex -3.1819805153394656 -3.181980515339462 0.0
    vertex -2.250000000000002 -3.8971143170299727 0.0
  endloop
endfacet
facet normal -0.6087614290087213 -0.7933533402912347 -0.0
  outer loop
    vertex -3.1819805153394656 -3.181980515339462 0.0
    vertex -2.250000000000002 -3.8971143170299727 15.0
    vertex -3.1819805153394656 -3.181980515339462 15.0
  endloop
endfacet
facet normal -0.7933533402912354 -0.6087614290087207 -0.0
  outer loop
    vertex -3.897114317029975 -2.2499999999999987 15.0
    vertex -3.1819805153394656 -3.181980515339462 0.0
    vertex -3.1819805153394656 -3.181980515339462 15.0
  endloop
endfacet
facet normal -0.7933533402912354 -0.6087614290087207 -0.0
  outer loop
    vertex -3.1819805153394656 -3.181980515339462 0.0
    vertex -3.897114317029975 -2.2499999999999987 15.0
    vertex -3.897114317029975 -2.2499999999999987 0.0
  endloop
endfacet
facet normal -0.9238795325112868 -0.3826834323650895 -0.0
  outer loop
    vertex -4.3466662183008085 -1.1646857029613418 15.0
    vertex -3.897114317029975 -2.2499999999999987 0.0
    vertex -3.897114317029975 -2.2499999999999987 15.0
  endloop
endfacet
facet normal -0.9238795325112868 -0.3826834323650895 -0.0
  outer loop
    vertex -3.897114317029975 -2.2499999999999987 0.0
    vertex -4.3466662183008085 -1.1646857029613418 15.0
    vertex -4.3466662183008085 -1.1646857029613418 0.0
  endloop
endfacet
facet normal -0.9914448613738106 -0.1305261922200513 -0.0
  outer loop
    vertex -4.5 5.51091059616309e-16 15.0
    vertex -4.3466662183008085 -1.1646857029613418 0.0
    vertex -4.3466662183008085 -1.1646857029613418 15.0
  endloop
endfacet
facet normal -0.9914448613738106 -0.1305261922200513 -0.0
  outer loop
    vertex -4.3466662183008085 -1.1646857029613418 0.0
    vertex -4.5 5.51091059616309e-16 15.0
    vertex -4.5 5.51091059616309e-16 0.0
  endloop
endfacet
facet normal 0.3826834323650908 0.9238795325112864 0.0
  outer loop
    vertex -1.2500000000000007 -2.1650635094610955 15.0
    vertex -0.6470476127563036 -2.41481456572267 0.0
    vertex -1.2500000000000007 -2.1650635094610955 0.0
  endloop
endfacet
facet normal 0.3826834323650908 0.9238795325112864 0.0
  outer loop
    vertex -0.6470476127563036 -2.41481456572267 0.0
    vertex -1.2500000000000007 -2.1650635094610955 15.0
    vertex -0.6470476127563036 -2.41481456572267 15.0
  endloop
endfacet
facet normal 0.13052619222005202 0.9914448613738104 0.0
  outer loop
    vertex -0.6470476127563036 -2.41481456572267 15.0
    vertex -4.592425496802573e-16 -2.4999999999999996 0.0
    vertex -0.6470476127563036 -2.41481456572267 0.0
  endloop
endfacet
facet normal 0.13052619222005202 0.9914448613738104 0.0
  outer loop
    vertex -4.592425496802573e-16 -2.4999999999999996 0.0
    vertex -0.6470476127563036 -2.41481456572267 15.0
    vertex -4.592425496802573e-16 -2.4999999999999996 15.0
  endloop
endfacet
facet normal -0.13052619222005138 0.9914448613738104 0.0
  outer loop
    vertex -4.592425496802573e-16 -2.4999999999999996 15.0
    vertex 0.6470476127563006 -2.4148145657226707 0.0
    vertex -4.592425496802573e-16 -2.4999999999999996 0.0
  endloop
endfacet
facet normal -0.13052619222005138 0.9914448613738104 0.0
  outer loop
    vertex 0.6470476127563006 -2.4148145657226707 0.0
    vertex -4.592425496802573e-16 -2.4999999999999996 15.0
    vertex 0.6470476127563006 -2.4148145657226707 15.0
  endloop
endfacet
facet normal -0.38268343236508917 0.923879532511287 0.0
  outer loop
    vertex 0.6470476127563006 -2.4148145657226707 15.0
    vertex 1.249999999999998 -2.1650635094610973 0.0
    vertex 0.6470476127563006 -2.4148145657226707 0.0
  endloop
endfacet
facet normal -0.38268343236508917 0.923879532511287 0.0
  outer loop
    vertex 1.249999999999998 -2.1650635094610973 0.0
    vertex 0.6470476127563006 -2.4148145657226707 15.0
    vertex 1.249999999999998 -2.1650635094610973 15.0
  endloop
endfacet
facet normal -0.6087614290087203 0.7933533402912355 0.0
  outer loop
    vertex 1.249999999999998 -2.1650635094610973 15.0
    vertex 1.767766952966368 -1.767766952966369 0.0
    vertex 1.249999999999998 -2.1650635094610973 0.0
  endloop
endfacet
facet normal -0.6087614290087203 0.7933533402912355 0.0
  outer loop
    vertex 1.767766952966368 -1.767766952966369 0.0
    vertex 1.249999999999998 -2.1650635094610973 15.0
    vertex 1.767766952966368 -1.767766952966369 15.0
  endloop
endfacet
facet normal -0.7933533402912353 0.6087614290087207 0.0
  outer loop
    vertex 2.165063509461095 -1.2500000000000009 15.0
    vertex 1.767766952966368 -1.767766952966369 0.0
    vertex 1.767766952966368 -1.767766952966369 15.0
  endloop
endfacet
facet normal -0.7933533402912353 0.6087614290087207 0.0
  outer loop
    vertex 1.767766952966368 -1.767766952966369 0.0
    vertex 2.165063509461095 -1.2500000000000009 15.0
    vertex 2.165063509461095 -1.2500000000000009 0.0
  endloop
endfacet
facet normal -0.9238795325112864 0.38268343236509084 0.0
  outer loop
    vertex 2.4148145657226694 -0.6470476127563038 15.0
    vertex 2.165063509461095 -1.2500000000000009 0.0
    vertex 2.165063509461095 -1.2500000000000009 15.0
  endloop
endfacet
facet normal -0.9238795325112864 0.38268343236509084 0.0
  outer loop
    vertex 2.165063509461095 -1.2500000000000009 0.0
    vertex 2.4148145657226694 -0.6470476127563038 15.0
    vertex 2.4148145657226694 -0.6470476127563038 0.0
  endloop
endfacet
facet normal -0.9914448613738104 0.13052619222005188 0.0
  outer loop
    vertex 2.499999999999999 0.0 15.0
    vertex 2.4148145657226694 -0.6470476127563038 0.0
    vertex 2.4148145657226694 -0.6470476127563038 15.0
  endloop
endfacet
facet normal -0.9914448613738104 0.13052619222005188 0.0
  outer loop
    vertex 2.4148145657226694 -0.6470476127563038 0.0
    vertex 2.499999999999999 0.0 15.0
    vertex 2.499999999999999 0.0 0.0
  endloop
endfacet
facet normal -0.9914448613738104 -0.13052619222005177 -0.0
  outer loop
    vertex 2.41481456572267 0.6470476127563017 15.0
    vertex 2.499999999999999 0.0 0.0
    vertex 2.499999999999999 0.0 15.0
  endloop
endfacet
facet normal -0.9914448613738104 -0.13052619222005177 -0.0
  outer loop
    vertex 2.499999999999999 0.0 0.0
    vertex 2.41481456572267 0.6470476127563017 15.0
    vertex 2.41481456572267 0.6470476127563017 0.0
  endloop
endfacet
facet normal -0.923879532511287 -0.3826834323650894 -0.0
  outer loop
    vertex 2.1650635094610964 1.2499999999999996 15.0
    vertex 2.41481456572267 0.6470476127563017 0.0
    vertex 2.41481456572267 0.6470476127563017 15.0
  endloop
endfacet
facet normal -0.923879532511287 -0.3826834323650894 -0.0
  outer loop
    vertex 2.41481456572267 0.6470476127563017 0.0
    vertex 2.1650635094610964 1.2499999999999996 15.0
    vertex 2.1650635094610964 1.2499999999999996 0.0
  endloop
endfacet
facet normal -0.7933533402912352 -0.6087614290087209 -0.0
  outer loop
    vertex 1.7677669529663682 1.7677669529663682 15.0
    vertex 2.1650635094610964 1.2499999999999996 0.0
    vertex 2.1650635094610964 1.2499999999999996 15.0
  endloop
endfacet
facet normal -0.7933533402912352 -0.6087614290087209 -0.0
  outer loop
    vertex 2.1650635094610964 1.2499999999999996 0.0
    vertex 1.7677669529663682 1.7677669529663682 15.0
    vertex 1.7677669529663682 1.7677669529663682 0.0
  endloop
endfacet
facet normal -0.6087614290087211 -0.7933533402912349 -0.0
  outer loop
    vertex 1.7677669529663682 1.7677669529663682 15.0
    vertex 1.25 2.1650635094610964 0.0
    vertex 1.7677669529663682 1.7677669529663682 0.0
  endloop
endfacet
facet normal -0.6087614290087211 -0.7933533402912349 -0.0
  outer loop
    vertex 1.25 2.1650635094610964 0.0
    vertex 1.7677669529663682 1.7677669529663682 15.0
    vertex 1.25 2.1650635094610964 15.0
  endloop
endfacet
facet normal -0.38268343236509006 -0.9238795325112868 -0.0
  outer loop
    vertex 1.25 2.1650635094610964 15.0
    vertex 0.6470476127563023 2.4148145657226703 0.0
    vertex 1.25 2.1650635094610964 0.0
  endloop
endfacet
facet normal -0.38268343236509006 -0.9238795325112868 -0.0
  outer loop
    vertex 0.6470476127563023 2.4148145657226703 0.0
    vertex 1.25 2.1650635094610964 15.0
    vertex 0.6470476127563023 2.4148145657226703 15.0
  endloop
endfacet
facet normal -0.1305261922200517 -0.9914448613738104 -0.0
  outer loop
    vertex 0.6470476127563023 2.4148145657226703 15.0
    vertex 1.530808498934191e-16 2.4999999999999996 0.0
    vertex 0.6470476127563023 2.4148145657226703 0.0
  endloop
endfacet
facet normal -0.1305261922200517 -0.9914448613738104 -0.0
  outer loop
    vertex 1.530808498934191e-16 2.4999999999999996 0.0
    vertex 0.6470476127563023 2.4148145657226703 15.0
    vertex 1.530808498934191e-16 2.4999999999999996 15.0
  endloop
endfacet
facet normal 0.13052619222005182 -0.9914448613738105 0.0
  outer loop
    vertex 1.530808498934191e-16 2.4999999999999996 15.0
    vertex -0.6470476127563014 2.4148145657226703 0.0
    vertex 1.530808498934191e-16 2.4999999999999996 0.0
  endloop
endfacet
facet normal 0.13052619222005182 -0.9914448613738105 0.0
  outer loop
    vertex -0.6470476127563014 2.4148145657226703 0.0
    vertex 1.530808498934191e-16 2.4999999999999996 15.0
    vertex -0.6470476127563014 2.4148145657226703 15.0
  endloop
endfacet
facet normal 0.38268343236508956 -0.923879532511287 0.0
  outer loop
    vertex -0.6470476127563014 2.4148145657226703 15.0
    vertex -1.2499999999999991 2.1650635094610964 0.0
    vertex -0.6470476127563014 2.4148145657226703 0.0
  endloop
endfacet
facet normal 0.38268343236508956 -0.923879532511287 0.0
  outer loop
    vertex -1.2499999999999991 2.1650635094610964 0.0
    vertex -0.6470476127563014 2.4148145657226703 15.0
    vertex -1.2499999999999991 2.1650635094610964 15.0
  endloop
endfacet
facet normal 0.6087614290087208 -0.7933533402912353 0.0
  outer loop
    vertex -1.2499999999999991 2.1650635094610964 15.0
    vertex -1.767766952966368 1.7677669529663687 0.0
    vertex -1.2499999999999991 2.1650635094610964 0.0
  endloop
endfacet
facet normal 0.6087614290087208 -0.7933533402912353 0.0
  outer loop
    vertex -1.767766952966368 1.7677669529663687 0.0
    vertex -1.2499999999999991 2.1650635094610964 15.0
    vertex -1.767766952966368 1.7677669529663687 15.0
  endloop
endfacet
facet normal 0.7933533402912349 -0.608761429008721 0.0
  outer loop
    vertex -1.767766952966368 1.7677669529663687 0.0
    vertex -2.1650635094610955 1.2500000000000007 15.0
    vertex -2.1650635094610955 1.2500000000000007 0.0
  endloop
endfacet
facet normal 0.7933533402912349 -0.608761429008721 0.0
  outer loop
    vertex -2.1650635094610955 1.2500000000000007 15.0
    vertex -1.767766952966368 1.7677669529663687 0.0
    vertex -1.767766952966368 1.7677669529663687 15.0
  endloop
endfacet
facet normal 0.9238795325112866 -0.3826834323650901 0.0
  outer loop
    vertex -2.1650635094610955 1.2500000000000007 0.0
    vertex -2.41481456572267 0.6470476127563024 15.0
    vertex -2.41481456572267 0.6470476127563024 0.0
  endloop
endfacet
facet normal 0.9238795325112866 -0.3826834323650901 0.0
  outer loop
    vertex -2.41481456572267 0.6470476127563024 15.0
    vertex -2.1650635094610955 1.2500000000000007 0.0
    vertex -2.1650635094610955 1.2500000000000007 15.0
  endloop
endfacet
facet normal 0.9914448613738104 -0.13052619222005168 0.0
  outer loop
    vertex -2.41481456572267 0.6470476127563024 0.0
    vertex -2.499999999999999 3.0616169978683826e-16 15.0
    vertex -2.499999999999999 3.0616169978683826e-16 0.0
  endloop
endfacet
facet normal 0.9914448613738104 -0.13052619222005168 0.0
  outer loop
    vertex -2.499999999999999 3.0616169978683826e-16 15.0
    vertex -2.41481456572267 0.6470476127563024 0.0
    vertex -2.41481456572267 0.6470476127563024 15.0
  endloop
endfacet
facet normal 0.9914448613738104 0.13052619222005138 0.0
  outer loop
    vertex -2.499999999999999 3.0616169978683826e-16 0.0
    vertex -2.4148145657226703 -0.6470476127563007 15.0
    vertex -2.4148145657226703 -0.6470476127563007 0.0
  endloop
endfacet
facet normal 0.9914448613738104 0.13052619222005138 0.0
  outer loop
    vertex -2.4148145657226703 -0.6470476127563007 15.0
    vertex -2.499999999999999 3.0616169978683826e-16 0.0
    vertex -2.499999999999999 3.0616169978683826e-16 15.0
  endloop
endfacet
facet normal 0.9238795325112871 0.3826834323650892 0.0
  outer loop
    vertex -2.4148145657226703 -0.6470476127563007 0.0
    vertex -2.1650635094610964 -1.2499999999999991 15.0
    vertex -2.1650635094610964 -1.2499999999999991 0.0
  endloop
endfacet
facet normal 0.9238795325112871 0.3826834323650892 0.0
  outer loop
    vertex -2.1650635094610964 -1.2499999999999991 15.0
    vertex -2.4148145657226703 -0.6470476127563007 0.0
    vertex -2.4148145657226703 -0.6470476127563007 15.0
  endloop
endfacet
facet normal 0.7933533402912354 0.6087614290087207 0.0
  outer loop
    vertex -2.1650635094610964 -1.2499999999999991 0.0
    vertex -1.767766952966369 -1.7677669529663675 15.0
    vertex -1.767766952966369 -1.7677669529663675 0.0
  endloop
endfacet
facet normal 0.7933533402912354 0.6087614290087207 0.0
  outer loop
    vertex -1.767766952966369 -1.7677669529663675 15.0
    vertex -2.1650635094610964 -1.2499999999999991 0.0
    vertex -2.1650635094610964 -1.2499999999999991 15.0
  endloop
endfacet
facet normal 0.6087614290087211 0.7933533402912349 0.0
  outer loop
    vertex -1.767766952966369 -1.7677669529663675 15.0
    vertex -1.2500000000000007 -2.1650635094610955 0.0
    vertex -1.767766952966369 -1.7677669529663675 0.0
  endloop
endfacet
facet normal 0.6087614290087211 0.7933533402912349 0.0
  outer loop
    vertex -1.2500000000000007 -2.1650635094610955 0.0
    vertex -1.767766952966369 -1.7677669529663675 15.0
    vertex -1.2500000000000007 -2.1650635094610955 15.0
  endloop
endfacet
endsolid Шайба-5-9мм
