solid 
   facet normal -9.876883e-001 -1.564344e-001 1.644396e-017
      outer loop
         vertex -8.500000e+000 0.000000e+000 -2.000000e+000
         vertex -8.500000e+000 -1.040950e-015 -1.190275e+001
         vertex -8.083981e+000 -2.626644e+000 -1.190275e+001
      endloop
   endfacet
   facet normal -7.071068e-001 -7.071068e-001 0.000000e+000
      outer loop
         vertex -6.876645e+000 -4.996175e+000 -1.190275e+001
         vertex -4.996175e+000 -6.876645e+000 -1.190275e+001
         vertex -4.996175e+000 -6.876645e+000 -2.000000e+000
      endloop
   endfacet
   facet normal -1.564344e-001 -9.876883e-001 -1.697650e-018
      outer loop
         vertex -2.626644e+000 -8.083981e+000 -1.190275e+001
         vertex 1.668891e-015 -8.500000e+000 -1.190275e+001
         vertex 1.561425e-015 -8.500000e+000 -2.000000e+000
      endloop
   endfacet
   facet normal 4.539905e-001 -8.910065e-001 0.000000e+000
      outer loop
         vertex 2.626644e+000 -8.083981e+000 -1.190275e+001
         vertex 4.996175e+000 -6.876645e+000 -1.190275e+001
         vertex 4.996175e+000 -6.876645e+000 -2.000000e+000
      endloop
   endfacet
   facet normal 8.910065e-001 -4.539905e-001 0.000000e+000
      outer loop
         vertex 6.876645e+000 -4.996175e+000 -1.190275e+001
         vertex 8.083981e+000 -2.626644e+000 -1.190275e+001
         vertex 8.083981e+000 -2.626644e+000 -2.000000e+000
      endloop
   endfacet
   facet normal 9.876883e-001 1.564344e-001 -0.000000e+000
      outer loop
         vertex 8.500000e+000 5.204749e-016 -1.190275e+001
         vertex 8.083981e+000 2.626644e+000 -1.190275e+001
         vertex 8.083981e+000 2.626644e+000 -2.000000e+000
      endloop
   endfacet
   facet normal 7.071068e-001 7.071068e-001 -0.000000e+000
      outer loop
         vertex 6.876645e+000 4.996175e+000 -1.190275e+001
         vertex 4.996175e+000 6.876645e+000 -1.190275e+001
         vertex 4.996175e+000 6.876645e+000 -2.000000e+000
      endloop
   endfacet
   facet normal 1.564344e-001 9.876883e-001 4.110989e-018
      outer loop
         vertex 2.626644e+000 8.083981e+000 -1.190275e+001
         vertex -2.602375e-016 8.500000e+000 -1.190275e+001
         vertex -5.204749e-016 8.500000e+000 -2.000000e+000
      endloop
   endfacet
   facet normal -4.539905e-001 8.910065e-001 0.000000e+000
      outer loop
         vertex -2.626644e+000 8.083981e+000 -1.190275e+001
         vertex -4.996175e+000 6.876645e+000 -1.190275e+001
         vertex -2.626644e+000 8.083981e+000 -2.000000e+000
      endloop
   endfacet
   facet normal -8.910065e-001 4.539905e-001 0.000000e+000
      outer loop
         vertex -6.876645e+000 4.996175e+000 -1.190275e+001
         vertex -8.083981e+000 2.626644e+000 -1.190275e+001
         vertex -8.083981e+000 2.626644e+000 -2.000000e+000
      endloop
   endfacet
   facet normal -9.876883e-001 1.564344e-001 -1.644396e-017
      outer loop
         vertex -8.500000e+000 -1.040950e-015 -1.190275e+001
         vertex -8.500000e+000 0.000000e+000 -2.000000e+000
         vertex -8.083981e+000 2.626644e+000 -1.190275e+001
      endloop
   endfacet
   facet normal -7.071068e-001 7.071068e-001 0.000000e+000
      outer loop
         vertex -6.876645e+000 4.996175e+000 -2.000000e+000
         vertex -4.996175e+000 6.876645e+000 -2.000000e+000
         vertex -4.996175e+000 6.876645e+000 -1.190275e+001
      endloop
   endfacet
   facet normal -1.564344e-001 9.876883e-001 -4.110989e-018
      outer loop
         vertex -2.626644e+000 8.083981e+000 -2.000000e+000
         vertex -5.204749e-016 8.500000e+000 -2.000000e+000
         vertex -2.602375e-016 8.500000e+000 -1.190275e+001
      endloop
   endfacet
   facet normal 4.539905e-001 8.910065e-001 0.000000e+000
      outer loop
         vertex 2.626644e+000 8.083981e+000 -2.000000e+000
         vertex 4.996175e+000 6.876645e+000 -2.000000e+000
         vertex 2.626644e+000 8.083981e+000 -1.190275e+001
      endloop
   endfacet
   facet normal 8.910065e-001 4.539905e-001 0.000000e+000
      outer loop
         vertex 6.876645e+000 4.996175e+000 -2.000000e+000
         vertex 8.083981e+000 2.626644e+000 -2.000000e+000
         vertex 8.083981e+000 2.626644e+000 -1.190275e+001
      endloop
   endfacet
   facet normal 9.876883e-001 -1.564344e-001 0.000000e+000
      outer loop
         vertex 8.500000e+000 1.040950e-015 -2.000000e+000
         vertex 8.083981e+000 -2.626644e+000 -2.000000e+000
         vertex 8.083981e+000 -2.626644e+000 -1.190275e+001
      endloop
   endfacet
   facet normal 7.071068e-001 -7.071068e-001 0.000000e+000
      outer loop
         vertex 6.876645e+000 -4.996175e+000 -2.000000e+000
         vertex 4.996175e+000 -6.876645e+000 -2.000000e+000
         vertex 4.996175e+000 -6.876645e+000 -1.190275e+001
      endloop
   endfacet
   facet normal 1.564344e-001 -9.876883e-001 1.697650e-018
      outer loop
         vertex 2.626644e+000 -8.083981e+000 -2.000000e+000
         vertex 1.561425e-015 -8.500000e+000 -2.000000e+000
         vertex 1.668891e-015 -8.500000e+000 -1.190275e+001
      endloop
   endfacet
   facet normal -4.539905e-001 -8.910065e-001 -0.000000e+000
      outer loop
         vertex -2.626644e+000 -8.083981e+000 -2.000000e+000
         vertex -4.996175e+000 -6.876645e+000 -2.000000e+000
         vertex -4.996175e+000 -6.876645e+000 -1.190275e+001
      endloop
   endfacet
   facet normal -8.910065e-001 -4.539905e-001 -0.000000e+000
      outer loop
         vertex -6.876645e+000 -4.996175e+000 -2.000000e+000
         vertex -8.083981e+000 -2.626644e+000 -2.000000e+000
         vertex -8.083981e+000 -2.626644e+000 -1.190275e+001
      endloop
   endfacet
   facet normal -9.876883e-001 -1.564344e-001 0.000000e+000
      outer loop
         vertex -8.500000e+000 0.000000e+000 -2.000000e+000
         vertex -8.083981e+000 -2.626644e+000 -1.190275e+001
         vertex -8.083981e+000 -2.626644e+000 -2.000000e+000
      endloop
   endfacet
   facet normal 4.539905e-001 -8.910065e-001 0.000000e+000
      outer loop
         vertex 2.626644e+000 -8.083981e+000 -1.190275e+001
         vertex 4.996175e+000 -6.876645e+000 -2.000000e+000
         vertex 2.626644e+000 -8.083981e+000 -2.000000e+000
      endloop
   endfacet
   facet normal 7.071068e-001 7.071068e-001 0.000000e+000
      outer loop
         vertex 6.876645e+000 4.996175e+000 -1.190275e+001
         vertex 4.996175e+000 6.876645e+000 -2.000000e+000
         vertex 6.876645e+000 4.996175e+000 -2.000000e+000
      endloop
   endfacet
   facet normal -1.564344e-001 9.876883e-001 0.000000e+000
      outer loop
         vertex -2.626644e+000 8.083981e+000 -1.190275e+001
         vertex -2.626644e+000 8.083981e+000 -2.000000e+000
         vertex -2.602375e-016 8.500000e+000 -1.190275e+001
      endloop
   endfacet
   facet normal -9.876883e-001 1.564344e-001 0.000000e+000
      outer loop
         vertex -8.083981e+000 2.626644e+000 -2.000000e+000
         vertex -8.083981e+000 2.626644e+000 -1.190275e+001
         vertex -8.500000e+000 0.000000e+000 -2.000000e+000
      endloop
   endfacet
   facet normal 1.564344e-001 9.876883e-001 -0.000000e+000
      outer loop
         vertex 2.626644e+000 8.083981e+000 -2.000000e+000
         vertex 2.626644e+000 8.083981e+000 -1.190275e+001
         vertex -5.204749e-016 8.500000e+000 -2.000000e+000
      endloop
   endfacet
   facet normal 7.071068e-001 -7.071068e-001 0.000000e+000
      outer loop
         vertex 6.876645e+000 -4.996175e+000 -2.000000e+000
         vertex 4.996175e+000 -6.876645e+000 -1.190275e+001
         vertex 6.876645e+000 -4.996175e+000 -1.190275e+001
      endloop
   endfacet
   facet normal -8.910065e-001 -4.539905e-001 0.000000e+000
      outer loop
         vertex -6.876645e+000 -4.996175e+000 -2.000000e+000
         vertex -8.083981e+000 -2.626644e+000 -1.190275e+001
         vertex -6.876645e+000 -4.996175e+000 -1.190275e+001
      endloop
   endfacet
   facet normal 8.910065e-001 -4.539905e-001 0.000000e+000
      outer loop
         vertex 6.876645e+000 -4.996175e+000 -2.000000e+000
         vertex 6.876645e+000 -4.996175e+000 -1.190275e+001
         vertex 8.083981e+000 -2.626644e+000 -2.000000e+000
      endloop
   endfacet
   facet normal -4.539905e-001 -8.910065e-001 0.000000e+000
      outer loop
         vertex -4.996175e+000 -6.876645e+000 -1.190275e+001
         vertex -2.626644e+000 -8.083981e+000 -1.190275e+001
         vertex -2.626644e+000 -8.083981e+000 -2.000000e+000
      endloop
   endfacet
   facet normal 9.876883e-001 -1.564344e-001 8.221979e-018
      outer loop
         vertex 8.083981e+000 -2.626644e+000 -1.190275e+001
         vertex 8.500000e+000 5.204749e-016 -1.190275e+001
         vertex 8.500000e+000 1.040950e-015 -2.000000e+000
      endloop
   endfacet
   facet normal 4.539905e-001 8.910065e-001 0.000000e+000
      outer loop
         vertex 4.996175e+000 6.876645e+000 -1.190275e+001
         vertex 2.626644e+000 8.083981e+000 -1.190275e+001
         vertex 4.996175e+000 6.876645e+000 -2.000000e+000
      endloop
   endfacet
   facet normal -8.910065e-001 4.539905e-001 0.000000e+000
      outer loop
         vertex -8.083981e+000 2.626644e+000 -2.000000e+000
         vertex -6.876645e+000 4.996175e+000 -2.000000e+000
         vertex -6.876645e+000 4.996175e+000 -1.190275e+001
      endloop
   endfacet
   facet normal 9.876883e-001 1.564344e-001 -8.221979e-018
      outer loop
         vertex 8.083981e+000 2.626644e+000 -2.000000e+000
         vertex 8.500000e+000 1.040950e-015 -2.000000e+000
         vertex 8.500000e+000 5.204749e-016 -1.190275e+001
      endloop
   endfacet
   facet normal -7.071068e-001 -7.071068e-001 -0.000000e+000
      outer loop
         vertex -4.996175e+000 -6.876645e+000 -2.000000e+000
         vertex -6.876645e+000 -4.996175e+000 -2.000000e+000
         vertex -6.876645e+000 -4.996175e+000 -1.190275e+001
      endloop
   endfacet
   facet normal -4.539905e-001 8.910065e-001 0.000000e+000
      outer loop
         vertex -2.626644e+000 8.083981e+000 -2.000000e+000
         vertex -4.996175e+000 6.876645e+000 -1.190275e+001
         vertex -4.996175e+000 6.876645e+000 -2.000000e+000
      endloop
   endfacet
   facet normal 1.564344e-001 -9.876883e-001 0.000000e+000
      outer loop
         vertex 2.626644e+000 -8.083981e+000 -2.000000e+000
         vertex 1.668891e-015 -8.500000e+000 -1.190275e+001
         vertex 2.626644e+000 -8.083981e+000 -1.190275e+001
      endloop
   endfacet
   facet normal -7.071068e-001 7.071068e-001 0.000000e+000
      outer loop
         vertex -6.876645e+000 4.996175e+000 -1.190275e+001
         vertex -6.876645e+000 4.996175e+000 -2.000000e+000
         vertex -4.996175e+000 6.876645e+000 -1.190275e+001
      endloop
   endfacet
   facet normal 8.910065e-001 4.539905e-001 -0.000000e+000
      outer loop
         vertex 8.083981e+000 2.626644e+000 -1.190275e+001
         vertex 6.876645e+000 4.996175e+000 -1.190275e+001
         vertex 6.876645e+000 4.996175e+000 -2.000000e+000
      endloop
   endfacet
   facet normal -1.564344e-001 -9.876883e-001 0.000000e+000
      outer loop
         vertex -2.626644e+000 -8.083981e+000 -1.190275e+001
         vertex 1.561425e-015 -8.500000e+000 -2.000000e+000
         vertex -2.626644e+000 -8.083981e+000 -2.000000e+000
      endloop
   endfacet
   facet normal -9.829731e-001 1.837495e-001 -1.148513e-017
      outer loop
         vertex 5.664769e+000 -2.194543e+000 0.000000e+000
         vertex 6.075000e+000 0.000000e+000 0.000000e+000
         vertex 6.075000e+000 -7.439729e-016 -1.190275e+001
      endloop
   endfacet
   facet normal -6.026347e-001 7.980172e-001 0.000000e+000
      outer loop
         vertex 2.707860e+000 -5.438117e+000 -1.190275e+001
         vertex 2.707860e+000 -5.438117e+000 0.000000e+000
         vertex 4.489479e+000 -4.092701e+000 0.000000e+000
      endloop
   endfacet
   facet normal 9.226827e-002 9.957342e-001 0.000000e+000
      outer loop
         vertex -1.662503e+000 -5.843091e+000 -1.190275e+001
         vertex -1.662503e+000 -5.843091e+000 0.000000e+000
         vertex 5.605303e-001 -6.049085e+000 0.000000e+000
      endloop
   endfacet
   facet normal 7.390090e-001 6.736956e-001 0.000000e+000
      outer loop
         vertex -5.165069e+000 -3.198075e+000 -1.190275e+001
         vertex -5.165069e+000 -3.198075e+000 0.000000e+000
         vertex -3.661005e+000 -4.847955e+000 0.000000e+000
      endloop
   endfacet
   facet normal 1.000000e+000 0.000000e+000 0.000000e+000
      outer loop
         vertex -5.971561e+000 1.116278e+000 -1.190275e+001
         vertex -5.971561e+000 1.116278e+000 0.000000e+000
         vertex -5.971561e+000 -1.116278e+000 0.000000e+000
      endloop
   endfacet
   facet normal 7.390090e-001 -6.736956e-001 0.000000e+000
      outer loop
         vertex -5.165069e+000 3.198075e+000 -1.190275e+001
         vertex -3.661005e+000 4.847955e+000 0.000000e+000
         vertex -5.165069e+000 3.198075e+000 0.000000e+000
      endloop
   endfacet
   facet normal 9.226827e-002 -9.957342e-001 0.000000e+000
      outer loop
         vertex -1.662503e+000 5.843091e+000 -1.190275e+001
         vertex 5.605303e-001 6.049085e+000 0.000000e+000
         vertex -1.662503e+000 5.843091e+000 0.000000e+000
      endloop
   endfacet
   facet normal -6.026347e-001 -7.980172e-001 -0.000000e+000
      outer loop
         vertex 4.489479e+000 4.092701e+000 -1.190275e+001
         vertex 4.489479e+000 4.092701e+000 0.000000e+000
         vertex 2.707860e+000 5.438117e+000 0.000000e+000
      endloop
   endfacet
   facet normal -9.829731e-001 -1.837495e-001 1.148513e-017
      outer loop
         vertex 6.075000e+000 -7.439729e-016 -1.190275e+001
         vertex 6.075000e+000 0.000000e+000 0.000000e+000
         vertex 5.664769e+000 2.194543e+000 0.000000e+000
      endloop
   endfacet
   facet normal -8.502171e-001 -5.264322e-001 0.000000e+000
      outer loop
         vertex 4.489479e+000 4.092701e+000 0.000000e+000
         vertex 4.489479e+000 4.092701e+000 -1.190275e+001
         vertex 5.664769e+000 2.194543e+000 -1.190275e+001
      endloop
   endfacet
   facet normal -2.736630e-001 -9.618256e-001 0.000000e+000
      outer loop
         vertex 5.605303e-001 6.049085e+000 0.000000e+000
         vertex 5.605303e-001 6.049085e+000 -1.190275e+001
         vertex 2.707860e+000 5.438117e+000 -1.190275e+001
      endloop
   endfacet
   facet normal 4.457384e-001 -8.951633e-001 0.000000e+000
      outer loop
         vertex -3.661005e+000 4.847955e+000 0.000000e+000
         vertex -3.661005e+000 4.847955e+000 -1.190275e+001
         vertex -1.662503e+000 5.843091e+000 -1.190275e+001
      endloop
   endfacet
   facet normal 9.324722e-001 -3.612416e-001 0.000000e+000
      outer loop
         vertex -5.165069e+000 3.198075e+000 0.000000e+000
         vertex -5.971561e+000 1.116278e+000 -1.190275e+001
         vertex -5.165069e+000 3.198075e+000 -1.190275e+001
      endloop
   endfacet
   facet normal 9.324722e-001 3.612416e-001 -0.000000e+000
      outer loop
         vertex -5.165069e+000 -3.198075e+000 0.000000e+000
         vertex -5.165069e+000 -3.198075e+000 -1.190275e+001
         vertex -5.971561e+000 -1.116278e+000 -1.190275e+001
      endloop
   endfacet
   facet normal 4.457384e-001 8.951633e-001 0.000000e+000
      outer loop
         vertex -3.661005e+000 -4.847955e+000 0.000000e+000
         vertex -1.662503e+000 -5.843091e+000 -1.190275e+001
         vertex -3.661005e+000 -4.847955e+000 -1.190275e+001
      endloop
   endfacet
   facet normal -2.736630e-001 9.618256e-001 0.000000e+000
      outer loop
         vertex 5.605303e-001 -6.049085e+000 0.000000e+000
         vertex 2.707860e+000 -5.438117e+000 -1.190275e+001
         vertex 5.605303e-001 -6.049085e+000 -1.190275e+001
      endloop
   endfacet
   facet normal -8.502171e-001 5.264322e-001 0.000000e+000
      outer loop
         vertex 4.489479e+000 -4.092701e+000 0.000000e+000
         vertex 5.664769e+000 -2.194543e+000 -1.190275e+001
         vertex 4.489479e+000 -4.092701e+000 -1.190275e+001
      endloop
   endfacet
   facet normal -9.829731e-001 1.837495e-001 0.000000e+000
      outer loop
         vertex 5.664769e+000 -2.194543e+000 -1.190275e+001
         vertex 5.664769e+000 -2.194543e+000 0.000000e+000
         vertex 6.075000e+000 -7.439729e-016 -1.190275e+001
      endloop
   endfacet
   facet normal 9.226827e-002 9.957342e-001 0.000000e+000
      outer loop
         vertex 5.605303e-001 -6.049085e+000 -1.190275e+001
         vertex -1.662503e+000 -5.843091e+000 -1.190275e+001
         vertex 5.605303e-001 -6.049085e+000 0.000000e+000
      endloop
   endfacet
   facet normal 1.000000e+000 0.000000e+000 0.000000e+000
      outer loop
         vertex -5.971561e+000 -1.116278e+000 -1.190275e+001
         vertex -5.971561e+000 1.116278e+000 -1.190275e+001
         vertex -5.971561e+000 -1.116278e+000 0.000000e+000
      endloop
   endfacet
   facet normal 4.457384e-001 -8.951633e-001 0.000000e+000
      outer loop
         vertex -3.661005e+000 4.847955e+000 0.000000e+000
         vertex -1.662503e+000 5.843091e+000 -1.190275e+001
         vertex -1.662503e+000 5.843091e+000 0.000000e+000
      endloop
   endfacet
   facet normal -9.829731e-001 -1.837495e-001 0.000000e+000
      outer loop
         vertex 5.664769e+000 2.194543e+000 -1.190275e+001
         vertex 6.075000e+000 -7.439729e-016 -1.190275e+001
         vertex 5.664769e+000 2.194543e+000 0.000000e+000
      endloop
   endfacet
   facet normal 9.226827e-002 -9.957342e-001 0.000000e+000
      outer loop
         vertex -1.662503e+000 5.843091e+000 -1.190275e+001
         vertex 5.605303e-001 6.049085e+000 -1.190275e+001
         vertex 5.605303e-001 6.049085e+000 0.000000e+000
      endloop
   endfacet
   facet normal 7.390090e-001 6.736956e-001 0.000000e+000
      outer loop
         vertex -5.165069e+000 -3.198075e+000 -1.190275e+001
         vertex -3.661005e+000 -4.847955e+000 0.000000e+000
         vertex -3.661005e+000 -4.847955e+000 -1.190275e+001
      endloop
   endfacet
   facet normal -8.502171e-001 5.264322e-001 0.000000e+000
      outer loop
         vertex 5.664769e+000 -2.194543e+000 0.000000e+000
         vertex 5.664769e+000 -2.194543e+000 -1.190275e+001
         vertex 4.489479e+000 -4.092701e+000 0.000000e+000
      endloop
   endfacet
   facet normal -2.736630e-001 9.618256e-001 0.000000e+000
      outer loop
         vertex 2.707860e+000 -5.438117e+000 -1.190275e+001
         vertex 5.605303e-001 -6.049085e+000 0.000000e+000
         vertex 2.707860e+000 -5.438117e+000 0.000000e+000
      endloop
   endfacet
   facet normal 9.324722e-001 3.612416e-001 0.000000e+000
      outer loop
         vertex -5.971561e+000 -1.116278e+000 -1.190275e+001
         vertex -5.971561e+000 -1.116278e+000 0.000000e+000
         vertex -5.165069e+000 -3.198075e+000 0.000000e+000
      endloop
   endfacet
   facet normal -2.736630e-001 -9.618256e-001 -0.000000e+000
      outer loop
         vertex 2.707860e+000 5.438117e+000 -1.190275e+001
         vertex 2.707860e+000 5.438117e+000 0.000000e+000
         vertex 5.605303e-001 6.049085e+000 0.000000e+000
      endloop
   endfacet
   facet normal -6.026347e-001 -7.980172e-001 0.000000e+000
      outer loop
         vertex 2.707860e+000 5.438117e+000 0.000000e+000
         vertex 2.707860e+000 5.438117e+000 -1.190275e+001
         vertex 4.489479e+000 4.092701e+000 -1.190275e+001
      endloop
   endfacet
   facet normal -6.026347e-001 7.980172e-001 0.000000e+000
      outer loop
         vertex 4.489479e+000 -4.092701e+000 0.000000e+000
         vertex 4.489479e+000 -4.092701e+000 -1.190275e+001
         vertex 2.707860e+000 -5.438117e+000 -1.190275e+001
      endloop
   endfacet
   facet normal 9.324722e-001 -3.612416e-001 0.000000e+000
      outer loop
         vertex -5.165069e+000 3.198075e+000 0.000000e+000
         vertex -5.971561e+000 1.116278e+000 0.000000e+000
         vertex -5.971561e+000 1.116278e+000 -1.190275e+001
      endloop
   endfacet
   facet normal 7.390090e-001 -6.736956e-001 0.000000e+000
      outer loop
         vertex -5.165069e+000 3.198075e+000 -1.190275e+001
         vertex -3.661005e+000 4.847955e+000 -1.190275e+001
         vertex -3.661005e+000 4.847955e+000 0.000000e+000
      endloop
   endfacet
   facet normal 4.457384e-001 8.951633e-001 0.000000e+000
      outer loop
         vertex -1.662503e+000 -5.843091e+000 -1.190275e+001
         vertex -3.661005e+000 -4.847955e+000 0.000000e+000
         vertex -1.662503e+000 -5.843091e+000 0.000000e+000
      endloop
   endfacet
   facet normal -8.502171e-001 -5.264322e-001 0.000000e+000
      outer loop
         vertex 5.664769e+000 2.194543e+000 0.000000e+000
         vertex 4.489479e+000 4.092701e+000 0.000000e+000
         vertex 5.664769e+000 2.194543e+000 -1.190275e+001
      endloop
   endfacet
   facet normal 0.000000e+000 0.000000e+000 -1.000000e+000
      outer loop
         vertex -5.971561e+000 -1.116278e+000 -1.190275e+001
         vertex -8.083981e+000 -2.626644e+000 -1.190275e+001
         vertex -8.500000e+000 -1.040950e-015 -1.190275e+001
      endloop
   endfacet
   facet normal 0.000000e+000 0.000000e+000 -1.000000e+000
      outer loop
         vertex -3.661005e+000 -4.847955e+000 -1.190275e+001
         vertex -4.996175e+000 -6.876645e+000 -1.190275e+001
         vertex -6.876645e+000 -4.996175e+000 -1.190275e+001
      endloop
   endfacet
   facet normal 0.000000e+000 0.000000e+000 -1.000000e+000
      outer loop
         vertex -1.662503e+000 -5.843091e+000 -1.190275e+001
         vertex 1.668891e-015 -8.500000e+000 -1.190275e+001
         vertex -2.626644e+000 -8.083981e+000 -1.190275e+001
      endloop
   endfacet
   facet normal -0.000000e+000 0.000000e+000 -1.000000e+000
      outer loop
         vertex 2.707860e+000 -5.438117e+000 -1.190275e+001
         vertex 4.996175e+000 -6.876645e+000 -1.190275e+001
         vertex 2.626644e+000 -8.083981e+000 -1.190275e+001
      endloop
   endfacet
   facet normal -0.000000e+000 0.000000e+000 -1.000000e+000
      outer loop
         vertex 5.664769e+000 -2.194543e+000 -1.190275e+001
         vertex 8.083981e+000 -2.626644e+000 -1.190275e+001
         vertex 6.876645e+000 -4.996175e+000 -1.190275e+001
      endloop
   endfacet
   facet normal 0.000000e+000 -0.000000e+000 -1.000000e+000
      outer loop
         vertex 6.075000e+000 -7.439729e-016 -1.190275e+001
         vertex 8.083981e+000 2.626644e+000 -1.190275e+001
         vertex 8.500000e+000 5.204749e-016 -1.190275e+001
      endloop
   endfacet
   facet normal 0.000000e+000 -0.000000e+000 -1.000000e+000
      outer loop
         vertex 4.489479e+000 4.092701e+000 -1.190275e+001
         vertex 4.996175e+000 6.876645e+000 -1.190275e+001
         vertex 6.876645e+000 4.996175e+000 -1.190275e+001
      endloop
   endfacet
   facet normal 0.000000e+000 0.000000e+000 -1.000000e+000
      outer loop
         vertex 5.605303e-001 6.049085e+000 -1.190275e+001
         vertex -2.602375e-016 8.500000e+000 -1.190275e+001
         vertex 2.626644e+000 8.083981e+000 -1.190275e+001
      endloop
   endfacet
   facet normal 0.000000e+000 0.000000e+000 -1.000000e+000
      outer loop
         vertex -3.661005e+000 4.847955e+000 -1.190275e+001
         vertex -4.996175e+000 6.876645e+000 -1.190275e+001
         vertex -2.626644e+000 8.083981e+000 -1.190275e+001
      endloop
   endfacet
   facet normal 0.000000e+000 0.000000e+000 -1.000000e+000
      outer loop
         vertex -5.165069e+000 3.198075e+000 -1.190275e+001
         vertex -8.083981e+000 2.626644e+000 -1.190275e+001
         vertex -6.876645e+000 4.996175e+000 -1.190275e+001
      endloop
   endfacet
   facet normal 0.000000e+000 0.000000e+000 -1.000000e+000
      outer loop
         vertex 8.083981e+000 -2.626644e+000 -1.190275e+001
         vertex 5.664769e+000 -2.194543e+000 -1.190275e+001
         vertex 6.075000e+000 -7.439729e-016 -1.190275e+001
      endloop
   endfacet
   facet normal 0.000000e+000 0.000000e+000 -1.000000e+000
      outer loop
         vertex 4.996175e+000 -6.876645e+000 -1.190275e+001
         vertex 2.707860e+000 -5.438117e+000 -1.190275e+001
         vertex 4.489479e+000 -4.092701e+000 -1.190275e+001
      endloop
   endfacet
   facet normal 0.000000e+000 0.000000e+000 -1.000000e+000
      outer loop
         vertex 1.668891e-015 -8.500000e+000 -1.190275e+001
         vertex -1.662503e+000 -5.843091e+000 -1.190275e+001
         vertex 5.605303e-001 -6.049085e+000 -1.190275e+001
      endloop
   endfacet
   facet normal 0.000000e+000 -0.000000e+000 -1.000000e+000
      outer loop
         vertex -6.876645e+000 -4.996175e+000 -1.190275e+001
         vertex -5.165069e+000 -3.198075e+000 -1.190275e+001
         vertex -3.661005e+000 -4.847955e+000 -1.190275e+001
      endloop
   endfacet
   facet normal 0.000000e+000 -0.000000e+000 -1.000000e+000
      outer loop
         vertex -8.500000e+000 -1.040950e-015 -1.190275e+001
         vertex -5.971561e+000 1.116278e+000 -1.190275e+001
         vertex -5.971561e+000 -1.116278e+000 -1.190275e+001
      endloop
   endfacet
   facet normal -0.000000e+000 0.000000e+000 -1.000000e+000
      outer loop
         vertex -6.876645e+000 4.996175e+000 -1.190275e+001
         vertex -3.661005e+000 4.847955e+000 -1.190275e+001
         vertex -5.165069e+000 3.198075e+000 -1.190275e+001
      endloop
   endfacet
   facet normal -0.000000e+000 0.000000e+000 -1.000000e+000
      outer loop
         vertex -2.602375e-016 8.500000e+000 -1.190275e+001
         vertex 5.605303e-001 6.049085e+000 -1.190275e+001
         vertex -1.662503e+000 5.843091e+000 -1.190275e+001
      endloop
   endfacet
   facet normal 0.000000e+000 0.000000e+000 -1.000000e+000
      outer loop
         vertex 4.996175e+000 6.876645e+000 -1.190275e+001
         vertex 4.489479e+000 4.092701e+000 -1.190275e+001
         vertex 2.707860e+000 5.438117e+000 -1.190275e+001
      endloop
   endfacet
   facet normal 0.000000e+000 0.000000e+000 -1.000000e+000
      outer loop
         vertex 8.083981e+000 2.626644e+000 -1.190275e+001
         vertex 6.075000e+000 -7.439729e-016 -1.190275e+001
         vertex 5.664769e+000 2.194543e+000 -1.190275e+001
      endloop
   endfacet
   facet normal 0.000000e+000 0.000000e+000 -1.000000e+000
      outer loop
         vertex -2.626644e+000 -8.083981e+000 -1.190275e+001
         vertex -4.996175e+000 -6.876645e+000 -1.190275e+001
         vertex -3.661005e+000 -4.847955e+000 -1.190275e+001
      endloop
   endfacet
   facet normal 0.000000e+000 -0.000000e+000 -1.000000e+000
      outer loop
         vertex 4.489479e+000 -4.092701e+000 -1.190275e+001
         vertex 5.664769e+000 -2.194543e+000 -1.190275e+001
         vertex 6.876645e+000 -4.996175e+000 -1.190275e+001
      endloop
   endfacet
   facet normal 0.000000e+000 0.000000e+000 -1.000000e+000
      outer loop
         vertex 2.707860e+000 5.438117e+000 -1.190275e+001
         vertex 5.605303e-001 6.049085e+000 -1.190275e+001
         vertex 2.626644e+000 8.083981e+000 -1.190275e+001
      endloop
   endfacet
   facet normal 0.000000e+000 0.000000e+000 -1.000000e+000
      outer loop
         vertex -5.971561e+000 1.116278e+000 -1.190275e+001
         vertex -8.083981e+000 2.626644e+000 -1.190275e+001
         vertex -5.165069e+000 3.198075e+000 -1.190275e+001
      endloop
   endfacet
   facet normal 0.000000e+000 0.000000e+000 -1.000000e+000
      outer loop
         vertex 2.626644e+000 -8.083981e+000 -1.190275e+001
         vertex 1.668891e-015 -8.500000e+000 -1.190275e+001
         vertex 5.605303e-001 -6.049085e+000 -1.190275e+001
      endloop
   endfacet
   facet normal 0.000000e+000 0.000000e+000 -1.000000e+000
      outer loop
         vertex -4.996175e+000 6.876645e+000 -1.190275e+001
         vertex -3.661005e+000 4.847955e+000 -1.190275e+001
         vertex -6.876645e+000 4.996175e+000 -1.190275e+001
      endloop
   endfacet
   facet normal 0.000000e+000 0.000000e+000 -1.000000e+000
      outer loop
         vertex -1.662503e+000 -5.843091e+000 -1.190275e+001
         vertex -2.626644e+000 -8.083981e+000 -1.190275e+001
         vertex -3.661005e+000 -4.847955e+000 -1.190275e+001
      endloop
   endfacet
   facet normal 0.000000e+000 0.000000e+000 -1.000000e+000
      outer loop
         vertex 2.707860e+000 -5.438117e+000 -1.190275e+001
         vertex 2.626644e+000 -8.083981e+000 -1.190275e+001
         vertex 5.605303e-001 -6.049085e+000 -1.190275e+001
      endloop
   endfacet
   facet normal 0.000000e+000 0.000000e+000 -1.000000e+000
      outer loop
         vertex -5.165069e+000 -3.198075e+000 -1.190275e+001
         vertex -6.876645e+000 -4.996175e+000 -1.190275e+001
         vertex -8.083981e+000 -2.626644e+000 -1.190275e+001
      endloop
   endfacet
   facet normal 0.000000e+000 0.000000e+000 -1.000000e+000
      outer loop
         vertex 6.075000e+000 -7.439729e-016 -1.190275e+001
         vertex 8.500000e+000 5.204749e-016 -1.190275e+001
         vertex 8.083981e+000 -2.626644e+000 -1.190275e+001
      endloop
   endfacet
   facet normal 0.000000e+000 0.000000e+000 -1.000000e+000
      outer loop
         vertex 2.707860e+000 5.438117e+000 -1.190275e+001
         vertex 2.626644e+000 8.083981e+000 -1.190275e+001
         vertex 4.996175e+000 6.876645e+000 -1.190275e+001
      endloop
   endfacet
   facet normal 0.000000e+000 0.000000e+000 -1.000000e+000
      outer loop
         vertex -5.971561e+000 1.116278e+000 -1.190275e+001
         vertex -8.500000e+000 -1.040950e-015 -1.190275e+001
         vertex -8.083981e+000 2.626644e+000 -1.190275e+001
      endloop
   endfacet
   facet normal -0.000000e+000 0.000000e+000 -1.000000e+000
      outer loop
         vertex -2.626644e+000 8.083981e+000 -1.190275e+001
         vertex -1.662503e+000 5.843091e+000 -1.190275e+001
         vertex -3.661005e+000 4.847955e+000 -1.190275e+001
      endloop
   endfacet
   facet normal 0.000000e+000 0.000000e+000 -1.000000e+000
      outer loop
         vertex -5.165069e+000 -3.198075e+000 -1.190275e+001
         vertex -8.083981e+000 -2.626644e+000 -1.190275e+001
         vertex -5.971561e+000 -1.116278e+000 -1.190275e+001
      endloop
   endfacet
   facet normal 0.000000e+000 0.000000e+000 -1.000000e+000
      outer loop
         vertex -2.626644e+000 8.083981e+000 -1.190275e+001
         vertex -2.602375e-016 8.500000e+000 -1.190275e+001
         vertex -1.662503e+000 5.843091e+000 -1.190275e+001
      endloop
   endfacet
   facet normal -0.000000e+000 0.000000e+000 -1.000000e+000
      outer loop
         vertex 4.489479e+000 -4.092701e+000 -1.190275e+001
         vertex 6.876645e+000 -4.996175e+000 -1.190275e+001
         vertex 4.996175e+000 -6.876645e+000 -1.190275e+001
      endloop
   endfacet
   facet normal 0.000000e+000 0.000000e+000 -1.000000e+000
      outer loop
         vertex 6.876645e+000 4.996175e+000 -1.190275e+001
         vertex 5.664769e+000 2.194543e+000 -1.190275e+001
         vertex 4.489479e+000 4.092701e+000 -1.190275e+001
      endloop
   endfacet
   facet normal 0.000000e+000 0.000000e+000 -1.000000e+000
      outer loop
         vertex 8.083981e+000 2.626644e+000 -1.190275e+001
         vertex 5.664769e+000 2.194543e+000 -1.190275e+001
         vertex 6.876645e+000 4.996175e+000 -1.190275e+001
      endloop
   endfacet
   facet normal 0.000000e+000 0.000000e+000 -1.000000e+000
      outer loop
         vertex -9.990576e+000 5.482512e+000 -2.000000e+000
         vertex -3.665424e+000 8.486406e+000 -2.000000e+000
         vertex -4.996175e+000 6.876645e+000 -2.000000e+000
      endloop
   endfacet
   facet normal -0.000000e+000 0.000000e+000 -1.000000e+000
      outer loop
         vertex -1.251194e+000 9.159091e+000 -2.000000e+000
         vertex 1.255001e+000 9.158570e+000 -2.000000e+000
         vertex -5.204749e-016 8.500000e+000 -2.000000e+000
      endloop
   endfacet
   facet normal 0.000000e+000 0.000000e+000 -1.000000e+000
      outer loop
         vertex 3.668951e+000 8.484882e+000 -2.000000e+000
         vertex 1.007227e+001 5.430657e+000 -2.000000e+000
         vertex 4.996175e+000 6.876645e+000 -2.000000e+000
      endloop
   endfacet
   facet normal 0.000000e+000 0.000000e+000 -1.000000e+000
      outer loop
         vertex 1.176137e+001 4.041068e+000 -2.000000e+000
         vertex 1.286601e+001 2.153268e+000 -2.000000e+000
         vertex 8.083981e+000 2.626644e+000 -2.000000e+000
      endloop
   endfacet
   facet normal 0.000000e+000 0.000000e+000 -1.000000e+000
      outer loop
         vertex 1.325000e+001 4.466409e-017 -2.000000e+000
         vertex 1.286148e+001 -2.401666e+000 -2.000000e+000
         vertex 8.500000e+000 1.040950e-015 -2.000000e+000
      endloop
   endfacet
   facet normal 0.000000e+000 0.000000e+000 -1.000000e+000
      outer loop
         vertex 1.173554e+001 -4.558335e+000 -2.000000e+000
         vertex 9.987048e+000 -6.250000e+000 -2.000000e+000
         vertex 8.083981e+000 -2.626644e+000 -2.000000e+000
      endloop
   endfacet
   facet normal 0.000000e+000 0.000000e+000 -1.000000e+000
      outer loop
         vertex 3.668951e+000 -8.484882e+000 -2.000000e+000
         vertex 1.252463e+000 -9.158917e+000 -2.000000e+000
         vertex 2.626644e+000 -8.083981e+000 -2.000000e+000
      endloop
   endfacet
   facet normal 0.000000e+000 0.000000e+000 -1.000000e+000
      outer loop
         vertex -1.256270e+000 -9.158396e+000 -2.000000e+000
         vertex -3.672478e+000 -8.483356e+000 -2.000000e+000
         vertex -2.626644e+000 -8.083981e+000 -2.000000e+000
      endloop
   endfacet
   facet normal 0.000000e+000 0.000000e+000 -1.000000e+000
      outer loop
         vertex -9.990576e+000 -6.250000e+000 -2.000000e+000
         vertex -1.174027e+001 -4.558876e+000 -2.000000e+000
         vertex -8.083981e+000 -2.626644e+000 -2.000000e+000
      endloop
   endfacet
   facet normal 0.000000e+000 0.000000e+000 -1.000000e+000
      outer loop
         vertex -1.286709e+001 -2.402113e+000 -2.000000e+000
         vertex -1.325594e+001 8.881784e-016 -2.000000e+000
         vertex -8.500000e+000 0.000000e+000 -2.000000e+000
      endloop
   endfacet
   facet normal 0.000000e+000 -0.000000e+000 -1.000000e+000
      outer loop
         vertex -1.286037e+001 2.185514e+000 -2.000000e+000
         vertex -1.172384e+001 4.093725e+000 -2.000000e+000
         vertex -8.083981e+000 2.626644e+000 -2.000000e+000
      endloop
   endfacet
   facet normal 0.000000e+000 0.000000e+000 -1.000000e+000
      outer loop
         vertex -8.083981e+000 2.626644e+000 -2.000000e+000
         vertex -8.500000e+000 0.000000e+000 -2.000000e+000
         vertex -1.286037e+001 2.185514e+000 -2.000000e+000
      endloop
   endfacet
   facet normal -0.000000e+000 0.000000e+000 -1.000000e+000
      outer loop
         vertex -8.083981e+000 -2.626644e+000 -2.000000e+000
         vertex -6.876645e+000 -4.996175e+000 -2.000000e+000
         vertex -9.990576e+000 -6.250000e+000 -2.000000e+000
      endloop
   endfacet
   facet normal -0.000000e+000 0.000000e+000 -1.000000e+000
      outer loop
         vertex -4.996175e+000 -6.876645e+000 -2.000000e+000
         vertex -2.626644e+000 -8.083981e+000 -2.000000e+000
         vertex -3.672478e+000 -8.483356e+000 -2.000000e+000
      endloop
   endfacet
   facet normal 0.000000e+000 0.000000e+000 -1.000000e+000
      outer loop
         vertex 1.561425e-015 -8.500000e+000 -2.000000e+000
         vertex 2.626644e+000 -8.083981e+000 -2.000000e+000
         vertex 1.252463e+000 -9.158917e+000 -2.000000e+000
      endloop
   endfacet
   facet normal 0.000000e+000 -0.000000e+000 -1.000000e+000
      outer loop
         vertex 4.996175e+000 -6.876645e+000 -2.000000e+000
         vertex 6.876645e+000 -4.996175e+000 -2.000000e+000
         vertex 9.987048e+000 -6.250000e+000 -2.000000e+000
      endloop
   endfacet
   facet normal 0.000000e+000 -0.000000e+000 -1.000000e+000
      outer loop
         vertex 8.083981e+000 -2.626644e+000 -2.000000e+000
         vertex 8.500000e+000 1.040950e-015 -2.000000e+000
         vertex 1.286148e+001 -2.401666e+000 -2.000000e+000
      endloop
   endfacet
   facet normal 0.000000e+000 0.000000e+000 -1.000000e+000
      outer loop
         vertex 8.083981e+000 2.626644e+000 -2.000000e+000
         vertex 6.876645e+000 4.996175e+000 -2.000000e+000
         vertex 1.007227e+001 5.430657e+000 -2.000000e+000
      endloop
   endfacet
   facet normal 0.000000e+000 0.000000e+000 -1.000000e+000
      outer loop
         vertex 4.996175e+000 6.876645e+000 -2.000000e+000
         vertex 2.626644e+000 8.083981e+000 -2.000000e+000
         vertex 3.668951e+000 8.484882e+000 -2.000000e+000
      endloop
   endfacet
   facet normal 0.000000e+000 0.000000e+000 -1.000000e+000
      outer loop
         vertex -5.204749e-016 8.500000e+000 -2.000000e+000
         vertex -2.626644e+000 8.083981e+000 -2.000000e+000
         vertex -1.251194e+000 9.159091e+000 -2.000000e+000
      endloop
   endfacet
   facet normal 0.000000e+000 0.000000e+000 -1.000000e+000
      outer loop
         vertex -4.996175e+000 6.876645e+000 -2.000000e+000
         vertex -6.876645e+000 4.996175e+000 -2.000000e+000
         vertex -9.990576e+000 5.482512e+000 -2.000000e+000
      endloop
   endfacet
   facet normal 0.000000e+000 -0.000000e+000 -1.000000e+000
      outer loop
         vertex -4.996175e+000 6.876645e+000 -2.000000e+000
         vertex -3.665424e+000 8.486406e+000 -2.000000e+000
         vertex -2.626644e+000 8.083981e+000 -2.000000e+000
      endloop
   endfacet
   facet normal 0.000000e+000 0.000000e+000 -1.000000e+000
      outer loop
         vertex 1.176137e+001 4.041068e+000 -2.000000e+000
         vertex 8.083981e+000 2.626644e+000 -2.000000e+000
         vertex 1.007227e+001 5.430657e+000 -2.000000e+000
      endloop
   endfacet
   facet normal 0.000000e+000 0.000000e+000 -1.000000e+000
      outer loop
         vertex 1.173554e+001 -4.558335e+000 -2.000000e+000
         vertex 8.083981e+000 -2.626644e+000 -2.000000e+000
         vertex 1.286148e+001 -2.401666e+000 -2.000000e+000
      endloop
   endfacet
   facet normal 0.000000e+000 0.000000e+000 -1.000000e+000
      outer loop
         vertex -1.256270e+000 -9.158396e+000 -2.000000e+000
         vertex -2.626644e+000 -8.083981e+000 -2.000000e+000
         vertex 1.561425e-015 -8.500000e+000 -2.000000e+000
      endloop
   endfacet
   facet normal 0.000000e+000 0.000000e+000 -1.000000e+000
      outer loop
         vertex -8.500000e+000 0.000000e+000 -2.000000e+000
         vertex -1.325594e+001 8.881784e-016 -2.000000e+000
         vertex -1.286037e+001 2.185514e+000 -2.000000e+000
      endloop
   endfacet
   facet normal 0.000000e+000 0.000000e+000 -1.000000e+000
      outer loop
         vertex -4.996175e+000 -6.876645e+000 -2.000000e+000
         vertex -3.672478e+000 -8.483356e+000 -2.000000e+000
         vertex -9.990576e+000 -6.250000e+000 -2.000000e+000
      endloop
   endfacet
   facet normal 0.000000e+000 0.000000e+000 -1.000000e+000
      outer loop
         vertex 9.987048e+000 -6.250000e+000 -2.000000e+000
         vertex 6.876645e+000 -4.996175e+000 -2.000000e+000
         vertex 8.083981e+000 -2.626644e+000 -2.000000e+000
      endloop
   endfacet
   facet normal -0.000000e+000 0.000000e+000 -1.000000e+000
      outer loop
         vertex -9.990576e+000 5.482512e+000 -2.000000e+000
         vertex -6.876645e+000 4.996175e+000 -2.000000e+000
         vertex -8.083981e+000 2.626644e+000 -2.000000e+000
      endloop
   endfacet
   facet normal 0.000000e+000 0.000000e+000 -1.000000e+000
      outer loop
         vertex -4.996175e+000 -6.876645e+000 -2.000000e+000
         vertex -9.990576e+000 -6.250000e+000 -2.000000e+000
         vertex -6.876645e+000 -4.996175e+000 -2.000000e+000
      endloop
   endfacet
   facet normal 0.000000e+000 0.000000e+000 -1.000000e+000
      outer loop
         vertex -3.665424e+000 8.486406e+000 -2.000000e+000
         vertex -1.251194e+000 9.159091e+000 -2.000000e+000
         vertex -2.626644e+000 8.083981e+000 -2.000000e+000
      endloop
   endfacet
   facet normal 0.000000e+000 0.000000e+000 -1.000000e+000
      outer loop
         vertex 1.286601e+001 2.153268e+000 -2.000000e+000
         vertex 1.325000e+001 4.466409e-017 -2.000000e+000
         vertex 8.500000e+000 1.040950e-015 -2.000000e+000
      endloop
   endfacet
   facet normal 0.000000e+000 0.000000e+000 -1.000000e+000
      outer loop
         vertex 1.252463e+000 -9.158917e+000 -2.000000e+000
         vertex -1.256270e+000 -9.158396e+000 -2.000000e+000
         vertex 1.561425e-015 -8.500000e+000 -2.000000e+000
      endloop
   endfacet
   facet normal 0.000000e+000 -0.000000e+000 -1.000000e+000
      outer loop
         vertex -1.172384e+001 4.093725e+000 -2.000000e+000
         vertex -9.990576e+000 5.482512e+000 -2.000000e+000
         vertex -8.083981e+000 2.626644e+000 -2.000000e+000
      endloop
   endfacet
   facet normal 0.000000e+000 0.000000e+000 -1.000000e+000
      outer loop
         vertex 2.626644e+000 -8.083981e+000 -2.000000e+000
         vertex 4.996175e+000 -6.876645e+000 -2.000000e+000
         vertex 3.668951e+000 -8.484882e+000 -2.000000e+000
      endloop
   endfacet
   facet normal 0.000000e+000 0.000000e+000 -1.000000e+000
      outer loop
         vertex 6.876645e+000 4.996175e+000 -2.000000e+000
         vertex 4.996175e+000 6.876645e+000 -2.000000e+000
         vertex 1.007227e+001 5.430657e+000 -2.000000e+000
      endloop
   endfacet
   facet normal 0.000000e+000 -0.000000e+000 -1.000000e+000
      outer loop
         vertex -5.204749e-016 8.500000e+000 -2.000000e+000
         vertex 1.255001e+000 9.158570e+000 -2.000000e+000
         vertex 2.626644e+000 8.083981e+000 -2.000000e+000
      endloop
   endfacet
   facet normal 0.000000e+000 -0.000000e+000 -1.000000e+000
      outer loop
         vertex -1.286709e+001 -2.402113e+000 -2.000000e+000
         vertex -8.500000e+000 0.000000e+000 -2.000000e+000
         vertex -8.083981e+000 -2.626644e+000 -2.000000e+000
      endloop
   endfacet
   facet normal 0.000000e+000 0.000000e+000 -1.000000e+000
      outer loop
         vertex 1.286601e+001 2.153268e+000 -2.000000e+000
         vertex 8.500000e+000 1.040950e-015 -2.000000e+000
         vertex 8.083981e+000 2.626644e+000 -2.000000e+000
      endloop
   endfacet
   facet normal -0.000000e+000 0.000000e+000 -1.000000e+000
      outer loop
         vertex 1.255001e+000 9.158570e+000 -2.000000e+000
         vertex 3.668951e+000 8.484882e+000 -2.000000e+000
         vertex 2.626644e+000 8.083981e+000 -2.000000e+000
      endloop
   endfacet
   facet normal 0.000000e+000 0.000000e+000 -1.000000e+000
      outer loop
         vertex -1.174027e+001 -4.558876e+000 -2.000000e+000
         vertex -1.286709e+001 -2.402113e+000 -2.000000e+000
         vertex -8.083981e+000 -2.626644e+000 -2.000000e+000
      endloop
   endfacet
   facet normal 0.000000e+000 -0.000000e+000 -1.000000e+000
      outer loop
         vertex 3.668951e+000 -8.484882e+000 -2.000000e+000
         vertex 4.996175e+000 -6.876645e+000 -2.000000e+000
         vertex 9.987048e+000 -6.250000e+000 -2.000000e+000
      endloop
   endfacet
   facet normal 0.000000e+000 0.000000e+000 1.000000e+000
      outer loop
         vertex 6.075000e+000 6.075000e+000 0.000000e+000
         vertex 1.007227e+001 5.430657e+000 0.000000e+000
         vertex 3.668951e+000 8.484882e+000 0.000000e+000
      endloop
   endfacet
   facet normal 0.000000e+000 0.000000e+000 1.000000e+000
      outer loop
         vertex 6.075000e+000 0.000000e+000 0.000000e+000
         vertex 1.286601e+001 2.153268e+000 0.000000e+000
         vertex 1.176137e+001 4.041068e+000 0.000000e+000
      endloop
   endfacet
   facet normal 0.000000e+000 -0.000000e+000 1.000000e+000
      outer loop
         vertex 6.075000e+000 0.000000e+000 0.000000e+000
         vertex 1.286148e+001 -2.401666e+000 0.000000e+000
         vertex 1.325000e+001 4.466409e-017 0.000000e+000
      endloop
   endfacet
   facet normal 0.000000e+000 -0.000000e+000 1.000000e+000
      outer loop
         vertex 5.664769e+000 -2.194543e+000 0.000000e+000
         vertex 9.987048e+000 -6.250000e+000 0.000000e+000
         vertex 1.173554e+001 -4.558335e+000 0.000000e+000
      endloop
   endfacet
   facet normal -0.000000e+000 0.000000e+000 1.000000e+000
      outer loop
         vertex -6.075000e+000 -6.075000e+000 0.000000e+000
         vertex -9.990576e+000 -6.250000e+000 0.000000e+000
         vertex -3.672478e+000 -8.483356e+000 0.000000e+000
      endloop
   endfacet
   facet normal 0.000000e+000 0.000000e+000 1.000000e+000
      outer loop
         vertex -6.075000e+000 6.075000e+000 0.000000e+000
         vertex -3.665424e+000 8.486406e+000 0.000000e+000
         vertex -9.990576e+000 5.482512e+000 0.000000e+000
      endloop
   endfacet
   facet normal -0.000000e+000 0.000000e+000 1.000000e+000
      outer loop
         vertex 6.075000e+000 6.075000e+000 0.000000e+000
         vertex 4.489479e+000 4.092701e+000 0.000000e+000
         vertex 5.664769e+000 2.194543e+000 0.000000e+000
      endloop
   endfacet
   facet normal 0.000000e+000 -0.000000e+000 1.000000e+000
      outer loop
         vertex -6.075000e+000 6.075000e+000 0.000000e+000
         vertex -3.661005e+000 4.847955e+000 0.000000e+000
         vertex -1.662503e+000 5.843091e+000 0.000000e+000
      endloop
   endfacet
   facet normal 0.000000e+000 -0.000000e+000 1.000000e+000
      outer loop
         vertex -6.075000e+000 6.075000e+000 0.000000e+000
         vertex -5.971561e+000 1.116278e+000 0.000000e+000
         vertex -5.165069e+000 3.198075e+000 0.000000e+000
      endloop
   endfacet
   facet normal 0.000000e+000 0.000000e+000 1.000000e+000
      outer loop
         vertex -6.075000e+000 -6.075000e+000 0.000000e+000
         vertex -3.661005e+000 -4.847955e+000 0.000000e+000
         vertex -5.165069e+000 -3.198075e+000 0.000000e+000
      endloop
   endfacet
   facet normal 0.000000e+000 0.000000e+000 1.000000e+000
      outer loop
         vertex 6.075000e+000 -6.075000e+000 0.000000e+000
         vertex 4.489479e+000 -4.092701e+000 0.000000e+000
         vertex 2.707860e+000 -5.438117e+000 0.000000e+000
      endloop
   endfacet
   facet normal 0.000000e+000 0.000000e+000 1.000000e+000
      outer loop
         vertex 1.286148e+001 -2.401666e+000 0.000000e+000
         vertex 6.075000e+000 0.000000e+000 0.000000e+000
         vertex 5.664769e+000 -2.194543e+000 0.000000e+000
      endloop
   endfacet
   facet normal 0.000000e+000 0.000000e+000 1.000000e+000
      outer loop
         vertex 5.605303e-001 -6.049085e+000 0.000000e+000
         vertex -6.075000e+000 -6.075000e+000 0.000000e+000
         vertex 6.075000e+000 -6.075000e+000 0.000000e+000
      endloop
   endfacet
   facet normal 0.000000e+000 0.000000e+000 1.000000e+000
      outer loop
         vertex -5.971561e+000 -1.116278e+000 0.000000e+000
         vertex -6.075000e+000 6.075000e+000 0.000000e+000
         vertex -6.075000e+000 -6.075000e+000 0.000000e+000
      endloop
   endfacet
   facet normal 0.000000e+000 0.000000e+000 1.000000e+000
      outer loop
         vertex -1.251194e+000 9.159091e+000 0.000000e+000
         vertex -6.075000e+000 6.075000e+000 0.000000e+000
         vertex 6.075000e+000 6.075000e+000 0.000000e+000
      endloop
   endfacet
   facet normal 0.000000e+000 0.000000e+000 1.000000e+000
      outer loop
         vertex 5.664769e+000 2.194543e+000 0.000000e+000
         vertex 1.007227e+001 5.430657e+000 0.000000e+000
         vertex 6.075000e+000 6.075000e+000 0.000000e+000
      endloop
   endfacet
   facet normal 0.000000e+000 0.000000e+000 1.000000e+000
      outer loop
         vertex 1.325000e+001 4.466409e-017 0.000000e+000
         vertex 1.286601e+001 2.153268e+000 0.000000e+000
         vertex 6.075000e+000 0.000000e+000 0.000000e+000
      endloop
   endfacet
   facet normal 0.000000e+000 -0.000000e+000 1.000000e+000
      outer loop
         vertex -1.174027e+001 -4.558876e+000 0.000000e+000
         vertex -9.990576e+000 -6.250000e+000 0.000000e+000
         vertex -6.075000e+000 -6.075000e+000 0.000000e+000
      endloop
   endfacet
   facet normal 0.000000e+000 -0.000000e+000 1.000000e+000
      outer loop
         vertex 2.707860e+000 5.438117e+000 0.000000e+000
         vertex 4.489479e+000 4.092701e+000 0.000000e+000
         vertex 6.075000e+000 6.075000e+000 0.000000e+000
      endloop
   endfacet
   facet normal 0.000000e+000 0.000000e+000 1.000000e+000
      outer loop
         vertex -3.661005e+000 4.847955e+000 0.000000e+000
         vertex -6.075000e+000 6.075000e+000 0.000000e+000
         vertex -5.165069e+000 3.198075e+000 0.000000e+000
      endloop
   endfacet
   facet normal -0.000000e+000 0.000000e+000 1.000000e+000
      outer loop
         vertex 5.664769e+000 -2.194543e+000 0.000000e+000
         vertex 4.489479e+000 -4.092701e+000 0.000000e+000
         vertex 6.075000e+000 -6.075000e+000 0.000000e+000
      endloop
   endfacet
   facet normal 0.000000e+000 0.000000e+000 1.000000e+000
      outer loop
         vertex -1.662503e+000 -5.843091e+000 0.000000e+000
         vertex -6.075000e+000 -6.075000e+000 0.000000e+000
         vertex 5.605303e-001 -6.049085e+000 0.000000e+000
      endloop
   endfacet
   facet normal 0.000000e+000 0.000000e+000 1.000000e+000
      outer loop
         vertex 1.255001e+000 9.158570e+000 0.000000e+000
         vertex -1.251194e+000 9.159091e+000 0.000000e+000
         vertex 6.075000e+000 6.075000e+000 0.000000e+000
      endloop
   endfacet
   facet normal 0.000000e+000 0.000000e+000 1.000000e+000
      outer loop
         vertex 9.987048e+000 -6.250000e+000 0.000000e+000
         vertex 5.664769e+000 -2.194543e+000 0.000000e+000
         vertex 6.075000e+000 -6.075000e+000 0.000000e+000
      endloop
   endfacet
   facet normal 0.000000e+000 0.000000e+000 1.000000e+000
      outer loop
         vertex 3.668951e+000 -8.484882e+000 0.000000e+000
         vertex 9.987048e+000 -6.250000e+000 0.000000e+000
         vertex 6.075000e+000 -6.075000e+000 0.000000e+000
      endloop
   endfacet
   facet normal 0.000000e+000 0.000000e+000 1.000000e+000
      outer loop
         vertex 5.664769e+000 2.194543e+000 0.000000e+000
         vertex 1.176137e+001 4.041068e+000 0.000000e+000
         vertex 1.007227e+001 5.430657e+000 0.000000e+000
      endloop
   endfacet
   facet normal -0.000000e+000 0.000000e+000 1.000000e+000
      outer loop
         vertex 1.176137e+001 4.041068e+000 0.000000e+000
         vertex 5.664769e+000 2.194543e+000 0.000000e+000
         vertex 6.075000e+000 0.000000e+000 0.000000e+000
      endloop
   endfacet
   facet normal 0.000000e+000 0.000000e+000 1.000000e+000
      outer loop
         vertex -6.075000e+000 -6.075000e+000 0.000000e+000
         vertex -5.165069e+000 -3.198075e+000 0.000000e+000
         vertex -5.971561e+000 -1.116278e+000 0.000000e+000
      endloop
   endfacet
   facet normal 0.000000e+000 0.000000e+000 1.000000e+000
      outer loop
         vertex 1.252463e+000 -9.158917e+000 0.000000e+000
         vertex 6.075000e+000 -6.075000e+000 0.000000e+000
         vertex -6.075000e+000 -6.075000e+000 0.000000e+000
      endloop
   endfacet
   facet normal 0.000000e+000 -0.000000e+000 1.000000e+000
      outer loop
         vertex -1.325594e+001 8.881784e-016 0.000000e+000
         vertex -6.075000e+000 -6.075000e+000 0.000000e+000
         vertex -6.075000e+000 6.075000e+000 0.000000e+000
      endloop
   endfacet
   facet normal 0.000000e+000 0.000000e+000 1.000000e+000
      outer loop
         vertex 1.286148e+001 -2.401666e+000 0.000000e+000
         vertex 5.664769e+000 -2.194543e+000 0.000000e+000
         vertex 1.173554e+001 -4.558335e+000 0.000000e+000
      endloop
   endfacet
   facet normal 0.000000e+000 0.000000e+000 1.000000e+000
      outer loop
         vertex -1.662503e+000 -5.843091e+000 0.000000e+000
         vertex -3.661005e+000 -4.847955e+000 0.000000e+000
         vertex -6.075000e+000 -6.075000e+000 0.000000e+000
      endloop
   endfacet
   facet normal 0.000000e+000 0.000000e+000 1.000000e+000
      outer loop
         vertex -5.971561e+000 1.116278e+000 0.000000e+000
         vertex -6.075000e+000 6.075000e+000 0.000000e+000
         vertex -5.971561e+000 -1.116278e+000 0.000000e+000
      endloop
   endfacet
   facet normal 0.000000e+000 0.000000e+000 1.000000e+000
      outer loop
         vertex 3.668951e+000 8.484882e+000 0.000000e+000
         vertex 1.255001e+000 9.158570e+000 0.000000e+000
         vertex 6.075000e+000 6.075000e+000 0.000000e+000
      endloop
   endfacet
   facet normal 0.000000e+000 0.000000e+000 1.000000e+000
      outer loop
         vertex -1.286037e+001 2.185514e+000 0.000000e+000
         vertex -1.325594e+001 8.881784e-016 0.000000e+000
         vertex -6.075000e+000 6.075000e+000 0.000000e+000
      endloop
   endfacet
   facet normal 0.000000e+000 0.000000e+000 1.000000e+000
      outer loop
         vertex 6.075000e+000 -6.075000e+000 0.000000e+000
         vertex 1.252463e+000 -9.158917e+000 0.000000e+000
         vertex 3.668951e+000 -8.484882e+000 0.000000e+000
      endloop
   endfacet
   facet normal -0.000000e+000 -0.000000e+000 1.000000e+000
      outer loop
         vertex -6.075000e+000 -6.075000e+000 0.000000e+000
         vertex -3.672478e+000 -8.483356e+000 0.000000e+000
         vertex -1.256270e+000 -9.158396e+000 0.000000e+000
      endloop
   endfacet
   facet normal 0.000000e+000 0.000000e+000 1.000000e+000
      outer loop
         vertex -6.075000e+000 -6.075000e+000 0.000000e+000
         vertex -1.325594e+001 8.881784e-016 0.000000e+000
         vertex -1.286709e+001 -2.402113e+000 0.000000e+000
      endloop
   endfacet
   facet normal -0.000000e+000 0.000000e+000 1.000000e+000
      outer loop
         vertex -6.075000e+000 6.075000e+000 0.000000e+000
         vertex -9.990576e+000 5.482512e+000 0.000000e+000
         vertex -1.172384e+001 4.093725e+000 0.000000e+000
      endloop
   endfacet
   facet normal 0.000000e+000 -0.000000e+000 1.000000e+000
      outer loop
         vertex -6.075000e+000 6.075000e+000 0.000000e+000
         vertex -1.662503e+000 5.843091e+000 0.000000e+000
         vertex 5.605303e-001 6.049085e+000 0.000000e+000
      endloop
   endfacet
   facet normal 0.000000e+000 0.000000e+000 1.000000e+000
      outer loop
         vertex 5.605303e-001 6.049085e+000 0.000000e+000
         vertex 6.075000e+000 6.075000e+000 0.000000e+000
         vertex -6.075000e+000 6.075000e+000 0.000000e+000
      endloop
   endfacet
   facet normal 0.000000e+000 0.000000e+000 1.000000e+000
      outer loop
         vertex 5.605303e-001 -6.049085e+000 0.000000e+000
         vertex 6.075000e+000 -6.075000e+000 0.000000e+000
         vertex 2.707860e+000 -5.438117e+000 0.000000e+000
      endloop
   endfacet
   facet normal 0.000000e+000 -0.000000e+000 1.000000e+000
      outer loop
         vertex 5.605303e-001 6.049085e+000 0.000000e+000
         vertex 2.707860e+000 5.438117e+000 0.000000e+000
         vertex 6.075000e+000 6.075000e+000 0.000000e+000
      endloop
   endfacet
   facet normal 0.000000e+000 0.000000e+000 1.000000e+000
      outer loop
         vertex 1.252463e+000 -9.158917e+000 0.000000e+000
         vertex -6.075000e+000 -6.075000e+000 0.000000e+000
         vertex -1.256270e+000 -9.158396e+000 0.000000e+000
      endloop
   endfacet
   facet normal 0.000000e+000 0.000000e+000 1.000000e+000
      outer loop
         vertex -6.075000e+000 6.075000e+000 0.000000e+000
         vertex -1.251194e+000 9.159091e+000 0.000000e+000
         vertex -3.665424e+000 8.486406e+000 0.000000e+000
      endloop
   endfacet
   facet normal -0.000000e+000 0.000000e+000 1.000000e+000
      outer loop
         vertex -6.075000e+000 6.075000e+000 0.000000e+000
         vertex -1.172384e+001 4.093725e+000 0.000000e+000
         vertex -1.286037e+001 2.185514e+000 0.000000e+000
      endloop
   endfacet
   facet normal 0.000000e+000 0.000000e+000 1.000000e+000
      outer loop
         vertex -1.174027e+001 -4.558876e+000 0.000000e+000
         vertex -6.075000e+000 -6.075000e+000 0.000000e+000
         vertex -1.286709e+001 -2.402113e+000 0.000000e+000
      endloop
   endfacet
   facet normal -2.684088e-001 9.633051e-001 0.000000e+000
      outer loop
         vertex -3.665424e+000 8.486406e+000 -2.000000e+000
         vertex -3.665424e+000 8.486406e+000 0.000000e+000
         vertex -1.251194e+000 9.159091e+000 0.000000e+000
      endloop
   endfacet
   facet normal 2.688091e-001 9.631935e-001 0.000000e+000
      outer loop
         vertex 1.255001e+000 9.158570e+000 0.000000e+000
         vertex 3.668951e+000 8.484882e+000 0.000000e+000
         vertex 3.668951e+000 8.484882e+000 -2.000000e+000
      endloop
   endfacet
   facet normal 2.077677e-004 1.000000e+000 -0.000000e+000
      outer loop
         vertex 1.255001e+000 9.158570e+000 -2.000000e+000
         vertex -1.251194e+000 9.159091e+000 -2.000000e+000
         vertex -1.251194e+000 9.159091e+000 0.000000e+000
      endloop
   endfacet
   facet normal -2.684088e-001 9.633051e-001 0.000000e+000
      outer loop
         vertex -3.665424e+000 8.486406e+000 -2.000000e+000
         vertex -1.251194e+000 9.159091e+000 0.000000e+000
         vertex -1.251194e+000 9.159091e+000 -2.000000e+000
      endloop
   endfacet
   facet normal 2.077677e-004 1.000000e+000 0.000000e+000
      outer loop
         vertex -1.251194e+000 9.159091e+000 0.000000e+000
         vertex 1.255001e+000 9.158570e+000 0.000000e+000
         vertex 1.255001e+000 9.158570e+000 -2.000000e+000
      endloop
   endfacet
   facet normal 2.688091e-001 9.631935e-001 0.000000e+000
      outer loop
         vertex 1.255001e+000 9.158570e+000 0.000000e+000
         vertex 3.668951e+000 8.484882e+000 -2.000000e+000
         vertex 1.255001e+000 9.158570e+000 -2.000000e+000
      endloop
   endfacet
   facet normal 4.305111e-001 9.025853e-001 0.000000e+000
      outer loop
         vertex 3.668951e+000 8.484882e+000 -2.000000e+000
         vertex 3.668951e+000 8.484882e+000 0.000000e+000
         vertex 1.007227e+001 5.430657e+000 0.000000e+000
      endloop
   endfacet
   facet normal 4.305111e-001 9.025853e-001 0.000000e+000
      outer loop
         vertex 1.007227e+001 5.430657e+000 -2.000000e+000
         vertex 3.668951e+000 8.484882e+000 -2.000000e+000
         vertex 1.007227e+001 5.430657e+000 0.000000e+000
      endloop
   endfacet
   facet normal 6.353167e-001 7.722517e-001 0.000000e+000
      outer loop
         vertex 1.007227e+001 5.430657e+000 -2.000000e+000
         vertex 1.007227e+001 5.430657e+000 0.000000e+000
         vertex 1.176137e+001 4.041068e+000 0.000000e+000
      endloop
   endfacet
   facet normal 9.844685e-001 1.755611e-001 0.000000e+000
      outer loop
         vertex 1.286601e+001 2.153268e+000 0.000000e+000
         vertex 1.325000e+001 4.466409e-017 0.000000e+000
         vertex 1.325000e+001 4.466409e-017 -2.000000e+000
      endloop
   endfacet
   facet normal 8.630968e-001 5.050385e-001 -0.000000e+000
      outer loop
         vertex 1.286601e+001 2.153268e+000 -2.000000e+000
         vertex 1.176137e+001 4.041068e+000 -2.000000e+000
         vertex 1.176137e+001 4.041068e+000 0.000000e+000
      endloop
   endfacet
   facet normal 6.353167e-001 7.722517e-001 0.000000e+000
      outer loop
         vertex 1.007227e+001 5.430657e+000 -2.000000e+000
         vertex 1.176137e+001 4.041068e+000 0.000000e+000
         vertex 1.176137e+001 4.041068e+000 -2.000000e+000
      endloop
   endfacet
   facet normal 8.630968e-001 5.050385e-001 0.000000e+000
      outer loop
         vertex 1.176137e+001 4.041068e+000 0.000000e+000
         vertex 1.286601e+001 2.153268e+000 0.000000e+000
         vertex 1.286601e+001 2.153268e+000 -2.000000e+000
      endloop
   endfacet
   facet normal 9.844685e-001 1.755611e-001 0.000000e+000
      outer loop
         vertex 1.286601e+001 2.153268e+000 0.000000e+000
         vertex 1.325000e+001 4.466409e-017 -2.000000e+000
         vertex 1.286601e+001 2.153268e+000 -2.000000e+000
      endloop
   endfacet
   facet normal 9.871662e-001 -1.596965e-001 0.000000e+000
      outer loop
         vertex 1.325000e+001 4.466409e-017 -2.000000e+000
         vertex 1.325000e+001 4.466409e-017 0.000000e+000
         vertex 1.286148e+001 -2.401666e+000 0.000000e+000
      endloop
   endfacet
   facet normal 6.953316e-001 -7.186891e-001 0.000000e+000
      outer loop
         vertex 1.173554e+001 -4.558335e+000 0.000000e+000
         vertex 9.987048e+000 -6.250000e+000 0.000000e+000
         vertex 9.987048e+000 -6.250000e+000 -2.000000e+000
      endloop
   endfacet
   facet normal 8.864638e-001 -4.627980e-001 0.000000e+000
      outer loop
         vertex 1.173554e+001 -4.558335e+000 -2.000000e+000
         vertex 1.286148e+001 -2.401666e+000 -2.000000e+000
         vertex 1.286148e+001 -2.401666e+000 0.000000e+000
      endloop
   endfacet
   facet normal 9.871662e-001 -1.596965e-001 0.000000e+000
      outer loop
         vertex 1.325000e+001 4.466409e-017 -2.000000e+000
         vertex 1.286148e+001 -2.401666e+000 0.000000e+000
         vertex 1.286148e+001 -2.401666e+000 -2.000000e+000
      endloop
   endfacet
   facet normal 8.864638e-001 -4.627980e-001 0.000000e+000
      outer loop
         vertex 1.286148e+001 -2.401666e+000 0.000000e+000
         vertex 1.173554e+001 -4.558335e+000 0.000000e+000
         vertex 1.173554e+001 -4.558335e+000 -2.000000e+000
      endloop
   endfacet
   facet normal 6.953316e-001 -7.186891e-001 0.000000e+000
      outer loop
         vertex 1.173554e+001 -4.558335e+000 0.000000e+000
         vertex 9.987048e+000 -6.250000e+000 -2.000000e+000
         vertex 1.173554e+001 -4.558335e+000 -2.000000e+000
      endloop
   endfacet
   facet normal 3.334789e-001 -9.427576e-001 0.000000e+000
      outer loop
         vertex 9.987048e+000 -6.250000e+000 -2.000000e+000
         vertex 9.987048e+000 -6.250000e+000 0.000000e+000
         vertex 3.668951e+000 -8.484882e+000 0.000000e+000
      endloop
   endfacet
   facet normal 3.334789e-001 -9.427576e-001 0.000000e+000
      outer loop
         vertex 3.668951e+000 -8.484882e+000 -2.000000e+000
         vertex 9.987048e+000 -6.250000e+000 -2.000000e+000
         vertex 3.668951e+000 -8.484882e+000 0.000000e+000
      endloop
   endfacet
   facet normal 2.686755e-001 -9.632307e-001 0.000000e+000
      outer loop
         vertex 3.668951e+000 -8.484882e+000 -2.000000e+000
         vertex 3.668951e+000 -8.484882e+000 0.000000e+000
         vertex 1.252463e+000 -9.158917e+000 0.000000e+000
      endloop
   endfacet
   facet normal -2.690758e-001 -9.631190e-001 -0.000000e+000
      outer loop
         vertex -1.256270e+000 -9.158396e+000 0.000000e+000
         vertex -3.672478e+000 -8.483356e+000 0.000000e+000
         vertex -3.672478e+000 -8.483356e+000 -2.000000e+000
      endloop
   endfacet
   facet normal -2.079376e-004 -1.000000e+000 0.000000e+000
      outer loop
         vertex -1.256270e+000 -9.158396e+000 -2.000000e+000
         vertex 1.252463e+000 -9.158917e+000 -2.000000e+000
         vertex 1.252463e+000 -9.158917e+000 0.000000e+000
      endloop
   endfacet
   facet normal 2.686755e-001 -9.632307e-001 0.000000e+000
      outer loop
         vertex 3.668951e+000 -8.484882e+000 -2.000000e+000
         vertex 1.252463e+000 -9.158917e+000 0.000000e+000
         vertex 1.252463e+000 -9.158917e+000 -2.000000e+000
      endloop
   endfacet
   facet normal -2.079376e-004 -1.000000e+000 -0.000000e+000
      outer loop
         vertex 1.252463e+000 -9.158917e+000 0.000000e+000
         vertex -1.256270e+000 -9.158396e+000 0.000000e+000
         vertex -1.256270e+000 -9.158396e+000 -2.000000e+000
      endloop
   endfacet
   facet normal -2.690758e-001 -9.631190e-001 0.000000e+000
      outer loop
         vertex -1.256270e+000 -9.158396e+000 0.000000e+000
         vertex -3.672478e+000 -8.483356e+000 -2.000000e+000
         vertex -1.256270e+000 -9.158396e+000 -2.000000e+000
      endloop
   endfacet
   facet normal -3.332765e-001 -9.428291e-001 -0.000000e+000
      outer loop
         vertex -3.672478e+000 -8.483356e+000 -2.000000e+000
         vertex -3.672478e+000 -8.483356e+000 0.000000e+000
         vertex -9.990576e+000 -6.250000e+000 0.000000e+000
      endloop
   endfacet
   facet normal -3.332765e-001 -9.428291e-001 0.000000e+000
      outer loop
         vertex -9.990576e+000 -6.250000e+000 -2.000000e+000
         vertex -3.672478e+000 -8.483356e+000 -2.000000e+000
         vertex -9.990576e+000 -6.250000e+000 0.000000e+000
      endloop
   endfacet
   facet normal -6.949687e-001 -7.190400e-001 -0.000000e+000
      outer loop
         vertex -9.990576e+000 -6.250000e+000 -2.000000e+000
         vertex -9.990576e+000 -6.250000e+000 0.000000e+000
         vertex -1.174027e+001 -4.558876e+000 0.000000e+000
      endloop
   endfacet
   facet normal -9.871500e-001 -1.597963e-001 -0.000000e+000
      outer loop
         vertex -1.286709e+001 -2.402113e+000 0.000000e+000
         vertex -1.325594e+001 8.881784e-016 0.000000e+000
         vertex -1.325594e+001 8.881784e-016 -2.000000e+000
      endloop
   endfacet
   facet normal -8.863235e-001 -4.630666e-001 0.000000e+000
      outer loop
         vertex -1.286709e+001 -2.402113e+000 -2.000000e+000
         vertex -1.174027e+001 -4.558876e+000 -2.000000e+000
         vertex -1.174027e+001 -4.558876e+000 0.000000e+000
      endloop
   endfacet
   facet normal -6.949687e-001 -7.190400e-001 -0.000000e+000
      outer loop
         vertex -9.990576e+000 -6.250000e+000 -2.000000e+000
         vertex -1.174027e+001 -4.558876e+000 0.000000e+000
         vertex -1.174027e+001 -4.558876e+000 -2.000000e+000
      endloop
   endfacet
   facet normal -8.863235e-001 -4.630666e-001 -0.000000e+000
      outer loop
         vertex -1.174027e+001 -4.558876e+000 0.000000e+000
         vertex -1.286709e+001 -2.402113e+000 0.000000e+000
         vertex -1.286709e+001 -2.402113e+000 -2.000000e+000
      endloop
   endfacet
   facet normal -9.871500e-001 -1.597963e-001 0.000000e+000
      outer loop
         vertex -1.286709e+001 -2.402113e+000 0.000000e+000
         vertex -1.325594e+001 8.881784e-016 -2.000000e+000
         vertex -1.286709e+001 -2.402113e+000 -2.000000e+000
      endloop
   endfacet
   facet normal -9.840118e-001 1.781033e-001 0.000000e+000
      outer loop
         vertex -1.325594e+001 8.881784e-016 -2.000000e+000
         vertex -1.325594e+001 8.881784e-016 0.000000e+000
         vertex -1.286037e+001 2.185514e+000 0.000000e+000
      endloop
   endfacet
   facet normal -6.252912e-001 7.803915e-001 0.000000e+000
      outer loop
         vertex -1.172384e+001 4.093725e+000 0.000000e+000
         vertex -9.990576e+000 5.482512e+000 0.000000e+000
         vertex -9.990576e+000 5.482512e+000 -2.000000e+000
      endloop
   endfacet
   facet normal -8.591579e-001 5.117105e-001 0.000000e+000
      outer loop
         vertex -1.172384e+001 4.093725e+000 -2.000000e+000
         vertex -1.286037e+001 2.185514e+000 -2.000000e+000
         vertex -1.286037e+001 2.185514e+000 0.000000e+000
      endloop
   endfacet
   facet normal -9.840118e-001 1.781033e-001 0.000000e+000
      outer loop
         vertex -1.325594e+001 8.881784e-016 -2.000000e+000
         vertex -1.286037e+001 2.185514e+000 0.000000e+000
         vertex -1.286037e+001 2.185514e+000 -2.000000e+000
      endloop
   endfacet
   facet normal -8.591579e-001 5.117105e-001 0.000000e+000
      outer loop
         vertex -1.286037e+001 2.185514e+000 0.000000e+000
         vertex -1.172384e+001 4.093725e+000 0.000000e+000
         vertex -1.172384e+001 4.093725e+000 -2.000000e+000
      endloop
   endfacet
   facet normal -6.252912e-001 7.803915e-001 0.000000e+000
      outer loop
         vertex -1.172384e+001 4.093725e+000 0.000000e+000
         vertex -9.990576e+000 5.482512e+000 -2.000000e+000
         vertex -1.172384e+001 4.093725e+000 -2.000000e+000
      endloop
   endfacet
   facet normal -4.289924e-001 9.033081e-001 0.000000e+000
      outer loop
         vertex -9.990576e+000 5.482512e+000 -2.000000e+000
         vertex -9.990576e+000 5.482512e+000 0.000000e+000
         vertex -3.665424e+000 8.486406e+000 0.000000e+000
      endloop
   endfacet
   facet normal -4.289924e-001 9.033081e-001 0.000000e+000
      outer loop
         vertex -3.665424e+000 8.486406e+000 -2.000000e+000
         vertex -9.990576e+000 5.482512e+000 -2.000000e+000
         vertex -3.665424e+000 8.486406e+000 0.000000e+000
      endloop
   endfacet
endsolid
