solid 
   facet normal 0.000000e+000 0.000000e+000 1.000000e+000
      outer loop
         vertex 1.624762e+001 9.849610e+000 8.000000e+000
         vertex 1.420082e+001 1.262287e+001 8.000000e+000
         vertex 4.787778e+000 4.017423e+000 8.000000e+000
      endloop
   endfacet
   facet normal -0.000000e+000 0.000000e+000 1.000000e+000
      outer loop
         vertex -1.420082e+001 1.262287e+001 8.000000e+000
         vertex -1.624762e+001 9.849610e+000 8.000000e+000
         vertex -4.787778e+000 4.017423e+000 8.000000e+000
      endloop
   endfacet
   facet normal -0.000000e+000 0.000000e+000 1.000000e+000
      outer loop
         vertex -1.775972e+001 6.752204e+000 8.000000e+000
         vertex -1.868736e+001 3.432585e+000 8.000000e+000
         vertex -5.873079e+000 2.137626e+000 8.000000e+000
      endloop
   endfacet
   facet normal 0.000000e+000 0.000000e+000 1.000000e+000
      outer loop
         vertex -1.900000e+001 2.326829e-015 8.000000e+000
         vertex -6.250000e+000 7.654042e-016 8.000000e+000
         vertex -1.868736e+001 3.432585e+000 8.000000e+000
      endloop
   endfacet
   facet normal 0.000000e+000 0.000000e+000 1.000000e+000
      outer loop
         vertex -4.787778e+000 4.017423e+000 8.000000e+000
         vertex -3.125000e+000 5.412659e+000 8.000000e+000
         vertex -1.420082e+001 1.262287e+001 8.000000e+000
      endloop
   endfacet
   facet normal 0.000000e+000 -0.000000e+000 1.000000e+000
      outer loop
         vertex -1.085301e+000 6.155048e+000 8.000000e+000
         vertex 1.085301e+000 6.155048e+000 8.000000e+000
         vertex 1.420082e+001 1.262287e+001 8.000000e+000
      endloop
   endfacet
   facet normal 0.000000e+000 -0.000000e+000 1.000000e+000
      outer loop
         vertex 3.125000e+000 5.412659e+000 8.000000e+000
         vertex 4.787778e+000 4.017423e+000 8.000000e+000
         vertex 1.420082e+001 1.262287e+001 8.000000e+000
      endloop
   endfacet
   facet normal 0.000000e+000 -0.000000e+000 1.000000e+000
      outer loop
         vertex 5.873079e+000 2.137626e+000 8.000000e+000
         vertex 6.250000e+000 7.807123e-016 8.000000e+000
         vertex 1.868736e+001 3.432585e+000 8.000000e+000
      endloop
   endfacet
   facet normal 0.000000e+000 0.000000e+000 1.000000e+000
      outer loop
         vertex 1.900000e+001 0.000000e+000 8.000000e+000
         vertex 1.868736e+001 3.432585e+000 8.000000e+000
         vertex 6.250000e+000 7.807123e-016 8.000000e+000
      endloop
   endfacet
   facet normal -0.000000e+000 0.000000e+000 1.000000e+000
      outer loop
         vertex 1.624762e+001 9.849610e+000 8.000000e+000
         vertex 4.787778e+000 4.017423e+000 8.000000e+000
         vertex 5.873079e+000 2.137626e+000 8.000000e+000
      endloop
   endfacet
   facet normal 0.000000e+000 0.000000e+000 1.000000e+000
      outer loop
         vertex -5.873079e+000 2.137626e+000 8.000000e+000
         vertex -1.868736e+001 3.432585e+000 8.000000e+000
         vertex -6.250000e+000 7.654042e-016 8.000000e+000
      endloop
   endfacet
   facet normal -0.000000e+000 0.000000e+000 1.000000e+000
      outer loop
         vertex 1.420082e+001 1.262287e+001 8.000000e+000
         vertex 1.085301e+000 6.155048e+000 8.000000e+000
         vertex 3.125000e+000 5.412659e+000 8.000000e+000
      endloop
   endfacet
   facet normal -0.000000e+000 0.000000e+000 1.000000e+000
      outer loop
         vertex 1.420082e+001 1.262287e+001 8.000000e+000
         vertex -1.420082e+001 1.262287e+001 8.000000e+000
         vertex -1.085301e+000 6.155048e+000 8.000000e+000
      endloop
   endfacet
   facet normal 0.000000e+000 0.000000e+000 1.000000e+000
      outer loop
         vertex -5.873079e+000 2.137626e+000 8.000000e+000
         vertex -4.787778e+000 4.017423e+000 8.000000e+000
         vertex -1.624762e+001 9.849610e+000 8.000000e+000
      endloop
   endfacet
   facet normal 0.000000e+000 0.000000e+000 1.000000e+000
      outer loop
         vertex 1.868736e+001 3.432585e+000 8.000000e+000
         vertex 1.775972e+001 6.752204e+000 8.000000e+000
         vertex 5.873079e+000 2.137626e+000 8.000000e+000
      endloop
   endfacet
   facet normal 0.000000e+000 0.000000e+000 1.000000e+000
      outer loop
         vertex -1.775972e+001 6.752204e+000 8.000000e+000
         vertex -5.873079e+000 2.137626e+000 8.000000e+000
         vertex -1.624762e+001 9.849610e+000 8.000000e+000
      endloop
   endfacet
   facet normal 0.000000e+000 0.000000e+000 1.000000e+000
      outer loop
         vertex -1.085301e+000 6.155048e+000 8.000000e+000
         vertex -1.420082e+001 1.262287e+001 8.000000e+000
         vertex -3.125000e+000 5.412659e+000 8.000000e+000
      endloop
   endfacet
   facet normal 0.000000e+000 0.000000e+000 1.000000e+000
      outer loop
         vertex 1.775972e+001 6.752204e+000 8.000000e+000
         vertex 1.624762e+001 9.849610e+000 8.000000e+000
         vertex 5.873079e+000 2.137626e+000 8.000000e+000
      endloop
   endfacet
   facet normal 0.000000e+000 0.000000e+000 -1.000000e+000
      outer loop
         vertex -4.787778e+000 4.017423e+000 0.000000e+000
         vertex -1.624762e+001 9.849610e+000 0.000000e+000
         vertex -1.420082e+001 1.262287e+001 0.000000e+000
      endloop
   endfacet
   facet normal 0.000000e+000 0.000000e+000 -1.000000e+000
      outer loop
         vertex -5.873079e+000 2.137626e+000 0.000000e+000
         vertex -1.868736e+001 3.432585e+000 0.000000e+000
         vertex -1.775972e+001 6.752204e+000 0.000000e+000
      endloop
   endfacet
   facet normal 0.000000e+000 0.000000e+000 -1.000000e+000
      outer loop
         vertex -1.868736e+001 3.432585e+000 0.000000e+000
         vertex -6.250000e+000 7.654042e-016 0.000000e+000
         vertex -1.900000e+001 2.326829e-015 0.000000e+000
      endloop
   endfacet
   facet normal -0.000000e+000 0.000000e+000 -1.000000e+000
      outer loop
         vertex -1.420082e+001 1.262287e+001 0.000000e+000
         vertex -3.125000e+000 5.412659e+000 0.000000e+000
         vertex -4.787778e+000 4.017423e+000 0.000000e+000
      endloop
   endfacet
   facet normal 0.000000e+000 0.000000e+000 -1.000000e+000
      outer loop
         vertex 1.420082e+001 1.262287e+001 0.000000e+000
         vertex 1.085301e+000 6.155048e+000 0.000000e+000
         vertex -1.085301e+000 6.155048e+000 0.000000e+000
      endloop
   endfacet
   facet normal 0.000000e+000 0.000000e+000 -1.000000e+000
      outer loop
         vertex 1.420082e+001 1.262287e+001 0.000000e+000
         vertex 4.787778e+000 4.017423e+000 0.000000e+000
         vertex 3.125000e+000 5.412659e+000 0.000000e+000
      endloop
   endfacet
   facet normal 0.000000e+000 0.000000e+000 -1.000000e+000
      outer loop
         vertex 1.868736e+001 3.432585e+000 0.000000e+000
         vertex 6.250000e+000 7.807123e-016 0.000000e+000
         vertex 5.873079e+000 2.137626e+000 0.000000e+000
      endloop
   endfacet
   facet normal 0.000000e+000 -0.000000e+000 -1.000000e+000
      outer loop
         vertex 6.250000e+000 7.807123e-016 0.000000e+000
         vertex 1.868736e+001 3.432585e+000 0.000000e+000
         vertex 1.900000e+001 0.000000e+000 0.000000e+000
      endloop
   endfacet
   facet normal 0.000000e+000 -0.000000e+000 -1.000000e+000
      outer loop
         vertex 4.787778e+000 4.017423e+000 0.000000e+000
         vertex 1.420082e+001 1.262287e+001 0.000000e+000
         vertex 1.624762e+001 9.849610e+000 0.000000e+000
      endloop
   endfacet
   facet normal 0.000000e+000 0.000000e+000 -1.000000e+000
      outer loop
         vertex -5.873079e+000 2.137626e+000 0.000000e+000
         vertex -1.624762e+001 9.849610e+000 0.000000e+000
         vertex -4.787778e+000 4.017423e+000 0.000000e+000
      endloop
   endfacet
   facet normal 0.000000e+000 0.000000e+000 -1.000000e+000
      outer loop
         vertex -5.873079e+000 2.137626e+000 0.000000e+000
         vertex -6.250000e+000 7.654042e-016 0.000000e+000
         vertex -1.868736e+001 3.432585e+000 0.000000e+000
      endloop
   endfacet
   facet normal 0.000000e+000 0.000000e+000 -1.000000e+000
      outer loop
         vertex 1.085301e+000 6.155048e+000 0.000000e+000
         vertex 1.420082e+001 1.262287e+001 0.000000e+000
         vertex 3.125000e+000 5.412659e+000 0.000000e+000
      endloop
   endfacet
   facet normal 0.000000e+000 0.000000e+000 -1.000000e+000
      outer loop
         vertex -5.873079e+000 2.137626e+000 0.000000e+000
         vertex -1.775972e+001 6.752204e+000 0.000000e+000
         vertex -1.624762e+001 9.849610e+000 0.000000e+000
      endloop
   endfacet
   facet normal 0.000000e+000 0.000000e+000 -1.000000e+000
      outer loop
         vertex 1.624762e+001 9.849610e+000 0.000000e+000
         vertex 5.873079e+000 2.137626e+000 0.000000e+000
         vertex 4.787778e+000 4.017423e+000 0.000000e+000
      endloop
   endfacet
   facet normal 0.000000e+000 -0.000000e+000 -1.000000e+000
      outer loop
         vertex 5.873079e+000 2.137626e+000 0.000000e+000
         vertex 1.624762e+001 9.849610e+000 0.000000e+000
         vertex 1.775972e+001 6.752204e+000 0.000000e+000
      endloop
   endfacet
   facet normal 0.000000e+000 0.000000e+000 -1.000000e+000
      outer loop
         vertex -1.085301e+000 6.155048e+000 0.000000e+000
         vertex -3.125000e+000 5.412659e+000 0.000000e+000
         vertex -1.420082e+001 1.262287e+001 0.000000e+000
      endloop
   endfacet
   facet normal 0.000000e+000 0.000000e+000 -1.000000e+000
      outer loop
         vertex 1.868736e+001 3.432585e+000 0.000000e+000
         vertex 5.873079e+000 2.137626e+000 0.000000e+000
         vertex 1.775972e+001 6.752204e+000 0.000000e+000
      endloop
   endfacet
   facet normal 0.000000e+000 0.000000e+000 -1.000000e+000
      outer loop
         vertex -1.085301e+000 6.155048e+000 0.000000e+000
         vertex -1.420082e+001 1.262287e+001 0.000000e+000
         vertex 1.420082e+001 1.262287e+001 0.000000e+000
      endloop
   endfacet
   facet normal -9.396927e-001 0.000000e+000 3.420199e-001
      outer loop
         vertex -1.035093e+001 2.150560e-015 3.035819e+000
         vertex -1.000000e+001 3.552714e-015 4.000000e+000
         vertex -1.000000e+001 1.262287e+001 4.000000e+000
      endloop
   endfacet
   facet normal 1.736482e-001 -0.000000e+000 9.848078e-001
      outer loop
         vertex -1.225000e+001 1.262287e+001 2.700962e+000
         vertex -1.225000e+001 2.323846e-015 2.700962e+000
         vertex -1.123953e+001 2.231642e-015 2.522788e+000
      endloop
   endfacet
   facet normal 1.000000e+000 -0.000000e+000 0.000000e+000
      outer loop
         vertex -1.290954e+001 1.262287e+001 4.513030e+000
         vertex -1.290954e+001 2.384028e-015 4.513030e+000
         vertex -1.290954e+001 2.384028e-015 3.486970e+000
      endloop
   endfacet
   facet normal 1.736482e-001 0.000000e+000 -9.848078e-001
      outer loop
         vertex -1.123953e+001 1.262287e+001 5.477211e+000
         vertex -1.123953e+001 2.231642e-015 5.477211e+000
         vertex -1.225000e+001 2.323846e-015 5.299038e+000
      endloop
   endfacet
   facet normal -9.396927e-001 0.000000e+000 -3.420199e-001
      outer loop
         vertex -1.000000e+001 1.262287e+001 4.000000e+000
         vertex -1.000000e+001 3.552714e-015 4.000000e+000
         vertex -1.035093e+001 2.150560e-015 4.964181e+000
      endloop
   endfacet
   facet normal -4.999998e-001 0.000000e+000 -8.660255e-001
      outer loop
         vertex -1.035093e+001 2.150560e-015 4.964181e+000
         vertex -1.123953e+001 1.262287e+001 5.477211e+000
         vertex -1.035093e+001 1.262287e+001 4.964181e+000
      endloop
   endfacet
   facet normal 7.660443e-001 0.000000e+000 -6.427878e-001
      outer loop
         vertex -1.290954e+001 2.384028e-015 4.513030e+000
         vertex -1.290954e+001 1.262287e+001 4.513030e+000
         vertex -1.225000e+001 1.262287e+001 5.299038e+000
      endloop
   endfacet
   facet normal 7.660443e-001 0.000000e+000 6.427878e-001
      outer loop
         vertex -1.225000e+001 2.323846e-015 2.700962e+000
         vertex -1.225000e+001 1.262287e+001 2.700962e+000
         vertex -1.290954e+001 1.262287e+001 3.486970e+000
      endloop
   endfacet
   facet normal -5.000000e-001 0.000000e+000 8.660254e-001
      outer loop
         vertex -1.035093e+001 2.150560e-015 3.035819e+000
         vertex -1.035093e+001 1.262287e+001 3.035819e+000
         vertex -1.123953e+001 1.262287e+001 2.522788e+000
      endloop
   endfacet
   facet normal -9.396927e-001 0.000000e+000 3.420199e-001
      outer loop
         vertex -1.035093e+001 1.262287e+001 3.035819e+000
         vertex -1.035093e+001 2.150560e-015 3.035819e+000
         vertex -1.000000e+001 1.262287e+001 4.000000e+000
      endloop
   endfacet
   facet normal 1.736482e-001 0.000000e+000 -9.848078e-001
      outer loop
         vertex -1.225000e+001 1.262287e+001 5.299038e+000
         vertex -1.123953e+001 1.262287e+001 5.477211e+000
         vertex -1.225000e+001 2.323846e-015 5.299038e+000
      endloop
   endfacet
   facet normal -9.396927e-001 0.000000e+000 -3.420199e-001
      outer loop
         vertex -1.000000e+001 1.262287e+001 4.000000e+000
         vertex -1.035093e+001 2.150560e-015 4.964181e+000
         vertex -1.035093e+001 1.262287e+001 4.964181e+000
      endloop
   endfacet
   facet normal -5.000000e-001 0.000000e+000 8.660254e-001
      outer loop
         vertex -1.123953e+001 2.231642e-015 2.522788e+000
         vertex -1.035093e+001 2.150560e-015 3.035819e+000
         vertex -1.123953e+001 1.262287e+001 2.522788e+000
      endloop
   endfacet
   facet normal 7.660443e-001 -0.000000e+000 6.427878e-001
      outer loop
         vertex -1.290954e+001 1.262287e+001 3.486970e+000
         vertex -1.290954e+001 2.384028e-015 3.486970e+000
         vertex -1.225000e+001 2.323846e-015 2.700962e+000
      endloop
   endfacet
   facet normal -4.999998e-001 0.000000e+000 -8.660255e-001
      outer loop
         vertex -1.123953e+001 1.262287e+001 5.477211e+000
         vertex -1.035093e+001 2.150560e-015 4.964181e+000
         vertex -1.123953e+001 2.231642e-015 5.477211e+000
      endloop
   endfacet
   facet normal 1.736482e-001 0.000000e+000 9.848078e-001
      outer loop
         vertex -1.123953e+001 2.231642e-015 2.522788e+000
         vertex -1.123953e+001 1.262287e+001 2.522788e+000
         vertex -1.225000e+001 1.262287e+001 2.700962e+000
      endloop
   endfacet
   facet normal 7.660443e-001 0.000000e+000 -6.427878e-001
      outer loop
         vertex -1.225000e+001 2.323846e-015 5.299038e+000
         vertex -1.290954e+001 2.384028e-015 4.513030e+000
         vertex -1.225000e+001 1.262287e+001 5.299038e+000
      endloop
   endfacet
   facet normal 1.000000e+000 0.000000e+000 -0.000000e+000
      outer loop
         vertex -1.290954e+001 2.384028e-015 3.486970e+000
         vertex -1.290954e+001 1.262287e+001 3.486970e+000
         vertex -1.290954e+001 1.262287e+001 4.513030e+000
      endloop
   endfacet
   facet normal -9.396927e-001 0.000000e+000 3.420199e-001
      outer loop
         vertex 1.264907e+001 -1.581916e-015 3.035819e+000
         vertex 1.300000e+001 -3.552714e-015 4.000000e+000
         vertex 1.300000e+001 1.262287e+001 4.000000e+000
      endloop
   endfacet
   facet normal 1.736482e-001 -0.000000e+000 9.848078e-001
      outer loop
         vertex 1.075000e+001 1.262287e+001 2.700962e+000
         vertex 1.075000e+001 -1.523773e-015 2.700962e+000
         vertex 1.176047e+001 -1.554710e-015 2.522788e+000
      endloop
   endfacet
   facet normal 1.000000e+000 -0.000000e+000 0.000000e+000
      outer loop
         vertex 1.009046e+001 1.262287e+001 4.513030e+000
         vertex 1.009046e+001 -1.503581e-015 4.513030e+000
         vertex 1.009046e+001 -1.503581e-015 3.486970e+000
      endloop
   endfacet
   facet normal 1.736482e-001 0.000000e+000 -9.848078e-001
      outer loop
         vertex 1.176047e+001 1.262287e+001 5.477211e+000
         vertex 1.176047e+001 -1.554710e-015 5.477211e+000
         vertex 1.075000e+001 -1.523773e-015 5.299038e+000
      endloop
   endfacet
   facet normal -9.396927e-001 0.000000e+000 -3.420199e-001
      outer loop
         vertex 1.300000e+001 1.262287e+001 4.000000e+000
         vertex 1.300000e+001 -3.552714e-015 4.000000e+000
         vertex 1.264907e+001 -1.581916e-015 4.964181e+000
      endloop
   endfacet
   facet normal -4.999998e-001 0.000000e+000 -8.660255e-001
      outer loop
         vertex 1.264907e+001 -1.581916e-015 4.964181e+000
         vertex 1.176047e+001 1.262287e+001 5.477211e+000
         vertex 1.264907e+001 1.262287e+001 4.964181e+000
      endloop
   endfacet
   facet normal 7.660443e-001 0.000000e+000 -6.427878e-001
      outer loop
         vertex 1.009046e+001 -1.503581e-015 4.513030e+000
         vertex 1.009046e+001 1.262287e+001 4.513030e+000
         vertex 1.075000e+001 1.262287e+001 5.299038e+000
      endloop
   endfacet
   facet normal 7.660443e-001 0.000000e+000 6.427878e-001
      outer loop
         vertex 1.075000e+001 -1.523773e-015 2.700962e+000
         vertex 1.075000e+001 1.262287e+001 2.700962e+000
         vertex 1.009046e+001 1.262287e+001 3.486970e+000
      endloop
   endfacet
   facet normal -5.000000e-001 0.000000e+000 8.660254e-001
      outer loop
         vertex 1.264907e+001 -1.581916e-015 3.035819e+000
         vertex 1.264907e+001 1.262287e+001 3.035819e+000
         vertex 1.176047e+001 1.262287e+001 2.522788e+000
      endloop
   endfacet
   facet normal -9.396927e-001 0.000000e+000 3.420199e-001
      outer loop
         vertex 1.264907e+001 1.262287e+001 3.035819e+000
         vertex 1.264907e+001 -1.581916e-015 3.035819e+000
         vertex 1.300000e+001 1.262287e+001 4.000000e+000
      endloop
   endfacet
   facet normal 1.736482e-001 0.000000e+000 -9.848078e-001
      outer loop
         vertex 1.075000e+001 1.262287e+001 5.299038e+000
         vertex 1.176047e+001 1.262287e+001 5.477211e+000
         vertex 1.075000e+001 -1.523773e-015 5.299038e+000
      endloop
   endfacet
   facet normal -9.396927e-001 0.000000e+000 -3.420199e-001
      outer loop
         vertex 1.300000e+001 1.262287e+001 4.000000e+000
         vertex 1.264907e+001 -1.581916e-015 4.964181e+000
         vertex 1.264907e+001 1.262287e+001 4.964181e+000
      endloop
   endfacet
   facet normal -5.000000e-001 0.000000e+000 8.660254e-001
      outer loop
         vertex 1.176047e+001 -1.554710e-015 2.522788e+000
         vertex 1.264907e+001 -1.581916e-015 3.035819e+000
         vertex 1.176047e+001 1.262287e+001 2.522788e+000
      endloop
   endfacet
   facet normal 7.660443e-001 -0.000000e+000 6.427878e-001
      outer loop
         vertex 1.009046e+001 1.262287e+001 3.486970e+000
         vertex 1.009046e+001 -1.503581e-015 3.486970e+000
         vertex 1.075000e+001 -1.523773e-015 2.700962e+000
      endloop
   endfacet
   facet normal -4.999998e-001 0.000000e+000 -8.660255e-001
      outer loop
         vertex 1.176047e+001 1.262287e+001 5.477211e+000
         vertex 1.264907e+001 -1.581916e-015 4.964181e+000
         vertex 1.176047e+001 -1.554710e-015 5.477211e+000
      endloop
   endfacet
   facet normal 1.736482e-001 0.000000e+000 9.848078e-001
      outer loop
         vertex 1.176047e+001 -1.554710e-015 2.522788e+000
         vertex 1.176047e+001 1.262287e+001 2.522788e+000
         vertex 1.075000e+001 1.262287e+001 2.700962e+000
      endloop
   endfacet
   facet normal 7.660443e-001 0.000000e+000 -6.427878e-001
      outer loop
         vertex 1.075000e+001 -1.523773e-015 5.299038e+000
         vertex 1.009046e+001 -1.503581e-015 4.513030e+000
         vertex 1.075000e+001 1.262287e+001 5.299038e+000
      endloop
   endfacet
   facet normal 1.000000e+000 0.000000e+000 -0.000000e+000
      outer loop
         vertex 1.009046e+001 -1.503581e-015 3.486970e+000
         vertex 1.009046e+001 1.262287e+001 3.486970e+000
         vertex 1.009046e+001 1.262287e+001 4.513030e+000
      endloop
   endfacet
   facet normal -8.045915e-001 5.938287e-001 0.000000e+000
      outer loop
         vertex -1.624762e+001 9.849610e+000 8.000000e+000
         vertex -1.420082e+001 1.262287e+001 8.000000e+000
         vertex -1.420082e+001 1.262287e+001 0.000000e+000
      endloop
   endfacet
   facet normal -8.986344e-001 4.386983e-001 0.000000e+000
      outer loop
         vertex -1.624762e+001 9.849610e+000 0.000000e+000
         vertex -1.775972e+001 6.752204e+000 0.000000e+000
         vertex -1.624762e+001 9.849610e+000 8.000000e+000
      endloop
   endfacet
   facet normal -9.958778e-001 9.070494e-002 0.000000e+000
      outer loop
         vertex -1.868736e+001 3.432585e+000 0.000000e+000
         vertex -1.900000e+001 2.326829e-015 0.000000e+000
         vertex -1.900000e+001 2.326829e-015 8.000000e+000
      endloop
   endfacet
   facet normal -9.631037e-001 2.691305e-001 0.000000e+000
      outer loop
         vertex -1.868736e+001 3.432585e+000 8.000000e+000
         vertex -1.775972e+001 6.752204e+000 8.000000e+000
         vertex -1.775972e+001 6.752204e+000 0.000000e+000
      endloop
   endfacet
   facet normal -8.045915e-001 5.938287e-001 0.000000e+000
      outer loop
         vertex -1.624762e+001 9.849610e+000 8.000000e+000
         vertex -1.420082e+001 1.262287e+001 0.000000e+000
         vertex -1.624762e+001 9.849610e+000 0.000000e+000
      endloop
   endfacet
   facet normal -9.631037e-001 2.691305e-001 0.000000e+000
      outer loop
         vertex -1.868736e+001 3.432585e+000 8.000000e+000
         vertex -1.775972e+001 6.752204e+000 0.000000e+000
         vertex -1.868736e+001 3.432585e+000 0.000000e+000
      endloop
   endfacet
   facet normal -9.958778e-001 9.070494e-002 0.000000e+000
      outer loop
         vertex -1.900000e+001 2.326829e-015 8.000000e+000
         vertex -1.868736e+001 3.432585e+000 8.000000e+000
         vertex -1.868736e+001 3.432585e+000 0.000000e+000
      endloop
   endfacet
   facet normal -8.986344e-001 4.386983e-001 0.000000e+000
      outer loop
         vertex -1.624762e+001 9.849610e+000 8.000000e+000
         vertex -1.775972e+001 6.752204e+000 0.000000e+000
         vertex -1.775972e+001 6.752204e+000 8.000000e+000
      endloop
   endfacet
   facet normal 8.045915e-001 5.938287e-001 -0.000000e+000
      outer loop
         vertex 1.624762e+001 9.849610e+000 0.000000e+000
         vertex 1.420082e+001 1.262287e+001 0.000000e+000
         vertex 1.420082e+001 1.262287e+001 8.000000e+000
      endloop
   endfacet
   facet normal 8.986344e-001 4.386983e-001 0.000000e+000
      outer loop
         vertex 1.624762e+001 9.849610e+000 8.000000e+000
         vertex 1.775972e+001 6.752204e+000 8.000000e+000
         vertex 1.624762e+001 9.849610e+000 0.000000e+000
      endloop
   endfacet
   facet normal 9.958778e-001 9.070494e-002 0.000000e+000
      outer loop
         vertex 1.868736e+001 3.432585e+000 8.000000e+000
         vertex 1.900000e+001 0.000000e+000 8.000000e+000
         vertex 1.900000e+001 0.000000e+000 0.000000e+000
      endloop
   endfacet
   facet normal 9.631037e-001 2.691305e-001 -0.000000e+000
      outer loop
         vertex 1.868736e+001 3.432585e+000 0.000000e+000
         vertex 1.775972e+001 6.752204e+000 0.000000e+000
         vertex 1.775972e+001 6.752204e+000 8.000000e+000
      endloop
   endfacet
   facet normal 8.045915e-001 5.938287e-001 0.000000e+000
      outer loop
         vertex 1.624762e+001 9.849610e+000 0.000000e+000
         vertex 1.420082e+001 1.262287e+001 8.000000e+000
         vertex 1.624762e+001 9.849610e+000 8.000000e+000
      endloop
   endfacet
   facet normal 9.631037e-001 2.691305e-001 0.000000e+000
      outer loop
         vertex 1.868736e+001 3.432585e+000 0.000000e+000
         vertex 1.775972e+001 6.752204e+000 8.000000e+000
         vertex 1.868736e+001 3.432585e+000 8.000000e+000
      endloop
   endfacet
   facet normal 9.958778e-001 9.070494e-002 -0.000000e+000
      outer loop
         vertex 1.900000e+001 0.000000e+000 0.000000e+000
         vertex 1.868736e+001 3.432585e+000 0.000000e+000
         vertex 1.868736e+001 3.432585e+000 8.000000e+000
      endloop
   endfacet
   facet normal 8.986344e-001 4.386983e-001 0.000000e+000
      outer loop
         vertex 1.624762e+001 9.849610e+000 0.000000e+000
         vertex 1.775972e+001 6.752204e+000 8.000000e+000
         vertex 1.775972e+001 6.752204e+000 0.000000e+000
      endloop
   endfacet
   facet normal 0.000000e+000 1.000000e+000 -0.000000e+000
      outer loop
         vertex 1.000000e+001 1.262287e+001 5.500000e+000
         vertex 1.000000e+001 1.262287e+001 2.500000e+000
         vertex 0.000000e+000 1.262287e+001 2.500000e+000
      endloop
   endfacet
   facet normal 0.000000e+000 1.000000e+000 0.000000e+000
      outer loop
         vertex 0.000000e+000 1.262287e+001 5.500000e+000
         vertex 1.000000e+001 1.262287e+001 5.500000e+000
         vertex 0.000000e+000 1.262287e+001 2.500000e+000
      endloop
   endfacet
   facet normal 0.000000e+000 1.000000e+000 0.000000e+000
      outer loop
         vertex 0.000000e+000 1.262287e+001 2.500000e+000
         vertex 1.420082e+001 1.262287e+001 0.000000e+000
         vertex -1.420082e+001 1.262287e+001 0.000000e+000
      endloop
   endfacet
   facet normal 0.000000e+000 1.000000e+000 0.000000e+000
      outer loop
         vertex 1.300000e+001 1.262287e+001 4.000000e+000
         vertex 1.420082e+001 1.262287e+001 5.500000e+000
         vertex 1.420082e+001 1.262287e+001 2.500000e+000
      endloop
   endfacet
   facet normal -0.000000e+000 1.000000e+000 0.000000e+000
      outer loop
         vertex 0.000000e+000 1.262287e+001 5.500000e+000
         vertex -1.420082e+001 1.262287e+001 8.000000e+000
         vertex 1.420082e+001 1.262287e+001 8.000000e+000
      endloop
   endfacet
   facet normal 0.000000e+000 1.000000e+000 0.000000e+000
      outer loop
         vertex -1.300000e+001 1.262287e+001 2.500000e+000
         vertex -1.420082e+001 1.262287e+001 2.500000e+000
         vertex -1.420082e+001 1.262287e+001 5.500000e+000
      endloop
   endfacet
   facet normal -0.000000e+000 1.000000e+000 0.000000e+000
      outer loop
         vertex 1.300000e+001 1.262287e+001 2.500000e+000
         vertex 1.264907e+001 1.262287e+001 3.035819e+000
         vertex 1.300000e+001 1.262287e+001 4.000000e+000
      endloop
   endfacet
   facet normal 0.000000e+000 1.000000e+000 0.000000e+000
      outer loop
         vertex 1.000000e+001 1.262287e+001 2.500000e+000
         vertex 1.075000e+001 1.262287e+001 2.700962e+000
         vertex 1.176047e+001 1.262287e+001 2.522788e+000
      endloop
   endfacet
   facet normal 0.000000e+000 1.000000e+000 0.000000e+000
      outer loop
         vertex 1.000000e+001 1.262287e+001 5.500000e+000
         vertex 1.009046e+001 1.262287e+001 4.513030e+000
         vertex 1.009046e+001 1.262287e+001 3.486970e+000
      endloop
   endfacet
   facet normal 0.000000e+000 1.000000e+000 0.000000e+000
      outer loop
         vertex 1.000000e+001 1.262287e+001 5.500000e+000
         vertex 1.176047e+001 1.262287e+001 5.477211e+000
         vertex 1.075000e+001 1.262287e+001 5.299038e+000
      endloop
   endfacet
   facet normal 0.000000e+000 1.000000e+000 -0.000000e+000
      outer loop
         vertex 1.300000e+001 1.262287e+001 5.500000e+000
         vertex 1.300000e+001 1.262287e+001 4.000000e+000
         vertex 1.264907e+001 1.262287e+001 4.964181e+000
      endloop
   endfacet
   facet normal -0.000000e+000 1.000000e+000 0.000000e+000
      outer loop
         vertex -1.000000e+001 1.262287e+001 2.500000e+000
         vertex -1.123953e+001 1.262287e+001 2.522788e+000
         vertex -1.035093e+001 1.262287e+001 3.035819e+000
      endloop
   endfacet
   facet normal 0.000000e+000 1.000000e+000 0.000000e+000
      outer loop
         vertex -1.300000e+001 1.262287e+001 2.500000e+000
         vertex -1.290954e+001 1.262287e+001 3.486970e+000
         vertex -1.225000e+001 1.262287e+001 2.700962e+000
      endloop
   endfacet
   facet normal 0.000000e+000 1.000000e+000 0.000000e+000
      outer loop
         vertex -1.300000e+001 1.262287e+001 5.500000e+000
         vertex -1.225000e+001 1.262287e+001 5.299038e+000
         vertex -1.290954e+001 1.262287e+001 4.513030e+000
      endloop
   endfacet
   facet normal 0.000000e+000 1.000000e+000 -0.000000e+000
      outer loop
         vertex -1.000000e+001 1.262287e+001 5.500000e+000
         vertex -1.035093e+001 1.262287e+001 4.964181e+000
         vertex -1.123953e+001 1.262287e+001 5.477211e+000
      endloop
   endfacet
   facet normal 0.000000e+000 1.000000e+000 0.000000e+000
      outer loop
         vertex -1.420082e+001 1.262287e+001 5.500000e+000
         vertex -1.300000e+001 1.262287e+001 5.500000e+000
         vertex -1.300000e+001 1.262287e+001 2.500000e+000
      endloop
   endfacet
   facet normal -0.000000e+000 1.000000e+000 0.000000e+000
      outer loop
         vertex -1.123953e+001 1.262287e+001 5.477211e+000
         vertex -1.300000e+001 1.262287e+001 5.500000e+000
         vertex -1.000000e+001 1.262287e+001 5.500000e+000
      endloop
   endfacet
   facet normal 0.000000e+000 1.000000e+000 0.000000e+000
      outer loop
         vertex -1.000000e+001 1.262287e+001 4.000000e+000
         vertex 0.000000e+000 1.262287e+001 2.500000e+000
         vertex -1.000000e+001 1.262287e+001 2.500000e+000
      endloop
   endfacet
   facet normal 0.000000e+000 1.000000e+000 0.000000e+000
      outer loop
         vertex -1.000000e+001 1.262287e+001 4.000000e+000
         vertex 0.000000e+000 1.262287e+001 5.500000e+000
         vertex 0.000000e+000 1.262287e+001 2.500000e+000
      endloop
   endfacet
   facet normal -0.000000e+000 1.000000e+000 0.000000e+000
      outer loop
         vertex 1.176047e+001 1.262287e+001 5.477211e+000
         vertex 1.000000e+001 1.262287e+001 5.500000e+000
         vertex 1.300000e+001 1.262287e+001 5.500000e+000
      endloop
   endfacet
   facet normal 0.000000e+000 1.000000e+000 0.000000e+000
      outer loop
         vertex -1.000000e+001 1.262287e+001 2.500000e+000
         vertex 0.000000e+000 1.262287e+001 2.500000e+000
         vertex -1.420082e+001 1.262287e+001 0.000000e+000
      endloop
   endfacet
   facet normal 0.000000e+000 1.000000e+000 0.000000e+000
      outer loop
         vertex 1.300000e+001 1.262287e+001 5.500000e+000
         vertex 1.420082e+001 1.262287e+001 5.500000e+000
         vertex 1.300000e+001 1.262287e+001 4.000000e+000
      endloop
   endfacet
   facet normal 0.000000e+000 1.000000e+000 0.000000e+000
      outer loop
         vertex -1.000000e+001 1.262287e+001 5.500000e+000
         vertex -1.420082e+001 1.262287e+001 8.000000e+000
         vertex 0.000000e+000 1.262287e+001 5.500000e+000
      endloop
   endfacet
   facet normal 0.000000e+000 1.000000e+000 0.000000e+000
      outer loop
         vertex 1.176047e+001 1.262287e+001 2.522788e+000
         vertex 1.264907e+001 1.262287e+001 3.035819e+000
         vertex 1.300000e+001 1.262287e+001 2.500000e+000
      endloop
   endfacet
   facet normal 0.000000e+000 1.000000e+000 -0.000000e+000
      outer loop
         vertex 1.075000e+001 1.262287e+001 5.299038e+000
         vertex 1.009046e+001 1.262287e+001 4.513030e+000
         vertex 1.000000e+001 1.262287e+001 5.500000e+000
      endloop
   endfacet
   facet normal 0.000000e+000 1.000000e+000 0.000000e+000
      outer loop
         vertex -1.300000e+001 1.262287e+001 2.500000e+000
         vertex -1.123953e+001 1.262287e+001 2.522788e+000
         vertex -1.000000e+001 1.262287e+001 2.500000e+000
      endloop
   endfacet
   facet normal 0.000000e+000 1.000000e+000 -0.000000e+000
      outer loop
         vertex -1.123953e+001 1.262287e+001 5.477211e+000
         vertex -1.225000e+001 1.262287e+001 5.299038e+000
         vertex -1.300000e+001 1.262287e+001 5.500000e+000
      endloop
   endfacet
   facet normal 0.000000e+000 1.000000e+000 0.000000e+000
      outer loop
         vertex -1.035093e+001 1.262287e+001 3.035819e+000
         vertex -1.000000e+001 1.262287e+001 4.000000e+000
         vertex -1.000000e+001 1.262287e+001 2.500000e+000
      endloop
   endfacet
   facet normal 0.000000e+000 1.000000e+000 -0.000000e+000
      outer loop
         vertex 1.420082e+001 1.262287e+001 8.000000e+000
         vertex 1.420082e+001 1.262287e+001 5.500000e+000
         vertex 1.300000e+001 1.262287e+001 5.500000e+000
      endloop
   endfacet
   facet normal 0.000000e+000 1.000000e+000 0.000000e+000
      outer loop
         vertex -1.225000e+001 1.262287e+001 2.700962e+000
         vertex -1.123953e+001 1.262287e+001 2.522788e+000
         vertex -1.300000e+001 1.262287e+001 2.500000e+000
      endloop
   endfacet
   facet normal 0.000000e+000 1.000000e+000 0.000000e+000
      outer loop
         vertex 1.300000e+001 1.262287e+001 2.500000e+000
         vertex 1.420082e+001 1.262287e+001 2.500000e+000
         vertex 1.420082e+001 1.262287e+001 0.000000e+000
      endloop
   endfacet
   facet normal 0.000000e+000 1.000000e+000 0.000000e+000
      outer loop
         vertex -1.300000e+001 1.262287e+001 2.500000e+000
         vertex -1.420082e+001 1.262287e+001 0.000000e+000
         vertex -1.420082e+001 1.262287e+001 2.500000e+000
      endloop
   endfacet
   facet normal 0.000000e+000 1.000000e+000 -0.000000e+000
      outer loop
         vertex 1.300000e+001 1.262287e+001 5.500000e+000
         vertex 1.264907e+001 1.262287e+001 4.964181e+000
         vertex 1.176047e+001 1.262287e+001 5.477211e+000
      endloop
   endfacet
   facet normal 0.000000e+000 1.000000e+000 -0.000000e+000
      outer loop
         vertex -1.000000e+001 1.262287e+001 5.500000e+000
         vertex -1.000000e+001 1.262287e+001 4.000000e+000
         vertex -1.035093e+001 1.262287e+001 4.964181e+000
      endloop
   endfacet
   facet normal 0.000000e+000 1.000000e+000 0.000000e+000
      outer loop
         vertex -1.290954e+001 1.262287e+001 3.486970e+000
         vertex -1.300000e+001 1.262287e+001 2.500000e+000
         vertex -1.300000e+001 1.262287e+001 5.500000e+000
      endloop
   endfacet
   facet normal 0.000000e+000 1.000000e+000 0.000000e+000
      outer loop
         vertex 1.176047e+001 1.262287e+001 2.522788e+000
         vertex 1.300000e+001 1.262287e+001 2.500000e+000
         vertex 1.000000e+001 1.262287e+001 2.500000e+000
      endloop
   endfacet
   facet normal 0.000000e+000 1.000000e+000 0.000000e+000
      outer loop
         vertex 1.000000e+001 1.262287e+001 2.500000e+000
         vertex 1.420082e+001 1.262287e+001 0.000000e+000
         vertex 0.000000e+000 1.262287e+001 2.500000e+000
      endloop
   endfacet
   facet normal 0.000000e+000 1.000000e+000 0.000000e+000
      outer loop
         vertex 1.420082e+001 1.262287e+001 2.500000e+000
         vertex 1.300000e+001 1.262287e+001 2.500000e+000
         vertex 1.300000e+001 1.262287e+001 4.000000e+000
      endloop
   endfacet
   facet normal 0.000000e+000 1.000000e+000 0.000000e+000
      outer loop
         vertex -1.420082e+001 1.262287e+001 8.000000e+000
         vertex -1.300000e+001 1.262287e+001 5.500000e+000
         vertex -1.420082e+001 1.262287e+001 5.500000e+000
      endloop
   endfacet
   facet normal 0.000000e+000 1.000000e+000 0.000000e+000
      outer loop
         vertex -1.300000e+001 1.262287e+001 5.500000e+000
         vertex -1.420082e+001 1.262287e+001 8.000000e+000
         vertex -1.000000e+001 1.262287e+001 5.500000e+000
      endloop
   endfacet
   facet normal 0.000000e+000 1.000000e+000 0.000000e+000
      outer loop
         vertex -1.000000e+001 1.262287e+001 2.500000e+000
         vertex -1.420082e+001 1.262287e+001 0.000000e+000
         vertex -1.300000e+001 1.262287e+001 2.500000e+000
      endloop
   endfacet
   facet normal 0.000000e+000 1.000000e+000 0.000000e+000
      outer loop
         vertex 1.000000e+001 1.262287e+001 2.500000e+000
         vertex 1.009046e+001 1.262287e+001 3.486970e+000
         vertex 1.075000e+001 1.262287e+001 2.700962e+000
      endloop
   endfacet
   facet normal -0.000000e+000 1.000000e+000 0.000000e+000
      outer loop
         vertex -1.000000e+001 1.262287e+001 4.000000e+000
         vertex -1.000000e+001 1.262287e+001 5.500000e+000
         vertex 0.000000e+000 1.262287e+001 5.500000e+000
      endloop
   endfacet
   facet normal 0.000000e+000 1.000000e+000 0.000000e+000
      outer loop
         vertex 1.000000e+001 1.262287e+001 5.500000e+000
         vertex 0.000000e+000 1.262287e+001 5.500000e+000
         vertex 1.420082e+001 1.262287e+001 8.000000e+000
      endloop
   endfacet
   facet normal 0.000000e+000 1.000000e+000 0.000000e+000
      outer loop
         vertex 1.000000e+001 1.262287e+001 5.500000e+000
         vertex 1.420082e+001 1.262287e+001 8.000000e+000
         vertex 1.300000e+001 1.262287e+001 5.500000e+000
      endloop
   endfacet
   facet normal 0.000000e+000 1.000000e+000 0.000000e+000
      outer loop
         vertex 1.300000e+001 1.262287e+001 2.500000e+000
         vertex 1.420082e+001 1.262287e+001 0.000000e+000
         vertex 1.000000e+001 1.262287e+001 2.500000e+000
      endloop
   endfacet
   facet normal 0.000000e+000 1.000000e+000 0.000000e+000
      outer loop
         vertex -1.300000e+001 1.262287e+001 5.500000e+000
         vertex -1.290954e+001 1.262287e+001 4.513030e+000
         vertex -1.290954e+001 1.262287e+001 3.486970e+000
      endloop
   endfacet
   facet normal 0.000000e+000 1.000000e+000 0.000000e+000
      outer loop
         vertex 1.000000e+001 1.262287e+001 2.500000e+000
         vertex 1.000000e+001 1.262287e+001 5.500000e+000
         vertex 1.009046e+001 1.262287e+001 3.486970e+000
      endloop
   endfacet
   facet normal -1.824964e-016 -1.000000e+000 0.000000e+000
      outer loop
         vertex -1.900000e+001 2.326829e-015 2.500000e+000
         vertex -1.900000e+001 2.326829e-015 0.000000e+000
         vertex -1.300000e+001 1.231851e-015 2.500000e+000
      endloop
   endfacet
   facet normal -8.044249e-017 -1.000000e+000 -1.530808e-016
      outer loop
         vertex -6.250000e+000 7.654042e-016 0.000000e+000
         vertex -6.250000e+000 3.827021e-016 2.500000e+000
         vertex -1.000000e+001 6.843614e-016 2.500000e+000
      endloop
   endfacet
   facet normal -8.044249e-017 -1.000000e+000 1.530808e-016
      outer loop
         vertex -6.250000e+000 3.827021e-016 5.500000e+000
         vertex -6.250000e+000 7.654042e-016 8.000000e+000
         vertex -1.000000e+001 6.843614e-016 5.500000e+000
      endloop
   endfacet
   facet normal -1.824964e-016 -1.000000e+000 0.000000e+000
      outer loop
         vertex -1.900000e+001 2.326829e-015 8.000000e+000
         vertex -1.900000e+001 2.326829e-015 5.500000e+000
         vertex -1.300000e+001 1.231851e-015 5.500000e+000
      endloop
   endfacet
   facet normal -1.258323e-015 -1.000000e+000 -1.912235e-015
      outer loop
         vertex -1.035093e+001 2.150560e-015 4.964181e+000
         vertex -1.000000e+001 3.552714e-015 4.000000e+000
         vertex -1.000000e+001 6.843614e-016 5.500000e+000
      endloop
   endfacet
   facet normal -1.212576e-015 -1.000000e+000 1.942197e-015
      outer loop
         vertex -1.035093e+001 2.150560e-015 3.035819e+000
         vertex -1.123953e+001 2.231642e-015 2.522788e+000
         vertex -1.000000e+001 6.843614e-016 2.500000e+000
      endloop
   endfacet
   facet normal 1.171975e-015 -1.000000e+000 1.059971e-015
      outer loop
         vertex -1.225000e+001 2.323846e-015 2.700962e+000
         vertex -1.290954e+001 2.384028e-015 3.486970e+000
         vertex -1.300000e+001 1.231851e-015 2.500000e+000
      endloop
   endfacet
   facet normal 1.171975e-015 -1.000000e+000 -1.059971e-015
      outer loop
         vertex -1.290954e+001 2.384028e-015 4.513030e+000
         vertex -1.225000e+001 2.323846e-015 5.299038e+000
         vertex -1.300000e+001 1.231851e-015 5.500000e+000
      endloop
   endfacet
   facet normal -1.212575e-015 -1.000000e+000 -1.942197e-015
      outer loop
         vertex -1.123953e+001 2.231642e-015 5.477211e+000
         vertex -1.035093e+001 2.150560e-015 4.964181e+000
         vertex -1.000000e+001 6.843614e-016 5.500000e+000
      endloop
   endfacet
   facet normal -1.824964e-016 -1.000000e+000 -0.000000e+000
      outer loop
         vertex -1.300000e+001 1.231851e-015 2.500000e+000
         vertex -1.300000e+001 1.231851e-015 5.500000e+000
         vertex -1.900000e+001 2.326829e-015 2.500000e+000
      endloop
   endfacet
   facet normal -1.824964e-016 -1.000000e+000 -5.797090e-014
      outer loop
         vertex -1.000000e+001 6.843614e-016 5.500000e+000
         vertex -1.300000e+001 1.231851e-015 5.500000e+000
         vertex -1.123953e+001 2.231642e-015 5.477211e+000
      endloop
   endfacet
   facet normal -1.824964e-016 -1.000000e+000 0.000000e+000
      outer loop
         vertex -1.300000e+001 1.231851e-015 2.500000e+000
         vertex -1.900000e+001 2.326829e-015 0.000000e+000
         vertex -1.000000e+001 6.843614e-016 2.500000e+000
      endloop
   endfacet
   facet normal -8.044249e-017 -1.000000e+000 -1.912235e-015
      outer loop
         vertex -6.250000e+000 3.827021e-016 5.500000e+000
         vertex -1.000000e+001 6.843614e-016 5.500000e+000
         vertex -1.000000e+001 3.552714e-015 4.000000e+000
      endloop
   endfacet
   facet normal -1.824964e-016 -1.000000e+000 0.000000e+000
      outer loop
         vertex -1.900000e+001 2.326829e-015 8.000000e+000
         vertex -1.300000e+001 1.231851e-015 5.500000e+000
         vertex -1.000000e+001 6.843614e-016 5.500000e+000
      endloop
   endfacet
   facet normal -1.824964e-016 -1.000000e+000 5.797151e-014
      outer loop
         vertex -1.000000e+001 6.843614e-016 2.500000e+000
         vertex -1.123953e+001 2.231642e-015 2.522788e+000
         vertex -1.300000e+001 1.231851e-015 2.500000e+000
      endloop
   endfacet
   facet normal 5.228301e-016 -1.000000e+000 -3.482611e-015
      outer loop
         vertex -1.300000e+001 1.231851e-015 5.500000e+000
         vertex -1.225000e+001 2.323846e-015 5.299038e+000
         vertex -1.123953e+001 2.231642e-015 5.477211e+000
      endloop
   endfacet
   facet normal -8.453364e-016 -1.000000e+000 0.000000e+000
      outer loop
         vertex -6.250000e+000 3.827021e-016 5.500000e+000
         vertex -1.000000e+001 3.552714e-015 4.000000e+000
         vertex -6.250000e+000 3.827021e-016 2.500000e+000
      endloop
   endfacet
   facet normal -8.044249e-017 -1.000000e+000 1.912235e-015
      outer loop
         vertex -6.250000e+000 3.827021e-016 2.500000e+000
         vertex -1.000000e+001 3.552714e-015 4.000000e+000
         vertex -1.000000e+001 6.843614e-016 2.500000e+000
      endloop
   endfacet
   facet normal -1.224647e-016 -1.000000e+000 2.161141e-016
      outer loop
         vertex -6.250000e+000 7.654042e-016 8.000000e+000
         vertex -1.900000e+001 2.326829e-015 8.000000e+000
         vertex -1.000000e+001 6.843614e-016 5.500000e+000
      endloop
   endfacet
   facet normal -1.258323e-015 -1.000000e+000 1.912235e-015
      outer loop
         vertex -1.000000e+001 3.552714e-015 4.000000e+000
         vertex -1.035093e+001 2.150560e-015 3.035819e+000
         vertex -1.000000e+001 6.843614e-016 2.500000e+000
      endloop
   endfacet
   facet normal 1.273676e-014 -1.000000e+000 0.000000e+000
      outer loop
         vertex -1.290954e+001 2.384028e-015 3.486970e+000
         vertex -1.290954e+001 2.384028e-015 4.513030e+000
         vertex -1.300000e+001 1.231851e-015 2.500000e+000
      endloop
   endfacet
   facet normal -1.824964e-016 -1.000000e+000 -0.000000e+000
      outer loop
         vertex -1.300000e+001 1.231851e-015 5.500000e+000
         vertex -1.900000e+001 2.326829e-015 5.500000e+000
         vertex -1.900000e+001 2.326829e-015 2.500000e+000
      endloop
   endfacet
   facet normal -1.224647e-016 -1.000000e+000 -2.161141e-016
      outer loop
         vertex -1.000000e+001 6.843614e-016 2.500000e+000
         vertex -1.900000e+001 2.326829e-015 0.000000e+000
         vertex -6.250000e+000 7.654042e-016 0.000000e+000
      endloop
   endfacet
   facet normal 5.228306e-016 -1.000000e+000 3.482613e-015
      outer loop
         vertex -1.123953e+001 2.231642e-015 2.522788e+000
         vertex -1.225000e+001 2.323846e-015 2.700962e+000
         vertex -1.300000e+001 1.231851e-015 2.500000e+000
      endloop
   endfacet
   facet normal 1.273676e-014 -1.000000e+000 0.000000e+000
      outer loop
         vertex -1.290954e+001 2.384028e-015 4.513030e+000
         vertex -1.300000e+001 1.231851e-015 5.500000e+000
         vertex -1.300000e+001 1.231851e-015 2.500000e+000
      endloop
   endfacet
   facet normal 9.848077e-001 -1.736482e-001 0.000000e+000
      outer loop
         vertex -6.250000e+000 7.654042e-016 8.000000e+000
         vertex -6.250000e+000 7.654042e-016 0.000000e+000
         vertex -5.873079e+000 2.137626e+000 0.000000e+000
      endloop
   endfacet
   facet normal 6.427875e-001 -7.660445e-001 0.000000e+000
      outer loop
         vertex -4.787778e+000 4.017423e+000 0.000000e+000
         vertex -3.125000e+000 5.412659e+000 0.000000e+000
         vertex -3.125000e+000 5.412659e+000 8.000000e+000
      endloop
   endfacet
   facet normal 0.000000e+000 -1.000000e+000 0.000000e+000
      outer loop
         vertex -1.085301e+000 6.155048e+000 0.000000e+000
         vertex 1.085301e+000 6.155048e+000 0.000000e+000
         vertex 1.085301e+000 6.155048e+000 8.000000e+000
      endloop
   endfacet
   facet normal -6.427875e-001 -7.660445e-001 0.000000e+000
      outer loop
         vertex 3.125000e+000 5.412659e+000 0.000000e+000
         vertex 4.787778e+000 4.017423e+000 0.000000e+000
         vertex 4.787778e+000 4.017423e+000 8.000000e+000
      endloop
   endfacet
   facet normal -9.848077e-001 -1.736482e-001 0.000000e+000
      outer loop
         vertex 5.873079e+000 2.137626e+000 0.000000e+000
         vertex 6.250000e+000 7.807123e-016 0.000000e+000
         vertex 6.250000e+000 7.807123e-016 8.000000e+000
      endloop
   endfacet
   facet normal -8.660255e-001 -4.999999e-001 -0.000000e+000
      outer loop
         vertex 5.873079e+000 2.137626e+000 8.000000e+000
         vertex 4.787778e+000 4.017423e+000 8.000000e+000
         vertex 4.787778e+000 4.017423e+000 0.000000e+000
      endloop
   endfacet
   facet normal -3.420201e-001 -9.396926e-001 -0.000000e+000
      outer loop
         vertex 3.125000e+000 5.412659e+000 8.000000e+000
         vertex 1.085301e+000 6.155048e+000 8.000000e+000
         vertex 1.085301e+000 6.155048e+000 0.000000e+000
      endloop
   endfacet
   facet normal 3.420201e-001 -9.396926e-001 0.000000e+000
      outer loop
         vertex -1.085301e+000 6.155048e+000 8.000000e+000
         vertex -3.125000e+000 5.412659e+000 8.000000e+000
         vertex -3.125000e+000 5.412659e+000 0.000000e+000
      endloop
   endfacet
   facet normal 8.660255e-001 -4.999999e-001 0.000000e+000
      outer loop
         vertex -4.787778e+000 4.017423e+000 8.000000e+000
         vertex -5.873079e+000 2.137626e+000 8.000000e+000
         vertex -5.873079e+000 2.137626e+000 0.000000e+000
      endloop
   endfacet
   facet normal 9.848077e-001 -1.736482e-001 0.000000e+000
      outer loop
         vertex -6.250000e+000 7.654042e-016 8.000000e+000
         vertex -5.873079e+000 2.137626e+000 0.000000e+000
         vertex -5.873079e+000 2.137626e+000 8.000000e+000
      endloop
   endfacet
   facet normal -6.427875e-001 -7.660445e-001 0.000000e+000
      outer loop
         vertex 3.125000e+000 5.412659e+000 0.000000e+000
         vertex 4.787778e+000 4.017423e+000 8.000000e+000
         vertex 3.125000e+000 5.412659e+000 8.000000e+000
      endloop
   endfacet
   facet normal -3.420201e-001 -9.396926e-001 0.000000e+000
      outer loop
         vertex 3.125000e+000 5.412659e+000 8.000000e+000
         vertex 1.085301e+000 6.155048e+000 0.000000e+000
         vertex 3.125000e+000 5.412659e+000 0.000000e+000
      endloop
   endfacet
   facet normal 8.660255e-001 -4.999999e-001 0.000000e+000
      outer loop
         vertex -5.873079e+000 2.137626e+000 0.000000e+000
         vertex -4.787778e+000 4.017423e+000 0.000000e+000
         vertex -4.787778e+000 4.017423e+000 8.000000e+000
      endloop
   endfacet
   facet normal -8.660255e-001 -4.999999e-001 0.000000e+000
      outer loop
         vertex 4.787778e+000 4.017423e+000 0.000000e+000
         vertex 5.873079e+000 2.137626e+000 0.000000e+000
         vertex 5.873079e+000 2.137626e+000 8.000000e+000
      endloop
   endfacet
   facet normal 0.000000e+000 -1.000000e+000 0.000000e+000
      outer loop
         vertex 1.085301e+000 6.155048e+000 8.000000e+000
         vertex -1.085301e+000 6.155048e+000 8.000000e+000
         vertex -1.085301e+000 6.155048e+000 0.000000e+000
      endloop
   endfacet
   facet normal 6.427875e-001 -7.660445e-001 0.000000e+000
      outer loop
         vertex -4.787778e+000 4.017423e+000 0.000000e+000
         vertex -3.125000e+000 5.412659e+000 8.000000e+000
         vertex -4.787778e+000 4.017423e+000 8.000000e+000
      endloop
   endfacet
   facet normal -9.848077e-001 -1.736482e-001 0.000000e+000
      outer loop
         vertex 5.873079e+000 2.137626e+000 8.000000e+000
         vertex 5.873079e+000 2.137626e+000 0.000000e+000
         vertex 6.250000e+000 7.807123e-016 8.000000e+000
      endloop
   endfacet
   facet normal 3.420201e-001 -9.396926e-001 0.000000e+000
      outer loop
         vertex -3.125000e+000 5.412659e+000 0.000000e+000
         vertex -1.085301e+000 6.155048e+000 0.000000e+000
         vertex -1.085301e+000 6.155048e+000 8.000000e+000
      endloop
   endfacet
   facet normal 4.286264e-017 -1.000000e+000 -1.561425e-016
      outer loop
         vertex 6.250000e+000 3.903562e-016 2.500000e+000
         vertex 6.250000e+000 7.807123e-016 0.000000e+000
         vertex 1.000000e+001 5.510911e-016 2.500000e+000
      endloop
   endfacet
   facet normal -6.123234e-017 -1.000000e+000 -0.000000e+000
      outer loop
         vertex 1.900000e+001 0.000000e+000 0.000000e+000
         vertex 1.900000e+001 0.000000e+000 2.500000e+000
         vertex 1.300000e+001 3.673940e-016 2.500000e+000
      endloop
   endfacet
   facet normal -6.123234e-017 -1.000000e+000 -0.000000e+000
      outer loop
         vertex 1.900000e+001 0.000000e+000 5.500000e+000
         vertex 1.900000e+001 0.000000e+000 8.000000e+000
         vertex 1.300000e+001 3.673940e-016 5.500000e+000
      endloop
   endfacet
   facet normal 4.286264e-017 -1.000000e+000 1.561425e-016
      outer loop
         vertex 6.250000e+000 7.807123e-016 8.000000e+000
         vertex 6.250000e+000 3.903562e-016 5.500000e+000
         vertex 1.000000e+001 5.510911e-016 5.500000e+000
      endloop
   endfacet
   facet normal 1.564397e-015 -1.000000e+000 2.613405e-015
      outer loop
         vertex 1.264907e+001 -1.581916e-015 4.964181e+000
         vertex 1.300000e+001 -3.552714e-015 4.000000e+000
         vertex 1.300000e+001 3.673940e-016 5.500000e+000
      endloop
   endfacet
   facet normal 1.501875e-015 -1.000000e+000 -2.654353e-015
      outer loop
         vertex 1.264907e+001 -1.581916e-015 3.035819e+000
         vertex 1.176047e+001 -1.554710e-015 2.522788e+000
         vertex 1.300000e+001 3.673940e-016 2.500000e+000
      endloop
   endfacet
   facet normal -2.264278e-015 -1.000000e+000 -1.874266e-015
      outer loop
         vertex 1.075000e+001 -1.523773e-015 2.700962e+000
         vertex 1.009046e+001 -1.503581e-015 3.486970e+000
         vertex 1.000000e+001 5.510911e-016 2.500000e+000
      endloop
   endfacet
   facet normal -2.264278e-015 -1.000000e+000 1.874265e-015
      outer loop
         vertex 1.009046e+001 -1.503581e-015 4.513030e+000
         vertex 1.075000e+001 -1.523773e-015 5.299038e+000
         vertex 1.000000e+001 5.510911e-016 5.500000e+000
      endloop
   endfacet
   facet normal 1.501875e-015 -1.000000e+000 2.654354e-015
      outer loop
         vertex 1.176047e+001 -1.554710e-015 5.477211e+000
         vertex 1.264907e+001 -1.581916e-015 4.964181e+000
         vertex 1.300000e+001 3.673940e-016 5.500000e+000
      endloop
   endfacet
   facet normal 4.286264e-017 -1.000000e+000 0.000000e+000
      outer loop
         vertex 1.000000e+001 5.510911e-016 2.500000e+000
         vertex 1.000000e+001 5.510911e-016 5.500000e+000
         vertex 6.250000e+000 3.903562e-016 2.500000e+000
      endloop
   endfacet
   facet normal -6.123235e-017 -1.000000e+000 8.767586e-014
      outer loop
         vertex 1.300000e+001 3.673940e-016 5.500000e+000
         vertex 1.000000e+001 5.510911e-016 5.500000e+000
         vertex 1.176047e+001 -1.554710e-015 5.477211e+000
      endloop
   endfacet
   facet normal -6.123235e-017 -1.000000e+000 1.588187e-023
      outer loop
         vertex 1.000000e+001 5.510911e-016 2.500000e+000
         vertex 6.250000e+000 7.807123e-016 0.000000e+000
         vertex 1.300000e+001 3.673940e-016 2.500000e+000
      endloop
   endfacet
   facet normal -6.123234e-017 -1.000000e+000 2.613405e-015
      outer loop
         vertex 1.900000e+001 0.000000e+000 5.500000e+000
         vertex 1.300000e+001 3.673940e-016 5.500000e+000
         vertex 1.300000e+001 -3.552714e-015 4.000000e+000
      endloop
   endfacet
   facet normal -6.123235e-017 -1.000000e+000 -1.588187e-023
      outer loop
         vertex 6.250000e+000 7.807123e-016 8.000000e+000
         vertex 1.000000e+001 5.510911e-016 5.500000e+000
         vertex 1.300000e+001 3.673940e-016 5.500000e+000
      endloop
   endfacet
   facet normal -6.123235e-017 -1.000000e+000 -8.767678e-014
      outer loop
         vertex 1.300000e+001 3.673940e-016 2.500000e+000
         vertex 1.176047e+001 -1.554710e-015 2.522788e+000
         vertex 1.000000e+001 5.510911e-016 2.500000e+000
      endloop
   endfacet
   facet normal -1.116444e-015 -1.000000e+000 6.158035e-015
      outer loop
         vertex 1.000000e+001 5.510911e-016 5.500000e+000
         vertex 1.075000e+001 -1.523773e-015 5.299038e+000
         vertex 1.176047e+001 -1.554710e-015 5.477211e+000
      endloop
   endfacet
   facet normal 5.921189e-016 -1.000000e+000 0.000000e+000
      outer loop
         vertex 1.900000e+001 0.000000e+000 5.500000e+000
         vertex 1.300000e+001 -3.552714e-015 4.000000e+000
         vertex 1.900000e+001 0.000000e+000 2.500000e+000
      endloop
   endfacet
   facet normal -6.123234e-017 -1.000000e+000 -2.613405e-015
      outer loop
         vertex 1.900000e+001 0.000000e+000 2.500000e+000
         vertex 1.300000e+001 -3.552714e-015 4.000000e+000
         vertex 1.300000e+001 3.673940e-016 2.500000e+000
      endloop
   endfacet
   facet normal -6.123234e-017 -1.000000e+000 -3.736910e-024
      outer loop
         vertex 6.250000e+000 7.807123e-016 0.000000e+000
         vertex 1.900000e+001 0.000000e+000 0.000000e+000
         vertex 1.300000e+001 3.673940e-016 2.500000e+000
      endloop
   endfacet
   facet normal 1.564397e-015 -1.000000e+000 -2.613405e-015
      outer loop
         vertex 1.300000e+001 -3.552714e-015 4.000000e+000
         vertex 1.264907e+001 -1.581916e-015 3.035819e+000
         vertex 1.300000e+001 3.673940e-016 2.500000e+000
      endloop
   endfacet
   facet normal -2.271340e-014 -1.000000e+000 -0.000000e+000
      outer loop
         vertex 1.009046e+001 -1.503581e-015 3.486970e+000
         vertex 1.009046e+001 -1.503581e-015 4.513030e+000
         vertex 1.000000e+001 5.510911e-016 2.500000e+000
      endloop
   endfacet
   facet normal 4.286264e-017 -1.000000e+000 0.000000e+000
      outer loop
         vertex 1.000000e+001 5.510911e-016 5.500000e+000
         vertex 6.250000e+000 3.903562e-016 5.500000e+000
         vertex 6.250000e+000 3.903562e-016 2.500000e+000
      endloop
   endfacet
   facet normal -6.123234e-017 -1.000000e+000 3.736910e-024
      outer loop
         vertex 6.250000e+000 7.807123e-016 8.000000e+000
         vertex 1.300000e+001 3.673940e-016 5.500000e+000
         vertex 1.900000e+001 0.000000e+000 8.000000e+000
      endloop
   endfacet
   facet normal -1.116445e-015 -1.000000e+000 -6.158040e-015
      outer loop
         vertex 1.176047e+001 -1.554710e-015 2.522788e+000
         vertex 1.075000e+001 -1.523773e-015 2.700962e+000
         vertex 1.000000e+001 5.510911e-016 2.500000e+000
      endloop
   endfacet
   facet normal -2.271340e-014 -1.000000e+000 -0.000000e+000
      outer loop
         vertex 1.009046e+001 -1.503581e-015 4.513030e+000
         vertex 1.000000e+001 5.510911e-016 5.500000e+000
         vertex 1.000000e+001 5.510911e-016 2.500000e+000
      endloop
   endfacet
endsolid
