solid П-Балка-10мм-Ответ
facet normal 1.0 0.0 0.0
  outer loop
    vertex 0.0 1.9999999999999998 0.0
    vertex 0.0 -9.999999999999998 7.499999999999987
    vertex 0.0 -9.999999999999998 0.0
  endloop
endfacet
facet normal 1.0 0.0 0.0
  outer loop
    vertex 0.0 -9.999999999999998 7.499999999999987
    vertex 0.0 1.9999999999999998 0.0
    vertex 0.0 -5.999999999999999 4.999999999999991
  endloop
endfacet
facet normal 1.0 0.0 0.0
  outer loop
    vertex 0.0 -5.999999999999999 4.999999999999991
    vertex 0.0 1.9999999999999998 0.0
    vertex 0.0 -2.9999999999999987 4.999999999999991
  endloop
endfacet
facet normal 1.0 0.0 0.0
  outer loop
    vertex 0.0 -2.9999999999999987 4.999999999999991
    vertex 0.0 1.9999999999999998 0.0
    vertex 0.0 -2.9999999999999987 24.99999999999999
  endloop
endfacet
facet normal 1.0 0.0 0.0
  outer loop
    vertex 0.0 -2.9999999999999987 24.99999999999999
    vertex 0.0 1.9999999999999998 0.0
    vertex 0.0 1.9999999999999998 24.99999999999999
  endloop
endfacet
facet normal 1.0 0.0 0.0
  outer loop
    vertex 0.0 -5.999999999999999 7.499999999999987
    vertex 0.0 -9.999999999999998 7.499999999999987
    vertex 0.0 -5.999999999999999 4.999999999999991
  endloop
endfacet
facet normal -1.0 -0.0 -0.0
  outer loop
    vertex -20.0 1.9999999999999998 24.99999999999999
    vertex -20.0 -2.9999999999999987 4.999999999999991
    vertex -20.0 -2.9999999999999987 24.99999999999999
  endloop
endfacet
facet normal -1.0 -0.0 -0.0
  outer loop
    vertex -20.0 -5.999999999999999 7.499999999999987
    vertex -20.0 -9.999999999999998 0.0
    vertex -20.0 -9.999999999999998 7.499999999999987
  endloop
endfacet
facet normal -1.0 -0.0 -0.0
  outer loop
    vertex -20.0 -9.999999999999998 0.0
    vertex -20.0 -5.999999999999999 7.499999999999987
    vertex -20.0 -5.999999999999999 4.999999999999991
  endloop
endfacet
facet normal -1.0 -0.0 -0.0
  outer loop
    vertex -20.0 -9.999999999999998 0.0
    vertex -20.0 -5.999999999999999 4.999999999999991
    vertex -20.0 1.9999999999999998 0.0
  endloop
endfacet
facet normal -1.0 -0.0 -0.0
  outer loop
    vertex -20.0 1.9999999999999998 0.0
    vertex -20.0 -5.999999999999999 4.999999999999991
    vertex -20.0 -2.9999999999999987 4.999999999999991
  endloop
endfacet
facet normal -1.0 -0.0 -0.0
  outer loop
    vertex -20.0 1.9999999999999998 0.0
    vertex -20.0 -2.9999999999999987 4.999999999999991
    vertex -20.0 1.9999999999999998 24.99999999999999
  endloop
endfacet
facet normal 0.0 -1.0 0.0
  outer loop
    vertex 0.0 -2.9999999999999987 4.999999999999991
    vertex -3.585786437626905 -3.0000000000000115 18.585786437626894
    vertex -20.0 -2.9999999999999987 4.999999999999991
  endloop
endfacet
facet normal 0.0 -1.0 0.0
  outer loop
    vertex -3.585786437626905 -3.0000000000000115 18.585786437626894
    vertex 0.0 -2.9999999999999987 4.999999999999991
    vertex -3.2679491924311237 -3.0000000000000115 18.99999999999999
  endloop
endfacet
facet normal 0.0 -1.0 0.0
  outer loop
    vertex -3.2679491924311237 -3.0000000000000115 18.99999999999999
    vertex 0.0 -2.9999999999999987 4.999999999999991
    vertex 0.0 -2.9999999999999987 24.99999999999999
  endloop
endfacet
facet normal 0.0 -1.0 0.0
  outer loop
    vertex -20.0 -2.9999999999999987 4.999999999999991
    vertex -3.585786437626905 -3.0000000000000115 18.585786437626894
    vertex -4.000000000000001 -3.0000000000000115 18.26794919243111
  endloop
endfacet
facet normal 0.0 -1.0 0.0
  outer loop
    vertex -20.0 -2.9999999999999987 4.999999999999991
    vertex -4.000000000000001 -3.0000000000000115 18.26794919243111
    vertex -4.4823619097949585 -3.0000000000000115 18.068148347421854
  endloop
endfacet
facet normal 0.0 -1.0 0.0
  outer loop
    vertex -20.0 -2.9999999999999987 4.999999999999991
    vertex -4.4823619097949585 -3.0000000000000115 18.068148347421854
    vertex -5.0 -3.0000000000000115 17.99999999999999
  endloop
endfacet
facet normal 0.0 -1.0 0.0
  outer loop
    vertex -3.2679491924311237 -3.0000000000000115 18.99999999999999
    vertex 0.0 -2.9999999999999987 24.99999999999999
    vertex -3.068148347421864 -3.0000000000000115 19.482361909794946
  endloop
endfacet
facet normal 0.0 -1.0 0.0
  outer loop
    vertex -3.068148347421864 -3.0000000000000115 19.482361909794946
    vertex 0.0 -2.9999999999999987 24.99999999999999
    vertex -3.0000000000000004 -3.0000000000000115 19.99999999999999
  endloop
endfacet
facet normal 0.0 -1.0 0.0
  outer loop
    vertex -3.0000000000000004 -3.0000000000000115 19.99999999999999
    vertex 0.0 -2.9999999999999987 24.99999999999999
    vertex -3.0681483474218636 -3.0000000000000115 20.51763809020503
  endloop
endfacet
facet normal 0.0 -1.0 0.0
  outer loop
    vertex -3.0681483474218636 -3.0000000000000115 20.51763809020503
    vertex 0.0 -2.9999999999999987 24.99999999999999
    vertex -3.2679491924311224 -3.0000000000000115 20.999999999999986
  endloop
endfacet
facet normal 0.0 -1.0 0.0
  outer loop
    vertex -3.2679491924311224 -3.0000000000000115 20.999999999999986
    vertex 0.0 -2.9999999999999987 24.99999999999999
    vertex -3.585786437626904 -3.0000000000000115 21.41421356237308
  endloop
endfacet
facet normal 0.0 -1.0 0.0
  outer loop
    vertex -3.585786437626904 -3.0000000000000115 21.41421356237308
    vertex 0.0 -2.9999999999999987 24.99999999999999
    vertex -3.9999999999999996 -3.0000000000000115 21.732050807568864
  endloop
endfacet
facet normal 0.0 -1.0 0.0
  outer loop
    vertex -3.9999999999999996 -3.0000000000000115 21.732050807568864
    vertex 0.0 -2.9999999999999987 24.99999999999999
    vertex -4.482361909794958 -3.0000000000000115 21.931851652578125
  endloop
endfacet
facet normal 0.0 -1.0 0.0
  outer loop
    vertex -4.482361909794958 -3.0000000000000115 21.931851652578125
    vertex 0.0 -2.9999999999999987 24.99999999999999
    vertex -4.999999999999999 -3.0000000000000115 21.99999999999999
  endloop
endfacet
facet normal 0.0 -1.0 0.0
  outer loop
    vertex -4.999999999999999 -3.0000000000000115 21.99999999999999
    vertex 0.0 -2.9999999999999987 24.99999999999999
    vertex -15.0 -2.9999999999999987 21.99999999999999
  endloop
endfacet
facet normal 0.0 -1.0 0.0
  outer loop
    vertex -20.0 -2.9999999999999987 4.999999999999991
    vertex -16.73205080756888 -2.9999999999999987 18.99999999999999
    vertex -20.0 -2.9999999999999987 24.99999999999999
  endloop
endfacet
facet normal 0.0 -1.0 0.0
  outer loop
    vertex -16.73205080756888 -2.9999999999999987 18.99999999999999
    vertex -20.0 -2.9999999999999987 4.999999999999991
    vertex -16.414213562373096 -2.9999999999999987 18.585786437626897
  endloop
endfacet
facet normal 0.0 -1.0 0.0
  outer loop
    vertex -16.414213562373096 -2.9999999999999987 18.585786437626897
    vertex -20.0 -2.9999999999999987 4.999999999999991
    vertex -16.0 -2.9999999999999987 18.267949192431114
  endloop
endfacet
facet normal 0.0 -1.0 0.0
  outer loop
    vertex -16.0 -2.9999999999999987 18.267949192431114
    vertex -20.0 -2.9999999999999987 4.999999999999991
    vertex -15.517638090205043 -2.9999999999999987 18.068148347421854
  endloop
endfacet
facet normal 0.0 -1.0 0.0
  outer loop
    vertex -15.517638090205043 -2.9999999999999987 18.068148347421854
    vertex -20.0 -2.9999999999999987 4.999999999999991
    vertex -15.0 -2.9999999999999987 17.99999999999999
  endloop
endfacet
facet normal 0.0 -1.0 0.0
  outer loop
    vertex -15.0 -2.9999999999999987 17.99999999999999
    vertex -20.0 -2.9999999999999987 4.999999999999991
    vertex -5.0 -3.0000000000000115 17.99999999999999
  endloop
endfacet
facet normal 0.0 -1.0 0.0
  outer loop
    vertex -20.0 -2.9999999999999987 24.99999999999999
    vertex -16.73205080756888 -2.9999999999999987 18.99999999999999
    vertex -16.931851652578136 -2.9999999999999987 19.48236190979495
  endloop
endfacet
facet normal 0.0 -1.0 0.0
  outer loop
    vertex -20.0 -2.9999999999999987 24.99999999999999
    vertex -16.931851652578136 -2.9999999999999987 19.48236190979495
    vertex -17.0 -2.9999999999999987 19.99999999999999
  endloop
endfacet
facet normal 0.0 -1.0 0.0
  outer loop
    vertex -20.0 -2.9999999999999987 24.99999999999999
    vertex -17.0 -2.9999999999999987 19.99999999999999
    vertex -16.931851652578136 -2.9999999999999987 20.517638090205033
  endloop
endfacet
facet normal 0.0 -1.0 0.0
  outer loop
    vertex -20.0 -2.9999999999999987 24.99999999999999
    vertex -16.931851652578136 -2.9999999999999987 20.517638090205033
    vertex -16.732050807568875 -2.9999999999999987 20.99999999999999
  endloop
endfacet
facet normal 0.0 -1.0 0.0
  outer loop
    vertex -20.0 -2.9999999999999987 24.99999999999999
    vertex -16.732050807568875 -2.9999999999999987 20.99999999999999
    vertex -16.414213562373092 -2.9999999999999987 21.414213562373085
  endloop
endfacet
facet normal 0.0 -1.0 0.0
  outer loop
    vertex -20.0 -2.9999999999999987 24.99999999999999
    vertex -16.414213562373092 -2.9999999999999987 21.414213562373085
    vertex -15.999999999999998 -2.9999999999999987 21.732050807568864
  endloop
endfacet
facet normal 0.0 -1.0 0.0
  outer loop
    vertex -20.0 -2.9999999999999987 24.99999999999999
    vertex -15.999999999999998 -2.9999999999999987 21.732050807568864
    vertex -15.517638090205041 -2.9999999999999987 21.931851652578125
  endloop
endfacet
facet normal 0.0 -1.0 0.0
  outer loop
    vertex -20.0 -2.9999999999999987 24.99999999999999
    vertex -15.517638090205041 -2.9999999999999987 21.931851652578125
    vertex -15.0 -2.9999999999999987 21.99999999999999
  endloop
endfacet
facet normal 0.0 -1.0 0.0
  outer loop
    vertex -20.0 -2.9999999999999987 24.99999999999999
    vertex -15.0 -2.9999999999999987 21.99999999999999
    vertex 0.0 -2.9999999999999987 24.99999999999999
  endloop
endfacet
facet normal 0.0 -1.0 0.0
  outer loop
    vertex -5.517638090205042 -3.0000000000000115 18.068148347421854
    vertex -15.0 -2.9999999999999987 17.99999999999999
    vertex -5.0 -3.0000000000000115 17.99999999999999
  endloop
endfacet
facet normal 0.0 -1.0 0.0
  outer loop
    vertex -15.0 -2.9999999999999987 17.99999999999999
    vertex -5.517638090205042 -3.0000000000000115 18.068148347421854
    vertex -14.48236190979496 -2.9999999999999987 18.068148347421854
  endloop
endfacet
facet normal 0.0 -1.0 0.0
  outer loop
    vertex -14.48236190979496 -2.9999999999999987 18.068148347421854
    vertex -5.517638090205042 -3.0000000000000115 18.068148347421854
    vertex -6.0 -3.0000000000000115 18.267949192431114
  endloop
endfacet
facet normal 0.0 -1.0 0.0
  outer loop
    vertex -14.48236190979496 -2.9999999999999987 18.068148347421854
    vertex -6.0 -3.0000000000000115 18.267949192431114
    vertex -14.000000000000002 -2.9999999999999987 18.26794919243111
  endloop
endfacet
facet normal 0.0 -1.0 0.0
  outer loop
    vertex -14.000000000000002 -2.9999999999999987 18.26794919243111
    vertex -6.0 -3.0000000000000115 18.267949192431114
    vertex -13.585786437626908 -2.9999999999999987 18.585786437626894
  endloop
endfacet
facet normal 0.0 -1.0 0.0
  outer loop
    vertex -13.585786437626908 -2.9999999999999987 18.585786437626894
    vertex -6.0 -3.0000000000000115 18.267949192431114
    vertex -6.414213562373095 -3.0000000000000115 18.585786437626894
  endloop
endfacet
facet normal 0.0 -1.0 0.0
  outer loop
    vertex -13.585786437626908 -2.9999999999999987 18.585786437626894
    vertex -6.414213562373095 -3.0000000000000115 18.585786437626894
    vertex -6.732050807568878 -3.0000000000000115 18.99999999999999
  endloop
endfacet
facet normal 0.0 -1.0 0.0
  outer loop
    vertex -13.585786437626908 -2.9999999999999987 18.585786437626894
    vertex -6.732050807568878 -3.0000000000000115 18.99999999999999
    vertex -13.267949192431125 -2.9999999999999987 18.99999999999999
  endloop
endfacet
facet normal 0.0 -1.0 0.0
  outer loop
    vertex -13.267949192431125 -2.9999999999999987 18.99999999999999
    vertex -6.732050807568878 -3.0000000000000115 18.99999999999999
    vertex -6.931851652578136 -3.0000000000000115 19.482361909794946
  endloop
endfacet
facet normal 0.0 -1.0 0.0
  outer loop
    vertex -13.267949192431125 -2.9999999999999987 18.99999999999999
    vertex -6.931851652578136 -3.0000000000000115 19.482361909794946
    vertex -13.068148347421864 -2.9999999999999987 19.482361909794946
  endloop
endfacet
facet normal 0.0 -1.0 0.0
  outer loop
    vertex -13.068148347421864 -2.9999999999999987 19.482361909794946
    vertex -6.931851652578136 -3.0000000000000115 19.482361909794946
    vertex -7.0 -3.0000000000000115 19.99999999999999
  endloop
endfacet
facet normal 0.0 -1.0 0.0
  outer loop
    vertex -13.068148347421864 -2.9999999999999987 19.482361909794946
    vertex -7.0 -3.0000000000000115 19.99999999999999
    vertex -13.000000000000002 -2.9999999999999987 19.99999999999999
  endloop
endfacet
facet normal 0.0 -1.0 0.0
  outer loop
    vertex -13.000000000000002 -2.9999999999999987 19.99999999999999
    vertex -7.0 -3.0000000000000115 19.99999999999999
    vertex -6.931851652578135 -3.0000000000000115 20.517638090205033
  endloop
endfacet
facet normal 0.0 -1.0 0.0
  outer loop
    vertex -13.000000000000002 -2.9999999999999987 19.99999999999999
    vertex -6.931851652578135 -3.0000000000000115 20.517638090205033
    vertex -13.068148347421864 -2.9999999999999987 20.51763809020503
  endloop
endfacet
facet normal 0.0 -1.0 0.0
  outer loop
    vertex -13.068148347421864 -2.9999999999999987 20.51763809020503
    vertex -6.931851652578135 -3.0000000000000115 20.517638090205033
    vertex -13.267949192431125 -2.9999999999999987 20.999999999999986
  endloop
endfacet
facet normal 0.0 -1.0 0.0
  outer loop
    vertex -13.267949192431125 -2.9999999999999987 20.999999999999986
    vertex -6.931851652578135 -3.0000000000000115 20.517638090205033
    vertex -6.732050807568876 -3.0000000000000115 20.99999999999999
  endloop
endfacet
facet normal 0.0 -1.0 0.0
  outer loop
    vertex -13.267949192431125 -2.9999999999999987 20.999999999999986
    vertex -6.732050807568876 -3.0000000000000115 20.99999999999999
    vertex -13.585786437626904 -2.9999999999999987 21.414213562373085
  endloop
endfacet
facet normal 0.0 -1.0 0.0
  outer loop
    vertex -13.585786437626904 -2.9999999999999987 21.414213562373085
    vertex -6.732050807568876 -3.0000000000000115 20.99999999999999
    vertex -6.414213562373095 -3.0000000000000115 21.414213562373085
  endloop
endfacet
facet normal 0.0 -1.0 0.0
  outer loop
    vertex -13.585786437626904 -2.9999999999999987 21.414213562373085
    vertex -6.414213562373095 -3.0000000000000115 21.414213562373085
    vertex -5.999999999999998 -3.0000000000000115 21.732050807568868
  endloop
endfacet
facet normal 0.0 -1.0 0.0
  outer loop
    vertex -13.585786437626904 -2.9999999999999987 21.414213562373085
    vertex -5.999999999999998 -3.0000000000000115 21.732050807568868
    vertex -14.0 -2.9999999999999987 21.732050807568864
  endloop
endfacet
facet normal 0.0 -1.0 0.0
  outer loop
    vertex -14.0 -2.9999999999999987 21.732050807568864
    vertex -5.999999999999998 -3.0000000000000115 21.732050807568868
    vertex -14.482361909794959 -2.9999999999999987 21.931851652578125
  endloop
endfacet
facet normal 0.0 -1.0 0.0
  outer loop
    vertex -14.482361909794959 -2.9999999999999987 21.931851652578125
    vertex -5.999999999999998 -3.0000000000000115 21.732050807568868
    vertex -5.517638090205041 -3.0000000000000115 21.931851652578125
  endloop
endfacet
facet normal 0.0 -1.0 0.0
  outer loop
    vertex -14.482361909794959 -2.9999999999999987 21.931851652578125
    vertex -5.517638090205041 -3.0000000000000115 21.931851652578125
    vertex -4.999999999999999 -3.0000000000000115 21.99999999999999
  endloop
endfacet
facet normal 0.0 -1.0 0.0
  outer loop
    vertex -14.482361909794959 -2.9999999999999987 21.931851652578125
    vertex -4.999999999999999 -3.0000000000000115 21.99999999999999
    vertex -15.0 -2.9999999999999987 21.99999999999999
  endloop
endfacet
facet normal -0.0 0.0 1.0
  outer loop
    vertex 0.0 -5.999999999999999 4.999999999999991
    vertex -20.0 -2.9999999999999987 4.999999999999991
    vertex -20.0 -5.999999999999999 4.999999999999991
  endloop
endfacet
facet normal -0.0 0.0 1.0
  outer loop
    vertex -20.0 -2.9999999999999987 4.999999999999991
    vertex 0.0 -5.999999999999999 4.999999999999991
    vertex 0.0 -2.9999999999999987 4.999999999999991
  endloop
endfacet
facet normal 0.0 1.0 0.0
  outer loop
    vertex -20.0 -5.999999999999999 7.499999999999987
    vertex 0.0 -5.999999999999999 4.999999999999991
    vertex -20.0 -5.999999999999999 4.999999999999991
  endloop
endfacet
facet normal 0.0 1.0 0.0
  outer loop
    vertex 0.0 -5.999999999999999 4.999999999999991
    vertex -20.0 -5.999999999999999 7.499999999999987
    vertex 0.0 -5.999999999999999 7.499999999999987
  endloop
endfacet
facet normal -0.0 0.0 1.0
  outer loop
    vertex 0.0 -9.999999999999998 7.499999999999987
    vertex -20.0 -5.999999999999999 7.499999999999987
    vertex -20.0 -9.999999999999998 7.499999999999987
  endloop
endfacet
facet normal -0.0 0.0 1.0
  outer loop
    vertex -20.0 -5.999999999999999 7.499999999999987
    vertex 0.0 -9.999999999999998 7.499999999999987
    vertex 0.0 -5.999999999999999 7.499999999999987
  endloop
endfacet
facet normal 0.0 -1.0 0.0
  outer loop
    vertex 0.0 -9.999999999999998 7.499999999999987
    vertex -20.0 -9.999999999999998 0.0
    vertex 0.0 -9.999999999999998 0.0
  endloop
endfacet
facet normal 0.0 -1.0 0.0
  outer loop
    vertex -20.0 -9.999999999999998 0.0
    vertex 0.0 -9.999999999999998 7.499999999999987
    vertex -20.0 -9.999999999999998 7.499999999999987
  endloop
endfacet
facet normal 0.0 0.0 -1.0
  outer loop
    vertex 0.0 1.9999999999999998 0.0
    vertex -20.0 -9.999999999999998 0.0
    vertex -20.0 1.9999999999999998 0.0
  endloop
endfacet
facet normal 0.0 0.0 -1.0
  outer loop
    vertex -20.0 -9.999999999999998 0.0
    vertex 0.0 1.9999999999999998 0.0
    vertex 0.0 -9.999999999999998 0.0
  endloop
endfacet
facet normal 0.0 1.0 0.0
  outer loop
    vertex -20.0 1.9999999999999998 0.0
    vertex -16.414213562373096 1.9999999999999998 18.585786437626897
    vertex 0.0 1.9999999999999998 0.0
  endloop
endfacet
facet normal 0.0 1.0 0.0
  outer loop
    vertex -16.414213562373096 1.9999999999999998 18.585786437626897
    vertex -20.0 1.9999999999999998 0.0
    vertex -16.73205080756888 1.9999999999999998 18.99999999999999
  endloop
endfacet
facet normal 0.0 1.0 0.0
  outer loop
    vertex -16.73205080756888 1.9999999999999998 18.99999999999999
    vertex -20.0 1.9999999999999998 0.0
    vertex -20.0 1.9999999999999998 24.99999999999999
  endloop
endfacet
facet normal 0.0 1.0 0.0
  outer loop
    vertex 0.0 1.9999999999999998 0.0
    vertex -16.414213562373096 1.9999999999999998 18.585786437626897
    vertex -16.0 1.9999999999999998 18.267949192431114
  endloop
endfacet
facet normal 0.0 1.0 0.0
  outer loop
    vertex 0.0 1.9999999999999998 0.0
    vertex -16.0 1.9999999999999998 18.267949192431114
    vertex -15.517638090205043 1.9999999999999998 18.068148347421854
  endloop
endfacet
facet normal 0.0 1.0 0.0
  outer loop
    vertex 0.0 1.9999999999999998 0.0
    vertex -15.517638090205043 1.9999999999999998 18.068148347421854
    vertex -15.0 1.9999999999999998 17.99999999999999
  endloop
endfacet
facet normal 0.0 1.0 0.0
  outer loop
    vertex -16.73205080756888 1.9999999999999998 18.99999999999999
    vertex -20.0 1.9999999999999998 24.99999999999999
    vertex -16.931851652578136 1.9999999999999998 19.48236190979495
  endloop
endfacet
facet normal 0.0 1.0 0.0
  outer loop
    vertex -16.931851652578136 1.9999999999999998 19.48236190979495
    vertex -20.0 1.9999999999999998 24.99999999999999
    vertex -17.0 1.9999999999999998 19.99999999999999
  endloop
endfacet
facet normal 0.0 1.0 0.0
  outer loop
    vertex -17.0 1.9999999999999998 19.99999999999999
    vertex -20.0 1.9999999999999998 24.99999999999999
    vertex -16.931851652578136 1.9999999999999998 20.517638090205033
  endloop
endfacet
facet normal 0.0 1.0 0.0
  outer loop
    vertex -16.931851652578136 1.9999999999999998 20.517638090205033
    vertex -20.0 1.9999999999999998 24.99999999999999
    vertex -16.732050807568875 1.9999999999999998 20.99999999999999
  endloop
endfacet
facet normal 0.0 1.0 0.0
  outer loop
    vertex -16.732050807568875 1.9999999999999998 20.99999999999999
    vertex -20.0 1.9999999999999998 24.99999999999999
    vertex -16.414213562373092 1.9999999999999998 21.414213562373085
  endloop
endfacet
facet normal 0.0 1.0 0.0
  outer loop
    vertex -16.414213562373092 1.9999999999999998 21.414213562373085
    vertex -20.0 1.9999999999999998 24.99999999999999
    vertex -15.999999999999998 1.9999999999999998 21.732050807568864
  endloop
endfacet
facet normal 0.0 1.0 0.0
  outer loop
    vertex -15.999999999999998 1.9999999999999998 21.732050807568864
    vertex -20.0 1.9999999999999998 24.99999999999999
    vertex -15.517638090205041 1.9999999999999998 21.931851652578125
  endloop
endfacet
facet normal 0.0 1.0 0.0
  outer loop
    vertex -15.517638090205041 1.9999999999999998 21.931851652578125
    vertex -20.0 1.9999999999999998 24.99999999999999
    vertex -15.0 1.9999999999999998 21.99999999999999
  endloop
endfacet
facet normal 0.0 1.0 0.0
  outer loop
    vertex -15.0 1.9999999999999998 21.99999999999999
    vertex -20.0 1.9999999999999998 24.99999999999999
    vertex -4.999999999999999 1.9999999999999998 21.99999999999999
  endloop
endfacet
facet normal 0.0 1.0 0.0
  outer loop
    vertex 0.0 1.9999999999999998 0.0
    vertex -3.2679491924311237 1.9999999999999998 18.99999999999999
    vertex 0.0 1.9999999999999998 24.99999999999999
  endloop
endfacet
facet normal 0.0 1.0 0.0
  outer loop
    vertex -3.2679491924311237 1.9999999999999998 18.99999999999999
    vertex 0.0 1.9999999999999998 0.0
    vertex -3.585786437626905 1.9999999999999998 18.585786437626894
  endloop
endfacet
facet normal 0.0 1.0 0.0
  outer loop
    vertex -3.585786437626905 1.9999999999999998 18.585786437626894
    vertex 0.0 1.9999999999999998 0.0
    vertex -4.000000000000001 1.9999999999999998 18.26794919243111
  endloop
endfacet
facet normal 0.0 1.0 0.0
  outer loop
    vertex -4.000000000000001 1.9999999999999998 18.26794919243111
    vertex 0.0 1.9999999999999998 0.0
    vertex -4.4823619097949585 1.9999999999999998 18.068148347421854
  endloop
endfacet
facet normal 0.0 1.0 0.0
  outer loop
    vertex -4.4823619097949585 1.9999999999999998 18.068148347421854
    vertex 0.0 1.9999999999999998 0.0
    vertex -5.0 1.9999999999999998 17.99999999999999
  endloop
endfacet
facet normal 0.0 1.0 0.0
  outer loop
    vertex -5.0 1.9999999999999998 17.99999999999999
    vertex 0.0 1.9999999999999998 0.0
    vertex -15.0 1.9999999999999998 17.99999999999999
  endloop
endfacet
facet normal 0.0 1.0 0.0
  outer loop
    vertex 0.0 1.9999999999999998 24.99999999999999
    vertex -3.2679491924311237 1.9999999999999998 18.99999999999999
    vertex -3.068148347421864 1.9999999999999998 19.482361909794946
  endloop
endfacet
facet normal 0.0 1.0 0.0
  outer loop
    vertex 0.0 1.9999999999999998 24.99999999999999
    vertex -3.068148347421864 1.9999999999999998 19.482361909794946
    vertex -3.0000000000000004 1.9999999999999998 19.99999999999999
  endloop
endfacet
facet normal 0.0 1.0 0.0
  outer loop
    vertex 0.0 1.9999999999999998 24.99999999999999
    vertex -3.0000000000000004 1.9999999999999998 19.99999999999999
    vertex -3.0681483474218636 1.9999999999999998 20.51763809020503
  endloop
endfacet
facet normal 0.0 1.0 0.0
  outer loop
    vertex 0.0 1.9999999999999998 24.99999999999999
    vertex -3.0681483474218636 1.9999999999999998 20.51763809020503
    vertex -3.2679491924311224 1.9999999999999998 20.999999999999986
  endloop
endfacet
facet normal 0.0 1.0 0.0
  outer loop
    vertex 0.0 1.9999999999999998 24.99999999999999
    vertex -3.2679491924311224 1.9999999999999998 20.999999999999986
    vertex -3.585786437626904 1.9999999999999998 21.41421356237308
  endloop
endfacet
facet normal 0.0 1.0 0.0
  outer loop
    vertex 0.0 1.9999999999999998 24.99999999999999
    vertex -3.585786437626904 1.9999999999999998 21.41421356237308
    vertex -3.9999999999999996 1.9999999999999998 21.732050807568864
  endloop
endfacet
facet normal 0.0 1.0 0.0
  outer loop
    vertex 0.0 1.9999999999999998 24.99999999999999
    vertex -3.9999999999999996 1.9999999999999998 21.732050807568864
    vertex -4.482361909794958 1.9999999999999998 21.931851652578125
  endloop
endfacet
facet normal 0.0 1.0 0.0
  outer loop
    vertex 0.0 1.9999999999999998 24.99999999999999
    vertex -4.482361909794958 1.9999999999999998 21.931851652578125
    vertex -4.999999999999999 1.9999999999999998 21.99999999999999
  endloop
endfacet
facet normal 0.0 1.0 0.0
  outer loop
    vertex 0.0 1.9999999999999998 24.99999999999999
    vertex -4.999999999999999 1.9999999999999998 21.99999999999999
    vertex -20.0 1.9999999999999998 24.99999999999999
  endloop
endfacet
facet normal 0.0 1.0 0.0
  outer loop
    vertex -14.48236190979496 1.9999999999999998 18.068148347421854
    vertex -5.0 1.9999999999999998 17.99999999999999
    vertex -15.0 1.9999999999999998 17.99999999999999
  endloop
endfacet
facet normal 0.0 1.0 0.0
  outer loop
    vertex -5.0 1.9999999999999998 17.99999999999999
    vertex -14.48236190979496 1.9999999999999998 18.068148347421854
    vertex -5.517638090205042 1.9999999999999998 18.068148347421854
  endloop
endfacet
facet normal 0.0 1.0 0.0
  outer loop
    vertex -5.517638090205042 1.9999999999999998 18.068148347421854
    vertex -14.48236190979496 1.9999999999999998 18.068148347421854
    vertex -14.000000000000002 1.9999999999999998 18.26794919243111
  endloop
endfacet
facet normal 0.0 1.0 0.0
  outer loop
    vertex -5.517638090205042 1.9999999999999998 18.068148347421854
    vertex -14.000000000000002 1.9999999999999998 18.26794919243111
    vertex -6.0 1.9999999999999998 18.267949192431114
  endloop
endfacet
facet normal 0.0 1.0 0.0
  outer loop
    vertex -6.0 1.9999999999999998 18.267949192431114
    vertex -14.000000000000002 1.9999999999999998 18.26794919243111
    vertex -13.585786437626908 1.9999999999999998 18.585786437626894
  endloop
endfacet
facet normal 0.0 1.0 0.0
  outer loop
    vertex -6.0 1.9999999999999998 18.267949192431114
    vertex -13.585786437626908 1.9999999999999998 18.585786437626894
    vertex -6.414213562373095 1.9999999999999998 18.585786437626894
  endloop
endfacet
facet normal 0.0 1.0 0.0
  outer loop
    vertex -6.414213562373095 1.9999999999999998 18.585786437626894
    vertex -13.585786437626908 1.9999999999999998 18.585786437626894
    vertex -13.267949192431125 1.9999999999999998 18.99999999999999
  endloop
endfacet
facet normal 0.0 1.0 0.0
  outer loop
    vertex -6.414213562373095 1.9999999999999998 18.585786437626894
    vertex -13.267949192431125 1.9999999999999998 18.99999999999999
    vertex -6.732050807568878 1.9999999999999998 18.99999999999999
  endloop
endfacet
facet normal 0.0 1.0 0.0
  outer loop
    vertex -6.732050807568878 1.9999999999999998 18.99999999999999
    vertex -13.267949192431125 1.9999999999999998 18.99999999999999
    vertex -13.068148347421864 1.9999999999999998 19.482361909794946
  endloop
endfacet
facet normal 0.0 1.0 0.0
  outer loop
    vertex -6.732050807568878 1.9999999999999998 18.99999999999999
    vertex -13.068148347421864 1.9999999999999998 19.482361909794946
    vertex -6.931851652578136 1.9999999999999998 19.482361909794946
  endloop
endfacet
facet normal 0.0 1.0 0.0
  outer loop
    vertex -6.931851652578136 1.9999999999999998 19.482361909794946
    vertex -13.068148347421864 1.9999999999999998 19.482361909794946
    vertex -13.000000000000002 1.9999999999999998 19.99999999999999
  endloop
endfacet
facet normal 0.0 1.0 0.0
  outer loop
    vertex -6.931851652578136 1.9999999999999998 19.482361909794946
    vertex -13.000000000000002 1.9999999999999998 19.99999999999999
    vertex -7.0 1.9999999999999998 19.99999999999999
  endloop
endfacet
facet normal 0.0 1.0 0.0
  outer loop
    vertex -7.0 1.9999999999999998 19.99999999999999
    vertex -13.000000000000002 1.9999999999999998 19.99999999999999
    vertex -13.068148347421864 1.9999999999999998 20.51763809020503
  endloop
endfacet
facet normal 0.0 1.0 0.0
  outer loop
    vertex -7.0 1.9999999999999998 19.99999999999999
    vertex -13.068148347421864 1.9999999999999998 20.51763809020503
    vertex -6.931851652578135 1.9999999999999998 20.517638090205033
  endloop
endfacet
facet normal 0.0 1.0 0.0
  outer loop
    vertex -6.931851652578135 1.9999999999999998 20.517638090205033
    vertex -13.068148347421864 1.9999999999999998 20.51763809020503
    vertex -13.267949192431125 1.9999999999999998 20.999999999999986
  endloop
endfacet
facet normal 0.0 1.0 0.0
  outer loop
    vertex -6.931851652578135 1.9999999999999998 20.517638090205033
    vertex -13.267949192431125 1.9999999999999998 20.999999999999986
    vertex -6.732050807568876 1.9999999999999998 20.99999999999999
  endloop
endfacet
facet normal 0.0 1.0 0.0
  outer loop
    vertex -6.732050807568876 1.9999999999999998 20.99999999999999
    vertex -13.267949192431125 1.9999999999999998 20.999999999999986
    vertex -13.585786437626904 1.9999999999999998 21.414213562373085
  endloop
endfacet
facet normal 0.0 1.0 0.0
  outer loop
    vertex -6.732050807568876 1.9999999999999998 20.99999999999999
    vertex -13.585786437626904 1.9999999999999998 21.414213562373085
    vertex -6.414213562373095 1.9999999999999998 21.414213562373085
  endloop
endfacet
facet normal 0.0 1.0 0.0
  outer loop
    vertex -6.414213562373095 1.9999999999999998 21.414213562373085
    vertex -13.585786437626904 1.9999999999999998 21.414213562373085
    vertex -14.0 1.9999999999999998 21.732050807568864
  endloop
endfacet
facet normal 0.0 1.0 0.0
  outer loop
    vertex -6.414213562373095 1.9999999999999998 21.414213562373085
    vertex -14.0 1.9999999999999998 21.732050807568864
    vertex -5.999999999999998 1.9999999999999998 21.732050807568868
  endloop
endfacet
facet normal 0.0 1.0 0.0
  outer loop
    vertex -5.999999999999998 1.9999999999999998 21.732050807568868
    vertex -14.0 1.9999999999999998 21.732050807568864
    vertex -14.482361909794959 1.9999999999999998 21.931851652578125
  endloop
endfacet
facet normal 0.0 1.0 0.0
  outer loop
    vertex -5.999999999999998 1.9999999999999998 21.732050807568868
    vertex -14.482361909794959 1.9999999999999998 21.931851652578125
    vertex -5.517638090205041 1.9999999999999998 21.931851652578125
  endloop
endfacet
facet normal 0.0 1.0 0.0
  outer loop
    vertex -5.517638090205041 1.9999999999999998 21.931851652578125
    vertex -14.482361909794959 1.9999999999999998 21.931851652578125
    vertex -15.0 1.9999999999999998 21.99999999999999
  endloop
endfacet
facet normal 0.0 1.0 0.0
  outer loop
    vertex -5.517638090205041 1.9999999999999998 21.931851652578125
    vertex -15.0 1.9999999999999998 21.99999999999999
    vertex -4.999999999999999 1.9999999999999998 21.99999999999999
  endloop
endfacet
facet normal -0.0 0.0 1.0
  outer loop
    vertex 0.0 -2.9999999999999987 24.99999999999999
    vertex -20.0 1.9999999999999998 24.99999999999999
    vertex -20.0 -2.9999999999999987 24.99999999999999
  endloop
endfacet
facet normal -0.0 0.0 1.0
  outer loop
    vertex -20.0 1.9999999999999998 24.99999999999999
    vertex 0.0 -2.9999999999999987 24.99999999999999
    vertex 0.0 1.9999999999999998 24.99999999999999
  endloop
endfacet
facet normal 0.9914448613738105 0.0 0.13052619222005143
  outer loop
    vertex -6.931851652578136 1.9999999999999998 19.482361909794946
    vertex -7.0 -3.0000000000000115 19.99999999999999
    vertex -6.931851652578136 -3.0000000000000115 19.482361909794946
  endloop
endfacet
facet normal 0.9914448613738105 0.0 0.13052619222005143
  outer loop
    vertex -7.0 -3.0000000000000115 19.99999999999999
    vertex -6.931851652578136 1.9999999999999998 19.482361909794946
    vertex -7.0 1.9999999999999998 19.99999999999999
  endloop
endfacet
facet normal 0.99144486137381 -0.0 -0.1305261922200541
  outer loop
    vertex -7.0 1.9999999999999998 19.99999999999999
    vertex -6.931851652578135 -3.0000000000000115 20.517638090205033
    vertex -7.0 -3.0000000000000115 19.99999999999999
  endloop
endfacet
facet normal 0.99144486137381 -0.0 -0.1305261922200541
  outer loop
    vertex -6.931851652578135 -3.0000000000000115 20.517638090205033
    vertex -7.0 1.9999999999999998 19.99999999999999
    vertex -6.931851652578135 1.9999999999999998 20.517638090205033
  endloop
endfacet
facet normal 0.9238795325112871 -0.0 -0.38268343236508895
  outer loop
    vertex -6.931851652578135 1.9999999999999998 20.517638090205033
    vertex -6.732050807568876 -3.0000000000000115 20.99999999999999
    vertex -6.931851652578135 -3.0000000000000115 20.517638090205033
  endloop
endfacet
facet normal 0.9238795325112871 -0.0 -0.38268343236508895
  outer loop
    vertex -6.732050807568876 -3.0000000000000115 20.99999999999999
    vertex -6.931851652578135 1.9999999999999998 20.517638090205033
    vertex -6.732050807568876 1.9999999999999998 20.99999999999999
  endloop
endfacet
facet normal 0.7933533402912359 -0.0 -0.6087614290087197
  outer loop
    vertex -6.732050807568876 1.9999999999999998 20.99999999999999
    vertex -6.414213562373095 -3.0000000000000115 21.414213562373085
    vertex -6.732050807568876 -3.0000000000000115 20.99999999999999
  endloop
endfacet
facet normal 0.7933533402912359 -0.0 -0.6087614290087197
  outer loop
    vertex -6.414213562373095 -3.0000000000000115 21.414213562373085
    vertex -6.732050807568876 1.9999999999999998 20.99999999999999
    vertex -6.414213562373095 1.9999999999999998 21.414213562373085
  endloop
endfacet
facet normal 0.6087614290087194 -0.0 -0.7933533402912362
  outer loop
    vertex -5.999999999999998 1.9999999999999998 21.732050807568868
    vertex -6.414213562373095 -3.0000000000000115 21.414213562373085
    vertex -6.414213562373095 1.9999999999999998 21.414213562373085
  endloop
endfacet
facet normal 0.6087614290087194 -0.0 -0.7933533402912362
  outer loop
    vertex -6.414213562373095 -3.0000000000000115 21.414213562373085
    vertex -5.999999999999998 1.9999999999999998 21.732050807568868
    vertex -5.999999999999998 -3.0000000000000115 21.732050807568868
  endloop
endfacet
facet normal 0.38268343236508723 -0.0 -0.923879532511288
  outer loop
    vertex -5.517638090205041 1.9999999999999998 21.931851652578125
    vertex -5.999999999999998 -3.0000000000000115 21.732050807568868
    vertex -5.999999999999998 1.9999999999999998 21.732050807568868
  endloop
endfacet
facet normal 0.38268343236508723 -0.0 -0.923879532511288
  outer loop
    vertex -5.999999999999998 -3.0000000000000115 21.732050807568868
    vertex -5.517638090205041 1.9999999999999998 21.931851652578125
    vertex -5.517638090205041 -3.0000000000000115 21.931851652578125
  endloop
endfacet
facet normal 0.1305261922200518 -0.0 -0.9914448613738104
  outer loop
    vertex -4.999999999999999 1.9999999999999998 21.99999999999999
    vertex -5.517638090205041 -3.0000000000000115 21.931851652578125
    vertex -5.517638090205041 1.9999999999999998 21.931851652578125
  endloop
endfacet
facet normal 0.1305261922200518 -0.0 -0.9914448613738104
  outer loop
    vertex -5.517638090205041 -3.0000000000000115 21.931851652578125
    vertex -4.999999999999999 1.9999999999999998 21.99999999999999
    vertex -4.999999999999999 -3.0000000000000115 21.99999999999999
  endloop
endfacet
facet normal -0.13052619222005163 -0.0 -0.9914448613738104
  outer loop
    vertex -4.482361909794958 1.9999999999999998 21.931851652578125
    vertex -4.999999999999999 -3.0000000000000115 21.99999999999999
    vertex -4.999999999999999 1.9999999999999998 21.99999999999999
  endloop
endfacet
facet normal -0.13052619222005163 -0.0 -0.9914448613738104
  outer loop
    vertex -4.999999999999999 -3.0000000000000115 21.99999999999999
    vertex -4.482361909794958 1.9999999999999998 21.931851652578125
    vertex -4.482361909794958 -3.0000000000000115 21.931851652578125
  endloop
endfacet
facet normal -0.3826834323650917 -0.0 -0.9238795325112859
  outer loop
    vertex -3.9999999999999996 1.9999999999999998 21.732050807568864
    vertex -4.482361909794958 -3.0000000000000115 21.931851652578125
    vertex -4.482361909794958 1.9999999999999998 21.931851652578125
  endloop
endfacet
facet normal -0.3826834323650917 -0.0 -0.9238795325112859
  outer loop
    vertex -4.482361909794958 -3.0000000000000115 21.931851652578125
    vertex -3.9999999999999996 1.9999999999999998 21.732050807568864
    vertex -3.9999999999999996 -3.0000000000000115 21.732050807568864
  endloop
endfacet
facet normal -0.6087614290087207 -0.0 -0.793353340291235
  outer loop
    vertex -3.585786437626904 1.9999999999999998 21.41421356237308
    vertex -3.9999999999999996 -3.0000000000000115 21.732050807568864
    vertex -3.9999999999999996 1.9999999999999998 21.732050807568864
  endloop
endfacet
facet normal -0.6087614290087207 -0.0 -0.793353340291235
  outer loop
    vertex -3.9999999999999996 -3.0000000000000115 21.732050807568864
    vertex -3.585786437626904 1.9999999999999998 21.41421356237308
    vertex -3.585786437626904 -3.0000000000000115 21.41421356237308
  endloop
endfacet
facet normal -0.7933533402912354 -0.0 -0.6087614290087205
  outer loop
    vertex -3.585786437626904 1.9999999999999998 21.41421356237308
    vertex -3.2679491924311224 -3.0000000000000115 20.999999999999986
    vertex -3.585786437626904 -3.0000000000000115 21.41421356237308
  endloop
endfacet
facet normal -0.7933533402912354 -0.0 -0.6087614290087205
  outer loop
    vertex -3.2679491924311224 -3.0000000000000115 20.999999999999986
    vertex -3.585786437626904 1.9999999999999998 21.41421356237308
    vertex -3.2679491924311224 1.9999999999999998 20.999999999999986
  endloop
endfacet
facet normal -0.9238795325112871 -0.0 -0.38268343236508895
  outer loop
    vertex -3.2679491924311224 1.9999999999999998 20.999999999999986
    vertex -3.0681483474218636 -3.0000000000000115 20.51763809020503
    vertex -3.2679491924311224 -3.0000000000000115 20.999999999999986
  endloop
endfacet
facet normal -0.9238795325112871 -0.0 -0.38268343236508895
  outer loop
    vertex -3.0681483474218636 -3.0000000000000115 20.51763809020503
    vertex -3.2679491924311224 1.9999999999999998 20.999999999999986
    vertex -3.0681483474218636 1.9999999999999998 20.51763809020503
  endloop
endfacet
facet normal -0.9914448613738106 -0.0 -0.13052619222005152
  outer loop
    vertex -3.0681483474218636 1.9999999999999998 20.51763809020503
    vertex -3.0000000000000004 -3.0000000000000115 19.99999999999999
    vertex -3.0681483474218636 -3.0000000000000115 20.51763809020503
  endloop
endfacet
facet normal -0.9914448613738106 -0.0 -0.13052619222005152
  outer loop
    vertex -3.0000000000000004 -3.0000000000000115 19.99999999999999
    vertex -3.0681483474218636 1.9999999999999998 20.51763809020503
    vertex -3.0000000000000004 1.9999999999999998 19.99999999999999
  endloop
endfacet
facet normal -0.9914448613738105 -0.0 0.13052619222005143
  outer loop
    vertex -3.0000000000000004 1.9999999999999998 19.99999999999999
    vertex -3.068148347421864 -3.0000000000000115 19.482361909794946
    vertex -3.0000000000000004 -3.0000000000000115 19.99999999999999
  endloop
endfacet
facet normal -0.9914448613738105 -0.0 0.13052619222005143
  outer loop
    vertex -3.068148347421864 -3.0000000000000115 19.482361909794946
    vertex -3.0000000000000004 1.9999999999999998 19.99999999999999
    vertex -3.068148347421864 1.9999999999999998 19.482361909794946
  endloop
endfacet
facet normal -0.9238795325112864 -0.0 0.3826834323650908
  outer loop
    vertex -3.068148347421864 1.9999999999999998 19.482361909794946
    vertex -3.2679491924311237 -3.0000000000000115 18.99999999999999
    vertex -3.068148347421864 -3.0000000000000115 19.482361909794946
  endloop
endfacet
facet normal -0.9238795325112864 -0.0 0.3826834323650908
  outer loop
    vertex -3.2679491924311237 -3.0000000000000115 18.99999999999999
    vertex -3.068148347421864 1.9999999999999998 19.482361909794946
    vertex -3.2679491924311237 1.9999999999999998 18.99999999999999
  endloop
endfacet
facet normal -0.7933533402912359 -0.0 0.6087614290087197
  outer loop
    vertex -3.2679491924311237 1.9999999999999998 18.99999999999999
    vertex -3.585786437626905 -3.0000000000000115 18.585786437626894
    vertex -3.2679491924311237 -3.0000000000000115 18.99999999999999
  endloop
endfacet
facet normal -0.7933533402912359 -0.0 0.6087614290087197
  outer loop
    vertex -3.585786437626905 -3.0000000000000115 18.585786437626894
    vertex -3.2679491924311237 1.9999999999999998 18.99999999999999
    vertex -3.585786437626905 1.9999999999999998 18.585786437626894
  endloop
endfacet
facet normal -0.6087614290087201 -0.0 0.7933533402912358
  outer loop
    vertex -3.585786437626905 -3.0000000000000115 18.585786437626894
    vertex -4.000000000000001 1.9999999999999998 18.26794919243111
    vertex -4.000000000000001 -3.0000000000000115 18.26794919243111
  endloop
endfacet
facet normal -0.6087614290087201 -0.0 0.7933533402912358
  outer loop
    vertex -4.000000000000001 1.9999999999999998 18.26794919243111
    vertex -3.585786437626905 -3.0000000000000115 18.585786437626894
    vertex -3.585786437626905 1.9999999999999998 18.585786437626894
  endloop
endfacet
facet normal -0.38268343236508723 -0.0 0.923879532511288
  outer loop
    vertex -4.000000000000001 -3.0000000000000115 18.26794919243111
    vertex -4.4823619097949585 1.9999999999999998 18.068148347421854
    vertex -4.4823619097949585 -3.0000000000000115 18.068148347421854
  endloop
endfacet
facet normal -0.38268343236508723 -0.0 0.923879532511288
  outer loop
    vertex -4.4823619097949585 1.9999999999999998 18.068148347421854
    vertex -4.000000000000001 -3.0000000000000115 18.26794919243111
    vertex -4.000000000000001 1.9999999999999998 18.26794919243111
  endloop
endfacet
facet normal -0.1305261922200518 -0.0 0.9914448613738104
  outer loop
    vertex -4.4823619097949585 -3.0000000000000115 18.068148347421854
    vertex -5.0 1.9999999999999998 17.99999999999999
    vertex -5.0 -3.0000000000000115 17.99999999999999
  endloop
endfacet
facet normal -0.1305261922200518 -0.0 0.9914448613738104
  outer loop
    vertex -5.0 1.9999999999999998 17.99999999999999
    vertex -4.4823619097949585 -3.0000000000000115 18.068148347421854
    vertex -4.4823619097949585 1.9999999999999998 18.068148347421854
  endloop
endfacet
facet normal 0.13052619222005163 0.0 0.9914448613738104
  outer loop
    vertex -5.0 -3.0000000000000115 17.99999999999999
    vertex -5.517638090205042 1.9999999999999998 18.068148347421854
    vertex -5.517638090205042 -3.0000000000000115 18.068148347421854
  endloop
endfacet
facet normal 0.13052619222005163 0.0 0.9914448613738104
  outer loop
    vertex -5.517638090205042 1.9999999999999998 18.068148347421854
    vertex -5.0 -3.0000000000000115 17.99999999999999
    vertex -5.0 1.9999999999999998 17.99999999999999
  endloop
endfacet
facet normal 0.3826834323650914 0.0 0.9238795325112863
  outer loop
    vertex -5.517638090205042 -3.0000000000000115 18.068148347421854
    vertex -6.0 1.9999999999999998 18.267949192431114
    vertex -6.0 -3.0000000000000115 18.267949192431114
  endloop
endfacet
facet normal 0.3826834323650914 0.0 0.9238795325112863
  outer loop
    vertex -6.0 1.9999999999999998 18.267949192431114
    vertex -5.517638090205042 -3.0000000000000115 18.068148347421854
    vertex -5.517638090205042 1.9999999999999998 18.068148347421854
  endloop
endfacet
facet normal 0.6087614290087179 0.0 0.7933533402912372
  outer loop
    vertex -6.0 -3.0000000000000115 18.267949192431114
    vertex -6.414213562373095 1.9999999999999998 18.585786437626894
    vertex -6.414213562373095 -3.0000000000000115 18.585786437626894
  endloop
endfacet
facet normal 0.6087614290087179 0.0 0.7933533402912372
  outer loop
    vertex -6.414213562373095 1.9999999999999998 18.585786437626894
    vertex -6.0 -3.0000000000000115 18.267949192431114
    vertex -6.0 1.9999999999999998 18.267949192431114
  endloop
endfacet
facet normal 0.7933533402912347 0.0 0.6087614290087213
  outer loop
    vertex -6.414213562373095 1.9999999999999998 18.585786437626894
    vertex -6.732050807568878 -3.0000000000000115 18.99999999999999
    vertex -6.414213562373095 -3.0000000000000115 18.585786437626894
  endloop
endfacet
facet normal 0.7933533402912347 0.0 0.6087614290087213
  outer loop
    vertex -6.732050807568878 -3.0000000000000115 18.99999999999999
    vertex -6.414213562373095 1.9999999999999998 18.585786437626894
    vertex -6.732050807568878 1.9999999999999998 18.99999999999999
  endloop
endfacet
facet normal 0.9238795325112871 0.0 0.38268343236508895
  outer loop
    vertex -6.732050807568878 1.9999999999999998 18.99999999999999
    vertex -6.931851652578136 -3.0000000000000115 19.482361909794946
    vertex -6.732050807568878 -3.0000000000000115 18.99999999999999
  endloop
endfacet
facet normal 0.9238795325112871 0.0 0.38268343236508895
  outer loop
    vertex -6.931851652578136 -3.0000000000000115 19.482361909794946
    vertex -6.732050807568878 1.9999999999999998 18.99999999999999
    vertex -6.931851652578136 1.9999999999999998 19.482361909794946
  endloop
endfacet
facet normal 0.3826834323650914 0.0 0.9238795325112863
  outer loop
    vertex -15.517638090205043 -2.9999999999999987 18.068148347421854
    vertex -16.0 1.9999999999999998 18.267949192431114
    vertex -16.0 -2.9999999999999987 18.267949192431114
  endloop
endfacet
facet normal 0.3826834323650914 0.0 0.9238795325112863
  outer loop
    vertex -16.0 1.9999999999999998 18.267949192431114
    vertex -15.517638090205043 -2.9999999999999987 18.068148347421854
    vertex -15.517638090205043 1.9999999999999998 18.068148347421854
  endloop
endfacet
facet normal 0.6087614290087213 0.0 0.7933533402912347
  outer loop
    vertex -16.0 -2.9999999999999987 18.267949192431114
    vertex -16.414213562373096 1.9999999999999998 18.585786437626897
    vertex -16.414213562373096 -2.9999999999999987 18.585786437626897
  endloop
endfacet
facet normal 0.6087614290087213 0.0 0.7933533402912347
  outer loop
    vertex -16.414213562373096 1.9999999999999998 18.585786437626897
    vertex -16.0 -2.9999999999999987 18.267949192431114
    vertex -16.0 1.9999999999999998 18.267949192431114
  endloop
endfacet
facet normal 0.7933533402912347 0.0 0.6087614290087213
  outer loop
    vertex -16.414213562373096 1.9999999999999998 18.585786437626897
    vertex -16.73205080756888 -2.9999999999999987 18.99999999999999
    vertex -16.414213562373096 -2.9999999999999987 18.585786437626897
  endloop
endfacet
facet normal 0.7933533402912347 0.0 0.6087614290087213
  outer loop
    vertex -16.73205080756888 -2.9999999999999987 18.99999999999999
    vertex -16.414213562373096 1.9999999999999998 18.585786437626897
    vertex -16.73205080756888 1.9999999999999998 18.99999999999999
  endloop
endfacet
facet normal 0.9238795325112881 0.0 0.3826834323650867
  outer loop
    vertex -16.73205080756888 1.9999999999999998 18.99999999999999
    vertex -16.931851652578136 -2.9999999999999987 19.48236190979495
    vertex -16.73205080756888 -2.9999999999999987 18.99999999999999
  endloop
endfacet
facet normal 0.9238795325112881 0.0 0.3826834323650867
  outer loop
    vertex -16.931851652578136 -2.9999999999999987 19.48236190979495
    vertex -16.73205080756888 1.9999999999999998 18.99999999999999
    vertex -16.931851652578136 1.9999999999999998 19.48236190979495
  endloop
endfacet
facet normal 0.9914448613738104 0.0 0.13052619222005216
  outer loop
    vertex -16.931851652578136 1.9999999999999998 19.48236190979495
    vertex -17.0 -2.9999999999999987 19.99999999999999
    vertex -16.931851652578136 -2.9999999999999987 19.48236190979495
  endloop
endfacet
facet normal 0.9914448613738104 0.0 0.13052619222005216
  outer loop
    vertex -17.0 -2.9999999999999987 19.99999999999999
    vertex -16.931851652578136 1.9999999999999998 19.48236190979495
    vertex -17.0 1.9999999999999998 19.99999999999999
  endloop
endfacet
facet normal 0.9914448613738105 -0.0 -0.13052619222005143
  outer loop
    vertex -17.0 1.9999999999999998 19.99999999999999
    vertex -16.931851652578136 -2.9999999999999987 20.517638090205033
    vertex -17.0 -2.9999999999999987 19.99999999999999
  endloop
endfacet
facet normal 0.9914448613738105 -0.0 -0.13052619222005143
  outer loop
    vertex -16.931851652578136 -2.9999999999999987 20.517638090205033
    vertex -17.0 1.9999999999999998 19.99999999999999
    vertex -16.931851652578136 1.9999999999999998 20.517638090205033
  endloop
endfacet
facet normal 0.9238795325112863 -0.0 -0.3826834323650914
  outer loop
    vertex -16.931851652578136 1.9999999999999998 20.517638090205033
    vertex -16.732050807568875 -2.9999999999999987 20.99999999999999
    vertex -16.931851652578136 -2.9999999999999987 20.517638090205033
  endloop
endfacet
facet normal 0.9238795325112863 -0.0 -0.3826834323650914
  outer loop
    vertex -16.732050807568875 -2.9999999999999987 20.99999999999999
    vertex -16.931851652578136 1.9999999999999998 20.517638090205033
    vertex -16.732050807568875 1.9999999999999998 20.99999999999999
  endloop
endfacet
facet normal 0.7933533402912347 -0.0 -0.6087614290087213
  outer loop
    vertex -16.732050807568875 1.9999999999999998 20.99999999999999
    vertex -16.414213562373092 -2.9999999999999987 21.414213562373085
    vertex -16.732050807568875 -2.9999999999999987 20.99999999999999
  endloop
endfacet
facet normal 0.7933533402912347 -0.0 -0.6087614290087213
  outer loop
    vertex -16.414213562373092 -2.9999999999999987 21.414213562373085
    vertex -16.732050807568875 1.9999999999999998 20.99999999999999
    vertex -16.414213562373092 1.9999999999999998 21.414213562373085
  endloop
endfacet
facet normal 0.6087614290087179 -0.0 -0.7933533402912372
  outer loop
    vertex -15.999999999999998 1.9999999999999998 21.732050807568864
    vertex -16.414213562373092 -2.9999999999999987 21.414213562373085
    vertex -16.414213562373092 1.9999999999999998 21.414213562373085
  endloop
endfacet
facet normal 0.6087614290087179 -0.0 -0.7933533402912372
  outer loop
    vertex -16.414213562373092 -2.9999999999999987 21.414213562373085
    vertex -15.999999999999998 1.9999999999999998 21.732050807568864
    vertex -15.999999999999998 -2.9999999999999987 21.732050807568864
  endloop
endfacet
facet normal 0.3826834323650914 -0.0 -0.9238795325112863
  outer loop
    vertex -15.517638090205041 1.9999999999999998 21.931851652578125
    vertex -15.999999999999998 -2.9999999999999987 21.732050807568864
    vertex -15.999999999999998 1.9999999999999998 21.732050807568864
  endloop
endfacet
facet normal 0.3826834323650914 -0.0 -0.9238795325112863
  outer loop
    vertex -15.999999999999998 -2.9999999999999987 21.732050807568864
    vertex -15.517638090205041 1.9999999999999998 21.931851652578125
    vertex -15.517638090205041 -2.9999999999999987 21.931851652578125
  endloop
endfacet
facet normal 0.13052619222005216 -0.0 -0.9914448613738104
  outer loop
    vertex -15.0 1.9999999999999998 21.99999999999999
    vertex -15.517638090205041 -2.9999999999999987 21.931851652578125
    vertex -15.517638090205041 1.9999999999999998 21.931851652578125
  endloop
endfacet
facet normal 0.13052619222005216 -0.0 -0.9914448613738104
  outer loop
    vertex -15.517638090205041 -2.9999999999999987 21.931851652578125
    vertex -15.0 1.9999999999999998 21.99999999999999
    vertex -15.0 -2.9999999999999987 21.99999999999999
  endloop
endfacet
facet normal -0.13052619222005143 -0.0 -0.9914448613738105
  outer loop
    vertex -14.482361909794959 1.9999999999999998 21.931851652578125
    vertex -15.0 -2.9999999999999987 21.99999999999999
    vertex -15.0 1.9999999999999998 21.99999999999999
  endloop
endfacet
facet normal -0.13052619222005143 -0.0 -0.9914448613738105
  outer loop
    vertex -15.0 -2.9999999999999987 21.99999999999999
    vertex -14.482361909794959 1.9999999999999998 21.931851652578125
    vertex -14.482361909794959 -2.9999999999999987 21.931851652578125
  endloop
endfacet
facet normal -0.3826834323650914 -0.0 -0.9238795325112863
  outer loop
    vertex -14.0 1.9999999999999998 21.732050807568864
    vertex -14.482361909794959 -2.9999999999999987 21.931851652578125
    vertex -14.482361909794959 1.9999999999999998 21.931851652578125
  endloop
endfacet
facet normal -0.3826834323650914 -0.0 -0.9238795325112863
  outer loop
    vertex -14.482361909794959 -2.9999999999999987 21.931851652578125
    vertex -14.0 1.9999999999999998 21.732050807568864
    vertex -14.0 -2.9999999999999987 21.732050807568864
  endloop
endfacet
facet normal -0.6087614290087179 -0.0 -0.7933533402912372
  outer loop
    vertex -13.585786437626904 1.9999999999999998 21.414213562373085
    vertex -14.0 -2.9999999999999987 21.732050807568864
    vertex -14.0 1.9999999999999998 21.732050807568864
  endloop
endfacet
facet normal -0.6087614290087179 -0.0 -0.7933533402912372
  outer loop
    vertex -14.0 -2.9999999999999987 21.732050807568864
    vertex -13.585786437626904 1.9999999999999998 21.414213562373085
    vertex -13.585786437626904 -2.9999999999999987 21.414213562373085
  endloop
endfacet
facet normal -0.7933533402912393 -0.0 -0.6087614290087153
  outer loop
    vertex -13.585786437626904 1.9999999999999998 21.414213562373085
    vertex -13.267949192431125 -2.9999999999999987 20.999999999999986
    vertex -13.585786437626904 -2.9999999999999987 21.414213562373085
  endloop
endfacet
facet normal -0.7933533402912393 -0.0 -0.6087614290087153
  outer loop
    vertex -13.267949192431125 -2.9999999999999987 20.999999999999986
    vertex -13.585786437626904 1.9999999999999998 21.414213562373085
    vertex -13.267949192431125 1.9999999999999998 20.999999999999986
  endloop
endfacet
facet normal -0.9238795325112863 -0.0 -0.3826834323650914
  outer loop
    vertex -13.267949192431125 1.9999999999999998 20.999999999999986
    vertex -13.068148347421864 -2.9999999999999987 20.51763809020503
    vertex -13.267949192431125 -2.9999999999999987 20.999999999999986
  endloop
endfacet
facet normal -0.9238795325112863 -0.0 -0.3826834323650914
  outer loop
    vertex -13.068148347421864 -2.9999999999999987 20.51763809020503
    vertex -13.267949192431125 1.9999999999999998 20.999999999999986
    vertex -13.068148347421864 1.9999999999999998 20.51763809020503
  endloop
endfacet
facet normal -0.9914448613738104 -0.0 -0.13052619222005216
  outer loop
    vertex -13.068148347421864 1.9999999999999998 20.51763809020503
    vertex -13.000000000000002 -2.9999999999999987 19.99999999999999
    vertex -13.068148347421864 -2.9999999999999987 20.51763809020503
  endloop
endfacet
facet normal -0.9914448613738104 -0.0 -0.13052619222005216
  outer loop
    vertex -13.000000000000002 -2.9999999999999987 19.99999999999999
    vertex -13.068148347421864 1.9999999999999998 20.51763809020503
    vertex -13.000000000000002 1.9999999999999998 19.99999999999999
  endloop
endfacet
facet normal -0.9914448613738105 -0.0 0.13052619222005143
  outer loop
    vertex -13.000000000000002 1.9999999999999998 19.99999999999999
    vertex -13.068148347421864 -2.9999999999999987 19.482361909794946
    vertex -13.000000000000002 -2.9999999999999987 19.99999999999999
  endloop
endfacet
facet normal -0.9914448613738105 -0.0 0.13052619222005143
  outer loop
    vertex -13.068148347421864 -2.9999999999999987 19.482361909794946
    vertex -13.000000000000002 1.9999999999999998 19.99999999999999
    vertex -13.068148347421864 1.9999999999999998 19.482361909794946
  endloop
endfacet
facet normal -0.9238795325112863 -0.0 0.3826834323650914
  outer loop
    vertex -13.068148347421864 1.9999999999999998 19.482361909794946
    vertex -13.267949192431125 -2.9999999999999987 18.99999999999999
    vertex -13.068148347421864 -2.9999999999999987 19.482361909794946
  endloop
endfacet
facet normal -0.9238795325112863 -0.0 0.3826834323650914
  outer loop
    vertex -13.267949192431125 -2.9999999999999987 18.99999999999999
    vertex -13.068148347421864 1.9999999999999998 19.482361909794946
    vertex -13.267949192431125 1.9999999999999998 18.99999999999999
  endloop
endfacet
facet normal -0.7933533402912347 -0.0 0.6087614290087213
  outer loop
    vertex -13.267949192431125 1.9999999999999998 18.99999999999999
    vertex -13.585786437626908 -2.9999999999999987 18.585786437626894
    vertex -13.267949192431125 -2.9999999999999987 18.99999999999999
  endloop
endfacet
facet normal -0.7933533402912347 -0.0 0.6087614290087213
  outer loop
    vertex -13.585786437626908 -2.9999999999999987 18.585786437626894
    vertex -13.267949192431125 1.9999999999999998 18.99999999999999
    vertex -13.585786437626908 1.9999999999999998 18.585786437626894
  endloop
endfacet
facet normal -0.6087614290087213 -0.0 0.7933533402912347
  outer loop
    vertex -13.585786437626908 -2.9999999999999987 18.585786437626894
    vertex -14.000000000000002 1.9999999999999998 18.26794919243111
    vertex -14.000000000000002 -2.9999999999999987 18.26794919243111
  endloop
endfacet
facet normal -0.6087614290087213 -0.0 0.7933533402912347
  outer loop
    vertex -14.000000000000002 1.9999999999999998 18.26794919243111
    vertex -13.585786437626908 -2.9999999999999987 18.585786437626894
    vertex -13.585786437626908 1.9999999999999998 18.585786437626894
  endloop
endfacet
facet normal -0.3826834323650867 -0.0 0.9238795325112881
  outer loop
    vertex -14.000000000000002 -2.9999999999999987 18.26794919243111
    vertex -14.48236190979496 1.9999999999999998 18.068148347421854
    vertex -14.48236190979496 -2.9999999999999987 18.068148347421854
  endloop
endfacet
facet normal -0.3826834323650867 -0.0 0.9238795325112881
  outer loop
    vertex -14.48236190979496 1.9999999999999998 18.068148347421854
    vertex -14.000000000000002 -2.9999999999999987 18.26794919243111
    vertex -14.000000000000002 1.9999999999999998 18.26794919243111
  endloop
endfacet
facet normal -0.13052619222005216 -0.0 0.9914448613738104
  outer loop
    vertex -14.48236190979496 -2.9999999999999987 18.068148347421854
    vertex -15.0 1.9999999999999998 17.99999999999999
    vertex -15.0 -2.9999999999999987 17.99999999999999
  endloop
endfacet
facet normal -0.13052619222005216 -0.0 0.9914448613738104
  outer loop
    vertex -15.0 1.9999999999999998 17.99999999999999
    vertex -14.48236190979496 -2.9999999999999987 18.068148347421854
    vertex -14.48236190979496 1.9999999999999998 18.068148347421854
  endloop
endfacet
facet normal 0.13052619222005143 0.0 0.9914448613738105
  outer loop
    vertex -15.0 -2.9999999999999987 17.99999999999999
    vertex -15.517638090205043 1.9999999999999998 18.068148347421854
    vertex -15.517638090205043 -2.9999999999999987 18.068148347421854
  endloop
endfacet
facet normal 0.13052619222005143 0.0 0.9914448613738105
  outer loop
    vertex -15.517638090205043 1.9999999999999998 18.068148347421854
    vertex -15.0 -2.9999999999999987 17.99999999999999
    vertex -15.0 1.9999999999999998 17.99999999999999
  endloop
endfacet
endsolid П-Балка-10мм-Ответ
