solid Т-Балка-10мм
facet normal -1.0 1.124945732542155e-16 -2.094771300690874e-16
  outer loop
    vertex 2.643718577388654e-15 10.000000000000002 10.0
    vertex -4.286263797015731e-16 2.1524193058471746e-31 7.0
    vertex -6.123233995736763e-16 -6.84860688224101e-32 10.0
  endloop
endfacet
facet normal -1.0 1.124945732542155e-16 -2.094771300690874e-16
  outer loop
    vertex -4.286263797015731e-16 2.1524193058471746e-31 7.0
    vertex 2.643718577388654e-15 10.000000000000002 10.0
    vertex 9.693634783758397e-16 2.9999999999999996 7.0
  endloop
endfacet
facet normal -1.0 1.124945732542155e-16 -2.094771300690874e-16
  outer loop
    vertex 9.693634783758397e-16 2.9999999999999996 7.0
    vertex 2.643718577388654e-15 10.000000000000002 10.0
    vertex 9.693634783758397e-16 2.9999999999999996 3.9999999999999996
  endloop
endfacet
facet normal -1.0 1.124945732542155e-16 -2.094771300690874e-16
  outer loop
    vertex 9.693634783758397e-16 2.9999999999999996 3.9999999999999996
    vertex 2.643718577388654e-15 10.000000000000002 10.0
    vertex -1.8506030041720577e-15 6.999999999999996 7.0
  endloop
endfacet
facet normal -1.0 1.124945732542155e-16 -2.094771300690874e-16
  outer loop
    vertex -1.8506030041720577e-15 6.999999999999996 7.0
    vertex 2.643718577388654e-15 10.000000000000002 10.0
    vertex 2.643718577388654e-15 10.000000000000002 6.999999999999998
  endloop
endfacet
facet normal -1.0 1.124945732542155e-16 -2.094771300690874e-16
  outer loop
    vertex 9.693634783758397e-16 2.9999999999999996 3.9999999999999996
    vertex 0.0 0.0 0.0
    vertex -1.224646799147353e-16 -7.704682742521136e-32 1.9999999999999998
  endloop
endfacet
facet normal -1.0 1.124945732542155e-16 -2.094771300690874e-16
  outer loop
    vertex 0.0 0.0 0.0
    vertex 9.693634783758397e-16 2.9999999999999996 3.9999999999999996
    vertex 2.643718577388654e-15 10.000000000000002 0.0
  endloop
endfacet
facet normal -1.0 1.124945732542155e-16 -2.094771300690874e-16
  outer loop
    vertex 2.643718577388654e-15 10.000000000000002 0.0
    vertex 9.693634783758397e-16 2.9999999999999996 3.9999999999999996
    vertex -1.8506030041720577e-15 6.999999999999996 3.9999999999999996
  endloop
endfacet
facet normal -1.0 1.124945732542155e-16 -2.094771300690874e-16
  outer loop
    vertex -1.8506030041720577e-15 6.999999999999996 3.9999999999999996
    vertex 9.693634783758397e-16 2.9999999999999996 3.9999999999999996
    vertex -1.8506030041720577e-15 6.999999999999996 7.0
  endloop
endfacet
facet normal -1.0 1.124945732542155e-16 -2.094771300690874e-16
  outer loop
    vertex 2.643718577388654e-15 10.000000000000002 0.0
    vertex -1.8506030041720577e-15 6.999999999999996 3.9999999999999996
    vertex 2.643718577388654e-15 10.000000000000002 1.9999999999999998
  endloop
endfacet
facet normal 3.67761376907083e-16 1.0 0.0
  outer loop
    vertex 2.643718577388654e-15 10.000000000000002 10.0
    vertex 150.0 9.999999999999945 7.000000000000008
    vertex 2.643718577388654e-15 10.000000000000002 6.999999999999998
  endloop
endfacet
facet normal 3.67761376907083e-16 1.0 0.0
  outer loop
    vertex 150.0 9.999999999999945 7.000000000000008
    vertex 2.643718577388654e-15 10.000000000000002 10.0
    vertex 150.0 9.999999999999945 10.00000000000001
  endloop
endfacet
facet normal 3.67761376907083e-16 1.0 0.0
  outer loop
    vertex -1.8506030041720577e-15 6.999999999999996 7.0
    vertex 150.00000000000003 6.999999999999938 4.000000000000009
    vertex -1.8506030041720577e-15 6.999999999999996 3.9999999999999996
  endloop
endfacet
facet normal 3.67761376907083e-16 1.0 0.0
  outer loop
    vertex 150.00000000000003 6.999999999999938 4.000000000000009
    vertex -1.8506030041720577e-15 6.999999999999996 7.0
    vertex 150.00000000000003 6.999999999999938 7.00000000000001
  endloop
endfacet
facet normal 3.67761376907083e-16 1.0 0.0
  outer loop
    vertex 2.643718577388654e-15 10.000000000000002 1.9999999999999998
    vertex 150.0 9.999999999999945 9.184850993605149e-15
    vertex 2.643718577388654e-15 10.000000000000002 0.0
  endloop
endfacet
facet normal 3.67761376907083e-16 1.0 0.0
  outer loop
    vertex 150.0 9.999999999999945 9.184850993605149e-15
    vertex 2.643718577388654e-15 10.000000000000002 1.9999999999999998
    vertex 150.0 9.999999999999945 2.000000000000009
  endloop
endfacet
facet normal -3.67761376907083e-16 -1.0 0.0
  outer loop
    vertex 149.99999999999986 -1.5509815654013436e-14 9.184850993605149e-15
    vertex -1.224646799147353e-16 -7.704682742521136e-32 1.9999999999999998
    vertex 0.0 0.0 0.0
  endloop
endfacet
facet normal -3.67761376907083e-16 -1.0 0.0
  outer loop
    vertex -1.224646799147353e-16 -7.704682742521136e-32 1.9999999999999998
    vertex 149.99999999999986 -1.5509815654013436e-14 9.184850993605149e-15
    vertex 149.99999999999986 -1.5509815654013436e-14 2.000000000000009
  endloop
endfacet
facet normal -3.67761376907083e-16 -1.0 0.0
  outer loop
    vertex 150.00000000000003 2.999999999999931 4.000000000000009
    vertex 9.693634783758397e-16 2.9999999999999996 7.0
    vertex 9.693634783758397e-16 2.9999999999999996 3.9999999999999996
  endloop
endfacet
facet normal -3.67761376907083e-16 -1.0 0.0
  outer loop
    vertex 9.693634783758397e-16 2.9999999999999996 7.0
    vertex 150.00000000000003 2.999999999999931 4.000000000000009
    vertex 150.00000000000003 2.999999999999931 7.00000000000001
  endloop
endfacet
facet normal -3.67761376907083e-16 -1.0 0.0
  outer loop
    vertex 149.99999999999986 -1.5509815654013436e-14 7.00000000000001
    vertex -6.123233995736763e-16 -6.84860688224101e-32 10.0
    vertex -4.286263797015731e-16 2.1524193058471746e-31 7.0
  endloop
endfacet
facet normal -3.67761376907083e-16 -1.0 0.0
  outer loop
    vertex -6.123233995736763e-16 -6.84860688224101e-32 10.0
    vertex 149.99999999999986 -1.5509815654013436e-14 7.00000000000001
    vertex 149.99999999999986 -1.5509815654013436e-14 10.00000000000001
  endloop
endfacet
facet normal 6.123233995736759e-17 5.7777898331617076e-33 -1.0
  outer loop
    vertex 9.693634783758397e-16 2.9999999999999996 7.0
    vertex 149.99999999999986 -1.5509815654013436e-14 7.00000000000001
    vertex -4.286263797015731e-16 2.1524193058471746e-31 7.0
  endloop
endfacet
facet normal 6.123233995736759e-17 5.7777898331617076e-33 -1.0
  outer loop
    vertex 149.99999999999986 -1.5509815654013436e-14 7.00000000000001
    vertex 9.693634783758397e-16 2.9999999999999996 7.0
    vertex 150.00000000000003 2.999999999999931 7.00000000000001
  endloop
endfacet
facet normal 6.123233995736759e-17 5.7777898331617076e-33 -1.0
  outer loop
    vertex 2.643718577388654e-15 10.000000000000002 0.0
    vertex 149.99999999999986 -1.5509815654013436e-14 9.184850993605149e-15
    vertex 0.0 0.0 0.0
  endloop
endfacet
facet normal 6.123233995736759e-17 5.7777898331617076e-33 -1.0
  outer loop
    vertex 149.99999999999986 -1.5509815654013436e-14 9.184850993605149e-15
    vertex 2.643718577388654e-15 10.000000000000002 0.0
    vertex 150.0 9.999999999999945 9.184850993605149e-15
  endloop
endfacet
facet normal 6.123233995736755e-17 -4.699944137579828e-16 -1.0
  outer loop
    vertex 2.643718577388654e-15 10.000000000000002 6.999999999999998
    vertex 150.00000000000003 6.999999999999938 7.00000000000001
    vertex -1.8506030041720577e-15 6.999999999999996 7.0
  endloop
endfacet
facet normal 6.123233995736755e-17 -4.699944137579828e-16 -1.0
  outer loop
    vertex 150.00000000000003 6.999999999999938 7.00000000000001
    vertex 2.643718577388654e-15 10.000000000000002 6.999999999999998
    vertex 150.0 9.999999999999945 7.000000000000008
  endloop
endfacet
facet normal -4.85722573273506e-17 -0.5547001962252291 0.8320502943378438
  outer loop
    vertex 149.99999999999986 -1.5509815654013436e-14 2.000000000000009
    vertex 9.693634783758397e-16 2.9999999999999996 3.9999999999999996
    vertex -1.224646799147353e-16 -7.704682742521136e-32 1.9999999999999998
  endloop
endfacet
facet normal -4.85722573273506e-17 -0.5547001962252291 0.8320502943378438
  outer loop
    vertex 9.693634783758397e-16 2.9999999999999996 3.9999999999999996
    vertex 149.99999999999986 -1.5509815654013436e-14 2.000000000000009
    vertex 150.00000000000003 2.999999999999931 4.000000000000009
  endloop
endfacet
facet normal -2.5326962749261384e-16 0.5547001962252288 0.8320502943378438
  outer loop
    vertex 150.00000000000003 6.999999999999938 4.000000000000009
    vertex 2.643718577388654e-15 10.000000000000002 1.9999999999999998
    vertex -1.8506030041720577e-15 6.999999999999996 3.9999999999999996
  endloop
endfacet
facet normal -2.5326962749261384e-16 0.5547001962252288 0.8320502943378438
  outer loop
    vertex 2.643718577388654e-15 10.000000000000002 1.9999999999999998
    vertex 150.00000000000003 6.999999999999938 4.000000000000009
    vertex 150.0 9.999999999999945 2.000000000000009
  endloop
endfacet
facet normal 1.0 -1.4586437855673964e-14 -3.2974687942892408e-15
  outer loop
    vertex 150.0 9.999999999999945 9.184850993605149e-15
    vertex 149.99999999999986 -1.5509815654013436e-14 2.000000000000009
    vertex 149.99999999999986 -1.5509815654013436e-14 9.184850993605149e-15
  endloop
endfacet
facet normal 1.0 -1.4586437855673964e-14 -3.2974687942892408e-15
  outer loop
    vertex 149.99999999999986 -1.5509815654013436e-14 2.000000000000009
    vertex 150.0 9.999999999999945 9.184850993605149e-15
    vertex 150.00000000000003 2.999999999999931 4.000000000000009
  endloop
endfacet
facet normal 1.0 -1.4586437855673964e-14 -3.2974687942892408e-15
  outer loop
    vertex 150.00000000000003 2.999999999999931 4.000000000000009
    vertex 150.0 9.999999999999945 9.184850993605149e-15
    vertex 150.00000000000003 2.999999999999931 7.00000000000001
  endloop
endfacet
facet normal 1.0 -1.4586437855673964e-14 -3.2974687942892408e-15
  outer loop
    vertex 150.00000000000003 2.999999999999931 7.00000000000001
    vertex 150.0 9.999999999999945 9.184850993605149e-15
    vertex 150.00000000000003 6.999999999999938 4.000000000000009
  endloop
endfacet
facet normal 1.0 -1.4586437855673964e-14 -3.2974687942892408e-15
  outer loop
    vertex 150.00000000000003 6.999999999999938 4.000000000000009
    vertex 150.0 9.999999999999945 9.184850993605149e-15
    vertex 150.0 9.999999999999945 2.000000000000009
  endloop
endfacet
facet normal 1.0 -1.4586437855673964e-14 -3.2974687942892408e-15
  outer loop
    vertex 150.00000000000003 2.999999999999931 7.00000000000001
    vertex 149.99999999999986 -1.5509815654013436e-14 10.00000000000001
    vertex 149.99999999999986 -1.5509815654013436e-14 7.00000000000001
  endloop
endfacet
facet normal 1.0 -1.4586437855673964e-14 -3.2974687942892408e-15
  outer loop
    vertex 149.99999999999986 -1.5509815654013436e-14 10.00000000000001
    vertex 150.00000000000003 2.999999999999931 7.00000000000001
    vertex 150.0 9.999999999999945 10.00000000000001
  endloop
endfacet
facet normal 1.0 -1.4586437855673964e-14 -3.2974687942892408e-15
  outer loop
    vertex 150.0 9.999999999999945 10.00000000000001
    vertex 150.00000000000003 2.999999999999931 7.00000000000001
    vertex 150.00000000000003 6.999999999999938 7.00000000000001
  endloop
endfacet
facet normal 1.0 -1.4586437855673964e-14 -3.2974687942892408e-15
  outer loop
    vertex 150.00000000000003 6.999999999999938 7.00000000000001
    vertex 150.00000000000003 2.999999999999931 7.00000000000001
    vertex 150.00000000000003 6.999999999999938 4.000000000000009
  endloop
endfacet
facet normal 1.0 -1.4586437855673964e-14 -3.2974687942892408e-15
  outer loop
    vertex 150.0 9.999999999999945 10.00000000000001
    vertex 150.00000000000003 6.999999999999938 7.00000000000001
    vertex 150.0 9.999999999999945 7.000000000000008
  endloop
endfacet
facet normal -6.579921792611764e-17 7.058305370429715e-31 1.0
  outer loop
    vertex 149.99999999999986 -1.5509815654013436e-14 10.00000000000001
    vertex 2.643718577388654e-15 10.000000000000002 10.0
    vertex -6.123233995736763e-16 -6.84860688224101e-32 10.0
  endloop
endfacet
facet normal -6.579921792611764e-17 7.058305370429715e-31 1.0
  outer loop
    vertex 2.643718577388654e-15 10.000000000000002 10.0
    vertex 149.99999999999986 -1.5509815654013436e-14 10.00000000000001
    vertex 150.0 9.999999999999945 10.00000000000001
  endloop
endfacet
endsolid Т-Балка-10мм
