solid Т-Балка-10-Бегунок+0.2
facet normal -1.0 4.3384099731506136e-16 -1.194901051927074e-16
  outer loop
    vertex 0.0 0.0 6.999999999999997
    vertex -5.5333110250776883e-17 1.899999999999999 5.099999999999999
    vertex -5.639932965095795e-15 0.0 0.0
  endloop
endfacet
facet normal -1.0 4.3384099731506136e-16 -1.194901051927074e-16
  outer loop
    vertex -5.5333110250776883e-17 1.899999999999999 5.099999999999999
    vertex 0.0 0.0 6.999999999999997
    vertex 0.0 4.999999999999998 6.999999999999997
  endloop
endfacet
facet normal -1.0 4.3384099731506136e-16 -1.194901051927074e-16
  outer loop
    vertex -5.5333110250776883e-17 1.899999999999999 5.099999999999999
    vertex 0.0 4.999999999999998 6.999999999999997
    vertex -1.1949010519270741e-17 4.999999999999998 5.099999999999999
  endloop
endfacet
facet normal -1.0 4.3384099731506136e-16 -1.194901051927074e-16
  outer loop
    vertex 0.0 13.999999999999996 6.999999999999997
    vertex -1.1949010519270741e-17 8.999999999999991 5.099999999999999
    vertex 0.0 8.999999999999991 6.999999999999997
  endloop
endfacet
facet normal -1.0 4.3384099731506136e-16 -1.194901051927074e-16
  outer loop
    vertex -1.1949010519270741e-17 8.999999999999991 5.099999999999999
    vertex 0.0 13.999999999999996 6.999999999999997
    vertex 5.6713680543080294e-15 12.099999999999996 5.099999999999999
  endloop
endfacet
facet normal -1.0 4.3384099731506136e-16 -1.194901051927074e-16
  outer loop
    vertex 5.6713680543080294e-15 12.099999999999996 5.099999999999999
    vertex 0.0 13.999999999999996 6.999999999999997
    vertex 5.6952660753465725e-15 12.099999999999996 1.899999999999999
  endloop
endfacet
facet normal -1.0 4.3384099731506136e-16 -1.194901051927074e-16
  outer loop
    vertex -5.639932965095795e-15 0.0 0.0
    vertex -3.143508921223541e-17 1.899999999999999 1.899999999999999
    vertex 5.639932965095795e-15 13.999999999999996 0.0
  endloop
endfacet
facet normal -1.0 4.3384099731506136e-16 -1.194901051927074e-16
  outer loop
    vertex -3.143508921223541e-17 1.899999999999999 1.899999999999999
    vertex -5.639932965095795e-15 0.0 0.0
    vertex -5.5333110250776883e-17 1.899999999999999 5.099999999999999
  endloop
endfacet
facet normal -1.0 4.3384099731506136e-16 -1.194901051927074e-16
  outer loop
    vertex 5.639932965095795e-15 13.999999999999996 0.0
    vertex -3.143508921223541e-17 1.899999999999999 1.899999999999999
    vertex 5.6952660753465725e-15 12.099999999999996 1.899999999999999
  endloop
endfacet
facet normal -1.0 4.3384099731506136e-16 -1.194901051927074e-16
  outer loop
    vertex 5.639932965095795e-15 13.999999999999996 0.0
    vertex 5.6952660753465725e-15 12.099999999999996 1.899999999999999
    vertex 0.0 13.999999999999996 6.999999999999997
  endloop
endfacet
facet normal 1.0 -4.338409973150615e-16 1.194901051927074e-16
  outer loop
    vertex 9.999999999999995 -4.338409973150614e-15 1.194901051927074e-15
    vertex 10.0 1.8999999999999948 1.9000000000000001
    vertex 10.0 -4.338409973150614e-15 6.999999999999998
  endloop
endfacet
facet normal 1.0 -4.338409973150615e-16 1.194901051927074e-16
  outer loop
    vertex 10.0 1.8999999999999948 1.9000000000000001
    vertex 9.999999999999995 -4.338409973150614e-15 1.194901051927074e-15
    vertex 10.000000000000005 13.999999999999991 1.194901051927074e-15
  endloop
endfacet
facet normal 1.0 -4.338409973150615e-16 1.194901051927074e-16
  outer loop
    vertex 10.0 1.8999999999999948 1.9000000000000001
    vertex 10.000000000000005 13.999999999999991 1.194901051927074e-15
    vertex 10.000000000000005 12.099999999999993 1.9000000000000001
  endloop
endfacet
facet normal 1.0 -4.338409973150615e-16 1.194901051927074e-16
  outer loop
    vertex 10.000000000000005 12.099999999999993 1.9000000000000001
    vertex 10.000000000000005 13.999999999999991 1.194901051927074e-15
    vertex 10.000000000000005 12.099999999999993 5.1000000000000005
  endloop
endfacet
facet normal 1.0 -4.338409973150615e-16 1.194901051927074e-16
  outer loop
    vertex 10.000000000000005 12.099999999999993 5.1000000000000005
    vertex 10.0 8.999999999999988 6.999999999999998
    vertex 10.0 8.999999999999988 5.1000000000000005
  endloop
endfacet
facet normal 1.0 -4.338409973150615e-16 1.194901051927074e-16
  outer loop
    vertex 10.0 8.999999999999988 6.999999999999998
    vertex 10.000000000000005 12.099999999999993 5.1000000000000005
    vertex 10.0 13.999999999999991 6.999999999999998
  endloop
endfacet
facet normal 1.0 -4.338409973150615e-16 1.194901051927074e-16
  outer loop
    vertex 10.0 13.999999999999991 6.999999999999998
    vertex 10.000000000000005 12.099999999999993 5.1000000000000005
    vertex 10.000000000000005 13.999999999999991 1.194901051927074e-15
  endloop
endfacet
facet normal 1.0 -4.338409973150615e-16 1.194901051927074e-16
  outer loop
    vertex 10.0 -4.338409973150614e-15 6.999999999999998
    vertex 10.0 1.8999999999999948 5.1000000000000005
    vertex 10.0 4.999999999999994 6.999999999999998
  endloop
endfacet
facet normal 1.0 -4.338409973150615e-16 1.194901051927074e-16
  outer loop
    vertex 10.0 1.8999999999999948 5.1000000000000005
    vertex 10.0 -4.338409973150614e-15 6.999999999999998
    vertex 10.0 1.8999999999999948 1.9000000000000001
  endloop
endfacet
facet normal 1.0 -4.338409973150615e-16 1.194901051927074e-16
  outer loop
    vertex 10.0 4.999999999999994 6.999999999999998
    vertex 10.0 1.8999999999999948 5.1000000000000005
    vertex 10.0 4.999999999999994 5.1000000000000005
  endloop
endfacet
facet normal -4.338409973150614e-16 -1.0 3.4954773462389312e-31
  outer loop
    vertex 9.999999999999995 -4.338409973150614e-15 1.194901051927074e-15
    vertex 0.0 0.0 6.999999999999997
    vertex -5.639932965095795e-15 0.0 0.0
  endloop
endfacet
facet normal -4.338409973150614e-16 -1.0 3.4954773462389312e-31
  outer loop
    vertex 0.0 0.0 6.999999999999997
    vertex 9.999999999999995 -4.338409973150614e-15 1.194901051927074e-15
    vertex 10.0 -4.338409973150614e-15 6.999999999999998
  endloop
endfacet
facet normal -1.194901051927074e-16 0.0 1.0
  outer loop
    vertex 10.0 -4.338409973150614e-15 6.999999999999998
    vertex 0.0 4.999999999999998 6.999999999999997
    vertex 0.0 0.0 6.999999999999997
  endloop
endfacet
facet normal -1.194901051927074e-16 0.0 1.0
  outer loop
    vertex 0.0 4.999999999999998 6.999999999999997
    vertex 10.0 -4.338409973150614e-15 6.999999999999998
    vertex 10.0 4.999999999999994 6.999999999999998
  endloop
endfacet
facet normal 4.3384099731506136e-16 1.0 0.0
  outer loop
    vertex 0.0 4.999999999999998 6.999999999999997
    vertex 10.0 4.999999999999994 5.1000000000000005
    vertex -1.1949010519270741e-17 4.999999999999998 5.099999999999999
  endloop
endfacet
facet normal 4.3384099731506136e-16 1.0 0.0
  outer loop
    vertex 10.0 4.999999999999994 5.1000000000000005
    vertex 0.0 4.999999999999998 6.999999999999997
    vertex 10.0 4.999999999999994 6.999999999999998
  endloop
endfacet
facet normal 1.194901051927074e-16 0.0 -1.0
  outer loop
    vertex -1.1949010519270741e-17 4.999999999999998 5.099999999999999
    vertex 10.0 1.8999999999999948 5.1000000000000005
    vertex -5.5333110250776883e-17 1.899999999999999 5.099999999999999
  endloop
endfacet
facet normal 1.194901051927074e-16 0.0 -1.0
  outer loop
    vertex 10.0 1.8999999999999948 5.1000000000000005
    vertex -1.1949010519270741e-17 4.999999999999998 5.099999999999999
    vertex 10.0 4.999999999999994 5.1000000000000005
  endloop
endfacet
facet normal 4.338409973150614e-16 1.0 0.0
  outer loop
    vertex -5.5333110250776883e-17 1.899999999999999 5.099999999999999
    vertex 10.0 1.8999999999999948 1.9000000000000001
    vertex -3.143508921223541e-17 1.899999999999999 1.899999999999999
  endloop
endfacet
facet normal 4.338409973150614e-16 1.0 0.0
  outer loop
    vertex 10.0 1.8999999999999948 1.9000000000000001
    vertex -5.5333110250776883e-17 1.899999999999999 5.099999999999999
    vertex 10.0 1.8999999999999948 5.1000000000000005
  endloop
endfacet
facet normal -1.194901051927074e-16 6.739161832791148e-32 1.0
  outer loop
    vertex 10.0 1.8999999999999948 1.9000000000000001
    vertex 5.6952660753465725e-15 12.099999999999996 1.899999999999999
    vertex -3.143508921223541e-17 1.899999999999999 1.899999999999999
  endloop
endfacet
facet normal -1.194901051927074e-16 6.739161832791148e-32 1.0
  outer loop
    vertex 5.6952660753465725e-15 12.099999999999996 1.899999999999999
    vertex 10.0 1.8999999999999948 1.9000000000000001
    vertex 10.000000000000005 12.099999999999993 1.9000000000000001
  endloop
endfacet
facet normal -4.338409973150614e-16 -1.0 0.0
  outer loop
    vertex 10.000000000000005 12.099999999999993 1.9000000000000001
    vertex 5.6713680543080294e-15 12.099999999999996 5.099999999999999
    vertex 5.6952660753465725e-15 12.099999999999996 1.899999999999999
  endloop
endfacet
facet normal -4.338409973150614e-16 -1.0 0.0
  outer loop
    vertex 5.6713680543080294e-15 12.099999999999996 5.099999999999999
    vertex 10.000000000000005 12.099999999999993 1.9000000000000001
    vertex 10.000000000000005 12.099999999999993 5.1000000000000005
  endloop
endfacet
facet normal 1.194901051927074e-16 -2.246387277597046e-31 -1.0
  outer loop
    vertex 5.6713680543080294e-15 12.099999999999996 5.099999999999999
    vertex 10.0 8.999999999999988 5.1000000000000005
    vertex -1.1949010519270741e-17 8.999999999999991 5.099999999999999
  endloop
endfacet
facet normal 1.194901051927074e-16 -2.246387277597046e-31 -1.0
  outer loop
    vertex 10.0 8.999999999999988 5.1000000000000005
    vertex 5.6713680543080294e-15 12.099999999999996 5.099999999999999
    vertex 10.000000000000005 12.099999999999993 5.1000000000000005
  endloop
endfacet
facet normal -4.3384099731506136e-16 -1.0 0.0
  outer loop
    vertex 10.0 8.999999999999988 5.1000000000000005
    vertex 0.0 8.999999999999991 6.999999999999997
    vertex -1.1949010519270741e-17 8.999999999999991 5.099999999999999
  endloop
endfacet
facet normal -4.3384099731506136e-16 -1.0 0.0
  outer loop
    vertex 0.0 8.999999999999991 6.999999999999997
    vertex 10.0 8.999999999999988 5.1000000000000005
    vertex 10.0 8.999999999999988 6.999999999999998
  endloop
endfacet
facet normal -1.194901051927074e-16 0.0 1.0
  outer loop
    vertex 10.0 8.999999999999988 6.999999999999998
    vertex 0.0 13.999999999999996 6.999999999999997
    vertex 0.0 8.999999999999991 6.999999999999997
  endloop
endfacet
facet normal -1.194901051927074e-16 0.0 1.0
  outer loop
    vertex 0.0 13.999999999999996 6.999999999999997
    vertex 10.0 8.999999999999988 6.999999999999998
    vertex 10.0 13.999999999999991 6.999999999999998
  endloop
endfacet
facet normal 4.338409973150614e-16 1.0 3.4954773462389312e-31
  outer loop
    vertex 0.0 13.999999999999996 6.999999999999997
    vertex 10.000000000000005 13.999999999999991 1.194901051927074e-15
    vertex 5.639932965095795e-15 13.999999999999996 0.0
  endloop
endfacet
facet normal 4.338409973150614e-16 1.0 3.4954773462389312e-31
  outer loop
    vertex 10.000000000000005 13.999999999999991 1.194901051927074e-15
    vertex 0.0 13.999999999999996 6.999999999999997
    vertex 10.0 13.999999999999991 6.999999999999998
  endloop
endfacet
facet normal 1.194901051927074e-16 -9.627374046844497e-32 -1.0
  outer loop
    vertex 5.639932965095795e-15 13.999999999999996 0.0
    vertex 9.999999999999995 -4.338409973150614e-15 1.194901051927074e-15
    vertex -5.639932965095795e-15 0.0 0.0
  endloop
endfacet
facet normal 1.194901051927074e-16 -9.627374046844497e-32 -1.0
  outer loop
    vertex 9.999999999999995 -4.338409973150614e-15 1.194901051927074e-15
    vertex 5.639932965095795e-15 13.999999999999996 0.0
    vertex 10.000000000000005 13.999999999999991 1.194901051927074e-15
  endloop
endfacet
endsolid Т-Балка-10-Бегунок+0.2
