solid Временнаяштука
facet normal 0.0 0.0 -1.0
  outer loop
    vertex 35.0 25.0 0.0
    vertex 29.999999999999996 4.999999999999999 0.0
    vertex 29.999999999999996 25.0 0.0
  endloop
endfacet
facet normal 0.0 0.0 -1.0
  outer loop
    vertex 5.0 25.0 0.0
    vertex 0.0 0.0 0.0
    vertex 0.0 25.0 0.0
  endloop
endfacet
facet normal 0.0 0.0 -1.0
  outer loop
    vertex 0.0 0.0 0.0
    vertex 5.0 25.0 0.0
    vertex 5.0 4.999999999999999 0.0
  endloop
endfacet
facet normal 0.0 0.0 -1.0
  outer loop
    vertex 0.0 0.0 0.0
    vertex 5.0 4.999999999999999 0.0
    vertex 7.499999999999999 0.0 0.0
  endloop
endfacet
facet normal 0.0 0.0 -1.0
  outer loop
    vertex 7.499999999999999 0.0 0.0
    vertex 5.0 4.999999999999999 0.0
    vertex 29.999999999999996 4.999999999999999 0.0
  endloop
endfacet
facet normal 0.0 0.0 -1.0
  outer loop
    vertex 7.499999999999999 0.0 0.0
    vertex 29.999999999999996 4.999999999999999 0.0
    vertex 12.5 0.0 0.0
  endloop
endfacet
facet normal 0.0 0.0 -1.0
  outer loop
    vertex 7.499999999999999 0.0 0.0
    vertex 12.5 0.0 0.0
    vertex 7.499999999999999 -10.0 0.0
  endloop
endfacet
facet normal 0.0 0.0 -1.0
  outer loop
    vertex 12.5 0.0 0.0
    vertex 29.999999999999996 4.999999999999999 0.0
    vertex 14.999999999999998 0.0 0.0
  endloop
endfacet
facet normal 0.0 0.0 -1.0
  outer loop
    vertex 14.999999999999998 0.0 0.0
    vertex 29.999999999999996 4.999999999999999 0.0
    vertex 35.0 0.0 0.0
  endloop
endfacet
facet normal 0.0 0.0 -1.0
  outer loop
    vertex 35.0 0.0 0.0
    vertex 29.999999999999996 4.999999999999999 0.0
    vertex 35.0 25.0 0.0
  endloop
endfacet
facet normal 0.0 0.0 -1.0
  outer loop
    vertex 12.5 -10.0 0.0
    vertex 7.499999999999999 -10.0 0.0
    vertex 12.5 0.0 0.0
  endloop
endfacet
facet normal -0.0 -0.0 1.0
  outer loop
    vertex 12.5 -10.0 30.0
    vertex 7.499999999999999 0.0 30.0
    vertex 7.499999999999999 -10.0 30.0
  endloop
endfacet
facet normal -0.0 -0.0 1.0
  outer loop
    vertex 7.499999999999999 0.0 30.0
    vertex 0.0 15.0 30.0
    vertex 0.0 0.0 30.0
  endloop
endfacet
facet normal -0.0 -0.0 1.0
  outer loop
    vertex 0.0 15.0 30.0
    vertex 7.499999999999999 0.0 30.0
    vertex 5.0 4.999999999999999 30.0
  endloop
endfacet
facet normal -0.0 -0.0 1.0
  outer loop
    vertex 0.0 15.0 30.0
    vertex 5.0 4.999999999999999 30.0
    vertex 0.0 25.0 30.0
  endloop
endfacet
facet normal -0.0 -0.0 1.0
  outer loop
    vertex 5.0 4.999999999999999 30.0
    vertex 7.499999999999999 0.0 30.0
    vertex 29.999999999999996 4.999999999999999 30.0
  endloop
endfacet
facet normal -0.0 -0.0 1.0
  outer loop
    vertex 29.999999999999996 4.999999999999999 30.0
    vertex 7.499999999999999 0.0 30.0
    vertex 12.5 0.0 30.0
  endloop
endfacet
facet normal -0.0 -0.0 1.0
  outer loop
    vertex 12.5 0.0 30.0
    vertex 7.499999999999999 0.0 30.0
    vertex 12.5 -10.0 30.0
  endloop
endfacet
facet normal -0.0 -0.0 1.0
  outer loop
    vertex 29.999999999999996 4.999999999999999 30.0
    vertex 12.5 0.0 30.0
    vertex 14.999999999999998 0.0 30.0
  endloop
endfacet
facet normal -0.0 -0.0 1.0
  outer loop
    vertex 29.999999999999996 4.999999999999999 30.0
    vertex 14.999999999999998 0.0 30.0
    vertex 35.0 0.0 30.0
  endloop
endfacet
facet normal -0.0 -0.0 1.0
  outer loop
    vertex 29.999999999999996 4.999999999999999 30.0
    vertex 35.0 0.0 30.0
    vertex 29.999999999999996 25.0 30.0
  endloop
endfacet
facet normal -0.0 -0.0 1.0
  outer loop
    vertex 29.999999999999996 25.0 30.0
    vertex 35.0 0.0 30.0
    vertex 35.0 25.0 30.0
  endloop
endfacet
facet normal -0.0 -0.0 1.0
  outer loop
    vertex 5.0 25.0 30.0
    vertex 0.0 25.0 30.0
    vertex 5.0 4.999999999999999 30.0
  endloop
endfacet
facet normal -0.0 -1.0 -0.0
  outer loop
    vertex 14.999999999999998 0.0 30.0
    vertex 12.5 0.0 0.0
    vertex 14.999999999999998 0.0 0.0
  endloop
endfacet
facet normal -0.0 -1.0 -0.0
  outer loop
    vertex 12.5 0.0 0.0
    vertex 14.999999999999998 0.0 30.0
    vertex 12.5 0.0 30.0
  endloop
endfacet
facet normal 1.0 0.0 0.0
  outer loop
    vertex 12.5 0.0 0.0
    vertex 12.5 -10.0 30.0
    vertex 12.5 -10.0 0.0
  endloop
endfacet
facet normal 1.0 0.0 0.0
  outer loop
    vertex 12.5 -10.0 30.0
    vertex 12.5 0.0 0.0
    vertex 12.5 0.0 30.0
  endloop
endfacet
facet normal -0.0 -1.0 -0.0
  outer loop
    vertex 12.5 -10.0 30.0
    vertex 7.499999999999999 -10.0 0.0
    vertex 12.5 -10.0 0.0
  endloop
endfacet
facet normal -0.0 -1.0 -0.0
  outer loop
    vertex 7.499999999999999 -10.0 0.0
    vertex 12.5 -10.0 30.0
    vertex 7.499999999999999 -10.0 30.0
  endloop
endfacet
facet normal -1.0 0.0 0.0
  outer loop
    vertex 7.499999999999999 0.0 30.0
    vertex 7.499999999999999 -10.0 0.0
    vertex 7.499999999999999 -10.0 30.0
  endloop
endfacet
facet normal -1.0 0.0 0.0
  outer loop
    vertex 7.499999999999999 -10.0 0.0
    vertex 7.499999999999999 0.0 30.0
    vertex 7.499999999999999 0.0 0.0
  endloop
endfacet
facet normal -0.0 -1.0 -0.0
  outer loop
    vertex 7.499999999999999 0.0 30.0
    vertex 0.0 0.0 0.0
    vertex 7.499999999999999 0.0 0.0
  endloop
endfacet
facet normal -0.0 -1.0 -0.0
  outer loop
    vertex 0.0 0.0 0.0
    vertex 7.499999999999999 0.0 30.0
    vertex 0.0 0.0 30.0
  endloop
endfacet
facet normal -1.0 0.0 0.0
  outer loop
    vertex 0.0 15.0 30.0
    vertex 0.0 0.0 0.0
    vertex 0.0 0.0 30.0
  endloop
endfacet
facet normal -1.0 0.0 0.0
  outer loop
    vertex 0.0 0.0 0.0
    vertex 0.0 15.0 30.0
    vertex 0.0 11.136296694843729 16.035276180410087
  endloop
endfacet
facet normal -1.0 0.0 0.0
  outer loop
    vertex 0.0 0.0 0.0
    vertex 0.0 11.136296694843729 16.035276180410087
    vertex 0.0 11.000000000000002 15.0
  endloop
endfacet
facet normal -1.0 0.0 0.0
  outer loop
    vertex 0.0 11.136296694843729 16.035276180410087
    vertex 0.0 15.0 30.0
    vertex 0.0 11.535898384862248 17.000000000000004
  endloop
endfacet
facet normal -1.0 0.0 0.0
  outer loop
    vertex 0.0 11.535898384862248 17.000000000000004
    vertex 0.0 15.0 30.0
    vertex 0.0 12.171572875253812 17.82842712474619
  endloop
endfacet
facet normal -1.0 0.0 0.0
  outer loop
    vertex 0.0 12.171572875253812 17.82842712474619
    vertex 0.0 15.0 30.0
    vertex 0.0 13.000000000000004 18.464101615137757
  endloop
endfacet
facet normal -1.0 0.0 0.0
  outer loop
    vertex 0.0 13.000000000000004 18.464101615137757
    vertex 0.0 15.0 30.0
    vertex 0.0 13.96472381958992 18.863703305156275
  endloop
endfacet
facet normal -1.0 0.0 0.0
  outer loop
    vertex 0.0 13.96472381958992 18.863703305156275
    vertex 0.0 15.0 30.0
    vertex 0.0 15.0 19.0
  endloop
endfacet
facet normal -1.0 0.0 0.0
  outer loop
    vertex 0.0 15.0 19.0
    vertex 0.0 15.0 30.0
    vertex 0.0 25.0 30.0
  endloop
endfacet
facet normal -1.0 0.0 0.0
  outer loop
    vertex 0.0 15.0 19.0
    vertex 0.0 25.0 30.0
    vertex 0.0 16.035276180410087 18.86370330515627
  endloop
endfacet
facet normal -1.0 0.0 0.0
  outer loop
    vertex 0.0 16.035276180410087 18.86370330515627
    vertex 0.0 25.0 30.0
    vertex 0.0 17.000000000000004 18.464101615137753
  endloop
endfacet
facet normal -1.0 0.0 0.0
  outer loop
    vertex 0.0 17.000000000000004 18.464101615137753
    vertex 0.0 25.0 30.0
    vertex 0.0 17.82842712474619 17.828427124746188
  endloop
endfacet
facet normal -1.0 0.0 0.0
  outer loop
    vertex 0.0 17.82842712474619 17.828427124746188
    vertex 0.0 25.0 30.0
    vertex 0.0 18.464101615137753 17.0
  endloop
endfacet
facet normal -1.0 0.0 0.0
  outer loop
    vertex 0.0 18.464101615137753 17.0
    vertex 0.0 25.0 30.0
    vertex 0.0 18.86370330515627 16.035276180410083
  endloop
endfacet
facet normal -1.0 0.0 0.0
  outer loop
    vertex 0.0 18.86370330515627 16.035276180410083
    vertex 0.0 25.0 30.0
    vertex 0.0 19.0 15.0
  endloop
endfacet
facet normal -1.0 0.0 0.0
  outer loop
    vertex 0.0 0.0 0.0
    vertex 0.0 12.17157287525381 12.17157287525381
    vertex 0.0 25.0 0.0
  endloop
endfacet
facet normal -1.0 0.0 0.0
  outer loop
    vertex 0.0 12.17157287525381 12.17157287525381
    vertex 0.0 0.0 0.0
    vertex 0.0 11.535898384862247 13.000000000000002
  endloop
endfacet
facet normal -1.0 0.0 0.0
  outer loop
    vertex 0.0 11.535898384862247 13.000000000000002
    vertex 0.0 0.0 0.0
    vertex 0.0 11.136296694843729 13.964723819589919
  endloop
endfacet
facet normal -1.0 0.0 0.0
  outer loop
    vertex 0.0 11.136296694843729 13.964723819589919
    vertex 0.0 0.0 0.0
    vertex 0.0 11.000000000000002 15.0
  endloop
endfacet
facet normal -1.0 0.0 0.0
  outer loop
    vertex 0.0 25.0 0.0
    vertex 0.0 12.17157287525381 12.17157287525381
    vertex 0.0 13.000000000000002 11.535898384862247
  endloop
endfacet
facet normal -1.0 0.0 0.0
  outer loop
    vertex 0.0 25.0 0.0
    vertex 0.0 13.000000000000002 11.535898384862247
    vertex 0.0 13.964723819589919 11.136296694843727
  endloop
endfacet
facet normal -1.0 0.0 0.0
  outer loop
    vertex 0.0 25.0 0.0
    vertex 0.0 13.964723819589919 11.136296694843727
    vertex 0.0 15.0 11.000000000000002
  endloop
endfacet
facet normal -1.0 0.0 0.0
  outer loop
    vertex 0.0 25.0 0.0
    vertex 0.0 15.0 11.000000000000002
    vertex 0.0 16.035276180410083 11.136296694843727
  endloop
endfacet
facet normal -1.0 0.0 0.0
  outer loop
    vertex 0.0 25.0 0.0
    vertex 0.0 16.035276180410083 11.136296694843727
    vertex 0.0 17.0 11.535898384862247
  endloop
endfacet
facet normal -1.0 0.0 0.0
  outer loop
    vertex 0.0 25.0 0.0
    vertex 0.0 17.0 11.535898384862247
    vertex 0.0 17.828427124746188 12.17157287525381
  endloop
endfacet
facet normal -1.0 0.0 0.0
  outer loop
    vertex 0.0 25.0 0.0
    vertex 0.0 17.828427124746188 12.17157287525381
    vertex 0.0 18.464101615137753 12.999999999999998
  endloop
endfacet
facet normal -1.0 0.0 0.0
  outer loop
    vertex 0.0 25.0 0.0
    vertex 0.0 18.464101615137753 12.999999999999998
    vertex 0.0 18.86370330515627 13.964723819589915
  endloop
endfacet
facet normal -1.0 0.0 0.0
  outer loop
    vertex 0.0 25.0 0.0
    vertex 0.0 18.86370330515627 13.964723819589915
    vertex 0.0 19.0 15.0
  endloop
endfacet
facet normal -1.0 0.0 0.0
  outer loop
    vertex 0.0 25.0 0.0
    vertex 0.0 19.0 15.0
    vertex 0.0 25.0 30.0
  endloop
endfacet
facet normal -0.0 1.0 0.0
  outer loop
    vertex 0.0 25.0 30.0
    vertex 5.0 25.0 0.0
    vertex 0.0 25.0 0.0
  endloop
endfacet
facet normal -0.0 1.0 0.0
  outer loop
    vertex 5.0 25.0 0.0
    vertex 0.0 25.0 30.0
    vertex 5.0 25.0 30.0
  endloop
endfacet
facet normal 1.0 0.0 0.0
  outer loop
    vertex 5.0 4.999999999999999 0.0
    vertex 5.000000000000001 11.136296694843729 13.964723819589924
    vertex 5.0 4.999999999999999 30.0
  endloop
endfacet
facet normal 1.0 0.0 0.0
  outer loop
    vertex 5.000000000000001 11.136296694843729 13.964723819589924
    vertex 5.0 4.999999999999999 0.0
    vertex 5.0 11.535898384862245 13.000000000000007
  endloop
endfacet
facet normal 1.0 0.0 0.0
  outer loop
    vertex 5.0 11.535898384862245 13.000000000000007
    vertex 5.0 4.999999999999999 0.0
    vertex 5.0 12.171572875253815 12.171572875253807
  endloop
endfacet
facet normal 1.0 0.0 0.0
  outer loop
    vertex 5.0 12.171572875253815 12.171572875253807
    vertex 5.0 4.999999999999999 0.0
    vertex 5.0 25.0 0.0
  endloop
endfacet
facet normal 1.0 0.0 0.0
  outer loop
    vertex 5.0 4.999999999999999 30.0
    vertex 5.000000000000001 11.136296694843729 13.964723819589924
    vertex 5.0 11.000000000000002 15.0
  endloop
endfacet
facet normal 1.0 0.0 0.0
  outer loop
    vertex 5.0 12.171572875253815 12.171572875253807
    vertex 5.0 25.0 0.0
    vertex 5.0 13.000000000000004 11.535898384862243
  endloop
endfacet
facet normal 1.0 0.0 0.0
  outer loop
    vertex 5.0 13.000000000000004 11.535898384862243
    vertex 5.0 25.0 0.0
    vertex 5.0 13.964723819589919 11.136296694843725
  endloop
endfacet
facet normal 1.0 0.0 0.0
  outer loop
    vertex 5.0 13.964723819589919 11.136296694843725
    vertex 5.0 25.0 0.0
    vertex 5.0 15.0 11.0
  endloop
endfacet
facet normal 1.0 0.0 0.0
  outer loop
    vertex 5.0 15.0 11.0
    vertex 5.0 25.0 0.0
    vertex 5.0 16.035276180410087 11.136296694843729
  endloop
endfacet
facet normal 1.0 0.0 0.0
  outer loop
    vertex 5.0 16.035276180410087 11.136296694843729
    vertex 5.0 25.0 0.0
    vertex 5.0 17.000000000000007 11.535898384862248
  endloop
endfacet
facet normal 1.0 0.0 0.0
  outer loop
    vertex 5.0 17.000000000000007 11.535898384862248
    vertex 5.0 25.0 0.0
    vertex 5.0 17.8284271247462 12.171572875253814
  endloop
endfacet
facet normal 1.0 0.0 0.0
  outer loop
    vertex 5.0 17.8284271247462 12.171572875253814
    vertex 5.0 25.0 0.0
    vertex 5.0 18.464101615137753 13.000000000000004
  endloop
endfacet
facet normal 1.0 0.0 0.0
  outer loop
    vertex 5.0 18.464101615137753 13.000000000000004
    vertex 5.0 25.0 0.0
    vertex 5.0 18.86370330515627 13.964723819589919
  endloop
endfacet
facet normal 1.0 0.0 0.0
  outer loop
    vertex 5.0 18.86370330515627 13.964723819589919
    vertex 5.0 25.0 0.0
    vertex 5.0 19.0 15.0
  endloop
endfacet
facet normal 1.0 0.0 0.0
  outer loop
    vertex 5.0 4.999999999999999 30.0
    vertex 5.000000000000001 12.171572875253815 17.8284271247462
    vertex 5.0 25.0 30.0
  endloop
endfacet
facet normal 1.0 0.0 0.0
  outer loop
    vertex 5.000000000000001 12.171572875253815 17.8284271247462
    vertex 5.0 4.999999999999999 30.0
    vertex 5.0 11.535898384862252 17.000000000000007
  endloop
endfacet
facet normal 1.0 0.0 0.0
  outer loop
    vertex 5.0 11.535898384862252 17.000000000000007
    vertex 5.0 4.999999999999999 30.0
    vertex 5.0 11.136296694843729 16.03527618041009
  endloop
endfacet
facet normal 1.0 0.0 0.0
  outer loop
    vertex 5.0 11.136296694843729 16.03527618041009
    vertex 5.0 4.999999999999999 30.0
    vertex 5.0 11.000000000000002 15.0
  endloop
endfacet
facet normal 1.0 0.0 0.0
  outer loop
    vertex 5.0 25.0 30.0
    vertex 5.000000000000001 12.171572875253815 17.8284271247462
    vertex 5.0 13.000000000000004 18.464101615137757
  endloop
endfacet
facet normal 1.0 0.0 0.0
  outer loop
    vertex 5.0 25.0 30.0
    vertex 5.0 13.000000000000004 18.464101615137757
    vertex 5.0 13.96472381958992 18.863703305156278
  endloop
endfacet
facet normal 1.0 0.0 0.0
  outer loop
    vertex 5.0 25.0 30.0
    vertex 5.0 13.96472381958992 18.863703305156278
    vertex 5.0 15.0 19.0
  endloop
endfacet
facet normal 1.0 0.0 0.0
  outer loop
    vertex 5.0 25.0 30.0
    vertex 5.0 15.0 19.0
    vertex 5.0 16.035276180410094 18.863703305156267
  endloop
endfacet
facet normal 1.0 0.0 0.0
  outer loop
    vertex 5.0 25.0 30.0
    vertex 5.0 16.035276180410094 18.863703305156267
    vertex 5.0 17.000000000000004 18.464101615137757
  endloop
endfacet
facet normal 1.0 0.0 0.0
  outer loop
    vertex 5.0 25.0 30.0
    vertex 5.0 17.000000000000004 18.464101615137757
    vertex 5.0 17.828427124746195 17.828427124746188
  endloop
endfacet
facet normal 1.0 0.0 0.0
  outer loop
    vertex 5.0 25.0 30.0
    vertex 5.0 17.828427124746195 17.828427124746188
    vertex 5.000000000000001 18.464101615137753 17.0
  endloop
endfacet
facet normal 1.0 0.0 0.0
  outer loop
    vertex 5.0 25.0 30.0
    vertex 5.000000000000001 18.464101615137753 17.0
    vertex 5.0 18.86370330515627 16.035276180410087
  endloop
endfacet
facet normal 1.0 0.0 0.0
  outer loop
    vertex 5.0 25.0 30.0
    vertex 5.0 18.86370330515627 16.035276180410087
    vertex 5.0 19.0 15.0
  endloop
endfacet
facet normal 1.0 0.0 0.0
  outer loop
    vertex 5.0 25.0 30.0
    vertex 5.0 19.0 15.0
    vertex 5.0 25.0 0.0
  endloop
endfacet
facet normal -0.0 1.0 0.0
  outer loop
    vertex 5.0 4.999999999999999 30.0
    vertex 29.999999999999996 4.999999999999999 0.0
    vertex 5.0 4.999999999999999 0.0
  endloop
endfacet
facet normal -0.0 1.0 0.0
  outer loop
    vertex 29.999999999999996 4.999999999999999 0.0
    vertex 5.0 4.999999999999999 30.0
    vertex 29.999999999999996 4.999999999999999 30.0
  endloop
endfacet
facet normal -1.0 0.0 0.0
  outer loop
    vertex 29.999999999999996 4.999999999999999 30.0
    vertex 29.99999999999999 11.136296694843727 16.03527618041009
    vertex 29.999999999999996 4.999999999999999 0.0
  endloop
endfacet
facet normal -1.0 0.0 0.0
  outer loop
    vertex 29.99999999999999 11.136296694843727 16.03527618041009
    vertex 29.999999999999996 4.999999999999999 30.0
    vertex 29.999999999999996 11.535898384862252 17.000000000000007
  endloop
endfacet
facet normal -1.0 0.0 0.0
  outer loop
    vertex 29.999999999999996 11.535898384862252 17.000000000000007
    vertex 29.999999999999996 4.999999999999999 30.0
    vertex 29.999999999999996 12.171572875253812 17.828427124746195
  endloop
endfacet
facet normal -1.0 0.0 0.0
  outer loop
    vertex 29.999999999999996 12.171572875253812 17.828427124746195
    vertex 29.999999999999996 4.999999999999999 30.0
    vertex 29.999999999999996 25.0 30.0
  endloop
endfacet
facet normal -1.0 0.0 0.0
  outer loop
    vertex 29.999999999999996 4.999999999999999 0.0
    vertex 29.99999999999999 11.136296694843727 16.03527618041009
    vertex 29.999999999999996 11.000000000000002 15.0
  endloop
endfacet
facet normal -1.0 0.0 0.0
  outer loop
    vertex 29.999999999999996 12.171572875253812 17.828427124746195
    vertex 29.999999999999996 25.0 30.0
    vertex 29.999999999999996 13.00000000000001 18.46410161513776
  endloop
endfacet
facet normal -1.0 0.0 0.0
  outer loop
    vertex 29.999999999999996 13.00000000000001 18.46410161513776
    vertex 29.999999999999996 25.0 30.0
    vertex 29.999999999999996 13.96472381958992 18.863703305156278
  endloop
endfacet
facet normal -1.0 0.0 0.0
  outer loop
    vertex 29.999999999999996 13.96472381958992 18.863703305156278
    vertex 29.999999999999996 25.0 30.0
    vertex 29.99999999999999 15.0 19.0
  endloop
endfacet
facet normal -1.0 0.0 0.0
  outer loop
    vertex 29.99999999999999 15.0 19.0
    vertex 29.999999999999996 25.0 30.0
    vertex 29.999999999999996 16.035276180410087 18.863703305156267
  endloop
endfacet
facet normal -1.0 0.0 0.0
  outer loop
    vertex 29.999999999999996 16.035276180410087 18.863703305156267
    vertex 29.999999999999996 25.0 30.0
    vertex 29.999999999999996 17.000000000000007 18.46410161513775
  endloop
endfacet
facet normal -1.0 0.0 0.0
  outer loop
    vertex 29.999999999999996 17.000000000000007 18.46410161513775
    vertex 29.999999999999996 25.0 30.0
    vertex 29.999999999999996 17.82842712474619 17.828427124746188
  endloop
endfacet
facet normal -1.0 0.0 0.0
  outer loop
    vertex 29.999999999999996 17.82842712474619 17.828427124746188
    vertex 29.999999999999996 25.0 30.0
    vertex 29.999999999999996 18.464101615137753 16.999999999999996
  endloop
endfacet
facet normal -1.0 0.0 0.0
  outer loop
    vertex 29.999999999999996 18.464101615137753 16.999999999999996
    vertex 29.999999999999996 25.0 30.0
    vertex 29.999999999999996 18.86370330515627 16.035276180410083
  endloop
endfacet
facet normal -1.0 0.0 0.0
  outer loop
    vertex 29.999999999999996 18.86370330515627 16.035276180410083
    vertex 29.999999999999996 25.0 30.0
    vertex 29.99999999999999 19.000000000000004 15.0
  endloop
endfacet
facet normal -1.0 0.0 0.0
  outer loop
    vertex 29.999999999999996 4.999999999999999 0.0
    vertex 29.999999999999996 12.171572875253815 12.171572875253808
    vertex 29.999999999999996 25.0 0.0
  endloop
endfacet
facet normal -1.0 0.0 0.0
  outer loop
    vertex 29.999999999999996 12.171572875253815 12.171572875253808
    vertex 29.999999999999996 4.999999999999999 0.0
    vertex 29.999999999999996 11.535898384862245 13.000000000000007
  endloop
endfacet
facet normal -1.0 0.0 0.0
  outer loop
    vertex 29.999999999999996 11.535898384862245 13.000000000000007
    vertex 29.999999999999996 4.999999999999999 0.0
    vertex 29.999999999999996 11.136296694843729 13.964723819589919
  endloop
endfacet
facet normal -1.0 0.0 0.0
  outer loop
    vertex 29.999999999999996 11.136296694843729 13.964723819589919
    vertex 29.999999999999996 4.999999999999999 0.0
    vertex 29.999999999999996 11.000000000000002 15.0
  endloop
endfacet
facet normal -1.0 0.0 0.0
  outer loop
    vertex 29.999999999999996 25.0 0.0
    vertex 29.999999999999996 12.171572875253815 12.171572875253808
    vertex 29.999999999999996 13.000000000000007 11.535898384862245
  endloop
endfacet
facet normal -1.0 0.0 0.0
  outer loop
    vertex 29.999999999999996 25.0 0.0
    vertex 29.999999999999996 13.000000000000007 11.535898384862245
    vertex 29.999999999999996 13.96472381958992 11.136296694843727
  endloop
endfacet
facet normal -1.0 0.0 0.0
  outer loop
    vertex 29.999999999999996 25.0 0.0
    vertex 29.999999999999996 13.96472381958992 11.136296694843727
    vertex 29.999999999999996 15.0 11.000000000000002
  endloop
endfacet
facet normal -1.0 0.0 0.0
  outer loop
    vertex 29.999999999999996 25.0 0.0
    vertex 29.999999999999996 15.0 11.000000000000002
    vertex 29.999999999999996 16.035276180410087 11.13629669484373
  endloop
endfacet
facet normal -1.0 0.0 0.0
  outer loop
    vertex 29.999999999999996 25.0 0.0
    vertex 29.999999999999996 16.035276180410087 11.13629669484373
    vertex 29.999999999999996 17.000000000000004 11.53589838486225
  endloop
endfacet
facet normal -1.0 0.0 0.0
  outer loop
    vertex 29.999999999999996 25.0 0.0
    vertex 29.999999999999996 17.000000000000004 11.53589838486225
    vertex 29.999999999999996 17.828427124746195 12.171572875253815
  endloop
endfacet
facet normal -1.0 0.0 0.0
  outer loop
    vertex 29.999999999999996 25.0 0.0
    vertex 29.999999999999996 17.828427124746195 12.171572875253815
    vertex 29.999999999999996 18.464101615137753 12.999999999999998
  endloop
endfacet
facet normal -1.0 0.0 0.0
  outer loop
    vertex 29.999999999999996 25.0 0.0
    vertex 29.999999999999996 18.464101615137753 12.999999999999998
    vertex 29.999999999999996 18.86370330515627 13.964723819589915
  endloop
endfacet
facet normal -1.0 0.0 0.0
  outer loop
    vertex 29.999999999999996 25.0 0.0
    vertex 29.999999999999996 18.86370330515627 13.964723819589915
    vertex 29.99999999999999 19.000000000000004 15.0
  endloop
endfacet
facet normal -1.0 0.0 0.0
  outer loop
    vertex 29.999999999999996 25.0 0.0
    vertex 29.99999999999999 19.000000000000004 15.0
    vertex 29.999999999999996 25.0 30.0
  endloop
endfacet
facet normal -0.0 1.0 0.0
  outer loop
    vertex 29.999999999999996 25.0 30.0
    vertex 35.0 25.0 0.0
    vertex 29.999999999999996 25.0 0.0
  endloop
endfacet
facet normal -0.0 1.0 0.0
  outer loop
    vertex 35.0 25.0 0.0
    vertex 29.999999999999996 25.0 30.0
    vertex 35.0 25.0 30.0
  endloop
endfacet
facet normal 1.0 0.0 0.0
  outer loop
    vertex 35.0 0.0 0.0
    vertex 35.0 11.535898384862247 13.000000000000002
    vertex 35.0 0.0 30.0
  endloop
endfacet
facet normal 1.0 0.0 0.0
  outer loop
    vertex 35.0 11.535898384862247 13.000000000000002
    vertex 35.0 0.0 0.0
    vertex 35.0 12.17157287525381 12.17157287525381
  endloop
endfacet
facet normal 1.0 0.0 0.0
  outer loop
    vertex 35.0 12.17157287525381 12.17157287525381
    vertex 35.0 0.0 0.0
    vertex 35.0 25.0 0.0
  endloop
endfacet
facet normal 1.0 0.0 0.0
  outer loop
    vertex 35.0 0.0 30.0
    vertex 35.0 11.535898384862247 13.000000000000002
    vertex 35.0 11.136296694843729 13.964723819589919
  endloop
endfacet
facet normal 1.0 0.0 0.0
  outer loop
    vertex 35.0 0.0 30.0
    vertex 35.0 11.136296694843729 13.964723819589919
    vertex 35.0 11.000000000000002 15.0
  endloop
endfacet
facet normal 1.0 0.0 0.0
  outer loop
    vertex 35.0 12.17157287525381 12.17157287525381
    vertex 35.0 25.0 0.0
    vertex 35.0 13.000000000000002 11.535898384862247
  endloop
endfacet
facet normal 1.0 0.0 0.0
  outer loop
    vertex 35.0 13.000000000000002 11.535898384862247
    vertex 35.0 25.0 0.0
    vertex 35.0 13.964723819589919 11.136296694843727
  endloop
endfacet
facet normal 1.0 0.0 0.0
  outer loop
    vertex 35.0 13.964723819589919 11.136296694843727
    vertex 35.0 25.0 0.0
    vertex 35.0 15.0 11.000000000000002
  endloop
endfacet
facet normal 1.0 0.0 0.0
  outer loop
    vertex 35.0 15.0 11.000000000000002
    vertex 35.0 25.0 0.0
    vertex 35.0 16.035276180410083 11.136296694843727
  endloop
endfacet
facet normal 1.0 0.0 0.0
  outer loop
    vertex 35.0 16.035276180410083 11.136296694843727
    vertex 35.0 25.0 0.0
    vertex 35.0 17.0 11.535898384862247
  endloop
endfacet
facet normal 1.0 0.0 0.0
  outer loop
    vertex 35.0 17.0 11.535898384862247
    vertex 35.0 25.0 0.0
    vertex 35.0 17.828427124746188 12.17157287525381
  endloop
endfacet
facet normal 1.0 0.0 0.0
  outer loop
    vertex 35.0 17.828427124746188 12.17157287525381
    vertex 35.0 25.0 0.0
    vertex 35.0 18.464101615137753 12.999999999999998
  endloop
endfacet
facet normal 1.0 0.0 0.0
  outer loop
    vertex 35.0 18.464101615137753 12.999999999999998
    vertex 35.0 25.0 0.0
    vertex 35.0 18.86370330515627 13.964723819589915
  endloop
endfacet
facet normal 1.0 0.0 0.0
  outer loop
    vertex 35.0 18.86370330515627 13.964723819589915
    vertex 35.0 25.0 0.0
    vertex 35.0 19.0 15.0
  endloop
endfacet
facet normal 1.0 0.0 0.0
  outer loop
    vertex 35.0 0.0 30.0
    vertex 35.0 12.171572875253812 17.82842712474619
    vertex 35.0 25.0 30.0
  endloop
endfacet
facet normal 1.0 0.0 0.0
  outer loop
    vertex 35.0 12.171572875253812 17.82842712474619
    vertex 35.0 0.0 30.0
    vertex 35.0 11.535898384862248 17.000000000000004
  endloop
endfacet
facet normal 1.0 0.0 0.0
  outer loop
    vertex 35.0 11.535898384862248 17.000000000000004
    vertex 35.0 0.0 30.0
    vertex 35.0 11.136296694843729 16.035276180410087
  endloop
endfacet
facet normal 1.0 0.0 0.0
  outer loop
    vertex 35.0 11.136296694843729 16.035276180410087
    vertex 35.0 0.0 30.0
    vertex 35.0 11.000000000000002 15.0
  endloop
endfacet
facet normal 1.0 0.0 0.0
  outer loop
    vertex 35.0 25.0 30.0
    vertex 35.0 12.171572875253812 17.82842712474619
    vertex 35.0 13.000000000000004 18.464101615137757
  endloop
endfacet
facet normal 1.0 0.0 0.0
  outer loop
    vertex 35.0 25.0 30.0
    vertex 35.0 13.000000000000004 18.464101615137757
    vertex 35.0 13.96472381958992 18.863703305156275
  endloop
endfacet
facet normal 1.0 0.0 0.0
  outer loop
    vertex 35.0 25.0 30.0
    vertex 35.0 13.96472381958992 18.863703305156275
    vertex 35.0 15.0 19.0
  endloop
endfacet
facet normal 1.0 0.0 0.0
  outer loop
    vertex 35.0 25.0 30.0
    vertex 35.0 15.0 19.0
    vertex 35.0 16.035276180410087 18.86370330515627
  endloop
endfacet
facet normal 1.0 0.0 0.0
  outer loop
    vertex 35.0 25.0 30.0
    vertex 35.0 16.035276180410087 18.86370330515627
    vertex 35.0 17.000000000000004 18.464101615137753
  endloop
endfacet
facet normal 1.0 0.0 0.0
  outer loop
    vertex 35.0 25.0 30.0
    vertex 35.0 17.000000000000004 18.464101615137753
    vertex 35.0 17.82842712474619 17.828427124746188
  endloop
endfacet
facet normal 1.0 0.0 0.0
  outer loop
    vertex 35.0 25.0 30.0
    vertex 35.0 17.82842712474619 17.828427124746188
    vertex 35.0 18.464101615137753 17.0
  endloop
endfacet
facet normal 1.0 0.0 0.0
  outer loop
    vertex 35.0 25.0 30.0
    vertex 35.0 18.464101615137753 17.0
    vertex 35.0 18.86370330515627 16.035276180410083
  endloop
endfacet
facet normal 1.0 0.0 0.0
  outer loop
    vertex 35.0 25.0 30.0
    vertex 35.0 18.86370330515627 16.035276180410083
    vertex 35.0 19.0 15.0
  endloop
endfacet
facet normal 1.0 0.0 0.0
  outer loop
    vertex 35.0 25.0 30.0
    vertex 35.0 19.0 15.0
    vertex 35.0 25.0 0.0
  endloop
endfacet
facet normal -0.0 -1.0 -0.0
  outer loop
    vertex 35.0 0.0 30.0
    vertex 14.999999999999998 0.0 0.0
    vertex 35.0 0.0 0.0
  endloop
endfacet
facet normal -0.0 -1.0 -0.0
  outer loop
    vertex 14.999999999999998 0.0 0.0
    vertex 35.0 0.0 30.0
    vertex 14.999999999999998 0.0 30.0
  endloop
endfacet
facet normal -2.794357148019404e-16 0.1305261922200482 -0.9914448613738109
  outer loop
    vertex 35.0 15.0 19.0
    vertex 29.999999999999996 13.96472381958992 18.863703305156278
    vertex 29.99999999999999 15.0 19.0
  endloop
endfacet
facet normal -2.794357148019404e-16 0.1305261922200482 -0.9914448613738109
  outer loop
    vertex 29.999999999999996 13.96472381958992 18.863703305156278
    vertex 35.0 15.0 19.0
    vertex 35.0 13.96472381958992 18.863703305156275
  endloop
endfacet
facet normal 8.703839199562976e-17 0.9238795325112868 0.38268343236508945
  outer loop
    vertex 29.999999999999996 11.535898384862245 13.000000000000007
    vertex 35.0 11.136296694843729 13.964723819589919
    vertex 35.0 11.535898384862247 13.000000000000002
  endloop
endfacet
facet normal 8.703839199562976e-17 0.9238795325112868 0.38268343236508945
  outer loop
    vertex 35.0 11.136296694843729 13.964723819589919
    vertex 29.999999999999996 11.535898384862245 13.000000000000007
    vertex 29.999999999999996 11.136296694843729 13.964723819589919
  endloop
endfacet
facet normal 2.795250370268773e-16 -0.1305261922200528 -0.9914448613738103
  outer loop
    vertex 29.999999999999996 16.035276180410087 18.863703305156267
    vertex 35.0 15.0 19.0
    vertex 29.99999999999999 15.0 19.0
  endloop
endfacet
facet normal 2.795250370268773e-16 -0.1305261922200528 -0.9914448613738103
  outer loop
    vertex 35.0 15.0 19.0
    vertex 29.999999999999996 16.035276180410087 18.863703305156267
    vertex 35.0 16.035276180410087 18.86370330515627
  endloop
endfacet
facet normal 2.436534889903286e-16 -0.13052619222005293 0.9914448613738103
  outer loop
    vertex 35.0 15.0 11.000000000000002
    vertex 29.999999999999996 16.035276180410087 11.13629669484373
    vertex 29.999999999999996 15.0 11.000000000000002
  endloop
endfacet
facet normal 2.436534889903286e-16 -0.13052619222005293 0.9914448613738103
  outer loop
    vertex 29.999999999999996 16.035276180410087 11.13629669484373
    vertex 35.0 15.0 11.000000000000002
    vertex 35.0 16.035276180410083 11.136296694843727
  endloop
endfacet
facet normal -2.808227141861307e-16 -0.9914448613738103 0.1305261922200528
  outer loop
    vertex 35.0 19.0 15.0
    vertex 29.999999999999996 18.86370330515627 13.964723819589915
    vertex 35.0 18.86370330515627 13.964723819589915
  endloop
endfacet
facet normal -2.808227141861307e-16 -0.9914448613738103 0.1305261922200528
  outer loop
    vertex 29.999999999999996 18.86370330515627 13.964723819589915
    vertex 35.0 19.0 15.0
    vertex 29.99999999999999 19.000000000000004 15.0
  endloop
endfacet
facet normal -1.0356655118707751e-16 0.13052619222005132 0.9914448613738105
  outer loop
    vertex 35.0 13.964723819589919 11.136296694843727
    vertex 29.999999999999996 15.0 11.000000000000002
    vertex 29.999999999999996 13.96472381958992 11.136296694843727
  endloop
endfacet
facet normal -1.0356655118707751e-16 0.13052619222005132 0.9914448613738105
  outer loop
    vertex 29.999999999999996 15.0 11.000000000000002
    vertex 35.0 13.964723819589919 11.136296694843727
    vertex 35.0 15.0 11.000000000000002
  endloop
endfacet
facet normal -1.7801984239349035e-16 0.7933533402912358 -0.6087614290087199
  outer loop
    vertex 29.999999999999996 11.535898384862252 17.000000000000007
    vertex 35.0 12.171572875253812 17.82842712474619
    vertex 35.0 11.535898384862248 17.000000000000004
  endloop
endfacet
facet normal -1.7801984239349035e-16 0.7933533402912358 -0.6087614290087199
  outer loop
    vertex 35.0 12.171572875253812 17.82842712474619
    vertex 29.999999999999996 11.535898384862252 17.000000000000007
    vertex 29.999999999999996 12.171572875253812 17.828427124746195
  endloop
endfacet
facet normal 1.0921380297049395e-16 -0.9238795325112868 -0.38268343236508956
  outer loop
    vertex 35.0 18.464101615137753 17.0
    vertex 29.999999999999996 18.86370330515627 16.035276180410083
    vertex 35.0 18.86370330515627 16.035276180410083
  endloop
endfacet
facet normal 1.0921380297049395e-16 -0.9238795325112868 -0.38268343236508956
  outer loop
    vertex 29.999999999999996 18.86370330515627 16.035276180410083
    vertex 35.0 18.464101615137753 17.0
    vertex 29.999999999999996 18.464101615137753 16.999999999999996
  endloop
endfacet
facet normal -6.696974114408742e-17 0.3826834323650901 0.9238795325112867
  outer loop
    vertex 35.0 13.000000000000002 11.535898384862247
    vertex 29.999999999999996 13.96472381958992 11.136296694843727
    vertex 29.999999999999996 13.000000000000007 11.535898384862245
  endloop
endfacet
facet normal -6.696974114408742e-17 0.3826834323650901 0.9238795325112867
  outer loop
    vertex 29.999999999999996 13.96472381958992 11.136296694843727
    vertex 35.0 13.000000000000002 11.535898384862247
    vertex 35.0 13.964723819589919 11.136296694843727
  endloop
endfacet
facet normal -6.080836872788503e-17 0.923879532511286 -0.38268343236509206
  outer loop
    vertex 29.99999999999999 11.136296694843727 16.03527618041009
    vertex 35.0 11.535898384862248 17.000000000000004
    vertex 35.0 11.136296694843729 16.035276180410087
  endloop
endfacet
facet normal -6.080836872788503e-17 0.923879532511286 -0.38268343236509206
  outer loop
    vertex 35.0 11.535898384862248 17.000000000000004
    vertex 29.99999999999999 11.136296694843727 16.03527618041009
    vertex 29.999999999999996 11.535898384862252 17.000000000000007
  endloop
endfacet
facet normal 1.7373407140439132e-16 -0.7933533402912364 -0.608761429008719
  outer loop
    vertex 35.0 18.464101615137753 17.0
    vertex 29.999999999999996 17.82842712474619 17.828427124746188
    vertex 29.999999999999996 18.464101615137753 16.999999999999996
  endloop
endfacet
facet normal 1.7373407140439132e-16 -0.7933533402912364 -0.608761429008719
  outer loop
    vertex 29.999999999999996 17.82842712474619 17.828427124746188
    vertex 35.0 18.464101615137753 17.0
    vertex 35.0 17.82842712474619 17.828427124746188
  endloop
endfacet
facet normal -1.0773475505221628e-16 0.6087614290087188 -0.7933533402912368
  outer loop
    vertex 35.0 13.000000000000004 18.464101615137757
    vertex 29.999999999999996 12.171572875253812 17.828427124746195
    vertex 29.999999999999996 13.00000000000001 18.46410161513776
  endloop
endfacet
facet normal -1.0773475505221628e-16 0.6087614290087188 -0.7933533402912368
  outer loop
    vertex 29.999999999999996 12.171572875253812 17.828427124746195
    vertex 35.0 13.000000000000004 18.464101615137757
    vertex 35.0 12.171572875253812 17.82842712474619
  endloop
endfacet
facet normal 4.498825716802467e-17 -0.6087614290087202 0.7933533402912355
  outer loop
    vertex 35.0 17.0 11.535898384862247
    vertex 29.999999999999996 17.828427124746195 12.171572875253815
    vertex 29.999999999999996 17.000000000000004 11.53589838486225
  endloop
endfacet
facet normal 4.498825716802467e-17 -0.6087614290087202 0.7933533402912355
  outer loop
    vertex 29.999999999999996 17.828427124746195 12.171572875253815
    vertex 35.0 17.0 11.535898384862247
    vertex 35.0 17.828427124746188 12.17157287525381
  endloop
endfacet
facet normal 3.080162662794344e-16 -0.38268343236509034 0.9238795325112867
  outer loop
    vertex 35.0 16.035276180410083 11.136296694843727
    vertex 29.999999999999996 17.000000000000004 11.53589838486225
    vertex 29.999999999999996 16.035276180410087 11.13629669484373
  endloop
endfacet
facet normal 3.080162662794344e-16 -0.38268343236509034 0.9238795325112867
  outer loop
    vertex 29.999999999999996 17.000000000000004 11.53589838486225
    vertex 35.0 16.035276180410083 11.136296694843727
    vertex 35.0 17.0 11.535898384862247
  endloop
endfacet
facet normal -2.8082271418613063e-16 -0.9914448613738103 -0.13052619222005313
  outer loop
    vertex 35.0 18.86370330515627 16.035276180410083
    vertex 29.99999999999999 19.000000000000004 15.0
    vertex 35.0 19.0 15.0
  endloop
endfacet
facet normal -2.8082271418613063e-16 -0.9914448613738103 -0.13052619222005313
  outer loop
    vertex 29.99999999999999 19.000000000000004 15.0
    vertex 35.0 18.86370330515627 16.035276180410083
    vertex 29.999999999999996 18.86370330515627 16.035276180410083
  endloop
endfacet
facet normal 3.4731441085707623e-16 0.6087614290087202 0.7933533402912355
  outer loop
    vertex 35.0 12.17157287525381 12.17157287525381
    vertex 29.999999999999996 13.000000000000007 11.535898384862245
    vertex 29.999999999999996 12.171572875253815 12.171572875253808
  endloop
endfacet
facet normal 3.4731441085707623e-16 0.6087614290087202 0.7933533402912355
  outer loop
    vertex 29.999999999999996 13.000000000000007 11.535898384862245
    vertex 35.0 12.17157287525381 12.17157287525381
    vertex 35.0 13.000000000000002 11.535898384862247
  endloop
endfacet
facet normal -8.303774533527519e-32 0.9914448613738105 0.13052619222005177
  outer loop
    vertex 29.999999999999996 11.000000000000002 15.0
    vertex 35.0 11.136296694843729 13.964723819589919
    vertex 29.999999999999996 11.136296694843729 13.964723819589919
  endloop
endfacet
facet normal -8.303774533527519e-32 0.9914448613738105 0.13052619222005177
  outer loop
    vertex 35.0 11.136296694843729 13.964723819589919
    vertex 29.999999999999996 11.000000000000002 15.0
    vertex 35.0 11.000000000000002 15.0
  endloop
endfacet
facet normal -1.7741930130444672e-16 0.9914448613738107 -0.13052619222005066
  outer loop
    vertex 29.99999999999999 11.136296694843727 16.03527618041009
    vertex 35.0 11.000000000000002 15.0
    vertex 29.999999999999996 11.000000000000002 15.0
  endloop
endfacet
facet normal -1.7741930130444672e-16 0.9914448613738107 -0.13052619222005066
  outer loop
    vertex 35.0 11.000000000000002 15.0
    vertex 29.99999999999999 11.136296694843727 16.03527618041009
    vertex 35.0 11.136296694843729 16.035276180410087
  endloop
endfacet
facet normal -3.0587481916236713e-16 0.38268343236509006 -0.9238795325112867
  outer loop
    vertex 35.0 13.96472381958992 18.863703305156275
    vertex 29.999999999999996 13.00000000000001 18.46410161513776
    vertex 29.999999999999996 13.96472381958992 18.863703305156278
  endloop
endfacet
facet normal -3.0587481916236713e-16 0.38268343236509006 -0.9238795325112867
  outer loop
    vertex 29.999999999999996 13.00000000000001 18.46410161513776
    vertex 35.0 13.96472381958992 18.863703305156275
    vertex 35.0 13.000000000000004 18.464101615137757
  endloop
endfacet
facet normal 5.884540020376499e-16 0.7933533402912356 0.6087614290087203
  outer loop
    vertex 29.999999999999996 11.535898384862245 13.000000000000007
    vertex 35.0 12.17157287525381 12.17157287525381
    vertex 29.999999999999996 12.171572875253815 12.171572875253808
  endloop
endfacet
facet normal 5.884540020376499e-16 0.7933533402912356 0.6087614290087203
  outer loop
    vertex 35.0 12.17157287525381 12.17157287525381
    vertex 29.999999999999996 11.535898384862245 13.000000000000007
    vertex 35.0 11.535898384862247 13.000000000000002
  endloop
endfacet
facet normal 2.6108048899314188e-16 -0.9238795325112867 0.38268343236509034
  outer loop
    vertex 35.0 18.86370330515627 13.964723819589915
    vertex 29.999999999999996 18.464101615137753 12.999999999999998
    vertex 35.0 18.464101615137753 12.999999999999998
  endloop
endfacet
facet normal 2.6108048899314188e-16 -0.9238795325112867 0.38268343236509034
  outer loop
    vertex 29.999999999999996 18.464101615137753 12.999999999999998
    vertex 35.0 18.86370330515627 13.964723819589915
    vertex 29.999999999999996 18.86370330515627 13.964723819589915
  endloop
endfacet
facet normal 2.736227730961055e-16 -0.6087614290087203 -0.7933533402912354
  outer loop
    vertex 35.0 17.82842712474619 17.828427124746188
    vertex 29.999999999999996 17.000000000000007 18.46410161513775
    vertex 29.999999999999996 17.82842712474619 17.828427124746188
  endloop
endfacet
facet normal 2.736227730961055e-16 -0.6087614290087203 -0.7933533402912354
  outer loop
    vertex 29.999999999999996 17.000000000000007 18.46410161513775
    vertex 35.0 17.82842712474619 17.828427124746188
    vertex 35.0 17.000000000000004 18.464101615137753
  endloop
endfacet
facet normal 3.3516134436645406e-17 -0.7933533402912355 0.6087614290087204
  outer loop
    vertex 35.0 18.464101615137753 12.999999999999998
    vertex 29.999999999999996 17.828427124746195 12.171572875253815
    vertex 35.0 17.828427124746188 12.17157287525381
  endloop
endfacet
facet normal 3.3516134436645406e-17 -0.7933533402912355 0.6087614290087204
  outer loop
    vertex 29.999999999999996 17.828427124746195 12.171572875253815
    vertex 35.0 18.464101615137753 12.999999999999998
    vertex 29.999999999999996 18.464101615137753 12.999999999999998
  endloop
endfacet
facet normal 6.76169111126002e-16 -0.3826834323650897 -0.9238795325112867
  outer loop
    vertex 35.0 17.000000000000004 18.464101615137753
    vertex 29.999999999999996 16.035276180410087 18.863703305156267
    vertex 29.999999999999996 17.000000000000007 18.46410161513775
  endloop
endfacet
facet normal 6.76169111126002e-16 -0.3826834323650897 -0.9238795325112867
  outer loop
    vertex 29.999999999999996 16.035276180410087 18.863703305156267
    vertex 35.0 17.000000000000004 18.464101615137753
    vertex 35.0 16.035276180410087 18.86370330515627
  endloop
endfacet
facet normal 1.593823811079216e-16 -0.7933533402912368 0.6087614290087188
  outer loop
    vertex 5.0 17.8284271247462 12.171572875253814
    vertex 0.0 18.464101615137753 12.999999999999998
    vertex 0.0 17.828427124746188 12.17157287525381
  endloop
endfacet
facet normal 1.593823811079216e-16 -0.7933533402912368 0.6087614290087188
  outer loop
    vertex 0.0 18.464101615137753 12.999999999999998
    vertex 5.0 17.8284271247462 12.171572875253814
    vertex 5.0 18.464101615137753 13.000000000000004
  endloop
endfacet
facet normal -3.115784104735597e-16 0.7933533402912357 0.6087614290087201
  outer loop
    vertex 0.0 12.17157287525381 12.17157287525381
    vertex 5.0 11.535898384862245 13.000000000000007
    vertex 5.0 12.171572875253815 12.171572875253807
  endloop
endfacet
facet normal -3.115784104735597e-16 0.7933533402912357 0.6087614290087201
  outer loop
    vertex 5.0 11.535898384862245 13.000000000000007
    vertex 0.0 12.17157287525381 12.17157287525381
    vertex 0.0 11.535898384862247 13.000000000000002
  endloop
endfacet
facet normal 3.652038661617502e-17 -0.9914448613738105 -0.13052619222005163
  outer loop
    vertex 5.0 18.86370330515627 16.035276180410087
    vertex 0.0 19.0 15.0
    vertex 5.0 19.0 15.0
  endloop
endfacet
facet normal 3.652038661617502e-17 -0.9914448613738105 -0.13052619222005163
  outer loop
    vertex 0.0 19.0 15.0
    vertex 5.0 18.86370330515627 16.035276180410087
    vertex 0.0 18.86370330515627 16.035276180410083
  endloop
endfacet
facet normal 6.227802568419829e-17 -0.3826834323650871 -0.9238795325112881
  outer loop
    vertex 5.0 17.000000000000004 18.464101615137757
    vertex 0.0 16.035276180410087 18.86370330515627
    vertex 0.0 17.000000000000004 18.464101615137753
  endloop
endfacet
facet normal 6.227802568419829e-17 -0.3826834323650871 -0.9238795325112881
  outer loop
    vertex 0.0 16.035276180410087 18.86370330515627
    vertex 5.0 17.000000000000004 18.464101615137757
    vertex 5.0 16.035276180410094 18.863703305156267
  endloop
endfacet
facet normal -3.652038661617501e-17 -0.9914448613738105 0.1305261922200516
  outer loop
    vertex 5.0 18.86370330515627 13.964723819589919
    vertex 0.0 19.0 15.0
    vertex 0.0 18.86370330515627 13.964723819589915
  endloop
endfacet
facet normal -3.652038661617501e-17 -0.9914448613738105 0.1305261922200516
  outer loop
    vertex 0.0 19.0 15.0
    vertex 5.0 18.86370330515627 13.964723819589919
    vertex 5.0 19.0 15.0
  endloop
endfacet
facet normal -1.5019568236995208e-16 0.7933533402912358 -0.6087614290087198
  outer loop
    vertex 0.0 12.171572875253812 17.82842712474619
    vertex 5.0 11.535898384862252 17.000000000000007
    vertex 0.0 11.535898384862248 17.000000000000004
  endloop
endfacet
facet normal -1.5019568236995208e-16 0.7933533402912358 -0.6087614290087198
  outer loop
    vertex 5.0 11.535898384862252 17.000000000000007
    vertex 0.0 12.171572875253812 17.82842712474619
    vertex 5.000000000000001 12.171572875253815 17.8284271247462
  endloop
endfacet
facet normal -1.6826161594246987e-16 -0.7933533402912368 -0.6087614290087188
  outer loop
    vertex 5.0 17.828427124746195 17.828427124746188
    vertex 0.0 18.464101615137753 17.0
    vertex 5.000000000000001 18.464101615137753 17.0
  endloop
endfacet
facet normal -1.6826161594246987e-16 -0.7933533402912368 -0.6087614290087188
  outer loop
    vertex 0.0 18.464101615137753 17.0
    vertex 5.0 17.828427124746195 17.828427124746188
    vertex 0.0 17.82842712474619 17.828427124746188
  endloop
endfacet
facet normal -3.254999617944122e-16 -0.9238795325112868 0.3826834323650895
  outer loop
    vertex 5.0 18.464101615137753 13.000000000000004
    vertex 0.0 18.86370330515627 13.964723819589915
    vertex 0.0 18.464101615137753 12.999999999999998
  endloop
endfacet
facet normal -3.254999617944122e-16 -0.9238795325112868 0.3826834323650895
  outer loop
    vertex 0.0 18.86370330515627 13.964723819589915
    vertex 5.0 18.464101615137753 13.000000000000004
    vertex 5.0 18.86370330515627 13.964723819589919
  endloop
endfacet
facet normal -6.955469648065078e-17 0.9238795325112857 -0.38268343236509245
  outer loop
    vertex 0.0 11.535898384862248 17.000000000000004
    vertex 5.0 11.136296694843729 16.03527618041009
    vertex 0.0 11.136296694843729 16.035276180410087
  endloop
endfacet
facet normal -6.955469648065078e-17 0.9238795325112857 -0.38268343236509245
  outer loop
    vertex 5.0 11.136296694843729 16.03527618041009
    vertex 0.0 11.535898384862248 17.000000000000004
    vertex 5.0 11.535898384862252 17.000000000000007
  endloop
endfacet
facet normal -1.684633650986291e-16 0.9238795325112877 0.38268343236508784
  outer loop
    vertex 0.0 11.136296694843729 13.964723819589919
    vertex 5.0 11.535898384862245 13.000000000000007
    vertex 0.0 11.535898384862247 13.000000000000002
  endloop
endfacet
facet normal -1.684633650986291e-16 0.9238795325112877 0.38268343236508784
  outer loop
    vertex 5.0 11.535898384862245 13.000000000000007
    vertex 0.0 11.136296694843729 13.964723819589919
    vertex 5.000000000000001 11.136296694843729 13.964723819589924
  endloop
endfacet
facet normal 1.8298655714183545e-16 0.6087614290087192 -0.7933533402912363
  outer loop
    vertex 5.0 13.000000000000004 18.464101615137757
    vertex 0.0 12.171572875253812 17.82842712474619
    vertex 0.0 13.000000000000004 18.464101615137757
  endloop
endfacet
facet normal 1.8298655714183545e-16 0.6087614290087192 -0.7933533402912363
  outer loop
    vertex 0.0 12.171572875253812 17.82842712474619
    vertex 5.0 13.000000000000004 18.464101615137757
    vertex 5.000000000000001 12.171572875253815 17.8284271247462
  endloop
endfacet
facet normal -1.5489514957871199e-16 -0.9238795325112865 -0.3826834323650907
  outer loop
    vertex 5.0 18.86370330515627 16.035276180410087
    vertex 0.0 18.464101615137753 17.0
    vertex 0.0 18.86370330515627 16.035276180410083
  endloop
endfacet
facet normal -1.5489514957871199e-16 -0.9238795325112865 -0.3826834323650907
  outer loop
    vertex 0.0 18.464101615137753 17.0
    vertex 5.0 18.86370330515627 16.035276180410087
    vertex 5.000000000000001 18.464101615137753 17.0
  endloop
endfacet
facet normal 7.304077323234973e-17 0.9914448613738105 -0.13052619222005113
  outer loop
    vertex 0.0 11.136296694843729 16.035276180410087
    vertex 5.0 11.000000000000002 15.0
    vertex 0.0 11.000000000000002 15.0
  endloop
endfacet
facet normal 7.304077323234973e-17 0.9914448613738105 -0.13052619222005113
  outer loop
    vertex 5.0 11.000000000000002 15.0
    vertex 0.0 11.136296694843729 16.035276180410087
    vertex 5.0 11.136296694843729 16.03527618041009
  endloop
endfacet
facet normal -4.493995919802926e-16 -0.1305261922200536 -0.9914448613738103
  outer loop
    vertex 5.0 16.035276180410094 18.863703305156267
    vertex 0.0 15.0 19.0
    vertex 0.0 16.035276180410087 18.86370330515627
  endloop
endfacet
facet normal -4.493995919802926e-16 -0.1305261922200536 -0.9914448613738103
  outer loop
    vertex 0.0 15.0 19.0
    vertex 5.0 16.035276180410094 18.863703305156267
    vertex 5.0 15.0 19.0
  endloop
endfacet
facet normal 4.2026081340975764e-16 0.13052619222005113 0.9914448613738105
  outer loop
    vertex 5.0 13.964723819589919 11.136296694843725
    vertex 0.0 15.0 11.000000000000002
    vertex 0.0 13.964723819589919 11.136296694843727
  endloop
endfacet
facet normal 4.2026081340975764e-16 0.13052619222005113 0.9914448613738105
  outer loop
    vertex 0.0 15.0 11.000000000000002
    vertex 5.0 13.964723819589919 11.136296694843725
    vertex 5.0 15.0 11.0
  endloop
endfacet
facet normal 6.486298102076657e-17 -0.38268343236508967 0.9238795325112868
  outer loop
    vertex 5.0 16.035276180410087 11.136296694843729
    vertex 0.0 17.0 11.535898384862247
    vertex 0.0 16.035276180410083 11.136296694843727
  endloop
endfacet
facet normal 6.486298102076657e-17 -0.38268343236508967 0.9238795325112868
  outer loop
    vertex 0.0 17.0 11.535898384862247
    vertex 5.0 16.035276180410087 11.136296694843729
    vertex 5.0 17.000000000000007 11.535898384862248
  endloop
endfacet
facet normal 1.703275209846992e-16 -0.6087614290087224 -0.7933533402912338
  outer loop
    vertex 5.0 17.828427124746195 17.828427124746188
    vertex 0.0 17.000000000000004 18.464101615137753
    vertex 0.0 17.82842712474619 17.828427124746188
  endloop
endfacet
facet normal 1.703275209846992e-16 -0.6087614290087224 -0.7933533402912338
  outer loop
    vertex 0.0 17.000000000000004 18.464101615137753
    vertex 5.0 17.828427124746195 17.828427124746188
    vertex 5.0 17.000000000000004 18.464101615137757
  endloop
endfacet
facet normal 5.220814347825832e-16 -0.6087614290087201 0.7933533402912355
  outer loop
    vertex 5.0 17.000000000000007 11.535898384862248
    vertex 0.0 17.828427124746188 12.17157287525381
    vertex 0.0 17.0 11.535898384862247
  endloop
endfacet
facet normal 5.220814347825832e-16 -0.6087614290087201 0.7933533402912355
  outer loop
    vertex 0.0 17.828427124746188 12.17157287525381
    vertex 5.0 17.000000000000007 11.535898384862248
    vertex 5.0 17.8284271247462 12.171572875253814
  endloop
endfacet
facet normal 5.421949418440808e-16 0.38268343236509017 0.9238795325112867
  outer loop
    vertex 5.0 13.000000000000004 11.535898384862243
    vertex 0.0 13.964723819589919 11.136296694843727
    vertex 0.0 13.000000000000002 11.535898384862247
  endloop
endfacet
facet normal 5.421949418440808e-16 0.38268343236509017 0.9238795325112867
  outer loop
    vertex 0.0 13.964723819589919 11.136296694843727
    vertex 5.0 13.000000000000004 11.535898384862243
    vertex 5.0 13.964723819589919 11.136296694843725
  endloop
endfacet
facet normal 1.5153632774741692e-16 0.6087614290087204 0.7933533402912353
  outer loop
    vertex 5.0 12.171572875253815 12.171572875253807
    vertex 0.0 13.000000000000002 11.535898384862247
    vertex 0.0 12.17157287525381 12.17157287525381
  endloop
endfacet
facet normal 1.5153632774741692e-16 0.6087614290087204 0.7933533402912353
  outer loop
    vertex 0.0 13.000000000000002 11.535898384862247
    vertex 5.0 12.171572875253815 12.171572875253807
    vertex 5.0 13.000000000000004 11.535898384862243
  endloop
endfacet
facet normal 2.7878687622231454e-16 0.1305261922200482 -0.9914448613738109
  outer loop
    vertex 5.0 15.0 19.0
    vertex 0.0 13.96472381958992 18.863703305156275
    vertex 0.0 15.0 19.0
  endloop
endfacet
facet normal 2.7878687622231454e-16 0.1305261922200482 -0.9914448613738109
  outer loop
    vertex 0.0 13.96472381958992 18.863703305156275
    vertex 5.0 15.0 19.0
    vertex 5.0 13.96472381958992 18.863703305156278
  endloop
endfacet
facet normal -7.442777261654093e-17 0.9914448613738105 0.13052619222005218
  outer loop
    vertex 0.0 11.000000000000002 15.0
    vertex 5.000000000000001 11.136296694843729 13.964723819589924
    vertex 0.0 11.136296694843729 13.964723819589919
  endloop
endfacet
facet normal -7.442777261654093e-17 0.9914448613738105 0.13052619222005218
  outer loop
    vertex 5.000000000000001 11.136296694843729 13.964723819589924
    vertex 0.0 11.000000000000002 15.0
    vertex 5.0 11.000000000000002 15.0
  endloop
endfacet
facet normal 2.6108048899314296e-16 0.3826834323650902 -0.9238795325112867
  outer loop
    vertex 5.0 13.96472381958992 18.863703305156278
    vertex 0.0 13.000000000000004 18.464101615137757
    vertex 0.0 13.96472381958992 18.863703305156275
  endloop
endfacet
facet normal 2.6108048899314296e-16 0.3826834323650902 -0.9238795325112867
  outer loop
    vertex 0.0 13.000000000000004 18.464101615137757
    vertex 5.0 13.96472381958992 18.863703305156278
    vertex 5.0 13.000000000000004 18.464101615137757
  endloop
endfacet
facet normal 3.6520386616175376e-17 -0.13052619222005293 0.9914448613738103
  outer loop
    vertex 5.0 15.0 11.0
    vertex 0.0 16.035276180410083 11.136296694843727
    vertex 0.0 15.0 11.000000000000002
  endloop
endfacet
facet normal 3.6520386616175376e-17 -0.13052619222005293 0.9914448613738103
  outer loop
    vertex 0.0 16.035276180410083 11.136296694843727
    vertex 5.0 15.0 11.0
    vertex 5.0 16.035276180410087 11.136296694843729
  endloop
endfacet
endsolid Временнаяштука
