solid Крепление подшипника 19ммv2
facet normal -0.0 -0.0 1.0
  outer loop
    vertex 0.0 0.0 9.0
    vertex 3.3237046502538545 10.041219071526053 9.0
    vertex 0.0 25.0 9.0
  endloop
endfacet
facet normal -0.0 -0.0 1.0
  outer loop
    vertex 3.3237046502538545 10.041219071526053 9.0
    vertex 0.0 0.0 9.0
    vertex 4.272758664047836 7.750000000000003 9.0
  endloop
endfacet
facet normal -0.0 -0.0 1.0
  outer loop
    vertex 4.272758664047836 7.750000000000003 9.0
    vertex 0.0 0.0 9.0
    vertex 5.782485578727799 5.782485578727801 9.0
  endloop
endfacet
facet normal -0.0 -0.0 1.0
  outer loop
    vertex 5.782485578727799 5.782485578727801 9.0
    vertex 0.0 0.0 9.0
    vertex 7.750000000000003 4.272758664047835 9.0
  endloop
endfacet
facet normal -0.0 -0.0 1.0
  outer loop
    vertex 7.750000000000003 4.272758664047835 9.0
    vertex 0.0 0.0 9.0
    vertex 10.041219071526053 3.323704650253852 9.0
  endloop
endfacet
facet normal -0.0 -0.0 1.0
  outer loop
    vertex 10.041219071526053 3.323704650253852 9.0
    vertex 0.0 0.0 9.0
    vertex 25.0 0.0 9.0
  endloop
endfacet
facet normal -0.0 -0.0 1.0
  outer loop
    vertex 0.0 25.0 9.0
    vertex 3.3237046502538545 10.041219071526053 9.0
    vertex 3.0000000000000044 12.500000000000002 9.0
  endloop
endfacet
facet normal -0.0 -0.0 1.0
  outer loop
    vertex 10.041219071526053 3.323704650253852 9.0
    vertex 25.0 0.0 9.0
    vertex 12.5 3.0000000000000013 9.0
  endloop
endfacet
facet normal -0.0 -0.0 1.0
  outer loop
    vertex 12.5 3.0000000000000013 9.0
    vertex 25.0 0.0 9.0
    vertex 14.95878092847395 3.323704650253852 9.0
  endloop
endfacet
facet normal -0.0 -0.0 1.0
  outer loop
    vertex 14.95878092847395 3.323704650253852 9.0
    vertex 25.0 0.0 9.0
    vertex 17.25 4.272758664047833 9.0
  endloop
endfacet
facet normal -0.0 -0.0 1.0
  outer loop
    vertex 17.25 4.272758664047833 9.0
    vertex 25.0 0.0 9.0
    vertex 19.217514421272202 5.782485578727797 9.0
  endloop
endfacet
facet normal -0.0 -0.0 1.0
  outer loop
    vertex 19.217514421272202 5.782485578727797 9.0
    vertex 25.0 0.0 9.0
    vertex 20.72724133595217 7.750000000000005 9.0
  endloop
endfacet
facet normal -0.0 -0.0 1.0
  outer loop
    vertex 20.72724133595217 7.750000000000005 9.0
    vertex 25.0 0.0 9.0
    vertex 21.67629534974615 10.041219071526056 9.0
  endloop
endfacet
facet normal -0.0 -0.0 1.0
  outer loop
    vertex 21.67629534974615 10.041219071526056 9.0
    vertex 25.0 0.0 9.0
    vertex 22.000000000000004 12.5 9.0
  endloop
endfacet
facet normal -0.0 -0.0 1.0
  outer loop
    vertex 0.0 25.0 9.0
    vertex 10.041219071526056 21.676295349746148 9.0
    vertex 25.0 25.0 9.0
  endloop
endfacet
facet normal -0.0 -0.0 1.0
  outer loop
    vertex 10.041219071526056 21.676295349746148 9.0
    vertex 0.0 25.0 9.0
    vertex 7.750000000000001 20.727241335952165 9.0
  endloop
endfacet
facet normal -0.0 -0.0 1.0
  outer loop
    vertex 7.750000000000001 20.727241335952165 9.0
    vertex 0.0 25.0 9.0
    vertex 5.782485578727803 19.217514421272202 9.0
  endloop
endfacet
facet normal -0.0 -0.0 1.0
  outer loop
    vertex 5.782485578727803 19.217514421272202 9.0
    vertex 0.0 25.0 9.0
    vertex 4.272758664047836 17.25 9.0
  endloop
endfacet
facet normal -0.0 -0.0 1.0
  outer loop
    vertex 4.272758664047836 17.25 9.0
    vertex 0.0 25.0 9.0
    vertex 3.3237046502538545 14.958780928473946 9.0
  endloop
endfacet
facet normal -0.0 -0.0 1.0
  outer loop
    vertex 3.3237046502538545 14.958780928473946 9.0
    vertex 0.0 25.0 9.0
    vertex 3.0000000000000044 12.500000000000002 9.0
  endloop
endfacet
facet normal -0.0 -0.0 1.0
  outer loop
    vertex 25.0 25.0 9.0
    vertex 10.041219071526056 21.676295349746148 9.0
    vertex 12.500000000000002 22.0 9.0
  endloop
endfacet
facet normal -0.0 -0.0 1.0
  outer loop
    vertex 25.0 25.0 9.0
    vertex 12.500000000000002 22.0 9.0
    vertex 14.95878092847395 21.676295349746148 9.0
  endloop
endfacet
facet normal -0.0 -0.0 1.0
  outer loop
    vertex 25.0 25.0 9.0
    vertex 14.95878092847395 21.676295349746148 9.0
    vertex 17.249999999999996 20.72724133595217 9.0
  endloop
endfacet
facet normal -0.0 -0.0 1.0
  outer loop
    vertex 25.0 25.0 9.0
    vertex 17.249999999999996 20.72724133595217 9.0
    vertex 19.217514421272202 19.217514421272202 9.0
  endloop
endfacet
facet normal -0.0 -0.0 1.0
  outer loop
    vertex 25.0 25.0 9.0
    vertex 19.217514421272202 19.217514421272202 9.0
    vertex 20.72724133595217 17.250000000000004 9.0
  endloop
endfacet
facet normal -0.0 -0.0 1.0
  outer loop
    vertex 25.0 25.0 9.0
    vertex 20.72724133595217 17.250000000000004 9.0
    vertex 21.67629534974615 14.95878092847395 9.0
  endloop
endfacet
facet normal -0.0 -0.0 1.0
  outer loop
    vertex 25.0 25.0 9.0
    vertex 21.67629534974615 14.95878092847395 9.0
    vertex 22.000000000000004 12.5 9.0
  endloop
endfacet
facet normal -0.0 -0.0 1.0
  outer loop
    vertex 25.0 25.0 9.0
    vertex 22.000000000000004 12.5 9.0
    vertex 25.0 0.0 9.0
  endloop
endfacet
facet normal -1.0 0.0 0.0
  outer loop
    vertex 0.0 25.0 9.0
    vertex 0.0 0.0 2.9999999999999982
    vertex 0.0 0.0 9.0
  endloop
endfacet
facet normal -1.0 0.0 0.0
  outer loop
    vertex 0.0 0.0 2.9999999999999982
    vertex 0.0 25.0 9.0
    vertex 0.0 25.0 2.9999999999999982
  endloop
endfacet
facet normal -0.0 1.0 0.0
  outer loop
    vertex 0.0 25.0 9.0
    vertex 25.0 25.0 2.9999999999999982
    vertex 0.0 25.0 2.9999999999999982
  endloop
endfacet
facet normal -0.0 1.0 0.0
  outer loop
    vertex 25.0 25.0 2.9999999999999982
    vertex 0.0 25.0 9.0
    vertex 25.0 25.0 9.0
  endloop
endfacet
facet normal 1.0 0.0 0.0
  outer loop
    vertex 25.0 25.0 2.9999999999999982
    vertex 25.0 0.0 9.0
    vertex 25.0 0.0 2.9999999999999982
  endloop
endfacet
facet normal 1.0 0.0 0.0
  outer loop
    vertex 25.0 0.0 9.0
    vertex 25.0 25.0 2.9999999999999982
    vertex 25.0 25.0 9.0
  endloop
endfacet
facet normal -0.0 -1.0 -0.0
  outer loop
    vertex 25.0 0.0 9.0
    vertex 0.0 0.0 2.9999999999999982
    vertex 25.0 0.0 2.9999999999999982
  endloop
endfacet
facet normal -0.0 -1.0 -0.0
  outer loop
    vertex 0.0 0.0 2.9999999999999982
    vertex 25.0 0.0 9.0
    vertex 0.0 0.0 9.0
  endloop
endfacet
facet normal -0.9914448613738105 -0.13052619222005163 0.0
  outer loop
    vertex 21.67629534974615 14.95878092847395 9.0
    vertex 22.000000000000004 12.5 3.0
    vertex 22.000000000000004 12.5 9.0
  endloop
endfacet
facet normal -0.9914448613738105 -0.13052619222005163 0.0
  outer loop
    vertex 22.000000000000004 12.5 3.0
    vertex 21.67629534974615 14.95878092847395 9.0
    vertex 21.67629534974615 14.95878092847395 3.0
  endloop
endfacet
facet normal -0.9238795325112868 -0.3826834323650896 0.0
  outer loop
    vertex 20.72724133595217 17.250000000000004 9.0
    vertex 21.67629534974615 14.95878092847395 3.0
    vertex 21.67629534974615 14.95878092847395 9.0
  endloop
endfacet
facet normal -0.9238795325112868 -0.3826834323650896 0.0
  outer loop
    vertex 21.67629534974615 14.95878092847395 3.0
    vertex 20.72724133595217 17.250000000000004 9.0
    vertex 20.72724133595217 17.250000000000004 3.0
  endloop
endfacet
facet normal -0.793353340291235 -0.6087614290087211 0.0
  outer loop
    vertex 19.217514421272202 19.217514421272202 9.0
    vertex 20.72724133595217 17.250000000000004 3.0
    vertex 20.72724133595217 17.250000000000004 9.0
  endloop
endfacet
facet normal -0.793353340291235 -0.6087614290087211 0.0
  outer loop
    vertex 20.72724133595217 17.250000000000004 3.0
    vertex 19.217514421272202 19.217514421272202 9.0
    vertex 19.217514421272202 19.217514421272202 3.0
  endloop
endfacet
facet normal -0.6087614290087202 -0.7933533402912357 0.0
  outer loop
    vertex 19.217514421272202 19.217514421272202 9.0
    vertex 17.249999999999996 20.72724133595217 3.0
    vertex 19.217514421272202 19.217514421272202 3.0
  endloop
endfacet
facet normal -0.6087614290087202 -0.7933533402912357 0.0
  outer loop
    vertex 17.249999999999996 20.72724133595217 3.0
    vertex 19.217514421272202 19.217514421272202 9.0
    vertex 17.249999999999996 20.72724133595217 9.0
  endloop
endfacet
facet normal -0.38268343236508945 -0.9238795325112868 0.0
  outer loop
    vertex 17.249999999999996 20.72724133595217 9.0
    vertex 14.95878092847395 21.676295349746148 3.0
    vertex 17.249999999999996 20.72724133595217 3.0
  endloop
endfacet
facet normal -0.38268343236508945 -0.9238795325112868 0.0
  outer loop
    vertex 14.95878092847395 21.676295349746148 3.0
    vertex 17.249999999999996 20.72724133595217 9.0
    vertex 14.95878092847395 21.676295349746148 9.0
  endloop
endfacet
facet normal -0.1305261922200517 -0.9914448613738105 0.0
  outer loop
    vertex 14.95878092847395 21.676295349746148 9.0
    vertex 12.500000000000002 22.0 3.0
    vertex 14.95878092847395 21.676295349746148 3.0
  endloop
endfacet
facet normal -0.1305261922200517 -0.9914448613738105 0.0
  outer loop
    vertex 12.500000000000002 22.0 3.0
    vertex 14.95878092847395 21.676295349746148 9.0
    vertex 12.500000000000002 22.0 9.0
  endloop
endfacet
facet normal 0.13052619222005185 -0.9914448613738105 0.0
  outer loop
    vertex 12.500000000000002 22.0 9.0
    vertex 10.041219071526056 21.676295349746148 3.0
    vertex 12.500000000000002 22.0 3.0
  endloop
endfacet
facet normal 0.13052619222005185 -0.9914448613738105 0.0
  outer loop
    vertex 10.041219071526056 21.676295349746148 3.0
    vertex 12.500000000000002 22.0 9.0
    vertex 10.041219071526056 21.676295349746148 9.0
  endloop
endfacet
facet normal 0.3826834323650895 -0.9238795325112868 0.0
  outer loop
    vertex 10.041219071526056 21.676295349746148 9.0
    vertex 7.750000000000001 20.727241335952165 3.0
    vertex 10.041219071526056 21.676295349746148 3.0
  endloop
endfacet
facet normal 0.3826834323650895 -0.9238795325112868 0.0
  outer loop
    vertex 7.750000000000001 20.727241335952165 3.0
    vertex 10.041219071526056 21.676295349746148 9.0
    vertex 7.750000000000001 20.727241335952165 9.0
  endloop
endfacet
facet normal 0.6087614290087211 -0.793353340291235 0.0
  outer loop
    vertex 7.750000000000001 20.727241335952165 9.0
    vertex 5.782485578727803 19.217514421272202 3.0
    vertex 7.750000000000001 20.727241335952165 3.0
  endloop
endfacet
facet normal 0.6087614290087211 -0.793353340291235 0.0
  outer loop
    vertex 5.782485578727803 19.217514421272202 3.0
    vertex 7.750000000000001 20.727241335952165 9.0
    vertex 5.782485578727803 19.217514421272202 9.0
  endloop
endfacet
facet normal 0.7933533402912352 -0.6087614290087209 -0.0
  outer loop
    vertex 5.782485578727803 19.217514421272202 3.0
    vertex 4.272758664047836 17.25 9.0
    vertex 4.272758664047836 17.25 3.0
  endloop
endfacet
facet normal 0.7933533402912352 -0.6087614290087209 -0.0
  outer loop
    vertex 4.272758664047836 17.25 9.0
    vertex 5.782485578727803 19.217514421272202 3.0
    vertex 5.782485578727803 19.217514421272202 9.0
  endloop
endfacet
facet normal 0.9238795325112868 -0.3826834323650896 -0.0
  outer loop
    vertex 4.272758664047836 17.25 3.0
    vertex 3.3237046502538545 14.958780928473946 9.0
    vertex 3.3237046502538545 14.958780928473946 3.0
  endloop
endfacet
facet normal 0.9238795325112868 -0.3826834323650896 -0.0
  outer loop
    vertex 3.3237046502538545 14.958780928473946 9.0
    vertex 4.272758664047836 17.25 3.0
    vertex 4.272758664047836 17.25 9.0
  endloop
endfacet
facet normal 0.9914448613738105 -0.13052619222005138 -0.0
  outer loop
    vertex 3.3237046502538545 14.958780928473946 3.0
    vertex 3.0000000000000044 12.500000000000002 9.0
    vertex 3.0000000000000044 12.500000000000002 3.0
  endloop
endfacet
facet normal 0.9914448613738105 -0.13052619222005138 -0.0
  outer loop
    vertex 3.0000000000000044 12.500000000000002 9.0
    vertex 3.3237046502538545 14.958780928473946 3.0
    vertex 3.3237046502538545 14.958780928473946 9.0
  endloop
endfacet
facet normal 0.9914448613738105 0.13052619222005107 -0.0
  outer loop
    vertex 3.0000000000000044 12.500000000000002 3.0
    vertex 3.3237046502538545 10.041219071526053 9.0
    vertex 3.3237046502538545 10.041219071526053 3.0
  endloop
endfacet
facet normal 0.9914448613738105 0.13052619222005107 -0.0
  outer loop
    vertex 3.3237046502538545 10.041219071526053 9.0
    vertex 3.0000000000000044 12.500000000000002 3.0
    vertex 3.0000000000000044 12.500000000000002 9.0
  endloop
endfacet
facet normal 0.9238795325112867 0.38268343236508995 -0.0
  outer loop
    vertex 3.3237046502538545 10.041219071526053 3.0
    vertex 4.272758664047836 7.750000000000003 9.0
    vertex 4.272758664047836 7.750000000000003 3.0
  endloop
endfacet
facet normal 0.9238795325112867 0.38268343236508995 -0.0
  outer loop
    vertex 4.272758664047836 7.750000000000003 9.0
    vertex 3.3237046502538545 10.041219071526053 3.0
    vertex 3.3237046502538545 10.041219071526053 9.0
  endloop
endfacet
facet normal 0.7933533402912355 0.6087614290087201 -0.0
  outer loop
    vertex 4.272758664047836 7.750000000000003 3.0
    vertex 5.782485578727799 5.782485578727801 9.0
    vertex 5.782485578727799 5.782485578727801 3.0
  endloop
endfacet
facet normal 0.7933533402912355 0.6087614290087201 -0.0
  outer loop
    vertex 5.782485578727799 5.782485578727801 9.0
    vertex 4.272758664047836 7.750000000000003 3.0
    vertex 4.272758664047836 7.750000000000003 9.0
  endloop
endfacet
facet normal 0.6087614290087207 0.7933533402912354 -0.0
  outer loop
    vertex 5.782485578727799 5.782485578727801 9.0
    vertex 7.750000000000003 4.272758664047835 3.0
    vertex 5.782485578727799 5.782485578727801 3.0
  endloop
endfacet
facet normal 0.6087614290087207 0.7933533402912354 -0.0
  outer loop
    vertex 7.750000000000003 4.272758664047835 3.0
    vertex 5.782485578727799 5.782485578727801 9.0
    vertex 7.750000000000003 4.272758664047835 9.0
  endloop
endfacet
facet normal 0.38268343236509056 0.9238795325112865 -0.0
  outer loop
    vertex 7.750000000000003 4.272758664047835 9.0
    vertex 10.041219071526053 3.323704650253852 3.0
    vertex 7.750000000000003 4.272758664047835 3.0
  endloop
endfacet
facet normal 0.38268343236509056 0.9238795325112865 -0.0
  outer loop
    vertex 10.041219071526053 3.323704650253852 3.0
    vertex 7.750000000000003 4.272758664047835 9.0
    vertex 10.041219071526053 3.323704650253852 9.0
  endloop
endfacet
facet normal 0.13052619222005127 0.9914448613738105 -0.0
  outer loop
    vertex 10.041219071526053 3.323704650253852 9.0
    vertex 12.5 3.0000000000000013 3.0
    vertex 10.041219071526053 3.323704650253852 3.0
  endloop
endfacet
facet normal 0.13052619222005127 0.9914448613738105 -0.0
  outer loop
    vertex 12.5 3.0000000000000013 3.0
    vertex 10.041219071526053 3.323704650253852 9.0
    vertex 12.5 3.0000000000000013 9.0
  endloop
endfacet
facet normal -0.13052619222005107 0.9914448613738105 -0.0
  outer loop
    vertex 12.5 3.0000000000000013 9.0
    vertex 14.95878092847395 3.323704650253852 3.0
    vertex 12.5 3.0000000000000013 3.0
  endloop
endfacet
facet normal -0.13052619222005107 0.9914448613738105 -0.0
  outer loop
    vertex 14.95878092847395 3.323704650253852 3.0
    vertex 12.5 3.0000000000000013 9.0
    vertex 14.95878092847395 3.323704650253852 9.0
  endloop
endfacet
facet normal -0.38268343236508995 0.9238795325112867 -0.0
  outer loop
    vertex 14.95878092847395 3.323704650253852 9.0
    vertex 17.25 4.272758664047833 3.0
    vertex 14.95878092847395 3.323704650253852 3.0
  endloop
endfacet
facet normal -0.38268343236508995 0.9238795325112867 -0.0
  outer loop
    vertex 17.25 4.272758664047833 3.0
    vertex 14.95878092847395 3.323704650253852 9.0
    vertex 17.25 4.272758664047833 9.0
  endloop
endfacet
facet normal -0.6087614290087201 0.7933533402912357 -0.0
  outer loop
    vertex 17.25 4.272758664047833 9.0
    vertex 19.217514421272202 5.782485578727797 3.0
    vertex 17.25 4.272758664047833 3.0
  endloop
endfacet
facet normal -0.6087614290087201 0.7933533402912357 -0.0
  outer loop
    vertex 19.217514421272202 5.782485578727797 3.0
    vertex 17.25 4.272758664047833 9.0
    vertex 19.217514421272202 5.782485578727797 9.0
  endloop
endfacet
facet normal -0.7933533402912358 0.6087614290087199 0.0
  outer loop
    vertex 20.72724133595217 7.750000000000005 9.0
    vertex 19.217514421272202 5.782485578727797 3.0
    vertex 19.217514421272202 5.782485578727797 9.0
  endloop
endfacet
facet normal -0.7933533402912358 0.6087614290087199 0.0
  outer loop
    vertex 19.217514421272202 5.782485578727797 3.0
    vertex 20.72724133595217 7.750000000000005 9.0
    vertex 20.72724133595217 7.750000000000005 3.0
  endloop
endfacet
facet normal -0.9238795325112867 0.38268343236508995 0.0
  outer loop
    vertex 21.67629534974615 10.041219071526056 9.0
    vertex 20.72724133595217 7.750000000000005 3.0
    vertex 20.72724133595217 7.750000000000005 9.0
  endloop
endfacet
facet normal -0.9238795325112867 0.38268343236508995 0.0
  outer loop
    vertex 20.72724133595217 7.750000000000005 3.0
    vertex 21.67629534974615 10.041219071526056 9.0
    vertex 21.67629534974615 10.041219071526056 3.0
  endloop
endfacet
facet normal -0.9914448613738105 0.1305261922200519 0.0
  outer loop
    vertex 22.000000000000004 12.5 9.0
    vertex 21.67629534974615 10.041219071526056 3.0
    vertex 21.67629534974615 10.041219071526056 9.0
  endloop
endfacet
facet normal -0.9914448613738105 0.1305261922200519 0.0
  outer loop
    vertex 21.67629534974615 10.041219071526056 3.0
    vertex 22.000000000000004 12.5 9.0
    vertex 22.000000000000004 12.5 3.0
  endloop
endfacet
facet normal 0.0 0.0 -1.0
  outer loop
    vertex 0.0 25.0 2.9999999999999982
    vertex 3.3237046502538545 14.958780928473946 3.0
    vertex 0.0 0.0 2.9999999999999982
  endloop
endfacet
facet normal 0.0 0.0 -1.0
  outer loop
    vertex 3.3237046502538545 14.958780928473946 3.0
    vertex 0.0 25.0 2.9999999999999982
    vertex 4.272758664047836 17.25 3.0
  endloop
endfacet
facet normal 0.0 0.0 -1.0
  outer loop
    vertex 4.272758664047836 17.25 3.0
    vertex 0.0 25.0 2.9999999999999982
    vertex 5.782485578727803 19.217514421272202 3.0
  endloop
endfacet
facet normal 0.0 0.0 -1.0
  outer loop
    vertex 5.782485578727803 19.217514421272202 3.0
    vertex 0.0 25.0 2.9999999999999982
    vertex 7.750000000000001 20.727241335952165 3.0
  endloop
endfacet
facet normal 0.0 0.0 -1.0
  outer loop
    vertex 7.750000000000001 20.727241335952165 3.0
    vertex 0.0 25.0 2.9999999999999982
    vertex 10.041219071526056 21.676295349746148 3.0
  endloop
endfacet
facet normal 0.0 0.0 -1.0
  outer loop
    vertex 10.041219071526056 21.676295349746148 3.0
    vertex 0.0 25.0 2.9999999999999982
    vertex 25.0 25.0 2.9999999999999982
  endloop
endfacet
facet normal 0.0 0.0 -1.0
  outer loop
    vertex 0.0 0.0 2.9999999999999982
    vertex 3.3237046502538545 14.958780928473946 3.0
    vertex 3.0000000000000044 12.500000000000002 3.0
  endloop
endfacet
facet normal 0.0 0.0 -1.0
  outer loop
    vertex 10.041219071526056 21.676295349746148 3.0
    vertex 25.0 25.0 2.9999999999999982
    vertex 12.500000000000002 22.0 3.0
  endloop
endfacet
facet normal 0.0 0.0 -1.0
  outer loop
    vertex 12.500000000000002 22.0 3.0
    vertex 25.0 25.0 2.9999999999999982
    vertex 14.95878092847395 21.676295349746148 3.0
  endloop
endfacet
facet normal 0.0 0.0 -1.0
  outer loop
    vertex 14.95878092847395 21.676295349746148 3.0
    vertex 25.0 25.0 2.9999999999999982
    vertex 17.249999999999996 20.72724133595217 3.0
  endloop
endfacet
facet normal 0.0 0.0 -1.0
  outer loop
    vertex 17.249999999999996 20.72724133595217 3.0
    vertex 25.0 25.0 2.9999999999999982
    vertex 19.217514421272202 19.217514421272202 3.0
  endloop
endfacet
facet normal 0.0 0.0 -1.0
  outer loop
    vertex 19.217514421272202 19.217514421272202 3.0
    vertex 25.0 25.0 2.9999999999999982
    vertex 20.72724133595217 17.250000000000004 3.0
  endloop
endfacet
facet normal 0.0 0.0 -1.0
  outer loop
    vertex 20.72724133595217 17.250000000000004 3.0
    vertex 25.0 25.0 2.9999999999999982
    vertex 21.67629534974615 14.95878092847395 3.0
  endloop
endfacet
facet normal 0.0 0.0 -1.0
  outer loop
    vertex 21.67629534974615 14.95878092847395 3.0
    vertex 25.0 25.0 2.9999999999999982
    vertex 22.000000000000004 12.5 3.0
  endloop
endfacet
facet normal 0.0 0.0 -1.0
  outer loop
    vertex 0.0 0.0 2.9999999999999982
    vertex 10.041219071526053 3.323704650253852 3.0
    vertex 25.0 0.0 2.9999999999999982
  endloop
endfacet
facet normal 0.0 0.0 -1.0
  outer loop
    vertex 10.041219071526053 3.323704650253852 3.0
    vertex 0.0 0.0 2.9999999999999982
    vertex 7.750000000000003 4.272758664047835 3.0
  endloop
endfacet
facet normal 0.0 0.0 -1.0
  outer loop
    vertex 7.750000000000003 4.272758664047835 3.0
    vertex 0.0 0.0 2.9999999999999982
    vertex 5.782485578727799 5.782485578727801 3.0
  endloop
endfacet
facet normal 0.0 0.0 -1.0
  outer loop
    vertex 5.782485578727799 5.782485578727801 3.0
    vertex 0.0 0.0 2.9999999999999982
    vertex 4.272758664047836 7.750000000000003 3.0
  endloop
endfacet
facet normal 0.0 0.0 -1.0
  outer loop
    vertex 4.272758664047836 7.750000000000003 3.0
    vertex 0.0 0.0 2.9999999999999982
    vertex 3.3237046502538545 10.041219071526053 3.0
  endloop
endfacet
facet normal 0.0 0.0 -1.0
  outer loop
    vertex 3.3237046502538545 10.041219071526053 3.0
    vertex 0.0 0.0 2.9999999999999982
    vertex 3.0000000000000044 12.500000000000002 3.0
  endloop
endfacet
facet normal 0.0 0.0 -1.0
  outer loop
    vertex 25.0 0.0 2.9999999999999982
    vertex 10.041219071526053 3.323704650253852 3.0
    vertex 12.5 3.0000000000000013 3.0
  endloop
endfacet
facet normal 0.0 0.0 -1.0
  outer loop
    vertex 25.0 0.0 2.9999999999999982
    vertex 12.5 3.0000000000000013 3.0
    vertex 14.95878092847395 3.323704650253852 3.0
  endloop
endfacet
facet normal 0.0 0.0 -1.0
  outer loop
    vertex 25.0 0.0 2.9999999999999982
    vertex 14.95878092847395 3.323704650253852 3.0
    vertex 17.25 4.272758664047833 3.0
  endloop
endfacet
facet normal 0.0 0.0 -1.0
  outer loop
    vertex 25.0 0.0 2.9999999999999982
    vertex 17.25 4.272758664047833 3.0
    vertex 19.217514421272202 5.782485578727797 3.0
  endloop
endfacet
facet normal 0.0 0.0 -1.0
  outer loop
    vertex 25.0 0.0 2.9999999999999982
    vertex 19.217514421272202 5.782485578727797 3.0
    vertex 20.72724133595217 7.750000000000005 3.0
  endloop
endfacet
facet normal 0.0 0.0 -1.0
  outer loop
    vertex 25.0 0.0 2.9999999999999982
    vertex 20.72724133595217 7.750000000000005 3.0
    vertex 21.67629534974615 10.041219071526056 3.0
  endloop
endfacet
facet normal 0.0 0.0 -1.0
  outer loop
    vertex 25.0 0.0 2.9999999999999982
    vertex 21.67629534974615 10.041219071526056 3.0
    vertex 22.000000000000004 12.5 3.0
  endloop
endfacet
facet normal 0.0 0.0 -1.0
  outer loop
    vertex 25.0 0.0 2.9999999999999982
    vertex 22.000000000000004 12.5 3.0
    vertex 25.0 25.0 2.9999999999999982
  endloop
endfacet
endsolid Крепление подшипника 19ммv2
