solid Шайба-8х14мм-2мм
facet normal 0.0 0.0 -1.0
  outer loop
    vertex -4.949747468305833 4.949747468305833 0.0
    vertex -4.153481053042993 1.1129218939408403 0.0
    vertex -4.3 5.265981236333618e-16 0.0
  endloop
endfacet
facet normal 0.0 0.0 -1.0
  outer loop
    vertex -4.153481053042993 1.1129218939408403 0.0
    vertex -4.949747468305833 4.949747468305833 0.0
    vertex -3.4999999999999987 6.06217782649107 0.0
  endloop
endfacet
facet normal 0.0 0.0 -1.0
  outer loop
    vertex -4.153481053042993 1.1129218939408403 0.0
    vertex -3.4999999999999987 6.06217782649107 0.0
    vertex -3.723909236273085 2.1500000000000012 0.0
  endloop
endfacet
facet normal 0.0 0.0 -1.0
  outer loop
    vertex -3.723909236273085 2.1500000000000012 0.0
    vertex -3.4999999999999987 6.06217782649107 0.0
    vertex -3.0405591591021537 3.0405591591021546 0.0
  endloop
endfacet
facet normal 0.0 0.0 -1.0
  outer loop
    vertex -3.0405591591021537 3.0405591591021546 0.0
    vertex -3.4999999999999987 6.06217782649107 0.0
    vertex -1.8117333157176443 6.761480784023478 0.0
  endloop
endfacet
facet normal 0.0 0.0 -1.0
  outer loop
    vertex -3.0405591591021537 3.0405591591021546 0.0
    vertex -1.8117333157176443 6.761480784023478 0.0
    vertex -2.149999999999999 3.7239092362730863 0.0
  endloop
endfacet
facet normal 0.0 0.0 -1.0
  outer loop
    vertex -2.149999999999999 3.7239092362730863 0.0
    vertex -1.8117333157176443 6.761480784023478 0.0
    vertex -1.1129218939408385 4.153481053042994 0.0
  endloop
endfacet
facet normal 0.0 0.0 -1.0
  outer loop
    vertex -1.1129218939408385 4.153481053042994 0.0
    vertex -1.8117333157176443 6.761480784023478 0.0
    vertex 4.286263797015736e-16 7.0 0.0
  endloop
endfacet
facet normal 0.0 0.0 -1.0
  outer loop
    vertex -1.1129218939408385 4.153481053042994 0.0
    vertex 4.286263797015736e-16 7.0 0.0
    vertex 2.632990618166809e-16 4.3 0.0
  endloop
endfacet
facet normal 0.0 0.0 -1.0
  outer loop
    vertex 2.632990618166809e-16 4.3 0.0
    vertex 4.286263797015736e-16 7.0 0.0
    vertex 1.1129218939408403 4.153481053042993 0.0
  endloop
endfacet
facet normal 0.0 0.0 -1.0
  outer loop
    vertex 1.1129218939408403 4.153481053042993 0.0
    vertex 4.286263797015736e-16 7.0 0.0
    vertex 1.8117333157176467 6.761480784023478 0.0
  endloop
endfacet
facet normal 0.0 0.0 -1.0
  outer loop
    vertex 1.1129218939408403 4.153481053042993 0.0
    vertex 1.8117333157176467 6.761480784023478 0.0
    vertex 2.1500000000000004 3.723909236273086 0.0
  endloop
endfacet
facet normal 0.0 0.0 -1.0
  outer loop
    vertex 2.1500000000000004 3.723909236273086 0.0
    vertex 1.8117333157176467 6.761480784023478 0.0
    vertex 3.5000000000000004 6.06217782649107 0.0
  endloop
endfacet
facet normal 0.0 0.0 -1.0
  outer loop
    vertex 2.1500000000000004 3.723909236273086 0.0
    vertex 3.5000000000000004 6.06217782649107 0.0
    vertex 3.0405591591021546 3.0405591591021546 0.0
  endloop
endfacet
facet normal 0.0 0.0 -1.0
  outer loop
    vertex 3.0405591591021546 3.0405591591021546 0.0
    vertex 3.5000000000000004 6.06217782649107 0.0
    vertex 3.7239092362730863 2.1499999999999995 0.0
  endloop
endfacet
facet normal 0.0 0.0 -1.0
  outer loop
    vertex 3.7239092362730863 2.1499999999999995 0.0
    vertex 3.5000000000000004 6.06217782649107 0.0
    vertex 4.949747468305833 4.949747468305833 0.0
  endloop
endfacet
facet normal 0.0 0.0 -1.0
  outer loop
    vertex 3.7239092362730863 2.1499999999999995 0.0
    vertex 4.949747468305833 4.949747468305833 0.0
    vertex 4.153481053042994 1.1129218939408392 0.0
  endloop
endfacet
facet normal 0.0 0.0 -1.0
  outer loop
    vertex 4.153481053042994 1.1129218939408392 0.0
    vertex 4.949747468305833 4.949747468305833 0.0
    vertex 4.3 0.0 0.0
  endloop
endfacet
facet normal 0.0 0.0 -1.0
  outer loop
    vertex 4.3 0.0 0.0
    vertex 4.949747468305833 4.949747468305833 0.0
    vertex 4.949747468305832 -4.949747468305834 0.0
  endloop
endfacet
facet normal 0.0 0.0 -1.0
  outer loop
    vertex 4.949747468305832 -4.949747468305834 0.0
    vertex 4.949747468305833 4.949747468305833 0.0
    vertex 6.062177826491069 -3.5000000000000027 0.0
  endloop
endfacet
facet normal 0.0 0.0 -1.0
  outer loop
    vertex 6.062177826491069 -3.5000000000000027 0.0
    vertex 4.949747468305833 4.949747468305833 0.0
    vertex 6.06217782649107 3.499999999999999 0.0
  endloop
endfacet
facet normal 0.0 0.0 -1.0
  outer loop
    vertex 6.062177826491069 -3.5000000000000027 0.0
    vertex 6.06217782649107 3.499999999999999 0.0
    vertex 6.761480784023476 -1.811733315717651 0.0
  endloop
endfacet
facet normal 0.0 0.0 -1.0
  outer loop
    vertex 6.761480784023476 -1.811733315717651 0.0
    vertex 6.06217782649107 3.499999999999999 0.0
    vertex 6.761480784023478 1.8117333157176452 0.0
  endloop
endfacet
facet normal 0.0 0.0 -1.0
  outer loop
    vertex 6.761480784023476 -1.811733315717651 0.0
    vertex 6.761480784023478 1.8117333157176452 0.0
    vertex 7.0 0.0 0.0
  endloop
endfacet
facet normal 0.0 0.0 -1.0
  outer loop
    vertex -6.761480784023478 1.811733315717647 0.0
    vertex -6.761480784023479 -1.8117333157176425 0.0
    vertex -7.0 8.572527594031472e-16 0.0
  endloop
endfacet
facet normal 0.0 0.0 -1.0
  outer loop
    vertex -6.761480784023479 -1.8117333157176425 0.0
    vertex -6.761480784023478 1.811733315717647 0.0
    vertex -6.062177826491071 -3.499999999999998 0.0
  endloop
endfacet
facet normal 0.0 0.0 -1.0
  outer loop
    vertex -6.062177826491071 -3.499999999999998 0.0
    vertex -6.761480784023478 1.811733315717647 0.0
    vertex -6.0621778264910695 3.500000000000002 0.0
  endloop
endfacet
facet normal 0.0 0.0 -1.0
  outer loop
    vertex -6.062177826491071 -3.499999999999998 0.0
    vertex -6.0621778264910695 3.500000000000002 0.0
    vertex -4.949747468305835 -4.949747468305829 0.0
  endloop
endfacet
facet normal 0.0 0.0 -1.0
  outer loop
    vertex -4.949747468305835 -4.949747468305829 0.0
    vertex -6.0621778264910695 3.500000000000002 0.0
    vertex -4.949747468305833 4.949747468305833 0.0
  endloop
endfacet
facet normal 0.0 0.0 -1.0
  outer loop
    vertex -4.949747468305835 -4.949747468305829 0.0
    vertex -4.949747468305833 4.949747468305833 0.0
    vertex -4.3 5.265981236333618e-16 0.0
  endloop
endfacet
facet normal 0.0 0.0 -1.0
  outer loop
    vertex -4.949747468305835 -4.949747468305829 0.0
    vertex -4.3 5.265981236333618e-16 0.0
    vertex -4.153481053042994 -1.1129218939408376 0.0
  endloop
endfacet
facet normal 0.0 0.0 -1.0
  outer loop
    vertex -4.949747468305835 -4.949747468305829 0.0
    vertex -4.153481053042994 -1.1129218939408376 0.0
    vertex -3.5000000000000027 -6.0621778264910695 0.0
  endloop
endfacet
facet normal 0.0 0.0 -1.0
  outer loop
    vertex -3.5000000000000027 -6.0621778264910695 0.0
    vertex -4.153481053042994 -1.1129218939408376 0.0
    vertex -3.7239092362730872 -2.149999999999999 0.0
  endloop
endfacet
facet normal 0.0 0.0 -1.0
  outer loop
    vertex -3.5000000000000027 -6.0621778264910695 0.0
    vertex -3.7239092362730872 -2.149999999999999 0.0
    vertex -3.040559159102156 -3.0405591591021524 0.0
  endloop
endfacet
facet normal 0.0 0.0 -1.0
  outer loop
    vertex -3.5000000000000027 -6.0621778264910695 0.0
    vertex -3.040559159102156 -3.0405591591021524 0.0
    vertex -1.8117333157176505 -6.761480784023476 0.0
  endloop
endfacet
facet normal 0.0 0.0 -1.0
  outer loop
    vertex -1.8117333157176505 -6.761480784023476 0.0
    vertex -3.040559159102156 -3.0405591591021524 0.0
    vertex -2.1500000000000017 -3.723909236273085 0.0
  endloop
endfacet
facet normal 0.0 0.0 -1.0
  outer loop
    vertex -1.8117333157176505 -6.761480784023476 0.0
    vertex -2.1500000000000017 -3.723909236273085 0.0
    vertex -1.1129218939408425 -4.153481053042992 0.0
  endloop
endfacet
facet normal 0.0 0.0 -1.0
  outer loop
    vertex -1.8117333157176505 -6.761480784023476 0.0
    vertex -1.1129218939408425 -4.153481053042992 0.0
    vertex -1.2858791391047208e-15 -7.0 0.0
  endloop
endfacet
facet normal 0.0 0.0 -1.0
  outer loop
    vertex -1.2858791391047208e-15 -7.0 0.0
    vertex -1.1129218939408425 -4.153481053042992 0.0
    vertex -7.898971854500428e-16 -4.3 0.0
  endloop
endfacet
facet normal 0.0 0.0 -1.0
  outer loop
    vertex -1.2858791391047208e-15 -7.0 0.0
    vertex -7.898971854500428e-16 -4.3 0.0
    vertex 1.811733315717642 -6.761480784023479 0.0
  endloop
endfacet
facet normal 0.0 0.0 -1.0
  outer loop
    vertex 1.811733315717642 -6.761480784023479 0.0
    vertex -7.898971854500428e-16 -4.3 0.0
    vertex 1.1129218939408372 -4.153481053042994 0.0
  endloop
endfacet
facet normal 0.0 0.0 -1.0
  outer loop
    vertex 1.811733315717642 -6.761480784023479 0.0
    vertex 1.1129218939408372 -4.153481053042994 0.0
    vertex 2.1499999999999972 -3.7239092362730877 0.0
  endloop
endfacet
facet normal 0.0 0.0 -1.0
  outer loop
    vertex 1.811733315717642 -6.761480784023479 0.0
    vertex 2.1499999999999972 -3.7239092362730877 0.0
    vertex 3.499999999999995 -6.062177826491073 0.0
  endloop
endfacet
facet normal 0.0 0.0 -1.0
  outer loop
    vertex 3.499999999999995 -6.062177826491073 0.0
    vertex 2.1499999999999972 -3.7239092362730877 0.0
    vertex 3.0405591591021537 -3.040559159102155 0.0
  endloop
endfacet
facet normal 0.0 0.0 -1.0
  outer loop
    vertex 3.499999999999995 -6.062177826491073 0.0
    vertex 3.0405591591021537 -3.040559159102155 0.0
    vertex 3.723909236273085 -2.1500000000000017 0.0
  endloop
endfacet
facet normal 0.0 0.0 -1.0
  outer loop
    vertex 3.499999999999995 -6.062177826491073 0.0
    vertex 3.723909236273085 -2.1500000000000017 0.0
    vertex 4.949747468305832 -4.949747468305834 0.0
  endloop
endfacet
facet normal 0.0 0.0 -1.0
  outer loop
    vertex 4.949747468305832 -4.949747468305834 0.0
    vertex 3.723909236273085 -2.1500000000000017 0.0
    vertex 4.153481053042992 -1.1129218939408427 0.0
  endloop
endfacet
facet normal 0.0 0.0 -1.0
  outer loop
    vertex 4.949747468305832 -4.949747468305834 0.0
    vertex 4.153481053042992 -1.1129218939408427 0.0
    vertex 4.3 0.0 0.0
  endloop
endfacet
facet normal -0.0 -0.0 1.0
  outer loop
    vertex -6.761480784023479 -1.8117333157176425 1.9999999999999998
    vertex -6.761480784023478 1.811733315717647 1.9999999999999998
    vertex -7.0 8.572527594031472e-16 1.9999999999999998
  endloop
endfacet
facet normal -0.0 -0.0 1.0
  outer loop
    vertex -6.761480784023478 1.811733315717647 1.9999999999999998
    vertex -6.761480784023479 -1.8117333157176425 1.9999999999999998
    vertex -6.062177826491071 -3.499999999999998 1.9999999999999998
  endloop
endfacet
facet normal -0.0 -0.0 1.0
  outer loop
    vertex -6.761480784023478 1.811733315717647 1.9999999999999998
    vertex -6.062177826491071 -3.499999999999998 1.9999999999999998
    vertex -6.0621778264910695 3.500000000000002 1.9999999999999998
  endloop
endfacet
facet normal -0.0 -0.0 1.0
  outer loop
    vertex -6.0621778264910695 3.500000000000002 1.9999999999999998
    vertex -6.062177826491071 -3.499999999999998 1.9999999999999998
    vertex -4.949747468305835 -4.949747468305829 1.9999999999999998
  endloop
endfacet
facet normal -0.0 -0.0 1.0
  outer loop
    vertex -6.0621778264910695 3.500000000000002 1.9999999999999998
    vertex -4.949747468305835 -4.949747468305829 1.9999999999999998
    vertex -4.949747468305833 4.949747468305833 1.9999999999999998
  endloop
endfacet
facet normal -0.0 -0.0 1.0
  outer loop
    vertex -4.949747468305833 4.949747468305833 1.9999999999999998
    vertex -4.949747468305835 -4.949747468305829 1.9999999999999998
    vertex -4.3 5.265981236333618e-16 1.9999999999999998
  endloop
endfacet
facet normal -0.0 -0.0 1.0
  outer loop
    vertex -4.3 5.265981236333618e-16 1.9999999999999998
    vertex -4.949747468305835 -4.949747468305829 1.9999999999999998
    vertex -4.153481053042994 -1.1129218939408376 1.9999999999999998
  endloop
endfacet
facet normal -0.0 -0.0 1.0
  outer loop
    vertex -4.153481053042994 -1.1129218939408376 1.9999999999999998
    vertex -4.949747468305835 -4.949747468305829 1.9999999999999998
    vertex -3.5000000000000027 -6.0621778264910695 1.9999999999999998
  endloop
endfacet
facet normal -0.0 -0.0 1.0
  outer loop
    vertex -4.153481053042994 -1.1129218939408376 1.9999999999999998
    vertex -3.5000000000000027 -6.0621778264910695 1.9999999999999998
    vertex -3.7239092362730872 -2.149999999999999 1.9999999999999998
  endloop
endfacet
facet normal -0.0 -0.0 1.0
  outer loop
    vertex -3.7239092362730872 -2.149999999999999 1.9999999999999998
    vertex -3.5000000000000027 -6.0621778264910695 1.9999999999999998
    vertex -3.040559159102156 -3.0405591591021524 1.9999999999999998
  endloop
endfacet
facet normal -0.0 -0.0 1.0
  outer loop
    vertex -3.040559159102156 -3.0405591591021524 1.9999999999999998
    vertex -3.5000000000000027 -6.0621778264910695 1.9999999999999998
    vertex -1.8117333157176505 -6.761480784023476 1.9999999999999998
  endloop
endfacet
facet normal -0.0 -0.0 1.0
  outer loop
    vertex -3.040559159102156 -3.0405591591021524 1.9999999999999998
    vertex -1.8117333157176505 -6.761480784023476 1.9999999999999998
    vertex -2.1500000000000017 -3.723909236273085 1.9999999999999998
  endloop
endfacet
facet normal -0.0 -0.0 1.0
  outer loop
    vertex -2.1500000000000017 -3.723909236273085 1.9999999999999998
    vertex -1.8117333157176505 -6.761480784023476 1.9999999999999998
    vertex -1.1129218939408425 -4.153481053042992 1.9999999999999998
  endloop
endfacet
facet normal -0.0 -0.0 1.0
  outer loop
    vertex -1.1129218939408425 -4.153481053042992 1.9999999999999998
    vertex -1.8117333157176505 -6.761480784023476 1.9999999999999998
    vertex -1.2858791391047208e-15 -7.0 1.9999999999999998
  endloop
endfacet
facet normal -0.0 -0.0 1.0
  outer loop
    vertex -1.1129218939408425 -4.153481053042992 1.9999999999999998
    vertex -1.2858791391047208e-15 -7.0 1.9999999999999998
    vertex -7.898971854500428e-16 -4.3 1.9999999999999998
  endloop
endfacet
facet normal -0.0 -0.0 1.0
  outer loop
    vertex -7.898971854500428e-16 -4.3 1.9999999999999998
    vertex -1.2858791391047208e-15 -7.0 1.9999999999999998
    vertex 1.811733315717642 -6.761480784023479 1.9999999999999998
  endloop
endfacet
facet normal -0.0 -0.0 1.0
  outer loop
    vertex -7.898971854500428e-16 -4.3 1.9999999999999998
    vertex 1.811733315717642 -6.761480784023479 1.9999999999999998
    vertex 1.1129218939408372 -4.153481053042994 1.9999999999999998
  endloop
endfacet
facet normal -0.0 -0.0 1.0
  outer loop
    vertex 1.1129218939408372 -4.153481053042994 1.9999999999999998
    vertex 1.811733315717642 -6.761480784023479 1.9999999999999998
    vertex 2.1499999999999972 -3.7239092362730877 1.9999999999999998
  endloop
endfacet
facet normal -0.0 -0.0 1.0
  outer loop
    vertex 2.1499999999999972 -3.7239092362730877 1.9999999999999998
    vertex 1.811733315717642 -6.761480784023479 1.9999999999999998
    vertex 3.499999999999995 -6.062177826491073 1.9999999999999998
  endloop
endfacet
facet normal -0.0 -0.0 1.0
  outer loop
    vertex 2.1499999999999972 -3.7239092362730877 1.9999999999999998
    vertex 3.499999999999995 -6.062177826491073 1.9999999999999998
    vertex 3.0405591591021537 -3.040559159102155 1.9999999999999998
  endloop
endfacet
facet normal -0.0 -0.0 1.0
  outer loop
    vertex 3.0405591591021537 -3.040559159102155 1.9999999999999998
    vertex 3.499999999999995 -6.062177826491073 1.9999999999999998
    vertex 3.723909236273085 -2.1500000000000017 1.9999999999999998
  endloop
endfacet
facet normal -0.0 -0.0 1.0
  outer loop
    vertex 3.723909236273085 -2.1500000000000017 1.9999999999999998
    vertex 3.499999999999995 -6.062177826491073 1.9999999999999998
    vertex 4.949747468305832 -4.949747468305834 1.9999999999999998
  endloop
endfacet
facet normal -0.0 -0.0 1.0
  outer loop
    vertex 3.723909236273085 -2.1500000000000017 1.9999999999999998
    vertex 4.949747468305832 -4.949747468305834 1.9999999999999998
    vertex 4.153481053042992 -1.1129218939408427 1.9999999999999998
  endloop
endfacet
facet normal -0.0 -0.0 1.0
  outer loop
    vertex 4.153481053042992 -1.1129218939408427 1.9999999999999998
    vertex 4.949747468305832 -4.949747468305834 1.9999999999999998
    vertex 4.3 0.0 1.9999999999999998
  endloop
endfacet
facet normal -0.0 -0.0 1.0
  outer loop
    vertex -4.949747468305833 4.949747468305833 1.9999999999999998
    vertex -4.153481053042993 1.1129218939408403 1.9999999999999998
    vertex -3.4999999999999987 6.06217782649107 1.9999999999999998
  endloop
endfacet
facet normal -0.0 -0.0 1.0
  outer loop
    vertex -4.153481053042993 1.1129218939408403 1.9999999999999998
    vertex -4.949747468305833 4.949747468305833 1.9999999999999998
    vertex -4.3 5.265981236333618e-16 1.9999999999999998
  endloop
endfacet
facet normal -0.0 -0.0 1.0
  outer loop
    vertex -3.4999999999999987 6.06217782649107 1.9999999999999998
    vertex -4.153481053042993 1.1129218939408403 1.9999999999999998
    vertex -3.723909236273085 2.1500000000000012 1.9999999999999998
  endloop
endfacet
facet normal -0.0 -0.0 1.0
  outer loop
    vertex -3.4999999999999987 6.06217782649107 1.9999999999999998
    vertex -3.723909236273085 2.1500000000000012 1.9999999999999998
    vertex -3.0405591591021537 3.0405591591021546 1.9999999999999998
  endloop
endfacet
facet normal -0.0 -0.0 1.0
  outer loop
    vertex -3.4999999999999987 6.06217782649107 1.9999999999999998
    vertex -3.0405591591021537 3.0405591591021546 1.9999999999999998
    vertex -1.8117333157176443 6.761480784023478 1.9999999999999998
  endloop
endfacet
facet normal -0.0 -0.0 1.0
  outer loop
    vertex -1.8117333157176443 6.761480784023478 1.9999999999999998
    vertex -3.0405591591021537 3.0405591591021546 1.9999999999999998
    vertex -2.149999999999999 3.7239092362730863 1.9999999999999998
  endloop
endfacet
facet normal -0.0 -0.0 1.0
  outer loop
    vertex -1.8117333157176443 6.761480784023478 1.9999999999999998
    vertex -2.149999999999999 3.7239092362730863 1.9999999999999998
    vertex -1.1129218939408385 4.153481053042994 1.9999999999999998
  endloop
endfacet
facet normal -0.0 -0.0 1.0
  outer loop
    vertex -1.8117333157176443 6.761480784023478 1.9999999999999998
    vertex -1.1129218939408385 4.153481053042994 1.9999999999999998
    vertex 4.286263797015736e-16 7.0 1.9999999999999998
  endloop
endfacet
facet normal -0.0 -0.0 1.0
  outer loop
    vertex 4.286263797015736e-16 7.0 1.9999999999999998
    vertex -1.1129218939408385 4.153481053042994 1.9999999999999998
    vertex 2.632990618166809e-16 4.3 1.9999999999999998
  endloop
endfacet
facet normal -0.0 -0.0 1.0
  outer loop
    vertex 4.286263797015736e-16 7.0 1.9999999999999998
    vertex 2.632990618166809e-16 4.3 1.9999999999999998
    vertex 1.1129218939408403 4.153481053042993 1.9999999999999998
  endloop
endfacet
facet normal -0.0 -0.0 1.0
  outer loop
    vertex 4.286263797015736e-16 7.0 1.9999999999999998
    vertex 1.1129218939408403 4.153481053042993 1.9999999999999998
    vertex 1.8117333157176467 6.761480784023478 1.9999999999999998
  endloop
endfacet
facet normal -0.0 -0.0 1.0
  outer loop
    vertex 1.8117333157176467 6.761480784023478 1.9999999999999998
    vertex 1.1129218939408403 4.153481053042993 1.9999999999999998
    vertex 2.1500000000000004 3.723909236273086 1.9999999999999998
  endloop
endfacet
facet normal -0.0 -0.0 1.0
  outer loop
    vertex 1.8117333157176467 6.761480784023478 1.9999999999999998
    vertex 2.1500000000000004 3.723909236273086 1.9999999999999998
    vertex 3.5000000000000004 6.06217782649107 1.9999999999999998
  endloop
endfacet
facet normal -0.0 -0.0 1.0
  outer loop
    vertex 3.5000000000000004 6.06217782649107 1.9999999999999998
    vertex 2.1500000000000004 3.723909236273086 1.9999999999999998
    vertex 3.0405591591021546 3.0405591591021546 1.9999999999999998
  endloop
endfacet
facet normal -0.0 -0.0 1.0
  outer loop
    vertex 3.5000000000000004 6.06217782649107 1.9999999999999998
    vertex 3.0405591591021546 3.0405591591021546 1.9999999999999998
    vertex 3.7239092362730863 2.1499999999999995 1.9999999999999998
  endloop
endfacet
facet normal -0.0 -0.0 1.0
  outer loop
    vertex 3.5000000000000004 6.06217782649107 1.9999999999999998
    vertex 3.7239092362730863 2.1499999999999995 1.9999999999999998
    vertex 4.949747468305833 4.949747468305833 1.9999999999999998
  endloop
endfacet
facet normal -0.0 -0.0 1.0
  outer loop
    vertex 4.949747468305833 4.949747468305833 1.9999999999999998
    vertex 3.7239092362730863 2.1499999999999995 1.9999999999999998
    vertex 4.153481053042994 1.1129218939408392 1.9999999999999998
  endloop
endfacet
facet normal -0.0 -0.0 1.0
  outer loop
    vertex 4.949747468305833 4.949747468305833 1.9999999999999998
    vertex 4.153481053042994 1.1129218939408392 1.9999999999999998
    vertex 4.3 0.0 1.9999999999999998
  endloop
endfacet
facet normal -0.0 -0.0 1.0
  outer loop
    vertex 4.949747468305833 4.949747468305833 1.9999999999999998
    vertex 4.3 0.0 1.9999999999999998
    vertex 4.949747468305832 -4.949747468305834 1.9999999999999998
  endloop
endfacet
facet normal -0.0 -0.0 1.0
  outer loop
    vertex 4.949747468305833 4.949747468305833 1.9999999999999998
    vertex 4.949747468305832 -4.949747468305834 1.9999999999999998
    vertex 6.062177826491069 -3.5000000000000027 1.9999999999999998
  endloop
endfacet
facet normal -0.0 -0.0 1.0
  outer loop
    vertex 4.949747468305833 4.949747468305833 1.9999999999999998
    vertex 6.062177826491069 -3.5000000000000027 1.9999999999999998
    vertex 6.06217782649107 3.499999999999999 1.9999999999999998
  endloop
endfacet
facet normal -0.0 -0.0 1.0
  outer loop
    vertex 6.06217782649107 3.499999999999999 1.9999999999999998
    vertex 6.062177826491069 -3.5000000000000027 1.9999999999999998
    vertex 6.761480784023476 -1.811733315717651 1.9999999999999998
  endloop
endfacet
facet normal -0.0 -0.0 1.0
  outer loop
    vertex 6.06217782649107 3.499999999999999 1.9999999999999998
    vertex 6.761480784023476 -1.811733315717651 1.9999999999999998
    vertex 6.761480784023478 1.8117333157176452 1.9999999999999998
  endloop
endfacet
facet normal -0.0 -0.0 1.0
  outer loop
    vertex 6.761480784023478 1.8117333157176452 1.9999999999999998
    vertex 6.761480784023476 -1.811733315717651 1.9999999999999998
    vertex 7.0 0.0 1.9999999999999998
  endloop
endfacet
facet normal 0.9238795325112865 -0.3826834323650904 0.0
  outer loop
    vertex 6.761480784023476 -1.811733315717651 0.0
    vertex 6.062177826491069 -3.5000000000000027 1.9999999999999998
    vertex 6.062177826491069 -3.5000000000000027 0.0
  endloop
endfacet
facet normal 0.9238795325112865 -0.3826834323650904 0.0
  outer loop
    vertex 6.062177826491069 -3.5000000000000027 1.9999999999999998
    vertex 6.761480784023476 -1.811733315717651 0.0
    vertex 6.761480784023476 -1.811733315717651 1.9999999999999998
  endloop
endfacet
facet normal 0.793353340291235 -0.6087614290087208 0.0
  outer loop
    vertex 6.062177826491069 -3.5000000000000027 0.0
    vertex 4.949747468305832 -4.949747468305834 1.9999999999999998
    vertex 4.949747468305832 -4.949747468305834 0.0
  endloop
endfacet
facet normal 0.793353340291235 -0.6087614290087208 0.0
  outer loop
    vertex 4.949747468305832 -4.949747468305834 1.9999999999999998
    vertex 6.062177826491069 -3.5000000000000027 0.0
    vertex 6.062177826491069 -3.5000000000000027 1.9999999999999998
  endloop
endfacet
facet normal 0.6087614290087203 -0.7933533402912356 0.0
  outer loop
    vertex 4.949747468305832 -4.949747468305834 1.9999999999999998
    vertex 3.499999999999995 -6.062177826491073 0.0
    vertex 4.949747468305832 -4.949747468305834 0.0
  endloop
endfacet
facet normal 0.6087614290087203 -0.7933533402912356 0.0
  outer loop
    vertex 3.499999999999995 -6.062177826491073 0.0
    vertex 4.949747468305832 -4.949747468305834 1.9999999999999998
    vertex 3.499999999999995 -6.062177826491073 1.9999999999999998
  endloop
endfacet
facet normal 0.38268343236508917 -0.923879532511287 0.0
  outer loop
    vertex 3.499999999999995 -6.062177826491073 1.9999999999999998
    vertex 1.811733315717642 -6.761480784023479 0.0
    vertex 3.499999999999995 -6.062177826491073 0.0
  endloop
endfacet
facet normal 0.38268343236508917 -0.923879532511287 0.0
  outer loop
    vertex 1.811733315717642 -6.761480784023479 0.0
    vertex 3.499999999999995 -6.062177826491073 1.9999999999999998
    vertex 1.811733315717642 -6.761480784023479 1.9999999999999998
  endloop
endfacet
facet normal 0.13052619222005113 -0.9914448613738106 0.0
  outer loop
    vertex 1.811733315717642 -6.761480784023479 1.9999999999999998
    vertex -1.2858791391047208e-15 -7.0 0.0
    vertex 1.811733315717642 -6.761480784023479 0.0
  endloop
endfacet
facet normal 0.13052619222005113 -0.9914448613738106 0.0
  outer loop
    vertex -1.2858791391047208e-15 -7.0 0.0
    vertex 1.811733315717642 -6.761480784023479 1.9999999999999998
    vertex -1.2858791391047208e-15 -7.0 1.9999999999999998
  endloop
endfacet
facet normal -0.13052619222005224 -0.9914448613738104 -0.0
  outer loop
    vertex -1.2858791391047208e-15 -7.0 1.9999999999999998
    vertex -1.8117333157176505 -6.761480784023476 0.0
    vertex -1.2858791391047208e-15 -7.0 0.0
  endloop
endfacet
facet normal -0.13052619222005224 -0.9914448613738104 -0.0
  outer loop
    vertex -1.8117333157176505 -6.761480784023476 0.0
    vertex -1.2858791391047208e-15 -7.0 1.9999999999999998
    vertex -1.8117333157176505 -6.761480784023476 1.9999999999999998
  endloop
endfacet
facet normal -0.38268343236509 -0.9238795325112867 -0.0
  outer loop
    vertex -1.8117333157176505 -6.761480784023476 1.9999999999999998
    vertex -3.5000000000000027 -6.0621778264910695 0.0
    vertex -1.8117333157176505 -6.761480784023476 0.0
  endloop
endfacet
facet normal -0.38268343236509 -0.9238795325112867 -0.0
  outer loop
    vertex -3.5000000000000027 -6.0621778264910695 0.0
    vertex -1.8117333157176505 -6.761480784023476 1.9999999999999998
    vertex -3.5000000000000027 -6.0621778264910695 1.9999999999999998
  endloop
endfacet
facet normal -0.6087614290087213 -0.7933533402912346 -0.0
  outer loop
    vertex -3.5000000000000027 -6.0621778264910695 1.9999999999999998
    vertex -4.949747468305835 -4.949747468305829 0.0
    vertex -3.5000000000000027 -6.0621778264910695 0.0
  endloop
endfacet
facet normal -0.6087614290087213 -0.7933533402912346 -0.0
  outer loop
    vertex -4.949747468305835 -4.949747468305829 0.0
    vertex -3.5000000000000027 -6.0621778264910695 1.9999999999999998
    vertex -4.949747468305835 -4.949747468305829 1.9999999999999998
  endloop
endfacet
facet normal -0.7933533402912354 -0.6087614290087203 -0.0
  outer loop
    vertex -6.062177826491071 -3.499999999999998 1.9999999999999998
    vertex -4.949747468305835 -4.949747468305829 0.0
    vertex -4.949747468305835 -4.949747468305829 1.9999999999999998
  endloop
endfacet
facet normal -0.7933533402912354 -0.6087614290087203 -0.0
  outer loop
    vertex -4.949747468305835 -4.949747468305829 0.0
    vertex -6.062177826491071 -3.499999999999998 1.9999999999999998
    vertex -6.062177826491071 -3.499999999999998 0.0
  endloop
endfacet
facet normal -0.9238795325112868 -0.3826834323650898 -0.0
  outer loop
    vertex -6.761480784023479 -1.8117333157176425 1.9999999999999998
    vertex -6.062177826491071 -3.499999999999998 0.0
    vertex -6.062177826491071 -3.499999999999998 1.9999999999999998
  endloop
endfacet
facet normal -0.9238795325112868 -0.3826834323650898 -0.0
  outer loop
    vertex -6.062177826491071 -3.499999999999998 0.0
    vertex -6.761480784023479 -1.8117333157176425 1.9999999999999998
    vertex -6.761480784023479 -1.8117333157176425 0.0
  endloop
endfacet
facet normal -0.9914448613738105 -0.13052619222005113 -0.0
  outer loop
    vertex -7.0 8.572527594031472e-16 1.9999999999999998
    vertex -6.761480784023479 -1.8117333157176425 0.0
    vertex -6.761480784023479 -1.8117333157176425 1.9999999999999998
  endloop
endfacet
facet normal -0.9914448613738105 -0.13052619222005113 -0.0
  outer loop
    vertex -6.761480784023479 -1.8117333157176425 0.0
    vertex -7.0 8.572527594031472e-16 1.9999999999999998
    vertex -7.0 8.572527594031472e-16 0.0
  endloop
endfacet
facet normal -0.9914448613738104 0.13052619222005168 0.0
  outer loop
    vertex -6.761480784023478 1.811733315717647 1.9999999999999998
    vertex -7.0 8.572527594031472e-16 0.0
    vertex -7.0 8.572527594031472e-16 1.9999999999999998
  endloop
endfacet
facet normal -0.9914448613738104 0.13052619222005168 0.0
  outer loop
    vertex -7.0 8.572527594031472e-16 0.0
    vertex -6.761480784023478 1.811733315717647 1.9999999999999998
    vertex -6.761480784023478 1.811733315717647 0.0
  endloop
endfacet
facet normal -0.9238795325112867 0.3826834323650901 0.0
  outer loop
    vertex -6.0621778264910695 3.500000000000002 1.9999999999999998
    vertex -6.761480784023478 1.811733315717647 0.0
    vertex -6.761480784023478 1.811733315717647 1.9999999999999998
  endloop
endfacet
facet normal -0.9238795325112867 0.3826834323650901 0.0
  outer loop
    vertex -6.761480784023478 1.811733315717647 0.0
    vertex -6.0621778264910695 3.500000000000002 1.9999999999999998
    vertex -6.0621778264910695 3.500000000000002 0.0
  endloop
endfacet
facet normal -0.793353340291235 0.6087614290087208 0.0
  outer loop
    vertex -4.949747468305833 4.949747468305833 1.9999999999999998
    vertex -6.0621778264910695 3.500000000000002 0.0
    vertex -6.0621778264910695 3.500000000000002 1.9999999999999998
  endloop
endfacet
facet normal -0.793353340291235 0.6087614290087208 0.0
  outer loop
    vertex -6.0621778264910695 3.500000000000002 0.0
    vertex -4.949747468305833 4.949747468305833 1.9999999999999998
    vertex -4.949747468305833 4.949747468305833 0.0
  endloop
endfacet
facet normal -0.6087614290087203 0.7933533402912356 0.0
  outer loop
    vertex -4.949747468305833 4.949747468305833 1.9999999999999998
    vertex -3.4999999999999987 6.06217782649107 0.0
    vertex -4.949747468305833 4.949747468305833 0.0
  endloop
endfacet
facet normal -0.6087614290087203 0.7933533402912356 0.0
  outer loop
    vertex -3.4999999999999987 6.06217782649107 0.0
    vertex -4.949747468305833 4.949747468305833 1.9999999999999998
    vertex -3.4999999999999987 6.06217782649107 1.9999999999999998
  endloop
endfacet
facet normal -0.38268343236508967 0.923879532511287 0.0
  outer loop
    vertex -3.4999999999999987 6.06217782649107 1.9999999999999998
    vertex -1.8117333157176443 6.761480784023478 0.0
    vertex -3.4999999999999987 6.06217782649107 0.0
  endloop
endfacet
facet normal -0.38268343236508967 0.923879532511287 0.0
  outer loop
    vertex -1.8117333157176443 6.761480784023478 0.0
    vertex -3.4999999999999987 6.06217782649107 1.9999999999999998
    vertex -1.8117333157176443 6.761480784023478 1.9999999999999998
  endloop
endfacet
facet normal -0.1305261922200518 0.9914448613738105 0.0
  outer loop
    vertex -1.8117333157176443 6.761480784023478 1.9999999999999998
    vertex 4.286263797015736e-16 7.0 0.0
    vertex -1.8117333157176443 6.761480784023478 0.0
  endloop
endfacet
facet normal -0.1305261922200518 0.9914448613738105 0.0
  outer loop
    vertex 4.286263797015736e-16 7.0 0.0
    vertex -1.8117333157176443 6.761480784023478 1.9999999999999998
    vertex 4.286263797015736e-16 7.0 1.9999999999999998
  endloop
endfacet
facet normal 0.13052619222005168 0.9914448613738104 0.0
  outer loop
    vertex 4.286263797015736e-16 7.0 1.9999999999999998
    vertex 1.8117333157176467 6.761480784023478 0.0
    vertex 4.286263797015736e-16 7.0 0.0
  endloop
endfacet
facet normal 0.13052619222005168 0.9914448613738104 0.0
  outer loop
    vertex 1.8117333157176467 6.761480784023478 0.0
    vertex 4.286263797015736e-16 7.0 1.9999999999999998
    vertex 1.8117333157176467 6.761480784023478 1.9999999999999998
  endloop
endfacet
facet normal 0.38268343236509006 0.9238795325112868 0.0
  outer loop
    vertex 1.8117333157176467 6.761480784023478 1.9999999999999998
    vertex 3.5000000000000004 6.06217782649107 0.0
    vertex 1.8117333157176467 6.761480784023478 0.0
  endloop
endfacet
facet normal 0.38268343236509006 0.9238795325112868 0.0
  outer loop
    vertex 3.5000000000000004 6.06217782649107 0.0
    vertex 1.8117333157176467 6.761480784023478 1.9999999999999998
    vertex 3.5000000000000004 6.06217782649107 1.9999999999999998
  endloop
endfacet
facet normal 0.6087614290087204 0.7933533402912354 0.0
  outer loop
    vertex 3.5000000000000004 6.06217782649107 1.9999999999999998
    vertex 4.949747468305833 4.949747468305833 0.0
    vertex 3.5000000000000004 6.06217782649107 0.0
  endloop
endfacet
facet normal 0.6087614290087204 0.7933533402912354 0.0
  outer loop
    vertex 4.949747468305833 4.949747468305833 0.0
    vertex 3.5000000000000004 6.06217782649107 1.9999999999999998
    vertex 4.949747468305833 4.949747468305833 1.9999999999999998
  endloop
endfacet
facet normal 0.7933533402912356 0.6087614290087203 0.0
  outer loop
    vertex 4.949747468305833 4.949747468305833 0.0
    vertex 6.06217782649107 3.499999999999999 1.9999999999999998
    vertex 6.06217782649107 3.499999999999999 0.0
  endloop
endfacet
facet normal 0.7933533402912356 0.6087614290087203 0.0
  outer loop
    vertex 6.06217782649107 3.499999999999999 1.9999999999999998
    vertex 4.949747468305833 4.949747468305833 0.0
    vertex 4.949747468305833 4.949747468305833 1.9999999999999998
  endloop
endfacet
facet normal 0.9238795325112868 0.38268343236508967 0.0
  outer loop
    vertex 6.06217782649107 3.499999999999999 0.0
    vertex 6.761480784023478 1.8117333157176452 1.9999999999999998
    vertex 6.761480784023478 1.8117333157176452 0.0
  endloop
endfacet
facet normal 0.9238795325112868 0.38268343236508967 0.0
  outer loop
    vertex 6.761480784023478 1.8117333157176452 1.9999999999999998
    vertex 6.06217782649107 3.499999999999999 0.0
    vertex 6.06217782649107 3.499999999999999 1.9999999999999998
  endloop
endfacet
facet normal 0.9914448613738105 0.13052619222005177 0.0
  outer loop
    vertex 6.761480784023478 1.8117333157176452 0.0
    vertex 7.0 0.0 1.9999999999999998
    vertex 7.0 0.0 0.0
  endloop
endfacet
facet normal 0.9914448613738105 0.13052619222005177 0.0
  outer loop
    vertex 7.0 0.0 1.9999999999999998
    vertex 6.761480784023478 1.8117333157176452 0.0
    vertex 6.761480784023478 1.8117333157176452 1.9999999999999998
  endloop
endfacet
facet normal 0.9914448613738105 -0.13052619222005213 0.0
  outer loop
    vertex 7.0 0.0 0.0
    vertex 6.761480784023476 -1.811733315717651 1.9999999999999998
    vertex 6.761480784023476 -1.811733315717651 0.0
  endloop
endfacet
facet normal 0.9914448613738105 -0.13052619222005213 0.0
  outer loop
    vertex 6.761480784023476 -1.811733315717651 1.9999999999999998
    vertex 7.0 0.0 0.0
    vertex 7.0 0.0 1.9999999999999998
  endloop
endfacet
facet normal -0.6087614290087203 0.7933533402912354 0.0
  outer loop
    vertex 2.1499999999999972 -3.7239092362730877 1.9999999999999998
    vertex 3.0405591591021537 -3.040559159102155 0.0
    vertex 2.1499999999999972 -3.7239092362730877 0.0
  endloop
endfacet
facet normal -0.6087614290087203 0.7933533402912354 0.0
  outer loop
    vertex 3.0405591591021537 -3.040559159102155 0.0
    vertex 2.1499999999999972 -3.7239092362730877 1.9999999999999998
    vertex 3.0405591591021537 -3.040559159102155 1.9999999999999998
  endloop
endfacet
facet normal -0.7933533402912349 0.6087614290087209 0.0
  outer loop
    vertex 3.723909236273085 -2.1500000000000017 1.9999999999999998
    vertex 3.0405591591021537 -3.040559159102155 0.0
    vertex 3.0405591591021537 -3.040559159102155 1.9999999999999998
  endloop
endfacet
facet normal -0.7933533402912349 0.6087614290087209 0.0
  outer loop
    vertex 3.0405591591021537 -3.040559159102155 0.0
    vertex 3.723909236273085 -2.1500000000000017 1.9999999999999998
    vertex 3.723909236273085 -2.1500000000000017 0.0
  endloop
endfacet
facet normal -0.9238795325112867 0.3826834323650904 0.0
  outer loop
    vertex 4.153481053042992 -1.1129218939408427 1.9999999999999998
    vertex 3.723909236273085 -2.1500000000000017 0.0
    vertex 3.723909236273085 -2.1500000000000017 1.9999999999999998
  endloop
endfacet
facet normal -0.9238795325112867 0.3826834323650904 0.0
  outer loop
    vertex 3.723909236273085 -2.1500000000000017 0.0
    vertex 4.153481053042992 -1.1129218939408427 1.9999999999999998
    vertex 4.153481053042992 -1.1129218939408427 0.0
  endloop
endfacet
facet normal -0.9914448613738105 0.1305261922200521 0.0
  outer loop
    vertex 4.3 0.0 1.9999999999999998
    vertex 4.153481053042992 -1.1129218939408427 0.0
    vertex 4.153481053042992 -1.1129218939408427 1.9999999999999998
  endloop
endfacet
facet normal -0.9914448613738105 0.1305261922200521 0.0
  outer loop
    vertex 4.153481053042992 -1.1129218939408427 0.0
    vertex 4.3 0.0 1.9999999999999998
    vertex 4.3 0.0 0.0
  endloop
endfacet
facet normal -0.9914448613738106 -0.1305261922200513 -0.0
  outer loop
    vertex 4.153481053042994 1.1129218939408392 1.9999999999999998
    vertex 4.3 0.0 0.0
    vertex 4.3 0.0 1.9999999999999998
  endloop
endfacet
facet normal -0.9914448613738106 -0.1305261922200513 -0.0
  outer loop
    vertex 4.3 0.0 0.0
    vertex 4.153481053042994 1.1129218939408392 1.9999999999999998
    vertex 4.153481053042994 1.1129218939408392 0.0
  endloop
endfacet
facet normal -0.9238795325112868 -0.38268343236508995 -0.0
  outer loop
    vertex 3.7239092362730863 2.1499999999999995 1.9999999999999998
    vertex 4.153481053042994 1.1129218939408392 0.0
    vertex 4.153481053042994 1.1129218939408392 1.9999999999999998
  endloop
endfacet
facet normal -0.9238795325112868 -0.38268343236508995 -0.0
  outer loop
    vertex 4.153481053042994 1.1129218939408392 0.0
    vertex 3.7239092362730863 2.1499999999999995 1.9999999999999998
    vertex 3.7239092362730863 2.1499999999999995 0.0
  endloop
endfacet
facet normal -0.7933533402912354 -0.6087614290087203 -0.0
  outer loop
    vertex 3.0405591591021546 3.0405591591021546 1.9999999999999998
    vertex 3.7239092362730863 2.1499999999999995 0.0
    vertex 3.7239092362730863 2.1499999999999995 1.9999999999999998
  endloop
endfacet
facet normal -0.7933533402912354 -0.6087614290087203 -0.0
  outer loop
    vertex 3.7239092362730863 2.1499999999999995 0.0
    vertex 3.0405591591021546 3.0405591591021546 1.9999999999999998
    vertex 3.0405591591021546 3.0405591591021546 0.0
  endloop
endfacet
facet normal -0.6087614290087203 -0.7933533402912355 -0.0
  outer loop
    vertex 3.0405591591021546 3.0405591591021546 1.9999999999999998
    vertex 2.1500000000000004 3.723909236273086 0.0
    vertex 3.0405591591021546 3.0405591591021546 0.0
  endloop
endfacet
facet normal -0.6087614290087203 -0.7933533402912355 -0.0
  outer loop
    vertex 2.1500000000000004 3.723909236273086 0.0
    vertex 3.0405591591021546 3.0405591591021546 1.9999999999999998
    vertex 2.1500000000000004 3.723909236273086 1.9999999999999998
  endloop
endfacet
facet normal -0.38268343236509 -0.9238795325112867 -0.0
  outer loop
    vertex 2.1500000000000004 3.723909236273086 1.9999999999999998
    vertex 1.1129218939408403 4.153481053042993 0.0
    vertex 2.1500000000000004 3.723909236273086 0.0
  endloop
endfacet
facet normal -0.38268343236509 -0.9238795325112867 -0.0
  outer loop
    vertex 1.1129218939408403 4.153481053042993 0.0
    vertex 2.1500000000000004 3.723909236273086 1.9999999999999998
    vertex 1.1129218939408403 4.153481053042993 1.9999999999999998
  endloop
endfacet
facet normal -0.1305261922200518 -0.9914448613738104 -0.0
  outer loop
    vertex 1.1129218939408403 4.153481053042993 1.9999999999999998
    vertex 2.632990618166809e-16 4.3 0.0
    vertex 1.1129218939408403 4.153481053042993 0.0
  endloop
endfacet
facet normal -0.1305261922200518 -0.9914448613738104 -0.0
  outer loop
    vertex 2.632990618166809e-16 4.3 0.0
    vertex 1.1129218939408403 4.153481053042993 1.9999999999999998
    vertex 2.632990618166809e-16 4.3 1.9999999999999998
  endloop
endfacet
facet normal 0.13052619222005132 -0.9914448613738106 0.0
  outer loop
    vertex 2.632990618166809e-16 4.3 1.9999999999999998
    vertex -1.1129218939408385 4.153481053042994 0.0
    vertex 2.632990618166809e-16 4.3 0.0
  endloop
endfacet
facet normal 0.13052619222005132 -0.9914448613738106 0.0
  outer loop
    vertex -1.1129218939408385 4.153481053042994 0.0
    vertex 2.632990618166809e-16 4.3 1.9999999999999998
    vertex -1.1129218939408385 4.153481053042994 1.9999999999999998
  endloop
endfacet
facet normal 0.38268343236509 -0.9238795325112868 0.0
  outer loop
    vertex -1.1129218939408385 4.153481053042994 1.9999999999999998
    vertex -2.149999999999999 3.7239092362730863 0.0
    vertex -1.1129218939408385 4.153481053042994 0.0
  endloop
endfacet
facet normal 0.38268343236509 -0.9238795325112868 0.0
  outer loop
    vertex -2.149999999999999 3.7239092362730863 0.0
    vertex -1.1129218939408385 4.153481053042994 1.9999999999999998
    vertex -2.149999999999999 3.7239092362730863 1.9999999999999998
  endloop
endfacet
facet normal 0.6087614290087203 -0.7933533402912354 0.0
  outer loop
    vertex -2.149999999999999 3.7239092362730863 1.9999999999999998
    vertex -3.0405591591021537 3.0405591591021546 0.0
    vertex -2.149999999999999 3.7239092362730863 0.0
  endloop
endfacet
facet normal 0.6087614290087203 -0.7933533402912354 0.0
  outer loop
    vertex -3.0405591591021537 3.0405591591021546 0.0
    vertex -2.149999999999999 3.7239092362730863 1.9999999999999998
    vertex -3.0405591591021537 3.0405591591021546 1.9999999999999998
  endloop
endfacet
facet normal 0.7933533402912353 -0.6087614290087208 0.0
  outer loop
    vertex -3.0405591591021537 3.0405591591021546 0.0
    vertex -3.723909236273085 2.1500000000000012 1.9999999999999998
    vertex -3.723909236273085 2.1500000000000012 0.0
  endloop
endfacet
facet normal 0.7933533402912353 -0.6087614290087208 0.0
  outer loop
    vertex -3.723909236273085 2.1500000000000012 1.9999999999999998
    vertex -3.0405591591021537 3.0405591591021546 0.0
    vertex -3.0405591591021537 3.0405591591021546 1.9999999999999998
  endloop
endfacet
facet normal 0.9238795325112867 -0.38268343236509034 0.0
  outer loop
    vertex -3.723909236273085 2.1500000000000012 0.0
    vertex -4.153481053042993 1.1129218939408403 1.9999999999999998
    vertex -4.153481053042993 1.1129218939408403 0.0
  endloop
endfacet
facet normal 0.9238795325112867 -0.38268343236509034 0.0
  outer loop
    vertex -4.153481053042993 1.1129218939408403 1.9999999999999998
    vertex -3.723909236273085 2.1500000000000012 0.0
    vertex -3.723909236273085 2.1500000000000012 1.9999999999999998
  endloop
endfacet
facet normal 0.9914448613738104 -0.1305261922200518 0.0
  outer loop
    vertex -4.153481053042993 1.1129218939408403 0.0
    vertex -4.3 5.265981236333618e-16 1.9999999999999998
    vertex -4.3 5.265981236333618e-16 0.0
  endloop
endfacet
facet normal 0.9914448613738104 -0.1305261922200518 0.0
  outer loop
    vertex -4.3 5.265981236333618e-16 1.9999999999999998
    vertex -4.153481053042993 1.1129218939408403 0.0
    vertex -4.153481053042993 1.1129218939408403 1.9999999999999998
  endloop
endfacet
facet normal 0.9914448613738106 0.1305261922200514 0.0
  outer loop
    vertex -4.3 5.265981236333618e-16 0.0
    vertex -4.153481053042994 -1.1129218939408376 1.9999999999999998
    vertex -4.153481053042994 -1.1129218939408376 0.0
  endloop
endfacet
facet normal 0.9914448613738106 0.1305261922200514 0.0
  outer loop
    vertex -4.153481053042994 -1.1129218939408376 1.9999999999999998
    vertex -4.3 5.265981236333618e-16 0.0
    vertex -4.3 5.265981236333618e-16 1.9999999999999998
  endloop
endfacet
facet normal 0.9238795325112872 0.3826834323650891 0.0
  outer loop
    vertex -4.153481053042994 -1.1129218939408376 0.0
    vertex -3.7239092362730872 -2.149999999999999 1.9999999999999998
    vertex -3.7239092362730872 -2.149999999999999 0.0
  endloop
endfacet
facet normal 0.9238795325112872 0.3826834323650891 0.0
  outer loop
    vertex -3.7239092362730872 -2.149999999999999 1.9999999999999998
    vertex -4.153481053042994 -1.1129218939408376 0.0
    vertex -4.153481053042994 -1.1129218939408376 1.9999999999999998
  endloop
endfacet
facet normal 0.7933533402912353 0.6087614290087205 0.0
  outer loop
    vertex -3.7239092362730872 -2.149999999999999 0.0
    vertex -3.040559159102156 -3.0405591591021524 1.9999999999999998
    vertex -3.040559159102156 -3.0405591591021524 0.0
  endloop
endfacet
facet normal 0.7933533402912353 0.6087614290087205 0.0
  outer loop
    vertex -3.040559159102156 -3.0405591591021524 1.9999999999999998
    vertex -3.7239092362730872 -2.149999999999999 0.0
    vertex -3.7239092362730872 -2.149999999999999 1.9999999999999998
  endloop
endfacet
facet normal 0.6087614290087211 0.7933533402912348 0.0
  outer loop
    vertex -3.040559159102156 -3.0405591591021524 1.9999999999999998
    vertex -2.1500000000000017 -3.723909236273085 0.0
    vertex -3.040559159102156 -3.0405591591021524 0.0
  endloop
endfacet
facet normal 0.6087614290087211 0.7933533402912348 0.0
  outer loop
    vertex -2.1500000000000017 -3.723909236273085 0.0
    vertex -3.040559159102156 -3.0405591591021524 1.9999999999999998
    vertex -2.1500000000000017 -3.723909236273085 1.9999999999999998
  endloop
endfacet
facet normal 0.38268343236509034 0.9238795325112867 0.0
  outer loop
    vertex -2.1500000000000017 -3.723909236273085 1.9999999999999998
    vertex -1.1129218939408425 -4.153481053042992 0.0
    vertex -2.1500000000000017 -3.723909236273085 0.0
  endloop
endfacet
facet normal 0.38268343236509034 0.9238795325112867 0.0
  outer loop
    vertex -1.1129218939408425 -4.153481053042992 0.0
    vertex -2.1500000000000017 -3.723909236273085 1.9999999999999998
    vertex -1.1129218939408425 -4.153481053042992 1.9999999999999998
  endloop
endfacet
facet normal 0.1305261922200522 0.9914448613738105 0.0
  outer loop
    vertex -1.1129218939408425 -4.153481053042992 1.9999999999999998
    vertex -7.898971854500428e-16 -4.3 0.0
    vertex -1.1129218939408425 -4.153481053042992 0.0
  endloop
endfacet
facet normal 0.1305261922200522 0.9914448613738105 0.0
  outer loop
    vertex -7.898971854500428e-16 -4.3 0.0
    vertex -1.1129218939408425 -4.153481053042992 1.9999999999999998
    vertex -7.898971854500428e-16 -4.3 1.9999999999999998
  endloop
endfacet
facet normal -0.13052619222005143 0.9914448613738106 0.0
  outer loop
    vertex -7.898971854500428e-16 -4.3 1.9999999999999998
    vertex 1.1129218939408372 -4.153481053042994 0.0
    vertex -7.898971854500428e-16 -4.3 0.0
  endloop
endfacet
facet normal -0.13052619222005143 0.9914448613738106 0.0
  outer loop
    vertex 1.1129218939408372 -4.153481053042994 0.0
    vertex -7.898971854500428e-16 -4.3 1.9999999999999998
    vertex 1.1129218939408372 -4.153481053042994 1.9999999999999998
  endloop
endfacet
facet normal -0.38268343236508895 0.9238795325112871 0.0
  outer loop
    vertex 1.1129218939408372 -4.153481053042994 1.9999999999999998
    vertex 2.1499999999999972 -3.7239092362730877 0.0
    vertex 1.1129218939408372 -4.153481053042994 0.0
  endloop
endfacet
facet normal -0.38268343236508895 0.9238795325112871 0.0
  outer loop
    vertex 2.1499999999999972 -3.7239092362730877 0.0
    vertex 1.1129218939408372 -4.153481053042994 1.9999999999999998
    vertex 2.1499999999999972 -3.7239092362730877 1.9999999999999998
  endloop
endfacet
endsolid Шайба-8х14мм-2мм
