solid Подшипник-на-ремень-верx-бок-прав
facet normal 1.0 -0.0 -0.0
  outer loop
    vertex 15.52999228064603 9.79209655107494 4.999999999999989
    vertex 15.52999228064603 5.2333571006315625 11.999999999999986
    vertex 15.52999228064603 5.2333571006315625 4.999999999999989
  endloop
endfacet
facet normal 1.0 -0.0 -0.0
  outer loop
    vertex 15.52999228064603 5.2333571006315625 11.999999999999986
    vertex 15.52999228064603 9.79209655107494 4.999999999999989
    vertex 15.52999228064603 9.792096551074929 11.999999999999986
  endloop
endfacet
facet normal -0.5150920978922506 6.6980828296506895e-18 0.8571348381024773
  outer loop
    vertex 15.52999228064603 5.2333571006315625 11.999999999999986
    vertex 3.8816989147236622 9.79209655107494 4.999999999999989
    vertex 3.8816989147236622 5.2333571006315625 4.999999999999989
  endloop
endfacet
facet normal -0.5150920978922506 6.6980828296506895e-18 0.8571348381024773
  outer loop
    vertex 3.8816989147236622 9.79209655107494 4.999999999999989
    vertex 15.52999228064603 5.2333571006315625 11.999999999999986
    vertex 15.52999228064603 9.792096551074929 11.999999999999986
  endloop
endfacet
facet normal 0.39444403442621045 6.277970298657341e-17 -0.9189199658868962
  outer loop
    vertex 15.52999228064603 9.79209655107494 4.999999999999989
    vertex 3.8816989147236622 5.2333571006315625 -1.127986593019159e-14
    vertex 3.8816989147236622 9.79209655107494 -1.127986593019159e-14
  endloop
endfacet
facet normal 0.39444403442621045 6.277970298657341e-17 -0.9189199658868962
  outer loop
    vertex 3.8816989147236622 5.2333571006315625 -1.127986593019159e-14
    vertex 15.52999228064603 9.79209655107494 4.999999999999989
    vertex 6.410496840224721 5.2333571006315625 1.0854800124193098
  endloop
endfacet
facet normal 0.39444403442621045 6.277970298657341e-17 -0.9189199658868962
  outer loop
    vertex 6.410496840224721 5.2333571006315625 1.0854800124193098
    vertex 15.52999228064603 9.79209655107494 4.999999999999989
    vertex 8.22877363929256 5.2333571006315625 1.8659706568201844
  endloop
endfacet
facet normal 0.39444403442621045 6.277970298657341e-17 -0.9189199658868962
  outer loop
    vertex 8.22877363929256 5.2333571006315625 1.8659706568201844
    vertex 15.52999228064603 9.79209655107494 4.999999999999989
    vertex 15.52999228064603 5.2333571006315625 4.999999999999989
  endloop
endfacet
facet normal 0.4073949075131868 2.6723016979474655e-16 -0.9132520951699601
  outer loop
    vertex 11.70785120183866 9.792096551074934 7.679650491791909
    vertex 11.421424256483972 5.2333571006315625 7.55187758053421
    vertex 11.421424256483968 9.792096551074934 7.55187758053421
  endloop
endfacet
facet normal 0.4073949075131868 2.6723016979474655e-16 -0.9132520951699601
  outer loop
    vertex 11.421424256483972 5.2333571006315625 7.55187758053421
    vertex 11.70785120183866 9.792096551074934 7.679650491791909
    vertex 11.707851201838661 5.233357100631568 7.679650491791908
  endloop
endfacet
facet normal 0.9338384511509427 -1.6910824401789796e-17 -0.3576950477040583
  outer loop
    vertex 10.881475236753202 9.792096551074934 6.8075740900428015
    vertex 10.993660580125784 5.2333571006315625 7.100457617419917
    vertex 10.881475236753202 5.2333571006315625 6.8075740900428015
  endloop
endfacet
facet normal 0.9338384511509427 -1.6910824401789796e-17 -0.3576950477040583
  outer loop
    vertex 10.993660580125784 5.2333571006315625 7.100457617419917
    vertex 10.881475236753202 9.792096551074934 6.8075740900428015
    vertex 10.993660580125788 9.792096551074934 7.100457617419918
  endloop
endfacet
facet normal 0.7766922236950698 1.1103787631545654e-16 0.629880297875404
  outer loop
    vertex 11.223527572166123 9.792096551074934 5.655873310327361
    vertex 11.025975668793839 5.233357100631556 5.899470431308851
    vertex 11.223527572166127 5.233357100631556 5.655873310327358
  endloop
endfacet
facet normal 0.7766922236950698 1.1103787631545654e-16 0.629880297875404
  outer loop
    vertex 11.025975668793839 5.233357100631556 5.899470431308851
    vertex 11.223527572166123 9.792096551074934 5.655873310327361
    vertex 11.025975668793839 9.792096551074934 5.899470431308855
  endloop
endfacet
facet normal -0.8094403868638103 -1.5973146142859002e-16 0.5872020607199582
  outer loop
    vertex 13.106146494377374 9.792096551074934 5.955441806733017
    vertex 12.921979939000687 5.2333571006315625 5.701573746991011
    vertex 13.106146494377379 5.2333571006315625 5.955441806733017
  endloop
endfacet
facet normal -0.8094403868638103 -1.5973146142859002e-16 0.5872020607199582
  outer loop
    vertex 12.921979939000687 5.2333571006315625 5.701573746991011
    vertex 13.106146494377374 9.792096551074934 5.955441806733017
    vertex 12.921979939000687 9.792096551074934 5.701573746991009
  endloop
endfacet
facet normal 0.6298802978754016 7.149157270450561e-17 -0.776692223695072
  outer loop
    vertex 11.177827135502474 9.792096551074934 7.354325677161924
    vertex 11.421424256483972 5.2333571006315625 7.55187758053421
    vertex 11.177827135502472 5.2333571006315625 7.354325677161923
  endloop
endfacet
facet normal 0.6298802978754016 7.149157270450561e-17 -0.776692223695072
  outer loop
    vertex 11.421424256483972 5.2333571006315625 7.55187758053421
    vertex 11.177827135502474 9.792096551074934 7.354325677161924
    vertex 11.421424256483968 9.792096551074934 7.55187758053421
  endloop
endfacet
facet normal -0.9338384511509434 -2.8916634347469217e-16 0.3576950477040561
  outer loop
    vertex 13.21833183774996 9.792096551074934 6.248325334110132
    vertex 13.106146494377379 5.2333571006315625 5.955441806733017
    vertex 13.21833183774996 5.2333571006315625 6.248325334110132
  endloop
endfacet
facet normal -0.9338384511509434 -2.8916634347469217e-16 0.3576950477040561
  outer loop
    vertex 13.106146494377379 5.2333571006315625 5.955441806733017
    vertex 13.21833183774996 9.792096551074934 6.248325334110132
    vertex 13.106146494377374 9.792096551074934 5.955441806733017
  endloop
endfacet
facet normal -0.4073949075131915 1.524459476058576e-17 0.9132520951699581
  outer loop
    vertex 12.391955872664505 5.2333571006315625 5.376248932361024
    vertex 12.678382818019191 9.792096551074934 5.504021843618724
    vertex 12.391955872664502 9.792096551074934 5.376248932361024
  endloop
endfacet
facet normal -0.4073949075131915 1.524459476058576e-17 0.9132520951699581
  outer loop
    vertex 12.678382818019191 9.792096551074934 5.504021843618724
    vertex 12.391955872664505 5.2333571006315625 5.376248932361024
    vertex 12.678382818019195 5.2333571006315625 5.504021843618725
  endloop
endfacet
facet normal -0.3576950477040558 -2.186226189774867e-17 -0.9338384511509435
  outer loop
    vertex 12.622411442595032 9.792096551074934 7.584192669202262
    vertex 12.329527915217916 5.233357100631568 7.696378012574844
    vertex 12.329527915217916 9.792096551074934 7.696378012574846
  endloop
endfacet
facet normal -0.3576950477040558 -2.186226189774867e-17 -0.9338384511509435
  outer loop
    vertex 12.329527915217916 5.233357100631568 7.696378012574844
    vertex 12.622411442595032 9.792096551074934 7.584192669202262
    vertex 12.622411442595034 5.2333571006315625 7.584192669202262
  endloop
endfacet
facet normal 0.15714622745586984 2.1354171557994774e-16 -0.9875753455794591
  outer loop
    vertex 12.017588448583528 9.792096551074934 7.728936898187529
    vertex 11.707851201838661 5.233357100631568 7.679650491791908
    vertex 11.70785120183866 9.792096551074934 7.679650491791909
  endloop
endfacet
facet normal 0.15714622745586984 2.1354171557994774e-16 -0.9875753455794591
  outer loop
    vertex 11.707851201838661 5.233357100631568 7.679650491791908
    vertex 12.017588448583528 9.792096551074934 7.728936898187529
    vertex 12.017588448583528 5.2333571006315625 7.728936898187529
  endloop
endfacet
facet normal -0.629880297875404 1.4167605049401156e-16 0.7766922236950698
  outer loop
    vertex 12.678382818019195 5.2333571006315625 5.504021843618725
    vertex 12.921979939000687 9.792096551074934 5.701573746991009
    vertex 12.678382818019191 9.792096551074934 5.504021843618724
  endloop
endfacet
facet normal -0.629880297875404 1.4167605049401156e-16 0.7766922236950698
  outer loop
    vertex 12.921979939000687 9.792096551074934 5.701573746991009
    vertex 12.678382818019195 5.2333571006315625 5.504021843618725
    vertex 12.921979939000687 5.2333571006315625 5.701573746991011
  endloop
endfacet
facet normal 0.9875753455794594 -2.0870218020846403e-17 0.15714622745586893
  outer loop
    vertex 10.898202757536136 9.792096551074934 6.185897376663546
    vertex 10.84891635114052 5.2333571006315625 6.495634623408412
    vertex 10.89820275753614 5.2333571006315625 6.185897376663544
  endloop
endfacet
facet normal 0.9875753455794594 -2.0870218020846403e-17 0.15714622745586893
  outer loop
    vertex 10.84891635114052 5.2333571006315625 6.495634623408412
    vertex 10.898202757536136 9.792096551074934 6.185897376663546
    vertex 10.84891635114052 9.792096551074934 6.495634623408415
  endloop
endfacet
facet normal -0.9945969682331433 1.5398182015134743e-16 0.10381170830614356
  outer loop
    vertex 13.250890723362641 5.233357100631568 6.560264800744519
    vertex 13.21833183774996 9.792096551074934 6.248325334110132
    vertex 13.21833183774996 5.2333571006315625 6.248325334110132
  endloop
endfacet
facet normal -0.9945969682331433 1.5398182015134743e-16 0.10381170830614356
  outer loop
    vertex 13.21833183774996 9.792096551074934 6.248325334110132
    vertex 13.250890723362641 5.233357100631568 6.560264800744519
    vertex 13.250890723362641 9.792096551074934 6.560264800744519
  endloop
endfacet
facet normal -0.5872020607199605 1.231072657445436e-17 -0.8094403868638084
  outer loop
    vertex 12.876279502337038 9.792096551074934 7.400026113825573
    vertex 12.622411442595034 5.2333571006315625 7.584192669202262
    vertex 12.622411442595032 9.792096551074934 7.584192669202262
  endloop
endfacet
facet normal -0.5872020607199605 1.231072657445436e-17 -0.8094403868638084
  outer loop
    vertex 12.622411442595034 5.2333571006315625 7.584192669202262
    vertex 12.876279502337038 9.792096551074934 7.400026113825573
    vertex 12.87627950233704 5.2333571006315625 7.400026113825569
  endloop
endfacet
facet normal -0.9132520951699595 2.8279170632288877e-16 -0.40739490751318824
  outer loop
    vertex 13.091013529041899 9.792096551074934 7.117912040757646
    vertex 13.201604316967021 5.2333571006315625 6.870002047489389
    vertex 13.091013529041899 5.2333571006315625 7.117912040757646
  endloop
endfacet
facet normal -0.9132520951699595 2.8279170632288877e-16 -0.40739490751318824
  outer loop
    vertex 13.201604316967021 5.2333571006315625 6.870002047489389
    vertex 13.091013529041899 9.792096551074934 7.117912040757646
    vertex 13.201604316967025 9.792096551074934 6.870002047489389
  endloop
endfacet
facet normal 0.994596968233143 3.2145658666925984e-17 -0.10381170830614532
  outer loop
    vertex 10.84891635114052 9.792096551074934 6.495634623408415
    vertex 10.881475236753202 5.2333571006315625 6.8075740900428015
    vertex 10.84891635114052 5.2333571006315625 6.495634623408412
  endloop
endfacet
facet normal 0.994596968233143 3.2145658666925984e-17 -0.10381170830614532
  outer loop
    vertex 10.881475236753202 5.2333571006315625 6.8075740900428015
    vertex 10.84891635114052 9.792096551074934 6.495634623408415
    vertex 10.881475236753202 9.792096551074934 6.8075740900428015
  endloop
endfacet
facet normal 0.8094403868638121 -7.143565311440338e-18 -0.5872020607199554
  outer loop
    vertex 10.993660580125788 9.792096551074934 7.100457617419918
    vertex 11.177827135502472 5.2333571006315625 7.354325677161923
    vertex 10.993660580125784 5.2333571006315625 7.100457617419917
  endloop
endfacet
facet normal 0.8094403868638121 -7.143565311440338e-18 -0.5872020607199554
  outer loop
    vertex 11.177827135502472 5.2333571006315625 7.354325677161923
    vertex 10.993660580125788 9.792096551074934 7.100457617419918
    vertex 11.177827135502474 9.792096551074934 7.354325677161924
  endloop
endfacet
facet normal 0.9132520951699588 -4.020873705954902e-17 0.40739490751318974
  outer loop
    vertex 11.008793545461263 9.792096551074934 5.937987383395287
    vertex 10.89820275753614 5.2333571006315625 6.185897376663544
    vertex 11.008793545461264 5.2333571006315625 5.937987383395284
  endloop
endfacet
facet normal 0.9132520951699588 -4.020873705954902e-17 0.40739490751318974
  outer loop
    vertex 10.89820275753614 5.2333571006315625 6.185897376663544
    vertex 11.008793545461263 9.792096551074934 5.937987383395287
    vertex 10.898202757536136 9.792096551074934 6.185897376663546
  endloop
endfacet
facet normal -0.10381170830614825 1.3785673903176724e-16 -0.9945969682331428
  outer loop
    vertex 12.329527915217916 9.792096551074934 7.696378012574846
    vertex 12.017588448583528 5.2333571006315625 7.728936898187529
    vertex 12.017588448583528 9.792096551074934 7.728936898187529
  endloop
endfacet
facet normal -0.10381170830614825 1.3785673903176724e-16 -0.9945969682331428
  outer loop
    vertex 12.017588448583528 5.2333571006315625 7.728936898187529
    vertex 12.329527915217916 9.792096551074934 7.696378012574846
    vertex 12.329527915217916 5.233357100631568 7.696378012574844
  endloop
endfacet
facet normal 0.10381170830614109 -2.593434911828533e-16 0.9945969682331435
  outer loop
    vertex 11.770279159285248 5.2333571006315625 5.3595214115780845
    vertex 12.082218625919632 9.792096551074934 5.326962525965405
    vertex 11.770279159285245 9.792096551074934 5.359521411578088
  endloop
endfacet
facet normal 0.10381170830614109 -2.593434911828533e-16 0.9945969682331435
  outer loop
    vertex 12.082218625919632 9.792096551074934 5.326962525965405
    vertex 11.770279159285248 5.2333571006315625 5.3595214115780845
    vertex 12.082218625919635 5.2333571006315625 5.326962525965405
  endloop
endfacet
facet normal 0.5872020607199558 -1.3618069396007456e-17 0.8094403868638118
  outer loop
    vertex 11.223527572166127 5.233357100631556 5.655873310327358
    vertex 11.477395631908129 9.792096551074934 5.471706754950672
    vertex 11.223527572166123 9.792096551074934 5.655873310327361
  endloop
endfacet
facet normal 0.5872020607199558 -1.3618069396007456e-17 0.8094403868638118
  outer loop
    vertex 11.477395631908129 9.792096551074934 5.471706754950672
    vertex 11.223527572166127 5.233357100631556 5.655873310327358
    vertex 11.477395631908129 5.2333571006315625 5.47170675495067
  endloop
endfacet
facet normal -0.7766922236950698 2.4681914491454545e-16 -0.629880297875404
  outer loop
    vertex 12.876279502337038 9.792096551074934 7.400026113825573
    vertex 13.073831405709324 5.233357100631568 7.156428992844075
    vertex 12.87627950233704 5.2333571006315625 7.400026113825569
  endloop
endfacet
facet normal -0.7766922236950698 2.4681914491454545e-16 -0.629880297875404
  outer loop
    vertex 13.073831405709324 5.233357100631568 7.156428992844075
    vertex 12.876279502337038 9.792096551074934 7.400026113825573
    vertex 13.073831405709322 9.792096551074934 7.156428992844078
  endloop
endfacet
facet normal -0.9875753455794596 3.0569155216355576e-16 -0.15714622745586715
  outer loop
    vertex 13.201604316967025 9.792096551074934 6.870002047489389
    vertex 13.250890723362641 5.233357100631568 6.560264800744519
    vertex 13.201604316967021 5.2333571006315625 6.870002047489389
  endloop
endfacet
facet normal -0.9875753455794596 3.0569155216355576e-16 -0.15714622745586715
  outer loop
    vertex 13.250890723362641 5.233357100631568 6.560264800744519
    vertex 13.201604316967025 9.792096551074934 6.870002047489389
    vertex 13.250890723362641 9.792096551074934 6.560264800744519
  endloop
endfacet
facet normal 0.35769504770405974 -2.668214527041188e-16 0.9338384511509421
  outer loop
    vertex 11.770279159285248 5.2333571006315625 5.3595214115780845
    vertex 11.477395631908129 9.792096551074934 5.471706754950672
    vertex 11.477395631908129 5.2333571006315625 5.47170675495067
  endloop
endfacet
facet normal 0.35769504770405974 -2.668214527041188e-16 0.9338384511509421
  outer loop
    vertex 11.477395631908129 9.792096551074934 5.471706754950672
    vertex 11.770279159285248 5.2333571006315625 5.3595214115780845
    vertex 11.770279159285245 9.792096551074934 5.359521411578088
  endloop
endfacet
facet normal -0.1571462274558678 -4.866087911485083e-17 0.9875753455794594
  outer loop
    vertex 12.082218625919635 5.2333571006315625 5.326962525965405
    vertex 12.391955872664502 9.792096551074934 5.376248932361024
    vertex 12.082218625919632 9.792096551074934 5.326962525965405
  endloop
endfacet
facet normal -0.1571462274558678 -4.866087911485083e-17 0.9875753455794594
  outer loop
    vertex 12.391955872664502 9.792096551074934 5.376248932361024
    vertex 12.082218625919635 5.2333571006315625 5.326962525965405
    vertex 12.391955872664505 5.2333571006315625 5.376248932361024
  endloop
endfacet
facet normal 2.248885937669094e-16 1.0 5.614543161268822e-16
  outer loop
    vertex 0.5299922806460297 9.79209655107494 4.999999999999989
    vertex 3.8816989147236622 9.79209655107494 -1.127986593019159e-14
    vertex 0.5299922806460297 9.79209655107494 -1.127986593019159e-14
  endloop
endfacet
facet normal 2.248885937669094e-16 1.0 5.614543161268822e-16
  outer loop
    vertex 3.8816989147236622 9.79209655107494 -1.127986593019159e-14
    vertex 0.5299922806460297 9.79209655107494 4.999999999999989
    vertex 15.52999228064603 9.79209655107494 4.999999999999989
  endloop
endfacet
facet normal 2.248885937669094e-16 1.0 5.614543161268822e-16
  outer loop
    vertex 15.52999228064603 9.79209655107494 4.999999999999989
    vertex 0.5299922806460297 9.79209655107494 4.999999999999989
    vertex 3.8816989147236622 9.79209655107494 4.999999999999989
  endloop
endfacet
facet normal 2.248885937669094e-16 1.0 5.614543161268822e-16
  outer loop
    vertex 15.52999228064603 9.79209655107494 4.999999999999989
    vertex 3.8816989147236622 9.79209655107494 4.999999999999989
    vertex 12.082218625919632 9.792096551074934 5.326962525965405
  endloop
endfacet
facet normal 2.248885937669094e-16 1.0 5.614543161268822e-16
  outer loop
    vertex 12.082218625919632 9.792096551074934 5.326962525965405
    vertex 3.8816989147236622 9.79209655107494 4.999999999999989
    vertex 11.770279159285245 9.792096551074934 5.359521411578088
  endloop
endfacet
facet normal 2.248885937669094e-16 1.0 5.614543161268822e-16
  outer loop
    vertex 11.770279159285245 9.792096551074934 5.359521411578088
    vertex 3.8816989147236622 9.79209655107494 4.999999999999989
    vertex 11.477395631908129 9.792096551074934 5.471706754950672
  endloop
endfacet
facet normal 2.248885937669094e-16 1.0 5.614543161268822e-16
  outer loop
    vertex 11.477395631908129 9.792096551074934 5.471706754950672
    vertex 3.8816989147236622 9.79209655107494 4.999999999999989
    vertex 11.223527572166123 9.792096551074934 5.655873310327361
  endloop
endfacet
facet normal 2.248885937669094e-16 1.0 5.614543161268822e-16
  outer loop
    vertex 11.223527572166123 9.792096551074934 5.655873310327361
    vertex 3.8816989147236622 9.79209655107494 4.999999999999989
    vertex 11.025975668793839 9.792096551074934 5.899470431308855
  endloop
endfacet
facet normal 2.248885937669094e-16 1.0 5.614543161268822e-16
  outer loop
    vertex 11.025975668793839 9.792096551074934 5.899470431308855
    vertex 3.8816989147236622 9.79209655107494 4.999999999999989
    vertex 11.008793545461263 9.792096551074934 5.937987383395287
  endloop
endfacet
facet normal 2.248885937669094e-16 1.0 5.614543161268822e-16
  outer loop
    vertex 11.008793545461263 9.792096551074934 5.937987383395287
    vertex 3.8816989147236622 9.79209655107494 4.999999999999989
    vertex 10.898202757536136 9.792096551074934 6.185897376663546
  endloop
endfacet
facet normal 2.248885937669094e-16 1.0 5.614543161268822e-16
  outer loop
    vertex 10.898202757536136 9.792096551074934 6.185897376663546
    vertex 3.8816989147236622 9.79209655107494 4.999999999999989
    vertex 10.84891635114052 9.792096551074934 6.495634623408415
  endloop
endfacet
facet normal 2.248885937669094e-16 1.0 5.614543161268822e-16
  outer loop
    vertex 10.84891635114052 9.792096551074934 6.495634623408415
    vertex 3.8816989147236622 9.79209655107494 4.999999999999989
    vertex 10.881475236753202 9.792096551074934 6.8075740900428015
  endloop
endfacet
facet normal 2.248885937669094e-16 1.0 5.614543161268822e-16
  outer loop
    vertex 10.881475236753202 9.792096551074934 6.8075740900428015
    vertex 3.8816989147236622 9.79209655107494 4.999999999999989
    vertex 10.993660580125788 9.792096551074934 7.100457617419918
  endloop
endfacet
facet normal 2.248885937669094e-16 1.0 5.614543161268822e-16
  outer loop
    vertex 10.993660580125788 9.792096551074934 7.100457617419918
    vertex 3.8816989147236622 9.79209655107494 4.999999999999989
    vertex 11.177827135502474 9.792096551074934 7.354325677161924
  endloop
endfacet
facet normal 2.248885937669094e-16 1.0 5.614543161268822e-16
  outer loop
    vertex 11.177827135502474 9.792096551074934 7.354325677161924
    vertex 3.8816989147236622 9.79209655107494 4.999999999999989
    vertex 15.52999228064603 9.792096551074929 11.999999999999986
  endloop
endfacet
facet normal 2.248885937669094e-16 1.0 5.614543161268822e-16
  outer loop
    vertex 11.177827135502474 9.792096551074934 7.354325677161924
    vertex 15.52999228064603 9.792096551074929 11.999999999999986
    vertex 11.421424256483968 9.792096551074934 7.55187758053421
  endloop
endfacet
facet normal 2.248885937669094e-16 1.0 5.614543161268822e-16
  outer loop
    vertex 11.421424256483968 9.792096551074934 7.55187758053421
    vertex 15.52999228064603 9.792096551074929 11.999999999999986
    vertex 11.70785120183866 9.792096551074934 7.679650491791909
  endloop
endfacet
facet normal 2.248885937669094e-16 1.0 5.614543161268822e-16
  outer loop
    vertex 11.70785120183866 9.792096551074934 7.679650491791909
    vertex 15.52999228064603 9.792096551074929 11.999999999999986
    vertex 12.017588448583528 9.792096551074934 7.728936898187529
  endloop
endfacet
facet normal 2.248885937669094e-16 1.0 5.614543161268822e-16
  outer loop
    vertex 15.52999228064603 9.79209655107494 4.999999999999989
    vertex 13.106146494377374 9.792096551074934 5.955441806733017
    vertex 15.52999228064603 9.792096551074929 11.999999999999986
  endloop
endfacet
facet normal 2.248885937669094e-16 1.0 5.614543161268822e-16
  outer loop
    vertex 13.106146494377374 9.792096551074934 5.955441806733017
    vertex 15.52999228064603 9.79209655107494 4.999999999999989
    vertex 12.921979939000687 9.792096551074934 5.701573746991009
  endloop
endfacet
facet normal 2.248885937669094e-16 1.0 5.614543161268822e-16
  outer loop
    vertex 12.921979939000687 9.792096551074934 5.701573746991009
    vertex 15.52999228064603 9.79209655107494 4.999999999999989
    vertex 12.678382818019191 9.792096551074934 5.504021843618724
  endloop
endfacet
facet normal 2.248885937669094e-16 1.0 5.614543161268822e-16
  outer loop
    vertex 12.678382818019191 9.792096551074934 5.504021843618724
    vertex 15.52999228064603 9.79209655107494 4.999999999999989
    vertex 12.391955872664502 9.792096551074934 5.376248932361024
  endloop
endfacet
facet normal 2.248885937669094e-16 1.0 5.614543161268822e-16
  outer loop
    vertex 12.391955872664502 9.792096551074934 5.376248932361024
    vertex 15.52999228064603 9.79209655107494 4.999999999999989
    vertex 12.082218625919632 9.792096551074934 5.326962525965405
  endloop
endfacet
facet normal 2.248885937669094e-16 1.0 5.614543161268822e-16
  outer loop
    vertex 15.52999228064603 9.792096551074929 11.999999999999986
    vertex 13.106146494377374 9.792096551074934 5.955441806733017
    vertex 13.21833183774996 9.792096551074934 6.248325334110132
  endloop
endfacet
facet normal 2.248885937669094e-16 1.0 5.614543161268822e-16
  outer loop
    vertex 15.52999228064603 9.792096551074929 11.999999999999986
    vertex 13.21833183774996 9.792096551074934 6.248325334110132
    vertex 13.250890723362641 9.792096551074934 6.560264800744519
  endloop
endfacet
facet normal 2.248885937669094e-16 1.0 5.614543161268822e-16
  outer loop
    vertex 15.52999228064603 9.792096551074929 11.999999999999986
    vertex 13.250890723362641 9.792096551074934 6.560264800744519
    vertex 13.201604316967025 9.792096551074934 6.870002047489389
  endloop
endfacet
facet normal 2.248885937669094e-16 1.0 5.614543161268822e-16
  outer loop
    vertex 15.52999228064603 9.792096551074929 11.999999999999986
    vertex 13.201604316967025 9.792096551074934 6.870002047489389
    vertex 13.091013529041899 9.792096551074934 7.117912040757646
  endloop
endfacet
facet normal 2.248885937669094e-16 1.0 5.614543161268822e-16
  outer loop
    vertex 15.52999228064603 9.792096551074929 11.999999999999986
    vertex 13.091013529041899 9.792096551074934 7.117912040757646
    vertex 13.073831405709322 9.792096551074934 7.156428992844078
  endloop
endfacet
facet normal 2.248885937669094e-16 1.0 5.614543161268822e-16
  outer loop
    vertex 15.52999228064603 9.792096551074929 11.999999999999986
    vertex 13.073831405709322 9.792096551074934 7.156428992844078
    vertex 12.876279502337038 9.792096551074934 7.400026113825573
  endloop
endfacet
facet normal 2.248885937669094e-16 1.0 5.614543161268822e-16
  outer loop
    vertex 15.52999228064603 9.792096551074929 11.999999999999986
    vertex 12.876279502337038 9.792096551074934 7.400026113825573
    vertex 12.622411442595032 9.792096551074934 7.584192669202262
  endloop
endfacet
facet normal 2.248885937669094e-16 1.0 5.614543161268822e-16
  outer loop
    vertex 15.52999228064603 9.792096551074929 11.999999999999986
    vertex 12.622411442595032 9.792096551074934 7.584192669202262
    vertex 12.329527915217916 9.792096551074934 7.696378012574846
  endloop
endfacet
facet normal 2.248885937669094e-16 1.0 5.614543161268822e-16
  outer loop
    vertex 15.52999228064603 9.792096551074929 11.999999999999986
    vertex 12.329527915217916 9.792096551074934 7.696378012574846
    vertex 12.017588448583528 9.792096551074934 7.728936898187529
  endloop
endfacet
facet normal 0.0 -1.0 0.0
  outer loop
    vertex 6.410496840224721 5.2333571006315625 1.0854800124193098
    vertex 3.8816989147236622 5.2333571006315625 4.999999999999989
    vertex 3.8816989147236622 5.2333571006315625 -1.127986593019159e-14
  endloop
endfacet
facet normal 0.0 -1.0 0.0
  outer loop
    vertex 3.8816989147236622 5.2333571006315625 4.999999999999989
    vertex 6.410496840224721 5.2333571006315625 1.0854800124193098
    vertex 8.22877363929256 5.2333571006315625 1.8659706568201844
  endloop
endfacet
facet normal 0.0 -1.0 0.0
  outer loop
    vertex 3.8816989147236622 5.2333571006315625 4.999999999999989
    vertex 8.22877363929256 5.2333571006315625 1.8659706568201844
    vertex 15.52999228064603 5.2333571006315625 4.999999999999989
  endloop
endfacet
facet normal 0.0 -1.0 0.0
  outer loop
    vertex 3.8816989147236622 5.2333571006315625 4.999999999999989
    vertex 15.52999228064603 5.2333571006315625 4.999999999999989
    vertex 12.082218625919635 5.2333571006315625 5.326962525965405
  endloop
endfacet
facet normal 0.0 -1.0 0.0
  outer loop
    vertex 12.082218625919635 5.2333571006315625 5.326962525965405
    vertex 15.52999228064603 5.2333571006315625 4.999999999999989
    vertex 12.391955872664505 5.2333571006315625 5.376248932361024
  endloop
endfacet
facet normal 0.0 -1.0 0.0
  outer loop
    vertex 12.391955872664505 5.2333571006315625 5.376248932361024
    vertex 15.52999228064603 5.2333571006315625 4.999999999999989
    vertex 12.678382818019195 5.2333571006315625 5.504021843618725
  endloop
endfacet
facet normal 0.0 -1.0 0.0
  outer loop
    vertex 12.678382818019195 5.2333571006315625 5.504021843618725
    vertex 15.52999228064603 5.2333571006315625 4.999999999999989
    vertex 12.921979939000687 5.2333571006315625 5.701573746991011
  endloop
endfacet
facet normal 0.0 -1.0 0.0
  outer loop
    vertex 12.921979939000687 5.2333571006315625 5.701573746991011
    vertex 15.52999228064603 5.2333571006315625 4.999999999999989
    vertex 13.106146494377379 5.2333571006315625 5.955441806733017
  endloop
endfacet
facet normal 0.0 -1.0 0.0
  outer loop
    vertex 13.106146494377379 5.2333571006315625 5.955441806733017
    vertex 15.52999228064603 5.2333571006315625 4.999999999999989
    vertex 15.52999228064603 5.2333571006315625 11.999999999999986
  endloop
endfacet
facet normal 0.0 -1.0 0.0
  outer loop
    vertex 13.106146494377379 5.2333571006315625 5.955441806733017
    vertex 15.52999228064603 5.2333571006315625 11.999999999999986
    vertex 13.21833183774996 5.2333571006315625 6.248325334110132
  endloop
endfacet
facet normal 0.0 -1.0 0.0
  outer loop
    vertex 13.21833183774996 5.2333571006315625 6.248325334110132
    vertex 15.52999228064603 5.2333571006315625 11.999999999999986
    vertex 13.250890723362641 5.233357100631568 6.560264800744519
  endloop
endfacet
facet normal 0.0 -1.0 0.0
  outer loop
    vertex 13.250890723362641 5.233357100631568 6.560264800744519
    vertex 15.52999228064603 5.2333571006315625 11.999999999999986
    vertex 13.201604316967021 5.2333571006315625 6.870002047489389
  endloop
endfacet
facet normal 0.0 -1.0 0.0
  outer loop
    vertex 13.201604316967021 5.2333571006315625 6.870002047489389
    vertex 15.52999228064603 5.2333571006315625 11.999999999999986
    vertex 13.091013529041899 5.2333571006315625 7.117912040757646
  endloop
endfacet
facet normal 0.0 -1.0 0.0
  outer loop
    vertex 13.091013529041899 5.2333571006315625 7.117912040757646
    vertex 15.52999228064603 5.2333571006315625 11.999999999999986
    vertex 13.073831405709324 5.233357100631568 7.156428992844075
  endloop
endfacet
facet normal 0.0 -1.0 0.0
  outer loop
    vertex 13.073831405709324 5.233357100631568 7.156428992844075
    vertex 15.52999228064603 5.2333571006315625 11.999999999999986
    vertex 12.87627950233704 5.2333571006315625 7.400026113825569
  endloop
endfacet
facet normal 0.0 -1.0 0.0
  outer loop
    vertex 12.87627950233704 5.2333571006315625 7.400026113825569
    vertex 15.52999228064603 5.2333571006315625 11.999999999999986
    vertex 12.622411442595034 5.2333571006315625 7.584192669202262
  endloop
endfacet
facet normal 0.0 -1.0 0.0
  outer loop
    vertex 12.622411442595034 5.2333571006315625 7.584192669202262
    vertex 15.52999228064603 5.2333571006315625 11.999999999999986
    vertex 12.329527915217916 5.233357100631568 7.696378012574844
  endloop
endfacet
facet normal 0.0 -1.0 0.0
  outer loop
    vertex 12.329527915217916 5.233357100631568 7.696378012574844
    vertex 15.52999228064603 5.2333571006315625 11.999999999999986
    vertex 12.017588448583528 5.2333571006315625 7.728936898187529
  endloop
endfacet
facet normal 0.0 -1.0 0.0
  outer loop
    vertex 3.8816989147236622 5.2333571006315625 4.999999999999989
    vertex 11.177827135502472 5.2333571006315625 7.354325677161923
    vertex 15.52999228064603 5.2333571006315625 11.999999999999986
  endloop
endfacet
facet normal 0.0 -1.0 0.0
  outer loop
    vertex 11.177827135502472 5.2333571006315625 7.354325677161923
    vertex 3.8816989147236622 5.2333571006315625 4.999999999999989
    vertex 10.993660580125784 5.2333571006315625 7.100457617419917
  endloop
endfacet
facet normal 0.0 -1.0 0.0
  outer loop
    vertex 10.993660580125784 5.2333571006315625 7.100457617419917
    vertex 3.8816989147236622 5.2333571006315625 4.999999999999989
    vertex 10.881475236753202 5.2333571006315625 6.8075740900428015
  endloop
endfacet
facet normal 0.0 -1.0 0.0
  outer loop
    vertex 10.881475236753202 5.2333571006315625 6.8075740900428015
    vertex 3.8816989147236622 5.2333571006315625 4.999999999999989
    vertex 10.84891635114052 5.2333571006315625 6.495634623408412
  endloop
endfacet
facet normal 0.0 -1.0 0.0
  outer loop
    vertex 10.84891635114052 5.2333571006315625 6.495634623408412
    vertex 3.8816989147236622 5.2333571006315625 4.999999999999989
    vertex 10.89820275753614 5.2333571006315625 6.185897376663544
  endloop
endfacet
facet normal 0.0 -1.0 0.0
  outer loop
    vertex 10.89820275753614 5.2333571006315625 6.185897376663544
    vertex 3.8816989147236622 5.2333571006315625 4.999999999999989
    vertex 11.025975668793839 5.233357100631556 5.899470431308851
  endloop
endfacet
facet normal 0.0 -1.0 0.0
  outer loop
    vertex 11.025975668793839 5.233357100631556 5.899470431308851
    vertex 3.8816989147236622 5.2333571006315625 4.999999999999989
    vertex 11.223527572166127 5.233357100631556 5.655873310327358
  endloop
endfacet
facet normal 0.0 -1.0 0.0
  outer loop
    vertex 11.223527572166127 5.233357100631556 5.655873310327358
    vertex 3.8816989147236622 5.2333571006315625 4.999999999999989
    vertex 11.477395631908129 5.2333571006315625 5.47170675495067
  endloop
endfacet
facet normal 0.0 -1.0 0.0
  outer loop
    vertex 11.477395631908129 5.2333571006315625 5.47170675495067
    vertex 3.8816989147236622 5.2333571006315625 4.999999999999989
    vertex 11.770279159285248 5.2333571006315625 5.3595214115780845
  endloop
endfacet
facet normal 0.0 -1.0 0.0
  outer loop
    vertex 11.770279159285248 5.2333571006315625 5.3595214115780845
    vertex 3.8816989147236622 5.2333571006315625 4.999999999999989
    vertex 12.082218625919635 5.2333571006315625 5.326962525965405
  endloop
endfacet
facet normal 0.0 -1.0 0.0
  outer loop
    vertex 10.89820275753614 5.2333571006315625 6.185897376663544
    vertex 11.025975668793839 5.233357100631556 5.899470431308851
    vertex 11.008793545461264 5.2333571006315625 5.937987383395284
  endloop
endfacet
facet normal 0.0 -1.0 0.0
  outer loop
    vertex 15.52999228064603 5.2333571006315625 11.999999999999986
    vertex 11.177827135502472 5.2333571006315625 7.354325677161923
    vertex 11.421424256483972 5.2333571006315625 7.55187758053421
  endloop
endfacet
facet normal 0.0 -1.0 0.0
  outer loop
    vertex 15.52999228064603 5.2333571006315625 11.999999999999986
    vertex 11.421424256483972 5.2333571006315625 7.55187758053421
    vertex 11.707851201838661 5.233357100631568 7.679650491791908
  endloop
endfacet
facet normal 0.0 -1.0 0.0
  outer loop
    vertex 15.52999228064603 5.2333571006315625 11.999999999999986
    vertex 11.707851201838661 5.233357100631568 7.679650491791908
    vertex 12.017588448583528 5.2333571006315625 7.728936898187529
  endloop
endfacet
facet normal -0.9132520951699492 -1.565801174364562e-16 -0.40739490751321145
  outer loop
    vertex 13.073831405709324 5.233357100631568 7.156428992844075
    vertex 13.091013529041899 9.792096551074934 7.117912040757646
    vertex 13.091013529041899 5.2333571006315625 7.117912040757646
  endloop
endfacet
facet normal -0.9132520951699492 -1.565801174364562e-16 -0.40739490751321145
  outer loop
    vertex 13.091013529041899 9.792096551074934 7.117912040757646
    vertex 13.073831405709324 5.233357100631568 7.156428992844075
    vertex 13.073831405709322 9.792096551074934 7.156428992844078
  endloop
endfacet
facet normal 0.913252095169952 -3.2475368998529496e-17 0.4073949075132051
  outer loop
    vertex 11.025975668793839 9.792096551074934 5.899470431308855
    vertex 11.008793545461264 5.2333571006315625 5.937987383395284
    vertex 11.025975668793839 5.233357100631556 5.899470431308851
  endloop
endfacet
facet normal 0.913252095169952 -3.2475368998529496e-17 0.4073949075132051
  outer loop
    vertex 11.008793545461264 5.2333571006315625 5.937987383395284
    vertex 11.025975668793839 9.792096551074934 5.899470431308855
    vertex 11.008793545461263 9.792096551074934 5.937987383395287
  endloop
endfacet
facet normal -0.0 -0.0 1.0
  outer loop
    vertex 3.8816989147236622 5.2333571006315625 4.999999999999989
    vertex 0.5299922806460297 9.79209655107494 4.999999999999989
    vertex -2.6388174787752567 5.2333571006315625 4.999999999999989
  endloop
endfacet
facet normal -0.0 -0.0 1.0
  outer loop
    vertex 0.5299922806460297 9.79209655107494 4.999999999999989
    vertex 3.8816989147236622 5.2333571006315625 4.999999999999989
    vertex 3.8816989147236622 9.79209655107494 4.999999999999989
  endloop
endfacet
facet normal -0.8211151644217393 0.570762548488126 0.0
  outer loop
    vertex 0.5299922806460297 9.79209655107494 4.999999999999989
    vertex -2.6388174787752567 5.2333571006315625 -1.127986593019159e-14
    vertex -2.6388174787752567 5.2333571006315625 4.999999999999989
  endloop
endfacet
facet normal -0.8211151644217393 0.570762548488126 0.0
  outer loop
    vertex -2.6388174787752567 5.2333571006315625 -1.127986593019159e-14
    vertex 0.5299922806460297 9.79209655107494 4.999999999999989
    vertex 0.5299922806460297 9.79209655107494 -1.127986593019159e-14
  endloop
endfacet
facet normal 0.0 0.0 -1.0
  outer loop
    vertex 0.5299922806460297 9.79209655107494 -1.127986593019159e-14
    vertex 3.8816989147236622 5.2333571006315625 -1.127986593019159e-14
    vertex -2.6388174787752567 5.2333571006315625 -1.127986593019159e-14
  endloop
endfacet
facet normal 0.0 0.0 -1.0
  outer loop
    vertex 3.8816989147236622 5.2333571006315625 -1.127986593019159e-14
    vertex 0.5299922806460297 9.79209655107494 -1.127986593019159e-14
    vertex 3.8816989147236622 9.79209655107494 -1.127986593019159e-14
  endloop
endfacet
facet normal 0.0 -1.0 0.0
  outer loop
    vertex 3.8816989147236622 5.2333571006315625 4.999999999999989
    vertex -2.6388174787752567 5.2333571006315625 -1.127986593019159e-14
    vertex 3.8816989147236622 5.2333571006315625 -1.127986593019159e-14
  endloop
endfacet
facet normal 0.0 -1.0 0.0
  outer loop
    vertex -2.6388174787752567 5.2333571006315625 -1.127986593019159e-14
    vertex 3.8816989147236622 5.2333571006315625 4.999999999999989
    vertex -2.6388174787752567 5.2333571006315625 4.999999999999989
  endloop
endfacet
endsolid Подшипник-на-ремень-верx-бок-прав
