solid 
   facet normal 0.000000e+000 -0.000000e+000 -1.000000e+000
      outer loop
         vertex 8.150000e+000 0.000000e+000 0.000000e+000
         vertex 9.307082e+000 2.732806e+000 0.000000e+000
         vertex 9.700000e+000 0.000000e+000 0.000000e+000
      endloop
   endfacet
   facet normal 0.000000e+000 0.000000e+000 -1.000000e+000
      outer loop
         vertex 6.593489e+000 4.790450e+000 0.000000e+000
         vertex 6.352149e+000 7.330771e+000 0.000000e+000
         vertex 8.160159e+000 5.244216e+000 0.000000e+000
      endloop
   endfacet
   facet normal 0.000000e+000 0.000000e+000 -1.000000e+000
      outer loop
         vertex 2.518488e+000 7.751111e+000 0.000000e+000
         vertex 1.380454e+000 9.601268e+000 0.000000e+000
         vertex 4.029526e+000 8.823430e+000 0.000000e+000
      endloop
   endfacet
   facet normal 0.000000e+000 0.000000e+000 -1.000000e+000
      outer loop
         vertex -2.518488e+000 7.751111e+000 0.000000e+000
         vertex -4.029526e+000 8.823430e+000 0.000000e+000
         vertex -1.380454e+000 9.601268e+000 0.000000e+000
      endloop
   endfacet
   facet normal 0.000000e+000 0.000000e+000 -1.000000e+000
      outer loop
         vertex -6.593489e+000 4.790450e+000 0.000000e+000
         vertex -8.160159e+000 5.244216e+000 0.000000e+000
         vertex -6.352149e+000 7.330771e+000 0.000000e+000
      endloop
   endfacet
   facet normal 0.000000e+000 0.000000e+000 -1.000000e+000
      outer loop
         vertex -8.150000e+000 9.980872e-016 0.000000e+000
         vertex -9.700000e+000 5.495573e-015 0.000000e+000
         vertex -9.307082e+000 2.732806e+000 0.000000e+000
      endloop
   endfacet
   facet normal 0.000000e+000 0.000000e+000 -1.000000e+000
      outer loop
         vertex -7.751111e+000 -2.518488e+000 0.000000e+000
         vertex -8.160159e+000 -5.244216e+000 0.000000e+000
         vertex -9.307082e+000 -2.732806e+000 0.000000e+000
      endloop
   endfacet
   facet normal 0.000000e+000 0.000000e+000 -1.000000e+000
      outer loop
         vertex -4.790450e+000 -6.593489e+000 0.000000e+000
         vertex -4.029526e+000 -8.823430e+000 0.000000e+000
         vertex -6.352149e+000 -7.330771e+000 0.000000e+000
      endloop
   endfacet
   facet normal 0.000000e+000 0.000000e+000 -1.000000e+000
      outer loop
         vertex -1.497131e-015 -8.150000e+000 0.000000e+000
         vertex 1.380454e+000 -9.601268e+000 0.000000e+000
         vertex -1.380454e+000 -9.601268e+000 0.000000e+000
      endloop
   endfacet
   facet normal -0.000000e+000 0.000000e+000 -1.000000e+000
      outer loop
         vertex 4.790450e+000 -6.593489e+000 0.000000e+000
         vertex 6.352149e+000 -7.330771e+000 0.000000e+000
         vertex 4.029526e+000 -8.823430e+000 0.000000e+000
      endloop
   endfacet
   facet normal -0.000000e+000 0.000000e+000 -1.000000e+000
      outer loop
         vertex 7.751111e+000 -2.518488e+000 0.000000e+000
         vertex 9.307082e+000 -2.732806e+000 0.000000e+000
         vertex 8.160159e+000 -5.244216e+000 0.000000e+000
      endloop
   endfacet
   facet normal 0.000000e+000 0.000000e+000 -1.000000e+000
      outer loop
         vertex 9.307082e+000 -2.732806e+000 0.000000e+000
         vertex 7.751111e+000 -2.518488e+000 0.000000e+000
         vertex 8.150000e+000 0.000000e+000 0.000000e+000
      endloop
   endfacet
   facet normal 0.000000e+000 0.000000e+000 -1.000000e+000
      outer loop
         vertex 6.352149e+000 -7.330771e+000 0.000000e+000
         vertex 4.790450e+000 -6.593489e+000 0.000000e+000
         vertex 6.593489e+000 -4.790450e+000 0.000000e+000
      endloop
   endfacet
   facet normal 0.000000e+000 0.000000e+000 -1.000000e+000
      outer loop
         vertex 1.380454e+000 -9.601268e+000 0.000000e+000
         vertex -1.497131e-015 -8.150000e+000 0.000000e+000
         vertex 2.518488e+000 -7.751111e+000 0.000000e+000
      endloop
   endfacet
   facet normal 0.000000e+000 0.000000e+000 -1.000000e+000
      outer loop
         vertex -4.029526e+000 -8.823430e+000 0.000000e+000
         vertex -4.790450e+000 -6.593489e+000 0.000000e+000
         vertex -2.518488e+000 -7.751111e+000 0.000000e+000
      endloop
   endfacet
   facet normal 0.000000e+000 -0.000000e+000 -1.000000e+000
      outer loop
         vertex -8.160159e+000 -5.244216e+000 0.000000e+000
         vertex -7.751111e+000 -2.518488e+000 0.000000e+000
         vertex -6.593489e+000 -4.790450e+000 0.000000e+000
      endloop
   endfacet
   facet normal -0.000000e+000 0.000000e+000 -1.000000e+000
      outer loop
         vertex -9.307082e+000 2.732806e+000 0.000000e+000
         vertex -7.751111e+000 2.518488e+000 0.000000e+000
         vertex -8.150000e+000 9.980872e-016 0.000000e+000
      endloop
   endfacet
   facet normal -0.000000e+000 0.000000e+000 -1.000000e+000
      outer loop
         vertex -6.352149e+000 7.330771e+000 0.000000e+000
         vertex -4.790450e+000 6.593489e+000 0.000000e+000
         vertex -6.593489e+000 4.790450e+000 0.000000e+000
      endloop
   endfacet
   facet normal -0.000000e+000 0.000000e+000 -1.000000e+000
      outer loop
         vertex -1.380454e+000 9.601268e+000 0.000000e+000
         vertex 4.990436e-016 8.150000e+000 0.000000e+000
         vertex -2.518488e+000 7.751111e+000 0.000000e+000
      endloop
   endfacet
   facet normal 0.000000e+000 0.000000e+000 -1.000000e+000
      outer loop
         vertex 4.029526e+000 8.823430e+000 0.000000e+000
         vertex 4.790450e+000 6.593489e+000 0.000000e+000
         vertex 2.518488e+000 7.751111e+000 0.000000e+000
      endloop
   endfacet
   facet normal 0.000000e+000 0.000000e+000 -1.000000e+000
      outer loop
         vertex 8.160159e+000 5.244216e+000 0.000000e+000
         vertex 7.751111e+000 2.518488e+000 0.000000e+000
         vertex 6.593489e+000 4.790450e+000 0.000000e+000
      endloop
   endfacet
   facet normal 0.000000e+000 0.000000e+000 -1.000000e+000
      outer loop
         vertex 9.307082e+000 -2.732806e+000 0.000000e+000
         vertex 8.150000e+000 0.000000e+000 0.000000e+000
         vertex 9.700000e+000 0.000000e+000 0.000000e+000
      endloop
   endfacet
   facet normal 0.000000e+000 -0.000000e+000 -1.000000e+000
      outer loop
         vertex 4.990436e-016 8.150000e+000 0.000000e+000
         vertex 1.380454e+000 9.601268e+000 0.000000e+000
         vertex 2.518488e+000 7.751111e+000 0.000000e+000
      endloop
   endfacet
   facet normal 0.000000e+000 0.000000e+000 -1.000000e+000
      outer loop
         vertex -9.307082e+000 -2.732806e+000 0.000000e+000
         vertex -9.700000e+000 5.495573e-015 0.000000e+000
         vertex -8.150000e+000 9.980872e-016 0.000000e+000
      endloop
   endfacet
   facet normal -0.000000e+000 0.000000e+000 -1.000000e+000
      outer loop
         vertex -2.518488e+000 -7.751111e+000 0.000000e+000
         vertex -1.497131e-015 -8.150000e+000 0.000000e+000
         vertex -1.380454e+000 -9.601268e+000 0.000000e+000
      endloop
   endfacet
   facet normal 0.000000e+000 0.000000e+000 -1.000000e+000
      outer loop
         vertex 8.160159e+000 -5.244216e+000 0.000000e+000
         vertex 6.352149e+000 -7.330771e+000 0.000000e+000
         vertex 6.593489e+000 -4.790450e+000 0.000000e+000
      endloop
   endfacet
   facet normal 0.000000e+000 0.000000e+000 -1.000000e+000
      outer loop
         vertex -6.352149e+000 -7.330771e+000 0.000000e+000
         vertex -8.160159e+000 -5.244216e+000 0.000000e+000
         vertex -6.593489e+000 -4.790450e+000 0.000000e+000
      endloop
   endfacet
   facet normal 0.000000e+000 0.000000e+000 -1.000000e+000
      outer loop
         vertex 1.380454e+000 9.601268e+000 0.000000e+000
         vertex 4.990436e-016 8.150000e+000 0.000000e+000
         vertex -1.380454e+000 9.601268e+000 0.000000e+000
      endloop
   endfacet
   facet normal 0.000000e+000 0.000000e+000 -1.000000e+000
      outer loop
         vertex -7.751111e+000 -2.518488e+000 0.000000e+000
         vertex -9.307082e+000 -2.732806e+000 0.000000e+000
         vertex -8.150000e+000 9.980872e-016 0.000000e+000
      endloop
   endfacet
   facet normal 0.000000e+000 -0.000000e+000 -1.000000e+000
      outer loop
         vertex 7.751111e+000 2.518488e+000 0.000000e+000
         vertex 8.160159e+000 5.244216e+000 0.000000e+000
         vertex 9.307082e+000 2.732806e+000 0.000000e+000
      endloop
   endfacet
   facet normal 0.000000e+000 0.000000e+000 -1.000000e+000
      outer loop
         vertex -4.790450e+000 6.593489e+000 0.000000e+000
         vertex -6.352149e+000 7.330771e+000 0.000000e+000
         vertex -4.029526e+000 8.823430e+000 0.000000e+000
      endloop
   endfacet
   facet normal 0.000000e+000 0.000000e+000 -1.000000e+000
      outer loop
         vertex -2.518488e+000 -7.751111e+000 0.000000e+000
         vertex -1.380454e+000 -9.601268e+000 0.000000e+000
         vertex -4.029526e+000 -8.823430e+000 0.000000e+000
      endloop
   endfacet
   facet normal 0.000000e+000 0.000000e+000 -1.000000e+000
      outer loop
         vertex 8.160159e+000 -5.244216e+000 0.000000e+000
         vertex 6.593489e+000 -4.790450e+000 0.000000e+000
         vertex 7.751111e+000 -2.518488e+000 0.000000e+000
      endloop
   endfacet
   facet normal 0.000000e+000 0.000000e+000 -1.000000e+000
      outer loop
         vertex -6.352149e+000 -7.330771e+000 0.000000e+000
         vertex -6.593489e+000 -4.790450e+000 0.000000e+000
         vertex -4.790450e+000 -6.593489e+000 0.000000e+000
      endloop
   endfacet
   facet normal -0.000000e+000 0.000000e+000 -1.000000e+000
      outer loop
         vertex -4.029526e+000 8.823430e+000 0.000000e+000
         vertex -2.518488e+000 7.751111e+000 0.000000e+000
         vertex -4.790450e+000 6.593489e+000 0.000000e+000
      endloop
   endfacet
   facet normal 0.000000e+000 0.000000e+000 -1.000000e+000
      outer loop
         vertex 9.307082e+000 2.732806e+000 0.000000e+000
         vertex 8.150000e+000 0.000000e+000 0.000000e+000
         vertex 7.751111e+000 2.518488e+000 0.000000e+000
      endloop
   endfacet
   facet normal 0.000000e+000 0.000000e+000 -1.000000e+000
      outer loop
         vertex -7.751111e+000 2.518488e+000 0.000000e+000
         vertex -8.160159e+000 5.244216e+000 0.000000e+000
         vertex -6.593489e+000 4.790450e+000 0.000000e+000
      endloop
   endfacet
   facet normal 0.000000e+000 0.000000e+000 -1.000000e+000
      outer loop
         vertex -8.160159e+000 5.244216e+000 0.000000e+000
         vertex -7.751111e+000 2.518488e+000 0.000000e+000
         vertex -9.307082e+000 2.732806e+000 0.000000e+000
      endloop
   endfacet
   facet normal 0.000000e+000 0.000000e+000 -1.000000e+000
      outer loop
         vertex 4.790450e+000 6.593489e+000 0.000000e+000
         vertex 4.029526e+000 8.823430e+000 0.000000e+000
         vertex 6.352149e+000 7.330771e+000 0.000000e+000
      endloop
   endfacet
   facet normal 0.000000e+000 0.000000e+000 -1.000000e+000
      outer loop
         vertex 4.029526e+000 -8.823430e+000 0.000000e+000
         vertex 2.518488e+000 -7.751111e+000 0.000000e+000
         vertex 4.790450e+000 -6.593489e+000 0.000000e+000
      endloop
   endfacet
   facet normal 0.000000e+000 -0.000000e+000 -1.000000e+000
      outer loop
         vertex 4.790450e+000 6.593489e+000 0.000000e+000
         vertex 6.352149e+000 7.330771e+000 0.000000e+000
         vertex 6.593489e+000 4.790450e+000 0.000000e+000
      endloop
   endfacet
   facet normal -0.000000e+000 0.000000e+000 -1.000000e+000
      outer loop
         vertex 2.518488e+000 -7.751111e+000 0.000000e+000
         vertex 4.029526e+000 -8.823430e+000 0.000000e+000
         vertex 1.380454e+000 -9.601268e+000 0.000000e+000
      endloop
   endfacet
   facet normal 0.000000e+000 0.000000e+000 1.000000e+000
      outer loop
         vertex 9.307082e+000 -2.732806e+000 2.500000e+001
         vertex 9.700000e+000 0.000000e+000 2.500000e+001
         vertex 8.150000e+000 0.000000e+000 2.500000e+001
      endloop
   endfacet
   facet normal 0.000000e+000 0.000000e+000 1.000000e+000
      outer loop
         vertex 9.307082e+000 2.732806e+000 2.500000e+001
         vertex 8.160159e+000 5.244216e+000 2.500000e+001
         vertex 7.751111e+000 2.518488e+000 2.500000e+001
      endloop
   endfacet
   facet normal 0.000000e+000 0.000000e+000 1.000000e+000
      outer loop
         vertex 6.352149e+000 7.330771e+000 2.500000e+001
         vertex 4.029526e+000 8.823430e+000 2.500000e+001
         vertex 4.790450e+000 6.593489e+000 2.500000e+001
      endloop
   endfacet
   facet normal -0.000000e+000 0.000000e+000 1.000000e+000
      outer loop
         vertex 1.380454e+000 9.601268e+000 2.500000e+001
         vertex -1.380454e+000 9.601268e+000 2.500000e+001
         vertex 4.990436e-016 8.150000e+000 2.500000e+001
      endloop
   endfacet
   facet normal -0.000000e+000 0.000000e+000 1.000000e+000
      outer loop
         vertex -4.029526e+000 8.823430e+000 2.500000e+001
         vertex -6.352149e+000 7.330771e+000 2.500000e+001
         vertex -4.790450e+000 6.593489e+000 2.500000e+001
      endloop
   endfacet
   facet normal -0.000000e+000 0.000000e+000 1.000000e+000
      outer loop
         vertex -8.160159e+000 5.244216e+000 2.500000e+001
         vertex -9.307082e+000 2.732806e+000 2.500000e+001
         vertex -7.751111e+000 2.518488e+000 2.500000e+001
      endloop
   endfacet
   facet normal 0.000000e+000 -0.000000e+000 1.000000e+000
      outer loop
         vertex -9.700000e+000 5.495573e-015 2.500000e+001
         vertex -9.307082e+000 -2.732806e+000 2.500000e+001
         vertex -8.150000e+000 9.980872e-016 2.500000e+001
      endloop
   endfacet
   facet normal 0.000000e+000 0.000000e+000 1.000000e+000
      outer loop
         vertex -8.160159e+000 -5.244216e+000 2.500000e+001
         vertex -6.352149e+000 -7.330771e+000 2.500000e+001
         vertex -6.593489e+000 -4.790450e+000 2.500000e+001
      endloop
   endfacet
   facet normal 0.000000e+000 0.000000e+000 1.000000e+000
      outer loop
         vertex -4.029526e+000 -8.823430e+000 2.500000e+001
         vertex -1.380454e+000 -9.601268e+000 2.500000e+001
         vertex -2.518488e+000 -7.751111e+000 2.500000e+001
      endloop
   endfacet
   facet normal 0.000000e+000 0.000000e+000 1.000000e+000
      outer loop
         vertex 1.380454e+000 -9.601268e+000 2.500000e+001
         vertex 4.029526e+000 -8.823430e+000 2.500000e+001
         vertex 2.518488e+000 -7.751111e+000 2.500000e+001
      endloop
   endfacet
   facet normal 0.000000e+000 0.000000e+000 1.000000e+000
      outer loop
         vertex 6.352149e+000 -7.330771e+000 2.500000e+001
         vertex 8.160159e+000 -5.244216e+000 2.500000e+001
         vertex 6.593489e+000 -4.790450e+000 2.500000e+001
      endloop
   endfacet
   facet normal 0.000000e+000 -0.000000e+000 1.000000e+000
      outer loop
         vertex 7.751111e+000 2.518488e+000 2.500000e+001
         vertex 8.150000e+000 0.000000e+000 2.500000e+001
         vertex 9.307082e+000 2.732806e+000 2.500000e+001
      endloop
   endfacet
   facet normal -0.000000e+000 0.000000e+000 1.000000e+000
      outer loop
         vertex 7.751111e+000 -2.518488e+000 2.500000e+001
         vertex 6.593489e+000 -4.790450e+000 2.500000e+001
         vertex 8.160159e+000 -5.244216e+000 2.500000e+001
      endloop
   endfacet
   facet normal -0.000000e+000 0.000000e+000 1.000000e+000
      outer loop
         vertex 4.790450e+000 -6.593489e+000 2.500000e+001
         vertex 2.518488e+000 -7.751111e+000 2.500000e+001
         vertex 4.029526e+000 -8.823430e+000 2.500000e+001
      endloop
   endfacet
   facet normal 0.000000e+000 0.000000e+000 1.000000e+000
      outer loop
         vertex -1.497131e-015 -8.150000e+000 2.500000e+001
         vertex -2.518488e+000 -7.751111e+000 2.500000e+001
         vertex -1.380454e+000 -9.601268e+000 2.500000e+001
      endloop
   endfacet
   facet normal 0.000000e+000 0.000000e+000 1.000000e+000
      outer loop
         vertex -4.790450e+000 -6.593489e+000 2.500000e+001
         vertex -6.593489e+000 -4.790450e+000 2.500000e+001
         vertex -6.352149e+000 -7.330771e+000 2.500000e+001
      endloop
   endfacet
   facet normal 0.000000e+000 0.000000e+000 1.000000e+000
      outer loop
         vertex -7.751111e+000 -2.518488e+000 2.500000e+001
         vertex -8.150000e+000 9.980872e-016 2.500000e+001
         vertex -9.307082e+000 -2.732806e+000 2.500000e+001
      endloop
   endfacet
   facet normal 0.000000e+000 0.000000e+000 1.000000e+000
      outer loop
         vertex -7.751111e+000 2.518488e+000 2.500000e+001
         vertex -6.593489e+000 4.790450e+000 2.500000e+001
         vertex -8.160159e+000 5.244216e+000 2.500000e+001
      endloop
   endfacet
   facet normal 0.000000e+000 0.000000e+000 1.000000e+000
      outer loop
         vertex -4.790450e+000 6.593489e+000 2.500000e+001
         vertex -2.518488e+000 7.751111e+000 2.500000e+001
         vertex -4.029526e+000 8.823430e+000 2.500000e+001
      endloop
   endfacet
   facet normal 0.000000e+000 0.000000e+000 1.000000e+000
      outer loop
         vertex 4.990436e-016 8.150000e+000 2.500000e+001
         vertex 2.518488e+000 7.751111e+000 2.500000e+001
         vertex 1.380454e+000 9.601268e+000 2.500000e+001
      endloop
   endfacet
   facet normal 0.000000e+000 0.000000e+000 1.000000e+000
      outer loop
         vertex 4.790450e+000 6.593489e+000 2.500000e+001
         vertex 6.593489e+000 4.790450e+000 2.500000e+001
         vertex 6.352149e+000 7.330771e+000 2.500000e+001
      endloop
   endfacet
   facet normal 0.000000e+000 0.000000e+000 1.000000e+000
      outer loop
         vertex 9.307082e+000 -2.732806e+000 2.500000e+001
         vertex 8.150000e+000 0.000000e+000 2.500000e+001
         vertex 7.751111e+000 -2.518488e+000 2.500000e+001
      endloop
   endfacet
   facet normal 0.000000e+000 0.000000e+000 1.000000e+000
      outer loop
         vertex 4.790450e+000 6.593489e+000 2.500000e+001
         vertex 4.029526e+000 8.823430e+000 2.500000e+001
         vertex 2.518488e+000 7.751111e+000 2.500000e+001
      endloop
   endfacet
   facet normal 0.000000e+000 0.000000e+000 1.000000e+000
      outer loop
         vertex -7.751111e+000 2.518488e+000 2.500000e+001
         vertex -9.307082e+000 2.732806e+000 2.500000e+001
         vertex -8.150000e+000 9.980872e-016 2.500000e+001
      endloop
   endfacet
   facet normal 0.000000e+000 0.000000e+000 1.000000e+000
      outer loop
         vertex -4.029526e+000 -8.823430e+000 2.500000e+001
         vertex -2.518488e+000 -7.751111e+000 2.500000e+001
         vertex -4.790450e+000 -6.593489e+000 2.500000e+001
      endloop
   endfacet
   facet normal 0.000000e+000 0.000000e+000 1.000000e+000
      outer loop
         vertex 9.307082e+000 2.732806e+000 2.500000e+001
         vertex 8.150000e+000 0.000000e+000 2.500000e+001
         vertex 9.700000e+000 0.000000e+000 2.500000e+001
      endloop
   endfacet
   facet normal -0.000000e+000 0.000000e+000 1.000000e+000
      outer loop
         vertex -4.790450e+000 -6.593489e+000 2.500000e+001
         vertex -6.352149e+000 -7.330771e+000 2.500000e+001
         vertex -4.029526e+000 -8.823430e+000 2.500000e+001
      endloop
   endfacet
   facet normal 0.000000e+000 -0.000000e+000 1.000000e+000
      outer loop
         vertex -4.029526e+000 8.823430e+000 2.500000e+001
         vertex -2.518488e+000 7.751111e+000 2.500000e+001
         vertex -1.380454e+000 9.601268e+000 2.500000e+001
      endloop
   endfacet
   facet normal 0.000000e+000 0.000000e+000 1.000000e+000
      outer loop
         vertex 9.307082e+000 -2.732806e+000 2.500000e+001
         vertex 7.751111e+000 -2.518488e+000 2.500000e+001
         vertex 8.160159e+000 -5.244216e+000 2.500000e+001
      endloop
   endfacet
   facet normal 0.000000e+000 0.000000e+000 1.000000e+000
      outer loop
         vertex 8.160159e+000 5.244216e+000 2.500000e+001
         vertex 6.352149e+000 7.330771e+000 2.500000e+001
         vertex 6.593489e+000 4.790450e+000 2.500000e+001
      endloop
   endfacet
   facet normal -0.000000e+000 0.000000e+000 1.000000e+000
      outer loop
         vertex -6.352149e+000 7.330771e+000 2.500000e+001
         vertex -8.160159e+000 5.244216e+000 2.500000e+001
         vertex -6.593489e+000 4.790450e+000 2.500000e+001
      endloop
   endfacet
   facet normal 0.000000e+000 -0.000000e+000 1.000000e+000
      outer loop
         vertex -9.307082e+000 -2.732806e+000 2.500000e+001
         vertex -8.160159e+000 -5.244216e+000 2.500000e+001
         vertex -7.751111e+000 -2.518488e+000 2.500000e+001
      endloop
   endfacet
   facet normal 0.000000e+000 0.000000e+000 1.000000e+000
      outer loop
         vertex 4.029526e+000 -8.823430e+000 2.500000e+001
         vertex 6.352149e+000 -7.330771e+000 2.500000e+001
         vertex 4.790450e+000 -6.593489e+000 2.500000e+001
      endloop
   endfacet
   facet normal -0.000000e+000 0.000000e+000 1.000000e+000
      outer loop
         vertex 2.518488e+000 -7.751111e+000 2.500000e+001
         vertex -1.497131e-015 -8.150000e+000 2.500000e+001
         vertex 1.380454e+000 -9.601268e+000 2.500000e+001
      endloop
   endfacet
   facet normal 0.000000e+000 0.000000e+000 1.000000e+000
      outer loop
         vertex -6.593489e+000 4.790450e+000 2.500000e+001
         vertex -4.790450e+000 6.593489e+000 2.500000e+001
         vertex -6.352149e+000 7.330771e+000 2.500000e+001
      endloop
   endfacet
   facet normal 0.000000e+000 -0.000000e+000 1.000000e+000
      outer loop
         vertex 6.593489e+000 4.790450e+000 2.500000e+001
         vertex 7.751111e+000 2.518488e+000 2.500000e+001
         vertex 8.160159e+000 5.244216e+000 2.500000e+001
      endloop
   endfacet
   facet normal 0.000000e+000 0.000000e+000 1.000000e+000
      outer loop
         vertex -9.700000e+000 5.495573e-015 2.500000e+001
         vertex -8.150000e+000 9.980872e-016 2.500000e+001
         vertex -9.307082e+000 2.732806e+000 2.500000e+001
      endloop
   endfacet
   facet normal 0.000000e+000 0.000000e+000 1.000000e+000
      outer loop
         vertex -1.497131e-015 -8.150000e+000 2.500000e+001
         vertex -1.380454e+000 -9.601268e+000 2.500000e+001
         vertex 1.380454e+000 -9.601268e+000 2.500000e+001
      endloop
   endfacet
   facet normal 0.000000e+000 0.000000e+000 1.000000e+000
      outer loop
         vertex -1.380454e+000 9.601268e+000 2.500000e+001
         vertex -2.518488e+000 7.751111e+000 2.500000e+001
         vertex 4.990436e-016 8.150000e+000 2.500000e+001
      endloop
   endfacet
   facet normal 0.000000e+000 0.000000e+000 1.000000e+000
      outer loop
         vertex 4.029526e+000 8.823430e+000 2.500000e+001
         vertex 1.380454e+000 9.601268e+000 2.500000e+001
         vertex 2.518488e+000 7.751111e+000 2.500000e+001
      endloop
   endfacet
   facet normal 0.000000e+000 0.000000e+000 1.000000e+000
      outer loop
         vertex -6.593489e+000 -4.790450e+000 2.500000e+001
         vertex -7.751111e+000 -2.518488e+000 2.500000e+001
         vertex -8.160159e+000 -5.244216e+000 2.500000e+001
      endloop
   endfacet
   facet normal 0.000000e+000 -0.000000e+000 1.000000e+000
      outer loop
         vertex 4.790450e+000 -6.593489e+000 2.500000e+001
         vertex 6.352149e+000 -7.330771e+000 2.500000e+001
         vertex 6.593489e+000 -4.790450e+000 2.500000e+001
      endloop
   endfacet
   facet normal -9.876884e-001 -1.564343e-001 0.000000e+000
      outer loop
         vertex 7.751111e+000 2.518488e+000 0.000000e+000
         vertex 8.150000e+000 0.000000e+000 0.000000e+000
         vertex 8.150000e+000 0.000000e+000 2.500000e+001
      endloop
   endfacet
   facet normal -7.071068e-001 -7.071068e-001 0.000000e+000
      outer loop
         vertex 4.790450e+000 6.593489e+000 2.500000e+001
         vertex 4.790450e+000 6.593489e+000 0.000000e+000
         vertex 6.593489e+000 4.790450e+000 0.000000e+000
      endloop
   endfacet
   facet normal -1.564343e-001 -9.876884e-001 0.000000e+000
      outer loop
         vertex 4.990436e-016 8.150000e+000 2.500000e+001
         vertex 4.990436e-016 8.150000e+000 0.000000e+000
         vertex 2.518488e+000 7.751111e+000 0.000000e+000
      endloop
   endfacet
   facet normal 4.539904e-001 -8.910066e-001 0.000000e+000
      outer loop
         vertex -4.790450e+000 6.593489e+000 2.500000e+001
         vertex -4.790450e+000 6.593489e+000 0.000000e+000
         vertex -2.518488e+000 7.751111e+000 0.000000e+000
      endloop
   endfacet
   facet normal 8.910066e-001 -4.539904e-001 0.000000e+000
      outer loop
         vertex -7.751111e+000 2.518488e+000 2.500000e+001
         vertex -7.751111e+000 2.518488e+000 0.000000e+000
         vertex -6.593489e+000 4.790450e+000 0.000000e+000
      endloop
   endfacet
   facet normal 9.876884e-001 1.564343e-001 -0.000000e+000
      outer loop
         vertex -7.751111e+000 -2.518488e+000 2.500000e+001
         vertex -7.751111e+000 -2.518488e+000 0.000000e+000
         vertex -8.150000e+000 9.980872e-016 0.000000e+000
      endloop
   endfacet
   facet normal 7.071068e-001 7.071068e-001 -0.000000e+000
      outer loop
         vertex -4.790450e+000 -6.593489e+000 2.500000e+001
         vertex -4.790450e+000 -6.593489e+000 0.000000e+000
         vertex -6.593489e+000 -4.790450e+000 0.000000e+000
      endloop
   endfacet
   facet normal 1.564343e-001 9.876884e-001 -0.000000e+000
      outer loop
         vertex -1.497131e-015 -8.150000e+000 2.500000e+001
         vertex -1.497131e-015 -8.150000e+000 0.000000e+000
         vertex -2.518488e+000 -7.751111e+000 0.000000e+000
      endloop
   endfacet
   facet normal -4.539904e-001 8.910066e-001 0.000000e+000
      outer loop
         vertex 4.790450e+000 -6.593489e+000 2.500000e+001
         vertex 4.790450e+000 -6.593489e+000 0.000000e+000
         vertex 2.518488e+000 -7.751111e+000 0.000000e+000
      endloop
   endfacet
   facet normal -8.910066e-001 4.539904e-001 0.000000e+000
      outer loop
         vertex 7.751111e+000 -2.518488e+000 2.500000e+001
         vertex 7.751111e+000 -2.518488e+000 0.000000e+000
         vertex 6.593489e+000 -4.790450e+000 0.000000e+000
      endloop
   endfacet
   facet normal -9.876884e-001 1.564343e-001 0.000000e+000
      outer loop
         vertex 7.751111e+000 -2.518488e+000 0.000000e+000
         vertex 8.150000e+000 0.000000e+000 2.500000e+001
         vertex 8.150000e+000 0.000000e+000 0.000000e+000
      endloop
   endfacet
   facet normal -7.071068e-001 7.071068e-001 0.000000e+000
      outer loop
         vertex 4.790450e+000 -6.593489e+000 0.000000e+000
         vertex 4.790450e+000 -6.593489e+000 2.500000e+001
         vertex 6.593489e+000 -4.790450e+000 2.500000e+001
      endloop
   endfacet
   facet normal -1.564343e-001 9.876884e-001 0.000000e+000
      outer loop
         vertex -1.497131e-015 -8.150000e+000 0.000000e+000
         vertex -1.497131e-015 -8.150000e+000 2.500000e+001
         vertex 2.518488e+000 -7.751111e+000 2.500000e+001
      endloop
   endfacet
   facet normal 4.539904e-001 8.910066e-001 0.000000e+000
      outer loop
         vertex -4.790450e+000 -6.593489e+000 0.000000e+000
         vertex -4.790450e+000 -6.593489e+000 2.500000e+001
         vertex -2.518488e+000 -7.751111e+000 2.500000e+001
      endloop
   endfacet
   facet normal 8.910066e-001 4.539904e-001 0.000000e+000
      outer loop
         vertex -7.751111e+000 -2.518488e+000 0.000000e+000
         vertex -7.751111e+000 -2.518488e+000 2.500000e+001
         vertex -6.593489e+000 -4.790450e+000 2.500000e+001
      endloop
   endfacet
   facet normal 9.876884e-001 -1.564343e-001 0.000000e+000
      outer loop
         vertex -7.751111e+000 2.518488e+000 0.000000e+000
         vertex -7.751111e+000 2.518488e+000 2.500000e+001
         vertex -8.150000e+000 9.980872e-016 2.500000e+001
      endloop
   endfacet
   facet normal 7.071068e-001 -7.071068e-001 0.000000e+000
      outer loop
         vertex -4.790450e+000 6.593489e+000 0.000000e+000
         vertex -4.790450e+000 6.593489e+000 2.500000e+001
         vertex -6.593489e+000 4.790450e+000 2.500000e+001
      endloop
   endfacet
   facet normal 1.564343e-001 -9.876884e-001 0.000000e+000
      outer loop
         vertex 4.990436e-016 8.150000e+000 0.000000e+000
         vertex 4.990436e-016 8.150000e+000 2.500000e+001
         vertex -2.518488e+000 7.751111e+000 2.500000e+001
      endloop
   endfacet
   facet normal -4.539904e-001 -8.910066e-001 -0.000000e+000
      outer loop
         vertex 4.790450e+000 6.593489e+000 0.000000e+000
         vertex 4.790450e+000 6.593489e+000 2.500000e+001
         vertex 2.518488e+000 7.751111e+000 2.500000e+001
      endloop
   endfacet
   facet normal -8.910066e-001 -4.539904e-001 -0.000000e+000
      outer loop
         vertex 7.751111e+000 2.518488e+000 0.000000e+000
         vertex 7.751111e+000 2.518488e+000 2.500000e+001
         vertex 6.593489e+000 4.790450e+000 2.500000e+001
      endloop
   endfacet
   facet normal -9.876884e-001 -1.564343e-001 0.000000e+000
      outer loop
         vertex 7.751111e+000 2.518488e+000 2.500000e+001
         vertex 7.751111e+000 2.518488e+000 0.000000e+000
         vertex 8.150000e+000 0.000000e+000 2.500000e+001
      endloop
   endfacet
   facet normal 4.539904e-001 -8.910066e-001 0.000000e+000
      outer loop
         vertex -2.518488e+000 7.751111e+000 2.500000e+001
         vertex -4.790450e+000 6.593489e+000 2.500000e+001
         vertex -2.518488e+000 7.751111e+000 0.000000e+000
      endloop
   endfacet
   facet normal 7.071068e-001 7.071068e-001 0.000000e+000
      outer loop
         vertex -6.593489e+000 -4.790450e+000 2.500000e+001
         vertex -4.790450e+000 -6.593489e+000 2.500000e+001
         vertex -6.593489e+000 -4.790450e+000 0.000000e+000
      endloop
   endfacet
   facet normal -8.910066e-001 4.539904e-001 0.000000e+000
      outer loop
         vertex 6.593489e+000 -4.790450e+000 2.500000e+001
         vertex 7.751111e+000 -2.518488e+000 2.500000e+001
         vertex 6.593489e+000 -4.790450e+000 0.000000e+000
      endloop
   endfacet
   facet normal -7.071068e-001 7.071068e-001 0.000000e+000
      outer loop
         vertex 6.593489e+000 -4.790450e+000 0.000000e+000
         vertex 4.790450e+000 -6.593489e+000 0.000000e+000
         vertex 6.593489e+000 -4.790450e+000 2.500000e+001
      endloop
   endfacet
   facet normal 8.910066e-001 4.539904e-001 0.000000e+000
      outer loop
         vertex -6.593489e+000 -4.790450e+000 0.000000e+000
         vertex -7.751111e+000 -2.518488e+000 0.000000e+000
         vertex -6.593489e+000 -4.790450e+000 2.500000e+001
      endloop
   endfacet
   facet normal 1.564343e-001 -9.876884e-001 0.000000e+000
      outer loop
         vertex -2.518488e+000 7.751111e+000 0.000000e+000
         vertex 4.990436e-016 8.150000e+000 0.000000e+000
         vertex -2.518488e+000 7.751111e+000 2.500000e+001
      endloop
   endfacet
   facet normal -8.910066e-001 -4.539904e-001 0.000000e+000
      outer loop
         vertex 6.593489e+000 4.790450e+000 2.500000e+001
         vertex 6.593489e+000 4.790450e+000 0.000000e+000
         vertex 7.751111e+000 2.518488e+000 0.000000e+000
      endloop
   endfacet
   facet normal 7.071068e-001 -7.071068e-001 0.000000e+000
      outer loop
         vertex -6.593489e+000 4.790450e+000 2.500000e+001
         vertex -6.593489e+000 4.790450e+000 0.000000e+000
         vertex -4.790450e+000 6.593489e+000 0.000000e+000
      endloop
   endfacet
   facet normal 4.539904e-001 8.910066e-001 -0.000000e+000
      outer loop
         vertex -2.518488e+000 -7.751111e+000 2.500000e+001
         vertex -2.518488e+000 -7.751111e+000 0.000000e+000
         vertex -4.790450e+000 -6.593489e+000 0.000000e+000
      endloop
   endfacet
   facet normal -9.876884e-001 1.564343e-001 0.000000e+000
      outer loop
         vertex 7.751111e+000 -2.518488e+000 0.000000e+000
         vertex 7.751111e+000 -2.518488e+000 2.500000e+001
         vertex 8.150000e+000 0.000000e+000 2.500000e+001
      endloop
   endfacet
   facet normal 1.564343e-001 9.876884e-001 0.000000e+000
      outer loop
         vertex -2.518488e+000 -7.751111e+000 0.000000e+000
         vertex -2.518488e+000 -7.751111e+000 2.500000e+001
         vertex -1.497131e-015 -8.150000e+000 2.500000e+001
      endloop
   endfacet
   facet normal 8.910066e-001 -4.539904e-001 0.000000e+000
      outer loop
         vertex -6.593489e+000 4.790450e+000 0.000000e+000
         vertex -6.593489e+000 4.790450e+000 2.500000e+001
         vertex -7.751111e+000 2.518488e+000 2.500000e+001
      endloop
   endfacet
   facet normal -7.071068e-001 -7.071068e-001 -0.000000e+000
      outer loop
         vertex 6.593489e+000 4.790450e+000 0.000000e+000
         vertex 6.593489e+000 4.790450e+000 2.500000e+001
         vertex 4.790450e+000 6.593489e+000 2.500000e+001
      endloop
   endfacet
   facet normal 9.876884e-001 1.564343e-001 0.000000e+000
      outer loop
         vertex -8.150000e+000 9.980872e-016 2.500000e+001
         vertex -7.751111e+000 -2.518488e+000 2.500000e+001
         vertex -8.150000e+000 9.980872e-016 0.000000e+000
      endloop
   endfacet
   facet normal 9.876884e-001 -1.564343e-001 0.000000e+000
      outer loop
         vertex -8.150000e+000 9.980872e-016 0.000000e+000
         vertex -7.751111e+000 2.518488e+000 0.000000e+000
         vertex -8.150000e+000 9.980872e-016 2.500000e+001
      endloop
   endfacet
   facet normal -4.539904e-001 -8.910066e-001 0.000000e+000
      outer loop
         vertex 2.518488e+000 7.751111e+000 2.500000e+001
         vertex 2.518488e+000 7.751111e+000 0.000000e+000
         vertex 4.790450e+000 6.593489e+000 0.000000e+000
      endloop
   endfacet
   facet normal -4.539904e-001 8.910066e-001 0.000000e+000
      outer loop
         vertex 2.518488e+000 -7.751111e+000 0.000000e+000
         vertex 2.518488e+000 -7.751111e+000 2.500000e+001
         vertex 4.790450e+000 -6.593489e+000 2.500000e+001
      endloop
   endfacet
   facet normal -1.564343e-001 -9.876884e-001 0.000000e+000
      outer loop
         vertex 2.518488e+000 7.751111e+000 2.500000e+001
         vertex 4.990436e-016 8.150000e+000 2.500000e+001
         vertex 2.518488e+000 7.751111e+000 0.000000e+000
      endloop
   endfacet
   facet normal -1.564343e-001 9.876884e-001 0.000000e+000
      outer loop
         vertex 2.518488e+000 -7.751111e+000 2.500000e+001
         vertex 2.518488e+000 -7.751111e+000 0.000000e+000
         vertex -1.497131e-015 -8.150000e+000 0.000000e+000
      endloop
   endfacet
   facet normal 9.898215e-001 1.423147e-001 -0.000000e+000
      outer loop
         vertex 9.700000e+000 0.000000e+000 2.500000e+001
         vertex 9.700000e+000 0.000000e+000 0.000000e+000
         vertex 9.307082e+000 2.732806e+000 0.000000e+000
      endloop
   endfacet
   facet normal 7.557496e-001 6.548607e-001 -0.000000e+000
      outer loop
         vertex 8.160159e+000 5.244216e+000 0.000000e+000
         vertex 6.352149e+000 7.330771e+000 0.000000e+000
         vertex 6.352149e+000 7.330771e+000 2.500000e+001
      endloop
   endfacet
   facet normal 2.817326e-001 9.594930e-001 -0.000000e+000
      outer loop
         vertex 4.029526e+000 8.823430e+000 0.000000e+000
         vertex 1.380454e+000 9.601268e+000 0.000000e+000
         vertex 1.380454e+000 9.601268e+000 2.500000e+001
      endloop
   endfacet
   facet normal -2.817326e-001 9.594930e-001 0.000000e+000
      outer loop
         vertex -1.380454e+000 9.601268e+000 0.000000e+000
         vertex -4.029526e+000 8.823430e+000 0.000000e+000
         vertex -4.029526e+000 8.823430e+000 2.500000e+001
      endloop
   endfacet
   facet normal -7.557496e-001 6.548607e-001 0.000000e+000
      outer loop
         vertex -6.352149e+000 7.330771e+000 0.000000e+000
         vertex -8.160159e+000 5.244216e+000 0.000000e+000
         vertex -8.160159e+000 5.244216e+000 2.500000e+001
      endloop
   endfacet
   facet normal -9.898215e-001 1.423147e-001 0.000000e+000
      outer loop
         vertex -9.307082e+000 2.732806e+000 0.000000e+000
         vertex -9.700000e+000 5.495573e-015 0.000000e+000
         vertex -9.700000e+000 5.495573e-015 2.500000e+001
      endloop
   endfacet
   facet normal -9.096319e-001 -4.154151e-001 0.000000e+000
      outer loop
         vertex -9.307082e+000 -2.732806e+000 0.000000e+000
         vertex -8.160159e+000 -5.244216e+000 0.000000e+000
         vertex -8.160159e+000 -5.244216e+000 2.500000e+001
      endloop
   endfacet
   facet normal -5.406408e-001 -8.412536e-001 0.000000e+000
      outer loop
         vertex -6.352149e+000 -7.330771e+000 0.000000e+000
         vertex -4.029526e+000 -8.823430e+000 0.000000e+000
         vertex -4.029526e+000 -8.823430e+000 2.500000e+001
      endloop
   endfacet
   facet normal 0.000000e+000 -1.000000e+000 0.000000e+000
      outer loop
         vertex -1.380454e+000 -9.601268e+000 0.000000e+000
         vertex 1.380454e+000 -9.601268e+000 0.000000e+000
         vertex 1.380454e+000 -9.601268e+000 2.500000e+001
      endloop
   endfacet
   facet normal 5.406408e-001 -8.412536e-001 0.000000e+000
      outer loop
         vertex 4.029526e+000 -8.823430e+000 0.000000e+000
         vertex 6.352149e+000 -7.330771e+000 0.000000e+000
         vertex 6.352149e+000 -7.330771e+000 2.500000e+001
      endloop
   endfacet
   facet normal 9.096319e-001 -4.154151e-001 0.000000e+000
      outer loop
         vertex 8.160159e+000 -5.244216e+000 0.000000e+000
         vertex 9.307082e+000 -2.732806e+000 0.000000e+000
         vertex 9.307082e+000 -2.732806e+000 2.500000e+001
      endloop
   endfacet
   facet normal 9.898215e-001 -1.423147e-001 0.000000e+000
      outer loop
         vertex 9.700000e+000 0.000000e+000 0.000000e+000
         vertex 9.700000e+000 0.000000e+000 2.500000e+001
         vertex 9.307082e+000 -2.732806e+000 0.000000e+000
      endloop
   endfacet
   facet normal 7.557496e-001 -6.548607e-001 0.000000e+000
      outer loop
         vertex 8.160159e+000 -5.244216e+000 2.500000e+001
         vertex 6.352149e+000 -7.330771e+000 2.500000e+001
         vertex 6.352149e+000 -7.330771e+000 0.000000e+000
      endloop
   endfacet
   facet normal 2.817326e-001 -9.594930e-001 0.000000e+000
      outer loop
         vertex 4.029526e+000 -8.823430e+000 2.500000e+001
         vertex 1.380454e+000 -9.601268e+000 2.500000e+001
         vertex 1.380454e+000 -9.601268e+000 0.000000e+000
      endloop
   endfacet
   facet normal -2.817326e-001 -9.594930e-001 -0.000000e+000
      outer loop
         vertex -1.380454e+000 -9.601268e+000 2.500000e+001
         vertex -4.029526e+000 -8.823430e+000 2.500000e+001
         vertex -4.029526e+000 -8.823430e+000 0.000000e+000
      endloop
   endfacet
   facet normal -7.557496e-001 -6.548607e-001 -0.000000e+000
      outer loop
         vertex -6.352149e+000 -7.330771e+000 2.500000e+001
         vertex -8.160159e+000 -5.244216e+000 2.500000e+001
         vertex -8.160159e+000 -5.244216e+000 0.000000e+000
      endloop
   endfacet
   facet normal -9.898215e-001 -1.423147e-001 -0.000000e+000
      outer loop
         vertex -9.307082e+000 -2.732806e+000 2.500000e+001
         vertex -9.700000e+000 5.495573e-015 2.500000e+001
         vertex -9.700000e+000 5.495573e-015 0.000000e+000
      endloop
   endfacet
   facet normal -9.096319e-001 4.154151e-001 0.000000e+000
      outer loop
         vertex -9.307082e+000 2.732806e+000 2.500000e+001
         vertex -8.160159e+000 5.244216e+000 2.500000e+001
         vertex -8.160159e+000 5.244216e+000 0.000000e+000
      endloop
   endfacet
   facet normal -5.406408e-001 8.412536e-001 0.000000e+000
      outer loop
         vertex -6.352149e+000 7.330771e+000 2.500000e+001
         vertex -4.029526e+000 8.823430e+000 2.500000e+001
         vertex -4.029526e+000 8.823430e+000 0.000000e+000
      endloop
   endfacet
   facet normal 0.000000e+000 1.000000e+000 0.000000e+000
      outer loop
         vertex -1.380454e+000 9.601268e+000 2.500000e+001
         vertex 1.380454e+000 9.601268e+000 2.500000e+001
         vertex 1.380454e+000 9.601268e+000 0.000000e+000
      endloop
   endfacet
   facet normal 5.406408e-001 8.412536e-001 0.000000e+000
      outer loop
         vertex 4.029526e+000 8.823430e+000 2.500000e+001
         vertex 6.352149e+000 7.330771e+000 2.500000e+001
         vertex 6.352149e+000 7.330771e+000 0.000000e+000
      endloop
   endfacet
   facet normal 9.096319e-001 4.154151e-001 0.000000e+000
      outer loop
         vertex 8.160159e+000 5.244216e+000 2.500000e+001
         vertex 9.307082e+000 2.732806e+000 2.500000e+001
         vertex 9.307082e+000 2.732806e+000 0.000000e+000
      endloop
   endfacet
   facet normal 9.898215e-001 1.423147e-001 -0.000000e+000
      outer loop
         vertex 9.700000e+000 0.000000e+000 2.500000e+001
         vertex 9.307082e+000 2.732806e+000 0.000000e+000
         vertex 9.307082e+000 2.732806e+000 2.500000e+001
      endloop
   endfacet
   facet normal -2.817326e-001 9.594930e-001 0.000000e+000
      outer loop
         vertex -1.380454e+000 9.601268e+000 0.000000e+000
         vertex -4.029526e+000 8.823430e+000 2.500000e+001
         vertex -1.380454e+000 9.601268e+000 2.500000e+001
      endloop
   endfacet
   facet normal -9.096319e-001 -4.154151e-001 0.000000e+000
      outer loop
         vertex -9.307082e+000 -2.732806e+000 0.000000e+000
         vertex -8.160159e+000 -5.244216e+000 2.500000e+001
         vertex -9.307082e+000 -2.732806e+000 2.500000e+001
      endloop
   endfacet
   facet normal 5.406408e-001 -8.412536e-001 0.000000e+000
      outer loop
         vertex 4.029526e+000 -8.823430e+000 0.000000e+000
         vertex 6.352149e+000 -7.330771e+000 2.500000e+001
         vertex 4.029526e+000 -8.823430e+000 2.500000e+001
      endloop
   endfacet
   facet normal 9.898215e-001 -1.423147e-001 0.000000e+000
      outer loop
         vertex 9.307082e+000 -2.732806e+000 0.000000e+000
         vertex 9.700000e+000 0.000000e+000 2.500000e+001
         vertex 9.307082e+000 -2.732806e+000 2.500000e+001
      endloop
   endfacet
   facet normal -7.557496e-001 -6.548607e-001 0.000000e+000
      outer loop
         vertex -6.352149e+000 -7.330771e+000 2.500000e+001
         vertex -8.160159e+000 -5.244216e+000 0.000000e+000
         vertex -6.352149e+000 -7.330771e+000 0.000000e+000
      endloop
   endfacet
   facet normal -5.406408e-001 8.412536e-001 0.000000e+000
      outer loop
         vertex -6.352149e+000 7.330771e+000 2.500000e+001
         vertex -4.029526e+000 8.823430e+000 0.000000e+000
         vertex -6.352149e+000 7.330771e+000 0.000000e+000
      endloop
   endfacet
   facet normal 9.096319e-001 4.154151e-001 0.000000e+000
      outer loop
         vertex 8.160159e+000 5.244216e+000 2.500000e+001
         vertex 9.307082e+000 2.732806e+000 0.000000e+000
         vertex 8.160159e+000 5.244216e+000 0.000000e+000
      endloop
   endfacet
   facet normal 2.817326e-001 -9.594930e-001 0.000000e+000
      outer loop
         vertex 4.029526e+000 -8.823430e+000 0.000000e+000
         vertex 4.029526e+000 -8.823430e+000 2.500000e+001
         vertex 1.380454e+000 -9.601268e+000 0.000000e+000
      endloop
   endfacet
   facet normal 5.406408e-001 8.412536e-001 -0.000000e+000
      outer loop
         vertex 6.352149e+000 7.330771e+000 0.000000e+000
         vertex 4.029526e+000 8.823430e+000 0.000000e+000
         vertex 4.029526e+000 8.823430e+000 2.500000e+001
      endloop
   endfacet
   facet normal -9.096319e-001 4.154151e-001 0.000000e+000
      outer loop
         vertex -8.160159e+000 5.244216e+000 0.000000e+000
         vertex -9.307082e+000 2.732806e+000 0.000000e+000
         vertex -9.307082e+000 2.732806e+000 2.500000e+001
      endloop
   endfacet
   facet normal -2.817326e-001 -9.594930e-001 0.000000e+000
      outer loop
         vertex -4.029526e+000 -8.823430e+000 0.000000e+000
         vertex -1.380454e+000 -9.601268e+000 0.000000e+000
         vertex -1.380454e+000 -9.601268e+000 2.500000e+001
      endloop
   endfacet
   facet normal 9.096319e-001 -4.154151e-001 0.000000e+000
      outer loop
         vertex 9.307082e+000 -2.732806e+000 2.500000e+001
         vertex 8.160159e+000 -5.244216e+000 2.500000e+001
         vertex 8.160159e+000 -5.244216e+000 0.000000e+000
      endloop
   endfacet
   facet normal -5.406408e-001 -8.412536e-001 -0.000000e+000
      outer loop
         vertex -4.029526e+000 -8.823430e+000 2.500000e+001
         vertex -6.352149e+000 -7.330771e+000 2.500000e+001
         vertex -6.352149e+000 -7.330771e+000 0.000000e+000
      endloop
   endfacet
   facet normal -7.557496e-001 6.548607e-001 0.000000e+000
      outer loop
         vertex -8.160159e+000 5.244216e+000 2.500000e+001
         vertex -6.352149e+000 7.330771e+000 2.500000e+001
         vertex -6.352149e+000 7.330771e+000 0.000000e+000
      endloop
   endfacet
   facet normal 7.557496e-001 6.548607e-001 0.000000e+000
      outer loop
         vertex 6.352149e+000 7.330771e+000 2.500000e+001
         vertex 8.160159e+000 5.244216e+000 2.500000e+001
         vertex 8.160159e+000 5.244216e+000 0.000000e+000
      endloop
   endfacet
   facet normal -9.898215e-001 1.423147e-001 0.000000e+000
      outer loop
         vertex -9.307082e+000 2.732806e+000 0.000000e+000
         vertex -9.700000e+000 5.495573e-015 2.500000e+001
         vertex -9.307082e+000 2.732806e+000 2.500000e+001
      endloop
   endfacet
   facet normal -9.898215e-001 -1.423147e-001 0.000000e+000
      outer loop
         vertex -9.307082e+000 -2.732806e+000 2.500000e+001
         vertex -9.700000e+000 5.495573e-015 0.000000e+000
         vertex -9.307082e+000 -2.732806e+000 0.000000e+000
      endloop
   endfacet
   facet normal 2.817326e-001 9.594930e-001 -0.000000e+000
      outer loop
         vertex 4.029526e+000 8.823430e+000 2.500000e+001
         vertex 4.029526e+000 8.823430e+000 0.000000e+000
         vertex 1.380454e+000 9.601268e+000 2.500000e+001
      endloop
   endfacet
   facet normal 0.000000e+000 1.000000e+000 0.000000e+000
      outer loop
         vertex 1.380454e+000 9.601268e+000 0.000000e+000
         vertex -1.380454e+000 9.601268e+000 0.000000e+000
         vertex -1.380454e+000 9.601268e+000 2.500000e+001
      endloop
   endfacet
   facet normal 0.000000e+000 -1.000000e+000 0.000000e+000
      outer loop
         vertex 1.380454e+000 -9.601268e+000 2.500000e+001
         vertex -1.380454e+000 -9.601268e+000 2.500000e+001
         vertex -1.380454e+000 -9.601268e+000 0.000000e+000
      endloop
   endfacet
   facet normal 7.557496e-001 -6.548607e-001 0.000000e+000
      outer loop
         vertex 8.160159e+000 -5.244216e+000 0.000000e+000
         vertex 8.160159e+000 -5.244216e+000 2.500000e+001
         vertex 6.352149e+000 -7.330771e+000 0.000000e+000
      endloop
   endfacet
endsolid
