solid Нижний Уголок-Совместимый-Дополнение
facet normal -0.9914448613738115 -0.13052619222004425 1.5671546539698295e-15
  outer loop
    vertex -30.07663675664635 -37.513320093325916 53.00000000000005
    vertex -29.480338716705088 -42.04265338262006 45.00000000000004
    vertex -29.480338716705077 -42.04265338262006 53.00000000000005
  endloop
endfacet
facet normal -0.9914448613738115 -0.13052619222004425 1.5671546539698295e-15
  outer loop
    vertex -29.480338716705088 -42.04265338262006 45.00000000000004
    vertex -30.07663675664635 -37.513320093325916 53.00000000000005
    vertex -30.076636756646366 -37.513320093325916 45.00000000000004
  endloop
endfacet
facet normal -0.923879532511283 -0.38268343236509944 1.5020930499557944e-15
  outer loop
    vertex -29.480338716705077 -42.04265338262006 53.00000000000005
    vertex -27.732081322874034 -46.263320093325916 45.00000000000004
    vertex -27.732081322874023 -46.263320093325916 53.00000000000005
  endloop
endfacet
facet normal -0.923879532511283 -0.38268343236509944 1.5020930499557944e-15
  outer loop
    vertex -27.732081322874034 -46.263320093325916 45.00000000000004
    vertex -29.480338716705077 -42.04265338262006 53.00000000000005
    vertex -29.480338716705088 -42.04265338262006 45.00000000000004
  endloop
endfacet
facet normal -0.7933533402912367 -0.6087614290087187 1.3346662869134162e-15
  outer loop
    vertex -27.732081322874023 -46.263320093325916 53.00000000000005
    vertex -24.95100542741097 -49.88768876409048 45.00000000000004
    vertex -24.951005427410955 -49.88768876409048 53.00000000000005
  endloop
endfacet
facet normal -0.7933533402912367 -0.6087614290087187 1.3346662869134162e-15
  outer loop
    vertex -24.95100542741097 -49.88768876409048 45.00000000000004
    vertex -27.732081322874023 -46.263320093325916 53.00000000000005
    vertex -27.732081322874034 -46.263320093325916 45.00000000000004
  endloop
endfacet
facet normal -0.6087614290087136 -0.7933533402912407 1.0762842220581953e-15
  outer loop
    vertex -21.32663675664636 -52.66876465955353 53.00000000000005
    vertex -24.95100542741097 -49.88768876409048 45.00000000000004
    vertex -21.326636756646373 -52.66876465955353 45.00000000000003
  endloop
endfacet
facet normal -0.6087614290087136 -0.7933533402912407 1.0762842220581953e-15
  outer loop
    vertex -24.95100542741097 -49.88768876409048 45.00000000000004
    vertex -21.32663675664636 -52.66876465955353 53.00000000000005
    vertex -24.951005427410955 -49.88768876409048 53.00000000000005
  endloop
endfacet
facet normal -0.3826834323650935 -0.9238795325112854 7.445551661135099e-16
  outer loop
    vertex -17.105970045940484 -54.417022053384564 53.00000000000005
    vertex -21.326636756646373 -52.66876465955353 45.00000000000003
    vertex -17.1059700459405 -54.417022053384564 45.00000000000003
  endloop
endfacet
facet normal -0.3826834323650935 -0.9238795325112854 7.445551661135099e-16
  outer loop
    vertex -21.326636756646373 -52.66876465955353 45.00000000000003
    vertex -17.105970045940484 -54.417022053384564 53.00000000000005
    vertex -21.32663675664636 -52.66876465955353 53.00000000000005
  endloop
endfacet
facet normal -0.13052619222006542 -0.9914448613738086 3.6208590603377814e-16
  outer loop
    vertex -12.576636756646364 -55.01332009332593 53.00000000000003
    vertex -17.1059700459405 -54.417022053384564 45.00000000000003
    vertex -12.576636756646376 -55.01332009332593 45.00000000000002
  endloop
endfacet
facet normal -0.13052619222006542 -0.9914448613738086 3.6208590603377814e-16
  outer loop
    vertex -17.1059700459405 -54.417022053384564 45.00000000000003
    vertex -12.576636756646364 -55.01332009332593 53.00000000000003
    vertex -17.105970045940484 -54.417022053384564 53.00000000000005
  endloop
endfacet
facet normal -0.9653861046566546 -0.26082497759196877 1.4527037806630988e-15
  outer loop
    vertex -2.4227281396782785 -33.28270077716669 52.00000000000003
    vertex -1.6737493341371805 -36.054880566952235 45.00000000000001
    vertex -1.6737493341371648 -36.054880566952264 52.00000000000003
  endloop
endfacet
facet normal -0.9653861046566546 -0.26082497759196877 1.4527037806630988e-15
  outer loop
    vertex -1.6737493341371805 -36.054880566952235 45.00000000000001
    vertex -2.4227281396782785 -33.28270077716669 52.00000000000003
    vertex -2.4227281396782945 -33.282700777166674 45.00000000000001
  endloop
endfacet
facet normal -0.9999978424677036 -0.0020772722348777195 1.4435911859350144e-16
  outer loop
    vertex -1.6737493341371648 -36.054880566952264 52.00000000000003
    vertex -1.6677842885666592 -38.92645060027492 45.00000000000001
    vertex -1.667784288566673 -38.92645060027493 52.00000000000003
  endloop
endfacet
facet normal -0.9999978424677036 -0.0020772722348777195 1.4435911859350144e-16
  outer loop
    vertex -1.6677842885666592 -38.92645060027492 45.00000000000001
    vertex -1.6737493341371648 -36.054880566952264 52.00000000000003
    vertex -1.6737493341371805 -36.054880566952235 45.00000000000001
  endloop
endfacet
facet normal -0.966461379889149 0.25681199579217867 -3.1565061631187297e-16
  outer loop
    vertex -1.667784288566673 -38.92645060027493 52.00000000000003
    vertex -2.4052395109647358 -41.7017181248576 45.00000000000001
    vertex -2.405239510964731 -41.7017181248576 52.00000000000003
  endloop
endfacet
facet normal -0.966461379889149 0.25681199579217867 -3.1565061631187297e-16
  outer loop
    vertex -2.4052395109647358 -41.7017181248576 45.00000000000001
    vertex -1.667784288566673 -38.92645060027493 52.00000000000003
    vertex -1.6677842885666592 -38.92645060027492 45.00000000000001
  endloop
endfacet
facet normal -0.8670621714240972 0.49819995070787576 4.554908782161369e-16
  outer loop
    vertex -2.405239510964731 -41.7017181248576 52.00000000000003
    vertex -3.835858646627292 -44.1915532452464 45.00000000000001
    vertex -3.8358586466272895 -44.1915532452464 52.00000000000003
  endloop
endfacet
facet normal -0.8670621714240972 0.49819995070787576 4.554908782161369e-16
  outer loop
    vertex -3.835858646627292 -44.1915532452464 45.00000000000001
    vertex -2.405239510964731 -41.7017181248576 52.00000000000003
    vertex -2.4052395109647358 -41.7017181248576 45.00000000000001
  endloop
endfacet
facet normal -0.7085741088644829 0.7056364022971775 -2.12988514458021e-15
  outer loop
    vertex -5.862147365668848 -46.226277812633924 52.00000000000003
    vertex -3.835858646627292 -44.1915532452464 45.00000000000001
    vertex -5.862147365668837 -46.22627781263396 45.00000000000002
  endloop
endfacet
facet normal -0.7085741088644829 0.7056364022971775 -2.12988514458021e-15
  outer loop
    vertex -3.835858646627292 -44.1915532452464 45.00000000000001
    vertex -5.862147365668848 -46.226277812633924 52.00000000000003
    vertex -3.8358586466272895 -44.1915532452464 52.00000000000003
  endloop
endfacet
facet normal -0.5017978917598342 0.8649848991892204 -8.477367505502169e-15
  outer loop
    vertex -8.346017440487156 -47.66722871029403 52.00000000000003
    vertex -5.862147365668837 -46.22627781263396 45.00000000000002
    vertex -8.346017440487135 -47.66722871029412 45.00000000000002
  endloop
endfacet
facet normal -0.5017978917598342 0.8649848991892204 -8.477367505502169e-15
  outer loop
    vertex -5.862147365668837 -46.22627781263396 45.00000000000002
    vertex -8.346017440487156 -47.66722871029403 52.00000000000003
    vertex -5.862147365668848 -46.226277812633924 52.00000000000003
  endloop
endfacet
facet normal -0.2608249775919659 0.9653861046566554 -1.1589379058532841e-14
  outer loop
    vertex -11.118197230272736 -48.41620751583515 52.00000000000003
    vertex -8.346017440487135 -47.66722871029412 45.00000000000002
    vertex -11.118197230272761 -48.41620751583523 45.00000000000002
  endloop
endfacet
facet normal -0.2608249775919659 0.9653861046566554 -1.1589379058532841e-14
  outer loop
    vertex -8.346017440487135 -47.66722871029412 45.00000000000002
    vertex -11.118197230272736 -48.41620751583515 52.00000000000003
    vertex -8.346017440487156 -47.66722871029403 52.00000000000003
  endloop
endfacet
facet normal -0.002077272234870135 0.9999978424677036 -1.0876542569646894e-14
  outer loop
    vertex -13.989767263595377 -48.42217256140571 45.00000000000003
    vertex -11.118197230272736 -48.41620751583515 52.00000000000003
    vertex -11.118197230272761 -48.41620751583523 45.00000000000002
  endloop
endfacet
facet normal -0.002077272234870135 0.9999978424677036 -1.0876542569646894e-14
  outer loop
    vertex -11.118197230272736 -48.41620751583515 52.00000000000003
    vertex -13.989767263595377 -48.42217256140571 45.00000000000003
    vertex -13.9897672635954 -48.42217256140564 52.00000000000003
  endloop
endfacet
facet normal 0.25681199579217207 0.9664613798891509 -1.014752625978985e-14
  outer loop
    vertex -16.765034788178074 -47.68471733900758 52.00000000000003
    vertex -13.989767263595377 -48.42217256140571 45.00000000000003
    vertex -16.765034788178035 -47.684717339007676 45.00000000000003
  endloop
endfacet
facet normal 0.25681199579217207 0.9664613798891509 -1.014752625978985e-14
  outer loop
    vertex -13.989767263595377 -48.42217256140571 45.00000000000003
    vertex -16.765034788178074 -47.68471733900758 52.00000000000003
    vertex -13.9897672635954 -48.42217256140564 52.00000000000003
  endloop
endfacet
facet normal 0.49819995070787865 0.8670621714240954 -7.973885940826508e-15
  outer loop
    vertex -19.254869908566878 -46.25409820334502 52.00000000000003
    vertex -16.765034788178035 -47.684717339007676 45.00000000000003
    vertex -19.254869908566867 -46.25409820334509 45.00000000000003
  endloop
endfacet
facet normal 0.49819995070787865 0.8670621714240954 -7.973885940826508e-15
  outer loop
    vertex -16.765034788178035 -47.684717339007676 45.00000000000003
    vertex -19.254869908566878 -46.25409820334502 52.00000000000003
    vertex -16.765034788178074 -47.68471733900758 52.00000000000003
  endloop
endfacet
facet normal 0.7056364022971852 0.7085741088644751 -2.863561545529907e-15
  outer loop
    vertex -21.289594475954395 -44.22780948430347 52.00000000000003
    vertex -19.254869908566867 -46.25409820334509 45.00000000000003
    vertex -21.289594475954374 -44.22780948430349 45.00000000000003
  endloop
endfacet
facet normal 0.7056364022971852 0.7085741088644751 -2.863561545529907e-15
  outer loop
    vertex -19.254869908566867 -46.25409820334509 45.00000000000003
    vertex -21.289594475954395 -44.22780948430347 52.00000000000003
    vertex -19.254869908566878 -46.25409820334502 52.00000000000003
  endloop
endfacet
facet normal 0.8649848991892221 0.5017978917598312 -7.359680469996189e-16
  outer loop
    vertex -22.730545373614497 -41.74393940948521 45.00000000000004
    vertex -21.289594475954395 -44.22780948430347 52.00000000000003
    vertex -21.289594475954374 -44.22780948430349 45.00000000000003
  endloop
endfacet
facet normal 0.8649848991892221 0.5017978917598312 -7.359680469996189e-16
  outer loop
    vertex -21.289594475954395 -44.22780948430347 52.00000000000003
    vertex -22.730545373614497 -41.74393940948521 45.00000000000004
    vertex -22.73054537361451 -41.74393940948516 52.00000000000003
  endloop
endfacet
facet normal 0.965386104656653 0.26082497759197415 -2.918729570025916e-15
  outer loop
    vertex -23.479524179155657 -38.971759619699604 45.00000000000004
    vertex -22.73054537361451 -41.74393940948516 52.00000000000003
    vertex -22.730545373614497 -41.74393940948521 45.00000000000004
  endloop
endfacet
facet normal 0.965386104656653 0.26082497759197415 -2.918729570025916e-15
  outer loop
    vertex -22.73054537361451 -41.74393940948516 52.00000000000003
    vertex -23.479524179155657 -38.971759619699604 45.00000000000004
    vertex -23.47952417915562 -38.97175961969958 52.00000000000003
  endloop
endfacet
facet normal 0.9999978424677036 0.002077272234870109 -3.630670625859708e-15
  outer loop
    vertex -23.485489224726134 -36.10018958637692 45.00000000000004
    vertex -23.47952417915562 -38.97175961969958 52.00000000000003
    vertex -23.479524179155657 -38.971759619699604 45.00000000000004
  endloop
endfacet
facet normal 0.9999978424677036 0.002077272234870109 -3.630670625859708e-15
  outer loop
    vertex -23.47952417915562 -38.97175961969958 52.00000000000003
    vertex -23.485489224726134 -36.10018958637692 45.00000000000004
    vertex -23.485489224726116 -36.10018958637691 52.00000000000003
  endloop
endfacet
facet normal 0.966461379889149 -0.2568119957921786 -9.59118992980674e-16
  outer loop
    vertex -22.74803400232806 -33.32492206179424 45.00000000000004
    vertex -23.485489224726116 -36.10018958637691 52.00000000000003
    vertex -23.485489224726134 -36.10018958637692 45.00000000000004
  endloop
endfacet
facet normal 0.966461379889149 -0.2568119957921786 -9.59118992980674e-16
  outer loop
    vertex -23.485489224726116 -36.10018958637691 52.00000000000003
    vertex -22.74803400232806 -33.32492206179424 45.00000000000004
    vertex -22.74803400232806 -33.32492206179424 52.00000000000003
  endloop
endfacet
facet normal 0.8670621714240966 -0.4981999507078768 2.320117913973188e-16
  outer loop
    vertex -21.3174148666655 -30.835086941405443 45.00000000000003
    vertex -22.74803400232806 -33.32492206179424 52.00000000000003
    vertex -22.74803400232806 -33.32492206179424 45.00000000000004
  endloop
endfacet
facet normal 0.8670621714240966 -0.4981999507078768 2.320117913973188e-16
  outer loop
    vertex -22.74803400232806 -33.32492206179424 52.00000000000003
    vertex -21.3174148666655 -30.835086941405443 45.00000000000003
    vertex -21.317414866665498 -30.835086941405432 52.00000000000003
  endloop
endfacet
facet normal 0.7085741088644839 -0.7056364022971765 -2.1477130852315557e-15
  outer loop
    vertex -19.291126147623956 -28.80036237401788 45.00000000000003
    vertex -21.317414866665498 -30.835086941405432 52.00000000000003
    vertex -21.3174148666655 -30.835086941405443 45.00000000000003
  endloop
endfacet
facet normal 0.7085741088644839 -0.7056364022971765 -2.1477130852315557e-15
  outer loop
    vertex -21.317414866665498 -30.835086941405432 52.00000000000003
    vertex -19.291126147623956 -28.80036237401788 45.00000000000003
    vertex -19.291126147623938 -28.80036237401791 52.00000000000003
  endloop
endfacet
facet normal 0.5017978917598291 -0.8649848991892234 -6.3414807097006885e-15
  outer loop
    vertex -16.807256072805632 -27.359411476357806 52.00000000000003
    vertex -19.291126147623956 -28.80036237401788 45.00000000000003
    vertex -16.807256072805647 -27.359411476357756 45.00000000000003
  endloop
endfacet
facet normal 0.5017978917598291 -0.8649848991892234 -6.3414807097006885e-15
  outer loop
    vertex -19.291126147623956 -28.80036237401788 45.00000000000003
    vertex -16.807256072805632 -27.359411476357806 52.00000000000003
    vertex -19.291126147623938 -28.80036237401791 52.00000000000003
  endloop
endfacet
facet normal 0.2608249775919675 -0.9653861046566548 -7.528001875020089e-15
  outer loop
    vertex -14.035076283020048 -26.610432670816692 52.00000000000003
    vertex -16.807256072805647 -27.359411476357756 45.00000000000003
    vertex -14.035076283020063 -26.610432670816643 45.00000000000003
  endloop
endfacet
facet normal 0.2608249775919675 -0.9653861046566548 -7.528001875020089e-15
  outer loop
    vertex -16.807256072805647 -27.359411476357756 45.00000000000003
    vertex -14.035076283020048 -26.610432670816692 52.00000000000003
    vertex -16.807256072805632 -27.359411476357806 52.00000000000003
  endloop
endfacet
facet normal 0.002077272234870118 -0.9999978424677036 -6.047343740846103e-15
  outer loop
    vertex -11.163506249697384 -26.604467625246198 52.00000000000003
    vertex -14.035076283020063 -26.610432670816643 45.00000000000003
    vertex -11.1635062496974 -26.604467625246166 45.00000000000002
  endloop
endfacet
facet normal 0.002077272234870118 -0.9999978424677036 -6.047343740846103e-15
  outer loop
    vertex -14.035076283020063 -26.610432670816643 45.00000000000003
    vertex -11.163506249697384 -26.604467625246198 52.00000000000003
    vertex -14.035076283020048 -26.610432670816692 52.00000000000003
  endloop
endfacet
facet normal -0.2568119957921724 -0.9664613798891507 -5.742428325437991e-15
  outer loop
    vertex -8.388238725114714 -27.34192284764426 52.00000000000003
    vertex -11.1635062496974 -26.604467625246166 45.00000000000002
    vertex -8.388238725114745 -27.341922847644195 45.00000000000002
  endloop
endfacet
facet normal -0.2568119957921724 -0.9664613798891507 -5.742428325437991e-15
  outer loop
    vertex -11.1635062496974 -26.604467625246166 45.00000000000002
    vertex -8.388238725114714 -27.34192284764426 52.00000000000003
    vertex -11.163506249697384 -26.604467625246198 52.00000000000003
  endloop
endfacet
facet normal -0.49819995070787554 -0.8670621714240974 -6.231876760676277e-15
  outer loop
    vertex -5.898403604725906 -28.77254198330682 52.00000000000003
    vertex -8.388238725114745 -27.341922847644195 45.00000000000002
    vertex -5.898403604725925 -28.772541983306752 45.00000000000002
  endloop
endfacet
facet normal -0.49819995070787554 -0.8670621714240974 -6.231876760676277e-15
  outer loop
    vertex -8.388238725114745 -27.341922847644195 45.00000000000002
    vertex -5.898403604725906 -28.77254198330682 52.00000000000003
    vertex -8.388238725114714 -27.34192284764426 52.00000000000003
  endloop
endfacet
facet normal -0.7056364022971863 -0.7085741088644741 -2.0731269613512584e-15
  outer loop
    vertex -3.8636790373383887 -30.798830702348376 52.00000000000003
    vertex -5.898403604725925 -28.772541983306752 45.00000000000002
    vertex -3.863679037338418 -30.798830702348354 45.00000000000001
  endloop
endfacet
facet normal -0.7056364022971863 -0.7085741088644741 -2.0731269613512584e-15
  outer loop
    vertex -5.898403604725925 -28.772541983306752 45.00000000000002
    vertex -3.8636790373383887 -30.798830702348376 52.00000000000003
    vertex -5.898403604725906 -28.77254198330682 52.00000000000003
  endloop
endfacet
facet normal -0.8649848991892238 -0.5017978917598283 1.6004138862572774e-15
  outer loop
    vertex -3.8636790373383887 -30.798830702348376 52.00000000000003
    vertex -2.4227281396782945 -33.282700777166674 45.00000000000001
    vertex -2.4227281396782785 -33.28270077716669 52.00000000000003
  endloop
endfacet
facet normal -0.8649848991892238 -0.5017978917598283 1.6004138862572774e-15
  outer loop
    vertex -2.4227281396782945 -33.282700777166674 45.00000000000001
    vertex -3.8636790373383887 -30.798830702348376 52.00000000000003
    vertex -3.863679037338418 -30.798830702348354 45.00000000000001
  endloop
endfacet
facet normal 0.0 -1.0 0.0
  outer loop
    vertex 19.92336324335355 -55.01332009332593 52.99999999999998
    vertex -12.576636756646376 -55.01332009332593 45.00000000000002
    vertex 19.923363243353542 -55.01332009332593 45.000000000000014
  endloop
endfacet
facet normal 0.0 -1.0 0.0
  outer loop
    vertex -12.576636756646376 -55.01332009332593 45.00000000000002
    vertex 19.92336324335355 -55.01332009332593 52.99999999999998
    vertex -12.576636756646364 -55.01332009332593 53.00000000000003
  endloop
endfacet
facet normal 0.7071067811865478 -0.7071067811865474 -6.190561200985753e-16
  outer loop
    vertex 24.923363243353542 -50.01332009332593 45.000000000000014
    vertex 19.92336324335355 -55.01332009332593 52.99999999999998
    vertex 19.923363243353542 -55.01332009332593 45.000000000000014
  endloop
endfacet
facet normal 0.7071067811865478 -0.7071067811865474 -6.190561200985753e-16
  outer loop
    vertex 19.92336324335355 -55.01332009332593 52.99999999999998
    vertex 24.923363243353542 -50.01332009332593 45.000000000000014
    vertex 24.92336324335355 -50.01332009332593 52.99999999999998
  endloop
endfacet
facet normal -0.7071067811865476 0.7071067811865475 -3.9575943705355906e-16
  outer loop
    vertex -30.07663675664636 -5.0133200933259205 53.000000000000014
    vertex -25.07663675664636 -0.01332009332592709 45.00000000000002
    vertex -30.07663675664636 -5.013320093325924 45.00000000000002
  endloop
endfacet
facet normal -0.7071067811865476 0.7071067811865475 -3.9575943705355906e-16
  outer loop
    vertex -25.07663675664636 -0.01332009332592709 45.00000000000002
    vertex -30.07663675664636 -5.0133200933259205 53.000000000000014
    vertex -25.07663675664636 -0.01332009332592 53.00000000000001
  endloop
endfacet
facet normal -1.0 -3.352407706525406e-17 7.619948766762408e-16
  outer loop
    vertex -30.07663675664636 -5.0133200933259205 53.000000000000014
    vertex -30.076636756646366 -37.513320093325916 45.00000000000004
    vertex -30.07663675664635 -37.513320093325916 53.00000000000005
  endloop
endfacet
facet normal -1.0 -3.352407706525406e-17 7.619948766762408e-16
  outer loop
    vertex -30.076636756646366 -37.513320093325916 45.00000000000004
    vertex -30.07663675664636 -5.0133200933259205 53.000000000000014
    vertex -30.076636756646366 -16.263320093325923 45.00000000000002
  endloop
endfacet
facet normal -1.0 -3.352407706525406e-17 7.619948766762408e-16
  outer loop
    vertex -30.076636756646366 -16.263320093325923 45.00000000000002
    vertex -30.07663675664636 -5.0133200933259205 53.000000000000014
    vertex -30.07663675664636 -5.013320093325924 45.00000000000002
  endloop
endfacet
facet normal -0.5031853442415135 0.5010991674085566 -0.7040625922196129
  outer loop
    vertex -4.630474838447132 -43.58444114052637 53.00000000000003
    vertex -5.862147365668848 -46.226277812633924 52.00000000000003
    vertex -6.472555492121278 -45.434190747242305 53.00000000000003
  endloop
endfacet
facet normal -0.5031853442415135 0.5010991674085566 -0.7040625922196129
  outer loop
    vertex -5.862147365668848 -46.226277812633924 52.00000000000003
    vertex -4.630474838447132 -43.58444114052637 53.00000000000003
    vertex -3.8358586466272895 -44.1915532452464 52.00000000000003
  endloop
endfacet
facet normal 0.614258577638034 0.35634571140267646 -0.7040625922196263
  outer loop
    vertex -21.807462772071958 -41.35933765347071 53.000000000000036
    vertex -21.289594475954395 -44.22780948430347 52.00000000000003
    vertex -22.73054537361451 -41.74393940948516 52.00000000000003
  endloop
endfacet
facet normal 0.614258577638034 0.35634571140267646 -0.7040625922196263
  outer loop
    vertex -21.289594475954395 -44.22780948430347 52.00000000000003
    vertex -21.807462772071958 -41.35933765347071 53.000000000000036
    vertex -20.497507410562754 -43.617401357851 53.000000000000036
  endloop
endfacet
facet normal -0.1823719366702833 -0.6863208746294415 -0.7040625922196184
  outer loop
    vertex -11.163506249697384 -26.604467625246198 52.00000000000003
    vertex -8.769002182526663 -28.266595324524353 53.000000000000014
    vertex -11.291972659420011 -27.596181485980672 53.00000000000003
  endloop
endfacet
facet normal -0.1823719366702833 -0.6863208746294415 -0.7040625922196184
  outer loop
    vertex -8.769002182526663 -28.266595324524353 53.000000000000014
    vertex -11.163506249697384 -26.604467625246198 52.00000000000003
    vertex -8.388238725114714 -27.34192284764426 52.00000000000003
  endloop
endfacet
facet normal -0.6863208746294454 0.1823719366702837 -0.7040625922196146
  outer loop
    vertex -2.6594981493011187 -38.79798419055228 53.000000000000014
    vertex -2.405239510964731 -41.7017181248576 52.00000000000003
    vertex -3.329911987844805 -41.320954667445626 53.000000000000014
  endloop
endfacet
facet normal -0.6863208746294454 0.1823719366702837 -0.7040625922196146
  outer loop
    vertex -2.405239510964731 -41.7017181248576 52.00000000000003
    vertex -2.6594981493011187 -38.79798419055228 53.000000000000014
    vertex -1.667784288566673 -38.92645060027493 52.00000000000003
  endloop
endfacet
facet normal -0.5010991674085538 -0.5031853442415124 -0.7040625922196159
  outer loop
    vertex -5.898403604725906 -28.77254198330682 52.00000000000003
    vertex -4.655766102729984 -31.40923882880082 53.000000000000014
    vertex -6.505515709445922 -29.567158175126682 53.000000000000014
  endloop
endfacet
facet normal -0.5010991674085538 -0.5031853442415124 -0.7040625922196159
  outer loop
    vertex -4.655766102729984 -31.40923882880082 53.000000000000014
    vertex -5.898403604725906 -28.77254198330682 52.00000000000003
    vertex -3.8636790373383887 -30.798830702348376 52.00000000000003
  endloop
endfacet
facet normal 0.18237193667028093 0.6863208746294391 -0.7040625922196213
  outer loop
    vertex -16.384271330766072 -46.76004486212747 53.000000000000036
    vertex -13.9897672635954 -48.42217256140564 52.00000000000003
    vertex -16.765034788178074 -47.68471733900758 52.00000000000003
  endloop
endfacet
facet normal 0.18237193667028093 0.6863208746294391 -0.7040625922196213
  outer loop
    vertex -13.9897672635954 -48.42217256140564 52.00000000000003
    vertex -16.384271330766072 -46.76004486212747 53.000000000000036
    vertex -13.861300853872718 -47.43045870067117 53.00000000000003
  endloop
endfacet
facet normal 0.0014751497853389135 -0.7101363884283782 -0.7040625922196195
  outer loop
    vertex -11.291972659420011 -27.596181485980672 53.00000000000003
    vertex -14.035076283020048 -26.610432670816692 52.00000000000003
    vertex -11.163506249697384 -26.604467625246198 52.00000000000003
  endloop
endfacet
facet normal 0.0014751497853389135 -0.7101363884283782 -0.7040625922196195
  outer loop
    vertex -14.035076283020048 -26.610432670816692 52.00000000000003
    vertex -11.291972659420011 -27.596181485980672 53.00000000000003
    vertex -13.902490871531539 -27.601604254681124 53.00000000000003
  endloop
endfacet
facet normal 0.35634571140267585 -0.6142585776380334 -0.7040625922196273
  outer loop
    vertex -16.807256072805632 -27.359411476357806 52.00000000000003
    vertex -18.680718021171444 -29.59244943940953 53.00000000000003
    vertex -19.291126147623938 -28.80036237401791 52.00000000000003
  endloop
endfacet
facet normal 0.35634571140267585 -0.6142585776380334 -0.7040625922196273
  outer loop
    vertex -18.680718021171444 -29.59244943940953 53.00000000000003
    vertex -16.807256072805632 -27.359411476357806 52.00000000000003
    vertex -16.422654316791157 -28.28249407790033 53.00000000000003
  endloop
endfacet
facet normal -0.3537906770257005 -0.6157337274233803 -0.7040625922196172
  outer loop
    vertex -8.388238725114714 -27.34192284764426 52.00000000000003
    vertex -6.505515709445922 -29.567158175126682 53.000000000000014
    vertex -8.769002182526663 -28.266595324524353 53.000000000000014
  endloop
endfacet
facet normal -0.3537906770257005 -0.6157337274233803 -0.7040625922196172
  outer loop
    vertex -6.505515709445922 -29.567158175126682 53.000000000000014
    vertex -8.388238725114714 -27.34192284764426 52.00000000000003
    vertex -5.898403604725906 -28.77254198330682 52.00000000000003
  endloop
endfacet
facet normal 0.5031853442415023 -0.501099167408546 -0.7040625922196284
  outer loop
    vertex -19.291126147623938 -28.80036237401791 52.00000000000003
    vertex -20.522798674845596 -31.442199046125463 53.00000000000003
    vertex -21.317414866665498 -30.835086941405432 52.00000000000003
  endloop
endfacet
facet normal 0.5031853442415023 -0.501099167408546 -0.7040625922196284
  outer loop
    vertex -20.522798674845596 -31.442199046125463 53.00000000000003
    vertex -19.291126147623938 -28.80036237401791 52.00000000000003
    vertex -18.680718021171444 -29.59244943940953 53.00000000000003
  endloop
endfacet
facet normal -0.7101363884283839 -0.001475149785338837 -0.7040625922196139
  outer loop
    vertex -2.6594981493011187 -38.79798419055228 53.000000000000014
    vertex -1.6737493341371648 -36.054880566952264 52.00000000000003
    vertex -1.667784288566673 -38.92645060027493 52.00000000000003
  endloop
endfacet
facet normal -0.7101363884283839 -0.001475149785338837 -0.7040625922196139
  outer loop
    vertex -1.6737493341371648 -36.054880566952264 52.00000000000003
    vertex -2.6594981493011187 -38.79798419055228 53.000000000000014
    vertex -2.6649209180015703 -36.18746597844075 53.000000000000014
  endloop
endfacet
facet normal -0.18522170722089 0.6855572809117938 -0.704062592219617
  outer loop
    vertex -8.730619196501566 -46.74414610875151 53.00000000000003
    vertex -11.118197230272736 -48.41620751583515 52.00000000000003
    vertex -11.250782641761193 -47.42503593197071 53.00000000000003
  endloop
endfacet
facet normal -0.18522170722089 0.6855572809117938 -0.704062592219617
  outer loop
    vertex -11.118197230272736 -48.41620751583515 52.00000000000003
    vertex -8.730619196501566 -46.74414610875151 53.00000000000003
    vertex -8.346017440487156 -47.66722871029403 52.00000000000003
  endloop
endfacet
facet normal 0.6157337274233713 -0.353790677025696 -0.7040625922196274
  outer loop
    vertex -21.317414866665498 -30.835086941405432 52.00000000000003
    vertex -21.823361525447922 -33.705685519206206 53.000000000000036
    vertex -22.74803400232806 -33.32492206179424 52.00000000000003
  endloop
endfacet
facet normal 0.6157337274233713 -0.353790677025696 -0.7040625922196274
  outer loop
    vertex -21.823361525447922 -33.705685519206206 53.000000000000036
    vertex -21.317414866665498 -30.835086941405432 52.00000000000003
    vertex -20.522798674845596 -31.442199046125463 53.00000000000003
  endloop
endfacet
facet normal 0.7101363884283702 0.001475149785338195 -0.7040625922196277
  outer loop
    vertex -23.485489224726116 -36.10018958637691 52.00000000000003
    vertex -22.48835259529116 -38.839174208211084 53.000000000000036
    vertex -23.47952417915562 -38.97175961969958 52.00000000000003
  endloop
endfacet
facet normal 0.7101363884283702 0.001475149785338195 -0.7040625922196277
  outer loop
    vertex -22.48835259529116 -38.839174208211084 53.000000000000036
    vertex -23.485489224726116 -36.10018958637691 52.00000000000003
    vertex -22.493775363991606 -36.228655996099555 53.000000000000036
  endloop
endfacet
facet normal 0.6855572809117844 0.18522170722088702 -0.7040625922196271
  outer loop
    vertex -22.48835259529116 -38.839174208211084 53.000000000000036
    vertex -22.73054537361451 -41.74393940948516 52.00000000000003
    vertex -23.47952417915562 -38.97175961969958 52.00000000000003
  endloop
endfacet
facet normal 0.6855572809117844 0.18522170722088702 -0.7040625922196271
  outer loop
    vertex -22.73054537361451 -41.74393940948516 52.00000000000003
    vertex -22.48835259529116 -38.839174208211084 53.000000000000036
    vertex -21.807462772071958 -41.35933765347071 53.000000000000036
  endloop
endfacet
facet normal -0.6157337274233854 0.35379067702570055 -0.7040625922196126
  outer loop
    vertex -3.329911987844805 -41.320954667445626 53.000000000000014
    vertex -3.8358586466272895 -44.1915532452464 52.00000000000003
    vertex -4.630474838447132 -43.58444114052637 53.00000000000003
  endloop
endfacet
facet normal -0.6157337274233854 0.35379067702570055 -0.7040625922196126
  outer loop
    vertex -3.8358586466272895 -44.1915532452464 52.00000000000003
    vertex -3.329911987844805 -41.320954667445626 53.000000000000014
    vertex -2.405239510964731 -41.7017181248576 52.00000000000003
  endloop
endfacet
facet normal 0.6863208746294328 -0.18237193667028043 -0.7040625922196275
  outer loop
    vertex -22.74803400232806 -33.32492206179424 52.00000000000003
    vertex -22.493775363991606 -36.228655996099555 53.000000000000036
    vertex -23.485489224726116 -36.10018958637691 52.00000000000003
  endloop
endfacet
facet normal 0.6863208746294328 -0.18237193667028043 -0.7040625922196275
  outer loop
    vertex -22.493775363991606 -36.228655996099555 53.000000000000036
    vertex -22.74803400232806 -33.32492206179424 52.00000000000003
    vertex -21.823361525447922 -33.705685519206206 53.000000000000036
  endloop
endfacet
facet normal -0.6855572809117965 -0.18522170722089049 -0.7040625922196144
  outer loop
    vertex -2.4227281396782785 -33.28270077716669 52.00000000000003
    vertex -2.6649209180015703 -36.18746597844075 53.000000000000014
    vertex -3.3458107412207805 -33.66730253318111 53.000000000000014
  endloop
endfacet
facet normal -0.6855572809117965 -0.18522170722089049 -0.7040625922196144
  outer loop
    vertex -2.6649209180015703 -36.18746597844075 53.000000000000014
    vertex -2.4227281396782785 -33.28270077716669 52.00000000000003
    vertex -1.6737493341371648 -36.054880566952264 52.00000000000003
  endloop
endfacet
facet normal 0.3537906770256975 0.6157337274233774 -0.7040625922196213
  outer loop
    vertex -18.64775780384682 -45.459482011525154 53.000000000000036
    vertex -16.765034788178074 -47.68471733900758 52.00000000000003
    vertex -19.254869908566878 -46.25409820334502 52.00000000000003
  endloop
endfacet
facet normal 0.3537906770256975 0.6157337274233774 -0.7040625922196213
  outer loop
    vertex -16.765034788178074 -47.68471733900758 52.00000000000003
    vertex -18.64775780384682 -45.459482011525154 53.000000000000036
    vertex -16.384271330766072 -46.76004486212747 53.000000000000036
  endloop
endfacet
facet normal 0.1852217072208886 -0.6855572809117886 -0.7040625922196224
  outer loop
    vertex -14.035076283020048 -26.610432670816692 52.00000000000003
    vertex -16.422654316791157 -28.28249407790033 53.00000000000003
    vertex -16.807256072805632 -27.359411476357806 52.00000000000003
  endloop
endfacet
facet normal 0.1852217072208886 -0.6855572809117886 -0.7040625922196224
  outer loop
    vertex -16.422654316791157 -28.28249407790033 53.00000000000003
    vertex -14.035076283020048 -26.610432670816692 52.00000000000003
    vertex -13.902490871531539 -27.601604254681124 53.00000000000003
  endloop
endfacet
facet normal -0.614258577638044 -0.3563457114026826 -0.7040625922196145
  outer loop
    vertex -3.8636790373383887 -30.798830702348376 52.00000000000003
    vertex -3.3458107412207805 -33.66730253318111 53.000000000000014
    vertex -4.655766102729984 -31.40923882880082 53.000000000000014
  endloop
endfacet
facet normal -0.614258577638044 -0.3563457114026826 -0.7040625922196145
  outer loop
    vertex -3.3458107412207805 -33.66730253318111 53.000000000000014
    vertex -3.8636790373383887 -30.798830702348376 52.00000000000003
    vertex -2.4227281396782785 -33.28270077716669 52.00000000000003
  endloop
endfacet
facet normal -0.0014751497853389304 0.7101363884283783 -0.7040625922196195
  outer loop
    vertex -13.861300853872718 -47.43045870067117 53.00000000000003
    vertex -11.118197230272736 -48.41620751583515 52.00000000000003
    vertex -13.9897672635954 -48.42217256140564 52.00000000000003
  endloop
endfacet
facet normal -0.0014751497853389304 0.7101363884283783 -0.7040625922196195
  outer loop
    vertex -11.118197230272736 -48.41620751583515 52.00000000000003
    vertex -13.861300853872718 -47.43045870067117 53.00000000000003
    vertex -11.250782641761193 -47.42503593197071 53.00000000000003
  endloop
endfacet
facet normal -0.3563457114026813 0.6142585776380434 -0.7040625922196159
  outer loop
    vertex -6.472555492121278 -45.434190747242305 53.00000000000003
    vertex -8.346017440487156 -47.66722871029403 52.00000000000003
    vertex -8.730619196501566 -46.74414610875151 53.00000000000003
  endloop
endfacet
facet normal -0.3563457114026813 0.6142585776380434 -0.7040625922196159
  outer loop
    vertex -8.346017440487156 -47.66722871029403 52.00000000000003
    vertex -6.472555492121278 -45.434190747242305 53.00000000000003
    vertex -5.862147365668848 -46.226277812633924 52.00000000000003
  endloop
endfacet
facet normal 0.501099167408549 0.5031853442415065 -0.7040625922196234
  outer loop
    vertex -20.497507410562754 -43.617401357851 53.000000000000036
    vertex -19.254869908566878 -46.25409820334502 52.00000000000003
    vertex -21.289594475954395 -44.22780948430347 52.00000000000003
  endloop
endfacet
facet normal 0.501099167408549 0.5031853442415065 -0.7040625922196234
  outer loop
    vertex -19.254869908566878 -46.25409820334502 52.00000000000003
    vertex -20.497507410562754 -43.617401357851 53.000000000000036
    vertex -18.64775780384682 -45.459482011525154 53.000000000000036
  endloop
endfacet
facet normal 1.0 -7.120012085447696e-31 -1.0574874309554648e-15
  outer loop
    vertex 24.923363243353542 -25.01332009332592 44.99999999999999
    vertex 24.92336324335355 -50.01332009332593 52.99999999999998
    vertex 24.923363243353542 -50.01332009332593 45.000000000000014
  endloop
endfacet
facet normal 1.0 -7.120012085447696e-31 -1.0574874309554648e-15
  outer loop
    vertex 24.92336324335355 -50.01332009332593 52.99999999999998
    vertex 24.923363243353542 -25.01332009332592 44.99999999999999
    vertex 24.92336324335355 -25.01332009332592 52.99999999999997
  endloop
endfacet
facet normal -1.3218592886948409e-18 1.0 -8.92599254058436e-16
  outer loop
    vertex -25.07663675664636 -0.01332009332592709 45.00000000000002
    vertex -0.07663675664645847 -0.013320093325919918 52.99999999999999
    vertex -0.07663675664645932 -0.013320093325927108 45.0
  endloop
endfacet
facet normal -1.3218592886948409e-18 1.0 -8.92599254058436e-16
  outer loop
    vertex -0.07663675664645847 -0.013320093325919918 52.99999999999999
    vertex -25.07663675664636 -0.01332009332592709 45.00000000000002
    vertex -25.07663675664636 -0.01332009332592 53.00000000000001
  endloop
endfacet
facet normal 1.3138360759297725e-15 6.969372326223138e-16 1.0
  outer loop
    vertex -24.951005427410955 -49.88768876409048 53.00000000000005
    vertex -22.48835259529116 -38.839174208211084 53.000000000000036
    vertex -22.493775363991606 -36.228655996099555 53.000000000000036
  endloop
endfacet
facet normal 1.3138360759297725e-15 6.969372326223138e-16 1.0
  outer loop
    vertex -22.48835259529116 -38.839174208211084 53.000000000000036
    vertex -24.951005427410955 -49.88768876409048 53.00000000000005
    vertex -21.32663675664636 -52.66876465955353 53.00000000000005
  endloop
endfacet
facet normal 1.3138360759297725e-15 6.969372326223138e-16 1.0
  outer loop
    vertex -22.48835259529116 -38.839174208211084 53.000000000000036
    vertex -21.32663675664636 -52.66876465955353 53.00000000000005
    vertex -21.807462772071958 -41.35933765347071 53.000000000000036
  endloop
endfacet
facet normal 1.3138360759297725e-15 6.969372326223138e-16 1.0
  outer loop
    vertex -21.807462772071958 -41.35933765347071 53.000000000000036
    vertex -21.32663675664636 -52.66876465955353 53.00000000000005
    vertex -20.497507410562754 -43.617401357851 53.000000000000036
  endloop
endfacet
facet normal 1.3138360759297725e-15 6.969372326223138e-16 1.0
  outer loop
    vertex -20.497507410562754 -43.617401357851 53.000000000000036
    vertex -21.32663675664636 -52.66876465955353 53.00000000000005
    vertex -17.105970045940484 -54.417022053384564 53.00000000000005
  endloop
endfacet
facet normal 1.3138360759297725e-15 6.969372326223138e-16 1.0
  outer loop
    vertex -20.497507410562754 -43.617401357851 53.000000000000036
    vertex -17.105970045940484 -54.417022053384564 53.00000000000005
    vertex -18.64775780384682 -45.459482011525154 53.000000000000036
  endloop
endfacet
facet normal 1.3138360759297725e-15 6.969372326223138e-16 1.0
  outer loop
    vertex -18.64775780384682 -45.459482011525154 53.000000000000036
    vertex -17.105970045940484 -54.417022053384564 53.00000000000005
    vertex -16.384271330766072 -46.76004486212747 53.000000000000036
  endloop
endfacet
facet normal 1.3138360759297725e-15 6.969372326223138e-16 1.0
  outer loop
    vertex -16.384271330766072 -46.76004486212747 53.000000000000036
    vertex -17.105970045940484 -54.417022053384564 53.00000000000005
    vertex -12.576636756646364 -55.01332009332593 53.00000000000003
  endloop
endfacet
facet normal 1.3138360759297725e-15 6.969372326223138e-16 1.0
  outer loop
    vertex -16.384271330766072 -46.76004486212747 53.000000000000036
    vertex -12.576636756646364 -55.01332009332593 53.00000000000003
    vertex -13.861300853872718 -47.43045870067117 53.00000000000003
  endloop
endfacet
facet normal 1.3138360759297725e-15 6.969372326223138e-16 1.0
  outer loop
    vertex -13.861300853872718 -47.43045870067117 53.00000000000003
    vertex -12.576636756646364 -55.01332009332593 53.00000000000003
    vertex -11.250782641761193 -47.42503593197071 53.00000000000003
  endloop
endfacet
facet normal 1.3138360759297725e-15 6.969372326223138e-16 1.0
  outer loop
    vertex -11.250782641761193 -47.42503593197071 53.00000000000003
    vertex -12.576636756646364 -55.01332009332593 53.00000000000003
    vertex 19.92336324335355 -55.01332009332593 52.99999999999998
  endloop
endfacet
facet normal 1.3138360759297725e-15 6.969372326223138e-16 1.0
  outer loop
    vertex -11.250782641761193 -47.42503593197071 53.00000000000003
    vertex 19.92336324335355 -55.01332009332593 52.99999999999998
    vertex -8.730619196501566 -46.74414610875151 53.00000000000003
  endloop
endfacet
facet normal 1.3138360759297725e-15 6.969372326223138e-16 1.0
  outer loop
    vertex -8.730619196501566 -46.74414610875151 53.00000000000003
    vertex 19.92336324335355 -55.01332009332593 52.99999999999998
    vertex -6.472555492121278 -45.434190747242305 53.00000000000003
  endloop
endfacet
facet normal 1.3138360759297725e-15 6.969372326223138e-16 1.0
  outer loop
    vertex -6.472555492121278 -45.434190747242305 53.00000000000003
    vertex 19.92336324335355 -55.01332009332593 52.99999999999998
    vertex -4.630474838447132 -43.58444114052637 53.00000000000003
  endloop
endfacet
facet normal 1.3138360759297725e-15 6.969372326223138e-16 1.0
  outer loop
    vertex -4.630474838447132 -43.58444114052637 53.00000000000003
    vertex 19.92336324335355 -55.01332009332593 52.99999999999998
    vertex -3.329911987844805 -41.320954667445626 53.000000000000014
  endloop
endfacet
facet normal 1.3138360759297725e-15 6.969372326223138e-16 1.0
  outer loop
    vertex -3.329911987844805 -41.320954667445626 53.000000000000014
    vertex 19.92336324335355 -55.01332009332593 52.99999999999998
    vertex -2.6594981493011187 -38.79798419055228 53.000000000000014
  endloop
endfacet
facet normal 1.3138360759297725e-15 6.969372326223138e-16 1.0
  outer loop
    vertex -2.6594981493011187 -38.79798419055228 53.000000000000014
    vertex 19.92336324335355 -55.01332009332593 52.99999999999998
    vertex -0.07663675664645847 -25.01332009332592 52.99999999999999
  endloop
endfacet
facet normal 1.3138360759297725e-15 6.969372326223138e-16 1.0
  outer loop
    vertex -0.07663675664645847 -25.01332009332592 52.99999999999999
    vertex 19.92336324335355 -55.01332009332593 52.99999999999998
    vertex 24.92336324335355 -25.01332009332592 52.99999999999997
  endloop
endfacet
facet normal 1.3138360759297725e-15 6.969372326223138e-16 1.0
  outer loop
    vertex 24.92336324335355 -25.01332009332592 52.99999999999997
    vertex 19.92336324335355 -55.01332009332593 52.99999999999998
    vertex 24.92336324335355 -50.01332009332593 52.99999999999998
  endloop
endfacet
facet normal 1.3138360759297725e-15 6.969372326223138e-16 1.0
  outer loop
    vertex -30.07663675664635 -37.513320093325916 53.00000000000005
    vertex -25.07663675664636 -0.01332009332592 53.00000000000001
    vertex -30.07663675664636 -5.0133200933259205 53.000000000000014
  endloop
endfacet
facet normal 1.3138360759297725e-15 6.969372326223138e-16 1.0
  outer loop
    vertex -25.07663675664636 -0.01332009332592 53.00000000000001
    vertex -30.07663675664635 -37.513320093325916 53.00000000000005
    vertex -29.480338716705077 -42.04265338262006 53.00000000000005
  endloop
endfacet
facet normal 1.3138360759297725e-15 6.969372326223138e-16 1.0
  outer loop
    vertex -25.07663675664636 -0.01332009332592 53.00000000000001
    vertex -29.480338716705077 -42.04265338262006 53.00000000000005
    vertex -27.732081322874023 -46.263320093325916 53.00000000000005
  endloop
endfacet
facet normal 1.3138360759297725e-15 6.969372326223138e-16 1.0
  outer loop
    vertex -25.07663675664636 -0.01332009332592 53.00000000000001
    vertex -27.732081322874023 -46.263320093325916 53.00000000000005
    vertex -24.951005427410955 -49.88768876409048 53.00000000000005
  endloop
endfacet
facet normal 1.3138360759297725e-15 6.969372326223138e-16 1.0
  outer loop
    vertex -25.07663675664636 -0.01332009332592 53.00000000000001
    vertex -24.951005427410955 -49.88768876409048 53.00000000000005
    vertex -22.493775363991606 -36.228655996099555 53.000000000000036
  endloop
endfacet
facet normal 1.3138360759297725e-15 6.969372326223138e-16 1.0
  outer loop
    vertex -25.07663675664636 -0.01332009332592 53.00000000000001
    vertex -22.493775363991606 -36.228655996099555 53.000000000000036
    vertex -21.823361525447922 -33.705685519206206 53.000000000000036
  endloop
endfacet
facet normal 1.3138360759297725e-15 6.969372326223138e-16 1.0
  outer loop
    vertex -25.07663675664636 -0.01332009332592 53.00000000000001
    vertex -21.823361525447922 -33.705685519206206 53.000000000000036
    vertex -20.522798674845596 -31.442199046125463 53.00000000000003
  endloop
endfacet
facet normal 1.3138360759297725e-15 6.969372326223138e-16 1.0
  outer loop
    vertex -25.07663675664636 -0.01332009332592 53.00000000000001
    vertex -20.522798674845596 -31.442199046125463 53.00000000000003
    vertex -0.07663675664645847 -0.013320093325919918 52.99999999999999
  endloop
endfacet
facet normal 1.3138360759297725e-15 6.969372326223138e-16 1.0
  outer loop
    vertex -0.07663675664645847 -0.013320093325919918 52.99999999999999
    vertex -20.522798674845596 -31.442199046125463 53.00000000000003
    vertex -18.680718021171444 -29.59244943940953 53.00000000000003
  endloop
endfacet
facet normal 1.3138360759297725e-15 6.969372326223138e-16 1.0
  outer loop
    vertex -0.07663675664645847 -0.013320093325919918 52.99999999999999
    vertex -18.680718021171444 -29.59244943940953 53.00000000000003
    vertex -16.422654316791157 -28.28249407790033 53.00000000000003
  endloop
endfacet
facet normal 1.3138360759297725e-15 6.969372326223138e-16 1.0
  outer loop
    vertex -0.07663675664645847 -0.013320093325919918 52.99999999999999
    vertex -16.422654316791157 -28.28249407790033 53.00000000000003
    vertex -13.902490871531539 -27.601604254681124 53.00000000000003
  endloop
endfacet
facet normal 1.3138360759297725e-15 6.969372326223138e-16 1.0
  outer loop
    vertex -0.07663675664645847 -0.013320093325919918 52.99999999999999
    vertex -13.902490871531539 -27.601604254681124 53.00000000000003
    vertex -11.291972659420011 -27.596181485980672 53.00000000000003
  endloop
endfacet
facet normal 1.3138360759297725e-15 6.969372326223138e-16 1.0
  outer loop
    vertex -0.07663675664645847 -0.013320093325919918 52.99999999999999
    vertex -11.291972659420011 -27.596181485980672 53.00000000000003
    vertex -8.769002182526663 -28.266595324524353 53.000000000000014
  endloop
endfacet
facet normal 1.3138360759297725e-15 6.969372326223138e-16 1.0
  outer loop
    vertex -0.07663675664645847 -0.013320093325919918 52.99999999999999
    vertex -8.769002182526663 -28.266595324524353 53.000000000000014
    vertex -6.505515709445922 -29.567158175126682 53.000000000000014
  endloop
endfacet
facet normal 1.3138360759297725e-15 6.969372326223138e-16 1.0
  outer loop
    vertex -0.07663675664645847 -0.013320093325919918 52.99999999999999
    vertex -6.505515709445922 -29.567158175126682 53.000000000000014
    vertex -4.655766102729984 -31.40923882880082 53.000000000000014
  endloop
endfacet
facet normal 1.3138360759297725e-15 6.969372326223138e-16 1.0
  outer loop
    vertex -0.07663675664645847 -0.013320093325919918 52.99999999999999
    vertex -4.655766102729984 -31.40923882880082 53.000000000000014
    vertex -3.3458107412207805 -33.66730253318111 53.000000000000014
  endloop
endfacet
facet normal 1.3138360759297725e-15 6.969372326223138e-16 1.0
  outer loop
    vertex -0.07663675664645847 -0.013320093325919918 52.99999999999999
    vertex -3.3458107412207805 -33.66730253318111 53.000000000000014
    vertex -2.6649209180015703 -36.18746597844075 53.000000000000014
  endloop
endfacet
facet normal 1.3138360759297725e-15 6.969372326223138e-16 1.0
  outer loop
    vertex -0.07663675664645847 -0.013320093325919918 52.99999999999999
    vertex -2.6649209180015703 -36.18746597844075 53.000000000000014
    vertex -2.6594981493011187 -38.79798419055228 53.000000000000014
  endloop
endfacet
facet normal 1.3138360759297725e-15 6.969372326223138e-16 1.0
  outer loop
    vertex -0.07663675664645847 -0.013320093325919918 52.99999999999999
    vertex -2.6594981493011187 -38.79798419055228 53.000000000000014
    vertex -0.07663675664645847 -25.01332009332592 52.99999999999999
  endloop
endfacet
facet normal -7.492776624889763e-16 -4.621575820803242e-16 -1.0
  outer loop
    vertex -30.07663675664636 -5.013320093325924 45.00000000000002
    vertex -30.076636756646366 -37.513320093325916 45.00000000000004
    vertex -30.076636756646366 -16.263320093325923 45.00000000000002
  endloop
endfacet
facet normal -7.492776624889763e-16 -4.621575820803242e-16 -1.0
  outer loop
    vertex -30.076636756646366 -37.513320093325916 45.00000000000004
    vertex -30.07663675664636 -5.013320093325924 45.00000000000002
    vertex -29.480338716705088 -42.04265338262006 45.00000000000004
  endloop
endfacet
facet normal -7.492776624889763e-16 -4.621575820803242e-16 -1.0
  outer loop
    vertex -29.480338716705088 -42.04265338262006 45.00000000000004
    vertex -30.07663675664636 -5.013320093325924 45.00000000000002
    vertex -25.07663675664636 -0.01332009332592709 45.00000000000002
  endloop
endfacet
facet normal -7.492776624889763e-16 -4.621575820803242e-16 -1.0
  outer loop
    vertex -29.480338716705088 -42.04265338262006 45.00000000000004
    vertex -25.07663675664636 -0.01332009332592709 45.00000000000002
    vertex -27.732081322874034 -46.263320093325916 45.00000000000004
  endloop
endfacet
facet normal -7.492776624889763e-16 -4.621575820803242e-16 -1.0
  outer loop
    vertex -27.732081322874034 -46.263320093325916 45.00000000000004
    vertex -25.07663675664636 -0.01332009332592709 45.00000000000002
    vertex -24.95100542741097 -49.88768876409048 45.00000000000004
  endloop
endfacet
facet normal -7.492776624889763e-16 -4.621575820803242e-16 -1.0
  outer loop
    vertex -24.95100542741097 -49.88768876409048 45.00000000000004
    vertex -25.07663675664636 -0.01332009332592709 45.00000000000002
    vertex -23.485489224726134 -36.10018958637692 45.00000000000004
  endloop
endfacet
facet normal -7.492776624889763e-16 -4.621575820803242e-16 -1.0
  outer loop
    vertex -23.485489224726134 -36.10018958637692 45.00000000000004
    vertex -25.07663675664636 -0.01332009332592709 45.00000000000002
    vertex -22.74803400232806 -33.32492206179424 45.00000000000004
  endloop
endfacet
facet normal -7.492776624889763e-16 -4.621575820803242e-16 -1.0
  outer loop
    vertex -22.74803400232806 -33.32492206179424 45.00000000000004
    vertex -25.07663675664636 -0.01332009332592709 45.00000000000002
    vertex -21.3174148666655 -30.835086941405443 45.00000000000003
  endloop
endfacet
facet normal -7.492776624889763e-16 -4.621575820803242e-16 -1.0
  outer loop
    vertex -21.3174148666655 -30.835086941405443 45.00000000000003
    vertex -25.07663675664636 -0.01332009332592709 45.00000000000002
    vertex -0.07663675664645932 -0.013320093325927108 45.0
  endloop
endfacet
facet normal -7.492776624889763e-16 -4.621575820803242e-16 -1.0
  outer loop
    vertex -21.3174148666655 -30.835086941405443 45.00000000000003
    vertex -0.07663675664645932 -0.013320093325927108 45.0
    vertex -19.291126147623956 -28.80036237401788 45.00000000000003
  endloop
endfacet
facet normal -7.492776624889763e-16 -4.621575820803242e-16 -1.0
  outer loop
    vertex -19.291126147623956 -28.80036237401788 45.00000000000003
    vertex -0.07663675664645932 -0.013320093325927108 45.0
    vertex -16.807256072805647 -27.359411476357756 45.00000000000003
  endloop
endfacet
facet normal -7.492776624889763e-16 -4.621575820803242e-16 -1.0
  outer loop
    vertex -16.807256072805647 -27.359411476357756 45.00000000000003
    vertex -0.07663675664645932 -0.013320093325927108 45.0
    vertex -14.035076283020063 -26.610432670816643 45.00000000000003
  endloop
endfacet
facet normal -7.492776624889763e-16 -4.621575820803242e-16 -1.0
  outer loop
    vertex -14.035076283020063 -26.610432670816643 45.00000000000003
    vertex -0.07663675664645932 -0.013320093325927108 45.0
    vertex -11.1635062496974 -26.604467625246166 45.00000000000002
  endloop
endfacet
facet normal -7.492776624889763e-16 -4.621575820803242e-16 -1.0
  outer loop
    vertex -11.1635062496974 -26.604467625246166 45.00000000000002
    vertex -0.07663675664645932 -0.013320093325927108 45.0
    vertex -8.388238725114745 -27.341922847644195 45.00000000000002
  endloop
endfacet
facet normal -7.492776624889763e-16 -4.621575820803242e-16 -1.0
  outer loop
    vertex -8.388238725114745 -27.341922847644195 45.00000000000002
    vertex -0.07663675664645932 -0.013320093325927108 45.0
    vertex -5.898403604725925 -28.772541983306752 45.00000000000002
  endloop
endfacet
facet normal -7.492776624889763e-16 -4.621575820803242e-16 -1.0
  outer loop
    vertex -5.898403604725925 -28.772541983306752 45.00000000000002
    vertex -0.07663675664645932 -0.013320093325927108 45.0
    vertex -3.863679037338418 -30.798830702348354 45.00000000000001
  endloop
endfacet
facet normal -7.492776624889763e-16 -4.621575820803242e-16 -1.0
  outer loop
    vertex -3.863679037338418 -30.798830702348354 45.00000000000001
    vertex -0.07663675664645932 -0.013320093325927108 45.0
    vertex -2.4227281396782945 -33.282700777166674 45.00000000000001
  endloop
endfacet
facet normal -7.492776624889763e-16 -4.621575820803242e-16 -1.0
  outer loop
    vertex -2.4227281396782945 -33.282700777166674 45.00000000000001
    vertex -0.07663675664645932 -0.013320093325927108 45.0
    vertex -1.6737493341371805 -36.054880566952235 45.00000000000001
  endloop
endfacet
facet normal -7.492776624889763e-16 -4.621575820803242e-16 -1.0
  outer loop
    vertex -1.6737493341371805 -36.054880566952235 45.00000000000001
    vertex -0.07663675664645932 -0.013320093325927108 45.0
    vertex -1.6677842885666592 -38.92645060027492 45.00000000000001
  endloop
endfacet
facet normal -7.492776624889763e-16 -4.621575820803242e-16 -1.0
  outer loop
    vertex -24.95100542741097 -49.88768876409048 45.00000000000004
    vertex -23.479524179155657 -38.971759619699604 45.00000000000004
    vertex -21.326636756646373 -52.66876465955353 45.00000000000003
  endloop
endfacet
facet normal -7.492776624889763e-16 -4.621575820803242e-16 -1.0
  outer loop
    vertex -23.479524179155657 -38.971759619699604 45.00000000000004
    vertex -24.95100542741097 -49.88768876409048 45.00000000000004
    vertex -23.485489224726134 -36.10018958637692 45.00000000000004
  endloop
endfacet
facet normal -7.492776624889763e-16 -4.621575820803242e-16 -1.0
  outer loop
    vertex -21.326636756646373 -52.66876465955353 45.00000000000003
    vertex -23.479524179155657 -38.971759619699604 45.00000000000004
    vertex -22.730545373614497 -41.74393940948521 45.00000000000004
  endloop
endfacet
facet normal -7.492776624889763e-16 -4.621575820803242e-16 -1.0
  outer loop
    vertex -21.326636756646373 -52.66876465955353 45.00000000000003
    vertex -22.730545373614497 -41.74393940948521 45.00000000000004
    vertex -21.289594475954374 -44.22780948430349 45.00000000000003
  endloop
endfacet
facet normal -7.492776624889763e-16 -4.621575820803242e-16 -1.0
  outer loop
    vertex -21.326636756646373 -52.66876465955353 45.00000000000003
    vertex -21.289594475954374 -44.22780948430349 45.00000000000003
    vertex -17.1059700459405 -54.417022053384564 45.00000000000003
  endloop
endfacet
facet normal -7.492776624889763e-16 -4.621575820803242e-16 -1.0
  outer loop
    vertex -17.1059700459405 -54.417022053384564 45.00000000000003
    vertex -21.289594475954374 -44.22780948430349 45.00000000000003
    vertex -19.254869908566867 -46.25409820334509 45.00000000000003
  endloop
endfacet
facet normal -7.492776624889763e-16 -4.621575820803242e-16 -1.0
  outer loop
    vertex -17.1059700459405 -54.417022053384564 45.00000000000003
    vertex -19.254869908566867 -46.25409820334509 45.00000000000003
    vertex -16.765034788178035 -47.684717339007676 45.00000000000003
  endloop
endfacet
facet normal -7.492776624889763e-16 -4.621575820803242e-16 -1.0
  outer loop
    vertex -17.1059700459405 -54.417022053384564 45.00000000000003
    vertex -16.765034788178035 -47.684717339007676 45.00000000000003
    vertex -12.576636756646376 -55.01332009332593 45.00000000000002
  endloop
endfacet
facet normal -7.492776624889763e-16 -4.621575820803242e-16 -1.0
  outer loop
    vertex -12.576636756646376 -55.01332009332593 45.00000000000002
    vertex -16.765034788178035 -47.684717339007676 45.00000000000003
    vertex -13.989767263595377 -48.42217256140571 45.00000000000003
  endloop
endfacet
facet normal -7.492776624889763e-16 -4.621575820803242e-16 -1.0
  outer loop
    vertex -12.576636756646376 -55.01332009332593 45.00000000000002
    vertex -13.989767263595377 -48.42217256140571 45.00000000000003
    vertex -11.118197230272761 -48.41620751583523 45.00000000000002
  endloop
endfacet
facet normal -7.492776624889763e-16 -4.621575820803242e-16 -1.0
  outer loop
    vertex -12.576636756646376 -55.01332009332593 45.00000000000002
    vertex -11.118197230272761 -48.41620751583523 45.00000000000002
    vertex 19.923363243353542 -55.01332009332593 45.000000000000014
  endloop
endfacet
facet normal -7.492776624889763e-16 -4.621575820803242e-16 -1.0
  outer loop
    vertex 19.923363243353542 -55.01332009332593 45.000000000000014
    vertex -11.118197230272761 -48.41620751583523 45.00000000000002
    vertex -8.346017440487135 -47.66722871029412 45.00000000000002
  endloop
endfacet
facet normal -7.492776624889763e-16 -4.621575820803242e-16 -1.0
  outer loop
    vertex 19.923363243353542 -55.01332009332593 45.000000000000014
    vertex -8.346017440487135 -47.66722871029412 45.00000000000002
    vertex -5.862147365668837 -46.22627781263396 45.00000000000002
  endloop
endfacet
facet normal -7.492776624889763e-16 -4.621575820803242e-16 -1.0
  outer loop
    vertex 19.923363243353542 -55.01332009332593 45.000000000000014
    vertex -5.862147365668837 -46.22627781263396 45.00000000000002
    vertex -3.835858646627292 -44.1915532452464 45.00000000000001
  endloop
endfacet
facet normal -7.492776624889763e-16 -4.621575820803242e-16 -1.0
  outer loop
    vertex 19.923363243353542 -55.01332009332593 45.000000000000014
    vertex -3.835858646627292 -44.1915532452464 45.00000000000001
    vertex -2.4052395109647358 -41.7017181248576 45.00000000000001
  endloop
endfacet
facet normal -7.492776624889763e-16 -4.621575820803242e-16 -1.0
  outer loop
    vertex 19.923363243353542 -55.01332009332593 45.000000000000014
    vertex -2.4052395109647358 -41.7017181248576 45.00000000000001
    vertex -1.6677842885666592 -38.92645060027492 45.00000000000001
  endloop
endfacet
facet normal -7.492776624889763e-16 -4.621575820803242e-16 -1.0
  outer loop
    vertex 19.923363243353542 -55.01332009332593 45.000000000000014
    vertex -1.6677842885666592 -38.92645060027492 45.00000000000001
    vertex -0.07663675664645847 -25.01332009332592 45.0
  endloop
endfacet
facet normal -7.492776624889763e-16 -4.621575820803242e-16 -1.0
  outer loop
    vertex -0.07663675664645847 -25.01332009332592 45.0
    vertex -1.6677842885666592 -38.92645060027492 45.00000000000001
    vertex -0.07663675664645932 -0.013320093325927108 45.0
  endloop
endfacet
facet normal -7.492776624889763e-16 -4.621575820803242e-16 -1.0
  outer loop
    vertex 19.923363243353542 -55.01332009332593 45.000000000000014
    vertex -0.07663675664645847 -25.01332009332592 45.0
    vertex 24.923363243353542 -25.01332009332592 44.99999999999999
  endloop
endfacet
facet normal -7.492776624889763e-16 -4.621575820803242e-16 -1.0
  outer loop
    vertex 19.923363243353542 -55.01332009332593 45.000000000000014
    vertex 24.923363243353542 -25.01332009332592 44.99999999999999
    vertex 24.923363243353542 -50.01332009332593 45.000000000000014
  endloop
endfacet
facet normal 1.0 3.994952516942855e-17 6.884683795282598e-19
  outer loop
    vertex -0.07663675664645932 -0.013320093325927108 45.0
    vertex -0.07663675664645847 -25.01332009332592 52.99999999999999
    vertex -0.07663675664645847 -25.01332009332592 45.0
  endloop
endfacet
facet normal 1.0 3.994952516942855e-17 6.884683795282598e-19
  outer loop
    vertex -0.07663675664645847 -25.01332009332592 52.99999999999999
    vertex -0.07663675664645932 -0.013320093325927108 45.0
    vertex -0.07663675664645847 -0.013320093325919918 52.99999999999999
  endloop
endfacet
facet normal -0.0 1.0 -0.0
  outer loop
    vertex -0.07663675664645847 -25.01332009332592 45.0
    vertex 24.92336324335355 -25.01332009332592 52.99999999999997
    vertex 24.923363243353542 -25.01332009332592 44.99999999999999
  endloop
endfacet
facet normal -0.0 1.0 -0.0
  outer loop
    vertex 24.92336324335355 -25.01332009332592 52.99999999999997
    vertex -0.07663675664645847 -25.01332009332592 45.0
    vertex -0.07663675664645847 -25.01332009332592 52.99999999999999
  endloop
endfacet
endsolid Нижний Уголок-Совместимый-Дополнение
