solid 
   facet normal -1.000000e+000 -0.000000e+000 0.000000e+000
      outer loop
         vertex -5.000000e+000 -2.100000e+001 1.000000e+001
         vertex -5.000000e+000 0.000000e+000 1.000000e+001
         vertex -5.000000e+000 -2.100000e+001 0.000000e+000
      endloop
   endfacet
   facet normal -1.000000e+000 0.000000e+000 0.000000e+000
      outer loop
         vertex -5.000000e+000 2.100000e+001 0.000000e+000
         vertex -5.000000e+000 -2.100000e+001 0.000000e+000
         vertex -5.000000e+000 0.000000e+000 1.000000e+001
      endloop
   endfacet
   facet normal 1.000000e+000 0.000000e+000 0.000000e+000
      outer loop
         vertex 5.000000e+000 -2.100000e+001 0.000000e+000
         vertex 5.000000e+000 2.100000e+001 0.000000e+000
         vertex 5.000000e+000 0.000000e+000 1.000000e+001
      endloop
   endfacet
   facet normal 1.000000e+000 0.000000e+000 0.000000e+000
      outer loop
         vertex 5.000000e+000 -2.100000e+001 1.000000e+001
         vertex 5.000000e+000 -2.100000e+001 0.000000e+000
         vertex 5.000000e+000 0.000000e+000 1.000000e+001
      endloop
   endfacet
   facet normal -0.000000e+000 0.000000e+000 1.000000e+000
      outer loop
         vertex 5.000000e+000 0.000000e+000 1.000000e+001
         vertex -5.000000e+000 0.000000e+000 1.000000e+001
         vertex 1.500000e+000 -3.000000e+000 1.000000e+001
      endloop
   endfacet
   facet normal 0.000000e+000 0.000000e+000 1.000000e+000
      outer loop
         vertex -5.000000e+000 -2.100000e+001 1.000000e+001
         vertex 5.000000e+000 -2.100000e+001 1.000000e+001
         vertex 1.500000e+000 -1.800000e+001 1.000000e+001
      endloop
   endfacet
   facet normal -0.000000e+000 0.000000e+000 1.000000e+000
      outer loop
         vertex 1.500000e+000 -1.650000e+001 1.000000e+001
         vertex 1.213526e+000 -1.738168e+001 1.000000e+001
         vertex 1.500000e+000 -1.800000e+001 1.000000e+001
      endloop
   endfacet
   facet normal -0.000000e+000 0.000000e+000 1.000000e+000
      outer loop
         vertex 4.635255e-001 -1.792658e+001 1.000000e+001
         vertex -4.635255e-001 -1.792658e+001 1.000000e+001
         vertex 1.500000e+000 -1.800000e+001 1.000000e+001
      endloop
   endfacet
   facet normal 0.000000e+000 0.000000e+000 1.000000e+000
      outer loop
         vertex -1.213526e+000 -1.738168e+001 1.000000e+001
         vertex -1.500000e+000 -1.650000e+001 1.000000e+001
         vertex -1.500000e+000 -1.800000e+001 1.000000e+001
      endloop
   endfacet
   facet normal 0.000000e+000 0.000000e+000 1.000000e+000
      outer loop
         vertex -1.500000e+000 -4.500000e+000 1.000000e+001
         vertex -1.213526e+000 -3.618322e+000 1.000000e+001
         vertex -1.500000e+000 -3.000000e+000 1.000000e+001
      endloop
   endfacet
   facet normal 0.000000e+000 -0.000000e+000 1.000000e+000
      outer loop
         vertex -4.635255e-001 -3.073415e+000 1.000000e+001
         vertex 4.635255e-001 -3.073415e+000 1.000000e+001
         vertex 1.500000e+000 -3.000000e+000 1.000000e+001
      endloop
   endfacet
   facet normal 0.000000e+000 0.000000e+000 1.000000e+000
      outer loop
         vertex -1.500000e+000 -1.800000e+001 1.000000e+001
         vertex 1.500000e+000 -1.800000e+001 1.000000e+001
         vertex -4.635255e-001 -1.792658e+001 1.000000e+001
      endloop
   endfacet
   facet normal 0.000000e+000 0.000000e+000 1.000000e+000
      outer loop
         vertex -1.500000e+000 -3.000000e+000 1.000000e+001
         vertex -1.500000e+000 -1.800000e+001 1.000000e+001
         vertex -1.213526e+000 -3.618322e+000 1.000000e+001
      endloop
   endfacet
   facet normal 0.000000e+000 0.000000e+000 1.000000e+000
      outer loop
         vertex 1.500000e+000 -3.000000e+000 1.000000e+001
         vertex -5.000000e+000 0.000000e+000 1.000000e+001
         vertex -1.500000e+000 -3.000000e+000 1.000000e+001
      endloop
   endfacet
   facet normal 0.000000e+000 0.000000e+000 1.000000e+000
      outer loop
         vertex 1.500000e+000 -1.800000e+001 1.000000e+001
         vertex 1.213526e+000 -1.738168e+001 1.000000e+001
         vertex 4.635255e-001 -1.792658e+001 1.000000e+001
      endloop
   endfacet
   facet normal 0.000000e+000 -0.000000e+000 1.000000e+000
      outer loop
         vertex -1.500000e+000 -3.000000e+000 1.000000e+001
         vertex -1.213526e+000 -3.618322e+000 1.000000e+001
         vertex -4.635255e-001 -3.073415e+000 1.000000e+001
      endloop
   endfacet
   facet normal 0.000000e+000 0.000000e+000 1.000000e+000
      outer loop
         vertex -1.500000e+000 -1.800000e+001 1.000000e+001
         vertex -4.635255e-001 -1.792658e+001 1.000000e+001
         vertex -1.213526e+000 -1.738168e+001 1.000000e+001
      endloop
   endfacet
   facet normal 0.000000e+000 -0.000000e+000 1.000000e+000
      outer loop
         vertex -1.500000e+000 -3.000000e+000 1.000000e+001
         vertex -4.635255e-001 -3.073415e+000 1.000000e+001
         vertex 1.500000e+000 -3.000000e+000 1.000000e+001
      endloop
   endfacet
   facet normal 0.000000e+000 -0.000000e+000 1.000000e+000
      outer loop
         vertex 1.213526e+000 -3.618322e+000 1.000000e+001
         vertex 1.500000e+000 -4.500000e+000 1.000000e+001
         vertex 1.500000e+000 -3.000000e+000 1.000000e+001
      endloop
   endfacet
   facet normal 0.000000e+000 -0.000000e+000 1.000000e+000
      outer loop
         vertex 4.635255e-001 -3.073415e+000 1.000000e+001
         vertex 1.213526e+000 -3.618322e+000 1.000000e+001
         vertex 1.500000e+000 -3.000000e+000 1.000000e+001
      endloop
   endfacet
   facet normal 0.000000e+000 0.000000e+000 1.000000e+000
      outer loop
         vertex 1.500000e+000 -1.800000e+001 1.000000e+001
         vertex 1.500000e+000 -3.000000e+000 1.000000e+001
         vertex -1.213526e+000 -3.618322e+000 1.000000e+001
      endloop
   endfacet
   facet normal -0.000000e+000 0.000000e+000 1.000000e+000
      outer loop
         vertex 5.000000e+000 0.000000e+000 1.000000e+001
         vertex 1.500000e+000 -3.000000e+000 1.000000e+001
         vertex 5.000000e+000 -2.100000e+001 1.000000e+001
      endloop
   endfacet
   facet normal 0.000000e+000 -0.000000e+000 1.000000e+000
      outer loop
         vertex -1.500000e+000 -3.000000e+000 1.000000e+001
         vertex -1.213526e+000 -3.618322e+000 1.000000e+001
         vertex 1.500000e+000 -3.000000e+000 1.000000e+001
      endloop
   endfacet
   facet normal 0.000000e+000 0.000000e+000 1.000000e+000
      outer loop
         vertex 1.500000e+000 -1.800000e+001 1.000000e+001
         vertex -1.213526e+000 -3.618322e+000 1.000000e+001
         vertex -1.500000e+000 -1.800000e+001 1.000000e+001
      endloop
   endfacet
   facet normal -0.000000e+000 0.000000e+000 1.000000e+000
      outer loop
         vertex 1.500000e+000 -1.800000e+001 1.000000e+001
         vertex -1.500000e+000 -1.800000e+001 1.000000e+001
         vertex -5.000000e+000 -2.100000e+001 1.000000e+001
      endloop
   endfacet
   facet normal 0.000000e+000 0.000000e+000 1.000000e+000
      outer loop
         vertex -5.000000e+000 0.000000e+000 1.000000e+001
         vertex -5.000000e+000 -2.100000e+001 1.000000e+001
         vertex -1.500000e+000 -1.800000e+001 1.000000e+001
      endloop
   endfacet
   facet normal 0.000000e+000 0.000000e+000 1.000000e+000
      outer loop
         vertex 1.500000e+000 -1.800000e+001 1.000000e+001
         vertex 5.000000e+000 -2.100000e+001 1.000000e+001
         vertex 1.500000e+000 -3.000000e+000 1.000000e+001
      endloop
   endfacet
   facet normal 0.000000e+000 0.000000e+000 1.000000e+000
      outer loop
         vertex -1.500000e+000 -3.000000e+000 1.000000e+001
         vertex -5.000000e+000 0.000000e+000 1.000000e+001
         vertex -1.500000e+000 -1.800000e+001 1.000000e+001
      endloop
   endfacet
   facet normal 0.000000e+000 0.000000e+000 -1.000000e+000
      outer loop
         vertex -1.500000e+000 -3.000000e+000 0.000000e+000
         vertex -5.000000e+000 -2.100000e+001 0.000000e+000
         vertex -5.000000e+000 2.100000e+001 0.000000e+000
      endloop
   endfacet
   facet normal 0.000000e+000 -0.000000e+000 -1.000000e+000
      outer loop
         vertex 1.500000e+000 -3.000000e+000 0.000000e+000
         vertex 5.000000e+000 2.100000e+001 0.000000e+000
         vertex 5.000000e+000 -2.100000e+001 0.000000e+000
      endloop
   endfacet
   facet normal 0.000000e+000 0.000000e+000 -1.000000e+000
      outer loop
         vertex 1.500000e+000 -1.800000e+001 0.000000e+000
         vertex 1.213526e+000 -1.738168e+001 0.000000e+000
         vertex 1.500000e+000 -1.650000e+001 0.000000e+000
      endloop
   endfacet
   facet normal 0.000000e+000 0.000000e+000 -1.000000e+000
      outer loop
         vertex 1.500000e+000 -1.800000e+001 0.000000e+000
         vertex -4.635255e-001 -1.792658e+001 0.000000e+000
         vertex 4.635255e-001 -1.792658e+001 0.000000e+000
      endloop
   endfacet
   facet normal 0.000000e+000 0.000000e+000 -1.000000e+000
      outer loop
         vertex -1.500000e+000 -1.800000e+001 0.000000e+000
         vertex -1.500000e+000 -1.650000e+001 0.000000e+000
         vertex -1.213526e+000 -1.738168e+001 0.000000e+000
      endloop
   endfacet
   facet normal -0.000000e+000 0.000000e+000 -1.000000e+000
      outer loop
         vertex -1.500000e+000 -3.000000e+000 0.000000e+000
         vertex -1.213526e+000 -3.618322e+000 0.000000e+000
         vertex -1.500000e+000 -4.500000e+000 0.000000e+000
      endloop
   endfacet
   facet normal 0.000000e+000 0.000000e+000 -1.000000e+000
      outer loop
         vertex 1.500000e+000 -3.000000e+000 0.000000e+000
         vertex 4.635255e-001 -3.073415e+000 0.000000e+000
         vertex -4.635255e-001 -3.073415e+000 0.000000e+000
      endloop
   endfacet
   facet normal 0.000000e+000 0.000000e+000 -1.000000e+000
      outer loop
         vertex 1.500000e+000 -3.000000e+000 0.000000e+000
         vertex 1.500000e+000 -4.500000e+000 0.000000e+000
         vertex 1.213526e+000 -3.618322e+000 0.000000e+000
      endloop
   endfacet
   facet normal 0.000000e+000 0.000000e+000 -1.000000e+000
      outer loop
         vertex -4.635255e-001 -1.792658e+001 0.000000e+000
         vertex 1.500000e+000 -1.800000e+001 0.000000e+000
         vertex -1.500000e+000 -1.800000e+001 0.000000e+000
      endloop
   endfacet
   facet normal 0.000000e+000 0.000000e+000 -1.000000e+000
      outer loop
         vertex -1.213526e+000 -3.618322e+000 0.000000e+000
         vertex -1.500000e+000 -1.800000e+001 0.000000e+000
         vertex -1.500000e+000 -3.000000e+000 0.000000e+000
      endloop
   endfacet
   facet normal 0.000000e+000 0.000000e+000 -1.000000e+000
      outer loop
         vertex 1.500000e+000 -3.000000e+000 0.000000e+000
         vertex -1.500000e+000 -3.000000e+000 0.000000e+000
         vertex -5.000000e+000 2.100000e+001 0.000000e+000
      endloop
   endfacet
   facet normal 0.000000e+000 -0.000000e+000 -1.000000e+000
      outer loop
         vertex 4.635255e-001 -1.792658e+001 0.000000e+000
         vertex 1.213526e+000 -1.738168e+001 0.000000e+000
         vertex 1.500000e+000 -1.800000e+001 0.000000e+000
      endloop
   endfacet
   facet normal 0.000000e+000 0.000000e+000 -1.000000e+000
      outer loop
         vertex -4.635255e-001 -3.073415e+000 0.000000e+000
         vertex -1.213526e+000 -3.618322e+000 0.000000e+000
         vertex -1.500000e+000 -3.000000e+000 0.000000e+000
      endloop
   endfacet
   facet normal 0.000000e+000 0.000000e+000 -1.000000e+000
      outer loop
         vertex 4.635255e-001 -3.073415e+000 0.000000e+000
         vertex 1.500000e+000 -3.000000e+000 0.000000e+000
         vertex 1.213526e+000 -3.618322e+000 0.000000e+000
      endloop
   endfacet
   facet normal 0.000000e+000 0.000000e+000 -1.000000e+000
      outer loop
         vertex -1.213526e+000 -1.738168e+001 0.000000e+000
         vertex -1.500000e+000 -1.800000e+001 0.000000e+000
         vertex -1.213526e+000 -3.618322e+000 0.000000e+000
      endloop
   endfacet
   facet normal 0.000000e+000 0.000000e+000 -1.000000e+000
      outer loop
         vertex 1.500000e+000 -3.000000e+000 0.000000e+000
         vertex -4.635255e-001 -3.073415e+000 0.000000e+000
         vertex -1.500000e+000 -3.000000e+000 0.000000e+000
      endloop
   endfacet
   facet normal 0.000000e+000 0.000000e+000 -1.000000e+000
      outer loop
         vertex -1.500000e+000 -1.800000e+001 0.000000e+000
         vertex 5.000000e+000 -2.100000e+001 0.000000e+000
         vertex -5.000000e+000 -2.100000e+001 0.000000e+000
      endloop
   endfacet
   facet normal 0.000000e+000 -0.000000e+000 -1.000000e+000
      outer loop
         vertex -1.500000e+000 -1.800000e+001 0.000000e+000
         vertex -1.213526e+000 -1.738168e+001 0.000000e+000
         vertex -4.635255e-001 -1.792658e+001 0.000000e+000
      endloop
   endfacet
   facet normal 0.000000e+000 -0.000000e+000 -1.000000e+000
      outer loop
         vertex -1.213526e+000 -1.738168e+001 0.000000e+000
         vertex 1.500000e+000 -3.000000e+000 0.000000e+000
         vertex 1.500000e+000 -1.800000e+001 0.000000e+000
      endloop
   endfacet
   facet normal 0.000000e+000 0.000000e+000 -1.000000e+000
      outer loop
         vertex 1.500000e+000 -1.800000e+001 0.000000e+000
         vertex 1.500000e+000 -3.000000e+000 0.000000e+000
         vertex 5.000000e+000 -2.100000e+001 0.000000e+000
      endloop
   endfacet
   facet normal 0.000000e+000 0.000000e+000 -1.000000e+000
      outer loop
         vertex 5.000000e+000 -2.100000e+001 0.000000e+000
         vertex 1.500000e+000 -4.500000e+000 0.000000e+000
         vertex 1.500000e+000 -3.000000e+000 0.000000e+000
      endloop
   endfacet
   facet normal 0.000000e+000 0.000000e+000 -1.000000e+000
      outer loop
         vertex 5.000000e+000 2.100000e+001 0.000000e+000
         vertex 1.500000e+000 -3.000000e+000 0.000000e+000
         vertex -5.000000e+000 2.100000e+001 0.000000e+000
      endloop
   endfacet
   facet normal 0.000000e+000 0.000000e+000 -1.000000e+000
      outer loop
         vertex 1.500000e+000 -1.800000e+001 0.000000e+000
         vertex 5.000000e+000 -2.100000e+001 0.000000e+000
         vertex -1.500000e+000 -1.800000e+001 0.000000e+000
      endloop
   endfacet
   facet normal 0.000000e+000 0.000000e+000 -1.000000e+000
      outer loop
         vertex 1.500000e+000 -1.650000e+001 0.000000e+000
         vertex 1.500000e+000 -4.500000e+000 0.000000e+000
         vertex 5.000000e+000 -2.100000e+001 0.000000e+000
      endloop
   endfacet
   facet normal 0.000000e+000 0.000000e+000 -1.000000e+000
      outer loop
         vertex 5.000000e+000 -2.100000e+001 0.000000e+000
         vertex 1.500000e+000 -1.800000e+001 0.000000e+000
         vertex 1.500000e+000 -1.650000e+001 0.000000e+000
      endloop
   endfacet
   facet normal 0.000000e+000 0.000000e+000 -1.000000e+000
      outer loop
         vertex 1.500000e+000 -3.000000e+000 0.000000e+000
         vertex -1.213526e+000 -3.618322e+000 0.000000e+000
         vertex -1.500000e+000 -3.000000e+000 0.000000e+000
      endloop
   endfacet
   facet normal 0.000000e+000 0.000000e+000 -1.000000e+000
      outer loop
         vertex 1.500000e+000 -1.800000e+001 0.000000e+000
         vertex -1.500000e+000 -1.800000e+001 0.000000e+000
         vertex -1.213526e+000 -1.738168e+001 0.000000e+000
      endloop
   endfacet
   facet normal 0.000000e+000 0.000000e+000 -1.000000e+000
      outer loop
         vertex -1.213526e+000 -3.618322e+000 0.000000e+000
         vertex 1.500000e+000 -3.000000e+000 0.000000e+000
         vertex -1.213526e+000 -1.738168e+001 0.000000e+000
      endloop
   endfacet
   facet normal 0.000000e+000 0.000000e+000 -1.000000e+000
      outer loop
         vertex 5.000000e+000 -2.100000e+001 0.000000e+000
         vertex -1.500000e+000 -1.800000e+001 0.000000e+000
         vertex 1.500000e+000 -1.800000e+001 0.000000e+000
      endloop
   endfacet
   facet normal 0.000000e+000 0.000000e+000 -1.000000e+000
      outer loop
         vertex -1.500000e+000 -1.800000e+001 0.000000e+000
         vertex -5.000000e+000 -2.100000e+001 0.000000e+000
         vertex -1.500000e+000 -3.000000e+000 0.000000e+000
      endloop
   endfacet
   facet normal 0.000000e+000 4.299336e-001 9.028605e-001
      outer loop
         vertex -5.000000e+000 0.000000e+000 1.000000e+001
         vertex 5.000000e+000 0.000000e+000 1.000000e+001
         vertex 5.000000e+000 2.100000e+001 0.000000e+000
      endloop
   endfacet
   facet normal 0.000000e+000 4.299336e-001 9.028605e-001
      outer loop
         vertex -5.000000e+000 0.000000e+000 1.000000e+001
         vertex 5.000000e+000 2.100000e+001 0.000000e+000
         vertex -5.000000e+000 2.100000e+001 0.000000e+000
      endloop
   endfacet
   facet normal 0.000000e+000 -1.000000e+000 0.000000e+000
      outer loop
         vertex -5.000000e+000 -2.100000e+001 1.000000e+001
         vertex -5.000000e+000 -2.100000e+001 0.000000e+000
         vertex 5.000000e+000 -2.100000e+001 0.000000e+000
      endloop
   endfacet
   facet normal 0.000000e+000 -1.000000e+000 0.000000e+000
      outer loop
         vertex 5.000000e+000 -2.100000e+001 1.000000e+001
         vertex -5.000000e+000 -2.100000e+001 1.000000e+001
         vertex 5.000000e+000 -2.100000e+001 0.000000e+000
      endloop
   endfacet
   facet normal -1.000000e+000 0.000000e+000 0.000000e+000
      outer loop
         vertex 1.500000e+000 -4.500000e+000 0.000000e+000
         vertex 1.500000e+000 -1.650000e+001 0.000000e+000
         vertex 1.500000e+000 -1.650000e+001 1.000000e+001
      endloop
   endfacet
   facet normal -1.000000e+000 0.000000e+000 0.000000e+000
      outer loop
         vertex 1.500000e+000 -4.500000e+000 0.000000e+000
         vertex 1.500000e+000 -1.650000e+001 1.000000e+001
         vertex 1.500000e+000 -4.500000e+000 1.000000e+001
      endloop
   endfacet
   facet normal 9.510565e-001 3.090170e-001 -0.000000e+000
      outer loop
         vertex -1.213526e+000 -1.738168e+001 0.000000e+000
         vertex -1.500000e+000 -1.650000e+001 0.000000e+000
         vertex -1.500000e+000 -1.650000e+001 1.000000e+001
      endloop
   endfacet
   facet normal 0.000000e+000 1.000000e+000 -0.000000e+000
      outer loop
         vertex 4.635255e-001 -1.792658e+001 1.000000e+001
         vertex 4.635255e-001 -1.792658e+001 0.000000e+000
         vertex -4.635255e-001 -1.792658e+001 0.000000e+000
      endloop
   endfacet
   facet normal -9.510565e-001 3.090170e-001 0.000000e+000
      outer loop
         vertex 1.500000e+000 -1.650000e+001 1.000000e+001
         vertex 1.500000e+000 -1.650000e+001 0.000000e+000
         vertex 1.213526e+000 -1.738168e+001 0.000000e+000
      endloop
   endfacet
   facet normal -5.877850e-001 8.090171e-001 0.000000e+000
      outer loop
         vertex 4.635255e-001 -1.792658e+001 0.000000e+000
         vertex 4.635255e-001 -1.792658e+001 1.000000e+001
         vertex 1.213526e+000 -1.738168e+001 1.000000e+001
      endloop
   endfacet
   facet normal 5.877850e-001 8.090171e-001 0.000000e+000
      outer loop
         vertex -1.213526e+000 -1.738168e+001 0.000000e+000
         vertex -1.213526e+000 -1.738168e+001 1.000000e+001
         vertex -4.635255e-001 -1.792658e+001 1.000000e+001
      endloop
   endfacet
   facet normal 9.510565e-001 3.090170e-001 -0.000000e+000
      outer loop
         vertex -1.213526e+000 -1.738168e+001 1.000000e+001
         vertex -1.213526e+000 -1.738168e+001 0.000000e+000
         vertex -1.500000e+000 -1.650000e+001 1.000000e+001
      endloop
   endfacet
   facet normal -5.877850e-001 8.090171e-001 0.000000e+000
      outer loop
         vertex 1.213526e+000 -1.738168e+001 0.000000e+000
         vertex 4.635255e-001 -1.792658e+001 0.000000e+000
         vertex 1.213526e+000 -1.738168e+001 1.000000e+001
      endloop
   endfacet
   facet normal 5.877850e-001 8.090171e-001 -0.000000e+000
      outer loop
         vertex -4.635255e-001 -1.792658e+001 1.000000e+001
         vertex -4.635255e-001 -1.792658e+001 0.000000e+000
         vertex -1.213526e+000 -1.738168e+001 0.000000e+000
      endloop
   endfacet
   facet normal -0.000000e+000 1.000000e+000 0.000000e+000
      outer loop
         vertex -4.635255e-001 -1.792658e+001 0.000000e+000
         vertex -4.635255e-001 -1.792658e+001 1.000000e+001
         vertex 4.635255e-001 -1.792658e+001 1.000000e+001
      endloop
   endfacet
   facet normal -9.510565e-001 3.090170e-001 0.000000e+000
      outer loop
         vertex 1.500000e+000 -1.650000e+001 1.000000e+001
         vertex 1.213526e+000 -1.738168e+001 0.000000e+000
         vertex 1.213526e+000 -1.738168e+001 1.000000e+001
      endloop
   endfacet
   facet normal 1.000000e+000 0.000000e+000 -0.000000e+000
      outer loop
         vertex -1.500000e+000 -1.650000e+001 0.000000e+000
         vertex -1.500000e+000 -4.500000e+000 0.000000e+000
         vertex -1.500000e+000 -4.500000e+000 1.000000e+001
      endloop
   endfacet
   facet normal 1.000000e+000 0.000000e+000 0.000000e+000
      outer loop
         vertex -1.500000e+000 -1.650000e+001 0.000000e+000
         vertex -1.500000e+000 -4.500000e+000 1.000000e+001
         vertex -1.500000e+000 -1.650000e+001 1.000000e+001
      endloop
   endfacet
   facet normal -9.510565e-001 -3.090170e-001 0.000000e+000
      outer loop
         vertex 1.213526e+000 -3.618322e+000 0.000000e+000
         vertex 1.500000e+000 -4.500000e+000 0.000000e+000
         vertex 1.500000e+000 -4.500000e+000 1.000000e+001
      endloop
   endfacet
   facet normal 0.000000e+000 -1.000000e+000 0.000000e+000
      outer loop
         vertex -4.635255e-001 -3.073415e+000 1.000000e+001
         vertex -4.635255e-001 -3.073415e+000 0.000000e+000
         vertex 4.635255e-001 -3.073415e+000 0.000000e+000
      endloop
   endfacet
   facet normal 9.510565e-001 -3.090170e-001 0.000000e+000
      outer loop
         vertex -1.500000e+000 -4.500000e+000 1.000000e+001
         vertex -1.500000e+000 -4.500000e+000 0.000000e+000
         vertex -1.213526e+000 -3.618322e+000 0.000000e+000
      endloop
   endfacet
   facet normal 5.877852e-001 -8.090170e-001 0.000000e+000
      outer loop
         vertex -4.635255e-001 -3.073415e+000 0.000000e+000
         vertex -4.635255e-001 -3.073415e+000 1.000000e+001
         vertex -1.213526e+000 -3.618322e+000 1.000000e+001
      endloop
   endfacet
   facet normal -5.877852e-001 -8.090170e-001 -0.000000e+000
      outer loop
         vertex 1.213526e+000 -3.618322e+000 0.000000e+000
         vertex 1.213526e+000 -3.618322e+000 1.000000e+001
         vertex 4.635255e-001 -3.073415e+000 1.000000e+001
      endloop
   endfacet
   facet normal -9.510565e-001 -3.090170e-001 0.000000e+000
      outer loop
         vertex 1.213526e+000 -3.618322e+000 1.000000e+001
         vertex 1.213526e+000 -3.618322e+000 0.000000e+000
         vertex 1.500000e+000 -4.500000e+000 1.000000e+001
      endloop
   endfacet
   facet normal 5.877852e-001 -8.090170e-001 0.000000e+000
      outer loop
         vertex -1.213526e+000 -3.618322e+000 0.000000e+000
         vertex -4.635255e-001 -3.073415e+000 0.000000e+000
         vertex -1.213526e+000 -3.618322e+000 1.000000e+001
      endloop
   endfacet
   facet normal -5.877852e-001 -8.090170e-001 0.000000e+000
      outer loop
         vertex 4.635255e-001 -3.073415e+000 1.000000e+001
         vertex 4.635255e-001 -3.073415e+000 0.000000e+000
         vertex 1.213526e+000 -3.618322e+000 0.000000e+000
      endloop
   endfacet
   facet normal -0.000000e+000 -1.000000e+000 -0.000000e+000
      outer loop
         vertex 4.635255e-001 -3.073415e+000 0.000000e+000
         vertex 4.635255e-001 -3.073415e+000 1.000000e+001
         vertex -4.635255e-001 -3.073415e+000 1.000000e+001
      endloop
   endfacet
   facet normal 9.510565e-001 -3.090170e-001 0.000000e+000
      outer loop
         vertex -1.500000e+000 -4.500000e+000 1.000000e+001
         vertex -1.213526e+000 -3.618322e+000 0.000000e+000
         vertex -1.213526e+000 -3.618322e+000 1.000000e+001
      endloop
   endfacet
endsolid
