solid 
   facet normal 0.000000e+000 -0.000000e+000 -1.000000e+000
      outer loop
         vertex 2.250000e+000 0.000000e+000 0.000000e+000
         vertex 4.619398e+000 1.913417e+000 0.000000e+000
         vertex 5.000000e+000 0.000000e+000 0.000000e+000
      endloop
   endfacet
   facet normal 0.000000e+000 0.000000e+000 -1.000000e+000
      outer loop
         vertex 2.250000e+000 2.250000e+000 0.000000e+000
         vertex 1.913417e+000 4.619398e+000 0.000000e+000
         vertex 3.535534e+000 3.535534e+000 0.000000e+000
      endloop
   endfacet
   facet normal 0.000000e+000 -0.000000e+000 -1.000000e+000
      outer loop
         vertex -2.250000e+000 2.250000e+000 0.000000e+000
         vertex -1.913417e+000 4.619398e+000 0.000000e+000
         vertex 3.061617e-016 5.000000e+000 0.000000e+000
      endloop
   endfacet
   facet normal 0.000000e+000 0.000000e+000 -1.000000e+000
      outer loop
         vertex -2.250000e+000 2.250000e+000 0.000000e+000
         vertex -4.619398e+000 1.913417e+000 0.000000e+000
         vertex -3.535534e+000 3.535534e+000 0.000000e+000
      endloop
   endfacet
   facet normal 0.000000e+000 0.000000e+000 -1.000000e+000
      outer loop
         vertex -2.250000e+000 2.755455e-016 0.000000e+000
         vertex -4.619398e+000 -1.913417e+000 0.000000e+000
         vertex -5.000000e+000 6.123234e-016 0.000000e+000
      endloop
   endfacet
   facet normal 0.000000e+000 0.000000e+000 -1.000000e+000
      outer loop
         vertex -2.250000e+000 -2.250000e+000 0.000000e+000
         vertex -1.913417e+000 -4.619398e+000 0.000000e+000
         vertex -3.535534e+000 -3.535534e+000 0.000000e+000
      endloop
   endfacet
   facet normal -0.000000e+000 0.000000e+000 -1.000000e+000
      outer loop
         vertex 2.250000e+000 -2.250000e+000 0.000000e+000
         vertex 1.913417e+000 -4.619398e+000 0.000000e+000
         vertex -9.184850e-016 -5.000000e+000 0.000000e+000
      endloop
   endfacet
   facet normal 0.000000e+000 0.000000e+000 -1.000000e+000
      outer loop
         vertex 2.250000e+000 -2.250000e+000 0.000000e+000
         vertex 4.619398e+000 -1.913417e+000 0.000000e+000
         vertex 3.535534e+000 -3.535534e+000 0.000000e+000
      endloop
   endfacet
   facet normal 0.000000e+000 0.000000e+000 -1.000000e+000
      outer loop
         vertex 4.619398e+000 -1.913417e+000 0.000000e+000
         vertex 1.820288e+000 -1.322517e+000 0.000000e+000
         vertex 2.250000e+000 0.000000e+000 0.000000e+000
      endloop
   endfacet
   facet normal 0.000000e+000 -0.000000e+000 -1.000000e+000
      outer loop
         vertex -2.250000e+000 -2.250000e+000 0.000000e+000
         vertex -1.820288e+000 -1.322517e+000 0.000000e+000
         vertex -6.952882e-001 -2.139877e+000 0.000000e+000
      endloop
   endfacet
   facet normal -0.000000e+000 0.000000e+000 -1.000000e+000
      outer loop
         vertex -4.619398e+000 1.913417e+000 0.000000e+000
         vertex -1.820288e+000 1.322517e+000 0.000000e+000
         vertex -2.250000e+000 2.755455e-016 0.000000e+000
      endloop
   endfacet
   facet normal 0.000000e+000 0.000000e+000 -1.000000e+000
      outer loop
         vertex 2.250000e+000 2.250000e+000 0.000000e+000
         vertex 1.820288e+000 1.322517e+000 0.000000e+000
         vertex 6.952882e-001 2.139877e+000 0.000000e+000
      endloop
   endfacet
   facet normal 0.000000e+000 0.000000e+000 -1.000000e+000
      outer loop
         vertex -9.184850e-016 -5.000000e+000 0.000000e+000
         vertex -2.250000e+000 -2.250000e+000 0.000000e+000
         vertex 2.250000e+000 -2.250000e+000 0.000000e+000
      endloop
   endfacet
   facet normal 0.000000e+000 0.000000e+000 -1.000000e+000
      outer loop
         vertex -6.952882e-001 2.139877e+000 0.000000e+000
         vertex -2.250000e+000 2.250000e+000 0.000000e+000
         vertex 2.250000e+000 2.250000e+000 0.000000e+000
      endloop
   endfacet
   facet normal 0.000000e+000 0.000000e+000 -1.000000e+000
      outer loop
         vertex 4.619398e+000 -1.913417e+000 0.000000e+000
         vertex 2.250000e+000 0.000000e+000 0.000000e+000
         vertex 5.000000e+000 0.000000e+000 0.000000e+000
      endloop
   endfacet
   facet normal -0.000000e+000 -0.000000e+000 -1.000000e+000
      outer loop
         vertex 3.061617e-016 5.000000e+000 0.000000e+000
         vertex 1.913417e+000 4.619398e+000 0.000000e+000
         vertex 2.250000e+000 2.250000e+000 0.000000e+000
      endloop
   endfacet
   facet normal 0.000000e+000 0.000000e+000 -1.000000e+000
      outer loop
         vertex -1.913417e+000 4.619398e+000 0.000000e+000
         vertex -2.250000e+000 2.250000e+000 0.000000e+000
         vertex -3.535534e+000 3.535534e+000 0.000000e+000
      endloop
   endfacet
   facet normal -0.000000e+000 0.000000e+000 -1.000000e+000
      outer loop
         vertex -4.619398e+000 -1.913417e+000 0.000000e+000
         vertex -2.250000e+000 -2.250000e+000 0.000000e+000
         vertex -3.535534e+000 -3.535534e+000 0.000000e+000
      endloop
   endfacet
   facet normal 0.000000e+000 -0.000000e+000 -1.000000e+000
      outer loop
         vertex 1.913417e+000 -4.619398e+000 0.000000e+000
         vertex 2.250000e+000 -2.250000e+000 0.000000e+000
         vertex 3.535534e+000 -3.535534e+000 0.000000e+000
      endloop
   endfacet
   facet normal 0.000000e+000 0.000000e+000 -1.000000e+000
      outer loop
         vertex -4.619398e+000 -1.913417e+000 0.000000e+000
         vertex -1.820288e+000 -1.322517e+000 0.000000e+000
         vertex -2.250000e+000 -2.250000e+000 0.000000e+000
      endloop
   endfacet
   facet normal 0.000000e+000 0.000000e+000 -1.000000e+000
      outer loop
         vertex -2.250000e+000 2.250000e+000 0.000000e+000
         vertex -1.820288e+000 1.322517e+000 0.000000e+000
         vertex -4.619398e+000 1.913417e+000 0.000000e+000
      endloop
   endfacet
   facet normal 0.000000e+000 0.000000e+000 -1.000000e+000
      outer loop
         vertex -1.913417e+000 -4.619398e+000 0.000000e+000
         vertex -2.250000e+000 -2.250000e+000 0.000000e+000
         vertex -9.184850e-016 -5.000000e+000 0.000000e+000
      endloop
   endfacet
   facet normal -0.000000e+000 0.000000e+000 -1.000000e+000
      outer loop
         vertex -2.250000e+000 2.755455e-016 0.000000e+000
         vertex -1.820288e+000 -1.322517e+000 0.000000e+000
         vertex -4.619398e+000 -1.913417e+000 0.000000e+000
      endloop
   endfacet
   facet normal 0.000000e+000 -0.000000e+000 -1.000000e+000
      outer loop
         vertex 2.250000e+000 2.250000e+000 0.000000e+000
         vertex 3.535534e+000 3.535534e+000 0.000000e+000
         vertex 4.619398e+000 1.913417e+000 0.000000e+000
      endloop
   endfacet
   facet normal 0.000000e+000 0.000000e+000 -1.000000e+000
      outer loop
         vertex 2.250000e+000 -2.250000e+000 0.000000e+000
         vertex 6.952882e-001 -2.139877e+000 0.000000e+000
         vertex 1.820288e+000 -1.322517e+000 0.000000e+000
      endloop
   endfacet
   facet normal -0.000000e+000 0.000000e+000 -1.000000e+000
      outer loop
         vertex -2.250000e+000 2.250000e+000 0.000000e+000
         vertex -6.952882e-001 2.139877e+000 0.000000e+000
         vertex -1.820288e+000 1.322517e+000 0.000000e+000
      endloop
   endfacet
   facet normal 0.000000e+000 0.000000e+000 -1.000000e+000
      outer loop
         vertex 4.619398e+000 1.913417e+000 0.000000e+000
         vertex 2.250000e+000 0.000000e+000 0.000000e+000
         vertex 1.820288e+000 1.322517e+000 0.000000e+000
      endloop
   endfacet
   facet normal 0.000000e+000 0.000000e+000 -1.000000e+000
      outer loop
         vertex 3.061617e-016 5.000000e+000 0.000000e+000
         vertex 2.250000e+000 2.250000e+000 0.000000e+000
         vertex -2.250000e+000 2.250000e+000 0.000000e+000
      endloop
   endfacet
   facet normal -0.000000e+000 0.000000e+000 -1.000000e+000
      outer loop
         vertex 1.820288e+000 -1.322517e+000 0.000000e+000
         vertex 4.619398e+000 -1.913417e+000 0.000000e+000
         vertex 2.250000e+000 -2.250000e+000 0.000000e+000
      endloop
   endfacet
   facet normal 0.000000e+000 -0.000000e+000 -1.000000e+000
      outer loop
         vertex -5.000000e+000 6.123234e-016 0.000000e+000
         vertex -4.619398e+000 1.913417e+000 0.000000e+000
         vertex -2.250000e+000 2.755455e-016 0.000000e+000
      endloop
   endfacet
   facet normal 0.000000e+000 -0.000000e+000 -1.000000e+000
      outer loop
         vertex 1.820288e+000 1.322517e+000 0.000000e+000
         vertex 2.250000e+000 2.250000e+000 0.000000e+000
         vertex 4.619398e+000 1.913417e+000 0.000000e+000
      endloop
   endfacet
   facet normal 0.000000e+000 -0.000000e+000 -1.000000e+000
      outer loop
         vertex -2.250000e+000 -2.250000e+000 0.000000e+000
         vertex -6.952882e-001 -2.139877e+000 0.000000e+000
         vertex 6.952882e-001 -2.139877e+000 0.000000e+000
      endloop
   endfacet
   facet normal 0.000000e+000 0.000000e+000 -1.000000e+000
      outer loop
         vertex 6.952882e-001 -2.139877e+000 0.000000e+000
         vertex 2.250000e+000 -2.250000e+000 0.000000e+000
         vertex -2.250000e+000 -2.250000e+000 0.000000e+000
      endloop
   endfacet
   facet normal 0.000000e+000 0.000000e+000 -1.000000e+000
      outer loop
         vertex 6.952882e-001 2.139877e+000 0.000000e+000
         vertex -6.952882e-001 2.139877e+000 0.000000e+000
         vertex 2.250000e+000 2.250000e+000 0.000000e+000
      endloop
   endfacet
   facet normal 0.000000e+000 0.000000e+000 1.000000e+000
      outer loop
         vertex 4.619398e+000 -1.913417e+000 1.500000e+000
         vertex 5.000000e+000 0.000000e+000 1.500000e+000
         vertex 2.250000e+000 0.000000e+000 1.500000e+000
      endloop
   endfacet
   facet normal 0.000000e+000 0.000000e+000 1.000000e+000
      outer loop
         vertex 4.619398e+000 1.913417e+000 1.500000e+000
         vertex 3.535534e+000 3.535534e+000 1.500000e+000
         vertex 2.250000e+000 2.250000e+000 1.500000e+000
      endloop
   endfacet
   facet normal 0.000000e+000 0.000000e+000 1.000000e+000
      outer loop
         vertex 1.913417e+000 4.619398e+000 1.500000e+000
         vertex 3.061617e-016 5.000000e+000 1.500000e+000
         vertex 2.250000e+000 2.250000e+000 1.500000e+000
      endloop
   endfacet
   facet normal -0.000000e+000 0.000000e+000 1.000000e+000
      outer loop
         vertex -1.913417e+000 4.619398e+000 1.500000e+000
         vertex -3.535534e+000 3.535534e+000 1.500000e+000
         vertex -2.250000e+000 2.250000e+000 1.500000e+000
      endloop
   endfacet
   facet normal -0.000000e+000 0.000000e+000 1.000000e+000
      outer loop
         vertex -4.619398e+000 1.913417e+000 1.500000e+000
         vertex -5.000000e+000 6.123234e-016 1.500000e+000
         vertex -2.250000e+000 2.755455e-016 1.500000e+000
      endloop
   endfacet
   facet normal 0.000000e+000 -0.000000e+000 1.000000e+000
      outer loop
         vertex -4.619398e+000 -1.913417e+000 1.500000e+000
         vertex -3.535534e+000 -3.535534e+000 1.500000e+000
         vertex -2.250000e+000 -2.250000e+000 1.500000e+000
      endloop
   endfacet
   facet normal 0.000000e+000 0.000000e+000 1.000000e+000
      outer loop
         vertex -1.913417e+000 -4.619398e+000 1.500000e+000
         vertex -9.184850e-016 -5.000000e+000 1.500000e+000
         vertex -2.250000e+000 -2.250000e+000 1.500000e+000
      endloop
   endfacet
   facet normal 0.000000e+000 0.000000e+000 1.000000e+000
      outer loop
         vertex 1.913417e+000 -4.619398e+000 1.500000e+000
         vertex 3.535534e+000 -3.535534e+000 1.500000e+000
         vertex 2.250000e+000 -2.250000e+000 1.500000e+000
      endloop
   endfacet
   facet normal 0.000000e+000 -0.000000e+000 1.000000e+000
      outer loop
         vertex 1.820288e+000 1.322517e+000 1.500000e+000
         vertex 2.250000e+000 0.000000e+000 1.500000e+000
         vertex 4.619398e+000 1.913417e+000 1.500000e+000
      endloop
   endfacet
   facet normal -0.000000e+000 0.000000e+000 1.000000e+000
      outer loop
         vertex 1.820288e+000 -1.322517e+000 1.500000e+000
         vertex 6.952882e-001 -2.139877e+000 1.500000e+000
         vertex 2.250000e+000 -2.250000e+000 1.500000e+000
      endloop
   endfacet
   facet normal 0.000000e+000 0.000000e+000 1.000000e+000
      outer loop
         vertex -6.952882e-001 -2.139877e+000 1.500000e+000
         vertex -1.820288e+000 -1.322517e+000 1.500000e+000
         vertex -2.250000e+000 -2.250000e+000 1.500000e+000
      endloop
   endfacet
   facet normal 0.000000e+000 0.000000e+000 1.000000e+000
      outer loop
         vertex -2.250000e+000 2.755455e-016 1.500000e+000
         vertex -1.820288e+000 1.322517e+000 1.500000e+000
         vertex -4.619398e+000 1.913417e+000 1.500000e+000
      endloop
   endfacet
   facet normal 0.000000e+000 -0.000000e+000 1.000000e+000
      outer loop
         vertex 6.952882e-001 2.139877e+000 1.500000e+000
         vertex 1.820288e+000 1.322517e+000 1.500000e+000
         vertex 2.250000e+000 2.250000e+000 1.500000e+000
      endloop
   endfacet
   facet normal 0.000000e+000 0.000000e+000 1.000000e+000
      outer loop
         vertex -2.250000e+000 -2.250000e+000 1.500000e+000
         vertex 2.250000e+000 -2.250000e+000 1.500000e+000
         vertex 6.952882e-001 -2.139877e+000 1.500000e+000
      endloop
   endfacet
   facet normal 0.000000e+000 0.000000e+000 1.000000e+000
      outer loop
         vertex -2.250000e+000 2.250000e+000 1.500000e+000
         vertex 2.250000e+000 2.250000e+000 1.500000e+000
         vertex 3.061617e-016 5.000000e+000 1.500000e+000
      endloop
   endfacet
   facet normal 0.000000e+000 0.000000e+000 1.000000e+000
      outer loop
         vertex 2.250000e+000 0.000000e+000 1.500000e+000
         vertex 5.000000e+000 0.000000e+000 1.500000e+000
         vertex 4.619398e+000 1.913417e+000 1.500000e+000
      endloop
   endfacet
   facet normal 0.000000e+000 -0.000000e+000 1.000000e+000
      outer loop
         vertex 1.913417e+000 4.619398e+000 1.500000e+000
         vertex 2.250000e+000 2.250000e+000 1.500000e+000
         vertex 3.535534e+000 3.535534e+000 1.500000e+000
      endloop
   endfacet
   facet normal 0.000000e+000 -0.000000e+000 1.000000e+000
      outer loop
         vertex -4.619398e+000 -1.913417e+000 1.500000e+000
         vertex -2.250000e+000 -2.250000e+000 1.500000e+000
         vertex -1.820288e+000 -1.322517e+000 1.500000e+000
      endloop
   endfacet
   facet normal 0.000000e+000 0.000000e+000 1.000000e+000
      outer loop
         vertex -1.913417e+000 -4.619398e+000 1.500000e+000
         vertex -2.250000e+000 -2.250000e+000 1.500000e+000
         vertex -3.535534e+000 -3.535534e+000 1.500000e+000
      endloop
   endfacet
   facet normal 0.000000e+000 0.000000e+000 1.000000e+000
      outer loop
         vertex 1.820288e+000 1.322517e+000 1.500000e+000
         vertex 4.619398e+000 1.913417e+000 1.500000e+000
         vertex 2.250000e+000 2.250000e+000 1.500000e+000
      endloop
   endfacet
   facet normal 0.000000e+000 0.000000e+000 1.000000e+000
      outer loop
         vertex -4.619398e+000 1.913417e+000 1.500000e+000
         vertex -1.820288e+000 1.322517e+000 1.500000e+000
         vertex -2.250000e+000 2.250000e+000 1.500000e+000
      endloop
   endfacet
   facet normal 0.000000e+000 0.000000e+000 1.000000e+000
      outer loop
         vertex -2.250000e+000 -2.250000e+000 1.500000e+000
         vertex 6.952882e-001 -2.139877e+000 1.500000e+000
         vertex -6.952882e-001 -2.139877e+000 1.500000e+000
      endloop
   endfacet
   facet normal 0.000000e+000 -0.000000e+000 1.000000e+000
      outer loop
         vertex -2.250000e+000 2.250000e+000 1.500000e+000
         vertex -1.820288e+000 1.322517e+000 1.500000e+000
         vertex -6.952882e-001 2.139877e+000 1.500000e+000
      endloop
   endfacet
   facet normal -0.000000e+000 0.000000e+000 1.000000e+000
      outer loop
         vertex 3.061617e-016 5.000000e+000 1.500000e+000
         vertex -1.913417e+000 4.619398e+000 1.500000e+000
         vertex -2.250000e+000 2.250000e+000 1.500000e+000
      endloop
   endfacet
   facet normal 0.000000e+000 -0.000000e+000 1.000000e+000
      outer loop
         vertex -5.000000e+000 6.123234e-016 1.500000e+000
         vertex -4.619398e+000 -1.913417e+000 1.500000e+000
         vertex -2.250000e+000 2.755455e-016 1.500000e+000
      endloop
   endfacet
   facet normal 0.000000e+000 0.000000e+000 1.000000e+000
      outer loop
         vertex 3.535534e+000 -3.535534e+000 1.500000e+000
         vertex 4.619398e+000 -1.913417e+000 1.500000e+000
         vertex 2.250000e+000 -2.250000e+000 1.500000e+000
      endloop
   endfacet
   facet normal 0.000000e+000 0.000000e+000 1.000000e+000
      outer loop
         vertex -1.820288e+000 -1.322517e+000 1.500000e+000
         vertex -2.250000e+000 2.755455e-016 1.500000e+000
         vertex -4.619398e+000 -1.913417e+000 1.500000e+000
      endloop
   endfacet
   facet normal -0.000000e+000 0.000000e+000 1.000000e+000
      outer loop
         vertex 2.250000e+000 -2.250000e+000 1.500000e+000
         vertex -2.250000e+000 -2.250000e+000 1.500000e+000
         vertex -9.184850e-016 -5.000000e+000 1.500000e+000
      endloop
   endfacet
   facet normal 0.000000e+000 0.000000e+000 1.000000e+000
      outer loop
         vertex 4.619398e+000 -1.913417e+000 1.500000e+000
         vertex 2.250000e+000 0.000000e+000 1.500000e+000
         vertex 1.820288e+000 -1.322517e+000 1.500000e+000
      endloop
   endfacet
   facet normal 0.000000e+000 -0.000000e+000 1.000000e+000
      outer loop
         vertex 1.820288e+000 -1.322517e+000 1.500000e+000
         vertex 2.250000e+000 -2.250000e+000 1.500000e+000
         vertex 4.619398e+000 -1.913417e+000 1.500000e+000
      endloop
   endfacet
   facet normal 0.000000e+000 0.000000e+000 1.000000e+000
      outer loop
         vertex -4.619398e+000 1.913417e+000 1.500000e+000
         vertex -2.250000e+000 2.250000e+000 1.500000e+000
         vertex -3.535534e+000 3.535534e+000 1.500000e+000
      endloop
   endfacet
   facet normal 0.000000e+000 -0.000000e+000 1.000000e+000
      outer loop
         vertex -9.184850e-016 -5.000000e+000 1.500000e+000
         vertex 1.913417e+000 -4.619398e+000 1.500000e+000
         vertex 2.250000e+000 -2.250000e+000 1.500000e+000
      endloop
   endfacet
   facet normal -0.000000e+000 0.000000e+000 1.000000e+000
      outer loop
         vertex 2.250000e+000 2.250000e+000 1.500000e+000
         vertex -2.250000e+000 2.250000e+000 1.500000e+000
         vertex -6.952882e-001 2.139877e+000 1.500000e+000
      endloop
   endfacet
   facet normal 0.000000e+000 0.000000e+000 1.000000e+000
      outer loop
         vertex 2.250000e+000 2.250000e+000 1.500000e+000
         vertex -6.952882e-001 2.139877e+000 1.500000e+000
         vertex 6.952882e-001 2.139877e+000 1.500000e+000
      endloop
   endfacet
   facet normal -9.510565e-001 -3.090170e-001 0.000000e+000
      outer loop
         vertex 1.820288e+000 1.322517e+000 0.000000e+000
         vertex 2.250000e+000 0.000000e+000 0.000000e+000
         vertex 2.250000e+000 0.000000e+000 1.500000e+000
      endloop
   endfacet
   facet normal 0.000000e+000 -1.000000e+000 0.000000e+000
      outer loop
         vertex -6.952882e-001 2.139877e+000 1.500000e+000
         vertex -6.952882e-001 2.139877e+000 0.000000e+000
         vertex 6.952882e-001 2.139877e+000 0.000000e+000
      endloop
   endfacet
   facet normal 9.510565e-001 -3.090170e-001 0.000000e+000
      outer loop
         vertex -2.250000e+000 2.755455e-016 1.500000e+000
         vertex -2.250000e+000 2.755455e-016 0.000000e+000
         vertex -1.820288e+000 1.322517e+000 0.000000e+000
      endloop
   endfacet
   facet normal 5.877852e-001 8.090170e-001 -0.000000e+000
      outer loop
         vertex -6.952882e-001 -2.139877e+000 1.500000e+000
         vertex -6.952882e-001 -2.139877e+000 0.000000e+000
         vertex -1.820288e+000 -1.322517e+000 0.000000e+000
      endloop
   endfacet
   facet normal -5.877852e-001 8.090170e-001 0.000000e+000
      outer loop
         vertex 1.820288e+000 -1.322517e+000 1.500000e+000
         vertex 1.820288e+000 -1.322517e+000 0.000000e+000
         vertex 6.952882e-001 -2.139877e+000 0.000000e+000
      endloop
   endfacet
   facet normal -9.510565e-001 3.090170e-001 0.000000e+000
      outer loop
         vertex 1.820288e+000 -1.322517e+000 0.000000e+000
         vertex 2.250000e+000 0.000000e+000 1.500000e+000
         vertex 2.250000e+000 0.000000e+000 0.000000e+000
      endloop
   endfacet
   facet normal -0.000000e+000 1.000000e+000 0.000000e+000
      outer loop
         vertex -6.952882e-001 -2.139877e+000 0.000000e+000
         vertex -6.952882e-001 -2.139877e+000 1.500000e+000
         vertex 6.952882e-001 -2.139877e+000 1.500000e+000
      endloop
   endfacet
   facet normal 9.510565e-001 3.090170e-001 0.000000e+000
      outer loop
         vertex -2.250000e+000 2.755455e-016 0.000000e+000
         vertex -2.250000e+000 2.755455e-016 1.500000e+000
         vertex -1.820288e+000 -1.322517e+000 1.500000e+000
      endloop
   endfacet
   facet normal 5.877852e-001 -8.090170e-001 0.000000e+000
      outer loop
         vertex -6.952882e-001 2.139877e+000 0.000000e+000
         vertex -6.952882e-001 2.139877e+000 1.500000e+000
         vertex -1.820288e+000 1.322517e+000 1.500000e+000
      endloop
   endfacet
   facet normal -5.877852e-001 -8.090170e-001 -0.000000e+000
      outer loop
         vertex 1.820288e+000 1.322517e+000 0.000000e+000
         vertex 1.820288e+000 1.322517e+000 1.500000e+000
         vertex 6.952882e-001 2.139877e+000 1.500000e+000
      endloop
   endfacet
   facet normal -9.510565e-001 -3.090170e-001 0.000000e+000
      outer loop
         vertex 1.820288e+000 1.322517e+000 1.500000e+000
         vertex 1.820288e+000 1.322517e+000 0.000000e+000
         vertex 2.250000e+000 0.000000e+000 1.500000e+000
      endloop
   endfacet
   facet normal 5.877852e-001 8.090170e-001 0.000000e+000
      outer loop
         vertex -1.820288e+000 -1.322517e+000 1.500000e+000
         vertex -6.952882e-001 -2.139877e+000 1.500000e+000
         vertex -1.820288e+000 -1.322517e+000 0.000000e+000
      endloop
   endfacet
   facet normal -9.510565e-001 3.090170e-001 0.000000e+000
      outer loop
         vertex 1.820288e+000 -1.322517e+000 1.500000e+000
         vertex 2.250000e+000 0.000000e+000 1.500000e+000
         vertex 1.820288e+000 -1.322517e+000 0.000000e+000
      endloop
   endfacet
   facet normal -5.877852e-001 -8.090170e-001 0.000000e+000
      outer loop
         vertex 6.952882e-001 2.139877e+000 0.000000e+000
         vertex 1.820288e+000 1.322517e+000 0.000000e+000
         vertex 6.952882e-001 2.139877e+000 1.500000e+000
      endloop
   endfacet
   facet normal 5.877852e-001 -8.090170e-001 0.000000e+000
      outer loop
         vertex -1.820288e+000 1.322517e+000 1.500000e+000
         vertex -1.820288e+000 1.322517e+000 0.000000e+000
         vertex -6.952882e-001 2.139877e+000 0.000000e+000
      endloop
   endfacet
   facet normal 0.000000e+000 1.000000e+000 -0.000000e+000
      outer loop
         vertex 6.952882e-001 -2.139877e+000 1.500000e+000
         vertex 6.952882e-001 -2.139877e+000 0.000000e+000
         vertex -6.952882e-001 -2.139877e+000 0.000000e+000
      endloop
   endfacet
   facet normal 9.510565e-001 -3.090170e-001 0.000000e+000
      outer loop
         vertex -1.820288e+000 1.322517e+000 0.000000e+000
         vertex -1.820288e+000 1.322517e+000 1.500000e+000
         vertex -2.250000e+000 2.755455e-016 1.500000e+000
      endloop
   endfacet
   facet normal 0.000000e+000 -1.000000e+000 0.000000e+000
      outer loop
         vertex 6.952882e-001 2.139877e+000 1.500000e+000
         vertex -6.952882e-001 2.139877e+000 1.500000e+000
         vertex 6.952882e-001 2.139877e+000 0.000000e+000
      endloop
   endfacet
   facet normal 9.510565e-001 3.090170e-001 0.000000e+000
      outer loop
         vertex -2.250000e+000 2.755455e-016 0.000000e+000
         vertex -1.820288e+000 -1.322517e+000 1.500000e+000
         vertex -1.820288e+000 -1.322517e+000 0.000000e+000
      endloop
   endfacet
   facet normal -5.877852e-001 8.090170e-001 0.000000e+000
      outer loop
         vertex 6.952882e-001 -2.139877e+000 0.000000e+000
         vertex 6.952882e-001 -2.139877e+000 1.500000e+000
         vertex 1.820288e+000 -1.322517e+000 1.500000e+000
      endloop
   endfacet
   facet normal 9.807853e-001 1.950903e-001 -0.000000e+000
      outer loop
         vertex 5.000000e+000 0.000000e+000 1.500000e+000
         vertex 5.000000e+000 0.000000e+000 0.000000e+000
         vertex 4.619398e+000 1.913417e+000 0.000000e+000
      endloop
   endfacet
   facet normal 5.555702e-001 8.314696e-001 -0.000000e+000
      outer loop
         vertex 3.535534e+000 3.535534e+000 0.000000e+000
         vertex 1.913417e+000 4.619398e+000 0.000000e+000
         vertex 1.913417e+000 4.619398e+000 1.500000e+000
      endloop
   endfacet
   facet normal -1.950903e-001 9.807853e-001 0.000000e+000
      outer loop
         vertex 3.061617e-016 5.000000e+000 0.000000e+000
         vertex -1.913417e+000 4.619398e+000 0.000000e+000
         vertex -1.913417e+000 4.619398e+000 1.500000e+000
      endloop
   endfacet
   facet normal -8.314696e-001 5.555702e-001 0.000000e+000
      outer loop
         vertex -3.535534e+000 3.535534e+000 0.000000e+000
         vertex -4.619398e+000 1.913417e+000 0.000000e+000
         vertex -4.619398e+000 1.913417e+000 1.500000e+000
      endloop
   endfacet
   facet normal -9.807853e-001 -1.950903e-001 0.000000e+000
      outer loop
         vertex -5.000000e+000 6.123234e-016 0.000000e+000
         vertex -4.619398e+000 -1.913417e+000 0.000000e+000
         vertex -4.619398e+000 -1.913417e+000 1.500000e+000
      endloop
   endfacet
   facet normal -5.555702e-001 -8.314696e-001 0.000000e+000
      outer loop
         vertex -3.535534e+000 -3.535534e+000 0.000000e+000
         vertex -1.913417e+000 -4.619398e+000 0.000000e+000
         vertex -1.913417e+000 -4.619398e+000 1.500000e+000
      endloop
   endfacet
   facet normal 1.950903e-001 -9.807853e-001 0.000000e+000
      outer loop
         vertex -9.184850e-016 -5.000000e+000 0.000000e+000
         vertex 1.913417e+000 -4.619398e+000 0.000000e+000
         vertex 1.913417e+000 -4.619398e+000 1.500000e+000
      endloop
   endfacet
   facet normal 8.314696e-001 -5.555702e-001 0.000000e+000
      outer loop
         vertex 3.535534e+000 -3.535534e+000 0.000000e+000
         vertex 4.619398e+000 -1.913417e+000 0.000000e+000
         vertex 4.619398e+000 -1.913417e+000 1.500000e+000
      endloop
   endfacet
   facet normal 9.807853e-001 -1.950903e-001 0.000000e+000
      outer loop
         vertex 5.000000e+000 0.000000e+000 0.000000e+000
         vertex 5.000000e+000 0.000000e+000 1.500000e+000
         vertex 4.619398e+000 -1.913417e+000 0.000000e+000
      endloop
   endfacet
   facet normal 5.555702e-001 -8.314696e-001 0.000000e+000
      outer loop
         vertex 3.535534e+000 -3.535534e+000 1.500000e+000
         vertex 1.913417e+000 -4.619398e+000 1.500000e+000
         vertex 1.913417e+000 -4.619398e+000 0.000000e+000
      endloop
   endfacet
   facet normal -1.950903e-001 -9.807853e-001 -0.000000e+000
      outer loop
         vertex -9.184850e-016 -5.000000e+000 1.500000e+000
         vertex -1.913417e+000 -4.619398e+000 1.500000e+000
         vertex -1.913417e+000 -4.619398e+000 0.000000e+000
      endloop
   endfacet
   facet normal -8.314696e-001 -5.555702e-001 -0.000000e+000
      outer loop
         vertex -3.535534e+000 -3.535534e+000 1.500000e+000
         vertex -4.619398e+000 -1.913417e+000 1.500000e+000
         vertex -4.619398e+000 -1.913417e+000 0.000000e+000
      endloop
   endfacet
   facet normal -9.807853e-001 1.950903e-001 0.000000e+000
      outer loop
         vertex -5.000000e+000 6.123234e-016 1.500000e+000
         vertex -4.619398e+000 1.913417e+000 1.500000e+000
         vertex -4.619398e+000 1.913417e+000 0.000000e+000
      endloop
   endfacet
   facet normal -5.555702e-001 8.314696e-001 0.000000e+000
      outer loop
         vertex -3.535534e+000 3.535534e+000 1.500000e+000
         vertex -1.913417e+000 4.619398e+000 1.500000e+000
         vertex -1.913417e+000 4.619398e+000 0.000000e+000
      endloop
   endfacet
   facet normal 1.950903e-001 9.807853e-001 0.000000e+000
      outer loop
         vertex 3.061617e-016 5.000000e+000 1.500000e+000
         vertex 1.913417e+000 4.619398e+000 1.500000e+000
         vertex 1.913417e+000 4.619398e+000 0.000000e+000
      endloop
   endfacet
   facet normal 8.314696e-001 5.555702e-001 0.000000e+000
      outer loop
         vertex 3.535534e+000 3.535534e+000 1.500000e+000
         vertex 4.619398e+000 1.913417e+000 1.500000e+000
         vertex 4.619398e+000 1.913417e+000 0.000000e+000
      endloop
   endfacet
   facet normal 9.807853e-001 1.950903e-001 -0.000000e+000
      outer loop
         vertex 5.000000e+000 0.000000e+000 1.500000e+000
         vertex 4.619398e+000 1.913417e+000 0.000000e+000
         vertex 4.619398e+000 1.913417e+000 1.500000e+000
      endloop
   endfacet
   facet normal -8.314696e-001 5.555702e-001 0.000000e+000
      outer loop
         vertex -3.535534e+000 3.535534e+000 0.000000e+000
         vertex -4.619398e+000 1.913417e+000 1.500000e+000
         vertex -3.535534e+000 3.535534e+000 1.500000e+000
      endloop
   endfacet
   facet normal 1.950903e-001 -9.807853e-001 0.000000e+000
      outer loop
         vertex -9.184850e-016 -5.000000e+000 0.000000e+000
         vertex 1.913417e+000 -4.619398e+000 1.500000e+000
         vertex -9.184850e-016 -5.000000e+000 1.500000e+000
      endloop
   endfacet
   facet normal 9.807853e-001 -1.950903e-001 0.000000e+000
      outer loop
         vertex 4.619398e+000 -1.913417e+000 0.000000e+000
         vertex 5.000000e+000 0.000000e+000 1.500000e+000
         vertex 4.619398e+000 -1.913417e+000 1.500000e+000
      endloop
   endfacet
   facet normal -9.807853e-001 1.950903e-001 0.000000e+000
      outer loop
         vertex -5.000000e+000 6.123234e-016 1.500000e+000
         vertex -4.619398e+000 1.913417e+000 0.000000e+000
         vertex -5.000000e+000 6.123234e-016 0.000000e+000
      endloop
   endfacet
   facet normal 8.314696e-001 5.555702e-001 0.000000e+000
      outer loop
         vertex 3.535534e+000 3.535534e+000 1.500000e+000
         vertex 4.619398e+000 1.913417e+000 0.000000e+000
         vertex 3.535534e+000 3.535534e+000 0.000000e+000
      endloop
   endfacet
   facet normal -9.807853e-001 -1.950903e-001 0.000000e+000
      outer loop
         vertex -5.000000e+000 6.123234e-016 1.500000e+000
         vertex -5.000000e+000 6.123234e-016 0.000000e+000
         vertex -4.619398e+000 -1.913417e+000 1.500000e+000
      endloop
   endfacet
   facet normal 1.950903e-001 9.807853e-001 -0.000000e+000
      outer loop
         vertex 1.913417e+000 4.619398e+000 0.000000e+000
         vertex 3.061617e-016 5.000000e+000 0.000000e+000
         vertex 3.061617e-016 5.000000e+000 1.500000e+000
      endloop
   endfacet
   facet normal -8.314696e-001 -5.555702e-001 0.000000e+000
      outer loop
         vertex -4.619398e+000 -1.913417e+000 0.000000e+000
         vertex -3.535534e+000 -3.535534e+000 0.000000e+000
         vertex -3.535534e+000 -3.535534e+000 1.500000e+000
      endloop
   endfacet
   facet normal 5.555702e-001 -8.314696e-001 0.000000e+000
      outer loop
         vertex 1.913417e+000 -4.619398e+000 0.000000e+000
         vertex 3.535534e+000 -3.535534e+000 0.000000e+000
         vertex 3.535534e+000 -3.535534e+000 1.500000e+000
      endloop
   endfacet
   facet normal -5.555702e-001 -8.314696e-001 -0.000000e+000
      outer loop
         vertex -1.913417e+000 -4.619398e+000 1.500000e+000
         vertex -3.535534e+000 -3.535534e+000 1.500000e+000
         vertex -3.535534e+000 -3.535534e+000 0.000000e+000
      endloop
   endfacet
   facet normal 5.555702e-001 8.314696e-001 0.000000e+000
      outer loop
         vertex 1.913417e+000 4.619398e+000 1.500000e+000
         vertex 3.535534e+000 3.535534e+000 1.500000e+000
         vertex 3.535534e+000 3.535534e+000 0.000000e+000
      endloop
   endfacet
   facet normal 8.314696e-001 -5.555702e-001 0.000000e+000
      outer loop
         vertex 3.535534e+000 -3.535534e+000 0.000000e+000
         vertex 4.619398e+000 -1.913417e+000 1.500000e+000
         vertex 3.535534e+000 -3.535534e+000 1.500000e+000
      endloop
   endfacet
   facet normal -5.555702e-001 8.314696e-001 0.000000e+000
      outer loop
         vertex -3.535534e+000 3.535534e+000 0.000000e+000
         vertex -3.535534e+000 3.535534e+000 1.500000e+000
         vertex -1.913417e+000 4.619398e+000 0.000000e+000
      endloop
   endfacet
   facet normal -1.950903e-001 -9.807853e-001 0.000000e+000
      outer loop
         vertex -1.913417e+000 -4.619398e+000 0.000000e+000
         vertex -9.184850e-016 -5.000000e+000 0.000000e+000
         vertex -9.184850e-016 -5.000000e+000 1.500000e+000
      endloop
   endfacet
   facet normal -1.950903e-001 9.807853e-001 0.000000e+000
      outer loop
         vertex 3.061617e-016 5.000000e+000 0.000000e+000
         vertex -1.913417e+000 4.619398e+000 1.500000e+000
         vertex 3.061617e-016 5.000000e+000 1.500000e+000
      endloop
   endfacet
endsolid
