solid Втулка-под-16мм-Ответ
facet normal 0.0 0.0 -1.0
  outer loop
    vertex -2.847009496127727 10.625184089179752 0.0
    vertex -3.999999999999999 -4.898587196589412e-16 2.8199664825478975e-15
    vertex -5.499999999999997 9.526279441628825 0.0
  endloop
endfacet
facet normal 0.0 0.0 -1.0
  outer loop
    vertex -3.999999999999999 -4.898587196589412e-16 2.8199664825478975e-15
    vertex -2.847009496127727 10.625184089179752 0.0
    vertex -3.863703305156273 1.0352761804100814 2.8199664825478975e-15
  endloop
endfacet
facet normal 0.0 0.0 -1.0
  outer loop
    vertex -3.863703305156273 1.0352761804100814 2.8199664825478975e-15
    vertex -2.847009496127727 10.625184089179752 0.0
    vertex -3.4641016151377544 1.999999999999999 2.8199664825478975e-15
  endloop
endfacet
facet normal 0.0 0.0 -1.0
  outer loop
    vertex -3.4641016151377544 1.999999999999999 2.8199664825478975e-15
    vertex -2.847009496127727 10.625184089179752 0.0
    vertex -2.828427124746191 2.8284271247461885 2.8199664825478975e-15
  endloop
endfacet
facet normal 0.0 0.0 -1.0
  outer loop
    vertex -2.828427124746191 2.8284271247461885 2.8199664825478975e-15
    vertex -2.847009496127727 10.625184089179752 0.0
    vertex 6.735557395310442e-16 11.0 0.0
  endloop
endfacet
facet normal 0.0 0.0 -1.0
  outer loop
    vertex -2.828427124746191 2.8284271247461885 2.8199664825478975e-15
    vertex 6.735557395310442e-16 11.0 0.0
    vertex -2.0000000000000013 3.464101615137753 2.8199664825478975e-15
  endloop
endfacet
facet normal 0.0 0.0 -1.0
  outer loop
    vertex -2.0000000000000013 3.464101615137753 2.8199664825478975e-15
    vertex 6.735557395310442e-16 11.0 0.0
    vertex -1.0352761804100858 3.863703305156272 2.8199664825478975e-15
  endloop
endfacet
facet normal 0.0 0.0 -1.0
  outer loop
    vertex -1.0352761804100858 3.863703305156272 2.8199664825478975e-15
    vertex 6.735557395310442e-16 11.0 0.0
    vertex -7.347880794884117e-16 3.9999999999999996 2.8199664825478975e-15
  endloop
endfacet
facet normal 0.0 0.0 -1.0
  outer loop
    vertex -7.347880794884117e-16 3.9999999999999996 2.8199664825478975e-15
    vertex 6.735557395310442e-16 11.0 0.0
    vertex 1.035276180410081 3.8637033051562732 2.8199664825478975e-15
  endloop
endfacet
facet normal 0.0 0.0 -1.0
  outer loop
    vertex 1.035276180410081 3.8637033051562732 2.8199664825478975e-15
    vertex 6.735557395310442e-16 11.0 0.0
    vertex 2.8470094961277304 10.62518408917975 0.0
  endloop
endfacet
facet normal 0.0 0.0 -1.0
  outer loop
    vertex 1.035276180410081 3.8637033051562732 2.8199664825478975e-15
    vertex 2.8470094961277304 10.62518408917975 0.0
    vertex 1.9999999999999967 3.464101615137756 2.8199664825478975e-15
  endloop
endfacet
facet normal 0.0 0.0 -1.0
  outer loop
    vertex 1.9999999999999967 3.464101615137756 2.8199664825478975e-15
    vertex 2.8470094961277304 10.62518408917975 0.0
    vertex 2.8284271247461885 2.8284271247461903 2.8199664825478975e-15
  endloop
endfacet
facet normal 0.0 0.0 -1.0
  outer loop
    vertex 2.8284271247461885 2.8284271247461903 2.8199664825478975e-15
    vertex 2.8470094961277304 10.62518408917975 0.0
    vertex 3.4641016151377526 2.0000000000000018 2.8199664825478975e-15
  endloop
endfacet
facet normal 0.0 0.0 -1.0
  outer loop
    vertex 3.4641016151377526 2.0000000000000018 2.8199664825478975e-15
    vertex 2.8470094961277304 10.62518408917975 0.0
    vertex 5.500000000000001 9.526279441628823 0.0
  endloop
endfacet
facet normal 0.0 0.0 -1.0
  outer loop
    vertex 3.4641016151377526 2.0000000000000018 2.8199664825478975e-15
    vertex 5.500000000000001 9.526279441628823 0.0
    vertex 3.8637033051562715 1.035276180410086 2.8199664825478975e-15
  endloop
endfacet
facet normal 0.0 0.0 -1.0
  outer loop
    vertex 3.8637033051562715 1.035276180410086 2.8199664825478975e-15
    vertex 5.500000000000001 9.526279441628823 0.0
    vertex 3.999999999999999 0.0 2.8199664825478975e-15
  endloop
endfacet
facet normal 0.0 0.0 -1.0
  outer loop
    vertex 3.999999999999999 0.0 2.8199664825478975e-15
    vertex 5.500000000000001 9.526279441628823 0.0
    vertex 5.499999999999993 -9.52627944162883 0.0
  endloop
endfacet
facet normal 0.0 0.0 -1.0
  outer loop
    vertex 5.499999999999993 -9.52627944162883 0.0
    vertex 5.500000000000001 9.526279441628823 0.0
    vertex 7.778174593052021 -7.778174593052023 0.0
  endloop
endfacet
facet normal 0.0 0.0 -1.0
  outer loop
    vertex 7.778174593052021 -7.778174593052023 0.0
    vertex 5.500000000000001 9.526279441628823 0.0
    vertex 7.7781745930520225 7.7781745930520225 0.0
  endloop
endfacet
facet normal 0.0 0.0 -1.0
  outer loop
    vertex 7.778174593052021 -7.778174593052023 0.0
    vertex 7.7781745930520225 7.7781745930520225 0.0
    vertex 9.526279441628823 -5.500000000000004 0.0
  endloop
endfacet
facet normal 0.0 0.0 -1.0
  outer loop
    vertex 9.526279441628823 -5.500000000000004 0.0
    vertex 7.7781745930520225 7.7781745930520225 0.0
    vertex 9.526279441628825 5.499999999999999 0.0
  endloop
endfacet
facet normal 0.0 0.0 -1.0
  outer loop
    vertex 9.526279441628823 -5.500000000000004 0.0
    vertex 9.526279441628825 5.499999999999999 0.0
    vertex 10.625184089179749 -2.847009496127737 0.0
  endloop
endfacet
facet normal 0.0 0.0 -1.0
  outer loop
    vertex 10.625184089179749 -2.847009496127737 0.0
    vertex 9.526279441628825 5.499999999999999 0.0
    vertex 10.625184089179752 2.8470094961277277 0.0
  endloop
endfacet
facet normal 0.0 0.0 -1.0
  outer loop
    vertex 10.625184089179749 -2.847009496127737 0.0
    vertex 10.625184089179752 2.8470094961277277 0.0
    vertex 11.0 0.0 0.0
  endloop
endfacet
facet normal 0.0 0.0 -1.0
  outer loop
    vertex -10.62518408917975 2.8470094961277312 0.0
    vertex -10.625184089179752 -2.8470094961277237 0.0
    vertex -11.0 1.3471114790620884e-15 0.0
  endloop
endfacet
facet normal 0.0 0.0 -1.0
  outer loop
    vertex -10.625184089179752 -2.8470094961277237 0.0
    vertex -10.62518408917975 2.8470094961277312 0.0
    vertex -9.526279441628827 -5.499999999999997 0.0
  endloop
endfacet
facet normal 0.0 0.0 -1.0
  outer loop
    vertex -9.526279441628827 -5.499999999999997 0.0
    vertex -10.62518408917975 2.8470094961277312 0.0
    vertex -9.526279441628823 5.5000000000000036 0.0
  endloop
endfacet
facet normal 0.0 0.0 -1.0
  outer loop
    vertex -9.526279441628827 -5.499999999999997 0.0
    vertex -9.526279441628823 5.5000000000000036 0.0
    vertex -7.778174593052027 -7.778174593052018 0.0
  endloop
endfacet
facet normal 0.0 0.0 -1.0
  outer loop
    vertex -7.778174593052027 -7.778174593052018 0.0
    vertex -9.526279441628823 5.5000000000000036 0.0
    vertex -7.7781745930520225 7.7781745930520225 0.0
  endloop
endfacet
facet normal 0.0 0.0 -1.0
  outer loop
    vertex -7.778174593052027 -7.778174593052018 0.0
    vertex -7.7781745930520225 7.7781745930520225 0.0
    vertex -5.500000000000004 -9.526279441628823 0.0
  endloop
endfacet
facet normal 0.0 0.0 -1.0
  outer loop
    vertex -5.500000000000004 -9.526279441628823 0.0
    vertex -7.7781745930520225 7.7781745930520225 0.0
    vertex -5.499999999999997 9.526279441628825 0.0
  endloop
endfacet
facet normal 0.0 0.0 -1.0
  outer loop
    vertex -5.500000000000004 -9.526279441628823 0.0
    vertex -5.499999999999997 9.526279441628825 0.0
    vertex -2.8470094961277366 -10.625184089179749 0.0
  endloop
endfacet
facet normal 0.0 0.0 -1.0
  outer loop
    vertex -2.8470094961277366 -10.625184089179749 0.0
    vertex -5.499999999999997 9.526279441628825 0.0
    vertex -3.999999999999999 -4.898587196589412e-16 2.8199664825478975e-15
  endloop
endfacet
facet normal 0.0 0.0 -1.0
  outer loop
    vertex -2.8470094961277366 -10.625184089179749 0.0
    vertex -3.999999999999999 -4.898587196589412e-16 2.8199664825478975e-15
    vertex -3.863703305156272 -1.035276180410084 2.8199664825478975e-15
  endloop
endfacet
facet normal 0.0 0.0 -1.0
  outer loop
    vertex -2.8470094961277366 -10.625184089179749 0.0
    vertex -3.863703305156272 -1.035276180410084 2.8199664825478975e-15
    vertex -3.464101615137753 -2.0000000000000013 2.8199664825478975e-15
  endloop
endfacet
facet normal 0.0 0.0 -1.0
  outer loop
    vertex -2.8470094961277366 -10.625184089179749 0.0
    vertex -3.464101615137753 -2.0000000000000013 2.8199664825478975e-15
    vertex -2.8284271247461894 -2.8284271247461903 2.8199664825478975e-15
  endloop
endfacet
facet normal 0.0 0.0 -1.0
  outer loop
    vertex -2.8470094961277366 -10.625184089179749 0.0
    vertex -2.8284271247461894 -2.8284271247461903 2.8199664825478975e-15
    vertex -2.0206672185931327e-15 -11.0 0.0
  endloop
endfacet
facet normal 0.0 0.0 -1.0
  outer loop
    vertex -2.0206672185931327e-15 -11.0 0.0
    vertex -2.8284271247461894 -2.8284271247461903 2.8199664825478975e-15
    vertex -1.9999999999999984 -3.4641016151377544 2.8199664825478975e-15
  endloop
endfacet
facet normal 0.0 0.0 -1.0
  outer loop
    vertex -2.0206672185931327e-15 -11.0 0.0
    vertex -1.9999999999999984 -3.4641016151377544 2.8199664825478975e-15
    vertex -1.0352761804100823 -3.863703305156273 2.8199664825478975e-15
  endloop
endfacet
facet normal 0.0 0.0 -1.0
  outer loop
    vertex -2.0206672185931327e-15 -11.0 0.0
    vertex -1.0352761804100823 -3.863703305156273 2.8199664825478975e-15
    vertex 2.449293598294706e-16 -3.9999999999999996 2.8199664825478975e-15
  endloop
endfacet
facet normal 0.0 0.0 -1.0
  outer loop
    vertex -2.0206672185931327e-15 -11.0 0.0
    vertex 2.449293598294706e-16 -3.9999999999999996 2.8199664825478975e-15
    vertex 2.8470094961277232 -10.625184089179752 0.0
  endloop
endfacet
facet normal 0.0 0.0 -1.0
  outer loop
    vertex 2.8470094961277232 -10.625184089179752 0.0
    vertex 2.449293598294706e-16 -3.9999999999999996 2.8199664825478975e-15
    vertex 1.0352761804100836 -3.863703305156273 2.8199664825478975e-15
  endloop
endfacet
facet normal 0.0 0.0 -1.0
  outer loop
    vertex 2.8470094961277232 -10.625184089179752 0.0
    vertex 1.0352761804100836 -3.863703305156273 2.8199664825478975e-15
    vertex 1.9999999999999998 -3.464101615137754 2.8199664825478975e-15
  endloop
endfacet
facet normal 0.0 0.0 -1.0
  outer loop
    vertex 2.8470094961277232 -10.625184089179752 0.0
    vertex 1.9999999999999998 -3.464101615137754 2.8199664825478975e-15
    vertex 2.82842712474619 -2.82842712474619 2.8199664825478975e-15
  endloop
endfacet
facet normal 0.0 0.0 -1.0
  outer loop
    vertex 2.8470094961277232 -10.625184089179752 0.0
    vertex 2.82842712474619 -2.82842712474619 2.8199664825478975e-15
    vertex 3.464101615137754 -1.9999999999999996 2.8199664825478975e-15
  endloop
endfacet
facet normal 0.0 0.0 -1.0
  outer loop
    vertex 2.8470094961277232 -10.625184089179752 0.0
    vertex 3.464101615137754 -1.9999999999999996 2.8199664825478975e-15
    vertex 5.499999999999993 -9.52627944162883 0.0
  endloop
endfacet
facet normal 0.0 0.0 -1.0
  outer loop
    vertex 5.499999999999993 -9.52627944162883 0.0
    vertex 3.464101615137754 -1.9999999999999996 2.8199664825478975e-15
    vertex 3.863703305156272 -1.035276180410083 2.8199664825478975e-15
  endloop
endfacet
facet normal 0.0 0.0 -1.0
  outer loop
    vertex 5.499999999999993 -9.52627944162883 0.0
    vertex 3.863703305156272 -1.035276180410083 2.8199664825478975e-15
    vertex 3.999999999999999 0.0 2.8199664825478975e-15
  endloop
endfacet
facet normal -0.0 -0.0 1.0
  outer loop
    vertex -10.625184089179752 -2.8470094961277237 5.0
    vertex -10.62518408917975 2.8470094961277312 5.0
    vertex -11.0 1.3471114790620884e-15 5.0
  endloop
endfacet
facet normal -0.0 -0.0 1.0
  outer loop
    vertex -10.62518408917975 2.8470094961277312 5.0
    vertex -10.625184089179752 -2.8470094961277237 5.0
    vertex -9.526279441628827 -5.499999999999997 5.0
  endloop
endfacet
facet normal -0.0 -0.0 1.0
  outer loop
    vertex -10.62518408917975 2.8470094961277312 5.0
    vertex -9.526279441628827 -5.499999999999997 5.0
    vertex -9.526279441628823 5.5000000000000036 5.0
  endloop
endfacet
facet normal -0.0 -0.0 1.0
  outer loop
    vertex -9.526279441628823 5.5000000000000036 5.0
    vertex -9.526279441628827 -5.499999999999997 5.0
    vertex -7.778174593052027 -7.778174593052018 5.0
  endloop
endfacet
facet normal -0.0 -0.0 1.0
  outer loop
    vertex -9.526279441628823 5.5000000000000036 5.0
    vertex -7.778174593052027 -7.778174593052018 5.0
    vertex -7.999999999999998 -9.797174393178824e-16 5.0
  endloop
endfacet
facet normal -0.0 -0.0 1.0
  outer loop
    vertex -7.999999999999998 -9.797174393178824e-16 5.0
    vertex -7.778174593052027 -7.778174593052018 5.0
    vertex -7.727406610312544 -2.070552360820168 5.0
  endloop
endfacet
facet normal -0.0 -0.0 1.0
  outer loop
    vertex -7.727406610312544 -2.070552360820168 5.0
    vertex -7.778174593052027 -7.778174593052018 5.0
    vertex -5.500000000000004 -9.526279441628823 5.0
  endloop
endfacet
facet normal -0.0 -0.0 1.0
  outer loop
    vertex -7.727406610312544 -2.070552360820168 5.0
    vertex -5.500000000000004 -9.526279441628823 5.0
    vertex -6.928203230275506 -4.000000000000003 5.0
  endloop
endfacet
facet normal -0.0 -0.0 1.0
  outer loop
    vertex -6.928203230275506 -4.000000000000003 5.0
    vertex -5.500000000000004 -9.526279441628823 5.0
    vertex -5.656854249492379 -5.656854249492381 5.0
  endloop
endfacet
facet normal -0.0 -0.0 1.0
  outer loop
    vertex -5.656854249492379 -5.656854249492381 5.0
    vertex -5.500000000000004 -9.526279441628823 5.0
    vertex -3.999999999999997 -6.928203230275509 5.0
  endloop
endfacet
facet normal -0.0 -0.0 1.0
  outer loop
    vertex -3.999999999999997 -6.928203230275509 5.0
    vertex -5.500000000000004 -9.526279441628823 5.0
    vertex -2.8470094961277366 -10.625184089179749 5.0
  endloop
endfacet
facet normal -0.0 -0.0 1.0
  outer loop
    vertex -3.999999999999997 -6.928203230275509 5.0
    vertex -2.8470094961277366 -10.625184089179749 5.0
    vertex -2.0705523608201646 -7.727406610312546 5.0
  endloop
endfacet
facet normal -0.0 -0.0 1.0
  outer loop
    vertex -2.0705523608201646 -7.727406610312546 5.0
    vertex -2.8470094961277366 -10.625184089179749 5.0
    vertex -2.0206672185931327e-15 -11.0 5.0
  endloop
endfacet
facet normal -0.0 -0.0 1.0
  outer loop
    vertex -2.0705523608201646 -7.727406610312546 5.0
    vertex -2.0206672185931327e-15 -11.0 5.0
    vertex 4.898587196589412e-16 -7.999999999999999 5.0
  endloop
endfacet
facet normal -0.0 -0.0 1.0
  outer loop
    vertex 4.898587196589412e-16 -7.999999999999999 5.0
    vertex -2.0206672185931327e-15 -11.0 5.0
    vertex 2.8470094961277232 -10.625184089179752 5.0
  endloop
endfacet
facet normal -0.0 -0.0 1.0
  outer loop
    vertex 4.898587196589412e-16 -7.999999999999999 5.0
    vertex 2.8470094961277232 -10.625184089179752 5.0
    vertex 2.0705523608201672 -7.727406610312546 5.0
  endloop
endfacet
facet normal -0.0 -0.0 1.0
  outer loop
    vertex 2.0705523608201672 -7.727406610312546 5.0
    vertex 2.8470094961277232 -10.625184089179752 5.0
    vertex 3.9999999999999996 -6.928203230275508 5.0
  endloop
endfacet
facet normal -0.0 -0.0 1.0
  outer loop
    vertex 3.9999999999999996 -6.928203230275508 5.0
    vertex 2.8470094961277232 -10.625184089179752 5.0
    vertex 5.499999999999993 -9.52627944162883 5.0
  endloop
endfacet
facet normal -0.0 -0.0 1.0
  outer loop
    vertex 3.9999999999999996 -6.928203230275508 5.0
    vertex 5.499999999999993 -9.52627944162883 5.0
    vertex 5.65685424949238 -5.65685424949238 5.0
  endloop
endfacet
facet normal -0.0 -0.0 1.0
  outer loop
    vertex 5.65685424949238 -5.65685424949238 5.0
    vertex 5.499999999999993 -9.52627944162883 5.0
    vertex 7.778174593052021 -7.778174593052023 5.0
  endloop
endfacet
facet normal -0.0 -0.0 1.0
  outer loop
    vertex 5.65685424949238 -5.65685424949238 5.0
    vertex 7.778174593052021 -7.778174593052023 5.0
    vertex 6.928203230275508 -3.999999999999999 5.0
  endloop
endfacet
facet normal -0.0 -0.0 1.0
  outer loop
    vertex 6.928203230275508 -3.999999999999999 5.0
    vertex 7.778174593052021 -7.778174593052023 5.0
    vertex 7.727406610312544 -2.070552360820166 5.0
  endloop
endfacet
facet normal -0.0 -0.0 1.0
  outer loop
    vertex 7.727406610312544 -2.070552360820166 5.0
    vertex 7.778174593052021 -7.778174593052023 5.0
    vertex 7.999999999999998 0.0 5.0
  endloop
endfacet
facet normal -0.0 -0.0 1.0
  outer loop
    vertex 7.999999999999998 0.0 5.0
    vertex 7.778174593052021 -7.778174593052023 5.0
    vertex 9.526279441628823 -5.500000000000004 5.0
  endloop
endfacet
facet normal -0.0 -0.0 1.0
  outer loop
    vertex -7.999999999999998 -9.797174393178824e-16 5.0
    vertex -7.7781745930520225 7.7781745930520225 5.0
    vertex -9.526279441628823 5.5000000000000036 5.0
  endloop
endfacet
facet normal -0.0 -0.0 1.0
  outer loop
    vertex -7.7781745930520225 7.7781745930520225 5.0
    vertex -7.999999999999998 -9.797174393178824e-16 5.0
    vertex -7.727406610312546 2.070552360820163 5.0
  endloop
endfacet
facet normal -0.0 -0.0 1.0
  outer loop
    vertex -7.7781745930520225 7.7781745930520225 5.0
    vertex -7.727406610312546 2.070552360820163 5.0
    vertex -5.499999999999997 9.526279441628825 5.0
  endloop
endfacet
facet normal -0.0 -0.0 1.0
  outer loop
    vertex -5.499999999999997 9.526279441628825 5.0
    vertex -7.727406610312546 2.070552360820163 5.0
    vertex -6.928203230275509 3.999999999999998 5.0
  endloop
endfacet
facet normal -0.0 -0.0 1.0
  outer loop
    vertex -5.499999999999997 9.526279441628825 5.0
    vertex -6.928203230275509 3.999999999999998 5.0
    vertex -5.656854249492382 5.656854249492377 5.0
  endloop
endfacet
facet normal -0.0 -0.0 1.0
  outer loop
    vertex -5.499999999999997 9.526279441628825 5.0
    vertex -5.656854249492382 5.656854249492377 5.0
    vertex -4.000000000000003 6.928203230275506 5.0
  endloop
endfacet
facet normal -0.0 -0.0 1.0
  outer loop
    vertex -5.499999999999997 9.526279441628825 5.0
    vertex -4.000000000000003 6.928203230275506 5.0
    vertex -2.847009496127727 10.625184089179752 5.0
  endloop
endfacet
facet normal -0.0 -0.0 1.0
  outer loop
    vertex -2.847009496127727 10.625184089179752 5.0
    vertex -4.000000000000003 6.928203230275506 5.0
    vertex -2.0705523608201717 7.727406610312544 5.0
  endloop
endfacet
facet normal -0.0 -0.0 1.0
  outer loop
    vertex -2.847009496127727 10.625184089179752 5.0
    vertex -2.0705523608201717 7.727406610312544 5.0
    vertex 6.735557395310442e-16 11.0 5.0
  endloop
endfacet
facet normal -0.0 -0.0 1.0
  outer loop
    vertex 6.735557395310442e-16 11.0 5.0
    vertex -2.0705523608201717 7.727406610312544 5.0
    vertex -1.4695761589768234e-15 7.999999999999999 5.0
  endloop
endfacet
facet normal -0.0 -0.0 1.0
  outer loop
    vertex 6.735557395310442e-16 11.0 5.0
    vertex -1.4695761589768234e-15 7.999999999999999 5.0
    vertex 2.070552360820162 7.7274066103125465 5.0
  endloop
endfacet
facet normal -0.0 -0.0 1.0
  outer loop
    vertex 6.735557395310442e-16 11.0 5.0
    vertex 2.070552360820162 7.7274066103125465 5.0
    vertex 2.8470094961277304 10.62518408917975 5.0
  endloop
endfacet
facet normal -0.0 -0.0 1.0
  outer loop
    vertex 2.8470094961277304 10.62518408917975 5.0
    vertex 2.070552360820162 7.7274066103125465 5.0
    vertex 3.9999999999999933 6.928203230275512 5.0
  endloop
endfacet
facet normal -0.0 -0.0 1.0
  outer loop
    vertex 2.8470094961277304 10.62518408917975 5.0
    vertex 3.9999999999999933 6.928203230275512 5.0
    vertex 5.500000000000001 9.526279441628823 5.0
  endloop
endfacet
facet normal -0.0 -0.0 1.0
  outer loop
    vertex 5.500000000000001 9.526279441628823 5.0
    vertex 3.9999999999999933 6.928203230275512 5.0
    vertex 5.656854249492377 5.656854249492381 5.0
  endloop
endfacet
facet normal -0.0 -0.0 1.0
  outer loop
    vertex 5.500000000000001 9.526279441628823 5.0
    vertex 5.656854249492377 5.656854249492381 5.0
    vertex 7.7781745930520225 7.7781745930520225 5.0
  endloop
endfacet
facet normal -0.0 -0.0 1.0
  outer loop
    vertex 7.7781745930520225 7.7781745930520225 5.0
    vertex 5.656854249492377 5.656854249492381 5.0
    vertex 6.928203230275505 4.0000000000000036 5.0
  endloop
endfacet
facet normal -0.0 -0.0 1.0
  outer loop
    vertex 7.7781745930520225 7.7781745930520225 5.0
    vertex 6.928203230275505 4.0000000000000036 5.0
    vertex 7.727406610312543 2.070552360820172 5.0
  endloop
endfacet
facet normal -0.0 -0.0 1.0
  outer loop
    vertex 7.7781745930520225 7.7781745930520225 5.0
    vertex 7.727406610312543 2.070552360820172 5.0
    vertex 7.999999999999998 0.0 5.0
  endloop
endfacet
facet normal -0.0 -0.0 1.0
  outer loop
    vertex 7.7781745930520225 7.7781745930520225 5.0
    vertex 7.999999999999998 0.0 5.0
    vertex 9.526279441628825 5.499999999999999 5.0
  endloop
endfacet
facet normal -0.0 -0.0 1.0
  outer loop
    vertex 9.526279441628825 5.499999999999999 5.0
    vertex 7.999999999999998 0.0 5.0
    vertex 9.526279441628823 -5.500000000000004 5.0
  endloop
endfacet
facet normal -0.0 -0.0 1.0
  outer loop
    vertex 9.526279441628825 5.499999999999999 5.0
    vertex 9.526279441628823 -5.500000000000004 5.0
    vertex 10.625184089179749 -2.847009496127737 5.0
  endloop
endfacet
facet normal -0.0 -0.0 1.0
  outer loop
    vertex 9.526279441628825 5.499999999999999 5.0
    vertex 10.625184089179749 -2.847009496127737 5.0
    vertex 10.625184089179752 2.8470094961277277 5.0
  endloop
endfacet
facet normal -0.0 -0.0 1.0
  outer loop
    vertex 10.625184089179752 2.8470094961277277 5.0
    vertex 10.625184089179749 -2.847009496127737 5.0
    vertex 11.0 0.0 5.0
  endloop
endfacet
facet normal 0.3826834323650889 -0.9238795325112871 0.0
  outer loop
    vertex 5.499999999999993 -9.52627944162883 5.0
    vertex 2.8470094961277232 -10.625184089179752 0.0
    vertex 5.499999999999993 -9.52627944162883 0.0
  endloop
endfacet
facet normal 0.3826834323650889 -0.9238795325112871 0.0
  outer loop
    vertex 2.8470094961277232 -10.625184089179752 0.0
    vertex 5.499999999999993 -9.52627944162883 5.0
    vertex 2.8470094961277232 -10.625184089179752 5.0
  endloop
endfacet
facet normal 0.1305261922200514 -0.9914448613738106 0.0
  outer loop
    vertex 2.8470094961277232 -10.625184089179752 5.0
    vertex -2.0206672185931327e-15 -11.0 0.0
    vertex 2.8470094961277232 -10.625184089179752 0.0
  endloop
endfacet
facet normal 0.1305261922200514 -0.9914448613738106 0.0
  outer loop
    vertex -2.0206672185931327e-15 -11.0 0.0
    vertex 2.8470094961277232 -10.625184089179752 5.0
    vertex -2.0206672185931327e-15 -11.0 5.0
  endloop
endfacet
facet normal -0.13052619222005193 -0.9914448613738104 -0.0
  outer loop
    vertex -2.0206672185931327e-15 -11.0 5.0
    vertex -2.8470094961277366 -10.625184089179749 0.0
    vertex -2.0206672185931327e-15 -11.0 0.0
  endloop
endfacet
facet normal -0.13052619222005193 -0.9914448613738104 -0.0
  outer loop
    vertex -2.8470094961277366 -10.625184089179749 0.0
    vertex -2.0206672185931327e-15 -11.0 5.0
    vertex -2.8470094961277366 -10.625184089179749 5.0
  endloop
endfacet
facet normal -0.3826834323650904 -0.9238795325112866 -0.0
  outer loop
    vertex -2.8470094961277366 -10.625184089179749 5.0
    vertex -5.500000000000004 -9.526279441628823 0.0
    vertex -2.8470094961277366 -10.625184089179749 0.0
  endloop
endfacet
facet normal -0.3826834323650904 -0.9238795325112866 -0.0
  outer loop
    vertex -5.500000000000004 -9.526279441628823 0.0
    vertex -2.8470094961277366 -10.625184089179749 5.0
    vertex -5.500000000000004 -9.526279441628823 5.0
  endloop
endfacet
facet normal -0.6087614290087212 -0.7933533402912349 -0.0
  outer loop
    vertex -5.500000000000004 -9.526279441628823 5.0
    vertex -7.778174593052027 -7.778174593052018 0.0
    vertex -5.500000000000004 -9.526279441628823 0.0
  endloop
endfacet
facet normal -0.6087614290087212 -0.7933533402912349 -0.0
  outer loop
    vertex -7.778174593052027 -7.778174593052018 0.0
    vertex -5.500000000000004 -9.526279441628823 5.0
    vertex -7.778174593052027 -7.778174593052018 5.0
  endloop
endfacet
facet normal -0.7933533402912354 -0.6087614290087204 -0.0
  outer loop
    vertex -9.526279441628827 -5.499999999999997 5.0
    vertex -7.778174593052027 -7.778174593052018 0.0
    vertex -7.778174593052027 -7.778174593052018 5.0
  endloop
endfacet
facet normal -0.7933533402912354 -0.6087614290087204 -0.0
  outer loop
    vertex -7.778174593052027 -7.778174593052018 0.0
    vertex -9.526279441628827 -5.499999999999997 5.0
    vertex -9.526279441628827 -5.499999999999997 0.0
  endloop
endfacet
facet normal -0.923879532511287 -0.3826834323650893 -0.0
  outer loop
    vertex -10.625184089179752 -2.8470094961277237 5.0
    vertex -9.526279441628827 -5.499999999999997 0.0
    vertex -9.526279441628827 -5.499999999999997 5.0
  endloop
endfacet
facet normal -0.923879532511287 -0.3826834323650893 -0.0
  outer loop
    vertex -9.526279441628827 -5.499999999999997 0.0
    vertex -10.625184089179752 -2.8470094961277237 5.0
    vertex -10.625184089179752 -2.8470094961277237 0.0
  endloop
endfacet
facet normal -0.9914448613738106 -0.13052619222005143 -0.0
  outer loop
    vertex -11.0 1.3471114790620884e-15 5.0
    vertex -10.625184089179752 -2.8470094961277237 0.0
    vertex -10.625184089179752 -2.8470094961277237 5.0
  endloop
endfacet
facet normal -0.9914448613738106 -0.13052619222005143 -0.0
  outer loop
    vertex -10.625184089179752 -2.8470094961277237 0.0
    vertex -11.0 1.3471114790620884e-15 5.0
    vertex -11.0 1.3471114790620884e-15 0.0
  endloop
endfacet
facet normal -0.9914448613738104 0.13052619222005168 0.0
  outer loop
    vertex -10.62518408917975 2.8470094961277312 5.0
    vertex -11.0 1.3471114790620884e-15 0.0
    vertex -11.0 1.3471114790620884e-15 5.0
  endloop
endfacet
facet normal -0.9914448613738104 0.13052619222005168 0.0
  outer loop
    vertex -11.0 1.3471114790620884e-15 0.0
    vertex -10.62518408917975 2.8470094961277312 5.0
    vertex -10.62518408917975 2.8470094961277312 0.0
  endloop
endfacet
facet normal -0.9238795325112866 0.3826834323650902 0.0
  outer loop
    vertex -9.526279441628823 5.5000000000000036 5.0
    vertex -10.62518408917975 2.8470094961277312 0.0
    vertex -10.62518408917975 2.8470094961277312 5.0
  endloop
endfacet
facet normal -0.9238795325112866 0.3826834323650902 0.0
  outer loop
    vertex -10.62518408917975 2.8470094961277312 0.0
    vertex -9.526279441628823 5.5000000000000036 5.0
    vertex -9.526279441628823 5.5000000000000036 0.0
  endloop
endfacet
facet normal -0.7933533402912352 0.6087614290087208 0.0
  outer loop
    vertex -7.7781745930520225 7.7781745930520225 5.0
    vertex -9.526279441628823 5.5000000000000036 0.0
    vertex -9.526279441628823 5.5000000000000036 5.0
  endloop
endfacet
facet normal -0.7933533402912352 0.6087614290087208 0.0
  outer loop
    vertex -9.526279441628823 5.5000000000000036 0.0
    vertex -7.7781745930520225 7.7781745930520225 5.0
    vertex -7.7781745930520225 7.7781745930520225 0.0
  endloop
endfacet
facet normal -0.6087614290087204 0.7933533402912354 0.0
  outer loop
    vertex -7.7781745930520225 7.7781745930520225 5.0
    vertex -5.499999999999997 9.526279441628825 0.0
    vertex -7.7781745930520225 7.7781745930520225 0.0
  endloop
endfacet
facet normal -0.6087614290087204 0.7933533402912354 0.0
  outer loop
    vertex -5.499999999999997 9.526279441628825 0.0
    vertex -7.7781745930520225 7.7781745930520225 5.0
    vertex -5.499999999999997 9.526279441628825 5.0
  endloop
endfacet
facet normal -0.3826834323650901 0.9238795325112868 0.0
  outer loop
    vertex -5.499999999999997 9.526279441628825 5.0
    vertex -2.847009496127727 10.625184089179752 0.0
    vertex -5.499999999999997 9.526279441628825 0.0
  endloop
endfacet
facet normal -0.3826834323650901 0.9238795325112868 0.0
  outer loop
    vertex -2.847009496127727 10.625184089179752 0.0
    vertex -5.499999999999997 9.526279441628825 5.0
    vertex -2.847009496127727 10.625184089179752 5.0
  endloop
endfacet
facet normal -0.1305261922200513 0.9914448613738105 0.0
  outer loop
    vertex -2.847009496127727 10.625184089179752 5.0
    vertex 6.735557395310442e-16 11.0 0.0
    vertex -2.847009496127727 10.625184089179752 0.0
  endloop
endfacet
facet normal -0.1305261922200513 0.9914448613738105 0.0
  outer loop
    vertex 6.735557395310442e-16 11.0 0.0
    vertex -2.847009496127727 10.625184089179752 5.0
    vertex 6.735557395310442e-16 11.0 5.0
  endloop
endfacet
facet normal 0.13052619222005168 0.9914448613738104 0.0
  outer loop
    vertex 6.735557395310442e-16 11.0 5.0
    vertex 2.8470094961277304 10.62518408917975 0.0
    vertex 6.735557395310442e-16 11.0 0.0
  endloop
endfacet
facet normal 0.13052619222005168 0.9914448613738104 0.0
  outer loop
    vertex 2.8470094961277304 10.62518408917975 0.0
    vertex 6.735557395310442e-16 11.0 5.0
    vertex 2.8470094961277304 10.62518408917975 5.0
  endloop
endfacet
facet normal 0.3826834323650901 0.9238795325112868 0.0
  outer loop
    vertex 2.8470094961277304 10.62518408917975 5.0
    vertex 5.500000000000001 9.526279441628823 0.0
    vertex 2.8470094961277304 10.62518408917975 0.0
  endloop
endfacet
facet normal 0.3826834323650901 0.9238795325112868 0.0
  outer loop
    vertex 5.500000000000001 9.526279441628823 0.0
    vertex 2.8470094961277304 10.62518408917975 5.0
    vertex 5.500000000000001 9.526279441628823 5.0
  endloop
endfacet
facet normal 0.6087614290087207 0.793353340291235 0.0
  outer loop
    vertex 5.500000000000001 9.526279441628823 5.0
    vertex 7.7781745930520225 7.7781745930520225 0.0
    vertex 5.500000000000001 9.526279441628823 0.0
  endloop
endfacet
facet normal 0.6087614290087207 0.793353340291235 0.0
  outer loop
    vertex 7.7781745930520225 7.7781745930520225 0.0
    vertex 5.500000000000001 9.526279441628823 5.0
    vertex 7.7781745930520225 7.7781745930520225 5.0
  endloop
endfacet
facet normal 0.7933533402912352 0.6087614290087207 0.0
  outer loop
    vertex 7.7781745930520225 7.7781745930520225 0.0
    vertex 9.526279441628825 5.499999999999999 5.0
    vertex 9.526279441628825 5.499999999999999 0.0
  endloop
endfacet
facet normal 0.7933533402912352 0.6087614290087207 0.0
  outer loop
    vertex 9.526279441628825 5.499999999999999 5.0
    vertex 7.7781745930520225 7.7781745930520225 0.0
    vertex 7.7781745930520225 7.7781745930520225 5.0
  endloop
endfacet
facet normal 0.9238795325112867 0.38268343236509 0.0
  outer loop
    vertex 9.526279441628825 5.499999999999999 0.0
    vertex 10.625184089179752 2.8470094961277277 5.0
    vertex 10.625184089179752 2.8470094961277277 0.0
  endloop
endfacet
facet normal 0.9238795325112867 0.38268343236509 0.0
  outer loop
    vertex 10.625184089179752 2.8470094961277277 5.0
    vertex 9.526279441628825 5.499999999999999 0.0
    vertex 9.526279441628825 5.499999999999999 5.0
  endloop
endfacet
facet normal 0.9914448613738106 0.1305261922200513 0.0
  outer loop
    vertex 10.625184089179752 2.8470094961277277 0.0
    vertex 11.0 0.0 5.0
    vertex 11.0 0.0 0.0
  endloop
endfacet
facet normal 0.9914448613738106 0.1305261922200513 0.0
  outer loop
    vertex 11.0 0.0 5.0
    vertex 10.625184089179752 2.8470094961277277 0.0
    vertex 10.625184089179752 2.8470094961277277 5.0
  endloop
endfacet
facet normal 0.9914448613738104 -0.13052619222005182 0.0
  outer loop
    vertex 11.0 0.0 0.0
    vertex 10.625184089179749 -2.847009496127737 5.0
    vertex 10.625184089179749 -2.847009496127737 0.0
  endloop
endfacet
facet normal 0.9914448613738104 -0.13052619222005182 0.0
  outer loop
    vertex 10.625184089179749 -2.847009496127737 5.0
    vertex 11.0 0.0 0.0
    vertex 11.0 0.0 5.0
  endloop
endfacet
facet normal 0.9238795325112865 -0.3826834323650904 0.0
  outer loop
    vertex 10.625184089179749 -2.847009496127737 0.0
    vertex 9.526279441628823 -5.500000000000004 5.0
    vertex 9.526279441628823 -5.500000000000004 0.0
  endloop
endfacet
facet normal 0.9238795325112865 -0.3826834323650904 0.0
  outer loop
    vertex 9.526279441628823 -5.500000000000004 5.0
    vertex 10.625184089179749 -2.847009496127737 0.0
    vertex 10.625184089179749 -2.847009496127737 5.0
  endloop
endfacet
facet normal 0.793353340291235 -0.6087614290087211 0.0
  outer loop
    vertex 9.526279441628823 -5.500000000000004 0.0
    vertex 7.778174593052021 -7.778174593052023 5.0
    vertex 7.778174593052021 -7.778174593052023 0.0
  endloop
endfacet
facet normal 0.793353340291235 -0.6087614290087211 0.0
  outer loop
    vertex 7.778174593052021 -7.778174593052023 5.0
    vertex 9.526279441628823 -5.500000000000004 0.0
    vertex 9.526279441628823 -5.500000000000004 5.0
  endloop
endfacet
facet normal 0.6087614290087204 -0.7933533402912353 0.0
  outer loop
    vertex 7.778174593052021 -7.778174593052023 5.0
    vertex 5.499999999999993 -9.52627944162883 0.0
    vertex 7.778174593052021 -7.778174593052023 0.0
  endloop
endfacet
facet normal 0.6087614290087204 -0.7933533402912353 0.0
  outer loop
    vertex 5.499999999999993 -9.52627944162883 0.0
    vertex 7.778174593052021 -7.778174593052023 5.0
    vertex 5.499999999999993 -9.52627944162883 5.0
  endloop
endfacet
facet normal 0.0 0.0 1.0
  outer loop
    vertex -7.727406610312544 -2.070552360820168 10.0
    vertex -7.727406610312546 2.070552360820163 10.0
    vertex -7.999999999999998 -9.797174393178824e-16 10.0
  endloop
endfacet
facet normal 0.0 0.0 1.0
  outer loop
    vertex -7.727406610312546 2.070552360820163 10.0
    vertex -7.727406610312544 -2.070552360820168 10.0
    vertex -6.928203230275509 3.999999999999998 10.0
  endloop
endfacet
facet normal 0.0 0.0 1.0
  outer loop
    vertex -6.928203230275509 3.999999999999998 10.0
    vertex -7.727406610312544 -2.070552360820168 10.0
    vertex -6.928203230275506 -4.000000000000003 10.0
  endloop
endfacet
facet normal 0.0 0.0 1.0
  outer loop
    vertex -6.928203230275509 3.999999999999998 10.0
    vertex -6.928203230275506 -4.000000000000003 10.0
    vertex -5.656854249492382 5.656854249492377 10.0
  endloop
endfacet
facet normal 0.0 0.0 1.0
  outer loop
    vertex -5.656854249492382 5.656854249492377 10.0
    vertex -6.928203230275506 -4.000000000000003 10.0
    vertex -5.656854249492379 -5.656854249492381 10.0
  endloop
endfacet
facet normal 0.0 0.0 1.0
  outer loop
    vertex -5.656854249492382 5.656854249492377 10.0
    vertex -5.656854249492379 -5.656854249492381 10.0
    vertex -4.000000000000003 6.928203230275506 10.0
  endloop
endfacet
facet normal 0.0 0.0 1.0
  outer loop
    vertex -4.000000000000003 6.928203230275506 10.0
    vertex -5.656854249492379 -5.656854249492381 10.0
    vertex -3.999999999999997 -6.928203230275509 10.0
  endloop
endfacet
facet normal 0.0 0.0 1.0
  outer loop
    vertex -4.000000000000003 6.928203230275506 10.0
    vertex -3.999999999999997 -6.928203230275509 10.0
    vertex -3.999999999999999 -4.898587196589412e-16 10.0
  endloop
endfacet
facet normal 0.0 0.0 1.0
  outer loop
    vertex -3.999999999999999 -4.898587196589412e-16 10.0
    vertex -3.999999999999997 -6.928203230275509 10.0
    vertex -3.863703305156272 -1.035276180410084 10.0
  endloop
endfacet
facet normal 0.0 0.0 1.0
  outer loop
    vertex -3.863703305156272 -1.035276180410084 10.0
    vertex -3.999999999999997 -6.928203230275509 10.0
    vertex -2.0705523608201646 -7.727406610312546 10.0
  endloop
endfacet
facet normal 0.0 0.0 1.0
  outer loop
    vertex -3.863703305156272 -1.035276180410084 10.0
    vertex -2.0705523608201646 -7.727406610312546 10.0
    vertex -3.464101615137753 -2.0000000000000013 10.0
  endloop
endfacet
facet normal 0.0 0.0 1.0
  outer loop
    vertex -3.464101615137753 -2.0000000000000013 10.0
    vertex -2.0705523608201646 -7.727406610312546 10.0
    vertex -2.8284271247461894 -2.8284271247461903 10.0
  endloop
endfacet
facet normal 0.0 0.0 1.0
  outer loop
    vertex -2.8284271247461894 -2.8284271247461903 10.0
    vertex -2.0705523608201646 -7.727406610312546 10.0
    vertex -1.9999999999999984 -3.4641016151377544 10.0
  endloop
endfacet
facet normal 0.0 0.0 1.0
  outer loop
    vertex -1.9999999999999984 -3.4641016151377544 10.0
    vertex -2.0705523608201646 -7.727406610312546 10.0
    vertex 4.898587196589412e-16 -7.999999999999999 10.0
  endloop
endfacet
facet normal 0.0 0.0 1.0
  outer loop
    vertex -1.9999999999999984 -3.4641016151377544 10.0
    vertex 4.898587196589412e-16 -7.999999999999999 10.0
    vertex -1.0352761804100823 -3.863703305156273 10.0
  endloop
endfacet
facet normal 0.0 0.0 1.0
  outer loop
    vertex -1.0352761804100823 -3.863703305156273 10.0
    vertex 4.898587196589412e-16 -7.999999999999999 10.0
    vertex 2.449293598294706e-16 -3.9999999999999996 10.0
  endloop
endfacet
facet normal 0.0 0.0 1.0
  outer loop
    vertex 2.449293598294706e-16 -3.9999999999999996 10.0
    vertex 4.898587196589412e-16 -7.999999999999999 10.0
    vertex 1.0352761804100836 -3.863703305156273 10.0
  endloop
endfacet
facet normal 0.0 0.0 1.0
  outer loop
    vertex 1.0352761804100836 -3.863703305156273 10.0
    vertex 4.898587196589412e-16 -7.999999999999999 10.0
    vertex 2.0705523608201672 -7.727406610312546 10.0
  endloop
endfacet
facet normal 0.0 0.0 1.0
  outer loop
    vertex 1.0352761804100836 -3.863703305156273 10.0
    vertex 2.0705523608201672 -7.727406610312546 10.0
    vertex 1.9999999999999998 -3.464101615137754 10.0
  endloop
endfacet
facet normal 0.0 0.0 1.0
  outer loop
    vertex 1.9999999999999998 -3.464101615137754 10.0
    vertex 2.0705523608201672 -7.727406610312546 10.0
    vertex 2.82842712474619 -2.82842712474619 10.0
  endloop
endfacet
facet normal 0.0 0.0 1.0
  outer loop
    vertex 2.82842712474619 -2.82842712474619 10.0
    vertex 2.0705523608201672 -7.727406610312546 10.0
    vertex 3.9999999999999996 -6.928203230275508 10.0
  endloop
endfacet
facet normal 0.0 0.0 1.0
  outer loop
    vertex 2.82842712474619 -2.82842712474619 10.0
    vertex 3.9999999999999996 -6.928203230275508 10.0
    vertex 3.464101615137754 -1.9999999999999996 10.0
  endloop
endfacet
facet normal 0.0 0.0 1.0
  outer loop
    vertex 3.464101615137754 -1.9999999999999996 10.0
    vertex 3.9999999999999996 -6.928203230275508 10.0
    vertex 3.863703305156272 -1.035276180410083 10.0
  endloop
endfacet
facet normal 0.0 0.0 1.0
  outer loop
    vertex 3.863703305156272 -1.035276180410083 10.0
    vertex 3.9999999999999996 -6.928203230275508 10.0
    vertex 3.999999999999999 0.0 10.0
  endloop
endfacet
facet normal 0.0 0.0 1.0
  outer loop
    vertex -4.000000000000003 6.928203230275506 10.0
    vertex -3.863703305156273 1.0352761804100814 10.0
    vertex -2.0705523608201717 7.727406610312544 10.0
  endloop
endfacet
facet normal 0.0 0.0 1.0
  outer loop
    vertex -3.863703305156273 1.0352761804100814 10.0
    vertex -4.000000000000003 6.928203230275506 10.0
    vertex -3.999999999999999 -4.898587196589412e-16 10.0
  endloop
endfacet
facet normal 0.0 0.0 1.0
  outer loop
    vertex -2.0705523608201717 7.727406610312544 10.0
    vertex -3.863703305156273 1.0352761804100814 10.0
    vertex -3.4641016151377544 1.999999999999999 10.0
  endloop
endfacet
facet normal 0.0 0.0 1.0
  outer loop
    vertex -2.0705523608201717 7.727406610312544 10.0
    vertex -3.4641016151377544 1.999999999999999 10.0
    vertex -2.828427124746191 2.8284271247461885 10.0
  endloop
endfacet
facet normal 0.0 0.0 1.0
  outer loop
    vertex -2.0705523608201717 7.727406610312544 10.0
    vertex -2.828427124746191 2.8284271247461885 10.0
    vertex -2.0000000000000013 3.464101615137753 10.0
  endloop
endfacet
facet normal 0.0 0.0 1.0
  outer loop
    vertex -2.0705523608201717 7.727406610312544 10.0
    vertex -2.0000000000000013 3.464101615137753 10.0
    vertex -1.4695761589768234e-15 7.999999999999999 10.0
  endloop
endfacet
facet normal 0.0 0.0 1.0
  outer loop
    vertex -1.4695761589768234e-15 7.999999999999999 10.0
    vertex -2.0000000000000013 3.464101615137753 10.0
    vertex -1.0352761804100858 3.863703305156272 10.0
  endloop
endfacet
facet normal 0.0 0.0 1.0
  outer loop
    vertex -1.4695761589768234e-15 7.999999999999999 10.0
    vertex -1.0352761804100858 3.863703305156272 10.0
    vertex -7.347880794884117e-16 3.9999999999999996 10.0
  endloop
endfacet
facet normal 0.0 0.0 1.0
  outer loop
    vertex -1.4695761589768234e-15 7.999999999999999 10.0
    vertex -7.347880794884117e-16 3.9999999999999996 10.0
    vertex 2.070552360820162 7.7274066103125465 10.0
  endloop
endfacet
facet normal 0.0 0.0 1.0
  outer loop
    vertex 2.070552360820162 7.7274066103125465 10.0
    vertex -7.347880794884117e-16 3.9999999999999996 10.0
    vertex 1.035276180410081 3.8637033051562732 10.0
  endloop
endfacet
facet normal 0.0 0.0 1.0
  outer loop
    vertex 2.070552360820162 7.7274066103125465 10.0
    vertex 1.035276180410081 3.8637033051562732 10.0
    vertex 1.9999999999999967 3.464101615137756 10.0
  endloop
endfacet
facet normal 0.0 0.0 1.0
  outer loop
    vertex 2.070552360820162 7.7274066103125465 10.0
    vertex 1.9999999999999967 3.464101615137756 10.0
    vertex 2.8284271247461885 2.8284271247461903 10.0
  endloop
endfacet
facet normal 0.0 0.0 1.0
  outer loop
    vertex 2.070552360820162 7.7274066103125465 10.0
    vertex 2.8284271247461885 2.8284271247461903 10.0
    vertex 3.9999999999999933 6.928203230275512 10.0
  endloop
endfacet
facet normal 0.0 0.0 1.0
  outer loop
    vertex 3.9999999999999933 6.928203230275512 10.0
    vertex 2.8284271247461885 2.8284271247461903 10.0
    vertex 3.4641016151377526 2.0000000000000018 10.0
  endloop
endfacet
facet normal 0.0 0.0 1.0
  outer loop
    vertex 3.9999999999999933 6.928203230275512 10.0
    vertex 3.4641016151377526 2.0000000000000018 10.0
    vertex 3.8637033051562715 1.035276180410086 10.0
  endloop
endfacet
facet normal 0.0 0.0 1.0
  outer loop
    vertex 3.9999999999999933 6.928203230275512 10.0
    vertex 3.8637033051562715 1.035276180410086 10.0
    vertex 3.999999999999999 0.0 10.0
  endloop
endfacet
facet normal 0.0 0.0 1.0
  outer loop
    vertex 3.9999999999999933 6.928203230275512 10.0
    vertex 3.999999999999999 0.0 10.0
    vertex 5.656854249492377 5.656854249492381 10.0
  endloop
endfacet
facet normal 0.0 0.0 1.0
  outer loop
    vertex 5.656854249492377 5.656854249492381 10.0
    vertex 3.999999999999999 0.0 10.0
    vertex 3.9999999999999996 -6.928203230275508 10.0
  endloop
endfacet
facet normal 0.0 0.0 1.0
  outer loop
    vertex 5.656854249492377 5.656854249492381 10.0
    vertex 3.9999999999999996 -6.928203230275508 10.0
    vertex 5.65685424949238 -5.65685424949238 10.0
  endloop
endfacet
facet normal 0.0 0.0 1.0
  outer loop
    vertex 5.656854249492377 5.656854249492381 10.0
    vertex 5.65685424949238 -5.65685424949238 10.0
    vertex 6.928203230275505 4.0000000000000036 10.0
  endloop
endfacet
facet normal 0.0 0.0 1.0
  outer loop
    vertex 6.928203230275505 4.0000000000000036 10.0
    vertex 5.65685424949238 -5.65685424949238 10.0
    vertex 6.928203230275508 -3.999999999999999 10.0
  endloop
endfacet
facet normal 0.0 0.0 1.0
  outer loop
    vertex 6.928203230275505 4.0000000000000036 10.0
    vertex 6.928203230275508 -3.999999999999999 10.0
    vertex 7.727406610312543 2.070552360820172 10.0
  endloop
endfacet
facet normal 0.0 0.0 1.0
  outer loop
    vertex 7.727406610312543 2.070552360820172 10.0
    vertex 6.928203230275508 -3.999999999999999 10.0
    vertex 7.727406610312544 -2.070552360820166 10.0
  endloop
endfacet
facet normal 0.0 0.0 1.0
  outer loop
    vertex 7.727406610312543 2.070552360820172 10.0
    vertex 7.727406610312544 -2.070552360820166 10.0
    vertex 7.999999999999998 0.0 10.0
  endloop
endfacet
facet normal -0.13052619222005216 0.9914448613738104 0.0
  outer loop
    vertex -2.0705523608201717 7.727406610312544 10.0
    vertex -1.4695761589768234e-15 7.999999999999999 5.0
    vertex -2.0705523608201717 7.727406610312544 5.0
  endloop
endfacet
facet normal -0.13052619222005216 0.9914448613738104 0.0
  outer loop
    vertex -1.4695761589768234e-15 7.999999999999999 5.0
    vertex -2.0705523608201717 7.727406610312544 10.0
    vertex -1.4695761589768234e-15 7.999999999999999 10.0
  endloop
endfacet
facet normal -0.3826834323650905 0.9238795325112865 0.0
  outer loop
    vertex -4.000000000000003 6.928203230275506 10.0
    vertex -2.0705523608201717 7.727406610312544 5.0
    vertex -4.000000000000003 6.928203230275506 5.0
  endloop
endfacet
facet normal -0.3826834323650905 0.9238795325112865 0.0
  outer loop
    vertex -2.0705523608201717 7.727406610312544 5.0
    vertex -4.000000000000003 6.928203230275506 10.0
    vertex -2.0705523608201717 7.727406610312544 10.0
  endloop
endfacet
facet normal -0.6087614290087209 0.7933533402912349 0.0
  outer loop
    vertex -5.656854249492382 5.656854249492377 10.0
    vertex -4.000000000000003 6.928203230275506 5.0
    vertex -5.656854249492382 5.656854249492377 5.0
  endloop
endfacet
facet normal -0.6087614290087209 0.7933533402912349 0.0
  outer loop
    vertex -4.000000000000003 6.928203230275506 5.0
    vertex -5.656854249492382 5.656854249492377 10.0
    vertex -4.000000000000003 6.928203230275506 10.0
  endloop
endfacet
facet normal -0.7933533402912355 0.6087614290087203 0.0
  outer loop
    vertex -5.656854249492382 5.656854249492377 10.0
    vertex -6.928203230275509 3.999999999999998 5.0
    vertex -6.928203230275509 3.999999999999998 10.0
  endloop
endfacet
facet normal -0.7933533402912355 0.6087614290087203 0.0
  outer loop
    vertex -6.928203230275509 3.999999999999998 5.0
    vertex -5.656854249492382 5.656854249492377 10.0
    vertex -5.656854249492382 5.656854249492377 5.0
  endloop
endfacet
facet normal -0.9238795325112871 0.38268343236508934 0.0
  outer loop
    vertex -6.928203230275509 3.999999999999998 10.0
    vertex -7.727406610312546 2.070552360820163 5.0
    vertex -7.727406610312546 2.070552360820163 10.0
  endloop
endfacet
facet normal -0.9238795325112871 0.38268343236508934 0.0
  outer loop
    vertex -7.727406610312546 2.070552360820163 5.0
    vertex -6.928203230275509 3.999999999999998 10.0
    vertex -6.928203230275509 3.999999999999998 5.0
  endloop
endfacet
facet normal -0.9914448613738106 0.13052619222005124 0.0
  outer loop
    vertex -7.727406610312546 2.070552360820163 10.0
    vertex -7.999999999999998 -9.797174393178824e-16 5.0
    vertex -7.999999999999998 -9.797174393178824e-16 10.0
  endloop
endfacet
facet normal -0.9914448613738106 0.13052619222005124 0.0
  outer loop
    vertex -7.999999999999998 -9.797174393178824e-16 5.0
    vertex -7.727406610312546 2.070552360820163 10.0
    vertex -7.727406610312546 2.070552360820163 5.0
  endloop
endfacet
facet normal -0.9914448613738104 -0.13052619222005168 -0.0
  outer loop
    vertex -7.999999999999998 -9.797174393178824e-16 10.0
    vertex -7.727406610312544 -2.070552360820168 5.0
    vertex -7.727406610312544 -2.070552360820168 10.0
  endloop
endfacet
facet normal -0.9914448613738104 -0.13052619222005168 -0.0
  outer loop
    vertex -7.727406610312544 -2.070552360820168 5.0
    vertex -7.999999999999998 -9.797174393178824e-16 10.0
    vertex -7.999999999999998 -9.797174393178824e-16 5.0
  endloop
endfacet
facet normal -0.9238795325112867 -0.3826834323650899 -0.0
  outer loop
    vertex -7.727406610312544 -2.070552360820168 10.0
    vertex -6.928203230275506 -4.000000000000003 5.0
    vertex -6.928203230275506 -4.000000000000003 10.0
  endloop
endfacet
facet normal -0.9238795325112867 -0.3826834323650899 -0.0
  outer loop
    vertex -6.928203230275506 -4.000000000000003 5.0
    vertex -7.727406610312544 -2.070552360820168 10.0
    vertex -7.727406610312544 -2.070552360820168 5.0
  endloop
endfacet
facet normal -0.793353340291235 -0.6087614290087208 -0.0
  outer loop
    vertex -6.928203230275506 -4.000000000000003 10.0
    vertex -5.656854249492379 -5.656854249492381 5.0
    vertex -5.656854249492379 -5.656854249492381 10.0
  endloop
endfacet
facet normal -0.793353340291235 -0.6087614290087208 -0.0
  outer loop
    vertex -5.656854249492379 -5.656854249492381 5.0
    vertex -6.928203230275506 -4.000000000000003 10.0
    vertex -6.928203230275506 -4.000000000000003 5.0
  endloop
endfacet
facet normal -0.6087614290087202 -0.7933533402912355 -0.0
  outer loop
    vertex -3.999999999999997 -6.928203230275509 10.0
    vertex -5.656854249492379 -5.656854249492381 5.0
    vertex -3.999999999999997 -6.928203230275509 5.0
  endloop
endfacet
facet normal -0.6087614290087202 -0.7933533402912355 -0.0
  outer loop
    vertex -5.656854249492379 -5.656854249492381 5.0
    vertex -3.999999999999997 -6.928203230275509 10.0
    vertex -5.656854249492379 -5.656854249492381 10.0
  endloop
endfacet
facet normal -0.3826834323650896 -0.9238795325112867 -0.0
  outer loop
    vertex -2.0705523608201646 -7.727406610312546 10.0
    vertex -3.999999999999997 -6.928203230275509 5.0
    vertex -2.0705523608201646 -7.727406610312546 5.0
  endloop
endfacet
facet normal -0.3826834323650896 -0.9238795325112867 -0.0
  outer loop
    vertex -3.999999999999997 -6.928203230275509 5.0
    vertex -2.0705523608201646 -7.727406610312546 10.0
    vertex -3.999999999999997 -6.928203230275509 10.0
  endloop
endfacet
facet normal -0.1305261922200518 -0.9914448613738104 -0.0
  outer loop
    vertex 4.898587196589412e-16 -7.999999999999999 10.0
    vertex -2.0705523608201646 -7.727406610312546 5.0
    vertex 4.898587196589412e-16 -7.999999999999999 5.0
  endloop
endfacet
facet normal -0.1305261922200518 -0.9914448613738104 -0.0
  outer loop
    vertex -2.0705523608201646 -7.727406610312546 5.0
    vertex 4.898587196589412e-16 -7.999999999999999 10.0
    vertex -2.0705523608201646 -7.727406610312546 10.0
  endloop
endfacet
facet normal 0.13052619222005168 -0.9914448613738104 0.0
  outer loop
    vertex 2.0705523608201672 -7.727406610312546 10.0
    vertex 4.898587196589412e-16 -7.999999999999999 5.0
    vertex 2.0705523608201672 -7.727406610312546 5.0
  endloop
endfacet
facet normal 0.13052619222005168 -0.9914448613738104 0.0
  outer loop
    vertex 4.898587196589412e-16 -7.999999999999999 5.0
    vertex 2.0705523608201672 -7.727406610312546 10.0
    vertex 4.898587196589412e-16 -7.999999999999999 10.0
  endloop
endfacet
facet normal 0.38268343236509034 -0.9238795325112867 0.0
  outer loop
    vertex 3.9999999999999996 -6.928203230275508 10.0
    vertex 2.0705523608201672 -7.727406610312546 5.0
    vertex 3.9999999999999996 -6.928203230275508 5.0
  endloop
endfacet
facet normal 0.38268343236509034 -0.9238795325112867 0.0
  outer loop
    vertex 2.0705523608201672 -7.727406610312546 5.0
    vertex 3.9999999999999996 -6.928203230275508 10.0
    vertex 2.0705523608201672 -7.727406610312546 10.0
  endloop
endfacet
facet normal 0.6087614290087205 -0.7933533402912353 0.0
  outer loop
    vertex 5.65685424949238 -5.65685424949238 10.0
    vertex 3.9999999999999996 -6.928203230275508 5.0
    vertex 5.65685424949238 -5.65685424949238 5.0
  endloop
endfacet
facet normal 0.6087614290087205 -0.7933533402912353 0.0
  outer loop
    vertex 3.9999999999999996 -6.928203230275508 5.0
    vertex 5.65685424949238 -5.65685424949238 10.0
    vertex 3.9999999999999996 -6.928203230275508 10.0
  endloop
endfacet
facet normal 0.7933533402912354 -0.6087614290087203 0.0
  outer loop
    vertex 6.928203230275508 -3.999999999999999 5.0
    vertex 5.65685424949238 -5.65685424949238 10.0
    vertex 5.65685424949238 -5.65685424949238 5.0
  endloop
endfacet
facet normal 0.7933533402912354 -0.6087614290087203 0.0
  outer loop
    vertex 5.65685424949238 -5.65685424949238 10.0
    vertex 6.928203230275508 -3.999999999999999 5.0
    vertex 6.928203230275508 -3.999999999999999 10.0
  endloop
endfacet
facet normal 0.9238795325112868 -0.38268343236508956 0.0
  outer loop
    vertex 7.727406610312544 -2.070552360820166 5.0
    vertex 6.928203230275508 -3.999999999999999 10.0
    vertex 6.928203230275508 -3.999999999999999 5.0
  endloop
endfacet
facet normal 0.9238795325112868 -0.38268343236508956 0.0
  outer loop
    vertex 6.928203230275508 -3.999999999999999 10.0
    vertex 7.727406610312544 -2.070552360820166 5.0
    vertex 7.727406610312544 -2.070552360820166 10.0
  endloop
endfacet
facet normal 0.9914448613738104 -0.13052619222005174 0.0
  outer loop
    vertex 7.999999999999998 0.0 5.0
    vertex 7.727406610312544 -2.070552360820166 10.0
    vertex 7.727406610312544 -2.070552360820166 5.0
  endloop
endfacet
facet normal 0.9914448613738104 -0.13052619222005174 0.0
  outer loop
    vertex 7.727406610312544 -2.070552360820166 10.0
    vertex 7.999999999999998 0.0 5.0
    vertex 7.999999999999998 0.0 10.0
  endloop
endfacet
facet normal 0.9914448613738104 0.13052619222005202 0.0
  outer loop
    vertex 7.727406610312543 2.070552360820172 5.0
    vertex 7.999999999999998 0.0 10.0
    vertex 7.999999999999998 0.0 5.0
  endloop
endfacet
facet normal 0.9914448613738104 0.13052619222005202 0.0
  outer loop
    vertex 7.999999999999998 0.0 10.0
    vertex 7.727406610312543 2.070552360820172 5.0
    vertex 7.727406610312543 2.070552360820172 10.0
  endloop
endfacet
facet normal 0.9238795325112865 0.3826834323650905 0.0
  outer loop
    vertex 6.928203230275505 4.0000000000000036 5.0
    vertex 7.727406610312543 2.070552360820172 10.0
    vertex 7.727406610312543 2.070552360820172 5.0
  endloop
endfacet
facet normal 0.9238795325112865 0.3826834323650905 0.0
  outer loop
    vertex 7.727406610312543 2.070552360820172 10.0
    vertex 6.928203230275505 4.0000000000000036 5.0
    vertex 6.928203230275505 4.0000000000000036 10.0
  endloop
endfacet
facet normal 0.793353340291235 0.6087614290087208 0.0
  outer loop
    vertex 5.656854249492377 5.656854249492381 5.0
    vertex 6.928203230275505 4.0000000000000036 10.0
    vertex 6.928203230275505 4.0000000000000036 5.0
  endloop
endfacet
facet normal 0.793353340291235 0.6087614290087208 0.0
  outer loop
    vertex 6.928203230275505 4.0000000000000036 10.0
    vertex 5.656854249492377 5.656854249492381 5.0
    vertex 5.656854249492377 5.656854249492381 10.0
  endloop
endfacet
facet normal 0.6087614290087204 0.7933533402912355 0.0
  outer loop
    vertex 3.9999999999999933 6.928203230275512 10.0
    vertex 5.656854249492377 5.656854249492381 5.0
    vertex 3.9999999999999933 6.928203230275512 5.0
  endloop
endfacet
facet normal 0.6087614290087204 0.7933533402912355 0.0
  outer loop
    vertex 5.656854249492377 5.656854249492381 5.0
    vertex 3.9999999999999933 6.928203230275512 10.0
    vertex 5.656854249492377 5.656854249492381 10.0
  endloop
endfacet
facet normal 0.3826834323650892 0.923879532511287 0.0
  outer loop
    vertex 2.070552360820162 7.7274066103125465 10.0
    vertex 3.9999999999999933 6.928203230275512 5.0
    vertex 2.070552360820162 7.7274066103125465 5.0
  endloop
endfacet
facet normal 0.3826834323650892 0.923879532511287 0.0
  outer loop
    vertex 3.9999999999999933 6.928203230275512 5.0
    vertex 2.070552360820162 7.7274066103125465 10.0
    vertex 3.9999999999999933 6.928203230275512 10.0
  endloop
endfacet
facet normal 0.13052619222005127 0.9914448613738106 0.0
  outer loop
    vertex -1.4695761589768234e-15 7.999999999999999 10.0
    vertex 2.070552360820162 7.7274066103125465 5.0
    vertex -1.4695761589768234e-15 7.999999999999999 5.0
  endloop
endfacet
facet normal 0.13052619222005127 0.9914448613738106 0.0
  outer loop
    vertex 2.070552360820162 7.7274066103125465 5.0
    vertex -1.4695761589768234e-15 7.999999999999999 10.0
    vertex 2.070552360820162 7.7274066103125465 10.0
  endloop
endfacet
facet normal 0.6087614290087202 0.7933533402912355 0.0
  outer loop
    vertex -2.8284271247461894 -2.8284271247461903 10.0
    vertex -1.9999999999999984 -3.4641016151377544 2.8199664825478975e-15
    vertex -2.8284271247461894 -2.8284271247461903 2.8199664825478975e-15
  endloop
endfacet
facet normal 0.6087614290087202 0.7933533402912355 0.0
  outer loop
    vertex -1.9999999999999984 -3.4641016151377544 2.8199664825478975e-15
    vertex -2.8284271247461894 -2.8284271247461903 10.0
    vertex -1.9999999999999984 -3.4641016151377544 10.0
  endloop
endfacet
facet normal 0.3826834323650896 0.9238795325112867 0.0
  outer loop
    vertex -1.9999999999999984 -3.4641016151377544 10.0
    vertex -1.0352761804100823 -3.863703305156273 2.8199664825478975e-15
    vertex -1.9999999999999984 -3.4641016151377544 2.8199664825478975e-15
  endloop
endfacet
facet normal 0.3826834323650896 0.9238795325112867 0.0
  outer loop
    vertex -1.0352761804100823 -3.863703305156273 2.8199664825478975e-15
    vertex -1.9999999999999984 -3.4641016151377544 10.0
    vertex -1.0352761804100823 -3.863703305156273 10.0
  endloop
endfacet
facet normal 0.1305261922200518 0.9914448613738104 0.0
  outer loop
    vertex -1.0352761804100823 -3.863703305156273 10.0
    vertex 2.449293598294706e-16 -3.9999999999999996 2.8199664825478975e-15
    vertex -1.0352761804100823 -3.863703305156273 2.8199664825478975e-15
  endloop
endfacet
facet normal 0.1305261922200518 0.9914448613738104 0.0
  outer loop
    vertex 2.449293598294706e-16 -3.9999999999999996 2.8199664825478975e-15
    vertex -1.0352761804100823 -3.863703305156273 10.0
    vertex 2.449293598294706e-16 -3.9999999999999996 10.0
  endloop
endfacet
facet normal -0.13052619222005168 0.9914448613738104 -0.0
  outer loop
    vertex 2.449293598294706e-16 -3.9999999999999996 10.0
    vertex 1.0352761804100836 -3.863703305156273 2.8199664825478975e-15
    vertex 2.449293598294706e-16 -3.9999999999999996 2.8199664825478975e-15
  endloop
endfacet
facet normal -0.13052619222005168 0.9914448613738104 -0.0
  outer loop
    vertex 1.0352761804100836 -3.863703305156273 2.8199664825478975e-15
    vertex 2.449293598294706e-16 -3.9999999999999996 10.0
    vertex 1.0352761804100836 -3.863703305156273 10.0
  endloop
endfacet
facet normal -0.38268343236509034 0.9238795325112867 -0.0
  outer loop
    vertex 1.0352761804100836 -3.863703305156273 10.0
    vertex 1.9999999999999998 -3.464101615137754 2.8199664825478975e-15
    vertex 1.0352761804100836 -3.863703305156273 2.8199664825478975e-15
  endloop
endfacet
facet normal -0.38268343236509034 0.9238795325112867 -0.0
  outer loop
    vertex 1.9999999999999998 -3.464101615137754 2.8199664825478975e-15
    vertex 1.0352761804100836 -3.863703305156273 10.0
    vertex 1.9999999999999998 -3.464101615137754 10.0
  endloop
endfacet
facet normal -0.6087614290087205 0.7933533402912353 -0.0
  outer loop
    vertex 1.9999999999999998 -3.464101615137754 10.0
    vertex 2.82842712474619 -2.82842712474619 2.8199664825478975e-15
    vertex 1.9999999999999998 -3.464101615137754 2.8199664825478975e-15
  endloop
endfacet
facet normal -0.6087614290087205 0.7933533402912353 -0.0
  outer loop
    vertex 2.82842712474619 -2.82842712474619 2.8199664825478975e-15
    vertex 1.9999999999999998 -3.464101615137754 10.0
    vertex 2.82842712474619 -2.82842712474619 10.0
  endloop
endfacet
facet normal -0.7933533402912354 0.6087614290087203 -0.0
  outer loop
    vertex 3.464101615137754 -1.9999999999999996 10.0
    vertex 2.82842712474619 -2.82842712474619 2.8199664825478975e-15
    vertex 2.82842712474619 -2.82842712474619 10.0
  endloop
endfacet
facet normal -0.7933533402912354 0.6087614290087203 -0.0
  outer loop
    vertex 2.82842712474619 -2.82842712474619 2.8199664825478975e-15
    vertex 3.464101615137754 -1.9999999999999996 10.0
    vertex 3.464101615137754 -1.9999999999999996 2.8199664825478975e-15
  endloop
endfacet
facet normal -0.9238795325112868 0.38268343236508956 -0.0
  outer loop
    vertex 3.863703305156272 -1.035276180410083 10.0
    vertex 3.464101615137754 -1.9999999999999996 2.8199664825478975e-15
    vertex 3.464101615137754 -1.9999999999999996 10.0
  endloop
endfacet
facet normal -0.9238795325112868 0.38268343236508956 -0.0
  outer loop
    vertex 3.464101615137754 -1.9999999999999996 2.8199664825478975e-15
    vertex 3.863703305156272 -1.035276180410083 10.0
    vertex 3.863703305156272 -1.035276180410083 2.8199664825478975e-15
  endloop
endfacet
facet normal -0.9914448613738104 0.13052619222005174 -0.0
  outer loop
    vertex 3.999999999999999 0.0 10.0
    vertex 3.863703305156272 -1.035276180410083 2.8199664825478975e-15
    vertex 3.863703305156272 -1.035276180410083 10.0
  endloop
endfacet
facet normal -0.9914448613738104 0.13052619222005174 -0.0
  outer loop
    vertex 3.863703305156272 -1.035276180410083 2.8199664825478975e-15
    vertex 3.999999999999999 0.0 10.0
    vertex 3.999999999999999 0.0 2.8199664825478975e-15
  endloop
endfacet
facet normal -0.9914448613738104 -0.13052619222005202 -0.0
  outer loop
    vertex 3.8637033051562715 1.035276180410086 10.0
    vertex 3.999999999999999 0.0 2.8199664825478975e-15
    vertex 3.999999999999999 0.0 10.0
  endloop
endfacet
facet normal -0.9914448613738104 -0.13052619222005202 -0.0
  outer loop
    vertex 3.999999999999999 0.0 2.8199664825478975e-15
    vertex 3.8637033051562715 1.035276180410086 10.0
    vertex 3.8637033051562715 1.035276180410086 2.8199664825478975e-15
  endloop
endfacet
facet normal -0.9238795325112865 -0.3826834323650905 -0.0
  outer loop
    vertex 3.4641016151377526 2.0000000000000018 10.0
    vertex 3.8637033051562715 1.035276180410086 2.8199664825478975e-15
    vertex 3.8637033051562715 1.035276180410086 10.0
  endloop
endfacet
facet normal -0.9238795325112865 -0.3826834323650905 -0.0
  outer loop
    vertex 3.8637033051562715 1.035276180410086 2.8199664825478975e-15
    vertex 3.4641016151377526 2.0000000000000018 10.0
    vertex 3.4641016151377526 2.0000000000000018 2.8199664825478975e-15
  endloop
endfacet
facet normal -0.793353340291235 -0.6087614290087208 -0.0
  outer loop
    vertex 2.8284271247461885 2.8284271247461903 10.0
    vertex 3.4641016151377526 2.0000000000000018 2.8199664825478975e-15
    vertex 3.4641016151377526 2.0000000000000018 10.0
  endloop
endfacet
facet normal -0.793353340291235 -0.6087614290087208 -0.0
  outer loop
    vertex 3.4641016151377526 2.0000000000000018 2.8199664825478975e-15
    vertex 2.8284271247461885 2.8284271247461903 10.0
    vertex 2.8284271247461885 2.8284271247461903 2.8199664825478975e-15
  endloop
endfacet
facet normal -0.6087614290087204 -0.7933533402912355 -0.0
  outer loop
    vertex 2.8284271247461885 2.8284271247461903 10.0
    vertex 1.9999999999999967 3.464101615137756 2.8199664825478975e-15
    vertex 2.8284271247461885 2.8284271247461903 2.8199664825478975e-15
  endloop
endfacet
facet normal -0.6087614290087204 -0.7933533402912355 -0.0
  outer loop
    vertex 1.9999999999999967 3.464101615137756 2.8199664825478975e-15
    vertex 2.8284271247461885 2.8284271247461903 10.0
    vertex 1.9999999999999967 3.464101615137756 10.0
  endloop
endfacet
facet normal -0.3826834323650892 -0.923879532511287 -0.0
  outer loop
    vertex 1.9999999999999967 3.464101615137756 10.0
    vertex 1.035276180410081 3.8637033051562732 2.8199664825478975e-15
    vertex 1.9999999999999967 3.464101615137756 2.8199664825478975e-15
  endloop
endfacet
facet normal -0.3826834323650892 -0.923879532511287 -0.0
  outer loop
    vertex 1.035276180410081 3.8637033051562732 2.8199664825478975e-15
    vertex 1.9999999999999967 3.464101615137756 10.0
    vertex 1.035276180410081 3.8637033051562732 10.0
  endloop
endfacet
facet normal -0.13052619222005127 -0.9914448613738106 -0.0
  outer loop
    vertex 1.035276180410081 3.8637033051562732 10.0
    vertex -7.347880794884117e-16 3.9999999999999996 2.8199664825478975e-15
    vertex 1.035276180410081 3.8637033051562732 2.8199664825478975e-15
  endloop
endfacet
facet normal -0.13052619222005127 -0.9914448613738106 -0.0
  outer loop
    vertex -7.347880794884117e-16 3.9999999999999996 2.8199664825478975e-15
    vertex 1.035276180410081 3.8637033051562732 10.0
    vertex -7.347880794884117e-16 3.9999999999999996 10.0
  endloop
endfacet
facet normal 0.13052619222005216 -0.9914448613738104 -0.0
  outer loop
    vertex -7.347880794884117e-16 3.9999999999999996 10.0
    vertex -1.0352761804100858 3.863703305156272 2.8199664825478975e-15
    vertex -7.347880794884117e-16 3.9999999999999996 2.8199664825478975e-15
  endloop
endfacet
facet normal 0.13052619222005216 -0.9914448613738104 -0.0
  outer loop
    vertex -1.0352761804100858 3.863703305156272 2.8199664825478975e-15
    vertex -7.347880794884117e-16 3.9999999999999996 10.0
    vertex -1.0352761804100858 3.863703305156272 10.0
  endloop
endfacet
facet normal 0.3826834323650905 -0.9238795325112865 -0.0
  outer loop
    vertex -1.0352761804100858 3.863703305156272 10.0
    vertex -2.0000000000000013 3.464101615137753 2.8199664825478975e-15
    vertex -1.0352761804100858 3.863703305156272 2.8199664825478975e-15
  endloop
endfacet
facet normal 0.3826834323650905 -0.9238795325112865 -0.0
  outer loop
    vertex -2.0000000000000013 3.464101615137753 2.8199664825478975e-15
    vertex -1.0352761804100858 3.863703305156272 10.0
    vertex -2.0000000000000013 3.464101615137753 10.0
  endloop
endfacet
facet normal 0.6087614290087209 -0.7933533402912349 -0.0
  outer loop
    vertex -2.0000000000000013 3.464101615137753 10.0
    vertex -2.828427124746191 2.8284271247461885 2.8199664825478975e-15
    vertex -2.0000000000000013 3.464101615137753 2.8199664825478975e-15
  endloop
endfacet
facet normal 0.6087614290087209 -0.7933533402912349 -0.0
  outer loop
    vertex -2.828427124746191 2.8284271247461885 2.8199664825478975e-15
    vertex -2.0000000000000013 3.464101615137753 10.0
    vertex -2.828427124746191 2.8284271247461885 10.0
  endloop
endfacet
facet normal 0.7933533402912355 -0.6087614290087203 -0.0
  outer loop
    vertex -2.828427124746191 2.8284271247461885 2.8199664825478975e-15
    vertex -3.4641016151377544 1.999999999999999 10.0
    vertex -3.4641016151377544 1.999999999999999 2.8199664825478975e-15
  endloop
endfacet
facet normal 0.7933533402912355 -0.6087614290087203 -0.0
  outer loop
    vertex -3.4641016151377544 1.999999999999999 10.0
    vertex -2.828427124746191 2.8284271247461885 2.8199664825478975e-15
    vertex -2.828427124746191 2.8284271247461885 10.0
  endloop
endfacet
facet normal 0.9238795325112871 -0.38268343236508934 -0.0
  outer loop
    vertex -3.4641016151377544 1.999999999999999 2.8199664825478975e-15
    vertex -3.863703305156273 1.0352761804100814 10.0
    vertex -3.863703305156273 1.0352761804100814 2.8199664825478975e-15
  endloop
endfacet
facet normal 0.9238795325112871 -0.38268343236508934 -0.0
  outer loop
    vertex -3.863703305156273 1.0352761804100814 10.0
    vertex -3.4641016151377544 1.999999999999999 2.8199664825478975e-15
    vertex -3.4641016151377544 1.999999999999999 10.0
  endloop
endfacet
facet normal 0.9914448613738106 -0.13052619222005124 -0.0
  outer loop
    vertex -3.863703305156273 1.0352761804100814 2.8199664825478975e-15
    vertex -3.999999999999999 -4.898587196589412e-16 10.0
    vertex -3.999999999999999 -4.898587196589412e-16 2.8199664825478975e-15
  endloop
endfacet
facet normal 0.9914448613738106 -0.13052619222005124 -0.0
  outer loop
    vertex -3.999999999999999 -4.898587196589412e-16 10.0
    vertex -3.863703305156273 1.0352761804100814 2.8199664825478975e-15
    vertex -3.863703305156273 1.0352761804100814 10.0
  endloop
endfacet
facet normal 0.9914448613738104 0.13052619222005168 0.0
  outer loop
    vertex -3.999999999999999 -4.898587196589412e-16 2.8199664825478975e-15
    vertex -3.863703305156272 -1.035276180410084 10.0
    vertex -3.863703305156272 -1.035276180410084 2.8199664825478975e-15
  endloop
endfacet
facet normal 0.9914448613738104 0.13052619222005168 0.0
  outer loop
    vertex -3.863703305156272 -1.035276180410084 10.0
    vertex -3.999999999999999 -4.898587196589412e-16 2.8199664825478975e-15
    vertex -3.999999999999999 -4.898587196589412e-16 10.0
  endloop
endfacet
facet normal 0.9238795325112867 0.3826834323650899 0.0
  outer loop
    vertex -3.863703305156272 -1.035276180410084 2.8199664825478975e-15
    vertex -3.464101615137753 -2.0000000000000013 10.0
    vertex -3.464101615137753 -2.0000000000000013 2.8199664825478975e-15
  endloop
endfacet
facet normal 0.9238795325112867 0.3826834323650899 0.0
  outer loop
    vertex -3.464101615137753 -2.0000000000000013 10.0
    vertex -3.863703305156272 -1.035276180410084 2.8199664825478975e-15
    vertex -3.863703305156272 -1.035276180410084 10.0
  endloop
endfacet
facet normal 0.793353340291235 0.6087614290087208 0.0
  outer loop
    vertex -3.464101615137753 -2.0000000000000013 2.8199664825478975e-15
    vertex -2.8284271247461894 -2.8284271247461903 10.0
    vertex -2.8284271247461894 -2.8284271247461903 2.8199664825478975e-15
  endloop
endfacet
facet normal 0.793353340291235 0.6087614290087208 0.0
  outer loop
    vertex -2.8284271247461894 -2.8284271247461903 10.0
    vertex -3.464101615137753 -2.0000000000000013 2.8199664825478975e-15
    vertex -3.464101615137753 -2.0000000000000013 10.0
  endloop
endfacet
endsolid Втулка-под-16мм-Ответ
