solid Крестовина-КВАДРАТ-Половина
facet normal -0.0 1.0 -0.0
  outer loop
    vertex -46.99999999999999 3.0000000000000058 3.0
    vertex -22.400000000000006 3.0000000000000058 6.0
    vertex -2.9999999999999987 3.0000000000000058 3.0000000000000004
  endloop
endfacet
facet normal -0.0 1.0 -0.0
  outer loop
    vertex -22.400000000000006 3.0000000000000058 6.0
    vertex -46.99999999999999 3.0000000000000058 3.0
    vertex -46.99999999999999 3.0000000000000058 22.000000000000004
  endloop
endfacet
facet normal -0.0 1.0 -0.0
  outer loop
    vertex -22.400000000000006 3.0000000000000058 6.0
    vertex -46.99999999999999 3.0000000000000058 22.000000000000004
    vertex -22.400000000000006 3.0000000000000058 22.0
  endloop
endfacet
facet normal -0.0 1.0 -0.0
  outer loop
    vertex -2.9999999999999987 3.0000000000000058 3.0000000000000004
    vertex -5.999999999999999 3.0000000000000058 6.0
    vertex -2.9999999999999987 3.0000000000000058 22.0
  endloop
endfacet
facet normal -0.0 1.0 -0.0
  outer loop
    vertex -5.999999999999999 3.0000000000000058 6.0
    vertex -2.9999999999999987 3.0000000000000058 3.0000000000000004
    vertex -22.400000000000006 3.0000000000000058 6.0
  endloop
endfacet
facet normal -0.0 1.0 -0.0
  outer loop
    vertex -2.9999999999999987 3.0000000000000058 22.0
    vertex -5.999999999999999 3.0000000000000058 6.0
    vertex -5.999999999999999 3.0000000000000058 22.0
  endloop
endfacet
facet normal 0.0 0.0 -1.0
  outer loop
    vertex -30.400000000000002 30.400000000000002 0.0
    vertex -51.999999999999986 25.4 2.3201492693898238e-17
    vertex -51.99999999999999 30.400000000000002 2.3201492693898238e-17
  endloop
endfacet
facet normal 0.0 0.0 -1.0
  outer loop
    vertex -51.999999999999986 25.4 2.3201492693898238e-17
    vertex -30.400000000000002 30.400000000000002 0.0
    vertex -51.999999999999986 22.400000000000006 2.3201492693898238e-17
  endloop
endfacet
facet normal 0.0 0.0 -1.0
  outer loop
    vertex -25.4 51.99999999999999 0.0
    vertex -30.400000000000002 30.400000000000002 0.0
    vertex -30.400000000000002 51.99999999999999 0.0
  endloop
endfacet
facet normal 0.0 0.0 -1.0
  outer loop
    vertex -51.999999999999986 22.400000000000006 2.3201492693898238e-17
    vertex 1.9999999999999998 -1.9999999999999998 1.9411625089335361e-16
    vertex -51.99999999999999 -1.9999999999999998 2.5527432573454785e-17
  endloop
endfacet
facet normal 0.0 0.0 -1.0
  outer loop
    vertex 1.9999999999999998 -1.9999999999999998 1.9411625089335361e-16
    vertex -51.999999999999986 22.400000000000006 2.3201492693898238e-17
    vertex -30.400000000000002 30.400000000000002 0.0
  endloop
endfacet
facet normal 0.0 0.0 -1.0
  outer loop
    vertex 1.9999999999999998 -1.9999999999999998 1.9411625089335361e-16
    vertex -30.400000000000002 30.400000000000002 0.0
    vertex -25.4 51.99999999999999 0.0
  endloop
endfacet
facet normal 0.0 0.0 -1.0
  outer loop
    vertex 1.9999999999999998 -1.9999999999999998 1.9411625089335361e-16
    vertex -25.4 51.99999999999999 0.0
    vertex -22.400000000000006 51.99999999999999 0.0
  endloop
endfacet
facet normal 0.0 0.0 -1.0
  outer loop
    vertex 1.9999999999999998 -1.9999999999999998 1.9411625089335361e-16
    vertex -22.400000000000006 51.99999999999999 0.0
    vertex 1.9999999999999998 51.99999999999999 1.9179031101379707e-16
  endloop
endfacet
facet normal -0.0 -0.0 1.0
  outer loop
    vertex 1.9999999999999998 -1.9999999999999998 22.0
    vertex -5.999999999999999 3.0000000000000058 22.0
    vertex -5.999999999999999 -2.0000000000000004 22.0
  endloop
endfacet
facet normal -0.0 -0.0 1.0
  outer loop
    vertex -5.999999999999999 3.0000000000000058 22.0
    vertex 1.9999999999999998 -1.9999999999999998 22.0
    vertex -2.9999999999999987 3.0000000000000058 22.0
  endloop
endfacet
facet normal -0.0 -0.0 1.0
  outer loop
    vertex -2.9999999999999996 47.0 22.0
    vertex -6.0 51.99999999999999 22.0
    vertex -6.0 47.0 22.0
  endloop
endfacet
facet normal -0.0 -0.0 1.0
  outer loop
    vertex -6.0 51.99999999999999 22.0
    vertex -2.9999999999999996 47.0 22.0
    vertex 1.9999999999999998 51.99999999999999 22.0
  endloop
endfacet
facet normal -0.0 -0.0 1.0
  outer loop
    vertex 1.9999999999999998 51.99999999999999 22.0
    vertex -2.9999999999999996 47.0 22.0
    vertex -2.9999999999999987 3.0000000000000058 22.0
  endloop
endfacet
facet normal -0.0 -0.0 1.0
  outer loop
    vertex 1.9999999999999998 51.99999999999999 22.0
    vertex -2.9999999999999987 3.0000000000000058 22.0
    vertex 1.9999999999999998 -1.9999999999999998 22.0
  endloop
endfacet
facet normal -1.0 0.0 0.0
  outer loop
    vertex -5.999999999999999 3.0000000000000058 22.0
    vertex -5.999999999999999 -2.0000000000000004 6.0
    vertex -5.999999999999999 -2.0000000000000004 22.0
  endloop
endfacet
facet normal -1.0 0.0 0.0
  outer loop
    vertex -5.999999999999999 -2.0000000000000004 6.0
    vertex -5.999999999999999 3.0000000000000058 22.0
    vertex -5.999999999999999 3.0000000000000058 6.0
  endloop
endfacet
facet normal 0.0 0.0 1.0
  outer loop
    vertex -5.999999999999999 -2.0000000000000004 6.0
    vertex -22.400000000000006 3.0000000000000058 6.0
    vertex -22.400000000000006 -2.0000000000000004 6.0
  endloop
endfacet
facet normal 0.0 0.0 1.0
  outer loop
    vertex -22.400000000000006 3.0000000000000058 6.0
    vertex -5.999999999999999 -2.0000000000000004 6.0
    vertex -5.999999999999999 3.0000000000000058 6.0
  endloop
endfacet
facet normal 1.0 -0.0 -0.0
  outer loop
    vertex -22.400000000000006 3.0000000000000058 6.0
    vertex -22.400000000000006 -2.0000000000000004 22.0
    vertex -22.400000000000006 -2.0000000000000004 6.0
  endloop
endfacet
facet normal 1.0 -0.0 -0.0
  outer loop
    vertex -22.400000000000006 -2.0000000000000004 22.0
    vertex -22.400000000000006 3.0000000000000058 6.0
    vertex -22.400000000000006 3.0000000000000058 22.0
  endloop
endfacet
facet normal -1.639175036565105e-16 -1.0 1.724195114027677e-16
  outer loop
    vertex -2.9999999999999996 46.99999999999999 3.0
    vertex -6.0 47.0 6.0
    vertex -25.4 47.0 3.0
  endloop
endfacet
facet normal -1.639175036565105e-16 -1.0 1.724195114027677e-16
  outer loop
    vertex -6.0 47.0 6.0
    vertex -2.9999999999999996 46.99999999999999 3.0
    vertex -2.9999999999999996 47.0 22.0
  endloop
endfacet
facet normal -1.639175036565105e-16 -1.0 1.724195114027677e-16
  outer loop
    vertex -6.0 47.0 6.0
    vertex -2.9999999999999996 47.0 22.0
    vertex -6.0 47.0 22.0
  endloop
endfacet
facet normal -1.639175036565105e-16 -1.0 1.724195114027677e-16
  outer loop
    vertex -25.4 47.0 3.0
    vertex -22.400000000000006 47.0 6.0
    vertex -25.4 47.00000000000001 22.0
  endloop
endfacet
facet normal -1.639175036565105e-16 -1.0 1.724195114027677e-16
  outer loop
    vertex -22.400000000000006 47.0 6.0
    vertex -25.4 47.0 3.0
    vertex -6.0 47.0 6.0
  endloop
endfacet
facet normal -1.639175036565105e-16 -1.0 1.724195114027677e-16
  outer loop
    vertex -25.4 47.00000000000001 22.0
    vertex -22.400000000000006 47.0 6.0
    vertex -22.400000000000006 47.0 22.0
  endloop
endfacet
facet normal 1.0 -0.0 -0.0
  outer loop
    vertex -22.400000000000006 51.99999999999999 6.0
    vertex -22.400000000000006 47.0 22.0
    vertex -22.400000000000006 47.0 6.0
  endloop
endfacet
facet normal 1.0 -0.0 -0.0
  outer loop
    vertex -22.400000000000006 47.0 22.0
    vertex -22.400000000000006 51.99999999999999 6.0
    vertex -22.400000000000006 51.99999999999999 22.0
  endloop
endfacet
facet normal -0.0 0.0 1.0
  outer loop
    vertex -6.0 47.0 6.0
    vertex -22.400000000000006 51.99999999999999 6.0
    vertex -22.400000000000006 47.0 6.0
  endloop
endfacet
facet normal -0.0 0.0 1.0
  outer loop
    vertex -22.400000000000006 51.99999999999999 6.0
    vertex -6.0 47.0 6.0
    vertex -6.0 51.99999999999999 6.0
  endloop
endfacet
facet normal -1.0 0.0 0.0
  outer loop
    vertex -6.0 51.99999999999999 22.0
    vertex -6.0 47.0 6.0
    vertex -6.0 47.0 22.0
  endloop
endfacet
facet normal -1.0 0.0 0.0
  outer loop
    vertex -6.0 47.0 6.0
    vertex -6.0 51.99999999999999 22.0
    vertex -6.0 51.99999999999999 6.0
  endloop
endfacet
facet normal 1.0 -0.0 -0.0
  outer loop
    vertex -46.99999999999999 25.4 3.0
    vertex -46.99999999999999 3.0000000000000058 22.000000000000004
    vertex -46.99999999999999 3.0000000000000058 3.0
  endloop
endfacet
facet normal 1.0 -0.0 -0.0
  outer loop
    vertex -46.99999999999999 3.0000000000000058 22.000000000000004
    vertex -46.99999999999999 25.4 3.0
    vertex -46.99999999999999 25.4 22.0
  endloop
endfacet
facet normal -1.0 -1.5923491193654918e-17 4.750581721763531e-18
  outer loop
    vertex -2.9999999999999996 47.0 22.0
    vertex -2.9999999999999987 3.0000000000000058 3.0000000000000004
    vertex -2.9999999999999987 3.0000000000000058 22.0
  endloop
endfacet
facet normal -1.0 -1.5923491193654918e-17 4.750581721763531e-18
  outer loop
    vertex -2.9999999999999987 3.0000000000000058 3.0000000000000004
    vertex -2.9999999999999996 47.0 22.0
    vertex -2.9999999999999996 46.99999999999999 3.0
  endloop
endfacet
facet normal -9.490081966617216e-18 6.332827117938634e-18 1.0
  outer loop
    vertex -2.9999999999999987 3.0000000000000058 3.0000000000000004
    vertex -46.99999999999999 25.4 3.0
    vertex -46.99999999999999 3.0000000000000058 3.0
  endloop
endfacet
facet normal -9.490081966617216e-18 6.332827117938634e-18 1.0
  outer loop
    vertex -46.99999999999999 25.4 3.0
    vertex -2.9999999999999987 3.0000000000000058 3.0000000000000004
    vertex -25.4 25.4 3.0
  endloop
endfacet
facet normal -9.490081966617216e-18 6.332827117938634e-18 1.0
  outer loop
    vertex -25.4 25.4 3.0
    vertex -2.9999999999999987 3.0000000000000058 3.0000000000000004
    vertex -25.4 47.0 3.0
  endloop
endfacet
facet normal -9.490081966617216e-18 6.332827117938634e-18 1.0
  outer loop
    vertex -25.4 47.0 3.0
    vertex -2.9999999999999987 3.0000000000000058 3.0000000000000004
    vertex -2.9999999999999996 46.99999999999999 3.0
  endloop
endfacet
facet normal 0.0 -1.0 0.0
  outer loop
    vertex -25.4 25.4 3.0
    vertex -46.99999999999999 25.4 22.0
    vertex -46.99999999999999 25.4 3.0
  endloop
endfacet
facet normal 0.0 -1.0 0.0
  outer loop
    vertex -46.99999999999999 25.4 22.0
    vertex -25.4 25.4 3.0
    vertex -25.4 25.4 22.0
  endloop
endfacet
facet normal 1.0 -0.0 -0.0
  outer loop
    vertex -25.4 47.0 3.0
    vertex -25.4 25.4 22.0
    vertex -25.4 25.4 3.0
  endloop
endfacet
facet normal 1.0 -0.0 -0.0
  outer loop
    vertex -25.4 25.4 22.0
    vertex -25.4 47.0 3.0
    vertex -25.4 47.00000000000001 22.0
  endloop
endfacet
facet normal 0.0 1.0 0.0
  outer loop
    vertex -30.400000000000002 51.99999999999999 22.0
    vertex -25.4 51.99999999999999 0.0
    vertex -30.400000000000002 51.99999999999999 0.0
  endloop
endfacet
facet normal 0.0 1.0 0.0
  outer loop
    vertex -25.4 51.99999999999999 0.0
    vertex -30.400000000000002 51.99999999999999 22.0
    vertex -22.400000000000006 51.99999999999999 0.0
  endloop
endfacet
facet normal 0.0 1.0 0.0
  outer loop
    vertex -22.400000000000006 51.99999999999999 0.0
    vertex -30.400000000000002 51.99999999999999 22.0
    vertex -22.400000000000006 51.99999999999999 6.0
  endloop
endfacet
facet normal 0.0 1.0 0.0
  outer loop
    vertex -22.400000000000006 51.99999999999999 0.0
    vertex -22.400000000000006 51.99999999999999 6.0
    vertex 1.9999999999999998 51.99999999999999 1.9179031101379707e-16
  endloop
endfacet
facet normal 0.0 1.0 0.0
  outer loop
    vertex -22.400000000000006 51.99999999999999 6.0
    vertex -30.400000000000002 51.99999999999999 22.0
    vertex -22.400000000000006 51.99999999999999 22.0
  endloop
endfacet
facet normal 0.0 1.0 0.0
  outer loop
    vertex 1.9999999999999998 51.99999999999999 1.9179031101379707e-16
    vertex -6.0 51.99999999999999 6.0
    vertex 1.9999999999999998 51.99999999999999 22.0
  endloop
endfacet
facet normal 0.0 1.0 0.0
  outer loop
    vertex -6.0 51.99999999999999 6.0
    vertex 1.9999999999999998 51.99999999999999 1.9179031101379707e-16
    vertex -22.400000000000006 51.99999999999999 6.0
  endloop
endfacet
facet normal 0.0 1.0 0.0
  outer loop
    vertex 1.9999999999999998 51.99999999999999 22.0
    vertex -6.0 51.99999999999999 6.0
    vertex -6.0 51.99999999999999 22.0
  endloop
endfacet
facet normal -1.0 0.0 0.0
  outer loop
    vertex -30.400000000000002 51.99999999999999 22.0
    vertex -30.400000000000002 30.400000000000002 0.0
    vertex -30.400000000000002 30.400000000000002 22.0
  endloop
endfacet
facet normal -1.0 0.0 0.0
  outer loop
    vertex -30.400000000000002 30.400000000000002 0.0
    vertex -30.400000000000002 51.99999999999999 22.0
    vertex -30.400000000000002 51.99999999999999 0.0
  endloop
endfacet
facet normal 0.0 1.0 0.0
  outer loop
    vertex -51.99999999999999 30.400000000000002 2.3201492693898238e-17
    vertex -30.400000000000002 30.400000000000002 22.0
    vertex -30.400000000000002 30.400000000000002 0.0
  endloop
endfacet
facet normal 0.0 1.0 0.0
  outer loop
    vertex -30.400000000000002 30.400000000000002 22.0
    vertex -51.99999999999999 30.400000000000002 2.3201492693898238e-17
    vertex -51.999999999999986 30.400000000000002 22.0
  endloop
endfacet
facet normal -1.0 5.2621942192346497e-17 1.1600746346949119e-17
  outer loop
    vertex -51.999999999999986 30.400000000000002 22.0
    vertex -51.99999999999999 -1.9999999999999998 2.5527432573454785e-17
    vertex -51.999999999999986 -1.9999999999999998 22.0
  endloop
endfacet
facet normal -1.0 5.2621942192346497e-17 1.1600746346949119e-17
  outer loop
    vertex -51.99999999999999 -1.9999999999999998 2.5527432573454785e-17
    vertex -51.999999999999986 30.400000000000002 22.0
    vertex -51.999999999999986 22.400000000000006 2.3201492693898238e-17
  endloop
endfacet
facet normal -1.0 5.2621942192346497e-17 1.1600746346949119e-17
  outer loop
    vertex -51.999999999999986 22.400000000000006 2.3201492693898238e-17
    vertex -51.999999999999986 30.400000000000002 22.0
    vertex -51.999999999999986 25.4 2.3201492693898238e-17
  endloop
endfacet
facet normal -1.0 5.2621942192346497e-17 1.1600746346949119e-17
  outer loop
    vertex -51.999999999999986 25.4 2.3201492693898238e-17
    vertex -51.999999999999986 30.400000000000002 22.0
    vertex -51.99999999999999 30.400000000000002 2.3201492693898238e-17
  endloop
endfacet
facet normal -4.544127277965624e-18 -1.0 1.162969939778274e-18
  outer loop
    vertex 1.9999999999999998 -1.9999999999999998 22.0
    vertex -5.999999999999999 -2.0000000000000004 6.0
    vertex 1.9999999999999998 -1.9999999999999998 1.9411625089335361e-16
  endloop
endfacet
facet normal -4.544127277965624e-18 -1.0 1.162969939778274e-18
  outer loop
    vertex -5.999999999999999 -2.0000000000000004 6.0
    vertex 1.9999999999999998 -1.9999999999999998 22.0
    vertex -5.999999999999999 -2.0000000000000004 22.0
  endloop
endfacet
facet normal -4.544127277965624e-18 -1.0 1.162969939778274e-18
  outer loop
    vertex -51.99999999999999 -1.9999999999999998 2.5527432573454785e-17
    vertex -22.400000000000006 -2.0000000000000004 6.0
    vertex -51.999999999999986 -1.9999999999999998 22.0
  endloop
endfacet
facet normal -4.544127277965624e-18 -1.0 1.162969939778274e-18
  outer loop
    vertex -22.400000000000006 -2.0000000000000004 6.0
    vertex -51.99999999999999 -1.9999999999999998 2.5527432573454785e-17
    vertex 1.9999999999999998 -1.9999999999999998 1.9411625089335361e-16
  endloop
endfacet
facet normal -4.544127277965624e-18 -1.0 1.162969939778274e-18
  outer loop
    vertex -22.400000000000006 -2.0000000000000004 6.0
    vertex 1.9999999999999998 -1.9999999999999998 1.9411625089335361e-16
    vertex -5.999999999999999 -2.0000000000000004 6.0
  endloop
endfacet
facet normal -4.544127277965624e-18 -1.0 1.162969939778274e-18
  outer loop
    vertex -51.999999999999986 -1.9999999999999998 22.0
    vertex -22.400000000000006 -2.0000000000000004 6.0
    vertex -22.400000000000006 -2.0000000000000004 22.0
  endloop
endfacet
facet normal 1.0 -1.7297295062736532e-17 9.589515550689855e-17
  outer loop
    vertex 1.9999999999999998 51.99999999999999 1.9179031101379707e-16
    vertex 1.9999999999999998 -1.9999999999999998 22.0
    vertex 1.9999999999999998 -1.9999999999999998 1.9411625089335361e-16
  endloop
endfacet
facet normal 1.0 -1.7297295062736532e-17 9.589515550689855e-17
  outer loop
    vertex 1.9999999999999998 -1.9999999999999998 22.0
    vertex 1.9999999999999998 51.99999999999999 1.9179031101379707e-16
    vertex 1.9999999999999998 51.99999999999999 22.0
  endloop
endfacet
facet normal 1.960761387457532e-17 9.816706754250528e-18 1.0
  outer loop
    vertex -51.999999999999986 -1.9999999999999998 22.0
    vertex -46.99999999999999 3.0000000000000058 22.000000000000004
    vertex -51.999999999999986 30.400000000000002 22.0
  endloop
endfacet
facet normal 1.960761387457532e-17 9.816706754250528e-18 1.0
  outer loop
    vertex -46.99999999999999 3.0000000000000058 22.000000000000004
    vertex -51.999999999999986 -1.9999999999999998 22.0
    vertex -22.400000000000006 -2.0000000000000004 22.0
  endloop
endfacet
facet normal 1.960761387457532e-17 9.816706754250528e-18 1.0
  outer loop
    vertex -46.99999999999999 3.0000000000000058 22.000000000000004
    vertex -22.400000000000006 -2.0000000000000004 22.0
    vertex -22.400000000000006 3.0000000000000058 22.0
  endloop
endfacet
facet normal 1.960761387457532e-17 9.816706754250528e-18 1.0
  outer loop
    vertex -51.999999999999986 30.400000000000002 22.0
    vertex -46.99999999999999 25.4 22.0
    vertex -30.400000000000002 30.400000000000002 22.0
  endloop
endfacet
facet normal 1.960761387457532e-17 9.816706754250528e-18 1.0
  outer loop
    vertex -46.99999999999999 25.4 22.0
    vertex -51.999999999999986 30.400000000000002 22.0
    vertex -46.99999999999999 3.0000000000000058 22.000000000000004
  endloop
endfacet
facet normal 1.960761387457532e-17 9.816706754250528e-18 1.0
  outer loop
    vertex -30.400000000000002 30.400000000000002 22.0
    vertex -46.99999999999999 25.4 22.0
    vertex -25.4 25.4 22.0
  endloop
endfacet
facet normal 1.960761387457532e-17 9.816706754250528e-18 1.0
  outer loop
    vertex -30.400000000000002 30.400000000000002 22.0
    vertex -25.4 25.4 22.0
    vertex -30.400000000000002 51.99999999999999 22.0
  endloop
endfacet
facet normal 1.960761387457532e-17 9.816706754250528e-18 1.0
  outer loop
    vertex -30.400000000000002 51.99999999999999 22.0
    vertex -25.4 25.4 22.0
    vertex -25.4 47.00000000000001 22.0
  endloop
endfacet
facet normal 1.960761387457532e-17 9.816706754250528e-18 1.0
  outer loop
    vertex -30.400000000000002 51.99999999999999 22.0
    vertex -25.4 47.00000000000001 22.0
    vertex -22.400000000000006 51.99999999999999 22.0
  endloop
endfacet
facet normal 1.960761387457532e-17 9.816706754250528e-18 1.0
  outer loop
    vertex -22.400000000000006 51.99999999999999 22.0
    vertex -25.4 47.00000000000001 22.0
    vertex -22.400000000000006 47.0 22.0
  endloop
endfacet
endsolid Крестовина-КВАДРАТ-Половина
