solid уголк для крестовины
facet normal 8.790499112451976e-16 1.0 2.8081005576476526e-15
  outer loop
    vertex -22.63653102158643 -25.997726059384668 1.2246818033719924
    vertex -17.13653102158642 -25.997726059384657 1.268984917146554e-13
    vertex -21.411849218214556 -25.997726059384657 1.268984917146554e-13
  endloop
endfacet
facet normal 8.790499112451976e-16 1.0 2.8081005576476526e-15
  outer loop
    vertex -17.13653102158642 -25.997726059384657 1.268984917146554e-13
    vertex -22.63653102158643 -25.997726059384668 1.2246818033719924
    vertex -17.13653102158645 -25.997726059384686 7.293653533025073
  endloop
endfacet
facet normal 8.790499112451976e-16 1.0 2.8081005576476526e-15
  outer loop
    vertex -17.13653102158645 -25.997726059384686 7.293653533025073
    vertex -22.63653102158643 -25.997726059384668 1.2246818033719924
    vertex -22.636531021586443 -25.99772605938468 5.000000000000126
  endloop
endfacet
facet normal 8.790499112451976e-16 1.0 2.8081005576476526e-15
  outer loop
    vertex -17.13653102158645 -25.997726059384686 7.293653533025073
    vertex -22.636531021586443 -25.99772605938468 5.000000000000126
    vertex -27.11798445983038 -25.997726059384675 5.0000000000001315
  endloop
endfacet
facet normal 8.790499112451976e-16 1.0 2.8081005576476526e-15
  outer loop
    vertex -17.13653102158645 -25.997726059384686 7.293653533025073
    vertex -27.11798445983038 -25.997726059384675 5.0000000000001315
    vertex -28.029315756392847 -25.997726059384668 6.000000000000184
  endloop
endfacet
facet normal 8.790499112451976e-16 1.0 2.8081005576476526e-15
  outer loop
    vertex -17.13653102158645 -25.997726059384686 7.293653533025073
    vertex -28.029315756392847 -25.997726059384668 6.000000000000184
    vertex -28.02931575639287 -25.99772605938468 11.000000000000131
  endloop
endfacet
facet normal 8.790499112451976e-16 1.0 2.8081005576476526e-15
  outer loop
    vertex -17.13653102158645 -25.997726059384686 7.293653533025073
    vertex -28.02931575639287 -25.99772605938468 11.000000000000131
    vertex -17.136531021586467 -25.997726059384696 11.000000000000126
  endloop
endfacet
facet normal -8.790499112451976e-16 -1.0 -2.8081005576476526e-15
  outer loop
    vertex -17.136531021586475 -53.997726059384675 7.293653533024982
    vertex -21.411849218214577 -53.997726059384654 4.827167610052114e-14
    vertex -17.136531021586443 -53.997726059384654 4.827167610052114e-14
  endloop
endfacet
facet normal -8.790499112451976e-16 -1.0 -2.8081005576476526e-15
  outer loop
    vertex -21.411849218214577 -53.997726059384654 4.827167610052114e-14
    vertex -17.136531021586475 -53.997726059384675 7.293653533024982
    vertex -22.63653102158645 -53.997726059384675 1.2246818033719136
  endloop
endfacet
facet normal -8.790499112451976e-16 -1.0 -2.8081005576476526e-15
  outer loop
    vertex -22.63653102158645 -53.997726059384675 1.2246818033719136
    vertex -17.136531021586475 -53.997726059384675 7.293653533024982
    vertex -22.636531021586467 -53.997726059384675 5.000000000000048
  endloop
endfacet
facet normal -8.790499112451976e-16 -1.0 -2.8081005576476526e-15
  outer loop
    vertex -22.636531021586467 -53.997726059384675 5.000000000000048
    vertex -17.136531021586475 -53.997726059384675 7.293653533024982
    vertex -27.11798445983038 -53.997726059384675 5.000000000000053
  endloop
endfacet
facet normal -8.790499112451976e-16 -1.0 -2.8081005576476526e-15
  outer loop
    vertex -27.11798445983038 -53.997726059384675 5.000000000000053
    vertex -17.136531021586475 -53.997726059384675 7.293653533024982
    vertex -28.029315756392847 -53.997726059384675 6.000000000000106
  endloop
endfacet
facet normal -8.790499112451976e-16 -1.0 -2.8081005576476526e-15
  outer loop
    vertex -28.029315756392847 -53.997726059384675 6.000000000000106
    vertex -17.136531021586475 -53.997726059384675 7.293653533024982
    vertex -28.02931575639287 -53.997726059384675 11.000000000000043
  endloop
endfacet
facet normal -8.790499112451976e-16 -1.0 -2.8081005576476526e-15
  outer loop
    vertex -28.02931575639287 -53.997726059384675 11.000000000000043
    vertex -17.136531021586475 -53.997726059384675 7.293653533024982
    vertex -17.13653102158649 -53.997726059384696 11.000000000000036
  endloop
endfacet
facet normal 0.0 2.8081005576476526e-15 -1.0
  outer loop
    vertex -21.411849218214556 -25.997726059384657 1.268984917146554e-13
    vertex -17.136531021586443 -53.997726059384654 4.827167610052114e-14
    vertex -21.411849218214577 -53.997726059384654 4.827167610052114e-14
  endloop
endfacet
facet normal 0.0 2.8081005576476526e-15 -1.0
  outer loop
    vertex -17.136531021586443 -53.997726059384654 4.827167610052114e-14
    vertex -21.411849218214556 -25.997726059384657 1.268984917146554e-13
    vertex -17.13653102158642 -25.997726059384657 1.268984917146554e-13
  endloop
endfacet
facet normal -0.7071067811865459 2.607209099809296e-15 -0.7071067811865492
  outer loop
    vertex -22.63653102158643 -25.997726059384668 1.2246818033719924
    vertex -21.411849218214577 -53.997726059384654 4.827167610052114e-14
    vertex -22.63653102158645 -53.997726059384675 1.2246818033719136
  endloop
endfacet
facet normal -0.7071067811865459 2.607209099809296e-15 -0.7071067811865492
  outer loop
    vertex -21.411849218214577 -53.997726059384654 4.827167610052114e-14
    vertex -22.63653102158643 -25.997726059384668 1.2246818033719924
    vertex -21.411849218214556 -25.997726059384657 1.268984917146554e-13
  endloop
endfacet
facet normal -1.0 8.790499112452102e-16 -4.481688168800984e-15
  outer loop
    vertex -22.636531021586443 -25.99772605938468 5.000000000000126
    vertex -22.63653102158645 -53.997726059384675 1.2246818033719136
    vertex -22.636531021586467 -53.997726059384675 5.000000000000048
  endloop
endfacet
facet normal -1.0 8.790499112452102e-16 -4.481688168800984e-15
  outer loop
    vertex -22.63653102158645 -53.997726059384675 1.2246818033719136
    vertex -22.636531021586443 -25.99772605938468 5.000000000000126
    vertex -22.63653102158643 -25.997726059384668 1.2246818033719924
  endloop
endfacet
facet normal -1.2585053136925582e-15 2.8081005576476538e-15 -1.0
  outer loop
    vertex -22.636531021586443 -25.99772605938468 5.000000000000126
    vertex -27.11798445983038 -53.997726059384675 5.000000000000053
    vertex -27.11798445983038 -25.997726059384675 5.0000000000001315
  endloop
endfacet
facet normal -1.2585053136925582e-15 2.8081005576476538e-15 -1.0
  outer loop
    vertex -27.11798445983038 -53.997726059384675 5.000000000000053
    vertex -22.636531021586443 -25.99772605938468 5.000000000000126
    vertex -22.636531021586467 -53.997726059384675 5.000000000000048
  endloop
endfacet
facet normal -0.7391153120126478 2.541196577956535e-15 -0.6735789156056227
  outer loop
    vertex -28.029315756392847 -25.997726059384668 6.000000000000184
    vertex -27.11798445983038 -53.997726059384675 5.000000000000053
    vertex -28.029315756392847 -53.997726059384675 6.000000000000106
  endloop
endfacet
facet normal -0.7391153120126478 2.541196577956535e-15 -0.6735789156056227
  outer loop
    vertex -27.11798445983038 -53.997726059384675 5.000000000000053
    vertex -28.029315756392847 -25.997726059384668 6.000000000000184
    vertex -27.11798445983038 -25.997726059384675 5.0000000000001315
  endloop
endfacet
facet normal -1.0 8.790499112452103e-16 -4.5119463720766804e-15
  outer loop
    vertex -28.02931575639287 -25.99772605938468 11.000000000000131
    vertex -28.029315756392847 -53.997726059384675 6.000000000000106
    vertex -28.02931575639287 -53.997726059384675 11.000000000000043
  endloop
endfacet
facet normal -1.0 8.790499112452103e-16 -4.5119463720766804e-15
  outer loop
    vertex -28.029315756392847 -53.997726059384675 6.000000000000106
    vertex -28.02931575639287 -25.99772605938468 11.000000000000131
    vertex -28.029315756392847 -25.997726059384668 6.000000000000184
  endloop
endfacet
facet normal 5.177677795352106e-16 -2.8081005576476534e-15 1.0
  outer loop
    vertex -17.13653102158649 -53.997726059384696 11.000000000000036
    vertex -28.02931575639287 -25.99772605938468 11.000000000000131
    vertex -28.02931575639287 -53.997726059384675 11.000000000000043
  endloop
endfacet
facet normal 5.177677795352106e-16 -2.8081005576476534e-15 1.0
  outer loop
    vertex -28.02931575639287 -25.99772605938468 11.000000000000131
    vertex -17.13653102158649 -53.997726059384696 11.000000000000036
    vertex -17.136531021586467 -25.997726059384696 11.000000000000126
  endloop
endfacet
facet normal 1.0 -8.790499112452104e-16 4.5650883008507625e-15
  outer loop
    vertex -17.136531021586475 -53.997726059384675 7.293653533024982
    vertex -17.136531021586467 -25.997726059384696 11.000000000000126
    vertex -17.13653102158649 -53.997726059384696 11.000000000000036
  endloop
endfacet
facet normal 1.0 -8.790499112452104e-16 4.5650883008507625e-15
  outer loop
    vertex -17.136531021586467 -25.997726059384696 11.000000000000126
    vertex -17.136531021586475 -53.997726059384675 7.293653533024982
    vertex -17.13653102158645 -25.997726059384686 7.293653533025073
  endloop
endfacet
facet normal 1.0 -8.790499112452097e-16 4.2529619987531636e-15
  outer loop
    vertex -17.136531021586443 -53.997726059384654 4.827167610052114e-14
    vertex -17.13653102158645 -25.997726059384686 7.293653533025073
    vertex -17.136531021586475 -53.997726059384675 7.293653533024982
  endloop
endfacet
facet normal 1.0 -8.790499112452097e-16 4.2529619987531636e-15
  outer loop
    vertex -17.13653102158645 -25.997726059384686 7.293653533025073
    vertex -17.136531021586443 -53.997726059384654 4.827167610052114e-14
    vertex -17.13653102158642 -25.997726059384657 1.268984917146554e-13
  endloop
endfacet
endsolid уголк для крестовины
