solid Экспериментальная-втулка
facet normal 0.0 0.0 -1.0
  outer loop
    vertex 0.0 20.0 0.0
    vertex 4.000000000000003 14.92820323027551 0.0
    vertex 9.106141766560918e-16 12.000000000000002 0.0
  endloop
endfacet
facet normal 0.0 0.0 -1.0
  outer loop
    vertex 4.000000000000003 14.92820323027551 0.0
    vertex 0.0 20.0 0.0
    vertex 5.929447639179835 15.727406610312546 0.0
  endloop
endfacet
facet normal 0.0 0.0 -1.0
  outer loop
    vertex 5.929447639179835 15.727406610312546 0.0
    vertex 0.0 20.0 0.0
    vertex 20.0 20.0 0.0
  endloop
endfacet
facet normal 0.0 0.0 -1.0
  outer loop
    vertex 9.106141766560918e-16 12.000000000000002 0.0
    vertex 4.000000000000003 14.92820323027551 0.0
    vertex 2.3431457505076208 13.65685424949238 0.0
  endloop
endfacet
facet normal 0.0 0.0 -1.0
  outer loop
    vertex 9.106141766560918e-16 12.000000000000002 0.0
    vertex 2.3431457505076208 13.65685424949238 0.0
    vertex 1.0717967697244932 12.000000000000002 0.0
  endloop
endfacet
facet normal 0.0 0.0 -1.0
  outer loop
    vertex 5.929447639179835 15.727406610312546 0.0
    vertex 20.0 20.0 0.0
    vertex 7.999999999999999 15.999999999999998 0.0
  endloop
endfacet
facet normal 0.0 0.0 -1.0
  outer loop
    vertex 7.999999999999999 15.999999999999998 0.0
    vertex 20.0 20.0 0.0
    vertex 10.070552360820168 15.727406610312546 0.0
  endloop
endfacet
facet normal 0.0 0.0 -1.0
  outer loop
    vertex 10.070552360820168 15.727406610312546 0.0
    vertex 20.0 20.0 0.0
    vertex 12.0 14.928203230275507 0.0
  endloop
endfacet
facet normal 0.0 0.0 -1.0
  outer loop
    vertex 12.0 14.928203230275507 0.0
    vertex 20.0 20.0 0.0
    vertex 13.65685424949238 13.65685424949238 0.0
  endloop
endfacet
facet normal 0.0 0.0 -1.0
  outer loop
    vertex 13.65685424949238 13.65685424949238 0.0
    vertex 20.0 20.0 0.0
    vertex 14.928203230275507 11.999999999999998 0.0
  endloop
endfacet
facet normal 0.0 0.0 -1.0
  outer loop
    vertex 14.928203230275507 11.999999999999998 0.0
    vertex 20.0 20.0 0.0
    vertex 15.727406610312546 10.070552360820164 0.0
  endloop
endfacet
facet normal 0.0 0.0 -1.0
  outer loop
    vertex 15.727406610312546 10.070552360820164 0.0
    vertex 20.0 20.0 0.0
    vertex 15.999999999999998 7.999999999999999 0.0
  endloop
endfacet
facet normal 0.0 0.0 -1.0
  outer loop
    vertex 14.928203230275505 3.999999999999996 0.0
    vertex 13.656854249492376 0.0 0.0
    vertex 13.656854249492376 2.3431457505076185 0.0
  endloop
endfacet
facet normal 0.0 0.0 -1.0
  outer loop
    vertex 13.656854249492376 0.0 0.0
    vertex 14.928203230275505 3.999999999999996 0.0
    vertex 20.0 0.0 0.0
  endloop
endfacet
facet normal 0.0 0.0 -1.0
  outer loop
    vertex 20.0 0.0 0.0
    vertex 14.928203230275505 3.999999999999996 0.0
    vertex 15.727406610312542 5.929447639179827 0.0
  endloop
endfacet
facet normal 0.0 0.0 -1.0
  outer loop
    vertex 20.0 0.0 0.0
    vertex 15.727406610312542 5.929447639179827 0.0
    vertex 15.999999999999998 7.999999999999999 0.0
  endloop
endfacet
facet normal 0.0 0.0 -1.0
  outer loop
    vertex 20.0 0.0 0.0
    vertex 15.999999999999998 7.999999999999999 0.0
    vertex 20.0 20.0 0.0
  endloop
endfacet
facet normal 0.0 0.0 1.0
  outer loop
    vertex 20.0 0.0 60.0
    vertex 13.656854249492376 2.3431457505076185 60.0
    vertex 13.656854249492376 0.0 60.0
  endloop
endfacet
facet normal 0.0 0.0 1.0
  outer loop
    vertex 13.656854249492376 2.3431457505076185 60.0
    vertex 20.0 0.0 60.0
    vertex 14.928203230275505 3.999999999999996 60.0
  endloop
endfacet
facet normal 0.0 0.0 1.0
  outer loop
    vertex 14.928203230275505 3.999999999999996 60.0
    vertex 20.0 0.0 60.0
    vertex 15.727406610312542 5.929447639179827 60.0
  endloop
endfacet
facet normal 0.0 0.0 1.0
  outer loop
    vertex 15.727406610312542 5.929447639179827 60.0
    vertex 20.0 0.0 60.0
    vertex 15.999999999999998 7.999999999999999 60.0
  endloop
endfacet
facet normal 0.0 0.0 1.0
  outer loop
    vertex 0.0 20.0 60.0
    vertex 5.929447639179835 15.727406610312546 60.0
    vertex 20.0 20.0 60.0
  endloop
endfacet
facet normal 0.0 0.0 1.0
  outer loop
    vertex 5.929447639179835 15.727406610312546 60.0
    vertex 0.0 20.0 60.0
    vertex 4.000000000000003 14.92820323027551 60.0
  endloop
endfacet
facet normal 0.0 0.0 1.0
  outer loop
    vertex 4.000000000000003 14.92820323027551 60.0
    vertex 0.0 20.0 60.0
    vertex 9.106141766560918e-16 12.000000000000002 60.0
  endloop
endfacet
facet normal 0.0 0.0 1.0
  outer loop
    vertex 4.000000000000003 14.92820323027551 60.0
    vertex 9.106141766560918e-16 12.000000000000002 60.0
    vertex 2.3431457505076208 13.65685424949238 60.0
  endloop
endfacet
facet normal 0.0 0.0 1.0
  outer loop
    vertex 2.3431457505076208 13.65685424949238 60.0
    vertex 9.106141766560918e-16 12.000000000000002 60.0
    vertex 1.0717967697244932 12.000000000000002 60.0
  endloop
endfacet
facet normal 0.0 0.0 1.0
  outer loop
    vertex 20.0 20.0 60.0
    vertex 5.929447639179835 15.727406610312546 60.0
    vertex 7.999999999999999 15.999999999999998 60.0
  endloop
endfacet
facet normal 0.0 0.0 1.0
  outer loop
    vertex 20.0 20.0 60.0
    vertex 7.999999999999999 15.999999999999998 60.0
    vertex 10.070552360820168 15.727406610312546 60.0
  endloop
endfacet
facet normal 0.0 0.0 1.0
  outer loop
    vertex 20.0 20.0 60.0
    vertex 10.070552360820168 15.727406610312546 60.0
    vertex 12.0 14.928203230275507 60.0
  endloop
endfacet
facet normal 0.0 0.0 1.0
  outer loop
    vertex 20.0 20.0 60.0
    vertex 12.0 14.928203230275507 60.0
    vertex 13.65685424949238 13.65685424949238 60.0
  endloop
endfacet
facet normal 0.0 0.0 1.0
  outer loop
    vertex 20.0 20.0 60.0
    vertex 13.65685424949238 13.65685424949238 60.0
    vertex 14.928203230275507 11.999999999999998 60.0
  endloop
endfacet
facet normal 0.0 0.0 1.0
  outer loop
    vertex 20.0 20.0 60.0
    vertex 14.928203230275507 11.999999999999998 60.0
    vertex 15.727406610312546 10.070552360820164 60.0
  endloop
endfacet
facet normal 0.0 0.0 1.0
  outer loop
    vertex 20.0 20.0 60.0
    vertex 15.727406610312546 10.070552360820164 60.0
    vertex 15.999999999999998 7.999999999999999 60.0
  endloop
endfacet
facet normal 0.0 0.0 1.0
  outer loop
    vertex 20.0 20.0 60.0
    vertex 15.999999999999998 7.999999999999999 60.0
    vertex 20.0 0.0 60.0
  endloop
endfacet
facet normal 0.793353340291235 -0.6087614290087208 0.0
  outer loop
    vertex 2.3431457505076208 13.65685424949238 0.0
    vertex 1.0717967697244932 12.000000000000002 60.0
    vertex 1.0717967697244932 12.000000000000002 0.0
  endloop
endfacet
facet normal 0.793353340291235 -0.6087614290087208 0.0
  outer loop
    vertex 1.0717967697244932 12.000000000000002 60.0
    vertex 2.3431457505076208 13.65685424949238 0.0
    vertex 2.3431457505076208 13.65685424949238 60.0
  endloop
endfacet
facet normal -0.0 -1.0 -0.0
  outer loop
    vertex 1.0717967697244932 12.000000000000002 60.0
    vertex 9.106141766560918e-16 12.000000000000002 0.0
    vertex 1.0717967697244932 12.000000000000002 0.0
  endloop
endfacet
facet normal -0.0 -1.0 -0.0
  outer loop
    vertex 9.106141766560918e-16 12.000000000000002 0.0
    vertex 1.0717967697244932 12.000000000000002 60.0
    vertex 9.106141766560918e-16 12.000000000000002 60.0
  endloop
endfacet
facet normal -1.0 -1.138267720820115e-16 -0.0
  outer loop
    vertex 0.0 20.0 60.0
    vertex 9.106141766560918e-16 12.000000000000002 0.0
    vertex 9.106141766560918e-16 12.000000000000002 60.0
  endloop
endfacet
facet normal -1.0 -1.138267720820115e-16 -0.0
  outer loop
    vertex 9.106141766560918e-16 12.000000000000002 0.0
    vertex 0.0 20.0 60.0
    vertex 0.0 20.0 0.0
  endloop
endfacet
facet normal -0.0 1.0 0.0
  outer loop
    vertex 0.0 20.0 60.0
    vertex 20.0 20.0 0.0
    vertex 0.0 20.0 0.0
  endloop
endfacet
facet normal -0.0 1.0 0.0
  outer loop
    vertex 20.0 20.0 0.0
    vertex 0.0 20.0 60.0
    vertex 20.0 20.0 60.0
  endloop
endfacet
facet normal 1.0 0.0 0.0
  outer loop
    vertex 20.0 20.0 0.0
    vertex 20.0 0.0 60.0
    vertex 20.0 0.0 0.0
  endloop
endfacet
facet normal 1.0 0.0 0.0
  outer loop
    vertex 20.0 0.0 60.0
    vertex 20.0 20.0 0.0
    vertex 20.0 20.0 60.0
  endloop
endfacet
facet normal -0.0 -1.0 -0.0
  outer loop
    vertex 20.0 0.0 60.0
    vertex 13.656854249492376 0.0 0.0
    vertex 20.0 0.0 0.0
  endloop
endfacet
facet normal -0.0 -1.0 -0.0
  outer loop
    vertex 13.656854249492376 0.0 0.0
    vertex 20.0 0.0 60.0
    vertex 13.656854249492376 0.0 60.0
  endloop
endfacet
facet normal -1.0 0.0 0.0
  outer loop
    vertex 13.656854249492376 2.3431457505076185 60.0
    vertex 13.656854249492376 0.0 0.0
    vertex 13.656854249492376 0.0 60.0
  endloop
endfacet
facet normal -1.0 0.0 0.0
  outer loop
    vertex 13.656854249492376 0.0 0.0
    vertex 13.656854249492376 2.3431457505076185 60.0
    vertex 13.656854249492376 2.3431457505076185 0.0
  endloop
endfacet
facet normal -0.793353340291235 0.6087614290087208 0.0
  outer loop
    vertex 14.928203230275505 3.999999999999996 60.0
    vertex 13.656854249492376 2.3431457505076185 0.0
    vertex 13.656854249492376 2.3431457505076185 60.0
  endloop
endfacet
facet normal -0.793353340291235 0.6087614290087208 0.0
  outer loop
    vertex 13.656854249492376 2.3431457505076185 0.0
    vertex 14.928203230275505 3.999999999999996 60.0
    vertex 14.928203230275505 3.999999999999996 0.0
  endloop
endfacet
facet normal -0.9238795325112865 0.3826834323650905 0.0
  outer loop
    vertex 15.727406610312542 5.929447639179827 60.0
    vertex 14.928203230275505 3.999999999999996 0.0
    vertex 14.928203230275505 3.999999999999996 60.0
  endloop
endfacet
facet normal -0.9238795325112865 0.3826834323650905 0.0
  outer loop
    vertex 14.928203230275505 3.999999999999996 0.0
    vertex 15.727406610312542 5.929447639179827 60.0
    vertex 15.727406610312542 5.929447639179827 0.0
  endloop
endfacet
facet normal -0.9914448613738103 0.13052619222005268 0.0
  outer loop
    vertex 15.999999999999998 7.999999999999999 60.0
    vertex 15.727406610312542 5.929447639179827 0.0
    vertex 15.727406610312542 5.929447639179827 60.0
  endloop
endfacet
facet normal -0.9914448613738103 0.13052619222005268 0.0
  outer loop
    vertex 15.727406610312542 5.929447639179827 0.0
    vertex 15.999999999999998 7.999999999999999 60.0
    vertex 15.999999999999998 7.999999999999999 0.0
  endloop
endfacet
facet normal -0.9914448613738104 -0.1305261922200518 -0.0
  outer loop
    vertex 15.727406610312546 10.070552360820164 60.0
    vertex 15.999999999999998 7.999999999999999 0.0
    vertex 15.999999999999998 7.999999999999999 60.0
  endloop
endfacet
facet normal -0.9914448613738104 -0.1305261922200518 -0.0
  outer loop
    vertex 15.999999999999998 7.999999999999999 0.0
    vertex 15.727406610312546 10.070552360820164 60.0
    vertex 15.727406610312546 10.070552360820164 0.0
  endloop
endfacet
facet normal -0.9238795325112867 -0.3826834323650902 -0.0
  outer loop
    vertex 14.928203230275507 11.999999999999998 60.0
    vertex 15.727406610312546 10.070552360820164 0.0
    vertex 15.727406610312546 10.070552360820164 60.0
  endloop
endfacet
facet normal -0.9238795325112867 -0.3826834323650902 -0.0
  outer loop
    vertex 15.727406610312546 10.070552360820164 0.0
    vertex 14.928203230275507 11.999999999999998 60.0
    vertex 14.928203230275507 11.999999999999998 0.0
  endloop
endfacet
facet normal -0.7933533402912359 -0.6087614290087199 -0.0
  outer loop
    vertex 13.65685424949238 13.65685424949238 60.0
    vertex 14.928203230275507 11.999999999999998 0.0
    vertex 14.928203230275507 11.999999999999998 60.0
  endloop
endfacet
facet normal -0.7933533402912359 -0.6087614290087199 -0.0
  outer loop
    vertex 14.928203230275507 11.999999999999998 0.0
    vertex 13.65685424949238 13.65685424949238 60.0
    vertex 13.65685424949238 13.65685424949238 0.0
  endloop
endfacet
facet normal -0.6087614290087202 -0.7933533402912357 -0.0
  outer loop
    vertex 13.65685424949238 13.65685424949238 60.0
    vertex 12.0 14.928203230275507 0.0
    vertex 13.65685424949238 13.65685424949238 0.0
  endloop
endfacet
facet normal -0.6087614290087202 -0.7933533402912357 -0.0
  outer loop
    vertex 12.0 14.928203230275507 0.0
    vertex 13.65685424949238 13.65685424949238 60.0
    vertex 12.0 14.928203230275507 60.0
  endloop
endfacet
facet normal -0.3826834323650904 -0.9238795325112865 -0.0
  outer loop
    vertex 12.0 14.928203230275507 60.0
    vertex 10.070552360820168 15.727406610312546 0.0
    vertex 12.0 14.928203230275507 0.0
  endloop
endfacet
facet normal -0.3826834323650904 -0.9238795325112865 -0.0
  outer loop
    vertex 10.070552360820168 15.727406610312546 0.0
    vertex 12.0 14.928203230275507 60.0
    vertex 10.070552360820168 15.727406610312546 60.0
  endloop
endfacet
facet normal -0.13052619222005163 -0.9914448613738104 -0.0
  outer loop
    vertex 10.070552360820168 15.727406610312546 60.0
    vertex 7.999999999999999 15.999999999999998 0.0
    vertex 10.070552360820168 15.727406610312546 0.0
  endloop
endfacet
facet normal -0.13052619222005163 -0.9914448613738104 -0.0
  outer loop
    vertex 7.999999999999999 15.999999999999998 0.0
    vertex 10.070552360820168 15.727406610312546 60.0
    vertex 7.999999999999999 15.999999999999998 60.0
  endloop
endfacet
facet normal 0.13052619222005185 -0.9914448613738105 0.0
  outer loop
    vertex 7.999999999999999 15.999999999999998 60.0
    vertex 5.929447639179835 15.727406610312546 0.0
    vertex 7.999999999999999 15.999999999999998 0.0
  endloop
endfacet
facet normal 0.13052619222005185 -0.9914448613738105 0.0
  outer loop
    vertex 5.929447639179835 15.727406610312546 0.0
    vertex 7.999999999999999 15.999999999999998 60.0
    vertex 5.929447639179835 15.727406610312546 60.0
  endloop
endfacet
facet normal 0.3826834323650891 -0.9238795325112871 0.0
  outer loop
    vertex 5.929447639179835 15.727406610312546 60.0
    vertex 4.000000000000003 14.92820323027551 0.0
    vertex 5.929447639179835 15.727406610312546 0.0
  endloop
endfacet
facet normal 0.3826834323650891 -0.9238795325112871 0.0
  outer loop
    vertex 4.000000000000003 14.92820323027551 0.0
    vertex 5.929447639179835 15.727406610312546 60.0
    vertex 4.000000000000003 14.92820323027551 60.0
  endloop
endfacet
facet normal 0.6087614290087207 -0.793353340291235 0.0
  outer loop
    vertex 4.000000000000003 14.92820323027551 60.0
    vertex 2.3431457505076208 13.65685424949238 0.0
    vertex 4.000000000000003 14.92820323027551 0.0
  endloop
endfacet
facet normal 0.6087614290087207 -0.793353340291235 0.0
  outer loop
    vertex 2.3431457505076208 13.65685424949238 0.0
    vertex 4.000000000000003 14.92820323027551 60.0
    vertex 2.3431457505076208 13.65685424949238 60.0
  endloop
endfacet
endsolid Экспериментальная-втулка
