solid Vtulka-Niz
facet normal 0.0 0.0 -1.0
  outer loop
    vertex -5.299999999999998 9.179869280115051 0.0
    vertex -4.056888470414086 1.0870399894305907 0.0
    vertex -4.2 0.0 0.0
  endloop
endfacet
facet normal 0.0 0.0 -1.0
  outer loop
    vertex -4.056888470414086 1.0870399894305907 0.0
    vertex -5.299999999999998 9.179869280115051 0.0
    vertex -2.743481878086719 10.238813758664126 0.0
  endloop
endfacet
facet normal 0.0 0.0 -1.0
  outer loop
    vertex -4.056888470414086 1.0870399894305907 0.0
    vertex -2.743481878086719 10.238813758664126 0.0
    vertex -3.6373066958946416 2.100000000000002 0.0
  endloop
endfacet
facet normal 0.0 0.0 -1.0
  outer loop
    vertex -3.6373066958946416 2.100000000000002 0.0
    vertex -2.743481878086719 10.238813758664126 0.0
    vertex -2.9698484809834986 2.9698484809835004 0.0
  endloop
endfacet
facet normal 0.0 0.0 -1.0
  outer loop
    vertex -2.9698484809834986 2.9698484809835004 0.0
    vertex -2.743481878086719 10.238813758664126 0.0
    vertex -2.0999999999999974 3.6373066958946443 0.0
  endloop
endfacet
facet normal 0.0 0.0 -1.0
  outer loop
    vertex -2.0999999999999974 3.6373066958946443 0.0
    vertex -2.743481878086719 10.238813758664126 0.0
    vertex 6.490628035480973e-16 10.6 0.0
  endloop
endfacet
facet normal 0.0 0.0 -1.0
  outer loop
    vertex -2.0999999999999974 3.6373066958946443 0.0
    vertex 6.490628035480973e-16 10.6 0.0
    vertex -1.087039989430585 4.056888470414088 0.0
  endloop
endfacet
facet normal 0.0 0.0 -1.0
  outer loop
    vertex -1.087039989430585 4.056888470414088 0.0
    vertex 6.490628035480973e-16 10.6 0.0
    vertex 7.715274834628324e-16 4.2 0.0
  endloop
endfacet
facet normal 0.0 0.0 -1.0
  outer loop
    vertex 7.715274834628324e-16 4.2 0.0
    vertex 6.490628035480973e-16 10.6 0.0
    vertex 2.7434818780867225 10.238813758664124 0.0
  endloop
endfacet
facet normal 0.0 0.0 -1.0
  outer loop
    vertex 7.715274834628324e-16 4.2 0.0
    vertex 2.7434818780867225 10.238813758664124 0.0
    vertex 1.0870399894305902 4.056888470414086 0.0
  endloop
endfacet
facet normal 0.0 0.0 -1.0
  outer loop
    vertex 1.0870399894305902 4.056888470414086 0.0
    vertex 2.7434818780867225 10.238813758664124 0.0
    vertex 2.100000000000002 3.6373066958946416 0.0
  endloop
endfacet
facet normal 0.0 0.0 -1.0
  outer loop
    vertex 2.100000000000002 3.6373066958946416 0.0
    vertex 2.7434818780867225 10.238813758664124 0.0
    vertex 2.9698484809835013 2.969848480983498 0.0
  endloop
endfacet
facet normal 0.0 0.0 -1.0
  outer loop
    vertex 2.9698484809835013 2.969848480983498 0.0
    vertex 2.7434818780867225 10.238813758664124 0.0
    vertex 5.300000000000002 9.17986928011505 0.0
  endloop
endfacet
facet normal 0.0 0.0 -1.0
  outer loop
    vertex 2.9698484809835013 2.969848480983498 0.0
    vertex 5.300000000000002 9.17986928011505 0.0
    vertex 3.637306695894643 2.0999999999999988 0.0
  endloop
endfacet
facet normal 0.0 0.0 -1.0
  outer loop
    vertex 3.637306695894643 2.0999999999999988 0.0
    vertex 5.300000000000002 9.17986928011505 0.0
    vertex 4.056888470414088 1.0870399894305856 0.0
  endloop
endfacet
facet normal 0.0 0.0 -1.0
  outer loop
    vertex 4.056888470414088 1.0870399894305856 0.0
    vertex 5.300000000000002 9.17986928011505 0.0
    vertex 4.2 -5.143516556418884e-16 0.0
  endloop
endfacet
facet normal 0.0 0.0 -1.0
  outer loop
    vertex 4.2 -5.143516556418884e-16 0.0
    vertex 5.300000000000002 9.17986928011505 0.0
    vertex 5.299999999999993 -9.179869280115055 0.0
  endloop
endfacet
facet normal 0.0 0.0 -1.0
  outer loop
    vertex 5.299999999999993 -9.179869280115055 0.0
    vertex 5.300000000000002 9.17986928011505 0.0
    vertex 7.495331880577402 -7.495331880577407 0.0
  endloop
endfacet
facet normal 0.0 0.0 -1.0
  outer loop
    vertex 7.495331880577402 -7.495331880577407 0.0
    vertex 5.300000000000002 9.17986928011505 0.0
    vertex 7.495331880577405 7.495331880577403 0.0
  endloop
endfacet
facet normal 0.0 0.0 -1.0
  outer loop
    vertex 7.495331880577402 -7.495331880577407 0.0
    vertex 7.495331880577405 7.495331880577403 0.0
    vertex 9.179869280115048 -5.300000000000005 0.0
  endloop
endfacet
facet normal 0.0 0.0 -1.0
  outer loop
    vertex 9.179869280115048 -5.300000000000005 0.0
    vertex 7.495331880577405 7.495331880577403 0.0
    vertex 9.179869280115051 5.3 0.0
  endloop
endfacet
facet normal 0.0 0.0 -1.0
  outer loop
    vertex 9.179869280115048 -5.300000000000005 0.0
    vertex 9.179869280115051 5.3 0.0
    vertex 10.238813758664122 -2.7434818780867287 0.0
  endloop
endfacet
facet normal 0.0 0.0 -1.0
  outer loop
    vertex 10.238813758664122 -2.7434818780867287 0.0
    vertex 9.179869280115051 5.3 0.0
    vertex 10.238813758664126 2.74348187808672 0.0
  endloop
endfacet
facet normal 0.0 0.0 -1.0
  outer loop
    vertex 10.238813758664122 -2.7434818780867287 0.0
    vertex 10.238813758664126 2.74348187808672 0.0
    vertex 10.6 0.0 0.0
  endloop
endfacet
facet normal 0.0 0.0 -1.0
  outer loop
    vertex -10.238813758664124 2.743481878086723 0.0
    vertex -10.238813758664126 -2.743481878086716 0.0
    vertex -10.6 1.2981256070961946e-15 0.0
  endloop
endfacet
facet normal 0.0 0.0 -1.0
  outer loop
    vertex -10.238813758664126 -2.743481878086716 0.0
    vertex -10.238813758664124 2.743481878086723 0.0
    vertex -9.179869280115051 -5.299999999999997 0.0
  endloop
endfacet
facet normal 0.0 0.0 -1.0
  outer loop
    vertex -9.179869280115051 -5.299999999999997 0.0
    vertex -10.238813758664124 2.743481878086723 0.0
    vertex -9.179869280115048 5.300000000000003 0.0
  endloop
endfacet
facet normal 0.0 0.0 -1.0
  outer loop
    vertex -9.179869280115051 -5.299999999999997 0.0
    vertex -9.179869280115048 5.300000000000003 0.0
    vertex -7.495331880577408 -7.4953318805774 0.0
  endloop
endfacet
facet normal 0.0 0.0 -1.0
  outer loop
    vertex -7.495331880577408 -7.4953318805774 0.0
    vertex -9.179869280115048 5.300000000000003 0.0
    vertex -7.495331880577403 7.495331880577405 0.0
  endloop
endfacet
facet normal 0.0 0.0 -1.0
  outer loop
    vertex -7.495331880577408 -7.4953318805774 0.0
    vertex -7.495331880577403 7.495331880577405 0.0
    vertex -5.300000000000005 -9.179869280115048 0.0
  endloop
endfacet
facet normal 0.0 0.0 -1.0
  outer loop
    vertex -5.300000000000005 -9.179869280115048 0.0
    vertex -7.495331880577403 7.495331880577405 0.0
    vertex -5.299999999999998 9.179869280115051 0.0
  endloop
endfacet
facet normal 0.0 0.0 -1.0
  outer loop
    vertex -5.300000000000005 -9.179869280115048 0.0
    vertex -5.299999999999998 9.179869280115051 0.0
    vertex -4.2 0.0 0.0
  endloop
endfacet
facet normal 0.0 0.0 -1.0
  outer loop
    vertex -5.300000000000005 -9.179869280115048 0.0
    vertex -4.2 0.0 0.0
    vertex -4.056888470414087 -1.087039989430587 0.0
  endloop
endfacet
facet normal 0.0 0.0 -1.0
  outer loop
    vertex -5.300000000000005 -9.179869280115048 0.0
    vertex -4.056888470414087 -1.087039989430587 0.0
    vertex -2.743481878086728 -10.238813758664122 0.0
  endloop
endfacet
facet normal 0.0 0.0 -1.0
  outer loop
    vertex -2.743481878086728 -10.238813758664122 0.0
    vertex -4.056888470414087 -1.087039989430587 0.0
    vertex -3.637306695894643 -2.0999999999999996 0.0
  endloop
endfacet
facet normal 0.0 0.0 -1.0
  outer loop
    vertex -2.743481878086728 -10.238813758664122 0.0
    vertex -3.637306695894643 -2.0999999999999996 0.0
    vertex -2.9698484809835 -2.9698484809834995 0.0
  endloop
endfacet
facet normal 0.0 0.0 -1.0
  outer loop
    vertex -2.743481878086728 -10.238813758664122 0.0
    vertex -2.9698484809835 -2.9698484809834995 0.0
    vertex -2.1000000000000005 -3.637306695894642 0.0
  endloop
endfacet
facet normal 0.0 0.0 -1.0
  outer loop
    vertex -2.743481878086728 -10.238813758664122 0.0
    vertex -2.1000000000000005 -3.637306695894642 0.0
    vertex -1.9471884106442914e-15 -10.6 0.0
  endloop
endfacet
facet normal 0.0 0.0 -1.0
  outer loop
    vertex -1.9471884106442914e-15 -10.6 0.0
    vertex -2.1000000000000005 -3.637306695894642 0.0
    vertex -1.087039989430588 -4.056888470414087 0.0
  endloop
endfacet
facet normal 0.0 0.0 -1.0
  outer loop
    vertex -1.9471884106442914e-15 -10.6 0.0
    vertex -1.087039989430588 -4.056888470414087 0.0
    vertex -2.571758278209442e-16 -4.2 0.0
  endloop
endfacet
facet normal 0.0 0.0 -1.0
  outer loop
    vertex -1.9471884106442914e-15 -10.6 0.0
    vertex -2.571758278209442e-16 -4.2 0.0
    vertex 2.7434818780867154 -10.238813758664126 0.0
  endloop
endfacet
facet normal 0.0 0.0 -1.0
  outer loop
    vertex 2.7434818780867154 -10.238813758664126 0.0
    vertex -2.571758278209442e-16 -4.2 0.0
    vertex 1.0870399894305867 -4.056888470414087 0.0
  endloop
endfacet
facet normal 0.0 0.0 -1.0
  outer loop
    vertex 2.7434818780867154 -10.238813758664126 0.0
    vertex 1.0870399894305867 -4.056888470414087 0.0
    vertex 2.0999999999999988 -3.637306695894643 0.0
  endloop
endfacet
facet normal 0.0 0.0 -1.0
  outer loop
    vertex 2.7434818780867154 -10.238813758664126 0.0
    vertex 2.0999999999999988 -3.637306695894643 0.0
    vertex 2.9698484809834995 -2.9698484809835 0.0
  endloop
endfacet
facet normal 0.0 0.0 -1.0
  outer loop
    vertex 2.7434818780867154 -10.238813758664126 0.0
    vertex 2.9698484809834995 -2.9698484809835 0.0
    vertex 5.299999999999993 -9.179869280115055 0.0
  endloop
endfacet
facet normal 0.0 0.0 -1.0
  outer loop
    vertex 5.299999999999993 -9.179869280115055 0.0
    vertex 2.9698484809834995 -2.9698484809835 0.0
    vertex 3.6373066958946416 -2.1000000000000014 0.0
  endloop
endfacet
facet normal 0.0 0.0 -1.0
  outer loop
    vertex 5.299999999999993 -9.179869280115055 0.0
    vertex 3.6373066958946416 -2.1000000000000014 0.0
    vertex 4.056888470414087 -1.0870399894305884 0.0
  endloop
endfacet
facet normal 0.0 0.0 -1.0
  outer loop
    vertex 5.299999999999993 -9.179869280115055 0.0
    vertex 4.056888470414087 -1.0870399894305884 0.0
    vertex 4.2 -5.143516556418884e-16 0.0
  endloop
endfacet
facet normal -0.0 -0.0 1.0
  outer loop
    vertex -10.238813758664126 -2.743481878086716 15.0
    vertex -10.238813758664124 2.743481878086723 15.0
    vertex -10.6 1.2981256070961946e-15 15.0
  endloop
endfacet
facet normal -0.0 -0.0 1.0
  outer loop
    vertex -10.238813758664124 2.743481878086723 15.0
    vertex -10.238813758664126 -2.743481878086716 15.0
    vertex -9.179869280115051 -5.299999999999997 15.0
  endloop
endfacet
facet normal -0.0 -0.0 1.0
  outer loop
    vertex -10.238813758664124 2.743481878086723 15.0
    vertex -9.179869280115051 -5.299999999999997 15.0
    vertex -9.179869280115048 5.300000000000003 15.0
  endloop
endfacet
facet normal -0.0 -0.0 1.0
  outer loop
    vertex -9.179869280115048 5.300000000000003 15.0
    vertex -9.179869280115051 -5.299999999999997 15.0
    vertex -7.495331880577408 -7.4953318805774 15.0
  endloop
endfacet
facet normal -0.0 -0.0 1.0
  outer loop
    vertex -9.179869280115048 5.300000000000003 15.0
    vertex -7.495331880577408 -7.4953318805774 15.0
    vertex -7.495331880577403 7.495331880577405 15.0
  endloop
endfacet
facet normal -0.0 -0.0 1.0
  outer loop
    vertex -7.495331880577403 7.495331880577405 15.0
    vertex -7.495331880577408 -7.4953318805774 15.0
    vertex -6.499999999999999 -3.7527767497325666 15.0
  endloop
endfacet
facet normal -0.0 -0.0 1.0
  outer loop
    vertex -6.499999999999999 -3.7527767497325666 15.0
    vertex -7.495331880577408 -7.4953318805774 15.0
    vertex -5.300000000000005 -9.179869280115048 15.0
  endloop
endfacet
facet normal -0.0 -0.0 1.0
  outer loop
    vertex -6.499999999999999 -3.7527767497325666 15.0
    vertex -5.300000000000005 -9.179869280115048 15.0
    vertex -2.114974861910923e-15 -7.505553499465132 15.0
  endloop
endfacet
facet normal -0.0 -0.0 1.0
  outer loop
    vertex -2.114974861910923e-15 -7.505553499465132 15.0
    vertex -5.300000000000005 -9.179869280115048 15.0
    vertex -2.743481878086728 -10.238813758664122 15.0
  endloop
endfacet
facet normal -0.0 -0.0 1.0
  outer loop
    vertex -2.114974861910923e-15 -7.505553499465132 15.0
    vertex -2.743481878086728 -10.238813758664122 15.0
    vertex -1.9471884106442914e-15 -10.6 15.0
  endloop
endfacet
facet normal -0.0 -0.0 1.0
  outer loop
    vertex -2.114974861910923e-15 -7.505553499465132 15.0
    vertex -1.9471884106442914e-15 -10.6 15.0
    vertex 6.499999999999998 -3.7527767497325675 15.0
  endloop
endfacet
facet normal -0.0 -0.0 1.0
  outer loop
    vertex 6.499999999999998 -3.7527767497325675 15.0
    vertex -1.9471884106442914e-15 -10.6 15.0
    vertex 2.7434818780867154 -10.238813758664126 15.0
  endloop
endfacet
facet normal -0.0 -0.0 1.0
  outer loop
    vertex 6.499999999999998 -3.7527767497325675 15.0
    vertex 2.7434818780867154 -10.238813758664126 15.0
    vertex 5.299999999999993 -9.179869280115055 15.0
  endloop
endfacet
facet normal -0.0 -0.0 1.0
  outer loop
    vertex 6.499999999999998 -3.7527767497325675 15.0
    vertex 5.299999999999993 -9.179869280115055 15.0
    vertex 7.495331880577402 -7.495331880577407 15.0
  endloop
endfacet
facet normal -0.0 -0.0 1.0
  outer loop
    vertex 6.499999999999998 -3.7527767497325675 15.0
    vertex 7.495331880577402 -7.495331880577407 15.0
    vertex 6.499999999999999 3.752776749732566 15.0
  endloop
endfacet
facet normal -0.0 -0.0 1.0
  outer loop
    vertex -7.495331880577403 7.495331880577405 15.0
    vertex -6.4999999999999964 3.7527767497325715 15.0
    vertex -5.299999999999998 9.179869280115051 15.0
  endloop
endfacet
facet normal -0.0 -0.0 1.0
  outer loop
    vertex -6.4999999999999964 3.7527767497325715 15.0
    vertex -7.495331880577403 7.495331880577405 15.0
    vertex -6.499999999999999 -3.7527767497325666 15.0
  endloop
endfacet
facet normal -0.0 -0.0 1.0
  outer loop
    vertex -5.299999999999998 9.179869280115051 15.0
    vertex -6.4999999999999964 3.7527767497325715 15.0
    vertex 5.639932965095795e-15 7.505553499465132 15.0
  endloop
endfacet
facet normal -0.0 -0.0 1.0
  outer loop
    vertex -5.299999999999998 9.179869280115051 15.0
    vertex 5.639932965095795e-15 7.505553499465132 15.0
    vertex -2.743481878086719 10.238813758664126 15.0
  endloop
endfacet
facet normal -0.0 -0.0 1.0
  outer loop
    vertex -2.743481878086719 10.238813758664126 15.0
    vertex 5.639932965095795e-15 7.505553499465132 15.0
    vertex 6.490628035480973e-16 10.6 15.0
  endloop
endfacet
facet normal -0.0 -0.0 1.0
  outer loop
    vertex 6.490628035480973e-16 10.6 15.0
    vertex 5.639932965095795e-15 7.505553499465132 15.0
    vertex 2.7434818780867225 10.238813758664124 15.0
  endloop
endfacet
facet normal -0.0 -0.0 1.0
  outer loop
    vertex 2.7434818780867225 10.238813758664124 15.0
    vertex 5.639932965095795e-15 7.505553499465132 15.0
    vertex 6.499999999999999 3.752776749732566 15.0
  endloop
endfacet
facet normal -0.0 -0.0 1.0
  outer loop
    vertex 2.7434818780867225 10.238813758664124 15.0
    vertex 6.499999999999999 3.752776749732566 15.0
    vertex 5.300000000000002 9.17986928011505 15.0
  endloop
endfacet
facet normal -0.0 -0.0 1.0
  outer loop
    vertex 5.300000000000002 9.17986928011505 15.0
    vertex 6.499999999999999 3.752776749732566 15.0
    vertex 7.495331880577405 7.495331880577403 15.0
  endloop
endfacet
facet normal -0.0 -0.0 1.0
  outer loop
    vertex 7.495331880577405 7.495331880577403 15.0
    vertex 6.499999999999999 3.752776749732566 15.0
    vertex 7.495331880577402 -7.495331880577407 15.0
  endloop
endfacet
facet normal -0.0 -0.0 1.0
  outer loop
    vertex 7.495331880577405 7.495331880577403 15.0
    vertex 7.495331880577402 -7.495331880577407 15.0
    vertex 9.179869280115048 -5.300000000000005 15.0
  endloop
endfacet
facet normal -0.0 -0.0 1.0
  outer loop
    vertex 7.495331880577405 7.495331880577403 15.0
    vertex 9.179869280115048 -5.300000000000005 15.0
    vertex 9.179869280115051 5.3 15.0
  endloop
endfacet
facet normal -0.0 -0.0 1.0
  outer loop
    vertex 9.179869280115051 5.3 15.0
    vertex 9.179869280115048 -5.300000000000005 15.0
    vertex 10.238813758664122 -2.7434818780867287 15.0
  endloop
endfacet
facet normal -0.0 -0.0 1.0
  outer loop
    vertex 9.179869280115051 5.3 15.0
    vertex 10.238813758664122 -2.7434818780867287 15.0
    vertex 10.238813758664126 2.74348187808672 15.0
  endloop
endfacet
facet normal -0.0 -0.0 1.0
  outer loop
    vertex 10.238813758664126 2.74348187808672 15.0
    vertex 10.238813758664122 -2.7434818780867287 15.0
    vertex 10.6 0.0 15.0
  endloop
endfacet
facet normal 0.6087614290087202 -0.7933533402912357 0.0
  outer loop
    vertex 7.495331880577402 -7.495331880577407 15.0
    vertex 5.299999999999993 -9.179869280115055 0.0
    vertex 7.495331880577402 -7.495331880577407 0.0
  endloop
endfacet
facet normal 0.6087614290087202 -0.7933533402912357 0.0
  outer loop
    vertex 5.299999999999993 -9.179869280115055 0.0
    vertex 7.495331880577402 -7.495331880577407 15.0
    vertex 5.299999999999993 -9.179869280115055 15.0
  endloop
endfacet
facet normal 0.3826834323650895 -0.923879532511287 0.0
  outer loop
    vertex 5.299999999999993 -9.179869280115055 15.0
    vertex 2.7434818780867154 -10.238813758664126 0.0
    vertex 5.299999999999993 -9.179869280115055 0.0
  endloop
endfacet
facet normal 0.3826834323650895 -0.923879532511287 0.0
  outer loop
    vertex 2.7434818780867154 -10.238813758664126 0.0
    vertex 5.299999999999993 -9.179869280115055 15.0
    vertex 2.7434818780867154 -10.238813758664126 15.0
  endloop
endfacet
facet normal 0.13052619222005096 -0.9914448613738105 0.0
  outer loop
    vertex 2.7434818780867154 -10.238813758664126 15.0
    vertex -1.9471884106442914e-15 -10.6 0.0
    vertex 2.7434818780867154 -10.238813758664126 0.0
  endloop
endfacet
facet normal 0.13052619222005096 -0.9914448613738105 0.0
  outer loop
    vertex -1.9471884106442914e-15 -10.6 0.0
    vertex 2.7434818780867154 -10.238813758664126 15.0
    vertex -1.9471884106442914e-15 -10.6 15.0
  endloop
endfacet
facet normal -0.1305261922200521 -0.9914448613738105 -0.0
  outer loop
    vertex -1.9471884106442914e-15 -10.6 15.0
    vertex -2.743481878086728 -10.238813758664122 0.0
    vertex -1.9471884106442914e-15 -10.6 0.0
  endloop
endfacet
facet normal -0.1305261922200521 -0.9914448613738105 -0.0
  outer loop
    vertex -2.743481878086728 -10.238813758664122 0.0
    vertex -1.9471884106442914e-15 -10.6 15.0
    vertex -2.743481878086728 -10.238813758664122 15.0
  endloop
endfacet
facet normal -0.3826834323650904 -0.9238795325112865 -0.0
  outer loop
    vertex -2.743481878086728 -10.238813758664122 15.0
    vertex -5.300000000000005 -9.179869280115048 0.0
    vertex -2.743481878086728 -10.238813758664122 0.0
  endloop
endfacet
facet normal -0.3826834323650904 -0.9238795325112865 -0.0
  outer loop
    vertex -5.300000000000005 -9.179869280115048 0.0
    vertex -2.743481878086728 -10.238813758664122 15.0
    vertex -5.300000000000005 -9.179869280115048 15.0
  endloop
endfacet
facet normal -0.6087614290087212 -0.7933533402912347 -0.0
  outer loop
    vertex -5.300000000000005 -9.179869280115048 15.0
    vertex -7.495331880577408 -7.4953318805774 0.0
    vertex -5.300000000000005 -9.179869280115048 0.0
  endloop
endfacet
facet normal -0.6087614290087212 -0.7933533402912347 -0.0
  outer loop
    vertex -7.495331880577408 -7.4953318805774 0.0
    vertex -5.300000000000005 -9.179869280115048 15.0
    vertex -7.495331880577408 -7.4953318805774 15.0
  endloop
endfacet
facet normal -0.7933533402912354 -0.6087614290087204 -0.0
  outer loop
    vertex -9.179869280115051 -5.299999999999997 15.0
    vertex -7.495331880577408 -7.4953318805774 0.0
    vertex -7.495331880577408 -7.4953318805774 15.0
  endloop
endfacet
facet normal -0.7933533402912354 -0.6087614290087204 -0.0
  outer loop
    vertex -7.495331880577408 -7.4953318805774 0.0
    vertex -9.179869280115051 -5.299999999999997 15.0
    vertex -9.179869280115051 -5.299999999999997 0.0
  endloop
endfacet
facet normal -0.9238795325112867 -0.38268343236508984 -0.0
  outer loop
    vertex -10.238813758664126 -2.743481878086716 15.0
    vertex -9.179869280115051 -5.299999999999997 0.0
    vertex -9.179869280115051 -5.299999999999997 15.0
  endloop
endfacet
facet normal -0.9238795325112867 -0.38268343236508984 -0.0
  outer loop
    vertex -9.179869280115051 -5.299999999999997 0.0
    vertex -10.238813758664126 -2.743481878086716 15.0
    vertex -10.238813758664126 -2.743481878086716 0.0
  endloop
endfacet
facet normal -0.9914448613738106 -0.130526192220051 -0.0
  outer loop
    vertex -10.6 1.2981256070961946e-15 15.0
    vertex -10.238813758664126 -2.743481878086716 0.0
    vertex -10.238813758664126 -2.743481878086716 15.0
  endloop
endfacet
facet normal -0.9914448613738106 -0.130526192220051 -0.0
  outer loop
    vertex -10.238813758664126 -2.743481878086716 0.0
    vertex -10.6 1.2981256070961946e-15 15.0
    vertex -10.6 1.2981256070961946e-15 0.0
  endloop
endfacet
facet normal -0.9914448613738104 0.13052619222005177 0.0
  outer loop
    vertex -10.238813758664124 2.743481878086723 15.0
    vertex -10.6 1.2981256070961946e-15 0.0
    vertex -10.6 1.2981256070961946e-15 15.0
  endloop
endfacet
facet normal -0.9914448613738104 0.13052619222005177 0.0
  outer loop
    vertex -10.6 1.2981256070961946e-15 0.0
    vertex -10.238813758664124 2.743481878086723 15.0
    vertex -10.238813758664124 2.743481878086723 0.0
  endloop
endfacet
facet normal -0.9238795325112868 0.38268343236509 0.0
  outer loop
    vertex -9.179869280115048 5.300000000000003 15.0
    vertex -10.238813758664124 2.743481878086723 0.0
    vertex -10.238813758664124 2.743481878086723 15.0
  endloop
endfacet
facet normal -0.9238795325112868 0.38268343236509 0.0
  outer loop
    vertex -10.238813758664124 2.743481878086723 0.0
    vertex -9.179869280115048 5.300000000000003 15.0
    vertex -9.179869280115048 5.300000000000003 0.0
  endloop
endfacet
facet normal -0.7933533402912352 0.6087614290087209 0.0
  outer loop
    vertex -7.495331880577403 7.495331880577405 15.0
    vertex -9.179869280115048 5.300000000000003 0.0
    vertex -9.179869280115048 5.300000000000003 15.0
  endloop
endfacet
facet normal -0.7933533402912352 0.6087614290087209 0.0
  outer loop
    vertex -9.179869280115048 5.300000000000003 0.0
    vertex -7.495331880577403 7.495331880577405 15.0
    vertex -7.495331880577403 7.495331880577405 0.0
  endloop
endfacet
facet normal -0.6087614290087204 0.7933533402912354 0.0
  outer loop
    vertex -7.495331880577403 7.495331880577405 15.0
    vertex -5.299999999999998 9.179869280115051 0.0
    vertex -7.495331880577403 7.495331880577405 0.0
  endloop
endfacet
facet normal -0.6087614290087204 0.7933533402912354 0.0
  outer loop
    vertex -5.299999999999998 9.179869280115051 0.0
    vertex -7.495331880577403 7.495331880577405 15.0
    vertex -5.299999999999998 9.179869280115051 15.0
  endloop
endfacet
facet normal -0.3826834323650898 0.923879532511287 0.0
  outer loop
    vertex -5.299999999999998 9.179869280115051 15.0
    vertex -2.743481878086719 10.238813758664126 0.0
    vertex -5.299999999999998 9.179869280115051 0.0
  endloop
endfacet
facet normal -0.3826834323650898 0.923879532511287 0.0
  outer loop
    vertex -2.743481878086719 10.238813758664126 0.0
    vertex -5.299999999999998 9.179869280115051 15.0
    vertex -2.743481878086719 10.238813758664126 15.0
  endloop
endfacet
facet normal -0.13052619222005138 0.9914448613738105 0.0
  outer loop
    vertex -2.743481878086719 10.238813758664126 15.0
    vertex 6.490628035480973e-16 10.6 0.0
    vertex -2.743481878086719 10.238813758664126 0.0
  endloop
endfacet
facet normal -0.13052619222005138 0.9914448613738105 0.0
  outer loop
    vertex 6.490628035480973e-16 10.6 0.0
    vertex -2.743481878086719 10.238813758664126 15.0
    vertex 6.490628035480973e-16 10.6 15.0
  endloop
endfacet
facet normal 0.13052619222005177 0.9914448613738105 0.0
  outer loop
    vertex 6.490628035480973e-16 10.6 15.0
    vertex 2.7434818780867225 10.238813758664124 0.0
    vertex 6.490628035480973e-16 10.6 0.0
  endloop
endfacet
facet normal 0.13052619222005177 0.9914448613738105 0.0
  outer loop
    vertex 2.7434818780867225 10.238813758664124 0.0
    vertex 6.490628035480973e-16 10.6 15.0
    vertex 2.7434818780867225 10.238813758664124 15.0
  endloop
endfacet
facet normal 0.3826834323650898 0.923879532511287 0.0
  outer loop
    vertex 2.7434818780867225 10.238813758664124 15.0
    vertex 5.300000000000002 9.17986928011505 0.0
    vertex 2.7434818780867225 10.238813758664124 0.0
  endloop
endfacet
facet normal 0.3826834323650898 0.923879532511287 0.0
  outer loop
    vertex 5.300000000000002 9.17986928011505 0.0
    vertex 2.7434818780867225 10.238813758664124 15.0
    vertex 5.300000000000002 9.17986928011505 15.0
  endloop
endfacet
facet normal 0.6087614290087209 0.793353340291235 0.0
  outer loop
    vertex 5.300000000000002 9.17986928011505 15.0
    vertex 7.495331880577405 7.495331880577403 0.0
    vertex 5.300000000000002 9.17986928011505 0.0
  endloop
endfacet
facet normal 0.6087614290087209 0.793353340291235 0.0
  outer loop
    vertex 7.495331880577405 7.495331880577403 0.0
    vertex 5.300000000000002 9.17986928011505 15.0
    vertex 7.495331880577405 7.495331880577403 15.0
  endloop
endfacet
facet normal 0.7933533402912352 0.6087614290087208 0.0
  outer loop
    vertex 7.495331880577405 7.495331880577403 0.0
    vertex 9.179869280115051 5.3 15.0
    vertex 9.179869280115051 5.3 0.0
  endloop
endfacet
facet normal 0.7933533402912352 0.6087614290087208 0.0
  outer loop
    vertex 9.179869280115051 5.3 15.0
    vertex 7.495331880577405 7.495331880577403 0.0
    vertex 7.495331880577405 7.495331880577403 15.0
  endloop
endfacet
facet normal 0.9238795325112868 0.38268343236508967 0.0
  outer loop
    vertex 9.179869280115051 5.3 0.0
    vertex 10.238813758664126 2.74348187808672 15.0
    vertex 10.238813758664126 2.74348187808672 0.0
  endloop
endfacet
facet normal 0.9238795325112868 0.38268343236508967 0.0
  outer loop
    vertex 10.238813758664126 2.74348187808672 15.0
    vertex 9.179869280115051 5.3 0.0
    vertex 9.179869280115051 5.3 15.0
  endloop
endfacet
facet normal 0.9914448613738106 0.13052619222005138 0.0
  outer loop
    vertex 10.238813758664126 2.74348187808672 0.0
    vertex 10.6 0.0 15.0
    vertex 10.6 0.0 0.0
  endloop
endfacet
facet normal 0.9914448613738106 0.13052619222005138 0.0
  outer loop
    vertex 10.6 0.0 15.0
    vertex 10.238813758664126 2.74348187808672 0.0
    vertex 10.238813758664126 2.74348187808672 15.0
  endloop
endfacet
facet normal 0.9914448613738104 -0.13052619222005193 0.0
  outer loop
    vertex 10.6 0.0 0.0
    vertex 10.238813758664122 -2.7434818780867287 15.0
    vertex 10.238813758664122 -2.7434818780867287 0.0
  endloop
endfacet
facet normal 0.9914448613738104 -0.13052619222005193 0.0
  outer loop
    vertex 10.238813758664122 -2.7434818780867287 15.0
    vertex 10.6 0.0 0.0
    vertex 10.6 0.0 15.0
  endloop
endfacet
facet normal 0.9238795325112866 -0.3826834323650906 0.0
  outer loop
    vertex 10.238813758664122 -2.7434818780867287 0.0
    vertex 9.179869280115048 -5.300000000000005 15.0
    vertex 9.179869280115048 -5.300000000000005 0.0
  endloop
endfacet
facet normal 0.9238795325112866 -0.3826834323650906 0.0
  outer loop
    vertex 9.179869280115048 -5.300000000000005 15.0
    vertex 10.238813758664122 -2.7434818780867287 0.0
    vertex 10.238813758664122 -2.7434818780867287 15.0
  endloop
endfacet
facet normal 0.7933533402912352 -0.6087614290087209 0.0
  outer loop
    vertex 9.179869280115048 -5.300000000000005 0.0
    vertex 7.495331880577402 -7.495331880577407 15.0
    vertex 7.495331880577402 -7.495331880577407 0.0
  endloop
endfacet
facet normal 0.7933533402912352 -0.6087614290087209 0.0
  outer loop
    vertex 7.495331880577402 -7.495331880577407 15.0
    vertex 9.179869280115048 -5.300000000000005 0.0
    vertex 9.179869280115048 -5.300000000000005 15.0
  endloop
endfacet
facet normal -0.923879532511287 -0.3826834323650897 -0.0
  outer loop
    vertex 3.637306695894643 2.0999999999999988 8.0
    vertex 4.056888470414088 1.0870399894305856 0.0
    vertex 4.056888470414088 1.0870399894305856 8.0
  endloop
endfacet
facet normal -0.923879532511287 -0.3826834323650897 -0.0
  outer loop
    vertex 4.056888470414088 1.0870399894305856 0.0
    vertex 3.637306695894643 2.0999999999999988 8.0
    vertex 3.637306695894643 2.0999999999999988 0.0
  endloop
endfacet
facet normal -0.7933533402912356 -0.6087614290087203 -0.0
  outer loop
    vertex 2.9698484809835013 2.969848480983498 8.0
    vertex 3.637306695894643 2.0999999999999988 0.0
    vertex 3.637306695894643 2.0999999999999988 8.0
  endloop
endfacet
facet normal -0.7933533402912356 -0.6087614290087203 -0.0
  outer loop
    vertex 3.637306695894643 2.0999999999999988 0.0
    vertex 2.9698484809835013 2.969848480983498 8.0
    vertex 2.9698484809835013 2.969848480983498 0.0
  endloop
endfacet
facet normal -0.6087614290087211 -0.7933533402912347 -0.0
  outer loop
    vertex 2.9698484809835013 2.969848480983498 8.0
    vertex 2.100000000000002 3.6373066958946416 0.0
    vertex 2.9698484809835013 2.969848480983498 0.0
  endloop
endfacet
facet normal -0.6087614290087211 -0.7933533402912347 -0.0
  outer loop
    vertex 2.100000000000002 3.6373066958946416 0.0
    vertex 2.9698484809835013 2.969848480983498 8.0
    vertex 2.100000000000002 3.6373066958946416 8.0
  endloop
endfacet
facet normal -0.38268343236509034 -0.9238795325112867 -0.0
  outer loop
    vertex 2.100000000000002 3.6373066958946416 8.0
    vertex 1.0870399894305902 4.056888470414086 0.0
    vertex 2.100000000000002 3.6373066958946416 0.0
  endloop
endfacet
facet normal -0.38268343236509034 -0.9238795325112867 -0.0
  outer loop
    vertex 1.0870399894305902 4.056888470414086 0.0
    vertex 2.100000000000002 3.6373066958946416 8.0
    vertex 1.0870399894305902 4.056888470414086 8.0
  endloop
endfacet
facet normal -0.13052619222005196 -0.9914448613738104 -0.0
  outer loop
    vertex 1.0870399894305902 4.056888470414086 8.0
    vertex 7.715274834628324e-16 4.2 0.0
    vertex 1.0870399894305902 4.056888470414086 0.0
  endloop
endfacet
facet normal -0.13052619222005196 -0.9914448613738104 -0.0
  outer loop
    vertex 7.715274834628324e-16 4.2 0.0
    vertex 1.0870399894305902 4.056888470414086 8.0
    vertex 7.715274834628324e-16 4.2 8.0
  endloop
endfacet
facet normal 0.13052619222005116 -0.9914448613738105 0.0
  outer loop
    vertex 7.715274834628324e-16 4.2 8.0
    vertex -1.087039989430585 4.056888470414088 0.0
    vertex 7.715274834628324e-16 4.2 0.0
  endloop
endfacet
facet normal 0.13052619222005116 -0.9914448613738105 0.0
  outer loop
    vertex -1.087039989430585 4.056888470414088 0.0
    vertex 7.715274834628324e-16 4.2 8.0
    vertex -1.087039989430585 4.056888470414088 8.0
  endloop
endfacet
facet normal 0.382683432365089 -0.9238795325112872 0.0
  outer loop
    vertex -1.087039989430585 4.056888470414088 8.0
    vertex -2.0999999999999974 3.6373066958946443 0.0
    vertex -1.087039989430585 4.056888470414088 0.0
  endloop
endfacet
facet normal 0.382683432365089 -0.9238795325112872 0.0
  outer loop
    vertex -2.0999999999999974 3.6373066958946443 0.0
    vertex -1.087039989430585 4.056888470414088 8.0
    vertex -2.0999999999999974 3.6373066958946443 8.0
  endloop
endfacet
facet normal 0.6087614290087207 -0.7933533402912353 0.0
  outer loop
    vertex -2.0999999999999974 3.6373066958946443 8.0
    vertex -2.9698484809834986 2.9698484809835004 0.0
    vertex -2.0999999999999974 3.6373066958946443 0.0
  endloop
endfacet
facet normal 0.6087614290087207 -0.7933533402912353 0.0
  outer loop
    vertex -2.9698484809834986 2.9698484809835004 0.0
    vertex -2.0999999999999974 3.6373066958946443 8.0
    vertex -2.9698484809834986 2.9698484809835004 8.0
  endloop
endfacet
facet normal 0.7933533402912348 -0.6087614290087212 0.0
  outer loop
    vertex -2.9698484809834986 2.9698484809835004 0.0
    vertex -3.6373066958946416 2.100000000000002 8.0
    vertex -3.6373066958946416 2.100000000000002 0.0
  endloop
endfacet
facet normal 0.7933533402912348 -0.6087614290087212 0.0
  outer loop
    vertex -3.6373066958946416 2.100000000000002 8.0
    vertex -2.9698484809834986 2.9698484809835004 0.0
    vertex -2.9698484809834986 2.9698484809835004 8.0
  endloop
endfacet
facet normal 0.9238795325112865 -0.3826834323650904 0.0
  outer loop
    vertex -3.6373066958946416 2.100000000000002 0.0
    vertex -4.056888470414086 1.0870399894305907 8.0
    vertex -4.056888470414086 1.0870399894305907 0.0
  endloop
endfacet
facet normal 0.9238795325112865 -0.3826834323650904 0.0
  outer loop
    vertex -4.056888470414086 1.0870399894305907 8.0
    vertex -3.6373066958946416 2.100000000000002 0.0
    vertex -3.6373066958946416 2.100000000000002 8.0
  endloop
endfacet
facet normal 0.9914448613738105 -0.13052619222005185 0.0
  outer loop
    vertex -4.056888470414086 1.0870399894305907 0.0
    vertex -4.2 0.0 8.0
    vertex -4.2 0.0 0.0
  endloop
endfacet
facet normal 0.9914448613738105 -0.13052619222005185 0.0
  outer loop
    vertex -4.2 0.0 8.0
    vertex -4.056888470414086 1.0870399894305907 0.0
    vertex -4.056888470414086 1.0870399894305907 8.0
  endloop
endfacet
facet normal 0.9914448613738105 0.13052619222005163 0.0
  outer loop
    vertex -4.2 0.0 0.0
    vertex -4.056888470414087 -1.087039989430587 8.0
    vertex -4.056888470414087 -1.087039989430587 0.0
  endloop
endfacet
facet normal 0.9914448613738105 0.13052619222005163 0.0
  outer loop
    vertex -4.056888470414087 -1.087039989430587 8.0
    vertex -4.2 0.0 0.0
    vertex -4.2 0.0 8.0
  endloop
endfacet
facet normal 0.923879532511287 0.3826834323650894 0.0
  outer loop
    vertex -4.056888470414087 -1.087039989430587 0.0
    vertex -3.637306695894643 -2.0999999999999996 8.0
    vertex -3.637306695894643 -2.0999999999999996 0.0
  endloop
endfacet
facet normal 0.923879532511287 0.3826834323650894 0.0
  outer loop
    vertex -3.637306695894643 -2.0999999999999996 8.0
    vertex -4.056888470414087 -1.087039989430587 0.0
    vertex -4.056888470414087 -1.087039989430587 8.0
  endloop
endfacet
facet normal 0.7933533402912352 0.6087614290087208 0.0
  outer loop
    vertex -3.637306695894643 -2.0999999999999996 0.0
    vertex -2.9698484809835 -2.9698484809834995 8.0
    vertex -2.9698484809835 -2.9698484809834995 0.0
  endloop
endfacet
facet normal 0.7933533402912352 0.6087614290087208 0.0
  outer loop
    vertex -2.9698484809835 -2.9698484809834995 8.0
    vertex -3.637306695894643 -2.0999999999999996 0.0
    vertex -3.637306695894643 -2.0999999999999996 8.0
  endloop
endfacet
facet normal 0.6087614290087208 0.7933533402912352 0.0
  outer loop
    vertex -2.9698484809835 -2.9698484809834995 8.0
    vertex -2.1000000000000005 -3.637306695894642 0.0
    vertex -2.9698484809835 -2.9698484809834995 0.0
  endloop
endfacet
facet normal 0.6087614290087208 0.7933533402912352 0.0
  outer loop
    vertex -2.1000000000000005 -3.637306695894642 0.0
    vertex -2.9698484809835 -2.9698484809834995 8.0
    vertex -2.1000000000000005 -3.637306695894642 8.0
  endloop
endfacet
facet normal 0.38268343236509 0.9238795325112867 0.0
  outer loop
    vertex -2.1000000000000005 -3.637306695894642 8.0
    vertex -1.087039989430588 -4.056888470414087 0.0
    vertex -2.1000000000000005 -3.637306695894642 0.0
  endloop
endfacet
facet normal 0.38268343236509 0.9238795325112867 0.0
  outer loop
    vertex -1.087039989430588 -4.056888470414087 0.0
    vertex -2.1000000000000005 -3.637306695894642 8.0
    vertex -1.087039989430588 -4.056888470414087 8.0
  endloop
endfacet
facet normal 0.13052619222005155 0.9914448613738106 0.0
  outer loop
    vertex -1.087039989430588 -4.056888470414087 8.0
    vertex -2.571758278209442e-16 -4.2 0.0
    vertex -1.087039989430588 -4.056888470414087 0.0
  endloop
endfacet
facet normal 0.13052619222005155 0.9914448613738106 0.0
  outer loop
    vertex -2.571758278209442e-16 -4.2 0.0
    vertex -1.087039989430588 -4.056888470414087 8.0
    vertex -2.571758278209442e-16 -4.2 8.0
  endloop
endfacet
facet normal -0.13052619222005166 0.9914448613738105 0.0
  outer loop
    vertex -2.571758278209442e-16 -4.2 8.0
    vertex 1.0870399894305867 -4.056888470414087 0.0
    vertex -2.571758278209442e-16 -4.2 0.0
  endloop
endfacet
facet normal -0.13052619222005166 0.9914448613738105 0.0
  outer loop
    vertex 1.0870399894305867 -4.056888470414087 0.0
    vertex -2.571758278209442e-16 -4.2 8.0
    vertex 1.0870399894305867 -4.056888470414087 8.0
  endloop
endfacet
facet normal -0.38268343236508945 0.9238795325112868 0.0
  outer loop
    vertex 1.0870399894305867 -4.056888470414087 8.0
    vertex 2.0999999999999988 -3.637306695894643 0.0
    vertex 1.0870399894305867 -4.056888470414087 0.0
  endloop
endfacet
facet normal -0.38268343236508945 0.9238795325112868 0.0
  outer loop
    vertex 2.0999999999999988 -3.637306695894643 0.0
    vertex 1.0870399894305867 -4.056888470414087 8.0
    vertex 2.0999999999999988 -3.637306695894643 8.0
  endloop
endfacet
facet normal -0.6087614290087204 0.7933533402912353 0.0
  outer loop
    vertex 2.0999999999999988 -3.637306695894643 8.0
    vertex 2.9698484809834995 -2.9698484809835 0.0
    vertex 2.0999999999999988 -3.637306695894643 0.0
  endloop
endfacet
facet normal -0.6087614290087204 0.7933533402912353 0.0
  outer loop
    vertex 2.9698484809834995 -2.9698484809835 0.0
    vertex 2.0999999999999988 -3.637306695894643 8.0
    vertex 2.9698484809834995 -2.9698484809835 8.0
  endloop
endfacet
facet normal -0.793353340291235 0.6087614290087208 0.0
  outer loop
    vertex 3.6373066958946416 -2.1000000000000014 8.0
    vertex 2.9698484809834995 -2.9698484809835 0.0
    vertex 2.9698484809834995 -2.9698484809835 8.0
  endloop
endfacet
facet normal -0.793353340291235 0.6087614290087208 0.0
  outer loop
    vertex 2.9698484809834995 -2.9698484809835 0.0
    vertex 3.6373066958946416 -2.1000000000000014 8.0
    vertex 3.6373066958946416 -2.1000000000000014 0.0
  endloop
endfacet
facet normal -0.9238795325112866 0.38268343236509034 0.0
  outer loop
    vertex 4.056888470414087 -1.0870399894305884 8.0
    vertex 3.6373066958946416 -2.1000000000000014 0.0
    vertex 3.6373066958946416 -2.1000000000000014 8.0
  endloop
endfacet
facet normal -0.9238795325112866 0.38268343236509034 0.0
  outer loop
    vertex 3.6373066958946416 -2.1000000000000014 0.0
    vertex 4.056888470414087 -1.0870399894305884 8.0
    vertex 4.056888470414087 -1.0870399894305884 0.0
  endloop
endfacet
facet normal -0.9914448613738106 0.13052619222005155 0.0
  outer loop
    vertex 4.2 -5.143516556418884e-16 8.0
    vertex 4.056888470414087 -1.0870399894305884 0.0
    vertex 4.056888470414087 -1.0870399894305884 8.0
  endloop
endfacet
facet normal -0.9914448613738106 0.13052619222005155 0.0
  outer loop
    vertex 4.056888470414087 -1.0870399894305884 0.0
    vertex 4.2 -5.143516556418884e-16 8.0
    vertex 4.2 -5.143516556418884e-16 0.0
  endloop
endfacet
facet normal -0.9914448613738106 -0.13052619222005113 -0.0
  outer loop
    vertex 4.056888470414088 1.0870399894305856 8.0
    vertex 4.2 -5.143516556418884e-16 0.0
    vertex 4.2 -5.143516556418884e-16 8.0
  endloop
endfacet
facet normal -0.9914448613738106 -0.13052619222005113 -0.0
  outer loop
    vertex 4.2 -5.143516556418884e-16 0.0
    vertex 4.056888470414088 1.0870399894305856 8.0
    vertex 4.056888470414088 1.0870399894305856 0.0
  endloop
endfacet
facet normal 0.0 0.0 1.0
  outer loop
    vertex -6.499999999999999 -3.7527767497325666 8.0
    vertex -3.637306695894643 -2.0999999999999996 8.0
    vertex -6.4999999999999964 3.7527767497325715 8.0
  endloop
endfacet
facet normal 0.0 0.0 1.0
  outer loop
    vertex -3.637306695894643 -2.0999999999999996 8.0
    vertex -6.499999999999999 -3.7527767497325666 8.0
    vertex -2.114974861910923e-15 -7.505553499465132 8.0
  endloop
endfacet
facet normal 0.0 0.0 1.0
  outer loop
    vertex -6.4999999999999964 3.7527767497325715 8.0
    vertex -3.637306695894643 -2.0999999999999996 8.0
    vertex -4.056888470414087 -1.087039989430587 8.0
  endloop
endfacet
facet normal 0.0 0.0 1.0
  outer loop
    vertex -6.4999999999999964 3.7527767497325715 8.0
    vertex -4.056888470414087 -1.087039989430587 8.0
    vertex -4.2 0.0 8.0
  endloop
endfacet
facet normal 0.0 0.0 1.0
  outer loop
    vertex -3.637306695894643 -2.0999999999999996 8.0
    vertex -2.114974861910923e-15 -7.505553499465132 8.0
    vertex -2.9698484809835 -2.9698484809834995 8.0
  endloop
endfacet
facet normal 0.0 0.0 1.0
  outer loop
    vertex -2.9698484809835 -2.9698484809834995 8.0
    vertex -2.114974861910923e-15 -7.505553499465132 8.0
    vertex -2.1000000000000005 -3.637306695894642 8.0
  endloop
endfacet
facet normal 0.0 0.0 1.0
  outer loop
    vertex -2.1000000000000005 -3.637306695894642 8.0
    vertex -2.114974861910923e-15 -7.505553499465132 8.0
    vertex -1.087039989430588 -4.056888470414087 8.0
  endloop
endfacet
facet normal 0.0 0.0 1.0
  outer loop
    vertex -1.087039989430588 -4.056888470414087 8.0
    vertex -2.114974861910923e-15 -7.505553499465132 8.0
    vertex -2.571758278209442e-16 -4.2 8.0
  endloop
endfacet
facet normal 0.0 0.0 1.0
  outer loop
    vertex -2.571758278209442e-16 -4.2 8.0
    vertex -2.114974861910923e-15 -7.505553499465132 8.0
    vertex 6.499999999999998 -3.7527767497325675 8.0
  endloop
endfacet
facet normal 0.0 0.0 1.0
  outer loop
    vertex -2.571758278209442e-16 -4.2 8.0
    vertex 6.499999999999998 -3.7527767497325675 8.0
    vertex 1.0870399894305867 -4.056888470414087 8.0
  endloop
endfacet
facet normal 0.0 0.0 1.0
  outer loop
    vertex 1.0870399894305867 -4.056888470414087 8.0
    vertex 6.499999999999998 -3.7527767497325675 8.0
    vertex 2.0999999999999988 -3.637306695894643 8.0
  endloop
endfacet
facet normal 0.0 0.0 1.0
  outer loop
    vertex 2.0999999999999988 -3.637306695894643 8.0
    vertex 6.499999999999998 -3.7527767497325675 8.0
    vertex 2.9698484809834995 -2.9698484809835 8.0
  endloop
endfacet
facet normal 0.0 0.0 1.0
  outer loop
    vertex 2.9698484809834995 -2.9698484809835 8.0
    vertex 6.499999999999998 -3.7527767497325675 8.0
    vertex 3.6373066958946416 -2.1000000000000014 8.0
  endloop
endfacet
facet normal 0.0 0.0 1.0
  outer loop
    vertex 3.6373066958946416 -2.1000000000000014 8.0
    vertex 6.499999999999998 -3.7527767497325675 8.0
    vertex 4.056888470414087 -1.0870399894305884 8.0
  endloop
endfacet
facet normal 0.0 0.0 1.0
  outer loop
    vertex 4.056888470414087 -1.0870399894305884 8.0
    vertex 6.499999999999998 -3.7527767497325675 8.0
    vertex 4.2 -5.143516556418884e-16 8.0
  endloop
endfacet
facet normal 0.0 0.0 1.0
  outer loop
    vertex -6.4999999999999964 3.7527767497325715 8.0
    vertex -3.6373066958946416 2.100000000000002 8.0
    vertex 5.639932965095795e-15 7.505553499465132 8.0
  endloop
endfacet
facet normal 0.0 0.0 1.0
  outer loop
    vertex -3.6373066958946416 2.100000000000002 8.0
    vertex -6.4999999999999964 3.7527767497325715 8.0
    vertex -4.056888470414086 1.0870399894305907 8.0
  endloop
endfacet
facet normal 0.0 0.0 1.0
  outer loop
    vertex -4.056888470414086 1.0870399894305907 8.0
    vertex -6.4999999999999964 3.7527767497325715 8.0
    vertex -4.2 0.0 8.0
  endloop
endfacet
facet normal 0.0 0.0 1.0
  outer loop
    vertex 5.639932965095795e-15 7.505553499465132 8.0
    vertex -3.6373066958946416 2.100000000000002 8.0
    vertex -2.9698484809834986 2.9698484809835004 8.0
  endloop
endfacet
facet normal 0.0 0.0 1.0
  outer loop
    vertex 5.639932965095795e-15 7.505553499465132 8.0
    vertex -2.9698484809834986 2.9698484809835004 8.0
    vertex -2.0999999999999974 3.6373066958946443 8.0
  endloop
endfacet
facet normal 0.0 0.0 1.0
  outer loop
    vertex 5.639932965095795e-15 7.505553499465132 8.0
    vertex -2.0999999999999974 3.6373066958946443 8.0
    vertex -1.087039989430585 4.056888470414088 8.0
  endloop
endfacet
facet normal 0.0 0.0 1.0
  outer loop
    vertex 5.639932965095795e-15 7.505553499465132 8.0
    vertex -1.087039989430585 4.056888470414088 8.0
    vertex 7.715274834628324e-16 4.2 8.0
  endloop
endfacet
facet normal 0.0 0.0 1.0
  outer loop
    vertex 5.639932965095795e-15 7.505553499465132 8.0
    vertex 7.715274834628324e-16 4.2 8.0
    vertex 1.0870399894305902 4.056888470414086 8.0
  endloop
endfacet
facet normal 0.0 0.0 1.0
  outer loop
    vertex 5.639932965095795e-15 7.505553499465132 8.0
    vertex 1.0870399894305902 4.056888470414086 8.0
    vertex 6.499999999999999 3.752776749732566 8.0
  endloop
endfacet
facet normal 0.0 0.0 1.0
  outer loop
    vertex 6.499999999999999 3.752776749732566 8.0
    vertex 1.0870399894305902 4.056888470414086 8.0
    vertex 2.100000000000002 3.6373066958946416 8.0
  endloop
endfacet
facet normal 0.0 0.0 1.0
  outer loop
    vertex 6.499999999999999 3.752776749732566 8.0
    vertex 2.100000000000002 3.6373066958946416 8.0
    vertex 2.9698484809835013 2.969848480983498 8.0
  endloop
endfacet
facet normal 0.0 0.0 1.0
  outer loop
    vertex 6.499999999999999 3.752776749732566 8.0
    vertex 2.9698484809835013 2.969848480983498 8.0
    vertex 3.637306695894643 2.0999999999999988 8.0
  endloop
endfacet
facet normal 0.0 0.0 1.0
  outer loop
    vertex 6.499999999999999 3.752776749732566 8.0
    vertex 3.637306695894643 2.0999999999999988 8.0
    vertex 4.056888470414088 1.0870399894305856 8.0
  endloop
endfacet
facet normal 0.0 0.0 1.0
  outer loop
    vertex 6.499999999999999 3.752776749732566 8.0
    vertex 4.056888470414088 1.0870399894305856 8.0
    vertex 4.2 -5.143516556418884e-16 8.0
  endloop
endfacet
facet normal 0.0 0.0 1.0
  outer loop
    vertex 6.499999999999999 3.752776749732566 8.0
    vertex 4.2 -5.143516556418884e-16 8.0
    vertex 6.499999999999998 -3.7527767497325675 8.0
  endloop
endfacet
facet normal 1.0 -3.757173248780193e-16 -0.0
  outer loop
    vertex -6.4999999999999964 3.7527767497325715 8.0
    vertex -6.499999999999999 -3.7527767497325666 15.0
    vertex -6.499999999999999 -3.7527767497325666 8.0
  endloop
endfacet
facet normal 1.0 -3.757173248780193e-16 -0.0
  outer loop
    vertex -6.499999999999999 -3.7527767497325666 15.0
    vertex -6.4999999999999964 3.7527767497325715 8.0
    vertex -6.4999999999999964 3.7527767497325715 15.0
  endloop
endfacet
facet normal 0.5 0.8660254037844387 0.0
  outer loop
    vertex -6.499999999999999 -3.7527767497325666 15.0
    vertex -2.114974861910923e-15 -7.505553499465132 8.0
    vertex -6.499999999999999 -3.7527767497325666 8.0
  endloop
endfacet
facet normal 0.5 0.8660254037844387 0.0
  outer loop
    vertex -2.114974861910923e-15 -7.505553499465132 8.0
    vertex -6.499999999999999 -3.7527767497325666 15.0
    vertex -2.114974861910923e-15 -7.505553499465132 15.0
  endloop
endfacet
facet normal -0.4999999999999998 0.8660254037844389 -0.0
  outer loop
    vertex -2.114974861910923e-15 -7.505553499465132 15.0
    vertex 6.499999999999998 -3.7527767497325675 8.0
    vertex -2.114974861910923e-15 -7.505553499465132 8.0
  endloop
endfacet
facet normal -0.4999999999999998 0.8660254037844389 -0.0
  outer loop
    vertex 6.499999999999998 -3.7527767497325675 8.0
    vertex -2.114974861910923e-15 -7.505553499465132 15.0
    vertex 6.499999999999998 -3.7527767497325675 15.0
  endloop
endfacet
facet normal -1.0 1.8785866243900974e-16 -0.0
  outer loop
    vertex 6.499999999999999 3.752776749732566 15.0
    vertex 6.499999999999998 -3.7527767497325675 8.0
    vertex 6.499999999999998 -3.7527767497325675 15.0
  endloop
endfacet
facet normal -1.0 1.8785866243900974e-16 -0.0
  outer loop
    vertex 6.499999999999998 -3.7527767497325675 8.0
    vertex 6.499999999999999 3.752776749732566 15.0
    vertex 6.499999999999999 3.752776749732566 8.0
  endloop
endfacet
facet normal -0.5000000000000003 -0.8660254037844387 -0.0
  outer loop
    vertex 6.499999999999999 3.752776749732566 15.0
    vertex 5.639932965095795e-15 7.505553499465132 8.0
    vertex 6.499999999999999 3.752776749732566 8.0
  endloop
endfacet
facet normal -0.5000000000000003 -0.8660254037844387 -0.0
  outer loop
    vertex 5.639932965095795e-15 7.505553499465132 8.0
    vertex 6.499999999999999 3.752776749732566 15.0
    vertex 5.639932965095795e-15 7.505553499465132 15.0
  endloop
endfacet
facet normal 0.49999999999999917 -0.8660254037844392 -0.0
  outer loop
    vertex 5.639932965095795e-15 7.505553499465132 15.0
    vertex -6.4999999999999964 3.7527767497325715 8.0
    vertex 5.639932965095795e-15 7.505553499465132 8.0
  endloop
endfacet
facet normal 0.49999999999999917 -0.8660254037844392 -0.0
  outer loop
    vertex -6.4999999999999964 3.7527767497325715 8.0
    vertex 5.639932965095795e-15 7.505553499465132 15.0
    vertex -6.4999999999999964 3.7527767497325715 15.0
  endloop
endfacet
endsolid Vtulka-Niz
