solid Ластохвост
facet normal 5.110677098472929e-06 0.8660229896281816 0.5000041813918635
  outer loop
    vertex -4.710540735730372 16.852139683389666 5.000067434445387
    vertex 0.2892776831772195 16.8520444967884 4.999999999999999
    vertex -4.710540735730372 19.73889102933779 6.743444538808376e-05
  endloop
endfacet
facet normal 5.110677098472929e-06 0.8660229896281816 0.5000041813918635
  outer loop
    vertex -4.710540735730372 19.73889102933779 6.743444538808376e-05
    vertex 15.289277683177211 16.8520444967884 4.999999999999999
    vertex 15.289277683177211 19.73879584273653 1.057487430955462e-15
  endloop
endfacet
facet normal 5.110677098472929e-06 0.8660229896281816 0.5000041813918635
  outer loop
    vertex 15.289277683177211 16.8520444967884 4.999999999999999
    vertex -4.710540735730372 19.73889102933779 6.743444538808376e-05
    vertex 0.2892776831772195 16.8520444967884 4.999999999999999
  endloop
endfacet
facet normal 5.291692444034872e-06 -0.8660229041008225 0.5000043295260309
  outer loop
    vertex 15.289277683177211 6.725547188684667 4.999999999999999
    vertex -4.710564346479174 3.8386768515376968 3.443209788786064e-05
    vertex 15.289277683177218 3.8387958427365403 1.057487430955462e-15
  endloop
endfacet
facet normal 5.291692444034872e-06 -0.8660229041008225 0.5000043295260309
  outer loop
    vertex -4.710564346479174 3.8386768515376968 3.443209788786064e-05
    vertex 15.289277683177211 6.725547188684667 4.999999999999999
    vertex 0.2892776831772201 6.725547188684667 4.999999999999999
  endloop
endfacet
facet normal 5.291692444034872e-06 -0.8660229041008225 0.5000043295260309
  outer loop
    vertex -4.710564346479174 3.8386768515376968 3.443209788786064e-05
    vertex 0.2892776831772201 6.725547188684667 4.999999999999999
    vertex -4.710564346479174 6.725428197485824 5.000034432097888
  endloop
endfacet
facet normal 5.031311471679313e-17 0.38268343236509006 -0.9238795325112867
  outer loop
    vertex 15.289277683177218 11.400567275082759 3.9488887394336203
    vertex 0.2892776831772222 11.038795842736539 3.7990381056766753
    vertex 0.2892776831772222 11.400567275082759 3.9488887394336203
  endloop
endfacet
facet normal 5.031311471679313e-17 0.38268343236509006 -0.9238795325112867
  outer loop
    vertex 0.2892776831772222 11.038795842736539 3.7990381056766753
    vertex 15.289277683177218 11.400567275082759 3.9488887394336203
    vertex 15.289277683177218 11.038795842736539 3.7990381056766753
  endloop
endfacet
facet normal 3.2356137631816034e-17 0.608761429008722 -0.7933533402912343
  outer loop
    vertex 15.289277683177218 11.038795842736539 3.7990381056766753
    vertex 0.2892776831772222 10.72813567095672 3.560660171779839
    vertex 0.2892776831772222 11.038795842736539 3.7990381056766753
  endloop
endfacet
facet normal 3.2356137631816034e-17 0.608761429008722 -0.7933533402912343
  outer loop
    vertex 0.2892776831772222 10.72813567095672 3.560660171779839
    vertex 15.289277683177218 11.038795842736539 3.7990381056766753
    vertex 15.289277683177218 10.72813567095672 3.560660171779839
  endloop
endfacet
facet normal 1.2194143238276709e-17 0.7933533402912339 -0.6087614290087225
  outer loop
    vertex 0.2892776831772222 10.72813567095672 3.560660171779839
    vertex 15.289277683177218 10.48975773705988 3.250000000000018
    vertex 0.2892776831772222 10.48975773705988 3.250000000000018
  endloop
endfacet
facet normal 1.2194143238276709e-17 0.7933533402912339 -0.6087614290087225
  outer loop
    vertex 15.289277683177218 10.48975773705988 3.250000000000018
    vertex 0.2892776831772222 10.72813567095672 3.560660171779839
    vertex 15.289277683177218 10.72813567095672 3.560660171779839
  endloop
endfacet
facet normal -8.798861865177376e-18 0.923879532511288 -0.38268343236508695
  outer loop
    vertex 0.2892776831772222 10.48975773705988 3.250000000000018
    vertex 15.289277683177218 10.339907103302938 2.888228567653798
    vertex 0.2892776831772222 10.339907103302938 2.888228567653798
  endloop
endfacet
facet normal -8.798861865177376e-18 0.923879532511288 -0.38268343236508695
  outer loop
    vertex 15.289277683177218 10.339907103302938 2.888228567653798
    vertex 0.2892776831772222 10.48975773705988 3.250000000000018
    vertex 15.289277683177218 10.48975773705988 3.250000000000018
  endloop
endfacet
facet normal -2.919223907332568e-17 0.9914448613738104 -0.13052619222005216
  outer loop
    vertex 0.2892776831772222 10.339907103302938 2.888228567653798
    vertex 15.289277683177218 10.28879584273654 2.5000000000000178
    vertex 0.2892776831772222 10.28879584273654 2.5000000000000178
  endloop
endfacet
facet normal -2.919223907332568e-17 0.9914448613738104 -0.13052619222005216
  outer loop
    vertex 15.289277683177218 10.28879584273654 2.5000000000000178
    vertex 0.2892776831772222 10.339907103302938 2.888228567653798
    vertex 15.289277683177218 10.339907103302938 2.888228567653798
  endloop
endfacet
facet normal -4.759621343108321e-17 0.9914448613738105 0.13052619222005168
  outer loop
    vertex 0.2892776831772222 10.28879584273654 2.5000000000000178
    vertex 15.289277683177218 10.339907103302938 2.1117714323462367
    vertex 0.2892776831772222 10.339907103302938 2.1117714323462367
  endloop
endfacet
facet normal -4.759621343108321e-17 0.9914448613738105 0.13052619222005168
  outer loop
    vertex 15.289277683177218 10.339907103302938 2.1117714323462367
    vertex 0.2892776831772222 10.28879584273654 2.5000000000000178
    vertex 15.289277683177218 10.28879584273654 2.5000000000000178
  endloop
endfacet
facet normal -6.275658449997392e-17 0.923879532511288 0.38268343236508695
  outer loop
    vertex 0.2892776831772222 10.339907103302938 2.1117714323462367
    vertex 15.289277683177218 10.48975773705988 1.7500000000000164
    vertex 0.2892776831772222 10.48975773705988 1.7500000000000164
  endloop
endfacet
facet normal -6.275658449997392e-17 0.923879532511288 0.38268343236508695
  outer loop
    vertex 15.289277683177218 10.48975773705988 1.7500000000000164
    vertex 0.2892776831772222 10.339907103302938 2.1117714323462367
    vertex 15.289277683177218 10.339907103302938 2.1117714323462367
  endloop
endfacet
facet normal -7.364019804535133e-17 0.7933533402912326 0.6087614290087243
  outer loop
    vertex 0.2892776831772222 10.48975773705988 1.7500000000000164
    vertex 15.289277683177218 10.72813567095672 1.4393398282201975
    vertex 0.2892776831772222 10.72813567095672 1.4393398282201968
  endloop
endfacet
facet normal -7.364019804535133e-17 0.7933533402912326 0.6087614290087243
  outer loop
    vertex 15.289277683177218 10.72813567095672 1.4393398282201975
    vertex 0.2892776831772222 10.48975773705988 1.7500000000000164
    vertex 15.289277683177218 10.48975773705988 1.7500000000000164
  endloop
endfacet
facet normal -7.950535379011887e-17 0.6087614290087208 0.7933533402912353
  outer loop
    vertex 15.289277683177218 10.72813567095672 1.4393398282201975
    vertex 0.2892776831772222 11.03879584273654 1.2009618943233593
    vertex 0.2892776831772222 10.72813567095672 1.4393398282201968
  endloop
endfacet
facet normal -7.950535379011887e-17 0.6087614290087208 0.7933533402912353
  outer loop
    vertex 0.2892776831772222 11.03879584273654 1.2009618943233593
    vertex 15.289277683177218 10.72813567095672 1.4393398282201975
    vertex 15.289277683177218 11.03879584273654 1.2009618943233598
  endloop
endfacet
facet normal -7.995235106289934e-17 0.3826834323650895 0.9238795325112868
  outer loop
    vertex 15.289277683177218 11.03879584273654 1.2009618943233598
    vertex 0.2892776831772222 11.400567275082759 1.0511112605664155
    vertex 0.2892776831772222 11.03879584273654 1.2009618943233593
  endloop
endfacet
facet normal -7.995235106289934e-17 0.3826834323650895 0.9238795325112868
  outer loop
    vertex 0.2892776831772222 11.400567275082759 1.0511112605664155
    vertex 15.289277683177218 11.03879584273654 1.2009618943233598
    vertex 15.289277683177218 11.400567275082759 1.0511112605664161
  endloop
endfacet
facet normal -7.495072773825061e-17 0.13052619222005216 0.9914448613738104
  outer loop
    vertex 15.289277683177218 11.400567275082759 1.0511112605664161
    vertex 0.2892776831772222 11.788795842736539 1.000000000000018
    vertex 0.2892776831772222 11.400567275082759 1.0511112605664155
  endloop
endfacet
facet normal -7.495072773825061e-17 0.13052619222005216 0.9914448613738104
  outer loop
    vertex 0.2892776831772222 11.788795842736539 1.000000000000018
    vertex 15.289277683177218 11.400567275082759 1.0511112605664161
    vertex 15.289277683177218 11.788795842736539 1.0000000000000184
  endloop
endfacet
facet normal -6.484133618017408e-17 -0.13052619222005074 0.9914448613738105
  outer loop
    vertex 15.289277683177218 11.788795842736539 1.0000000000000184
    vertex 0.2892776831772222 12.177024410390322 1.0511112605664155
    vertex 0.2892776831772222 11.788795842736539 1.000000000000018
  endloop
endfacet
facet normal -6.484133618017408e-17 -0.13052619222005074 0.9914448613738105
  outer loop
    vertex 0.2892776831772222 12.177024410390322 1.0511112605664155
    vertex 15.289277683177218 11.788795842736539 1.0000000000000184
    vertex 15.289277683177218 12.177024410390322 1.0511112605664161
  endloop
endfacet
facet normal -5.031311471679333e-17 -0.38268343236508695 0.923879532511288
  outer loop
    vertex 15.289277683177218 12.177024410390322 1.0511112605664161
    vertex 0.2892776831772222 12.538795842736542 1.2009618943233593
    vertex 0.2892776831772222 12.177024410390322 1.0511112605664155
  endloop
endfacet
facet normal -5.031311471679333e-17 -0.38268343236508695 0.923879532511288
  outer loop
    vertex 0.2892776831772222 12.538795842736542 1.2009618943233593
    vertex 15.289277683177218 12.177024410390322 1.0511112605664161
    vertex 15.289277683177218 12.538795842736542 1.2009618943233598
  endloop
endfacet
facet normal -3.2356137631815825e-17 -0.6087614290087243 0.7933533402912326
  outer loop
    vertex 15.289277683177218 12.538795842736542 1.2009618943233598
    vertex 0.2892776831772222 12.849456014516363 1.4393398282201968
    vertex 0.2892776831772222 12.538795842736542 1.2009618943233593
  endloop
endfacet
facet normal -3.2356137631815825e-17 -0.6087614290087243 0.7933533402912326
  outer loop
    vertex 0.2892776831772222 12.849456014516363 1.4393398282201968
    vertex 15.289277683177218 12.538795842736542 1.2009618943233598
    vertex 15.289277683177218 12.849456014516363 1.4393398282201975
  endloop
endfacet
facet normal -1.2194143238276536e-17 -0.7933533402912353 0.6087614290087208
  outer loop
    vertex 15.289277683177218 12.849456014516363 1.4393398282201975
    vertex 0.2892776831772222 13.0878339484132 1.7500000000000193
    vertex 0.2892776831772222 12.849456014516363 1.4393398282201968
  endloop
endfacet
facet normal -1.2194143238276536e-17 -0.7933533402912353 0.6087614290087208
  outer loop
    vertex 0.2892776831772222 13.0878339484132 1.7500000000000193
    vertex 15.289277683177218 12.849456014516363 1.4393398282201975
    vertex 15.289277683177218 13.0878339484132 1.7500000000000193
  endloop
endfacet
facet normal 8.798861865177694e-18 -0.9238795325112894 0.38268343236508334
  outer loop
    vertex 15.289277683177218 13.237684582170141 2.1117714323462367
    vertex 0.2892776831772222 13.0878339484132 1.7500000000000193
    vertex 15.289277683177218 13.0878339484132 1.7500000000000193
  endloop
endfacet
facet normal 8.798861865177694e-18 -0.9238795325112894 0.38268343236508334
  outer loop
    vertex 0.2892776831772222 13.0878339484132 1.7500000000000193
    vertex 15.289277683177218 13.237684582170141 2.1117714323462367
    vertex 0.2892776831772222 13.237684582170141 2.1117714323462367
  endloop
endfacet
facet normal 2.919223907332518e-17 -0.9914448613738096 0.13052619222005876
  outer loop
    vertex 15.289277683177218 13.28879584273654 2.5000000000000178
    vertex 0.2892776831772222 13.237684582170141 2.1117714323462367
    vertex 15.289277683177218 13.237684582170141 2.1117714323462367
  endloop
endfacet
facet normal 2.919223907332518e-17 -0.9914448613738096 0.13052619222005876
  outer loop
    vertex 0.2892776831772222 13.237684582170141 2.1117714323462367
    vertex 15.289277683177218 13.28879584273654 2.5000000000000178
    vertex 0.2892776831772222 13.28879584273654 2.5000000000000178
  endloop
endfacet
facet normal 4.7596213431083655e-17 -0.9914448613738097 -0.13052619222005832
  outer loop
    vertex 15.289277683177218 13.237684582170141 2.8882285676538006
    vertex 0.2892776831772222 13.28879584273654 2.5000000000000178
    vertex 15.289277683177218 13.28879584273654 2.5000000000000178
  endloop
endfacet
facet normal 4.7596213431083655e-17 -0.9914448613738097 -0.13052619222005832
  outer loop
    vertex 0.2892776831772222 13.28879584273654 2.5000000000000178
    vertex 15.289277683177218 13.237684582170141 2.8882285676538006
    vertex 0.2892776831772222 13.237684582170141 2.8882285676538006
  endloop
endfacet
facet normal 6.275658449997364e-17 -0.92387953251129 -0.3826834323650821
  outer loop
    vertex 15.289277683177218 13.0878339484132 3.2500000000000195
    vertex 0.2892776831772222 13.237684582170141 2.8882285676538006
    vertex 15.289277683177218 13.237684582170141 2.8882285676538006
  endloop
endfacet
facet normal 6.275658449997364e-17 -0.92387953251129 -0.3826834323650821
  outer loop
    vertex 0.2892776831772222 13.237684582170141 2.8882285676538006
    vertex 15.289277683177218 13.0878339484132 3.2500000000000195
    vertex 0.2892776831772222 13.0878339484132 3.2500000000000195
  endloop
endfacet
facet normal 7.364019804535133e-17 -0.7933533402912326 -0.6087614290087243
  outer loop
    vertex 15.289277683177218 12.849456014516363 3.560660171779839
    vertex 0.2892776831772222 13.0878339484132 3.2500000000000195
    vertex 15.289277683177218 13.0878339484132 3.2500000000000195
  endloop
endfacet
facet normal 7.364019804535133e-17 -0.7933533402912326 -0.6087614290087243
  outer loop
    vertex 0.2892776831772222 13.0878339484132 3.2500000000000195
    vertex 15.289277683177218 12.849456014516363 3.560660171779839
    vertex 0.2892776831772222 12.849456014516363 3.560660171779839
  endloop
endfacet
facet normal 7.950535379011892e-17 -0.6087614290087172 -0.7933533402912378
  outer loop
    vertex 15.289277683177218 12.849456014516363 3.560660171779839
    vertex 0.2892776831772222 12.538795842736537 3.7990381056766767
    vertex 0.2892776831772222 12.849456014516363 3.560660171779839
  endloop
endfacet
facet normal 7.950535379011892e-17 -0.6087614290087172 -0.7933533402912378
  outer loop
    vertex 0.2892776831772222 12.538795842736537 3.7990381056766767
    vertex 15.289277683177218 12.849456014516363 3.560660171779839
    vertex 15.289277683177218 12.538795842736537 3.7990381056766767
  endloop
endfacet
facet normal 7.995235106289938e-17 -0.38268343236509206 -0.9238795325112859
  outer loop
    vertex 15.289277683177218 12.538795842736537 3.7990381056766767
    vertex 0.2892776831772222 12.177024410390322 3.9488887394336203
    vertex 0.2892776831772222 12.538795842736537 3.7990381056766767
  endloop
endfacet
facet normal 7.995235106289938e-17 -0.38268343236509206 -0.9238795325112859
  outer loop
    vertex 0.2892776831772222 12.177024410390322 3.9488887394336203
    vertex 15.289277683177218 12.538795842736537 3.7990381056766767
    vertex 15.289277683177218 12.177024410390322 3.9488887394336203
  endloop
endfacet
facet normal 7.495072773825056e-17 -0.13052619222005074 -0.9914448613738105
  outer loop
    vertex 15.289277683177218 12.177024410390322 3.9488887394336203
    vertex 0.2892776831772222 11.788795842736539 4.000000000000018
    vertex 0.2892776831772222 12.177024410390322 3.9488887394336203
  endloop
endfacet
facet normal 7.495072773825056e-17 -0.13052619222005074 -0.9914448613738105
  outer loop
    vertex 0.2892776831772222 11.788795842736539 4.000000000000018
    vertex 15.289277683177218 12.177024410390322 3.9488887394336203
    vertex 15.289277683177218 11.788795842736539 4.000000000000018
  endloop
endfacet
facet normal 6.4841336180174e-17 0.13052619222005216 -0.9914448613738104
  outer loop
    vertex 15.289277683177218 11.788795842736539 4.000000000000018
    vertex 0.2892776831772222 11.400567275082759 3.9488887394336203
    vertex 0.2892776831772222 11.788795842736539 4.000000000000018
  endloop
endfacet
facet normal 6.4841336180174e-17 0.13052619222005216 -0.9914448613738104
  outer loop
    vertex 0.2892776831772222 11.400567275082759 3.9488887394336203
    vertex 15.289277683177218 11.788795842736539 4.000000000000018
    vertex 15.289277683177218 11.400567275082759 3.9488887394336203
  endloop
endfacet
facet normal 0.9999999994642332 4.893621186364584e-06 -3.236643680070774e-05
  outer loop
    vertex 15.289277683177218 3.8387958427365403 1.057487430955462e-15
    vertex 15.289277683177218 10.72813567095672 1.4393398282201975
    vertex 15.289277683177211 6.725547188684667 4.999999999999999
  endloop
endfacet
facet normal 0.9999999994642332 4.893621186364584e-06 -3.236643680070774e-05
  outer loop
    vertex 15.289277683177218 10.72813567095672 1.4393398282201975
    vertex 15.289277683177218 3.8387958427365403 1.057487430955462e-15
    vertex 15.289277683177218 11.03879584273654 1.2009618943233598
  endloop
endfacet
facet normal 0.9999999994642332 4.893621186364584e-06 -3.236643680070774e-05
  outer loop
    vertex 15.289277683177218 11.03879584273654 1.2009618943233598
    vertex 15.289277683177218 3.8387958427365403 1.057487430955462e-15
    vertex 15.289277683177218 11.400567275082759 1.0511112605664161
  endloop
endfacet
facet normal 0.9999999994642332 4.893621186364584e-06 -3.236643680070774e-05
  outer loop
    vertex 15.289277683177218 11.400567275082759 1.0511112605664161
    vertex 15.289277683177218 3.8387958427365403 1.057487430955462e-15
    vertex 15.289277683177218 11.788795842736539 1.0000000000000184
  endloop
endfacet
facet normal 0.9999999994642332 4.893621186364584e-06 -3.236643680070774e-05
  outer loop
    vertex 15.289277683177218 11.788795842736539 1.0000000000000184
    vertex 15.289277683177218 3.8387958427365403 1.057487430955462e-15
    vertex 15.289277683177211 19.73879584273653 1.057487430955462e-15
  endloop
endfacet
facet normal 0.9999999994642332 4.893621186364584e-06 -3.236643680070774e-05
  outer loop
    vertex 15.289277683177211 6.725547188684667 4.999999999999999
    vertex 15.289277683177218 10.72813567095672 1.4393398282201975
    vertex 15.289277683177218 10.48975773705988 1.7500000000000164
  endloop
endfacet
facet normal 0.9999999994642332 4.893621186364584e-06 -3.236643680070774e-05
  outer loop
    vertex 15.289277683177211 6.725547188684667 4.999999999999999
    vertex 15.289277683177218 10.48975773705988 1.7500000000000164
    vertex 15.289776169027057 9.10104783120405 5.001263858626693
  endloop
endfacet
facet normal 0.9999999994642332 4.893621186364584e-06 -3.236643680070774e-05
  outer loop
    vertex 15.289776169027057 9.10104783120405 5.001263858626693
    vertex 15.289277683177218 10.48975773705988 1.7500000000000164
    vertex 15.289277683177218 10.339907103302938 2.1117714323462367
  endloop
endfacet
facet normal 0.9999999994642332 4.893621186364584e-06 -3.236643680070774e-05
  outer loop
    vertex 15.289776169027057 9.10104783120405 5.001263858626693
    vertex 15.289277683177218 10.339907103302938 2.1117714323462367
    vertex 15.289277683177218 10.28879584273654 2.5000000000000178
  endloop
endfacet
facet normal 0.9999999994642332 4.893621186364584e-06 -3.236643680070774e-05
  outer loop
    vertex 15.289277683177218 11.788795842736539 1.0000000000000184
    vertex 15.289277683177211 19.73879584273653 1.057487430955462e-15
    vertex 15.289277683177218 12.177024410390322 1.0511112605664161
  endloop
endfacet
facet normal 0.9999999994642332 4.893621186364584e-06 -3.236643680070774e-05
  outer loop
    vertex 15.289277683177218 12.177024410390322 1.0511112605664161
    vertex 15.289277683177211 19.73879584273653 1.057487430955462e-15
    vertex 15.289277683177218 12.538795842736542 1.2009618943233598
  endloop
endfacet
facet normal 0.9999999994642332 4.893621186364584e-06 -3.236643680070774e-05
  outer loop
    vertex 15.289277683177218 12.538795842736542 1.2009618943233598
    vertex 15.289277683177211 19.73879584273653 1.057487430955462e-15
    vertex 15.289277683177218 12.849456014516363 1.4393398282201975
  endloop
endfacet
facet normal 0.9999999994642332 4.893621186364584e-06 -3.236643680070774e-05
  outer loop
    vertex 15.289277683177218 12.849456014516363 1.4393398282201975
    vertex 15.289277683177211 19.73879584273653 1.057487430955462e-15
    vertex 15.289277683177218 13.0878339484132 1.7500000000000193
  endloop
endfacet
facet normal 0.9999999994642332 4.893621186364584e-06 -3.236643680070774e-05
  outer loop
    vertex 15.289277683177218 13.0878339484132 1.7500000000000193
    vertex 15.289277683177211 19.73879584273653 1.057487430955462e-15
    vertex 15.289277683177218 13.237684582170141 2.1117714323462367
  endloop
endfacet
facet normal 0.9999999994642332 4.893621186364584e-06 -3.236643680070774e-05
  outer loop
    vertex 15.289277683177218 13.237684582170141 2.1117714323462367
    vertex 15.289277683177211 19.73879584273653 1.057487430955462e-15
    vertex 15.289277683177218 13.28879584273654 2.5000000000000178
  endloop
endfacet
facet normal 0.9999999994642332 4.893621186364584e-06 -3.236643680070774e-05
  outer loop
    vertex 15.289277683177218 13.28879584273654 2.5000000000000178
    vertex 15.289277683177211 19.73879584273653 1.057487430955462e-15
    vertex 15.289277683177211 16.8520444967884 4.999999999999999
  endloop
endfacet
facet normal 0.9999999994642332 4.893621186364584e-06 -3.236643680070774e-05
  outer loop
    vertex 15.289776169027057 9.10104783120405 5.001263858626693
    vertex 15.289277683177218 11.400567275082759 3.9488887394336203
    vertex 15.289277683177211 16.8520444967884 4.999999999999999
  endloop
endfacet
facet normal 0.9999999994642332 4.893621186364584e-06 -3.236643680070774e-05
  outer loop
    vertex 15.289277683177218 11.400567275082759 3.9488887394336203
    vertex 15.289776169027057 9.10104783120405 5.001263858626693
    vertex 15.289277683177218 11.038795842736539 3.7990381056766753
  endloop
endfacet
facet normal 0.9999999994642332 4.893621186364584e-06 -3.236643680070774e-05
  outer loop
    vertex 15.289277683177218 11.038795842736539 3.7990381056766753
    vertex 15.289776169027057 9.10104783120405 5.001263858626693
    vertex 15.289277683177218 10.72813567095672 3.560660171779839
  endloop
endfacet
facet normal 0.9999999994642332 4.893621186364584e-06 -3.236643680070774e-05
  outer loop
    vertex 15.289277683177218 10.72813567095672 3.560660171779839
    vertex 15.289776169027057 9.10104783120405 5.001263858626693
    vertex 15.289277683177218 10.48975773705988 3.250000000000018
  endloop
endfacet
facet normal 0.9999999994642332 4.893621186364584e-06 -3.236643680070774e-05
  outer loop
    vertex 15.289277683177218 10.48975773705988 3.250000000000018
    vertex 15.289776169027057 9.10104783120405 5.001263858626693
    vertex 15.289277683177218 10.339907103302938 2.888228567653798
  endloop
endfacet
facet normal 0.9999999994642332 4.893621186364584e-06 -3.236643680070774e-05
  outer loop
    vertex 15.289277683177218 10.339907103302938 2.888228567653798
    vertex 15.289776169027057 9.10104783120405 5.001263858626693
    vertex 15.289277683177218 10.28879584273654 2.5000000000000178
  endloop
endfacet
facet normal 0.9999999994642332 4.893621186364584e-06 -3.236643680070774e-05
  outer loop
    vertex 15.289277683177211 16.8520444967884 4.999999999999999
    vertex 15.289277683177218 11.400567275082759 3.9488887394336203
    vertex 15.289277683177218 11.788795842736539 4.000000000000018
  endloop
endfacet
facet normal 0.9999999994642332 4.893621186364584e-06 -3.236643680070774e-05
  outer loop
    vertex 15.289277683177211 16.8520444967884 4.999999999999999
    vertex 15.289277683177218 11.788795842736539 4.000000000000018
    vertex 15.289277683177218 12.177024410390322 3.9488887394336203
  endloop
endfacet
facet normal 0.9999999994642332 4.893621186364584e-06 -3.236643680070774e-05
  outer loop
    vertex 15.289277683177211 16.8520444967884 4.999999999999999
    vertex 15.289277683177218 12.177024410390322 3.9488887394336203
    vertex 15.289277683177218 12.538795842736537 3.7990381056766767
  endloop
endfacet
facet normal 0.9999999994642332 4.893621186364584e-06 -3.236643680070774e-05
  outer loop
    vertex 15.289277683177211 16.8520444967884 4.999999999999999
    vertex 15.289277683177218 12.538795842736537 3.7990381056766767
    vertex 15.289277683177218 12.849456014516363 3.560660171779839
  endloop
endfacet
facet normal 0.9999999994642332 4.893621186364584e-06 -3.236643680070774e-05
  outer loop
    vertex 15.289277683177211 16.8520444967884 4.999999999999999
    vertex 15.289277683177218 12.849456014516363 3.560660171779839
    vertex 15.289277683177218 13.0878339484132 3.2500000000000195
  endloop
endfacet
facet normal 0.9999999994642332 4.893621186364584e-06 -3.236643680070774e-05
  outer loop
    vertex 15.289277683177211 16.8520444967884 4.999999999999999
    vertex 15.289277683177218 13.0878339484132 3.2500000000000195
    vertex 15.289277683177218 13.237684582170141 2.8882285676538006
  endloop
endfacet
facet normal 0.9999999994642332 4.893621186364584e-06 -3.236643680070774e-05
  outer loop
    vertex 15.289277683177211 16.8520444967884 4.999999999999999
    vertex 15.289277683177218 13.237684582170141 2.8882285676538006
    vertex 15.289277683177218 13.28879584273654 2.5000000000000178
  endloop
endfacet
facet normal 2.6827104883307198e-05 -2.109289756723953e-05 -0.999999999417698
  outer loop
    vertex 15.289277683177211 16.8520444967884 4.999999999999999
    vertex 0.2892776831772201 6.725547188684667 4.999999999999999
    vertex 0.2892776831772195 16.8520444967884 4.999999999999999
  endloop
endfacet
facet normal 2.6827104883307198e-05 -2.109289756723953e-05 -0.999999999417698
  outer loop
    vertex 0.2892776831772201 6.725547188684667 4.999999999999999
    vertex 15.289277683177211 16.8520444967884 4.999999999999999
    vertex 15.289277683177211 6.725547188684667 4.999999999999999
  endloop
endfacet
facet normal 2.6827104883307198e-05 -2.109289756723953e-05 -0.999999999417698
  outer loop
    vertex 15.289277683177211 6.725547188684667 4.999999999999999
    vertex 15.289277683177211 16.8520444967884 4.999999999999999
    vertex 15.289776169027057 9.10104783120405 5.001263858626693
  endloop
endfacet
facet normal -2.5466853307150026e-06 1.0378115605735002e-06 -0.9999999999962188
  outer loop
    vertex -4.710540735730372 19.73889102933779 6.743444538808376e-05
    vertex 15.289277683177218 3.8387958427365403 1.057487430955462e-15
    vertex -4.710564346479174 3.8386768515376968 3.443209788786064e-05
  endloop
endfacet
facet normal -2.5466853307150026e-06 1.0378115605735002e-06 -0.9999999999962188
  outer loop
    vertex 15.289277683177218 3.8387958427365403 1.057487430955462e-15
    vertex -4.710540735730372 19.73889102933779 6.743444538808376e-05
    vertex 15.289277683177211 19.73879584273653 1.057487430955462e-15
  endloop
endfacet
facet normal -0.0002719585606747798 0.00039089859389562526 0.999999886618409
  outer loop
    vertex 0.2819211465342825 1.8937738241706341 8.00309404131481
    vertex -4.709834425293638 20.738010381297265 7.992604924421331
    vertex -4.710887314603705 1.885085117139403 8.001052645624473
  endloop
endfacet
facet normal -0.0002719585606747798 0.00039089859389562526 0.999999886618409
  outer loop
    vertex -4.709834425293638 20.738010381297265 7.992604924421331
    vertex 0.2819211465342825 1.8937738241706341 8.00309404131481
    vertex 15.295528342101038 20.740550413106106 8.000601710883346
  endloop
endfacet
facet normal -0.0002719585606747798 0.00039089859389562526 0.999999886618409
  outer loop
    vertex 15.295528342101038 20.740550413106106 8.000601710883346
    vertex 0.2819211465342825 1.8937738241706341 8.00309404131481
    vertex 15.287645509810115 1.9512001049609877 8.003710824727834
  endloop
endfacet
facet normal 1.87555288159518e-05 8.237206367342312e-05 -0.9999999964315367
  outer loop
    vertex 0.2894372877107674 20.738834152997224 5.0000388121566655
    vertex 15.289277683177211 16.8520444967884 4.999999999999999
    vertex 0.2892776831772195 16.8520444967884 4.999999999999999
  endloop
endfacet
facet normal 1.87555288159518e-05 8.237206367342312e-05 -0.9999999964315367
  outer loop
    vertex 15.289277683177211 16.8520444967884 4.999999999999999
    vertex 0.2894372877107674 20.738834152997224 5.0000388121566655
    vertex 15.295158002753492 20.740891296531462 5.000601647545163
  endloop
endfacet
facet normal 0.9999998353831077 -0.0003620417287433763 -0.00044515114761443545
  outer loop
    vertex 15.287275170462568 1.9515409883863428 5.003710761389651
    vertex 15.295528342101038 20.740550413106106 8.000601710883346
    vertex 15.287645509810115 1.9512001049609877 8.003710824727834
  endloop
endfacet
facet normal 0.9999998353831077 -0.0003620417287433763 -0.00044515114761443545
  outer loop
    vertex 15.295528342101038 20.740550413106106 8.000601710883346
    vertex 15.287275170462568 1.9515409883863428 5.003710761389651
    vertex 15.289277683177211 6.725547188684667 4.999999999999999
  endloop
endfacet
facet normal 0.9999998353831077 -0.0003620417287433763 -0.00044515114761443545
  outer loop
    vertex 15.295528342101038 20.740550413106106 8.000601710883346
    vertex 15.289277683177211 6.725547188684667 4.999999999999999
    vertex 15.289776169027057 9.10104783120405 5.001263858626693
  endloop
endfacet
facet normal 0.9999998353831077 -0.0003620417287433763 -0.00044515114761443545
  outer loop
    vertex 15.295528342101038 20.740550413106106 8.000601710883346
    vertex 15.289776169027057 9.10104783120405 5.001263858626693
    vertex 15.289277683177211 16.8520444967884 4.999999999999999
  endloop
endfacet
facet normal 0.9999998353831077 -0.0003620417287433763 -0.00044515114761443545
  outer loop
    vertex 15.295528342101038 20.740550413106106 8.000601710883346
    vertex 15.289277683177211 16.8520444967884 4.999999999999999
    vertex 15.295158002753492 20.740891296531462 5.000601647545163
  endloop
endfacet
facet normal 2.087377205656192e-05 -0.0007113652566830331 -0.9999997467618467
  outer loop
    vertex 0.2892776831772201 6.725547188684667 4.999999999999999
    vertex 15.287275170462568 1.9515409883863428 5.003710761389651
    vertex 0.2815386830390552 1.8996189393158978 5.003121482475758
  endloop
endfacet
facet normal 2.087377205656192e-05 -0.0007113652566830331 -0.9999997467618467
  outer loop
    vertex 15.287275170462568 1.9515409883863428 5.003710761389651
    vertex 0.2892776831772201 6.725547188684667 4.999999999999999
    vertex 15.289277683177211 6.725547188684667 4.999999999999999
  endloop
endfacet
facet normal 0.00020067034914952964 -3.235277438150228e-05 -0.9999999793423544
  outer loop
    vertex -4.710564346479174 6.725428197485824 5.000034432097888
    vertex 0.2815386830390552 1.8996189393158978 5.003121482475758
    vertex -4.711269778098932 1.8909302322846664 5.001080086785425
  endloop
endfacet
facet normal 0.00020067034914952964 -3.235277438150228e-05 -0.9999999793423544
  outer loop
    vertex 0.2815386830390552 1.8996189393158978 5.003121482475758
    vertex -4.710564346479174 6.725428197485824 5.000034432097888
    vertex 0.2892776831772201 6.725547188684667 4.999999999999999
  endloop
endfacet
facet normal -8.092323576291432e-06 3.4203335756779436e-06 -0.9999999999614078
  outer loop
    vertex -4.710204764497113 20.73838910443436 5.000056224883322
    vertex 0.2892776831772195 16.8520444967884 4.999999999999999
    vertex -4.710540735730372 16.852139683389666 5.000067434445387
  endloop
endfacet
facet normal -8.092323576291432e-06 3.4203335756779436e-06 -0.9999999999614078
  outer loop
    vertex 0.2892776831772195 16.8520444967884 4.999999999999999
    vertex -4.710204764497113 20.73838910443436 5.000056224883322
    vertex 0.2894372877107674 20.738834152997224 5.0000388121566655
  endloop
endfacet
facet normal 9.688164637675716e-07 0.9999999999923717 3.783966965888217e-06
  outer loop
    vertex -4.710204764497113 20.73838910443436 5.000056224883322
    vertex 15.295158002753492 20.740891296531462 5.000601647545163
    vertex 0.2894372877107674 20.738834152997224 5.0000388121566655
  endloop
endfacet
facet normal 9.688164637675716e-07 0.9999999999923717 3.783966965888217e-06
  outer loop
    vertex 15.295158002753492 20.740891296531462 5.000601647545163
    vertex -4.710204764497113 20.73838910443436 5.000056224883322
    vertex -4.709834425293638 20.738010381297265 7.992604924421331
  endloop
endfacet
facet normal 9.688164637675716e-07 0.9999999999923717 3.783966965888217e-06
  outer loop
    vertex 15.295158002753492 20.740891296531462 5.000601647545163
    vertex -4.709834425293638 20.738010381297265 7.992604924421331
    vertex 15.295528342101038 20.740550413106106 8.000601710883346
  endloop
endfacet
facet normal -0.9999999990789976 3.8130057624417725e-05 1.970034314637871e-05
  outer loop
    vertex -4.709834425293638 20.738010381297265 7.992604924421331
    vertex -4.711269778098932 1.8909302322846664 5.001080086785425
    vertex -4.710887314603705 1.885085117139403 8.001052645624473
  endloop
endfacet
facet normal -0.9999999990789976 3.8130057624417725e-05 1.970034314637871e-05
  outer loop
    vertex -4.711269778098932 1.8909302322846664 5.001080086785425
    vertex -4.709834425293638 20.738010381297265 7.992604924421331
    vertex -4.710564346479174 6.725428197485824 5.000034432097888
  endloop
endfacet
facet normal -0.9999999990789976 3.8130057624417725e-05 1.970034314637871e-05
  outer loop
    vertex -4.710564346479174 6.725428197485824 5.000034432097888
    vertex -4.709834425293638 20.738010381297265 7.992604924421331
    vertex -4.710540735730372 16.852139683389666 5.000067434445387
  endloop
endfacet
facet normal -0.9999999990789976 3.8130057624417725e-05 1.970034314637871e-05
  outer loop
    vertex -4.710540735730372 16.852139683389666 5.000067434445387
    vertex -4.709834425293638 20.738010381297265 7.992604924421331
    vertex -4.710204764497113 20.73838910443436 5.000056224883322
  endloop
endfacet
facet normal -0.9999999990789976 3.8130057624417725e-05 1.970034314637871e-05
  outer loop
    vertex -4.710564346479174 6.725428197485824 5.000034432097888
    vertex -4.710540735730372 19.73889102933779 6.743444538808376e-05
    vertex -4.710564346479174 3.8386768515376968 3.443209788786064e-05
  endloop
endfacet
facet normal -0.9999999990789976 3.8130057624417725e-05 1.970034314637871e-05
  outer loop
    vertex -4.710540735730372 19.73889102933779 6.743444538808376e-05
    vertex -4.710564346479174 6.725428197485824 5.000034432097888
    vertex -4.710540735730372 16.852139683389666 5.000067434445387
  endloop
endfacet
facet normal 0.003643567641439876 -0.9999928302371478 -0.0010314500188066795
  outer loop
    vertex 15.287275170462568 1.9515409883863428 5.003710761389651
    vertex 0.2819211465342825 1.8937738241706341 8.00309404131481
    vertex 0.2815386830390552 1.8996189393158978 5.003121482475758
  endloop
endfacet
facet normal 0.003643567641439876 -0.9999928302371478 -0.0010314500188066795
  outer loop
    vertex 0.2819211465342825 1.8937738241706341 8.00309404131481
    vertex 15.287275170462568 1.9515409883863428 5.003710761389651
    vertex 15.287645509810115 1.9512001049609877 8.003710824727834
  endloop
endfacet
facet normal 0.0017410351925143878 -0.9999965858619745 -0.001948604847872635
  outer loop
    vertex 0.2815386830390552 1.8996189393158978 5.003121482475758
    vertex -4.710887314603705 1.885085117139403 8.001052645624473
    vertex -4.711269778098932 1.8909302322846664 5.001080086785425
  endloop
endfacet
facet normal 0.0017410351925143878 -0.9999965858619745 -0.001948604847872635
  outer loop
    vertex -4.710887314603705 1.885085117139403 8.001052645624473
    vertex 0.2815386830390552 1.8996189393158978 5.003121482475758
    vertex 0.2819211465342825 1.8937738241706341 8.00309404131481
  endloop
endfacet
endsolid Ластохвост
