solid XY-Узел-Одинарный-Ответ-2
facet normal 0.9238795325112685 -0.38268343236513386 -1.6600705336825854e-15
  outer loop
    vertex 12.578315937721646 -17.668776373415852 31.199999999999896
    vertex 12.869603068141355 -16.965547032612747 40.02348399999972
    vertex 12.578315937722465 -17.668776373416044 39.999999999999716
  endloop
endfacet
facet normal 0.9238795325112685 -0.38268343236513386 -1.6600705336825854e-15
  outer loop
    vertex 12.869603068141355 -16.965547032612747 40.02348399999972
    vertex 12.578315937721646 -17.668776373415852 31.199999999999896
    vertex 12.869603068141322 -16.96554703261272 31.199999999999836
  endloop
endfacet
facet normal 0.1305261922200476 -0.9914448613738109 -2.381543799886613e-15
  outer loop
    vertex 22.45555679975613 -11.431094065225695 40.02348399999972
    vertex 19.590713135388228 -11.808257888837119 31.199999999999836
    vertex 22.455556799756096 -11.431094065225674 31.19999999999983
  endloop
endfacet
facet normal 0.1305261922200476 -0.9914448613738109 -2.381543799886613e-15
  outer loop
    vertex 19.590713135388228 -11.808257888837119 31.199999999999836
    vertex 22.45555679975613 -11.431094065225695 40.02348399999972
    vertex 19.59071313538826 -11.80825788883714 40.02348399999972
  endloop
endfacet
facet normal 1.9111504811049333e-16 -1.41199786838936e-15 1.0
  outer loop
    vertex 10.496264656235075 -38.24999999999985 49.99999999999961
    vertex 14.534965024185782 -24.62231616984053 49.99999999999974
    vertex 14.255556799756144 -22.49999999999986 49.99999999999974
  endloop
endfacet
facet normal 1.9111504811049333e-16 -1.41199786838936e-15 1.0
  outer loop
    vertex 14.534965024185782 -24.62231616984053 49.99999999999974
    vertex 10.496264656235075 -38.24999999999985 49.99999999999961
    vertex 15.354148488723741 -26.599999999999845 49.99999999999974
  endloop
endfacet
facet normal 1.9111504811049333e-16 -1.41199786838936e-15 1.0
  outer loop
    vertex 15.354148488723741 -26.599999999999845 49.99999999999974
    vertex 10.496264656235075 -38.24999999999985 49.99999999999961
    vertex 16.65728119402645 -28.298275605729536 49.99999999999974
  endloop
endfacet
facet normal 1.9111504811049333e-16 -1.41199786838936e-15 1.0
  outer loop
    vertex 16.65728119402645 -28.298275605729536 49.99999999999974
    vertex 10.496264656235075 -38.24999999999985 49.99999999999961
    vertex 18.35555679975614 -29.601408311032245 49.99999999999974
  endloop
endfacet
facet normal 1.9111504811049333e-16 -1.41199786838936e-15 1.0
  outer loop
    vertex 18.35555679975614 -29.601408311032245 49.99999999999974
    vertex 10.496264656235075 -38.24999999999985 49.99999999999961
    vertex 34.41484894327717 -38.56890593477411 49.99999999999955
  endloop
endfacet
facet normal 1.9111504811049333e-16 -1.41199786838936e-15 1.0
  outer loop
    vertex 18.35555679975614 -29.601408311032245 49.99999999999974
    vertex 34.41484894327717 -38.56890593477411 49.99999999999955
    vertex 20.333240629915466 -30.420591775570205 49.99999999999974
  endloop
endfacet
facet normal 1.9111504811049333e-16 -1.41199786838936e-15 1.0
  outer loop
    vertex 20.333240629915466 -30.420591775570205 49.99999999999974
    vertex 34.41484894327717 -38.56890593477411 49.99999999999955
    vertex 22.45555679975614 -30.699999999999847 49.99999999999974
  endloop
endfacet
facet normal 1.9111504811049333e-16 -1.41199786838936e-15 1.0
  outer loop
    vertex 22.45555679975614 -30.699999999999847 49.99999999999974
    vertex 34.41484894327717 -38.56890593477411 49.99999999999955
    vertex 24.577872969596807 -30.42059177557021 49.99999999999974
  endloop
endfacet
facet normal 1.9111504811049333e-16 -1.41199786838936e-15 1.0
  outer loop
    vertex 24.577872969596807 -30.42059177557021 49.99999999999974
    vertex 34.41484894327717 -38.56890593477411 49.99999999999955
    vertex 26.555556799756133 -29.601408311032245 49.99999999999974
  endloop
endfacet
facet normal 1.9111504811049333e-16 -1.41199786838936e-15 1.0
  outer loop
    vertex 26.555556799756133 -29.601408311032245 49.99999999999974
    vertex 34.41484894327717 -38.56890593477411 49.99999999999955
    vertex 28.25383240548582 -28.298275605729536 49.99999999999974
  endloop
endfacet
facet normal 1.9111504811049333e-16 -1.41199786838936e-15 1.0
  outer loop
    vertex 28.25383240548582 -28.298275605729536 49.99999999999974
    vertex 34.41484894327717 -38.56890593477411 49.99999999999955
    vertex 29.55696511078853 -26.59999999999985 49.99999999999974
  endloop
endfacet
facet normal 1.9111504811049333e-16 -1.41199786838936e-15 1.0
  outer loop
    vertex 29.55696511078853 -26.59999999999985 49.99999999999974
    vertex 34.41484894327717 -38.56890593477411 49.99999999999955
    vertex 30.376148575326486 -24.622316169840538 49.99999999999974
  endloop
endfacet
facet normal 1.9111504811049333e-16 -1.41199786838936e-15 1.0
  outer loop
    vertex 30.376148575326486 -24.622316169840538 49.99999999999974
    vertex 34.41484894327717 -38.56890593477411 49.99999999999955
    vertex 30.65555679975613 -22.499999999999865 49.99999999999974
  endloop
endfacet
facet normal 1.9111504811049333e-16 -1.41199786838936e-15 1.0
  outer loop
    vertex 10.496264656235075 -38.24999999999985 49.99999999999961
    vertex 5.496264656235385 -8.925718751499645 49.99999999999965
    vertex 5.496264656235121 -33.24999999999985 49.999999999999545
  endloop
endfacet
facet normal 1.9111504811049333e-16 -1.41199786838936e-15 1.0
  outer loop
    vertex 5.496264656235385 -8.925718751499645 49.99999999999965
    vertex 10.496264656235075 -38.24999999999985 49.99999999999961
    vertex 14.534965024185784 -20.377683830159192 49.99999999999974
  endloop
endfacet
facet normal 1.9111504811049333e-16 -1.41199786838936e-15 1.0
  outer loop
    vertex 5.496264656235385 -8.925718751499645 49.99999999999965
    vertex 14.534965024185784 -20.377683830159192 49.99999999999974
    vertex 15.354148488723746 -18.399999999999864 49.99999999999974
  endloop
endfacet
facet normal 1.9111504811049333e-16 -1.41199786838936e-15 1.0
  outer loop
    vertex 5.496264656235385 -8.925718751499645 49.99999999999965
    vertex 15.354148488723746 -18.399999999999864 49.99999999999974
    vertex 15.915236111649321 -17.668776373416097 49.99999999999978
  endloop
endfacet
facet normal 1.9111504811049333e-16 -1.41199786838936e-15 1.0
  outer loop
    vertex 5.496264656235385 -8.925718751499645 49.99999999999965
    vertex 15.915236111649321 -17.668776373416097 49.99999999999978
    vertex 16.657281194026464 -16.701724394270187 49.99999999999975
  endloop
endfacet
facet normal 1.9111504811049333e-16 -1.41199786838936e-15 1.0
  outer loop
    vertex 5.496264656235385 -8.925718751499645 49.99999999999965
    vertex 16.657281194026464 -16.701724394270187 49.99999999999975
    vertex 18.35555679975615 -15.39859168896748 49.99999999999975
  endloop
endfacet
facet normal 1.9111504811049333e-16 -1.41199786838936e-15 1.0
  outer loop
    vertex 5.496264656235385 -8.925718751499645 49.99999999999965
    vertex 18.35555679975615 -15.39859168896748 49.99999999999975
    vertex 20.33324062991548 -14.579408224429521 49.99999999999976
  endloop
endfacet
facet normal 1.9111504811049333e-16 -1.41199786838936e-15 1.0
  outer loop
    vertex 5.496264656235385 -8.925718751499645 49.99999999999965
    vertex 20.33324062991548 -14.579408224429521 49.99999999999976
    vertex 39.414848943276965 -8.925718751499845 49.999999999999595
  endloop
endfacet
facet normal 1.9111504811049333e-16 -1.41199786838936e-15 1.0
  outer loop
    vertex 14.534965024185784 -20.377683830159192 49.99999999999974
    vertex 10.496264656235075 -38.24999999999985 49.99999999999961
    vertex 14.255556799756144 -22.49999999999986 49.99999999999974
  endloop
endfacet
facet normal 1.9111504811049333e-16 -1.41199786838936e-15 1.0
  outer loop
    vertex 39.414848943276965 -8.925718751499845 49.999999999999595
    vertex 20.33324062991548 -14.579408224429521 49.99999999999976
    vertex 22.45555679975614 -14.299999999999883 49.99999999999976
  endloop
endfacet
facet normal 1.9111504811049333e-16 -1.41199786838936e-15 1.0
  outer loop
    vertex 39.414848943276965 -8.925718751499845 49.999999999999595
    vertex 22.45555679975614 -14.299999999999883 49.99999999999976
    vertex 24.577872969596807 -14.579408224429521 49.99999999999976
  endloop
endfacet
facet normal 1.9111504811049333e-16 -1.41199786838936e-15 1.0
  outer loop
    vertex 39.414848943276965 -8.925718751499845 49.999999999999595
    vertex 24.577872969596807 -14.579408224429521 49.99999999999976
    vertex 26.555556799756133 -15.398591688967487 49.99999999999975
  endloop
endfacet
facet normal 1.9111504811049333e-16 -1.41199786838936e-15 1.0
  outer loop
    vertex 39.414848943276965 -8.925718751499845 49.999999999999595
    vertex 26.555556799756133 -15.398591688967487 49.99999999999975
    vertex 28.253832405485813 -16.701724394270187 49.99999999999975
  endloop
endfacet
facet normal 1.9111504811049333e-16 -1.41199786838936e-15 1.0
  outer loop
    vertex 39.414848943276965 -8.925718751499845 49.999999999999595
    vertex 28.253832405485813 -16.701724394270187 49.99999999999975
    vertex 28.99587748786284 -17.668776373415955 49.99999999999971
  endloop
endfacet
facet normal 1.9111504811049333e-16 -1.41199786838936e-15 1.0
  outer loop
    vertex 39.414848943276965 -8.925718751499845 49.999999999999595
    vertex 28.99587748786284 -17.668776373415955 49.99999999999971
    vertex 29.55696511078853 -18.39999999999987 49.99999999999974
  endloop
endfacet
facet normal 1.9111504811049333e-16 -1.41199786838936e-15 1.0
  outer loop
    vertex 39.414848943276965 -8.925718751499845 49.999999999999595
    vertex 29.55696511078853 -18.39999999999987 49.99999999999974
    vertex 30.376148575326493 -20.377683830159196 49.99999999999974
  endloop
endfacet
facet normal 1.9111504811049333e-16 -1.41199786838936e-15 1.0
  outer loop
    vertex 39.414848943276965 -8.925718751499845 49.999999999999595
    vertex 30.376148575326493 -20.377683830159196 49.99999999999974
    vertex 30.65555679975613 -22.499999999999865 49.99999999999974
  endloop
endfacet
facet normal 1.9111504811049333e-16 -1.41199786838936e-15 1.0
  outer loop
    vertex 39.414848943276965 -8.925718751499845 49.999999999999595
    vertex 30.65555679975613 -22.499999999999865 49.99999999999974
    vertex 34.41484894327717 -38.56890593477411 49.99999999999955
  endloop
endfacet
facet normal 1.9111504811049333e-16 -1.41199786838936e-15 1.0
  outer loop
    vertex 39.414848943276965 -8.925718751499845 49.999999999999595
    vertex 34.41484894327717 -38.56890593477411 49.99999999999955
    vertex 39.41484894327716 -33.74999999999991 49.99999999999962
  endloop
endfacet
facet normal -0.13052619222005515 -0.99144486137381 -1.9223621815008232e-15
  outer loop
    vertex 25.320400464124006 -11.808257888837163 40.02348399999971
    vertex 22.455556799756096 -11.431094065225674 31.19999999999983
    vertex 25.32040046412397 -11.808257888837142 31.199999999999825
  endloop
endfacet
facet normal -0.13052619222005515 -0.99144486137381 -1.9223621815008232e-15
  outer loop
    vertex 22.455556799756096 -11.431094065225674 31.19999999999983
    vertex 25.320400464124006 -11.808257888837163 40.02348399999971
    vertex 22.45555679975613 -11.431094065225695 40.02348399999972
  endloop
endfacet
facet normal -0.793353340291237 -0.6087614290087181 3.7084481423604346e-17
  outer loop
    vertex 30.28245524655095 -14.67310155320506 40.0234839999997
    vertex 32.04151053137084 -16.96554703261279 31.199999999999807
    vertex 32.041510531370875 -16.965547032612815 40.0234839999997
  endloop
endfacet
facet normal -0.793353340291237 -0.6087614290087181 3.7084481423604346e-17
  outer loop
    vertex 32.04151053137084 -16.96554703261279 31.199999999999807
    vertex 30.28245524655095 -14.67310155320506 40.0234839999997
    vertex 30.282455246550914 -14.673101553205031 31.199999999999815
  endloop
endfacet
facet normal -0.9595738001975378 0.0012553237791197505 0.28145434112243767
  outer loop
    vertex 8.459899447643692e-15 4.831727983645442 31.199999999999772
    vertex 1.973976537783528e-14 -2.349999999999805 31.232031461575726
    vertex 5.496264656235385 -8.925718751499645 49.99999999999965
  endloop
endfacet
facet normal 0.3826834323650889 0.9238795325112871 -7.659098056961487e-15
  outer loop
    vertex 18.35555679975614 -29.601408311032245 49.99999999999974
    vertex 20.333240629915345 -30.420591775570237 39.99999999999971
    vertex 18.35555679975602 -29.60140831103228 39.99999999999971
  endloop
endfacet
facet normal 0.3826834323650889 0.9238795325112871 -7.659098056961487e-15
  outer loop
    vertex 20.333240629915345 -30.420591775570237 39.99999999999971
    vertex 18.35555679975614 -29.601408311032245 49.99999999999974
    vertex 20.333240629915466 -30.420591775570205 49.99999999999974
  endloop
endfacet
facet normal 0.7933533402912331 -0.6087614290087234 -2.7548451301381677e-15
  outer loop
    vertex 12.869603068141322 -16.96554703261272 31.199999999999836
    vertex 14.628658352961294 -14.673101553205003 40.02348399999972
    vertex 12.869603068141355 -16.965547032612747 40.02348399999972
  endloop
endfacet
facet normal 0.7933533402912331 -0.6087614290087234 -2.7548451301381677e-15
  outer loop
    vertex 14.628658352961294 -14.673101553205003 40.02348399999972
    vertex 12.869603068141322 -16.96554703261272 31.199999999999836
    vertex 14.62865835296126 -14.673101553204976 31.199999999999836
  endloop
endfacet
facet normal -0.707106781186551 -0.7071067811865441 -1.0693781614891173e-14
  outer loop
    vertex 10.496264656235075 -38.24999999999985 49.99999999999961
    vertex 5.496264656235419 -33.24999999999986 31.199999999999807
    vertex 10.49626465623537 -38.249999999999865 31.199999999999893
  endloop
endfacet
facet normal -0.707106781186551 -0.7071067811865441 -1.0693781614891173e-14
  outer loop
    vertex 5.496264656235419 -33.24999999999986 31.199999999999807
    vertex 10.496264656235075 -38.24999999999985 49.99999999999961
    vertex 5.496264656235121 -33.24999999999985 49.999999999999545
  endloop
endfacet
facet normal -0.3826834323650941 -0.923879532511285 -1.361193617152869e-15
  outer loop
    vertex 27.99000976714321 -12.914046268385123 40.02348399999971
    vertex 25.32040046412397 -11.808257888837142 31.199999999999825
    vertex 27.990009767143178 -12.914046268385095 31.199999999999818
  endloop
endfacet
facet normal -0.3826834323650941 -0.923879532511285 -1.361193617152869e-15
  outer loop
    vertex 25.32040046412397 -11.808257888837142 31.199999999999825
    vertex 27.99000976714321 -12.914046268385123 40.02348399999971
    vertex 25.320400464124006 -11.808257888837163 40.02348399999971
  endloop
endfacet
facet normal -0.6087614290087238 -0.7933533402912327 -7.030404723016998e-16
  outer loop
    vertex 30.28245524655095 -14.67310155320506 40.0234839999997
    vertex 27.990009767143178 -12.914046268385095 31.199999999999818
    vertex 30.282455246550914 -14.673101553205031 31.199999999999815
  endloop
endfacet
facet normal -0.6087614290087238 -0.7933533402912327 -7.030404723016998e-16
  outer loop
    vertex 27.990009767143178 -12.914046268385095 31.199999999999818
    vertex 30.28245524655095 -14.67310155320506 40.0234839999997
    vertex 27.99000976714321 -12.914046268385123 40.02348399999971
  endloop
endfacet
facet normal 0.38268343236508756 -0.9238795325112876 -2.7078834355340942e-15
  outer loop
    vertex 19.59071313538826 -11.80825788883714 40.02348399999972
    vertex 16.921103832369013 -12.914046268385052 31.199999999999836
    vertex 19.590713135388228 -11.808257888837119 31.199999999999836
  endloop
endfacet
facet normal 0.38268343236508756 -0.9238795325112876 -2.7078834355340942e-15
  outer loop
    vertex 16.921103832369013 -12.914046268385052 31.199999999999836
    vertex 19.59071313538826 -11.80825788883714 40.02348399999972
    vertex 16.92110383236905 -12.91404626838508 40.02348399999972
  endloop
endfacet
facet normal 0.6087614290087179 -0.7933533402912374 -2.8422113190520667e-15
  outer loop
    vertex 16.92110383236905 -12.91404626838508 40.02348399999972
    vertex 14.62865835296126 -14.673101553204976 31.199999999999836
    vertex 16.921103832369013 -12.914046268385052 31.199999999999836
  endloop
endfacet
facet normal 0.6087614290087179 -0.7933533402912374 -2.8422113190520667e-15
  outer loop
    vertex 14.62865835296126 -14.673101553204976 31.199999999999836
    vertex 16.92110383236905 -12.91404626838508 40.02348399999972
    vertex 14.628658352961294 -14.673101553205003 40.02348399999972
  endloop
endfacet
facet normal -0.9238795325112433 -0.3826834323651947 7.657739677796697e-16
  outer loop
    vertex 32.041510531370875 -16.965547032612815 40.0234839999997
    vertex 32.33279766179032 -17.668776373416023 31.199999999999815
    vertex 32.33279766179035 -17.668776373416023 39.999999999999694
  endloop
endfacet
facet normal -0.9238795325112433 -0.3826834323651947 7.657739677796697e-16
  outer loop
    vertex 32.33279766179032 -17.668776373416023 31.199999999999815
    vertex 32.041510531370875 -16.965547032612815 40.0234839999997
    vertex 32.04151053137084 -16.96554703261279 31.199999999999807
  endloop
endfacet
facet normal 0.6939473077314955 -0.7200257871022462 -2.7307409251769566e-15
  outer loop
    vertex 39.41484894327715 -33.749999999999865 31.19999999999976
    vertex 34.41484894327717 -38.56890593477411 49.99999999999955
    vertex 34.41484894327725 -38.568905934773944 31.199999999999694
  endloop
endfacet
facet normal 0.6939473077314955 -0.7200257871022462 -2.7307409251769566e-15
  outer loop
    vertex 34.41484894327717 -38.56890593477411 49.99999999999955
    vertex 39.41484894327715 -33.749999999999865 31.19999999999976
    vertex 39.41484894327716 -33.74999999999991 49.99999999999962
  endloop
endfacet
facet normal -0.3826834323650911 -0.9238795325112862 -2.007861870811108e-15
  outer loop
    vertex 26.555556799756133 -15.398591688967487 49.99999999999975
    vertex 24.577872969596807 -14.579408224429507 40.02348399999977
    vertex 26.555556799756133 -15.398591688967473 40.023483999999755
  endloop
endfacet
facet normal -0.3826834323650911 -0.9238795325112862 -2.007861870811108e-15
  outer loop
    vertex 24.577872969596807 -14.579408224429507 40.02348399999977
    vertex 26.555556799756133 -15.398591688967487 49.99999999999975
    vertex 24.577872969596807 -14.579408224429521 49.99999999999976
  endloop
endfacet
facet normal -0.608761429008721 0.7933533402912348 4.870862504213458e-15
  outer loop
    vertex 26.555556799756133 -29.601408311032245 49.99999999999974
    vertex 28.253832405485696 -28.29827560572957 39.99999999999971
    vertex 26.55555679975601 -29.60140831103228 39.99999999999971
  endloop
endfacet
facet normal -0.608761429008721 0.7933533402912348 4.870862504213458e-15
  outer loop
    vertex 28.253832405485696 -28.29827560572957 39.99999999999971
    vertex 26.555556799756133 -29.601408311032245 49.99999999999974
    vertex 28.25383240548582 -28.298275605729536 49.99999999999974
  endloop
endfacet
facet normal -0.38268343236509206 0.923879532511286 1.514861392559952e-15
  outer loop
    vertex 24.577872969596807 -30.42059177557021 49.99999999999974
    vertex 26.55555679975601 -29.60140831103228 39.99999999999971
    vertex 24.57787296959669 -30.420591775570244 39.99999999999971
  endloop
endfacet
facet normal -0.38268343236509206 0.923879532511286 1.514861392559952e-15
  outer loop
    vertex 26.55555679975601 -29.60140831103228 39.99999999999971
    vertex 24.577872969596807 -30.42059177557021 49.99999999999974
    vertex 26.555556799756133 -29.601408311032245 49.99999999999974
  endloop
endfacet
facet normal -0.7933533402912348 0.608761429008721 7.776975512915726e-15
  outer loop
    vertex 28.25383240548582 -28.298275605729536 49.99999999999974
    vertex 29.556965110788404 -26.599999999999884 39.99999999999971
    vertex 28.253832405485696 -28.29827560572957 39.99999999999971
  endloop
endfacet
facet normal -0.7933533402912348 0.608761429008721 7.776975512915726e-15
  outer loop
    vertex 29.556965110788404 -26.599999999999884 39.99999999999971
    vertex 28.25383240548582 -28.298275605729536 49.99999999999974
    vertex 29.55696511078853 -26.59999999999985 49.99999999999974
  endloop
endfacet
facet normal -0.9238795325112867 0.3826834323650902 1.0382402615330051e-14
  outer loop
    vertex 29.55696511078853 -26.59999999999985 49.99999999999974
    vertex 30.37614857532636 -24.62231616984056 39.99999999999971
    vertex 29.556965110788404 -26.599999999999884 39.99999999999971
  endloop
endfacet
facet normal -0.9238795325112867 0.3826834323650902 1.0382402615330051e-14
  outer loop
    vertex 30.37614857532636 -24.62231616984056 39.99999999999971
    vertex 29.55696511078853 -26.59999999999985 49.99999999999974
    vertex 30.376148575326486 -24.622316169840538 49.99999999999974
  endloop
endfacet
facet normal -0.9914448613738103 0.13052619222005318 1.2007599813912028e-14
  outer loop
    vertex 30.376148575326486 -24.622316169840538 49.99999999999974
    vertex 30.655556799756006 -22.49999999999989 39.99999999999971
    vertex 30.37614857532636 -24.62231616984056 39.99999999999971
  endloop
endfacet
facet normal -0.9914448613738103 0.13052619222005318 1.2007599813912028e-14
  outer loop
    vertex 30.655556799756006 -22.49999999999989 39.99999999999971
    vertex 30.376148575326486 -24.622316169840538 49.99999999999974
    vertex 30.65555679975613 -22.499999999999865 49.99999999999974
  endloop
endfacet
facet normal -0.9914448613738105 -0.13052619222005077 1.2597769261629415e-14
  outer loop
    vertex 30.65555679975613 -22.499999999999865 49.99999999999974
    vertex 30.37614857532637 -20.37768383015922 39.99999999999971
    vertex 30.655556799756006 -22.49999999999989 39.99999999999971
  endloop
endfacet
facet normal -0.9914448613738105 -0.13052619222005077 1.2597769261629415e-14
  outer loop
    vertex 30.37614857532637 -20.37768383015922 39.99999999999971
    vertex 30.65555679975613 -22.499999999999865 49.99999999999974
    vertex 30.376148575326493 -20.377683830159196 49.99999999999974
  endloop
endfacet
facet normal -0.9238795325112862 -0.3826834323650911 1.2326836597628237e-14
  outer loop
    vertex 30.376148575326493 -20.377683830159196 49.99999999999974
    vertex 29.556965110788404 -18.399999999999892 39.99999999999971
    vertex 30.37614857532637 -20.37768383015922 39.99999999999971
  endloop
endfacet
facet normal -0.9238795325112862 -0.3826834323650911 1.2326836597628237e-14
  outer loop
    vertex 29.556965110788404 -18.399999999999892 39.99999999999971
    vertex 30.376148575326493 -20.377683830159196 49.99999999999974
    vertex 29.55696511078853 -18.39999999999987 49.99999999999974
  endloop
endfacet
facet normal -0.7933533402912504 -0.6087614290087008 7.208440193476434e-15
  outer loop
    vertex 29.55696511078853 -18.39999999999987 49.99999999999974
    vertex 28.995877487862714 -17.668776373415977 39.99999999999969
    vertex 29.556965110788404 -18.399999999999892 39.99999999999971
  endloop
endfacet
facet normal -0.7933533402912504 -0.6087614290087008 7.208440193476434e-15
  outer loop
    vertex 28.995877487862714 -17.668776373415977 39.99999999999969
    vertex 29.55696511078853 -18.39999999999987 49.99999999999974
    vertex 28.99587748786284 -17.668776373415955 49.99999999999971
  endloop
endfacet
facet normal -0.7933533402912504 -0.6087614290087008 7.208440193476434e-15
  outer loop
    vertex 28.995877487862714 -17.668776373415977 39.99999999999969
    vertex 28.99587748786284 -17.668776373415955 49.99999999999971
    vertex 28.253832405485813 -16.701724394270173 40.023483999999755
  endloop
endfacet
facet normal -0.7933533402912504 -0.6087614290087008 7.208440193476434e-15
  outer loop
    vertex 28.253832405485813 -16.701724394270173 40.023483999999755
    vertex 28.99587748786284 -17.668776373415955 49.99999999999971
    vertex 28.253832405485813 -16.701724394270187 49.99999999999975
  endloop
endfacet
facet normal 0.608761429008721 0.7933533402912348 -9.889720464320458e-15
  outer loop
    vertex 16.65728119402645 -28.298275605729536 49.99999999999974
    vertex 18.35555679975602 -29.60140831103228 39.99999999999971
    vertex 16.657281194026332 -28.29827560572957 39.99999999999971
  endloop
endfacet
facet normal 0.608761429008721 0.7933533402912348 -9.889720464320458e-15
  outer loop
    vertex 18.35555679975602 -29.60140831103228 39.99999999999971
    vertex 16.65728119402645 -28.298275605729536 49.99999999999974
    vertex 18.35555679975614 -29.601408311032245 49.99999999999974
  endloop
endfacet
facet normal 0.7933533402912353 0.6087614290087204 -1.1458357777084308e-14
  outer loop
    vertex 15.354148488723622 -26.599999999999877 39.99999999999971
    vertex 16.65728119402645 -28.298275605729536 49.99999999999974
    vertex 16.657281194026332 -28.29827560572957 39.99999999999971
  endloop
endfacet
facet normal 0.7933533402912353 0.6087614290087204 -1.1458357777084308e-14
  outer loop
    vertex 16.65728119402645 -28.298275605729536 49.99999999999974
    vertex 15.354148488723622 -26.599999999999877 39.99999999999971
    vertex 15.354148488723741 -26.599999999999845 49.99999999999974
  endloop
endfacet
facet normal 0.9238795325112865 0.38268343236509017 -1.2023990242021939e-14
  outer loop
    vertex 14.534965024185663 -24.622316169840555 39.99999999999971
    vertex 15.354148488723741 -26.599999999999845 49.99999999999974
    vertex 15.354148488723622 -26.599999999999877 39.99999999999971
  endloop
endfacet
facet normal 0.9238795325112865 0.38268343236509017 -1.2023990242021939e-14
  outer loop
    vertex 15.354148488723741 -26.599999999999845 49.99999999999974
    vertex 14.534965024185663 -24.622316169840555 39.99999999999971
    vertex 14.534965024185782 -24.62231616984053 49.99999999999974
  endloop
endfacet
facet normal 0.9914448613738105 0.13052619222005077 -1.2037421510416409e-14
  outer loop
    vertex 14.255556799756025 -22.499999999999886 39.99999999999971
    vertex 14.534965024185782 -24.62231616984053 49.99999999999974
    vertex 14.534965024185663 -24.622316169840555 39.99999999999971
  endloop
endfacet
facet normal 0.9914448613738105 0.13052619222005077 -1.2037421510416409e-14
  outer loop
    vertex 14.534965024185782 -24.62231616984053 49.99999999999974
    vertex 14.255556799756025 -22.499999999999886 39.99999999999971
    vertex 14.255556799756144 -22.49999999999986 49.99999999999974
  endloop
endfacet
facet normal 0.9914448613738105 -0.1305261922200519 -1.1447252062699025e-14
  outer loop
    vertex 14.534965024185666 -20.377683830159214 39.99999999999971
    vertex 14.255556799756144 -22.49999999999986 49.99999999999974
    vertex 14.255556799756025 -22.499999999999886 39.99999999999971
  endloop
endfacet
facet normal 0.9914448613738105 -0.1305261922200519 -1.1447252062699025e-14
  outer loop
    vertex 14.255556799756144 -22.49999999999986 49.99999999999974
    vertex 14.534965024185666 -20.377683830159214 39.99999999999971
    vertex 14.534965024185784 -20.377683830159192 49.99999999999974
  endloop
endfacet
facet normal 0.9238795325112867 -0.38268343236509006 -1.0076971304387184e-14
  outer loop
    vertex 15.354148488723627 -18.39999999999989 39.99999999999971
    vertex 14.534965024185784 -20.377683830159192 49.99999999999974
    vertex 14.534965024185666 -20.377683830159214 39.99999999999971
  endloop
endfacet
facet normal 0.9238795325112867 -0.38268343236509006 -1.0076971304387184e-14
  outer loop
    vertex 14.534965024185784 -20.377683830159192 49.99999999999974
    vertex 15.354148488723627 -18.39999999999989 39.99999999999971
    vertex 15.354148488723746 -18.399999999999864 49.99999999999974
  endloop
endfacet
facet normal 0.7933533402912203 -0.6087614290087401 -5.643011376617154e-15
  outer loop
    vertex 15.915236111649204 -17.668776373416122 39.99999999999975
    vertex 15.354148488723746 -18.399999999999864 49.99999999999974
    vertex 15.354148488723627 -18.39999999999989 39.99999999999971
  endloop
endfacet
facet normal 0.7933533402912203 -0.6087614290087401 -5.643011376617154e-15
  outer loop
    vertex 15.354148488723746 -18.399999999999864 49.99999999999974
    vertex 15.915236111649204 -17.668776373416122 39.99999999999975
    vertex 15.915236111649321 -17.668776373416097 49.99999999999978
  endloop
endfacet
facet normal 0.7933533402912203 -0.6087614290087401 -5.643011376617154e-15
  outer loop
    vertex 15.915236111649321 -17.668776373416097 49.99999999999978
    vertex 15.915236111649204 -17.668776373416122 39.99999999999975
    vertex 16.657281194026464 -16.701724394270173 40.023483999999755
  endloop
endfacet
facet normal 0.7933533402912203 -0.6087614290087401 -5.643011376617154e-15
  outer loop
    vertex 15.915236111649321 -17.668776373416097 49.99999999999978
    vertex 16.657281194026464 -16.701724394270173 40.023483999999755
    vertex 16.657281194026464 -16.701724394270187 49.99999999999975
  endloop
endfacet
facet normal 0.6087614290087209 -0.7933533402912352 -1.9904941631533044e-15
  outer loop
    vertex 18.35555679975615 -15.39859168896748 49.99999999999975
    vertex 16.657281194026464 -16.701724394270173 40.023483999999755
    vertex 18.35555679975615 -15.398591688967468 40.023483999999755
  endloop
endfacet
facet normal 0.6087614290087209 -0.7933533402912352 -1.9904941631533044e-15
  outer loop
    vertex 16.657281194026464 -16.701724394270173 40.023483999999755
    vertex 18.35555679975615 -15.39859168896748 49.99999999999975
    vertex 16.657281194026464 -16.701724394270187 49.99999999999975
  endloop
endfacet
facet normal 0.3826834323650884 -0.9238795325112874 -2.225298246861503e-15
  outer loop
    vertex 20.33324062991548 -14.579408224429507 40.02348399999977
    vertex 18.35555679975615 -15.39859168896748 49.99999999999975
    vertex 18.35555679975615 -15.398591688967468 40.023483999999755
  endloop
endfacet
facet normal 0.3826834323650884 -0.9238795325112874 -2.225298246861503e-15
  outer loop
    vertex 18.35555679975615 -15.39859168896748 49.99999999999975
    vertex 20.33324062991548 -14.579408224429507 40.02348399999977
    vertex 20.33324062991548 -14.579408224429521 49.99999999999976
  endloop
endfacet
facet normal 0.13052619222005127 -0.9914448613738105 -2.308451932525319e-15
  outer loop
    vertex 22.45555679975614 -14.299999999999883 49.99999999999976
    vertex 20.33324062991548 -14.579408224429507 40.02348399999977
    vertex 22.45555679975614 -14.29999999999987 40.02348399999977
  endloop
endfacet
facet normal 0.13052619222005127 -0.9914448613738105 -2.308451932525319e-15
  outer loop
    vertex 20.33324062991548 -14.579408224429507 40.02348399999977
    vertex 22.45555679975614 -14.299999999999883 49.99999999999976
    vertex 20.33324062991548 -14.579408224429521 49.99999999999976
  endloop
endfacet
facet normal -0.13052619222005096 -0.9914448613738106 -2.2342884338847287e-15
  outer loop
    vertex 24.577872969596807 -14.579408224429521 49.99999999999976
    vertex 22.45555679975614 -14.29999999999987 40.02348399999977
    vertex 24.577872969596807 -14.579408224429507 40.02348399999977
  endloop
endfacet
facet normal -0.13052619222005096 -0.9914448613738106 -2.2342884338847287e-15
  outer loop
    vertex 22.45555679975614 -14.29999999999987 40.02348399999977
    vertex 24.577872969596807 -14.579408224429521 49.99999999999976
    vertex 22.45555679975614 -14.299999999999883 49.99999999999976
  endloop
endfacet
facet normal -0.9595738001975378 0.001255323779119521 0.2814543411224375
  outer loop
    vertex 8.459899447643692e-15 4.831727983645442 31.199999999999772
    vertex 1.973976537783528e-14 -2.349999999999805 31.232031461575726
    vertex 5.496264656235385 -8.925718751499645 49.99999999999965
  endloop
endfacet
facet normal -0.6087614290087207 -0.7933533402912352 -1.644602839390343e-15
  outer loop
    vertex 28.253832405485813 -16.701724394270187 49.99999999999975
    vertex 26.555556799756133 -15.398591688967473 40.023483999999755
    vertex 28.253832405485813 -16.701724394270173 40.023483999999755
  endloop
endfacet
facet normal -0.6087614290087207 -0.7933533402912352 -1.644602839390343e-15
  outer loop
    vertex 26.555556799756133 -15.398591688967473 40.023483999999755
    vertex 28.253832405485813 -16.701724394270187 49.99999999999975
    vertex 26.555556799756133 -15.398591688967487 49.99999999999975
  endloop
endfacet
facet normal 0.9589572418108235 0.0012646613097189712 0.2835478954433442
  outer loop
    vertex 44.955556799755655 4.831727983645473 31.199999999999772
    vertex 39.414848943276965 -8.925718751499845 49.999999999999595
    vertex 44.955556799755655 -2.3499999999997763 31.232031461575726
  endloop
endfacet
facet normal 1.0 4.9104042299543615e-15 2.725699655197946e-15
  outer loop
    vertex 39.41484894327715 -33.749999999999865 31.19999999999976
    vertex 39.414848943276965 -8.925718751499845 49.999999999999595
    vertex 39.41484894327716 -33.74999999999991 49.99999999999962
  endloop
endfacet
facet normal 1.0 4.9104042299543615e-15 2.725699655197946e-15
  outer loop
    vertex 39.414848943276965 -8.925718751499845 49.999999999999595
    vertex 39.41484894327715 -33.749999999999865 31.19999999999976
    vertex 39.414848943277036 -2.349999999999776 31.199999999999772
  endloop
endfacet
facet normal 1.0 4.9104042299543615e-15 2.725699655197946e-15
  outer loop
    vertex 39.414848943276965 -8.925718751499845 49.999999999999595
    vertex 39.414848943277036 -2.349999999999776 31.199999999999772
    vertex 39.414848943277036 -2.354991228473353 31.230285668242395
  endloop
endfacet
facet normal -0.0011183402054307588 -0.9438512206496169 -0.33036891892763315
  outer loop
    vertex 5.496264656235385 -8.925718751499645 49.99999999999965
    vertex 1.973976537783528e-14 -2.349999999999805 31.232031461575726
    vertex 5.496265381930803 -2.355802112768396 31.23000232596719
  endloop
endfacet
facet normal 0.0009543426441882362 -0.9438371105623122 -0.33040974252510036
  outer loop
    vertex 39.414848943276965 -8.925718751499845 49.999999999999595
    vertex 39.414848943277036 -2.354991228473353 31.230285668242395
    vertex 44.955556799755655 -2.3499999999997763 31.232031461575726
  endloop
endfacet
facet normal 8.69936918294753e-16 0.0011638855077320488 -0.9999993226850332
  outer loop
    vertex 14.628658352961294 -14.673101553205003 40.02348399999972
    vertex 14.255556799756025 -22.499999999999886 39.99999999999971
    vertex 12.869603068141355 -16.965547032612747 40.02348399999972
  endloop
endfacet
facet normal 8.69936918294753e-16 0.0011638855077320488 -0.9999993226850332
  outer loop
    vertex 14.255556799756025 -22.499999999999886 39.99999999999971
    vertex 14.628658352961294 -14.673101553205003 40.02348399999972
    vertex 14.534965024185666 -20.377683830159214 39.99999999999971
  endloop
endfacet
facet normal 8.69936918294753e-16 0.0011638855077320488 -0.9999993226850332
  outer loop
    vertex 14.534965024185666 -20.377683830159214 39.99999999999971
    vertex 14.628658352961294 -14.673101553205003 40.02348399999972
    vertex 15.354148488723627 -18.39999999999989 39.99999999999971
  endloop
endfacet
facet normal 8.69936918294753e-16 0.0011638855077320488 -0.9999993226850332
  outer loop
    vertex 15.354148488723627 -18.39999999999989 39.99999999999971
    vertex 14.628658352961294 -14.673101553205003 40.02348399999972
    vertex 16.92110383236905 -12.91404626838508 40.02348399999972
  endloop
endfacet
facet normal 8.69936918294753e-16 0.0011638855077320488 -0.9999993226850332
  outer loop
    vertex 15.354148488723627 -18.39999999999989 39.99999999999971
    vertex 16.92110383236905 -12.91404626838508 40.02348399999972
    vertex 15.915236111649204 -17.668776373416122 39.99999999999975
  endloop
endfacet
facet normal 8.69936918294753e-16 0.0011638855077320488 -0.9999993226850332
  outer loop
    vertex 15.915236111649204 -17.668776373416122 39.99999999999975
    vertex 16.92110383236905 -12.91404626838508 40.02348399999972
    vertex 16.657281194026464 -16.701724394270173 40.023483999999755
  endloop
endfacet
facet normal 8.69936918294753e-16 0.0011638855077320488 -0.9999993226850332
  outer loop
    vertex 16.657281194026464 -16.701724394270173 40.023483999999755
    vertex 16.92110383236905 -12.91404626838508 40.02348399999972
    vertex 18.35555679975615 -15.398591688967468 40.023483999999755
  endloop
endfacet
facet normal 8.69936918294753e-16 0.0011638855077320488 -0.9999993226850332
  outer loop
    vertex 18.35555679975615 -15.398591688967468 40.023483999999755
    vertex 16.92110383236905 -12.91404626838508 40.02348399999972
    vertex 19.59071313538826 -11.80825788883714 40.02348399999972
  endloop
endfacet
facet normal 8.69936918294753e-16 0.0011638855077320488 -0.9999993226850332
  outer loop
    vertex 18.35555679975615 -15.398591688967468 40.023483999999755
    vertex 19.59071313538826 -11.80825788883714 40.02348399999972
    vertex 20.33324062991548 -14.579408224429507 40.02348399999977
  endloop
endfacet
facet normal 8.69936918294753e-16 0.0011638855077320488 -0.9999993226850332
  outer loop
    vertex 20.33324062991548 -14.579408224429507 40.02348399999977
    vertex 19.59071313538826 -11.80825788883714 40.02348399999972
    vertex 22.45555679975613 -11.431094065225695 40.02348399999972
  endloop
endfacet
facet normal 8.69936918294753e-16 0.0011638855077320488 -0.9999993226850332
  outer loop
    vertex 20.33324062991548 -14.579408224429507 40.02348399999977
    vertex 22.45555679975613 -11.431094065225695 40.02348399999972
    vertex 22.45555679975614 -14.29999999999987 40.02348399999977
  endloop
endfacet
facet normal 8.69936918294753e-16 0.0011638855077320488 -0.9999993226850332
  outer loop
    vertex 22.45555679975614 -14.29999999999987 40.02348399999977
    vertex 22.45555679975613 -11.431094065225695 40.02348399999972
    vertex 25.320400464124006 -11.808257888837163 40.02348399999971
  endloop
endfacet
facet normal 8.69936918294753e-16 0.0011638855077320488 -0.9999993226850332
  outer loop
    vertex 22.45555679975614 -14.29999999999987 40.02348399999977
    vertex 25.320400464124006 -11.808257888837163 40.02348399999971
    vertex 24.577872969596807 -14.579408224429507 40.02348399999977
  endloop
endfacet
facet normal 8.69936918294753e-16 0.0011638855077320488 -0.9999993226850332
  outer loop
    vertex 24.577872969596807 -14.579408224429507 40.02348399999977
    vertex 25.320400464124006 -11.808257888837163 40.02348399999971
    vertex 26.555556799756133 -15.398591688967473 40.023483999999755
  endloop
endfacet
facet normal 8.69936918294753e-16 0.0011638855077320488 -0.9999993226850332
  outer loop
    vertex 26.555556799756133 -15.398591688967473 40.023483999999755
    vertex 25.320400464124006 -11.808257888837163 40.02348399999971
    vertex 27.99000976714321 -12.914046268385123 40.02348399999971
  endloop
endfacet
facet normal 8.69936918294753e-16 0.0011638855077320488 -0.9999993226850332
  outer loop
    vertex 26.555556799756133 -15.398591688967473 40.023483999999755
    vertex 27.99000976714321 -12.914046268385123 40.02348399999971
    vertex 28.253832405485813 -16.701724394270173 40.023483999999755
  endloop
endfacet
facet normal 8.69936918294753e-16 0.0011638855077320488 -0.9999993226850332
  outer loop
    vertex 28.253832405485813 -16.701724394270173 40.023483999999755
    vertex 27.99000976714321 -12.914046268385123 40.02348399999971
    vertex 30.28245524655095 -14.67310155320506 40.0234839999997
  endloop
endfacet
facet normal 8.69936918294753e-16 0.0011638855077320488 -0.9999993226850332
  outer loop
    vertex 28.253832405485813 -16.701724394270173 40.023483999999755
    vertex 30.28245524655095 -14.67310155320506 40.0234839999997
    vertex 28.995877487862714 -17.668776373415977 39.99999999999969
  endloop
endfacet
facet normal 8.69936918294753e-16 0.0011638855077320488 -0.9999993226850332
  outer loop
    vertex 28.995877487862714 -17.668776373415977 39.99999999999969
    vertex 30.28245524655095 -14.67310155320506 40.0234839999997
    vertex 29.556965110788404 -18.399999999999892 39.99999999999971
  endloop
endfacet
facet normal 8.69936918294753e-16 0.0011638855077320488 -0.9999993226850332
  outer loop
    vertex 29.556965110788404 -18.399999999999892 39.99999999999971
    vertex 30.28245524655095 -14.67310155320506 40.0234839999997
    vertex 30.37614857532637 -20.37768383015922 39.99999999999971
  endloop
endfacet
facet normal 8.69936918294753e-16 0.0011638855077320488 -0.9999993226850332
  outer loop
    vertex 30.37614857532637 -20.37768383015922 39.99999999999971
    vertex 30.28245524655095 -14.67310155320506 40.0234839999997
    vertex 32.041510531370875 -16.965547032612815 40.0234839999997
  endloop
endfacet
facet normal 8.69936918294753e-16 0.0011638855077320488 -0.9999993226850332
  outer loop
    vertex 30.37614857532637 -20.37768383015922 39.99999999999971
    vertex 32.041510531370875 -16.965547032612815 40.0234839999997
    vertex 30.655556799756006 -22.49999999999989 39.99999999999971
  endloop
endfacet
facet normal 8.69936918294753e-16 0.0011638855077320488 -0.9999993226850332
  outer loop
    vertex 30.655556799756006 -22.49999999999989 39.99999999999971
    vertex 32.041510531370875 -16.965547032612815 40.0234839999997
    vertex 32.041510531370676 -28.0344529673869 39.99999999999971
  endloop
endfacet
facet normal 8.69936918294753e-16 0.0011638855077320488 -0.9999993226850332
  outer loop
    vertex 32.041510531370676 -28.0344529673869 39.99999999999971
    vertex 32.041510531370875 -16.965547032612815 40.0234839999997
    vertex 33.1472989109186 -25.364843664367722 39.99999999999971
  endloop
endfacet
facet normal 8.69936918294753e-16 0.0011638855077320488 -0.9999993226850332
  outer loop
    vertex 33.1472989109186 -25.364843664367722 39.99999999999971
    vertex 32.041510531370875 -16.965547032612815 40.0234839999997
    vertex 32.33279766179035 -17.668776373416023 39.999999999999694
  endloop
endfacet
facet normal 8.69936918294753e-16 0.0011638855077320488 -0.9999993226850332
  outer loop
    vertex 33.1472989109186 -25.364843664367722 39.99999999999971
    vertex 32.33279766179035 -17.668776373416023 39.999999999999694
    vertex 33.147298910918884 -19.635156335631965 39.9999999999997
  endloop
endfacet
facet normal 8.69936918294753e-16 0.0011638855077320488 -0.9999993226850332
  outer loop
    vertex 33.1472989109186 -25.364843664367722 39.99999999999971
    vertex 33.147298910918884 -19.635156335631965 39.9999999999997
    vertex 33.524462734530054 -22.49999999999988 39.99999999999971
  endloop
endfacet
facet normal 8.69936918294753e-16 0.0011638855077320488 -0.9999993226850332
  outer loop
    vertex 11.763814688593872 -19.6351563356321 39.99999999999964
    vertex 11.76381468859344 -25.364843664367733 39.99999999999971
    vertex 11.386650864981986 -22.499999999999893 39.99999999999971
  endloop
endfacet
facet normal 8.69936918294753e-16 0.0011638855077320488 -0.9999993226850332
  outer loop
    vertex 11.76381468859344 -25.364843664367733 39.99999999999971
    vertex 11.763814688593872 -19.6351563356321 39.99999999999964
    vertex 12.869603068141211 -28.034452967386958 39.99999999999965
  endloop
endfacet
facet normal 8.69936918294753e-16 0.0011638855077320488 -0.9999993226850332
  outer loop
    vertex 12.869603068141211 -28.034452967386958 39.99999999999965
    vertex 11.763814688593872 -19.6351563356321 39.99999999999964
    vertex 12.578315937722465 -17.668776373416044 39.999999999999716
  endloop
endfacet
facet normal 8.69936918294753e-16 0.0011638855077320488 -0.9999993226850332
  outer loop
    vertex 12.869603068141211 -28.034452967386958 39.99999999999965
    vertex 12.578315937722465 -17.668776373416044 39.999999999999716
    vertex 12.869603068141355 -16.965547032612747 40.02348399999972
  endloop
endfacet
facet normal 8.69936918294753e-16 0.0011638855077320488 -0.9999993226850332
  outer loop
    vertex 12.869603068141211 -28.034452967386958 39.99999999999965
    vertex 12.869603068141355 -16.965547032612747 40.02348399999972
    vertex 14.628658352961171 -30.32689844679469 39.99999999999965
  endloop
endfacet
facet normal 8.69936918294753e-16 0.0011638855077320488 -0.9999993226850332
  outer loop
    vertex 14.628658352961171 -30.32689844679469 39.99999999999965
    vertex 12.869603068141355 -16.965547032612747 40.02348399999972
    vertex 14.255556799756025 -22.499999999999886 39.99999999999971
  endloop
endfacet
facet normal 8.69936918294753e-16 0.0011638855077320488 -0.9999993226850332
  outer loop
    vertex 14.628658352961171 -30.32689844679469 39.99999999999965
    vertex 14.255556799756025 -22.499999999999886 39.99999999999971
    vertex 14.534965024185663 -24.622316169840555 39.99999999999971
  endloop
endfacet
facet normal 8.69936918294753e-16 0.0011638855077320488 -0.9999993226850332
  outer loop
    vertex 14.628658352961171 -30.32689844679469 39.99999999999965
    vertex 14.534965024185663 -24.622316169840555 39.99999999999971
    vertex 15.354148488723622 -26.599999999999877 39.99999999999971
  endloop
endfacet
facet normal 8.69936918294753e-16 0.0011638855077320488 -0.9999993226850332
  outer loop
    vertex 14.628658352961171 -30.32689844679469 39.99999999999965
    vertex 15.354148488723622 -26.599999999999877 39.99999999999971
    vertex 16.921103832368935 -32.085953731614595 39.99999999999965
  endloop
endfacet
facet normal 8.69936918294753e-16 0.0011638855077320488 -0.9999993226850332
  outer loop
    vertex 16.921103832368935 -32.085953731614595 39.99999999999965
    vertex 15.354148488723622 -26.599999999999877 39.99999999999971
    vertex 16.657281194026332 -28.29827560572957 39.99999999999971
  endloop
endfacet
facet normal 8.69936918294753e-16 0.0011638855077320488 -0.9999993226850332
  outer loop
    vertex 16.921103832368935 -32.085953731614595 39.99999999999965
    vertex 16.657281194026332 -28.29827560572957 39.99999999999971
    vertex 18.35555679975602 -29.60140831103228 39.99999999999971
  endloop
endfacet
facet normal 8.69936918294753e-16 0.0011638855077320488 -0.9999993226850332
  outer loop
    vertex 16.921103832368935 -32.085953731614595 39.99999999999965
    vertex 18.35555679975602 -29.60140831103228 39.99999999999971
    vertex 19.590713135388146 -33.1917421111625 39.99999999999965
  endloop
endfacet
facet normal 8.69936918294753e-16 0.0011638855077320488 -0.9999993226850332
  outer loop
    vertex 19.590713135388146 -33.1917421111625 39.99999999999965
    vertex 18.35555679975602 -29.60140831103228 39.99999999999971
    vertex 20.333240629915345 -30.420591775570237 39.99999999999971
  endloop
endfacet
facet normal 8.69936918294753e-16 0.0011638855077320488 -0.9999993226850332
  outer loop
    vertex 19.590713135388146 -33.1917421111625 39.99999999999965
    vertex 20.333240629915345 -30.420591775570237 39.99999999999971
    vertex 22.455556799756028 -33.56890593477392 39.99999999999965
  endloop
endfacet
facet normal 8.69936918294753e-16 0.0011638855077320488 -0.9999993226850332
  outer loop
    vertex 22.455556799756028 -33.56890593477392 39.99999999999965
    vertex 20.333240629915345 -30.420591775570237 39.99999999999971
    vertex 22.45555679975602 -30.699999999999882 39.99999999999971
  endloop
endfacet
facet normal 8.69936918294753e-16 0.0011638855077320488 -0.9999993226850332
  outer loop
    vertex 22.455556799756028 -33.56890593477392 39.99999999999965
    vertex 22.45555679975602 -30.699999999999882 39.99999999999971
    vertex 24.57787296959669 -30.420591775570244 39.99999999999971
  endloop
endfacet
facet normal 8.69936918294753e-16 0.0011638855077320488 -0.9999993226850332
  outer loop
    vertex 22.455556799756028 -33.56890593477392 39.99999999999965
    vertex 24.57787296959669 -30.420591775570244 39.99999999999971
    vertex 25.32040046412387 -33.19174211116247 39.99999999999971
  endloop
endfacet
facet normal 8.69936918294753e-16 0.0011638855077320488 -0.9999993226850332
  outer loop
    vertex 25.32040046412387 -33.19174211116247 39.99999999999971
    vertex 24.57787296959669 -30.420591775570244 39.99999999999971
    vertex 26.55555679975601 -29.60140831103228 39.99999999999971
  endloop
endfacet
facet normal 8.69936918294753e-16 0.0011638855077320488 -0.9999993226850332
  outer loop
    vertex 25.32040046412387 -33.19174211116247 39.99999999999971
    vertex 26.55555679975601 -29.60140831103228 39.99999999999971
    vertex 27.990009767143043 -32.08595373161454 39.99999999999971
  endloop
endfacet
facet normal 8.69936918294753e-16 0.0011638855077320488 -0.9999993226850332
  outer loop
    vertex 27.990009767143043 -32.08595373161454 39.99999999999971
    vertex 26.55555679975601 -29.60140831103228 39.99999999999971
    vertex 28.253832405485696 -28.29827560572957 39.99999999999971
  endloop
endfacet
facet normal 8.69936918294753e-16 0.0011638855077320488 -0.9999993226850332
  outer loop
    vertex 27.990009767143043 -32.08595373161454 39.99999999999971
    vertex 28.253832405485696 -28.29827560572957 39.99999999999971
    vertex 30.282455246550768 -30.32689844679462 39.99999999999971
  endloop
endfacet
facet normal 8.69936918294753e-16 0.0011638855077320488 -0.9999993226850332
  outer loop
    vertex 30.282455246550768 -30.32689844679462 39.99999999999971
    vertex 28.253832405485696 -28.29827560572957 39.99999999999971
    vertex 29.556965110788404 -26.599999999999884 39.99999999999971
  endloop
endfacet
facet normal 8.69936918294753e-16 0.0011638855077320488 -0.9999993226850332
  outer loop
    vertex 30.282455246550768 -30.32689844679462 39.99999999999971
    vertex 29.556965110788404 -26.599999999999884 39.99999999999971
    vertex 30.37614857532636 -24.62231616984056 39.99999999999971
  endloop
endfacet
facet normal 8.69936918294753e-16 0.0011638855077320488 -0.9999993226850332
  outer loop
    vertex 30.282455246550768 -30.32689844679462 39.99999999999971
    vertex 30.37614857532636 -24.62231616984056 39.99999999999971
    vertex 32.041510531370676 -28.0344529673869 39.99999999999971
  endloop
endfacet
facet normal 8.69936918294753e-16 0.0011638855077320488 -0.9999993226850332
  outer loop
    vertex 32.041510531370676 -28.0344529673869 39.99999999999971
    vertex 30.37614857532636 -24.62231616984056 39.99999999999971
    vertex 30.655556799756006 -22.49999999999989 39.99999999999971
  endloop
endfacet
facet normal -0.9238795325112953 -0.3826834323650696 7.780408289818267e-15
  outer loop
    vertex 33.147298910918884 -19.635156335631965 39.9999999999997
    vertex 32.33279766179032 -17.668776373416023 31.199999999999815
    vertex 33.14729891091878 -19.635156335631997 31.199999999999815
  endloop
endfacet
facet normal -0.9238795325112953 -0.3826834323650696 7.780408289818267e-15
  outer loop
    vertex 32.33279766179032 -17.668776373416023 31.199999999999815
    vertex 33.147298910918884 -19.635156335631965 39.9999999999997
    vertex 32.33279766179035 -17.668776373416023 39.999999999999694
  endloop
endfacet
facet normal -0.9914448613738199 -0.1305261922199801 2.9791597546028942e-15
  outer loop
    vertex 33.524462734530054 -22.49999999999988 39.99999999999971
    vertex 33.14729891091878 -19.635156335631997 31.199999999999815
    vertex 33.52446273453011 -22.499999999999908 31.199999999999807
  endloop
endfacet
facet normal -0.9914448613738199 -0.1305261922199801 2.9791597546028942e-15
  outer loop
    vertex 33.14729891091878 -19.635156335631997 31.199999999999815
    vertex 33.524462734530054 -22.49999999999988 39.99999999999971
    vertex 33.147298910918884 -19.635156335631965 39.9999999999997
  endloop
endfacet
facet normal -1.0 8.024131918460862e-09 -9.243022412697814e-09
  outer loop
    vertex 5.496264656235121 -33.24999999999985 49.999999999999545
    vertex 5.496264656235429 -2.3510403805733864 31.199999999999818
    vertex 5.496264656235419 -33.24999999999986 31.199999999999807
  endloop
endfacet
facet normal -1.0 8.024131918460862e-09 -9.243022412697814e-09
  outer loop
    vertex 5.496264656235429 -2.3510403805733864 31.199999999999818
    vertex 5.496264656235121 -33.24999999999985 49.999999999999545
    vertex 5.496264656235385 -8.925718751499645 49.99999999999965
  endloop
endfacet
facet normal -1.0 8.024131918460862e-09 -9.243022412697814e-09
  outer loop
    vertex 5.496264656235429 -2.3510403805733864 31.199999999999818
    vertex 5.496264656235385 -8.925718751499645 49.99999999999965
    vertex 5.496265381930803 -2.355802112768396 31.23000232596719
  endloop
endfacet
facet normal -0.0011183402054307588 -0.9438512206496169 -0.33036891892763315
  outer loop
    vertex 5.496264656235385 -8.925718751499645 49.99999999999965
    vertex 1.973976537783528e-14 -2.349999999999805 31.232031461575726
    vertex 5.496265381930803 -2.355802112768396 31.23000232596719
  endloop
endfacet
facet normal -1.0 -3.0417009464580926e-15 -1.831746356410693e-15
  outer loop
    vertex 8.459899447643692e-15 4.831727983645442 31.199999999999772
    vertex 1.973976537783528e-14 -2.349999999999805 30.164900770653592
    vertex 1.973976537783528e-14 -2.349999999999805 31.232031461575726
  endloop
endfacet
facet normal -1.0 -3.0417009464580926e-15 -1.831746356410693e-15
  outer loop
    vertex 1.973976537783528e-14 -2.349999999999805 30.164900770653592
    vertex 8.459899447643692e-15 4.831727983645442 31.199999999999772
    vertex 1.973976537783528e-14 -0.6724350723887862 28.87765992761069
  endloop
endfacet
facet normal -1.0 -3.0417009464580926e-15 -1.831746356410693e-15
  outer loop
    vertex 1.973976537783528e-14 -0.6724350723887862 28.87765992761069
    vertex 8.459899447643692e-15 4.831727983645442 31.199999999999772
    vertex 1.973976537783528e-14 3.722480071968889 23.1500949999997
  endloop
endfacet
facet normal -1.0 -3.0417009464580926e-15 -1.831746356410693e-15
  outer loop
    vertex 1.973976537783528e-14 10.722480071968878 23.1500949999997
    vertex -2.8199664825478975e-15 4.831727983645458 15.05009499999968
    vertex 8.459899447643692e-15 4.831727983645442 31.199999999999772
  endloop
endfacet
facet normal -1.0 -3.0417009464580926e-15 -1.831746356410693e-15
  outer loop
    vertex 1.973976537783528e-14 3.722480071968889 23.1500949999997
    vertex 1.127986593019159e-13 -2.4928685306605667 12.050094999999803
    vertex 1.973976537783528e-14 -2.4928685306606337 15.050094999999754
  endloop
endfacet
facet normal -1.0 -3.0417009464580926e-15 -1.831746356410693e-15
  outer loop
    vertex 1.127986593019159e-13 -2.4928685306605667 12.050094999999803
    vertex 1.973976537783528e-14 3.722480071968889 23.1500949999997
    vertex 1.127986593019159e-13 4.831727983645543 12.050094999999803
  endloop
endfacet
facet normal -1.0 -3.0417009464580926e-15 -1.831746356410693e-15
  outer loop
    vertex 1.127986593019159e-13 4.831727983645543 12.050094999999803
    vertex 1.973976537783528e-14 3.722480071968889 23.1500949999997
    vertex -2.8199664825478975e-15 4.831727983645458 15.05009499999968
  endloop
endfacet
facet normal -1.0 -3.0417009464580926e-15 -1.831746356410693e-15
  outer loop
    vertex -2.8199664825478975e-15 4.831727983645458 15.05009499999968
    vertex 1.973976537783528e-14 3.722480071968889 23.1500949999997
    vertex 8.459899447643692e-15 4.831727983645442 31.199999999999772
  endloop
endfacet
facet normal 3.1363936777711214e-17 1.0 1.7389793309045863e-14
  outer loop
    vertex 1.127986593019159e-13 4.831727983645543 12.050094999999803
    vertex 44.95555679975564 4.831727983645489 15.05009499999968
    vertex 44.95555679975565 4.831727983645509 12.050094999999754
  endloop
endfacet
facet normal 3.1363936777711214e-17 1.0 1.7389793309045863e-14
  outer loop
    vertex 44.95555679975564 4.831727983645489 15.05009499999968
    vertex 1.127986593019159e-13 4.831727983645543 12.050094999999803
    vertex -2.8199664825478975e-15 4.831727983645458 15.05009499999968
  endloop
endfacet
facet normal 0.9238795325113119 -0.38268343236502883 -7.743035191628312e-14
  outer loop
    vertex 11.763814688593369 -19.63515633563192 31.199999999999815
    vertex 12.578315937722465 -17.668776373416044 39.999999999999716
    vertex 11.763814688593872 -19.6351563356321 39.99999999999964
  endloop
endfacet
facet normal 0.9238795325113119 -0.38268343236502883 -7.743035191628312e-14
  outer loop
    vertex 12.578315937722465 -17.668776373416044 39.999999999999716
    vertex 11.763814688593369 -19.63515633563192 31.199999999999815
    vertex 12.578315937721646 -17.668776373415852 31.199999999999896
  endloop
endfacet
facet normal 8.258980264902292e-16 0.807002725209432 0.5905477131481841
  outer loop
    vertex 8.459899447643692e-15 4.831727983645442 31.199999999999772
    vertex 44.955556799755655 10.72248007196891 23.1500949999997
    vertex 1.973976537783528e-14 10.722480071968878 23.1500949999997
  endloop
endfacet
facet normal 8.258980264902292e-16 0.807002725209432 0.5905477131481841
  outer loop
    vertex 44.955556799755655 10.72248007196891 23.1500949999997
    vertex 8.459899447643692e-15 4.831727983645442 31.199999999999772
    vertex 44.955556799755655 4.831727983645473 31.199999999999772
  endloop
endfacet
facet normal 8.258980264902292e-16 0.807002725209432 0.5905477131481841
  outer loop
    vertex 44.955556799755655 4.831727983645473 31.199999999999772
    vertex 8.459899447643692e-15 4.831727983645442 31.199999999999772
    vertex 5.496264656235385 -8.925718751499645 49.99999999999965
  endloop
endfacet
facet normal 8.258980264902292e-16 0.807002725209432 0.5905477131481841
  outer loop
    vertex 44.955556799755655 4.831727983645473 31.199999999999772
    vertex 5.496264656235385 -8.925718751499645 49.99999999999965
    vertex 39.414848943276965 -8.925718751499845 49.999999999999595
  endloop
endfacet
facet normal 0.9914448613738109 -0.13052619222004724 -8.41036352571129e-15
  outer loop
    vertex 11.386650864982379 -22.49999999999978 31.199999999999807
    vertex 11.763814688593872 -19.6351563356321 39.99999999999964
    vertex 11.386650864981986 -22.499999999999893 39.99999999999971
  endloop
endfacet
facet normal 0.9914448613738109 -0.13052619222004724 -8.41036352571129e-15
  outer loop
    vertex 11.763814688593872 -19.6351563356321 39.99999999999964
    vertex 11.386650864982379 -22.49999999999978 31.199999999999807
    vertex 11.763814688593369 -19.63515633563192 31.199999999999815
  endloop
endfacet
facet normal -0.13052619222005077 0.9914448613738105 -1.808221749376391e-15
  outer loop
    vertex 22.45555679975614 -30.699999999999847 49.99999999999974
    vertex 24.57787296959669 -30.420591775570244 39.99999999999971
    vertex 22.45555679975602 -30.699999999999882 39.99999999999971
  endloop
endfacet
facet normal -0.13052619222005077 0.9914448613738105 -1.808221749376391e-15
  outer loop
    vertex 24.57787296959669 -30.420591775570244 39.99999999999971
    vertex 22.45555679975614 -30.699999999999847 49.99999999999974
    vertex 24.577872969596807 -30.42059177557021 49.99999999999974
  endloop
endfacet
facet normal 0.13052619222005302 0.9914448613738103 -4.899307272569433e-15
  outer loop
    vertex 20.333240629915466 -30.420591775570205 49.99999999999974
    vertex 22.45555679975602 -30.699999999999882 39.99999999999971
    vertex 20.333240629915345 -30.420591775570237 39.99999999999971
  endloop
endfacet
facet normal 0.13052619222005302 0.9914448613738103 -4.899307272569433e-15
  outer loop
    vertex 22.45555679975602 -30.699999999999882 39.99999999999971
    vertex 20.333240629915466 -30.420591775570205 49.99999999999974
    vertex 22.45555679975614 -30.699999999999847 49.99999999999974
  endloop
endfacet
facet normal 0.6087614290087111 0.7933533402912425 -7.372418365030127e-15
  outer loop
    vertex 14.628658352961171 -30.32689844679469 39.99999999999965
    vertex 16.921103832368935 -32.08595373161467 31.19999999999975
    vertex 14.628658352961171 -30.32689844679477 31.19999999999975
  endloop
endfacet
facet normal 0.6087614290087111 0.7933533402912425 -7.372418365030127e-15
  outer loop
    vertex 16.921103832368935 -32.08595373161467 31.19999999999975
    vertex 14.628658352961171 -30.32689844679469 39.99999999999965
    vertex 16.921103832368935 -32.085953731614595 39.99999999999965
  endloop
endfacet
facet normal 0.382683432365079 0.9238795325112913 -8.055371729920847e-15
  outer loop
    vertex 16.921103832368935 -32.085953731614595 39.99999999999965
    vertex 19.590713135388146 -33.191742111162576 31.19999999999975
    vertex 16.921103832368935 -32.08595373161467 31.19999999999975
  endloop
endfacet
facet normal 0.382683432365079 0.9238795325112913 -8.055371729920847e-15
  outer loop
    vertex 19.590713135388146 -33.191742111162576 31.19999999999975
    vertex 16.921103832368935 -32.085953731614595 39.99999999999965
    vertex 19.590713135388146 -33.1917421111625 39.99999999999965
  endloop
endfacet
facet normal 0.7933533402912282 0.6087614290087296 -5.8594074884201245e-15
  outer loop
    vertex 12.869603068141211 -28.034452967387043 31.19999999999975
    vertex 14.628658352961171 -30.32689844679469 39.99999999999965
    vertex 14.628658352961171 -30.32689844679477 31.19999999999975
  endloop
endfacet
facet normal 0.7933533402912282 0.6087614290087296 -5.8594074884201245e-15
  outer loop
    vertex 14.628658352961171 -30.32689844679469 39.99999999999965
    vertex 12.869603068141211 -28.034452967387043 31.19999999999975
    vertex 12.869603068141211 -28.034452967386958 39.99999999999965
  endloop
endfacet
facet normal 0.130526192220039 0.991444861373812 -8.32263438819814e-15
  outer loop
    vertex 19.590713135388146 -33.1917421111625 39.99999999999965
    vertex 22.455556799756025 -33.568905934773994 31.19999999999975
    vertex 19.590713135388146 -33.191742111162576 31.19999999999975
  endloop
endfacet
facet normal 0.130526192220039 0.991444861373812 -8.32263438819814e-15
  outer loop
    vertex 22.455556799756025 -33.568905934773994 31.19999999999975
    vertex 19.590713135388146 -33.1917421111625 39.99999999999965
    vertex 22.455556799756028 -33.56890593477392 39.99999999999965
  endloop
endfacet
facet normal 5.926237878612312e-16 -0.7933533402912358 0.6087614290087199
  outer loop
    vertex 44.955556799755655 3.7224800719689197 23.1500949999997
    vertex 1.973976537783528e-14 -2.4928685306606337 15.050094999999754
    vertex 44.955556799755655 -2.492868530660605 15.050094999999754
  endloop
endfacet
facet normal 5.926237878612312e-16 -0.7933533402912358 0.6087614290087199
  outer loop
    vertex 1.973976537783528e-14 -2.4928685306606337 15.050094999999754
    vertex 44.955556799755655 3.7224800719689197 23.1500949999997
    vertex 1.973976537783528e-14 3.722480071968889 23.1500949999997
  endloop
endfacet
facet normal -0.9914448613738107 0.13052619222005032 -7.407410658810826e-15
  outer loop
    vertex 33.1472989109186 -25.364843664367722 39.99999999999971
    vertex 33.52446273453011 -22.499999999999908 31.199999999999807
    vertex 33.147298910918664 -25.36484366436775 31.199999999999807
  endloop
endfacet
facet normal -0.9914448613738107 0.13052619222005032 -7.407410658810826e-15
  outer loop
    vertex 33.52446273453011 -22.499999999999908 31.199999999999807
    vertex 33.1472989109186 -25.364843664367722 39.99999999999971
    vertex 33.524462734530054 -22.49999999999988 39.99999999999971
  endloop
endfacet
facet normal -0.9238795325112873 0.38268343236508845 -7.861924140972869e-15
  outer loop
    vertex 32.041510531370676 -28.0344529673869 39.99999999999971
    vertex 33.147298910918664 -25.36484366436775 31.199999999999807
    vertex 32.04151053137074 -28.034452967386933 31.199999999999807
  endloop
endfacet
facet normal -0.9238795325112873 0.38268343236508845 -7.861924140972869e-15
  outer loop
    vertex 33.147298910918664 -25.36484366436775 31.199999999999807
    vertex 32.041510531370676 -28.0344529673869 39.99999999999971
    vertex 33.1472989109186 -25.364843664367722 39.99999999999971
  endloop
endfacet
facet normal -0.7933533402912355 0.6087614290087204 -7.935485141407524e-15
  outer loop
    vertex 30.282455246550768 -30.32689844679462 39.99999999999971
    vertex 32.04151053137074 -28.034452967386933 31.199999999999807
    vertex 30.28245524655083 -30.326898446794655 31.199999999999807
  endloop
endfacet
facet normal -0.7933533402912355 0.6087614290087204 -7.935485141407524e-15
  outer loop
    vertex 32.04151053137074 -28.034452967386933 31.199999999999807
    vertex 30.282455246550768 -30.32689844679462 39.99999999999971
    vertex 32.041510531370676 -28.0344529673869 39.99999999999971
  endloop
endfacet
facet normal -0.6087614290087209 0.7933533402912349 -7.352042710447722e-15
  outer loop
    vertex 27.990009767143043 -32.08595373161454 39.99999999999971
    vertex 30.28245524655083 -30.326898446794655 31.199999999999807
    vertex 27.990009767143103 -32.085953731614566 31.199999999999807
  endloop
endfacet
facet normal -0.6087614290087209 0.7933533402912349 -7.352042710447722e-15
  outer loop
    vertex 30.28245524655083 -30.326898446794655 31.199999999999807
    vertex 27.990009767143043 -32.08595373161454 39.99999999999971
    vertex 30.282455246550768 -30.32689844679462 39.99999999999971
  endloop
endfacet
facet normal -0.38268343236509106 0.9238795325112864 -6.184207300562127e-15
  outer loop
    vertex 25.32040046412387 -33.19174211116247 39.99999999999971
    vertex 27.990009767143103 -32.085953731614566 31.199999999999807
    vertex 25.320400464123928 -33.1917421111625 31.199999999999807
  endloop
endfacet
facet normal -0.38268343236509106 0.9238795325112864 -6.184207300562127e-15
  outer loop
    vertex 27.990009767143103 -32.085953731614566 31.199999999999807
    vertex 25.32040046412387 -33.19174211116247 39.99999999999971
    vertex 27.990009767143043 -32.08595373161454 39.99999999999971
  endloop
endfacet
facet normal -0.1305261922200576 0.9914448613738096 -6.430835036676118e-15
  outer loop
    vertex 22.455556799756028 -33.56890593477392 39.99999999999965
    vertex 25.320400464123928 -33.1917421111625 31.199999999999807
    vertex 22.455556799756025 -33.568905934773994 31.19999999999975
  endloop
endfacet
facet normal -0.1305261922200576 0.9914448613738096 -6.430835036676118e-15
  outer loop
    vertex 25.320400464123928 -33.1917421111625 31.199999999999807
    vertex 22.455556799756028 -33.56890593477392 39.99999999999965
    vertex 25.32040046412387 -33.19174211116247 39.99999999999971
  endloop
endfacet
facet normal 0.9914448613738105 0.130526192220052 4.587517829799696e-14
  outer loop
    vertex 11.763814688593833 -25.364843664367616 31.199999999999807
    vertex 11.386650864981986 -22.499999999999893 39.99999999999971
    vertex 11.76381468859344 -25.364843664367733 39.99999999999971
  endloop
endfacet
facet normal 0.9914448613738105 0.130526192220052 4.587517829799696e-14
  outer loop
    vertex 11.386650864981986 -22.499999999999893 39.99999999999971
    vertex 11.763814688593833 -25.364843664367616 31.199999999999807
    vertex 11.386650864982379 -22.49999999999978 31.199999999999807
  endloop
endfacet
facet normal 0.9238795325113377 0.382683432364967 2.125350594503777e-14
  outer loop
    vertex 11.763814688593833 -25.364843664367616 31.199999999999807
    vertex 12.869603068141211 -28.034452967386958 39.99999999999965
    vertex 12.869603068141211 -28.034452967387043 31.19999999999975
  endloop
endfacet
facet normal 0.9238795325113377 0.382683432364967 2.125350594503777e-14
  outer loop
    vertex 12.869603068141211 -28.034452967386958 39.99999999999965
    vertex 11.763814688593833 -25.364843664367616 31.199999999999807
    vertex 11.76381468859344 -25.364843664367733 39.99999999999971
  endloop
endfacet
facet normal 1.0 3.4540370662014204e-16 -4.0004538589136126e-16
  outer loop
    vertex 44.955556799755655 -0.6724350723887563 28.87765992761069
    vertex 44.955556799755655 -2.3499999999997763 31.232031461575726
    vertex 44.955556799755655 -2.3499999999997763 30.164900770653592
  endloop
endfacet
facet normal 1.0 3.4540370662014204e-16 -4.0004538589136126e-16
  outer loop
    vertex 44.955556799755655 -2.3499999999997763 31.232031461575726
    vertex 44.955556799755655 -0.6724350723887563 28.87765992761069
    vertex 44.955556799755655 4.831727983645473 31.199999999999772
  endloop
endfacet
facet normal 1.0 3.4540370662014204e-16 -4.0004538589136126e-16
  outer loop
    vertex 44.955556799755655 4.831727983645473 31.199999999999772
    vertex 44.955556799755655 -0.6724350723887563 28.87765992761069
    vertex 44.955556799755655 3.7224800719689197 23.1500949999997
  endloop
endfacet
facet normal 1.0 3.4540370662014204e-16 -4.0004538589136126e-16
  outer loop
    vertex 44.955556799755655 -2.492868530660601 12.050094999999754
    vertex 44.955556799755655 3.7224800719689197 23.1500949999997
    vertex 44.955556799755655 -2.492868530660605 15.050094999999754
  endloop
endfacet
facet normal 1.0 3.4540370662014204e-16 -4.0004538589136126e-16
  outer loop
    vertex 44.955556799755655 3.7224800719689197 23.1500949999997
    vertex 44.955556799755655 -2.492868530660601 12.050094999999754
    vertex 44.95555679975565 4.831727983645509 12.050094999999754
  endloop
endfacet
facet normal 1.0 3.4540370662014204e-16 -4.0004538589136126e-16
  outer loop
    vertex 44.955556799755655 3.7224800719689197 23.1500949999997
    vertex 44.95555679975565 4.831727983645509 12.050094999999754
    vertex 44.95555679975564 4.831727983645489 15.05009499999968
  endloop
endfacet
facet normal 1.0 3.4540370662014204e-16 -4.0004538589136126e-16
  outer loop
    vertex 44.955556799755655 3.7224800719689197 23.1500949999997
    vertex 44.95555679975564 4.831727983645489 15.05009499999968
    vertex 44.955556799755655 4.831727983645473 31.199999999999772
  endloop
endfacet
facet normal 1.0 3.4540370662014204e-16 -4.0004538589136126e-16
  outer loop
    vertex 44.955556799755655 10.72248007196891 23.1500949999997
    vertex 44.955556799755655 4.831727983645473 31.199999999999772
    vertex 44.95555679975564 4.831727983645489 15.05009499999968
  endloop
endfacet
facet normal 3.0066373447425735e-16 -0.6087614290087192 -0.7933533402912364
  outer loop
    vertex 44.955556799755655 -0.6724350723887563 28.87765992761069
    vertex 1.973976537783528e-14 -2.349999999999805 30.164900770653592
    vertex 1.973976537783528e-14 -0.6724350723887862 28.87765992761069
  endloop
endfacet
facet normal 3.0066373447425735e-16 -0.6087614290087192 -0.7933533402912364
  outer loop
    vertex 1.973976537783528e-14 -2.349999999999805 30.164900770653592
    vertex 44.955556799755655 -0.6724350723887563 28.87765992761069
    vertex 44.955556799755655 -2.3499999999997763 30.164900770653592
  endloop
endfacet
facet normal -5.880738145819791e-17 -1.0 -1.1808609645669334e-14
  outer loop
    vertex 44.955556799755655 -2.492868530660605 15.050094999999754
    vertex 1.127986593019159e-13 -2.4928685306605667 12.050094999999803
    vertex 44.955556799755655 -2.492868530660601 12.050094999999754
  endloop
endfacet
facet normal -5.880738145819791e-17 -1.0 -1.1808609645669334e-14
  outer loop
    vertex 1.127986593019159e-13 -2.4928685306605667 12.050094999999803
    vertex 44.955556799755655 -2.492868530660605 15.050094999999754
    vertex 1.973976537783528e-14 -2.4928685306606337 15.050094999999754
  endloop
endfacet
facet normal -6.001585352236573e-16 0.8087435408846988 -0.58816144473884
  outer loop
    vertex 1.973976537783528e-14 10.722480071968878 23.1500949999997
    vertex 44.95555679975564 4.831727983645489 15.05009499999968
    vertex -2.8199664825478975e-15 4.831727983645458 15.05009499999968
  endloop
endfacet
facet normal -6.001585352236573e-16 0.8087435408846988 -0.58816144473884
  outer loop
    vertex 44.95555679975564 4.831727983645489 15.05009499999968
    vertex 1.973976537783528e-14 10.722480071968878 23.1500949999997
    vertex 44.955556799755655 10.72248007196891 23.1500949999997
  endloop
endfacet
facet normal 4.438011890364875e-16 -0.7933533402912349 -0.608761429008721
  outer loop
    vertex 44.955556799755655 -0.6724350723887563 28.87765992761069
    vertex 1.973976537783528e-14 3.722480071968889 23.1500949999997
    vertex 44.955556799755655 3.7224800719689197 23.1500949999997
  endloop
endfacet
facet normal 4.438011890364875e-16 -0.7933533402912349 -0.608761429008721
  outer loop
    vertex 1.973976537783528e-14 3.722480071968889 23.1500949999997
    vertex 44.955556799755655 -0.6724350723887563 28.87765992761069
    vertex 1.973976537783528e-14 -0.6724350723887862 28.87765992761069
  endloop
endfacet
facet normal -1.0977377872195895e-15 -1.6347446834556386e-32 -1.0
  outer loop
    vertex 44.95555679975565 4.831727983645509 12.050094999999754
    vertex 1.127986593019159e-13 -2.4928685306605667 12.050094999999803
    vertex 1.127986593019159e-13 4.831727983645543 12.050094999999803
  endloop
endfacet
facet normal -1.0977377872195895e-15 -1.6347446834556386e-32 -1.0
  outer loop
    vertex 1.127986593019159e-13 -2.4928685306605667 12.050094999999803
    vertex 44.95555679975565 4.831727983645509 12.050094999999754
    vertex 44.955556799755655 -2.492868530660601 12.050094999999754
  endloop
endfacet
facet normal 5.347831265006378e-06 -0.9999968147466152 -0.0025239786101698774
  outer loop
    vertex 44.955556799755655 -2.3499999999997763 31.232031461575726
    vertex 1.973976537783528e-14 -2.349999999999805 30.164900770653592
    vertex 44.955556799755655 -2.3499999999997763 30.164900770653592
  endloop
endfacet
facet normal 5.347831265006378e-06 -0.9999968147466152 -0.0025239786101698774
  outer loop
    vertex 1.973976537783528e-14 -2.349999999999805 30.164900770653592
    vertex 44.955556799755655 -2.3499999999997763 31.232031461575726
    vertex 39.414848943277036 -2.354991228473353 31.230285668242395
  endloop
endfacet
facet normal 5.347831265006378e-06 -0.9999968147466152 -0.0025239786101698774
  outer loop
    vertex 1.973976537783528e-14 -2.349999999999805 30.164900770653592
    vertex 39.414848943277036 -2.354991228473353 31.230285668242395
    vertex 5.496265381930803 -2.355802112768396 31.23000232596719
  endloop
endfacet
facet normal 5.347831265006378e-06 -0.9999968147466152 -0.0025239786101698774
  outer loop
    vertex 1.973976537783528e-14 -2.349999999999805 31.232031461575726
    vertex 1.973976537783528e-14 -2.349999999999805 30.164900770653592
    vertex 5.496265381930803 -2.355802112768396 31.23000232596719
  endloop
endfacet
facet normal -2.7606615028662787e-05 0.9871639026928989 0.15971045193724714
  outer loop
    vertex 5.496264656235429 -2.3510403805733864 31.199999999999818
    vertex 39.414848943277036 -2.354991228473353 31.230285668242395
    vertex 39.414848943277036 -2.349999999999776 31.199999999999772
  endloop
endfacet
facet normal -2.7606615028662787e-05 0.9871639026928989 0.15971045193724714
  outer loop
    vertex 39.414848943277036 -2.354991228473353 31.230285668242395
    vertex 5.496264656235429 -2.3510403805733864 31.199999999999818
    vertex 5.496265381930803 -2.355802112768396 31.23000232596719
  endloop
endfacet
facet normal -2.4946981294468875e-05 0.9866901837916339 0.16261144051658916
  outer loop
    vertex 39.414848943277036 -2.354991228473353 31.230285668242395
    vertex 39.414848943277036 -2.349999999999776 31.199999999999772
    vertex 5.496265381930803 -2.355802112768396 31.23000232596719
  endloop
endfacet
facet normal -3.0293708043490164e-05 0.9876382890170553 0.156750148802976
  outer loop
    vertex 5.496265381930803 -2.355802112768396 31.23000232596719
    vertex 39.414848943277036 -2.349999999999776 31.199999999999772
    vertex 5.496264656235429 -2.3510403805733864 31.199999999999818
  endloop
endfacet
facet normal -2.707131034223771e-15 1.8552540257798673e-16 -1.0
  outer loop
    vertex 5.496264656235429 -2.3510403805733864 31.199999999999818
    vertex 10.49626465623537 -38.249999999999865 31.199999999999893
    vertex 5.496264656235419 -33.24999999999986 31.199999999999807
  endloop
endfacet
facet normal -2.707131034223771e-15 1.8552540257798673e-16 -1.0
  outer loop
    vertex 10.49626465623537 -38.249999999999865 31.199999999999893
    vertex 5.496264656235429 -2.3510403805733864 31.199999999999818
    vertex 11.386650864982379 -22.49999999999978 31.199999999999807
  endloop
endfacet
facet normal -2.707131034223771e-15 1.8552540257798673e-16 -1.0
  outer loop
    vertex 11.386650864982379 -22.49999999999978 31.199999999999807
    vertex 5.496264656235429 -2.3510403805733864 31.199999999999818
    vertex 11.763814688593369 -19.63515633563192 31.199999999999815
  endloop
endfacet
facet normal -2.707131034223771e-15 1.8552540257798673e-16 -1.0
  outer loop
    vertex 11.763814688593369 -19.63515633563192 31.199999999999815
    vertex 5.496264656235429 -2.3510403805733864 31.199999999999818
    vertex 12.578315937721646 -17.668776373415852 31.199999999999896
  endloop
endfacet
facet normal -2.707131034223771e-15 1.8552540257798673e-16 -1.0
  outer loop
    vertex 12.578315937721646 -17.668776373415852 31.199999999999896
    vertex 5.496264656235429 -2.3510403805733864 31.199999999999818
    vertex 12.869603068141322 -16.96554703261272 31.199999999999836
  endloop
endfacet
facet normal -2.707131034223771e-15 1.8552540257798673e-16 -1.0
  outer loop
    vertex 12.869603068141322 -16.96554703261272 31.199999999999836
    vertex 5.496264656235429 -2.3510403805733864 31.199999999999818
    vertex 14.62865835296126 -14.673101553204976 31.199999999999836
  endloop
endfacet
facet normal -2.707131034223771e-15 1.8552540257798673e-16 -1.0
  outer loop
    vertex 14.62865835296126 -14.673101553204976 31.199999999999836
    vertex 5.496264656235429 -2.3510403805733864 31.199999999999818
    vertex 16.921103832369013 -12.914046268385052 31.199999999999836
  endloop
endfacet
facet normal -2.707131034223771e-15 1.8552540257798673e-16 -1.0
  outer loop
    vertex 16.921103832369013 -12.914046268385052 31.199999999999836
    vertex 5.496264656235429 -2.3510403805733864 31.199999999999818
    vertex 39.414848943277036 -2.349999999999776 31.199999999999772
  endloop
endfacet
facet normal -2.707131034223771e-15 1.8552540257798673e-16 -1.0
  outer loop
    vertex 16.921103832369013 -12.914046268385052 31.199999999999836
    vertex 39.414848943277036 -2.349999999999776 31.199999999999772
    vertex 19.590713135388228 -11.808257888837119 31.199999999999836
  endloop
endfacet
facet normal -2.707131034223771e-15 1.8552540257798673e-16 -1.0
  outer loop
    vertex 19.590713135388228 -11.808257888837119 31.199999999999836
    vertex 39.414848943277036 -2.349999999999776 31.199999999999772
    vertex 22.455556799756096 -11.431094065225674 31.19999999999983
  endloop
endfacet
facet normal -2.707131034223771e-15 1.8552540257798673e-16 -1.0
  outer loop
    vertex 22.455556799756096 -11.431094065225674 31.19999999999983
    vertex 39.414848943277036 -2.349999999999776 31.199999999999772
    vertex 25.32040046412397 -11.808257888837142 31.199999999999825
  endloop
endfacet
facet normal -2.707131034223771e-15 1.8552540257798673e-16 -1.0
  outer loop
    vertex 25.32040046412397 -11.808257888837142 31.199999999999825
    vertex 39.414848943277036 -2.349999999999776 31.199999999999772
    vertex 27.990009767143178 -12.914046268385095 31.199999999999818
  endloop
endfacet
facet normal -2.707131034223771e-15 1.8552540257798673e-16 -1.0
  outer loop
    vertex 27.990009767143178 -12.914046268385095 31.199999999999818
    vertex 39.414848943277036 -2.349999999999776 31.199999999999772
    vertex 30.282455246550914 -14.673101553205031 31.199999999999815
  endloop
endfacet
facet normal -2.707131034223771e-15 1.8552540257798673e-16 -1.0
  outer loop
    vertex 30.282455246550914 -14.673101553205031 31.199999999999815
    vertex 39.414848943277036 -2.349999999999776 31.199999999999772
    vertex 32.04151053137084 -16.96554703261279 31.199999999999807
  endloop
endfacet
facet normal -2.707131034223771e-15 1.8552540257798673e-16 -1.0
  outer loop
    vertex 32.04151053137084 -16.96554703261279 31.199999999999807
    vertex 39.414848943277036 -2.349999999999776 31.199999999999772
    vertex 32.33279766179032 -17.668776373416023 31.199999999999815
  endloop
endfacet
facet normal -2.707131034223771e-15 1.8552540257798673e-16 -1.0
  outer loop
    vertex 32.33279766179032 -17.668776373416023 31.199999999999815
    vertex 39.414848943277036 -2.349999999999776 31.199999999999772
    vertex 33.14729891091878 -19.635156335631997 31.199999999999815
  endloop
endfacet
facet normal -2.707131034223771e-15 1.8552540257798673e-16 -1.0
  outer loop
    vertex 33.14729891091878 -19.635156335631997 31.199999999999815
    vertex 39.414848943277036 -2.349999999999776 31.199999999999772
    vertex 33.52446273453011 -22.499999999999908 31.199999999999807
  endloop
endfacet
facet normal -2.707131034223771e-15 1.8552540257798673e-16 -1.0
  outer loop
    vertex 33.52446273453011 -22.499999999999908 31.199999999999807
    vertex 39.414848943277036 -2.349999999999776 31.199999999999772
    vertex 34.41484894327725 -38.568905934773944 31.199999999999694
  endloop
endfacet
facet normal -2.707131034223771e-15 1.8552540257798673e-16 -1.0
  outer loop
    vertex 34.41484894327725 -38.568905934773944 31.199999999999694
    vertex 39.414848943277036 -2.349999999999776 31.199999999999772
    vertex 39.41484894327715 -33.749999999999865 31.19999999999976
  endloop
endfacet
facet normal -2.707131034223771e-15 1.8552540257798673e-16 -1.0
  outer loop
    vertex 10.49626465623537 -38.249999999999865 31.199999999999893
    vertex 19.590713135388146 -33.191742111162576 31.19999999999975
    vertex 34.41484894327725 -38.568905934773944 31.199999999999694
  endloop
endfacet
facet normal -2.707131034223771e-15 1.8552540257798673e-16 -1.0
  outer loop
    vertex 19.590713135388146 -33.191742111162576 31.19999999999975
    vertex 10.49626465623537 -38.249999999999865 31.199999999999893
    vertex 16.921103832368935 -32.08595373161467 31.19999999999975
  endloop
endfacet
facet normal -2.707131034223771e-15 1.8552540257798673e-16 -1.0
  outer loop
    vertex 16.921103832368935 -32.08595373161467 31.19999999999975
    vertex 10.49626465623537 -38.249999999999865 31.199999999999893
    vertex 14.628658352961171 -30.32689844679477 31.19999999999975
  endloop
endfacet
facet normal -2.707131034223771e-15 1.8552540257798673e-16 -1.0
  outer loop
    vertex 14.628658352961171 -30.32689844679477 31.19999999999975
    vertex 10.49626465623537 -38.249999999999865 31.199999999999893
    vertex 12.869603068141211 -28.034452967387043 31.19999999999975
  endloop
endfacet
facet normal -2.707131034223771e-15 1.8552540257798673e-16 -1.0
  outer loop
    vertex 12.869603068141211 -28.034452967387043 31.19999999999975
    vertex 10.49626465623537 -38.249999999999865 31.199999999999893
    vertex 11.763814688593833 -25.364843664367616 31.199999999999807
  endloop
endfacet
facet normal -2.707131034223771e-15 1.8552540257798673e-16 -1.0
  outer loop
    vertex 11.763814688593833 -25.364843664367616 31.199999999999807
    vertex 10.49626465623537 -38.249999999999865 31.199999999999893
    vertex 11.386650864982379 -22.49999999999978 31.199999999999807
  endloop
endfacet
facet normal -2.707131034223771e-15 1.8552540257798673e-16 -1.0
  outer loop
    vertex 34.41484894327725 -38.568905934773944 31.199999999999694
    vertex 19.590713135388146 -33.191742111162576 31.19999999999975
    vertex 22.455556799756025 -33.568905934773994 31.19999999999975
  endloop
endfacet
facet normal -2.707131034223771e-15 1.8552540257798673e-16 -1.0
  outer loop
    vertex 34.41484894327725 -38.568905934773944 31.199999999999694
    vertex 22.455556799756025 -33.568905934773994 31.19999999999975
    vertex 25.320400464123928 -33.1917421111625 31.199999999999807
  endloop
endfacet
facet normal -2.707131034223771e-15 1.8552540257798673e-16 -1.0
  outer loop
    vertex 34.41484894327725 -38.568905934773944 31.199999999999694
    vertex 25.320400464123928 -33.1917421111625 31.199999999999807
    vertex 27.990009767143103 -32.085953731614566 31.199999999999807
  endloop
endfacet
facet normal -2.707131034223771e-15 1.8552540257798673e-16 -1.0
  outer loop
    vertex 34.41484894327725 -38.568905934773944 31.199999999999694
    vertex 27.990009767143103 -32.085953731614566 31.199999999999807
    vertex 30.28245524655083 -30.326898446794655 31.199999999999807
  endloop
endfacet
facet normal -2.707131034223771e-15 1.8552540257798673e-16 -1.0
  outer loop
    vertex 34.41484894327725 -38.568905934773944 31.199999999999694
    vertex 30.28245524655083 -30.326898446794655 31.199999999999807
    vertex 32.04151053137074 -28.034452967386933 31.199999999999807
  endloop
endfacet
facet normal -2.707131034223771e-15 1.8552540257798673e-16 -1.0
  outer loop
    vertex 34.41484894327725 -38.568905934773944 31.199999999999694
    vertex 32.04151053137074 -28.034452967386933 31.199999999999807
    vertex 33.147298910918664 -25.36484366436775 31.199999999999807
  endloop
endfacet
facet normal -2.707131034223771e-15 1.8552540257798673e-16 -1.0
  outer loop
    vertex 34.41484894327725 -38.568905934773944 31.199999999999694
    vertex 33.147298910918664 -25.36484366436775 31.199999999999807
    vertex 33.52446273453011 -22.499999999999908 31.199999999999807
  endloop
endfacet
facet normal -0.013331792092995377 -0.9999111277106528 -3.3759247746864496e-15
  outer loop
    vertex 34.41484894327717 -38.56890593477411 49.99999999999955
    vertex 10.49626465623537 -38.249999999999865 31.199999999999893
    vertex 34.41484894327725 -38.568905934773944 31.199999999999694
  endloop
endfacet
facet normal -0.013331792092995377 -0.9999111277106528 -3.3759247746864496e-15
  outer loop
    vertex 10.49626465623537 -38.249999999999865 31.199999999999893
    vertex 34.41484894327717 -38.56890593477411 49.99999999999955
    vertex 10.496264656235075 -38.24999999999985 49.99999999999961
  endloop
endfacet
endsolid XY-Узел-Одинарный-Ответ-2
