solid Дополнение для ремня-Подшип 22-8мм-Прямой
facet normal -1.0 0.0 0.0
  outer loop
    vertex -2.255973186038318e-14 -15.156854249492422 7.343145750507593
    vertex -2.255973186038318e-14 -15.846826722329892 8.12990856793021
    vertex -2.255973186038318e-14 -16.428203230275518 8.999999999999972
  endloop
endfacet
facet normal -1.0 0.0 0.0
  outer loop
    vertex -2.255973186038318e-14 -17.227406610312535 15.070552360820136
    vertex -2.255973186038318e-14 -17.49999999999999 12.999999999999964
    vertex -2.255973186038318e-14 -17.431558890990487 14.044209537760386
  endloop
endfacet
facet normal -1.0 0.0 0.0
  outer loop
    vertex -2.255973186038318e-14 -16.428203230275518 8.999999999999972
    vertex -2.255973186038318e-14 -16.89103626009028 9.93853254107925
    vertex -2.255973186038318e-14 -17.227406610312535 10.929447639179806
  endloop
endfacet
facet normal -1.0 0.0 0.0
  outer loop
    vertex -2.255973186038318e-14 -2.5717967697244917 8.999999999999984
    vertex -2.255973186038318e-14 -3.153173277670163 8.12990856793022
    vertex -2.255973186038318e-14 -3.843145750507656 7.343145750507604
  endloop
endfacet
facet normal -1.0 0.0 0.0
  outer loop
    vertex -2.255973186038318e-14 -9.500000000000005 20.99999999999997
    vertex -2.255973186038318e-14 -11.570552360820187 20.727406610312517
    vertex -2.255973186038318e-14 -10.544209537760437 20.93155889099046
  endloop
endfacet
facet normal -1.0 0.0 0.0
  outer loop
    vertex -2.255973186038318e-14 -1.772593389687474 10.929447639179816
    vertex -2.255973186038318e-14 -2.1089637399097074 9.938532541079272
    vertex -2.255973186038318e-14 -2.5717967697244917 8.999999999999984
  endloop
endfacet
facet normal -1.0 -5.23014278597464e-13 4.01322971066178e-13
  outer loop
    vertex -2.255973186038318e-14 -15.1568542494924 18.656854249492348
    vertex -2.255973186038318e-14 -16.428203230275518 16.999999999999968
    vertex 2.255973186038318e-14 -15.846826722329892 17.87009143206973
  endloop
endfacet
facet normal -1.0 0.0 0.0
  outer loop
    vertex -2.255973186038318e-14 -1.5000000000000198 12.999999999999988
    vertex -2.255973186038318e-14 -1.772593389687474 15.070552360820146
    vertex -2.255973186038318e-14 -1.5684411090095232 14.044209537760398
  endloop
endfacet
facet normal -1.0 8.604874876682133e-14 -6.536051373404407e-13
  outer loop
    vertex -2.255973186038318e-14 -7.429447639179823 5.272593389687434
    vertex 2.255973186038318e-14 -8.455790462239618 5.068441109009494
    vertex -2.255973186038318e-14 -9.500000000000005 4.99999999999998
  endloop
endfacet
facet normal -1.0 0.0 0.0
  outer loop
    vertex -2.255973186038318e-14 -11.570552360820187 5.272593389687422
    vertex -2.255973186038318e-14 -12.561467458920733 5.608963739909679
    vertex -2.255973186038318e-14 -13.500000000000043 6.071796769724463
  endloop
endfacet
facet normal -1.0 0.0 0.0
  outer loop
    vertex -2.255973186038318e-14 -1.772593389687474 15.070552360820146
    vertex -2.255973186038318e-14 -2.5717967697244917 16.99999999999998
    vertex -2.255973186038318e-14 -2.108963739909685 16.061467458920703
  endloop
endfacet
facet normal -1.0 0.0 0.0
  outer loop
    vertex -2.255973186038318e-14 -9.500000000000005 4.99999999999998
    vertex -2.255973186038318e-14 -10.544209537760437 5.068441109009494
    vertex -2.255973186038318e-14 -11.570552360820187 5.272593389687422
  endloop
endfacet
facet normal -1.0 0.0 0.0
  outer loop
    vertex -2.255973186038318e-14 -3.843145750507656 7.343145750507604
    vertex -2.255973186038318e-14 -4.62990856793025 6.6531732776701
    vertex -2.255973186038318e-14 -5.500000000000012 6.071796769724474
  endloop
endfacet
facet normal -1.0 0.0 0.0
  outer loop
    vertex -2.255973186038318e-14 -16.428203230275518 16.999999999999968
    vertex -2.255973186038318e-14 -17.227406610312535 15.070552360820136
    vertex -2.255973186038318e-14 -16.89103626009028 16.061467458920692
  endloop
endfacet
facet normal -1.0 1.4610113308023657e-13 2.96263790290061e-13
  outer loop
    vertex 2.255973186038318e-14 -5.500000000000012 19.92820323027549
    vertex -2.255973186038318e-14 -7.429447639179868 20.727406610312517
    vertex 2.255973186038318e-14 -6.438532541079323 20.391036260090274
  endloop
endfacet
facet normal -1.0 5.23014278597564e-13 4.0132297106626904e-13
  outer loop
    vertex -2.255973186038318e-14 -2.5717967697244917 16.99999999999998
    vertex -2.255973186038318e-14 -3.843145750507656 18.65685424949236
    vertex 2.255973186038318e-14 -3.153173277670163 17.870091432069742
  endloop
endfacet
facet normal -1.0 8.604874876681972e-14 6.53605137340414e-13
  outer loop
    vertex -2.255973186038318e-14 -7.429447639179868 20.727406610312517
    vertex -2.255973186038318e-14 -9.500000000000005 20.99999999999997
    vertex 2.255973186038318e-14 -8.455790462239618 20.93155889099046
  endloop
endfacet
facet normal -1.0 1.8352140207250707e-13 2.746591879141639e-13
  outer loop
    vertex -2.255973186038318e-14 -3.843145750507656 18.65685424949236
    vertex 2.255973186038318e-14 -5.500000000000012 19.92820323027549
    vertex 2.255973186038318e-14 -4.62990856793025 19.346826722329862
  endloop
endfacet
facet normal -1.0 0.0 0.0
  outer loop
    vertex -2.255973186038318e-14 -5.500000000000012 6.071796769724474
    vertex -2.255973186038318e-14 -6.438532541079323 5.60896373990969
    vertex -2.255973186038318e-14 -7.429447639179823 5.272593389687434
  endloop
endfacet
facet normal -1.0 0.0 0.0
  outer loop
    vertex -2.255973186038318e-14 -1.5000000000000198 12.999999999999988
    vertex -2.255973186038318e-14 -1.5684411090095232 11.955790462239566
    vertex -2.255973186038318e-14 -1.772593389687474 10.929447639179816
  endloop
endfacet
facet normal -1.0 0.0 0.0
  outer loop
    vertex -2.255973186038318e-14 -17.227406610312535 10.929447639179806
    vertex -2.255973186038318e-14 -17.431558890990487 11.955790462239555
    vertex -2.255973186038318e-14 -17.49999999999999 12.999999999999964
  endloop
endfacet
facet normal -1.0 0.0 0.0
  outer loop
    vertex -2.255973186038318e-14 -13.500000000000043 6.071796769724463
    vertex -2.255973186038318e-14 -14.370091432069806 6.6531732776700885
    vertex -2.255973186038318e-14 -15.156854249492422 7.343145750507593
  endloop
endfacet
facet normal -1.0 2.349972068789912e-16 4.070271019511878e-16
  outer loop
    vertex -4.000000000000015 -17.227406610312535 15.070552360820136
    vertex -4.000000000000015 -17.227406610312535 10.929447639179806
    vertex -4.000000000000015 -17.49999999999999 12.999999999999964
  endloop
endfacet
facet normal -1.0 2.349972068789912e-16 4.070271019511878e-16
  outer loop
    vertex -4.000000000000015 -17.227406610312535 10.929447639179806
    vertex -4.000000000000015 -17.227406610312535 15.070552360820136
    vertex -4.000000000000015 -16.428203230275518 16.999999999999968
  endloop
endfacet
facet normal -1.0 2.349972068789912e-16 4.070271019511878e-16
  outer loop
    vertex -4.000000000000015 -17.227406610312535 10.929447639179806
    vertex -4.000000000000015 -16.428203230275518 16.999999999999968
    vertex -4.000000000000015 -16.428203230275518 8.999999999999972
  endloop
endfacet
facet normal -1.0 2.349972068789912e-16 4.070271019511878e-16
  outer loop
    vertex -4.000000000000015 -16.428203230275518 8.999999999999972
    vertex -4.000000000000015 -16.428203230275518 16.999999999999968
    vertex -4.000000000000015 -15.1568542494924 18.656854249492348
  endloop
endfacet
facet normal -1.0 2.349972068789912e-16 4.070271019511878e-16
  outer loop
    vertex -4.000000000000015 -16.428203230275518 8.999999999999972
    vertex -4.000000000000015 -15.1568542494924 18.656854249492348
    vertex -4.000000000000015 -15.156854249492422 7.343145750507593
  endloop
endfacet
facet normal -1.0 2.349972068789912e-16 4.070271019511878e-16
  outer loop
    vertex -4.000000000000015 -15.156854249492422 7.343145750507593
    vertex -4.000000000000015 -15.1568542494924 18.656854249492348
    vertex -4.000000000000015 -13.500000000000043 6.071796769724463
  endloop
endfacet
facet normal -1.0 2.349972068789912e-16 4.070271019511878e-16
  outer loop
    vertex -4.000000000000015 -13.500000000000043 6.071796769724463
    vertex -4.000000000000015 -15.1568542494924 18.656854249492348
    vertex -4.000000000000015 -13.499999999999998 19.92820323027549
  endloop
endfacet
facet normal -1.0 2.349972068789912e-16 4.070271019511878e-16
  outer loop
    vertex -4.000000000000015 -13.500000000000043 6.071796769724463
    vertex -4.000000000000015 -13.499999999999998 19.92820323027549
    vertex -4.000000000000015 -11.570552360820187 5.272593389687422
  endloop
endfacet
facet normal -1.0 2.349972068789912e-16 4.070271019511878e-16
  outer loop
    vertex -4.000000000000015 -11.570552360820187 5.272593389687422
    vertex -4.000000000000015 -13.499999999999998 19.92820323027549
    vertex -4.000000000000015 -11.570552360820187 20.727406610312517
  endloop
endfacet
facet normal -1.0 2.349972068789912e-16 4.070271019511878e-16
  outer loop
    vertex -4.000000000000015 -11.570552360820187 5.272593389687422
    vertex -4.000000000000015 -11.570552360820187 20.727406610312517
    vertex -4.000000000000015 -9.500000000000005 20.99999999999997
  endloop
endfacet
facet normal -1.0 2.349972068789912e-16 4.070271019511878e-16
  outer loop
    vertex -4.000000000000015 -11.570552360820187 5.272593389687422
    vertex -4.000000000000015 -9.500000000000005 20.99999999999997
    vertex -4.000000000000015 -9.500000000000005 4.99999999999998
  endloop
endfacet
facet normal -1.0 2.349972068789912e-16 4.070271019511878e-16
  outer loop
    vertex -4.000000000000015 -9.500000000000005 4.99999999999998
    vertex -4.000000000000015 -9.500000000000005 20.99999999999997
    vertex -4.000000000000015 -7.429447639179846 20.727406610312517
  endloop
endfacet
facet normal -1.0 2.349972068789912e-16 4.070271019511878e-16
  outer loop
    vertex -4.000000000000015 -9.500000000000005 4.99999999999998
    vertex -4.000000000000015 -7.429447639179846 20.727406610312517
    vertex -4.000000000000015 -7.429447639179823 5.272593389687434
  endloop
endfacet
facet normal -1.0 2.349972068789912e-16 4.070271019511878e-16
  outer loop
    vertex -4.000000000000015 -7.429447639179823 5.272593389687434
    vertex -4.000000000000015 -7.429447639179846 20.727406610312517
    vertex -3.9999999999999702 -5.500000000000012 19.92820323027549
  endloop
endfacet
facet normal -1.0 2.349972068789912e-16 4.070271019511878e-16
  outer loop
    vertex -4.000000000000015 -7.429447639179823 5.272593389687434
    vertex -3.9999999999999702 -5.500000000000012 19.92820323027549
    vertex -4.000000000000015 -5.500000000000012 6.071796769724474
  endloop
endfacet
facet normal -1.0 2.349972068789912e-16 4.070271019511878e-16
  outer loop
    vertex -4.000000000000015 -5.500000000000012 6.071796769724474
    vertex -3.9999999999999702 -5.500000000000012 19.92820323027549
    vertex -4.000000000000015 -3.843145750507656 18.65685424949236
  endloop
endfacet
facet normal -1.0 2.349972068789912e-16 4.070271019511878e-16
  outer loop
    vertex -4.000000000000015 -5.500000000000012 6.071796769724474
    vertex -4.000000000000015 -3.843145750507656 18.65685424949236
    vertex -4.000000000000015 -3.843145750507656 7.343145750507604
  endloop
endfacet
facet normal -1.0 2.349972068789912e-16 4.070271019511878e-16
  outer loop
    vertex -4.000000000000015 -3.843145750507656 7.343145750507604
    vertex -4.000000000000015 -3.843145750507656 18.65685424949236
    vertex -4.000000000000015 -2.5717967697244917 16.99999999999998
  endloop
endfacet
facet normal -1.0 2.349972068789912e-16 4.070271019511878e-16
  outer loop
    vertex -4.000000000000015 -3.843145750507656 7.343145750507604
    vertex -4.000000000000015 -2.5717967697244917 16.99999999999998
    vertex -4.000000000000015 -2.5717967697244917 8.999999999999984
  endloop
endfacet
facet normal -1.0 2.349972068789912e-16 4.070271019511878e-16
  outer loop
    vertex -4.000000000000015 -2.5717967697244917 8.999999999999984
    vertex -4.000000000000015 -2.5717967697244917 16.99999999999998
    vertex -4.000000000000015 -1.772593389687474 15.070552360820146
  endloop
endfacet
facet normal -1.0 2.349972068789912e-16 4.070271019511878e-16
  outer loop
    vertex -4.000000000000015 -2.5717967697244917 8.999999999999984
    vertex -4.000000000000015 -1.772593389687474 15.070552360820146
    vertex -4.000000000000015 -1.772593389687474 10.929447639179816
  endloop
endfacet
facet normal -1.0 2.349972068789912e-16 4.070271019511878e-16
  outer loop
    vertex -4.000000000000015 -1.772593389687474 10.929447639179816
    vertex -4.000000000000015 -1.772593389687474 15.070552360820146
    vertex -4.000000000000015 -1.5000000000000198 12.999999999999988
  endloop
endfacet
facet normal 0.0 -0.7933533402912426 -0.6087614290087112
  outer loop
    vertex -2.255973186038318e-14 -16.428203230275518 8.999999999999972
    vertex -4.000000000000015 -15.156854249492422 7.343145750507593
    vertex -2.255973186038318e-14 -15.156854249492422 7.343145750507593
  endloop
endfacet
facet normal 0.0 -0.7933533402912426 -0.6087614290087112
  outer loop
    vertex -4.000000000000015 -15.156854249492422 7.343145750507593
    vertex -2.255973186038318e-14 -16.428203230275518 8.999999999999972
    vertex -4.000000000000015 -16.428203230275518 8.999999999999972
  endloop
endfacet
facet normal 0.0 -0.6087614290087214 -0.7933533402912347
  outer loop
    vertex -2.255973186038318e-14 -13.500000000000043 6.071796769724463
    vertex -4.000000000000015 -15.156854249492422 7.343145750507593
    vertex -4.000000000000015 -13.500000000000043 6.071796769724463
  endloop
endfacet
facet normal 0.0 -0.6087614290087214 -0.7933533402912347
  outer loop
    vertex -4.000000000000015 -15.156854249492422 7.343145750507593
    vertex -2.255973186038318e-14 -13.500000000000043 6.071796769724463
    vertex -2.255973186038318e-14 -15.156854249492422 7.343145750507593
  endloop
endfacet
facet normal 0.0 -0.3826834323650875 -0.9238795325112878
  outer loop
    vertex -2.255973186038318e-14 -11.570552360820187 5.272593389687422
    vertex -4.000000000000015 -13.500000000000043 6.071796769724463
    vertex -4.000000000000015 -11.570552360820187 5.272593389687422
  endloop
endfacet
facet normal 0.0 -0.3826834323650875 -0.9238795325112878
  outer loop
    vertex -4.000000000000015 -13.500000000000043 6.071796769724463
    vertex -2.255973186038318e-14 -11.570552360820187 5.272593389687422
    vertex -2.255973186038318e-14 -13.500000000000043 6.071796769724463
  endloop
endfacet
facet normal 0.0 -0.13052619222004547 -0.9914448613738114
  outer loop
    vertex -2.255973186038318e-14 -9.500000000000005 4.99999999999998
    vertex -4.000000000000015 -11.570552360820187 5.272593389687422
    vertex -4.000000000000015 -9.500000000000005 4.99999999999998
  endloop
endfacet
facet normal 0.0 -0.13052619222004547 -0.9914448613738114
  outer loop
    vertex -4.000000000000015 -11.570552360820187 5.272593389687422
    vertex -2.255973186038318e-14 -9.500000000000005 4.99999999999998
    vertex -2.255973186038318e-14 -11.570552360820187 5.272593389687422
  endloop
endfacet
facet normal 0.0 0.13052619222005077 -0.9914448613738105
  outer loop
    vertex -2.255973186038318e-14 -7.429447639179823 5.272593389687434
    vertex -4.000000000000015 -9.500000000000005 4.99999999999998
    vertex -4.000000000000015 -7.429447639179823 5.272593389687434
  endloop
endfacet
facet normal 0.0 0.13052619222005077 -0.9914448613738105
  outer loop
    vertex -4.000000000000015 -9.500000000000005 4.99999999999998
    vertex -2.255973186038318e-14 -7.429447639179823 5.272593389687434
    vertex -2.255973186038318e-14 -9.500000000000005 4.99999999999998
  endloop
endfacet
facet normal 0.0 0.38268343236509506 -0.9238795325112846
  outer loop
    vertex -2.255973186038318e-14 -5.500000000000012 6.071796769724474
    vertex -4.000000000000015 -7.429447639179823 5.272593389687434
    vertex -4.000000000000015 -5.500000000000012 6.071796769724474
  endloop
endfacet
facet normal 0.0 0.38268343236509506 -0.9238795325112846
  outer loop
    vertex -4.000000000000015 -7.429447639179823 5.272593389687434
    vertex -2.255973186038318e-14 -5.500000000000012 6.071796769724474
    vertex -2.255973186038318e-14 -7.429447639179823 5.272593389687434
  endloop
endfacet
facet normal 0.0 0.6087614290087265 -0.7933533402912308
  outer loop
    vertex -2.255973186038318e-14 -3.843145750507656 7.343145750507604
    vertex -4.000000000000015 -5.500000000000012 6.071796769724474
    vertex -4.000000000000015 -3.843145750507656 7.343145750507604
  endloop
endfacet
facet normal 0.0 0.6087614290087265 -0.7933533402912308
  outer loop
    vertex -4.000000000000015 -5.500000000000012 6.071796769724474
    vertex -2.255973186038318e-14 -3.843145750507656 7.343145750507604
    vertex -2.255973186038318e-14 -5.500000000000012 6.071796769724474
  endloop
endfacet
facet normal -0.0 0.7933533402912271 -0.6087614290087315
  outer loop
    vertex -4.000000000000015 -2.5717967697244917 8.999999999999984
    vertex -2.255973186038318e-14 -3.843145750507656 7.343145750507604
    vertex -4.000000000000015 -3.843145750507656 7.343145750507604
  endloop
endfacet
facet normal -0.0 0.7933533402912271 -0.6087614290087315
  outer loop
    vertex -2.255973186038318e-14 -3.843145750507656 7.343145750507604
    vertex -4.000000000000015 -2.5717967697244917 8.999999999999984
    vertex -2.255973186038318e-14 -2.5717967697244917 8.999999999999984
  endloop
endfacet
facet normal -0.0 0.92387953251129 -0.3826834323650821
  outer loop
    vertex -4.000000000000015 -1.772593389687474 10.929447639179816
    vertex -2.255973186038318e-14 -2.5717967697244917 8.999999999999984
    vertex -4.000000000000015 -2.5717967697244917 8.999999999999984
  endloop
endfacet
facet normal -0.0 0.92387953251129 -0.3826834323650821
  outer loop
    vertex -2.255973186038318e-14 -2.5717967697244917 8.999999999999984
    vertex -4.000000000000015 -1.772593389687474 10.929447639179816
    vertex -2.255973186038318e-14 -1.772593389687474 10.929447639179816
  endloop
endfacet
facet normal -0.0 0.9914448613738105 -0.13052619222005146
  outer loop
    vertex -4.000000000000015 -1.5000000000000198 12.999999999999988
    vertex -2.255973186038318e-14 -1.772593389687474 10.929447639179816
    vertex -4.000000000000015 -1.772593389687474 10.929447639179816
  endloop
endfacet
facet normal -0.0 0.9914448613738105 -0.13052619222005146
  outer loop
    vertex -2.255973186038318e-14 -1.772593389687474 10.929447639179816
    vertex -4.000000000000015 -1.5000000000000198 12.999999999999988
    vertex -2.255973186038318e-14 -1.5000000000000198 12.999999999999988
  endloop
endfacet
facet normal -0.0 0.9914448613738105 0.13052619222005216
  outer loop
    vertex -4.000000000000015 -1.772593389687474 15.070552360820146
    vertex -2.255973186038318e-14 -1.5000000000000198 12.999999999999988
    vertex -4.000000000000015 -1.5000000000000198 12.999999999999988
  endloop
endfacet
facet normal -0.0 0.9914448613738105 0.13052619222005216
  outer loop
    vertex -2.255973186038318e-14 -1.5000000000000198 12.999999999999988
    vertex -4.000000000000015 -1.772593389687474 15.070552360820146
    vertex -2.255973186038318e-14 -1.772593389687474 15.070552360820146
  endloop
endfacet
facet normal -0.0 0.92387953251129 0.3826834323650821
  outer loop
    vertex -4.000000000000015 -2.5717967697244917 16.99999999999998
    vertex -2.255973186038318e-14 -1.772593389687474 15.070552360820146
    vertex -4.000000000000015 -1.772593389687474 15.070552360820146
  endloop
endfacet
facet normal -0.0 0.92387953251129 0.3826834323650821
  outer loop
    vertex -2.255973186038318e-14 -1.772593389687474 15.070552360820146
    vertex -4.000000000000015 -2.5717967697244917 16.99999999999998
    vertex -2.255973186038318e-14 -2.5717967697244917 16.99999999999998
  endloop
endfacet
facet normal -0.0 0.7933533402912271 0.6087614290087315
  outer loop
    vertex -4.000000000000015 -3.843145750507656 18.65685424949236
    vertex -2.255973186038318e-14 -2.5717967697244917 16.99999999999998
    vertex -4.000000000000015 -2.5717967697244917 16.99999999999998
  endloop
endfacet
facet normal -0.0 0.7933533402912271 0.6087614290087315
  outer loop
    vertex -2.255973186038318e-14 -2.5717967697244917 16.99999999999998
    vertex -4.000000000000015 -3.843145750507656 18.65685424949236
    vertex -2.255973186038318e-14 -3.843145750507656 18.65685424949236
  endloop
endfacet
facet normal -4.944041651432124e-18 0.6087614290087265 0.7933533402912308
  outer loop
    vertex -3.9999999999999702 -5.500000000000012 19.92820323027549
    vertex -2.255973186038318e-14 -3.843145750507656 18.65685424949236
    vertex -4.000000000000015 -3.843145750507656 18.65685424949236
  endloop
endfacet
facet normal -4.944041651432124e-18 0.6087614290087265 0.7933533402912308
  outer loop
    vertex -2.255973186038318e-14 -3.843145750507656 18.65685424949236
    vertex -3.9999999999999702 -5.500000000000012 19.92820323027549
    vertex 2.255973186038318e-14 -5.500000000000012 19.92820323027549
  endloop
endfacet
facet normal 1.0803169039803146e-15 0.3826834323650848 0.9238795325112888
  outer loop
    vertex -2.255973186038318e-14 -7.429447639179868 20.727406610312517
    vertex -3.9999999999999702 -5.500000000000012 19.92820323027549
    vertex -4.000000000000015 -7.429447639179846 20.727406610312517
  endloop
endfacet
facet normal 1.0803169039803146e-15 0.3826834323650848 0.9238795325112888
  outer loop
    vertex -3.9999999999999702 -5.500000000000012 19.92820323027549
    vertex -2.255973186038318e-14 -7.429447639179868 20.727406610312517
    vertex 2.255973186038318e-14 -5.500000000000012 19.92820323027549
  endloop
endfacet
facet normal 3.674863903252659e-16 0.13052619222005288 0.9914448613738103
  outer loop
    vertex -2.255973186038318e-14 -9.500000000000005 20.99999999999997
    vertex -4.000000000000015 -7.429447639179846 20.727406610312517
    vertex -4.000000000000015 -9.500000000000005 20.99999999999997
  endloop
endfacet
facet normal 3.674863903252659e-16 0.13052619222005288 0.9914448613738103
  outer loop
    vertex -4.000000000000015 -7.429447639179846 20.727406610312517
    vertex -2.255973186038318e-14 -9.500000000000005 20.99999999999997
    vertex -2.255973186038318e-14 -7.429447639179868 20.727406610312517
  endloop
endfacet
facet normal -0.0 -0.13052619222005077 0.9914448613738105
  outer loop
    vertex -2.255973186038318e-14 -11.570552360820187 20.727406610312517
    vertex -4.000000000000015 -9.500000000000005 20.99999999999997
    vertex -4.000000000000015 -11.570552360820187 20.727406610312517
  endloop
endfacet
facet normal -0.0 -0.13052619222005077 0.9914448613738105
  outer loop
    vertex -4.000000000000015 -9.500000000000005 20.99999999999997
    vertex -2.255973186038318e-14 -11.570552360820187 20.727406610312517
    vertex -2.255973186038318e-14 -9.500000000000005 20.99999999999997
  endloop
endfacet
facet normal -0.0 -0.3826834323650905 0.9238795325112865
  outer loop
    vertex -2.255973186038318e-14 -13.499999999999998 19.92820323027549
    vertex -4.000000000000015 -11.570552360820187 20.727406610312517
    vertex -4.000000000000015 -13.499999999999998 19.92820323027549
  endloop
endfacet
facet normal -0.0 -0.3826834323650905 0.9238795325112865
  outer loop
    vertex -4.000000000000015 -11.570552360820187 20.727406610312517
    vertex -2.255973186038318e-14 -13.499999999999998 19.92820323027549
    vertex -2.255973186038318e-14 -11.570552360820187 20.727406610312517
  endloop
endfacet
facet normal -0.0 -0.6087614290087195 0.793353340291236
  outer loop
    vertex -2.255973186038318e-14 -15.1568542494924 18.656854249492348
    vertex -4.000000000000015 -13.499999999999998 19.92820323027549
    vertex -4.000000000000015 -15.1568542494924 18.656854249492348
  endloop
endfacet
facet normal -0.0 -0.6087614290087195 0.793353340291236
  outer loop
    vertex -4.000000000000015 -13.499999999999998 19.92820323027549
    vertex -2.255973186038318e-14 -15.1568542494924 18.656854249492348
    vertex -2.255973186038318e-14 -13.499999999999998 19.92820323027549
  endloop
endfacet
facet normal 0.0 -0.7933533402912374 0.6087614290087179
  outer loop
    vertex -2.255973186038318e-14 -15.1568542494924 18.656854249492348
    vertex -4.000000000000015 -16.428203230275518 16.999999999999968
    vertex -2.255973186038318e-14 -16.428203230275518 16.999999999999968
  endloop
endfacet
facet normal 0.0 -0.7933533402912374 0.6087614290087179
  outer loop
    vertex -4.000000000000015 -16.428203230275518 16.999999999999968
    vertex -2.255973186038318e-14 -15.1568542494924 18.656854249492348
    vertex -4.000000000000015 -15.1568542494924 18.656854249492348
  endloop
endfacet
facet normal 0.0 -0.92387953251129 0.3826834323650821
  outer loop
    vertex -2.255973186038318e-14 -16.428203230275518 16.999999999999968
    vertex -4.000000000000015 -17.227406610312535 15.070552360820136
    vertex -2.255973186038318e-14 -17.227406610312535 15.070552360820136
  endloop
endfacet
facet normal 0.0 -0.92387953251129 0.3826834323650821
  outer loop
    vertex -4.000000000000015 -17.227406610312535 15.070552360820136
    vertex -2.255973186038318e-14 -16.428203230275518 16.999999999999968
    vertex -4.000000000000015 -16.428203230275518 16.999999999999968
  endloop
endfacet
facet normal 0.0 -0.9914448613738105 0.13052619222005146
  outer loop
    vertex -2.255973186038318e-14 -17.227406610312535 15.070552360820136
    vertex -4.000000000000015 -17.49999999999999 12.999999999999964
    vertex -2.255973186038318e-14 -17.49999999999999 12.999999999999964
  endloop
endfacet
facet normal 0.0 -0.9914448613738105 0.13052619222005146
  outer loop
    vertex -4.000000000000015 -17.49999999999999 12.999999999999964
    vertex -2.255973186038318e-14 -17.227406610312535 15.070552360820136
    vertex -4.000000000000015 -17.227406610312535 15.070552360820136
  endloop
endfacet
facet normal 0.0 -0.9914448613738105 -0.13052619222005216
  outer loop
    vertex -2.255973186038318e-14 -17.49999999999999 12.999999999999964
    vertex -4.000000000000015 -17.227406610312535 10.929447639179806
    vertex -2.255973186038318e-14 -17.227406610312535 10.929447639179806
  endloop
endfacet
facet normal 0.0 -0.9914448613738105 -0.13052619222005216
  outer loop
    vertex -4.000000000000015 -17.227406610312535 10.929447639179806
    vertex -2.255973186038318e-14 -17.49999999999999 12.999999999999964
    vertex -4.000000000000015 -17.49999999999999 12.999999999999964
  endloop
endfacet
facet normal 0.0 -0.92387953251129 -0.3826834323650821
  outer loop
    vertex -2.255973186038318e-14 -17.227406610312535 10.929447639179806
    vertex -4.000000000000015 -16.428203230275518 8.999999999999972
    vertex -2.255973186038318e-14 -16.428203230275518 8.999999999999972
  endloop
endfacet
facet normal 0.0 -0.92387953251129 -0.3826834323650821
  outer loop
    vertex -4.000000000000015 -16.428203230275518 8.999999999999972
    vertex -2.255973186038318e-14 -17.227406610312535 10.929447639179806
    vertex -4.000000000000015 -17.227406610312535 10.929447639179806
  endloop
endfacet
facet normal -0.0 1.0 -0.0
  outer loop
    vertex 0.0 0.0 0.0
    vertex 24.99999999999999 0.0 2.9999999999999947
    vertex 21.999999999999982 0.0 -5.639932965095795e-15
  endloop
endfacet
facet normal -0.0 1.0 -0.0
  outer loop
    vertex 24.99999999999999 0.0 2.9999999999999947
    vertex 0.0 0.0 0.0
    vertex 11.205904774487408 0.0 8.170370868554615
  endloop
endfacet
facet normal -0.0 1.0 -0.0
  outer loop
    vertex 11.205904774487408 0.0 8.170370868554615
    vertex 0.0 0.0 0.0
    vertex 10.000000000000016 0.0 8.669872981077775
  endloop
endfacet
facet normal -0.0 1.0 -0.0
  outer loop
    vertex 10.000000000000016 0.0 8.669872981077775
    vertex 0.0 0.0 0.0
    vertex 8.964466094067276 0.0 9.464466094067218
  endloop
endfacet
facet normal -0.0 1.0 -0.0
  outer loop
    vertex 8.964466094067276 0.0 9.464466094067218
    vertex 0.0 0.0 0.0
    vertex 8.169872981077809 0.0 10.499999999999957
  endloop
endfacet
facet normal -0.0 1.0 -0.0
  outer loop
    vertex 8.169872981077809 0.0 10.499999999999957
    vertex 0.0 0.0 0.0
    vertex 3.3839597790574766e-14 0.0 25.66336699228085
  endloop
endfacet
facet normal -0.0 1.0 -0.0
  outer loop
    vertex 24.99999999999999 0.0 2.9999999999999947
    vertex 11.205904774487408 0.0 8.170370868554615
    vertex 12.50000000000001 0.0 7.999999999999963
  endloop
endfacet
facet normal -0.0 1.0 -0.0
  outer loop
    vertex 8.169872981077809 0.0 10.499999999999957
    vertex 3.3839597790574766e-14 0.0 25.66336699228085
    vertex 7.670370868554674 0.0 11.705904774487351
  endloop
endfacet
facet normal -0.0 1.0 -0.0
  outer loop
    vertex 7.670370868554674 0.0 11.705904774487351
    vertex 3.3839597790574766e-14 0.0 25.66336699228085
    vertex 7.500000000000009 0.0 12.999999999999964
  endloop
endfacet
facet normal -0.0 1.0 -0.0
  outer loop
    vertex 7.500000000000009 0.0 12.999999999999964
    vertex 3.3839597790574766e-14 0.0 25.66336699228085
    vertex 7.670370868554674 0.0 14.294095225512567
  endloop
endfacet
facet normal -0.0 1.0 -0.0
  outer loop
    vertex 7.670370868554674 0.0 14.294095225512567
    vertex 3.3839597790574766e-14 0.0 25.66336699228085
    vertex 8.169872981077809 0.0 15.499999999999972
  endloop
endfacet
facet normal -0.0 1.0 -0.0
  outer loop
    vertex 8.169872981077809 0.0 15.499999999999972
    vertex 3.3839597790574766e-14 0.0 25.66336699228085
    vertex 8.964466094067276 0.0 16.535533905932713
  endloop
endfacet
facet normal -0.0 1.0 -0.0
  outer loop
    vertex 8.964466094067276 0.0 16.535533905932713
    vertex 3.3839597790574766e-14 0.0 25.66336699228085
    vertex 10.000000000000004 0.0 17.330127018922166
  endloop
endfacet
facet normal -0.0 1.0 -0.0
  outer loop
    vertex 10.000000000000004 0.0 17.330127018922166
    vertex 3.3839597790574766e-14 0.0 25.66336699228085
    vertex 11.205904774487408 0.0 17.829629131445312
  endloop
endfacet
facet normal -0.0 1.0 -0.0
  outer loop
    vertex 11.205904774487408 0.0 17.829629131445312
    vertex 3.3839597790574766e-14 0.0 25.66336699228085
    vertex 12.50000000000001 0.0 17.999999999999968
  endloop
endfacet
facet normal -0.0 1.0 -0.0
  outer loop
    vertex 12.50000000000001 0.0 17.999999999999968
    vertex 3.3839597790574766e-14 0.0 25.66336699228085
    vertex 25.00000000000001 0.0 22.663366992280853
  endloop
endfacet
facet normal -0.0 1.0 -0.0
  outer loop
    vertex 25.00000000000001 0.0 22.663366992280853
    vertex 3.3839597790574766e-14 0.0 25.66336699228085
    vertex 22.000000000000018 0.0 25.66336699228085
  endloop
endfacet
facet normal -0.0 1.0 -0.0
  outer loop
    vertex 24.99999999999999 0.0 2.9999999999999947
    vertex 16.8301270189222 0.0 10.499999999999957
    vertex 25.00000000000001 0.0 22.663366992280853
  endloop
endfacet
facet normal -0.0 1.0 -0.0
  outer loop
    vertex 16.8301270189222 0.0 10.499999999999957
    vertex 24.99999999999999 0.0 2.9999999999999947
    vertex 16.035533905932745 0.0 9.46446609406723
  endloop
endfacet
facet normal -0.0 1.0 -0.0
  outer loop
    vertex 16.035533905932745 0.0 9.46446609406723
    vertex 24.99999999999999 0.0 2.9999999999999947
    vertex 15.000000000000018 0.0 8.669872981077775
  endloop
endfacet
facet normal -0.0 1.0 -0.0
  outer loop
    vertex 15.000000000000018 0.0 8.669872981077775
    vertex 24.99999999999999 0.0 2.9999999999999947
    vertex 13.794095225512624 0.0 8.170370868554615
  endloop
endfacet
facet normal -0.0 1.0 -0.0
  outer loop
    vertex 13.794095225512624 0.0 8.170370868554615
    vertex 24.99999999999999 0.0 2.9999999999999947
    vertex 12.50000000000001 0.0 7.999999999999963
  endloop
endfacet
facet normal -0.0 1.0 -0.0
  outer loop
    vertex 25.00000000000001 0.0 22.663366992280853
    vertex 16.8301270189222 0.0 10.499999999999957
    vertex 17.329629131445348 0.0 11.705904774487362
  endloop
endfacet
facet normal -0.0 1.0 -0.0
  outer loop
    vertex 25.00000000000001 0.0 22.663366992280853
    vertex 17.329629131445348 0.0 11.705904774487362
    vertex 17.500000000000014 0.0 12.999999999999964
  endloop
endfacet
facet normal -0.0 1.0 -0.0
  outer loop
    vertex 25.00000000000001 0.0 22.663366992280853
    vertex 17.500000000000014 0.0 12.999999999999964
    vertex 17.329629131445348 0.0 14.294095225512578
  endloop
endfacet
facet normal -0.0 1.0 -0.0
  outer loop
    vertex 25.00000000000001 0.0 22.663366992280853
    vertex 17.329629131445348 0.0 14.294095225512578
    vertex 16.8301270189222 0.0 15.499999999999972
  endloop
endfacet
facet normal -0.0 1.0 -0.0
  outer loop
    vertex 25.00000000000001 0.0 22.663366992280853
    vertex 16.8301270189222 0.0 15.499999999999972
    vertex 16.035533905932745 0.0 16.535533905932713
  endloop
endfacet
facet normal -0.0 1.0 -0.0
  outer loop
    vertex 25.00000000000001 0.0 22.663366992280853
    vertex 16.035533905932745 0.0 16.535533905932713
    vertex 15.000000000000018 0.0 17.330127018922166
  endloop
endfacet
facet normal -0.0 1.0 -0.0
  outer loop
    vertex 25.00000000000001 0.0 22.663366992280853
    vertex 15.000000000000018 0.0 17.330127018922166
    vertex 13.794095225512613 0.0 17.829629131445312
  endloop
endfacet
facet normal -0.0 1.0 -0.0
  outer loop
    vertex 25.00000000000001 0.0 22.663366992280853
    vertex 13.794095225512613 0.0 17.829629131445312
    vertex 12.50000000000001 0.0 17.999999999999968
  endloop
endfacet
facet normal 0.0 -1.0 0.0
  outer loop
    vertex 22.026279441628827 -11.999999999999979 7.499999999999964
    vertex 13.794095225512603 -11.999999999999979 8.170370868554615
    vertex 12.5 -11.999999999999979 7.999999999999963
  endloop
endfacet
facet normal 0.0 -1.0 0.0
  outer loop
    vertex 13.794095225512603 -11.999999999999979 8.170370868554615
    vertex 22.026279441628827 -11.999999999999979 7.499999999999964
    vertex 23.125184089179747 -11.999999999999979 10.152990503872237
  endloop
endfacet
facet normal 0.0 -1.0 0.0
  outer loop
    vertex 13.794095225512603 -11.999999999999979 8.170370868554615
    vertex 23.125184089179747 -11.999999999999979 10.152990503872237
    vertex 14.999999999999995 -11.999999999999979 8.669872981077775
  endloop
endfacet
facet normal 0.0 -1.0 0.0
  outer loop
    vertex 14.999999999999995 -11.999999999999979 8.669872981077775
    vertex 23.125184089179747 -11.999999999999979 10.152990503872237
    vertex 16.035533905932734 -11.999999999999979 9.464466094067218
  endloop
endfacet
facet normal 0.0 -1.0 0.0
  outer loop
    vertex 16.035533905932734 -11.999999999999979 9.464466094067218
    vertex 23.125184089179747 -11.999999999999979 10.152990503872237
    vertex 16.83012701892219 -11.999999999999979 10.499999999999957
  endloop
endfacet
facet normal 0.0 -1.0 0.0
  outer loop
    vertex 16.83012701892219 -11.999999999999979 10.499999999999957
    vertex 23.125184089179747 -11.999999999999979 10.152990503872237
    vertex 23.500000000000004 -11.999999999999979 12.999999999999964
  endloop
endfacet
facet normal 0.0 -1.0 0.0
  outer loop
    vertex 16.83012701892219 -11.999999999999979 10.499999999999957
    vertex 23.500000000000004 -11.999999999999979 12.999999999999964
    vertex 17.329629131445337 -11.999999999999979 11.705904774487362
  endloop
endfacet
facet normal 0.0 -1.0 0.0
  outer loop
    vertex 17.329629131445337 -11.999999999999979 11.705904774487362
    vertex 23.500000000000004 -11.999999999999979 12.999999999999964
    vertex 17.49999999999999 -11.999999999999979 12.999999999999964
  endloop
endfacet
facet normal 0.0 -1.0 0.0
  outer loop
    vertex 17.49999999999999 -11.999999999999979 12.999999999999964
    vertex 23.500000000000004 -11.999999999999979 12.999999999999964
    vertex 23.125184089179747 -11.999999999999979 15.847009496127693
  endloop
endfacet
facet normal 0.0 -1.0 0.0
  outer loop
    vertex 17.49999999999999 -11.999999999999979 12.999999999999964
    vertex 23.125184089179747 -11.999999999999979 15.847009496127693
    vertex 17.329629131445337 -11.999999999999979 14.294095225512567
  endloop
endfacet
facet normal 0.0 -1.0 0.0
  outer loop
    vertex 17.329629131445337 -11.999999999999979 14.294095225512567
    vertex 23.125184089179747 -11.999999999999979 15.847009496127693
    vertex 16.83012701892219 -11.999999999999979 15.499999999999961
  endloop
endfacet
facet normal 0.0 -1.0 0.0
  outer loop
    vertex 16.83012701892219 -11.999999999999979 15.499999999999961
    vertex 23.125184089179747 -11.999999999999979 15.847009496127693
    vertex 16.035533905932734 -11.999999999999979 16.5355339059327
  endloop
endfacet
facet normal 0.0 -1.0 0.0
  outer loop
    vertex 16.035533905932734 -11.999999999999979 16.5355339059327
    vertex 23.125184089179747 -11.999999999999979 15.847009496127693
    vertex 22.026279441628812 -11.999999999999979 18.499999999999964
  endloop
endfacet
facet normal 0.0 -1.0 0.0
  outer loop
    vertex 16.035533905932734 -11.999999999999979 16.5355339059327
    vertex 22.026279441628812 -11.999999999999979 18.499999999999964
    vertex 14.999999999999995 -11.999999999999979 17.330127018922155
  endloop
endfacet
facet normal 0.0 -1.0 0.0
  outer loop
    vertex 14.999999999999995 -11.999999999999979 17.330127018922155
    vertex 22.026279441628812 -11.999999999999979 18.499999999999964
    vertex 13.794095225512603 -11.999999999999979 17.8296291314453
  endloop
endfacet
facet normal 0.0 -1.0 0.0
  outer loop
    vertex 13.794095225512603 -11.999999999999979 17.8296291314453
    vertex 22.026279441628812 -11.999999999999979 18.499999999999964
    vertex 12.5 -11.999999999999979 17.999999999999968
  endloop
endfacet
facet normal 0.0 -1.0 0.0
  outer loop
    vertex 15.34700949612774 -11.999999999999979 2.3748159108202063
    vertex 9.652990503872271 -11.999999999999979 2.3748159108202063
    vertex 12.5 -11.999999999999979 1.9999999999999625
  endloop
endfacet
facet normal 0.0 -1.0 0.0
  outer loop
    vertex 9.652990503872271 -11.999999999999979 2.3748159108202063
    vertex 15.34700949612774 -11.999999999999979 2.3748159108202063
    vertex 18.0 -11.999999999999979 3.4737205583711397
  endloop
endfacet
facet normal 0.0 -1.0 0.0
  outer loop
    vertex 9.652990503872271 -11.999999999999979 2.3748159108202063
    vertex 18.0 -11.999999999999979 3.4737205583711397
    vertex 6.999999999999998 -11.999999999999979 3.4737205583711286
  endloop
endfacet
facet normal 0.0 -1.0 0.0
  outer loop
    vertex 6.999999999999998 -11.999999999999979 3.4737205583711286
    vertex 18.0 -11.999999999999979 3.4737205583711397
    vertex 4.72182540694798 -11.999999999999979 5.221825406947934
  endloop
endfacet
facet normal 0.0 -1.0 0.0
  outer loop
    vertex 4.72182540694798 -11.999999999999979 5.221825406947934
    vertex 18.0 -11.999999999999979 3.4737205583711397
    vertex 20.278174593052018 -11.999999999999979 5.2218254069479455
  endloop
endfacet
facet normal 0.0 -1.0 0.0
  outer loop
    vertex 4.72182540694798 -11.999999999999979 5.221825406947934
    vertex 20.278174593052018 -11.999999999999979 5.2218254069479455
    vertex 2.9737205583711632 -11.999999999999979 7.499999999999952
  endloop
endfacet
facet normal 0.0 -1.0 0.0
  outer loop
    vertex 2.9737205583711632 -11.999999999999979 7.499999999999952
    vertex 20.278174593052018 -11.999999999999979 5.2218254069479455
    vertex 22.026279441628827 -11.999999999999979 7.499999999999964
  endloop
endfacet
facet normal 0.0 -1.0 0.0
  outer loop
    vertex 2.9737205583711632 -11.999999999999979 7.499999999999952
    vertex 22.026279441628827 -11.999999999999979 7.499999999999964
    vertex 12.5 -11.999999999999979 7.999999999999963
  endloop
endfacet
facet normal 0.0 -1.0 0.0
  outer loop
    vertex 2.9737205583711632 -11.999999999999979 7.499999999999952
    vertex 12.5 -11.999999999999979 7.999999999999963
    vertex 11.205904774487397 -11.999999999999979 8.170370868554615
  endloop
endfacet
facet normal 0.0 -1.0 0.0
  outer loop
    vertex 2.9737205583711632 -11.999999999999979 7.499999999999952
    vertex 11.205904774487397 -11.999999999999979 8.170370868554615
    vertex 1.874815910820241 -11.999999999999979 10.152990503872227
  endloop
endfacet
facet normal 0.0 -1.0 0.0
  outer loop
    vertex 1.874815910820241 -11.999999999999979 10.152990503872227
    vertex 11.205904774487397 -11.999999999999979 8.170370868554615
    vertex 10.000000000000004 -11.999999999999979 8.669872981077763
  endloop
endfacet
facet normal 0.0 -1.0 0.0
  outer loop
    vertex 1.874815910820241 -11.999999999999979 10.152990503872227
    vertex 10.000000000000004 -11.999999999999979 8.669872981077763
    vertex 8.964466094067253 -11.999999999999979 9.464466094067218
  endloop
endfacet
facet normal 0.0 -1.0 0.0
  outer loop
    vertex 1.874815910820241 -11.999999999999979 10.152990503872227
    vertex 8.964466094067253 -11.999999999999979 9.464466094067218
    vertex 8.169872981077798 -11.999999999999979 10.499999999999957
  endloop
endfacet
facet normal 0.0 -1.0 0.0
  outer loop
    vertex 1.874815910820241 -11.999999999999979 10.152990503872227
    vertex 8.169872981077798 -11.999999999999979 10.499999999999957
    vertex 1.4999999999999973 -11.999999999999979 12.999999999999964
  endloop
endfacet
facet normal 0.0 -1.0 0.0
  outer loop
    vertex 1.4999999999999973 -11.999999999999979 12.999999999999964
    vertex 8.169872981077798 -11.999999999999979 10.499999999999957
    vertex 7.670370868554651 -11.999999999999979 11.705904774487351
  endloop
endfacet
facet normal 0.0 -1.0 0.0
  outer loop
    vertex 1.4999999999999973 -11.999999999999979 12.999999999999964
    vertex 7.670370868554651 -11.999999999999979 11.705904774487351
    vertex 7.499999999999987 -11.999999999999979 12.999999999999964
  endloop
endfacet
facet normal 0.0 -1.0 0.0
  outer loop
    vertex 1.4999999999999973 -11.999999999999979 12.999999999999964
    vertex 7.499999999999987 -11.999999999999979 12.999999999999964
    vertex 7.670370868554651 -11.999999999999979 14.294095225512567
  endloop
endfacet
facet normal 0.0 -1.0 0.0
  outer loop
    vertex 1.4999999999999973 -11.999999999999979 12.999999999999964
    vertex 7.670370868554651 -11.999999999999979 14.294095225512567
    vertex 1.874815910820241 -11.999999999999979 15.847009496127693
  endloop
endfacet
facet normal 0.0 -1.0 0.0
  outer loop
    vertex 1.874815910820241 -11.999999999999979 15.847009496127693
    vertex 7.670370868554651 -11.999999999999979 14.294095225512567
    vertex 8.169872981077798 -11.999999999999979 15.499999999999961
  endloop
endfacet
facet normal 0.0 -1.0 0.0
  outer loop
    vertex 1.874815910820241 -11.999999999999979 15.847009496127693
    vertex 8.169872981077798 -11.999999999999979 15.499999999999961
    vertex 8.964466094067253 -11.999999999999979 16.5355339059327
  endloop
endfacet
facet normal 0.0 -1.0 0.0
  outer loop
    vertex 1.874815910820241 -11.999999999999979 15.847009496127693
    vertex 8.964466094067253 -11.999999999999979 16.5355339059327
    vertex 2.9737205583711632 -11.999999999999979 18.499999999999964
  endloop
endfacet
facet normal 0.0 -1.0 0.0
  outer loop
    vertex 2.9737205583711632 -11.999999999999979 18.499999999999964
    vertex 8.964466094067253 -11.999999999999979 16.5355339059327
    vertex 9.999999999999993 -11.999999999999979 17.330127018922155
  endloop
endfacet
facet normal 0.0 -1.0 0.0
  outer loop
    vertex 2.9737205583711632 -11.999999999999979 18.499999999999964
    vertex 9.999999999999993 -11.999999999999979 17.330127018922155
    vertex 11.205904774487397 -11.999999999999979 17.8296291314453
  endloop
endfacet
facet normal 0.0 -1.0 0.0
  outer loop
    vertex 2.9737205583711632 -11.999999999999979 18.499999999999964
    vertex 11.205904774487397 -11.999999999999979 17.8296291314453
    vertex 12.5 -11.999999999999979 17.999999999999968
  endloop
endfacet
facet normal 0.0 -1.0 0.0
  outer loop
    vertex 2.9737205583711632 -11.999999999999979 18.499999999999964
    vertex 12.5 -11.999999999999979 17.999999999999968
    vertex 22.026279441628812 -11.999999999999979 18.499999999999964
  endloop
endfacet
facet normal 0.0 -1.0 0.0
  outer loop
    vertex 2.9737205583711632 -11.999999999999979 18.499999999999964
    vertex 22.026279441628812 -11.999999999999979 18.499999999999964
    vertex 20.278174593052018 -11.999999999999979 20.778174593051986
  endloop
endfacet
facet normal 0.0 -1.0 0.0
  outer loop
    vertex 2.9737205583711632 -11.999999999999979 18.499999999999964
    vertex 20.278174593052018 -11.999999999999979 20.778174593051986
    vertex 4.721825406947969 -11.999999999999979 20.778174593051986
  endloop
endfacet
facet normal 0.0 -1.0 0.0
  outer loop
    vertex 4.721825406947969 -11.999999999999979 20.778174593051986
    vertex 20.278174593052018 -11.999999999999979 20.778174593051986
    vertex 17.99999999999999 -11.999999999999979 22.52627944162879
  endloop
endfacet
facet normal 0.0 -1.0 0.0
  outer loop
    vertex 4.721825406947969 -11.999999999999979 20.778174593051986
    vertex 17.99999999999999 -11.999999999999979 22.52627944162879
    vertex 6.999999999999988 -11.999999999999979 22.52627944162879
  endloop
endfacet
facet normal 0.0 -1.0 0.0
  outer loop
    vertex 6.999999999999988 -11.999999999999979 22.52627944162879
    vertex 17.99999999999999 -11.999999999999979 22.52627944162879
    vertex 15.347009496127717 -11.999999999999979 23.62518408917971
  endloop
endfacet
facet normal 0.0 -1.0 0.0
  outer loop
    vertex 6.999999999999988 -11.999999999999979 22.52627944162879
    vertex 15.347009496127717 -11.999999999999979 23.62518408917971
    vertex 9.65299050387226 -11.999999999999979 23.62518408917971
  endloop
endfacet
facet normal 0.0 -1.0 0.0
  outer loop
    vertex 9.65299050387226 -11.999999999999979 23.62518408917971
    vertex 15.347009496127717 -11.999999999999979 23.62518408917971
    vertex 12.5 -11.999999999999979 23.999999999999968
  endloop
endfacet
facet normal 0.13052619222004985 -0.0 0.9914448613738107
  outer loop
    vertex 12.5 -19.00000000000001 1.9999999999999625
    vertex 9.652990503872271 -11.999999999999979 2.3748159108202063
    vertex 9.652990503872271 -19.00000000000001 2.3748159108202063
  endloop
endfacet
facet normal 0.13052619222004985 -0.0 0.9914448613738107
  outer loop
    vertex 9.652990503872271 -11.999999999999979 2.3748159108202063
    vertex 12.5 -19.00000000000001 1.9999999999999625
    vertex 12.5 -11.999999999999979 1.9999999999999625
  endloop
endfacet
facet normal -0.1305261922200493 -0.0 0.9914448613738107
  outer loop
    vertex 15.34700949612774 -19.00000000000001 2.3748159108202063
    vertex 12.5 -11.999999999999979 1.9999999999999625
    vertex 12.5 -19.00000000000001 1.9999999999999625
  endloop
endfacet
facet normal -0.1305261922200493 -0.0 0.9914448613738107
  outer loop
    vertex 12.5 -11.999999999999979 1.9999999999999625
    vertex 15.34700949612774 -19.00000000000001 2.3748159108202063
    vertex 15.34700949612774 -11.999999999999979 2.3748159108202063
  endloop
endfacet
facet normal -0.3826834323650932 -0.0 0.9238795325112854
  outer loop
    vertex 18.0 -19.00000000000001 3.4737205583711397
    vertex 15.34700949612774 -11.999999999999979 2.3748159108202063
    vertex 15.34700949612774 -19.00000000000001 2.3748159108202063
  endloop
endfacet
facet normal -0.3826834323650932 -0.0 0.9238795325112854
  outer loop
    vertex 15.34700949612774 -11.999999999999979 2.3748159108202063
    vertex 18.0 -19.00000000000001 3.4737205583711397
    vertex 18.0 -11.999999999999979 3.4737205583711397
  endloop
endfacet
facet normal -0.6087614290087221 -0.0 0.7933533402912342
  outer loop
    vertex 20.278174593052018 -19.00000000000001 5.2218254069479455
    vertex 18.0 -11.999999999999979 3.4737205583711397
    vertex 18.0 -19.00000000000001 3.4737205583711397
  endloop
endfacet
facet normal -0.6087614290087221 -0.0 0.7933533402912342
  outer loop
    vertex 18.0 -11.999999999999979 3.4737205583711397
    vertex 20.278174593052018 -19.00000000000001 5.2218254069479455
    vertex 20.278174593052018 -11.999999999999979 5.2218254069479455
  endloop
endfacet
facet normal -0.7933533402912342 0.0 0.6087614290087221
  outer loop
    vertex 22.026279441628827 -11.999999999999979 7.499999999999964
    vertex 20.278174593052018 -19.00000000000001 5.2218254069479455
    vertex 22.026279441628827 -19.00000000000001 7.499999999999964
  endloop
endfacet
facet normal -0.7933533402912342 0.0 0.6087614290087221
  outer loop
    vertex 20.278174593052018 -19.00000000000001 5.2218254069479455
    vertex 22.026279441628827 -11.999999999999979 7.499999999999964
    vertex 20.278174593052018 -11.999999999999979 5.2218254069479455
  endloop
endfacet
facet normal -0.9238795325112873 0.0 0.38268343236508845
  outer loop
    vertex 23.125184089179747 -11.999999999999979 10.152990503872237
    vertex 22.026279441628827 -19.00000000000001 7.499999999999964
    vertex 23.125184089179747 -19.00000000000001 10.152990503872237
  endloop
endfacet
facet normal -0.9238795325112873 0.0 0.38268343236508845
  outer loop
    vertex 22.026279441628827 -19.00000000000001 7.499999999999964
    vertex 23.125184089179747 -11.999999999999979 10.152990503872237
    vertex 22.026279441628827 -11.999999999999979 7.499999999999964
  endloop
endfacet
facet normal -0.9914448613738103 0.0 0.13052619222005374
  outer loop
    vertex 23.500000000000004 -11.999999999999979 12.999999999999964
    vertex 23.125184089179747 -19.00000000000001 10.152990503872237
    vertex 23.500000000000004 -19.00000000000001 12.999999999999964
  endloop
endfacet
facet normal -0.9914448613738103 0.0 0.13052619222005374
  outer loop
    vertex 23.125184089179747 -19.00000000000001 10.152990503872237
    vertex 23.500000000000004 -11.999999999999979 12.999999999999964
    vertex 23.125184089179747 -11.999999999999979 10.152990503872237
  endloop
endfacet
facet normal -0.9914448613738103 0.0 -0.13052619222005374
  outer loop
    vertex 23.125184089179747 -11.999999999999979 15.847009496127693
    vertex 23.500000000000004 -19.00000000000001 12.999999999999964
    vertex 23.125184089179747 -19.00000000000001 15.847009496127693
  endloop
endfacet
facet normal -0.9914448613738103 0.0 -0.13052619222005374
  outer loop
    vertex 23.500000000000004 -19.00000000000001 12.999999999999964
    vertex 23.125184089179747 -11.999999999999979 15.847009496127693
    vertex 23.500000000000004 -11.999999999999979 12.999999999999964
  endloop
endfacet
facet normal -0.923879532511286 0.0 -0.3826834323650918
  outer loop
    vertex 22.026279441628812 -11.999999999999979 18.499999999999964
    vertex 23.125184089179747 -19.00000000000001 15.847009496127693
    vertex 22.026279441628812 -19.00000000000001 18.499999999999964
  endloop
endfacet
facet normal -0.923879532511286 0.0 -0.3826834323650918
  outer loop
    vertex 23.125184089179747 -19.00000000000001 15.847009496127693
    vertex 22.026279441628812 -11.999999999999979 18.499999999999964
    vertex 23.125184089179747 -11.999999999999979 15.847009496127693
  endloop
endfacet
facet normal -0.7933533402912362 0.0 -0.6087614290087197
  outer loop
    vertex 20.278174593052018 -11.999999999999979 20.778174593051986
    vertex 22.026279441628812 -19.00000000000001 18.499999999999964
    vertex 20.278174593052018 -19.00000000000001 20.778174593051986
  endloop
endfacet
facet normal -0.7933533402912362 0.0 -0.6087614290087197
  outer loop
    vertex 22.026279441628812 -19.00000000000001 18.499999999999964
    vertex 20.278174593052018 -11.999999999999979 20.778174593051986
    vertex 22.026279441628812 -11.999999999999979 18.499999999999964
  endloop
endfacet
facet normal -0.6087614290087202 0.0 -0.7933533402912357
  outer loop
    vertex 20.278174593052018 -11.999999999999979 20.778174593051986
    vertex 17.99999999999999 -19.00000000000001 22.52627944162879
    vertex 17.99999999999999 -11.999999999999979 22.52627944162879
  endloop
endfacet
facet normal -0.6087614290087202 0.0 -0.7933533402912357
  outer loop
    vertex 17.99999999999999 -19.00000000000001 22.52627944162879
    vertex 20.278174593052018 -11.999999999999979 20.778174593051986
    vertex 20.278174593052018 -19.00000000000001 20.778174593051986
  endloop
endfacet
facet normal -0.38268343236508845 0.0 -0.9238795325112873
  outer loop
    vertex 17.99999999999999 -11.999999999999979 22.52627944162879
    vertex 15.347009496127717 -19.00000000000001 23.62518408917971
    vertex 15.347009496127717 -11.999999999999979 23.62518408917971
  endloop
endfacet
facet normal -0.38268343236508845 0.0 -0.9238795325112873
  outer loop
    vertex 15.347009496127717 -19.00000000000001 23.62518408917971
    vertex 17.99999999999999 -11.999999999999979 22.52627944162879
    vertex 17.99999999999999 -19.00000000000001 22.52627944162879
  endloop
endfacet
facet normal -0.1305261922200542 0.0 -0.99144486137381
  outer loop
    vertex 15.347009496127717 -11.999999999999979 23.62518408917971
    vertex 12.5 -19.00000000000001 23.999999999999968
    vertex 12.5 -11.999999999999979 23.999999999999968
  endloop
endfacet
facet normal -0.1305261922200542 0.0 -0.99144486137381
  outer loop
    vertex 12.5 -19.00000000000001 23.999999999999968
    vertex 15.347009496127717 -11.999999999999979 23.62518408917971
    vertex 15.347009496127717 -19.00000000000001 23.62518408917971
  endloop
endfacet
facet normal 0.13052619222005318 0.0 -0.9914448613738103
  outer loop
    vertex 12.5 -11.999999999999979 23.999999999999968
    vertex 9.65299050387226 -19.00000000000001 23.62518408917971
    vertex 9.65299050387226 -11.999999999999979 23.62518408917971
  endloop
endfacet
facet normal 0.13052619222005318 0.0 -0.9914448613738103
  outer loop
    vertex 9.65299050387226 -19.00000000000001 23.62518408917971
    vertex 12.5 -11.999999999999979 23.999999999999968
    vertex 12.5 -19.00000000000001 23.999999999999968
  endloop
endfacet
facet normal 0.38268343236508845 0.0 -0.9238795325112873
  outer loop
    vertex 9.65299050387226 -11.999999999999979 23.62518408917971
    vertex 6.999999999999988 -19.00000000000001 22.52627944162879
    vertex 6.999999999999988 -11.999999999999979 22.52627944162879
  endloop
endfacet
facet normal 0.38268343236508845 0.0 -0.9238795325112873
  outer loop
    vertex 6.999999999999988 -19.00000000000001 22.52627944162879
    vertex 9.65299050387226 -11.999999999999979 23.62518408917971
    vertex 9.65299050387226 -19.00000000000001 23.62518408917971
  endloop
endfacet
facet normal 0.6087614290087221 0.0 -0.7933533402912342
  outer loop
    vertex 6.999999999999988 -11.999999999999979 22.52627944162879
    vertex 4.721825406947969 -19.00000000000001 20.778174593051986
    vertex 4.721825406947969 -11.999999999999979 20.778174593051986
  endloop
endfacet
facet normal 0.6087614290087221 0.0 -0.7933533402912342
  outer loop
    vertex 4.721825406947969 -19.00000000000001 20.778174593051986
    vertex 6.999999999999988 -11.999999999999979 22.52627944162879
    vertex 6.999999999999988 -19.00000000000001 22.52627944162879
  endloop
endfacet
facet normal 0.7933533402912342 -0.0 -0.6087614290087221
  outer loop
    vertex 2.9737205583711632 -11.999999999999979 18.499999999999964
    vertex 4.721825406947969 -19.00000000000001 20.778174593051986
    vertex 2.9737205583711632 -19.00000000000001 18.499999999999964
  endloop
endfacet
facet normal 0.7933533402912342 -0.0 -0.6087614290087221
  outer loop
    vertex 4.721825406947969 -19.00000000000001 20.778174593051986
    vertex 2.9737205583711632 -11.999999999999979 18.499999999999964
    vertex 4.721825406947969 -11.999999999999979 20.778174593051986
  endloop
endfacet
facet normal 0.9238795325112873 -0.0 -0.38268343236508845
  outer loop
    vertex 1.874815910820241 -11.999999999999979 15.847009496127693
    vertex 2.9737205583711632 -19.00000000000001 18.499999999999964
    vertex 1.874815910820241 -19.00000000000001 15.847009496127693
  endloop
endfacet
facet normal 0.9238795325112873 -0.0 -0.38268343236508845
  outer loop
    vertex 2.9737205583711632 -19.00000000000001 18.499999999999964
    vertex 1.874815910820241 -11.999999999999979 15.847009496127693
    vertex 2.9737205583711632 -11.999999999999979 18.499999999999964
  endloop
endfacet
facet normal 0.9914448613738107 -0.0 -0.13052619222004985
  outer loop
    vertex 1.4999999999999973 -11.999999999999979 12.999999999999964
    vertex 1.874815910820241 -19.00000000000001 15.847009496127693
    vertex 1.4999999999999973 -19.00000000000001 12.999999999999964
  endloop
endfacet
facet normal 0.9914448613738107 -0.0 -0.13052619222004985
  outer loop
    vertex 1.874815910820241 -19.00000000000001 15.847009496127693
    vertex 1.4999999999999973 -11.999999999999979 12.999999999999964
    vertex 1.874815910820241 -11.999999999999979 15.847009496127693
  endloop
endfacet
facet normal 0.9914448613738107 -0.0 0.1305261922200493
  outer loop
    vertex 1.874815910820241 -11.999999999999979 10.152990503872227
    vertex 1.4999999999999973 -19.00000000000001 12.999999999999964
    vertex 1.874815910820241 -19.00000000000001 10.152990503872227
  endloop
endfacet
facet normal 0.9914448613738107 -0.0 0.1305261922200493
  outer loop
    vertex 1.4999999999999973 -19.00000000000001 12.999999999999964
    vertex 1.874815910820241 -11.999999999999979 10.152990503872227
    vertex 1.4999999999999973 -11.999999999999979 12.999999999999964
  endloop
endfacet
facet normal 0.9238795325112873 -0.0 0.38268343236508845
  outer loop
    vertex 2.9737205583711632 -11.999999999999979 7.499999999999952
    vertex 1.874815910820241 -19.00000000000001 10.152990503872227
    vertex 2.9737205583711632 -19.00000000000001 7.499999999999952
  endloop
endfacet
facet normal 0.9238795325112873 -0.0 0.38268343236508845
  outer loop
    vertex 1.874815910820241 -19.00000000000001 10.152990503872227
    vertex 2.9737205583711632 -11.999999999999979 7.499999999999952
    vertex 1.874815910820241 -11.999999999999979 10.152990503872227
  endloop
endfacet
facet normal 0.7933533402912322 -0.0 0.6087614290087245
  outer loop
    vertex 4.72182540694798 -11.999999999999979 5.221825406947934
    vertex 2.9737205583711632 -19.00000000000001 7.499999999999952
    vertex 4.72182540694798 -19.00000000000001 5.221825406947934
  endloop
endfacet
facet normal 0.7933533402912322 -0.0 0.6087614290087245
  outer loop
    vertex 2.9737205583711632 -19.00000000000001 7.499999999999952
    vertex 4.72182540694798 -11.999999999999979 5.221825406947934
    vertex 2.9737205583711632 -11.999999999999979 7.499999999999952
  endloop
endfacet
facet normal 0.6087614290087221 -0.0 0.7933533402912342
  outer loop
    vertex 6.999999999999998 -19.00000000000001 3.4737205583711286
    vertex 4.72182540694798 -11.999999999999979 5.221825406947934
    vertex 4.72182540694798 -19.00000000000001 5.221825406947934
  endloop
endfacet
facet normal 0.6087614290087221 -0.0 0.7933533402912342
  outer loop
    vertex 4.72182540694798 -11.999999999999979 5.221825406947934
    vertex 6.999999999999998 -19.00000000000001 3.4737205583711286
    vertex 6.999999999999998 -11.999999999999979 3.4737205583711286
  endloop
endfacet
facet normal 0.38268343236508845 -0.0 0.9238795325112873
  outer loop
    vertex 9.652990503872271 -19.00000000000001 2.3748159108202063
    vertex 6.999999999999998 -11.999999999999979 3.4737205583711286
    vertex 6.999999999999998 -19.00000000000001 3.4737205583711286
  endloop
endfacet
facet normal 0.38268343236508845 -0.0 0.9238795325112873
  outer loop
    vertex 6.999999999999998 -11.999999999999979 3.4737205583711286
    vertex 9.652990503872271 -19.00000000000001 2.3748159108202063
    vertex 9.652990503872271 -11.999999999999979 2.3748159108202063
  endloop
endfacet
facet normal -0.608761429008719 4.85693018410512e-16 0.7933533402912365
  outer loop
    vertex 16.035533905932734 -11.999999999999979 9.464466094067218
    vertex 15.000000000000018 0.0 8.669872981077775
    vertex 14.999999999999995 -11.999999999999979 8.669872981077775
  endloop
endfacet
facet normal -0.608761429008719 4.85693018410512e-16 0.7933533402912365
  outer loop
    vertex 15.000000000000018 0.0 8.669872981077775
    vertex 16.035533905932734 -11.999999999999979 9.464466094067218
    vertex 16.035533905932745 0.0 9.46446609406723
  endloop
endfacet
facet normal -0.7933533402912346 4.598382714531783e-16 0.6087614290087217
  outer loop
    vertex 16.8301270189222 0.0 10.499999999999957
    vertex 16.035533905932734 -11.999999999999979 9.464466094067218
    vertex 16.83012701892219 -11.999999999999979 10.499999999999957
  endloop
endfacet
facet normal -0.7933533402912346 4.598382714531783e-16 0.6087614290087217
  outer loop
    vertex 16.035533905932734 -11.999999999999979 9.464466094067218
    vertex 16.8301270189222 0.0 10.499999999999957
    vertex 16.035533905932745 0.0 9.46446609406723
  endloop
endfacet
facet normal -0.9238795325112878 8.688322103457221e-16 0.3826834323650872
  outer loop
    vertex 17.329629131445348 0.0 11.705904774487362
    vertex 16.83012701892219 -11.999999999999979 10.499999999999957
    vertex 17.329629131445337 -11.999999999999979 11.705904774487362
  endloop
endfacet
facet normal -0.9238795325112878 8.688322103457221e-16 0.3826834323650872
  outer loop
    vertex 16.83012701892219 -11.999999999999979 10.499999999999957
    vertex 17.329629131445348 0.0 11.705904774487362
    vertex 16.8301270189222 0.0 10.499999999999957
  endloop
endfacet
facet normal -0.9914448613738105 1.3975945183754136e-15 0.13052619222005188
  outer loop
    vertex 17.500000000000014 0.0 12.999999999999964
    vertex 17.329629131445337 -11.999999999999979 11.705904774487362
    vertex 17.49999999999999 -11.999999999999979 12.999999999999964
  endloop
endfacet
facet normal -0.9914448613738105 1.3975945183754136e-15 0.13052619222005188
  outer loop
    vertex 17.329629131445337 -11.999999999999979 11.705904774487362
    vertex 17.500000000000014 0.0 12.999999999999964
    vertex 17.329629131445348 0.0 11.705904774487362
  endloop
endfacet
facet normal -0.9914448613738105 1.4589690569942633e-15 -0.1305261922200513
  outer loop
    vertex 17.329629131445348 0.0 14.294095225512578
    vertex 17.49999999999999 -11.999999999999979 12.999999999999964
    vertex 17.329629131445337 -11.999999999999979 14.294095225512567
  endloop
endfacet
facet normal -0.9914448613738105 1.4589690569942633e-15 -0.1305261922200513
  outer loop
    vertex 17.49999999999999 -11.999999999999979 12.999999999999964
    vertex 17.329629131445348 0.0 14.294095225512578
    vertex 17.500000000000014 0.0 12.999999999999964
  endloop
endfacet
facet normal -0.9238795325112867 1.2287142952975126e-15 -0.3826834323650902
  outer loop
    vertex 16.8301270189222 0.0 15.499999999999972
    vertex 17.329629131445337 -11.999999999999979 14.294095225512567
    vertex 16.83012701892219 -11.999999999999979 15.499999999999961
  endloop
endfacet
facet normal -0.9238795325112867 1.2287142952975126e-15 -0.3826834323650902
  outer loop
    vertex 17.329629131445337 -11.999999999999979 14.294095225512567
    vertex 16.8301270189222 0.0 15.499999999999972
    vertex 17.329629131445348 0.0 14.294095225512578
  endloop
endfacet
facet normal -0.7933533402912362 1.3138415363903523e-15 -0.6087614290087197
  outer loop
    vertex 16.035533905932745 0.0 16.535533905932713
    vertex 16.83012701892219 -11.999999999999979 15.499999999999961
    vertex 16.035533905932734 -11.999999999999979 16.5355339059327
  endloop
endfacet
facet normal -0.7933533402912362 1.3138415363903523e-15 -0.6087614290087197
  outer loop
    vertex 16.83012701892219 -11.999999999999979 15.499999999999961
    vertex 16.035533905932745 0.0 16.535533905932713
    vertex 16.8301270189222 0.0 15.499999999999972
  endloop
endfacet
facet normal -0.6087614290087217 1.6048177180725477e-15 -0.7933533402912344
  outer loop
    vertex 15.000000000000018 0.0 17.330127018922166
    vertex 16.035533905932734 -11.999999999999979 16.5355339059327
    vertex 14.999999999999995 -11.999999999999979 17.330127018922155
  endloop
endfacet
facet normal -0.6087614290087217 1.6048177180725477e-15 -0.7933533402912344
  outer loop
    vertex 16.035533905932734 -11.999999999999979 16.5355339059327
    vertex 15.000000000000018 0.0 17.330127018922166
    vertex 16.035533905932745 0.0 16.535533905932713
  endloop
endfacet
facet normal -0.3826834323650888 1.4086553377734071e-15 -0.9238795325112873
  outer loop
    vertex 13.794095225512613 0.0 17.829629131445312
    vertex 14.999999999999995 -11.999999999999979 17.330127018922155
    vertex 13.794095225512603 -11.999999999999979 17.8296291314453
  endloop
endfacet
facet normal -0.3826834323650888 1.4086553377734071e-15 -0.9238795325112873
  outer loop
    vertex 14.999999999999995 -11.999999999999979 17.330127018922155
    vertex 13.794095225512613 0.0 17.829629131445312
    vertex 15.000000000000018 0.0 17.330127018922166
  endloop
endfacet
facet normal -0.1305261922200519 5.884533843600381e-16 -0.9914448613738105
  outer loop
    vertex 12.50000000000001 0.0 17.999999999999968
    vertex 13.794095225512603 -11.999999999999979 17.8296291314453
    vertex 12.5 -11.999999999999979 17.999999999999968
  endloop
endfacet
facet normal -0.1305261922200519 5.884533843600381e-16 -0.9914448613738105
  outer loop
    vertex 13.794095225512603 -11.999999999999979 17.8296291314453
    vertex 12.50000000000001 0.0 17.999999999999968
    vertex 13.794095225512613 0.0 17.829629131445312
  endloop
endfacet
facet normal 0.13052619222005188 3.4295522988463804e-16 -0.9914448613738105
  outer loop
    vertex 11.205904774487408 0.0 17.829629131445312
    vertex 12.5 -11.999999999999979 17.999999999999968
    vertex 11.205904774487397 -11.999999999999979 17.8296291314453
  endloop
endfacet
facet normal 0.13052619222005188 3.4295522988463804e-16 -0.9914448613738105
  outer loop
    vertex 12.5 -11.999999999999979 17.999999999999968
    vertex 11.205904774487408 0.0 17.829629131445312
    vertex 12.50000000000001 0.0 17.999999999999968
  endloop
endfacet
facet normal 0.38268343236508723 5.08950125393933e-16 -0.9238795325112878
  outer loop
    vertex 10.000000000000004 0.0 17.330127018922166
    vertex 11.205904774487397 -11.999999999999979 17.8296291314453
    vertex 9.999999999999993 -11.999999999999979 17.330127018922155
  endloop
endfacet
facet normal 0.38268343236508723 5.08950125393933e-16 -0.9238795325112878
  outer loop
    vertex 11.205904774487397 -11.999999999999979 17.8296291314453
    vertex 10.000000000000004 0.0 17.330127018922166
    vertex 11.205904774487408 0.0 17.829629131445312
  endloop
endfacet
facet normal 0.6087614290087217 -1.126514518565065e-16 -0.7933533402912344
  outer loop
    vertex 8.964466094067276 0.0 16.535533905932713
    vertex 9.999999999999993 -11.999999999999979 17.330127018922155
    vertex 8.964466094067253 -11.999999999999979 16.5355339059327
  endloop
endfacet
facet normal 0.6087614290087217 -1.126514518565065e-16 -0.7933533402912344
  outer loop
    vertex 9.999999999999993 -11.999999999999979 17.330127018922155
    vertex 8.964466094067276 0.0 16.535533905932713
    vertex 10.000000000000004 0.0 17.330127018922166
  endloop
endfacet
facet normal 0.7933533402912339 -5.513662963796975e-16 -0.6087614290087223
  outer loop
    vertex 8.169872981077809 0.0 15.499999999999972
    vertex 8.964466094067253 -11.999999999999979 16.5355339059327
    vertex 8.169872981077798 -11.999999999999979 15.499999999999961
  endloop
endfacet
facet normal 0.7933533402912339 -5.513662963796975e-16 -0.6087614290087223
  outer loop
    vertex 8.964466094067253 -11.999999999999979 16.5355339059327
    vertex 8.169872981077809 0.0 15.499999999999972
    vertex 8.964466094067276 0.0 16.535533905932713
  endloop
endfacet
facet normal 0.9238795325112888 -1.1233072730426911e-15 -0.38268343236508506
  outer loop
    vertex 7.670370868554674 0.0 14.294095225512567
    vertex 8.169872981077798 -11.999999999999979 15.499999999999961
    vertex 7.670370868554651 -11.999999999999979 14.294095225512567
  endloop
endfacet
facet normal 0.9238795325112888 -1.1233072730426911e-15 -0.38268343236508506
  outer loop
    vertex 8.169872981077798 -11.999999999999979 15.499999999999961
    vertex 7.670370868554674 0.0 14.294095225512567
    vertex 8.169872981077809 0.0 15.499999999999972
  endloop
endfacet
facet normal 0.9914448613738098 -1.86378042250615e-15 -0.1305261922200561
  outer loop
    vertex 7.500000000000009 0.0 12.999999999999964
    vertex 7.670370868554651 -11.999999999999979 14.294095225512567
    vertex 7.499999999999987 -11.999999999999979 12.999999999999964
  endloop
endfacet
facet normal 0.9914448613738098 -1.86378042250615e-15 -0.1305261922200561
  outer loop
    vertex 7.670370868554651 -11.999999999999979 14.294095225512567
    vertex 7.500000000000009 0.0 12.999999999999964
    vertex 7.670370868554674 0.0 14.294095225512567
  endloop
endfacet
facet normal 0.99144486137381 -1.8637804225061508e-15 0.13052619222005504
  outer loop
    vertex 7.670370868554674 0.0 11.705904774487351
    vertex 7.499999999999987 -11.999999999999979 12.999999999999964
    vertex 7.670370868554651 -11.999999999999979 11.705904774487351
  endloop
endfacet
facet normal 0.99144486137381 -1.8637804225061508e-15 0.13052619222005504
  outer loop
    vertex 7.499999999999987 -11.999999999999979 12.999999999999964
    vertex 7.670370868554674 0.0 11.705904774487351
    vertex 7.500000000000009 0.0 12.999999999999964
  endloop
endfacet
facet normal 0.9238795325112883 -1.3032483155185833e-15 0.3826834323650866
  outer loop
    vertex 8.169872981077809 0.0 10.499999999999957
    vertex 7.670370868554651 -11.999999999999979 11.705904774487351
    vertex 8.169872981077798 -11.999999999999979 10.499999999999957
  endloop
endfacet
facet normal 0.9238795325112883 -1.3032483155185833e-15 0.3826834323650866
  outer loop
    vertex 7.670370868554651 -11.999999999999979 11.705904774487351
    vertex 8.169872981077809 0.0 10.499999999999957
    vertex 7.670370868554674 0.0 11.705904774487351
  endloop
endfacet
facet normal 0.7933533402912339 -1.1191246996620302e-15 0.6087614290087223
  outer loop
    vertex 8.964466094067276 0.0 9.464466094067218
    vertex 8.169872981077798 -11.999999999999979 10.499999999999957
    vertex 8.964466094067253 -11.999999999999979 9.464466094067218
  endloop
endfacet
facet normal 0.7933533402912339 -1.1191246996620302e-15 0.6087614290087223
  outer loop
    vertex 8.169872981077798 -11.999999999999979 10.499999999999957
    vertex 8.964466094067276 0.0 9.464466094067218
    vertex 8.169872981077809 0.0 10.499999999999957
  endloop
endfacet
facet normal 0.6087614290087148 -1.23177615151853e-15 0.7933533402912397
  outer loop
    vertex 10.000000000000004 -11.999999999999979 8.669872981077763
    vertex 8.964466094067276 0.0 9.464466094067218
    vertex 8.964466094067253 -11.999999999999979 9.464466094067218
  endloop
endfacet
facet normal 0.6087614290087148 -1.23177615151853e-15 0.7933533402912397
  outer loop
    vertex 8.964466094067276 0.0 9.464466094067218
    vertex 10.000000000000004 -11.999999999999979 8.669872981077763
    vertex 10.000000000000016 0.0 8.669872981077775
  endloop
endfacet
facet normal 0.3826834323650939 -7.9429819012465505e-16 0.9238795325112852
  outer loop
    vertex 11.205904774487397 -11.999999999999979 8.170370868554615
    vertex 10.000000000000016 0.0 8.669872981077775
    vertex 10.000000000000004 -11.999999999999979 8.669872981077763
  endloop
endfacet
facet normal 0.3826834323650939 -7.9429819012465505e-16 0.9238795325112852
  outer loop
    vertex 10.000000000000016 0.0 8.669872981077775
    vertex 11.205904774487397 -11.999999999999979 8.170370868554615
    vertex 11.205904774487408 0.0 8.170370868554615
  endloop
endfacet
facet normal 0.1305261922200476 -1.2274907723769602e-16 0.9914448613738109
  outer loop
    vertex 12.5 -11.999999999999979 7.999999999999963
    vertex 11.205904774487408 0.0 8.170370868554615
    vertex 11.205904774487397 -11.999999999999979 8.170370868554615
  endloop
endfacet
facet normal 0.1305261922200476 -1.2274907723769602e-16 0.9914448613738109
  outer loop
    vertex 11.205904774487408 0.0 8.170370868554615
    vertex 12.5 -11.999999999999979 7.999999999999963
    vertex 12.50000000000001 0.0 7.999999999999963
  endloop
endfacet
facet normal -0.13052619222004708 1.8412361585654326e-16 0.9914448613738112
  outer loop
    vertex 13.794095225512603 -11.999999999999979 8.170370868554615
    vertex 12.50000000000001 0.0 7.999999999999963
    vertex 12.5 -11.999999999999979 7.999999999999963
  endloop
endfacet
facet normal -0.13052619222004708 1.8412361585654326e-16 0.9914448613738112
  outer loop
    vertex 12.50000000000001 0.0 7.999999999999963
    vertex 13.794095225512603 -11.999999999999979 8.170370868554615
    vertex 13.794095225512624 0.0 8.170370868554615
  endloop
endfacet
facet normal -0.3826834323650975 7.197641699035973e-16 0.9238795325112836
  outer loop
    vertex 14.999999999999995 -11.999999999999979 8.669872981077775
    vertex 13.794095225512624 0.0 8.170370868554615
    vertex 13.794095225512603 -11.999999999999979 8.170370868554615
  endloop
endfacet
facet normal -0.3826834323650975 7.197641699035973e-16 0.9238795325112836
  outer loop
    vertex 13.794095225512624 0.0 8.170370868554615
    vertex 14.999999999999995 -11.999999999999979 8.669872981077775
    vertex 15.000000000000018 0.0 8.669872981077775
  endloop
endfacet
facet normal 1.0 -0.0 -1.1472975034865254e-15
  outer loop
    vertex 24.99999999999999 0.0 2.9999999999999947
    vertex 25.00000000000001 -19.00000000000001 22.663366992280853
    vertex 24.99999999999999 -19.00000000000001 2.9999999999999947
  endloop
endfacet
facet normal 1.0 -0.0 -1.1472975034865254e-15
  outer loop
    vertex 25.00000000000001 -19.00000000000001 22.663366992280853
    vertex 24.99999999999999 0.0 2.9999999999999947
    vertex 25.00000000000001 0.0 22.663366992280853
  endloop
endfacet
facet normal -1.0 2.8707985635330385e-16 1.0927306930227515e-15
  outer loop
    vertex 2.255973186038318e-14 -19.00000000000001 25.66336699228085
    vertex -2.255973186038318e-14 -17.431558890990487 14.044209537760386
    vertex 0.0 -19.00000000000001 1.9999999999999851
  endloop
endfacet
facet normal -1.0 2.8707985635330385e-16 1.0927306930227515e-15
  outer loop
    vertex -2.255973186038318e-14 -17.431558890990487 14.044209537760386
    vertex 2.255973186038318e-14 -19.00000000000001 25.66336699228085
    vertex -2.255973186038318e-14 -17.227406610312535 15.070552360820136
  endloop
endfacet
facet normal -1.0 2.8707985635330385e-16 1.0927306930227515e-15
  outer loop
    vertex -2.255973186038318e-14 -17.227406610312535 15.070552360820136
    vertex 2.255973186038318e-14 -19.00000000000001 25.66336699228085
    vertex -2.255973186038318e-14 -16.89103626009028 16.061467458920692
  endloop
endfacet
facet normal -1.0 2.8707985635330385e-16 1.0927306930227515e-15
  outer loop
    vertex -2.255973186038318e-14 -16.89103626009028 16.061467458920692
    vertex 2.255973186038318e-14 -19.00000000000001 25.66336699228085
    vertex -2.255973186038318e-14 -16.428203230275518 16.999999999999968
  endloop
endfacet
facet normal -1.0 2.8707985635330385e-16 1.0927306930227515e-15
  outer loop
    vertex -2.255973186038318e-14 -16.428203230275518 16.999999999999968
    vertex 2.255973186038318e-14 -19.00000000000001 25.66336699228085
    vertex 2.255973186038318e-14 -15.846826722329892 17.87009143206973
  endloop
endfacet
facet normal -1.0 2.8707985635330385e-16 1.0927306930227515e-15
  outer loop
    vertex 2.255973186038318e-14 -15.846826722329892 17.87009143206973
    vertex 2.255973186038318e-14 -19.00000000000001 25.66336699228085
    vertex -2.255973186038318e-14 -15.1568542494924 18.656854249492348
  endloop
endfacet
facet normal -1.0 2.8707985635330385e-16 1.0927306930227515e-15
  outer loop
    vertex -2.255973186038318e-14 -15.1568542494924 18.656854249492348
    vertex 2.255973186038318e-14 -19.00000000000001 25.66336699228085
    vertex -2.255973186038318e-14 -14.37009143206976 19.34682672232985
  endloop
endfacet
facet normal -1.0 2.8707985635330385e-16 1.0927306930227515e-15
  outer loop
    vertex -2.255973186038318e-14 -14.37009143206976 19.34682672232985
    vertex 2.255973186038318e-14 -19.00000000000001 25.66336699228085
    vertex -2.255973186038318e-14 -13.499999999999998 19.92820323027549
  endloop
endfacet
facet normal -1.0 2.8707985635330385e-16 1.0927306930227515e-15
  outer loop
    vertex -2.255973186038318e-14 -13.499999999999998 19.92820323027549
    vertex 2.255973186038318e-14 -19.00000000000001 25.66336699228085
    vertex -2.255973186038318e-14 -12.561467458920733 20.391036260090264
  endloop
endfacet
facet normal -1.0 2.8707985635330385e-16 1.0927306930227515e-15
  outer loop
    vertex -2.255973186038318e-14 -12.561467458920733 20.391036260090264
    vertex 2.255973186038318e-14 -19.00000000000001 25.66336699228085
    vertex 3.3839597790574766e-14 0.0 25.66336699228085
  endloop
endfacet
facet normal -1.0 2.8707985635330385e-16 1.0927306930227515e-15
  outer loop
    vertex 0.0 -19.00000000000001 1.9999999999999851
    vertex -2.255973186038318e-14 -17.431558890990487 14.044209537760386
    vertex 0.0 -19.00000000000001 0.0
  endloop
endfacet
facet normal -1.0 2.8707985635330385e-16 1.0927306930227515e-15
  outer loop
    vertex 0.0 -19.00000000000001 0.0
    vertex -2.255973186038318e-14 -17.431558890990487 14.044209537760386
    vertex -2.255973186038318e-14 -17.49999999999999 12.999999999999964
  endloop
endfacet
facet normal -1.0 2.8707985635330385e-16 1.0927306930227515e-15
  outer loop
    vertex -2.255973186038318e-14 -12.561467458920733 20.391036260090264
    vertex 3.3839597790574766e-14 0.0 25.66336699228085
    vertex -2.255973186038318e-14 -11.570552360820187 20.727406610312517
  endloop
endfacet
facet normal -1.0 2.8707985635330385e-16 1.0927306930227515e-15
  outer loop
    vertex -2.255973186038318e-14 -11.570552360820187 20.727406610312517
    vertex 3.3839597790574766e-14 0.0 25.66336699228085
    vertex -2.255973186038318e-14 -10.544209537760437 20.93155889099046
  endloop
endfacet
facet normal -1.0 2.8707985635330385e-16 1.0927306930227515e-15
  outer loop
    vertex -2.255973186038318e-14 -10.544209537760437 20.93155889099046
    vertex 3.3839597790574766e-14 0.0 25.66336699228085
    vertex -2.255973186038318e-14 -9.500000000000005 20.99999999999997
  endloop
endfacet
facet normal -1.0 2.8707985635330385e-16 1.0927306930227515e-15
  outer loop
    vertex -2.255973186038318e-14 -9.500000000000005 20.99999999999997
    vertex 3.3839597790574766e-14 0.0 25.66336699228085
    vertex 2.255973186038318e-14 -8.455790462239618 20.93155889099046
  endloop
endfacet
facet normal -1.0 2.8707985635330385e-16 1.0927306930227515e-15
  outer loop
    vertex 2.255973186038318e-14 -8.455790462239618 20.93155889099046
    vertex 3.3839597790574766e-14 0.0 25.66336699228085
    vertex -2.255973186038318e-14 -7.429447639179868 20.727406610312517
  endloop
endfacet
facet normal -1.0 2.8707985635330385e-16 1.0927306930227515e-15
  outer loop
    vertex -2.255973186038318e-14 -7.429447639179868 20.727406610312517
    vertex 3.3839597790574766e-14 0.0 25.66336699228085
    vertex 2.255973186038318e-14 -6.438532541079323 20.391036260090274
  endloop
endfacet
facet normal -1.0 2.8707985635330385e-16 1.0927306930227515e-15
  outer loop
    vertex 2.255973186038318e-14 -6.438532541079323 20.391036260090274
    vertex 3.3839597790574766e-14 0.0 25.66336699228085
    vertex 2.255973186038318e-14 -5.500000000000012 19.92820323027549
  endloop
endfacet
facet normal -1.0 2.8707985635330385e-16 1.0927306930227515e-15
  outer loop
    vertex 2.255973186038318e-14 -5.500000000000012 19.92820323027549
    vertex 3.3839597790574766e-14 0.0 25.66336699228085
    vertex 2.255973186038318e-14 -4.62990856793025 19.346826722329862
  endloop
endfacet
facet normal -1.0 2.8707985635330385e-16 1.0927306930227515e-15
  outer loop
    vertex 2.255973186038318e-14 -4.62990856793025 19.346826722329862
    vertex 3.3839597790574766e-14 0.0 25.66336699228085
    vertex -2.255973186038318e-14 -3.843145750507656 18.65685424949236
  endloop
endfacet
facet normal -1.0 2.8707985635330385e-16 1.0927306930227515e-15
  outer loop
    vertex -2.255973186038318e-14 -3.843145750507656 18.65685424949236
    vertex 3.3839597790574766e-14 0.0 25.66336699228085
    vertex 2.255973186038318e-14 -3.153173277670163 17.870091432069742
  endloop
endfacet
facet normal -1.0 2.8707985635330385e-16 1.0927306930227515e-15
  outer loop
    vertex 2.255973186038318e-14 -3.153173277670163 17.870091432069742
    vertex 3.3839597790574766e-14 0.0 25.66336699228085
    vertex -2.255973186038318e-14 -2.5717967697244917 16.99999999999998
  endloop
endfacet
facet normal -1.0 2.8707985635330385e-16 1.0927306930227515e-15
  outer loop
    vertex -2.255973186038318e-14 -2.5717967697244917 16.99999999999998
    vertex 3.3839597790574766e-14 0.0 25.66336699228085
    vertex -2.255973186038318e-14 -2.108963739909685 16.061467458920703
  endloop
endfacet
facet normal -1.0 2.8707985635330385e-16 1.0927306930227515e-15
  outer loop
    vertex -2.255973186038318e-14 -2.108963739909685 16.061467458920703
    vertex 3.3839597790574766e-14 0.0 25.66336699228085
    vertex -2.255973186038318e-14 -1.772593389687474 15.070552360820146
  endloop
endfacet
facet normal -1.0 2.8707985635330385e-16 1.0927306930227515e-15
  outer loop
    vertex -2.255973186038318e-14 -1.772593389687474 15.070552360820146
    vertex 3.3839597790574766e-14 0.0 25.66336699228085
    vertex -2.255973186038318e-14 -1.5684411090095232 14.044209537760398
  endloop
endfacet
facet normal -1.0 2.8707985635330385e-16 1.0927306930227515e-15
  outer loop
    vertex -2.255973186038318e-14 -1.5684411090095232 14.044209537760398
    vertex 3.3839597790574766e-14 0.0 25.66336699228085
    vertex -2.255973186038318e-14 -1.5000000000000198 12.999999999999988
  endloop
endfacet
facet normal -1.0 2.8707985635330385e-16 1.0927306930227515e-15
  outer loop
    vertex 0.0 -19.00000000000001 0.0
    vertex -2.255973186038318e-14 -12.561467458920733 5.608963739909679
    vertex 0.0 0.0 0.0
  endloop
endfacet
facet normal -1.0 2.8707985635330385e-16 1.0927306930227515e-15
  outer loop
    vertex -2.255973186038318e-14 -12.561467458920733 5.608963739909679
    vertex 0.0 -19.00000000000001 0.0
    vertex -2.255973186038318e-14 -13.500000000000043 6.071796769724463
  endloop
endfacet
facet normal -1.0 2.8707985635330385e-16 1.0927306930227515e-15
  outer loop
    vertex -2.255973186038318e-14 -13.500000000000043 6.071796769724463
    vertex 0.0 -19.00000000000001 0.0
    vertex -2.255973186038318e-14 -14.370091432069806 6.6531732776700885
  endloop
endfacet
facet normal -1.0 2.8707985635330385e-16 1.0927306930227515e-15
  outer loop
    vertex -2.255973186038318e-14 -14.370091432069806 6.6531732776700885
    vertex 0.0 -19.00000000000001 0.0
    vertex -2.255973186038318e-14 -15.156854249492422 7.343145750507593
  endloop
endfacet
facet normal -1.0 2.8707985635330385e-16 1.0927306930227515e-15
  outer loop
    vertex -2.255973186038318e-14 -15.156854249492422 7.343145750507593
    vertex 0.0 -19.00000000000001 0.0
    vertex -2.255973186038318e-14 -15.846826722329892 8.12990856793021
  endloop
endfacet
facet normal -1.0 2.8707985635330385e-16 1.0927306930227515e-15
  outer loop
    vertex -2.255973186038318e-14 -15.846826722329892 8.12990856793021
    vertex 0.0 -19.00000000000001 0.0
    vertex -2.255973186038318e-14 -16.428203230275518 8.999999999999972
  endloop
endfacet
facet normal -1.0 2.8707985635330385e-16 1.0927306930227515e-15
  outer loop
    vertex -2.255973186038318e-14 -16.428203230275518 8.999999999999972
    vertex 0.0 -19.00000000000001 0.0
    vertex -2.255973186038318e-14 -16.89103626009028 9.93853254107925
  endloop
endfacet
facet normal -1.0 2.8707985635330385e-16 1.0927306930227515e-15
  outer loop
    vertex -2.255973186038318e-14 -16.89103626009028 9.93853254107925
    vertex 0.0 -19.00000000000001 0.0
    vertex -2.255973186038318e-14 -17.227406610312535 10.929447639179806
  endloop
endfacet
facet normal -1.0 2.8707985635330385e-16 1.0927306930227515e-15
  outer loop
    vertex -2.255973186038318e-14 -17.227406610312535 10.929447639179806
    vertex 0.0 -19.00000000000001 0.0
    vertex -2.255973186038318e-14 -17.431558890990487 11.955790462239555
  endloop
endfacet
facet normal -1.0 2.8707985635330385e-16 1.0927306930227515e-15
  outer loop
    vertex -2.255973186038318e-14 -17.431558890990487 11.955790462239555
    vertex 0.0 -19.00000000000001 0.0
    vertex -2.255973186038318e-14 -17.49999999999999 12.999999999999964
  endloop
endfacet
facet normal -1.0 2.8707985635330385e-16 1.0927306930227515e-15
  outer loop
    vertex 0.0 0.0 0.0
    vertex -2.255973186038318e-14 -12.561467458920733 5.608963739909679
    vertex -2.255973186038318e-14 -11.570552360820187 5.272593389687422
  endloop
endfacet
facet normal -1.0 2.8707985635330385e-16 1.0927306930227515e-15
  outer loop
    vertex 0.0 0.0 0.0
    vertex -2.255973186038318e-14 -11.570552360820187 5.272593389687422
    vertex -2.255973186038318e-14 -10.544209537760437 5.068441109009494
  endloop
endfacet
facet normal -1.0 2.8707985635330385e-16 1.0927306930227515e-15
  outer loop
    vertex 0.0 0.0 0.0
    vertex -2.255973186038318e-14 -10.544209537760437 5.068441109009494
    vertex -2.255973186038318e-14 -9.500000000000005 4.99999999999998
  endloop
endfacet
facet normal -1.0 2.8707985635330385e-16 1.0927306930227515e-15
  outer loop
    vertex 0.0 0.0 0.0
    vertex -2.255973186038318e-14 -9.500000000000005 4.99999999999998
    vertex 2.255973186038318e-14 -8.455790462239618 5.068441109009494
  endloop
endfacet
facet normal -1.0 2.8707985635330385e-16 1.0927306930227515e-15
  outer loop
    vertex 0.0 0.0 0.0
    vertex 2.255973186038318e-14 -8.455790462239618 5.068441109009494
    vertex -2.255973186038318e-14 -7.429447639179823 5.272593389687434
  endloop
endfacet
facet normal -1.0 2.8707985635330385e-16 1.0927306930227515e-15
  outer loop
    vertex 0.0 0.0 0.0
    vertex -2.255973186038318e-14 -7.429447639179823 5.272593389687434
    vertex -2.255973186038318e-14 -6.438532541079323 5.60896373990969
  endloop
endfacet
facet normal -1.0 2.8707985635330385e-16 1.0927306930227515e-15
  outer loop
    vertex 0.0 0.0 0.0
    vertex -2.255973186038318e-14 -6.438532541079323 5.60896373990969
    vertex -2.255973186038318e-14 -5.500000000000012 6.071796769724474
  endloop
endfacet
facet normal -1.0 2.8707985635330385e-16 1.0927306930227515e-15
  outer loop
    vertex 0.0 0.0 0.0
    vertex -2.255973186038318e-14 -5.500000000000012 6.071796769724474
    vertex -2.255973186038318e-14 -4.62990856793025 6.6531732776701
  endloop
endfacet
facet normal -1.0 2.8707985635330385e-16 1.0927306930227515e-15
  outer loop
    vertex 0.0 0.0 0.0
    vertex -2.255973186038318e-14 -4.62990856793025 6.6531732776701
    vertex -2.255973186038318e-14 -3.843145750507656 7.343145750507604
  endloop
endfacet
facet normal -1.0 2.8707985635330385e-16 1.0927306930227515e-15
  outer loop
    vertex 0.0 0.0 0.0
    vertex -2.255973186038318e-14 -3.843145750507656 7.343145750507604
    vertex -2.255973186038318e-14 -3.153173277670163 8.12990856793022
  endloop
endfacet
facet normal -1.0 2.8707985635330385e-16 1.0927306930227515e-15
  outer loop
    vertex 0.0 0.0 0.0
    vertex -2.255973186038318e-14 -3.153173277670163 8.12990856793022
    vertex -2.255973186038318e-14 -2.5717967697244917 8.999999999999984
  endloop
endfacet
facet normal -1.0 2.8707985635330385e-16 1.0927306930227515e-15
  outer loop
    vertex 0.0 0.0 0.0
    vertex -2.255973186038318e-14 -2.5717967697244917 8.999999999999984
    vertex -2.255973186038318e-14 -2.1089637399097074 9.938532541079272
  endloop
endfacet
facet normal -1.0 2.8707985635330385e-16 1.0927306930227515e-15
  outer loop
    vertex 0.0 0.0 0.0
    vertex -2.255973186038318e-14 -2.1089637399097074 9.938532541079272
    vertex -2.255973186038318e-14 -1.772593389687474 10.929447639179816
  endloop
endfacet
facet normal -1.0 2.8707985635330385e-16 1.0927306930227515e-15
  outer loop
    vertex 0.0 0.0 0.0
    vertex -2.255973186038318e-14 -1.772593389687474 10.929447639179816
    vertex -2.255973186038318e-14 -1.5684411090095232 11.955790462239566
  endloop
endfacet
facet normal -1.0 2.8707985635330385e-16 1.0927306930227515e-15
  outer loop
    vertex 0.0 0.0 0.0
    vertex -2.255973186038318e-14 -1.5684411090095232 11.955790462239566
    vertex -2.255973186038318e-14 -1.5000000000000198 12.999999999999988
  endloop
endfacet
facet normal -1.0 2.8707985635330385e-16 1.0927306930227515e-15
  outer loop
    vertex 0.0 0.0 0.0
    vertex -2.255973186038318e-14 -1.5000000000000198 12.999999999999988
    vertex 3.3839597790574766e-14 0.0 25.66336699228085
  endloop
endfacet
facet normal -1.0 0.0 0.0
  outer loop
    vertex -2.255973186038318e-14 -11.570552360820187 20.727406610312517
    vertex -2.255973186038318e-14 -13.499999999999998 19.92820323027549
    vertex -2.255973186038318e-14 -12.561467458920733 20.391036260090264
  endloop
endfacet
facet normal -1.0 0.0 0.0
  outer loop
    vertex -2.255973186038318e-14 -13.499999999999998 19.92820323027549
    vertex -2.255973186038318e-14 -15.1568542494924 18.656854249492348
    vertex -2.255973186038318e-14 -14.37009143206976 19.34682672232985
  endloop
endfacet
facet normal -0.0 -0.0 1.0
  outer loop
    vertex 22.000000000000018 -19.00000000000001 25.66336699228085
    vertex 3.3839597790574766e-14 0.0 25.66336699228085
    vertex 2.255973186038318e-14 -19.00000000000001 25.66336699228085
  endloop
endfacet
facet normal -0.0 -0.0 1.0
  outer loop
    vertex 3.3839597790574766e-14 0.0 25.66336699228085
    vertex 22.000000000000018 -19.00000000000001 25.66336699228085
    vertex 22.000000000000018 0.0 25.66336699228085
  endloop
endfacet
facet normal -2.563605893225363e-16 0.0 -1.0
  outer loop
    vertex 21.999999999999982 0.0 -5.639932965095795e-15
    vertex 0.0 -19.00000000000001 0.0
    vertex 0.0 0.0 0.0
  endloop
endfacet
facet normal -2.563605893225363e-16 0.0 -1.0
  outer loop
    vertex 0.0 -19.00000000000001 0.0
    vertex 21.999999999999982 0.0 -5.639932965095795e-15
    vertex 21.999999999999982 -19.00000000000001 -5.639932965095795e-15
  endloop
endfacet
facet normal 0.7071067811865469 0.0 -0.7071067811865482
  outer loop
    vertex 24.99999999999999 0.0 2.9999999999999947
    vertex 21.999999999999982 -19.00000000000001 -5.639932965095795e-15
    vertex 21.999999999999982 0.0 -5.639932965095795e-15
  endloop
endfacet
facet normal 0.7071067811865469 0.0 -0.7071067811865482
  outer loop
    vertex 21.999999999999982 -19.00000000000001 -5.639932965095795e-15
    vertex 24.99999999999999 0.0 2.9999999999999947
    vertex 24.99999999999999 -19.00000000000001 2.9999999999999947
  endloop
endfacet
facet normal 0.0 -1.0 0.0
  outer loop
    vertex 24.99999999999999 -19.00000000000001 2.9999999999999947
    vertex 0.0 -19.00000000000001 0.0
    vertex 21.999999999999982 -19.00000000000001 -5.639932965095795e-15
  endloop
endfacet
facet normal 0.0 -1.0 0.0
  outer loop
    vertex 0.0 -19.00000000000001 0.0
    vertex 24.99999999999999 -19.00000000000001 2.9999999999999947
    vertex 12.5 -19.00000000000001 1.9999999999999625
  endloop
endfacet
facet normal 0.0 -1.0 0.0
  outer loop
    vertex 12.5 -19.00000000000001 1.9999999999999625
    vertex 24.99999999999999 -19.00000000000001 2.9999999999999947
    vertex 15.34700949612774 -19.00000000000001 2.3748159108202063
  endloop
endfacet
facet normal 0.0 -1.0 0.0
  outer loop
    vertex 15.34700949612774 -19.00000000000001 2.3748159108202063
    vertex 24.99999999999999 -19.00000000000001 2.9999999999999947
    vertex 18.0 -19.00000000000001 3.4737205583711397
  endloop
endfacet
facet normal 0.0 -1.0 0.0
  outer loop
    vertex 18.0 -19.00000000000001 3.4737205583711397
    vertex 24.99999999999999 -19.00000000000001 2.9999999999999947
    vertex 20.278174593052018 -19.00000000000001 5.2218254069479455
  endloop
endfacet
facet normal 0.0 -1.0 0.0
  outer loop
    vertex 20.278174593052018 -19.00000000000001 5.2218254069479455
    vertex 24.99999999999999 -19.00000000000001 2.9999999999999947
    vertex 22.026279441628827 -19.00000000000001 7.499999999999964
  endloop
endfacet
facet normal 0.0 -1.0 0.0
  outer loop
    vertex 22.026279441628827 -19.00000000000001 7.499999999999964
    vertex 24.99999999999999 -19.00000000000001 2.9999999999999947
    vertex 23.125184089179747 -19.00000000000001 10.152990503872237
  endloop
endfacet
facet normal 0.0 -1.0 0.0
  outer loop
    vertex 23.125184089179747 -19.00000000000001 10.152990503872237
    vertex 24.99999999999999 -19.00000000000001 2.9999999999999947
    vertex 25.00000000000001 -19.00000000000001 22.663366992280853
  endloop
endfacet
facet normal 0.0 -1.0 0.0
  outer loop
    vertex 23.125184089179747 -19.00000000000001 10.152990503872237
    vertex 25.00000000000001 -19.00000000000001 22.663366992280853
    vertex 23.500000000000004 -19.00000000000001 12.999999999999964
  endloop
endfacet
facet normal 0.0 -1.0 0.0
  outer loop
    vertex 23.500000000000004 -19.00000000000001 12.999999999999964
    vertex 25.00000000000001 -19.00000000000001 22.663366992280853
    vertex 23.125184089179747 -19.00000000000001 15.847009496127693
  endloop
endfacet
facet normal 0.0 -1.0 0.0
  outer loop
    vertex 23.125184089179747 -19.00000000000001 15.847009496127693
    vertex 25.00000000000001 -19.00000000000001 22.663366992280853
    vertex 22.026279441628812 -19.00000000000001 18.499999999999964
  endloop
endfacet
facet normal 0.0 -1.0 0.0
  outer loop
    vertex 22.026279441628812 -19.00000000000001 18.499999999999964
    vertex 25.00000000000001 -19.00000000000001 22.663366992280853
    vertex 20.278174593052018 -19.00000000000001 20.778174593051986
  endloop
endfacet
facet normal 0.0 -1.0 0.0
  outer loop
    vertex 20.278174593052018 -19.00000000000001 20.778174593051986
    vertex 25.00000000000001 -19.00000000000001 22.663366992280853
    vertex 17.99999999999999 -19.00000000000001 22.52627944162879
  endloop
endfacet
facet normal 0.0 -1.0 0.0
  outer loop
    vertex 17.99999999999999 -19.00000000000001 22.52627944162879
    vertex 25.00000000000001 -19.00000000000001 22.663366992280853
    vertex 15.347009496127717 -19.00000000000001 23.62518408917971
  endloop
endfacet
facet normal 0.0 -1.0 0.0
  outer loop
    vertex 15.347009496127717 -19.00000000000001 23.62518408917971
    vertex 25.00000000000001 -19.00000000000001 22.663366992280853
    vertex 22.000000000000018 -19.00000000000001 25.66336699228085
  endloop
endfacet
facet normal 0.0 -1.0 0.0
  outer loop
    vertex 15.347009496127717 -19.00000000000001 23.62518408917971
    vertex 22.000000000000018 -19.00000000000001 25.66336699228085
    vertex 12.5 -19.00000000000001 23.999999999999968
  endloop
endfacet
facet normal 0.0 -1.0 0.0
  outer loop
    vertex 12.5 -19.00000000000001 1.9999999999999625
    vertex 0.0 -19.00000000000001 1.9999999999999851
    vertex 0.0 -19.00000000000001 0.0
  endloop
endfacet
facet normal 0.0 -1.0 0.0
  outer loop
    vertex 0.0 -19.00000000000001 1.9999999999999851
    vertex 12.5 -19.00000000000001 1.9999999999999625
    vertex 9.652990503872271 -19.00000000000001 2.3748159108202063
  endloop
endfacet
facet normal 0.0 -1.0 0.0
  outer loop
    vertex 0.0 -19.00000000000001 1.9999999999999851
    vertex 9.652990503872271 -19.00000000000001 2.3748159108202063
    vertex 6.999999999999998 -19.00000000000001 3.4737205583711286
  endloop
endfacet
facet normal 0.0 -1.0 0.0
  outer loop
    vertex 0.0 -19.00000000000001 1.9999999999999851
    vertex 6.999999999999998 -19.00000000000001 3.4737205583711286
    vertex 4.72182540694798 -19.00000000000001 5.221825406947934
  endloop
endfacet
facet normal 0.0 -1.0 0.0
  outer loop
    vertex 0.0 -19.00000000000001 1.9999999999999851
    vertex 4.72182540694798 -19.00000000000001 5.221825406947934
    vertex 2.9737205583711632 -19.00000000000001 7.499999999999952
  endloop
endfacet
facet normal 0.0 -1.0 0.0
  outer loop
    vertex 0.0 -19.00000000000001 1.9999999999999851
    vertex 2.9737205583711632 -19.00000000000001 7.499999999999952
    vertex 1.874815910820241 -19.00000000000001 10.152990503872227
  endloop
endfacet
facet normal 0.0 -1.0 0.0
  outer loop
    vertex 0.0 -19.00000000000001 1.9999999999999851
    vertex 1.874815910820241 -19.00000000000001 10.152990503872227
    vertex 1.4999999999999973 -19.00000000000001 12.999999999999964
  endloop
endfacet
facet normal 0.0 -1.0 0.0
  outer loop
    vertex 0.0 -19.00000000000001 1.9999999999999851
    vertex 1.4999999999999973 -19.00000000000001 12.999999999999964
    vertex 2.255973186038318e-14 -19.00000000000001 25.66336699228085
  endloop
endfacet
facet normal 0.0 -1.0 0.0
  outer loop
    vertex 2.255973186038318e-14 -19.00000000000001 25.66336699228085
    vertex 1.4999999999999973 -19.00000000000001 12.999999999999964
    vertex 1.874815910820241 -19.00000000000001 15.847009496127693
  endloop
endfacet
facet normal 0.0 -1.0 0.0
  outer loop
    vertex 2.255973186038318e-14 -19.00000000000001 25.66336699228085
    vertex 1.874815910820241 -19.00000000000001 15.847009496127693
    vertex 2.9737205583711632 -19.00000000000001 18.499999999999964
  endloop
endfacet
facet normal 0.0 -1.0 0.0
  outer loop
    vertex 2.255973186038318e-14 -19.00000000000001 25.66336699228085
    vertex 2.9737205583711632 -19.00000000000001 18.499999999999964
    vertex 4.721825406947969 -19.00000000000001 20.778174593051986
  endloop
endfacet
facet normal 0.0 -1.0 0.0
  outer loop
    vertex 2.255973186038318e-14 -19.00000000000001 25.66336699228085
    vertex 4.721825406947969 -19.00000000000001 20.778174593051986
    vertex 6.999999999999988 -19.00000000000001 22.52627944162879
  endloop
endfacet
facet normal 0.0 -1.0 0.0
  outer loop
    vertex 2.255973186038318e-14 -19.00000000000001 25.66336699228085
    vertex 6.999999999999988 -19.00000000000001 22.52627944162879
    vertex 9.65299050387226 -19.00000000000001 23.62518408917971
  endloop
endfacet
facet normal 0.0 -1.0 0.0
  outer loop
    vertex 2.255973186038318e-14 -19.00000000000001 25.66336699228085
    vertex 9.65299050387226 -19.00000000000001 23.62518408917971
    vertex 12.5 -19.00000000000001 23.999999999999968
  endloop
endfacet
facet normal 0.0 -1.0 0.0
  outer loop
    vertex 2.255973186038318e-14 -19.00000000000001 25.66336699228085
    vertex 12.5 -19.00000000000001 23.999999999999968
    vertex 22.000000000000018 -19.00000000000001 25.66336699228085
  endloop
endfacet
facet normal 0.7071067811865476 -0.0 0.7071067811865476
  outer loop
    vertex 25.00000000000001 0.0 22.663366992280853
    vertex 22.000000000000018 -19.00000000000001 25.66336699228085
    vertex 25.00000000000001 -19.00000000000001 22.663366992280853
  endloop
endfacet
facet normal 0.7071067811865476 -0.0 0.7071067811865476
  outer loop
    vertex 22.000000000000018 -19.00000000000001 25.66336699228085
    vertex 25.00000000000001 0.0 22.663366992280853
    vertex 22.000000000000018 0.0 25.66336699228085
  endloop
endfacet
endsolid Дополнение для ремня-Подшип 22-8мм-Прямой
