solid XT-60-mother
facet normal 1.0 -0.0 -0.0
  outer loop
    vertex 20.0 11.000000000000002 0.0
    vertex 20.0 0.9999999999999999 15.0
    vertex 20.0 0.9999999999999999 0.0
  endloop
endfacet
facet normal 1.0 -0.0 -0.0
  outer loop
    vertex 20.0 0.9999999999999999 15.0
    vertex 20.0 11.000000000000002 0.0
    vertex 20.0 1.9999999999999998 15.0
  endloop
endfacet
facet normal 1.0 -0.0 -0.0
  outer loop
    vertex 20.0 1.9999999999999998 15.0
    vertex 20.0 11.000000000000002 0.0
    vertex 20.0 11.000000000000002 15.0
  endloop
endfacet
facet normal 0.0 -1.0 0.0
  outer loop
    vertex 19.0 0.0 15.0
    vertex 1.9999999999999998 0.0 1.762479051592436e-16
    vertex 19.0 0.0 0.0
  endloop
endfacet
facet normal 0.0 -1.0 0.0
  outer loop
    vertex 1.9999999999999998 0.0 1.762479051592436e-16
    vertex 19.0 0.0 15.0
    vertex 1.9999999999999998 0.0 15.0
  endloop
endfacet
facet normal 0.0 -1.0 0.0
  outer loop
    vertex 1.9999999999999998 0.0 15.0
    vertex 19.0 0.0 15.0
    vertex 18.0 0.0 15.0
  endloop
endfacet
facet normal -1.0 0.0 0.0
  outer loop
    vertex 0.0 10.000000000000002 15.0
    vertex 0.0 1.9999999999999998 1.762479051592436e-16
    vertex 0.0 1.9999999999999998 15.0
  endloop
endfacet
facet normal -1.0 0.0 0.0
  outer loop
    vertex 0.0 1.9999999999999998 1.762479051592436e-16
    vertex 0.0 10.000000000000002 15.0
    vertex 0.0 10.000000000000002 0.001742000000000221
  endloop
endfacet
facet normal -0.0 1.0 -0.0
  outer loop
    vertex 1.9999999999999991 12.0 0.001742000000000221
    vertex 19.0 12.0 15.0
    vertex 19.0 12.0 0.0
  endloop
endfacet
facet normal -0.0 1.0 -0.0
  outer loop
    vertex 19.0 12.0 15.0
    vertex 1.9999999999999991 12.0 0.001742000000000221
    vertex 1.9999999999999991 12.0 15.0
  endloop
endfacet
facet normal 1.0 0.0 0.0
  outer loop
    vertex 1.9999999999999996 7.9999999999999964 0.0
    vertex 1.9999999999999996 3.9999999999999996 15.0
    vertex 1.9999999999999996 3.9999999999999996 0.0
  endloop
endfacet
facet normal 1.0 0.0 0.0
  outer loop
    vertex 1.9999999999999996 3.9999999999999996 15.0
    vertex 1.9999999999999996 7.9999999999999964 0.0
    vertex 1.9999999999999996 7.9999999999999964 15.0
  endloop
endfacet
facet normal 0.7071067811865475 0.7071067811865476 0.0
  outer loop
    vertex 1.9999999999999996 3.9999999999999996 15.0
    vertex 3.9999999999999996 1.9999999999999998 0.0
    vertex 1.9999999999999996 3.9999999999999996 0.0
  endloop
endfacet
facet normal 0.7071067811865475 0.7071067811865476 0.0
  outer loop
    vertex 3.9999999999999996 1.9999999999999998 0.0
    vertex 1.9999999999999996 3.9999999999999996 15.0
    vertex 3.9999999999999996 1.9999999999999998 15.0
  endloop
endfacet
facet normal -0.0 1.0 0.0
  outer loop
    vertex 3.9999999999999996 1.9999999999999998 15.0
    vertex 17.999999999999996 1.9999999999999998 0.0
    vertex 3.9999999999999996 1.9999999999999998 0.0
  endloop
endfacet
facet normal -0.0 1.0 0.0
  outer loop
    vertex 17.999999999999996 1.9999999999999998 0.0
    vertex 3.9999999999999996 1.9999999999999998 15.0
    vertex 17.999999999999996 1.9999999999999998 15.0
  endloop
endfacet
facet normal -1.0 0.0 0.0
  outer loop
    vertex 17.999999999999996 9.999999999999998 15.0
    vertex 17.999999999999996 1.9999999999999998 0.0
    vertex 17.999999999999996 1.9999999999999998 15.0
  endloop
endfacet
facet normal -1.0 0.0 0.0
  outer loop
    vertex 17.999999999999996 1.9999999999999998 0.0
    vertex 17.999999999999996 9.999999999999998 15.0
    vertex 17.999999999999996 9.999999999999998 0.0
  endloop
endfacet
facet normal -0.0 -1.0 -0.0
  outer loop
    vertex 17.999999999999996 9.999999999999998 15.0
    vertex 4.000000000000001 9.999999999999998 0.0
    vertex 17.999999999999996 9.999999999999998 0.0
  endloop
endfacet
facet normal -0.0 -1.0 -0.0
  outer loop
    vertex 4.000000000000001 9.999999999999998 0.0
    vertex 17.999999999999996 9.999999999999998 15.0
    vertex 4.000000000000001 9.999999999999998 15.0
  endloop
endfacet
facet normal 0.7071067811865476 -0.7071067811865475 0.0
  outer loop
    vertex 4.000000000000001 9.999999999999998 0.0
    vertex 1.9999999999999996 7.9999999999999964 15.0
    vertex 1.9999999999999996 7.9999999999999964 0.0
  endloop
endfacet
facet normal 0.7071067811865476 -0.7071067811865475 0.0
  outer loop
    vertex 1.9999999999999996 7.9999999999999964 15.0
    vertex 4.000000000000001 9.999999999999998 0.0
    vertex 4.000000000000001 9.999999999999998 15.0
  endloop
endfacet
facet normal 0.0 0.0 1.0
  outer loop
    vertex 1.9999999999999998 0.0 15.0
    vertex 0.0 10.000000000000002 15.0
    vertex 0.0 1.9999999999999998 15.0
  endloop
endfacet
facet normal 0.0 0.0 1.0
  outer loop
    vertex 0.0 10.000000000000002 15.0
    vertex 1.9999999999999998 0.0 15.0
    vertex 1.9999999999999996 3.9999999999999996 15.0
  endloop
endfacet
facet normal 0.0 0.0 1.0
  outer loop
    vertex 0.0 10.000000000000002 15.0
    vertex 1.9999999999999996 3.9999999999999996 15.0
    vertex 1.9999999999999991 12.0 15.0
  endloop
endfacet
facet normal 0.0 0.0 1.0
  outer loop
    vertex 1.9999999999999996 3.9999999999999996 15.0
    vertex 1.9999999999999998 0.0 15.0
    vertex 3.9999999999999996 1.9999999999999998 15.0
  endloop
endfacet
facet normal 0.0 0.0 1.0
  outer loop
    vertex 3.9999999999999996 1.9999999999999998 15.0
    vertex 1.9999999999999998 0.0 15.0
    vertex 18.0 0.0 15.0
  endloop
endfacet
facet normal 0.0 0.0 1.0
  outer loop
    vertex 3.9999999999999996 1.9999999999999998 15.0
    vertex 18.0 0.0 15.0
    vertex 17.999999999999996 1.9999999999999998 15.0
  endloop
endfacet
facet normal 0.0 0.0 1.0
  outer loop
    vertex 17.999999999999996 1.9999999999999998 15.0
    vertex 18.0 0.0 15.0
    vertex 17.999999999999996 9.999999999999998 15.0
  endloop
endfacet
facet normal 0.0 0.0 1.0
  outer loop
    vertex 1.9999999999999991 12.0 15.0
    vertex 4.000000000000001 9.999999999999998 15.0
    vertex 19.0 12.0 15.0
  endloop
endfacet
facet normal 0.0 0.0 1.0
  outer loop
    vertex 4.000000000000001 9.999999999999998 15.0
    vertex 1.9999999999999991 12.0 15.0
    vertex 1.9999999999999996 7.9999999999999964 15.0
  endloop
endfacet
facet normal 0.0 0.0 1.0
  outer loop
    vertex 1.9999999999999996 7.9999999999999964 15.0
    vertex 1.9999999999999991 12.0 15.0
    vertex 1.9999999999999996 3.9999999999999996 15.0
  endloop
endfacet
facet normal 0.0 0.0 1.0
  outer loop
    vertex 19.0 12.0 15.0
    vertex 4.000000000000001 9.999999999999998 15.0
    vertex 17.999999999999996 9.999999999999998 15.0
  endloop
endfacet
facet normal 0.0 0.0 1.0
  outer loop
    vertex 19.0 12.0 15.0
    vertex 17.999999999999996 9.999999999999998 15.0
    vertex 18.0 0.0 15.0
  endloop
endfacet
facet normal 0.0 0.0 1.0
  outer loop
    vertex 19.0 12.0 15.0
    vertex 18.0 0.0 15.0
    vertex 19.0 0.0 15.0
  endloop
endfacet
facet normal 0.0 0.0 1.0
  outer loop
    vertex 19.0 12.0 15.0
    vertex 19.0 0.0 15.0
    vertex 20.0 0.9999999999999999 15.0
  endloop
endfacet
facet normal 0.0 0.0 1.0
  outer loop
    vertex 19.0 12.0 15.0
    vertex 20.0 0.9999999999999999 15.0
    vertex 20.0 11.000000000000002 15.0
  endloop
endfacet
facet normal 0.0 0.0 1.0
  outer loop
    vertex 20.0 11.000000000000002 15.0
    vertex 20.0 0.9999999999999999 15.0
    vertex 20.0 1.9999999999999998 15.0
  endloop
endfacet
facet normal -0.7071067811865476 -0.7071067811865476 0.0
  outer loop
    vertex 0.0 1.9999999999999998 15.0
    vertex 1.9999999999999998 0.0 1.762479051592436e-16
    vertex 1.9999999999999998 0.0 15.0
  endloop
endfacet
facet normal -0.7071067811865476 -0.7071067811865476 0.0
  outer loop
    vertex 1.9999999999999998 0.0 1.762479051592436e-16
    vertex 0.0 1.9999999999999998 15.0
    vertex 0.0 1.9999999999999998 1.762479051592436e-16
  endloop
endfacet
facet normal -0.7071067811865476 0.7071067811865476 -0.0
  outer loop
    vertex 1.9999999999999991 12.0 15.0
    vertex 0.0 10.000000000000002 0.001742000000000221
    vertex 0.0 10.000000000000002 15.0
  endloop
endfacet
facet normal -0.7071067811865476 0.7071067811865476 -0.0
  outer loop
    vertex 0.0 10.000000000000002 0.001742000000000221
    vertex 1.9999999999999991 12.0 15.0
    vertex 1.9999999999999991 12.0 0.001742000000000221
  endloop
endfacet
facet normal 0.7071067811865472 -0.7071067811865479 0.0
  outer loop
    vertex 20.0 0.9999999999999999 15.0
    vertex 19.0 0.0 0.0
    vertex 20.0 0.9999999999999999 0.0
  endloop
endfacet
facet normal 0.7071067811865472 -0.7071067811865479 0.0
  outer loop
    vertex 19.0 0.0 0.0
    vertex 20.0 0.9999999999999999 15.0
    vertex 19.0 0.0 15.0
  endloop
endfacet
facet normal 0.7071067811865471 0.707106781186548 -0.0
  outer loop
    vertex 19.0 12.0 15.0
    vertex 20.0 11.000000000000002 0.0
    vertex 19.0 12.0 0.0
  endloop
endfacet
facet normal 0.7071067811865471 0.707106781186548 -0.0
  outer loop
    vertex 20.0 11.000000000000002 0.0
    vertex 19.0 12.0 15.0
    vertex 20.0 11.000000000000002 15.0
  endloop
endfacet
facet normal -2.7392351475789474e-05 6.155305887895942e-05 -0.9999999977304401
  outer loop
    vertex 1.9999999999999991 12.0 0.001742000000000221
    vertex 4.000000000000001 9.999999999999998 0.0
    vertex 1.9999999999999996 7.9999999999999964 0.0
  endloop
endfacet
facet normal -2.7392351475789474e-05 6.155305887895942e-05 -0.9999999977304401
  outer loop
    vertex 4.000000000000001 9.999999999999998 0.0
    vertex 1.9999999999999991 12.0 0.001742000000000221
    vertex 19.0 12.0 0.0
  endloop
endfacet
facet normal -2.7392351475789474e-05 6.155305887895942e-05 -0.9999999977304401
  outer loop
    vertex 4.000000000000001 9.999999999999998 0.0
    vertex 19.0 12.0 0.0
    vertex 17.999999999999996 9.999999999999998 0.0
  endloop
endfacet
facet normal -2.7392351475789474e-05 6.155305887895942e-05 -0.9999999977304401
  outer loop
    vertex 17.999999999999996 9.999999999999998 0.0
    vertex 19.0 12.0 0.0
    vertex 17.999999999999996 1.9999999999999998 0.0
  endloop
endfacet
facet normal -2.7392351475789474e-05 6.155305887895942e-05 -0.9999999977304401
  outer loop
    vertex 1.9999999999999991 12.0 0.001742000000000221
    vertex 0.0 1.9999999999999998 1.762479051592436e-16
    vertex 0.0 10.000000000000002 0.001742000000000221
  endloop
endfacet
facet normal -2.7392351475789474e-05 6.155305887895942e-05 -0.9999999977304401
  outer loop
    vertex 0.0 1.9999999999999998 1.762479051592436e-16
    vertex 1.9999999999999991 12.0 0.001742000000000221
    vertex 1.9999999999999996 3.9999999999999996 0.0
  endloop
endfacet
facet normal -2.7392351475789474e-05 6.155305887895942e-05 -0.9999999977304401
  outer loop
    vertex 0.0 1.9999999999999998 1.762479051592436e-16
    vertex 1.9999999999999996 3.9999999999999996 0.0
    vertex 1.9999999999999998 0.0 1.762479051592436e-16
  endloop
endfacet
facet normal -2.7392351475789474e-05 6.155305887895942e-05 -0.9999999977304401
  outer loop
    vertex 1.9999999999999996 3.9999999999999996 0.0
    vertex 1.9999999999999991 12.0 0.001742000000000221
    vertex 1.9999999999999996 7.9999999999999964 0.0
  endloop
endfacet
facet normal -2.7392351475789474e-05 6.155305887895942e-05 -0.9999999977304401
  outer loop
    vertex 1.9999999999999998 0.0 1.762479051592436e-16
    vertex 1.9999999999999996 3.9999999999999996 0.0
    vertex 3.9999999999999996 1.9999999999999998 0.0
  endloop
endfacet
facet normal -2.7392351475789474e-05 6.155305887895942e-05 -0.9999999977304401
  outer loop
    vertex 1.9999999999999998 0.0 1.762479051592436e-16
    vertex 3.9999999999999996 1.9999999999999998 0.0
    vertex 19.0 0.0 0.0
  endloop
endfacet
facet normal -2.7392351475789474e-05 6.155305887895942e-05 -0.9999999977304401
  outer loop
    vertex 19.0 0.0 0.0
    vertex 3.9999999999999996 1.9999999999999998 0.0
    vertex 17.999999999999996 1.9999999999999998 0.0
  endloop
endfacet
facet normal -2.7392351475789474e-05 6.155305887895942e-05 -0.9999999977304401
  outer loop
    vertex 19.0 0.0 0.0
    vertex 17.999999999999996 1.9999999999999998 0.0
    vertex 19.0 12.0 0.0
  endloop
endfacet
facet normal -2.7392351475789474e-05 6.155305887895942e-05 -0.9999999977304401
  outer loop
    vertex 19.0 0.0 0.0
    vertex 19.0 12.0 0.0
    vertex 20.0 11.000000000000002 0.0
  endloop
endfacet
facet normal -2.7392351475789474e-05 6.155305887895942e-05 -0.9999999977304401
  outer loop
    vertex 19.0 0.0 0.0
    vertex 20.0 11.000000000000002 0.0
    vertex 20.0 0.9999999999999999 0.0
  endloop
endfacet
endsolid XT-60-mother
