solid 
   facet normal -1.000000e+000 0.000000e+000 0.000000e+000
      outer loop
         vertex -6.600000e+001 1.510350e+000 -2.877732e+000
         vertex -6.600000e+001 0.000000e+000 -3.250000e+000
         vertex -6.600000e+001 0.000000e+000 -1.400000e+000
      endloop
   endfacet
   facet normal -1.000000e+000 0.000000e+000 0.000000e+000
      outer loop
         vertex -6.600000e+001 -1.510350e+000 -2.877732e+000
         vertex -6.600000e+001 -2.674698e+000 -1.846210e+000
         vertex -6.600000e+001 -9.899495e-001 -9.899495e-001
      endloop
   endfacet
   facet normal -1.000000e+000 0.000000e+000 -0.000000e+000
      outer loop
         vertex -6.600000e+001 -3.226304e+000 -3.917442e-001
         vertex -6.600000e+001 -3.038803e+000 1.152466e+000
         vertex -6.600000e+001 -1.400000e+000 -8.572527e-017
      endloop
   endfacet
   facet normal -1.000000e+000 0.000000e+000 0.000000e+000
      outer loop
         vertex -6.600000e+001 -2.155149e+000 2.432660e+000
         vertex -6.600000e+001 -7.777759e-001 3.155561e+000
         vertex -6.600000e+001 -9.899495e-001 9.899495e-001
      endloop
   endfacet
   facet normal -1.000000e+000 -0.000000e+000 0.000000e+000
      outer loop
         vertex -6.600000e+001 7.777759e-001 3.155561e+000
         vertex -6.600000e+001 2.155149e+000 2.432660e+000
         vertex -6.600000e+001 9.899495e-001 9.899495e-001
      endloop
   endfacet
   facet normal -1.000000e+000 0.000000e+000 0.000000e+000
      outer loop
         vertex -6.600000e+001 3.038803e+000 1.152466e+000
         vertex -6.600000e+001 3.226304e+000 -3.917442e-001
         vertex -6.600000e+001 1.400000e+000 2.571758e-016
      endloop
   endfacet
   facet normal -1.000000e+000 0.000000e+000 0.000000e+000
      outer loop
         vertex -6.600000e+001 2.674698e+000 -1.846210e+000
         vertex -6.600000e+001 1.510350e+000 -2.877732e+000
         vertex -6.600000e+001 9.899495e-001 -9.899495e-001
      endloop
   endfacet
   facet normal -1.000000e+000 0.000000e+000 -0.000000e+000
      outer loop
         vertex -6.600000e+001 0.000000e+000 -1.400000e+000
         vertex -6.600000e+001 9.899495e-001 -9.899495e-001
         vertex -6.600000e+001 1.510350e+000 -2.877732e+000
      endloop
   endfacet
   facet normal -1.000000e+000 0.000000e+000 0.000000e+000
      outer loop
         vertex -6.600000e+001 1.400000e+000 2.571758e-016
         vertex -6.600000e+001 9.899495e-001 9.899495e-001
         vertex -6.600000e+001 3.038803e+000 1.152466e+000
      endloop
   endfacet
   facet normal -1.000000e+000 0.000000e+000 0.000000e+000
      outer loop
         vertex -6.600000e+001 -1.714505e-016 1.400000e+000
         vertex -6.600000e+001 -9.899495e-001 9.899495e-001
         vertex -6.600000e+001 -7.777759e-001 3.155561e+000
      endloop
   endfacet
   facet normal -1.000000e+000 -0.000000e+000 0.000000e+000
      outer loop
         vertex -6.600000e+001 -1.400000e+000 -8.572527e-017
         vertex -6.600000e+001 -9.899495e-001 -9.899495e-001
         vertex -6.600000e+001 -2.674698e+000 -1.846210e+000
      endloop
   endfacet
   facet normal -1.000000e+000 0.000000e+000 -0.000000e+000
      outer loop
         vertex -6.600000e+001 -1.510350e+000 -2.877732e+000
         vertex -6.600000e+001 -9.899495e-001 -9.899495e-001
         vertex -6.600000e+001 0.000000e+000 -1.400000e+000
      endloop
   endfacet
   facet normal -1.000000e+000 0.000000e+000 0.000000e+000
      outer loop
         vertex -6.600000e+001 -2.155149e+000 2.432660e+000
         vertex -6.600000e+001 -9.899495e-001 9.899495e-001
         vertex -6.600000e+001 -3.038803e+000 1.152466e+000
      endloop
   endfacet
   facet normal -1.000000e+000 -0.000000e+000 0.000000e+000
      outer loop
         vertex -6.600000e+001 1.400000e+000 2.571758e-016
         vertex -6.600000e+001 3.226304e+000 -3.917442e-001
         vertex -6.600000e+001 2.674698e+000 -1.846210e+000
      endloop
   endfacet
   facet normal -1.000000e+000 0.000000e+000 0.000000e+000
      outer loop
         vertex -6.600000e+001 -1.714505e-016 1.400000e+000
         vertex -6.600000e+001 -7.777759e-001 3.155561e+000
         vertex -6.600000e+001 7.777759e-001 3.155561e+000
      endloop
   endfacet
   facet normal -1.000000e+000 -0.000000e+000 0.000000e+000
      outer loop
         vertex -6.600000e+001 -3.038803e+000 1.152466e+000
         vertex -6.600000e+001 -9.899495e-001 9.899495e-001
         vertex -6.600000e+001 -1.400000e+000 -8.572527e-017
      endloop
   endfacet
   facet normal -1.000000e+000 0.000000e+000 0.000000e+000
      outer loop
         vertex -6.600000e+001 0.000000e+000 -3.250000e+000
         vertex -6.600000e+001 -1.510350e+000 -2.877732e+000
         vertex -6.600000e+001 0.000000e+000 -1.400000e+000
      endloop
   endfacet
   facet normal -1.000000e+000 -0.000000e+000 0.000000e+000
      outer loop
         vertex -6.600000e+001 2.155149e+000 2.432660e+000
         vertex -6.600000e+001 3.038803e+000 1.152466e+000
         vertex -6.600000e+001 9.899495e-001 9.899495e-001
      endloop
   endfacet
   facet normal -1.000000e+000 0.000000e+000 0.000000e+000
      outer loop
         vertex -6.600000e+001 9.899495e-001 9.899495e-001
         vertex -6.600000e+001 -1.714505e-016 1.400000e+000
         vertex -6.600000e+001 7.777759e-001 3.155561e+000
      endloop
   endfacet
   facet normal -1.000000e+000 0.000000e+000 0.000000e+000
      outer loop
         vertex -6.600000e+001 2.674698e+000 -1.846210e+000
         vertex -6.600000e+001 9.899495e-001 -9.899495e-001
         vertex -6.600000e+001 1.400000e+000 2.571758e-016
      endloop
   endfacet
   facet normal -1.000000e+000 0.000000e+000 0.000000e+000
      outer loop
         vertex -6.600000e+001 -2.674698e+000 -1.846210e+000
         vertex -6.600000e+001 -3.226304e+000 -3.917442e-001
         vertex -6.600000e+001 -1.400000e+000 -8.572527e-017
      endloop
   endfacet
   facet normal -0.000000e+000 -3.826834e-001 -9.238795e-001
      outer loop
         vertex -6.880000e+001 0.000000e+000 -1.400000e+000
         vertex -6.600000e+001 0.000000e+000 -1.400000e+000
         vertex -6.600000e+001 -9.899495e-001 -9.899495e-001
      endloop
   endfacet
   facet normal 0.000000e+000 -9.238795e-001 3.826834e-001
      outer loop
         vertex -6.600000e+001 -1.400000e+000 -8.572527e-017
         vertex -6.600000e+001 -9.899495e-001 9.899495e-001
         vertex -6.880000e+001 -9.899495e-001 9.899495e-001
      endloop
   endfacet
   facet normal 0.000000e+000 3.826834e-001 9.238795e-001
      outer loop
         vertex -6.600000e+001 -1.714505e-016 1.400000e+000
         vertex -6.600000e+001 9.899495e-001 9.899495e-001
         vertex -6.880000e+001 9.899495e-001 9.899495e-001
      endloop
   endfacet
   facet normal 0.000000e+000 9.238795e-001 -3.826834e-001
      outer loop
         vertex -6.600000e+001 1.400000e+000 2.571758e-016
         vertex -6.600000e+001 9.899495e-001 -9.899495e-001
         vertex -6.880000e+001 9.899495e-001 -9.899495e-001
      endloop
   endfacet
   facet normal 0.000000e+000 3.826834e-001 -9.238795e-001
      outer loop
         vertex -6.600000e+001 0.000000e+000 -1.400000e+000
         vertex -6.880000e+001 0.000000e+000 -1.400000e+000
         vertex -6.600000e+001 9.899495e-001 -9.899495e-001
      endloop
   endfacet
   facet normal -0.000000e+000 9.238795e-001 3.826834e-001
      outer loop
         vertex -6.880000e+001 1.400000e+000 2.571758e-016
         vertex -6.880000e+001 9.899495e-001 9.899495e-001
         vertex -6.600000e+001 9.899495e-001 9.899495e-001
      endloop
   endfacet
   facet normal 0.000000e+000 -3.826834e-001 9.238795e-001
      outer loop
         vertex -6.880000e+001 -1.714505e-016 1.400000e+000
         vertex -6.880000e+001 -9.899495e-001 9.899495e-001
         vertex -6.600000e+001 -9.899495e-001 9.899495e-001
      endloop
   endfacet
   facet normal 0.000000e+000 -9.238795e-001 -3.826834e-001
      outer loop
         vertex -6.880000e+001 -1.400000e+000 -8.572527e-017
         vertex -6.880000e+001 -9.899495e-001 -9.899495e-001
         vertex -6.600000e+001 -9.899495e-001 -9.899495e-001
      endloop
   endfacet
   facet normal -0.000000e+000 -3.826834e-001 -9.238795e-001
      outer loop
         vertex -6.880000e+001 0.000000e+000 -1.400000e+000
         vertex -6.600000e+001 -9.899495e-001 -9.899495e-001
         vertex -6.880000e+001 -9.899495e-001 -9.899495e-001
      endloop
   endfacet
   facet normal 0.000000e+000 9.238795e-001 -3.826834e-001
      outer loop
         vertex -6.600000e+001 1.400000e+000 2.571758e-016
         vertex -6.880000e+001 9.899495e-001 -9.899495e-001
         vertex -6.880000e+001 1.400000e+000 2.571758e-016
      endloop
   endfacet
   facet normal 0.000000e+000 9.238795e-001 3.826834e-001
      outer loop
         vertex -6.880000e+001 1.400000e+000 2.571758e-016
         vertex -6.600000e+001 9.899495e-001 9.899495e-001
         vertex -6.600000e+001 1.400000e+000 2.571758e-016
      endloop
   endfacet
   facet normal -0.000000e+000 -9.238795e-001 -3.826834e-001
      outer loop
         vertex -6.600000e+001 -9.899495e-001 -9.899495e-001
         vertex -6.600000e+001 -1.400000e+000 -8.572527e-017
         vertex -6.880000e+001 -1.400000e+000 -8.572527e-017
      endloop
   endfacet
   facet normal 0.000000e+000 3.826834e-001 -9.238795e-001
      outer loop
         vertex -6.880000e+001 0.000000e+000 -1.400000e+000
         vertex -6.880000e+001 9.899495e-001 -9.899495e-001
         vertex -6.600000e+001 9.899495e-001 -9.899495e-001
      endloop
   endfacet
   facet normal 0.000000e+000 -9.238795e-001 3.826834e-001
      outer loop
         vertex -6.880000e+001 -9.899495e-001 9.899495e-001
         vertex -6.880000e+001 -1.400000e+000 -8.572527e-017
         vertex -6.600000e+001 -1.400000e+000 -8.572527e-017
      endloop
   endfacet
   facet normal 0.000000e+000 -3.826834e-001 9.238795e-001
      outer loop
         vertex -6.880000e+001 -1.714505e-016 1.400000e+000
         vertex -6.600000e+001 -9.899495e-001 9.899495e-001
         vertex -6.600000e+001 -1.714505e-016 1.400000e+000
      endloop
   endfacet
   facet normal -0.000000e+000 3.826834e-001 9.238795e-001
      outer loop
         vertex -6.880000e+001 9.899495e-001 9.899495e-001
         vertex -6.880000e+001 -1.714505e-016 1.400000e+000
         vertex -6.600000e+001 -1.714505e-016 1.400000e+000
      endloop
   endfacet
   facet normal -0.000000e+000 -2.393157e-001 -9.709418e-001
      outer loop
         vertex -6.600000e+001 0.000000e+000 -3.250000e+000
         vertex 0.000000e+000 0.000000e+000 -3.250000e+000
         vertex 0.000000e+000 -1.510350e+000 -2.877732e+000
      endloop
   endfacet
   facet normal -0.000000e+000 -9.350163e-001 -3.546048e-001
      outer loop
         vertex 0.000000e+000 -2.674698e+000 -1.846210e+000
         vertex 0.000000e+000 -3.226304e+000 -3.917442e-001
         vertex -6.600000e+001 -3.226304e+000 -3.917442e-001
      endloop
   endfacet
   facet normal 0.000000e+000 -8.229838e-001 5.680648e-001
      outer loop
         vertex 0.000000e+000 -3.038803e+000 1.152466e+000
         vertex 0.000000e+000 -2.155149e+000 2.432660e+000
         vertex -6.600000e+001 -2.155149e+000 2.432660e+000
      endloop
   endfacet
   facet normal 0.000000e+000 0.000000e+000 1.000000e+000
      outer loop
         vertex 0.000000e+000 -7.777759e-001 3.155561e+000
         vertex 0.000000e+000 7.777759e-001 3.155561e+000
         vertex -6.600000e+001 7.777759e-001 3.155561e+000
      endloop
   endfacet
   facet normal 0.000000e+000 8.229838e-001 5.680648e-001
      outer loop
         vertex 0.000000e+000 2.155149e+000 2.432660e+000
         vertex 0.000000e+000 3.038803e+000 1.152466e+000
         vertex -6.600000e+001 3.038803e+000 1.152466e+000
      endloop
   endfacet
   facet normal 0.000000e+000 9.350163e-001 -3.546048e-001
      outer loop
         vertex 0.000000e+000 3.226304e+000 -3.917442e-001
         vertex 0.000000e+000 2.674698e+000 -1.846210e+000
         vertex -6.600000e+001 2.674698e+000 -1.846210e+000
      endloop
   endfacet
   facet normal 0.000000e+000 2.393157e-001 -9.709418e-001
      outer loop
         vertex 0.000000e+000 1.510350e+000 -2.877732e+000
         vertex 0.000000e+000 0.000000e+000 -3.250000e+000
         vertex -6.600000e+001 0.000000e+000 -3.250000e+000
      endloop
   endfacet
   facet normal 0.000000e+000 6.631226e-001 -7.485108e-001
      outer loop
         vertex -6.600000e+001 1.510350e+000 -2.877732e+000
         vertex -6.600000e+001 2.674698e+000 -1.846210e+000
         vertex 0.000000e+000 2.674698e+000 -1.846210e+000
      endloop
   endfacet
   facet normal -0.000000e+000 9.927089e-001 1.205366e-001
      outer loop
         vertex -6.600000e+001 3.226304e+000 -3.917442e-001
         vertex -6.600000e+001 3.038803e+000 1.152466e+000
         vertex 0.000000e+000 3.038803e+000 1.152466e+000
      endloop
   endfacet
   facet normal -0.000000e+000 4.647232e-001 8.854560e-001
      outer loop
         vertex -6.600000e+001 2.155149e+000 2.432660e+000
         vertex -6.600000e+001 7.777759e-001 3.155561e+000
         vertex 0.000000e+000 7.777759e-001 3.155561e+000
      endloop
   endfacet
   facet normal 0.000000e+000 -4.647232e-001 8.854560e-001
      outer loop
         vertex -6.600000e+001 -7.777759e-001 3.155561e+000
         vertex -6.600000e+001 -2.155149e+000 2.432660e+000
         vertex 0.000000e+000 -2.155149e+000 2.432660e+000
      endloop
   endfacet
   facet normal 0.000000e+000 -9.927089e-001 1.205366e-001
      outer loop
         vertex -6.600000e+001 -3.038803e+000 1.152466e+000
         vertex -6.600000e+001 -3.226304e+000 -3.917442e-001
         vertex 0.000000e+000 -3.226304e+000 -3.917442e-001
      endloop
   endfacet
   facet normal 0.000000e+000 -6.631226e-001 -7.485108e-001
      outer loop
         vertex -6.600000e+001 -2.674698e+000 -1.846210e+000
         vertex -6.600000e+001 -1.510350e+000 -2.877732e+000
         vertex 0.000000e+000 -1.510350e+000 -2.877732e+000
      endloop
   endfacet
   facet normal -0.000000e+000 -2.393157e-001 -9.709418e-001
      outer loop
         vertex -6.600000e+001 0.000000e+000 -3.250000e+000
         vertex 0.000000e+000 -1.510350e+000 -2.877732e+000
         vertex -6.600000e+001 -1.510350e+000 -2.877732e+000
      endloop
   endfacet
   facet normal 0.000000e+000 0.000000e+000 1.000000e+000
      outer loop
         vertex 0.000000e+000 -7.777759e-001 3.155561e+000
         vertex -6.600000e+001 7.777759e-001 3.155561e+000
         vertex -6.600000e+001 -7.777759e-001 3.155561e+000
      endloop
   endfacet
   facet normal 0.000000e+000 2.393157e-001 -9.709418e-001
      outer loop
         vertex 0.000000e+000 1.510350e+000 -2.877732e+000
         vertex -6.600000e+001 0.000000e+000 -3.250000e+000
         vertex -6.600000e+001 1.510350e+000 -2.877732e+000
      endloop
   endfacet
   facet normal 0.000000e+000 4.647232e-001 8.854560e-001
      outer loop
         vertex -6.600000e+001 2.155149e+000 2.432660e+000
         vertex 0.000000e+000 7.777759e-001 3.155561e+000
         vertex 0.000000e+000 2.155149e+000 2.432660e+000
      endloop
   endfacet
   facet normal 0.000000e+000 -6.631226e-001 -7.485108e-001
      outer loop
         vertex -6.600000e+001 -2.674698e+000 -1.846210e+000
         vertex 0.000000e+000 -1.510350e+000 -2.877732e+000
         vertex 0.000000e+000 -2.674698e+000 -1.846210e+000
      endloop
   endfacet
   facet normal 0.000000e+000 8.229838e-001 5.680648e-001
      outer loop
         vertex -6.600000e+001 2.155149e+000 2.432660e+000
         vertex 0.000000e+000 2.155149e+000 2.432660e+000
         vertex -6.600000e+001 3.038803e+000 1.152466e+000
      endloop
   endfacet
   facet normal 0.000000e+000 -9.927089e-001 1.205366e-001
      outer loop
         vertex 0.000000e+000 -3.226304e+000 -3.917442e-001
         vertex 0.000000e+000 -3.038803e+000 1.152466e+000
         vertex -6.600000e+001 -3.038803e+000 1.152466e+000
      endloop
   endfacet
   facet normal 0.000000e+000 9.927089e-001 1.205366e-001
      outer loop
         vertex 0.000000e+000 3.038803e+000 1.152466e+000
         vertex 0.000000e+000 3.226304e+000 -3.917442e-001
         vertex -6.600000e+001 3.226304e+000 -3.917442e-001
      endloop
   endfacet
   facet normal 0.000000e+000 9.350163e-001 -3.546048e-001
      outer loop
         vertex -6.600000e+001 2.674698e+000 -1.846210e+000
         vertex -6.600000e+001 3.226304e+000 -3.917442e-001
         vertex 0.000000e+000 3.226304e+000 -3.917442e-001
      endloop
   endfacet
   facet normal 0.000000e+000 -9.350163e-001 -3.546048e-001
      outer loop
         vertex -6.600000e+001 -3.226304e+000 -3.917442e-001
         vertex -6.600000e+001 -2.674698e+000 -1.846210e+000
         vertex 0.000000e+000 -2.674698e+000 -1.846210e+000
      endloop
   endfacet
   facet normal 0.000000e+000 6.631226e-001 -7.485108e-001
      outer loop
         vertex -6.600000e+001 1.510350e+000 -2.877732e+000
         vertex 0.000000e+000 2.674698e+000 -1.846210e+000
         vertex 0.000000e+000 1.510350e+000 -2.877732e+000
      endloop
   endfacet
   facet normal 0.000000e+000 -8.229838e-001 5.680648e-001
      outer loop
         vertex -6.600000e+001 -3.038803e+000 1.152466e+000
         vertex 0.000000e+000 -3.038803e+000 1.152466e+000
         vertex -6.600000e+001 -2.155149e+000 2.432660e+000
      endloop
   endfacet
   facet normal 0.000000e+000 -4.647232e-001 8.854560e-001
      outer loop
         vertex 0.000000e+000 -2.155149e+000 2.432660e+000
         vertex 0.000000e+000 -7.777759e-001 3.155561e+000
         vertex -6.600000e+001 -7.777759e-001 3.155561e+000
      endloop
   endfacet
   facet normal -1.000000e+000 0.000000e+000 0.000000e+000
      outer loop
         vertex -6.880000e+001 9.899495e-001 -9.899495e-001
         vertex -6.880000e+001 0.000000e+000 -1.400000e+000
         vertex -6.880000e+001 -9.899495e-001 9.899495e-001
      endloop
   endfacet
   facet normal -1.000000e+000 0.000000e+000 0.000000e+000
      outer loop
         vertex -6.880000e+001 -9.899495e-001 -9.899495e-001
         vertex -6.880000e+001 -1.400000e+000 -8.572527e-017
         vertex -6.880000e+001 -9.899495e-001 9.899495e-001
      endloop
   endfacet
   facet normal -1.000000e+000 -0.000000e+000 -0.000000e+000
      outer loop
         vertex -6.880000e+001 -1.714505e-016 1.400000e+000
         vertex -6.880000e+001 9.899495e-001 9.899495e-001
         vertex -6.880000e+001 9.899495e-001 -9.899495e-001
      endloop
   endfacet
   facet normal -1.000000e+000 0.000000e+000 0.000000e+000
      outer loop
         vertex -6.880000e+001 9.899495e-001 -9.899495e-001
         vertex -6.880000e+001 -9.899495e-001 9.899495e-001
         vertex -6.880000e+001 -1.714505e-016 1.400000e+000
      endloop
   endfacet
   facet normal -1.000000e+000 0.000000e+000 0.000000e+000
      outer loop
         vertex -6.880000e+001 9.899495e-001 -9.899495e-001
         vertex -6.880000e+001 9.899495e-001 9.899495e-001
         vertex -6.880000e+001 1.400000e+000 2.571758e-016
      endloop
   endfacet
   facet normal -1.000000e+000 0.000000e+000 0.000000e+000
      outer loop
         vertex -6.880000e+001 0.000000e+000 -1.400000e+000
         vertex -6.880000e+001 -9.899495e-001 -9.899495e-001
         vertex -6.880000e+001 -9.899495e-001 9.899495e-001
      endloop
   endfacet
   facet normal 1.000000e+000 -0.000000e+000 0.000000e+000
      outer loop
         vertex 0.000000e+000 -1.500000e+000 -1.500000e+000
         vertex 0.000000e+000 -1.510350e+000 -2.877732e+000
         vertex 0.000000e+000 0.000000e+000 -3.250000e+000
      endloop
   endfacet
   facet normal 1.000000e+000 0.000000e+000 0.000000e+000
      outer loop
         vertex 0.000000e+000 -1.500000e+000 -1.500000e+000
         vertex 0.000000e+000 -3.226304e+000 -3.917442e-001
         vertex 0.000000e+000 -2.674698e+000 -1.846210e+000
      endloop
   endfacet
   facet normal 1.000000e+000 0.000000e+000 0.000000e+000
      outer loop
         vertex 0.000000e+000 -1.500000e+000 1.500000e+000
         vertex 0.000000e+000 -2.155149e+000 2.432660e+000
         vertex 0.000000e+000 -3.038803e+000 1.152466e+000
      endloop
   endfacet
   facet normal 1.000000e+000 0.000000e+000 0.000000e+000
      outer loop
         vertex 0.000000e+000 0.000000e+000 1.500000e+000
         vertex 0.000000e+000 7.777759e-001 3.155561e+000
         vertex 0.000000e+000 -7.777759e-001 3.155561e+000
      endloop
   endfacet
   facet normal 1.000000e+000 0.000000e+000 0.000000e+000
      outer loop
         vertex 0.000000e+000 1.500000e+000 1.500000e+000
         vertex 0.000000e+000 3.038803e+000 1.152466e+000
         vertex 0.000000e+000 2.155149e+000 2.432660e+000
      endloop
   endfacet
   facet normal 1.000000e+000 0.000000e+000 -0.000000e+000
      outer loop
         vertex 0.000000e+000 1.500000e+000 -1.500000e+000
         vertex 0.000000e+000 2.674698e+000 -1.846210e+000
         vertex 0.000000e+000 3.226304e+000 -3.917442e-001
      endloop
   endfacet
   facet normal 1.000000e+000 0.000000e+000 0.000000e+000
      outer loop
         vertex 0.000000e+000 1.500000e+000 -1.500000e+000
         vertex 0.000000e+000 0.000000e+000 -3.250000e+000
         vertex 0.000000e+000 1.510350e+000 -2.877732e+000
      endloop
   endfacet
   facet normal 1.000000e+000 0.000000e+000 -0.000000e+000
      outer loop
         vertex 0.000000e+000 -1.500000e+000 1.500000e+000
         vertex 0.000000e+000 -1.477212e+000 2.604723e-001
         vertex 0.000000e+000 -9.641814e-001 1.149067e+000
      endloop
   endfacet
   facet normal 1.000000e+000 0.000000e+000 0.000000e+000
      outer loop
         vertex 0.000000e+000 -1.500000e+000 -1.500000e+000
         vertex 0.000000e+000 -5.130302e-001 -1.409539e+000
         vertex 0.000000e+000 -1.299038e+000 -7.500000e-001
      endloop
   endfacet
   facet normal 1.000000e+000 0.000000e+000 0.000000e+000
      outer loop
         vertex 0.000000e+000 1.500000e+000 -1.500000e+000
         vertex 0.000000e+000 1.299038e+000 -7.500000e-001
         vertex 0.000000e+000 5.130302e-001 -1.409539e+000
      endloop
   endfacet
   facet normal 1.000000e+000 -0.000000e+000 0.000000e+000
      outer loop
         vertex 0.000000e+000 1.500000e+000 1.500000e+000
         vertex 0.000000e+000 9.641814e-001 1.149067e+000
         vertex 0.000000e+000 1.477212e+000 2.604723e-001
      endloop
   endfacet
   facet normal 1.000000e+000 0.000000e+000 0.000000e+000
      outer loop
         vertex 0.000000e+000 3.226304e+000 -3.917442e-001
         vertex 0.000000e+000 1.500000e+000 1.500000e+000
         vertex 0.000000e+000 1.500000e+000 -1.500000e+000
      endloop
   endfacet
   facet normal 1.000000e+000 0.000000e+000 0.000000e+000
      outer loop
         vertex 0.000000e+000 -1.477212e+000 2.604723e-001
         vertex 0.000000e+000 -1.500000e+000 1.500000e+000
         vertex 0.000000e+000 -1.500000e+000 -1.500000e+000
      endloop
   endfacet
   facet normal 1.000000e+000 0.000000e+000 0.000000e+000
      outer loop
         vertex 0.000000e+000 0.000000e+000 -3.250000e+000
         vertex 0.000000e+000 1.500000e+000 -1.500000e+000
         vertex 0.000000e+000 -1.500000e+000 -1.500000e+000
      endloop
   endfacet
   facet normal 1.000000e+000 0.000000e+000 -0.000000e+000
      outer loop
         vertex 0.000000e+000 -2.674698e+000 -1.846210e+000
         vertex 0.000000e+000 -1.510350e+000 -2.877732e+000
         vertex 0.000000e+000 -1.500000e+000 -1.500000e+000
      endloop
   endfacet
   facet normal 1.000000e+000 -0.000000e+000 0.000000e+000
      outer loop
         vertex 0.000000e+000 -7.777759e-001 3.155561e+000
         vertex 0.000000e+000 -2.155149e+000 2.432660e+000
         vertex 0.000000e+000 -1.500000e+000 1.500000e+000
      endloop
   endfacet
   facet normal 1.000000e+000 0.000000e+000 -0.000000e+000
      outer loop
         vertex 0.000000e+000 7.777759e-001 3.155561e+000
         vertex 0.000000e+000 1.500000e+000 1.500000e+000
         vertex 0.000000e+000 2.155149e+000 2.432660e+000
      endloop
   endfacet
   facet normal 1.000000e+000 0.000000e+000 0.000000e+000
      outer loop
         vertex 0.000000e+000 2.674698e+000 -1.846210e+000
         vertex 0.000000e+000 1.500000e+000 -1.500000e+000
         vertex 0.000000e+000 1.510350e+000 -2.877732e+000
      endloop
   endfacet
   facet normal 1.000000e+000 0.000000e+000 0.000000e+000
      outer loop
         vertex 0.000000e+000 -5.130302e-001 -1.409539e+000
         vertex 0.000000e+000 1.500000e+000 -1.500000e+000
         vertex 0.000000e+000 5.130302e-001 -1.409539e+000
      endloop
   endfacet
   facet normal 1.000000e+000 0.000000e+000 -0.000000e+000
      outer loop
         vertex 0.000000e+000 0.000000e+000 1.500000e+000
         vertex 0.000000e+000 9.641814e-001 1.149067e+000
         vertex 0.000000e+000 1.500000e+000 1.500000e+000
      endloop
   endfacet
   facet normal 1.000000e+000 0.000000e+000 0.000000e+000
      outer loop
         vertex 0.000000e+000 0.000000e+000 1.500000e+000
         vertex 0.000000e+000 -7.777759e-001 3.155561e+000
         vertex 0.000000e+000 -1.500000e+000 1.500000e+000
      endloop
   endfacet
   facet normal 1.000000e+000 0.000000e+000 0.000000e+000
      outer loop
         vertex 0.000000e+000 7.777759e-001 3.155561e+000
         vertex 0.000000e+000 0.000000e+000 1.500000e+000
         vertex 0.000000e+000 1.500000e+000 1.500000e+000
      endloop
   endfacet
   facet normal 1.000000e+000 -0.000000e+000 0.000000e+000
      outer loop
         vertex 0.000000e+000 -1.500000e+000 1.500000e+000
         vertex 0.000000e+000 -3.038803e+000 1.152466e+000
         vertex 0.000000e+000 -3.226304e+000 -3.917442e-001
      endloop
   endfacet
   facet normal 1.000000e+000 0.000000e+000 -0.000000e+000
      outer loop
         vertex 0.000000e+000 -1.500000e+000 1.500000e+000
         vertex 0.000000e+000 -9.641814e-001 1.149067e+000
         vertex 0.000000e+000 0.000000e+000 1.500000e+000
      endloop
   endfacet
   facet normal 1.000000e+000 0.000000e+000 0.000000e+000
      outer loop
         vertex 0.000000e+000 1.500000e+000 -1.500000e+000
         vertex 0.000000e+000 1.477212e+000 2.604723e-001
         vertex 0.000000e+000 1.299038e+000 -7.500000e-001
      endloop
   endfacet
   facet normal 1.000000e+000 0.000000e+000 0.000000e+000
      outer loop
         vertex 0.000000e+000 -5.130302e-001 -1.409539e+000
         vertex 0.000000e+000 -1.500000e+000 -1.500000e+000
         vertex 0.000000e+000 1.500000e+000 -1.500000e+000
      endloop
   endfacet
   facet normal 1.000000e+000 -0.000000e+000 0.000000e+000
      outer loop
         vertex 0.000000e+000 -1.500000e+000 1.500000e+000
         vertex 0.000000e+000 -3.226304e+000 -3.917442e-001
         vertex 0.000000e+000 -1.500000e+000 -1.500000e+000
      endloop
   endfacet
   facet normal 1.000000e+000 0.000000e+000 0.000000e+000
      outer loop
         vertex 0.000000e+000 1.500000e+000 -1.500000e+000
         vertex 0.000000e+000 1.500000e+000 1.500000e+000
         vertex 0.000000e+000 1.477212e+000 2.604723e-001
      endloop
   endfacet
   facet normal 1.000000e+000 0.000000e+000 0.000000e+000
      outer loop
         vertex 0.000000e+000 1.500000e+000 1.500000e+000
         vertex 0.000000e+000 3.226304e+000 -3.917442e-001
         vertex 0.000000e+000 3.038803e+000 1.152466e+000
      endloop
   endfacet
   facet normal 1.000000e+000 0.000000e+000 0.000000e+000
      outer loop
         vertex 0.000000e+000 -1.477212e+000 2.604723e-001
         vertex 0.000000e+000 -1.500000e+000 -1.500000e+000
         vertex 0.000000e+000 -1.299038e+000 -7.500000e-001
      endloop
   endfacet
   facet normal 0.000000e+000 -3.420201e-001 9.396926e-001
      outer loop
         vertex 2.800000e+000 0.000000e+000 1.500000e+000
         vertex 0.000000e+000 0.000000e+000 1.500000e+000
         vertex 0.000000e+000 -9.641814e-001 1.149067e+000
      endloop
   endfacet
   facet normal 0.000000e+000 -9.848078e-001 -1.736482e-001
      outer loop
         vertex 0.000000e+000 -1.477212e+000 2.604723e-001
         vertex 0.000000e+000 -1.299038e+000 -7.500000e-001
         vertex 2.800000e+000 -1.299038e+000 -7.500000e-001
      endloop
   endfacet
   facet normal 0.000000e+000 0.000000e+000 -1.000000e+000
      outer loop
         vertex 0.000000e+000 -5.130302e-001 -1.409539e+000
         vertex 0.000000e+000 5.130302e-001 -1.409539e+000
         vertex 2.800000e+000 5.130302e-001 -1.409539e+000
      endloop
   endfacet
   facet normal 0.000000e+000 9.848078e-001 -1.736482e-001
      outer loop
         vertex 0.000000e+000 1.299038e+000 -7.500000e-001
         vertex 0.000000e+000 1.477212e+000 2.604723e-001
         vertex 2.800000e+000 1.477212e+000 2.604723e-001
      endloop
   endfacet
   facet normal -0.000000e+000 3.420201e-001 9.396926e-001
      outer loop
         vertex 0.000000e+000 9.641814e-001 1.149067e+000
         vertex 0.000000e+000 0.000000e+000 1.500000e+000
         vertex 2.800000e+000 0.000000e+000 1.500000e+000
      endloop
   endfacet
   facet normal 0.000000e+000 8.660254e-001 5.000000e-001
      outer loop
         vertex 2.800000e+000 9.641814e-001 1.149067e+000
         vertex 2.800000e+000 1.477212e+000 2.604723e-001
         vertex 0.000000e+000 1.477212e+000 2.604723e-001
      endloop
   endfacet
   facet normal 0.000000e+000 6.427877e-001 -7.660444e-001
      outer loop
         vertex 2.800000e+000 1.299038e+000 -7.500000e-001
         vertex 2.800000e+000 5.130302e-001 -1.409539e+000
         vertex 0.000000e+000 5.130302e-001 -1.409539e+000
      endloop
   endfacet
   facet normal -0.000000e+000 -6.427877e-001 -7.660444e-001
      outer loop
         vertex 2.800000e+000 -5.130302e-001 -1.409539e+000
         vertex 2.800000e+000 -1.299038e+000 -7.500000e-001
         vertex 0.000000e+000 -1.299038e+000 -7.500000e-001
      endloop
   endfacet
   facet normal 0.000000e+000 -8.660254e-001 5.000000e-001
      outer loop
         vertex 2.800000e+000 -1.477212e+000 2.604723e-001
         vertex 2.800000e+000 -9.641814e-001 1.149067e+000
         vertex 0.000000e+000 -9.641814e-001 1.149067e+000
      endloop
   endfacet
   facet normal 0.000000e+000 -3.420201e-001 9.396926e-001
      outer loop
         vertex 2.800000e+000 0.000000e+000 1.500000e+000
         vertex 0.000000e+000 -9.641814e-001 1.149067e+000
         vertex 2.800000e+000 -9.641814e-001 1.149067e+000
      endloop
   endfacet
   facet normal 0.000000e+000 9.848078e-001 -1.736482e-001
      outer loop
         vertex 0.000000e+000 1.299038e+000 -7.500000e-001
         vertex 2.800000e+000 1.477212e+000 2.604723e-001
         vertex 2.800000e+000 1.299038e+000 -7.500000e-001
      endloop
   endfacet
   facet normal 0.000000e+000 6.427877e-001 -7.660444e-001
      outer loop
         vertex 2.800000e+000 1.299038e+000 -7.500000e-001
         vertex 0.000000e+000 5.130302e-001 -1.409539e+000
         vertex 0.000000e+000 1.299038e+000 -7.500000e-001
      endloop
   endfacet
   facet normal 0.000000e+000 -8.660254e-001 5.000000e-001
      outer loop
         vertex 0.000000e+000 -9.641814e-001 1.149067e+000
         vertex 0.000000e+000 -1.477212e+000 2.604723e-001
         vertex 2.800000e+000 -1.477212e+000 2.604723e-001
      endloop
   endfacet
   facet normal -0.000000e+000 8.660254e-001 5.000000e-001
      outer loop
         vertex 0.000000e+000 1.477212e+000 2.604723e-001
         vertex 0.000000e+000 9.641814e-001 1.149067e+000
         vertex 2.800000e+000 9.641814e-001 1.149067e+000
      endloop
   endfacet
   facet normal 0.000000e+000 0.000000e+000 -1.000000e+000
      outer loop
         vertex 2.800000e+000 5.130302e-001 -1.409539e+000
         vertex 2.800000e+000 -5.130302e-001 -1.409539e+000
         vertex 0.000000e+000 -5.130302e-001 -1.409539e+000
      endloop
   endfacet
   facet normal 0.000000e+000 -9.848078e-001 -1.736482e-001
      outer loop
         vertex 0.000000e+000 -1.477212e+000 2.604723e-001
         vertex 2.800000e+000 -1.299038e+000 -7.500000e-001
         vertex 2.800000e+000 -1.477212e+000 2.604723e-001
      endloop
   endfacet
   facet normal -0.000000e+000 3.420201e-001 9.396926e-001
      outer loop
         vertex 2.800000e+000 9.641814e-001 1.149067e+000
         vertex 0.000000e+000 9.641814e-001 1.149067e+000
         vertex 2.800000e+000 0.000000e+000 1.500000e+000
      endloop
   endfacet
   facet normal 0.000000e+000 -6.427877e-001 -7.660444e-001
      outer loop
         vertex 0.000000e+000 -1.299038e+000 -7.500000e-001
         vertex 0.000000e+000 -5.130302e-001 -1.409539e+000
         vertex 2.800000e+000 -5.130302e-001 -1.409539e+000
      endloop
   endfacet
   facet normal 1.000000e+000 0.000000e+000 0.000000e+000
      outer loop
         vertex 2.800000e+000 9.641814e-001 1.149067e+000
         vertex 2.800000e+000 0.000000e+000 1.500000e+000
         vertex 2.800000e+000 -9.641814e-001 1.149067e+000
      endloop
   endfacet
   facet normal 1.000000e+000 0.000000e+000 -0.000000e+000
      outer loop
         vertex 2.800000e+000 -1.477212e+000 2.604723e-001
         vertex 2.800000e+000 -1.299038e+000 -7.500000e-001
         vertex 2.800000e+000 9.641814e-001 1.149067e+000
      endloop
   endfacet
   facet normal 1.000000e+000 0.000000e+000 -0.000000e+000
      outer loop
         vertex 2.800000e+000 -5.130302e-001 -1.409539e+000
         vertex 2.800000e+000 5.130302e-001 -1.409539e+000
         vertex 2.800000e+000 9.641814e-001 1.149067e+000
      endloop
   endfacet
   facet normal 1.000000e+000 0.000000e+000 0.000000e+000
      outer loop
         vertex 2.800000e+000 1.299038e+000 -7.500000e-001
         vertex 2.800000e+000 1.477212e+000 2.604723e-001
         vertex 2.800000e+000 9.641814e-001 1.149067e+000
      endloop
   endfacet
   facet normal 1.000000e+000 0.000000e+000 0.000000e+000
      outer loop
         vertex 2.800000e+000 -1.477212e+000 2.604723e-001
         vertex 2.800000e+000 9.641814e-001 1.149067e+000
         vertex 2.800000e+000 -9.641814e-001 1.149067e+000
      endloop
   endfacet
   facet normal 1.000000e+000 0.000000e+000 0.000000e+000
      outer loop
         vertex 2.800000e+000 1.299038e+000 -7.500000e-001
         vertex 2.800000e+000 9.641814e-001 1.149067e+000
         vertex 2.800000e+000 5.130302e-001 -1.409539e+000
      endloop
   endfacet
   facet normal 1.000000e+000 0.000000e+000 -0.000000e+000
      outer loop
         vertex 2.800000e+000 -1.299038e+000 -7.500000e-001
         vertex 2.800000e+000 -5.130302e-001 -1.409539e+000
         vertex 2.800000e+000 9.641814e-001 1.149067e+000
      endloop
   endfacet
endsolid
