solid СторонаДругая-8mm
facet normal 1.0 1.211344373287482e-16 2.4003615602673176e-14
  outer loop
    vertex 15.999999999999963 10.0511112605664 14.611771432346284
    vertex 15.999999999999917 10.0511112605664 15.388228567653853
    vertex 15.999999999999929 10.000000000000002 15.00000000000007
  endloop
endfacet
facet normal 1.0 1.211344373287482e-16 2.4003615602673176e-14
  outer loop
    vertex 15.999999999999917 10.0511112605664 15.388228567653853
    vertex 15.999999999999963 10.0511112605664 14.611771432346284
    vertex 15.999999999999963 10.200961894323342 14.250000000000048
  endloop
endfacet
facet normal 1.0 1.211344373287482e-16 2.4003615602673176e-14
  outer loop
    vertex 15.999999999999917 10.0511112605664 15.388228567653853
    vertex 15.999999999999963 10.200961894323342 14.250000000000048
    vertex 15.999999999999929 10.200961894323344 15.750000000000062
  endloop
endfacet
facet normal 1.0 1.211344373287482e-16 2.4003615602673176e-14
  outer loop
    vertex 15.999999999999929 10.200961894323344 15.750000000000062
    vertex 15.999999999999963 10.200961894323342 14.250000000000048
    vertex 15.999999999999968 10.39279364131807 14.000000000000076
  endloop
endfacet
facet normal 1.0 1.211344373287482e-16 2.4003615602673176e-14
  outer loop
    vertex 15.999999999999929 10.200961894323344 15.750000000000062
    vertex 15.999999999999968 10.39279364131807 14.000000000000076
    vertex 15.999999999999906 10.43933982822018 16.060660171779887
  endloop
endfacet
facet normal 1.0 1.211344373287482e-16 2.4003615602673176e-14
  outer loop
    vertex 15.999999999999906 10.43933982822018 16.060660171779887
    vertex 15.999999999999968 10.39279364131807 14.000000000000076
    vertex 15.999999999999964 12.607206358681932 14.000000000000076
  endloop
endfacet
facet normal 1.0 1.211344373287482e-16 2.4003615602673176e-14
  outer loop
    vertex 15.999999999999906 10.43933982822018 16.060660171779887
    vertex 15.999999999999964 12.607206358681932 14.000000000000076
    vertex 15.999999999999906 10.750000000000002 16.2990381056767
  endloop
endfacet
facet normal 1.0 1.211344373287482e-16 2.4003615602673176e-14
  outer loop
    vertex 15.999999999999906 10.750000000000002 16.2990381056767
    vertex 15.999999999999964 12.607206358681932 14.000000000000076
    vertex 15.999999999999917 11.11177143234622 16.44888873943367
  endloop
endfacet
facet normal 1.0 1.211344373287482e-16 2.4003615602673176e-14
  outer loop
    vertex 15.999999999999917 11.11177143234622 16.44888873943367
    vertex 15.999999999999964 12.607206358681932 14.000000000000076
    vertex 15.999999999999917 11.500000000000002 16.50000000000006
  endloop
endfacet
facet normal 1.0 1.211344373287482e-16 2.4003615602673176e-14
  outer loop
    vertex 15.999999999999917 11.500000000000002 16.50000000000006
    vertex 15.999999999999964 12.607206358681932 14.000000000000076
    vertex 15.999999999999917 11.888228567653783 16.44888873943367
  endloop
endfacet
facet normal 1.0 1.211344373287482e-16 2.4003615602673176e-14
  outer loop
    vertex 15.999999999999917 11.888228567653783 16.44888873943367
    vertex 15.999999999999964 12.607206358681932 14.000000000000076
    vertex 15.999999999999906 12.250000000000002 16.2990381056767
  endloop
endfacet
facet normal 1.0 1.211344373287482e-16 2.4003615602673176e-14
  outer loop
    vertex 15.999999999999906 12.250000000000002 16.2990381056767
    vertex 15.999999999999964 12.607206358681932 14.000000000000076
    vertex 15.999999999999906 12.560660171779823 16.060660171779887
  endloop
endfacet
facet normal 1.0 1.211344373287482e-16 2.4003615602673176e-14
  outer loop
    vertex 15.999999999999906 12.560660171779823 16.060660171779887
    vertex 15.999999999999964 12.607206358681932 14.000000000000076
    vertex 15.999999999999929 12.79903810567666 15.750000000000062
  endloop
endfacet
facet normal 1.0 1.211344373287482e-16 2.4003615602673176e-14
  outer loop
    vertex 15.999999999999929 12.79903810567666 15.750000000000062
    vertex 15.999999999999964 12.607206358681932 14.000000000000076
    vertex 15.999999999999963 12.79903810567666 14.250000000000048
  endloop
endfacet
facet normal 1.0 1.211344373287482e-16 2.4003615602673176e-14
  outer loop
    vertex 15.999999999999929 12.79903810567666 15.750000000000062
    vertex 15.999999999999963 12.79903810567666 14.250000000000048
    vertex 15.999999999999963 12.948888739433604 14.611771432346284
  endloop
endfacet
facet normal 1.0 1.211344373287482e-16 2.4003615602673176e-14
  outer loop
    vertex 15.999999999999929 12.79903810567666 15.750000000000062
    vertex 15.999999999999963 12.948888739433604 14.611771432346284
    vertex 15.999999999999917 12.948888739433604 15.388228567653853
  endloop
endfacet
facet normal 1.0 1.211344373287482e-16 2.4003615602673176e-14
  outer loop
    vertex 15.999999999999917 12.948888739433604 15.388228567653853
    vertex 15.999999999999963 12.948888739433604 14.611771432346284
    vertex 15.999999999999929 13.000000000000002 15.00000000000007
  endloop
endfacet
facet normal 1.0 -2.964800122578542e-17 6.657132757506148e-17
  outer loop
    vertex 0.999999999999983 3.524958103184872e-16 4.999999999999975
    vertex 0.999999999999984 50.00000000000001 10.999999999999973
    vertex 0.9999999999999823 -2.9609648066752923e-16 10.999999999999977
  endloop
endfacet
facet normal 1.0 -2.964800122578542e-17 6.657132757506148e-17
  outer loop
    vertex 0.999999999999984 50.00000000000001 10.999999999999973
    vertex 0.999999999999983 3.524958103184872e-16 4.999999999999975
    vertex 0.9999999999999827 4.000000000000001 4.999999999999975
  endloop
endfacet
facet normal 1.0 -2.964800122578542e-17 6.657132757506148e-17
  outer loop
    vertex 0.999999999999984 50.00000000000001 10.999999999999973
    vertex 0.9999999999999827 4.000000000000001 4.999999999999975
    vertex 0.999999999999984 50.00000000000001 4.999999999999976
  endloop
endfacet
facet normal -1.0 5.287437154777307e-17 -3.3291270974523887e-16
  outer loop
    vertex -2.0000000000000155 50.00000000000001 10.999999999999973
    vertex -2.0000000000000155 8.698267177546323e-16 2.2460142858822025e-15
    vertex -2.000000000000018 -2.9609648066752923e-16 10.999999999999977
  endloop
endfacet
facet normal -1.0 5.287437154777307e-17 -3.3291270974523887e-16
  outer loop
    vertex -2.0000000000000155 8.698267177546323e-16 2.2460142858822025e-15
    vertex -2.0000000000000155 50.00000000000001 10.999999999999973
    vertex -2.0000000000000124 50.00000000000001 4.835352342897673e-16
  endloop
endfacet
facet normal -5.301473975129011e-33 2.8199664825478977e-17 1.0
  outer loop
    vertex 0.9999999999999823 -2.9609648066752923e-16 10.999999999999977
    vertex -2.0000000000000155 50.00000000000001 10.999999999999973
    vertex -2.000000000000018 -2.9609648066752923e-16 10.999999999999977
  endloop
endfacet
facet normal -5.301473975129011e-33 2.8199664825478977e-17 1.0
  outer loop
    vertex -2.0000000000000155 50.00000000000001 10.999999999999973
    vertex 0.9999999999999823 -2.9609648066752923e-16 10.999999999999977
    vertex 0.999999999999984 50.00000000000001 10.999999999999973
  endloop
endfacet
facet normal -1.8045329540403582e-16 -1.438243463718952e-17 1.0
  outer loop
    vertex 0.999999999999983 3.524958103184872e-16 4.999999999999975
    vertex 0.999999999999984 50.00000000000001 4.999999999999976
    vertex 0.9999999999999827 4.000000000000001 4.999999999999975
  endloop
endfacet
facet normal -1.8045329540403582e-16 -1.438243463718952e-17 1.0
  outer loop
    vertex 0.999999999999984 50.00000000000001 4.999999999999976
    vertex 0.999999999999983 3.524958103184872e-16 4.999999999999975
    vertex 4.999999999999982 3.524958103184872e-16 4.999999999999976
  endloop
endfacet
facet normal -1.8045329540403582e-16 -1.438243463718952e-17 1.0
  outer loop
    vertex 0.999999999999984 50.00000000000001 4.999999999999976
    vertex 4.999999999999982 3.524958103184872e-16 4.999999999999976
    vertex 4.999999999999984 50.00000000000001 4.999999999999977
  endloop
endfacet
facet normal -1.0 -5.452063002288394e-17 -9.101149473756696e-16
  outer loop
    vertex 4.999999999999972 4.5824455341403335e-15 20.000000000000032
    vertex 4.999999999999984 50.00000000000001 4.999999999999977
    vertex 4.999999999999982 3.524958103184872e-16 4.999999999999976
  endloop
endfacet
facet normal -1.0 -5.452063002288394e-17 -9.101149473756696e-16
  outer loop
    vertex 4.999999999999984 50.00000000000001 4.999999999999977
    vertex 4.999999999999972 4.5824455341403335e-15 20.000000000000032
    vertex 4.999999999999966 50.00000000000001 20.000000000000025
  endloop
endfacet
facet normal -0.3826834323650902 8.711017508281385e-17 0.9238795325112867
  outer loop
    vertex 17.035276180410055 -2.5560558987189442e-15 6.136296694843809
    vertex 17.999999999999968 50.0 6.535898384862321
    vertex 17.03527618041005 50.0 6.136296694843801
  endloop
endfacet
facet normal -0.3826834323650902 8.711017508281385e-17 0.9238795325112867
  outer loop
    vertex 17.999999999999968 50.0 6.535898384862321
    vertex 17.035276180410055 -2.5560558987189442e-15 6.136296694843809
    vertex 17.99999999999997 -2.529674141452404e-15 6.535898384862326
  endloop
endfacet
facet normal -0.6087614290087213 2.0824322825659553e-17 0.7933533402912347
  outer loop
    vertex 17.99999999999997 -2.529674141452404e-15 6.535898384862326
    vertex 18.828427124746156 50.0 7.171572875253886
    vertex 17.999999999999968 50.0 6.535898384862321
  endloop
endfacet
facet normal -0.6087614290087213 2.0824322825659553e-17 0.7933533402912347
  outer loop
    vertex 18.828427124746156 50.0 7.171572875253886
    vertex 17.99999999999997 -2.529674141452404e-15 6.535898384862326
    vertex 18.828427124746163 -2.4553519718522927e-15 7.171572875253892
  endloop
endfacet
facet normal -0.7933533402912347 -2.0824322825659553e-17 0.6087614290087213
  outer loop
    vertex 19.46410161513773 -2.3381543229536636e-15 8.000000000000082
    vertex 18.828427124746156 50.0 7.171572875253886
    vertex 18.828427124746163 -2.4553519718522927e-15 7.171572875253892
  endloop
endfacet
facet normal -0.7933533402912347 -2.0824322825659553e-17 0.6087614290087213
  outer loop
    vertex 18.828427124746156 50.0 7.171572875253886
    vertex 19.46410161513773 -2.3381543229536636e-15 8.000000000000082
    vertex 19.46410161513772 50.0 8.000000000000076
  endloop
endfacet
facet normal -0.9238795325112871 -6.105382529023104e-17 0.38268343236508895
  outer loop
    vertex 19.863703305156246 -2.186068020850688e-15 8.964723819589997
    vertex 19.46410161513772 50.0 8.000000000000076
    vertex 19.46410161513773 -2.3381543229536636e-15 8.000000000000082
  endloop
endfacet
facet normal -0.9238795325112871 -6.105382529023104e-17 0.38268343236508895
  outer loop
    vertex 19.46410161513772 50.0 8.000000000000076
    vertex 19.863703305156246 -2.186068020850688e-15 8.964723819589997
    vertex 19.86370330515624 50.0 8.964723819589992
  endloop
endfacet
facet normal -0.9914448613738105 -9.701165050675449e-17 0.1305261922200518
  outer loop
    vertex 19.99999999999997 -2.0094574956971848e-15 10.00000000000008
    vertex 19.86370330515624 50.0 8.964723819589992
    vertex 19.863703305156246 -2.186068020850688e-15 8.964723819589997
  endloop
endfacet
facet normal -0.9914448613738105 -9.701165050675449e-17 0.1305261922200518
  outer loop
    vertex 19.86370330515624 50.0 8.964723819589992
    vertex 19.99999999999997 -2.0094574956971848e-15 10.00000000000008
    vertex 19.999999999999964 50.0 10.000000000000075
  endloop
endfacet
facet normal -0.9914448613738105 -1.26461690274038e-16 -0.13052619222005146
  outer loop
    vertex 19.863703305156246 -1.820358462919672e-15 11.035276180410166
    vertex 19.999999999999964 50.0 10.000000000000075
    vertex 19.99999999999997 -2.0094574956971848e-15 10.00000000000008
  endloop
endfacet
facet normal -0.9914448613738105 -1.26461690274038e-16 -0.13052619222005146
  outer loop
    vertex 19.999999999999964 50.0 10.000000000000075
    vertex 19.863703305156246 -1.820358462919672e-15 11.035276180410166
    vertex 19.86370330515624 50.0 11.03527618041016
  endloop
endfacet
facet normal -0.923879532511286 -1.4739697305043306e-16 -0.3826834323650917
  outer loop
    vertex 19.464101615137725 -1.6316577091010123e-15 12.000000000000082
    vertex 19.86370330515624 50.0 11.03527618041016
    vertex 19.863703305156246 -1.820358462919672e-15 11.035276180410166
  endloop
endfacet
facet normal -0.923879532511286 -1.4739697305043306e-16 -0.3826834323650917
  outer loop
    vertex 19.86370330515624 50.0 11.03527618041016
    vertex 19.464101615137725 -1.6316577091010123e-15 12.000000000000082
    vertex 19.464101615137718 50.0 12.000000000000075
  endloop
endfacet
facet normal -0.7933533402912349 -1.750729258294028e-16 -0.608761429008721
  outer loop
    vertex 18.828427124746163 -1.4562148787712055e-15 12.82842712474627
    vertex 19.464101615137718 50.0 12.000000000000075
    vertex 19.464101615137725 -1.6316577091010123e-15 12.000000000000082
  endloop
endfacet
facet normal -0.7933533402912349 -1.750729258294028e-16 -0.608761429008721
  outer loop
    vertex 19.464101615137718 50.0 12.000000000000075
    vertex 18.828427124746163 -1.4562148787712055e-15 12.82842712474627
    vertex 18.828427124746156 50.0 12.828427124746261
  endloop
endfacet
facet normal -0.60876142900872 -2.029266253910658e-16 -0.7933533402912357
  outer loop
    vertex 18.828427124746156 50.0 12.828427124746261
    vertex 17.99999999999997 -1.3059861108842423e-15 13.464101615137833
    vertex 17.999999999999964 50.0 13.464101615137826
  endloop
endfacet
facet normal -0.60876142900872 -2.029266253910658e-16 -0.7933533402912357
  outer loop
    vertex 17.99999999999997 -1.3059861108842423e-15 13.464101615137833
    vertex 18.828427124746156 50.0 12.828427124746261
    vertex 18.828427124746163 -1.4562148787712055e-15 12.82842712474627
  endloop
endfacet
facet normal -0.38268343236508895 -1.9950967263559885e-16 -0.9238795325112871
  outer loop
    vertex 17.999999999999964 50.0 13.464101615137826
    vertex 17.035276180410055 -1.1912092477068427e-15 13.863703305156351
    vertex 17.035276180410047 50.0 13.863703305156344
  endloop
endfacet
facet normal -0.38268343236508895 -1.9950967263559885e-16 -0.9238795325112871
  outer loop
    vertex 17.035276180410055 -1.1912092477068427e-15 13.863703305156351
    vertex 17.999999999999964 50.0 13.464101615137826
    vertex 17.99999999999997 -1.3059861108842423e-15 13.464101615137833
  endloop
endfacet
facet normal -0.13052619222005143 -1.7447181467997525e-16 -0.9914448613738105
  outer loop
    vertex 15.999999999999968 50.0 14.000000000000071
    vertex 15.999999999999968 10.39279364131807 14.000000000000076
    vertex 15.999999999999964 12.607206358681932 14.000000000000076
  endloop
endfacet
facet normal -0.13052619222005143 -1.7447181467997525e-16 -0.9914448613738105
  outer loop
    vertex 15.999999999999968 10.39279364131807 14.000000000000076
    vertex 15.999999999999968 50.0 14.000000000000071
    vertex 17.035276180410047 50.0 13.863703305156344
  endloop
endfacet
facet normal -0.13052619222005143 -1.7447181467997525e-16 -0.9914448613738105
  outer loop
    vertex 15.999999999999968 10.39279364131807 14.000000000000076
    vertex 17.035276180410047 50.0 13.863703305156344
    vertex 15.999999999999973 -1.1197061427868112e-15 14.000000000000078
  endloop
endfacet
facet normal -0.13052619222005143 -1.7447181467997525e-16 -0.9914448613738105
  outer loop
    vertex 15.999999999999973 -1.1197061427868112e-15 14.000000000000078
    vertex 17.035276180410047 50.0 13.863703305156344
    vertex 17.035276180410055 -1.1912092477068427e-15 13.863703305156351
  endloop
endfacet
facet normal 0.1305261922200514 -1.5224146335782682e-16 -0.9914448613738105
  outer loop
    vertex 15.999999999999968 50.0 14.000000000000071
    vertex 14.964723819589889 -1.0963496145599801e-15 13.863703305156351
    vertex 14.964723819589883 50.0 13.863703305156344
  endloop
endfacet
facet normal 0.1305261922200514 -1.5224146335782682e-16 -0.9914448613738105
  outer loop
    vertex 14.964723819589889 -1.0963496145599801e-15 13.863703305156351
    vertex 15.999999999999968 50.0 14.000000000000071
    vertex 15.999999999999964 12.607206358681932 14.000000000000076
  endloop
endfacet
facet normal 0.1305261922200514 -1.5224146335782682e-16 -0.9914448613738105
  outer loop
    vertex 15.999999999999964 12.607206358681932 14.000000000000076
    vertex 15.999999999999973 -1.1197061427868112e-15 14.000000000000078
    vertex 14.964723819589889 -1.0963496145599801e-15 13.863703305156351
  endloop
endfacet
facet normal 0.1305261922200514 -1.5224146335782682e-16 -0.9914448613738105
  outer loop
    vertex 15.999999999999973 -1.1197061427868112e-15 14.000000000000078
    vertex 15.999999999999964 12.607206358681932 14.000000000000076
    vertex 15.999999999999968 10.39279364131807 14.000000000000076
  endloop
endfacet
facet normal 0.3826834323650913 -1.1316652487539662e-16 -0.9238795325112862
  outer loop
    vertex 14.964723819589883 50.0 13.863703305156344
    vertex 13.999999999999972 -1.1227313718265206e-15 13.464101615137832
    vertex 13.999999999999966 50.0 13.464101615137823
  endloop
endfacet
facet normal 0.3826834323650913 -1.1316652487539662e-16 -0.9238795325112862
  outer loop
    vertex 13.999999999999972 -1.1227313718265206e-15 13.464101615137832
    vertex 14.964723819589883 50.0 13.863703305156344
    vertex 14.964723819589889 -1.0963496145599801e-15 13.863703305156351
  endloop
endfacet
facet normal 0.6087614290087223 -9.991254069951972e-17 -0.7933533402912339
  outer loop
    vertex 13.999999999999966 50.0 13.464101615137823
    vertex 13.171572875253785 -1.1970535414266324e-15 12.82842712474627
    vertex 13.171572875253785 50.0 12.828427124746261
  endloop
endfacet
facet normal 0.6087614290087223 -9.991254069951972e-17 -0.7933533402912339
  outer loop
    vertex 13.171572875253785 -1.1970535414266324e-15 12.82842712474627
    vertex 13.999999999999966 50.0 13.464101615137823
    vertex 13.999999999999972 -1.1227313718265206e-15 13.464101615137832
  endloop
endfacet
facet normal 0.7933533402912347 -8.611759460986372e-17 -0.6087614290087212
  outer loop
    vertex 12.53589838486222 50.0 12.000000000000073
    vertex 13.171572875253785 -1.1970535414266324e-15 12.82842712474627
    vertex 12.53589838486222 -1.3142511903252608e-15 12.000000000000078
  endloop
endfacet
facet normal 0.7933533402912347 -8.611759460986372e-17 -0.6087614290087212
  outer loop
    vertex 13.171572875253785 -1.1970535414266324e-15 12.82842712474627
    vertex 12.53589838486222 50.0 12.000000000000073
    vertex 13.171572875253785 50.0 12.828427124746261
  endloop
endfacet
facet normal 0.9238795325112877 -6.943472009960907e-17 -0.3826834323650879
  outer loop
    vertex 12.136296694843706 50.0 11.035276180410156
    vertex 12.53589838486222 -1.3142511903252608e-15 12.000000000000078
    vertex 12.136296694843702 -1.466337492428237e-15 11.035276180410161
  endloop
endfacet
facet normal 0.9238795325112877 -6.943472009960907e-17 -0.3826834323650879
  outer loop
    vertex 12.53589838486222 -1.3142511903252608e-15 12.000000000000078
    vertex 12.136296694843706 50.0 11.035276180410156
    vertex 12.53589838486222 50.0 12.000000000000073
  endloop
endfacet
facet normal 0.9914448613738105 -7.053196981703579e-17 -0.130526192220052
  outer loop
    vertex 11.999999999999979 50.0 10.000000000000075
    vertex 12.136296694843702 -1.466337492428237e-15 11.035276180410161
    vertex 11.999999999999975 -1.64294801758174e-15 10.00000000000008
  endloop
endfacet
facet normal 0.9914448613738105 -7.053196981703579e-17 -0.130526192220052
  outer loop
    vertex 12.136296694843702 -1.466337492428237e-15 11.035276180410161
    vertex 11.999999999999979 50.0 10.000000000000075
    vertex 12.136296694843706 50.0 11.035276180410156
  endloop
endfacet
facet normal 0.9914448613738105 -4.119879528692399e-17 0.13052619222005163
  outer loop
    vertex 12.136296694843706 50.0 8.96472381958999
    vertex 11.999999999999975 -1.64294801758174e-15 10.00000000000008
    vertex 12.136296694843702 -1.8320470503592516e-15 8.964723819589997
  endloop
endfacet
facet normal 0.9914448613738105 -4.119879528692399e-17 0.13052619222005163
  outer loop
    vertex 11.999999999999975 -1.64294801758174e-15 10.00000000000008
    vertex 12.136296694843706 50.0 8.96472381958999
    vertex 11.999999999999979 50.0 10.000000000000075
  endloop
endfacet
facet normal 0.9238795325112871 -8.94112570506506e-18 0.38268343236508895
  outer loop
    vertex 12.535898384862222 50.0 8.000000000000075
    vertex 12.136296694843702 -1.8320470503592516e-15 8.964723819589997
    vertex 12.53589838486222 -2.020747804177912e-15 8.00000000000008
  endloop
endfacet
facet normal 0.9238795325112871 -8.94112570506506e-18 0.38268343236508895
  outer loop
    vertex 12.136296694843702 -1.8320470503592516e-15 8.964723819589997
    vertex 12.535898384862222 50.0 8.000000000000075
    vertex 12.136296694843706 50.0 8.96472381958999
  endloop
endfacet
facet normal 0.7933533402912349 4.684600970650907e-17 0.6087614290087212
  outer loop
    vertex 13.171572875253785 50.0 7.171572875253886
    vertex 12.53589838486222 -2.020747804177912e-15 8.00000000000008
    vertex 13.171572875253785 -2.1961906345077186e-15 7.171572875253892
  endloop
endfacet
facet normal 0.7933533402912349 4.684600970650907e-17 0.6087614290087212
  outer loop
    vertex 12.53589838486222 -2.020747804177912e-15 8.00000000000008
    vertex 13.171572875253785 50.0 7.171572875253886
    vertex 12.535898384862222 50.0 8.000000000000075
  endloop
endfacet
facet normal 0.6087614290087227 1.2383840751720535e-16 0.7933533402912337
  outer loop
    vertex 13.999999999999975 -2.346419402394682e-15 6.535898384862326
    vertex 13.171572875253785 50.0 7.171572875253886
    vertex 13.171572875253785 -2.1961906345077186e-15 7.171572875253892
  endloop
endfacet
facet normal 0.6087614290087227 1.2383840751720535e-16 0.7933533402912337
  outer loop
    vertex 13.171572875253785 50.0 7.171572875253886
    vertex 13.999999999999975 -2.346419402394682e-15 6.535898384862326
    vertex 13.999999999999968 50.0 6.535898384862321
  endloop
endfacet
facet normal 0.3826834323650902 1.7345332284301596e-16 0.9238795325112867
  outer loop
    vertex 13.999999999999975 -2.346419402394682e-15 6.535898384862326
    vertex 14.964723819589885 50.0 6.136296694843801
    vertex 13.999999999999968 50.0 6.535898384862321
  endloop
endfacet
facet normal 0.3826834323650902 1.7345332284301596e-16 0.9238795325112867
  outer loop
    vertex 14.964723819589885 50.0 6.136296694843801
    vertex 13.999999999999975 -2.346419402394682e-15 6.535898384862326
    vertex 14.96472381958989 -2.4611962655720817e-15 6.136296694843809
  endloop
endfacet
facet normal 0.1305261922200518 1.8226864020743203e-16 0.9914448613738105
  outer loop
    vertex 14.96472381958989 -2.4611962655720817e-15 6.136296694843809
    vertex 15.999999999999968 50.0 6.000000000000074
    vertex 14.964723819589885 50.0 6.136296694843801
  endloop
endfacet
facet normal 0.1305261922200518 1.8226864020743203e-16 0.9914448613738105
  outer loop
    vertex 15.999999999999968 50.0 6.000000000000074
    vertex 14.96472381958989 -2.4611962655720817e-15 6.136296694843809
    vertex 15.999999999999973 -2.532699370492113e-15 6.000000000000082
  endloop
endfacet
facet normal -0.1305261922200518 1.5305233091449203e-16 0.9914448613738105
  outer loop
    vertex 15.999999999999973 -2.532699370492113e-15 6.000000000000082
    vertex 17.03527618041005 50.0 6.136296694843801
    vertex 15.999999999999968 50.0 6.000000000000074
  endloop
endfacet
facet normal -0.1305261922200518 1.5305233091449203e-16 0.9914448613738105
  outer loop
    vertex 17.03527618041005 50.0 6.136296694843801
    vertex 15.999999999999973 -2.532699370492113e-15 6.000000000000082
    vertex 17.035276180410055 -2.5560558987189442e-15 6.136296694843809
  endloop
endfacet
facet normal -3.1070903425891374e-15 8.921348508424279e-17 1.0
  outer loop
    vertex 4.999999999999972 4.5824455341403335e-15 20.000000000000032
    vertex 19.99999999999998 49.99999999999998 20.000000000000075
    vertex 4.999999999999966 50.00000000000001 20.000000000000025
  endloop
endfacet
facet normal -3.1070903425891374e-15 8.921348508424279e-17 1.0
  outer loop
    vertex 19.99999999999998 49.99999999999998 20.000000000000075
    vertex 4.999999999999972 4.5824455341403335e-15 20.000000000000032
    vertex 14.999999999999973 3.4762852177480325e-15 20.00000000000006
  endloop
endfacet
facet normal -3.1070903425891374e-15 8.921348508424279e-17 1.0
  outer loop
    vertex 19.99999999999998 49.99999999999998 20.000000000000075
    vertex 14.999999999999973 3.4762852177480325e-15 20.00000000000006
    vertex 19.999999999999968 2.923205059551882e-15 20.000000000000075
  endloop
endfacet
facet normal 8.200681512797751e-16 -6.544388856771871e-17 -1.0
  outer loop
    vertex -2.0000000000000124 50.00000000000001 4.835352342897673e-16
    vertex 19.999999999999968 5.3374352344519e-16 2.1797228990830738e-14
    vertex -2.0000000000000155 8.698267177546323e-16 2.2460142858822025e-15
  endloop
endfacet
facet normal 8.200681512797751e-16 -6.544388856771871e-17 -1.0
  outer loop
    vertex 19.999999999999968 5.3374352344519e-16 2.1797228990830738e-14
    vertex -2.0000000000000124 50.00000000000001 4.835352342897673e-16
    vertex 19.999999999999968 49.99999999999998 1.7015319185651308e-14
  endloop
endfacet
facet normal 1.257960114691442e-15 1.0 -1.1591119859411238e-16
  outer loop
    vertex 19.999999999999968 49.99999999999998 1.7015319185651308e-14
    vertex 4.999999999999984 50.00000000000001 4.999999999999977
    vertex 24.999999999999968 49.99999999999998 5.00000000000002
  endloop
endfacet
facet normal 1.257960114691442e-15 1.0 -1.1591119859411238e-16
  outer loop
    vertex 4.999999999999984 50.00000000000001 4.999999999999977
    vertex 19.999999999999968 49.99999999999998 1.7015319185651308e-14
    vertex 0.999999999999984 50.00000000000001 4.999999999999976
  endloop
endfacet
facet normal 1.257960114691442e-15 1.0 -1.1591119859411238e-16
  outer loop
    vertex 24.999999999999968 49.99999999999998 5.00000000000002
    vertex 4.999999999999984 50.00000000000001 4.999999999999977
    vertex 15.999999999999968 50.0 6.000000000000074
  endloop
endfacet
facet normal 1.257960114691442e-15 1.0 -1.1591119859411238e-16
  outer loop
    vertex 15.999999999999968 50.0 6.000000000000074
    vertex 4.999999999999984 50.00000000000001 4.999999999999977
    vertex 14.964723819589885 50.0 6.136296694843801
  endloop
endfacet
facet normal 1.257960114691442e-15 1.0 -1.1591119859411238e-16
  outer loop
    vertex 14.964723819589885 50.0 6.136296694843801
    vertex 4.999999999999984 50.00000000000001 4.999999999999977
    vertex 13.999999999999968 50.0 6.535898384862321
  endloop
endfacet
facet normal 1.257960114691442e-15 1.0 -1.1591119859411238e-16
  outer loop
    vertex 13.999999999999968 50.0 6.535898384862321
    vertex 4.999999999999984 50.00000000000001 4.999999999999977
    vertex 13.171572875253785 50.0 7.171572875253886
  endloop
endfacet
facet normal 1.257960114691442e-15 1.0 -1.1591119859411238e-16
  outer loop
    vertex 13.171572875253785 50.0 7.171572875253886
    vertex 4.999999999999984 50.00000000000001 4.999999999999977
    vertex 12.535898384862222 50.0 8.000000000000075
  endloop
endfacet
facet normal 1.257960114691442e-15 1.0 -1.1591119859411238e-16
  outer loop
    vertex 12.535898384862222 50.0 8.000000000000075
    vertex 4.999999999999984 50.00000000000001 4.999999999999977
    vertex 4.999999999999966 50.00000000000001 20.000000000000025
  endloop
endfacet
facet normal 1.257960114691442e-15 1.0 -1.1591119859411238e-16
  outer loop
    vertex 12.535898384862222 50.0 8.000000000000075
    vertex 4.999999999999966 50.00000000000001 20.000000000000025
    vertex 12.136296694843706 50.0 8.96472381958999
  endloop
endfacet
facet normal 1.257960114691442e-15 1.0 -1.1591119859411238e-16
  outer loop
    vertex 12.136296694843706 50.0 8.96472381958999
    vertex 4.999999999999966 50.00000000000001 20.000000000000025
    vertex 11.999999999999979 50.0 10.000000000000075
  endloop
endfacet
facet normal 1.257960114691442e-15 1.0 -1.1591119859411238e-16
  outer loop
    vertex 11.999999999999979 50.0 10.000000000000075
    vertex 4.999999999999966 50.00000000000001 20.000000000000025
    vertex 12.136296694843706 50.0 11.035276180410156
  endloop
endfacet
facet normal 1.257960114691442e-15 1.0 -1.1591119859411238e-16
  outer loop
    vertex 12.136296694843706 50.0 11.035276180410156
    vertex 4.999999999999966 50.00000000000001 20.000000000000025
    vertex 12.53589838486222 50.0 12.000000000000073
  endloop
endfacet
facet normal 1.257960114691442e-15 1.0 -1.1591119859411238e-16
  outer loop
    vertex 12.53589838486222 50.0 12.000000000000073
    vertex 4.999999999999966 50.00000000000001 20.000000000000025
    vertex 13.171572875253785 50.0 12.828427124746261
  endloop
endfacet
facet normal 1.257960114691442e-15 1.0 -1.1591119859411238e-16
  outer loop
    vertex 13.171572875253785 50.0 12.828427124746261
    vertex 4.999999999999966 50.00000000000001 20.000000000000025
    vertex 13.999999999999966 50.0 13.464101615137823
  endloop
endfacet
facet normal 1.257960114691442e-15 1.0 -1.1591119859411238e-16
  outer loop
    vertex 13.999999999999966 50.0 13.464101615137823
    vertex 4.999999999999966 50.00000000000001 20.000000000000025
    vertex 14.964723819589883 50.0 13.863703305156344
  endloop
endfacet
facet normal 1.257960114691442e-15 1.0 -1.1591119859411238e-16
  outer loop
    vertex 14.964723819589883 50.0 13.863703305156344
    vertex 4.999999999999966 50.00000000000001 20.000000000000025
    vertex 15.999999999999968 50.0 14.000000000000071
  endloop
endfacet
facet normal 1.257960114691442e-15 1.0 -1.1591119859411238e-16
  outer loop
    vertex 15.999999999999968 50.0 14.000000000000071
    vertex 4.999999999999966 50.00000000000001 20.000000000000025
    vertex 24.99999999999998 49.99999999999998 15.00000000000009
  endloop
endfacet
facet normal 1.257960114691442e-15 1.0 -1.1591119859411238e-16
  outer loop
    vertex 24.99999999999998 49.99999999999998 15.00000000000009
    vertex 4.999999999999966 50.00000000000001 20.000000000000025
    vertex 19.99999999999998 49.99999999999998 20.000000000000075
  endloop
endfacet
facet normal 1.257960114691442e-15 1.0 -1.1591119859411238e-16
  outer loop
    vertex 24.999999999999968 49.99999999999998 5.00000000000002
    vertex 18.828427124746156 50.0 7.171572875253886
    vertex 24.99999999999998 49.99999999999998 15.00000000000009
  endloop
endfacet
facet normal 1.257960114691442e-15 1.0 -1.1591119859411238e-16
  outer loop
    vertex 18.828427124746156 50.0 7.171572875253886
    vertex 24.999999999999968 49.99999999999998 5.00000000000002
    vertex 17.999999999999968 50.0 6.535898384862321
  endloop
endfacet
facet normal 1.257960114691442e-15 1.0 -1.1591119859411238e-16
  outer loop
    vertex 17.999999999999968 50.0 6.535898384862321
    vertex 24.999999999999968 49.99999999999998 5.00000000000002
    vertex 17.03527618041005 50.0 6.136296694843801
  endloop
endfacet
facet normal 1.257960114691442e-15 1.0 -1.1591119859411238e-16
  outer loop
    vertex 17.03527618041005 50.0 6.136296694843801
    vertex 24.999999999999968 49.99999999999998 5.00000000000002
    vertex 15.999999999999968 50.0 6.000000000000074
  endloop
endfacet
facet normal 1.257960114691442e-15 1.0 -1.1591119859411238e-16
  outer loop
    vertex 24.99999999999998 49.99999999999998 15.00000000000009
    vertex 18.828427124746156 50.0 7.171572875253886
    vertex 19.46410161513772 50.0 8.000000000000076
  endloop
endfacet
facet normal 1.257960114691442e-15 1.0 -1.1591119859411238e-16
  outer loop
    vertex 24.99999999999998 49.99999999999998 15.00000000000009
    vertex 19.46410161513772 50.0 8.000000000000076
    vertex 19.86370330515624 50.0 8.964723819589992
  endloop
endfacet
facet normal 1.257960114691442e-15 1.0 -1.1591119859411238e-16
  outer loop
    vertex 24.99999999999998 49.99999999999998 15.00000000000009
    vertex 19.86370330515624 50.0 8.964723819589992
    vertex 19.999999999999964 50.0 10.000000000000075
  endloop
endfacet
facet normal 1.257960114691442e-15 1.0 -1.1591119859411238e-16
  outer loop
    vertex 24.99999999999998 49.99999999999998 15.00000000000009
    vertex 19.999999999999964 50.0 10.000000000000075
    vertex 19.86370330515624 50.0 11.03527618041016
  endloop
endfacet
facet normal 1.257960114691442e-15 1.0 -1.1591119859411238e-16
  outer loop
    vertex 24.99999999999998 49.99999999999998 15.00000000000009
    vertex 19.86370330515624 50.0 11.03527618041016
    vertex 19.464101615137718 50.0 12.000000000000075
  endloop
endfacet
facet normal 1.257960114691442e-15 1.0 -1.1591119859411238e-16
  outer loop
    vertex 24.99999999999998 49.99999999999998 15.00000000000009
    vertex 19.464101615137718 50.0 12.000000000000075
    vertex 18.828427124746156 50.0 12.828427124746261
  endloop
endfacet
facet normal 1.257960114691442e-15 1.0 -1.1591119859411238e-16
  outer loop
    vertex 24.99999999999998 49.99999999999998 15.00000000000009
    vertex 18.828427124746156 50.0 12.828427124746261
    vertex 17.999999999999964 50.0 13.464101615137826
  endloop
endfacet
facet normal 1.257960114691442e-15 1.0 -1.1591119859411238e-16
  outer loop
    vertex 24.99999999999998 49.99999999999998 15.00000000000009
    vertex 17.999999999999964 50.0 13.464101615137826
    vertex 17.035276180410047 50.0 13.863703305156344
  endloop
endfacet
facet normal 1.257960114691442e-15 1.0 -1.1591119859411238e-16
  outer loop
    vertex 24.99999999999998 49.99999999999998 15.00000000000009
    vertex 17.035276180410047 50.0 13.863703305156344
    vertex 15.999999999999968 50.0 14.000000000000071
  endloop
endfacet
facet normal 1.257960114691442e-15 1.0 -1.1591119859411238e-16
  outer loop
    vertex -2.0000000000000124 50.00000000000001 4.835352342897673e-16
    vertex 0.999999999999984 50.00000000000001 4.999999999999976
    vertex 19.999999999999968 49.99999999999998 1.7015319185651308e-14
  endloop
endfacet
facet normal 1.257960114691442e-15 1.0 -1.1591119859411238e-16
  outer loop
    vertex 0.999999999999984 50.00000000000001 4.999999999999976
    vertex -2.0000000000000124 50.00000000000001 4.835352342897673e-16
    vertex -2.0000000000000155 50.00000000000001 10.999999999999973
  endloop
endfacet
facet normal 1.257960114691442e-15 1.0 -1.1591119859411238e-16
  outer loop
    vertex 0.999999999999984 50.00000000000001 4.999999999999976
    vertex -2.0000000000000155 50.00000000000001 10.999999999999973
    vertex 0.999999999999984 50.00000000000001 10.999999999999973
  endloop
endfacet
facet normal 1.0 -1.1279865930191598e-16 -5.639932965095755e-16
  outer loop
    vertex 24.999999999999968 49.99999999999998 5.00000000000002
    vertex 24.999999999999968 1.891933920837789e-15 15.000000000000094
    vertex 24.999999999999968 9.355519598018962e-16 5.000000000000025
  endloop
endfacet
facet normal 1.0 -1.1279865930191598e-16 -5.639932965095755e-16
  outer loop
    vertex 24.999999999999968 1.891933920837789e-15 15.000000000000094
    vertex 24.999999999999968 49.99999999999998 5.00000000000002
    vertex 24.99999999999998 49.99999999999998 15.00000000000009
  endloop
endfacet
facet normal 2.8297397728564706e-17 -1.0 1.477555001053953e-16
  outer loop
    vertex 24.999999999999968 9.355519598018962e-16 5.000000000000025
    vertex 17.035276180410055 -2.5560558987189442e-15 6.136296694843809
    vertex 15.999999999999973 -2.532699370492113e-15 6.000000000000082
  endloop
endfacet
facet normal 2.8297397728564706e-17 -1.0 1.477555001053953e-16
  outer loop
    vertex 17.035276180410055 -2.5560558987189442e-15 6.136296694843809
    vertex 24.999999999999968 9.355519598018962e-16 5.000000000000025
    vertex 17.99999999999997 -2.529674141452404e-15 6.535898384862326
  endloop
endfacet
facet normal 2.8297397728564706e-17 -1.0 1.477555001053953e-16
  outer loop
    vertex 17.99999999999997 -2.529674141452404e-15 6.535898384862326
    vertex 24.999999999999968 9.355519598018962e-16 5.000000000000025
    vertex 18.828427124746163 -2.4553519718522927e-15 7.171572875253892
  endloop
endfacet
facet normal 2.8297397728564706e-17 -1.0 1.477555001053953e-16
  outer loop
    vertex 18.828427124746163 -2.4553519718522927e-15 7.171572875253892
    vertex 24.999999999999968 9.355519598018962e-16 5.000000000000025
    vertex 24.999999999999968 1.891933920837789e-15 15.000000000000094
  endloop
endfacet
facet normal 2.8297397728564706e-17 -1.0 1.477555001053953e-16
  outer loop
    vertex 18.828427124746163 -2.4553519718522927e-15 7.171572875253892
    vertex 24.999999999999968 1.891933920837789e-15 15.000000000000094
    vertex 19.46410161513773 -2.3381543229536636e-15 8.000000000000082
  endloop
endfacet
facet normal 2.8297397728564706e-17 -1.0 1.477555001053953e-16
  outer loop
    vertex 19.46410161513773 -2.3381543229536636e-15 8.000000000000082
    vertex 24.999999999999968 1.891933920837789e-15 15.000000000000094
    vertex 19.863703305156246 -2.186068020850688e-15 8.964723819589997
  endloop
endfacet
facet normal 2.8297397728564706e-17 -1.0 1.477555001053953e-16
  outer loop
    vertex 19.863703305156246 -2.186068020850688e-15 8.964723819589997
    vertex 24.999999999999968 1.891933920837789e-15 15.000000000000094
    vertex 19.99999999999997 -2.0094574956971848e-15 10.00000000000008
  endloop
endfacet
facet normal 2.8297397728564706e-17 -1.0 1.477555001053953e-16
  outer loop
    vertex 19.99999999999997 -2.0094574956971848e-15 10.00000000000008
    vertex 24.999999999999968 1.891933920837789e-15 15.000000000000094
    vertex 19.863703305156246 -1.820358462919672e-15 11.035276180410166
  endloop
endfacet
facet normal 2.8297397728564706e-17 -1.0 1.477555001053953e-16
  outer loop
    vertex 19.863703305156246 -1.820358462919672e-15 11.035276180410166
    vertex 24.999999999999968 1.891933920837789e-15 15.000000000000094
    vertex 19.464101615137725 -1.6316577091010123e-15 12.000000000000082
  endloop
endfacet
facet normal 2.8297397728564706e-17 -1.0 1.477555001053953e-16
  outer loop
    vertex 19.464101615137725 -1.6316577091010123e-15 12.000000000000082
    vertex 24.999999999999968 1.891933920837789e-15 15.000000000000094
    vertex 18.828427124746163 -1.4562148787712055e-15 12.82842712474627
  endloop
endfacet
facet normal 2.8297397728564706e-17 -1.0 1.477555001053953e-16
  outer loop
    vertex 18.828427124746163 -1.4562148787712055e-15 12.82842712474627
    vertex 24.999999999999968 1.891933920837789e-15 15.000000000000094
    vertex 17.99999999999997 -1.3059861108842423e-15 13.464101615137833
  endloop
endfacet
facet normal 2.8297397728564706e-17 -1.0 1.477555001053953e-16
  outer loop
    vertex 17.99999999999997 -1.3059861108842423e-15 13.464101615137833
    vertex 24.999999999999968 1.891933920837789e-15 15.000000000000094
    vertex 17.035276180410055 -1.1912092477068427e-15 13.863703305156351
  endloop
endfacet
facet normal 2.8297397728564706e-17 -1.0 1.477555001053953e-16
  outer loop
    vertex 17.035276180410055 -1.1912092477068427e-15 13.863703305156351
    vertex 24.999999999999968 1.891933920837789e-15 15.000000000000094
    vertex 15.999999999999973 -1.1197061427868112e-15 14.000000000000078
  endloop
endfacet
facet normal 2.8297397728564706e-17 -1.0 1.477555001053953e-16
  outer loop
    vertex 19.999999999999968 5.3374352344519e-16 2.1797228990830738e-14
    vertex 4.999999999999982 3.524958103184872e-16 4.999999999999976
    vertex 0.999999999999983 3.524958103184872e-16 4.999999999999975
  endloop
endfacet
facet normal 2.8297397728564706e-17 -1.0 1.477555001053953e-16
  outer loop
    vertex 4.999999999999982 3.524958103184872e-16 4.999999999999976
    vertex 19.999999999999968 5.3374352344519e-16 2.1797228990830738e-14
    vertex 24.999999999999968 9.355519598018962e-16 5.000000000000025
  endloop
endfacet
facet normal 2.8297397728564706e-17 -1.0 1.477555001053953e-16
  outer loop
    vertex 4.999999999999982 3.524958103184872e-16 4.999999999999976
    vertex 24.999999999999968 9.355519598018962e-16 5.000000000000025
    vertex 15.999999999999973 -2.532699370492113e-15 6.000000000000082
  endloop
endfacet
facet normal 2.8297397728564706e-17 -1.0 1.477555001053953e-16
  outer loop
    vertex 4.999999999999982 3.524958103184872e-16 4.999999999999976
    vertex 15.999999999999973 -2.532699370492113e-15 6.000000000000082
    vertex 14.96472381958989 -2.4611962655720817e-15 6.136296694843809
  endloop
endfacet
facet normal 2.8297397728564706e-17 -1.0 1.477555001053953e-16
  outer loop
    vertex 4.999999999999982 3.524958103184872e-16 4.999999999999976
    vertex 14.96472381958989 -2.4611962655720817e-15 6.136296694843809
    vertex 13.999999999999975 -2.346419402394682e-15 6.535898384862326
  endloop
endfacet
facet normal 2.8297397728564706e-17 -1.0 1.477555001053953e-16
  outer loop
    vertex 4.999999999999982 3.524958103184872e-16 4.999999999999976
    vertex 13.999999999999975 -2.346419402394682e-15 6.535898384862326
    vertex 13.171572875253785 -2.1961906345077186e-15 7.171572875253892
  endloop
endfacet
facet normal 2.8297397728564706e-17 -1.0 1.477555001053953e-16
  outer loop
    vertex 4.999999999999982 3.524958103184872e-16 4.999999999999976
    vertex 13.171572875253785 -2.1961906345077186e-15 7.171572875253892
    vertex 12.53589838486222 -2.020747804177912e-15 8.00000000000008
  endloop
endfacet
facet normal 2.8297397728564706e-17 -1.0 1.477555001053953e-16
  outer loop
    vertex 4.999999999999982 3.524958103184872e-16 4.999999999999976
    vertex 12.53589838486222 -2.020747804177912e-15 8.00000000000008
    vertex 4.999999999999972 4.5824455341403335e-15 20.000000000000032
  endloop
endfacet
facet normal 2.8297397728564706e-17 -1.0 1.477555001053953e-16
  outer loop
    vertex 4.999999999999972 4.5824455341403335e-15 20.000000000000032
    vertex 12.53589838486222 -2.020747804177912e-15 8.00000000000008
    vertex 12.136296694843702 -1.8320470503592516e-15 8.964723819589997
  endloop
endfacet
facet normal 2.8297397728564706e-17 -1.0 1.477555001053953e-16
  outer loop
    vertex 4.999999999999972 4.5824455341403335e-15 20.000000000000032
    vertex 12.136296694843702 -1.8320470503592516e-15 8.964723819589997
    vertex 11.999999999999975 -1.64294801758174e-15 10.00000000000008
  endloop
endfacet
facet normal 2.8297397728564706e-17 -1.0 1.477555001053953e-16
  outer loop
    vertex 4.999999999999972 4.5824455341403335e-15 20.000000000000032
    vertex 11.999999999999975 -1.64294801758174e-15 10.00000000000008
    vertex 12.136296694843702 -1.466337492428237e-15 11.035276180410161
  endloop
endfacet
facet normal 2.8297397728564706e-17 -1.0 1.477555001053953e-16
  outer loop
    vertex 4.999999999999972 4.5824455341403335e-15 20.000000000000032
    vertex 12.136296694843702 -1.466337492428237e-15 11.035276180410161
    vertex 12.53589838486222 -1.3142511903252608e-15 12.000000000000078
  endloop
endfacet
facet normal 2.8297397728564706e-17 -1.0 1.477555001053953e-16
  outer loop
    vertex 4.999999999999972 4.5824455341403335e-15 20.000000000000032
    vertex 12.53589838486222 -1.3142511903252608e-15 12.000000000000078
    vertex 13.171572875253785 -1.1970535414266324e-15 12.82842712474627
  endloop
endfacet
facet normal 2.8297397728564706e-17 -1.0 1.477555001053953e-16
  outer loop
    vertex 4.999999999999972 4.5824455341403335e-15 20.000000000000032
    vertex 13.171572875253785 -1.1970535414266324e-15 12.82842712474627
    vertex 13.999999999999972 -1.1227313718265206e-15 13.464101615137832
  endloop
endfacet
facet normal 2.8297397728564706e-17 -1.0 1.477555001053953e-16
  outer loop
    vertex 4.999999999999972 4.5824455341403335e-15 20.000000000000032
    vertex 13.999999999999972 -1.1227313718265206e-15 13.464101615137832
    vertex 14.964723819589889 -1.0963496145599801e-15 13.863703305156351
  endloop
endfacet
facet normal 2.8297397728564706e-17 -1.0 1.477555001053953e-16
  outer loop
    vertex 4.999999999999972 4.5824455341403335e-15 20.000000000000032
    vertex 14.964723819589889 -1.0963496145599801e-15 13.863703305156351
    vertex 15.999999999999973 -1.1197061427868112e-15 14.000000000000078
  endloop
endfacet
facet normal 2.8297397728564706e-17 -1.0 1.477555001053953e-16
  outer loop
    vertex 4.999999999999972 4.5824455341403335e-15 20.000000000000032
    vertex 15.999999999999973 -1.1197061427868112e-15 14.000000000000078
    vertex 24.999999999999968 1.891933920837789e-15 15.000000000000094
  endloop
endfacet
facet normal 2.8297397728564706e-17 -1.0 1.477555001053953e-16
  outer loop
    vertex 4.999999999999972 4.5824455341403335e-15 20.000000000000032
    vertex 24.999999999999968 1.891933920837789e-15 15.000000000000094
    vertex 19.999999999999968 2.923205059551882e-15 20.000000000000075
  endloop
endfacet
facet normal 2.8297397728564706e-17 -1.0 1.477555001053953e-16
  outer loop
    vertex 4.999999999999972 4.5824455341403335e-15 20.000000000000032
    vertex 19.999999999999968 2.923205059551882e-15 20.000000000000075
    vertex 14.999999999999973 3.4762852177480325e-15 20.00000000000006
  endloop
endfacet
facet normal 2.8297397728564706e-17 -1.0 1.477555001053953e-16
  outer loop
    vertex -2.0000000000000155 8.698267177546323e-16 2.2460142858822025e-15
    vertex 0.999999999999983 3.524958103184872e-16 4.999999999999975
    vertex -2.000000000000018 -2.9609648066752923e-16 10.999999999999977
  endloop
endfacet
facet normal 2.8297397728564706e-17 -1.0 1.477555001053953e-16
  outer loop
    vertex 0.999999999999983 3.524958103184872e-16 4.999999999999975
    vertex -2.0000000000000155 8.698267177546323e-16 2.2460142858822025e-15
    vertex 19.999999999999968 5.3374352344519e-16 2.1797228990830738e-14
  endloop
endfacet
facet normal 2.8297397728564706e-17 -1.0 1.477555001053953e-16
  outer loop
    vertex -2.000000000000018 -2.9609648066752923e-16 10.999999999999977
    vertex 0.999999999999983 3.524958103184872e-16 4.999999999999975
    vertex 0.9999999999999823 -2.9609648066752923e-16 10.999999999999977
  endloop
endfacet
facet normal 0.7071067811865464 -1.1649049782410859e-16 0.7071067811865488
  outer loop
    vertex 24.999999999999968 1.891933920837789e-15 15.000000000000094
    vertex 19.99999999999998 49.99999999999998 20.000000000000075
    vertex 19.999999999999968 2.923205059551882e-15 20.000000000000075
  endloop
endfacet
facet normal 0.7071067811865464 -1.1649049782410859e-16 0.7071067811865488
  outer loop
    vertex 19.99999999999998 49.99999999999998 20.000000000000075
    vertex 24.999999999999968 1.891933920837789e-15 15.000000000000094
    vertex 24.99999999999998 49.99999999999998 15.00000000000009
  endloop
endfacet
facet normal 0.7071067811865479 -6.331005316527655e-17 -0.7071067811865472
  outer loop
    vertex 19.999999999999968 49.99999999999998 1.7015319185651308e-14
    vertex 24.999999999999968 9.355519598018962e-16 5.000000000000025
    vertex 19.999999999999968 5.3374352344519e-16 2.1797228990830738e-14
  endloop
endfacet
facet normal 0.7071067811865479 -6.331005316527655e-17 -0.7071067811865472
  outer loop
    vertex 24.999999999999968 9.355519598018962e-16 5.000000000000025
    vertex 19.999999999999968 49.99999999999998 1.7015319185651308e-14
    vertex 24.999999999999968 49.99999999999998 5.00000000000002
  endloop
endfacet
facet normal 1.0 5.094900558655042e-16 -1.964454950518774e-14
  outer loop
    vertex 15.999999999999963 10.43933982822018 13.93933982822024
    vertex 15.999999999999964 12.607206358681932 14.000000000000076
    vertex 15.999999999999968 10.39279364131807 14.000000000000076
  endloop
endfacet
facet normal 1.0 5.094900558655042e-16 -1.964454950518774e-14
  outer loop
    vertex 15.999999999999964 12.607206358681932 14.000000000000076
    vertex 15.999999999999963 10.43933982822018 13.93933982822024
    vertex 15.99999999999994 10.750000000000002 13.70096189432338
  endloop
endfacet
facet normal 1.0 5.094900558655042e-16 -1.964454950518774e-14
  outer loop
    vertex 15.999999999999964 12.607206358681932 14.000000000000076
    vertex 15.99999999999994 10.750000000000002 13.70096189432338
    vertex 15.99999999999995 11.111771432346218 13.551111260566444
  endloop
endfacet
facet normal 1.0 5.094900558655042e-16 -1.964454950518774e-14
  outer loop
    vertex 15.999999999999964 12.607206358681932 14.000000000000076
    vertex 15.99999999999995 11.111771432346218 13.551111260566444
    vertex 15.999999999999973 11.500000000000002 13.500000000000055
  endloop
endfacet
facet normal 1.0 5.094900558655042e-16 -1.964454950518774e-14
  outer loop
    vertex 15.999999999999964 12.607206358681932 14.000000000000076
    vertex 15.999999999999973 11.500000000000002 13.500000000000055
    vertex 15.99999999999995 11.888228567653782 13.551111260566444
  endloop
endfacet
facet normal 1.0 5.094900558655042e-16 -1.964454950518774e-14
  outer loop
    vertex 15.999999999999964 12.607206358681932 14.000000000000076
    vertex 15.99999999999995 11.888228567653782 13.551111260566444
    vertex 15.99999999999994 12.25 13.70096189432338
  endloop
endfacet
facet normal 1.0 5.094900558655042e-16 -1.964454950518774e-14
  outer loop
    vertex 15.999999999999964 12.607206358681932 14.000000000000076
    vertex 15.99999999999994 12.25 13.70096189432338
    vertex 15.999999999999963 12.560660171779823 13.93933982822024
  endloop
endfacet
endsolid СторонаДругая-8mm
