solid Втулка-Припой
facet normal -0.0 -0.0 1.0
  outer loop
    vertex -14.488887394336027 -3.8822856765378058 25.0
    vertex -14.488887394336025 3.8822856765378155 25.0
    vertex -15.0 1.83697019872103e-15 25.0
  endloop
endfacet
facet normal -0.0 -0.0 1.0
  outer loop
    vertex -14.488887394336025 3.8822856765378155 25.0
    vertex -14.488887394336027 -3.8822856765378058 25.0
    vertex -12.990381056766582 -7.4999999999999964 25.0
  endloop
endfacet
facet normal -0.0 -0.0 1.0
  outer loop
    vertex -14.488887394336025 3.8822856765378155 25.0
    vertex -12.990381056766582 -7.4999999999999964 25.0
    vertex -12.990381056766578 7.500000000000006 25.0
  endloop
endfacet
facet normal -0.0 -0.0 1.0
  outer loop
    vertex -12.990381056766578 7.500000000000006 25.0
    vertex -12.990381056766582 -7.4999999999999964 25.0
    vertex -10.60660171779822 -10.606601717798206 25.0
  endloop
endfacet
facet normal -0.0 -0.0 1.0
  outer loop
    vertex -12.990381056766578 7.500000000000006 25.0
    vertex -10.60660171779822 -10.606601717798206 25.0
    vertex -10.606601717798213 10.606601717798213 25.0
  endloop
endfacet
facet normal -0.0 -0.0 1.0
  outer loop
    vertex -10.606601717798213 10.606601717798213 25.0
    vertex -10.60660171779822 -10.606601717798206 25.0
    vertex -7.500000000000007 -12.990381056766577 25.0
  endloop
endfacet
facet normal -0.0 -0.0 1.0
  outer loop
    vertex -10.606601717798213 10.606601717798213 25.0
    vertex -7.500000000000007 -12.990381056766577 25.0
    vertex -7.499999999999997 12.990381056766582 25.0
  endloop
endfacet
facet normal -0.0 -0.0 1.0
  outer loop
    vertex -7.499999999999997 12.990381056766582 25.0
    vertex -7.500000000000007 -12.990381056766577 25.0
    vertex -3.882285676537823 -14.488887394336022 25.0
  endloop
endfacet
facet normal -0.0 -0.0 1.0
  outer loop
    vertex -7.499999999999997 12.990381056766582 25.0
    vertex -3.882285676537823 -14.488887394336022 25.0
    vertex -3.8822856765378098 14.488887394336025 25.0
  endloop
endfacet
facet normal -0.0 -0.0 1.0
  outer loop
    vertex -3.8822856765378098 14.488887394336025 25.0
    vertex -3.882285676537823 -14.488887394336022 25.0
    vertex -3.0 3.67394039744206e-16 25.000000000000004
  endloop
endfacet
facet normal -0.0 -0.0 1.0
  outer loop
    vertex -3.0 3.67394039744206e-16 25.000000000000004
    vertex -3.882285676537823 -14.488887394336022 25.0
    vertex -2.897777478867205 -0.7764571353075611 25.000000000000004
  endloop
endfacet
facet normal -0.0 -0.0 1.0
  outer loop
    vertex -2.897777478867205 -0.7764571353075611 25.000000000000004
    vertex -3.882285676537823 -14.488887394336022 25.0
    vertex -2.7554552980815448e-15 -15.0 25.0
  endloop
endfacet
facet normal -0.0 -0.0 1.0
  outer loop
    vertex -2.897777478867205 -0.7764571353075611 25.000000000000004
    vertex -2.7554552980815448e-15 -15.0 25.0
    vertex -2.598076211353316 -1.4999999999999991 25.000000000000004
  endloop
endfacet
facet normal -0.0 -0.0 1.0
  outer loop
    vertex -2.598076211353316 -1.4999999999999991 25.000000000000004
    vertex -2.7554552980815448e-15 -15.0 25.0
    vertex -2.1213203435596437 -2.1213203435596415 25.000000000000004
  endloop
endfacet
facet normal -0.0 -0.0 1.0
  outer loop
    vertex -2.1213203435596437 -2.1213203435596415 25.000000000000004
    vertex -2.7554552980815448e-15 -15.0 25.0
    vertex -1.5000000000000013 -2.5980762113533156 25.000000000000004
  endloop
endfacet
facet normal -0.0 -0.0 1.0
  outer loop
    vertex -1.5000000000000013 -2.5980762113533156 25.000000000000004
    vertex -2.7554552980815448e-15 -15.0 25.0
    vertex -0.7764571353075645 -2.8977774788672046 25.000000000000004
  endloop
endfacet
facet normal -0.0 -0.0 1.0
  outer loop
    vertex -0.7764571353075645 -2.8977774788672046 25.000000000000004
    vertex -2.7554552980815448e-15 -15.0 25.0
    vertex -5.510910596163089e-16 -3.0 25.000000000000004
  endloop
endfacet
facet normal -0.0 -0.0 1.0
  outer loop
    vertex -5.510910596163089e-16 -3.0 25.000000000000004
    vertex -2.7554552980815448e-15 -15.0 25.0
    vertex 3.882285676537805 -14.488887394336027 25.0
  endloop
endfacet
facet normal -0.0 -0.0 1.0
  outer loop
    vertex -5.510910596163089e-16 -3.0 25.000000000000004
    vertex 3.882285676537805 -14.488887394336027 25.0
    vertex 0.7764571353075608 -2.897777478867205 25.000000000000004
  endloop
endfacet
facet normal -0.0 -0.0 1.0
  outer loop
    vertex 0.7764571353075608 -2.897777478867205 25.000000000000004
    vertex 3.882285676537805 -14.488887394336027 25.0
    vertex 1.4999999999999978 -2.5980762113533173 25.000000000000004
  endloop
endfacet
facet normal -0.0 -0.0 1.0
  outer loop
    vertex 1.4999999999999978 -2.5980762113533173 25.000000000000004
    vertex 3.882285676537805 -14.488887394336027 25.0
    vertex 2.121320343559642 -2.1213203435596433 25.000000000000004
  endloop
endfacet
facet normal -0.0 -0.0 1.0
  outer loop
    vertex 2.121320343559642 -2.1213203435596433 25.000000000000004
    vertex 3.882285676537805 -14.488887394336027 25.0
    vertex 2.598076211353315 -1.5000000000000016 25.000000000000004
  endloop
endfacet
facet normal -0.0 -0.0 1.0
  outer loop
    vertex 2.598076211353315 -1.5000000000000016 25.000000000000004
    vertex 3.882285676537805 -14.488887394336027 25.0
    vertex 2.897777478867204 -0.7764571353075648 25.000000000000004
  endloop
endfacet
facet normal -0.0 -0.0 1.0
  outer loop
    vertex 2.897777478867204 -0.7764571353075648 25.000000000000004
    vertex 3.882285676537805 -14.488887394336027 25.0
    vertex 3.0 0.0 25.000000000000004
  endloop
endfacet
facet normal -0.0 -0.0 1.0
  outer loop
    vertex -3.8822856765378098 14.488887394336025 25.0
    vertex -2.8977774788672046 0.7764571353075631 25.000000000000004
    vertex 9.18485099360515e-16 15.0 25.0
  endloop
endfacet
facet normal -0.0 -0.0 1.0
  outer loop
    vertex -2.8977774788672046 0.7764571353075631 25.000000000000004
    vertex -3.8822856765378098 14.488887394336025 25.0
    vertex -3.0 3.67394039744206e-16 25.000000000000004
  endloop
endfacet
facet normal -0.0 -0.0 1.0
  outer loop
    vertex 9.18485099360515e-16 15.0 25.0
    vertex -2.8977774788672046 0.7764571353075631 25.000000000000004
    vertex -2.5980762113533156 1.500000000000001 25.000000000000004
  endloop
endfacet
facet normal -0.0 -0.0 1.0
  outer loop
    vertex 9.18485099360515e-16 15.0 25.0
    vertex -2.5980762113533156 1.500000000000001 25.000000000000004
    vertex -2.1213203435596424 2.121320343559643 25.000000000000004
  endloop
endfacet
facet normal -0.0 -0.0 1.0
  outer loop
    vertex 9.18485099360515e-16 15.0 25.0
    vertex -2.1213203435596424 2.121320343559643 25.000000000000004
    vertex -1.4999999999999991 2.598076211353316 25.000000000000004
  endloop
endfacet
facet normal -0.0 -0.0 1.0
  outer loop
    vertex 9.18485099360515e-16 15.0 25.0
    vertex -1.4999999999999991 2.598076211353316 25.000000000000004
    vertex -0.7764571353075619 2.897777478867205 25.000000000000004
  endloop
endfacet
facet normal -0.0 -0.0 1.0
  outer loop
    vertex 9.18485099360515e-16 15.0 25.0
    vertex -0.7764571353075619 2.897777478867205 25.000000000000004
    vertex 1.8369701987210297e-16 3.0 25.000000000000004
  endloop
endfacet
facet normal -0.0 -0.0 1.0
  outer loop
    vertex 9.18485099360515e-16 15.0 25.0
    vertex 1.8369701987210297e-16 3.0 25.000000000000004
    vertex 0.7764571353075629 2.897777478867205 25.000000000000004
  endloop
endfacet
facet normal -0.0 -0.0 1.0
  outer loop
    vertex 9.18485099360515e-16 15.0 25.0
    vertex 0.7764571353075629 2.897777478867205 25.000000000000004
    vertex 3.8822856765378146 14.488887394336025 25.0
  endloop
endfacet
facet normal -0.0 -0.0 1.0
  outer loop
    vertex 3.8822856765378146 14.488887394336025 25.0
    vertex 0.7764571353075629 2.897777478867205 25.000000000000004
    vertex 1.5000000000000002 2.5980762113533156 25.000000000000004
  endloop
endfacet
facet normal -0.0 -0.0 1.0
  outer loop
    vertex 3.8822856765378146 14.488887394336025 25.0
    vertex 1.5000000000000002 2.5980762113533156 25.000000000000004
    vertex 2.1213203435596424 2.1213203435596424 25.000000000000004
  endloop
endfacet
facet normal -0.0 -0.0 1.0
  outer loop
    vertex 3.8822856765378146 14.488887394336025 25.0
    vertex 2.1213203435596424 2.1213203435596424 25.000000000000004
    vertex 2.5980762113533156 1.5 25.000000000000004
  endloop
endfacet
facet normal -0.0 -0.0 1.0
  outer loop
    vertex 3.8822856765378146 14.488887394336025 25.0
    vertex 2.5980762113533156 1.5 25.000000000000004
    vertex 2.897777478867205 0.7764571353075622 25.000000000000004
  endloop
endfacet
facet normal -0.0 -0.0 1.0
  outer loop
    vertex 3.8822856765378146 14.488887394336025 25.0
    vertex 2.897777478867205 0.7764571353075622 25.000000000000004
    vertex 3.0 0.0 25.000000000000004
  endloop
endfacet
facet normal -0.0 -0.0 1.0
  outer loop
    vertex 3.8822856765378146 14.488887394336025 25.0
    vertex 3.0 0.0 25.000000000000004
    vertex 3.882285676537805 -14.488887394336027 25.0
  endloop
endfacet
facet normal -0.0 -0.0 1.0
  outer loop
    vertex 3.8822856765378146 14.488887394336025 25.0
    vertex 3.882285676537805 -14.488887394336027 25.0
    vertex 7.499999999999989 -12.990381056766587 25.0
  endloop
endfacet
facet normal -0.0 -0.0 1.0
  outer loop
    vertex 3.8822856765378146 14.488887394336025 25.0
    vertex 7.499999999999989 -12.990381056766587 25.0
    vertex 7.500000000000002 12.990381056766578 25.0
  endloop
endfacet
facet normal -0.0 -0.0 1.0
  outer loop
    vertex 7.500000000000002 12.990381056766578 25.0
    vertex 7.499999999999989 -12.990381056766587 25.0
    vertex 10.606601717798211 -10.606601717798215 25.0
  endloop
endfacet
facet normal -0.0 -0.0 1.0
  outer loop
    vertex 7.500000000000002 12.990381056766578 25.0
    vertex 10.606601717798211 -10.606601717798215 25.0
    vertex 10.606601717798213 10.606601717798213 25.0
  endloop
endfacet
facet normal -0.0 -0.0 1.0
  outer loop
    vertex 10.606601717798213 10.606601717798213 25.0
    vertex 10.606601717798211 -10.606601717798215 25.0
    vertex 12.990381056766577 -7.500000000000007 25.0
  endloop
endfacet
facet normal -0.0 -0.0 1.0
  outer loop
    vertex 10.606601717798213 10.606601717798213 25.0
    vertex 12.990381056766577 -7.500000000000007 25.0
    vertex 12.990381056766582 7.499999999999999 25.0
  endloop
endfacet
facet normal -0.0 -0.0 1.0
  outer loop
    vertex 12.990381056766582 7.499999999999999 25.0
    vertex 12.990381056766577 -7.500000000000007 25.0
    vertex 14.488887394336022 -3.882285676537824 25.0
  endloop
endfacet
facet normal -0.0 -0.0 1.0
  outer loop
    vertex 12.990381056766582 7.499999999999999 25.0
    vertex 14.488887394336022 -3.882285676537824 25.0
    vertex 14.488887394336025 3.882285676537811 25.0
  endloop
endfacet
facet normal -0.0 -0.0 1.0
  outer loop
    vertex 14.488887394336025 3.882285676537811 25.0
    vertex 14.488887394336022 -3.882285676537824 25.0
    vertex 15.0 0.0 25.0
  endloop
endfacet
facet normal 0.923879532511287 0.3826834323650894 0.0
  outer loop
    vertex 12.990381056766582 7.499999999999999 22.0
    vertex 14.488887394336025 3.882285676537811 25.0
    vertex 14.488887394336025 3.882285676537811 22.0
  endloop
endfacet
facet normal 0.923879532511287 0.3826834323650894 0.0
  outer loop
    vertex 14.488887394336025 3.882285676537811 25.0
    vertex 12.990381056766582 7.499999999999999 22.0
    vertex 12.990381056766582 7.499999999999999 25.0
  endloop
endfacet
facet normal 0.9914448613738104 0.13052619222005174 0.0
  outer loop
    vertex 14.488887394336025 3.882285676537811 22.0
    vertex 15.0 0.0 25.0
    vertex 15.0 0.0 22.0
  endloop
endfacet
facet normal 0.9914448613738104 0.13052619222005174 0.0
  outer loop
    vertex 15.0 0.0 25.0
    vertex 14.488887394336025 3.882285676537811 22.0
    vertex 14.488887394336025 3.882285676537811 25.0
  endloop
endfacet
facet normal 0.9914448613738105 -0.13052619222005205 0.0
  outer loop
    vertex 15.0 0.0 22.0
    vertex 14.488887394336022 -3.882285676537824 25.0
    vertex 14.488887394336022 -3.882285676537824 22.0
  endloop
endfacet
facet normal 0.9914448613738105 -0.13052619222005205 0.0
  outer loop
    vertex 14.488887394336022 -3.882285676537824 25.0
    vertex 15.0 0.0 22.0
    vertex 15.0 0.0 25.0
  endloop
endfacet
facet normal 0.9238795325112865 -0.3826834323650904 0.0
  outer loop
    vertex 14.488887394336022 -3.882285676537824 22.0
    vertex 12.990381056766577 -7.500000000000007 25.0
    vertex 12.990381056766577 -7.500000000000007 22.0
  endloop
endfacet
facet normal 0.9238795325112865 -0.3826834323650904 0.0
  outer loop
    vertex 12.990381056766577 -7.500000000000007 25.0
    vertex 14.488887394336022 -3.882285676537824 22.0
    vertex 14.488887394336022 -3.882285676537824 25.0
  endloop
endfacet
facet normal 0.7933533402912349 -0.608761429008721 0.0
  outer loop
    vertex 12.990381056766577 -7.500000000000007 22.0
    vertex 10.606601717798211 -10.606601717798215 25.0
    vertex 10.606601717798211 -10.606601717798215 22.0
  endloop
endfacet
facet normal 0.7933533402912349 -0.608761429008721 0.0
  outer loop
    vertex 10.606601717798211 -10.606601717798215 25.0
    vertex 12.990381056766577 -7.500000000000007 22.0
    vertex 12.990381056766577 -7.500000000000007 25.0
  endloop
endfacet
facet normal 0.6087614290087204 -0.7933533402912355 0.0
  outer loop
    vertex 10.606601717798211 -10.606601717798215 25.0
    vertex 7.499999999999989 -12.990381056766587 22.0
    vertex 10.606601717798211 -10.606601717798215 22.0
  endloop
endfacet
facet normal 0.6087614290087204 -0.7933533402912355 0.0
  outer loop
    vertex 7.499999999999989 -12.990381056766587 22.0
    vertex 10.606601717798211 -10.606601717798215 25.0
    vertex 7.499999999999989 -12.990381056766587 25.0
  endloop
endfacet
facet normal 0.3826834323650891 -0.9238795325112871 0.0
  outer loop
    vertex 7.499999999999989 -12.990381056766587 25.0
    vertex 3.882285676537805 -14.488887394336027 22.0
    vertex 7.499999999999989 -12.990381056766587 22.0
  endloop
endfacet
facet normal 0.3826834323650891 -0.9238795325112871 0.0
  outer loop
    vertex 3.882285676537805 -14.488887394336027 22.0
    vertex 7.499999999999989 -12.990381056766587 25.0
    vertex 3.882285676537805 -14.488887394336027 25.0
  endloop
endfacet
facet normal 0.13052619222005116 -0.9914448613738106 0.0
  outer loop
    vertex 3.882285676537805 -14.488887394336027 25.0
    vertex -2.7554552980815448e-15 -15.0 22.0
    vertex 3.882285676537805 -14.488887394336027 22.0
  endloop
endfacet
facet normal 0.13052619222005116 -0.9914448613738106 0.0
  outer loop
    vertex -2.7554552980815448e-15 -15.0 22.0
    vertex 3.882285676537805 -14.488887394336027 25.0
    vertex -2.7554552980815448e-15 -15.0 25.0
  endloop
endfacet
facet normal -0.13052619222005216 -0.9914448613738104 -0.0
  outer loop
    vertex -2.7554552980815448e-15 -15.0 25.0
    vertex -3.882285676537823 -14.488887394336022 22.0
    vertex -2.7554552980815448e-15 -15.0 22.0
  endloop
endfacet
facet normal -0.13052619222005216 -0.9914448613738104 -0.0
  outer loop
    vertex -3.882285676537823 -14.488887394336022 22.0
    vertex -2.7554552980815448e-15 -15.0 25.0
    vertex -3.882285676537823 -14.488887394336022 25.0
  endloop
endfacet
facet normal -0.38268343236509034 -0.9238795325112865 -0.0
  outer loop
    vertex -3.882285676537823 -14.488887394336022 25.0
    vertex -7.500000000000007 -12.990381056766577 22.0
    vertex -3.882285676537823 -14.488887394336022 22.0
  endloop
endfacet
facet normal -0.38268343236509034 -0.9238795325112865 -0.0
  outer loop
    vertex -7.500000000000007 -12.990381056766577 22.0
    vertex -3.882285676537823 -14.488887394336022 25.0
    vertex -7.500000000000007 -12.990381056766577 25.0
  endloop
endfacet
facet normal -0.6087614290087211 -0.7933533402912348 -0.0
  outer loop
    vertex -7.500000000000007 -12.990381056766577 25.0
    vertex -10.60660171779822 -10.606601717798206 22.0
    vertex -7.500000000000007 -12.990381056766577 22.0
  endloop
endfacet
facet normal -0.6087614290087211 -0.7933533402912348 -0.0
  outer loop
    vertex -10.60660171779822 -10.606601717798206 22.0
    vertex -7.500000000000007 -12.990381056766577 25.0
    vertex -10.60660171779822 -10.606601717798206 25.0
  endloop
endfacet
facet normal -0.7933533402912355 -0.6087614290087202 -0.0
  outer loop
    vertex -12.990381056766582 -7.4999999999999964 25.0
    vertex -10.60660171779822 -10.606601717798206 22.0
    vertex -10.60660171779822 -10.606601717798206 25.0
  endloop
endfacet
facet normal -0.7933533402912355 -0.6087614290087202 -0.0
  outer loop
    vertex -10.60660171779822 -10.606601717798206 22.0
    vertex -12.990381056766582 -7.4999999999999964 25.0
    vertex -12.990381056766582 -7.4999999999999964 22.0
  endloop
endfacet
facet normal -0.9238795325112867 -0.3826834323650898 -0.0
  outer loop
    vertex -14.488887394336027 -3.8822856765378058 25.0
    vertex -12.990381056766582 -7.4999999999999964 22.0
    vertex -12.990381056766582 -7.4999999999999964 25.0
  endloop
endfacet
facet normal -0.9238795325112867 -0.3826834323650898 -0.0
  outer loop
    vertex -12.990381056766582 -7.4999999999999964 22.0
    vertex -14.488887394336027 -3.8822856765378058 25.0
    vertex -14.488887394336027 -3.8822856765378058 22.0
  endloop
endfacet
facet normal -0.9914448613738106 -0.13052619222005116 -0.0
  outer loop
    vertex -15.0 1.83697019872103e-15 25.0
    vertex -14.488887394336027 -3.8822856765378058 22.0
    vertex -14.488887394336027 -3.8822856765378058 25.0
  endloop
endfacet
facet normal -0.9914448613738106 -0.13052619222005116 -0.0
  outer loop
    vertex -14.488887394336027 -3.8822856765378058 22.0
    vertex -15.0 1.83697019872103e-15 25.0
    vertex -15.0 1.83697019872103e-15 22.0
  endloop
endfacet
facet normal -0.9914448613738104 0.13052619222005168 0.0
  outer loop
    vertex -14.488887394336025 3.8822856765378155 25.0
    vertex -15.0 1.83697019872103e-15 22.0
    vertex -15.0 1.83697019872103e-15 25.0
  endloop
endfacet
facet normal -0.9914448613738104 0.13052619222005168 0.0
  outer loop
    vertex -15.0 1.83697019872103e-15 22.0
    vertex -14.488887394336025 3.8822856765378155 25.0
    vertex -14.488887394336025 3.8822856765378155 22.0
  endloop
endfacet
facet normal -0.9238795325112867 0.3826834323650898 0.0
  outer loop
    vertex -12.990381056766578 7.500000000000006 25.0
    vertex -14.488887394336025 3.8822856765378155 22.0
    vertex -14.488887394336025 3.8822856765378155 25.0
  endloop
endfacet
facet normal -0.9238795325112867 0.3826834323650898 0.0
  outer loop
    vertex -14.488887394336025 3.8822856765378155 22.0
    vertex -12.990381056766578 7.500000000000006 25.0
    vertex -12.990381056766578 7.500000000000006 22.0
  endloop
endfacet
facet normal -0.7933533402912347 0.6087614290087212 0.0
  outer loop
    vertex -10.606601717798213 10.606601717798213 25.0
    vertex -12.990381056766578 7.500000000000006 22.0
    vertex -12.990381056766578 7.500000000000006 25.0
  endloop
endfacet
facet normal -0.7933533402912347 0.6087614290087212 0.0
  outer loop
    vertex -12.990381056766578 7.500000000000006 22.0
    vertex -10.606601717798213 10.606601717798213 25.0
    vertex -10.606601717798213 10.606601717798213 22.0
  endloop
endfacet
facet normal -0.6087614290087207 0.7933533402912354 0.0
  outer loop
    vertex -10.606601717798213 10.606601717798213 25.0
    vertex -7.499999999999997 12.990381056766582 22.0
    vertex -10.606601717798213 10.606601717798213 22.0
  endloop
endfacet
facet normal -0.6087614290087207 0.7933533402912354 0.0
  outer loop
    vertex -7.499999999999997 12.990381056766582 22.0
    vertex -10.606601717798213 10.606601717798213 25.0
    vertex -7.499999999999997 12.990381056766582 25.0
  endloop
endfacet
facet normal -0.3826834323650894 0.923879532511287 0.0
  outer loop
    vertex -7.499999999999997 12.990381056766582 25.0
    vertex -3.8822856765378098 14.488887394336025 22.0
    vertex -7.499999999999997 12.990381056766582 22.0
  endloop
endfacet
facet normal -0.3826834323650894 0.923879532511287 0.0
  outer loop
    vertex -3.8822856765378098 14.488887394336025 22.0
    vertex -7.499999999999997 12.990381056766582 25.0
    vertex -3.8822856765378098 14.488887394336025 25.0
  endloop
endfacet
facet normal -0.13052619222005177 0.9914448613738105 0.0
  outer loop
    vertex -3.8822856765378098 14.488887394336025 25.0
    vertex 9.18485099360515e-16 15.0 22.0
    vertex -3.8822856765378098 14.488887394336025 22.0
  endloop
endfacet
facet normal -0.13052619222005177 0.9914448613738105 0.0
  outer loop
    vertex 9.18485099360515e-16 15.0 22.0
    vertex -3.8822856765378098 14.488887394336025 25.0
    vertex 9.18485099360515e-16 15.0 25.0
  endloop
endfacet
facet normal 0.13052619222005166 0.9914448613738104 0.0
  outer loop
    vertex 9.18485099360515e-16 15.0 25.0
    vertex 3.8822856765378146 14.488887394336025 22.0
    vertex 9.18485099360515e-16 15.0 22.0
  endloop
endfacet
facet normal 0.13052619222005166 0.9914448613738104 0.0
  outer loop
    vertex 3.8822856765378146 14.488887394336025 22.0
    vertex 9.18485099360515e-16 15.0 25.0
    vertex 3.8822856765378146 14.488887394336025 25.0
  endloop
endfacet
facet normal 0.3826834323650901 0.9238795325112867 0.0
  outer loop
    vertex 3.8822856765378146 14.488887394336025 25.0
    vertex 7.500000000000002 12.990381056766578 22.0
    vertex 3.8822856765378146 14.488887394336025 22.0
  endloop
endfacet
facet normal 0.3826834323650901 0.9238795325112867 0.0
  outer loop
    vertex 7.500000000000002 12.990381056766578 22.0
    vertex 3.8822856765378146 14.488887394336025 25.0
    vertex 7.500000000000002 12.990381056766578 25.0
  endloop
endfacet
facet normal 0.6087614290087207 0.7933533402912353 0.0
  outer loop
    vertex 7.500000000000002 12.990381056766578 25.0
    vertex 10.606601717798213 10.606601717798213 22.0
    vertex 7.500000000000002 12.990381056766578 22.0
  endloop
endfacet
facet normal 0.6087614290087207 0.7933533402912353 0.0
  outer loop
    vertex 10.606601717798213 10.606601717798213 22.0
    vertex 7.500000000000002 12.990381056766578 25.0
    vertex 10.606601717798213 10.606601717798213 25.0
  endloop
endfacet
facet normal 0.7933533402912352 0.6087614290087208 0.0
  outer loop
    vertex 10.606601717798213 10.606601717798213 22.0
    vertex 12.990381056766582 7.499999999999999 25.0
    vertex 12.990381056766582 7.499999999999999 22.0
  endloop
endfacet
facet normal 0.7933533402912352 0.6087614290087208 0.0
  outer loop
    vertex 12.990381056766582 7.499999999999999 25.0
    vertex 10.606601717798213 10.606601717798213 22.0
    vertex 10.606601717798213 10.606601717798213 25.0
  endloop
endfacet
facet normal 0.0 0.0 -1.0
  outer loop
    vertex -2.588190451025206 9.659258262890683 0.0
    vertex -3.0 3.67394039744206e-16 0.0
    vertex -4.999999999999998 8.660254037844387 0.0
  endloop
endfacet
facet normal 0.0 0.0 -1.0
  outer loop
    vertex -3.0 3.67394039744206e-16 0.0
    vertex -2.588190451025206 9.659258262890683 0.0
    vertex -2.8977774788672046 0.7764571353075631 0.0
  endloop
endfacet
facet normal 0.0 0.0 -1.0
  outer loop
    vertex -2.8977774788672046 0.7764571353075631 0.0
    vertex -2.588190451025206 9.659258262890683 0.0
    vertex -2.5980762113533156 1.500000000000001 0.0
  endloop
endfacet
facet normal 0.0 0.0 -1.0
  outer loop
    vertex -2.5980762113533156 1.500000000000001 0.0
    vertex -2.588190451025206 9.659258262890683 0.0
    vertex -2.1213203435596424 2.121320343559643 0.0
  endloop
endfacet
facet normal 0.0 0.0 -1.0
  outer loop
    vertex -2.1213203435596424 2.121320343559643 0.0
    vertex -2.588190451025206 9.659258262890683 0.0
    vertex 6.123233995736766e-16 10.0 0.0
  endloop
endfacet
facet normal 0.0 0.0 -1.0
  outer loop
    vertex -2.1213203435596424 2.121320343559643 0.0
    vertex 6.123233995736766e-16 10.0 0.0
    vertex -1.4999999999999991 2.598076211353316 0.0
  endloop
endfacet
facet normal 0.0 0.0 -1.0
  outer loop
    vertex -1.4999999999999991 2.598076211353316 0.0
    vertex 6.123233995736766e-16 10.0 0.0
    vertex -0.7764571353075619 2.897777478867205 0.0
  endloop
endfacet
facet normal 0.0 0.0 -1.0
  outer loop
    vertex -0.7764571353075619 2.897777478867205 0.0
    vertex 6.123233995736766e-16 10.0 0.0
    vertex 1.8369701987210297e-16 3.0 0.0
  endloop
endfacet
facet normal 0.0 0.0 -1.0
  outer loop
    vertex 1.8369701987210297e-16 3.0 0.0
    vertex 6.123233995736766e-16 10.0 0.0
    vertex 0.7764571353075629 2.897777478867205 0.0
  endloop
endfacet
facet normal 0.0 0.0 -1.0
  outer loop
    vertex 0.7764571353075629 2.897777478867205 0.0
    vertex 6.123233995736766e-16 10.0 0.0
    vertex 2.5881904510252096 9.659258262890683 0.0
  endloop
endfacet
facet normal 0.0 0.0 -1.0
  outer loop
    vertex 0.7764571353075629 2.897777478867205 0.0
    vertex 2.5881904510252096 9.659258262890683 0.0
    vertex 1.5000000000000002 2.5980762113533156 0.0
  endloop
endfacet
facet normal 0.0 0.0 -1.0
  outer loop
    vertex 1.5000000000000002 2.5980762113533156 0.0
    vertex 2.5881904510252096 9.659258262890683 0.0
    vertex 2.1213203435596424 2.1213203435596424 0.0
  endloop
endfacet
facet normal 0.0 0.0 -1.0
  outer loop
    vertex 2.1213203435596424 2.1213203435596424 0.0
    vertex 2.5881904510252096 9.659258262890683 0.0
    vertex 2.5980762113533156 1.5 0.0
  endloop
endfacet
facet normal 0.0 0.0 -1.0
  outer loop
    vertex 2.5980762113533156 1.5 0.0
    vertex 2.5881904510252096 9.659258262890683 0.0
    vertex 5.000000000000002 8.660254037844386 0.0
  endloop
endfacet
facet normal 0.0 0.0 -1.0
  outer loop
    vertex 2.5980762113533156 1.5 0.0
    vertex 5.000000000000002 8.660254037844386 0.0
    vertex 2.897777478867205 0.7764571353075622 0.0
  endloop
endfacet
facet normal 0.0 0.0 -1.0
  outer loop
    vertex 2.897777478867205 0.7764571353075622 0.0
    vertex 5.000000000000002 8.660254037844386 0.0
    vertex 3.0 0.0 0.0
  endloop
endfacet
facet normal 0.0 0.0 -1.0
  outer loop
    vertex 3.0 0.0 0.0
    vertex 5.000000000000002 8.660254037844386 0.0
    vertex 4.999999999999993 -8.66025403784439 0.0
  endloop
endfacet
facet normal 0.0 0.0 -1.0
  outer loop
    vertex 4.999999999999993 -8.66025403784439 0.0
    vertex 5.000000000000002 8.660254037844386 0.0
    vertex 7.071067811865473 -7.071067811865477 0.0
  endloop
endfacet
facet normal 0.0 0.0 -1.0
  outer loop
    vertex 7.071067811865473 -7.071067811865477 0.0
    vertex 5.000000000000002 8.660254037844386 0.0
    vertex 7.071067811865476 7.071067811865475 0.0
  endloop
endfacet
facet normal 0.0 0.0 -1.0
  outer loop
    vertex 7.071067811865473 -7.071067811865477 0.0
    vertex 7.071067811865476 7.071067811865475 0.0
    vertex 8.660254037844384 -5.000000000000004 0.0
  endloop
endfacet
facet normal 0.0 0.0 -1.0
  outer loop
    vertex 8.660254037844384 -5.000000000000004 0.0
    vertex 7.071067811865476 7.071067811865475 0.0
    vertex 8.660254037844387 4.999999999999999 0.0
  endloop
endfacet
facet normal 0.0 0.0 -1.0
  outer loop
    vertex 8.660254037844384 -5.000000000000004 0.0
    vertex 8.660254037844387 4.999999999999999 0.0
    vertex 9.659258262890681 -2.588190451025216 0.0
  endloop
endfacet
facet normal 0.0 0.0 -1.0
  outer loop
    vertex 9.659258262890681 -2.588190451025216 0.0
    vertex 8.660254037844387 4.999999999999999 0.0
    vertex 9.659258262890683 2.5881904510252074 0.0
  endloop
endfacet
facet normal 0.0 0.0 -1.0
  outer loop
    vertex 9.659258262890681 -2.588190451025216 0.0
    vertex 9.659258262890683 2.5881904510252074 0.0
    vertex 10.0 0.0 0.0
  endloop
endfacet
facet normal 0.0 0.0 -1.0
  outer loop
    vertex -9.659258262890683 2.58819045102521 0.0
    vertex -9.659258262890685 -2.5881904510252034 0.0
    vertex -10.0 1.2246467991473533e-15 0.0
  endloop
endfacet
facet normal 0.0 0.0 -1.0
  outer loop
    vertex -9.659258262890685 -2.5881904510252034 0.0
    vertex -9.659258262890683 2.58819045102521 0.0
    vertex -8.660254037844389 -4.999999999999997 0.0
  endloop
endfacet
facet normal 0.0 0.0 -1.0
  outer loop
    vertex -8.660254037844389 -4.999999999999997 0.0
    vertex -9.659258262890683 2.58819045102521 0.0
    vertex -8.660254037844386 5.0000000000000036 0.0
  endloop
endfacet
facet normal 0.0 0.0 -1.0
  outer loop
    vertex -8.660254037844389 -4.999999999999997 0.0
    vertex -8.660254037844386 5.0000000000000036 0.0
    vertex -7.071067811865479 -7.071067811865472 0.0
  endloop
endfacet
facet normal 0.0 0.0 -1.0
  outer loop
    vertex -7.071067811865479 -7.071067811865472 0.0
    vertex -8.660254037844386 5.0000000000000036 0.0
    vertex -7.071067811865475 7.071067811865476 0.0
  endloop
endfacet
facet normal 0.0 0.0 -1.0
  outer loop
    vertex -7.071067811865479 -7.071067811865472 0.0
    vertex -7.071067811865475 7.071067811865476 0.0
    vertex -5.000000000000004 -8.660254037844384 0.0
  endloop
endfacet
facet normal 0.0 0.0 -1.0
  outer loop
    vertex -5.000000000000004 -8.660254037844384 0.0
    vertex -7.071067811865475 7.071067811865476 0.0
    vertex -4.999999999999998 8.660254037844387 0.0
  endloop
endfacet
facet normal 0.0 0.0 -1.0
  outer loop
    vertex -5.000000000000004 -8.660254037844384 0.0
    vertex -4.999999999999998 8.660254037844387 0.0
    vertex -2.5881904510252154 -9.659258262890681 0.0
  endloop
endfacet
facet normal 0.0 0.0 -1.0
  outer loop
    vertex -2.5881904510252154 -9.659258262890681 0.0
    vertex -4.999999999999998 8.660254037844387 0.0
    vertex -3.0 3.67394039744206e-16 0.0
  endloop
endfacet
facet normal 0.0 0.0 -1.0
  outer loop
    vertex -2.5881904510252154 -9.659258262890681 0.0
    vertex -3.0 3.67394039744206e-16 0.0
    vertex -2.897777478867205 -0.7764571353075611 0.0
  endloop
endfacet
facet normal 0.0 0.0 -1.0
  outer loop
    vertex -2.5881904510252154 -9.659258262890681 0.0
    vertex -2.897777478867205 -0.7764571353075611 0.0
    vertex -2.598076211353316 -1.4999999999999991 0.0
  endloop
endfacet
facet normal 0.0 0.0 -1.0
  outer loop
    vertex -2.5881904510252154 -9.659258262890681 0.0
    vertex -2.598076211353316 -1.4999999999999991 0.0
    vertex -2.1213203435596437 -2.1213203435596415 0.0
  endloop
endfacet
facet normal 0.0 0.0 -1.0
  outer loop
    vertex -2.5881904510252154 -9.659258262890681 0.0
    vertex -2.1213203435596437 -2.1213203435596415 0.0
    vertex -1.8369701987210296e-15 -10.0 0.0
  endloop
endfacet
facet normal 0.0 0.0 -1.0
  outer loop
    vertex -1.8369701987210296e-15 -10.0 0.0
    vertex -2.1213203435596437 -2.1213203435596415 0.0
    vertex -1.5000000000000013 -2.5980762113533156 0.0
  endloop
endfacet
facet normal 0.0 0.0 -1.0
  outer loop
    vertex -1.8369701987210296e-15 -10.0 0.0
    vertex -1.5000000000000013 -2.5980762113533156 0.0
    vertex -0.7764571353075645 -2.8977774788672046 0.0
  endloop
endfacet
facet normal 0.0 0.0 -1.0
  outer loop
    vertex -1.8369701987210296e-15 -10.0 0.0
    vertex -0.7764571353075645 -2.8977774788672046 0.0
    vertex -5.510910596163089e-16 -3.0 0.0
  endloop
endfacet
facet normal 0.0 0.0 -1.0
  outer loop
    vertex -1.8369701987210296e-15 -10.0 0.0
    vertex -5.510910596163089e-16 -3.0 0.0
    vertex 2.588190451025203 -9.659258262890685 0.0
  endloop
endfacet
facet normal 0.0 0.0 -1.0
  outer loop
    vertex 2.588190451025203 -9.659258262890685 0.0
    vertex -5.510910596163089e-16 -3.0 0.0
    vertex 0.7764571353075608 -2.897777478867205 0.0
  endloop
endfacet
facet normal 0.0 0.0 -1.0
  outer loop
    vertex 2.588190451025203 -9.659258262890685 0.0
    vertex 0.7764571353075608 -2.897777478867205 0.0
    vertex 1.4999999999999978 -2.5980762113533173 0.0
  endloop
endfacet
facet normal 0.0 0.0 -1.0
  outer loop
    vertex 2.588190451025203 -9.659258262890685 0.0
    vertex 1.4999999999999978 -2.5980762113533173 0.0
    vertex 2.121320343559642 -2.1213203435596433 0.0
  endloop
endfacet
facet normal 0.0 0.0 -1.0
  outer loop
    vertex 2.588190451025203 -9.659258262890685 0.0
    vertex 2.121320343559642 -2.1213203435596433 0.0
    vertex 2.598076211353315 -1.5000000000000016 0.0
  endloop
endfacet
facet normal 0.0 0.0 -1.0
  outer loop
    vertex 2.588190451025203 -9.659258262890685 0.0
    vertex 2.598076211353315 -1.5000000000000016 0.0
    vertex 4.999999999999993 -8.66025403784439 0.0
  endloop
endfacet
facet normal 0.0 0.0 -1.0
  outer loop
    vertex 4.999999999999993 -8.66025403784439 0.0
    vertex 2.598076211353315 -1.5000000000000016 0.0
    vertex 2.897777478867204 -0.7764571353075648 0.0
  endloop
endfacet
facet normal 0.0 0.0 -1.0
  outer loop
    vertex 4.999999999999993 -8.66025403784439 0.0
    vertex 2.897777478867204 -0.7764571353075648 0.0
    vertex 3.0 0.0 0.0
  endloop
endfacet
facet normal 0.0 0.0 -1.0
  outer loop
    vertex -10.606601717798213 10.606601717798213 22.0
    vertex -9.659258262890683 2.58819045102521 22.0
    vertex -10.0 1.2246467991473533e-15 22.0
  endloop
endfacet
facet normal 0.0 0.0 -1.0
  outer loop
    vertex -9.659258262890683 2.58819045102521 22.0
    vertex -10.606601717798213 10.606601717798213 22.0
    vertex -7.499999999999997 12.990381056766582 22.0
  endloop
endfacet
facet normal 0.0 0.0 -1.0
  outer loop
    vertex -9.659258262890683 2.58819045102521 22.0
    vertex -7.499999999999997 12.990381056766582 22.0
    vertex -8.660254037844386 5.0000000000000036 22.0
  endloop
endfacet
facet normal 0.0 0.0 -1.0
  outer loop
    vertex -8.660254037844386 5.0000000000000036 22.0
    vertex -7.499999999999997 12.990381056766582 22.0
    vertex -7.071067811865475 7.071067811865476 22.0
  endloop
endfacet
facet normal 0.0 0.0 -1.0
  outer loop
    vertex -7.071067811865475 7.071067811865476 22.0
    vertex -7.499999999999997 12.990381056766582 22.0
    vertex -3.8822856765378098 14.488887394336025 22.0
  endloop
endfacet
facet normal 0.0 0.0 -1.0
  outer loop
    vertex -7.071067811865475 7.071067811865476 22.0
    vertex -3.8822856765378098 14.488887394336025 22.0
    vertex -4.999999999999998 8.660254037844387 22.0
  endloop
endfacet
facet normal 0.0 0.0 -1.0
  outer loop
    vertex -4.999999999999998 8.660254037844387 22.0
    vertex -3.8822856765378098 14.488887394336025 22.0
    vertex -2.588190451025206 9.659258262890683 22.0
  endloop
endfacet
facet normal 0.0 0.0 -1.0
  outer loop
    vertex -2.588190451025206 9.659258262890683 22.0
    vertex -3.8822856765378098 14.488887394336025 22.0
    vertex 9.18485099360515e-16 15.0 22.0
  endloop
endfacet
facet normal 0.0 0.0 -1.0
  outer loop
    vertex -2.588190451025206 9.659258262890683 22.0
    vertex 9.18485099360515e-16 15.0 22.0
    vertex 6.123233995736766e-16 10.0 22.0
  endloop
endfacet
facet normal 0.0 0.0 -1.0
  outer loop
    vertex 6.123233995736766e-16 10.0 22.0
    vertex 9.18485099360515e-16 15.0 22.0
    vertex 2.5881904510252096 9.659258262890683 22.0
  endloop
endfacet
facet normal 0.0 0.0 -1.0
  outer loop
    vertex 2.5881904510252096 9.659258262890683 22.0
    vertex 9.18485099360515e-16 15.0 22.0
    vertex 3.8822856765378146 14.488887394336025 22.0
  endloop
endfacet
facet normal 0.0 0.0 -1.0
  outer loop
    vertex 2.5881904510252096 9.659258262890683 22.0
    vertex 3.8822856765378146 14.488887394336025 22.0
    vertex 5.000000000000002 8.660254037844386 22.0
  endloop
endfacet
facet normal 0.0 0.0 -1.0
  outer loop
    vertex 5.000000000000002 8.660254037844386 22.0
    vertex 3.8822856765378146 14.488887394336025 22.0
    vertex 7.500000000000002 12.990381056766578 22.0
  endloop
endfacet
facet normal 0.0 0.0 -1.0
  outer loop
    vertex 5.000000000000002 8.660254037844386 22.0
    vertex 7.500000000000002 12.990381056766578 22.0
    vertex 7.071067811865476 7.071067811865475 22.0
  endloop
endfacet
facet normal 0.0 0.0 -1.0
  outer loop
    vertex 7.071067811865476 7.071067811865475 22.0
    vertex 7.500000000000002 12.990381056766578 22.0
    vertex 8.660254037844387 4.999999999999999 22.0
  endloop
endfacet
facet normal 0.0 0.0 -1.0
  outer loop
    vertex 8.660254037844387 4.999999999999999 22.0
    vertex 7.500000000000002 12.990381056766578 22.0
    vertex 10.606601717798213 10.606601717798213 22.0
  endloop
endfacet
facet normal 0.0 0.0 -1.0
  outer loop
    vertex 8.660254037844387 4.999999999999999 22.0
    vertex 10.606601717798213 10.606601717798213 22.0
    vertex 9.659258262890683 2.5881904510252074 22.0
  endloop
endfacet
facet normal 0.0 0.0 -1.0
  outer loop
    vertex 9.659258262890683 2.5881904510252074 22.0
    vertex 10.606601717798213 10.606601717798213 22.0
    vertex 10.0 0.0 22.0
  endloop
endfacet
facet normal 0.0 0.0 -1.0
  outer loop
    vertex 10.0 0.0 22.0
    vertex 10.606601717798213 10.606601717798213 22.0
    vertex 10.606601717798211 -10.606601717798215 22.0
  endloop
endfacet
facet normal 0.0 0.0 -1.0
  outer loop
    vertex 10.606601717798211 -10.606601717798215 22.0
    vertex 10.606601717798213 10.606601717798213 22.0
    vertex 12.990381056766577 -7.500000000000007 22.0
  endloop
endfacet
facet normal 0.0 0.0 -1.0
  outer loop
    vertex 12.990381056766577 -7.500000000000007 22.0
    vertex 10.606601717798213 10.606601717798213 22.0
    vertex 12.990381056766582 7.499999999999999 22.0
  endloop
endfacet
facet normal 0.0 0.0 -1.0
  outer loop
    vertex 12.990381056766577 -7.500000000000007 22.0
    vertex 12.990381056766582 7.499999999999999 22.0
    vertex 14.488887394336022 -3.882285676537824 22.0
  endloop
endfacet
facet normal 0.0 0.0 -1.0
  outer loop
    vertex 14.488887394336022 -3.882285676537824 22.0
    vertex 12.990381056766582 7.499999999999999 22.0
    vertex 14.488887394336025 3.882285676537811 22.0
  endloop
endfacet
facet normal 0.0 0.0 -1.0
  outer loop
    vertex 14.488887394336022 -3.882285676537824 22.0
    vertex 14.488887394336025 3.882285676537811 22.0
    vertex 15.0 0.0 22.0
  endloop
endfacet
facet normal 0.0 0.0 -1.0
  outer loop
    vertex -14.488887394336025 3.8822856765378155 22.0
    vertex -14.488887394336027 -3.8822856765378058 22.0
    vertex -15.0 1.83697019872103e-15 22.0
  endloop
endfacet
facet normal 0.0 0.0 -1.0
  outer loop
    vertex -14.488887394336027 -3.8822856765378058 22.0
    vertex -14.488887394336025 3.8822856765378155 22.0
    vertex -12.990381056766582 -7.4999999999999964 22.0
  endloop
endfacet
facet normal 0.0 0.0 -1.0
  outer loop
    vertex -12.990381056766582 -7.4999999999999964 22.0
    vertex -14.488887394336025 3.8822856765378155 22.0
    vertex -12.990381056766578 7.500000000000006 22.0
  endloop
endfacet
facet normal 0.0 0.0 -1.0
  outer loop
    vertex -12.990381056766582 -7.4999999999999964 22.0
    vertex -12.990381056766578 7.500000000000006 22.0
    vertex -10.60660171779822 -10.606601717798206 22.0
  endloop
endfacet
facet normal 0.0 0.0 -1.0
  outer loop
    vertex -10.60660171779822 -10.606601717798206 22.0
    vertex -12.990381056766578 7.500000000000006 22.0
    vertex -10.606601717798213 10.606601717798213 22.0
  endloop
endfacet
facet normal 0.0 0.0 -1.0
  outer loop
    vertex -10.60660171779822 -10.606601717798206 22.0
    vertex -10.606601717798213 10.606601717798213 22.0
    vertex -10.0 1.2246467991473533e-15 22.0
  endloop
endfacet
facet normal 0.0 0.0 -1.0
  outer loop
    vertex -10.60660171779822 -10.606601717798206 22.0
    vertex -10.0 1.2246467991473533e-15 22.0
    vertex -9.659258262890685 -2.5881904510252034 22.0
  endloop
endfacet
facet normal 0.0 0.0 -1.0
  outer loop
    vertex -10.60660171779822 -10.606601717798206 22.0
    vertex -9.659258262890685 -2.5881904510252034 22.0
    vertex -7.500000000000007 -12.990381056766577 22.0
  endloop
endfacet
facet normal 0.0 0.0 -1.0
  outer loop
    vertex -7.500000000000007 -12.990381056766577 22.0
    vertex -9.659258262890685 -2.5881904510252034 22.0
    vertex -8.660254037844389 -4.999999999999997 22.0
  endloop
endfacet
facet normal 0.0 0.0 -1.0
  outer loop
    vertex -7.500000000000007 -12.990381056766577 22.0
    vertex -8.660254037844389 -4.999999999999997 22.0
    vertex -7.071067811865479 -7.071067811865472 22.0
  endloop
endfacet
facet normal 0.0 0.0 -1.0
  outer loop
    vertex -7.500000000000007 -12.990381056766577 22.0
    vertex -7.071067811865479 -7.071067811865472 22.0
    vertex -3.882285676537823 -14.488887394336022 22.0
  endloop
endfacet
facet normal 0.0 0.0 -1.0
  outer loop
    vertex -3.882285676537823 -14.488887394336022 22.0
    vertex -7.071067811865479 -7.071067811865472 22.0
    vertex -5.000000000000004 -8.660254037844384 22.0
  endloop
endfacet
facet normal 0.0 0.0 -1.0
  outer loop
    vertex -3.882285676537823 -14.488887394336022 22.0
    vertex -5.000000000000004 -8.660254037844384 22.0
    vertex -2.5881904510252154 -9.659258262890681 22.0
  endloop
endfacet
facet normal 0.0 0.0 -1.0
  outer loop
    vertex -3.882285676537823 -14.488887394336022 22.0
    vertex -2.5881904510252154 -9.659258262890681 22.0
    vertex -2.7554552980815448e-15 -15.0 22.0
  endloop
endfacet
facet normal 0.0 0.0 -1.0
  outer loop
    vertex -2.7554552980815448e-15 -15.0 22.0
    vertex -2.5881904510252154 -9.659258262890681 22.0
    vertex -1.8369701987210296e-15 -10.0 22.0
  endloop
endfacet
facet normal 0.0 0.0 -1.0
  outer loop
    vertex -2.7554552980815448e-15 -15.0 22.0
    vertex -1.8369701987210296e-15 -10.0 22.0
    vertex 3.882285676537805 -14.488887394336027 22.0
  endloop
endfacet
facet normal 0.0 0.0 -1.0
  outer loop
    vertex 3.882285676537805 -14.488887394336027 22.0
    vertex -1.8369701987210296e-15 -10.0 22.0
    vertex 2.588190451025203 -9.659258262890685 22.0
  endloop
endfacet
facet normal 0.0 0.0 -1.0
  outer loop
    vertex 3.882285676537805 -14.488887394336027 22.0
    vertex 2.588190451025203 -9.659258262890685 22.0
    vertex 4.999999999999993 -8.66025403784439 22.0
  endloop
endfacet
facet normal 0.0 0.0 -1.0
  outer loop
    vertex 3.882285676537805 -14.488887394336027 22.0
    vertex 4.999999999999993 -8.66025403784439 22.0
    vertex 7.499999999999989 -12.990381056766587 22.0
  endloop
endfacet
facet normal 0.0 0.0 -1.0
  outer loop
    vertex 7.499999999999989 -12.990381056766587 22.0
    vertex 4.999999999999993 -8.66025403784439 22.0
    vertex 7.071067811865473 -7.071067811865477 22.0
  endloop
endfacet
facet normal 0.0 0.0 -1.0
  outer loop
    vertex 7.499999999999989 -12.990381056766587 22.0
    vertex 7.071067811865473 -7.071067811865477 22.0
    vertex 8.660254037844384 -5.000000000000004 22.0
  endloop
endfacet
facet normal 0.0 0.0 -1.0
  outer loop
    vertex 7.499999999999989 -12.990381056766587 22.0
    vertex 8.660254037844384 -5.000000000000004 22.0
    vertex 10.606601717798211 -10.606601717798215 22.0
  endloop
endfacet
facet normal 0.0 0.0 -1.0
  outer loop
    vertex 10.606601717798211 -10.606601717798215 22.0
    vertex 8.660254037844384 -5.000000000000004 22.0
    vertex 9.659258262890681 -2.588190451025216 22.0
  endloop
endfacet
facet normal 0.0 0.0 -1.0
  outer loop
    vertex 10.606601717798211 -10.606601717798215 22.0
    vertex 9.659258262890681 -2.588190451025216 22.0
    vertex 10.0 0.0 22.0
  endloop
endfacet
facet normal 0.9238795325112864 -0.3826834323650908 -0.0
  outer loop
    vertex 9.659258262890681 -2.588190451025216 0.0
    vertex 8.660254037844384 -5.000000000000004 22.0
    vertex 8.660254037844384 -5.000000000000004 0.0
  endloop
endfacet
facet normal 0.9238795325112864 -0.3826834323650908 -0.0
  outer loop
    vertex 8.660254037844384 -5.000000000000004 22.0
    vertex 9.659258262890681 -2.588190451025216 0.0
    vertex 9.659258262890681 -2.588190451025216 22.0
  endloop
endfacet
facet normal 0.9914448613738105 -0.13052619222005188 -0.0
  outer loop
    vertex 10.0 0.0 0.0
    vertex 9.659258262890681 -2.588190451025216 22.0
    vertex 9.659258262890681 -2.588190451025216 0.0
  endloop
endfacet
facet normal 0.9914448613738105 -0.13052619222005188 -0.0
  outer loop
    vertex 9.659258262890681 -2.588190451025216 22.0
    vertex 10.0 0.0 0.0
    vertex 10.0 0.0 22.0
  endloop
endfacet
facet normal 0.9914448613738104 0.13052619222005174 0.0
  outer loop
    vertex 9.659258262890683 2.5881904510252074 0.0
    vertex 10.0 0.0 22.0
    vertex 10.0 0.0 0.0
  endloop
endfacet
facet normal 0.9914448613738104 0.13052619222005174 0.0
  outer loop
    vertex 10.0 0.0 22.0
    vertex 9.659258262890683 2.5881904510252074 0.0
    vertex 9.659258262890683 2.5881904510252074 22.0
  endloop
endfacet
facet normal 0.9238795325112868 0.3826834323650893 0.0
  outer loop
    vertex 8.660254037844387 4.999999999999999 0.0
    vertex 9.659258262890683 2.5881904510252074 22.0
    vertex 9.659258262890683 2.5881904510252074 0.0
  endloop
endfacet
facet normal 0.9238795325112868 0.3826834323650893 0.0
  outer loop
    vertex 9.659258262890683 2.5881904510252074 22.0
    vertex 8.660254037844387 4.999999999999999 0.0
    vertex 8.660254037844387 4.999999999999999 22.0
  endloop
endfacet
facet normal 0.7933533402912353 0.6087614290087208 0.0
  outer loop
    vertex 7.071067811865476 7.071067811865475 0.0
    vertex 8.660254037844387 4.999999999999999 22.0
    vertex 8.660254037844387 4.999999999999999 0.0
  endloop
endfacet
facet normal 0.7933533402912353 0.6087614290087208 0.0
  outer loop
    vertex 8.660254037844387 4.999999999999999 22.0
    vertex 7.071067811865476 7.071067811865475 0.0
    vertex 7.071067811865476 7.071067811865475 22.0
  endloop
endfacet
facet normal 0.6087614290087209 0.7933533402912352 0.0
  outer loop
    vertex 5.000000000000002 8.660254037844386 22.0
    vertex 7.071067811865476 7.071067811865475 0.0
    vertex 5.000000000000002 8.660254037844386 0.0
  endloop
endfacet
facet normal 0.6087614290087209 0.7933533402912352 0.0
  outer loop
    vertex 7.071067811865476 7.071067811865475 0.0
    vertex 5.000000000000002 8.660254037844386 22.0
    vertex 7.071067811865476 7.071067811865475 22.0
  endloop
endfacet
facet normal 0.3826834323650899 0.9238795325112867 0.0
  outer loop
    vertex 2.5881904510252096 9.659258262890683 22.0
    vertex 5.000000000000002 8.660254037844386 0.0
    vertex 2.5881904510252096 9.659258262890683 0.0
  endloop
endfacet
facet normal 0.3826834323650899 0.9238795325112867 0.0
  outer loop
    vertex 5.000000000000002 8.660254037844386 0.0
    vertex 2.5881904510252096 9.659258262890683 22.0
    vertex 5.000000000000002 8.660254037844386 22.0
  endloop
endfacet
facet normal 0.13052619222005168 0.9914448613738105 0.0
  outer loop
    vertex 6.123233995736766e-16 10.0 22.0
    vertex 2.5881904510252096 9.659258262890683 0.0
    vertex 6.123233995736766e-16 10.0 0.0
  endloop
endfacet
facet normal 0.13052619222005168 0.9914448613738105 0.0
  outer loop
    vertex 2.5881904510252096 9.659258262890683 0.0
    vertex 6.123233995736766e-16 10.0 22.0
    vertex 2.5881904510252096 9.659258262890683 22.0
  endloop
endfacet
facet normal -0.13052619222005177 0.9914448613738104 -0.0
  outer loop
    vertex -2.588190451025206 9.659258262890683 22.0
    vertex 6.123233995736766e-16 10.0 0.0
    vertex -2.588190451025206 9.659258262890683 0.0
  endloop
endfacet
facet normal -0.13052619222005177 0.9914448613738104 -0.0
  outer loop
    vertex 6.123233995736766e-16 10.0 0.0
    vertex -2.588190451025206 9.659258262890683 22.0
    vertex 6.123233995736766e-16 10.0 22.0
  endloop
endfacet
facet normal -0.3826834323650894 0.923879532511287 -0.0
  outer loop
    vertex -4.999999999999998 8.660254037844387 22.0
    vertex -2.588190451025206 9.659258262890683 0.0
    vertex -4.999999999999998 8.660254037844387 0.0
  endloop
endfacet
facet normal -0.3826834323650894 0.923879532511287 -0.0
  outer loop
    vertex -2.588190451025206 9.659258262890683 0.0
    vertex -4.999999999999998 8.660254037844387 22.0
    vertex -2.588190451025206 9.659258262890683 22.0
  endloop
endfacet
facet normal -0.6087614290087204 0.7933533402912353 -0.0
  outer loop
    vertex -7.071067811865475 7.071067811865476 22.0
    vertex -4.999999999999998 8.660254037844387 0.0
    vertex -7.071067811865475 7.071067811865476 0.0
  endloop
endfacet
facet normal -0.6087614290087204 0.7933533402912353 -0.0
  outer loop
    vertex -4.999999999999998 8.660254037844387 0.0
    vertex -7.071067811865475 7.071067811865476 22.0
    vertex -4.999999999999998 8.660254037844387 22.0
  endloop
endfacet
facet normal -0.793353340291235 0.6087614290087209 -0.0
  outer loop
    vertex -7.071067811865475 7.071067811865476 22.0
    vertex -8.660254037844386 5.0000000000000036 0.0
    vertex -8.660254037844386 5.0000000000000036 22.0
  endloop
endfacet
facet normal -0.793353340291235 0.6087614290087209 -0.0
  outer loop
    vertex -8.660254037844386 5.0000000000000036 0.0
    vertex -7.071067811865475 7.071067811865476 22.0
    vertex -7.071067811865475 7.071067811865476 0.0
  endloop
endfacet
facet normal -0.9238795325112866 0.38268343236509006 -0.0
  outer loop
    vertex -8.660254037844386 5.0000000000000036 22.0
    vertex -9.659258262890683 2.58819045102521 0.0
    vertex -9.659258262890683 2.58819045102521 22.0
  endloop
endfacet
facet normal -0.9238795325112866 0.38268343236509006 -0.0
  outer loop
    vertex -9.659258262890683 2.58819045102521 0.0
    vertex -8.660254037844386 5.0000000000000036 22.0
    vertex -8.660254037844386 5.0000000000000036 0.0
  endloop
endfacet
facet normal -0.9914448613738105 0.13052619222005168 -0.0
  outer loop
    vertex -9.659258262890683 2.58819045102521 22.0
    vertex -10.0 1.2246467991473533e-15 0.0
    vertex -10.0 1.2246467991473533e-15 22.0
  endloop
endfacet
facet normal -0.9914448613738105 0.13052619222005168 -0.0
  outer loop
    vertex -10.0 1.2246467991473533e-15 0.0
    vertex -9.659258262890683 2.58819045102521 22.0
    vertex -9.659258262890683 2.58819045102521 0.0
  endloop
endfacet
facet normal -0.9914448613738105 -0.13052619222005138 -0.0
  outer loop
    vertex -10.0 1.2246467991473533e-15 22.0
    vertex -9.659258262890685 -2.5881904510252034 0.0
    vertex -9.659258262890685 -2.5881904510252034 22.0
  endloop
endfacet
facet normal -0.9914448613738105 -0.13052619222005138 -0.0
  outer loop
    vertex -9.659258262890685 -2.5881904510252034 0.0
    vertex -10.0 1.2246467991473533e-15 22.0
    vertex -10.0 1.2246467991473533e-15 0.0
  endloop
endfacet
facet normal -0.9238795325112871 -0.3826834323650891 -0.0
  outer loop
    vertex -9.659258262890685 -2.5881904510252034 22.0
    vertex -8.660254037844389 -4.999999999999997 0.0
    vertex -8.660254037844389 -4.999999999999997 22.0
  endloop
endfacet
facet normal -0.9238795325112871 -0.3826834323650891 -0.0
  outer loop
    vertex -8.660254037844389 -4.999999999999997 0.0
    vertex -9.659258262890685 -2.5881904510252034 22.0
    vertex -9.659258262890685 -2.5881904510252034 0.0
  endloop
endfacet
facet normal -0.7933533402912353 -0.6087614290087204 -0.0
  outer loop
    vertex -8.660254037844389 -4.999999999999997 22.0
    vertex -7.071067811865479 -7.071067811865472 0.0
    vertex -7.071067811865479 -7.071067811865472 22.0
  endloop
endfacet
facet normal -0.7933533402912353 -0.6087614290087204 -0.0
  outer loop
    vertex -7.071067811865479 -7.071067811865472 0.0
    vertex -8.660254037844389 -4.999999999999997 22.0
    vertex -8.660254037844389 -4.999999999999997 0.0
  endloop
endfacet
facet normal -0.6087614290087209 -0.7933533402912352 -0.0
  outer loop
    vertex -5.000000000000004 -8.660254037844384 22.0
    vertex -7.071067811865479 -7.071067811865472 0.0
    vertex -5.000000000000004 -8.660254037844384 0.0
  endloop
endfacet
facet normal -0.6087614290087209 -0.7933533402912352 -0.0
  outer loop
    vertex -7.071067811865479 -7.071067811865472 0.0
    vertex -5.000000000000004 -8.660254037844384 22.0
    vertex -7.071067811865479 -7.071067811865472 22.0
  endloop
endfacet
facet normal -0.38268343236509084 -0.9238795325112865 -0.0
  outer loop
    vertex -2.5881904510252154 -9.659258262890681 22.0
    vertex -5.000000000000004 -8.660254037844384 0.0
    vertex -2.5881904510252154 -9.659258262890681 0.0
  endloop
endfacet
facet normal -0.38268343236509084 -0.9238795325112865 -0.0
  outer loop
    vertex -5.000000000000004 -8.660254037844384 0.0
    vertex -2.5881904510252154 -9.659258262890681 22.0
    vertex -5.000000000000004 -8.660254037844384 22.0
  endloop
endfacet
facet normal -0.130526192220052 -0.9914448613738104 -0.0
  outer loop
    vertex -1.8369701987210296e-15 -10.0 22.0
    vertex -2.5881904510252154 -9.659258262890681 0.0
    vertex -1.8369701987210296e-15 -10.0 0.0
  endloop
endfacet
facet normal -0.130526192220052 -0.9914448613738104 -0.0
  outer loop
    vertex -2.5881904510252154 -9.659258262890681 0.0
    vertex -1.8369701987210296e-15 -10.0 22.0
    vertex -2.5881904510252154 -9.659258262890681 22.0
  endloop
endfacet
facet normal 0.13052619222005135 -0.9914448613738105 -0.0
  outer loop
    vertex 2.588190451025203 -9.659258262890685 22.0
    vertex -1.8369701987210296e-15 -10.0 0.0
    vertex 2.588190451025203 -9.659258262890685 0.0
  endloop
endfacet
facet normal 0.13052619222005135 -0.9914448613738105 -0.0
  outer loop
    vertex -1.8369701987210296e-15 -10.0 0.0
    vertex 2.588190451025203 -9.659258262890685 22.0
    vertex -1.8369701987210296e-15 -10.0 22.0
  endloop
endfacet
facet normal 0.38268343236508917 -0.923879532511287 -0.0
  outer loop
    vertex 4.999999999999993 -8.66025403784439 22.0
    vertex 2.588190451025203 -9.659258262890685 0.0
    vertex 4.999999999999993 -8.66025403784439 0.0
  endloop
endfacet
facet normal 0.38268343236508917 -0.923879532511287 -0.0
  outer loop
    vertex 2.588190451025203 -9.659258262890685 0.0
    vertex 4.999999999999993 -8.66025403784439 22.0
    vertex 2.588190451025203 -9.659258262890685 22.0
  endloop
endfacet
facet normal 0.6087614290087202 -0.7933533402912357 -0.0
  outer loop
    vertex 7.071067811865473 -7.071067811865477 22.0
    vertex 4.999999999999993 -8.66025403784439 0.0
    vertex 7.071067811865473 -7.071067811865477 0.0
  endloop
endfacet
facet normal 0.6087614290087202 -0.7933533402912357 -0.0
  outer loop
    vertex 4.999999999999993 -8.66025403784439 0.0
    vertex 7.071067811865473 -7.071067811865477 22.0
    vertex 4.999999999999993 -8.66025403784439 22.0
  endloop
endfacet
facet normal 0.7933533402912352 -0.6087614290087208 -0.0
  outer loop
    vertex 8.660254037844384 -5.000000000000004 0.0
    vertex 7.071067811865473 -7.071067811865477 22.0
    vertex 7.071067811865473 -7.071067811865477 0.0
  endloop
endfacet
facet normal 0.7933533402912352 -0.6087614290087208 -0.0
  outer loop
    vertex 7.071067811865473 -7.071067811865477 22.0
    vertex 8.660254037844384 -5.000000000000004 0.0
    vertex 8.660254037844384 -5.000000000000004 22.0
  endloop
endfacet
facet normal -0.9238795325112865 0.38268343236509045 -0.0
  outer loop
    vertex 2.897777478867204 -0.7764571353075648 25.000000000000004
    vertex 2.598076211353315 -1.5000000000000016 0.0
    vertex 2.598076211353315 -1.5000000000000016 25.000000000000004
  endloop
endfacet
facet normal -0.9238795325112865 0.38268343236509045 -0.0
  outer loop
    vertex 2.598076211353315 -1.5000000000000016 0.0
    vertex 2.897777478867204 -0.7764571353075648 25.000000000000004
    vertex 2.897777478867204 -0.7764571353075648 0.0
  endloop
endfacet
facet normal -0.793353340291235 0.608761429008721 -0.0
  outer loop
    vertex 2.598076211353315 -1.5000000000000016 25.000000000000004
    vertex 2.121320343559642 -2.1213203435596433 0.0
    vertex 2.121320343559642 -2.1213203435596433 25.000000000000004
  endloop
endfacet
facet normal -0.793353340291235 0.608761429008721 -0.0
  outer loop
    vertex 2.121320343559642 -2.1213203435596433 0.0
    vertex 2.598076211353315 -1.5000000000000016 25.000000000000004
    vertex 2.598076211353315 -1.5000000000000016 0.0
  endloop
endfacet
facet normal -0.6087614290087202 0.7933533402912357 -0.0
  outer loop
    vertex 1.4999999999999978 -2.5980762113533173 25.000000000000004
    vertex 2.121320343559642 -2.1213203435596433 0.0
    vertex 1.4999999999999978 -2.5980762113533173 0.0
  endloop
endfacet
facet normal -0.6087614290087202 0.7933533402912357 -0.0
  outer loop
    vertex 2.121320343559642 -2.1213203435596433 0.0
    vertex 1.4999999999999978 -2.5980762113533173 25.000000000000004
    vertex 2.121320343559642 -2.1213203435596433 25.000000000000004
  endloop
endfacet
facet normal -0.3826834323650892 0.9238795325112871 -0.0
  outer loop
    vertex 0.7764571353075608 -2.897777478867205 25.000000000000004
    vertex 1.4999999999999978 -2.5980762113533173 0.0
    vertex 0.7764571353075608 -2.897777478867205 0.0
  endloop
endfacet
facet normal -0.3826834323650892 0.9238795325112871 -0.0
  outer loop
    vertex 1.4999999999999978 -2.5980762113533173 0.0
    vertex 0.7764571353075608 -2.897777478867205 25.000000000000004
    vertex 1.4999999999999978 -2.5980762113533173 25.000000000000004
  endloop
endfacet
facet normal -0.13052619222005146 0.9914448613738105 -0.0
  outer loop
    vertex -5.510910596163089e-16 -3.0 25.000000000000004
    vertex 0.7764571353075608 -2.897777478867205 0.0
    vertex -5.510910596163089e-16 -3.0 0.0
  endloop
endfacet
facet normal -0.13052619222005146 0.9914448613738105 -0.0
  outer loop
    vertex 0.7764571353075608 -2.897777478867205 0.0
    vertex -5.510910596163089e-16 -3.0 25.000000000000004
    vertex 0.7764571353075608 -2.897777478867205 25.000000000000004
  endloop
endfacet
facet normal 0.1305261922200519 0.9914448613738104 0.0
  outer loop
    vertex -0.7764571353075645 -2.8977774788672046 25.000000000000004
    vertex -5.510910596163089e-16 -3.0 0.0
    vertex -0.7764571353075645 -2.8977774788672046 0.0
  endloop
endfacet
facet normal 0.1305261922200519 0.9914448613738104 0.0
  outer loop
    vertex -5.510910596163089e-16 -3.0 0.0
    vertex -0.7764571353075645 -2.8977774788672046 25.000000000000004
    vertex -5.510910596163089e-16 -3.0 25.000000000000004
  endloop
endfacet
facet normal 0.38268343236509045 0.9238795325112866 0.0
  outer loop
    vertex -1.5000000000000013 -2.5980762113533156 25.000000000000004
    vertex -0.7764571353075645 -2.8977774788672046 0.0
    vertex -1.5000000000000013 -2.5980762113533156 0.0
  endloop
endfacet
facet normal 0.38268343236509045 0.9238795325112866 0.0
  outer loop
    vertex -0.7764571353075645 -2.8977774788672046 0.0
    vertex -1.5000000000000013 -2.5980762113533156 25.000000000000004
    vertex -0.7764571353075645 -2.8977774788672046 25.000000000000004
  endloop
endfacet
facet normal 0.6087614290087212 0.7933533402912347 0.0
  outer loop
    vertex -2.1213203435596437 -2.1213203435596415 25.000000000000004
    vertex -1.5000000000000013 -2.5980762113533156 0.0
    vertex -2.1213203435596437 -2.1213203435596415 0.0
  endloop
endfacet
facet normal 0.6087614290087212 0.7933533402912347 0.0
  outer loop
    vertex -1.5000000000000013 -2.5980762113533156 0.0
    vertex -2.1213203435596437 -2.1213203435596415 25.000000000000004
    vertex -1.5000000000000013 -2.5980762113533156 25.000000000000004
  endloop
endfacet
facet normal 0.7933533402912357 0.6087614290087201 0.0
  outer loop
    vertex -2.598076211353316 -1.4999999999999991 0.0
    vertex -2.1213203435596437 -2.1213203435596415 25.000000000000004
    vertex -2.1213203435596437 -2.1213203435596415 0.0
  endloop
endfacet
facet normal 0.7933533402912357 0.6087614290087201 0.0
  outer loop
    vertex -2.1213203435596437 -2.1213203435596415 25.000000000000004
    vertex -2.598076211353316 -1.4999999999999991 0.0
    vertex -2.598076211353316 -1.4999999999999991 25.000000000000004
  endloop
endfacet
facet normal 0.9238795325112868 0.38268343236508945 0.0
  outer loop
    vertex -2.897777478867205 -0.7764571353075611 0.0
    vertex -2.598076211353316 -1.4999999999999991 25.000000000000004
    vertex -2.598076211353316 -1.4999999999999991 0.0
  endloop
endfacet
facet normal 0.9238795325112868 0.38268343236508945 0.0
  outer loop
    vertex -2.598076211353316 -1.4999999999999991 25.000000000000004
    vertex -2.897777478867205 -0.7764571353075611 0.0
    vertex -2.897777478867205 -0.7764571353075611 25.000000000000004
  endloop
endfacet
facet normal 0.9914448613738106 0.13052619222005146 0.0
  outer loop
    vertex -3.0 3.67394039744206e-16 0.0
    vertex -2.897777478867205 -0.7764571353075611 25.000000000000004
    vertex -2.897777478867205 -0.7764571353075611 0.0
  endloop
endfacet
facet normal 0.9914448613738106 0.13052619222005146 0.0
  outer loop
    vertex -2.897777478867205 -0.7764571353075611 25.000000000000004
    vertex -3.0 3.67394039744206e-16 0.0
    vertex -3.0 3.67394039744206e-16 25.000000000000004
  endloop
endfacet
facet normal 0.9914448613738104 -0.13052619222005166 -0.0
  outer loop
    vertex -2.8977774788672046 0.7764571353075631 0.0
    vertex -3.0 3.67394039744206e-16 25.000000000000004
    vertex -3.0 3.67394039744206e-16 0.0
  endloop
endfacet
facet normal 0.9914448613738104 -0.13052619222005166 -0.0
  outer loop
    vertex -3.0 3.67394039744206e-16 25.000000000000004
    vertex -2.8977774788672046 0.7764571353075631 0.0
    vertex -2.8977774788672046 0.7764571353075631 25.000000000000004
  endloop
endfacet
facet normal 0.9238795325112867 -0.3826834323650899 -0.0
  outer loop
    vertex -2.5980762113533156 1.500000000000001 0.0
    vertex -2.8977774788672046 0.7764571353075631 25.000000000000004
    vertex -2.8977774788672046 0.7764571353075631 0.0
  endloop
endfacet
facet normal 0.9238795325112867 -0.3826834323650899 -0.0
  outer loop
    vertex -2.8977774788672046 0.7764571353075631 25.000000000000004
    vertex -2.5980762113533156 1.500000000000001 0.0
    vertex -2.5980762113533156 1.500000000000001 25.000000000000004
  endloop
endfacet
facet normal 0.793353340291235 -0.608761429008721 -0.0
  outer loop
    vertex -2.1213203435596424 2.121320343559643 0.0
    vertex -2.5980762113533156 1.500000000000001 25.000000000000004
    vertex -2.5980762113533156 1.500000000000001 0.0
  endloop
endfacet
facet normal 0.793353340291235 -0.608761429008721 -0.0
  outer loop
    vertex -2.5980762113533156 1.500000000000001 25.000000000000004
    vertex -2.1213203435596424 2.121320343559643 0.0
    vertex -2.1213203435596424 2.121320343559643 25.000000000000004
  endloop
endfacet
facet normal 0.6087614290087202 -0.7933533402912356 -0.0
  outer loop
    vertex -1.4999999999999991 2.598076211353316 25.000000000000004
    vertex -2.1213203435596424 2.121320343559643 0.0
    vertex -1.4999999999999991 2.598076211353316 0.0
  endloop
endfacet
facet normal 0.6087614290087202 -0.7933533402912356 -0.0
  outer loop
    vertex -2.1213203435596424 2.121320343559643 0.0
    vertex -1.4999999999999991 2.598076211353316 25.000000000000004
    vertex -2.1213203435596424 2.121320343559643 25.000000000000004
  endloop
endfacet
facet normal 0.3826834323650902 -0.9238795325112866 -0.0
  outer loop
    vertex -0.7764571353075619 2.897777478867205 25.000000000000004
    vertex -1.4999999999999991 2.598076211353316 0.0
    vertex -0.7764571353075619 2.897777478867205 0.0
  endloop
endfacet
facet normal 0.3826834323650902 -0.9238795325112866 -0.0
  outer loop
    vertex -1.4999999999999991 2.598076211353316 0.0
    vertex -0.7764571353075619 2.897777478867205 25.000000000000004
    vertex -1.4999999999999991 2.598076211353316 25.000000000000004
  endloop
endfacet
facet normal 0.13052619222005135 -0.9914448613738105 -0.0
  outer loop
    vertex 1.8369701987210297e-16 3.0 25.000000000000004
    vertex -0.7764571353075619 2.897777478867205 0.0
    vertex 1.8369701987210297e-16 3.0 0.0
  endloop
endfacet
facet normal 0.13052619222005135 -0.9914448613738105 -0.0
  outer loop
    vertex -0.7764571353075619 2.897777478867205 0.0
    vertex 1.8369701987210297e-16 3.0 25.000000000000004
    vertex -0.7764571353075619 2.897777478867205 25.000000000000004
  endloop
endfacet
facet normal -0.13052619222005168 -0.9914448613738105 -0.0
  outer loop
    vertex 0.7764571353075629 2.897777478867205 25.000000000000004
    vertex 1.8369701987210297e-16 3.0 0.0
    vertex 0.7764571353075629 2.897777478867205 0.0
  endloop
endfacet
facet normal -0.13052619222005168 -0.9914448613738105 -0.0
  outer loop
    vertex 1.8369701987210297e-16 3.0 0.0
    vertex 0.7764571353075629 2.897777478867205 25.000000000000004
    vertex 1.8369701987210297e-16 3.0 25.000000000000004
  endloop
endfacet
facet normal -0.3826834323650902 -0.9238795325112867 -0.0
  outer loop
    vertex 1.5000000000000002 2.5980762113533156 25.000000000000004
    vertex 0.7764571353075629 2.897777478867205 0.0
    vertex 1.5000000000000002 2.5980762113533156 0.0
  endloop
endfacet
facet normal -0.3826834323650902 -0.9238795325112867 -0.0
  outer loop
    vertex 0.7764571353075629 2.897777478867205 0.0
    vertex 1.5000000000000002 2.5980762113533156 25.000000000000004
    vertex 0.7764571353075629 2.897777478867205 25.000000000000004
  endloop
endfacet
facet normal -0.6087614290087207 -0.7933533402912352 -0.0
  outer loop
    vertex 2.1213203435596424 2.1213203435596424 25.000000000000004
    vertex 1.5000000000000002 2.5980762113533156 0.0
    vertex 2.1213203435596424 2.1213203435596424 0.0
  endloop
endfacet
facet normal -0.6087614290087207 -0.7933533402912352 -0.0
  outer loop
    vertex 1.5000000000000002 2.5980762113533156 0.0
    vertex 2.1213203435596424 2.1213203435596424 25.000000000000004
    vertex 1.5000000000000002 2.5980762113533156 25.000000000000004
  endloop
endfacet
facet normal -0.7933533402912353 -0.6087614290087204 -0.0
  outer loop
    vertex 2.1213203435596424 2.1213203435596424 25.000000000000004
    vertex 2.5980762113533156 1.5 0.0
    vertex 2.5980762113533156 1.5 25.000000000000004
  endloop
endfacet
facet normal -0.7933533402912353 -0.6087614290087204 -0.0
  outer loop
    vertex 2.5980762113533156 1.5 0.0
    vertex 2.1213203435596424 2.1213203435596424 25.000000000000004
    vertex 2.1213203435596424 2.1213203435596424 0.0
  endloop
endfacet
facet normal -0.9238795325112867 -0.38268343236509006 -0.0
  outer loop
    vertex 2.5980762113533156 1.5 25.000000000000004
    vertex 2.897777478867205 0.7764571353075622 0.0
    vertex 2.897777478867205 0.7764571353075622 25.000000000000004
  endloop
endfacet
facet normal -0.9238795325112867 -0.38268343236509006 -0.0
  outer loop
    vertex 2.897777478867205 0.7764571353075622 0.0
    vertex 2.5980762113533156 1.5 25.000000000000004
    vertex 2.5980762113533156 1.5 0.0
  endloop
endfacet
facet normal -0.9914448613738104 -0.1305261922200513 -0.0
  outer loop
    vertex 2.897777478867205 0.7764571353075622 25.000000000000004
    vertex 3.0 0.0 0.0
    vertex 3.0 0.0 25.000000000000004
  endloop
endfacet
facet normal -0.9914448613738104 -0.1305261922200513 -0.0
  outer loop
    vertex 3.0 0.0 0.0
    vertex 2.897777478867205 0.7764571353075622 25.000000000000004
    vertex 2.897777478867205 0.7764571353075622 0.0
  endloop
endfacet
facet normal -0.9914448613738104 0.13052619222005177 -0.0
  outer loop
    vertex 3.0 0.0 25.000000000000004
    vertex 2.897777478867204 -0.7764571353075648 0.0
    vertex 2.897777478867204 -0.7764571353075648 25.000000000000004
  endloop
endfacet
facet normal -0.9914448613738104 0.13052619222005177 -0.0
  outer loop
    vertex 2.897777478867204 -0.7764571353075648 0.0
    vertex 3.0 0.0 25.000000000000004
    vertex 3.0 0.0 0.0
  endloop
endfacet
endsolid Втулка-Припой
