solid Держалка для стекла
facet normal 0.0 0.0 -1.0
  outer loop
    vertex 4.999999999999998 9.0 0.0
    vertex -4.999999999999998 6.123233995736765e-16 0.0
    vertex -4.999999999999998 9.0 0.0
  endloop
endfacet
facet normal 0.0 0.0 -1.0
  outer loop
    vertex -4.999999999999998 6.123233995736765e-16 0.0
    vertex 4.999999999999998 9.0 0.0
    vertex -2.1213203435596415 2.1213203435596437 0.0
  endloop
endfacet
facet normal 0.0 0.0 -1.0
  outer loop
    vertex -4.999999999999998 6.123233995736765e-16 0.0
    vertex -2.1213203435596415 2.1213203435596437 0.0
    vertex -4.829629131445341 -1.2940952255126015 0.0
  endloop
endfacet
facet normal 0.0 0.0 -1.0
  outer loop
    vertex -4.829629131445341 -1.2940952255126015 0.0
    vertex -2.1213203435596415 2.1213203435596437 0.0
    vertex -2.5980762113533156 1.5000000000000013 0.0
  endloop
endfacet
facet normal 0.0 0.0 -1.0
  outer loop
    vertex -4.829629131445341 -1.2940952255126015 0.0
    vertex -2.5980762113533156 1.5000000000000013 0.0
    vertex -4.330127018922193 -2.4999999999999982 0.0
  endloop
endfacet
facet normal 0.0 0.0 -1.0
  outer loop
    vertex -4.330127018922193 -2.4999999999999982 0.0
    vertex -2.5980762113533156 1.5000000000000013 0.0
    vertex -2.8977774788672046 0.7764571353075645 0.0
  endloop
endfacet
facet normal 0.0 0.0 -1.0
  outer loop
    vertex -4.330127018922193 -2.4999999999999982 0.0
    vertex -2.8977774788672046 0.7764571353075645 0.0
    vertex -3.535533905932738 -3.535533905932735 0.0
  endloop
endfacet
facet normal 0.0 0.0 -1.0
  outer loop
    vertex -3.535533905932738 -3.535533905932735 0.0
    vertex -2.8977774788672046 0.7764571353075645 0.0
    vertex -3.0 5.510910596163089e-16 0.0
  endloop
endfacet
facet normal 0.0 0.0 -1.0
  outer loop
    vertex -2.1213203435596415 2.1213203435596437 0.0
    vertex 4.999999999999998 9.0 0.0
    vertex -1.4999999999999991 2.598076211353316 0.0
  endloop
endfacet
facet normal 0.0 0.0 -1.0
  outer loop
    vertex -1.4999999999999991 2.598076211353316 0.0
    vertex 4.999999999999998 9.0 0.0
    vertex -0.7764571353075611 2.897777478867205 0.0
  endloop
endfacet
facet normal 0.0 0.0 -1.0
  outer loop
    vertex -0.7764571353075611 2.897777478867205 0.0
    vertex 4.999999999999998 9.0 0.0
    vertex 3.67394039744206e-16 3.0 0.0
  endloop
endfacet
facet normal 0.0 0.0 -1.0
  outer loop
    vertex 3.67394039744206e-16 3.0 0.0
    vertex 4.999999999999998 9.0 0.0
    vertex 0.7764571353075631 2.8977774788672046 0.0
  endloop
endfacet
facet normal 0.0 0.0 -1.0
  outer loop
    vertex 0.7764571353075631 2.8977774788672046 0.0
    vertex 4.999999999999998 9.0 0.0
    vertex 1.500000000000001 2.5980762113533156 0.0
  endloop
endfacet
facet normal 0.0 0.0 -1.0
  outer loop
    vertex 1.500000000000001 2.5980762113533156 0.0
    vertex 4.999999999999998 9.0 0.0
    vertex 2.121320343559643 2.1213203435596424 0.0
  endloop
endfacet
facet normal 0.0 0.0 -1.0
  outer loop
    vertex 2.121320343559643 2.1213203435596424 0.0
    vertex 4.999999999999998 9.0 0.0
    vertex 2.598076211353316 1.4999999999999991 0.0
  endloop
endfacet
facet normal 0.0 0.0 -1.0
  outer loop
    vertex 2.598076211353316 1.4999999999999991 0.0
    vertex 4.999999999999998 9.0 0.0
    vertex 2.897777478867205 0.7764571353075619 0.0
  endloop
endfacet
facet normal 0.0 0.0 -1.0
  outer loop
    vertex 2.897777478867205 0.7764571353075619 0.0
    vertex 4.999999999999998 9.0 0.0
    vertex 3.0 -1.8369701987210297e-16 0.0
  endloop
endfacet
facet normal 0.0 0.0 -1.0
  outer loop
    vertex 3.0 -1.8369701987210297e-16 0.0
    vertex 4.999999999999998 9.0 0.0
    vertex 3.535533905932736 -3.535533905932738 0.0
  endloop
endfacet
facet normal 0.0 0.0 -1.0
  outer loop
    vertex 3.535533905932736 -3.535533905932738 0.0
    vertex 4.999999999999998 9.0 0.0
    vertex 4.33012701892219 -2.5000000000000018 0.0
  endloop
endfacet
facet normal 0.0 0.0 -1.0
  outer loop
    vertex 4.33012701892219 -2.5000000000000018 0.0
    vertex 4.999999999999998 9.0 0.0
    vertex 4.829629131445339 -1.2940952255126077 0.0
  endloop
endfacet
facet normal 0.0 0.0 -1.0
  outer loop
    vertex 4.829629131445339 -1.2940952255126077 0.0
    vertex 4.999999999999998 9.0 0.0
    vertex 4.999999999999998 0.0 0.0
  endloop
endfacet
facet normal 0.0 0.0 -1.0
  outer loop
    vertex -3.0 5.510910596163089e-16 0.0
    vertex -2.5000000000000013 -4.330127018922192 0.0
    vertex -3.535533905932738 -3.535533905932735 0.0
  endloop
endfacet
facet normal 0.0 0.0 -1.0
  outer loop
    vertex -2.5000000000000013 -4.330127018922192 0.0
    vertex -3.0 5.510910596163089e-16 0.0
    vertex -2.897777478867205 -0.7764571353075608 0.0
  endloop
endfacet
facet normal 0.0 0.0 -1.0
  outer loop
    vertex -2.5000000000000013 -4.330127018922192 0.0
    vertex -2.897777478867205 -0.7764571353075608 0.0
    vertex -2.5980762113533173 -1.499999999999998 0.0
  endloop
endfacet
facet normal 0.0 0.0 -1.0
  outer loop
    vertex -2.5000000000000013 -4.330127018922192 0.0
    vertex -2.5980762113533173 -1.499999999999998 0.0
    vertex -2.1213203435596433 -2.121320343559642 0.0
  endloop
endfacet
facet normal 0.0 0.0 -1.0
  outer loop
    vertex -2.5000000000000013 -4.330127018922192 0.0
    vertex -2.1213203435596433 -2.121320343559642 0.0
    vertex -1.2940952255126073 -4.82962913144534 0.0
  endloop
endfacet
facet normal 0.0 0.0 -1.0
  outer loop
    vertex -1.2940952255126073 -4.82962913144534 0.0
    vertex -2.1213203435596433 -2.121320343559642 0.0
    vertex -1.5000000000000016 -2.598076211353315 0.0
  endloop
endfacet
facet normal 0.0 0.0 -1.0
  outer loop
    vertex -1.2940952255126073 -4.82962913144534 0.0
    vertex -1.5000000000000016 -2.598076211353315 0.0
    vertex -0.7764571353075648 -2.897777478867204 0.0
  endloop
endfacet
facet normal 0.0 0.0 -1.0
  outer loop
    vertex -1.2940952255126073 -4.82962913144534 0.0
    vertex -0.7764571353075648 -2.897777478867204 0.0
    vertex -9.184850993605146e-16 -4.999999999999999 0.0
  endloop
endfacet
facet normal 0.0 0.0 -1.0
  outer loop
    vertex -9.184850993605146e-16 -4.999999999999999 0.0
    vertex -0.7764571353075648 -2.897777478867204 0.0
    vertex 0.0 -3.0 0.0
  endloop
endfacet
facet normal 0.0 0.0 -1.0
  outer loop
    vertex -9.184850993605146e-16 -4.999999999999999 0.0
    vertex 0.0 -3.0 0.0
    vertex 1.2940952255126013 -4.8296291314453415 0.0
  endloop
endfacet
facet normal 0.0 0.0 -1.0
  outer loop
    vertex 1.2940952255126013 -4.8296291314453415 0.0
    vertex 0.0 -3.0 0.0
    vertex 0.7764571353075622 -2.897777478867205 0.0
  endloop
endfacet
facet normal 0.0 0.0 -1.0
  outer loop
    vertex 1.2940952255126013 -4.8296291314453415 0.0
    vertex 0.7764571353075622 -2.897777478867205 0.0
    vertex 1.5 -2.5980762113533156 0.0
  endloop
endfacet
facet normal 0.0 0.0 -1.0
  outer loop
    vertex 1.2940952255126013 -4.8296291314453415 0.0
    vertex 1.5 -2.5980762113533156 0.0
    vertex 2.499999999999996 -4.3301270189221945 0.0
  endloop
endfacet
facet normal 0.0 0.0 -1.0
  outer loop
    vertex 2.499999999999996 -4.3301270189221945 0.0
    vertex 1.5 -2.5980762113533156 0.0
    vertex 2.121320343559643 -2.1213203435596424 0.0
  endloop
endfacet
facet normal 0.0 0.0 -1.0
  outer loop
    vertex 2.499999999999996 -4.3301270189221945 0.0
    vertex 2.121320343559643 -2.1213203435596424 0.0
    vertex 2.5980762113533156 -1.5000000000000002 0.0
  endloop
endfacet
facet normal 0.0 0.0 -1.0
  outer loop
    vertex 2.499999999999996 -4.3301270189221945 0.0
    vertex 2.5980762113533156 -1.5000000000000002 0.0
    vertex 3.535533905932736 -3.535533905932738 0.0
  endloop
endfacet
facet normal 0.0 0.0 -1.0
  outer loop
    vertex 3.535533905932736 -3.535533905932738 0.0
    vertex 2.5980762113533156 -1.5000000000000002 0.0
    vertex 2.897777478867205 -0.7764571353075629 0.0
  endloop
endfacet
facet normal 0.0 0.0 -1.0
  outer loop
    vertex 3.535533905932736 -3.535533905932738 0.0
    vertex 2.897777478867205 -0.7764571353075629 0.0
    vertex 3.0 -1.8369701987210297e-16 0.0
  endloop
endfacet
facet normal 0.0 0.0 1.0
  outer loop
    vertex -2.5000000000000013 -4.330127018922192 5.0
    vertex -1.931851652578136 -0.5176380902050414 4.999999999999998
    vertex -1.9999999999999996 0.0 4.999999999999998
  endloop
endfacet
facet normal 0.0 0.0 1.0
  outer loop
    vertex -1.931851652578136 -0.5176380902050414 4.999999999999998
    vertex -2.5000000000000013 -4.330127018922192 5.0
    vertex -1.2940952255126073 -4.82962913144534 5.0
  endloop
endfacet
facet normal 0.0 0.0 1.0
  outer loop
    vertex -1.931851652578136 -0.5176380902050414 4.999999999999998
    vertex -1.2940952255126073 -4.82962913144534 5.0
    vertex -1.732050807568877 -0.9999999999999996 4.999999999999998
  endloop
endfacet
facet normal 0.0 0.0 1.0
  outer loop
    vertex -1.732050807568877 -0.9999999999999996 4.999999999999998
    vertex -1.2940952255126073 -4.82962913144534 5.0
    vertex -1.414213562373095 -1.414213562373095 4.999999999999998
  endloop
endfacet
facet normal 0.0 0.0 1.0
  outer loop
    vertex -1.414213562373095 -1.414213562373095 4.999999999999998
    vertex -1.2940952255126073 -4.82962913144534 5.0
    vertex -0.9999999999999999 -1.732050807568877 4.999999999999998
  endloop
endfacet
facet normal 0.0 0.0 1.0
  outer loop
    vertex -0.9999999999999999 -1.732050807568877 4.999999999999998
    vertex -1.2940952255126073 -4.82962913144534 5.0
    vertex -9.184850993605146e-16 -4.999999999999999 5.0
  endloop
endfacet
facet normal 0.0 0.0 1.0
  outer loop
    vertex -0.9999999999999999 -1.732050807568877 4.999999999999998
    vertex -9.184850993605146e-16 -4.999999999999999 5.0
    vertex -0.5176380902050418 -1.931851652578136 4.999999999999998
  endloop
endfacet
facet normal 0.0 0.0 1.0
  outer loop
    vertex -0.5176380902050418 -1.931851652578136 4.999999999999998
    vertex -9.184850993605146e-16 -4.999999999999999 5.0
    vertex -1.224646799147353e-16 -1.9999999999999996 4.999999999999998
  endloop
endfacet
facet normal 0.0 0.0 1.0
  outer loop
    vertex -1.224646799147353e-16 -1.9999999999999996 4.999999999999998
    vertex -9.184850993605146e-16 -4.999999999999999 5.0
    vertex 1.2940952255126013 -4.8296291314453415 5.0
  endloop
endfacet
facet normal 0.0 0.0 1.0
  outer loop
    vertex -1.224646799147353e-16 -1.9999999999999996 4.999999999999998
    vertex 1.2940952255126013 -4.8296291314453415 5.0
    vertex 0.5176380902050411 -1.931851652578136 4.999999999999998
  endloop
endfacet
facet normal 0.0 0.0 1.0
  outer loop
    vertex 0.5176380902050411 -1.931851652578136 4.999999999999998
    vertex 1.2940952255126013 -4.8296291314453415 5.0
    vertex 0.9999999999999992 -1.732050807568877 4.999999999999998
  endloop
endfacet
facet normal 0.0 0.0 1.0
  outer loop
    vertex 0.9999999999999992 -1.732050807568877 4.999999999999998
    vertex 1.2940952255126013 -4.8296291314453415 5.0
    vertex 1.4142135623730945 -1.414213562373095 4.999999999999998
  endloop
endfacet
facet normal 0.0 0.0 1.0
  outer loop
    vertex 1.4142135623730945 -1.414213562373095 4.999999999999998
    vertex 1.2940952255126013 -4.8296291314453415 5.0
    vertex 2.499999999999996 -4.3301270189221945 5.0
  endloop
endfacet
facet normal 0.0 0.0 1.0
  outer loop
    vertex 1.4142135623730945 -1.414213562373095 4.999999999999998
    vertex 2.499999999999996 -4.3301270189221945 5.0
    vertex 1.7320508075688765 -1.0000000000000004 4.999999999999998
  endloop
endfacet
facet normal 0.0 0.0 1.0
  outer loop
    vertex 1.7320508075688765 -1.0000000000000004 4.999999999999998
    vertex 2.499999999999996 -4.3301270189221945 5.0
    vertex 1.931851652578136 -0.5176380902050419 4.999999999999998
  endloop
endfacet
facet normal 0.0 0.0 1.0
  outer loop
    vertex 1.931851652578136 -0.5176380902050419 4.999999999999998
    vertex 2.499999999999996 -4.3301270189221945 5.0
    vertex 1.9999999999999996 -2.449293598294706e-16 4.999999999999998
  endloop
endfacet
facet normal 0.0 0.0 1.0
  outer loop
    vertex -4.829629131445341 -1.2940952255126015 5.0
    vertex -4.999999999999998 4.999999999999999 5.0
    vertex -4.999999999999998 6.123233995736765e-16 5.0
  endloop
endfacet
facet normal 0.0 0.0 1.0
  outer loop
    vertex -4.999999999999998 4.999999999999999 5.0
    vertex -4.829629131445341 -1.2940952255126015 5.0
    vertex -1.4142135623730943 1.4142135623730951 4.999999999999998
  endloop
endfacet
facet normal 0.0 0.0 1.0
  outer loop
    vertex -4.999999999999998 4.999999999999999 5.0
    vertex -1.4142135623730943 1.4142135623730951 4.999999999999998
    vertex -0.9999999999999983 1.7320508075688776 4.999999999999998
  endloop
endfacet
facet normal 0.0 0.0 1.0
  outer loop
    vertex -4.999999999999998 4.999999999999999 5.0
    vertex -0.9999999999999983 1.7320508075688776 4.999999999999998
    vertex 4.999999999999998 4.999999999999999 5.0
  endloop
endfacet
facet normal 0.0 0.0 1.0
  outer loop
    vertex -1.4142135623730943 1.4142135623730951 4.999999999999998
    vertex -4.829629131445341 -1.2940952255126015 5.0
    vertex -1.7320508075688763 1.0000000000000007 4.999999999999998
  endloop
endfacet
facet normal 0.0 0.0 1.0
  outer loop
    vertex -1.7320508075688763 1.0000000000000007 4.999999999999998
    vertex -4.829629131445341 -1.2940952255126015 5.0
    vertex -4.330127018922193 -2.4999999999999982 5.0
  endloop
endfacet
facet normal 0.0 0.0 1.0
  outer loop
    vertex -1.7320508075688763 1.0000000000000007 4.999999999999998
    vertex -4.330127018922193 -2.4999999999999982 5.0
    vertex -1.9318516525781357 0.517638090205043 4.999999999999998
  endloop
endfacet
facet normal 0.0 0.0 1.0
  outer loop
    vertex -1.9318516525781357 0.517638090205043 4.999999999999998
    vertex -4.330127018922193 -2.4999999999999982 5.0
    vertex -3.535533905932738 -3.535533905932735 5.0
  endloop
endfacet
facet normal 0.0 0.0 1.0
  outer loop
    vertex -1.9318516525781357 0.517638090205043 4.999999999999998
    vertex -3.535533905932738 -3.535533905932735 5.0
    vertex -1.9999999999999996 0.0 4.999999999999998
  endloop
endfacet
facet normal 0.0 0.0 1.0
  outer loop
    vertex -1.9999999999999996 0.0 4.999999999999998
    vertex -3.535533905932738 -3.535533905932735 5.0
    vertex -2.5000000000000013 -4.330127018922192 5.0
  endloop
endfacet
facet normal 0.0 0.0 1.0
  outer loop
    vertex 4.999999999999998 4.999999999999999 5.0
    vertex -0.9999999999999983 1.7320508075688776 4.999999999999998
    vertex -0.5176380902050405 1.9318516525781364 4.999999999999998
  endloop
endfacet
facet normal 0.0 0.0 1.0
  outer loop
    vertex 4.999999999999998 4.999999999999999 5.0
    vertex -0.5176380902050405 1.9318516525781364 4.999999999999998
    vertex 3.6739403974420584e-16 1.9999999999999996 4.999999999999998
  endloop
endfacet
facet normal 0.0 0.0 1.0
  outer loop
    vertex 4.999999999999998 4.999999999999999 5.0
    vertex 3.6739403974420584e-16 1.9999999999999996 4.999999999999998
    vertex 0.5176380902050429 1.9318516525781357 4.999999999999998
  endloop
endfacet
facet normal 0.0 0.0 1.0
  outer loop
    vertex 4.999999999999998 4.999999999999999 5.0
    vertex 0.5176380902050429 1.9318516525781357 4.999999999999998
    vertex 1.0000000000000007 1.7320508075688765 4.999999999999998
  endloop
endfacet
facet normal 0.0 0.0 1.0
  outer loop
    vertex 4.999999999999998 4.999999999999999 5.0
    vertex 1.0000000000000007 1.7320508075688765 4.999999999999998
    vertex 1.4142135623730954 1.414213562373094 4.999999999999998
  endloop
endfacet
facet normal 0.0 0.0 1.0
  outer loop
    vertex 4.999999999999998 4.999999999999999 5.0
    vertex 1.4142135623730954 1.414213562373094 4.999999999999998
    vertex 1.7320508075688772 0.9999999999999992 4.999999999999998
  endloop
endfacet
facet normal 0.0 0.0 1.0
  outer loop
    vertex 4.999999999999998 4.999999999999999 5.0
    vertex 1.7320508075688772 0.9999999999999992 4.999999999999998
    vertex 1.9318516525781364 0.5176380902050406 4.999999999999998
  endloop
endfacet
facet normal 0.0 0.0 1.0
  outer loop
    vertex 4.999999999999998 4.999999999999999 5.0
    vertex 1.9318516525781364 0.5176380902050406 4.999999999999998
    vertex 1.9999999999999996 -2.449293598294706e-16 4.999999999999998
  endloop
endfacet
facet normal 0.0 0.0 1.0
  outer loop
    vertex 4.999999999999998 4.999999999999999 5.0
    vertex 1.9999999999999996 -2.449293598294706e-16 4.999999999999998
    vertex 2.499999999999996 -4.3301270189221945 5.0
  endloop
endfacet
facet normal 0.0 0.0 1.0
  outer loop
    vertex 4.999999999999998 4.999999999999999 5.0
    vertex 2.499999999999996 -4.3301270189221945 5.0
    vertex 3.535533905932736 -3.535533905932738 5.0
  endloop
endfacet
facet normal 0.0 0.0 1.0
  outer loop
    vertex 4.999999999999998 4.999999999999999 5.0
    vertex 3.535533905932736 -3.535533905932738 5.0
    vertex 4.33012701892219 -2.5000000000000018 5.0
  endloop
endfacet
facet normal 0.0 0.0 1.0
  outer loop
    vertex 4.999999999999998 4.999999999999999 5.0
    vertex 4.33012701892219 -2.5000000000000018 5.0
    vertex 4.829629131445339 -1.2940952255126077 5.0
  endloop
endfacet
facet normal 0.0 0.0 1.0
  outer loop
    vertex 4.999999999999998 4.999999999999999 5.0
    vertex 4.829629131445339 -1.2940952255126077 5.0
    vertex 4.999999999999998 0.0 5.0
  endloop
endfacet
facet normal 0.0 1.0 0.0
  outer loop
    vertex -4.999999999999998 4.999999999999999 5.0
    vertex 4.999999999999998 4.999999999999999 1.9999999999999998
    vertex -4.999999999999998 4.999999999999999 1.9999999999999998
  endloop
endfacet
facet normal 0.0 1.0 0.0
  outer loop
    vertex 4.999999999999998 4.999999999999999 1.9999999999999998
    vertex -4.999999999999998 4.999999999999999 5.0
    vertex 4.999999999999998 4.999999999999999 5.0
  endloop
endfacet
facet normal -0.9914448613738104 -0.13052619222005138 -0.0
  outer loop
    vertex -4.999999999999998 6.123233995736765e-16 5.0
    vertex -4.829629131445341 -1.2940952255126015 0.0
    vertex -4.829629131445341 -1.2940952255126015 5.0
  endloop
endfacet
facet normal -0.9914448613738104 -0.13052619222005138 -0.0
  outer loop
    vertex -4.829629131445341 -1.2940952255126015 0.0
    vertex -4.999999999999998 6.123233995736765e-16 5.0
    vertex -4.999999999999998 6.123233995736765e-16 0.0
  endloop
endfacet
facet normal -0.9238795325112871 -0.3826834323650892 -0.0
  outer loop
    vertex -4.829629131445341 -1.2940952255126015 5.0
    vertex -4.330127018922193 -2.4999999999999982 0.0
    vertex -4.330127018922193 -2.4999999999999982 5.0
  endloop
endfacet
facet normal -0.9238795325112871 -0.3826834323650892 -0.0
  outer loop
    vertex -4.330127018922193 -2.4999999999999982 0.0
    vertex -4.829629131445341 -1.2940952255126015 5.0
    vertex -4.829629131445341 -1.2940952255126015 0.0
  endloop
endfacet
facet normal -0.7933533402912354 -0.6087614290087207 -0.0
  outer loop
    vertex -4.330127018922193 -2.4999999999999982 5.0
    vertex -3.535533905932738 -3.535533905932735 0.0
    vertex -3.535533905932738 -3.535533905932735 5.0
  endloop
endfacet
facet normal -0.7933533402912354 -0.6087614290087207 -0.0
  outer loop
    vertex -3.535533905932738 -3.535533905932735 0.0
    vertex -4.330127018922193 -2.4999999999999982 5.0
    vertex -4.330127018922193 -2.4999999999999982 0.0
  endloop
endfacet
facet normal -0.6087614290087214 -0.7933533402912346 -0.0
  outer loop
    vertex -2.5000000000000013 -4.330127018922192 5.0
    vertex -3.535533905932738 -3.535533905932735 0.0
    vertex -2.5000000000000013 -4.330127018922192 0.0
  endloop
endfacet
facet normal -0.6087614290087214 -0.7933533402912346 -0.0
  outer loop
    vertex -3.535533905932738 -3.535533905932735 0.0
    vertex -2.5000000000000013 -4.330127018922192 5.0
    vertex -3.535533905932738 -3.535533905932735 5.0
  endloop
endfacet
facet normal -0.3826834323650904 -0.9238795325112867 -0.0
  outer loop
    vertex -1.2940952255126073 -4.82962913144534 5.0
    vertex -2.5000000000000013 -4.330127018922192 0.0
    vertex -1.2940952255126073 -4.82962913144534 0.0
  endloop
endfacet
facet normal -0.3826834323650904 -0.9238795325112867 -0.0
  outer loop
    vertex -2.5000000000000013 -4.330127018922192 0.0
    vertex -1.2940952255126073 -4.82962913144534 5.0
    vertex -2.5000000000000013 -4.330127018922192 5.0
  endloop
endfacet
facet normal -0.13052619222005202 -0.9914448613738104 -0.0
  outer loop
    vertex -9.184850993605146e-16 -4.999999999999999 5.0
    vertex -1.2940952255126073 -4.82962913144534 0.0
    vertex -9.184850993605146e-16 -4.999999999999999 0.0
  endloop
endfacet
facet normal -0.13052619222005202 -0.9914448613738104 -0.0
  outer loop
    vertex -1.2940952255126073 -4.82962913144534 0.0
    vertex -9.184850993605146e-16 -4.999999999999999 5.0
    vertex -1.2940952255126073 -4.82962913144534 5.0
  endloop
endfacet
facet normal 0.13052619222005138 -0.9914448613738104 0.0
  outer loop
    vertex 1.2940952255126013 -4.8296291314453415 5.0
    vertex -9.184850993605146e-16 -4.999999999999999 0.0
    vertex 1.2940952255126013 -4.8296291314453415 0.0
  endloop
endfacet
facet normal 0.13052619222005138 -0.9914448613738104 0.0
  outer loop
    vertex -9.184850993605146e-16 -4.999999999999999 0.0
    vertex 1.2940952255126013 -4.8296291314453415 5.0
    vertex -9.184850993605146e-16 -4.999999999999999 5.0
  endloop
endfacet
facet normal 0.38268343236508917 -0.923879532511287 0.0
  outer loop
    vertex 2.499999999999996 -4.3301270189221945 5.0
    vertex 1.2940952255126013 -4.8296291314453415 0.0
    vertex 2.499999999999996 -4.3301270189221945 0.0
  endloop
endfacet
facet normal 0.38268343236508917 -0.923879532511287 0.0
  outer loop
    vertex 1.2940952255126013 -4.8296291314453415 0.0
    vertex 2.499999999999996 -4.3301270189221945 5.0
    vertex 1.2940952255126013 -4.8296291314453415 5.0
  endloop
endfacet
facet normal 0.6087614290087203 -0.7933533402912355 0.0
  outer loop
    vertex 3.535533905932736 -3.535533905932738 5.0
    vertex 2.499999999999996 -4.3301270189221945 0.0
    vertex 3.535533905932736 -3.535533905932738 0.0
  endloop
endfacet
facet normal 0.6087614290087203 -0.7933533402912355 0.0
  outer loop
    vertex 2.499999999999996 -4.3301270189221945 0.0
    vertex 3.535533905932736 -3.535533905932738 5.0
    vertex 2.499999999999996 -4.3301270189221945 5.0
  endloop
endfacet
facet normal 0.7933533402912353 -0.6087614290087207 0.0
  outer loop
    vertex 4.33012701892219 -2.5000000000000018 0.0
    vertex 3.535533905932736 -3.535533905932738 5.0
    vertex 3.535533905932736 -3.535533905932738 0.0
  endloop
endfacet
facet normal 0.7933533402912353 -0.6087614290087207 0.0
  outer loop
    vertex 3.535533905932736 -3.535533905932738 5.0
    vertex 4.33012701892219 -2.5000000000000018 0.0
    vertex 4.33012701892219 -2.5000000000000018 5.0
  endloop
endfacet
facet normal 0.9238795325112864 -0.38268343236509084 0.0
  outer loop
    vertex 4.829629131445339 -1.2940952255126077 0.0
    vertex 4.33012701892219 -2.5000000000000018 5.0
    vertex 4.33012701892219 -2.5000000000000018 0.0
  endloop
endfacet
facet normal 0.9238795325112864 -0.38268343236509084 0.0
  outer loop
    vertex 4.33012701892219 -2.5000000000000018 5.0
    vertex 4.829629131445339 -1.2940952255126077 0.0
    vertex 4.829629131445339 -1.2940952255126077 5.0
  endloop
endfacet
facet normal 0.9914448613738104 -0.13052619222005188 0.0
  outer loop
    vertex 4.999999999999998 0.0 0.0
    vertex 4.829629131445339 -1.2940952255126077 5.0
    vertex 4.829629131445339 -1.2940952255126077 0.0
  endloop
endfacet
facet normal 0.9914448613738104 -0.13052619222005188 0.0
  outer loop
    vertex 4.829629131445339 -1.2940952255126077 5.0
    vertex 4.999999999999998 0.0 0.0
    vertex 4.999999999999998 0.0 5.0
  endloop
endfacet
facet normal 0.0 0.0 1.0
  outer loop
    vertex 4.999999999999998 4.999999999999999 1.9999999999999998
    vertex -4.999999999999998 9.0 1.9999999999999998
    vertex -4.999999999999998 4.999999999999999 1.9999999999999998
  endloop
endfacet
facet normal 0.0 0.0 1.0
  outer loop
    vertex -4.999999999999998 9.0 1.9999999999999998
    vertex 4.999999999999998 4.999999999999999 1.9999999999999998
    vertex 4.999999999999998 9.0 1.9999999999999998
  endloop
endfacet
facet normal 1.0 -0.0 -0.0
  outer loop
    vertex 4.999999999999998 0.0 0.0
    vertex 4.999999999999998 4.999999999999999 1.9999999999999998
    vertex 4.999999999999998 0.0 5.0
  endloop
endfacet
facet normal 1.0 -0.0 -0.0
  outer loop
    vertex 4.999999999999998 4.999999999999999 1.9999999999999998
    vertex 4.999999999999998 0.0 0.0
    vertex 4.999999999999998 9.0 0.0
  endloop
endfacet
facet normal 1.0 -0.0 -0.0
  outer loop
    vertex 4.999999999999998 4.999999999999999 1.9999999999999998
    vertex 4.999999999999998 9.0 0.0
    vertex 4.999999999999998 9.0 1.9999999999999998
  endloop
endfacet
facet normal 1.0 -0.0 -0.0
  outer loop
    vertex 4.999999999999998 4.999999999999999 5.0
    vertex 4.999999999999998 0.0 5.0
    vertex 4.999999999999998 4.999999999999999 1.9999999999999998
  endloop
endfacet
facet normal 0.0 1.0 0.0
  outer loop
    vertex -4.999999999999998 9.0 1.9999999999999998
    vertex 4.999999999999998 9.0 0.0
    vertex -4.999999999999998 9.0 0.0
  endloop
endfacet
facet normal 0.0 1.0 0.0
  outer loop
    vertex 4.999999999999998 9.0 0.0
    vertex -4.999999999999998 9.0 1.9999999999999998
    vertex 4.999999999999998 9.0 1.9999999999999998
  endloop
endfacet
facet normal -1.0 0.0 0.0
  outer loop
    vertex -4.999999999999998 4.999999999999999 5.0
    vertex -4.999999999999998 6.123233995736765e-16 0.0
    vertex -4.999999999999998 6.123233995736765e-16 5.0
  endloop
endfacet
facet normal -1.0 0.0 0.0
  outer loop
    vertex -4.999999999999998 6.123233995736765e-16 0.0
    vertex -4.999999999999998 4.999999999999999 5.0
    vertex -4.999999999999998 4.999999999999999 1.9999999999999998
  endloop
endfacet
facet normal -1.0 0.0 0.0
  outer loop
    vertex -4.999999999999998 6.123233995736765e-16 0.0
    vertex -4.999999999999998 4.999999999999999 1.9999999999999998
    vertex -4.999999999999998 9.0 0.0
  endloop
endfacet
facet normal -1.0 0.0 0.0
  outer loop
    vertex -4.999999999999998 9.0 0.0
    vertex -4.999999999999998 4.999999999999999 1.9999999999999998
    vertex -4.999999999999998 9.0 1.9999999999999998
  endloop
endfacet
facet normal -0.7933533402912353 -0.6087614290087204 0.0
  outer loop
    vertex 1.4142135623730954 1.414213562373094 4.999999999999998
    vertex 1.7320508075688772 0.9999999999999992 1.9999999999999998
    vertex 1.7320508075688772 0.9999999999999992 4.999999999999998
  endloop
endfacet
facet normal -0.7933533402912353 -0.6087614290087204 0.0
  outer loop
    vertex 1.7320508075688772 0.9999999999999992 1.9999999999999998
    vertex 1.4142135623730954 1.414213562373094 4.999999999999998
    vertex 1.4142135623730954 1.414213562373094 1.9999999999999998
  endloop
endfacet
facet normal -0.6087614290087214 -0.7933533402912347 0.0
  outer loop
    vertex 1.4142135623730954 1.414213562373094 4.999999999999998
    vertex 1.0000000000000007 1.7320508075688765 1.9999999999999998
    vertex 1.4142135623730954 1.414213562373094 1.9999999999999998
  endloop
endfacet
facet normal -0.6087614290087214 -0.7933533402912347 0.0
  outer loop
    vertex 1.0000000000000007 1.7320508075688765 1.9999999999999998
    vertex 1.4142135623730954 1.414213562373094 4.999999999999998
    vertex 1.0000000000000007 1.7320508075688765 4.999999999999998
  endloop
endfacet
facet normal -0.38268343236508995 -0.9238795325112867 -2.551001717584884e-32
  outer loop
    vertex 1.0000000000000007 1.7320508075688765 4.999999999999998
    vertex 0.5176380902050429 1.9318516525781357 1.9999999999999998
    vertex 1.0000000000000007 1.7320508075688765 1.9999999999999998
  endloop
endfacet
facet normal -0.38268343236508995 -0.9238795325112867 -2.551001717584884e-32
  outer loop
    vertex 0.5176380902050429 1.9318516525781357 1.9999999999999998
    vertex 1.0000000000000007 1.7320508075688765 4.999999999999998
    vertex 0.5176380902050429 1.9318516525781357 4.999999999999998
  endloop
endfacet
facet normal -0.9914448613738105 -0.1305261922200513 2.6474603268577394e-32
  outer loop
    vertex 1.9318516525781364 0.5176380902050406 4.999999999999998
    vertex 1.9999999999999996 -2.449293598294706e-16 1.9999999999999998
    vertex 1.9999999999999996 -2.449293598294706e-16 4.999999999999998
  endloop
endfacet
facet normal -0.9914448613738105 -0.1305261922200513 2.6474603268577394e-32
  outer loop
    vertex 1.9999999999999996 -2.449293598294706e-16 1.9999999999999998
    vertex 1.9318516525781364 0.5176380902050406 4.999999999999998
    vertex 1.9318516525781364 0.5176380902050406 1.9999999999999998
  endloop
endfacet
facet normal 0.3826834323650893 -0.9238795325112871 0.0
  outer loop
    vertex -0.5176380902050405 1.9318516525781364 4.999999999999998
    vertex -0.9999999999999983 1.7320508075688776 1.9999999999999998
    vertex -0.5176380902050405 1.9318516525781364 1.9999999999999998
  endloop
endfacet
facet normal 0.3826834323650893 -0.9238795325112871 0.0
  outer loop
    vertex -0.9999999999999983 1.7320508075688776 1.9999999999999998
    vertex -0.5176380902050405 1.9318516525781364 4.999999999999998
    vertex -0.9999999999999983 1.7320508075688776 4.999999999999998
  endloop
endfacet
facet normal 0.13052619222005127 -0.9914448613738105 2.7375620470566055e-32
  outer loop
    vertex 3.6739403974420584e-16 1.9999999999999996 4.999999999999998
    vertex -0.5176380902050405 1.9318516525781364 1.9999999999999998
    vertex 3.6739403974420584e-16 1.9999999999999996 1.9999999999999998
  endloop
endfacet
facet normal 0.13052619222005127 -0.9914448613738105 2.7375620470566055e-32
  outer loop
    vertex -0.5176380902050405 1.9318516525781364 1.9999999999999998
    vertex 3.6739403974420584e-16 1.9999999999999996 4.999999999999998
    vertex -0.5176380902050405 1.9318516525781364 4.999999999999998
  endloop
endfacet
facet normal 0.6087614290087202 -0.7933533402912355 8.404512689979427e-33
  outer loop
    vertex -0.9999999999999983 1.7320508075688776 4.999999999999998
    vertex -1.4142135623730943 1.4142135623730951 1.9999999999999998
    vertex -0.9999999999999983 1.7320508075688776 1.9999999999999998
  endloop
endfacet
facet normal 0.6087614290087202 -0.7933533402912355 8.404512689979427e-33
  outer loop
    vertex -1.4142135623730943 1.4142135623730951 1.9999999999999998
    vertex -0.9999999999999983 1.7320508075688776 4.999999999999998
    vertex -1.4142135623730943 1.4142135623730951 4.999999999999998
  endloop
endfacet
facet normal -0.13052619222005216 -0.9914448613738105 2.7375620470566055e-32
  outer loop
    vertex 0.5176380902050429 1.9318516525781357 4.999999999999998
    vertex 3.6739403974420584e-16 1.9999999999999996 1.9999999999999998
    vertex 0.5176380902050429 1.9318516525781357 1.9999999999999998
  endloop
endfacet
facet normal -0.13052619222005216 -0.9914448613738105 2.7375620470566055e-32
  outer loop
    vertex 3.6739403974420584e-16 1.9999999999999996 1.9999999999999998
    vertex 0.5176380902050429 1.9318516525781357 4.999999999999998
    vertex 3.6739403974420584e-16 1.9999999999999996 4.999999999999998
  endloop
endfacet
facet normal 0.9238795325112865 -0.38268343236509056 2.9742321070395996e-18
  outer loop
    vertex -1.7320508075688763 1.0000000000000007 1.9999999999999998
    vertex -1.9318516525781357 0.517638090205043 4.999999999999998
    vertex -1.9318516525781357 0.517638090205043 1.9999999999999998
  endloop
endfacet
facet normal 0.9238795325112865 -0.38268343236509056 2.9742321070395996e-18
  outer loop
    vertex -1.9318516525781357 0.517638090205043 4.999999999999998
    vertex -1.7320508075688763 1.0000000000000007 1.9999999999999998
    vertex -1.7320508075688763 1.0000000000000007 4.999999999999998
  endloop
endfacet
facet normal 0.7933533402912352 -0.6087614290087208 -0.0
  outer loop
    vertex -1.4142135623730943 1.4142135623730951 1.9999999999999998
    vertex -1.7320508075688763 1.0000000000000007 4.999999999999998
    vertex -1.7320508075688763 1.0000000000000007 1.9999999999999998
  endloop
endfacet
facet normal 0.7933533402912352 -0.6087614290087208 -0.0
  outer loop
    vertex -1.7320508075688763 1.0000000000000007 4.999999999999998
    vertex -1.4142135623730943 1.4142135623730951 1.9999999999999998
    vertex -1.4142135623730943 1.4142135623730951 4.999999999999998
  endloop
endfacet
facet normal -0.9238795325112871 -0.38268343236508945 -2.551001717584885e-32
  outer loop
    vertex 1.7320508075688772 0.9999999999999992 4.999999999999998
    vertex 1.9318516525781364 0.5176380902050406 1.9999999999999998
    vertex 1.9318516525781364 0.5176380902050406 4.999999999999998
  endloop
endfacet
facet normal -0.9238795325112871 -0.38268343236508945 -2.551001717584885e-32
  outer loop
    vertex 1.9318516525781364 0.5176380902050406 1.9999999999999998
    vertex 1.7320508075688772 0.9999999999999992 4.999999999999998
    vertex 1.7320508075688772 0.9999999999999992 1.9999999999999998
  endloop
endfacet
facet normal 0.9914448613738105 0.13052619222005177 -0.0
  outer loop
    vertex -1.9999999999999996 0.0 1.9999999999999998
    vertex -1.931851652578136 -0.5176380902050414 4.999999999999998
    vertex -1.931851652578136 -0.5176380902050414 1.9999999999999998
  endloop
endfacet
facet normal 0.9914448613738105 0.13052619222005177 -0.0
  outer loop
    vertex -1.931851652578136 -0.5176380902050414 4.999999999999998
    vertex -1.9999999999999996 0.0 1.9999999999999998
    vertex -1.9999999999999996 0.0 4.999999999999998
  endloop
endfacet
facet normal -0.793353340291235 0.6087614290087211 3.082988153338934e-18
  outer loop
    vertex 1.7320508075688765 -1.0000000000000004 4.999999999999998
    vertex 1.4142135623730945 -1.414213562373095 1.9999999999999998
    vertex 1.4142135623730945 -1.414213562373095 4.999999999999998
  endloop
endfacet
facet normal -0.793353340291235 0.6087614290087211 3.082988153338934e-18
  outer loop
    vertex 1.4142135623730945 -1.414213562373095 1.9999999999999998
    vertex 1.7320508075688765 -1.0000000000000004 4.999999999999998
    vertex 1.7320508075688765 -1.0000000000000004 1.9999999999999998
  endloop
endfacet
facet normal 0.6087614290087207 0.7933533402912354 -3.0829881533389435e-18
  outer loop
    vertex -1.414213562373095 -1.414213562373095 4.999999999999998
    vertex -0.9999999999999999 -1.732050807568877 1.9999999999999998
    vertex -1.414213562373095 -1.414213562373095 1.9999999999999998
  endloop
endfacet
facet normal 0.6087614290087207 0.7933533402912354 -3.0829881533389435e-18
  outer loop
    vertex -0.9999999999999999 -1.732050807568877 1.9999999999999998
    vertex -1.414213562373095 -1.414213562373095 4.999999999999998
    vertex -0.9999999999999999 -1.732050807568877 4.999999999999998
  endloop
endfacet
facet normal 0.7933533402912357 0.6087614290087202 -3.0829881533389443e-18
  outer loop
    vertex -1.732050807568877 -0.9999999999999996 1.9999999999999998
    vertex -1.414213562373095 -1.414213562373095 4.999999999999998
    vertex -1.414213562373095 -1.414213562373095 1.9999999999999998
  endloop
endfacet
facet normal 0.7933533402912357 0.6087614290087202 -3.0829881533389443e-18
  outer loop
    vertex -1.414213562373095 -1.414213562373095 4.999999999999998
    vertex -1.732050807568877 -0.9999999999999996 1.9999999999999998
    vertex -1.732050807568877 -0.9999999999999996 4.999999999999998
  endloop
endfacet
facet normal 0.923879532511287 0.3826834323650898 2.8151665948500646e-32
  outer loop
    vertex -1.931851652578136 -0.5176380902050414 1.9999999999999998
    vertex -1.732050807568877 -0.9999999999999996 4.999999999999998
    vertex -1.732050807568877 -0.9999999999999996 1.9999999999999998
  endloop
endfacet
facet normal 0.923879532511287 0.3826834323650898 2.8151665948500646e-32
  outer loop
    vertex -1.732050807568877 -0.9999999999999996 4.999999999999998
    vertex -1.931851652578136 -0.5176380902050414 1.9999999999999998
    vertex -1.931851652578136 -0.5176380902050414 4.999999999999998
  endloop
endfacet
facet normal 0.9914448613738105 -0.13052619222005205 2.7375620470566055e-32
  outer loop
    vertex -1.9318516525781357 0.517638090205043 1.9999999999999998
    vertex -1.9999999999999996 0.0 4.999999999999998
    vertex -1.9999999999999996 0.0 1.9999999999999998
  endloop
endfacet
facet normal 0.9914448613738105 -0.13052619222005205 2.7375620470566055e-32
  outer loop
    vertex -1.9999999999999996 0.0 4.999999999999998
    vertex -1.9318516525781357 0.517638090205043 1.9999999999999998
    vertex -1.9318516525781357 0.517638090205043 4.999999999999998
  endloop
endfacet
facet normal -0.9238795325112867 0.38268343236508995 -2.9742321070395895e-18
  outer loop
    vertex 1.931851652578136 -0.5176380902050419 4.999999999999998
    vertex 1.7320508075688765 -1.0000000000000004 1.9999999999999998
    vertex 1.7320508075688765 -1.0000000000000004 4.999999999999998
  endloop
endfacet
facet normal -0.9238795325112867 0.38268343236508995 -2.9742321070395895e-18
  outer loop
    vertex 1.7320508075688765 -1.0000000000000004 1.9999999999999998
    vertex 1.931851652578136 -0.5176380902050419 4.999999999999998
    vertex 1.931851652578136 -0.5176380902050419 1.9999999999999998
  endloop
endfacet
facet normal 0.13052619222005166 0.9914448613738105 1.0144551837826406e-18
  outer loop
    vertex -0.5176380902050418 -1.931851652578136 4.999999999999998
    vertex -1.224646799147353e-16 -1.9999999999999996 1.9999999999999998
    vertex -0.5176380902050418 -1.931851652578136 1.9999999999999998
  endloop
endfacet
facet normal 0.13052619222005166 0.9914448613738105 1.0144551837826406e-18
  outer loop
    vertex -1.224646799147353e-16 -1.9999999999999996 1.9999999999999998
    vertex -0.5176380902050418 -1.931851652578136 4.999999999999998
    vertex -1.224646799147353e-16 -1.9999999999999996 4.999999999999998
  endloop
endfacet
facet normal -0.1305261922200518 0.9914448613738105 4.505086009943335e-34
  outer loop
    vertex -1.224646799147353e-16 -1.9999999999999996 4.999999999999998
    vertex 0.5176380902050411 -1.931851652578136 1.9999999999999998
    vertex -1.224646799147353e-16 -1.9999999999999996 1.9999999999999998
  endloop
endfacet
facet normal -0.1305261922200518 0.9914448613738105 4.505086009943335e-34
  outer loop
    vertex 0.5176380902050411 -1.931851652578136 1.9999999999999998
    vertex -1.224646799147353e-16 -1.9999999999999996 4.999999999999998
    vertex 0.5176380902050411 -1.931851652578136 4.999999999999998
  endloop
endfacet
facet normal -0.9914448613738105 0.13052619222005168 0.0
  outer loop
    vertex 1.9999999999999996 -2.449293598294706e-16 4.999999999999998
    vertex 1.931851652578136 -0.5176380902050419 1.9999999999999998
    vertex 1.931851652578136 -0.5176380902050419 4.999999999999998
  endloop
endfacet
facet normal -0.9914448613738105 0.13052619222005168 0.0
  outer loop
    vertex 1.931851652578136 -0.5176380902050419 1.9999999999999998
    vertex 1.9999999999999996 -2.449293598294706e-16 4.999999999999998
    vertex 1.9999999999999996 -2.449293598294706e-16 1.9999999999999998
  endloop
endfacet
facet normal -0.3826834323650897 0.9238795325112868 2.022671963054525e-32
  outer loop
    vertex 0.5176380902050411 -1.931851652578136 4.999999999999998
    vertex 0.9999999999999992 -1.732050807568877 1.9999999999999998
    vertex 0.5176380902050411 -1.931851652578136 1.9999999999999998
  endloop
endfacet
facet normal -0.3826834323650897 0.9238795325112868 2.022671963054525e-32
  outer loop
    vertex 0.9999999999999992 -1.732050807568877 1.9999999999999998
    vertex 0.5176380902050411 -1.931851652578136 4.999999999999998
    vertex 0.9999999999999992 -1.732050807568877 4.999999999999998
  endloop
endfacet
facet normal -0.6087614290087202 0.7933533402912357 -3.0829881533389443e-18
  outer loop
    vertex 0.9999999999999992 -1.732050807568877 4.999999999999998
    vertex 1.4142135623730945 -1.414213562373095 1.9999999999999998
    vertex 0.9999999999999992 -1.732050807568877 1.9999999999999998
  endloop
endfacet
facet normal -0.6087614290087202 0.7933533402912357 -3.0829881533389443e-18
  outer loop
    vertex 1.4142135623730945 -1.414213562373095 1.9999999999999998
    vertex 0.9999999999999992 -1.732050807568877 4.999999999999998
    vertex 1.4142135623730945 -1.414213562373095 4.999999999999998
  endloop
endfacet
facet normal 0.3826834323650897 0.9238795325112867 2.5510017175848846e-32
  outer loop
    vertex -0.9999999999999999 -1.732050807568877 4.999999999999998
    vertex -0.5176380902050418 -1.931851652578136 1.9999999999999998
    vertex -0.9999999999999999 -1.732050807568877 1.9999999999999998
  endloop
endfacet
facet normal 0.3826834323650897 0.9238795325112867 2.5510017175848846e-32
  outer loop
    vertex -0.5176380902050418 -1.931851652578136 1.9999999999999998
    vertex -0.9999999999999999 -1.732050807568877 4.999999999999998
    vertex -0.5176380902050418 -1.931851652578136 4.999999999999998
  endloop
endfacet
facet normal 0.827754430880504 -0.34286711158512767 -0.4441449605151056
  outer loop
    vertex -2.8977774788672046 0.7764571353075645 0.0
    vertex -1.7320508075688763 1.0000000000000007 1.9999999999999998
    vertex -1.9318516525781357 0.517638090205043 1.9999999999999998
  endloop
endfacet
facet normal 0.827754430880504 -0.34286711158512767 -0.4441449605151056
  outer loop
    vertex -1.7320508075688763 1.0000000000000007 1.9999999999999998
    vertex -2.8977774788672046 0.7764571353075645 0.0
    vertex -2.5980762113533156 1.5000000000000013 0.0
  endloop
endfacet
facet normal 0.8277544308805045 0.34286711158512695 -0.4441449605151055
  outer loop
    vertex -2.897777478867205 -0.7764571353075608 0.0
    vertex -1.732050807568877 -0.9999999999999996 1.9999999999999998
    vertex -2.5980762113533173 -1.499999999999998 0.0
  endloop
endfacet
facet normal 0.8277544308805045 0.34286711158512695 -0.4441449605151055
  outer loop
    vertex -1.732050807568877 -0.9999999999999996 1.9999999999999998
    vertex -2.897777478867205 -0.7764571353075608 0.0
    vertex -1.931851652578136 -0.5176380902050414 1.9999999999999998
  endloop
endfacet
facet normal 0.8882899210302104 0.1169455866853377 -0.44414496051510555
  outer loop
    vertex -3.0 5.510910596163089e-16 0.0
    vertex -1.931851652578136 -0.5176380902050414 1.9999999999999998
    vertex -2.897777478867205 -0.7764571353075608 0.0
  endloop
endfacet
facet normal 0.8882899210302104 0.1169455866853377 -0.44414496051510555
  outer loop
    vertex -1.931851652578136 -0.5176380902050414 1.9999999999999998
    vertex -3.0 5.510910596163089e-16 0.0
    vertex -1.9999999999999996 0.0 1.9999999999999998
  endloop
endfacet
facet normal 0.8882899210302103 -0.11694558668533823 -0.44414496051510566
  outer loop
    vertex -3.0 5.510910596163089e-16 0.0
    vertex -1.9318516525781357 0.517638090205043 1.9999999999999998
    vertex -1.9999999999999996 0.0 1.9999999999999998
  endloop
endfacet
facet normal 0.8882899210302103 -0.11694558668533823 -0.44414496051510566
  outer loop
    vertex -1.9318516525781357 0.517638090205043 1.9999999999999998
    vertex -3.0 5.510910596163089e-16 0.0
    vertex -2.8977774788672046 0.7764571353075645 0.0
  endloop
endfacet
facet normal 0.11694558668533796 0.8882899210302104 -0.4441449605151053
  outer loop
    vertex -0.5176380902050418 -1.931851652578136 1.9999999999999998
    vertex 0.0 -3.0 0.0
    vertex -0.7764571353075648 -2.897777478867204 0.0
  endloop
endfacet
facet normal 0.11694558668533796 0.8882899210302104 -0.4441449605151053
  outer loop
    vertex 0.0 -3.0 0.0
    vertex -0.5176380902050418 -1.931851652578136 1.9999999999999998
    vertex -1.224646799147353e-16 -1.9999999999999996 1.9999999999999998
  endloop
endfacet
facet normal 0.3428671115851279 0.827754430880504 -0.44414496051510555
  outer loop
    vertex -0.9999999999999999 -1.732050807568877 1.9999999999999998
    vertex -0.7764571353075648 -2.897777478867204 0.0
    vertex -1.5000000000000016 -2.598076211353315 0.0
  endloop
endfacet
facet normal 0.3428671115851279 0.827754430880504 -0.44414496051510555
  outer loop
    vertex -0.7764571353075648 -2.897777478867204 0.0
    vertex -0.9999999999999999 -1.732050807568877 1.9999999999999998
    vertex -0.5176380902050418 -1.931851652578136 1.9999999999999998
  endloop
endfacet
facet normal 0.545422809445083 0.7108088441951663 -0.4441449605151054
  outer loop
    vertex -1.414213562373095 -1.414213562373095 1.9999999999999998
    vertex -1.5000000000000016 -2.598076211353315 0.0
    vertex -2.1213203435596433 -2.121320343559642 0.0
  endloop
endfacet
facet normal 0.545422809445083 0.7108088441951663 -0.4441449605151054
  outer loop
    vertex -1.5000000000000016 -2.598076211353315 0.0
    vertex -1.414213562373095 -1.414213562373095 1.9999999999999998
    vertex -0.9999999999999999 -1.732050807568877 1.9999999999999998
  endloop
endfacet
facet normal 0.7108088441951667 0.5454228094450827 -0.44414496051510555
  outer loop
    vertex -2.5980762113533173 -1.499999999999998 0.0
    vertex -1.414213562373095 -1.414213562373095 1.9999999999999998
    vertex -2.1213203435596433 -2.121320343559642 0.0
  endloop
endfacet
facet normal 0.7108088441951667 0.5454228094450827 -0.44414496051510555
  outer loop
    vertex -1.414213562373095 -1.414213562373095 1.9999999999999998
    vertex -2.5980762113533173 -1.499999999999998 0.0
    vertex -1.732050807568877 -0.9999999999999996 1.9999999999999998
  endloop
endfacet
facet normal -0.1169455866853377 0.8882899210302104 -0.44414496051510555
  outer loop
    vertex -1.224646799147353e-16 -1.9999999999999996 1.9999999999999998
    vertex 0.7764571353075622 -2.897777478867205 0.0
    vertex 0.0 -3.0 0.0
  endloop
endfacet
facet normal -0.1169455866853377 0.8882899210302104 -0.44414496051510555
  outer loop
    vertex 0.7764571353075622 -2.897777478867205 0.0
    vertex -1.224646799147353e-16 -1.9999999999999996 1.9999999999999998
    vertex 0.5176380902050411 -1.931851652578136 1.9999999999999998
  endloop
endfacet
facet normal -0.5454228094450827 0.7108088441951663 -0.4441449605151055
  outer loop
    vertex 0.9999999999999992 -1.732050807568877 1.9999999999999998
    vertex 2.121320343559643 -2.1213203435596424 0.0
    vertex 1.5 -2.5980762113533156 0.0
  endloop
endfacet
facet normal -0.5454228094450827 0.7108088441951663 -0.4441449605151055
  outer loop
    vertex 2.121320343559643 -2.1213203435596424 0.0
    vertex 0.9999999999999992 -1.732050807568877 1.9999999999999998
    vertex 1.4142135623730945 -1.414213562373095 1.9999999999999998
  endloop
endfacet
facet normal -0.8882899210302106 -0.1169455866853375 -0.44414496051510555
  outer loop
    vertex 1.9318516525781364 0.5176380902050406 1.9999999999999998
    vertex 3.0 -1.8369701987210297e-16 0.0
    vertex 1.9999999999999996 -2.449293598294706e-16 1.9999999999999998
  endloop
endfacet
facet normal -0.8882899210302106 -0.1169455866853375 -0.44414496051510555
  outer loop
    vertex 3.0 -1.8369701987210297e-16 0.0
    vertex 1.9318516525781364 0.5176380902050406 1.9999999999999998
    vertex 2.897777478867205 0.7764571353075619 0.0
  endloop
endfacet
facet normal -0.3428671115851275 0.827754430880504 -0.44414496051510544
  outer loop
    vertex 0.5176380902050411 -1.931851652578136 1.9999999999999998
    vertex 1.5 -2.5980762113533156 0.0
    vertex 0.7764571353075622 -2.897777478867205 0.0
  endloop
endfacet
facet normal -0.3428671115851275 0.827754430880504 -0.44414496051510544
  outer loop
    vertex 1.5 -2.5980762113533156 0.0
    vertex 0.5176380902050411 -1.931851652578136 1.9999999999999998
    vertex 0.9999999999999992 -1.732050807568877 1.9999999999999998
  endloop
endfacet
facet normal -0.827754430880504 0.3428671115851279 -0.44414496051510555
  outer loop
    vertex 1.7320508075688765 -1.0000000000000004 1.9999999999999998
    vertex 2.897777478867205 -0.7764571353075629 0.0
    vertex 2.5980762113533156 -1.5000000000000002 0.0
  endloop
endfacet
facet normal -0.827754430880504 0.3428671115851279 -0.44414496051510555
  outer loop
    vertex 2.897777478867205 -0.7764571353075629 0.0
    vertex 1.7320508075688765 -1.0000000000000004 1.9999999999999998
    vertex 1.931851652578136 -0.5176380902050419 1.9999999999999998
  endloop
endfacet
facet normal -0.8882899210302104 0.11694558668533797 -0.4441449605151056
  outer loop
    vertex 1.931851652578136 -0.5176380902050419 1.9999999999999998
    vertex 3.0 -1.8369701987210297e-16 0.0
    vertex 2.897777478867205 -0.7764571353075629 0.0
  endloop
endfacet
facet normal -0.8882899210302104 0.11694558668533797 -0.4441449605151056
  outer loop
    vertex 3.0 -1.8369701987210297e-16 0.0
    vertex 1.931851652578136 -0.5176380902050419 1.9999999999999998
    vertex 1.9999999999999996 -2.449293598294706e-16 1.9999999999999998
  endloop
endfacet
facet normal -0.7108088441951663 0.5454228094450829 -0.44414496051510566
  outer loop
    vertex 1.4142135623730945 -1.414213562373095 1.9999999999999998
    vertex 2.5980762113533156 -1.5000000000000002 0.0
    vertex 2.121320343559643 -2.1213203435596424 0.0
  endloop
endfacet
facet normal -0.7108088441951663 0.5454228094450829 -0.44414496051510566
  outer loop
    vertex 2.5980762113533156 -1.5000000000000002 0.0
    vertex 1.4142135623730945 -1.414213562373095 1.9999999999999998
    vertex 1.7320508075688765 -1.0000000000000004 1.9999999999999998
  endloop
endfacet
facet normal -0.3428671115851276 -0.8277544308805043 -0.44414496051510544
  outer loop
    vertex 1.0000000000000007 1.7320508075688765 1.9999999999999998
    vertex 0.7764571353075631 2.8977774788672046 0.0
    vertex 1.500000000000001 2.5980762113533156 0.0
  endloop
endfacet
facet normal -0.3428671115851276 -0.8277544308805043 -0.44414496051510544
  outer loop
    vertex 0.7764571353075631 2.8977774788672046 0.0
    vertex 1.0000000000000007 1.7320508075688765 1.9999999999999998
    vertex 0.5176380902050429 1.9318516525781357 1.9999999999999998
  endloop
endfacet
facet normal -0.5454228094450833 -0.710808844195166 -0.44414496051510555
  outer loop
    vertex 1.4142135623730954 1.414213562373094 1.9999999999999998
    vertex 1.500000000000001 2.5980762113533156 0.0
    vertex 2.121320343559643 2.1213203435596424 0.0
  endloop
endfacet
facet normal -0.5454228094450833 -0.710808844195166 -0.44414496051510555
  outer loop
    vertex 1.500000000000001 2.5980762113533156 0.0
    vertex 1.4142135623730954 1.414213562373094 1.9999999999999998
    vertex 1.0000000000000007 1.7320508075688765 1.9999999999999998
  endloop
endfacet
facet normal -0.7108088441951664 -0.5454228094450829 -0.4441449605151055
  outer loop
    vertex 1.4142135623730954 1.414213562373094 1.9999999999999998
    vertex 2.598076211353316 1.4999999999999991 0.0
    vertex 1.7320508075688772 0.9999999999999992 1.9999999999999998
  endloop
endfacet
facet normal -0.7108088441951664 -0.5454228094450829 -0.4441449605151055
  outer loop
    vertex 2.598076211353316 1.4999999999999991 0.0
    vertex 1.4142135623730954 1.414213562373094 1.9999999999999998
    vertex 2.121320343559643 2.1213203435596424 0.0
  endloop
endfacet
facet normal -0.827754430880504 -0.34286711158512756 -0.44414496051510544
  outer loop
    vertex 1.7320508075688772 0.9999999999999992 1.9999999999999998
    vertex 2.897777478867205 0.7764571353075619 0.0
    vertex 1.9318516525781364 0.5176380902050406 1.9999999999999998
  endloop
endfacet
facet normal -0.827754430880504 -0.34286711158512756 -0.44414496051510544
  outer loop
    vertex 2.897777478867205 0.7764571353075619 0.0
    vertex 1.7320508075688772 0.9999999999999992 1.9999999999999998
    vertex 2.598076211353316 1.4999999999999991 0.0
  endloop
endfacet
facet normal 0.3428671115851271 -0.8277544308805043 -0.4441449605151054
  outer loop
    vertex -0.5176380902050405 1.9318516525781364 1.9999999999999998
    vertex -1.4999999999999991 2.598076211353316 0.0
    vertex -0.7764571353075611 2.897777478867205 0.0
  endloop
endfacet
facet normal 0.3428671115851271 -0.8277544308805043 -0.4441449605151054
  outer loop
    vertex -1.4999999999999991 2.598076211353316 0.0
    vertex -0.5176380902050405 1.9318516525781364 1.9999999999999998
    vertex -0.9999999999999983 1.7320508075688776 1.9999999999999998
  endloop
endfacet
facet normal 0.11694558668533767 -0.8882899210302106 -0.44414496051510544
  outer loop
    vertex 3.6739403974420584e-16 1.9999999999999996 1.9999999999999998
    vertex -0.7764571353075611 2.897777478867205 0.0
    vertex 3.67394039744206e-16 3.0 0.0
  endloop
endfacet
facet normal 0.11694558668533767 -0.8882899210302106 -0.44414496051510544
  outer loop
    vertex -0.7764571353075611 2.897777478867205 0.0
    vertex 3.6739403974420584e-16 1.9999999999999996 1.9999999999999998
    vertex -0.5176380902050405 1.9318516525781364 1.9999999999999998
  endloop
endfacet
facet normal -0.11694558668533797 -0.8882899210302104 -0.44414496051510555
  outer loop
    vertex 0.5176380902050429 1.9318516525781357 1.9999999999999998
    vertex 3.67394039744206e-16 3.0 0.0
    vertex 0.7764571353075631 2.8977774788672046 0.0
  endloop
endfacet
facet normal -0.11694558668533797 -0.8882899210302104 -0.44414496051510555
  outer loop
    vertex 3.67394039744206e-16 3.0 0.0
    vertex 0.5176380902050429 1.9318516525781357 1.9999999999999998
    vertex 3.6739403974420584e-16 1.9999999999999996 1.9999999999999998
  endloop
endfacet
facet normal 0.5454228094450827 -0.7108088441951665 -0.4441449605151055
  outer loop
    vertex -0.9999999999999983 1.7320508075688776 1.9999999999999998
    vertex -2.1213203435596415 2.1213203435596437 0.0
    vertex -1.4999999999999991 2.598076211353316 0.0
  endloop
endfacet
facet normal 0.5454228094450827 -0.7108088441951665 -0.4441449605151055
  outer loop
    vertex -2.1213203435596415 2.1213203435596437 0.0
    vertex -0.9999999999999983 1.7320508075688776 1.9999999999999998
    vertex -1.4142135623730943 1.4142135623730951 1.9999999999999998
  endloop
endfacet
facet normal 0.7108088441951658 -0.5454228094450836 -0.44414496051510566
  outer loop
    vertex -2.5980762113533156 1.5000000000000013 0.0
    vertex -1.4142135623730943 1.4142135623730951 1.9999999999999998
    vertex -1.7320508075688763 1.0000000000000007 1.9999999999999998
  endloop
endfacet
facet normal 0.7108088441951658 -0.5454228094450836 -0.44414496051510566
  outer loop
    vertex -1.4142135623730943 1.4142135623730951 1.9999999999999998
    vertex -2.5980762113533156 1.5000000000000013 0.0
    vertex -2.1213203435596415 2.1213203435596437 0.0
  endloop
endfacet
endsolid Держалка для стекла
