solid 
   facet normal 0.000000e+000 0.000000e+000 1.000000e+000
      outer loop
         vertex 6.466323e+000 -8.881784e-016 -5.000000e+000
         vertex 3.233161e+000 5.600000e+000 -5.000000e+000
         vertex 3.500000e+000 3.500000e+000 -5.000000e+000
      endloop
   endfacet
   facet normal 0.000000e+000 0.000000e+000 1.000000e+000
      outer loop
         vertex -3.233161e+000 5.600000e+000 -5.000000e+000
         vertex -6.466323e+000 3.996803e-015 -5.000000e+000
         vertex -3.500000e+000 3.500000e+000 -5.000000e+000
      endloop
   endfacet
   facet normal 0.000000e+000 0.000000e+000 1.000000e+000
      outer loop
         vertex 3.233161e+000 -5.600000e+000 -5.000000e+000
         vertex 6.466323e+000 -8.881784e-016 -5.000000e+000
         vertex 3.500000e+000 -3.500000e+000 -5.000000e+000
      endloop
   endfacet
   facet normal 0.000000e+000 0.000000e+000 1.000000e+000
      outer loop
         vertex -3.500000e+000 -4.286264e-016 -5.000000e+000
         vertex -3.099096e+000 1.626531e+000 -5.000000e+000
         vertex -6.466323e+000 3.996803e-015 -5.000000e+000
      endloop
   endfacet
   facet normal 0.000000e+000 0.000000e+000 1.000000e+000
      outer loop
         vertex -1.988227e+000 2.880444e+000 -5.000000e+000
         vertex -4.218784e-001 3.474481e+000 -5.000000e+000
         vertex -3.500000e+000 3.500000e+000 -5.000000e+000
      endloop
   endfacet
   facet normal 0.000000e+000 -0.000000e+000 1.000000e+000
      outer loop
         vertex 1.241117e+000 3.272557e+000 -5.000000e+000
         vertex 2.619788e+000 2.320929e+000 -5.000000e+000
         vertex 3.500000e+000 3.500000e+000 -5.000000e+000
      endloop
   endfacet
   facet normal 0.000000e+000 0.000000e+000 1.000000e+000
      outer loop
         vertex 3.398296e+000 8.376048e-001 -5.000000e+000
         vertex 3.398296e+000 -8.376048e-001 -5.000000e+000
         vertex 3.500000e+000 3.500000e+000 -5.000000e+000
      endloop
   endfacet
   facet normal -0.000000e+000 0.000000e+000 1.000000e+000
      outer loop
         vertex 2.619788e+000 -2.320929e+000 -5.000000e+000
         vertex 1.241117e+000 -3.272557e+000 -5.000000e+000
         vertex 3.500000e+000 -3.500000e+000 -5.000000e+000
      endloop
   endfacet
   facet normal 0.000000e+000 0.000000e+000 1.000000e+000
      outer loop
         vertex -4.218784e-001 -3.474481e+000 -5.000000e+000
         vertex -1.988227e+000 -2.880444e+000 -5.000000e+000
         vertex -3.500000e+000 -3.500000e+000 -5.000000e+000
      endloop
   endfacet
   facet normal -0.000000e+000 0.000000e+000 1.000000e+000
      outer loop
         vertex 3.500000e+000 -3.500000e+000 -5.000000e+000
         vertex -3.500000e+000 -3.500000e+000 -5.000000e+000
         vertex 3.233161e+000 -5.600000e+000 -5.000000e+000
      endloop
   endfacet
   facet normal -0.000000e+000 0.000000e+000 1.000000e+000
      outer loop
         vertex 3.500000e+000 3.500000e+000 -5.000000e+000
         vertex -3.500000e+000 3.500000e+000 -5.000000e+000
         vertex -4.218784e-001 3.474481e+000 -5.000000e+000
      endloop
   endfacet
   facet normal 0.000000e+000 0.000000e+000 1.000000e+000
      outer loop
         vertex 3.500000e+000 3.500000e+000 -5.000000e+000
         vertex 3.500000e+000 -3.500000e+000 -5.000000e+000
         vertex 6.466323e+000 -8.881784e-016 -5.000000e+000
      endloop
   endfacet
   facet normal 0.000000e+000 0.000000e+000 1.000000e+000
      outer loop
         vertex -3.500000e+000 3.500000e+000 -5.000000e+000
         vertex -6.466323e+000 3.996803e-015 -5.000000e+000
         vertex -3.099096e+000 1.626531e+000 -5.000000e+000
      endloop
   endfacet
   facet normal 0.000000e+000 0.000000e+000 1.000000e+000
      outer loop
         vertex -1.988227e+000 2.880444e+000 -5.000000e+000
         vertex -3.500000e+000 3.500000e+000 -5.000000e+000
         vertex -3.099096e+000 1.626531e+000 -5.000000e+000
      endloop
   endfacet
   facet normal 0.000000e+000 0.000000e+000 1.000000e+000
      outer loop
         vertex 3.398296e+000 8.376048e-001 -5.000000e+000
         vertex 3.500000e+000 3.500000e+000 -5.000000e+000
         vertex 2.619788e+000 2.320929e+000 -5.000000e+000
      endloop
   endfacet
   facet normal 0.000000e+000 0.000000e+000 1.000000e+000
      outer loop
         vertex -4.218784e-001 -3.474481e+000 -5.000000e+000
         vertex -3.500000e+000 -3.500000e+000 -5.000000e+000
         vertex 3.500000e+000 -3.500000e+000 -5.000000e+000
      endloop
   endfacet
   facet normal -0.000000e+000 0.000000e+000 1.000000e+000
      outer loop
         vertex 3.500000e+000 3.500000e+000 -5.000000e+000
         vertex -4.218784e-001 3.474481e+000 -5.000000e+000
         vertex 1.241117e+000 3.272557e+000 -5.000000e+000
      endloop
   endfacet
   facet normal -0.000000e+000 0.000000e+000 1.000000e+000
      outer loop
         vertex 3.233161e+000 5.600000e+000 -5.000000e+000
         vertex -3.233161e+000 5.600000e+000 -5.000000e+000
         vertex 3.500000e+000 3.500000e+000 -5.000000e+000
      endloop
   endfacet
   facet normal 0.000000e+000 0.000000e+000 1.000000e+000
      outer loop
         vertex -3.099096e+000 -1.626531e+000 -5.000000e+000
         vertex -3.500000e+000 -4.286264e-016 -5.000000e+000
         vertex -6.466323e+000 3.996803e-015 -5.000000e+000
      endloop
   endfacet
   facet normal -0.000000e+000 0.000000e+000 1.000000e+000
      outer loop
         vertex 1.241117e+000 -3.272557e+000 -5.000000e+000
         vertex -4.218784e-001 -3.474481e+000 -5.000000e+000
         vertex 3.500000e+000 -3.500000e+000 -5.000000e+000
      endloop
   endfacet
   facet normal 0.000000e+000 0.000000e+000 1.000000e+000
      outer loop
         vertex 3.500000e+000 -3.500000e+000 -5.000000e+000
         vertex 3.500000e+000 3.500000e+000 -5.000000e+000
         vertex 3.398296e+000 -8.376048e-001 -5.000000e+000
      endloop
   endfacet
   facet normal 0.000000e+000 0.000000e+000 1.000000e+000
      outer loop
         vertex -3.233161e+000 5.600000e+000 -5.000000e+000
         vertex -3.500000e+000 3.500000e+000 -5.000000e+000
         vertex 3.500000e+000 3.500000e+000 -5.000000e+000
      endloop
   endfacet
   facet normal 0.000000e+000 0.000000e+000 1.000000e+000
      outer loop
         vertex 3.233161e+000 -5.600000e+000 -5.000000e+000
         vertex -3.500000e+000 -3.500000e+000 -5.000000e+000
         vertex -3.233161e+000 -5.600000e+000 -5.000000e+000
      endloop
   endfacet
   facet normal 0.000000e+000 0.000000e+000 1.000000e+000
      outer loop
         vertex -3.233161e+000 -5.600000e+000 -5.000000e+000
         vertex -3.500000e+000 -3.500000e+000 -5.000000e+000
         vertex -6.466323e+000 3.996803e-015 -5.000000e+000
      endloop
   endfacet
   facet normal -0.000000e+000 0.000000e+000 1.000000e+000
      outer loop
         vertex 3.398296e+000 -8.376048e-001 -5.000000e+000
         vertex 2.619788e+000 -2.320929e+000 -5.000000e+000
         vertex 3.500000e+000 -3.500000e+000 -5.000000e+000
      endloop
   endfacet
   facet normal 0.000000e+000 0.000000e+000 1.000000e+000
      outer loop
         vertex -3.500000e+000 -3.500000e+000 -5.000000e+000
         vertex -1.988227e+000 -2.880444e+000 -5.000000e+000
         vertex -3.099096e+000 -1.626531e+000 -5.000000e+000
      endloop
   endfacet
   facet normal 0.000000e+000 0.000000e+000 1.000000e+000
      outer loop
         vertex -3.500000e+000 -3.500000e+000 -5.000000e+000
         vertex -3.099096e+000 -1.626531e+000 -5.000000e+000
         vertex -6.466323e+000 3.996803e-015 -5.000000e+000
      endloop
   endfacet
   facet normal 0.000000e+000 1.000000e+000 0.000000e+000
      outer loop
         vertex -8.500000e+000 2.500000e+000 -7.500000e+000
         vertex -2.449490e+000 2.500000e+000 -7.500000e+000
         vertex -2.449490e+000 2.500000e+000 -9.500000e+000
      endloop
   endfacet
   facet normal 0.000000e+000 1.000000e+000 0.000000e+000
      outer loop
         vertex -8.500000e+000 2.500000e+000 -9.500000e+000
         vertex -8.500000e+000 2.500000e+000 -7.500000e+000
         vertex -2.449490e+000 2.500000e+000 -9.500000e+000
      endloop
   endfacet
   facet normal 0.000000e+000 1.000000e+000 0.000000e+000
      outer loop
         vertex 8.500000e+000 2.500000e+000 -9.500000e+000
         vertex 2.449490e+000 2.500000e+000 -9.500000e+000
         vertex 2.449490e+000 2.500000e+000 -7.500000e+000
      endloop
   endfacet
   facet normal 0.000000e+000 1.000000e+000 -0.000000e+000
      outer loop
         vertex 8.500000e+000 2.500000e+000 -7.500000e+000
         vertex 8.500000e+000 2.500000e+000 -9.500000e+000
         vertex 2.449490e+000 2.500000e+000 -7.500000e+000
      endloop
   endfacet
   facet normal 0.000000e+000 0.000000e+000 -1.000000e+000
      outer loop
         vertex 1.000000e+000 7.500000e+000 -7.500000e+000
         vertex 8.500000e+000 2.500000e+000 -7.500000e+000
         vertex 2.449490e+000 2.500000e+000 -7.500000e+000
      endloop
   endfacet
   facet normal 0.000000e+000 0.000000e+000 -1.000000e+000
      outer loop
         vertex 1.000000e+000 7.500000e+000 -7.500000e+000
         vertex 1.000000e+000 1.200000e+001 -7.500000e+000
         vertex 8.500000e+000 1.200000e+001 -7.500000e+000
      endloop
   endfacet
   facet normal -0.000000e+000 -0.000000e+000 -1.000000e+000
      outer loop
         vertex -8.500000e+000 1.200000e+001 -7.500000e+000
         vertex -1.000000e+000 1.200000e+001 -7.500000e+000
         vertex -1.000000e+000 7.500000e+000 -7.500000e+000
      endloop
   endfacet
   facet normal 0.000000e+000 0.000000e+000 -1.000000e+000
      outer loop
         vertex -1.000000e+000 7.500000e+000 -7.500000e+000
         vertex -2.449490e+000 2.500000e+000 -7.500000e+000
         vertex -8.500000e+000 2.500000e+000 -7.500000e+000
      endloop
   endfacet
   facet normal 0.000000e+000 0.000000e+000 -1.000000e+000
      outer loop
         vertex -1.000000e+000 7.500000e+000 -7.500000e+000
         vertex 8.943615e-001 3.383802e+000 -7.500000e+000
         vertex -8.943615e-001 3.383802e+000 -7.500000e+000
      endloop
   endfacet
   facet normal 0.000000e+000 -0.000000e+000 -1.000000e+000
      outer loop
         vertex 8.943615e-001 3.383802e+000 -7.500000e+000
         vertex 1.000000e+000 7.500000e+000 -7.500000e+000
         vertex 2.449490e+000 2.500000e+000 -7.500000e+000
      endloop
   endfacet
   facet normal 0.000000e+000 0.000000e+000 -1.000000e+000
      outer loop
         vertex -8.500000e+000 2.500000e+000 -7.500000e+000
         vertex -8.500000e+000 1.200000e+001 -7.500000e+000
         vertex -1.000000e+000 7.500000e+000 -7.500000e+000
      endloop
   endfacet
   facet normal 0.000000e+000 0.000000e+000 -1.000000e+000
      outer loop
         vertex 1.000000e+000 7.500000e+000 -7.500000e+000
         vertex 8.943615e-001 3.383802e+000 -7.500000e+000
         vertex -1.000000e+000 7.500000e+000 -7.500000e+000
      endloop
   endfacet
   facet normal 0.000000e+000 -0.000000e+000 -1.000000e+000
      outer loop
         vertex 1.000000e+000 7.500000e+000 -7.500000e+000
         vertex 8.500000e+000 1.200000e+001 -7.500000e+000
         vertex 8.500000e+000 2.500000e+000 -7.500000e+000
      endloop
   endfacet
   facet normal 0.000000e+000 0.000000e+000 -1.000000e+000
      outer loop
         vertex -8.943615e-001 3.383802e+000 -7.500000e+000
         vertex -2.449490e+000 2.500000e+000 -7.500000e+000
         vertex -1.000000e+000 7.500000e+000 -7.500000e+000
      endloop
   endfacet
   facet normal 0.000000e+000 0.000000e+000 1.000000e+000
      outer loop
         vertex -8.500000e+000 1.200000e+001 -9.500000e+000
         vertex -8.500000e+000 2.500000e+000 -9.500000e+000
         vertex -2.449490e+000 2.500000e+000 -9.500000e+000
      endloop
   endfacet
   facet normal 0.000000e+000 -0.000000e+000 1.000000e+000
      outer loop
         vertex 2.449490e+000 2.500000e+000 -9.500000e+000
         vertex 8.500000e+000 2.500000e+000 -9.500000e+000
         vertex 8.500000e+000 1.200000e+001 -9.500000e+000
      endloop
   endfacet
   facet normal 0.000000e+000 -0.000000e+000 1.000000e+000
      outer loop
         vertex -8.500000e+000 1.200000e+001 -9.500000e+000
         vertex -8.943615e-001 3.383802e+000 -9.500000e+000
         vertex 8.943615e-001 3.383802e+000 -9.500000e+000
      endloop
   endfacet
   facet normal 0.000000e+000 0.000000e+000 1.000000e+000
      outer loop
         vertex -8.943615e-001 3.383802e+000 -9.500000e+000
         vertex -8.500000e+000 1.200000e+001 -9.500000e+000
         vertex -2.449490e+000 2.500000e+000 -9.500000e+000
      endloop
   endfacet
   facet normal 0.000000e+000 0.000000e+000 1.000000e+000
      outer loop
         vertex 8.943615e-001 3.383802e+000 -9.500000e+000
         vertex 8.500000e+000 1.200000e+001 -9.500000e+000
         vertex -8.500000e+000 1.200000e+001 -9.500000e+000
      endloop
   endfacet
   facet normal 0.000000e+000 -0.000000e+000 1.000000e+000
      outer loop
         vertex 8.943615e-001 3.383802e+000 -9.500000e+000
         vertex 2.449490e+000 2.500000e+000 -9.500000e+000
         vertex 8.500000e+000 1.200000e+001 -9.500000e+000
      endloop
   endfacet
   facet normal 0.000000e+000 0.000000e+000 -1.000000e+000
      outer loop
         vertex 3.175426e+000 5.500000e+000 -1.000000e+001
         vertex 6.350853e+000 1.332268e-015 -1.000000e+001
         vertex 3.500000e+000 3.500000e+000 -1.000000e+001
      endloop
   endfacet
   facet normal 0.000000e+000 0.000000e+000 -1.000000e+000
      outer loop
         vertex -3.175426e+000 -5.500000e+000 -1.000000e+001
         vertex -6.350853e+000 -3.552714e-015 -1.000000e+001
         vertex -3.500000e+000 -3.500000e+000 -1.000000e+001
      endloop
   endfacet
   facet normal -0.000000e+000 0.000000e+000 -1.000000e+000
      outer loop
         vertex -3.099096e+000 1.626531e+000 -1.000000e+001
         vertex -3.500000e+000 0.000000e+000 -1.000000e+001
         vertex -6.350853e+000 -3.552714e-015 -1.000000e+001
      endloop
   endfacet
   facet normal -0.000000e+000 0.000000e+000 -1.000000e+000
      outer loop
         vertex -3.099096e+000 -1.626531e+000 -1.000000e+001
         vertex -1.988227e+000 -2.880444e+000 -1.000000e+001
         vertex -3.500000e+000 -3.500000e+000 -1.000000e+001
      endloop
   endfacet
   facet normal 0.000000e+000 -0.000000e+000 -1.000000e+000
      outer loop
         vertex -4.218784e-001 -3.474481e+000 -1.000000e+001
         vertex 1.241117e+000 -3.272557e+000 -1.000000e+001
         vertex 3.500000e+000 -3.500000e+000 -1.000000e+001
      endloop
   endfacet
   facet normal 0.000000e+000 -0.000000e+000 -1.000000e+000
      outer loop
         vertex 2.619788e+000 -2.320929e+000 -1.000000e+001
         vertex 3.398296e+000 -8.376048e-001 -1.000000e+001
         vertex 3.500000e+000 -3.500000e+000 -1.000000e+001
      endloop
   endfacet
   facet normal 0.000000e+000 0.000000e+000 -1.000000e+000
      outer loop
         vertex 3.398296e+000 8.376048e-001 -1.000000e+001
         vertex 2.619788e+000 2.320929e+000 -1.000000e+001
         vertex 3.500000e+000 3.500000e+000 -1.000000e+001
      endloop
   endfacet
   facet normal 0.000000e+000 0.000000e+000 -1.000000e+000
      outer loop
         vertex 1.241117e+000 3.272557e+000 -1.000000e+001
         vertex -4.218784e-001 3.474481e+000 -1.000000e+001
         vertex 3.500000e+000 3.500000e+000 -1.000000e+001
      endloop
   endfacet
   facet normal 0.000000e+000 0.000000e+000 -1.000000e+000
      outer loop
         vertex -1.988227e+000 2.880444e+000 -1.000000e+001
         vertex -3.099096e+000 1.626531e+000 -1.000000e+001
         vertex -3.500000e+000 3.500000e+000 -1.000000e+001
      endloop
   endfacet
   facet normal 0.000000e+000 0.000000e+000 -1.000000e+000
      outer loop
         vertex 3.500000e+000 -3.500000e+000 -1.000000e+001
         vertex 3.500000e+000 3.500000e+000 -1.000000e+001
         vertex 6.350853e+000 1.332268e-015 -1.000000e+001
      endloop
   endfacet
   facet normal -0.000000e+000 0.000000e+000 -1.000000e+000
      outer loop
         vertex -3.500000e+000 3.500000e+000 -1.000000e+001
         vertex 3.500000e+000 3.500000e+000 -1.000000e+001
         vertex -4.218784e-001 3.474481e+000 -1.000000e+001
      endloop
   endfacet
   facet normal 0.000000e+000 0.000000e+000 -1.000000e+000
      outer loop
         vertex 3.500000e+000 3.500000e+000 -1.000000e+001
         vertex -3.500000e+000 3.500000e+000 -1.000000e+001
         vertex 3.175426e+000 5.500000e+000 -1.000000e+001
      endloop
   endfacet
   facet normal 0.000000e+000 0.000000e+000 -1.000000e+000
      outer loop
         vertex -3.500000e+000 -3.500000e+000 -1.000000e+001
         vertex -6.350853e+000 -3.552714e-015 -1.000000e+001
         vertex -3.099096e+000 -1.626531e+000 -1.000000e+001
      endloop
   endfacet
   facet normal 0.000000e+000 -0.000000e+000 -1.000000e+000
      outer loop
         vertex -6.350853e+000 -3.552714e-015 -1.000000e+001
         vertex -3.500000e+000 0.000000e+000 -1.000000e+001
         vertex -3.099096e+000 -1.626531e+000 -1.000000e+001
      endloop
   endfacet
   facet normal 0.000000e+000 0.000000e+000 -1.000000e+000
      outer loop
         vertex 3.500000e+000 -3.500000e+000 -1.000000e+001
         vertex 1.241117e+000 -3.272557e+000 -1.000000e+001
         vertex 2.619788e+000 -2.320929e+000 -1.000000e+001
      endloop
   endfacet
   facet normal 0.000000e+000 0.000000e+000 -1.000000e+000
      outer loop
         vertex 3.500000e+000 3.500000e+000 -1.000000e+001
         vertex 2.619788e+000 2.320929e+000 -1.000000e+001
         vertex 1.241117e+000 3.272557e+000 -1.000000e+001
      endloop
   endfacet
   facet normal 0.000000e+000 0.000000e+000 -1.000000e+000
      outer loop
         vertex 3.500000e+000 -3.500000e+000 -1.000000e+001
         vertex 6.350853e+000 1.332268e-015 -1.000000e+001
         vertex 3.175426e+000 -5.500000e+000 -1.000000e+001
      endloop
   endfacet
   facet normal 0.000000e+000 0.000000e+000 -1.000000e+000
      outer loop
         vertex 3.500000e+000 -3.500000e+000 -1.000000e+001
         vertex 3.175426e+000 -5.500000e+000 -1.000000e+001
         vertex -3.175426e+000 -5.500000e+000 -1.000000e+001
      endloop
   endfacet
   facet normal 0.000000e+000 0.000000e+000 -1.000000e+000
      outer loop
         vertex -6.350853e+000 -3.552714e-015 -1.000000e+001
         vertex -3.175426e+000 5.500000e+000 -1.000000e+001
         vertex -3.500000e+000 3.500000e+000 -1.000000e+001
      endloop
   endfacet
   facet normal -0.000000e+000 0.000000e+000 -1.000000e+000
      outer loop
         vertex -1.988227e+000 -2.880444e+000 -1.000000e+001
         vertex -4.218784e-001 -3.474481e+000 -1.000000e+001
         vertex -3.500000e+000 -3.500000e+000 -1.000000e+001
      endloop
   endfacet
   facet normal 0.000000e+000 0.000000e+000 -1.000000e+000
      outer loop
         vertex -4.218784e-001 3.474481e+000 -1.000000e+001
         vertex -1.988227e+000 2.880444e+000 -1.000000e+001
         vertex -3.500000e+000 3.500000e+000 -1.000000e+001
      endloop
   endfacet
   facet normal 0.000000e+000 0.000000e+000 -1.000000e+000
      outer loop
         vertex 3.500000e+000 -3.500000e+000 -1.000000e+001
         vertex -3.500000e+000 -3.500000e+000 -1.000000e+001
         vertex -4.218784e-001 -3.474481e+000 -1.000000e+001
      endloop
   endfacet
   facet normal 0.000000e+000 0.000000e+000 -1.000000e+000
      outer loop
         vertex -3.175426e+000 -5.500000e+000 -1.000000e+001
         vertex -3.500000e+000 -3.500000e+000 -1.000000e+001
         vertex 3.500000e+000 -3.500000e+000 -1.000000e+001
      endloop
   endfacet
   facet normal 0.000000e+000 0.000000e+000 -1.000000e+000
      outer loop
         vertex 3.398296e+000 8.376048e-001 -1.000000e+001
         vertex 3.500000e+000 3.500000e+000 -1.000000e+001
         vertex 3.398296e+000 -8.376048e-001 -1.000000e+001
      endloop
   endfacet
   facet normal 0.000000e+000 -0.000000e+000 -1.000000e+000
      outer loop
         vertex -6.350853e+000 -3.552714e-015 -1.000000e+001
         vertex -3.500000e+000 3.500000e+000 -1.000000e+001
         vertex -3.099096e+000 1.626531e+000 -1.000000e+001
      endloop
   endfacet
   facet normal -0.000000e+000 0.000000e+000 -1.000000e+000
      outer loop
         vertex -3.175426e+000 5.500000e+000 -1.000000e+001
         vertex 3.175426e+000 5.500000e+000 -1.000000e+001
         vertex -3.500000e+000 3.500000e+000 -1.000000e+001
      endloop
   endfacet
   facet normal 0.000000e+000 0.000000e+000 -1.000000e+000
      outer loop
         vertex 3.500000e+000 -3.500000e+000 -1.000000e+001
         vertex 3.398296e+000 -8.376048e-001 -1.000000e+001
         vertex 3.500000e+000 3.500000e+000 -1.000000e+001
      endloop
   endfacet
   facet normal 9.709418e-001 -2.393157e-001 -2.051540e-017
      outer loop
         vertex -3.099096e+000 1.626531e+000 -5.000000e+000
         vertex -3.500000e+000 -4.286264e-016 -5.000000e+000
         vertex -3.500000e+000 0.000000e+000 -1.000000e+001
      endloop
   endfacet
   facet normal 3.544107e-001 -9.345044e-001 -3.308530e-002
      outer loop
         vertex -8.943615e-001 3.383802e+000 -7.500000e+000
         vertex -4.218784e-001 3.474481e+000 -5.000000e+000
         vertex -1.988227e+000 2.880444e+000 -5.000000e+000
      endloop
   endfacet
   facet normal -5.679482e-001 -8.228152e-001 -2.024869e-002
      outer loop
         vertex 2.449490e+000 2.500000e+000 -7.500000e+000
         vertex 2.619788e+000 2.320929e+000 -5.000000e+000
         vertex 1.241117e+000 3.272557e+000 -5.000000e+000
      endloop
   endfacet
   facet normal -1.000000e+000 0.000000e+000 0.000000e+000
      outer loop
         vertex 3.398296e+000 -8.376048e-001 -1.000000e+001
         vertex 3.398296e+000 -8.376048e-001 -5.000000e+000
         vertex 3.398296e+000 8.376048e-001 -5.000000e+000
      endloop
   endfacet
   facet normal -5.680647e-001 8.229839e-001 0.000000e+000
      outer loop
         vertex 1.241117e+000 -3.272557e+000 -1.000000e+001
         vertex 1.241117e+000 -3.272557e+000 -5.000000e+000
         vertex 2.619788e+000 -2.320929e+000 -5.000000e+000
      endloop
   endfacet
   facet normal 3.546049e-001 9.350162e-001 0.000000e+000
      outer loop
         vertex -1.988227e+000 -2.880444e+000 -1.000000e+001
         vertex -1.988227e+000 -2.880444e+000 -5.000000e+000
         vertex -4.218784e-001 -3.474481e+000 -5.000000e+000
      endloop
   endfacet
   facet normal 9.709418e-001 2.393157e-001 2.051540e-017
      outer loop
         vertex -3.500000e+000 0.000000e+000 -1.000000e+001
         vertex -3.500000e+000 -4.286264e-016 -5.000000e+000
         vertex -3.099096e+000 -1.626531e+000 -5.000000e+000
      endloop
   endfacet
   facet normal 7.485108e-001 6.631226e-001 -0.000000e+000
      outer loop
         vertex -1.988227e+000 -2.880444e+000 -5.000000e+000
         vertex -1.988227e+000 -2.880444e+000 -1.000000e+001
         vertex -3.099096e+000 -1.626531e+000 -1.000000e+001
      endloop
   endfacet
   facet normal -1.205367e-001 9.927089e-001 0.000000e+000
      outer loop
         vertex 1.241117e+000 -3.272557e+000 -5.000000e+000
         vertex 1.241117e+000 -3.272557e+000 -1.000000e+001
         vertex -4.218784e-001 -3.474481e+000 -1.000000e+001
      endloop
   endfacet
   facet normal -8.854560e-001 4.647231e-001 0.000000e+000
      outer loop
         vertex 3.398296e+000 -8.376048e-001 -5.000000e+000
         vertex 3.398296e+000 -8.376048e-001 -1.000000e+001
         vertex 2.619788e+000 -2.320929e+000 -1.000000e+001
      endloop
   endfacet
   facet normal -8.854560e-001 -4.647231e-001 0.000000e+000
      outer loop
         vertex 2.619788e+000 2.320929e+000 -5.000000e+000
         vertex 2.619788e+000 2.320929e+000 -1.000000e+001
         vertex 3.398296e+000 8.376048e-001 -1.000000e+001
      endloop
   endfacet
   facet normal -1.194168e-001 -9.834855e-001 1.359996e-001
      outer loop
         vertex 8.943615e-001 3.383802e+000 -9.500000e+000
         vertex -4.218784e-001 3.474481e+000 -1.000000e+001
         vertex 1.241117e+000 3.272557e+000 -1.000000e+001
      endloop
   endfacet
   facet normal 7.358950e-001 -6.519460e-001 1.828252e-001
      outer loop
         vertex -2.449490e+000 2.500000e+000 -9.500000e+000
         vertex -3.099096e+000 1.626531e+000 -1.000000e+001
         vertex -1.988227e+000 2.880444e+000 -1.000000e+001
      endloop
   endfacet
   facet normal -7.246342e-001 -6.891337e-001 -0.000000e+000
      outer loop
         vertex 2.619788e+000 2.320929e+000 -1.000000e+001
         vertex 2.449490e+000 2.500000e+000 -7.500000e+000
         vertex 2.449490e+000 2.500000e+000 -9.500000e+000
      endloop
   endfacet
   facet normal 0.000000e+000 -9.993428e-001 3.624774e-002
      outer loop
         vertex -4.218784e-001 3.474481e+000 -5.000000e+000
         vertex -8.943615e-001 3.383802e+000 -7.500000e+000
         vertex 8.943615e-001 3.383802e+000 -7.500000e+000
      endloop
   endfacet
   facet normal 8.024167e-001 -5.967641e-001 0.000000e+000
      outer loop
         vertex -3.099096e+000 1.626531e+000 -1.000000e+001
         vertex -2.449490e+000 2.500000e+000 -9.500000e+000
         vertex -2.449490e+000 2.500000e+000 -7.500000e+000
      endloop
   endfacet
   facet normal -0.000000e+000 -9.839495e-001 -1.784470e-001
      outer loop
         vertex -4.218784e-001 3.474481e+000 -1.000000e+001
         vertex 8.943615e-001 3.383802e+000 -9.500000e+000
         vertex -8.943615e-001 3.383802e+000 -9.500000e+000
      endloop
   endfacet
   facet normal 9.709418e-001 -2.393157e-001 0.000000e+000
      outer loop
         vertex -3.099096e+000 1.626531e+000 -1.000000e+001
         vertex -3.099096e+000 1.626531e+000 -5.000000e+000
         vertex -3.500000e+000 0.000000e+000 -1.000000e+001
      endloop
   endfacet
   facet normal -7.246342e-001 -6.891337e-001 -0.000000e+000
      outer loop
         vertex 2.619788e+000 2.320929e+000 -1.000000e+001
         vertex 2.619788e+000 2.320929e+000 -5.000000e+000
         vertex 2.449490e+000 2.500000e+000 -7.500000e+000
      endloop
   endfacet
   facet normal -5.680647e-001 8.229839e-001 0.000000e+000
      outer loop
         vertex 2.619788e+000 -2.320929e+000 -1.000000e+001
         vertex 1.241117e+000 -3.272557e+000 -1.000000e+001
         vertex 2.619788e+000 -2.320929e+000 -5.000000e+000
      endloop
   endfacet
   facet normal 7.485108e-001 6.631226e-001 0.000000e+000
      outer loop
         vertex -3.099096e+000 -1.626531e+000 -5.000000e+000
         vertex -1.988227e+000 -2.880444e+000 -5.000000e+000
         vertex -3.099096e+000 -1.626531e+000 -1.000000e+001
      endloop
   endfacet
   facet normal -8.854560e-001 -4.647231e-001 0.000000e+000
      outer loop
         vertex 3.398296e+000 8.376048e-001 -5.000000e+000
         vertex 2.619788e+000 2.320929e+000 -5.000000e+000
         vertex 3.398296e+000 8.376048e-001 -1.000000e+001
      endloop
   endfacet
   facet normal -5.651743e-001 -8.187964e-001 1.007490e-001
      outer loop
         vertex 1.241117e+000 3.272557e+000 -1.000000e+001
         vertex 2.619788e+000 2.320929e+000 -1.000000e+001
         vertex 2.449490e+000 2.500000e+000 -9.500000e+000
      endloop
   endfacet
   facet normal 3.498451e-001 -9.224657e-001 1.632954e-001
      outer loop
         vertex -1.988227e+000 2.880444e+000 -1.000000e+001
         vertex -4.218784e-001 3.474481e+000 -1.000000e+001
         vertex -8.943615e-001 3.383802e+000 -9.500000e+000
      endloop
   endfacet
   facet normal 9.709418e-001 2.393157e-001 0.000000e+000
      outer loop
         vertex -3.500000e+000 0.000000e+000 -1.000000e+001
         vertex -3.099096e+000 -1.626531e+000 -5.000000e+000
         vertex -3.099096e+000 -1.626531e+000 -1.000000e+001
      endloop
   endfacet
   facet normal 7.479936e-001 -6.626645e-001 -3.716619e-002
      outer loop
         vertex -2.449490e+000 2.500000e+000 -7.500000e+000
         vertex -1.988227e+000 2.880444e+000 -5.000000e+000
         vertex -3.099096e+000 1.626531e+000 -5.000000e+000
      endloop
   endfacet
   facet normal -8.854560e-001 4.647231e-001 0.000000e+000
      outer loop
         vertex 2.619788e+000 -2.320929e+000 -1.000000e+001
         vertex 2.619788e+000 -2.320929e+000 -5.000000e+000
         vertex 3.398296e+000 -8.376048e-001 -5.000000e+000
      endloop
   endfacet
   facet normal 3.546049e-001 9.350162e-001 -0.000000e+000
      outer loop
         vertex -4.218784e-001 -3.474481e+000 -5.000000e+000
         vertex -4.218784e-001 -3.474481e+000 -1.000000e+001
         vertex -1.988227e+000 -2.880444e+000 -1.000000e+001
      endloop
   endfacet
   facet normal -4.938768e-001 -8.690200e-001 2.983203e-002
      outer loop
         vertex 1.241117e+000 3.272557e+000 -5.000000e+000
         vertex 8.943615e-001 3.383802e+000 -7.500000e+000
         vertex 2.449490e+000 2.500000e+000 -7.500000e+000
      endloop
   endfacet
   facet normal 4.839636e-001 -8.515769e-001 -2.014847e-001
      outer loop
         vertex -1.988227e+000 2.880444e+000 -1.000000e+001
         vertex -8.943615e-001 3.383802e+000 -9.500000e+000
         vertex -2.449490e+000 2.500000e+000 -9.500000e+000
      endloop
   endfacet
   facet normal 4.936791e-001 -8.686721e-001 4.110590e-002
      outer loop
         vertex -2.449490e+000 2.500000e+000 -7.500000e+000
         vertex -8.943615e-001 3.383802e+000 -7.500000e+000
         vertex -1.988227e+000 2.880444e+000 -5.000000e+000
      endloop
   endfacet
   facet normal -1.204913e-001 -9.923349e-001 -2.744466e-002
      outer loop
         vertex 1.241117e+000 3.272557e+000 -5.000000e+000
         vertex -4.218784e-001 3.474481e+000 -5.000000e+000
         vertex 8.943615e-001 3.383802e+000 -7.500000e+000
      endloop
   endfacet
   facet normal -1.000000e+000 0.000000e+000 -0.000000e+000
      outer loop
         vertex 3.398296e+000 -8.376048e-001 -1.000000e+001
         vertex 3.398296e+000 8.376048e-001 -5.000000e+000
         vertex 3.398296e+000 8.376048e-001 -1.000000e+001
      endloop
   endfacet
   facet normal -1.205367e-001 9.927089e-001 0.000000e+000
      outer loop
         vertex -4.218784e-001 -3.474481e+000 -1.000000e+001
         vertex -4.218784e-001 -3.474481e+000 -5.000000e+000
         vertex 1.241117e+000 -3.272557e+000 -5.000000e+000
      endloop
   endfacet
   facet normal -4.886855e-001 -8.598855e-001 -1.475923e-001
      outer loop
         vertex 2.449490e+000 2.500000e+000 -9.500000e+000
         vertex 8.943615e-001 3.383802e+000 -9.500000e+000
         vertex 1.241117e+000 3.272557e+000 -1.000000e+001
      endloop
   endfacet
   facet normal 8.024167e-001 -5.967641e-001 0.000000e+000
      outer loop
         vertex -3.099096e+000 1.626531e+000 -1.000000e+001
         vertex -2.449490e+000 2.500000e+000 -7.500000e+000
         vertex -3.099096e+000 1.626531e+000 -5.000000e+000
      endloop
   endfacet
   facet normal 0.000000e+000 -1.000000e+000 0.000000e+000
      outer loop
         vertex -3.233161e+000 5.600000e+000 -5.000000e+000
         vertex 3.233161e+000 5.600000e+000 -5.000000e+000
         vertex 3.233161e+000 5.600000e+000 0.000000e+000
      endloop
   endfacet
   facet normal -0.000000e+000 -1.000000e+000 0.000000e+000
      outer loop
         vertex -3.233161e+000 5.600000e+000 -5.000000e+000
         vertex 3.233161e+000 5.600000e+000 0.000000e+000
         vertex -3.233161e+000 5.600000e+000 0.000000e+000
      endloop
   endfacet
   facet normal 8.660254e-001 -5.000000e-001 0.000000e+000
      outer loop
         vertex -6.466323e+000 3.996803e-015 -5.000000e+000
         vertex -3.233161e+000 5.600000e+000 -5.000000e+000
         vertex -3.233161e+000 5.600000e+000 0.000000e+000
      endloop
   endfacet
   facet normal 8.660254e-001 -5.000000e-001 0.000000e+000
      outer loop
         vertex -6.466323e+000 3.996803e-015 -5.000000e+000
         vertex -3.233161e+000 5.600000e+000 0.000000e+000
         vertex -6.466323e+000 3.996803e-015 0.000000e+000
      endloop
   endfacet
   facet normal 8.660254e-001 5.000000e-001 -0.000000e+000
      outer loop
         vertex -3.233161e+000 -5.600000e+000 -5.000000e+000
         vertex -6.466323e+000 3.996803e-015 -5.000000e+000
         vertex -6.466323e+000 3.996803e-015 0.000000e+000
      endloop
   endfacet
   facet normal 8.660254e-001 5.000000e-001 0.000000e+000
      outer loop
         vertex -3.233161e+000 -5.600000e+000 -5.000000e+000
         vertex -6.466323e+000 3.996803e-015 0.000000e+000
         vertex -3.233161e+000 -5.600000e+000 0.000000e+000
      endloop
   endfacet
   facet normal 0.000000e+000 1.000000e+000 0.000000e+000
      outer loop
         vertex 3.233161e+000 -5.600000e+000 -5.000000e+000
         vertex -3.233161e+000 -5.600000e+000 -5.000000e+000
         vertex -3.233161e+000 -5.600000e+000 0.000000e+000
      endloop
   endfacet
   facet normal -0.000000e+000 1.000000e+000 0.000000e+000
      outer loop
         vertex 3.233161e+000 -5.600000e+000 -5.000000e+000
         vertex -3.233161e+000 -5.600000e+000 0.000000e+000
         vertex 3.233161e+000 -5.600000e+000 0.000000e+000
      endloop
   endfacet
   facet normal -8.660254e-001 5.000000e-001 0.000000e+000
      outer loop
         vertex 6.466323e+000 -8.881784e-016 -5.000000e+000
         vertex 3.233161e+000 -5.600000e+000 -5.000000e+000
         vertex 3.233161e+000 -5.600000e+000 0.000000e+000
      endloop
   endfacet
   facet normal -8.660254e-001 5.000000e-001 0.000000e+000
      outer loop
         vertex 6.466323e+000 -8.881784e-016 -5.000000e+000
         vertex 3.233161e+000 -5.600000e+000 0.000000e+000
         vertex 6.466323e+000 -8.881784e-016 0.000000e+000
      endloop
   endfacet
   facet normal -8.660254e-001 -5.000000e-001 0.000000e+000
      outer loop
         vertex 3.233161e+000 5.600000e+000 -5.000000e+000
         vertex 6.466323e+000 -8.881784e-016 -5.000000e+000
         vertex 6.466323e+000 -8.881784e-016 0.000000e+000
      endloop
   endfacet
   facet normal -8.660254e-001 -5.000000e-001 0.000000e+000
      outer loop
         vertex 3.233161e+000 5.600000e+000 -5.000000e+000
         vertex 6.466323e+000 -8.881784e-016 0.000000e+000
         vertex 3.233161e+000 5.600000e+000 0.000000e+000
      endloop
   endfacet
   facet normal 1.000000e+000 0.000000e+000 0.000000e+000
      outer loop
         vertex -8.500000e+000 2.500000e+000 -7.500000e+000
         vertex -8.500000e+000 2.500000e+000 -9.500000e+000
         vertex -8.500000e+000 1.200000e+001 -9.500000e+000
      endloop
   endfacet
   facet normal 1.000000e+000 0.000000e+000 -0.000000e+000
      outer loop
         vertex -8.500000e+000 2.500000e+000 -7.500000e+000
         vertex -8.500000e+000 1.200000e+001 -9.500000e+000
         vertex -8.500000e+000 1.200000e+001 -7.500000e+000
      endloop
   endfacet
   facet normal -1.000000e+000 0.000000e+000 0.000000e+000
      outer loop
         vertex 8.500000e+000 2.500000e+000 -9.500000e+000
         vertex 8.500000e+000 2.500000e+000 -7.500000e+000
         vertex 8.500000e+000 1.200000e+001 -7.500000e+000
      endloop
   endfacet
   facet normal -1.000000e+000 0.000000e+000 -0.000000e+000
      outer loop
         vertex 8.500000e+000 2.500000e+000 -9.500000e+000
         vertex 8.500000e+000 1.200000e+001 -7.500000e+000
         vertex 8.500000e+000 1.200000e+001 -9.500000e+000
      endloop
   endfacet
   facet normal 0.000000e+000 1.000000e+000 -0.000000e+000
      outer loop
         vertex -8.500000e+000 1.200000e+001 -7.500000e+000
         vertex -8.500000e+000 1.200000e+001 -9.500000e+000
         vertex -1.400000e+001 1.200000e+001 -1.500000e+001
      endloop
   endfacet
   facet normal 0.000000e+000 1.000000e+000 0.000000e+000
      outer loop
         vertex 8.500000e+000 1.200000e+001 -9.500000e+000
         vertex 8.500000e+000 1.200000e+001 -7.500000e+000
         vertex 1.400000e+001 1.200000e+001 -1.500000e+001
      endloop
   endfacet
   facet normal 0.000000e+000 1.000000e+000 0.000000e+000
      outer loop
         vertex 1.000000e+000 1.200000e+001 -7.500000e+000
         vertex 1.000000e+000 1.200000e+001 0.000000e+000
         vertex 8.500000e+000 1.200000e+001 -7.500000e+000
      endloop
   endfacet
   facet normal 0.000000e+000 1.000000e+000 0.000000e+000
      outer loop
         vertex 1.400000e+001 1.200000e+001 -1.500000e+001
         vertex -1.400000e+001 1.200000e+001 -1.500000e+001
         vertex -8.500000e+000 1.200000e+001 -9.500000e+000
      endloop
   endfacet
   facet normal 0.000000e+000 1.000000e+000 0.000000e+000
      outer loop
         vertex -1.400000e+001 1.200000e+001 0.000000e+000
         vertex -1.000000e+000 1.200000e+001 0.000000e+000
         vertex -8.500000e+000 1.200000e+001 -7.500000e+000
      endloop
   endfacet
   facet normal 0.000000e+000 1.000000e+000 0.000000e+000
      outer loop
         vertex -1.000000e+000 1.200000e+001 -7.500000e+000
         vertex -8.500000e+000 1.200000e+001 -7.500000e+000
         vertex -1.000000e+000 1.200000e+001 0.000000e+000
      endloop
   endfacet
   facet normal -0.000000e+000 1.000000e+000 0.000000e+000
      outer loop
         vertex 1.400000e+001 1.200000e+001 -1.500000e+001
         vertex 8.500000e+000 1.200000e+001 -7.500000e+000
         vertex 1.400000e+001 1.200000e+001 0.000000e+000
      endloop
   endfacet
   facet normal 0.000000e+000 1.000000e+000 0.000000e+000
      outer loop
         vertex -1.400000e+001 1.200000e+001 0.000000e+000
         vertex -8.500000e+000 1.200000e+001 -7.500000e+000
         vertex -1.400000e+001 1.200000e+001 -1.500000e+001
      endloop
   endfacet
   facet normal 0.000000e+000 1.000000e+000 0.000000e+000
      outer loop
         vertex -8.500000e+000 1.200000e+001 -9.500000e+000
         vertex 8.500000e+000 1.200000e+001 -9.500000e+000
         vertex 1.400000e+001 1.200000e+001 -1.500000e+001
      endloop
   endfacet
   facet normal -0.000000e+000 1.000000e+000 0.000000e+000
      outer loop
         vertex 8.500000e+000 1.200000e+001 -7.500000e+000
         vertex 1.000000e+000 1.200000e+001 0.000000e+000
         vertex 1.400000e+001 1.200000e+001 0.000000e+000
      endloop
   endfacet
   facet normal 1.000000e+000 0.000000e+000 0.000000e+000
      outer loop
         vertex -1.000000e+000 1.200000e+001 -7.500000e+000
         vertex -1.000000e+000 1.200000e+001 0.000000e+000
         vertex -1.000000e+000 7.500000e+000 0.000000e+000
      endloop
   endfacet
   facet normal 1.000000e+000 0.000000e+000 0.000000e+000
      outer loop
         vertex -1.000000e+000 1.200000e+001 -7.500000e+000
         vertex -1.000000e+000 7.500000e+000 0.000000e+000
         vertex -1.000000e+000 7.500000e+000 -7.500000e+000
      endloop
   endfacet
   facet normal 0.000000e+000 1.000000e+000 -0.000000e+000
      outer loop
         vertex 1.000000e+000 7.500000e+000 0.000000e+000
         vertex 1.000000e+000 7.500000e+000 -7.500000e+000
         vertex -1.000000e+000 7.500000e+000 -7.500000e+000
      endloop
   endfacet
   facet normal 0.000000e+000 1.000000e+000 0.000000e+000
      outer loop
         vertex -1.000000e+000 7.500000e+000 0.000000e+000
         vertex 1.000000e+000 7.500000e+000 0.000000e+000
         vertex -1.000000e+000 7.500000e+000 -7.500000e+000
      endloop
   endfacet
   facet normal -1.000000e+000 0.000000e+000 0.000000e+000
      outer loop
         vertex 1.000000e+000 1.200000e+001 0.000000e+000
         vertex 1.000000e+000 1.200000e+001 -7.500000e+000
         vertex 1.000000e+000 7.500000e+000 -7.500000e+000
      endloop
   endfacet
   facet normal -1.000000e+000 0.000000e+000 0.000000e+000
      outer loop
         vertex 1.000000e+000 1.200000e+001 0.000000e+000
         vertex 1.000000e+000 7.500000e+000 -7.500000e+000
         vertex 1.000000e+000 7.500000e+000 0.000000e+000
      endloop
   endfacet
   facet normal -8.660254e-001 5.000000e-001 0.000000e+000
      outer loop
         vertex 3.175426e+000 -5.500000e+000 -1.000000e+001
         vertex 6.350853e+000 1.332268e-015 -1.000000e+001
         vertex 6.350853e+000 1.332268e-015 -1.500000e+001
      endloop
   endfacet
   facet normal -8.660254e-001 5.000000e-001 0.000000e+000
      outer loop
         vertex 3.175426e+000 -5.500000e+000 -1.000000e+001
         vertex 6.350853e+000 1.332268e-015 -1.500000e+001
         vertex 3.175426e+000 -5.500000e+000 -1.500000e+001
      endloop
   endfacet
   facet normal 0.000000e+000 1.000000e+000 0.000000e+000
      outer loop
         vertex -3.175426e+000 -5.500000e+000 -1.000000e+001
         vertex 3.175426e+000 -5.500000e+000 -1.000000e+001
         vertex 3.175426e+000 -5.500000e+000 -1.500000e+001
      endloop
   endfacet
   facet normal 0.000000e+000 1.000000e+000 0.000000e+000
      outer loop
         vertex -3.175426e+000 -5.500000e+000 -1.000000e+001
         vertex 3.175426e+000 -5.500000e+000 -1.500000e+001
         vertex -3.175426e+000 -5.500000e+000 -1.500000e+001
      endloop
   endfacet
   facet normal 8.660254e-001 5.000000e-001 0.000000e+000
      outer loop
         vertex -6.350853e+000 -3.552714e-015 -1.000000e+001
         vertex -3.175426e+000 -5.500000e+000 -1.000000e+001
         vertex -3.175426e+000 -5.500000e+000 -1.500000e+001
      endloop
   endfacet
   facet normal 8.660254e-001 5.000000e-001 0.000000e+000
      outer loop
         vertex -6.350853e+000 -3.552714e-015 -1.000000e+001
         vertex -3.175426e+000 -5.500000e+000 -1.500000e+001
         vertex -6.350853e+000 -3.552714e-015 -1.500000e+001
      endloop
   endfacet
   facet normal 8.660254e-001 -5.000000e-001 0.000000e+000
      outer loop
         vertex -3.175426e+000 5.500000e+000 -1.000000e+001
         vertex -6.350853e+000 -3.552714e-015 -1.000000e+001
         vertex -6.350853e+000 -3.552714e-015 -1.500000e+001
      endloop
   endfacet
   facet normal 8.660254e-001 -5.000000e-001 0.000000e+000
      outer loop
         vertex -3.175426e+000 5.500000e+000 -1.000000e+001
         vertex -6.350853e+000 -3.552714e-015 -1.500000e+001
         vertex -3.175426e+000 5.500000e+000 -1.500000e+001
      endloop
   endfacet
   facet normal 0.000000e+000 -1.000000e+000 0.000000e+000
      outer loop
         vertex 3.175426e+000 5.500000e+000 -1.000000e+001
         vertex -3.175426e+000 5.500000e+000 -1.000000e+001
         vertex -3.175426e+000 5.500000e+000 -1.500000e+001
      endloop
   endfacet
   facet normal 0.000000e+000 -1.000000e+000 0.000000e+000
      outer loop
         vertex 3.175426e+000 5.500000e+000 -1.000000e+001
         vertex -3.175426e+000 5.500000e+000 -1.500000e+001
         vertex 3.175426e+000 5.500000e+000 -1.500000e+001
      endloop
   endfacet
   facet normal -8.660254e-001 -5.000000e-001 -0.000000e+000
      outer loop
         vertex 6.350853e+000 1.332268e-015 -1.000000e+001
         vertex 3.175426e+000 5.500000e+000 -1.000000e+001
         vertex 3.175426e+000 5.500000e+000 -1.500000e+001
      endloop
   endfacet
   facet normal -8.660254e-001 -5.000000e-001 0.000000e+000
      outer loop
         vertex 6.350853e+000 1.332268e-015 -1.000000e+001
         vertex 3.175426e+000 5.500000e+000 -1.500000e+001
         vertex 6.350853e+000 1.332268e-015 -1.500000e+001
      endloop
   endfacet
   facet normal 0.000000e+000 0.000000e+000 1.000000e+000
      outer loop
         vertex -1.000000e+000 7.500000e+000 0.000000e+000
         vertex -1.000000e+000 1.200000e+001 0.000000e+000
         vertex -6.466323e+000 5.600000e+000 0.000000e+000
      endloop
   endfacet
   facet normal -0.000000e+000 0.000000e+000 1.000000e+000
      outer loop
         vertex -1.400000e+001 1.200000e+001 0.000000e+000
         vertex -1.600000e+001 1.000000e+001 0.000000e+000
         vertex -6.466323e+000 5.600000e+000 0.000000e+000
      endloop
   endfacet
   facet normal 0.000000e+000 -0.000000e+000 1.000000e+000
      outer loop
         vertex -1.600000e+001 -1.000000e+001 0.000000e+000
         vertex -1.400000e+001 -1.200000e+001 0.000000e+000
         vertex -6.466323e+000 -5.600000e+000 0.000000e+000
      endloop
   endfacet
   facet normal 0.000000e+000 0.000000e+000 1.000000e+000
      outer loop
         vertex 1.400000e+001 -1.200000e+001 0.000000e+000
         vertex 1.600000e+001 -1.000000e+001 0.000000e+000
         vertex 6.466323e+000 -5.600000e+000 0.000000e+000
      endloop
   endfacet
   facet normal 0.000000e+000 0.000000e+000 1.000000e+000
      outer loop
         vertex 1.600000e+001 1.000000e+001 0.000000e+000
         vertex 1.400000e+001 1.200000e+001 0.000000e+000
         vertex 6.466323e+000 5.600000e+000 0.000000e+000
      endloop
   endfacet
   facet normal -0.000000e+000 0.000000e+000 1.000000e+000
      outer loop
         vertex 1.000000e+000 1.200000e+001 0.000000e+000
         vertex 1.000000e+000 7.500000e+000 0.000000e+000
         vertex 6.466323e+000 5.600000e+000 0.000000e+000
      endloop
   endfacet
   facet normal 0.000000e+000 -0.000000e+000 1.000000e+000
      outer loop
         vertex 3.233161e+000 5.600000e+000 0.000000e+000
         vertex 6.466323e+000 -8.881784e-016 0.000000e+000
         vertex 6.466323e+000 5.600000e+000 0.000000e+000
      endloop
   endfacet
   facet normal 0.000000e+000 0.000000e+000 1.000000e+000
      outer loop
         vertex -3.233161e+000 -5.600000e+000 0.000000e+000
         vertex -6.466323e+000 3.996803e-015 0.000000e+000
         vertex -6.466323e+000 -5.600000e+000 0.000000e+000
      endloop
   endfacet
   facet normal 0.000000e+000 0.000000e+000 1.000000e+000
      outer loop
         vertex -6.466323e+000 5.600000e+000 0.000000e+000
         vertex 6.466323e+000 5.600000e+000 0.000000e+000
         vertex -1.000000e+000 7.500000e+000 0.000000e+000
      endloop
   endfacet
   facet normal 0.000000e+000 -0.000000e+000 1.000000e+000
      outer loop
         vertex -1.400000e+001 1.200000e+001 0.000000e+000
         vertex -6.466323e+000 5.600000e+000 0.000000e+000
         vertex -1.000000e+000 1.200000e+001 0.000000e+000
      endloop
   endfacet
   facet normal 0.000000e+000 0.000000e+000 1.000000e+000
      outer loop
         vertex 1.400000e+001 -1.200000e+001 0.000000e+000
         vertex 6.466323e+000 -5.600000e+000 0.000000e+000
         vertex -1.400000e+001 -1.200000e+001 0.000000e+000
      endloop
   endfacet
   facet normal 0.000000e+000 0.000000e+000 1.000000e+000
      outer loop
         vertex 6.466323e+000 5.600000e+000 0.000000e+000
         vertex 1.400000e+001 1.200000e+001 0.000000e+000
         vertex 1.000000e+000 1.200000e+001 0.000000e+000
      endloop
   endfacet
   facet normal 0.000000e+000 0.000000e+000 1.000000e+000
      outer loop
         vertex 6.466323e+000 5.600000e+000 0.000000e+000
         vertex 6.466323e+000 -8.881784e-016 0.000000e+000
         vertex 1.600000e+001 1.000000e+001 0.000000e+000
      endloop
   endfacet
   facet normal 0.000000e+000 0.000000e+000 1.000000e+000
      outer loop
         vertex -1.000000e+000 7.500000e+000 0.000000e+000
         vertex 6.466323e+000 5.600000e+000 0.000000e+000
         vertex 1.000000e+000 7.500000e+000 0.000000e+000
      endloop
   endfacet
   facet normal 0.000000e+000 0.000000e+000 1.000000e+000
      outer loop
         vertex -1.600000e+001 1.000000e+001 0.000000e+000
         vertex -1.600000e+001 -1.000000e+001 0.000000e+000
         vertex -6.466323e+000 3.996803e-015 0.000000e+000
      endloop
   endfacet
   facet normal 0.000000e+000 0.000000e+000 1.000000e+000
      outer loop
         vertex 6.466323e+000 -8.881784e-016 0.000000e+000
         vertex 3.233161e+000 -5.600000e+000 0.000000e+000
         vertex 6.466323e+000 -5.600000e+000 0.000000e+000
      endloop
   endfacet
   facet normal 0.000000e+000 0.000000e+000 1.000000e+000
      outer loop
         vertex -6.466323e+000 3.996803e-015 0.000000e+000
         vertex -3.233161e+000 5.600000e+000 0.000000e+000
         vertex -6.466323e+000 5.600000e+000 0.000000e+000
      endloop
   endfacet
   facet normal 0.000000e+000 0.000000e+000 1.000000e+000
      outer loop
         vertex -6.466323e+000 -5.600000e+000 0.000000e+000
         vertex 6.466323e+000 -5.600000e+000 0.000000e+000
         vertex -6.466323e+000 3.996803e-015 0.000000e+000
      endloop
   endfacet
   facet normal 0.000000e+000 0.000000e+000 1.000000e+000
      outer loop
         vertex -6.466323e+000 5.600000e+000 0.000000e+000
         vertex -1.600000e+001 1.000000e+001 0.000000e+000
         vertex -6.466323e+000 3.996803e-015 0.000000e+000
      endloop
   endfacet
   facet normal 0.000000e+000 0.000000e+000 1.000000e+000
      outer loop
         vertex -6.466323e+000 -5.600000e+000 0.000000e+000
         vertex -1.400000e+001 -1.200000e+001 0.000000e+000
         vertex 6.466323e+000 -5.600000e+000 0.000000e+000
      endloop
   endfacet
   facet normal -0.000000e+000 0.000000e+000 1.000000e+000
      outer loop
         vertex -3.233161e+000 -5.600000e+000 0.000000e+000
         vertex -6.466323e+000 -5.600000e+000 0.000000e+000
         vertex -1.600000e+001 -1.000000e+001 0.000000e+000
      endloop
   endfacet
   facet normal -0.000000e+000 0.000000e+000 1.000000e+000
      outer loop
         vertex 1.600000e+001 1.000000e+001 0.000000e+000
         vertex 6.466323e+000 -8.881784e-016 0.000000e+000
         vertex 1.600000e+001 -1.000000e+001 0.000000e+000
      endloop
   endfacet
   facet normal -0.000000e+000 0.000000e+000 1.000000e+000
      outer loop
         vertex 6.466323e+000 -5.600000e+000 0.000000e+000
         vertex 3.233161e+000 -5.600000e+000 0.000000e+000
         vertex 1.600000e+001 -1.000000e+001 0.000000e+000
      endloop
   endfacet
   facet normal 0.000000e+000 0.000000e+000 1.000000e+000
      outer loop
         vertex -6.466323e+000 -5.600000e+000 0.000000e+000
         vertex -6.466323e+000 3.996803e-015 0.000000e+000
         vertex -1.600000e+001 -1.000000e+001 0.000000e+000
      endloop
   endfacet
   facet normal 0.000000e+000 0.000000e+000 1.000000e+000
      outer loop
         vertex 1.600000e+001 -1.000000e+001 0.000000e+000
         vertex 6.466323e+000 -8.881784e-016 0.000000e+000
         vertex 6.466323e+000 -5.600000e+000 0.000000e+000
      endloop
   endfacet
   facet normal -0.000000e+000 0.000000e+000 1.000000e+000
      outer loop
         vertex 3.233161e+000 -5.600000e+000 0.000000e+000
         vertex -3.233161e+000 -5.600000e+000 0.000000e+000
         vertex -1.600000e+001 -1.000000e+001 0.000000e+000
      endloop
   endfacet
   facet normal 0.000000e+000 0.000000e+000 1.000000e+000
      outer loop
         vertex -6.466323e+000 -5.600000e+000 0.000000e+000
         vertex -6.466323e+000 3.996803e-015 0.000000e+000
         vertex -1.600000e+001 -1.000000e+001 0.000000e+000
      endloop
   endfacet
   facet normal 0.000000e+000 -0.000000e+000 1.000000e+000
      outer loop
         vertex -6.466323e+000 3.996803e-015 0.000000e+000
         vertex 6.466323e+000 -5.600000e+000 0.000000e+000
         vertex 6.466323e+000 5.600000e+000 0.000000e+000
      endloop
   endfacet
   facet normal 0.000000e+000 0.000000e+000 1.000000e+000
      outer loop
         vertex 1.600000e+001 -1.000000e+001 0.000000e+000
         vertex 3.233161e+000 -5.600000e+000 0.000000e+000
         vertex -1.600000e+001 -1.000000e+001 0.000000e+000
      endloop
   endfacet
   facet normal 0.000000e+000 0.000000e+000 1.000000e+000
      outer loop
         vertex -6.466323e+000 3.996803e-015 0.000000e+000
         vertex 6.466323e+000 5.600000e+000 0.000000e+000
         vertex -6.466323e+000 5.600000e+000 0.000000e+000
      endloop
   endfacet
   facet normal 0.000000e+000 0.000000e+000 1.000000e+000
      outer loop
         vertex -6.466323e+000 3.996803e-015 0.000000e+000
         vertex -6.466323e+000 5.600000e+000 0.000000e+000
         vertex -1.600000e+001 -1.000000e+001 0.000000e+000
      endloop
   endfacet
   facet normal 0.000000e+000 0.000000e+000 1.000000e+000
      outer loop
         vertex 6.466323e+000 -5.600000e+000 0.000000e+000
         vertex 1.600000e+001 -1.000000e+001 0.000000e+000
         vertex 6.466323e+000 5.600000e+000 0.000000e+000
      endloop
   endfacet
   facet normal 7.071068e-001 7.071068e-001 -0.000000e+000
      outer loop
         vertex 1.600000e+001 1.000000e+001 0.000000e+000
         vertex 1.600000e+001 1.000000e+001 -1.500000e+001
         vertex 1.400000e+001 1.200000e+001 -1.500000e+001
      endloop
   endfacet
   facet normal 7.071068e-001 7.071068e-001 0.000000e+000
      outer loop
         vertex 1.400000e+001 1.200000e+001 0.000000e+000
         vertex 1.600000e+001 1.000000e+001 0.000000e+000
         vertex 1.400000e+001 1.200000e+001 -1.500000e+001
      endloop
   endfacet
   facet normal 0.000000e+000 -0.000000e+000 -1.000000e+000
      outer loop
         vertex 3.175426e+000 5.500000e+000 -1.500000e+001
         vertex 1.400000e+001 1.200000e+001 -1.500000e+001
         vertex 1.600000e+001 1.000000e+001 -1.500000e+001
      endloop
   endfacet
   facet normal 0.000000e+000 0.000000e+000 -1.000000e+000
      outer loop
         vertex -3.175426e+000 5.500000e+000 -1.500000e+001
         vertex -1.600000e+001 1.000000e+001 -1.500000e+001
         vertex -1.400000e+001 1.200000e+001 -1.500000e+001
      endloop
   endfacet
   facet normal 0.000000e+000 0.000000e+000 -1.000000e+000
      outer loop
         vertex -6.350853e+000 -5.500000e+000 -1.500000e+001
         vertex -1.400000e+001 -1.200000e+001 -1.500000e+001
         vertex -1.600000e+001 -1.000000e+001 -1.500000e+001
      endloop
   endfacet
   facet normal -0.000000e+000 0.000000e+000 -1.000000e+000
      outer loop
         vertex 6.350853e+000 -5.500000e+000 -1.500000e+001
         vertex 1.600000e+001 -1.000000e+001 -1.500000e+001
         vertex 1.400000e+001 -1.200000e+001 -1.500000e+001
      endloop
   endfacet
   facet normal 0.000000e+000 0.000000e+000 -1.000000e+000
      outer loop
         vertex -6.350853e+000 -5.500000e+000 -1.500000e+001
         vertex -6.350853e+000 -3.552714e-015 -1.500000e+001
         vertex -3.175426e+000 -5.500000e+000 -1.500000e+001
      endloop
   endfacet
   facet normal 0.000000e+000 0.000000e+000 -1.000000e+000
      outer loop
         vertex -1.400000e+001 1.200000e+001 -1.500000e+001
         vertex 3.175426e+000 5.500000e+000 -1.500000e+001
         vertex -3.175426e+000 5.500000e+000 -1.500000e+001
      endloop
   endfacet
   facet normal 0.000000e+000 0.000000e+000 -1.000000e+000
      outer loop
         vertex 6.350853e+000 -5.500000e+000 -1.500000e+001
         vertex 3.175426e+000 -5.500000e+000 -1.500000e+001
         vertex 6.350853e+000 1.332268e-015 -1.500000e+001
      endloop
   endfacet
   facet normal 0.000000e+000 0.000000e+000 -1.000000e+000
      outer loop
         vertex 6.350853e+000 1.332268e-015 -1.500000e+001
         vertex 6.350853e+000 -5.500000e+000 -1.500000e+001
         vertex -6.350853e+000 -5.500000e+000 -1.500000e+001
      endloop
   endfacet
   facet normal -0.000000e+000 0.000000e+000 -1.000000e+000
      outer loop
         vertex -1.400000e+001 1.200000e+001 -1.500000e+001
         vertex 1.400000e+001 1.200000e+001 -1.500000e+001
         vertex 3.175426e+000 5.500000e+000 -1.500000e+001
      endloop
   endfacet
   facet normal 0.000000e+000 0.000000e+000 -1.000000e+000
      outer loop
         vertex 1.400000e+001 -1.200000e+001 -1.500000e+001
         vertex -1.400000e+001 -1.200000e+001 -1.500000e+001
         vertex -6.350853e+000 -5.500000e+000 -1.500000e+001
      endloop
   endfacet
   facet normal 0.000000e+000 -0.000000e+000 -1.000000e+000
      outer loop
         vertex -1.600000e+001 -1.000000e+001 -1.500000e+001
         vertex -6.350853e+000 -3.552714e-015 -1.500000e+001
         vertex -6.350853e+000 -5.500000e+000 -1.500000e+001
      endloop
   endfacet
   facet normal 0.000000e+000 0.000000e+000 -1.000000e+000
      outer loop
         vertex -6.350853e+000 -3.552714e-015 -1.500000e+001
         vertex 6.350853e+000 1.332268e-015 -1.500000e+001
         vertex -6.350853e+000 -5.500000e+000 -1.500000e+001
      endloop
   endfacet
   facet normal 0.000000e+000 0.000000e+000 -1.000000e+000
      outer loop
         vertex 6.350853e+000 -5.500000e+000 -1.500000e+001
         vertex 1.400000e+001 -1.200000e+001 -1.500000e+001
         vertex -6.350853e+000 -5.500000e+000 -1.500000e+001
      endloop
   endfacet
   facet normal 0.000000e+000 0.000000e+000 -1.000000e+000
      outer loop
         vertex -6.350853e+000 -3.552714e-015 -1.500000e+001
         vertex -1.600000e+001 -1.000000e+001 -1.500000e+001
         vertex -1.600000e+001 1.000000e+001 -1.500000e+001
      endloop
   endfacet
   facet normal 0.000000e+000 0.000000e+000 -1.000000e+000
      outer loop
         vertex 1.600000e+001 -1.000000e+001 -1.500000e+001
         vertex -3.175426e+000 -5.500000e+000 -1.500000e+001
         vertex 3.175426e+000 -5.500000e+000 -1.500000e+001
      endloop
   endfacet
   facet normal 0.000000e+000 0.000000e+000 -1.000000e+000
      outer loop
         vertex 1.600000e+001 1.000000e+001 -1.500000e+001
         vertex 6.350853e+000 1.332268e-015 -1.500000e+001
         vertex 3.175426e+000 5.500000e+000 -1.500000e+001
      endloop
   endfacet
   facet normal 0.000000e+000 0.000000e+000 -1.000000e+000
      outer loop
         vertex 6.350853e+000 1.332268e-015 -1.500000e+001
         vertex 1.600000e+001 -1.000000e+001 -1.500000e+001
         vertex 6.350853e+000 -5.500000e+000 -1.500000e+001
      endloop
   endfacet
   facet normal 0.000000e+000 0.000000e+000 -1.000000e+000
      outer loop
         vertex 1.600000e+001 -1.000000e+001 -1.500000e+001
         vertex 3.175426e+000 -5.500000e+000 -1.500000e+001
         vertex 6.350853e+000 -5.500000e+000 -1.500000e+001
      endloop
   endfacet
   facet normal -0.000000e+000 -0.000000e+000 -1.000000e+000
      outer loop
         vertex -1.600000e+001 1.000000e+001 -1.500000e+001
         vertex -6.350853e+000 -3.552714e-015 -1.500000e+001
         vertex -6.350853e+000 -5.500000e+000 -1.500000e+001
      endloop
   endfacet
   facet normal 0.000000e+000 0.000000e+000 -1.000000e+000
      outer loop
         vertex -3.175426e+000 5.500000e+000 -1.500000e+001
         vertex -6.350853e+000 -3.552714e-015 -1.500000e+001
         vertex -1.600000e+001 1.000000e+001 -1.500000e+001
      endloop
   endfacet
   facet normal 0.000000e+000 0.000000e+000 -1.000000e+000
      outer loop
         vertex 6.350853e+000 1.332268e-015 -1.500000e+001
         vertex 1.600000e+001 -1.000000e+001 -1.500000e+001
         vertex 6.350853e+000 -5.500000e+000 -1.500000e+001
      endloop
   endfacet
   facet normal 0.000000e+000 0.000000e+000 -1.000000e+000
      outer loop
         vertex 1.600000e+001 1.000000e+001 -1.500000e+001
         vertex 1.600000e+001 -1.000000e+001 -1.500000e+001
         vertex 6.350853e+000 1.332268e-015 -1.500000e+001
      endloop
   endfacet
   facet normal 0.000000e+000 0.000000e+000 -1.000000e+000
      outer loop
         vertex 1.600000e+001 -1.000000e+001 -1.500000e+001
         vertex -6.350853e+000 -5.500000e+000 -1.500000e+001
         vertex -3.175426e+000 -5.500000e+000 -1.500000e+001
      endloop
   endfacet
   facet normal 0.000000e+000 0.000000e+000 -1.000000e+000
      outer loop
         vertex 6.350853e+000 1.332268e-015 -1.500000e+001
         vertex -6.350853e+000 -3.552714e-015 -1.500000e+001
         vertex -1.600000e+001 1.000000e+001 -1.500000e+001
      endloop
   endfacet
   facet normal -7.071068e-001 7.071068e-001 0.000000e+000
      outer loop
         vertex -1.400000e+001 1.200000e+001 0.000000e+000
         vertex -1.400000e+001 1.200000e+001 -1.500000e+001
         vertex -1.600000e+001 1.000000e+001 -1.500000e+001
      endloop
   endfacet
   facet normal -7.071068e-001 7.071068e-001 0.000000e+000
      outer loop
         vertex -1.600000e+001 1.000000e+001 0.000000e+000
         vertex -1.400000e+001 1.200000e+001 0.000000e+000
         vertex -1.600000e+001 1.000000e+001 -1.500000e+001
      endloop
   endfacet
   facet normal -1.000000e+000 0.000000e+000 0.000000e+000
      outer loop
         vertex -1.600000e+001 1.000000e+001 0.000000e+000
         vertex -1.600000e+001 1.000000e+001 -1.500000e+001
         vertex -1.600000e+001 -1.000000e+001 -1.500000e+001
      endloop
   endfacet
   facet normal -1.000000e+000 -0.000000e+000 0.000000e+000
      outer loop
         vertex -1.600000e+001 -1.000000e+001 0.000000e+000
         vertex -1.600000e+001 1.000000e+001 0.000000e+000
         vertex -1.600000e+001 -1.000000e+001 -1.500000e+001
      endloop
   endfacet
   facet normal -7.071068e-001 -7.071068e-001 0.000000e+000
      outer loop
         vertex -1.600000e+001 -1.000000e+001 0.000000e+000
         vertex -1.600000e+001 -1.000000e+001 -1.500000e+001
         vertex -1.400000e+001 -1.200000e+001 -1.500000e+001
      endloop
   endfacet
   facet normal -7.071068e-001 -7.071068e-001 0.000000e+000
      outer loop
         vertex -1.400000e+001 -1.200000e+001 0.000000e+000
         vertex -1.600000e+001 -1.000000e+001 0.000000e+000
         vertex -1.400000e+001 -1.200000e+001 -1.500000e+001
      endloop
   endfacet
   facet normal 0.000000e+000 -1.000000e+000 0.000000e+000
      outer loop
         vertex -1.400000e+001 -1.200000e+001 0.000000e+000
         vertex -1.400000e+001 -1.200000e+001 -1.500000e+001
         vertex 1.400000e+001 -1.200000e+001 -1.500000e+001
      endloop
   endfacet
   facet normal 0.000000e+000 -1.000000e+000 0.000000e+000
      outer loop
         vertex 1.400000e+001 -1.200000e+001 0.000000e+000
         vertex -1.400000e+001 -1.200000e+001 0.000000e+000
         vertex 1.400000e+001 -1.200000e+001 -1.500000e+001
      endloop
   endfacet
   facet normal 7.071068e-001 -7.071068e-001 0.000000e+000
      outer loop
         vertex 1.400000e+001 -1.200000e+001 0.000000e+000
         vertex 1.400000e+001 -1.200000e+001 -1.500000e+001
         vertex 1.600000e+001 -1.000000e+001 -1.500000e+001
      endloop
   endfacet
   facet normal 7.071068e-001 -7.071068e-001 0.000000e+000
      outer loop
         vertex 1.600000e+001 -1.000000e+001 0.000000e+000
         vertex 1.400000e+001 -1.200000e+001 0.000000e+000
         vertex 1.600000e+001 -1.000000e+001 -1.500000e+001
      endloop
   endfacet
   facet normal 1.000000e+000 0.000000e+000 0.000000e+000
      outer loop
         vertex 1.600000e+001 -1.000000e+001 0.000000e+000
         vertex 1.600000e+001 -1.000000e+001 -1.500000e+001
         vertex 1.600000e+001 1.000000e+001 -1.500000e+001
      endloop
   endfacet
   facet normal 1.000000e+000 -0.000000e+000 0.000000e+000
      outer loop
         vertex 1.600000e+001 1.000000e+001 0.000000e+000
         vertex 1.600000e+001 -1.000000e+001 0.000000e+000
         vertex 1.600000e+001 1.000000e+001 -1.500000e+001
      endloop
   endfacet
endsolid
