solid Правая-16мм-8мм
facet normal 9.281853148416787e-17 5.493441199768634e-17 1.0
  outer loop
    vertex 30.99999999999997 1.3255027297899069e-15 20.00000000000003
    vertex 30.99999999999996 40.00000000000001 20.000000000000025
    vertex 4.999999999999972 4.5824455341403335e-15 20.000000000000032
  endloop
endfacet
facet normal 9.281853148416787e-17 5.493441199768634e-17 1.0
  outer loop
    vertex 30.99999999999996 40.00000000000001 20.000000000000025
    vertex 30.99999999999997 1.3255027297899069e-15 20.00000000000003
    vertex 30.99999999999997 10.000000000000007 20.00000000000003
  endloop
endfacet
facet normal 9.281853148416787e-17 5.493441199768634e-17 1.0
  outer loop
    vertex 30.99999999999996 40.00000000000001 20.000000000000025
    vertex 30.99999999999997 10.000000000000007 20.00000000000003
    vertex 34.99999999999996 40.00000000000001 20.000000000000025
  endloop
endfacet
facet normal 9.281853148416787e-17 5.493441199768634e-17 1.0
  outer loop
    vertex 34.99999999999996 40.00000000000001 20.000000000000025
    vertex 30.99999999999997 10.000000000000007 20.00000000000003
    vertex 34.99999999999997 10.000000000000002 20.000000000000025
  endloop
endfacet
facet normal 9.281853148416787e-17 5.493441199768634e-17 1.0
  outer loop
    vertex 34.99999999999996 40.00000000000001 20.000000000000025
    vertex 34.99999999999997 10.000000000000002 20.000000000000025
    vertex 49.999999999999964 40.00000000000001 20.000000000000025
  endloop
endfacet
facet normal 9.281853148416787e-17 5.493441199768634e-17 1.0
  outer loop
    vertex 49.999999999999964 40.00000000000001 20.000000000000025
    vertex 34.99999999999997 10.000000000000002 20.000000000000025
    vertex 49.999999999999964 10.000000000000004 20.00000000000002
  endloop
endfacet
facet normal 9.281853148416787e-17 5.493441199768634e-17 1.0
  outer loop
    vertex 4.999999999999972 4.5824455341403335e-15 20.000000000000032
    vertex 30.99999999999996 50.00000000000001 20.000000000000025
    vertex 4.999999999999966 50.00000000000001 20.000000000000025
  endloop
endfacet
facet normal 9.281853148416787e-17 5.493441199768634e-17 1.0
  outer loop
    vertex 30.99999999999996 50.00000000000001 20.000000000000025
    vertex 4.999999999999972 4.5824455341403335e-15 20.000000000000032
    vertex 30.99999999999996 40.00000000000001 20.000000000000025
  endloop
endfacet
facet normal -0.1305261922200661 -2.989914144090509e-16 0.9914448613738086
  outer loop
    vertex 28.07055236082014 -1.2630311502774169e-15 2.2725933896875508
    vertex 25.999999999999982 50.00000000000003 2.000000000000082
    vertex 25.999999999999968 -1.208405887251245e-15 2.0000000000000635
  endloop
endfacet
facet normal -0.1305261922200661 -2.989914144090509e-16 0.9914448613738086
  outer loop
    vertex 25.999999999999982 50.00000000000003 2.000000000000082
    vertex 28.07055236082014 -1.2630311502774169e-15 2.2725933896875508
    vertex 28.07055236082015 50.00000000000003 2.272593389687565
  endloop
endfacet
facet normal -0.38268343236508884 -7.231859103875279e-17 0.9238795325112873
  outer loop
    vertex 29.99999999999996 -1.272879075091963e-15 3.0717967697245863
    vertex 28.07055236082015 50.00000000000003 2.272593389687565
    vertex 28.07055236082014 -1.2630311502774169e-15 2.2725933896875508
  endloop
endfacet
facet normal -0.38268343236508884 -7.231859103875279e-17 0.9238795325112873
  outer loop
    vertex 28.07055236082015 50.00000000000003 2.272593389687565
    vertex 29.99999999999996 -1.272879075091963e-15 3.0717967697245863
    vertex 29.999999999999986 50.00000000000003 3.071796769724594
  endloop
endfacet
facet normal -0.6087614290087117 1.0019041927422367e-16 0.793353340291242
  outer loop
    vertex 31.656854249492387 -1.2372785418932397e-15 4.343145750507715
    vertex 29.999999999999986 50.00000000000003 3.071796769724594
    vertex 29.99999999999996 -1.272879075091963e-15 3.0717967697245863
  endloop
endfacet
facet normal -0.6087614290087117 1.0019041927422367e-16 0.793353340291242
  outer loop
    vertex 29.999999999999986 50.00000000000003 3.071796769724594
    vertex 31.656854249492387 -1.2372785418932397e-15 4.343145750507715
    vertex 31.656854249492397 50.00000000000003 4.343145750507722
  endloop
endfacet
facet normal -0.7933533402912397 2.423388306368224e-16 0.6087614290087148
  outer loop
    vertex 32.92820323027549 -1.1586556681860729e-15 6.000000000000105
    vertex 31.656854249492397 50.00000000000003 4.343145750507722
    vertex 31.656854249492387 -1.2372785418932397e-15 4.343145750507715
  endloop
endfacet
facet normal -0.7933533402912397 2.423388306368224e-16 0.6087614290087148
  outer loop
    vertex 31.656854249492397 50.00000000000003 4.343145750507722
    vertex 32.92820323027549 -1.1586556681860729e-15 6.000000000000105
    vertex 32.928203230275514 50.00000000000003 6.000000000000103
  endloop
endfacet
facet normal -0.9238795325112868 4.2238370130102273e-16 0.3826834323650897
  outer loop
    vertex 33.727406610312535 -1.0423684728831694e-15 7.929447639179946
    vertex 32.928203230275514 50.00000000000003 6.000000000000103
    vertex 32.92820323027549 -1.1586556681860729e-15 6.000000000000105
  endloop
endfacet
facet normal -0.9238795325112868 4.2238370130102273e-16 0.3826834323650897
  outer loop
    vertex 32.928203230275514 50.00000000000003 6.000000000000103
    vertex 33.727406610312535 -1.0423684728831694e-15 7.929447639179946
    vertex 33.727406610312556 50.00000000000003 7.929447639179946
  endloop
endfacet
facet normal -0.9914448613738136 3.5400759849653e-16 0.1305261922200281
  outer loop
    vertex 33.99999999999994 -8.963417361707404e-16 10.000000000000115
    vertex 33.727406610312556 50.00000000000003 7.929447639179946
    vertex 33.727406610312535 -1.0423684728831694e-15 7.929447639179946
  endloop
endfacet
facet normal -0.9914448613738136 3.5400759849653e-16 0.1305261922200281
  outer loop
    vertex 33.727406610312556 50.00000000000003 7.929447639179946
    vertex 33.99999999999994 -8.963417361707404e-16 10.000000000000115
    vertex 33.99999999999996 50.00000000000003 10.000000000000101
  endloop
endfacet
facet normal -0.99144486137381 3.1170238264035456e-16 -0.13052619222005415
  outer loop
    vertex 33.72740661031248 -7.305269388351496e-16 12.070552360820281
    vertex 33.99999999999996 50.00000000000003 10.000000000000101
    vertex 33.99999999999994 -8.963417361707404e-16 10.000000000000115
  endloop
endfacet
facet normal -0.99144486137381 3.1170238264035456e-16 -0.13052619222005415
  outer loop
    vertex 33.99999999999996 50.00000000000003 10.000000000000101
    vertex 33.72740661031248 -7.305269388351496e-16 12.070552360820281
    vertex 33.7274066103125 50.00000000000003 12.070552360820276
  endloop
endfacet
facet normal -0.9238795325112878 6.089060811629059e-16 -0.382683432365087
  outer loop
    vertex 32.928203230275436 -5.562240852929076e-16 14.00000000000011
    vertex 33.7274066103125 50.00000000000003 12.070552360820276
    vertex 33.72740661031248 -7.305269388351496e-16 12.070552360820281
  endloop
endfacet
facet normal -0.9238795325112878 6.089060811629059e-16 -0.382683432365087
  outer loop
    vertex 33.7274066103125 50.00000000000003 12.070552360820276
    vertex 32.928203230275436 -5.562240852929076e-16 14.00000000000011
    vertex 32.928203230275486 50.00000000000003 14.00000000000011
  endloop
endfacet
facet normal -0.7933533402912385 5.578265985458032e-16 -0.6087614290087162
  outer loop
    vertex 31.65685424949233 -3.8531162696383343e-16 15.656854249492495
    vertex 32.928203230275486 50.00000000000003 14.00000000000011
    vertex 32.928203230275436 -5.562240852929076e-16 14.00000000000011
  endloop
endfacet
facet normal -0.7933533402912385 5.578265985458032e-16 -0.6087614290087162
  outer loop
    vertex 32.928203230275486 50.00000000000003 14.00000000000011
    vertex 31.65685424949233 -3.8531162696383343e-16 15.656854249492495
    vertex 31.656854249492362 50.00000000000003 15.656854249492483
  endloop
endfacet
facet normal -0.6087614290087195 1.8520384655743108e-16 -0.7933533402912359
  outer loop
    vertex 29.99999999999997 50.00000000000003 16.928203230275614
    vertex 31.65685424949233 -3.8531162696383343e-16 15.656854249492495
    vertex 29.99999999999996 -2.294369654368607e-16 16.928203230275614
  endloop
endfacet
facet normal -0.6087614290087195 1.8520384655743108e-16 -0.7933533402912359
  outer loop
    vertex 31.65685424949233 -3.8531162696383343e-16 15.656854249492495
    vertex 29.99999999999997 50.00000000000003 16.928203230275614
    vertex 31.656854249492362 50.00000000000003 15.656854249492483
  endloop
endfacet
facet normal -0.38268343236507313 1.2951472164029726e-16 -0.9238795325112937
  outer loop
    vertex 28.070552360820106 50.00000000000003 17.727406610312627
    vertex 29.99999999999996 -2.294369654368607e-16 16.928203230275614
    vertex 28.070552360820084 -9.922270129999243e-17 17.727406610312627
  endloop
endfacet
facet normal -0.38268343236507313 1.2951472164029726e-16 -0.9238795325112937
  outer loop
    vertex 29.99999999999996 -2.294369654368607e-16 16.928203230275614
    vertex 28.070552360820106 50.00000000000003 17.727406610312627
    vertex 29.99999999999997 50.00000000000003 16.928203230275614
  endloop
endfacet
facet normal -0.1305261922200511 -9.712261045748972e-17 -0.9914448613738105
  outer loop
    vertex 28.070552360820106 50.00000000000003 17.727406610312627
    vertex 25.999999999999925 -3.5427214649158965e-18 18.000000000000085
    vertex 25.99999999999991 50.00000000000003 18.000000000000075
  endloop
endfacet
facet normal -0.1305261922200511 -9.712261045748972e-17 -0.9914448613738105
  outer loop
    vertex 25.999999999999925 -3.5427214649158965e-18 18.000000000000085
    vertex 28.070552360820106 50.00000000000003 17.727406610312627
    vertex 28.070552360820084 -9.922270129999243e-17 17.727406610312627
  endloop
endfacet
facet normal 0.13052619222004685 -8.239759057384905e-17 -0.9914448613738112
  outer loop
    vertex 25.99999999999991 50.00000000000003 18.000000000000075
    vertex 23.929447639179763 5.108254156125492e-17 17.727406610312638
    vertex 23.929447639179752 50.00000000000003 17.727406610312638
  endloop
endfacet
facet normal 0.13052619222004685 -8.239759057384905e-17 -0.9914448613738112
  outer loop
    vertex 23.929447639179763 5.108254156125492e-17 17.727406610312638
    vertex 25.99999999999991 50.00000000000003 18.000000000000075
    vertex 25.999999999999925 -3.5427214649158965e-18 18.000000000000085
  endloop
endfacet
facet normal 0.38268343236509844 0.0 -0.9238795325112831
  outer loop
    vertex 21.999999999999908 50.00000000000003 16.928203230275567
    vertex 23.929447639179763 5.108254156125492e-17 17.727406610312638
    vertex 21.999999999999893 6.093046637580274e-17 16.928203230275567
  endloop
endfacet
facet normal 0.38268343236509844 0.0 -0.9238795325112831
  outer loop
    vertex 23.929447639179763 5.108254156125492e-17 17.727406610312638
    vertex 21.999999999999908 50.00000000000003 16.928203230275567
    vertex 23.929447639179752 50.00000000000003 17.727406610312638
  endloop
endfacet
facet normal 0.6087614290087145 -1.3735211292205949e-16 -0.79335334029124
  outer loop
    vertex 20.343145750507528 50.00000000000003 15.656854249492461
    vertex 21.999999999999893 6.093046637580274e-17 16.928203230275567
    vertex 20.343145750507517 2.5329933177078785e-17 15.656854249492461
  endloop
endfacet
facet normal 0.6087614290087145 -1.3735211292205949e-16 -0.79335334029124
  outer loop
    vertex 21.999999999999893 6.093046637580274e-17 16.928203230275567
    vertex 20.343145750507528 50.00000000000003 15.656854249492461
    vertex 21.999999999999908 50.00000000000003 16.928203230275567
  endloop
endfacet
facet normal 0.7933533402912417 -1.2438345558435654e-16 -0.6087614290087121
  outer loop
    vertex 19.07179676972442 50.00000000000003 14.000000000000076
    vertex 20.343145750507517 2.5329933177078785e-17 15.656854249492461
    vertex 19.07179676972442 -5.329294053008734e-17 14.000000000000082
  endloop
endfacet
facet normal 0.7933533402912417 -1.2438345558435654e-16 -0.6087614290087121
  outer loop
    vertex 20.343145750507517 2.5329933177078785e-17 15.656854249492461
    vertex 19.07179676972442 50.00000000000003 14.000000000000076
    vertex 20.343145750507528 50.00000000000003 15.656854249492461
  endloop
endfacet
facet normal 0.9238795325112918 -2.1243155401318854e-17 -0.3826834323650777
  outer loop
    vertex 18.27259338968741 50.00000000000003 12.070552360820248
    vertex 19.07179676972442 -5.329294053008734e-17 14.000000000000082
    vertex 18.27259338968741 -1.695801358329916e-16 12.070552360820248
  endloop
endfacet
facet normal 0.9238795325112918 -2.1243155401318854e-17 -0.3826834323650777
  outer loop
    vertex 19.07179676972442 -5.329294053008734e-17 14.000000000000082
    vertex 18.27259338968741 50.00000000000003 12.070552360820248
    vertex 19.07179676972442 50.00000000000003 14.000000000000076
  endloop
endfacet
facet normal 0.9914448613738105 -0.0 -0.1305261922200511
  outer loop
    vertex 17.999999999999957 50.00000000000003 10.000000000000071
    vertex 18.27259338968741 -1.695801358329916e-16 12.070552360820248
    vertex 17.999999999999957 -3.156068725454188e-16 10.000000000000071
  endloop
endfacet
facet normal 0.9914448613738105 -0.0 -0.1305261922200511
  outer loop
    vertex 18.27259338968741 -1.695801358329916e-16 12.070552360820248
    vertex 17.999999999999957 50.00000000000003 10.000000000000071
    vertex 18.27259338968741 50.00000000000003 12.070552360820248
  endloop
endfacet
facet normal 0.9914448613738103 -1.0249841136739047e-16 0.13052619222005316
  outer loop
    vertex 18.272593389687422 50.00000000000003 7.92944763917988
    vertex 17.999999999999957 -3.156068725454188e-16 10.000000000000071
    vertex 18.27259338968741 -4.81421669881009e-16 7.929447639179887
  endloop
endfacet
facet normal 0.9914448613738103 -1.0249841136739047e-16 0.13052619222005316
  outer loop
    vertex 17.999999999999957 -3.156068725454188e-16 10.000000000000071
    vertex 18.272593389687422 50.00000000000003 7.92944763917988
    vertex 17.999999999999957 50.00000000000003 10.000000000000071
  endloop
endfacet
facet normal 0.9238795325112855 -7.681487607185468e-17 0.38268343236509267
  outer loop
    vertex 19.071796769724454 50.00000000000003 6.000000000000072
    vertex 18.27259338968741 -4.81421669881009e-16 7.929447639179887
    vertex 19.071796769724454 -6.557245234232514e-16 6.000000000000072
  endloop
endfacet
facet normal 0.9238795325112855 -7.681487607185468e-17 0.38268343236509267
  outer loop
    vertex 18.27259338968741 -4.81421669881009e-16 7.929447639179887
    vertex 19.071796769724454 50.00000000000003 6.000000000000072
    vertex 18.272593389687422 50.00000000000003 7.92944763917988
  endloop
endfacet
facet normal 0.7933533402912327 -3.488307629766643e-17 0.6087614290087238
  outer loop
    vertex 20.343145750507595 50.00000000000003 4.343145750507691
    vertex 19.071796769724454 -6.557245234232514e-16 6.000000000000072
    vertex 20.343145750507595 -8.266369817523274e-16 4.343145750507686
  endloop
endfacet
facet normal 0.7933533402912327 -3.488307629766643e-17 0.6087614290087238
  outer loop
    vertex 19.071796769724454 -6.557245234232514e-16 6.000000000000072
    vertex 20.343145750507595 50.00000000000003 4.343145750507691
    vertex 19.071796769724454 50.00000000000003 6.000000000000072
  endloop
endfacet
facet normal 0.6087614290087205 -3.0498774396697236e-16 0.7933533402912352
  outer loop
    vertex 21.99999999999996 -9.825116432793013e-16 3.0717967697245534
    vertex 20.343145750507595 50.00000000000003 4.343145750507691
    vertex 20.343145750507595 -8.266369817523274e-16 4.343145750507686
  endloop
endfacet
facet normal 0.6087614290087205 -3.0498774396697236e-16 0.7933533402912352
  outer loop
    vertex 20.343145750507595 50.00000000000003 4.343145750507691
    vertex 21.99999999999996 -9.825116432793013e-16 3.0717967697245534
    vertex 21.999999999999986 50.00000000000003 3.071796769724569
  endloop
endfacet
facet normal 0.3826834323650905 -2.943803532470152e-16 0.9238795325112865
  outer loop
    vertex 23.92944763917981 -1.112725907416168e-15 2.272593389687518
    vertex 21.999999999999986 50.00000000000003 3.071796769724569
    vertex 21.99999999999996 -9.825116432793013e-16 3.0717967697245534
  endloop
endfacet
facet normal 0.3826834323650905 -2.943803532470152e-16 0.9238795325112865
  outer loop
    vertex 21.999999999999986 50.00000000000003 3.071796769724569
    vertex 23.92944763917981 -1.112725907416168e-15 2.272593389687518
    vertex 23.92944763917981 50.00000000000003 2.272593389687525
  endloop
endfacet
facet normal 0.1305261922200493 -2.7326170509677264e-16 0.9914448613738107
  outer loop
    vertex 25.999999999999968 -1.208405887251245e-15 2.0000000000000635
    vertex 23.92944763917981 50.00000000000003 2.272593389687525
    vertex 23.92944763917981 -1.112725907416168e-15 2.272593389687518
  endloop
endfacet
facet normal 0.1305261922200493 -2.7326170509677264e-16 0.9914448613738107
  outer loop
    vertex 23.92944763917981 50.00000000000003 2.272593389687525
    vertex 25.999999999999968 -1.208405887251245e-15 2.0000000000000635
    vertex 25.999999999999982 50.00000000000003 2.000000000000082
  endloop
endfacet
facet normal 1.0 -2.964800122578542e-17 6.657132757506148e-17
  outer loop
    vertex 0.999999999999983 3.524958103184872e-16 4.999999999999975
    vertex 0.999999999999984 50.00000000000001 8.999999999999975
    vertex 0.9999999999999823 -3.524958103184872e-16 8.999999999999977
  endloop
endfacet
facet normal 1.0 -2.964800122578542e-17 6.657132757506148e-17
  outer loop
    vertex 0.999999999999984 50.00000000000001 8.999999999999975
    vertex 0.999999999999983 3.524958103184872e-16 4.999999999999975
    vertex 0.9999999999999827 4.000000000000001 4.999999999999975
  endloop
endfacet
facet normal 1.0 -2.964800122578542e-17 6.657132757506148e-17
  outer loop
    vertex 0.999999999999984 50.00000000000001 8.999999999999975
    vertex 0.9999999999999827 4.000000000000001 4.999999999999975
    vertex 0.999999999999984 50.00000000000001 4.999999999999976
  endloop
endfacet
facet normal -1.0 5.287437154777307e-17 -3.3291270974523887e-16
  outer loop
    vertex -2.0000000000000155 50.00000000000001 8.999999999999975
    vertex -2.000000000000015 8.629388292275316e-16 -3.524958103184872e-15
    vertex -2.000000000000018 -3.524958103184872e-16 8.999999999999977
  endloop
endfacet
facet normal -1.0 5.287437154777307e-17 -3.3291270974523887e-16
  outer loop
    vertex -2.000000000000015 8.629388292275316e-16 -3.524958103184872e-15
    vertex -2.0000000000000155 50.00000000000001 8.999999999999975
    vertex -2.000000000000012 50.00000000000001 -5.287437154777308e-15
  endloop
endfacet
facet normal -5.301473975129011e-33 2.8199664825478977e-17 1.0
  outer loop
    vertex 0.9999999999999823 -3.524958103184872e-16 8.999999999999977
    vertex -2.0000000000000155 50.00000000000001 8.999999999999975
    vertex -2.000000000000018 -3.524958103184872e-16 8.999999999999977
  endloop
endfacet
facet normal -5.301473975129011e-33 2.8199664825478977e-17 1.0
  outer loop
    vertex -2.0000000000000155 50.00000000000001 8.999999999999975
    vertex 0.9999999999999823 -3.524958103184872e-16 8.999999999999977
    vertex 0.999999999999984 50.00000000000001 8.999999999999975
  endloop
endfacet
facet normal -1.8045329540403582e-16 -1.438243463718952e-17 1.0
  outer loop
    vertex 0.999999999999983 3.524958103184872e-16 4.999999999999975
    vertex 0.999999999999984 50.00000000000001 4.999999999999976
    vertex 0.9999999999999827 4.000000000000001 4.999999999999975
  endloop
endfacet
facet normal -1.8045329540403582e-16 -1.438243463718952e-17 1.0
  outer loop
    vertex 0.999999999999984 50.00000000000001 4.999999999999976
    vertex 0.999999999999983 3.524958103184872e-16 4.999999999999975
    vertex 4.999999999999982 3.524958103184872e-16 4.999999999999976
  endloop
endfacet
facet normal -1.8045329540403582e-16 -1.438243463718952e-17 1.0
  outer loop
    vertex 0.999999999999984 50.00000000000001 4.999999999999976
    vertex 4.999999999999982 3.524958103184872e-16 4.999999999999976
    vertex 4.999999999999984 50.00000000000001 4.999999999999977
  endloop
endfacet
facet normal -1.0 -4.229949723821852e-17 -9.399888275159627e-16
  outer loop
    vertex 4.999999999999972 4.5824455341403335e-15 20.000000000000032
    vertex 4.999999999999984 50.00000000000001 4.999999999999977
    vertex 4.999999999999982 3.524958103184872e-16 4.999999999999976
  endloop
endfacet
facet normal -1.0 -4.229949723821852e-17 -9.399888275159627e-16
  outer loop
    vertex 4.999999999999984 50.00000000000001 4.999999999999977
    vertex 4.999999999999972 4.5824455341403335e-15 20.000000000000032
    vertex 4.999999999999966 50.00000000000001 20.000000000000025
  endloop
endfacet
facet normal 1.0 -2.779731026740494e-30 1.7630009053857328e-14
  outer loop
    vertex 15.999999999999963 10.0511112605664 14.611771432346284
    vertex 15.999999999999917 10.0511112605664 15.388228567653853
    vertex 15.999999999999929 10.000000000000002 15.00000000000007
  endloop
endfacet
facet normal 1.0 -2.779731026740494e-30 1.7630009053857328e-14
  outer loop
    vertex 15.999999999999917 10.0511112605664 15.388228567653853
    vertex 15.999999999999963 10.0511112605664 14.611771432346284
    vertex 15.999999999999963 10.200961894323342 14.250000000000048
  endloop
endfacet
facet normal 1.0 -2.779731026740494e-30 1.7630009053857328e-14
  outer loop
    vertex 15.999999999999917 10.0511112605664 15.388228567653853
    vertex 15.999999999999963 10.200961894323342 14.250000000000048
    vertex 15.999999999999929 10.200961894323344 15.750000000000062
  endloop
endfacet
facet normal 1.0 -2.779731026740494e-30 1.7630009053857328e-14
  outer loop
    vertex 15.999999999999929 10.200961894323344 15.750000000000062
    vertex 15.999999999999963 10.200961894323342 14.250000000000048
    vertex 15.999999999999963 10.43933982822018 13.93933982822024
  endloop
endfacet
facet normal 1.0 -2.779731026740494e-30 1.7630009053857328e-14
  outer loop
    vertex 15.999999999999929 10.200961894323344 15.750000000000062
    vertex 15.999999999999963 10.43933982822018 13.93933982822024
    vertex 15.999999999999906 10.43933982822018 16.060660171779887
  endloop
endfacet
facet normal 1.0 -2.779731026740494e-30 1.7630009053857328e-14
  outer loop
    vertex 15.999999999999906 10.43933982822018 16.060660171779887
    vertex 15.999999999999963 10.43933982822018 13.93933982822024
    vertex 15.99999999999994 10.750000000000002 13.70096189432338
  endloop
endfacet
facet normal 1.0 -2.779731026740494e-30 1.7630009053857328e-14
  outer loop
    vertex 15.999999999999906 10.43933982822018 16.060660171779887
    vertex 15.99999999999994 10.750000000000002 13.70096189432338
    vertex 15.999999999999906 10.750000000000002 16.2990381056767
  endloop
endfacet
facet normal 1.0 -2.779731026740494e-30 1.7630009053857328e-14
  outer loop
    vertex 15.999999999999906 10.750000000000002 16.2990381056767
    vertex 15.99999999999994 10.750000000000002 13.70096189432338
    vertex 15.99999999999995 11.111771432346218 13.551111260566444
  endloop
endfacet
facet normal 1.0 -2.779731026740494e-30 1.7630009053857328e-14
  outer loop
    vertex 15.999999999999906 10.750000000000002 16.2990381056767
    vertex 15.99999999999995 11.111771432346218 13.551111260566444
    vertex 15.999999999999917 11.11177143234622 16.44888873943367
  endloop
endfacet
facet normal 1.0 -2.779731026740494e-30 1.7630009053857328e-14
  outer loop
    vertex 15.999999999999917 11.11177143234622 16.44888873943367
    vertex 15.99999999999995 11.111771432346218 13.551111260566444
    vertex 15.999999999999973 11.500000000000002 13.500000000000055
  endloop
endfacet
facet normal 1.0 -2.779731026740494e-30 1.7630009053857328e-14
  outer loop
    vertex 15.999999999999917 11.11177143234622 16.44888873943367
    vertex 15.999999999999973 11.500000000000002 13.500000000000055
    vertex 15.999999999999917 11.500000000000002 16.50000000000006
  endloop
endfacet
facet normal 1.0 -2.779731026740494e-30 1.7630009053857328e-14
  outer loop
    vertex 15.999999999999917 11.500000000000002 16.50000000000006
    vertex 15.999999999999973 11.500000000000002 13.500000000000055
    vertex 15.99999999999995 11.888228567653782 13.551111260566444
  endloop
endfacet
facet normal 1.0 -2.779731026740494e-30 1.7630009053857328e-14
  outer loop
    vertex 15.999999999999917 11.500000000000002 16.50000000000006
    vertex 15.99999999999995 11.888228567653782 13.551111260566444
    vertex 15.999999999999917 11.888228567653783 16.44888873943367
  endloop
endfacet
facet normal 1.0 -2.779731026740494e-30 1.7630009053857328e-14
  outer loop
    vertex 15.999999999999917 11.888228567653783 16.44888873943367
    vertex 15.99999999999995 11.888228567653782 13.551111260566444
    vertex 15.99999999999994 12.25 13.70096189432338
  endloop
endfacet
facet normal 1.0 -2.779731026740494e-30 1.7630009053857328e-14
  outer loop
    vertex 15.999999999999917 11.888228567653783 16.44888873943367
    vertex 15.99999999999994 12.25 13.70096189432338
    vertex 15.999999999999906 12.250000000000002 16.2990381056767
  endloop
endfacet
facet normal 1.0 -2.779731026740494e-30 1.7630009053857328e-14
  outer loop
    vertex 15.999999999999906 12.250000000000002 16.2990381056767
    vertex 15.99999999999994 12.25 13.70096189432338
    vertex 15.999999999999963 12.560660171779823 13.93933982822024
  endloop
endfacet
facet normal 1.0 -2.779731026740494e-30 1.7630009053857328e-14
  outer loop
    vertex 15.999999999999906 12.250000000000002 16.2990381056767
    vertex 15.999999999999963 12.560660171779823 13.93933982822024
    vertex 15.999999999999906 12.560660171779823 16.060660171779887
  endloop
endfacet
facet normal 1.0 -2.779731026740494e-30 1.7630009053857328e-14
  outer loop
    vertex 15.999999999999906 12.560660171779823 16.060660171779887
    vertex 15.999999999999963 12.560660171779823 13.93933982822024
    vertex 15.999999999999963 12.79903810567666 14.250000000000048
  endloop
endfacet
facet normal 1.0 -2.779731026740494e-30 1.7630009053857328e-14
  outer loop
    vertex 15.999999999999906 12.560660171779823 16.060660171779887
    vertex 15.999999999999963 12.79903810567666 14.250000000000048
    vertex 15.999999999999929 12.79903810567666 15.750000000000062
  endloop
endfacet
facet normal 1.0 -2.779731026740494e-30 1.7630009053857328e-14
  outer loop
    vertex 15.999999999999929 12.79903810567666 15.750000000000062
    vertex 15.999999999999963 12.79903810567666 14.250000000000048
    vertex 15.999999999999963 12.948888739433604 14.611771432346284
  endloop
endfacet
facet normal 1.0 -2.779731026740494e-30 1.7630009053857328e-14
  outer loop
    vertex 15.999999999999929 12.79903810567666 15.750000000000062
    vertex 15.999999999999963 12.948888739433604 14.611771432346284
    vertex 15.999999999999917 12.948888739433604 15.388228567653853
  endloop
endfacet
facet normal 1.0 -2.779731026740494e-30 1.7630009053857328e-14
  outer loop
    vertex 15.999999999999917 12.948888739433604 15.388228567653853
    vertex 15.999999999999963 12.948888739433604 14.611771432346284
    vertex 15.999999999999929 13.000000000000002 15.00000000000007
  endloop
endfacet
facet normal 1.0 -0.0 -0.0
  outer loop
    vertex 54.999999999999964 40.00000000000001 4.803241000000026
    vertex 54.999999999999964 10.000000000000004 15.000000000000023
    vertex 54.999999999999964 9.999999999999996 4.803241000000023
  endloop
endfacet
facet normal 1.0 -0.0 -0.0
  outer loop
    vertex 54.999999999999964 10.000000000000004 15.000000000000023
    vertex 54.999999999999964 40.00000000000001 4.803241000000026
    vertex 54.999999999999964 40.00000000000001 15.000000000000027
  endloop
endfacet
facet normal 0.8861674452375827 0.0 0.46336514651093064
  outer loop
    vertex 41.72758051313597 30.0 7.699723777023145
    vertex 41.243730207683505 20.00000000000003 8.625068275393005
    vertex 41.72758051313597 20.00000000000003 7.699723777023145
  endloop
endfacet
facet normal 0.8861674452375827 0.0 0.46336514651093064
  outer loop
    vertex 41.243730207683505 20.00000000000003 8.625068275393005
    vertex 41.72758051313597 30.0 7.699723777023145
    vertex 41.243730207683505 30.0 8.625068275393005
  endloop
endfacet
facet normal 0.9758997465253326 0.0 0.21821935003979714
  outer loop
    vertex 41.243730207683505 30.0 8.625068275393005
    vertex 41.01586348104807 20.00000000000003 9.644112098612727
    vertex 41.243730207683505 20.00000000000003 8.625068275393005
  endloop
endfacet
facet normal 0.9758997465253326 0.0 0.21821935003979714
  outer loop
    vertex 41.01586348104807 20.00000000000003 9.644112098612727
    vertex 41.243730207683505 30.0 8.625068275393005
    vertex 41.01586348104807 30.0 9.644112098612727
  endloop
endfacet
facet normal 0.9991260928379673 -0.0 -0.0417977345120235
  outer loop
    vertex 41.01586348104807 30.0 9.644112098612727
    vertex 41.05950907408231 20.00000000000003 10.687409094179428
    vertex 41.01586348104807 20.00000000000003 9.644112098612727
  endloop
endfacet
facet normal 0.9991260928379673 -0.0 -0.0417977345120235
  outer loop
    vertex 41.05950907408231 20.00000000000003 10.687409094179428
    vertex 41.01586348104807 30.0 9.644112098612727
    vertex 41.05950907408231 30.0 10.687409094179428
  endloop
endfacet
facet normal 0.9542636470576316 -0.0 -0.29896637253087205
  outer loop
    vertex 41.05950907408231 30.0 10.687409094179428
    vertex 41.37169261174868 20.00000000000003 11.683860295975041
    vertex 41.05950907408231 20.00000000000003 10.687409094179428
  endloop
endfacet
facet normal 0.9542636470576316 -0.0 -0.29896637253087205
  outer loop
    vertex 41.37169261174868 20.00000000000003 11.683860295975041
    vertex 41.05950907408231 30.0 10.687409094179428
    vertex 41.37169261174868 30.0 11.683860295975041
  endloop
endfacet
facet normal 0.8443697107255569 -0.0 -0.5357609463270344
  outer loop
    vertex 41.37169261174868 30.0 11.683860295975041
    vertex 41.93113930186291 20.00000000000003 12.565559201310672
    vertex 41.37169261174868 20.00000000000003 11.683860295975041
  endloop
endfacet
facet normal 0.8443697107255569 -0.0 -0.5357609463270344
  outer loop
    vertex 41.93113930186291 20.00000000000003 12.565559201310672
    vertex 41.37169261174868 30.0 11.683860295975041
    vertex 41.93113930186291 30.0 12.565559201310672
  endloop
endfacet
facet normal 0.6769333739944605 -0.0 -0.736044297017833
  outer loop
    vertex 42.69972377702309 30.0 13.27241948686402
    vertex 41.93113930186291 20.00000000000003 12.565559201310672
    vertex 41.93113930186291 30.0 12.565559201310672
  endloop
endfacet
facet normal 0.6769333739944605 -0.0 -0.736044297017833
  outer loop
    vertex 41.93113930186291 20.00000000000003 12.565559201310672
    vertex 42.69972377702309 30.0 13.27241948686402
    vertex 42.69972377702309 20.00000000000003 13.27241948686402
  endloop
endfacet
facet normal 0.4633651465109316 -0.0 -0.8861674452375821
  outer loop
    vertex 43.62506827539295 30.0 13.756269792316488
    vertex 42.69972377702309 20.00000000000003 13.27241948686402
    vertex 42.69972377702309 30.0 13.27241948686402
  endloop
endfacet
facet normal 0.4633651465109316 -0.0 -0.8861674452375821
  outer loop
    vertex 42.69972377702309 20.00000000000003 13.27241948686402
    vertex 43.62506827539295 30.0 13.756269792316488
    vertex 43.62506827539295 20.00000000000003 13.756269792316488
  endloop
endfacet
facet normal 0.21821935003979714 -0.0 -0.9758997465253326
  outer loop
    vertex 44.64411209861267 30.0 13.984136518951921
    vertex 43.62506827539295 20.00000000000003 13.756269792316488
    vertex 43.62506827539295 30.0 13.756269792316488
  endloop
endfacet
facet normal 0.21821935003979714 -0.0 -0.9758997465253326
  outer loop
    vertex 43.62506827539295 20.00000000000003 13.756269792316488
    vertex 44.64411209861267 30.0 13.984136518951921
    vertex 44.64411209861267 20.00000000000003 13.984136518951921
  endloop
endfacet
facet normal -0.041797734512023565 -0.0 -0.9991260928379674
  outer loop
    vertex 45.68740909417937 30.0 13.940490925917688
    vertex 44.64411209861267 20.00000000000003 13.984136518951921
    vertex 44.64411209861267 30.0 13.984136518951921
  endloop
endfacet
facet normal -0.041797734512023565 -0.0 -0.9991260928379674
  outer loop
    vertex 44.64411209861267 20.00000000000003 13.984136518951921
    vertex 45.68740909417937 30.0 13.940490925917688
    vertex 45.68740909417937 20.00000000000003 13.940490925917688
  endloop
endfacet
facet normal -0.2989663725308728 -0.0 -0.9542636470576312
  outer loop
    vertex 46.68386029597498 30.0 13.62830738825132
    vertex 45.68740909417937 20.00000000000003 13.940490925917688
    vertex 45.68740909417937 30.0 13.940490925917688
  endloop
endfacet
facet normal -0.2989663725308728 -0.0 -0.9542636470576312
  outer loop
    vertex 45.68740909417937 20.00000000000003 13.940490925917688
    vertex 46.68386029597498 30.0 13.62830738825132
    vertex 46.68386029597498 20.00000000000003 13.62830738825132
  endloop
endfacet
facet normal -0.5357609463270344 -0.0 -0.8443697107255569
  outer loop
    vertex 47.56555920131061 30.0 13.068860698137085
    vertex 46.68386029597498 20.00000000000003 13.62830738825132
    vertex 46.68386029597498 30.0 13.62830738825132
  endloop
endfacet
facet normal -0.5357609463270344 -0.0 -0.8443697107255569
  outer loop
    vertex 46.68386029597498 20.00000000000003 13.62830738825132
    vertex 47.56555920131061 30.0 13.068860698137085
    vertex 47.56555920131061 20.00000000000003 13.068860698137085
  endloop
endfacet
facet normal -0.7360442970178329 -0.0 -0.6769333739944606
  outer loop
    vertex 47.56555920131061 30.0 13.068860698137085
    vertex 48.27241948686397 20.00000000000003 12.300276222976905
    vertex 47.56555920131061 20.00000000000003 13.068860698137085
  endloop
endfacet
facet normal -0.7360442970178329 -0.0 -0.6769333739944606
  outer loop
    vertex 48.27241948686397 20.00000000000003 12.300276222976905
    vertex 47.56555920131061 30.0 13.068860698137085
    vertex 48.27241948686397 30.0 12.300276222976905
  endloop
endfacet
facet normal -0.8861674452375828 -0.0 -0.46336514651092997
  outer loop
    vertex 48.27241948686397 30.0 12.300276222976905
    vertex 48.75626979231643 20.00000000000003 11.374931724607043
    vertex 48.27241948686397 20.00000000000003 12.300276222976905
  endloop
endfacet
facet normal -0.8861674452375828 -0.0 -0.46336514651092997
  outer loop
    vertex 48.75626979231643 20.00000000000003 11.374931724607043
    vertex 48.27241948686397 30.0 12.300276222976905
    vertex 48.75626979231643 30.0 11.374931724607043
  endloop
endfacet
facet normal -0.9758997465253326 -0.0 -0.21821935003979742
  outer loop
    vertex 48.75626979231643 30.0 11.374931724607043
    vertex 48.984136518951864 20.00000000000003 10.355887901387323
    vertex 48.75626979231643 20.00000000000003 11.374931724607043
  endloop
endfacet
facet normal -0.9758997465253326 -0.0 -0.21821935003979742
  outer loop
    vertex 48.984136518951864 20.00000000000003 10.355887901387323
    vertex 48.75626979231643 30.0 11.374931724607043
    vertex 48.984136518951864 30.0 10.355887901387323
  endloop
endfacet
facet normal -0.9991260928379673 -0.0 0.0417977345120235
  outer loop
    vertex 48.984136518951864 30.0 10.355887901387323
    vertex 48.94049092591763 20.00000000000003 9.312590905820622
    vertex 48.984136518951864 20.00000000000003 10.355887901387323
  endloop
endfacet
facet normal -0.9991260928379673 -0.0 0.0417977345120235
  outer loop
    vertex 48.94049092591763 20.00000000000003 9.312590905820622
    vertex 48.984136518951864 30.0 10.355887901387323
    vertex 48.94049092591763 30.0 9.312590905820622
  endloop
endfacet
facet normal -0.9542636470576314 -0.0 0.29896637253087244
  outer loop
    vertex 48.94049092591763 30.0 9.312590905820622
    vertex 48.62830738825126 20.00000000000003 8.31613970402501
    vertex 48.94049092591763 20.00000000000003 9.312590905820622
  endloop
endfacet
facet normal -0.9542636470576314 -0.0 0.29896637253087244
  outer loop
    vertex 48.62830738825126 20.00000000000003 8.31613970402501
    vertex 48.94049092591763 30.0 9.312590905820622
    vertex 48.62830738825126 30.0 8.31613970402501
  endloop
endfacet
facet normal -0.8443697107255564 -0.0 0.535760946327035
  outer loop
    vertex 48.62830738825126 30.0 8.31613970402501
    vertex 48.06886069813702 20.00000000000003 7.434440798689382
    vertex 48.62830738825126 20.00000000000003 8.31613970402501
  endloop
endfacet
facet normal -0.8443697107255564 -0.0 0.535760946327035
  outer loop
    vertex 48.06886069813702 20.00000000000003 7.434440798689382
    vertex 48.62830738825126 30.0 8.31613970402501
    vertex 48.06886069813702 30.0 7.434440798689382
  endloop
endfacet
facet normal -0.6769333739944613 -0.0 0.7360442970178324
  outer loop
    vertex 48.06886069813702 20.00000000000003 7.434440798689382
    vertex 47.30027622297685 30.0 6.72758051313603
    vertex 47.30027622297685 20.00000000000003 6.72758051313603
  endloop
endfacet
facet normal -0.6769333739944613 -0.0 0.7360442970178324
  outer loop
    vertex 47.30027622297685 30.0 6.72758051313603
    vertex 48.06886069813702 20.00000000000003 7.434440798689382
    vertex 48.06886069813702 30.0 7.434440798689382
  endloop
endfacet
facet normal -0.4633651465109316 -0.0 0.8861674452375821
  outer loop
    vertex 47.30027622297685 20.00000000000003 6.72758051313603
    vertex 46.37493172460699 30.0 6.243730207683564
    vertex 46.37493172460699 20.00000000000003 6.243730207683564
  endloop
endfacet
facet normal -0.4633651465109316 -0.0 0.8861674452375821
  outer loop
    vertex 46.37493172460699 30.0 6.243730207683564
    vertex 47.30027622297685 20.00000000000003 6.72758051313603
    vertex 47.30027622297685 30.0 6.72758051313603
  endloop
endfacet
facet normal -0.21821935003979714 -0.0 0.9758997465253326
  outer loop
    vertex 46.37493172460699 20.00000000000003 6.243730207683564
    vertex 45.35588790138726 30.0 6.01586348104813
    vertex 45.35588790138726 20.00000000000003 6.01586348104813
  endloop
endfacet
facet normal -0.21821935003979714 -0.0 0.9758997465253326
  outer loop
    vertex 45.35588790138726 30.0 6.01586348104813
    vertex 46.37493172460699 20.00000000000003 6.243730207683564
    vertex 46.37493172460699 30.0 6.243730207683564
  endloop
endfacet
facet normal 0.041797734512023565 0.0 0.9991260928379674
  outer loop
    vertex 45.35588790138726 20.00000000000003 6.01586348104813
    vertex 44.312590905820564 30.0 6.059509074082362
    vertex 44.312590905820564 20.00000000000003 6.059509074082362
  endloop
endfacet
facet normal 0.041797734512023565 0.0 0.9991260928379674
  outer loop
    vertex 44.312590905820564 30.0 6.059509074082362
    vertex 45.35588790138726 20.00000000000003 6.01586348104813
    vertex 45.35588790138726 30.0 6.01586348104813
  endloop
endfacet
facet normal 0.29896637253087405 0.0 0.9542636470576309
  outer loop
    vertex 44.312590905820564 20.00000000000003 6.059509074082362
    vertex 43.316139704024955 30.0 6.371692611748732
    vertex 43.316139704024955 20.00000000000003 6.371692611748732
  endloop
endfacet
facet normal 0.29896637253087405 0.0 0.9542636470576309
  outer loop
    vertex 43.316139704024955 30.0 6.371692611748732
    vertex 44.312590905820564 20.00000000000003 6.059509074082362
    vertex 44.312590905820564 30.0 6.059509074082362
  endloop
endfacet
facet normal 0.5357609463270325 0.0 0.8443697107255582
  outer loop
    vertex 43.316139704024955 20.00000000000003 6.371692611748732
    vertex 42.43444079868932 30.0 6.931139301862966
    vertex 42.43444079868932 20.00000000000003 6.931139301862966
  endloop
endfacet
facet normal 0.5357609463270325 0.0 0.8443697107255582
  outer loop
    vertex 42.43444079868932 30.0 6.931139301862966
    vertex 43.316139704024955 20.00000000000003 6.371692611748732
    vertex 43.316139704024955 30.0 6.371692611748732
  endloop
endfacet
facet normal 0.7360442970178329 0.0 0.6769333739944606
  outer loop
    vertex 42.43444079868932 30.0 6.931139301862966
    vertex 41.72758051313597 20.00000000000003 7.699723777023145
    vertex 42.43444079868932 20.00000000000003 6.931139301862966
  endloop
endfacet
facet normal 0.7360442970178329 0.0 0.6769333739944606
  outer loop
    vertex 41.72758051313597 20.00000000000003 7.699723777023145
    vertex 42.43444079868932 30.0 6.931139301862966
    vertex 41.72758051313597 30.0 7.699723777023145
  endloop
endfacet
facet normal 0.0 -1.0 0.0
  outer loop
    vertex 51.49999999999997 20.00000000000003 6.247223250267449
    vertex 45.35588790138726 20.00000000000003 6.01586348104813
    vertex 44.999999999999964 20.00000000000003 2.4944465005348837
  endloop
endfacet
facet normal 0.0 -1.0 0.0
  outer loop
    vertex 45.35588790138726 20.00000000000003 6.01586348104813
    vertex 51.49999999999997 20.00000000000003 6.247223250267449
    vertex 46.37493172460699 20.00000000000003 6.243730207683564
  endloop
endfacet
facet normal 0.0 -1.0 0.0
  outer loop
    vertex 46.37493172460699 20.00000000000003 6.243730207683564
    vertex 51.49999999999997 20.00000000000003 6.247223250267449
    vertex 47.30027622297685 20.00000000000003 6.72758051313603
  endloop
endfacet
facet normal 0.0 -1.0 0.0
  outer loop
    vertex 47.30027622297685 20.00000000000003 6.72758051313603
    vertex 51.49999999999997 20.00000000000003 6.247223250267449
    vertex 48.06886069813702 20.00000000000003 7.434440798689382
  endloop
endfacet
facet normal 0.0 -1.0 0.0
  outer loop
    vertex 48.06886069813702 20.00000000000003 7.434440798689382
    vertex 51.49999999999997 20.00000000000003 6.247223250267449
    vertex 48.62830738825126 20.00000000000003 8.31613970402501
  endloop
endfacet
facet normal 0.0 -1.0 0.0
  outer loop
    vertex 48.62830738825126 20.00000000000003 8.31613970402501
    vertex 51.49999999999997 20.00000000000003 6.247223250267449
    vertex 51.49999999999997 20.00000000000003 13.752776749732595
  endloop
endfacet
facet normal 0.0 -1.0 0.0
  outer loop
    vertex 48.62830738825126 20.00000000000003 8.31613970402501
    vertex 51.49999999999997 20.00000000000003 13.752776749732595
    vertex 48.94049092591763 20.00000000000003 9.312590905820622
  endloop
endfacet
facet normal 0.0 -1.0 0.0
  outer loop
    vertex 48.94049092591763 20.00000000000003 9.312590905820622
    vertex 51.49999999999997 20.00000000000003 13.752776749732595
    vertex 48.984136518951864 20.00000000000003 10.355887901387323
  endloop
endfacet
facet normal 0.0 -1.0 0.0
  outer loop
    vertex 48.984136518951864 20.00000000000003 10.355887901387323
    vertex 51.49999999999997 20.00000000000003 13.752776749732595
    vertex 48.75626979231643 20.00000000000003 11.374931724607043
  endloop
endfacet
facet normal 0.0 -1.0 0.0
  outer loop
    vertex 48.75626979231643 20.00000000000003 11.374931724607043
    vertex 51.49999999999997 20.00000000000003 13.752776749732595
    vertex 48.27241948686397 20.00000000000003 12.300276222976905
  endloop
endfacet
facet normal 0.0 -1.0 0.0
  outer loop
    vertex 48.27241948686397 20.00000000000003 12.300276222976905
    vertex 51.49999999999997 20.00000000000003 13.752776749732595
    vertex 47.56555920131061 20.00000000000003 13.068860698137085
  endloop
endfacet
facet normal 0.0 -1.0 0.0
  outer loop
    vertex 47.56555920131061 20.00000000000003 13.068860698137085
    vertex 51.49999999999997 20.00000000000003 13.752776749732595
    vertex 46.68386029597498 20.00000000000003 13.62830738825132
  endloop
endfacet
facet normal 0.0 -1.0 0.0
  outer loop
    vertex 46.68386029597498 20.00000000000003 13.62830738825132
    vertex 51.49999999999997 20.00000000000003 13.752776749732595
    vertex 45.68740909417937 20.00000000000003 13.940490925917688
  endloop
endfacet
facet normal 0.0 -1.0 0.0
  outer loop
    vertex 45.68740909417937 20.00000000000003 13.940490925917688
    vertex 51.49999999999997 20.00000000000003 13.752776749732595
    vertex 44.99999999999997 20.00000000000003 17.50555349946517
  endloop
endfacet
facet normal 0.0 -1.0 0.0
  outer loop
    vertex 45.68740909417937 20.00000000000003 13.940490925917688
    vertex 44.99999999999997 20.00000000000003 17.50555349946517
    vertex 44.64411209861267 20.00000000000003 13.984136518951921
  endloop
endfacet
facet normal 0.0 -1.0 0.0
  outer loop
    vertex 45.35588790138726 20.00000000000003 6.01586348104813
    vertex 38.499999999999964 20.00000000000003 6.247223250267456
    vertex 44.999999999999964 20.00000000000003 2.4944465005348837
  endloop
endfacet
facet normal 0.0 -1.0 0.0
  outer loop
    vertex 38.499999999999964 20.00000000000003 6.247223250267456
    vertex 45.35588790138726 20.00000000000003 6.01586348104813
    vertex 44.312590905820564 20.00000000000003 6.059509074082362
  endloop
endfacet
facet normal 0.0 -1.0 0.0
  outer loop
    vertex 38.499999999999964 20.00000000000003 6.247223250267456
    vertex 44.312590905820564 20.00000000000003 6.059509074082362
    vertex 43.316139704024955 20.00000000000003 6.371692611748732
  endloop
endfacet
facet normal 0.0 -1.0 0.0
  outer loop
    vertex 38.499999999999964 20.00000000000003 6.247223250267456
    vertex 43.316139704024955 20.00000000000003 6.371692611748732
    vertex 42.43444079868932 20.00000000000003 6.931139301862966
  endloop
endfacet
facet normal 0.0 -1.0 0.0
  outer loop
    vertex 38.499999999999964 20.00000000000003 6.247223250267456
    vertex 42.43444079868932 20.00000000000003 6.931139301862966
    vertex 41.72758051313597 20.00000000000003 7.699723777023145
  endloop
endfacet
facet normal 0.0 -1.0 0.0
  outer loop
    vertex 38.499999999999964 20.00000000000003 6.247223250267456
    vertex 41.72758051313597 20.00000000000003 7.699723777023145
    vertex 38.499999999999964 20.00000000000003 13.752776749732599
  endloop
endfacet
facet normal 0.0 -1.0 0.0
  outer loop
    vertex 38.499999999999964 20.00000000000003 13.752776749732599
    vertex 41.72758051313597 20.00000000000003 7.699723777023145
    vertex 41.243730207683505 20.00000000000003 8.625068275393005
  endloop
endfacet
facet normal 0.0 -1.0 0.0
  outer loop
    vertex 38.499999999999964 20.00000000000003 13.752776749732599
    vertex 41.243730207683505 20.00000000000003 8.625068275393005
    vertex 41.01586348104807 20.00000000000003 9.644112098612727
  endloop
endfacet
facet normal 0.0 -1.0 0.0
  outer loop
    vertex 38.499999999999964 20.00000000000003 13.752776749732599
    vertex 41.01586348104807 20.00000000000003 9.644112098612727
    vertex 41.05950907408231 20.00000000000003 10.687409094179428
  endloop
endfacet
facet normal 0.0 -1.0 0.0
  outer loop
    vertex 38.499999999999964 20.00000000000003 13.752776749732599
    vertex 41.05950907408231 20.00000000000003 10.687409094179428
    vertex 41.37169261174868 20.00000000000003 11.683860295975041
  endloop
endfacet
facet normal 0.0 -1.0 0.0
  outer loop
    vertex 38.499999999999964 20.00000000000003 13.752776749732599
    vertex 41.37169261174868 20.00000000000003 11.683860295975041
    vertex 41.93113930186291 20.00000000000003 12.565559201310672
  endloop
endfacet
facet normal 0.0 -1.0 0.0
  outer loop
    vertex 38.499999999999964 20.00000000000003 13.752776749732599
    vertex 41.93113930186291 20.00000000000003 12.565559201310672
    vertex 42.69972377702309 20.00000000000003 13.27241948686402
  endloop
endfacet
facet normal 0.0 -1.0 0.0
  outer loop
    vertex 38.499999999999964 20.00000000000003 13.752776749732599
    vertex 42.69972377702309 20.00000000000003 13.27241948686402
    vertex 43.62506827539295 20.00000000000003 13.756269792316488
  endloop
endfacet
facet normal 0.0 -1.0 0.0
  outer loop
    vertex 38.499999999999964 20.00000000000003 13.752776749732599
    vertex 43.62506827539295 20.00000000000003 13.756269792316488
    vertex 44.99999999999997 20.00000000000003 17.50555349946517
  endloop
endfacet
facet normal 0.0 -1.0 0.0
  outer loop
    vertex 44.99999999999997 20.00000000000003 17.50555349946517
    vertex 43.62506827539295 20.00000000000003 13.756269792316488
    vertex 44.64411209861267 20.00000000000003 13.984136518951921
  endloop
endfacet
facet normal 0.49999999999999983 -0.0 -0.8660254037844387
  outer loop
    vertex 44.99999999999997 20.00000000000003 17.50555349946517
    vertex 38.499999999999964 10.000000000000028 13.752776749732595
    vertex 38.499999999999964 20.00000000000003 13.752776749732599
  endloop
endfacet
facet normal 0.49999999999999983 -0.0 -0.8660254037844387
  outer loop
    vertex 38.499999999999964 10.000000000000028 13.752776749732595
    vertex 44.99999999999997 20.00000000000003 17.50555349946517
    vertex 44.99999999999997 10.000000000000028 17.505553499465165
  endloop
endfacet
facet normal 1.0 0.0 0.0
  outer loop
    vertex 38.499999999999964 20.00000000000003 6.247223250267456
    vertex 38.499999999999964 10.000000000000028 13.752776749732595
    vertex 38.499999999999964 10.000000000000028 6.247223250267454
  endloop
endfacet
facet normal 1.0 0.0 0.0
  outer loop
    vertex 38.499999999999964 10.000000000000028 13.752776749732595
    vertex 38.499999999999964 20.00000000000003 6.247223250267456
    vertex 38.499999999999964 20.00000000000003 13.752776749732599
  endloop
endfacet
facet normal 0.5000000000000006 0.0 0.8660254037844384
  outer loop
    vertex 44.999999999999964 10.000000000000028 2.494446500534881
    vertex 38.499999999999964 20.00000000000003 6.247223250267456
    vertex 38.499999999999964 10.000000000000028 6.247223250267454
  endloop
endfacet
facet normal 0.5000000000000006 0.0 0.8660254037844384
  outer loop
    vertex 38.499999999999964 20.00000000000003 6.247223250267456
    vertex 44.999999999999964 10.000000000000028 2.494446500534881
    vertex 44.999999999999964 20.00000000000003 2.4944465005348837
  endloop
endfacet
facet normal -0.4999999999999993 -0.0 0.8660254037844392
  outer loop
    vertex 51.49999999999997 10.000000000000028 6.247223250267448
    vertex 44.999999999999964 20.00000000000003 2.4944465005348837
    vertex 44.999999999999964 10.000000000000028 2.494446500534881
  endloop
endfacet
facet normal -0.4999999999999993 -0.0 0.8660254037844392
  outer loop
    vertex 44.999999999999964 20.00000000000003 2.4944465005348837
    vertex 51.49999999999997 10.000000000000028 6.247223250267448
    vertex 51.49999999999997 20.00000000000003 6.247223250267449
  endloop
endfacet
facet normal -1.0 -0.0 0.0
  outer loop
    vertex 51.49999999999997 20.00000000000003 13.752776749732595
    vertex 51.49999999999997 10.000000000000028 6.247223250267448
    vertex 51.49999999999997 10.000000000000028 13.752776749732593
  endloop
endfacet
facet normal -1.0 -0.0 0.0
  outer loop
    vertex 51.49999999999997 10.000000000000028 6.247223250267448
    vertex 51.49999999999997 20.00000000000003 13.752776749732595
    vertex 51.49999999999997 20.00000000000003 6.247223250267449
  endloop
endfacet
facet normal -0.5000000000000001 -0.0 -0.8660254037844385
  outer loop
    vertex 51.49999999999997 20.00000000000003 13.752776749732595
    vertex 44.99999999999997 10.000000000000028 17.505553499465165
    vertex 44.99999999999997 20.00000000000003 17.50555349946517
  endloop
endfacet
facet normal -0.5000000000000001 -0.0 -0.8660254037844385
  outer loop
    vertex 44.99999999999997 10.000000000000028 17.505553499465165
    vertex 51.49999999999997 20.00000000000003 13.752776749732595
    vertex 51.49999999999997 10.000000000000028 13.752776749732593
  endloop
endfacet
facet normal 0.0 1.0 0.0
  outer loop
    vertex 38.499999999999964 30.0 6.247223250267454
    vertex 45.35588790138726 30.0 6.01586348104813
    vertex 44.99999999999997 30.0 2.4944465005348837
  endloop
endfacet
facet normal 0.0 1.0 0.0
  outer loop
    vertex 45.35588790138726 30.0 6.01586348104813
    vertex 38.499999999999964 30.0 6.247223250267454
    vertex 44.312590905820564 30.0 6.059509074082362
  endloop
endfacet
facet normal 0.0 1.0 0.0
  outer loop
    vertex 44.312590905820564 30.0 6.059509074082362
    vertex 38.499999999999964 30.0 6.247223250267454
    vertex 43.316139704024955 30.0 6.371692611748732
  endloop
endfacet
facet normal 0.0 1.0 0.0
  outer loop
    vertex 43.316139704024955 30.0 6.371692611748732
    vertex 38.499999999999964 30.0 6.247223250267454
    vertex 42.43444079868932 30.0 6.931139301862966
  endloop
endfacet
facet normal 0.0 1.0 0.0
  outer loop
    vertex 42.43444079868932 30.0 6.931139301862966
    vertex 38.499999999999964 30.0 6.247223250267454
    vertex 41.72758051313597 30.0 7.699723777023145
  endloop
endfacet
facet normal 0.0 1.0 0.0
  outer loop
    vertex 41.72758051313597 30.0 7.699723777023145
    vertex 38.499999999999964 30.0 6.247223250267454
    vertex 38.499999999999964 30.0 13.752776749732595
  endloop
endfacet
facet normal 0.0 1.0 0.0
  outer loop
    vertex 41.72758051313597 30.0 7.699723777023145
    vertex 38.499999999999964 30.0 13.752776749732595
    vertex 41.243730207683505 30.0 8.625068275393005
  endloop
endfacet
facet normal 0.0 1.0 0.0
  outer loop
    vertex 41.243730207683505 30.0 8.625068275393005
    vertex 38.499999999999964 30.0 13.752776749732595
    vertex 41.01586348104807 30.0 9.644112098612727
  endloop
endfacet
facet normal 0.0 1.0 0.0
  outer loop
    vertex 41.01586348104807 30.0 9.644112098612727
    vertex 38.499999999999964 30.0 13.752776749732595
    vertex 41.05950907408231 30.0 10.687409094179428
  endloop
endfacet
facet normal 0.0 1.0 0.0
  outer loop
    vertex 41.05950907408231 30.0 10.687409094179428
    vertex 38.499999999999964 30.0 13.752776749732595
    vertex 41.37169261174868 30.0 11.683860295975041
  endloop
endfacet
facet normal 0.0 1.0 0.0
  outer loop
    vertex 41.37169261174868 30.0 11.683860295975041
    vertex 38.499999999999964 30.0 13.752776749732595
    vertex 41.93113930186291 30.0 12.565559201310672
  endloop
endfacet
facet normal 0.0 1.0 0.0
  outer loop
    vertex 41.93113930186291 30.0 12.565559201310672
    vertex 38.499999999999964 30.0 13.752776749732595
    vertex 42.69972377702309 30.0 13.27241948686402
  endloop
endfacet
facet normal 0.0 1.0 0.0
  outer loop
    vertex 42.69972377702309 30.0 13.27241948686402
    vertex 38.499999999999964 30.0 13.752776749732595
    vertex 43.62506827539295 30.0 13.756269792316488
  endloop
endfacet
facet normal 0.0 1.0 0.0
  outer loop
    vertex 43.62506827539295 30.0 13.756269792316488
    vertex 38.499999999999964 30.0 13.752776749732595
    vertex 44.999999999999964 30.0 17.50555349946517
  endloop
endfacet
facet normal 0.0 1.0 0.0
  outer loop
    vertex 43.62506827539295 30.0 13.756269792316488
    vertex 44.999999999999964 30.0 17.50555349946517
    vertex 44.64411209861267 30.0 13.984136518951921
  endloop
endfacet
facet normal 0.0 1.0 0.0
  outer loop
    vertex 45.35588790138726 30.0 6.01586348104813
    vertex 51.49999999999997 30.0 6.247223250267456
    vertex 44.99999999999997 30.0 2.4944465005348837
  endloop
endfacet
facet normal 0.0 1.0 0.0
  outer loop
    vertex 51.49999999999997 30.0 6.247223250267456
    vertex 45.35588790138726 30.0 6.01586348104813
    vertex 46.37493172460699 30.0 6.243730207683564
  endloop
endfacet
facet normal 0.0 1.0 0.0
  outer loop
    vertex 51.49999999999997 30.0 6.247223250267456
    vertex 46.37493172460699 30.0 6.243730207683564
    vertex 47.30027622297685 30.0 6.72758051313603
  endloop
endfacet
facet normal 0.0 1.0 0.0
  outer loop
    vertex 51.49999999999997 30.0 6.247223250267456
    vertex 47.30027622297685 30.0 6.72758051313603
    vertex 48.06886069813702 30.0 7.434440798689382
  endloop
endfacet
facet normal 0.0 1.0 0.0
  outer loop
    vertex 51.49999999999997 30.0 6.247223250267456
    vertex 48.06886069813702 30.0 7.434440798689382
    vertex 48.62830738825126 30.0 8.31613970402501
  endloop
endfacet
facet normal 0.0 1.0 0.0
  outer loop
    vertex 51.49999999999997 30.0 6.247223250267456
    vertex 48.62830738825126 30.0 8.31613970402501
    vertex 51.49999999999997 30.0 13.752776749732602
  endloop
endfacet
facet normal 0.0 1.0 0.0
  outer loop
    vertex 51.49999999999997 30.0 13.752776749732602
    vertex 48.62830738825126 30.0 8.31613970402501
    vertex 48.94049092591763 30.0 9.312590905820622
  endloop
endfacet
facet normal 0.0 1.0 0.0
  outer loop
    vertex 51.49999999999997 30.0 13.752776749732602
    vertex 48.94049092591763 30.0 9.312590905820622
    vertex 48.984136518951864 30.0 10.355887901387323
  endloop
endfacet
facet normal 0.0 1.0 0.0
  outer loop
    vertex 51.49999999999997 30.0 13.752776749732602
    vertex 48.984136518951864 30.0 10.355887901387323
    vertex 48.75626979231643 30.0 11.374931724607043
  endloop
endfacet
facet normal 0.0 1.0 0.0
  outer loop
    vertex 51.49999999999997 30.0 13.752776749732602
    vertex 48.75626979231643 30.0 11.374931724607043
    vertex 48.27241948686397 30.0 12.300276222976905
  endloop
endfacet
facet normal 0.0 1.0 0.0
  outer loop
    vertex 51.49999999999997 30.0 13.752776749732602
    vertex 48.27241948686397 30.0 12.300276222976905
    vertex 47.56555920131061 30.0 13.068860698137085
  endloop
endfacet
facet normal 0.0 1.0 0.0
  outer loop
    vertex 51.49999999999997 30.0 13.752776749732602
    vertex 47.56555920131061 30.0 13.068860698137085
    vertex 46.68386029597498 30.0 13.62830738825132
  endloop
endfacet
facet normal 0.0 1.0 0.0
  outer loop
    vertex 51.49999999999997 30.0 13.752776749732602
    vertex 46.68386029597498 30.0 13.62830738825132
    vertex 45.68740909417937 30.0 13.940490925917688
  endloop
endfacet
facet normal 0.0 1.0 0.0
  outer loop
    vertex 51.49999999999997 30.0 13.752776749732602
    vertex 45.68740909417937 30.0 13.940490925917688
    vertex 44.999999999999964 30.0 17.50555349946517
  endloop
endfacet
facet normal 0.0 1.0 0.0
  outer loop
    vertex 44.999999999999964 30.0 17.50555349946517
    vertex 45.68740909417937 30.0 13.940490925917688
    vertex 44.64411209861267 30.0 13.984136518951921
  endloop
endfacet
facet normal -1.0 -0.0 -0.0
  outer loop
    vertex 51.49999999999997 40.00000000000001 13.752776749732602
    vertex 51.49999999999997 30.0 6.247223250267456
    vertex 51.49999999999997 30.0 13.752776749732602
  endloop
endfacet
facet normal -1.0 -0.0 -0.0
  outer loop
    vertex 51.49999999999997 30.0 6.247223250267456
    vertex 51.49999999999997 40.00000000000001 13.752776749732602
    vertex 51.49999999999997 40.00000000000001 6.247223250267456
  endloop
endfacet
facet normal -0.5000000000000001 -0.0 0.8660254037844385
  outer loop
    vertex 51.49999999999997 30.0 6.247223250267456
    vertex 44.99999999999997 40.00000000000001 2.4944465005348837
    vertex 44.99999999999997 30.0 2.4944465005348837
  endloop
endfacet
facet normal -0.5000000000000001 -0.0 0.8660254037844385
  outer loop
    vertex 44.99999999999997 40.00000000000001 2.4944465005348837
    vertex 51.49999999999997 30.0 6.247223250267456
    vertex 51.49999999999997 40.00000000000001 6.247223250267456
  endloop
endfacet
facet normal 0.5 0.0 0.8660254037844387
  outer loop
    vertex 44.99999999999997 30.0 2.4944465005348837
    vertex 38.499999999999964 40.00000000000001 6.247223250267454
    vertex 38.499999999999964 30.0 6.247223250267454
  endloop
endfacet
facet normal 0.5 0.0 0.8660254037844387
  outer loop
    vertex 38.499999999999964 40.00000000000001 6.247223250267454
    vertex 44.99999999999997 30.0 2.4944465005348837
    vertex 44.99999999999997 40.00000000000001 2.4944465005348837
  endloop
endfacet
facet normal 1.0 -0.0 -0.0
  outer loop
    vertex 38.499999999999964 40.00000000000001 6.247223250267454
    vertex 38.499999999999964 30.0 13.752776749732595
    vertex 38.499999999999964 30.0 6.247223250267454
  endloop
endfacet
facet normal 1.0 -0.0 -0.0
  outer loop
    vertex 38.499999999999964 30.0 13.752776749732595
    vertex 38.499999999999964 40.00000000000001 6.247223250267454
    vertex 38.499999999999964 40.00000000000001 13.752776749732595
  endloop
endfacet
facet normal 0.5000000000000004 -0.0 -0.8660254037844384
  outer loop
    vertex 44.999999999999964 40.00000000000001 17.50555349946517
    vertex 38.499999999999964 30.0 13.752776749732595
    vertex 38.499999999999964 40.00000000000001 13.752776749732595
  endloop
endfacet
facet normal 0.5000000000000004 -0.0 -0.8660254037844384
  outer loop
    vertex 38.499999999999964 30.0 13.752776749732595
    vertex 44.999999999999964 40.00000000000001 17.50555349946517
    vertex 44.999999999999964 30.0 17.50555349946517
  endloop
endfacet
facet normal -0.4999999999999993 -0.0 -0.8660254037844392
  outer loop
    vertex 51.49999999999997 40.00000000000001 13.752776749732602
    vertex 44.999999999999964 30.0 17.50555349946517
    vertex 44.999999999999964 40.00000000000001 17.50555349946517
  endloop
endfacet
facet normal -0.4999999999999993 -0.0 -0.8660254037844392
  outer loop
    vertex 44.999999999999964 30.0 17.50555349946517
    vertex 51.49999999999997 40.00000000000001 13.752776749732602
    vertex 51.49999999999997 30.0 13.752776749732602
  endloop
endfacet
facet normal 0.7071067811865476 -2.532402126611052e-18 -0.7071067811865476
  outer loop
    vertex 49.999999999999964 40.00000000000001 -0.19675899999997679
    vertex 54.999999999999964 9.999999999999996 4.803241000000023
    vertex 49.999999999999964 9.999999999999996 -0.1967589999999792
  endloop
endfacet
facet normal 0.7071067811865476 -2.532402126611052e-18 -0.7071067811865476
  outer loop
    vertex 54.999999999999964 9.999999999999996 4.803241000000023
    vertex 49.999999999999964 40.00000000000001 -0.19675899999997679
    vertex 54.999999999999964 40.00000000000001 4.803241000000026
  endloop
endfacet
facet normal 0.7071067811865474 -1.1246124594293238e-32 0.7071067811865477
  outer loop
    vertex 54.999999999999964 10.000000000000004 15.000000000000023
    vertex 49.999999999999964 40.00000000000001 20.000000000000025
    vertex 49.999999999999964 10.000000000000004 20.00000000000002
  endloop
endfacet
facet normal 0.7071067811865474 -1.1246124594293238e-32 0.7071067811865477
  outer loop
    vertex 49.999999999999964 40.00000000000001 20.000000000000025
    vertex 54.999999999999964 10.000000000000004 15.000000000000023
    vertex 54.999999999999964 40.00000000000001 15.000000000000027
  endloop
endfacet
facet normal -7.777656366695054e-17 -1.0 2.8351162731036597e-16
  outer loop
    vertex 54.999999999999964 9.999999999999996 4.803241000000023
    vertex 49.999999999999964 9.999999999999996 1.4981071938535706e-14
    vertex 49.999999999999964 9.999999999999996 -0.1967589999999792
  endloop
endfacet
facet normal -7.777656366695054e-17 -1.0 2.8351162731036597e-16
  outer loop
    vertex 49.999999999999964 9.999999999999996 1.4981071938535706e-14
    vertex 54.999999999999964 9.999999999999996 4.803241000000023
    vertex 44.999999999999964 10.000000000000028 2.494446500534881
  endloop
endfacet
facet normal -7.777656366695054e-17 -1.0 2.8351162731036597e-16
  outer loop
    vertex 44.999999999999964 10.000000000000028 2.494446500534881
    vertex 54.999999999999964 9.999999999999996 4.803241000000023
    vertex 51.49999999999997 10.000000000000028 6.247223250267448
  endloop
endfacet
facet normal -7.777656366695054e-17 -1.0 2.8351162731036597e-16
  outer loop
    vertex 51.49999999999997 10.000000000000028 6.247223250267448
    vertex 54.999999999999964 9.999999999999996 4.803241000000023
    vertex 54.999999999999964 10.000000000000004 15.000000000000023
  endloop
endfacet
facet normal -7.777656366695054e-17 -1.0 2.8351162731036597e-16
  outer loop
    vertex 51.49999999999997 10.000000000000028 6.247223250267448
    vertex 54.999999999999964 10.000000000000004 15.000000000000023
    vertex 51.49999999999997 10.000000000000028 13.752776749732593
  endloop
endfacet
facet normal -7.777656366695054e-17 -1.0 2.8351162731036597e-16
  outer loop
    vertex 51.49999999999997 10.000000000000028 13.752776749732593
    vertex 54.999999999999964 10.000000000000004 15.000000000000023
    vertex 44.99999999999997 10.000000000000028 17.505553499465165
  endloop
endfacet
facet normal -7.777656366695054e-17 -1.0 2.8351162731036597e-16
  outer loop
    vertex 44.99999999999997 10.000000000000028 17.505553499465165
    vertex 54.999999999999964 10.000000000000004 15.000000000000023
    vertex 49.999999999999964 10.000000000000004 20.00000000000002
  endloop
endfacet
facet normal -7.777656366695054e-17 -1.0 2.8351162731036597e-16
  outer loop
    vertex 49.999999999999964 9.999999999999996 1.4981071938535706e-14
    vertex 34.99999999999997 10.0 4.000000000000007
    vertex 34.99999999999997 9.999999999999998 8.9005192105418e-15
  endloop
endfacet
facet normal -7.777656366695054e-17 -1.0 2.8351162731036597e-16
  outer loop
    vertex 34.99999999999997 10.0 4.000000000000007
    vertex 49.999999999999964 9.999999999999996 1.4981071938535706e-14
    vertex 44.999999999999964 10.000000000000028 2.494446500534881
  endloop
endfacet
facet normal -7.777656366695054e-17 -1.0 2.8351162731036597e-16
  outer loop
    vertex 34.99999999999997 10.0 4.000000000000007
    vertex 44.999999999999964 10.000000000000028 2.494446500534881
    vertex 38.499999999999964 10.000000000000028 6.247223250267454
  endloop
endfacet
facet normal -7.777656366695054e-17 -1.0 2.8351162731036597e-16
  outer loop
    vertex 34.99999999999997 10.0 4.000000000000007
    vertex 38.499999999999964 10.000000000000028 6.247223250267454
    vertex 34.99999999999997 10.000000000000005 16.00000000000003
  endloop
endfacet
facet normal -7.777656366695054e-17 -1.0 2.8351162731036597e-16
  outer loop
    vertex 34.99999999999997 10.000000000000005 16.00000000000003
    vertex 38.499999999999964 10.000000000000028 6.247223250267454
    vertex 38.499999999999964 10.000000000000028 13.752776749732595
  endloop
endfacet
facet normal -7.777656366695054e-17 -1.0 2.8351162731036597e-16
  outer loop
    vertex 34.99999999999997 10.000000000000005 16.00000000000003
    vertex 38.499999999999964 10.000000000000028 13.752776749732595
    vertex 44.99999999999997 10.000000000000028 17.505553499465165
  endloop
endfacet
facet normal -7.777656366695054e-17 -1.0 2.8351162731036597e-16
  outer loop
    vertex 34.99999999999997 10.000000000000005 16.00000000000003
    vertex 44.99999999999997 10.000000000000028 17.505553499465165
    vertex 34.99999999999997 10.000000000000002 20.000000000000025
  endloop
endfacet
facet normal -7.777656366695054e-17 -1.0 2.8351162731036597e-16
  outer loop
    vertex 34.99999999999997 10.000000000000002 20.000000000000025
    vertex 44.99999999999997 10.000000000000028 17.505553499465165
    vertex 49.999999999999964 10.000000000000004 20.00000000000002
  endloop
endfacet
facet normal 1.0 -0.0 -0.0
  outer loop
    vertex 34.99999999999997 10.0 4.000000000000007
    vertex 34.99999999999997 8.244346060436875e-16 16.00000000000003
    vertex 34.99999999999997 -1.2392110399919657e-15 4.000000000000011
  endloop
endfacet
facet normal 1.0 -0.0 -0.0
  outer loop
    vertex 34.99999999999997 8.244346060436875e-16 16.00000000000003
    vertex 34.99999999999997 10.0 4.000000000000007
    vertex 34.99999999999997 10.000000000000005 16.00000000000003
  endloop
endfacet
facet normal -0.0 1.0 -0.0
  outer loop
    vertex 34.999999999999964 40.00000000000001 4.000000000000018
    vertex 49.999999999999964 40.00000000000001 1.7360418658185492e-14
    vertex 34.999999999999964 40.00000000000001 1.7360418658185492e-14
  endloop
endfacet
facet normal -0.0 1.0 -0.0
  outer loop
    vertex 49.999999999999964 40.00000000000001 1.7360418658185492e-14
    vertex 34.999999999999964 40.00000000000001 4.000000000000018
    vertex 44.99999999999997 40.00000000000001 2.4944465005348837
  endloop
endfacet
facet normal -0.0 1.0 -0.0
  outer loop
    vertex 44.99999999999997 40.00000000000001 2.4944465005348837
    vertex 34.999999999999964 40.00000000000001 4.000000000000018
    vertex 38.499999999999964 40.00000000000001 6.247223250267454
  endloop
endfacet
facet normal -0.0 1.0 -0.0
  outer loop
    vertex 38.499999999999964 40.00000000000001 6.247223250267454
    vertex 34.999999999999964 40.00000000000001 4.000000000000018
    vertex 34.99999999999996 40.00000000000001 16.00000000000003
  endloop
endfacet
facet normal -0.0 1.0 -0.0
  outer loop
    vertex 38.499999999999964 40.00000000000001 6.247223250267454
    vertex 34.99999999999996 40.00000000000001 16.00000000000003
    vertex 38.499999999999964 40.00000000000001 13.752776749732595
  endloop
endfacet
facet normal -0.0 1.0 -0.0
  outer loop
    vertex 38.499999999999964 40.00000000000001 13.752776749732595
    vertex 34.99999999999996 40.00000000000001 16.00000000000003
    vertex 44.999999999999964 40.00000000000001 17.50555349946517
  endloop
endfacet
facet normal -0.0 1.0 -0.0
  outer loop
    vertex 44.999999999999964 40.00000000000001 17.50555349946517
    vertex 34.99999999999996 40.00000000000001 16.00000000000003
    vertex 34.99999999999996 40.00000000000001 20.000000000000025
  endloop
endfacet
facet normal -0.0 1.0 -0.0
  outer loop
    vertex 49.999999999999964 40.00000000000001 1.7360418658185492e-14
    vertex 54.999999999999964 40.00000000000001 4.803241000000026
    vertex 49.999999999999964 40.00000000000001 -0.19675899999997679
  endloop
endfacet
facet normal -0.0 1.0 -0.0
  outer loop
    vertex 54.999999999999964 40.00000000000001 4.803241000000026
    vertex 49.999999999999964 40.00000000000001 1.7360418658185492e-14
    vertex 44.99999999999997 40.00000000000001 2.4944465005348837
  endloop
endfacet
facet normal -0.0 1.0 -0.0
  outer loop
    vertex 54.999999999999964 40.00000000000001 4.803241000000026
    vertex 44.99999999999997 40.00000000000001 2.4944465005348837
    vertex 51.49999999999997 40.00000000000001 6.247223250267456
  endloop
endfacet
facet normal -0.0 1.0 -0.0
  outer loop
    vertex 54.999999999999964 40.00000000000001 4.803241000000026
    vertex 51.49999999999997 40.00000000000001 6.247223250267456
    vertex 54.999999999999964 40.00000000000001 15.000000000000027
  endloop
endfacet
facet normal -0.0 1.0 -0.0
  outer loop
    vertex 54.999999999999964 40.00000000000001 15.000000000000027
    vertex 51.49999999999997 40.00000000000001 6.247223250267456
    vertex 51.49999999999997 40.00000000000001 13.752776749732602
  endloop
endfacet
facet normal -0.0 1.0 -0.0
  outer loop
    vertex 54.999999999999964 40.00000000000001 15.000000000000027
    vertex 51.49999999999997 40.00000000000001 13.752776749732602
    vertex 44.999999999999964 40.00000000000001 17.50555349946517
  endloop
endfacet
facet normal -0.0 1.0 -0.0
  outer loop
    vertex 54.999999999999964 40.00000000000001 15.000000000000027
    vertex 44.999999999999964 40.00000000000001 17.50555349946517
    vertex 49.999999999999964 40.00000000000001 20.000000000000025
  endloop
endfacet
facet normal -0.0 1.0 -0.0
  outer loop
    vertex 49.999999999999964 40.00000000000001 20.000000000000025
    vertex 44.999999999999964 40.00000000000001 17.50555349946517
    vertex 34.99999999999996 40.00000000000001 20.000000000000025
  endloop
endfacet
facet normal 1.0 2.1040224838793343e-32 4.699944137579824e-16
  outer loop
    vertex 34.999999999999964 50.00000000000001 4.000000000000018
    vertex 34.99999999999996 40.00000000000001 16.00000000000003
    vertex 34.999999999999964 40.00000000000001 4.000000000000018
  endloop
endfacet
facet normal 1.0 2.1040224838793343e-32 4.699944137579824e-16
  outer loop
    vertex 34.99999999999996 40.00000000000001 16.00000000000003
    vertex 34.999999999999964 50.00000000000001 4.000000000000018
    vertex 34.99999999999996 50.00000000000001 16.00000000000003
  endloop
endfacet
facet normal 4.1924674704980665e-16 7.263217438492511e-17 -1.0
  outer loop
    vertex 34.999999999999964 40.00000000000001 1.7360418658185492e-14
    vertex 30.99999999999997 10.0 1.0078211353998928e-14
    vertex 30.999999999999964 40.00000000000001 1.4912001813540863e-14
  endloop
endfacet
facet normal 4.1924674704980665e-16 7.263217438492511e-17 -1.0
  outer loop
    vertex 30.99999999999997 10.0 1.0078211353998928e-14
    vertex 34.999999999999964 40.00000000000001 1.7360418658185492e-14
    vertex 34.99999999999997 9.999999999999998 8.9005192105418e-15
  endloop
endfacet
facet normal 4.1924674704980665e-16 7.263217438492511e-17 -1.0
  outer loop
    vertex 34.99999999999997 9.999999999999998 8.9005192105418e-15
    vertex 34.999999999999964 40.00000000000001 1.7360418658185492e-14
    vertex 49.999999999999964 40.00000000000001 1.7360418658185492e-14
  endloop
endfacet
facet normal 4.1924674704980665e-16 7.263217438492511e-17 -1.0
  outer loop
    vertex 34.99999999999997 9.999999999999998 8.9005192105418e-15
    vertex 49.999999999999964 40.00000000000001 1.7360418658185492e-14
    vertex 49.999999999999964 9.999999999999996 1.4981071938535706e-14
  endloop
endfacet
facet normal 4.1924674704980665e-16 7.263217438492511e-17 -1.0
  outer loop
    vertex -2.000000000000012 50.00000000000001 -5.287437154777308e-15
    vertex 30.99999999999997 -1.7551224515008786e-15 1.1367989882771212e-14
    vertex -2.000000000000015 8.629388292275316e-16 -3.524958103184872e-15
  endloop
endfacet
facet normal 4.1924674704980665e-16 7.263217438492511e-17 -1.0
  outer loop
    vertex 30.99999999999997 -1.7551224515008786e-15 1.1367989882771212e-14
    vertex -2.000000000000012 50.00000000000001 -5.287437154777308e-15
    vertex 30.999999999999964 40.00000000000001 1.4912001813540863e-14
  endloop
endfacet
facet normal 4.1924674704980665e-16 7.263217438492511e-17 -1.0
  outer loop
    vertex 30.999999999999964 40.00000000000001 1.4912001813540863e-14
    vertex -2.000000000000012 50.00000000000001 -5.287437154777308e-15
    vertex 30.999999999999964 50.00000000000001 1.4912001813540863e-14
  endloop
endfacet
facet normal 4.1924674704980665e-16 7.263217438492511e-17 -1.0
  outer loop
    vertex 30.99999999999997 -1.7551224515008786e-15 1.1367989882771212e-14
    vertex 30.999999999999964 40.00000000000001 1.4912001813540863e-14
    vertex 30.99999999999997 10.0 1.0078211353998928e-14
  endloop
endfacet
facet normal -1.0 3.3916395805289465e-32 -4.198597933000254e-16
  outer loop
    vertex 49.999999999999964 40.00000000000001 1.7360418658185492e-14
    vertex 49.999999999999964 9.999999999999996 -0.1967589999999792
    vertex 49.999999999999964 9.999999999999996 1.4981071938535706e-14
  endloop
endfacet
facet normal -1.0 3.3916395805289465e-32 -4.198597933000254e-16
  outer loop
    vertex 49.999999999999964 9.999999999999996 -0.1967589999999792
    vertex 49.999999999999964 40.00000000000001 1.7360418658185492e-14
    vertex 49.999999999999964 40.00000000000001 -0.19675899999997679
  endloop
endfacet
facet normal -3.5249581031848723e-16 -1.0 3.5249581031848733e-16
  outer loop
    vertex 34.99999999999997 10.0 4.000000000000007
    vertex 30.99999999999997 10.0 1.0078211353998928e-14
    vertex 34.99999999999997 9.999999999999998 8.9005192105418e-15
  endloop
endfacet
facet normal 0.7071067811865476 -1.661888895588508e-16 -0.7071067811865476
  outer loop
    vertex 30.99999999999997 10.0 1.0078211353998928e-14
    vertex 34.99999999999997 -1.2392110399919657e-15 4.000000000000011
    vertex 30.99999999999997 -1.7551224515008786e-15 1.1367989882771212e-14
  endloop
endfacet
facet normal 0.7071067811865476 -1.661888895588508e-16 -0.7071067811865476
  outer loop
    vertex 34.99999999999997 -1.2392110399919657e-15 4.000000000000011
    vertex 30.99999999999997 10.0 1.0078211353998928e-14
    vertex 34.99999999999997 10.0 4.000000000000007
  endloop
endfacet
facet normal -4.3025245479015064e-17 -1.0 1.8068423942320705e-16
  outer loop
    vertex 30.99999999999997 -1.7551224515008786e-15 1.1367989882771212e-14
    vertex 28.07055236082014 -1.2630311502774169e-15 2.2725933896875508
    vertex 25.999999999999968 -1.208405887251245e-15 2.0000000000000635
  endloop
endfacet
facet normal -4.3025245479015064e-17 -1.0 1.8068423942320705e-16
  outer loop
    vertex 28.07055236082014 -1.2630311502774169e-15 2.2725933896875508
    vertex 30.99999999999997 -1.7551224515008786e-15 1.1367989882771212e-14
    vertex 34.99999999999997 -1.2392110399919657e-15 4.000000000000011
  endloop
endfacet
facet normal -4.3025245479015064e-17 -1.0 1.8068423942320705e-16
  outer loop
    vertex 28.07055236082014 -1.2630311502774169e-15 2.2725933896875508
    vertex 34.99999999999997 -1.2392110399919657e-15 4.000000000000011
    vertex 29.99999999999996 -1.272879075091963e-15 3.0717967697245863
  endloop
endfacet
facet normal -4.3025245479015064e-17 -1.0 1.8068423942320705e-16
  outer loop
    vertex 29.99999999999996 -1.272879075091963e-15 3.0717967697245863
    vertex 34.99999999999997 -1.2392110399919657e-15 4.000000000000011
    vertex 31.656854249492387 -1.2372785418932397e-15 4.343145750507715
  endloop
endfacet
facet normal -4.3025245479015064e-17 -1.0 1.8068423942320705e-16
  outer loop
    vertex 31.656854249492387 -1.2372785418932397e-15 4.343145750507715
    vertex 34.99999999999997 -1.2392110399919657e-15 4.000000000000011
    vertex 32.92820323027549 -1.1586556681860729e-15 6.000000000000105
  endloop
endfacet
facet normal -4.3025245479015064e-17 -1.0 1.8068423942320705e-16
  outer loop
    vertex 32.92820323027549 -1.1586556681860729e-15 6.000000000000105
    vertex 34.99999999999997 -1.2392110399919657e-15 4.000000000000011
    vertex 33.727406610312535 -1.0423684728831694e-15 7.929447639179946
  endloop
endfacet
facet normal -4.3025245479015064e-17 -1.0 1.8068423942320705e-16
  outer loop
    vertex 33.727406610312535 -1.0423684728831694e-15 7.929447639179946
    vertex 34.99999999999997 -1.2392110399919657e-15 4.000000000000011
    vertex 34.99999999999997 8.244346060436875e-16 16.00000000000003
  endloop
endfacet
facet normal -4.3025245479015064e-17 -1.0 1.8068423942320705e-16
  outer loop
    vertex 33.727406610312535 -1.0423684728831694e-15 7.929447639179946
    vertex 34.99999999999997 8.244346060436875e-16 16.00000000000003
    vertex 33.99999999999994 -8.963417361707404e-16 10.000000000000115
  endloop
endfacet
facet normal -4.3025245479015064e-17 -1.0 1.8068423942320705e-16
  outer loop
    vertex 33.99999999999994 -8.963417361707404e-16 10.000000000000115
    vertex 34.99999999999997 8.244346060436875e-16 16.00000000000003
    vertex 33.72740661031248 -7.305269388351496e-16 12.070552360820281
  endloop
endfacet
facet normal -4.3025245479015064e-17 -1.0 1.8068423942320705e-16
  outer loop
    vertex 33.72740661031248 -7.305269388351496e-16 12.070552360820281
    vertex 34.99999999999997 8.244346060436875e-16 16.00000000000003
    vertex 32.928203230275436 -5.562240852929076e-16 14.00000000000011
  endloop
endfacet
facet normal -4.3025245479015064e-17 -1.0 1.8068423942320705e-16
  outer loop
    vertex 32.928203230275436 -5.562240852929076e-16 14.00000000000011
    vertex 34.99999999999997 8.244346060436875e-16 16.00000000000003
    vertex 31.65685424949233 -3.8531162696383343e-16 15.656854249492495
  endloop
endfacet
facet normal -4.3025245479015064e-17 -1.0 1.8068423942320705e-16
  outer loop
    vertex 31.65685424949233 -3.8531162696383343e-16 15.656854249492495
    vertex 34.99999999999997 8.244346060436875e-16 16.00000000000003
    vertex 29.99999999999996 -2.294369654368607e-16 16.928203230275614
  endloop
endfacet
facet normal -4.3025245479015064e-17 -1.0 1.8068423942320705e-16
  outer loop
    vertex 29.99999999999996 -2.294369654368607e-16 16.928203230275614
    vertex 34.99999999999997 8.244346060436875e-16 16.00000000000003
    vertex 30.99999999999997 1.3255027297899069e-15 20.00000000000003
  endloop
endfacet
facet normal -4.3025245479015064e-17 -1.0 1.8068423942320705e-16
  outer loop
    vertex 29.99999999999996 -2.294369654368607e-16 16.928203230275614
    vertex 30.99999999999997 1.3255027297899069e-15 20.00000000000003
    vertex 28.070552360820084 -9.922270129999243e-17 17.727406610312627
  endloop
endfacet
facet normal -4.3025245479015064e-17 -1.0 1.8068423942320705e-16
  outer loop
    vertex 28.070552360820084 -9.922270129999243e-17 17.727406610312627
    vertex 30.99999999999997 1.3255027297899069e-15 20.00000000000003
    vertex 25.999999999999925 -3.5427214649158965e-18 18.000000000000085
  endloop
endfacet
facet normal -4.3025245479015064e-17 -1.0 1.8068423942320705e-16
  outer loop
    vertex 20.343145750507595 -8.266369817523274e-16 4.343145750507686
    vertex 4.999999999999982 3.524958103184872e-16 4.999999999999976
    vertex 0.999999999999983 3.524958103184872e-16 4.999999999999975
  endloop
endfacet
facet normal -4.3025245479015064e-17 -1.0 1.8068423942320705e-16
  outer loop
    vertex 4.999999999999982 3.524958103184872e-16 4.999999999999976
    vertex 20.343145750507595 -8.266369817523274e-16 4.343145750507686
    vertex 19.071796769724454 -6.557245234232514e-16 6.000000000000072
  endloop
endfacet
facet normal -4.3025245479015064e-17 -1.0 1.8068423942320705e-16
  outer loop
    vertex 4.999999999999982 3.524958103184872e-16 4.999999999999976
    vertex 19.071796769724454 -6.557245234232514e-16 6.000000000000072
    vertex 4.999999999999972 4.5824455341403335e-15 20.000000000000032
  endloop
endfacet
facet normal -4.3025245479015064e-17 -1.0 1.8068423942320705e-16
  outer loop
    vertex 4.999999999999972 4.5824455341403335e-15 20.000000000000032
    vertex 19.071796769724454 -6.557245234232514e-16 6.000000000000072
    vertex 18.27259338968741 -4.81421669881009e-16 7.929447639179887
  endloop
endfacet
facet normal -4.3025245479015064e-17 -1.0 1.8068423942320705e-16
  outer loop
    vertex 4.999999999999972 4.5824455341403335e-15 20.000000000000032
    vertex 18.27259338968741 -4.81421669881009e-16 7.929447639179887
    vertex 17.999999999999957 -3.156068725454188e-16 10.000000000000071
  endloop
endfacet
facet normal -4.3025245479015064e-17 -1.0 1.8068423942320705e-16
  outer loop
    vertex 4.999999999999972 4.5824455341403335e-15 20.000000000000032
    vertex 17.999999999999957 -3.156068725454188e-16 10.000000000000071
    vertex 18.27259338968741 -1.695801358329916e-16 12.070552360820248
  endloop
endfacet
facet normal -4.3025245479015064e-17 -1.0 1.8068423942320705e-16
  outer loop
    vertex 4.999999999999972 4.5824455341403335e-15 20.000000000000032
    vertex 18.27259338968741 -1.695801358329916e-16 12.070552360820248
    vertex 19.07179676972442 -5.329294053008734e-17 14.000000000000082
  endloop
endfacet
facet normal -4.3025245479015064e-17 -1.0 1.8068423942320705e-16
  outer loop
    vertex 4.999999999999972 4.5824455341403335e-15 20.000000000000032
    vertex 19.07179676972442 -5.329294053008734e-17 14.000000000000082
    vertex 20.343145750507517 2.5329933177078785e-17 15.656854249492461
  endloop
endfacet
facet normal -4.3025245479015064e-17 -1.0 1.8068423942320705e-16
  outer loop
    vertex 4.999999999999972 4.5824455341403335e-15 20.000000000000032
    vertex 20.343145750507517 2.5329933177078785e-17 15.656854249492461
    vertex 21.999999999999893 6.093046637580274e-17 16.928203230275567
  endloop
endfacet
facet normal -4.3025245479015064e-17 -1.0 1.8068423942320705e-16
  outer loop
    vertex 4.999999999999972 4.5824455341403335e-15 20.000000000000032
    vertex 21.999999999999893 6.093046637580274e-17 16.928203230275567
    vertex 23.929447639179763 5.108254156125492e-17 17.727406610312638
  endloop
endfacet
facet normal -4.3025245479015064e-17 -1.0 1.8068423942320705e-16
  outer loop
    vertex 4.999999999999972 4.5824455341403335e-15 20.000000000000032
    vertex 23.929447639179763 5.108254156125492e-17 17.727406610312638
    vertex 25.999999999999925 -3.5427214649158965e-18 18.000000000000085
  endloop
endfacet
facet normal -4.3025245479015064e-17 -1.0 1.8068423942320705e-16
  outer loop
    vertex 4.999999999999972 4.5824455341403335e-15 20.000000000000032
    vertex 25.999999999999925 -3.5427214649158965e-18 18.000000000000085
    vertex 30.99999999999997 1.3255027297899069e-15 20.00000000000003
  endloop
endfacet
facet normal -4.3025245479015064e-17 -1.0 1.8068423942320705e-16
  outer loop
    vertex -2.000000000000015 8.629388292275316e-16 -3.524958103184872e-15
    vertex 0.999999999999983 3.524958103184872e-16 4.999999999999975
    vertex -2.000000000000018 -3.524958103184872e-16 8.999999999999977
  endloop
endfacet
facet normal -4.3025245479015064e-17 -1.0 1.8068423942320705e-16
  outer loop
    vertex 0.999999999999983 3.524958103184872e-16 4.999999999999975
    vertex -2.000000000000015 8.629388292275316e-16 -3.524958103184872e-15
    vertex 30.99999999999997 -1.7551224515008786e-15 1.1367989882771212e-14
  endloop
endfacet
facet normal -4.3025245479015064e-17 -1.0 1.8068423942320705e-16
  outer loop
    vertex 0.999999999999983 3.524958103184872e-16 4.999999999999975
    vertex 30.99999999999997 -1.7551224515008786e-15 1.1367989882771212e-14
    vertex 25.999999999999968 -1.208405887251245e-15 2.0000000000000635
  endloop
endfacet
facet normal -4.3025245479015064e-17 -1.0 1.8068423942320705e-16
  outer loop
    vertex 0.999999999999983 3.524958103184872e-16 4.999999999999975
    vertex 25.999999999999968 -1.208405887251245e-15 2.0000000000000635
    vertex 23.92944763917981 -1.112725907416168e-15 2.272593389687518
  endloop
endfacet
facet normal -4.3025245479015064e-17 -1.0 1.8068423942320705e-16
  outer loop
    vertex 0.999999999999983 3.524958103184872e-16 4.999999999999975
    vertex 23.92944763917981 -1.112725907416168e-15 2.272593389687518
    vertex 21.99999999999996 -9.825116432793013e-16 3.0717967697245534
  endloop
endfacet
facet normal -4.3025245479015064e-17 -1.0 1.8068423942320705e-16
  outer loop
    vertex 0.999999999999983 3.524958103184872e-16 4.999999999999975
    vertex 21.99999999999996 -9.825116432793013e-16 3.0717967697245534
    vertex 20.343145750507595 -8.266369817523274e-16 4.343145750507686
  endloop
endfacet
facet normal -4.3025245479015064e-17 -1.0 1.8068423942320705e-16
  outer loop
    vertex -2.000000000000018 -3.524958103184872e-16 8.999999999999977
    vertex 0.999999999999983 3.524958103184872e-16 4.999999999999975
    vertex 0.9999999999999823 -3.524958103184872e-16 8.999999999999977
  endloop
endfacet
facet normal -1.4099832412739501e-15 -1.0 -1.057487430955462e-15
  outer loop
    vertex 30.99999999999997 10.000000000000007 20.00000000000003
    vertex 34.99999999999997 10.000000000000005 16.00000000000003
    vertex 34.99999999999997 10.000000000000002 20.000000000000025
  endloop
endfacet
facet normal 0.7071067811865479 -7.913756645659577e-18 0.7071067811865472
  outer loop
    vertex 34.99999999999997 10.000000000000005 16.00000000000003
    vertex 30.99999999999997 1.3255027297899069e-15 20.00000000000003
    vertex 34.99999999999997 8.244346060436875e-16 16.00000000000003
  endloop
endfacet
facet normal 0.7071067811865479 -7.913756645659577e-18 0.7071067811865472
  outer loop
    vertex 30.99999999999997 1.3255027297899069e-15 20.00000000000003
    vertex 34.99999999999997 10.000000000000005 16.00000000000003
    vertex 30.99999999999997 10.000000000000007 20.00000000000003
  endloop
endfacet
facet normal -0.0 1.0 -0.0
  outer loop
    vertex 34.99999999999996 40.00000000000001 20.000000000000025
    vertex 34.99999999999996 40.00000000000001 16.00000000000003
    vertex 30.99999999999996 40.00000000000001 20.000000000000025
  endloop
endfacet
facet normal 0.7071067811865476 7.913756645659791e-18 0.7071067811865476
  outer loop
    vertex 34.99999999999996 50.00000000000001 16.00000000000003
    vertex 30.99999999999996 40.00000000000001 20.000000000000025
    vertex 34.99999999999996 40.00000000000001 16.00000000000003
  endloop
endfacet
facet normal 0.7071067811865476 7.913756645659791e-18 0.7071067811865476
  outer loop
    vertex 30.99999999999996 40.00000000000001 20.000000000000025
    vertex 34.99999999999996 50.00000000000001 16.00000000000003
    vertex 30.99999999999996 50.00000000000001 20.000000000000025
  endloop
endfacet
facet normal -0.0 1.0 -0.0
  outer loop
    vertex -2.000000000000012 50.00000000000001 -5.287437154777308e-15
    vertex 0.999999999999984 50.00000000000001 4.999999999999976
    vertex 30.999999999999964 50.00000000000001 1.4912001813540863e-14
  endloop
endfacet
facet normal -0.0 1.0 -0.0
  outer loop
    vertex 0.999999999999984 50.00000000000001 4.999999999999976
    vertex -2.000000000000012 50.00000000000001 -5.287437154777308e-15
    vertex -2.0000000000000155 50.00000000000001 8.999999999999975
  endloop
endfacet
facet normal -0.0 1.0 -0.0
  outer loop
    vertex 30.999999999999964 50.00000000000001 1.4912001813540863e-14
    vertex 0.999999999999984 50.00000000000001 4.999999999999976
    vertex 25.999999999999982 50.00000000000003 2.000000000000082
  endloop
endfacet
facet normal -0.0 1.0 -0.0
  outer loop
    vertex 25.999999999999982 50.00000000000003 2.000000000000082
    vertex 0.999999999999984 50.00000000000001 4.999999999999976
    vertex 23.92944763917981 50.00000000000003 2.272593389687525
  endloop
endfacet
facet normal -0.0 1.0 -0.0
  outer loop
    vertex 23.92944763917981 50.00000000000003 2.272593389687525
    vertex 0.999999999999984 50.00000000000001 4.999999999999976
    vertex 21.999999999999986 50.00000000000003 3.071796769724569
  endloop
endfacet
facet normal -0.0 1.0 -0.0
  outer loop
    vertex 21.999999999999986 50.00000000000003 3.071796769724569
    vertex 0.999999999999984 50.00000000000001 4.999999999999976
    vertex 20.343145750507595 50.00000000000003 4.343145750507691
  endloop
endfacet
facet normal -0.0 1.0 -0.0
  outer loop
    vertex 0.999999999999984 50.00000000000001 4.999999999999976
    vertex -2.0000000000000155 50.00000000000001 8.999999999999975
    vertex 0.999999999999984 50.00000000000001 8.999999999999975
  endloop
endfacet
facet normal -0.0 1.0 -0.0
  outer loop
    vertex 20.343145750507595 50.00000000000003 4.343145750507691
    vertex 4.999999999999984 50.00000000000001 4.999999999999977
    vertex 19.071796769724454 50.00000000000003 6.000000000000072
  endloop
endfacet
facet normal -0.0 1.0 -0.0
  outer loop
    vertex 4.999999999999984 50.00000000000001 4.999999999999977
    vertex 20.343145750507595 50.00000000000003 4.343145750507691
    vertex 0.999999999999984 50.00000000000001 4.999999999999976
  endloop
endfacet
facet normal -0.0 1.0 -0.0
  outer loop
    vertex 19.071796769724454 50.00000000000003 6.000000000000072
    vertex 4.999999999999984 50.00000000000001 4.999999999999977
    vertex 4.999999999999966 50.00000000000001 20.000000000000025
  endloop
endfacet
facet normal -0.0 1.0 -0.0
  outer loop
    vertex 19.071796769724454 50.00000000000003 6.000000000000072
    vertex 4.999999999999966 50.00000000000001 20.000000000000025
    vertex 18.272593389687422 50.00000000000003 7.92944763917988
  endloop
endfacet
facet normal -0.0 1.0 -0.0
  outer loop
    vertex 18.272593389687422 50.00000000000003 7.92944763917988
    vertex 4.999999999999966 50.00000000000001 20.000000000000025
    vertex 17.999999999999957 50.00000000000003 10.000000000000071
  endloop
endfacet
facet normal -0.0 1.0 -0.0
  outer loop
    vertex 17.999999999999957 50.00000000000003 10.000000000000071
    vertex 4.999999999999966 50.00000000000001 20.000000000000025
    vertex 18.27259338968741 50.00000000000003 12.070552360820248
  endloop
endfacet
facet normal -0.0 1.0 -0.0
  outer loop
    vertex 18.27259338968741 50.00000000000003 12.070552360820248
    vertex 4.999999999999966 50.00000000000001 20.000000000000025
    vertex 19.07179676972442 50.00000000000003 14.000000000000076
  endloop
endfacet
facet normal -0.0 1.0 -0.0
  outer loop
    vertex 19.07179676972442 50.00000000000003 14.000000000000076
    vertex 4.999999999999966 50.00000000000001 20.000000000000025
    vertex 20.343145750507528 50.00000000000003 15.656854249492461
  endloop
endfacet
facet normal -0.0 1.0 -0.0
  outer loop
    vertex 20.343145750507528 50.00000000000003 15.656854249492461
    vertex 4.999999999999966 50.00000000000001 20.000000000000025
    vertex 21.999999999999908 50.00000000000003 16.928203230275567
  endloop
endfacet
facet normal -0.0 1.0 -0.0
  outer loop
    vertex 21.999999999999908 50.00000000000003 16.928203230275567
    vertex 4.999999999999966 50.00000000000001 20.000000000000025
    vertex 23.929447639179752 50.00000000000003 17.727406610312638
  endloop
endfacet
facet normal -0.0 1.0 -0.0
  outer loop
    vertex 23.929447639179752 50.00000000000003 17.727406610312638
    vertex 4.999999999999966 50.00000000000001 20.000000000000025
    vertex 25.99999999999991 50.00000000000003 18.000000000000075
  endloop
endfacet
facet normal -0.0 1.0 -0.0
  outer loop
    vertex 30.999999999999964 50.00000000000001 1.4912001813540863e-14
    vertex 28.07055236082015 50.00000000000003 2.272593389687565
    vertex 34.999999999999964 50.00000000000001 4.000000000000018
  endloop
endfacet
facet normal -0.0 1.0 -0.0
  outer loop
    vertex 28.07055236082015 50.00000000000003 2.272593389687565
    vertex 30.999999999999964 50.00000000000001 1.4912001813540863e-14
    vertex 25.999999999999982 50.00000000000003 2.000000000000082
  endloop
endfacet
facet normal -0.0 1.0 -0.0
  outer loop
    vertex 34.999999999999964 50.00000000000001 4.000000000000018
    vertex 28.07055236082015 50.00000000000003 2.272593389687565
    vertex 29.999999999999986 50.00000000000003 3.071796769724594
  endloop
endfacet
facet normal -0.0 1.0 -0.0
  outer loop
    vertex 34.999999999999964 50.00000000000001 4.000000000000018
    vertex 29.999999999999986 50.00000000000003 3.071796769724594
    vertex 31.656854249492397 50.00000000000003 4.343145750507722
  endloop
endfacet
facet normal -0.0 1.0 -0.0
  outer loop
    vertex 34.999999999999964 50.00000000000001 4.000000000000018
    vertex 31.656854249492397 50.00000000000003 4.343145750507722
    vertex 32.928203230275514 50.00000000000003 6.000000000000103
  endloop
endfacet
facet normal -0.0 1.0 -0.0
  outer loop
    vertex 34.999999999999964 50.00000000000001 4.000000000000018
    vertex 32.928203230275514 50.00000000000003 6.000000000000103
    vertex 33.727406610312556 50.00000000000003 7.929447639179946
  endloop
endfacet
facet normal -0.0 1.0 -0.0
  outer loop
    vertex 34.999999999999964 50.00000000000001 4.000000000000018
    vertex 33.727406610312556 50.00000000000003 7.929447639179946
    vertex 34.99999999999996 50.00000000000001 16.00000000000003
  endloop
endfacet
facet normal -0.0 1.0 -0.0
  outer loop
    vertex 34.99999999999996 50.00000000000001 16.00000000000003
    vertex 33.727406610312556 50.00000000000003 7.929447639179946
    vertex 33.99999999999996 50.00000000000003 10.000000000000101
  endloop
endfacet
facet normal -0.0 1.0 -0.0
  outer loop
    vertex 34.99999999999996 50.00000000000001 16.00000000000003
    vertex 33.99999999999996 50.00000000000003 10.000000000000101
    vertex 33.7274066103125 50.00000000000003 12.070552360820276
  endloop
endfacet
facet normal -0.0 1.0 -0.0
  outer loop
    vertex 34.99999999999996 50.00000000000001 16.00000000000003
    vertex 33.7274066103125 50.00000000000003 12.070552360820276
    vertex 32.928203230275486 50.00000000000003 14.00000000000011
  endloop
endfacet
facet normal -0.0 1.0 -0.0
  outer loop
    vertex 34.99999999999996 50.00000000000001 16.00000000000003
    vertex 32.928203230275486 50.00000000000003 14.00000000000011
    vertex 31.656854249492362 50.00000000000003 15.656854249492483
  endloop
endfacet
facet normal -0.0 1.0 -0.0
  outer loop
    vertex 34.99999999999996 50.00000000000001 16.00000000000003
    vertex 31.656854249492362 50.00000000000003 15.656854249492483
    vertex 29.99999999999997 50.00000000000003 16.928203230275614
  endloop
endfacet
facet normal -0.0 1.0 -0.0
  outer loop
    vertex 34.99999999999996 50.00000000000001 16.00000000000003
    vertex 29.99999999999997 50.00000000000003 16.928203230275614
    vertex 30.99999999999996 50.00000000000001 20.000000000000025
  endloop
endfacet
facet normal -0.0 1.0 -0.0
  outer loop
    vertex 30.99999999999996 50.00000000000001 20.000000000000025
    vertex 29.99999999999997 50.00000000000003 16.928203230275614
    vertex 28.070552360820106 50.00000000000003 17.727406610312627
  endloop
endfacet
facet normal -0.0 1.0 -0.0
  outer loop
    vertex 30.99999999999996 50.00000000000001 20.000000000000025
    vertex 28.070552360820106 50.00000000000003 17.727406610312627
    vertex 25.99999999999991 50.00000000000003 18.000000000000075
  endloop
endfacet
facet normal -0.0 1.0 -0.0
  outer loop
    vertex 30.99999999999996 50.00000000000001 20.000000000000025
    vertex 25.99999999999991 50.00000000000003 18.000000000000075
    vertex 4.999999999999966 50.00000000000001 20.000000000000025
  endloop
endfacet
facet normal -0.0 1.0 -0.0
  outer loop
    vertex 34.999999999999964 40.00000000000001 4.000000000000018
    vertex 34.999999999999964 40.00000000000001 1.7360418658185492e-14
    vertex 30.999999999999964 40.00000000000001 1.4912001813540863e-14
  endloop
endfacet
facet normal 0.7071067811865478 -7.913756645659822e-18 -0.7071067811865472
  outer loop
    vertex 30.999999999999964 50.00000000000001 1.4912001813540863e-14
    vertex 34.999999999999964 40.00000000000001 4.000000000000018
    vertex 30.999999999999964 40.00000000000001 1.4912001813540863e-14
  endloop
endfacet
facet normal 0.7071067811865478 -7.913756645659822e-18 -0.7071067811865472
  outer loop
    vertex 34.999999999999964 40.00000000000001 4.000000000000018
    vertex 30.999999999999964 50.00000000000001 1.4912001813540863e-14
    vertex 34.999999999999964 50.00000000000001 4.000000000000018
  endloop
endfacet
endsolid Правая-16мм-8мм
