solid СторонаДругая-10напр-8шпилька
facet normal -1.0439729478028046e-15 -6.854208699284307e-16 1.0
  outer loop
    vertex 19.499999999999943 15.000000000000012 20.00000000000001
    vertex 15.46530564980272 40.000000000000014 20.00000000000006
    vertex 15.448779466287762 15.000000000000009 20.00000000000002
  endloop
endfacet
facet normal -1.0439729478028046e-15 -6.854208699284307e-16 1.0
  outer loop
    vertex 15.46530564980272 40.000000000000014 20.00000000000006
    vertex 19.499999999999943 15.000000000000012 20.00000000000001
    vertex 19.499999999999975 39.99999999999999 20.000000000000075
  endloop
endfacet
facet normal -1.0439729478028046e-15 -6.854208699284307e-16 1.0
  outer loop
    vertex 4.999999999999972 4.5824455341403335e-15 20.000000000000032
    vertex 15.46530564980273 50.0 20.00000000000006
    vertex 4.999999999999966 50.00000000000001 20.000000000000025
  endloop
endfacet
facet normal -1.0439729478028046e-15 -6.854208699284307e-16 1.0
  outer loop
    vertex 15.46530564980273 50.0 20.00000000000006
    vertex 4.999999999999972 4.5824455341403335e-15 20.000000000000032
    vertex 15.448779466287762 15.000000000000009 20.00000000000002
  endloop
endfacet
facet normal -1.0439729478028046e-15 -6.854208699284307e-16 1.0
  outer loop
    vertex 15.448779466287762 15.000000000000009 20.00000000000002
    vertex 4.999999999999972 4.5824455341403335e-15 20.000000000000032
    vertex 15.448779466287762 9.408643376302925e-15 20.00000000000002
  endloop
endfacet
facet normal -1.0439729478028046e-15 -6.854208699284307e-16 1.0
  outer loop
    vertex 15.46530564980273 50.0 20.00000000000006
    vertex 15.448779466287762 15.000000000000009 20.00000000000002
    vertex 15.46530564980272 40.000000000000014 20.00000000000006
  endloop
endfacet
facet normal 1.0 -2.779731026740494e-30 1.7630009053857328e-14
  outer loop
    vertex 15.999999999999963 10.0511112605664 14.611771432346284
    vertex 15.999999999999917 10.0511112605664 15.388228567653853
    vertex 15.999999999999929 10.000000000000002 15.00000000000007
  endloop
endfacet
facet normal 1.0 -2.779731026740494e-30 1.7630009053857328e-14
  outer loop
    vertex 15.999999999999917 10.0511112605664 15.388228567653853
    vertex 15.999999999999963 10.0511112605664 14.611771432346284
    vertex 15.999999999999963 10.200961894323342 14.250000000000048
  endloop
endfacet
facet normal 1.0 -2.779731026740494e-30 1.7630009053857328e-14
  outer loop
    vertex 15.999999999999917 10.0511112605664 15.388228567653853
    vertex 15.999999999999963 10.200961894323342 14.250000000000048
    vertex 15.999999999999929 10.200961894323344 15.750000000000062
  endloop
endfacet
facet normal 1.0 -2.779731026740494e-30 1.7630009053857328e-14
  outer loop
    vertex 15.999999999999929 10.200961894323344 15.750000000000062
    vertex 15.999999999999963 10.200961894323342 14.250000000000048
    vertex 15.999999999999963 10.43933982822018 13.93933982822024
  endloop
endfacet
facet normal 1.0 -2.779731026740494e-30 1.7630009053857328e-14
  outer loop
    vertex 15.999999999999929 10.200961894323344 15.750000000000062
    vertex 15.999999999999963 10.43933982822018 13.93933982822024
    vertex 15.999999999999906 10.43933982822018 16.060660171779887
  endloop
endfacet
facet normal 1.0 -2.779731026740494e-30 1.7630009053857328e-14
  outer loop
    vertex 15.999999999999906 10.43933982822018 16.060660171779887
    vertex 15.999999999999963 10.43933982822018 13.93933982822024
    vertex 15.99999999999994 10.750000000000002 13.70096189432338
  endloop
endfacet
facet normal 1.0 -2.779731026740494e-30 1.7630009053857328e-14
  outer loop
    vertex 15.999999999999906 10.43933982822018 16.060660171779887
    vertex 15.99999999999994 10.750000000000002 13.70096189432338
    vertex 15.999999999999906 10.750000000000002 16.2990381056767
  endloop
endfacet
facet normal 1.0 -2.779731026740494e-30 1.7630009053857328e-14
  outer loop
    vertex 15.999999999999906 10.750000000000002 16.2990381056767
    vertex 15.99999999999994 10.750000000000002 13.70096189432338
    vertex 15.99999999999995 11.111771432346218 13.551111260566444
  endloop
endfacet
facet normal 1.0 -2.779731026740494e-30 1.7630009053857328e-14
  outer loop
    vertex 15.999999999999906 10.750000000000002 16.2990381056767
    vertex 15.99999999999995 11.111771432346218 13.551111260566444
    vertex 15.999999999999917 11.11177143234622 16.44888873943367
  endloop
endfacet
facet normal 1.0 -2.779731026740494e-30 1.7630009053857328e-14
  outer loop
    vertex 15.999999999999917 11.11177143234622 16.44888873943367
    vertex 15.99999999999995 11.111771432346218 13.551111260566444
    vertex 15.999999999999973 11.500000000000002 13.500000000000055
  endloop
endfacet
facet normal 1.0 -2.779731026740494e-30 1.7630009053857328e-14
  outer loop
    vertex 15.999999999999917 11.11177143234622 16.44888873943367
    vertex 15.999999999999973 11.500000000000002 13.500000000000055
    vertex 15.999999999999917 11.500000000000002 16.50000000000006
  endloop
endfacet
facet normal 1.0 -2.779731026740494e-30 1.7630009053857328e-14
  outer loop
    vertex 15.999999999999917 11.500000000000002 16.50000000000006
    vertex 15.999999999999973 11.500000000000002 13.500000000000055
    vertex 15.99999999999995 11.888228567653782 13.551111260566444
  endloop
endfacet
facet normal 1.0 -2.779731026740494e-30 1.7630009053857328e-14
  outer loop
    vertex 15.999999999999917 11.500000000000002 16.50000000000006
    vertex 15.99999999999995 11.888228567653782 13.551111260566444
    vertex 15.999999999999917 11.888228567653783 16.44888873943367
  endloop
endfacet
facet normal 1.0 -2.779731026740494e-30 1.7630009053857328e-14
  outer loop
    vertex 15.999999999999917 11.888228567653783 16.44888873943367
    vertex 15.99999999999995 11.888228567653782 13.551111260566444
    vertex 15.99999999999994 12.25 13.70096189432338
  endloop
endfacet
facet normal 1.0 -2.779731026740494e-30 1.7630009053857328e-14
  outer loop
    vertex 15.999999999999917 11.888228567653783 16.44888873943367
    vertex 15.99999999999994 12.25 13.70096189432338
    vertex 15.999999999999906 12.250000000000002 16.2990381056767
  endloop
endfacet
facet normal 1.0 -2.779731026740494e-30 1.7630009053857328e-14
  outer loop
    vertex 15.999999999999906 12.250000000000002 16.2990381056767
    vertex 15.99999999999994 12.25 13.70096189432338
    vertex 15.999999999999963 12.560660171779823 13.93933982822024
  endloop
endfacet
facet normal 1.0 -2.779731026740494e-30 1.7630009053857328e-14
  outer loop
    vertex 15.999999999999906 12.250000000000002 16.2990381056767
    vertex 15.999999999999963 12.560660171779823 13.93933982822024
    vertex 15.999999999999906 12.560660171779823 16.060660171779887
  endloop
endfacet
facet normal 1.0 -2.779731026740494e-30 1.7630009053857328e-14
  outer loop
    vertex 15.999999999999906 12.560660171779823 16.060660171779887
    vertex 15.999999999999963 12.560660171779823 13.93933982822024
    vertex 15.999999999999963 12.79903810567666 14.250000000000048
  endloop
endfacet
facet normal 1.0 -2.779731026740494e-30 1.7630009053857328e-14
  outer loop
    vertex 15.999999999999906 12.560660171779823 16.060660171779887
    vertex 15.999999999999963 12.79903810567666 14.250000000000048
    vertex 15.999999999999929 12.79903810567666 15.750000000000062
  endloop
endfacet
facet normal 1.0 -2.779731026740494e-30 1.7630009053857328e-14
  outer loop
    vertex 15.999999999999929 12.79903810567666 15.750000000000062
    vertex 15.999999999999963 12.79903810567666 14.250000000000048
    vertex 15.999999999999963 12.948888739433604 14.611771432346284
  endloop
endfacet
facet normal 1.0 -2.779731026740494e-30 1.7630009053857328e-14
  outer loop
    vertex 15.999999999999929 12.79903810567666 15.750000000000062
    vertex 15.999999999999963 12.948888739433604 14.611771432346284
    vertex 15.999999999999917 12.948888739433604 15.388228567653853
  endloop
endfacet
facet normal 1.0 -2.779731026740494e-30 1.7630009053857328e-14
  outer loop
    vertex 15.999999999999917 12.948888739433604 15.388228567653853
    vertex 15.999999999999963 12.948888739433604 14.611771432346284
    vertex 15.999999999999929 13.000000000000002 15.00000000000007
  endloop
endfacet
facet normal 6.104097787692307e-16 3.95469318559937e-17 -1.0
  outer loop
    vertex 19.499999999999975 39.99999999999999 1.6540943340415883e-14
    vertex 17.14409304151236 15.0 1.245653892384153e-14
    vertex 16.01359637904304 39.99999999999999 1.454081767786668e-14
  endloop
endfacet
facet normal 6.104097787692307e-16 3.95469318559937e-17 -1.0
  outer loop
    vertex 17.14409304151236 15.0 1.245653892384153e-14
    vertex 19.499999999999975 39.99999999999999 1.6540943340415883e-14
    vertex 19.499999999999943 15.000000000000007 9.922590516484944e-15
  endloop
endfacet
facet normal 6.104097787692307e-16 3.95469318559937e-17 -1.0
  outer loop
    vertex 19.499999999999943 15.000000000000007 9.922590516484944e-15
    vertex 19.499999999999975 39.99999999999999 1.6540943340415883e-14
    vertex 26.317516821818202 14.999999999999998 1.548067879438363e-14
  endloop
endfacet
facet normal 6.104097787692307e-16 3.95469318559937e-17 -1.0
  outer loop
    vertex 26.317516821818202 14.999999999999998 1.548067879438363e-14
    vertex 19.499999999999975 39.99999999999999 1.6540943340415883e-14
    vertex 26.31751682181823 39.99999999999999 2.2311192357159358e-14
  endloop
endfacet
facet normal 6.104097787692307e-16 3.95469318559937e-17 -1.0
  outer loop
    vertex -2.0000000000000124 50.00000000000001 4.835352342897673e-16
    vertex 17.144093041512363 6.1636927640009756e-15 1.580506420011274e-14
    vertex -2.0000000000000155 8.698267177546323e-16 2.2460142858822025e-15
  endloop
endfacet
facet normal 6.104097787692307e-16 3.95469318559937e-17 -1.0
  outer loop
    vertex 17.144093041512363 6.1636927640009756e-15 1.580506420011274e-14
    vertex -2.0000000000000124 50.00000000000001 4.835352342897673e-16
    vertex 16.01359637904304 39.99999999999999 1.454081767786668e-14
  endloop
endfacet
facet normal 6.104097787692307e-16 3.95469318559937e-17 -1.0
  outer loop
    vertex 16.01359637904304 39.99999999999999 1.454081767786668e-14
    vertex -2.0000000000000124 50.00000000000001 4.835352342897673e-16
    vertex 16.01359637904304 49.99999999999999 1.454081767786668e-14
  endloop
endfacet
facet normal 6.104097787692307e-16 3.95469318559937e-17 -1.0
  outer loop
    vertex 17.144093041512363 6.1636927640009756e-15 1.580506420011274e-14
    vertex 16.01359637904304 39.99999999999999 1.454081767786668e-14
    vertex 17.14409304151236 15.0 1.245653892384153e-14
  endloop
endfacet
facet normal 1.0 -2.934982021671259e-17 6.182830147175492e-17
  outer loop
    vertex 0.999999999999983 3.524958103184872e-16 4.999999999999975
    vertex 0.999999999999984 50.00000000000001 8.999999999999975
    vertex 0.9999999999999823 -3.524958103184872e-16 8.999999999999977
  endloop
endfacet
facet normal 1.0 -2.934982021671259e-17 6.182830147175492e-17
  outer loop
    vertex 0.999999999999984 50.00000000000001 8.999999999999975
    vertex 0.999999999999983 3.524958103184872e-16 4.999999999999975
    vertex 0.9999999999999827 4.000000000000001 4.999999999999975
  endloop
endfacet
facet normal 1.0 -2.934982021671259e-17 6.182830147175492e-17
  outer loop
    vertex 0.999999999999984 50.00000000000001 8.999999999999975
    vertex 0.9999999999999827 4.000000000000001 4.999999999999975
    vertex 0.999999999999984 48.0 6.999999999999976
  endloop
endfacet
facet normal 1.0 -2.934982021671259e-17 6.182830147175492e-17
  outer loop
    vertex 0.999999999999984 48.0 6.999999999999976
    vertex 0.9999999999999827 4.000000000000001 4.999999999999975
    vertex 0.999999999999984 48.0 4.999999999999976
  endloop
endfacet
facet normal 1.0 -2.934982021671259e-17 6.182830147175492e-17
  outer loop
    vertex 0.999999999999984 50.00000000000001 8.999999999999975
    vertex 0.999999999999984 48.0 6.999999999999976
    vertex 0.999999999999984 50.00000000000001 6.999999999999976
  endloop
endfacet
facet normal -1.0 5.287437154777307e-17 -3.3291270974523887e-16
  outer loop
    vertex -2.0000000000000155 50.00000000000001 8.999999999999975
    vertex -2.0000000000000155 8.698267177546323e-16 2.2460142858822025e-15
    vertex -2.000000000000018 -3.524958103184872e-16 8.999999999999977
  endloop
endfacet
facet normal -1.0 5.287437154777307e-17 -3.3291270974523887e-16
  outer loop
    vertex -2.0000000000000155 8.698267177546323e-16 2.2460142858822025e-15
    vertex -2.0000000000000155 50.00000000000001 8.999999999999975
    vertex -2.0000000000000124 50.00000000000001 4.835352342897673e-16
  endloop
endfacet
facet normal -5.301473975129011e-33 2.8199664825478977e-17 1.0
  outer loop
    vertex 0.9999999999999823 -3.524958103184872e-16 8.999999999999977
    vertex -2.0000000000000155 50.00000000000001 8.999999999999975
    vertex -2.000000000000018 -3.524958103184872e-16 8.999999999999977
  endloop
endfacet
facet normal -5.301473975129011e-33 2.8199664825478977e-17 1.0
  outer loop
    vertex -2.0000000000000155 50.00000000000001 8.999999999999975
    vertex 0.9999999999999823 -3.524958103184872e-16 8.999999999999977
    vertex 0.999999999999984 50.00000000000001 8.999999999999975
  endloop
endfacet
facet normal -1.7929169802636356e-16 -1.4696292833165006e-17 1.0
  outer loop
    vertex 0.999999999999983 3.524958103184872e-16 4.999999999999975
    vertex 0.999999999999984 48.0 4.999999999999976
    vertex 0.9999999999999827 4.000000000000001 4.999999999999975
  endloop
endfacet
facet normal -1.7929169802636356e-16 -1.4696292833165006e-17 1.0
  outer loop
    vertex 0.999999999999984 48.0 4.999999999999976
    vertex 0.999999999999983 3.524958103184872e-16 4.999999999999975
    vertex 4.999999999999982 3.524958103184872e-16 4.999999999999976
  endloop
endfacet
facet normal -1.7929169802636356e-16 -1.4696292833165006e-17 1.0
  outer loop
    vertex 0.999999999999984 48.0 4.999999999999976
    vertex 4.999999999999982 3.524958103184872e-16 4.999999999999976
    vertex 4.999999999999984 48.0 4.999999999999977
  endloop
endfacet
facet normal -1.0 -2.9182732646524474e-17 -9.80006167331637e-16
  outer loop
    vertex 4.999999999999966 50.00000000000001 20.000000000000025
    vertex 4.999999999999981 48.0 6.999999999999976
    vertex 4.999999999999972 4.5824455341403335e-15 20.000000000000032
  endloop
endfacet
facet normal -1.0 -2.9182732646524474e-17 -9.80006167331637e-16
  outer loop
    vertex 4.999999999999981 48.0 6.999999999999976
    vertex 4.999999999999966 50.00000000000001 20.000000000000025
    vertex 4.999999999999981 50.00000000000001 6.999999999999976
  endloop
endfacet
facet normal -1.0 -2.9182732646524474e-17 -9.80006167331637e-16
  outer loop
    vertex 4.999999999999972 4.5824455341403335e-15 20.000000000000032
    vertex 4.999999999999984 48.0 4.999999999999977
    vertex 4.999999999999982 3.524958103184872e-16 4.999999999999976
  endloop
endfacet
facet normal -1.0 -2.9182732646524474e-17 -9.80006167331637e-16
  outer loop
    vertex 4.999999999999984 48.0 4.999999999999977
    vertex 4.999999999999972 4.5824455341403335e-15 20.000000000000032
    vertex 4.999999999999981 48.0 6.999999999999976
  endloop
endfacet
facet normal 0.9238795325112866 3.1571677630156146e-17 0.38268343236509045
  outer loop
    vertex 7.669872981077817 50.00000000000001 7.500000000000068
    vertex 7.170370868554664 1.4679079611106505e-15 8.70590477448747
    vertex 7.6698729810778135 1.2188449011987451e-15 7.5000000000000755
  endloop
endfacet
facet normal 0.9238795325112866 3.1571677630156146e-17 0.38268343236509045
  outer loop
    vertex 7.170370868554664 1.4679079611106505e-15 8.70590477448747
    vertex 7.669872981077817 50.00000000000001 7.500000000000068
    vertex 7.170370868554668 50.00000000000001 8.705904774487463
  endloop
endfacet
facet normal 0.7933533402912344 7.988235698378e-17 0.6087614290087219
  outer loop
    vertex 8.464466094067275 50.00000000000001 6.464466094067332
    vertex 7.6698729810778135 1.2188449011987451e-15 7.5000000000000755
    vertex 8.46446609406727 9.8893421316437e-16 6.4644660940673395
  endloop
endfacet
facet normal 0.7933533402912344 7.988235698378e-17 0.6087614290087219
  outer loop
    vertex 7.6698729810778135 1.2188449011987451e-15 7.5000000000000755
    vertex 8.464466094067275 50.00000000000001 6.464466094067332
    vertex 7.669872981077817 50.00000000000001 7.500000000000068
  endloop
endfacet
facet normal 0.6087614290087199 1.2274918572079564e-16 0.7933533402912357
  outer loop
    vertex 9.500000000000009 7.93843930451691e-16 5.669872981077884
    vertex 8.464466094067275 50.00000000000001 6.464466094067332
    vertex 8.46446609406727 9.8893421316437e-16 6.4644660940673395
  endloop
endfacet
facet normal 0.6087614290087199 1.2274918572079564e-16 0.7933533402912357
  outer loop
    vertex 8.464466094067275 50.00000000000001 6.464466094067332
    vertex 9.500000000000009 7.93843930451691e-16 5.669872981077884
    vertex 9.500000000000014 50.00000000000001 5.669872981077871
  endloop
endfacet
facet normal 0.382683432365089 1.5725086030355975e-16 0.9238795325112871
  outer loop
    vertex 10.705904774487404 6.468691334256414e-16 5.170370868554737
    vertex 9.500000000000014 50.00000000000001 5.669872981077871
    vertex 9.500000000000009 7.93843930451691e-16 5.669872981077884
  endloop
endfacet
facet normal 0.382683432365089 1.5725086030355975e-16 0.9238795325112871
  outer loop
    vertex 9.500000000000014 50.00000000000001 5.669872981077871
    vertex 10.705904774487404 6.468691334256414e-16 5.170370868554737
    vertex 10.70590477448741 50.00000000000001 5.170370868554724
  endloop
endfacet
facet normal 0.13052619222005069 1.8103614862596997e-16 0.9914448613738106
  outer loop
    vertex 12.000000000000009 5.5802591161621e-16 5.00000000000008
    vertex 10.70590477448741 50.00000000000001 5.170370868554724
    vertex 10.705904774487404 6.468691334256414e-16 5.170370868554737
  endloop
endfacet
facet normal 0.13052619222005069 1.8103614862596997e-16 0.9914448613738106
  outer loop
    vertex 10.70590477448741 50.00000000000001 5.170370868554724
    vertex 12.000000000000009 5.5802591161621e-16 5.00000000000008
    vertex 12.000000000000012 50.00000000000001 5.000000000000067
  endloop
endfacet
facet normal -0.13052619222005263 1.9248412259590147e-16 0.9914448613738103
  outer loop
    vertex 13.294095225512615 5.333687837693439e-16 5.17037086855474
    vertex 12.000000000000012 50.00000000000001 5.000000000000067
    vertex 12.000000000000009 5.5802591161621e-16 5.00000000000008
  endloop
endfacet
facet normal -0.13052619222005263 1.9248412259590147e-16 0.9914448613738103
  outer loop
    vertex 12.000000000000012 50.00000000000001 5.000000000000067
    vertex 13.294095225512615 5.333687837693439e-16 5.17037086855474
    vertex 13.294095225512615 50.00000000000001 5.170370868554727
  endloop
endfacet
facet normal -0.38268343236509045 1.9081462170597498e-16 0.9238795325112866
  outer loop
    vertex 14.50000000000001 5.745780923999766e-16 5.669872981077889
    vertex 13.294095225512615 50.00000000000001 5.170370868554727
    vertex 13.294095225512615 5.333687837693439e-16 5.17037086855474
  endloop
endfacet
facet normal -0.38268343236509045 1.9081462170597498e-16 0.9238795325112866
  outer loop
    vertex 13.294095225512615 50.00000000000001 5.170370868554727
    vertex 14.50000000000001 5.745780923999766e-16 5.669872981077889
    vertex 14.50000000000001 50.00000000000001 5.669872981077876
  endloop
endfacet
facet normal -0.6087614290087213 1.7614141968285822e-16 0.7933533402912347
  outer loop
    vertex 15.535533905932747 6.788454912265329e-16 6.464466094067345
    vertex 14.50000000000001 50.00000000000001 5.669872981077876
    vertex 14.50000000000001 5.745780923999766e-16 5.669872981077889
  endloop
endfacet
facet normal -0.6087614290087213 1.7614141968285822e-16 0.7933533402912347
  outer loop
    vertex 14.50000000000001 50.00000000000001 5.669872981077876
    vertex 15.535533905932747 6.788454912265329e-16 6.464466094067345
    vertex 15.535533905932747 50.00000000000001 6.464466094067338
  endloop
endfacet
facet normal -0.7933533402912356 1.4946447099581378e-16 0.6087614290087201
  outer loop
    vertex 16.3301270189222 8.390653293290067e-16 7.5000000000000835
    vertex 15.535533905932747 50.00000000000001 6.464466094067338
    vertex 15.535533905932747 6.788454912265329e-16 6.464466094067345
  endloop
endfacet
facet normal -0.7933533402912356 1.4946447099581378e-16 0.6087614290087201
  outer loop
    vertex 15.535533905932747 50.00000000000001 6.464466094067338
    vertex 16.3301270189222 8.390653293290067e-16 7.5000000000000835
    vertex 16.3301270189222 50.00000000000001 7.500000000000076
  endloop
endfacet
facet normal -0.9238795325112872 1.1260176561212165e-16 0.38268343236508917
  outer loop
    vertex 16.82962913144535 1.0443188895165158e-15 8.70590477448748
    vertex 16.3301270189222 50.00000000000001 7.500000000000076
    vertex 16.3301270189222 8.390653293290067e-16 7.5000000000000835
  endloop
endfacet
facet normal -0.9238795325112872 1.1260176561212165e-16 0.38268343236508917
  outer loop
    vertex 16.3301270189222 50.00000000000001 7.500000000000076
    vertex 16.82962913144535 1.0443188895165158e-15 8.70590477448748
    vertex 16.82962913144535 50.00000000000001 8.705904774487474
  endloop
endfacet
facet normal -0.9914448613738108 6.806543598517913e-17 0.13052619222004963
  outer loop
    vertex 17.000000000000007 1.2806184808598278e-15 10.000000000000085
    vertex 16.82962913144535 50.00000000000001 8.705904774487474
    vertex 16.82962913144535 1.0443188895165158e-15 8.70590477448748
  endloop
endfacet
facet normal -0.9914448613738108 6.806543598517913e-17 0.13052619222004963
  outer loop
    vertex 16.82962913144535 50.00000000000001 8.705904774487474
    vertex 17.000000000000007 1.2806184808598278e-15 10.000000000000085
    vertex 17.000000000000007 50.00000000000001 10.000000000000078
  endloop
endfacet
facet normal -0.9914448613738103 1.889055937929827e-17 -0.13052619222005343
  outer loop
    vertex 16.829629131445344 1.5318606767124347e-15 11.294095225512693
    vertex 17.000000000000007 50.00000000000001 10.000000000000078
    vertex 17.000000000000007 1.2806184808598278e-15 10.000000000000085
  endloop
endfacet
facet normal -0.9914448613738103 1.889055937929827e-17 -0.13052619222005343
  outer loop
    vertex 17.000000000000007 50.00000000000001 10.000000000000078
    vertex 16.829629131445344 1.5318606767124347e-15 11.294095225512693
    vertex 16.829629131445344 50.00000000000001 11.294095225512686
  endloop
endfacet
facet normal -0.9238795325112867 -3.1571677630156035e-17 -0.38268343236508984
  outer loop
    vertex 16.330127018922198 1.7809237366243394e-15 12.500000000000087
    vertex 16.829629131445344 50.00000000000001 11.294095225512686
    vertex 16.829629131445344 1.5318606767124347e-15 11.294095225512693
  endloop
endfacet
facet normal -0.9238795325112867 -3.1571677630156035e-17 -0.38268343236508984
  outer loop
    vertex 16.829629131445344 50.00000000000001 11.294095225512686
    vertex 16.330127018922198 1.7809237366243394e-15 12.500000000000087
    vertex 16.330127018922198 50.00000000000001 12.50000000000008
  endloop
endfacet
facet normal -0.7933533402912335 -7.988235698378027e-17 -0.6087614290087231
  outer loop
    vertex 15.535533905932738 2.0108344246587147e-15 13.535533905932821
    vertex 16.330127018922198 50.00000000000001 12.50000000000008
    vertex 16.330127018922198 1.7809237366243394e-15 12.500000000000087
  endloop
endfacet
facet normal -0.7933533402912335 -7.988235698378027e-17 -0.6087614290087231
  outer loop
    vertex 16.330127018922198 50.00000000000001 12.50000000000008
    vertex 15.535533905932738 2.0108344246587147e-15 13.535533905932821
    vertex 15.535533905932738 50.00000000000001 13.535533905932803
  endloop
endfacet
facet normal -0.608761429008721 -1.2274918572079544e-16 -0.7933533402912349
  outer loop
    vertex 15.535533905932738 50.00000000000001 13.535533905932803
    vertex 14.499999999999998 2.205924707371394e-15 14.33012701892228
    vertex 14.499999999999998 50.00000000000001 14.330127018922262
  endloop
endfacet
facet normal -0.608761429008721 -1.2274918572079544e-16 -0.7933533402912349
  outer loop
    vertex 14.499999999999998 2.205924707371394e-15 14.33012701892228
    vertex 15.535533905932738 50.00000000000001 13.535533905932803
    vertex 15.535533905932738 2.0108344246587147e-15 13.535533905932821
  endloop
endfacet
facet normal -0.3826834323650877 -1.5725086030355992e-16 -0.9238795325112877
  outer loop
    vertex 14.499999999999998 50.00000000000001 14.330127018922262
    vertex 13.294095225512603 2.3528995043974437e-15 14.829629131445424
    vertex 13.294095225512603 50.00000000000001 14.829629131445406
  endloop
endfacet
facet normal -0.3826834323650877 -1.5725086030355992e-16 -0.9238795325112877
  outer loop
    vertex 13.294095225512603 2.3528995043974437e-15 14.829629131445424
    vertex 14.499999999999998 50.00000000000001 14.330127018922262
    vertex 14.499999999999998 2.205924707371394e-15 14.33012701892228
  endloop
endfacet
facet normal -0.13052619222004963 -1.8103614862597007e-16 -0.9914448613738108
  outer loop
    vertex 12.000000000000004 50.00000000000001 15.000000000000062
    vertex 13.294095225512603 2.3528995043974437e-15 14.829629131445424
    vertex 12.0 2.4417427262068748e-15 15.00000000000008
  endloop
endfacet
facet normal -0.13052619222004963 -1.8103614862597007e-16 -0.9914448613738108
  outer loop
    vertex 13.294095225512603 2.3528995043974437e-15 14.829629131445424
    vertex 12.000000000000004 50.00000000000001 15.000000000000062
    vertex 13.294095225512603 50.00000000000001 14.829629131445406
  endloop
endfacet
facet normal 0.13052619222005146 -1.924841225959015e-16 -0.9914448613738106
  outer loop
    vertex 10.705904774487397 50.00000000000001 14.829629131445405
    vertex 12.0 2.4417427262068748e-15 15.00000000000008
    vertex 10.705904774487392 2.466399854053741e-15 14.82962913144542
  endloop
endfacet
facet normal 0.13052619222005146 -1.924841225959015e-16 -0.9914448613738106
  outer loop
    vertex 12.0 2.4417427262068748e-15 15.00000000000008
    vertex 10.705904774487397 50.00000000000001 14.829629131445405
    vertex 12.000000000000004 50.00000000000001 15.000000000000062
  endloop
endfacet
facet normal 0.3826834323650921 -1.908146217059749e-16 -0.923879532511286
  outer loop
    vertex 9.500000000000004 50.00000000000001 14.330127018922253
    vertex 10.705904774487392 2.466399854053741e-15 14.82962913144542
    vertex 9.5 2.425190545423108e-15 14.330127018922271
  endloop
endfacet
facet normal 0.3826834323650921 -1.908146217059749e-16 -0.923879532511286
  outer loop
    vertex 10.705904774487392 2.466399854053741e-15 14.82962913144542
    vertex 9.500000000000004 50.00000000000001 14.330127018922253
    vertex 10.705904774487397 50.00000000000001 14.829629131445405
  endloop
endfacet
facet normal 0.6087614290087221 -1.7614141968285815e-16 -0.7933533402912343
  outer loop
    vertex 8.464466094067268 50.00000000000001 13.535533905932796
    vertex 9.5 2.425190545423108e-15 14.330127018922271
    vertex 8.464466094067262 2.3209231465965516e-15 13.535533905932812
  endloop
endfacet
facet normal 0.6087614290087221 -1.7614141968285815e-16 -0.7933533402912343
  outer loop
    vertex 9.5 2.425190545423108e-15 14.330127018922271
    vertex 8.464466094067268 50.00000000000001 13.535533905932796
    vertex 9.500000000000004 50.00000000000001 14.330127018922253
  endloop
endfacet
facet normal 0.7933533402912354 -1.494644709958139e-16 -0.6087614290087207
  outer loop
    vertex 7.669872981077812 50.00000000000001 12.50000000000007
    vertex 8.464466094067262 2.3209231465965516e-15 13.535533905932812
    vertex 7.669872981077807 2.160703308494078e-15 12.500000000000076
  endloop
endfacet
facet normal 0.7933533402912354 -1.494644709958139e-16 -0.6087614290087207
  outer loop
    vertex 8.464466094067262 2.3209231465965516e-15 13.535533905932812
    vertex 7.669872981077812 50.00000000000001 12.50000000000007
    vertex 8.464466094067268 50.00000000000001 13.535533905932796
  endloop
endfacet
facet normal 0.9238795325112872 -1.1260176561212165e-16 -0.38268343236508917
  outer loop
    vertex 7.170370868554664 50.00000000000001 11.294095225512672
    vertex 7.669872981077807 2.160703308494078e-15 12.500000000000076
    vertex 7.17037086855466 1.9554497483065684e-15 11.29409522551268
  endloop
endfacet
facet normal 0.9238795325112872 -1.1260176561212165e-16 -0.38268343236508917
  outer loop
    vertex 7.669872981077807 2.160703308494078e-15 12.500000000000076
    vertex 7.170370868554664 50.00000000000001 11.294095225512672
    vertex 7.669872981077812 50.00000000000001 12.50000000000007
  endloop
endfacet
facet normal 0.9914448613738108 -6.806543598517915e-17 -0.13052619222004977
  outer loop
    vertex 7.000000000000008 50.00000000000001 10.00000000000007
    vertex 7.17037086855466 1.9554497483065684e-15 11.29409522551268
    vertex 7.000000000000004 1.7191501569632568e-15 10.000000000000076
  endloop
endfacet
facet normal 0.9914448613738108 -6.806543598517915e-17 -0.13052619222004977
  outer loop
    vertex 7.17037086855466 1.9554497483065684e-15 11.29409522551268
    vertex 7.000000000000008 50.00000000000001 10.00000000000007
    vertex 7.170370868554664 50.00000000000001 11.294095225512672
  endloop
endfacet
facet normal 0.9914448613738103 -1.8890559379298418e-17 0.13052619222005263
  outer loop
    vertex 7.170370868554668 50.00000000000001 8.705904774487463
    vertex 7.000000000000004 1.7191501569632568e-15 10.000000000000076
    vertex 7.170370868554664 1.4679079611106505e-15 8.70590477448747
  endloop
endfacet
facet normal 0.9914448613738103 -1.8890559379298418e-17 0.13052619222005263
  outer loop
    vertex 7.000000000000004 1.7191501569632568e-15 10.000000000000076
    vertex 7.170370868554668 50.00000000000001 8.705904774487463
    vertex 7.000000000000008 50.00000000000001 10.00000000000007
  endloop
endfacet
facet normal -0.9923955403605522 6.670631490778068e-17 0.1230897699749573
  outer loop
    vertex 28.99988759166729 40.00000000000002 10.02998756452034
    vertex 28.871356079858703 14.999999999999998 8.993718676044955
    vertex 28.99988759166729 14.999999999999998 10.02998756452034
  endloop
endfacet
facet normal -0.9923955403605522 6.670631490778068e-17 0.1230897699749573
  outer loop
    vertex 28.871356079858703 14.999999999999998 8.993718676044955
    vertex 28.99988759166729 40.00000000000002 10.02998756452034
    vertex 28.871356079858703 40.00000000000002 8.993718676044955
  endloop
endfacet
facet normal -0.9904384590551608 1.7446996003860505e-17 -0.13795527834932222
  outer loop
    vertex 28.85583337423053 40.00000000000002 11.064212850030463
    vertex 28.99988759166729 14.999999999999998 10.02998756452034
    vertex 28.85583337423053 14.999999999999998 11.064212850030463
  endloop
endfacet
facet normal -0.9904384590551608 1.7446996003860505e-17 -0.13795527834932222
  outer loop
    vertex 28.99988759166729 14.999999999999998 10.02998756452034
    vertex 28.85583337423053 40.00000000000002 11.064212850030463
    vertex 28.99988759166729 40.00000000000002 10.02998756452034
  endloop
endfacet
facet normal -0.9209846335421029 -3.30013068451997e-17 -0.38959890243597795
  outer loop
    vertex 28.449010484405896 40.00000000000002 12.025913788505905
    vertex 28.85583337423053 14.999999999999998 11.064212850030463
    vertex 28.449010484405896 14.999999999999998 12.025913788505905
  endloop
endfacet
facet normal -0.9209846335421029 -3.30013068451997e-17 -0.38959890243597795
  outer loop
    vertex 28.85583337423053 14.999999999999998 11.064212850030463
    vertex 28.449010484405896 40.00000000000002 12.025913788505905
    vertex 28.85583337423053 40.00000000000002 11.064212850030463
  endloop
endfacet
facet normal -0.7887672272522193 -8.120062516999778e-17 -0.6146920051642499
  outer loop
    vertex 27.807143229828313 40.00000000000002 12.849552050275511
    vertex 28.449010484405896 14.999999999999998 12.025913788505905
    vertex 27.807143229828313 14.999999999999998 12.849552050275507
  endloop
endfacet
facet normal -0.7887672272522193 -8.120062516999778e-17 -0.6146920051642499
  outer loop
    vertex 28.449010484405896 14.999999999999998 12.025913788505905
    vertex 27.807143229828313 40.00000000000002 12.849552050275511
    vertex 28.449010484405896 40.00000000000002 12.025913788505905
  endloop
endfacet
facet normal -0.6027966379245745 -1.2386625507983747e-16 -0.797894863567143
  outer loop
    vertex 27.807143229828313 40.00000000000002 12.849552050275511
    vertex 26.973973803161456 14.999999999999998 13.47899804892626
    vertex 26.973973803161456 40.00000000000002 13.478998048926261
  endloop
endfacet
facet normal -0.6027966379245745 -1.2386625507983747e-16 -0.797894863567143
  outer loop
    vertex 26.973973803161456 14.999999999999998 13.47899804892626
    vertex 27.807143229828313 40.00000000000002 12.849552050275511
    vertex 27.807143229828313 14.999999999999998 12.849552050275507
  endloop
endfacet
facet normal -0.3757464538909105 -1.5809060440465206e-16 -0.9267225056015453
  outer loop
    vertex 26.973973803161456 40.00000000000002 13.478998048926261
    vertex 26.0062813239551 14.999999999999998 13.8713560798588
    vertex 26.0062813239551 40.00000000000002 13.871356079858803
  endloop
endfacet
facet normal -0.3757464538909105 -1.5809060440465206e-16 -0.9267225056015453
  outer loop
    vertex 26.0062813239551 14.999999999999998 13.8713560798588
    vertex 26.973973803161456 40.00000000000002 13.478998048926261
    vertex 26.973973803161456 14.999999999999998 13.47899804892626
  endloop
endfacet
facet normal -0.12308976997495978 -1.8154134029636547e-16 -0.9923955403605519
  outer loop
    vertex 26.0062813239551 40.00000000000002 13.871356079858803
    vertex 24.970012435479713 14.999999999999998 13.999887591667388
    vertex 24.970012435479703 40.00000000000002 13.99988759166739
  endloop
endfacet
facet normal -0.12308976997495978 -1.8154134029636547e-16 -0.9923955403605519
  outer loop
    vertex 24.970012435479713 14.999999999999998 13.999887591667388
    vertex 26.0062813239551 40.00000000000002 13.871356079858803
    vertex 26.0062813239551 14.999999999999998 13.8713560798588
  endloop
endfacet
facet normal 0.13795527834932506 -1.9262033385813175e-16 -0.9904384590551603
  outer loop
    vertex 24.970012435479703 40.00000000000002 13.99988759166739
    vertex 23.935787149969592 14.999999999999998 13.855833374230631
    vertex 23.93578714996958 40.00000000000002 13.855833374230633
  endloop
endfacet
facet normal 0.13795527834932506 -1.9262033385813175e-16 -0.9904384590551603
  outer loop
    vertex 23.935787149969592 14.999999999999998 13.855833374230631
    vertex 24.970012435479703 40.00000000000002 13.99988759166739
    vertex 24.970012435479713 14.999999999999998 13.999887591667388
  endloop
endfacet
facet normal 0.38959890243597656 -1.9057256998761872e-16 -0.9209846335421034
  outer loop
    vertex 23.93578714996958 40.00000000000002 13.855833374230633
    vertex 22.974086211494154 14.999999999999998 13.449010484405997
    vertex 22.974086211494143 40.00000000000002 13.449010484406
  endloop
endfacet
facet normal 0.38959890243597656 -1.9057256998761872e-16 -0.9209846335421034
  outer loop
    vertex 22.974086211494154 14.999999999999998 13.449010484405997
    vertex 23.93578714996958 40.00000000000002 13.855833374230633
    vertex 23.935787149969592 14.999999999999998 13.855833374230631
  endloop
endfacet
facet normal 0.6146920051642482 -1.7553760040851197e-16 -0.7887672272522204
  outer loop
    vertex 22.974086211494143 40.00000000000002 13.449010484406
    vertex 22.150447949724548 14.999999999999998 12.807143229828416
    vertex 22.150447949724537 40.00000000000002 12.807143229828418
  endloop
endfacet
facet normal 0.6146920051642482 -1.7553760040851197e-16 -0.7887672272522204
  outer loop
    vertex 22.150447949724548 14.999999999999998 12.807143229828416
    vertex 22.974086211494143 40.00000000000002 13.449010484406
    vertex 22.974086211494154 14.999999999999998 13.449010484405997
  endloop
endfacet
facet normal 0.797894863567143 -1.485400334511659e-16 -0.6027966379245745
  outer loop
    vertex 21.52100195107379 40.00000000000002 11.973973803161563
    vertex 22.150447949724548 14.999999999999998 12.807143229828416
    vertex 21.5210019510738 14.999999999999998 11.973973803161563
  endloop
endfacet
facet normal 0.797894863567143 -1.485400334511659e-16 -0.6027966379245745
  outer loop
    vertex 22.150447949724548 14.999999999999998 12.807143229828416
    vertex 21.52100195107379 40.00000000000002 11.973973803161563
    vertex 22.150447949724537 40.00000000000002 12.807143229828418
  endloop
endfacet
facet normal 0.9267225056015446 -1.1141970868813437e-16 -0.3757464538909124
  outer loop
    vertex 21.128643920141243 40.00000000000002 11.006281323955202
    vertex 21.5210019510738 14.999999999999998 11.973973803161563
    vertex 21.128643920141254 14.999999999999998 11.006281323955202
  endloop
endfacet
facet normal 0.9267225056015446 -1.1141970868813437e-16 -0.3757464538909124
  outer loop
    vertex 21.5210019510738 14.999999999999998 11.973973803161563
    vertex 21.128643920141243 40.00000000000002 11.006281323955202
    vertex 21.52100195107379 40.00000000000002 11.973973803161563
  endloop
endfacet
facet normal 0.9923955403605522 -6.670631490778068e-17 -0.1230897699749573
  outer loop
    vertex 21.000112408332658 40.00000000000002 9.970012435479818
    vertex 21.128643920141254 14.999999999999998 11.006281323955202
    vertex 21.00011240833267 14.999999999999998 9.970012435479818
  endloop
endfacet
facet normal 0.9923955403605522 -6.670631490778068e-17 -0.1230897699749573
  outer loop
    vertex 21.128643920141254 14.999999999999998 11.006281323955202
    vertex 21.000112408332658 40.00000000000002 9.970012435479818
    vertex 21.128643920141243 40.00000000000002 11.006281323955202
  endloop
endfacet
facet normal 0.9904384590551608 -1.7446996003860505e-17 0.13795527834932222
  outer loop
    vertex 21.14416662576941 40.00000000000002 8.935787149969693
    vertex 21.00011240833267 14.999999999999998 9.970012435479818
    vertex 21.144166625769422 14.999999999999998 8.935787149969693
  endloop
endfacet
facet normal 0.9904384590551608 -1.7446996003860505e-17 0.13795527834932222
  outer loop
    vertex 21.00011240833267 14.999999999999998 9.970012435479818
    vertex 21.14416662576941 40.00000000000002 8.935787149969693
    vertex 21.000112408332658 40.00000000000002 9.970012435479818
  endloop
endfacet
facet normal 0.9209846335421026 3.30013068451998e-17 0.38959890243597833
  outer loop
    vertex 21.55098951559405 40.00000000000002 7.974086211494253
    vertex 21.144166625769422 14.999999999999998 8.935787149969693
    vertex 21.55098951559406 14.999999999999998 7.974086211494253
  endloop
endfacet
facet normal 0.9209846335421026 3.30013068451998e-17 0.38959890243597833
  outer loop
    vertex 21.144166625769422 14.999999999999998 8.935787149969693
    vertex 21.55098951559405 40.00000000000002 7.974086211494253
    vertex 21.14416662576941 40.00000000000002 8.935787149969693
  endloop
endfacet
facet normal 0.7887672272522204 8.12006251699974e-17 0.6146920051642482
  outer loop
    vertex 22.19285677017163 40.00000000000002 7.150447949724649
    vertex 21.55098951559406 14.999999999999998 7.974086211494253
    vertex 22.19285677017164 14.999999999999998 7.150447949724649
  endloop
endfacet
facet normal 0.7887672272522204 8.12006251699974e-17 0.6146920051642482
  outer loop
    vertex 21.55098951559406 14.999999999999998 7.974086211494253
    vertex 22.19285677017163 40.00000000000002 7.150447949724649
    vertex 21.55098951559405 40.00000000000002 7.974086211494253
  endloop
endfacet
facet normal 0.6027966379245745 1.2386625507983747e-16 0.797894863567143
  outer loop
    vertex 22.19285677017164 14.999999999999998 7.150447949724649
    vertex 23.026026196838483 40.00000000000002 6.521001951073898
    vertex 22.19285677017163 40.00000000000002 7.150447949724649
  endloop
endfacet
facet normal 0.6027966379245745 1.2386625507983747e-16 0.797894863567143
  outer loop
    vertex 23.026026196838483 40.00000000000002 6.521001951073898
    vertex 22.19285677017164 14.999999999999998 7.150447949724649
    vertex 23.026026196838494 14.999999999999998 6.521001951073898
  endloop
endfacet
facet normal 0.37574645389091166 1.5809060440465194e-16 0.9267225056015449
  outer loop
    vertex 23.026026196838494 14.999999999999998 6.521001951073898
    vertex 23.993718676044843 40.00000000000002 6.128643920141355
    vertex 23.026026196838483 40.00000000000002 6.521001951073898
  endloop
endfacet
facet normal 0.37574645389091166 1.5809060440465194e-16 0.9267225056015449
  outer loop
    vertex 23.993718676044843 40.00000000000002 6.128643920141355
    vertex 23.026026196838494 14.999999999999998 6.521001951073898
    vertex 23.993718676044853 14.999999999999998 6.128643920141361
  endloop
endfacet
facet normal 0.12308976997495912 1.8154134029636552e-16 0.9923955403605519
  outer loop
    vertex 23.993718676044853 14.999999999999998 6.128643920141361
    vertex 25.02998756452023 40.00000000000002 6.000112408332768
    vertex 23.993718676044843 40.00000000000002 6.128643920141355
  endloop
endfacet
facet normal 0.12308976997495912 1.8154134029636552e-16 0.9923955403605519
  outer loop
    vertex 25.02998756452023 40.00000000000002 6.000112408332768
    vertex 23.993718676044853 14.999999999999998 6.128643920141361
    vertex 25.02998756452024 14.999999999999998 6.000112408332773
  endloop
endfacet
facet normal -0.1379552783493244 1.9262033385813175e-16 0.9904384590551605
  outer loop
    vertex 25.02998756452024 14.999999999999998 6.000112408332773
    vertex 26.064212850030362 40.00000000000002 6.144166625769524
    vertex 25.02998756452023 40.00000000000002 6.000112408332768
  endloop
endfacet
facet normal -0.1379552783493244 1.9262033385813175e-16 0.9904384590551605
  outer loop
    vertex 26.064212850030362 40.00000000000002 6.144166625769524
    vertex 25.02998756452024 14.999999999999998 6.000112408332773
    vertex 26.064212850030362 14.999999999999998 6.14416662576953
  endloop
endfacet
facet normal -0.3895989024359758 1.9057256998761877e-16 0.9209846335421038
  outer loop
    vertex 27.025913788505804 14.999999999999998 6.55098951559416
    vertex 26.064212850030362 40.00000000000002 6.144166625769524
    vertex 26.064212850030362 14.999999999999998 6.14416662576953
  endloop
endfacet
facet normal -0.3895989024359758 1.9057256998761877e-16 0.9209846335421038
  outer loop
    vertex 26.064212850030362 40.00000000000002 6.144166625769524
    vertex 27.025913788505804 14.999999999999998 6.55098951559416
    vertex 27.025913788505804 40.00000000000002 6.55098951559416
  endloop
endfacet
facet normal -0.6146920051642508 1.755376004085117e-16 0.7887672272522184
  outer loop
    vertex 27.849552050275403 14.999999999999998 7.192856770171741
    vertex 27.025913788505804 40.00000000000002 6.55098951559416
    vertex 27.025913788505804 14.999999999999998 6.55098951559416
  endloop
endfacet
facet normal -0.6146920051642508 1.755376004085117e-16 0.7887672272522184
  outer loop
    vertex 27.025913788505804 40.00000000000002 6.55098951559416
    vertex 27.849552050275403 14.999999999999998 7.192856770171741
    vertex 27.849552050275403 40.00000000000002 7.192856770171741
  endloop
endfacet
facet normal -0.7978948635671417 1.4854003345116614e-16 0.6027966379245762
  outer loop
    vertex 28.478998048926158 40.00000000000002 8.026026196838595
    vertex 27.849552050275403 14.999999999999998 7.192856770171741
    vertex 28.478998048926158 14.999999999999998 8.026026196838595
  endloop
endfacet
facet normal -0.7978948635671417 1.4854003345116614e-16 0.6027966379245762
  outer loop
    vertex 27.849552050275403 14.999999999999998 7.192856770171741
    vertex 28.478998048926158 40.00000000000002 8.026026196838595
    vertex 27.849552050275403 40.00000000000002 7.192856770171741
  endloop
endfacet
facet normal -0.9267225056015442 1.1141970868813444e-16 0.37574645389091277
  outer loop
    vertex 28.871356079858703 40.00000000000002 8.993718676044955
    vertex 28.478998048926158 14.999999999999998 8.026026196838595
    vertex 28.871356079858703 14.999999999999998 8.993718676044955
  endloop
endfacet
facet normal -0.9267225056015442 1.1141970868813444e-16 0.37574645389091277
  outer loop
    vertex 28.478998048926158 14.999999999999998 8.026026196838595
    vertex 28.871356079858703 40.00000000000002 8.993718676044955
    vertex 28.478998048926158 40.00000000000002 8.026026196838595
  endloop
endfacet
facet normal 5.95748797139293e-16 1.0 -1.8491956328127037e-16
  outer loop
    vertex -2.0000000000000124 50.00000000000001 4.835352342897673e-16
    vertex 0.999999999999984 50.00000000000001 6.999999999999976
    vertex 16.01359637904304 49.99999999999999 1.454081767786668e-14
  endloop
endfacet
facet normal 5.95748797139293e-16 1.0 -1.8491956328127037e-16
  outer loop
    vertex 0.999999999999984 50.00000000000001 6.999999999999976
    vertex -2.0000000000000124 50.00000000000001 4.835352342897673e-16
    vertex -2.0000000000000155 50.00000000000001 8.999999999999975
  endloop
endfacet
facet normal 5.95748797139293e-16 1.0 -1.8491956328127037e-16
  outer loop
    vertex 16.01359637904304 49.99999999999999 1.454081767786668e-14
    vertex 0.999999999999984 50.00000000000001 6.999999999999976
    vertex 19.49999999999998 49.99999999999999 3.4864036209569558
  endloop
endfacet
facet normal 5.95748797139293e-16 1.0 -1.8491956328127037e-16
  outer loop
    vertex 19.49999999999998 49.99999999999999 3.4864036209569558
    vertex 0.999999999999984 50.00000000000001 6.999999999999976
    vertex 10.70590477448741 50.00000000000001 5.170370868554724
  endloop
endfacet
facet normal 5.95748797139293e-16 1.0 -1.8491956328127037e-16
  outer loop
    vertex 19.49999999999998 49.99999999999999 3.4864036209569558
    vertex 10.70590477448741 50.00000000000001 5.170370868554724
    vertex 12.000000000000012 50.00000000000001 5.000000000000067
  endloop
endfacet
facet normal 5.95748797139293e-16 1.0 -1.8491956328127037e-16
  outer loop
    vertex 10.70590477448741 50.00000000000001 5.170370868554724
    vertex 0.999999999999984 50.00000000000001 6.999999999999976
    vertex 9.500000000000014 50.00000000000001 5.669872981077871
  endloop
endfacet
facet normal 5.95748797139293e-16 1.0 -1.8491956328127037e-16
  outer loop
    vertex 9.500000000000014 50.00000000000001 5.669872981077871
    vertex 0.999999999999984 50.00000000000001 6.999999999999976
    vertex 8.464466094067275 50.00000000000001 6.464466094067332
  endloop
endfacet
facet normal 5.95748797139293e-16 1.0 -1.8491956328127037e-16
  outer loop
    vertex 0.999999999999984 50.00000000000001 6.999999999999976
    vertex -2.0000000000000155 50.00000000000001 8.999999999999975
    vertex 0.999999999999984 50.00000000000001 8.999999999999975
  endloop
endfacet
facet normal 5.95748797139293e-16 1.0 -1.8491956328127037e-16
  outer loop
    vertex 8.464466094067275 50.00000000000001 6.464466094067332
    vertex 4.999999999999981 50.00000000000001 6.999999999999976
    vertex 7.669872981077817 50.00000000000001 7.500000000000068
  endloop
endfacet
facet normal 5.95748797139293e-16 1.0 -1.8491956328127037e-16
  outer loop
    vertex 4.999999999999981 50.00000000000001 6.999999999999976
    vertex 8.464466094067275 50.00000000000001 6.464466094067332
    vertex 0.999999999999984 50.00000000000001 6.999999999999976
  endloop
endfacet
facet normal 5.95748797139293e-16 1.0 -1.8491956328127037e-16
  outer loop
    vertex 7.669872981077817 50.00000000000001 7.500000000000068
    vertex 4.999999999999981 50.00000000000001 6.999999999999976
    vertex 7.170370868554668 50.00000000000001 8.705904774487463
  endloop
endfacet
facet normal 5.95748797139293e-16 1.0 -1.8491956328127037e-16
  outer loop
    vertex 7.170370868554668 50.00000000000001 8.705904774487463
    vertex 4.999999999999981 50.00000000000001 6.999999999999976
    vertex 4.999999999999966 50.00000000000001 20.000000000000025
  endloop
endfacet
facet normal 5.95748797139293e-16 1.0 -1.8491956328127037e-16
  outer loop
    vertex 7.170370868554668 50.00000000000001 8.705904774487463
    vertex 4.999999999999966 50.00000000000001 20.000000000000025
    vertex 7.000000000000008 50.00000000000001 10.00000000000007
  endloop
endfacet
facet normal 5.95748797139293e-16 1.0 -1.8491956328127037e-16
  outer loop
    vertex 7.000000000000008 50.00000000000001 10.00000000000007
    vertex 4.999999999999966 50.00000000000001 20.000000000000025
    vertex 7.170370868554664 50.00000000000001 11.294095225512672
  endloop
endfacet
facet normal 5.95748797139293e-16 1.0 -1.8491956328127037e-16
  outer loop
    vertex 7.170370868554664 50.00000000000001 11.294095225512672
    vertex 4.999999999999966 50.00000000000001 20.000000000000025
    vertex 7.669872981077812 50.00000000000001 12.50000000000007
  endloop
endfacet
facet normal 5.95748797139293e-16 1.0 -1.8491956328127037e-16
  outer loop
    vertex 7.669872981077812 50.00000000000001 12.50000000000007
    vertex 4.999999999999966 50.00000000000001 20.000000000000025
    vertex 8.464466094067268 50.00000000000001 13.535533905932796
  endloop
endfacet
facet normal 5.95748797139293e-16 1.0 -1.8491956328127037e-16
  outer loop
    vertex 8.464466094067268 50.00000000000001 13.535533905932796
    vertex 4.999999999999966 50.00000000000001 20.000000000000025
    vertex 9.500000000000004 50.00000000000001 14.330127018922253
  endloop
endfacet
facet normal 5.95748797139293e-16 1.0 -1.8491956328127037e-16
  outer loop
    vertex 9.500000000000004 50.00000000000001 14.330127018922253
    vertex 4.999999999999966 50.00000000000001 20.000000000000025
    vertex 10.705904774487397 50.00000000000001 14.829629131445405
  endloop
endfacet
facet normal 5.95748797139293e-16 1.0 -1.8491956328127037e-16
  outer loop
    vertex 10.705904774487397 50.00000000000001 14.829629131445405
    vertex 4.999999999999966 50.00000000000001 20.000000000000025
    vertex 12.000000000000004 50.00000000000001 15.000000000000062
  endloop
endfacet
facet normal 5.95748797139293e-16 1.0 -1.8491956328127037e-16
  outer loop
    vertex 12.000000000000004 50.00000000000001 15.000000000000062
    vertex 4.999999999999966 50.00000000000001 20.000000000000025
    vertex 19.49999999999998 49.99999999999999 15.965305649802827
  endloop
endfacet
facet normal 5.95748797139293e-16 1.0 -1.8491956328127037e-16
  outer loop
    vertex 19.49999999999998 49.99999999999999 15.965305649802827
    vertex 4.999999999999966 50.00000000000001 20.000000000000025
    vertex 15.46530564980273 50.0 20.00000000000006
  endloop
endfacet
facet normal 5.95748797139293e-16 1.0 -1.8491956328127037e-16
  outer loop
    vertex 19.49999999999998 49.99999999999999 3.4864036209569558
    vertex 16.82962913144535 50.00000000000001 8.705904774487474
    vertex 19.49999999999998 49.99999999999999 15.965305649802827
  endloop
endfacet
facet normal 5.95748797139293e-16 1.0 -1.8491956328127037e-16
  outer loop
    vertex 16.82962913144535 50.00000000000001 8.705904774487474
    vertex 19.49999999999998 49.99999999999999 3.4864036209569558
    vertex 16.3301270189222 50.00000000000001 7.500000000000076
  endloop
endfacet
facet normal 5.95748797139293e-16 1.0 -1.8491956328127037e-16
  outer loop
    vertex 16.3301270189222 50.00000000000001 7.500000000000076
    vertex 19.49999999999998 49.99999999999999 3.4864036209569558
    vertex 15.535533905932747 50.00000000000001 6.464466094067338
  endloop
endfacet
facet normal 5.95748797139293e-16 1.0 -1.8491956328127037e-16
  outer loop
    vertex 15.535533905932747 50.00000000000001 6.464466094067338
    vertex 19.49999999999998 49.99999999999999 3.4864036209569558
    vertex 14.50000000000001 50.00000000000001 5.669872981077876
  endloop
endfacet
facet normal 5.95748797139293e-16 1.0 -1.8491956328127037e-16
  outer loop
    vertex 14.50000000000001 50.00000000000001 5.669872981077876
    vertex 19.49999999999998 49.99999999999999 3.4864036209569558
    vertex 13.294095225512615 50.00000000000001 5.170370868554727
  endloop
endfacet
facet normal 5.95748797139293e-16 1.0 -1.8491956328127037e-16
  outer loop
    vertex 13.294095225512615 50.00000000000001 5.170370868554727
    vertex 19.49999999999998 49.99999999999999 3.4864036209569558
    vertex 12.000000000000012 50.00000000000001 5.000000000000067
  endloop
endfacet
facet normal 5.95748797139293e-16 1.0 -1.8491956328127037e-16
  outer loop
    vertex 19.49999999999998 49.99999999999999 15.965305649802827
    vertex 16.82962913144535 50.00000000000001 8.705904774487474
    vertex 17.000000000000007 50.00000000000001 10.000000000000078
  endloop
endfacet
facet normal 5.95748797139293e-16 1.0 -1.8491956328127037e-16
  outer loop
    vertex 19.49999999999998 49.99999999999999 15.965305649802827
    vertex 17.000000000000007 50.00000000000001 10.000000000000078
    vertex 16.829629131445344 50.00000000000001 11.294095225512686
  endloop
endfacet
facet normal 5.95748797139293e-16 1.0 -1.8491956328127037e-16
  outer loop
    vertex 19.49999999999998 49.99999999999999 15.965305649802827
    vertex 16.829629131445344 50.00000000000001 11.294095225512686
    vertex 16.330127018922198 50.00000000000001 12.50000000000008
  endloop
endfacet
facet normal 5.95748797139293e-16 1.0 -1.8491956328127037e-16
  outer loop
    vertex 19.49999999999998 49.99999999999999 15.965305649802827
    vertex 16.330127018922198 50.00000000000001 12.50000000000008
    vertex 15.535533905932738 50.00000000000001 13.535533905932803
  endloop
endfacet
facet normal 5.95748797139293e-16 1.0 -1.8491956328127037e-16
  outer loop
    vertex 19.49999999999998 49.99999999999999 15.965305649802827
    vertex 15.535533905932738 50.00000000000001 13.535533905932803
    vertex 14.499999999999998 50.00000000000001 14.330127018922262
  endloop
endfacet
facet normal 5.95748797139293e-16 1.0 -1.8491956328127037e-16
  outer loop
    vertex 19.49999999999998 49.99999999999999 15.965305649802827
    vertex 14.499999999999998 50.00000000000001 14.330127018922262
    vertex 13.294095225512603 50.00000000000001 14.829629131445406
  endloop
endfacet
facet normal 5.95748797139293e-16 1.0 -1.8491956328127037e-16
  outer loop
    vertex 19.49999999999998 49.99999999999999 15.965305649802827
    vertex 13.294095225512603 50.00000000000001 14.829629131445406
    vertex 12.000000000000004 50.00000000000001 15.000000000000062
  endloop
endfacet
facet normal 0.39093946227815407 -2.744403470152332e-15 0.9204163931795586
  outer loop
    vertex 31.768855246640477 15.021662999999991 14.788902383277758
    vertex 19.499999999999975 39.99999999999999 20.000000000000075
    vertex 19.499999999999943 15.000000000000012 20.00000000000001
  endloop
endfacet
facet normal 0.39093946227815407 -2.744403470152332e-15 0.9204163931795586
  outer loop
    vertex 19.499999999999975 39.99999999999999 20.000000000000075
    vertex 31.768855246640477 15.021662999999991 14.788902383277758
    vertex 31.768855246640477 39.999999999999986 14.788902383277758
  endloop
endfacet
facet normal 0.7071067811865472 -3.0916009241927864e-16 -0.7071067811865478
  outer loop
    vertex 26.31751682181823 39.99999999999999 2.2311192357159358e-14
    vertex 31.768855246640477 15.021662999999991 5.451338424822271
    vertex 26.317516821818202 14.999999999999998 1.548067879438363e-14
  endloop
endfacet
facet normal 0.7071067811865472 -3.0916009241927864e-16 -0.7071067811865478
  outer loop
    vertex 31.768855246640477 15.021662999999991 5.451338424822271
    vertex 26.31751682181823 39.99999999999999 2.2311192357159358e-14
    vertex 31.768855246640477 39.999999999999986 5.451338424822271
  endloop
endfacet
facet normal 0.0 -1.0 0.0
  outer loop
    vertex 4.999999999999984 48.0 4.999999999999977
    vertex 0.999999999999984 48.0 6.999999999999976
    vertex 0.999999999999984 48.0 4.999999999999976
  endloop
endfacet
facet normal 0.0 -1.0 0.0
  outer loop
    vertex 0.999999999999984 48.0 6.999999999999976
    vertex 4.999999999999984 48.0 4.999999999999977
    vertex 4.999999999999981 48.0 6.999999999999976
  endloop
endfacet
facet normal -0.0 0.0 1.0
  outer loop
    vertex 4.999999999999981 48.0 6.999999999999976
    vertex 0.999999999999984 50.00000000000001 6.999999999999976
    vertex 0.999999999999984 48.0 6.999999999999976
  endloop
endfacet
facet normal -0.0 0.0 1.0
  outer loop
    vertex 0.999999999999984 50.00000000000001 6.999999999999976
    vertex 4.999999999999981 48.0 6.999999999999976
    vertex 4.999999999999981 50.00000000000001 6.999999999999976
  endloop
endfacet
facet normal 5.432195478161842e-16 1.0 -3.354081957536336e-17
  outer loop
    vertex 19.49999999999998 39.99999999999999 3.4864036209569558
    vertex 26.31751682181823 39.99999999999999 2.2311192357159358e-14
    vertex 19.499999999999975 39.99999999999999 1.6540943340415883e-14
  endloop
endfacet
facet normal 5.432195478161842e-16 1.0 -3.354081957536336e-17
  outer loop
    vertex 26.31751682181823 39.99999999999999 2.2311192357159358e-14
    vertex 19.49999999999998 39.99999999999999 3.4864036209569558
    vertex 31.768855246640477 39.999999999999986 5.451338424822271
  endloop
endfacet
facet normal 5.432195478161842e-16 1.0 -3.354081957536336e-17
  outer loop
    vertex 31.768855246640477 39.999999999999986 5.451338424822271
    vertex 19.49999999999998 39.99999999999999 3.4864036209569558
    vertex 25.02998756452023 40.00000000000002 6.000112408332768
  endloop
endfacet
facet normal 5.432195478161842e-16 1.0 -3.354081957536336e-17
  outer loop
    vertex 25.02998756452023 40.00000000000002 6.000112408332768
    vertex 19.49999999999998 39.99999999999999 3.4864036209569558
    vertex 23.993718676044843 40.00000000000002 6.128643920141355
  endloop
endfacet
facet normal 5.432195478161842e-16 1.0 -3.354081957536336e-17
  outer loop
    vertex 23.993718676044843 40.00000000000002 6.128643920141355
    vertex 19.49999999999998 39.99999999999999 3.4864036209569558
    vertex 23.026026196838483 40.00000000000002 6.521001951073898
  endloop
endfacet
facet normal 5.432195478161842e-16 1.0 -3.354081957536336e-17
  outer loop
    vertex 23.026026196838483 40.00000000000002 6.521001951073898
    vertex 19.49999999999998 39.99999999999999 3.4864036209569558
    vertex 22.19285677017163 40.00000000000002 7.150447949724649
  endloop
endfacet
facet normal 5.432195478161842e-16 1.0 -3.354081957536336e-17
  outer loop
    vertex 22.19285677017163 40.00000000000002 7.150447949724649
    vertex 19.49999999999998 39.99999999999999 3.4864036209569558
    vertex 21.55098951559405 40.00000000000002 7.974086211494253
  endloop
endfacet
facet normal 5.432195478161842e-16 1.0 -3.354081957536336e-17
  outer loop
    vertex 21.55098951559405 40.00000000000002 7.974086211494253
    vertex 19.49999999999998 39.99999999999999 3.4864036209569558
    vertex 21.14416662576941 40.00000000000002 8.935787149969693
  endloop
endfacet
facet normal 5.432195478161842e-16 1.0 -3.354081957536336e-17
  outer loop
    vertex 21.14416662576941 40.00000000000002 8.935787149969693
    vertex 19.49999999999998 39.99999999999999 3.4864036209569558
    vertex 19.49999999999997 40.0 15.965305649802827
  endloop
endfacet
facet normal 5.432195478161842e-16 1.0 -3.354081957536336e-17
  outer loop
    vertex 21.14416662576941 40.00000000000002 8.935787149969693
    vertex 19.49999999999997 40.0 15.965305649802827
    vertex 21.000112408332658 40.00000000000002 9.970012435479818
  endloop
endfacet
facet normal 5.432195478161842e-16 1.0 -3.354081957536336e-17
  outer loop
    vertex 21.000112408332658 40.00000000000002 9.970012435479818
    vertex 19.49999999999997 40.0 15.965305649802827
    vertex 21.128643920141243 40.00000000000002 11.006281323955202
  endloop
endfacet
facet normal 5.432195478161842e-16 1.0 -3.354081957536336e-17
  outer loop
    vertex 21.128643920141243 40.00000000000002 11.006281323955202
    vertex 19.49999999999997 40.0 15.965305649802827
    vertex 21.52100195107379 40.00000000000002 11.973973803161563
  endloop
endfacet
facet normal 5.432195478161842e-16 1.0 -3.354081957536336e-17
  outer loop
    vertex 21.52100195107379 40.00000000000002 11.973973803161563
    vertex 19.49999999999997 40.0 15.965305649802827
    vertex 22.150447949724537 40.00000000000002 12.807143229828418
  endloop
endfacet
facet normal 5.432195478161842e-16 1.0 -3.354081957536336e-17
  outer loop
    vertex 22.150447949724537 40.00000000000002 12.807143229828418
    vertex 19.49999999999997 40.0 15.965305649802827
    vertex 22.974086211494143 40.00000000000002 13.449010484406
  endloop
endfacet
facet normal 5.432195478161842e-16 1.0 -3.354081957536336e-17
  outer loop
    vertex 22.974086211494143 40.00000000000002 13.449010484406
    vertex 19.49999999999997 40.0 15.965305649802827
    vertex 23.93578714996958 40.00000000000002 13.855833374230633
  endloop
endfacet
facet normal 5.432195478161842e-16 1.0 -3.354081957536336e-17
  outer loop
    vertex 23.93578714996958 40.00000000000002 13.855833374230633
    vertex 19.49999999999997 40.0 15.965305649802827
    vertex 24.970012435479703 40.00000000000002 13.99988759166739
  endloop
endfacet
facet normal 5.432195478161842e-16 1.0 -3.354081957536336e-17
  outer loop
    vertex 24.970012435479703 40.00000000000002 13.99988759166739
    vertex 19.49999999999997 40.0 15.965305649802827
    vertex 31.768855246640477 39.999999999999986 14.788902383277758
  endloop
endfacet
facet normal 5.432195478161842e-16 1.0 -3.354081957536336e-17
  outer loop
    vertex 31.768855246640477 39.999999999999986 14.788902383277758
    vertex 19.49999999999997 40.0 15.965305649802827
    vertex 19.499999999999975 39.99999999999999 20.000000000000075
  endloop
endfacet
facet normal 5.432195478161842e-16 1.0 -3.354081957536336e-17
  outer loop
    vertex 31.768855246640477 39.999999999999986 5.451338424822271
    vertex 28.478998048926158 40.00000000000002 8.026026196838595
    vertex 31.768855246640477 39.999999999999986 14.788902383277758
  endloop
endfacet
facet normal 5.432195478161842e-16 1.0 -3.354081957536336e-17
  outer loop
    vertex 28.478998048926158 40.00000000000002 8.026026196838595
    vertex 31.768855246640477 39.999999999999986 5.451338424822271
    vertex 27.849552050275403 40.00000000000002 7.192856770171741
  endloop
endfacet
facet normal 5.432195478161842e-16 1.0 -3.354081957536336e-17
  outer loop
    vertex 27.849552050275403 40.00000000000002 7.192856770171741
    vertex 31.768855246640477 39.999999999999986 5.451338424822271
    vertex 27.025913788505804 40.00000000000002 6.55098951559416
  endloop
endfacet
facet normal 5.432195478161842e-16 1.0 -3.354081957536336e-17
  outer loop
    vertex 27.025913788505804 40.00000000000002 6.55098951559416
    vertex 31.768855246640477 39.999999999999986 5.451338424822271
    vertex 26.064212850030362 40.00000000000002 6.144166625769524
  endloop
endfacet
facet normal 5.432195478161842e-16 1.0 -3.354081957536336e-17
  outer loop
    vertex 26.064212850030362 40.00000000000002 6.144166625769524
    vertex 31.768855246640477 39.999999999999986 5.451338424822271
    vertex 25.02998756452023 40.00000000000002 6.000112408332768
  endloop
endfacet
facet normal 5.432195478161842e-16 1.0 -3.354081957536336e-17
  outer loop
    vertex 31.768855246640477 39.999999999999986 14.788902383277758
    vertex 28.478998048926158 40.00000000000002 8.026026196838595
    vertex 28.871356079858703 40.00000000000002 8.993718676044955
  endloop
endfacet
facet normal 5.432195478161842e-16 1.0 -3.354081957536336e-17
  outer loop
    vertex 31.768855246640477 39.999999999999986 14.788902383277758
    vertex 28.871356079858703 40.00000000000002 8.993718676044955
    vertex 28.99988759166729 40.00000000000002 10.02998756452034
  endloop
endfacet
facet normal 5.432195478161842e-16 1.0 -3.354081957536336e-17
  outer loop
    vertex 31.768855246640477 39.999999999999986 14.788902383277758
    vertex 28.99988759166729 40.00000000000002 10.02998756452034
    vertex 28.85583337423053 40.00000000000002 11.064212850030463
  endloop
endfacet
facet normal 5.432195478161842e-16 1.0 -3.354081957536336e-17
  outer loop
    vertex 31.768855246640477 39.999999999999986 14.788902383277758
    vertex 28.85583337423053 40.00000000000002 11.064212850030463
    vertex 28.449010484405896 40.00000000000002 12.025913788505905
  endloop
endfacet
facet normal 5.432195478161842e-16 1.0 -3.354081957536336e-17
  outer loop
    vertex 31.768855246640477 39.999999999999986 14.788902383277758
    vertex 28.449010484405896 40.00000000000002 12.025913788505905
    vertex 27.807143229828313 40.00000000000002 12.849552050275511
  endloop
endfacet
facet normal 5.432195478161842e-16 1.0 -3.354081957536336e-17
  outer loop
    vertex 31.768855246640477 39.999999999999986 14.788902383277758
    vertex 27.807143229828313 40.00000000000002 12.849552050275511
    vertex 26.973973803161456 40.00000000000002 13.478998048926261
  endloop
endfacet
facet normal 5.432195478161842e-16 1.0 -3.354081957536336e-17
  outer loop
    vertex 31.768855246640477 39.999999999999986 14.788902383277758
    vertex 26.973973803161456 40.00000000000002 13.478998048926261
    vertex 26.0062813239551 40.00000000000002 13.871356079858803
  endloop
endfacet
facet normal 5.432195478161842e-16 1.0 -3.354081957536336e-17
  outer loop
    vertex 31.768855246640477 39.999999999999986 14.788902383277758
    vertex 26.0062813239551 40.00000000000002 13.871356079858803
    vertex 24.970012435479703 40.00000000000002 13.99988759166739
  endloop
endfacet
facet normal 1.0 -4.2299497238218465e-16 3.3896810104318617e-16
  outer loop
    vertex 19.49999999999998 49.99999999999999 3.4864036209569558
    vertex 19.49999999999997 40.0 15.965305649802827
    vertex 19.49999999999998 39.99999999999999 3.4864036209569558
  endloop
endfacet
facet normal 1.0 -4.2299497238218465e-16 3.3896810104318617e-16
  outer loop
    vertex 19.49999999999997 40.0 15.965305649802827
    vertex 19.49999999999998 49.99999999999999 3.4864036209569558
    vertex 19.49999999999998 49.99999999999999 15.965305649802827
  endloop
endfacet
facet normal 1.0 9.39988827515966e-17 -1.0372960097027556e-16
  outer loop
    vertex 19.499999999999932 15.0 2.3559069584875867
    vertex 19.499999999999936 1.0375491639732647e-14 15.948779466287846
    vertex 19.499999999999936 7.341086495099238e-15 2.3559069584875902
  endloop
endfacet
facet normal 1.0 9.39988827515966e-17 -1.0372960097027556e-16
  outer loop
    vertex 19.499999999999936 1.0375491639732647e-14 15.948779466287846
    vertex 19.499999999999932 15.0 2.3559069584875867
    vertex 19.499999999999936 15.000000000000009 15.948779466287846
  endloop
endfacet
facet normal 4.110550437076396e-16 -1.0 1.5997272135501727e-16
  outer loop
    vertex 19.499999999999936 7.341086495099238e-15 2.3559069584875902
    vertex 4.999999999999982 3.524958103184872e-16 4.999999999999976
    vertex 0.999999999999983 3.524958103184872e-16 4.999999999999975
  endloop
endfacet
facet normal 4.110550437076396e-16 -1.0 1.5997272135501727e-16
  outer loop
    vertex 4.999999999999982 3.524958103184872e-16 4.999999999999976
    vertex 19.499999999999936 7.341086495099238e-15 2.3559069584875902
    vertex 12.000000000000009 5.5802591161621e-16 5.00000000000008
  endloop
endfacet
facet normal 4.110550437076396e-16 -1.0 1.5997272135501727e-16
  outer loop
    vertex 12.000000000000009 5.5802591161621e-16 5.00000000000008
    vertex 19.499999999999936 7.341086495099238e-15 2.3559069584875902
    vertex 13.294095225512615 5.333687837693439e-16 5.17037086855474
  endloop
endfacet
facet normal 4.110550437076396e-16 -1.0 1.5997272135501727e-16
  outer loop
    vertex 13.294095225512615 5.333687837693439e-16 5.17037086855474
    vertex 19.499999999999936 7.341086495099238e-15 2.3559069584875902
    vertex 14.50000000000001 5.745780923999766e-16 5.669872981077889
  endloop
endfacet
facet normal 4.110550437076396e-16 -1.0 1.5997272135501727e-16
  outer loop
    vertex 14.50000000000001 5.745780923999766e-16 5.669872981077889
    vertex 19.499999999999936 7.341086495099238e-15 2.3559069584875902
    vertex 15.535533905932747 6.788454912265329e-16 6.464466094067345
  endloop
endfacet
facet normal 4.110550437076396e-16 -1.0 1.5997272135501727e-16
  outer loop
    vertex 15.535533905932747 6.788454912265329e-16 6.464466094067345
    vertex 19.499999999999936 7.341086495099238e-15 2.3559069584875902
    vertex 16.3301270189222 8.390653293290067e-16 7.5000000000000835
  endloop
endfacet
facet normal 4.110550437076396e-16 -1.0 1.5997272135501727e-16
  outer loop
    vertex 16.3301270189222 8.390653293290067e-16 7.5000000000000835
    vertex 19.499999999999936 7.341086495099238e-15 2.3559069584875902
    vertex 16.82962913144535 1.0443188895165158e-15 8.70590477448748
  endloop
endfacet
facet normal 4.110550437076396e-16 -1.0 1.5997272135501727e-16
  outer loop
    vertex 16.82962913144535 1.0443188895165158e-15 8.70590477448748
    vertex 19.499999999999936 7.341086495099238e-15 2.3559069584875902
    vertex 19.499999999999936 1.0375491639732647e-14 15.948779466287846
  endloop
endfacet
facet normal 4.110550437076396e-16 -1.0 1.5997272135501727e-16
  outer loop
    vertex 16.82962913144535 1.0443188895165158e-15 8.70590477448748
    vertex 19.499999999999936 1.0375491639732647e-14 15.948779466287846
    vertex 17.000000000000007 1.2806184808598278e-15 10.000000000000085
  endloop
endfacet
facet normal 4.110550437076396e-16 -1.0 1.5997272135501727e-16
  outer loop
    vertex 17.000000000000007 1.2806184808598278e-15 10.000000000000085
    vertex 19.499999999999936 1.0375491639732647e-14 15.948779466287846
    vertex 16.829629131445344 1.5318606767124347e-15 11.294095225512693
  endloop
endfacet
facet normal 4.110550437076396e-16 -1.0 1.5997272135501727e-16
  outer loop
    vertex 16.829629131445344 1.5318606767124347e-15 11.294095225512693
    vertex 19.499999999999936 1.0375491639732647e-14 15.948779466287846
    vertex 16.330127018922198 1.7809237366243394e-15 12.500000000000087
  endloop
endfacet
facet normal 4.110550437076396e-16 -1.0 1.5997272135501727e-16
  outer loop
    vertex 16.330127018922198 1.7809237366243394e-15 12.500000000000087
    vertex 19.499999999999936 1.0375491639732647e-14 15.948779466287846
    vertex 15.535533905932738 2.0108344246587147e-15 13.535533905932821
  endloop
endfacet
facet normal 4.110550437076396e-16 -1.0 1.5997272135501727e-16
  outer loop
    vertex 15.535533905932738 2.0108344246587147e-15 13.535533905932821
    vertex 19.499999999999936 1.0375491639732647e-14 15.948779466287846
    vertex 14.499999999999998 2.205924707371394e-15 14.33012701892228
  endloop
endfacet
facet normal 4.110550437076396e-16 -1.0 1.5997272135501727e-16
  outer loop
    vertex 14.499999999999998 2.205924707371394e-15 14.33012701892228
    vertex 19.499999999999936 1.0375491639732647e-14 15.948779466287846
    vertex 13.294095225512603 2.3528995043974437e-15 14.829629131445424
  endloop
endfacet
facet normal 4.110550437076396e-16 -1.0 1.5997272135501727e-16
  outer loop
    vertex 13.294095225512603 2.3528995043974437e-15 14.829629131445424
    vertex 19.499999999999936 1.0375491639732647e-14 15.948779466287846
    vertex 12.0 2.4417427262068748e-15 15.00000000000008
  endloop
endfacet
facet normal 4.110550437076396e-16 -1.0 1.5997272135501727e-16
  outer loop
    vertex 4.999999999999982 3.524958103184872e-16 4.999999999999976
    vertex 7.170370868554664 1.4679079611106505e-15 8.70590477448747
    vertex 4.999999999999972 4.5824455341403335e-15 20.000000000000032
  endloop
endfacet
facet normal 4.110550437076396e-16 -1.0 1.5997272135501727e-16
  outer loop
    vertex 7.170370868554664 1.4679079611106505e-15 8.70590477448747
    vertex 4.999999999999982 3.524958103184872e-16 4.999999999999976
    vertex 7.6698729810778135 1.2188449011987451e-15 7.5000000000000755
  endloop
endfacet
facet normal 4.110550437076396e-16 -1.0 1.5997272135501727e-16
  outer loop
    vertex 7.6698729810778135 1.2188449011987451e-15 7.5000000000000755
    vertex 4.999999999999982 3.524958103184872e-16 4.999999999999976
    vertex 8.46446609406727 9.8893421316437e-16 6.4644660940673395
  endloop
endfacet
facet normal 4.110550437076396e-16 -1.0 1.5997272135501727e-16
  outer loop
    vertex 8.46446609406727 9.8893421316437e-16 6.4644660940673395
    vertex 4.999999999999982 3.524958103184872e-16 4.999999999999976
    vertex 9.500000000000009 7.93843930451691e-16 5.669872981077884
  endloop
endfacet
facet normal 4.110550437076396e-16 -1.0 1.5997272135501727e-16
  outer loop
    vertex 9.500000000000009 7.93843930451691e-16 5.669872981077884
    vertex 4.999999999999982 3.524958103184872e-16 4.999999999999976
    vertex 10.705904774487404 6.468691334256414e-16 5.170370868554737
  endloop
endfacet
facet normal 4.110550437076396e-16 -1.0 1.5997272135501727e-16
  outer loop
    vertex 10.705904774487404 6.468691334256414e-16 5.170370868554737
    vertex 4.999999999999982 3.524958103184872e-16 4.999999999999976
    vertex 12.000000000000009 5.5802591161621e-16 5.00000000000008
  endloop
endfacet
facet normal 4.110550437076396e-16 -1.0 1.5997272135501727e-16
  outer loop
    vertex 4.999999999999972 4.5824455341403335e-15 20.000000000000032
    vertex 7.170370868554664 1.4679079611106505e-15 8.70590477448747
    vertex 7.000000000000004 1.7191501569632568e-15 10.000000000000076
  endloop
endfacet
facet normal 4.110550437076396e-16 -1.0 1.5997272135501727e-16
  outer loop
    vertex 4.999999999999972 4.5824455341403335e-15 20.000000000000032
    vertex 7.000000000000004 1.7191501569632568e-15 10.000000000000076
    vertex 7.17037086855466 1.9554497483065684e-15 11.29409522551268
  endloop
endfacet
facet normal 4.110550437076396e-16 -1.0 1.5997272135501727e-16
  outer loop
    vertex 4.999999999999972 4.5824455341403335e-15 20.000000000000032
    vertex 7.17037086855466 1.9554497483065684e-15 11.29409522551268
    vertex 7.669872981077807 2.160703308494078e-15 12.500000000000076
  endloop
endfacet
facet normal 4.110550437076396e-16 -1.0 1.5997272135501727e-16
  outer loop
    vertex 4.999999999999972 4.5824455341403335e-15 20.000000000000032
    vertex 7.669872981077807 2.160703308494078e-15 12.500000000000076
    vertex 8.464466094067262 2.3209231465965516e-15 13.535533905932812
  endloop
endfacet
facet normal 4.110550437076396e-16 -1.0 1.5997272135501727e-16
  outer loop
    vertex 4.999999999999972 4.5824455341403335e-15 20.000000000000032
    vertex 8.464466094067262 2.3209231465965516e-15 13.535533905932812
    vertex 9.5 2.425190545423108e-15 14.330127018922271
  endloop
endfacet
facet normal 4.110550437076396e-16 -1.0 1.5997272135501727e-16
  outer loop
    vertex 4.999999999999972 4.5824455341403335e-15 20.000000000000032
    vertex 9.5 2.425190545423108e-15 14.330127018922271
    vertex 10.705904774487392 2.466399854053741e-15 14.82962913144542
  endloop
endfacet
facet normal 4.110550437076396e-16 -1.0 1.5997272135501727e-16
  outer loop
    vertex 4.999999999999972 4.5824455341403335e-15 20.000000000000032
    vertex 10.705904774487392 2.466399854053741e-15 14.82962913144542
    vertex 12.0 2.4417427262068748e-15 15.00000000000008
  endloop
endfacet
facet normal 4.110550437076396e-16 -1.0 1.5997272135501727e-16
  outer loop
    vertex 4.999999999999972 4.5824455341403335e-15 20.000000000000032
    vertex 12.0 2.4417427262068748e-15 15.00000000000008
    vertex 19.499999999999936 1.0375491639732647e-14 15.948779466287846
  endloop
endfacet
facet normal 4.110550437076396e-16 -1.0 1.5997272135501727e-16
  outer loop
    vertex 4.999999999999972 4.5824455341403335e-15 20.000000000000032
    vertex 19.499999999999936 1.0375491639732647e-14 15.948779466287846
    vertex 15.448779466287762 9.408643376302925e-15 20.00000000000002
  endloop
endfacet
facet normal 4.110550437076396e-16 -1.0 1.5997272135501727e-16
  outer loop
    vertex -2.0000000000000155 8.698267177546323e-16 2.2460142858822025e-15
    vertex 0.999999999999983 3.524958103184872e-16 4.999999999999975
    vertex -2.000000000000018 -3.524958103184872e-16 8.999999999999977
  endloop
endfacet
facet normal 4.110550437076396e-16 -1.0 1.5997272135501727e-16
  outer loop
    vertex 0.999999999999983 3.524958103184872e-16 4.999999999999975
    vertex -2.0000000000000155 8.698267177546323e-16 2.2460142858822025e-15
    vertex 17.144093041512363 6.1636927640009756e-15 1.580506420011274e-14
  endloop
endfacet
facet normal 4.110550437076396e-16 -1.0 1.5997272135501727e-16
  outer loop
    vertex 0.999999999999983 3.524958103184872e-16 4.999999999999975
    vertex 17.144093041512363 6.1636927640009756e-15 1.580506420011274e-14
    vertex 19.499999999999936 7.341086495099238e-15 2.3559069584875902
  endloop
endfacet
facet normal 4.110550437076396e-16 -1.0 1.5997272135501727e-16
  outer loop
    vertex -2.000000000000018 -3.524958103184872e-16 8.999999999999977
    vertex 0.999999999999983 3.524958103184872e-16 4.999999999999975
    vertex 0.9999999999999823 -3.524958103184872e-16 8.999999999999977
  endloop
endfacet
facet normal 6.960782458228555e-16 -1.0 6.960782458228549e-16
  outer loop
    vertex 15.448779466287762 15.000000000000009 20.00000000000002
    vertex 19.499999999999936 15.000000000000009 15.948779466287846
    vertex 19.499999999999943 15.000000000000012 20.00000000000001
  endloop
endfacet
facet normal 0.7071067811865478 -7.034450351697406e-18 0.7071067811865472
  outer loop
    vertex 19.499999999999936 1.0375491639732647e-14 15.948779466287846
    vertex 15.448779466287762 15.000000000000009 20.00000000000002
    vertex 15.448779466287762 9.408643376302925e-15 20.00000000000002
  endloop
endfacet
facet normal 0.7071067811865478 -7.034450351697406e-18 0.7071067811865472
  outer loop
    vertex 15.448779466287762 15.000000000000009 20.00000000000002
    vertex 19.499999999999936 1.0375491639732647e-14 15.948779466287846
    vertex 19.499999999999936 15.000000000000009 15.948779466287846
  endloop
endfacet
facet normal 0.7071067811865477 -2.813780140678953e-17 -0.7071067811865474
  outer loop
    vertex 17.14409304151236 15.0 1.245653892384153e-14
    vertex 19.499999999999936 7.341086495099238e-15 2.3559069584875902
    vertex 17.144093041512363 6.1636927640009756e-15 1.580506420011274e-14
  endloop
endfacet
facet normal 0.7071067811865477 -2.813780140678953e-17 -0.7071067811865474
  outer loop
    vertex 19.499999999999936 7.341086495099238e-15 2.3559069584875902
    vertex 17.14409304151236 15.0 1.245653892384153e-14
    vertex 19.499999999999932 15.0 2.3559069584875867
  endloop
endfacet
facet normal 4.19357637201444e-15 1.0 1.3978587906714782e-15
  outer loop
    vertex 19.499999999999975 39.99999999999999 20.000000000000075
    vertex 19.49999999999997 40.0 15.965305649802827
    vertex 15.46530564980272 40.000000000000014 20.00000000000006
  endloop
endfacet
facet normal 0.7071067811865464 -5.697904784874897e-16 0.7071067811865487
  outer loop
    vertex 19.49999999999997 40.0 15.965305649802827
    vertex 15.46530564980273 50.0 20.00000000000006
    vertex 15.46530564980272 40.000000000000014 20.00000000000006
  endloop
endfacet
facet normal 0.7071067811865464 -5.697904784874897e-16 0.7071067811865487
  outer loop
    vertex 15.46530564980273 50.0 20.00000000000006
    vertex 19.49999999999997 40.0 15.965305649802827
    vertex 19.49999999999998 49.99999999999999 15.965305649802827
  endloop
endfacet
facet normal -0.0 1.0 -0.0
  outer loop
    vertex 19.49999999999998 39.99999999999999 3.4864036209569558
    vertex 19.499999999999975 39.99999999999999 1.6540943340415883e-14
    vertex 16.01359637904304 39.99999999999999 1.454081767786668e-14
  endloop
endfacet
facet normal 0.7071067811865478 -7.913756645659578e-18 -0.7071067811865472
  outer loop
    vertex 16.01359637904304 49.99999999999999 1.454081767786668e-14
    vertex 19.49999999999998 39.99999999999999 3.4864036209569558
    vertex 16.01359637904304 39.99999999999999 1.454081767786668e-14
  endloop
endfacet
facet normal 0.7071067811865478 -7.913756645659578e-18 -0.7071067811865472
  outer loop
    vertex 19.49999999999998 39.99999999999999 3.4864036209569558
    vertex 16.01359637904304 49.99999999999999 1.454081767786668e-14
    vertex 19.49999999999998 49.99999999999999 3.4864036209569558
  endloop
endfacet
facet normal 1.0 -0.0 -0.0
  outer loop
    vertex 31.768855246640477 39.999999999999986 5.451338424822271
    vertex 31.768855246640477 15.021662999999991 14.788902383277758
    vertex 31.768855246640477 15.021662999999991 5.451338424822271
  endloop
endfacet
facet normal 1.0 -0.0 -0.0
  outer loop
    vertex 31.768855246640477 15.021662999999991 14.788902383277758
    vertex 31.768855246640477 39.999999999999986 5.451338424822271
    vertex 31.768855246640477 39.999999999999986 14.788902383277758
  endloop
endfacet
facet normal 0.001645658327807127 -0.9999986179459295 0.0002364633147874113
  outer loop
    vertex 31.768855246640477 15.021662999999991 5.451338424822271
    vertex 26.064212850030362 14.999999999999998 6.14416662576953
    vertex 25.02998756452024 14.999999999999998 6.000112408332773
  endloop
endfacet
facet normal 0.001645658327807127 -0.9999986179459295 0.0002364633147874113
  outer loop
    vertex 26.064212850030362 14.999999999999998 6.14416662576953
    vertex 31.768855246640477 15.021662999999991 5.451338424822271
    vertex 27.025913788505804 14.999999999999998 6.55098951559416
  endloop
endfacet
facet normal 0.001645658327807127 -0.9999986179459295 0.0002364633147874113
  outer loop
    vertex 27.025913788505804 14.999999999999998 6.55098951559416
    vertex 31.768855246640477 15.021662999999991 5.451338424822271
    vertex 27.849552050275403 14.999999999999998 7.192856770171741
  endloop
endfacet
facet normal 0.001645658327807127 -0.9999986179459295 0.0002364633147874113
  outer loop
    vertex 27.849552050275403 14.999999999999998 7.192856770171741
    vertex 31.768855246640477 15.021662999999991 5.451338424822271
    vertex 28.478998048926158 14.999999999999998 8.026026196838595
  endloop
endfacet
facet normal 0.001645658327807127 -0.9999986179459295 0.0002364633147874113
  outer loop
    vertex 28.478998048926158 14.999999999999998 8.026026196838595
    vertex 31.768855246640477 15.021662999999991 5.451338424822271
    vertex 31.768855246640477 15.021662999999991 14.788902383277758
  endloop
endfacet
facet normal 0.001645658327807127 -0.9999986179459295 0.0002364633147874113
  outer loop
    vertex 28.478998048926158 14.999999999999998 8.026026196838595
    vertex 31.768855246640477 15.021662999999991 14.788902383277758
    vertex 28.871356079858703 14.999999999999998 8.993718676044955
  endloop
endfacet
facet normal 0.001645658327807127 -0.9999986179459295 0.0002364633147874113
  outer loop
    vertex 28.871356079858703 14.999999999999998 8.993718676044955
    vertex 31.768855246640477 15.021662999999991 14.788902383277758
    vertex 28.99988759166729 14.999999999999998 10.02998756452034
  endloop
endfacet
facet normal 0.001645658327807127 -0.9999986179459295 0.0002364633147874113
  outer loop
    vertex 28.99988759166729 14.999999999999998 10.02998756452034
    vertex 31.768855246640477 15.021662999999991 14.788902383277758
    vertex 28.85583337423053 14.999999999999998 11.064212850030463
  endloop
endfacet
facet normal 0.001645658327807127 -0.9999986179459295 0.0002364633147874113
  outer loop
    vertex 28.85583337423053 14.999999999999998 11.064212850030463
    vertex 31.768855246640477 15.021662999999991 14.788902383277758
    vertex 28.449010484405896 14.999999999999998 12.025913788505905
  endloop
endfacet
facet normal 0.001645658327807127 -0.9999986179459295 0.0002364633147874113
  outer loop
    vertex 28.449010484405896 14.999999999999998 12.025913788505905
    vertex 31.768855246640477 15.021662999999991 14.788902383277758
    vertex 27.807143229828313 14.999999999999998 12.849552050275507
  endloop
endfacet
facet normal 0.001645658327807127 -0.9999986179459295 0.0002364633147874113
  outer loop
    vertex 27.807143229828313 14.999999999999998 12.849552050275507
    vertex 31.768855246640477 15.021662999999991 14.788902383277758
    vertex 26.973973803161456 14.999999999999998 13.47899804892626
  endloop
endfacet
facet normal 0.001645658327807127 -0.9999986179459295 0.0002364633147874113
  outer loop
    vertex 26.973973803161456 14.999999999999998 13.47899804892626
    vertex 31.768855246640477 15.021662999999991 14.788902383277758
    vertex 26.0062813239551 14.999999999999998 13.8713560798588
  endloop
endfacet
facet normal 0.001645658327807127 -0.9999986179459295 0.0002364633147874113
  outer loop
    vertex 26.0062813239551 14.999999999999998 13.8713560798588
    vertex 31.768855246640477 15.021662999999991 14.788902383277758
    vertex 24.970012435479713 14.999999999999998 13.999887591667388
  endloop
endfacet
facet normal 0.001645658327807127 -0.9999986179459295 0.0002364633147874113
  outer loop
    vertex 26.317516821818202 14.999999999999998 1.548067879438363e-14
    vertex 19.499999999999932 15.0 2.3559069584875867
    vertex 19.499999999999943 15.000000000000007 9.922590516484944e-15
  endloop
endfacet
facet normal 0.001645658327807127 -0.9999986179459295 0.0002364633147874113
  outer loop
    vertex 19.499999999999932 15.0 2.3559069584875867
    vertex 26.317516821818202 14.999999999999998 1.548067879438363e-14
    vertex 31.768855246640477 15.021662999999991 5.451338424822271
  endloop
endfacet
facet normal 0.001645658327807127 -0.9999986179459295 0.0002364633147874113
  outer loop
    vertex 19.499999999999932 15.0 2.3559069584875867
    vertex 31.768855246640477 15.021662999999991 5.451338424822271
    vertex 25.02998756452024 14.999999999999998 6.000112408332773
  endloop
endfacet
facet normal 0.001645658327807127 -0.9999986179459295 0.0002364633147874113
  outer loop
    vertex 19.499999999999932 15.0 2.3559069584875867
    vertex 25.02998756452024 14.999999999999998 6.000112408332773
    vertex 23.993718676044853 14.999999999999998 6.128643920141361
  endloop
endfacet
facet normal 0.001645658327807127 -0.9999986179459295 0.0002364633147874113
  outer loop
    vertex 19.499999999999932 15.0 2.3559069584875867
    vertex 23.993718676044853 14.999999999999998 6.128643920141361
    vertex 23.026026196838494 14.999999999999998 6.521001951073898
  endloop
endfacet
facet normal 0.001645658327807127 -0.9999986179459295 0.0002364633147874113
  outer loop
    vertex 19.499999999999932 15.0 2.3559069584875867
    vertex 23.026026196838494 14.999999999999998 6.521001951073898
    vertex 22.19285677017164 14.999999999999998 7.150447949724649
  endloop
endfacet
facet normal 0.001645658327807127 -0.9999986179459295 0.0002364633147874113
  outer loop
    vertex 19.499999999999932 15.0 2.3559069584875867
    vertex 22.19285677017164 14.999999999999998 7.150447949724649
    vertex 21.55098951559406 14.999999999999998 7.974086211494253
  endloop
endfacet
facet normal 0.001645658327807127 -0.9999986179459295 0.0002364633147874113
  outer loop
    vertex 19.499999999999932 15.0 2.3559069584875867
    vertex 21.55098951559406 14.999999999999998 7.974086211494253
    vertex 21.144166625769422 14.999999999999998 8.935787149969693
  endloop
endfacet
facet normal 0.001645658327807127 -0.9999986179459295 0.0002364633147874113
  outer loop
    vertex 19.499999999999932 15.0 2.3559069584875867
    vertex 21.144166625769422 14.999999999999998 8.935787149969693
    vertex 19.499999999999936 15.000000000000009 15.948779466287846
  endloop
endfacet
facet normal 0.001645658327807127 -0.9999986179459295 0.0002364633147874113
  outer loop
    vertex 19.499999999999936 15.000000000000009 15.948779466287846
    vertex 21.144166625769422 14.999999999999998 8.935787149969693
    vertex 21.00011240833267 14.999999999999998 9.970012435479818
  endloop
endfacet
facet normal 0.001645658327807127 -0.9999986179459295 0.0002364633147874113
  outer loop
    vertex 19.499999999999936 15.000000000000009 15.948779466287846
    vertex 21.00011240833267 14.999999999999998 9.970012435479818
    vertex 21.128643920141254 14.999999999999998 11.006281323955202
  endloop
endfacet
facet normal 0.001645658327807127 -0.9999986179459295 0.0002364633147874113
  outer loop
    vertex 19.499999999999936 15.000000000000009 15.948779466287846
    vertex 21.128643920141254 14.999999999999998 11.006281323955202
    vertex 21.5210019510738 14.999999999999998 11.973973803161563
  endloop
endfacet
facet normal 0.001645658327807127 -0.9999986179459295 0.0002364633147874113
  outer loop
    vertex 19.499999999999936 15.000000000000009 15.948779466287846
    vertex 21.5210019510738 14.999999999999998 11.973973803161563
    vertex 22.150447949724548 14.999999999999998 12.807143229828416
  endloop
endfacet
facet normal 0.001645658327807127 -0.9999986179459295 0.0002364633147874113
  outer loop
    vertex 19.499999999999936 15.000000000000009 15.948779466287846
    vertex 22.150447949724548 14.999999999999998 12.807143229828416
    vertex 22.974086211494154 14.999999999999998 13.449010484405997
  endloop
endfacet
facet normal 0.001645658327807127 -0.9999986179459295 0.0002364633147874113
  outer loop
    vertex 19.499999999999936 15.000000000000009 15.948779466287846
    vertex 22.974086211494154 14.999999999999998 13.449010484405997
    vertex 23.935787149969592 14.999999999999998 13.855833374230631
  endloop
endfacet
facet normal 0.001645658327807127 -0.9999986179459295 0.0002364633147874113
  outer loop
    vertex 19.499999999999936 15.000000000000009 15.948779466287846
    vertex 23.935787149969592 14.999999999999998 13.855833374230631
    vertex 24.970012435479713 14.999999999999998 13.999887591667388
  endloop
endfacet
facet normal 0.001645658327807127 -0.9999986179459295 0.0002364633147874113
  outer loop
    vertex 19.499999999999936 15.000000000000009 15.948779466287846
    vertex 24.970012435479713 14.999999999999998 13.999887591667388
    vertex 31.768855246640477 15.021662999999991 14.788902383277758
  endloop
endfacet
facet normal 0.001645658327807127 -0.9999986179459295 0.0002364633147874113
  outer loop
    vertex 19.499999999999936 15.000000000000009 15.948779466287846
    vertex 31.768855246640477 15.021662999999991 14.788902383277758
    vertex 19.499999999999943 15.000000000000012 20.00000000000001
  endloop
endfacet
facet normal 2.3939540331917212e-15 -1.0 -2.3939540331917204e-15
  outer loop
    vertex 19.499999999999932 15.0 2.3559069584875867
    vertex 17.14409304151236 15.0 1.245653892384153e-14
    vertex 19.499999999999943 15.000000000000007 9.922590516484944e-15
  endloop
endfacet
endsolid СторонаДругая-10напр-8шпилька
