solid Корпус продолжение
facet normal 0.32143946530316114 0.9469301294951058 -2.0511535646462284e-19
  outer loop
    vertex 4.9175618569478985 18.3525906994923 68.00000000000001
    vertex 7.270985214936708 17.553711117714453 3.0
    vertex 4.9175618569478985 18.3525906994923 3.0
  endloop
endfacet
facet normal 0.32143946530316114 0.9469301294951058 -2.0511535646462284e-19
  outer loop
    vertex 7.270985214936708 17.553711117714453 3.0
    vertex 4.9175618569478985 18.3525906994923 68.00000000000001
    vertex 7.270985214936708 17.553711117714453 68.00000000000001
  endloop
endfacet
facet normal 0.32143946530316114 0.9469301294951058 -2.0511535646462284e-19
  outer loop
    vertex 7.270985214936708 17.553711117714453 68.00000000000001
    vertex 4.9175618569478985 18.3525906994923 68.00000000000001
    vertex 4.9175618569478985 18.3525906994923 78.00000000000004
  endloop
endfacet
facet normal 0.32143946530316114 0.9469301294951058 -2.0511535646462284e-19
  outer loop
    vertex 7.270985214936708 17.553711117714453 68.00000000000001
    vertex 4.9175618569478985 18.3525906994923 78.00000000000004
    vertex 7.270985214936708 17.553711117714453 78.00000000000004
  endloop
endfacet
facet normal 0.4422886902190025 0.8968727415326879 6.798985082402783e-19
  outer loop
    vertex 7.270985214936708 17.553711117714453 68.00000000000001
    vertex 9.499999999999998 16.454482671904337 3.0
    vertex 7.270985214936708 17.553711117714453 3.0
  endloop
endfacet
facet normal 0.4422886902190025 0.8968727415326879 6.798985082402783e-19
  outer loop
    vertex 9.499999999999998 16.454482671904337 3.0
    vertex 7.270985214936708 17.553711117714453 68.00000000000001
    vertex 9.499999999999998 16.454482671904337 68.00000000000001
  endloop
endfacet
facet normal 0.5555702330196044 0.831469612302544 1.17891722872469e-19
  outer loop
    vertex 9.499999999999998 16.454482671904337 68.00000000000001
    vertex 11.56646715116569 15.073713465533466 3.0
    vertex 9.499999999999998 16.454482671904337 3.0
  endloop
endfacet
facet normal 0.5555702330196044 0.831469612302544 1.17891722872469e-19
  outer loop
    vertex 11.56646715116569 15.073713465533466 3.0
    vertex 9.499999999999998 16.454482671904337 68.00000000000001
    vertex 11.56646715116569 15.073713465533466 68.00000000000003
  endloop
endfacet
facet normal 0.5555702330196044 0.831469612302544 1.17891722872469e-19
  outer loop
    vertex 11.56646715116569 15.073713465533466 68.00000000000003
    vertex 9.499999999999998 16.454482671904337 68.00000000000001
    vertex 9.499999999999998 16.454482671904337 78.00000000000004
  endloop
endfacet
facet normal 0.5555702330196044 0.831469612302544 1.17891722872469e-19
  outer loop
    vertex 11.56646715116569 15.073713465533466 68.00000000000003
    vertex 9.499999999999998 16.454482671904337 78.00000000000004
    vertex 11.56646715116569 15.073713465533466 78.00000000000004
  endloop
endfacet
facet normal 0.659345815100068 0.7518398074789784 5.699523910906868e-19
  outer loop
    vertex 11.56646715116569 15.073713465533466 68.00000000000003
    vertex 13.435028842544403 13.435028842544403 3.0
    vertex 11.56646715116569 15.073713465533466 3.0
  endloop
endfacet
facet normal 0.659345815100068 0.7518398074789784 5.699523910906868e-19
  outer loop
    vertex 13.435028842544403 13.435028842544403 3.0
    vertex 11.56646715116569 15.073713465533466 68.00000000000003
    vertex 13.435028842544403 13.435028842544403 68.00000000000003
  endloop
endfacet
facet normal 0.7518398074789779 0.6593458151000684 4.0585416086205423e-19
  outer loop
    vertex 13.435028842544403 13.435028842544403 3.0
    vertex 15.073713465533471 11.566467151165686 68.00000000000003
    vertex 15.073713465533471 11.566467151165686 3.0
  endloop
endfacet
facet normal 0.7518398074789779 0.6593458151000684 4.0585416086205423e-19
  outer loop
    vertex 15.073713465533471 11.566467151165686 68.00000000000003
    vertex 13.435028842544403 13.435028842544403 3.0
    vertex 15.073713465533471 11.566467151165686 78.00000000000004
  endloop
endfacet
facet normal 0.7518398074789779 0.6593458151000684 4.0585416086205423e-19
  outer loop
    vertex 15.073713465533471 11.566467151165686 78.00000000000004
    vertex 13.435028842544403 13.435028842544403 3.0
    vertex 13.435028842544403 13.435028842544403 78.00000000000004
  endloop
endfacet
facet normal 0.7518398074789779 0.6593458151000684 4.0585416086205423e-19
  outer loop
    vertex 13.435028842544403 13.435028842544403 78.00000000000004
    vertex 13.435028842544403 13.435028842544403 3.0
    vertex 13.435028842544403 13.435028842544403 68.00000000000003
  endloop
endfacet
facet normal 0.8314696123025449 0.5555702330196027 8.423299207582497e-19
  outer loop
    vertex 15.073713465533471 11.566467151165686 3.0
    vertex 16.454482671904337 9.499999999999995 68.00000000000003
    vertex 16.454482671904337 9.499999999999995 3.0
  endloop
endfacet
facet normal 0.8314696123025449 0.5555702330196027 8.423299207582497e-19
  outer loop
    vertex 16.454482671904337 9.499999999999995 68.00000000000003
    vertex 15.073713465533471 11.566467151165686 3.0
    vertex 15.073713465533471 11.566467151165686 68.00000000000003
  endloop
endfacet
facet normal 0.8968727415326884 0.4422886902190015 2.6633088284373582e-21
  outer loop
    vertex 16.454482671904337 9.499999999999995 3.0
    vertex 17.55371111771445 7.27098521493671 68.00000000000003
    vertex 17.55371111771445 7.27098521493671 3.0
  endloop
endfacet
facet normal 0.8968727415326884 0.4422886902190015 2.6633088284373582e-21
  outer loop
    vertex 17.55371111771445 7.27098521493671 68.00000000000003
    vertex 16.454482671904337 9.499999999999995 3.0
    vertex 17.55371111771445 7.27098521493671 78.00000000000004
  endloop
endfacet
facet normal 0.8968727415326884 0.4422886902190015 2.6633088284373582e-21
  outer loop
    vertex 17.55371111771445 7.27098521493671 78.00000000000004
    vertex 16.454482671904337 9.499999999999995 3.0
    vertex 16.454482671904337 9.499999999999995 78.00000000000004
  endloop
endfacet
facet normal 0.8968727415326884 0.4422886902190015 2.6633088284373582e-21
  outer loop
    vertex 16.454482671904337 9.499999999999995 78.00000000000004
    vertex 16.454482671904337 9.499999999999995 3.0
    vertex 16.454482671904337 9.499999999999995 68.00000000000003
  endloop
endfacet
facet normal 0.9469301294951062 0.32143946530315964 -0.0
  outer loop
    vertex 17.55371111771445 7.27098521493671 3.0
    vertex 18.352590699492296 4.917561856947888 68.00000000000003
    vertex 18.352590699492296 4.917561856947888 3.0
  endloop
endfacet
facet normal 0.9469301294951062 0.32143946530315964 -0.0
  outer loop
    vertex 18.352590699492296 4.917561856947888 68.00000000000003
    vertex 17.55371111771445 7.27098521493671 3.0
    vertex 17.55371111771445 7.27098521493671 68.00000000000003
  endloop
endfacet
facet normal 0.9807852804032304 0.19509032201612816 -4.3414014774813005e-20
  outer loop
    vertex 18.352590699492296 4.917561856947888 3.0
    vertex 18.837452366102394 2.4799976521809772 68.00000000000003
    vertex 18.837452366102394 2.4799976521809772 3.0
  endloop
endfacet
facet normal 0.9807852804032304 0.19509032201612816 -4.3414014774813005e-20
  outer loop
    vertex 18.837452366102394 2.4799976521809772 68.00000000000003
    vertex 18.352590699492296 4.917561856947888 3.0
    vertex 18.837452366102394 2.4799976521809772 78.00000000000004
  endloop
endfacet
facet normal 0.9807852804032304 0.19509032201612816 -4.3414014774813005e-20
  outer loop
    vertex 18.837452366102394 2.4799976521809772 78.00000000000004
    vertex 18.352590699492296 4.917561856947888 3.0
    vertex 18.352590699492296 4.917561856947888 78.00000000000004
  endloop
endfacet
facet normal 0.9807852804032304 0.19509032201612816 -4.3414014774813005e-20
  outer loop
    vertex 18.352590699492296 4.917561856947888 78.00000000000004
    vertex 18.352590699492296 4.917561856947888 3.0
    vertex 18.352590699492296 4.917561856947888 68.00000000000003
  endloop
endfacet
facet normal 0.9978589232386036 0.06540312923014392 -0.0
  outer loop
    vertex 19.0 0.0 3.0
    vertex 18.837452366102394 2.4799976521809772 68.00000000000003
    vertex 19.0 -3.0880264193192202e-30 68.00000000000003
  endloop
endfacet
facet normal 0.9978589232386036 0.06540312923014392 -0.0
  outer loop
    vertex 18.837452366102394 2.4799976521809772 68.00000000000003
    vertex 19.0 0.0 3.0
    vertex 18.837452366102394 2.4799976521809772 3.0
  endloop
endfacet
facet normal -0.9978589232386036 0.06540312923014362 0.0
  outer loop
    vertex -18.837452366102394 2.4799976521809883 68.00000000000003
    vertex -19.0 0.0 3.0
    vertex -19.0 -3.0880264193192202e-30 68.00000000000003
  endloop
endfacet
facet normal -0.9978589232386036 0.06540312923014362 0.0
  outer loop
    vertex -19.0 0.0 3.0
    vertex -18.837452366102394 2.4799976521809883 68.00000000000003
    vertex -18.837452366102394 2.4799976521809883 3.0
  endloop
endfacet
facet normal -0.9807852804032307 0.19509032201612708 -9.782809220614123e-20
  outer loop
    vertex -18.3525906994923 4.9175618569478985 78.00000000000004
    vertex -18.837452366102394 2.4799976521809883 68.00000000000003
    vertex -18.837452366102394 2.4799976521809883 78.00000000000004
  endloop
endfacet
facet normal -0.9807852804032307 0.19509032201612708 -9.782809220614123e-20
  outer loop
    vertex -18.837452366102394 2.4799976521809883 68.00000000000003
    vertex -18.3525906994923 4.9175618569478985 78.00000000000004
    vertex -18.837452366102394 2.4799976521809883 3.0
  endloop
endfacet
facet normal -0.9807852804032307 0.19509032201612708 -9.782809220614123e-20
  outer loop
    vertex -18.837452366102394 2.4799976521809883 3.0
    vertex -18.3525906994923 4.9175618569478985 78.00000000000004
    vertex -18.3525906994923 4.9175618569478985 3.0
  endloop
endfacet
facet normal -0.9807852804032307 0.19509032201612708 -9.782809220614123e-20
  outer loop
    vertex -18.3525906994923 4.9175618569478985 3.0
    vertex -18.3525906994923 4.9175618569478985 78.00000000000004
    vertex -18.3525906994923 4.9175618569478985 68.00507500000005
  endloop
endfacet
facet normal -0.9469301294951057 0.3214394653031619 0.0
  outer loop
    vertex -17.55371111771445 7.27098521493671 68.00507500000005
    vertex -18.3525906994923 4.9175618569478985 3.0
    vertex -18.3525906994923 4.9175618569478985 68.00507500000005
  endloop
endfacet
facet normal -0.9469301294951057 0.3214394653031619 0.0
  outer loop
    vertex -18.3525906994923 4.9175618569478985 3.0
    vertex -17.55371111771445 7.27098521493671 68.00507500000005
    vertex -17.55371111771445 7.27098521493671 3.0
  endloop
endfacet
facet normal -0.8968727415326879 0.44228869021900247 3.0403103667478185e-19
  outer loop
    vertex -16.45448267190433 9.500000000000005 78.00000000000004
    vertex -17.55371111771445 7.27098521493671 68.00507500000005
    vertex -17.55371111771445 7.27098521493671 78.00000000000004
  endloop
endfacet
facet normal -0.8968727415326879 0.44228869021900247 3.0403103667478185e-19
  outer loop
    vertex -17.55371111771445 7.27098521493671 68.00507500000005
    vertex -16.45448267190433 9.500000000000005 78.00000000000004
    vertex -17.55371111771445 7.27098521493671 3.0
  endloop
endfacet
facet normal -0.8968727415326879 0.44228869021900247 3.0403103667478185e-19
  outer loop
    vertex -17.55371111771445 7.27098521493671 3.0
    vertex -16.45448267190433 9.500000000000005 78.00000000000004
    vertex -16.45448267190433 9.500000000000005 3.0
  endloop
endfacet
facet normal -0.8968727415326879 0.44228869021900247 3.0403103667478185e-19
  outer loop
    vertex -16.45448267190433 9.500000000000005 3.0
    vertex -16.45448267190433 9.500000000000005 78.00000000000004
    vertex -16.45448267190433 9.500000000000005 68.00000000000004
  endloop
endfacet
facet normal -0.8314696123025456 0.555570233019602 8.423299207582478e-19
  outer loop
    vertex -15.073713465533466 11.566467151165696 68.00000000000004
    vertex -16.45448267190433 9.500000000000005 3.0
    vertex -16.45448267190433 9.500000000000005 68.00000000000004
  endloop
endfacet
facet normal -0.8314696123025456 0.555570233019602 8.423299207582478e-19
  outer loop
    vertex -16.45448267190433 9.500000000000005 3.0
    vertex -15.073713465533466 11.566467151165696 68.00000000000004
    vertex -15.073713465533466 11.566467151165696 3.0
  endloop
endfacet
facet normal -0.7518398074789766 0.65934581510007 -2.279022241997318e-19
  outer loop
    vertex -13.4350288425444 13.435028842544403 78.00000000000004
    vertex -15.073713465533466 11.566467151165696 68.00000000000004
    vertex -15.073713465533466 11.566467151165696 78.00000000000004
  endloop
endfacet
facet normal -0.7518398074789766 0.65934581510007 -2.279022241997318e-19
  outer loop
    vertex -15.073713465533466 11.566467151165696 68.00000000000004
    vertex -13.4350288425444 13.435028842544403 78.00000000000004
    vertex -15.073713465533466 11.566467151165696 3.0
  endloop
endfacet
facet normal -0.7518398074789766 0.65934581510007 -2.279022241997318e-19
  outer loop
    vertex -15.073713465533466 11.566467151165696 3.0
    vertex -13.4350288425444 13.435028842544403 78.00000000000004
    vertex -13.4350288425444 13.435028842544403 3.0
  endloop
endfacet
facet normal -0.7518398074789766 0.65934581510007 -2.279022241997318e-19
  outer loop
    vertex -13.4350288425444 13.435028842544403 3.0
    vertex -13.4350288425444 13.435028842544403 78.00000000000004
    vertex -13.4350288425444 13.435028842544403 73.00000000000004
  endloop
endfacet
facet normal -0.6593458151000702 0.7518398074789765 4.931273960032516e-19
  outer loop
    vertex -13.4350288425444 13.435028842544403 73.00000000000004
    vertex -11.566467151165686 15.073713465533476 3.0
    vertex -13.4350288425444 13.435028842544403 3.0
  endloop
endfacet
facet normal -0.6593458151000702 0.7518398074789765 4.931273960032516e-19
  outer loop
    vertex -11.566467151165686 15.073713465533476 3.0
    vertex -13.4350288425444 13.435028842544403 73.00000000000004
    vertex -11.566467151165686 15.073713465533476 73.00000000000004
  endloop
endfacet
facet normal -0.5555702330196014 0.831469612302546 1.8343450089934253e-19
  outer loop
    vertex -11.566467151165686 15.073713465533476 73.00000000000004
    vertex -9.499999999999995 16.454482671904337 3.0
    vertex -11.566467151165686 15.073713465533476 3.0
  endloop
endfacet
facet normal -0.5555702330196014 0.831469612302546 1.8343450089934253e-19
  outer loop
    vertex -9.499999999999995 16.454482671904337 3.0
    vertex -11.566467151165686 15.073713465533476 73.00000000000004
    vertex -9.499999999999995 16.454482671904337 73.00000000000004
  endloop
endfacet
facet normal -0.4422886902190016 0.8968727415326881 -0.0
  outer loop
    vertex -9.499999999999995 16.454482671904337 73.00000000000004
    vertex -7.2709852149367 17.553711117714453 3.0
    vertex -9.499999999999995 16.454482671904337 3.0
  endloop
endfacet
facet normal -0.4422886902190016 0.8968727415326881 -0.0
  outer loop
    vertex -7.2709852149367 17.553711117714453 3.0
    vertex -9.499999999999995 16.454482671904337 73.00000000000004
    vertex -7.2709852149367 17.553711117714453 73.00000000000004
  endloop
endfacet
facet normal -0.3214394653031613 0.9469301294951058 -0.0
  outer loop
    vertex -7.2709852149367 17.553711117714453 73.00000000000004
    vertex -4.917561856947891 18.3525906994923 3.0
    vertex -7.2709852149367 17.553711117714453 3.0
  endloop
endfacet
facet normal -0.3214394653031613 0.9469301294951058 -0.0
  outer loop
    vertex -4.917561856947891 18.3525906994923 3.0
    vertex -7.2709852149367 17.553711117714453 73.00000000000004
    vertex -4.917561856947891 18.3525906994923 73.00000000000004
  endloop
endfacet
facet normal -0.19509032201612556 0.9807852804032311 -0.0
  outer loop
    vertex -4.917561856947891 18.3525906994923 73.00000000000004
    vertex -2.4799976521809763 18.837452366102394 3.0
    vertex -4.917561856947891 18.3525906994923 3.0
  endloop
endfacet
facet normal -0.19509032201612556 0.9807852804032311 -0.0
  outer loop
    vertex -2.4799976521809763 18.837452366102394 3.0
    vertex -4.917561856947891 18.3525906994923 73.00000000000004
    vertex -2.4799976521809763 18.837452366102394 73.00000000000004
  endloop
endfacet
facet normal -0.06540312923014391 0.9978589232386036 -0.0
  outer loop
    vertex -2.4799976521809763 18.837452366102394 73.00000000000004
    vertex 1.4099832412739487e-15 19.0 3.0
    vertex -2.4799976521809763 18.837452366102394 3.0
  endloop
endfacet
facet normal -0.06540312923014391 0.9978589232386036 -0.0
  outer loop
    vertex 1.4099832412739487e-15 19.0 3.0
    vertex -2.4799976521809763 18.837452366102394 73.00000000000004
    vertex 1.4099832412739493e-15 19.0 73.00000000000004
  endloop
endfacet
facet normal 0.0654031292301438 0.9978589232386036 -8.049075768752147e-20
  outer loop
    vertex 1.4099832412739493e-15 19.0 73.00000000000004
    vertex 2.4799976521809826 18.837452366102394 3.0
    vertex 1.4099832412739487e-15 19.0 3.0
  endloop
endfacet
facet normal 0.0654031292301438 0.9978589232386036 -8.049075768752147e-20
  outer loop
    vertex 2.4799976521809826 18.837452366102394 3.0
    vertex 1.4099832412739493e-15 19.0 73.00000000000004
    vertex 2.4799976521809826 18.837452366102394 68.00000000000001
  endloop
endfacet
facet normal 0.0654031292301438 0.9978589232386036 -8.049075768752147e-20
  outer loop
    vertex 2.4799976521809826 18.837452366102394 68.00000000000001
    vertex 1.4099832412739493e-15 19.0 73.00000000000004
    vertex 2.4799976521809826 18.837452366102394 78.00000000000004
  endloop
endfacet
facet normal 0.0654031292301438 0.9978589232386036 -8.049075768752147e-20
  outer loop
    vertex 2.4799976521809826 18.837452366102394 78.00000000000004
    vertex 1.4099832412739493e-15 19.0 73.00000000000004
    vertex 1.4099832412739493e-15 19.0 78.00000000000004
  endloop
endfacet
facet normal 0.19509032201612547 0.9807852804032311 -0.0
  outer loop
    vertex 2.4799976521809826 18.837452366102394 68.00000000000001
    vertex 4.9175618569478985 18.3525906994923 3.0
    vertex 2.4799976521809826 18.837452366102394 3.0
  endloop
endfacet
facet normal 0.19509032201612547 0.9807852804032311 -0.0
  outer loop
    vertex 4.9175618569478985 18.3525906994923 3.0
    vertex 2.4799976521809826 18.837452366102394 68.00000000000001
    vertex 4.9175618569478985 18.3525906994923 68.00000000000001
  endloop
endfacet
facet normal 0.9469301294951059 -0.3214394653031615 2.744224369402852e-19
  outer loop
    vertex -15.151624333185099 6.276008290787475 3.0
    vertex -15.841183551140716 4.244632339681344 68.00507500000005
    vertex -15.841183551140716 4.244632339681344 3.0
  endloop
endfacet
facet normal 0.9469301294951059 -0.3214394653031615 2.744224369402852e-19
  outer loop
    vertex -15.841183551140716 4.244632339681344 68.00507500000005
    vertex -15.151624333185099 6.276008290787475 3.0
    vertex -15.151624333185099 6.276008290787475 68.00000000000001
  endloop
endfacet
facet normal -0.06540312923014385 -0.9978589232386036 6.221203131738675e-19
  outer loop
    vertex 2.140629552408848 16.25969572653049 78.00000000000004
    vertex 7.049916206369744e-16 16.400000000000002 68.00000000000001
    vertex 2.140629552408848 16.25969572653049 68.00000000000001
  endloop
endfacet
facet normal -0.06540312923014385 -0.9978589232386036 6.221203131738675e-19
  outer loop
    vertex 7.049916206369744e-16 16.400000000000002 68.00000000000001
    vertex 2.140629552408848 16.25969572653049 78.00000000000004
    vertex 7.04991620636975e-16 16.400000000000002 73.00000000000004
  endloop
endfacet
facet normal -0.06540312923014385 -0.9978589232386036 6.221203131738675e-19
  outer loop
    vertex 7.04991620636975e-16 16.400000000000002 73.00000000000004
    vertex 2.140629552408848 16.25969572653049 78.00000000000004
    vertex 7.04991620636975e-16 16.400000000000002 78.00000000000004
  endloop
endfacet
facet normal 0.8968727415326886 -0.44228869021900097 -2.8528484989428877e-31
  outer loop
    vertex -14.20281662206479 8.200000000000008 68.00000000000001
    vertex -15.151624333185099 6.276008290787475 78.00000000000004
    vertex -15.151624333185099 6.276008290787475 68.00000000000001
  endloop
endfacet
facet normal 0.8968727415326886 -0.44228869021900097 -2.8528484989428877e-31
  outer loop
    vertex -15.151624333185099 6.276008290787475 78.00000000000004
    vertex -14.20281662206479 8.200000000000008 68.00000000000001
    vertex -14.20281662206479 8.200000000000008 78.00000000000004
  endloop
endfacet
facet normal -0.32143946530316186 -0.9469301294951057 0.0
  outer loop
    vertex 6.2760082907874715 15.151624333185099 78.00000000000004
    vertex 4.244632339681344 15.841183551140716 68.00000000000001
    vertex 6.2760082907874715 15.151624333185099 68.00000000000001
  endloop
endfacet
facet normal -0.32143946530316186 -0.9469301294951057 0.0
  outer loop
    vertex 4.244632339681344 15.841183551140716 68.00000000000001
    vertex 6.2760082907874715 15.151624333185099 78.00000000000004
    vertex 4.244632339681344 15.841183551140716 78.00000000000004
  endloop
endfacet
facet normal -0.5555702330196028 -0.8314696123025448 0.0
  outer loop
    vertex 9.983687435743017 13.01099478077626 78.00000000000004
    vertex 8.200000000000001 14.202816622064798 68.00000000000001
    vertex 9.983687435743017 13.01099478077626 68.00000000000001
  endloop
endfacet
facet normal -0.5555702330196028 -0.8314696123025448 0.0
  outer loop
    vertex 8.200000000000001 14.202816622064798 68.00000000000001
    vertex 9.983687435743017 13.01099478077626 78.00000000000004
    vertex 8.200000000000001 14.202816622064798 78.00000000000004
  endloop
endfacet
facet normal 0.9807852804032304 -0.19509032201612841 -0.0
  outer loop
    vertex -15.841183551140716 4.244632339681344 3.0
    vertex -16.259695726530488 2.140629552408851 68.00000000000003
    vertex -16.259695726530488 2.140629552408851 3.0
  endloop
endfacet
facet normal 0.9807852804032304 -0.19509032201612841 -0.0
  outer loop
    vertex -16.259695726530488 2.140629552408851 68.00000000000003
    vertex -15.841183551140716 4.244632339681344 3.0
    vertex -16.259695726530488 2.140629552408851 78.00000000000004
  endloop
endfacet
facet normal 0.9807852804032304 -0.19509032201612841 -0.0
  outer loop
    vertex -16.259695726530488 2.140629552408851 78.00000000000004
    vertex -15.841183551140716 4.244632339681344 3.0
    vertex -15.841183551140716 4.244632339681344 78.00000000000004
  endloop
endfacet
facet normal 0.9807852804032304 -0.19509032201612841 -0.0
  outer loop
    vertex -15.841183551140716 4.244632339681344 78.00000000000004
    vertex -15.841183551140716 4.244632339681344 3.0
    vertex -15.841183551140716 4.244632339681344 68.00507500000005
  endloop
endfacet
facet normal -0.9978589232386036 -0.06540312923014407 0.0
  outer loop
    vertex 16.259695726530488 2.1406295524088397 68.00000000000003
    vertex 16.4 0.0 3.0
    vertex 16.4 -3.0880264193192202e-30 68.00000000000003
  endloop
endfacet
facet normal -0.9978589232386036 -0.06540312923014407 0.0
  outer loop
    vertex 16.4 0.0 3.0
    vertex 16.259695726530488 2.1406295524088397 68.00000000000003
    vertex 16.259695726530488 2.1406295524088397 3.0
  endloop
endfacet
facet normal -0.9807852804032311 -0.1950903220161249 0.0
  outer loop
    vertex 15.841183551140722 4.244632339681344 78.00000000000004
    vertex 16.259695726530488 2.1406295524088397 68.00000000000003
    vertex 16.259695726530488 2.1406295524088397 78.00000000000004
  endloop
endfacet
facet normal -0.9807852804032311 -0.1950903220161249 0.0
  outer loop
    vertex 16.259695726530488 2.1406295524088397 68.00000000000003
    vertex 15.841183551140722 4.244632339681344 78.00000000000004
    vertex 16.259695726530488 2.1406295524088397 3.0
  endloop
endfacet
facet normal -0.9807852804032311 -0.1950903220161249 0.0
  outer loop
    vertex 16.259695726530488 2.1406295524088397 3.0
    vertex 15.841183551140722 4.244632339681344 78.00000000000004
    vertex 15.841183551140722 4.244632339681344 3.0
  endloop
endfacet
facet normal -0.9807852804032311 -0.1950903220161249 0.0
  outer loop
    vertex 15.841183551140722 4.244632339681344 3.0
    vertex 15.841183551140722 4.244632339681344 78.00000000000004
    vertex 15.841183551140722 4.244632339681344 68.00000000000003
  endloop
endfacet
facet normal -0.896872741532688 -0.4422886902190019 0.0
  outer loop
    vertex 14.202816622064793 8.199999999999996 78.00000000000004
    vertex 15.151624333185099 6.276008290787475 68.00000000000001
    vertex 15.151624333185099 6.276008290787475 78.00000000000004
  endloop
endfacet
facet normal -0.896872741532688 -0.4422886902190019 0.0
  outer loop
    vertex 15.151624333185099 6.276008290787475 68.00000000000001
    vertex 14.202816622064793 8.199999999999996 78.00000000000004
    vertex 14.202816622064793 8.199999999999996 68.00000000000001
  endloop
endfacet
facet normal -0.946930129495105 -0.32143946530316386 3.221645032849015e-19
  outer loop
    vertex 15.151624333185099 6.276008290787475 68.00000000000001
    vertex 15.841183551140722 4.244632339681344 3.0
    vertex 15.841183551140722 4.244632339681344 68.00000000000003
  endloop
endfacet
facet normal -0.946930129495105 -0.32143946530316386 3.221645032849015e-19
  outer loop
    vertex 15.841183551140722 4.244632339681344 3.0
    vertex 15.151624333185099 6.276008290787475 68.00000000000001
    vertex 15.151624333185099 6.276008290787475 3.0
  endloop
endfacet
facet normal -0.7518398074789768 -0.6593458151000695 4.2071985669011704e-18
  outer loop
    vertex 11.596551211459376 11.596551211459383 78.00000000000004
    vertex 13.01099478077626 9.983687435743018 68.00000000000001
    vertex 13.01099478077626 9.983687435743018 78.00000000000004
  endloop
endfacet
facet normal -0.7518398074789768 -0.6593458151000695 4.2071985669011704e-18
  outer loop
    vertex 13.01099478077626 9.983687435743018 68.00000000000001
    vertex 11.596551211459376 11.596551211459383 78.00000000000004
    vertex 11.596551211459376 11.596551211459383 68.00000000000001
  endloop
endfacet
facet normal 0.9978589232386036 -0.06540312923014373 -0.0
  outer loop
    vertex -16.4 0.0 3.0
    vertex -16.259695726530488 2.140629552408851 68.00000000000003
    vertex -16.4 -3.0880264193192202e-30 68.00000000000003
  endloop
endfacet
facet normal 0.9978589232386036 -0.06540312923014373 -0.0
  outer loop
    vertex -16.259695726530488 2.140629552408851 68.00000000000003
    vertex -16.4 0.0 3.0
    vertex -16.259695726530488 2.140629552408851 3.0
  endloop
endfacet
facet normal 0.7518398074789785 -0.6593458151000676 2.787491177455438e-18
  outer loop
    vertex -11.596551211459378 11.596551211459383 68.00000000000001
    vertex -13.010994780776254 9.983687435743018 78.00000000000004
    vertex -13.010994780776254 9.983687435743018 68.00000000000001
  endloop
endfacet
facet normal 0.7518398074789785 -0.6593458151000676 2.787491177455438e-18
  outer loop
    vertex -13.010994780776254 9.983687435743018 78.00000000000004
    vertex -11.596551211459378 11.596551211459383 68.00000000000001
    vertex -11.596551211459378 11.596551211459383 78.00000000000004
  endloop
endfacet
facet normal 0.7518398074789785 -0.6593458151000676 2.787491177455438e-18
  outer loop
    vertex -11.596551211459378 11.596551211459383 78.00000000000004
    vertex -11.596551211459378 11.596551211459383 68.00000000000001
    vertex -11.596551211459378 11.596551211459383 73.00000000000004
  endloop
endfacet
facet normal -3.992941911500571e-17 -1.8467668087623026e-17 1.0
  outer loop
    vertex -9.659258262890685 8.988190451025208 3.0
    vertex -10.0 6.400000000000002 3.0
    vertex -9.987028089775318 6.301468559560973 3.0
  endloop
endfacet
facet normal -3.992941911500571e-17 -1.8467668087623026e-17 1.0
  outer loop
    vertex -11.927050829782143 8.291928997207467 2.9999999999999973
    vertex -13.857214150696562 8.28241373703782 2.9999999999999964
    vertex -13.847354731604149 6.282438039221677 2.9999999999999964
  endloop
endfacet
facet normal -3.992941911500571e-17 -1.8467668087623026e-17 1.0
  outer loop
    vertex 16.4 0.0 3.0
    vertex -16.259695726530488 2.140629552408851 3.0
    vertex -16.4 0.0 3.0
  endloop
endfacet
facet normal -3.992941911500571e-17 -1.8467668087623026e-17 1.0
  outer loop
    vertex -16.259695726530488 2.140629552408851 3.0
    vertex 16.4 0.0 3.0
    vertex -15.841183551140716 4.244632339681344 3.0
  endloop
endfacet
facet normal -3.992941911500571e-17 -1.8467668087623026e-17 1.0
  outer loop
    vertex -15.841183551140716 4.244632339681344 3.0
    vertex 16.4 0.0 3.0
    vertex -15.151624333185099 6.276008290787475 3.0
  endloop
endfacet
facet normal -3.992941911500571e-17 -1.8467668087623026e-17 1.0
  outer loop
    vertex -15.151624333185099 6.276008290787475 3.0
    vertex 16.4 0.0 3.0
    vertex -13.847354731604149 6.282438039221677 2.9999999999999964
  endloop
endfacet
facet normal -3.992941911500571e-17 -1.8467668087623026e-17 1.0
  outer loop
    vertex -13.847354731604149 6.282438039221677 2.9999999999999964
    vertex 16.4 0.0 3.0
    vertex -11.917191410689734 6.291953299391325 2.9999999999999973
  endloop
endfacet
facet normal -3.992941911500571e-17 -1.8467668087623026e-17 1.0
  outer loop
    vertex -13.847354731604149 6.282438039221677 2.9999999999999964
    vertex -11.917191410689734 6.291953299391325 2.9999999999999973
    vertex -11.927050829782143 8.291928997207467 2.9999999999999973
  endloop
endfacet
facet normal -3.992941911500571e-17 -1.8467668087623026e-17 1.0
  outer loop
    vertex -11.917191410689734 6.291953299391325 2.9999999999999973
    vertex 16.4 0.0 3.0
    vertex -9.987028089775318 6.301468559560973 3.0
  endloop
endfacet
facet normal -3.992941911500571e-17 -1.8467668087623026e-17 1.0
  outer loop
    vertex -9.987028089775318 6.301468559560973 3.0
    vertex 16.4 0.0 3.0
    vertex -9.659258262890685 8.988190451025208 3.0
  endloop
endfacet
facet normal -3.992941911500571e-17 -1.8467668087623026e-17 1.0
  outer loop
    vertex -9.659258262890685 8.988190451025208 3.0
    vertex 16.4 0.0 3.0
    vertex -8.66025403784439 11.399999999999999 3.0
  endloop
endfacet
facet normal -3.992941911500571e-17 -1.8467668087623026e-17 1.0
  outer loop
    vertex -8.66025403784439 11.399999999999999 3.0
    vertex 16.4 0.0 3.0
    vertex -7.071067811865477 13.471067811865476 3.0
  endloop
endfacet
facet normal -3.992941911500571e-17 -1.8467668087623026e-17 1.0
  outer loop
    vertex -7.071067811865477 13.471067811865476 3.0
    vertex 16.4 0.0 3.0
    vertex -5.0000000000000036 15.060254037844386 3.0
  endloop
endfacet
facet normal -3.992941911500571e-17 -1.8467668087623026e-17 1.0
  outer loop
    vertex -5.0000000000000036 15.060254037844386 3.0
    vertex 16.4 0.0 3.0
    vertex -2.588190451025215 16.059258262890687 3.0
  endloop
endfacet
facet normal -3.992941911500571e-17 -1.8467668087623026e-17 1.0
  outer loop
    vertex -2.588190451025215 16.059258262890687 3.0
    vertex 16.4 0.0 3.0
    vertex 9.989237952269457 6.3182541316893825 3.0
  endloop
endfacet
facet normal -3.992941911500571e-17 -1.8467668087623026e-17 1.0
  outer loop
    vertex -2.588190451025215 16.059258262890687 3.0
    vertex 9.989237952269457 6.3182541316893825 3.0
    vertex 7.049916206369744e-16 16.400000000000002 3.0
  endloop
endfacet
facet normal -3.992941911500571e-17 -1.8467668087623026e-17 1.0
  outer loop
    vertex 7.049916206369744e-16 16.400000000000002 3.0
    vertex 9.989237952269457 6.3182541316893825 3.0
    vertex 2.588190451025208 16.059258262890687 3.0
  endloop
endfacet
facet normal -3.992941911500571e-17 -1.8467668087623026e-17 1.0
  outer loop
    vertex 2.588190451025208 16.059258262890687 3.0
    vertex 9.989237952269457 6.3182541316893825 3.0
    vertex 5.0 15.060254037844391 3.0
  endloop
endfacet
facet normal -3.992941911500571e-17 -1.8467668087623026e-17 1.0
  outer loop
    vertex 5.0 15.060254037844391 3.0
    vertex 9.989237952269457 6.3182541316893825 3.0
    vertex 7.071067811865475 13.471067811865481 3.0
  endloop
endfacet
facet normal -3.992941911500571e-17 -1.8467668087623026e-17 1.0
  outer loop
    vertex 7.071067811865475 13.471067811865481 3.0
    vertex 9.989237952269457 6.3182541316893825 3.0
    vertex 8.660254037844386 11.400000000000004 3.0
  endloop
endfacet
facet normal -3.992941911500571e-17 -1.8467668087623026e-17 1.0
  outer loop
    vertex 8.660254037844386 11.400000000000004 3.0
    vertex 9.989237952269457 6.3182541316893825 3.0
    vertex 9.659258262890683 8.988190451025213 3.0
  endloop
endfacet
facet normal -3.992941911500571e-17 -1.8467668087623026e-17 1.0
  outer loop
    vertex 9.989237952269457 6.3182541316893825 3.0
    vertex 16.4 0.0 3.0
    vertex 15.151624333185099 6.276008290787475 3.0
  endloop
endfacet
facet normal -3.992941911500571e-17 -1.8467668087623026e-17 1.0
  outer loop
    vertex 15.151624333185099 6.276008290787475 3.0
    vertex 16.4 0.0 3.0
    vertex 15.841183551140722 4.244632339681344 3.0
  endloop
endfacet
facet normal -3.992941911500571e-17 -1.8467668087623026e-17 1.0
  outer loop
    vertex 15.841183551140722 4.244632339681344 3.0
    vertex 16.4 0.0 3.0
    vertex 16.259695726530488 2.1406295524088397 3.0
  endloop
endfacet
facet normal -3.992941911500571e-17 -1.8467668087623026e-17 1.0
  outer loop
    vertex 10.0 6.400000000000004 3.0
    vertex 9.659258262890683 8.988190451025213 3.0
    vertex 9.989237952269457 6.3182541316893825 3.0
  endloop
endfacet
facet normal -0.0 -0.0 1.0
  outer loop
    vertex -13.847354731604149 6.282438039221677 68.00000000000001
    vertex -14.20281662206479 8.200000000000008 68.00000000000001
    vertex -15.151624333185099 6.276008290787475 68.00000000000001
  endloop
endfacet
facet normal -0.0 -0.0 1.0
  outer loop
    vertex -14.20281662206479 8.200000000000008 68.00000000000001
    vertex -13.847354731604149 6.282438039221677 68.00000000000001
    vertex -13.857214150696562 8.28241373703782 68.00000000000001
  endloop
endfacet
facet normal -0.0 -0.0 1.0
  outer loop
    vertex -13.857214150696562 8.28241373703782 68.00000000000001
    vertex -13.010994780776254 9.983687435743018 68.00000000000001
    vertex -14.20281662206479 8.200000000000008 68.00000000000001
  endloop
endfacet
facet normal -0.0 -0.0 1.0
  outer loop
    vertex -13.010994780776254 9.983687435743018 68.00000000000001
    vertex -13.857214150696562 8.28241373703782 68.00000000000001
    vertex -8.66025403784439 11.399999999999999 68.00000000000001
  endloop
endfacet
facet normal -0.0 -0.0 1.0
  outer loop
    vertex -13.010994780776254 9.983687435743018 68.00000000000001
    vertex -8.66025403784439 11.399999999999999 68.00000000000001
    vertex -11.596551211459378 11.596551211459383 68.00000000000001
  endloop
endfacet
facet normal -0.0 -0.0 1.0
  outer loop
    vertex -11.596551211459378 11.596551211459383 68.00000000000001
    vertex -8.66025403784439 11.399999999999999 68.00000000000001
    vertex -9.983687435743013 13.01099478077626 68.00000000000001
  endloop
endfacet
facet normal -0.0 -0.0 1.0
  outer loop
    vertex -9.983687435743013 13.01099478077626 68.00000000000001
    vertex -8.66025403784439 11.399999999999999 68.00000000000001
    vertex -8.199999999999994 14.202816622064798 68.00000000000001
  endloop
endfacet
facet normal -0.0 -0.0 1.0
  outer loop
    vertex -8.199999999999994 14.202816622064798 68.00000000000001
    vertex -8.66025403784439 11.399999999999999 68.00000000000001
    vertex -7.071067811865477 13.471067811865476 68.00000000000001
  endloop
endfacet
facet normal -0.0 -0.0 1.0
  outer loop
    vertex -8.199999999999994 14.202816622064798 68.00000000000001
    vertex -7.071067811865477 13.471067811865476 68.00000000000001
    vertex -6.276008290787467 15.151624333185099 68.00000000000001
  endloop
endfacet
facet normal -0.0 -0.0 1.0
  outer loop
    vertex -6.276008290787467 15.151624333185099 68.00000000000001
    vertex -7.071067811865477 13.471067811865476 68.00000000000001
    vertex -5.0000000000000036 15.060254037844386 68.00000000000001
  endloop
endfacet
facet normal -0.0 -0.0 1.0
  outer loop
    vertex -6.276008290787467 15.151624333185099 68.00000000000001
    vertex -5.0000000000000036 15.060254037844386 68.00000000000001
    vertex -4.2446323396813375 15.841183551140716 68.00000000000001
  endloop
endfacet
facet normal -0.0 -0.0 1.0
  outer loop
    vertex -4.2446323396813375 15.841183551140716 68.00000000000001
    vertex -5.0000000000000036 15.060254037844386 68.00000000000001
    vertex -2.588190451025215 16.059258262890687 68.00000000000001
  endloop
endfacet
facet normal -0.0 -0.0 1.0
  outer loop
    vertex -4.2446323396813375 15.841183551140716 68.00000000000001
    vertex -2.588190451025215 16.059258262890687 68.00000000000001
    vertex -2.140629552408843 16.25969572653049 68.00000000000001
  endloop
endfacet
facet normal -0.0 -0.0 1.0
  outer loop
    vertex -2.140629552408843 16.25969572653049 68.00000000000001
    vertex -2.588190451025215 16.059258262890687 68.00000000000001
    vertex 7.049916206369744e-16 16.400000000000002 68.00000000000001
  endloop
endfacet
facet normal 0.004929709546205226 -0.9999878489080707 0.0
  outer loop
    vertex -9.987028089775318 6.301468559560973 3.0
    vertex -11.917191410689734 6.291953299391325 65.0
    vertex -11.917191410689734 6.291953299391325 2.9999999999999973
  endloop
endfacet
facet normal 0.004929709546205226 -0.9999878489080707 0.0
  outer loop
    vertex -11.917191410689734 6.291953299391325 65.0
    vertex -9.987028089775318 6.301468559560973 3.0
    vertex -9.987028089775318 6.301468559560973 65.0
  endloop
endfacet
facet normal 0.9914448613738098 0.13052619222005732 0.0
  outer loop
    vertex -10.0 6.400000000000002 3.0
    vertex -9.987028089775318 6.301468559560973 65.0
    vertex -9.987028089775318 6.301468559560973 3.0
  endloop
endfacet
facet normal 0.9914448613738098 0.13052619222005732 0.0
  outer loop
    vertex -9.987028089775318 6.301468559560973 65.0
    vertex -10.0 6.400000000000002 3.0
    vertex -10.0 6.400000000000002 65.0
  endloop
endfacet
facet normal 0.9914448613738105 -0.13052619222005132 2.05103504045864e-33
  outer loop
    vertex -9.659258262890685 8.988190451025208 3.0
    vertex -10.0 6.400000000000002 65.0
    vertex -10.0 6.400000000000002 3.0
  endloop
endfacet
facet normal 0.9914448613738105 -0.13052619222005132 2.05103504045864e-33
  outer loop
    vertex -10.0 6.400000000000002 65.0
    vertex -9.659258262890685 8.988190451025208 3.0
    vertex -9.659258262890685 8.988190451025208 65.0
  endloop
endfacet
facet normal 0.9238795325112871 -0.38268343236508895 2.6106777899561887e-19
  outer loop
    vertex -8.66025403784439 11.399999999999999 3.0
    vertex -9.659258262890685 8.988190451025208 65.0
    vertex -9.659258262890685 8.988190451025208 3.0
  endloop
endfacet
facet normal 0.9238795325112871 -0.38268343236508895 2.6106777899561887e-19
  outer loop
    vertex -9.659258262890685 8.988190451025208 65.0
    vertex -8.66025403784439 11.399999999999999 3.0
    vertex -8.66025403784439 11.399999999999999 65.00000000000001
  endloop
endfacet
facet normal 0.793353340291235 -0.6087614290087208 0.0
  outer loop
    vertex -7.071067811865477 13.471067811865476 3.0
    vertex -8.66025403784439 11.399999999999999 65.00000000000001
    vertex -8.66025403784439 11.399999999999999 3.0
  endloop
endfacet
facet normal 0.793353340291235 -0.6087614290087208 0.0
  outer loop
    vertex -8.66025403784439 11.399999999999999 65.00000000000001
    vertex -7.071067811865477 13.471067811865476 3.0
    vertex -8.66025403784439 11.399999999999999 68.00000000000001
  endloop
endfacet
facet normal 0.793353340291235 -0.6087614290087208 0.0
  outer loop
    vertex -8.66025403784439 11.399999999999999 68.00000000000001
    vertex -7.071067811865477 13.471067811865476 3.0
    vertex -7.071067811865477 13.471067811865476 68.00000000000001
  endloop
endfacet
facet normal 0.6087614290087207 -0.7933533402912354 0.0
  outer loop
    vertex -5.0000000000000036 15.060254037844386 68.00000000000001
    vertex -7.071067811865477 13.471067811865476 3.0
    vertex -5.0000000000000036 15.060254037844386 3.0
  endloop
endfacet
facet normal 0.6087614290087207 -0.7933533402912354 0.0
  outer loop
    vertex -7.071067811865477 13.471067811865476 3.0
    vertex -5.0000000000000036 15.060254037844386 68.00000000000001
    vertex -7.071067811865477 13.471067811865476 68.00000000000001
  endloop
endfacet
facet normal 0.3826834323650917 -0.9238795325112861 0.0
  outer loop
    vertex -2.588190451025215 16.059258262890687 68.00000000000001
    vertex -5.0000000000000036 15.060254037844386 3.0
    vertex -2.588190451025215 16.059258262890687 3.0
  endloop
endfacet
facet normal 0.3826834323650917 -0.9238795325112861 0.0
  outer loop
    vertex -5.0000000000000036 15.060254037844386 3.0
    vertex -2.588190451025215 16.059258262890687 68.00000000000001
    vertex -5.0000000000000036 15.060254037844386 68.00000000000001
  endloop
endfacet
facet normal 0.13052619222005135 -0.9914448613738105 0.0
  outer loop
    vertex 7.049916206369744e-16 16.400000000000002 68.00000000000001
    vertex -2.588190451025215 16.059258262890687 3.0
    vertex 7.049916206369744e-16 16.400000000000002 3.0
  endloop
endfacet
facet normal 0.13052619222005135 -0.9914448613738105 0.0
  outer loop
    vertex -2.588190451025215 16.059258262890687 3.0
    vertex 7.049916206369744e-16 16.400000000000002 68.00000000000001
    vertex -2.588190451025215 16.059258262890687 68.00000000000001
  endloop
endfacet
facet normal -0.0 -0.0 1.0
  outer loop
    vertex 15.151624333185099 6.276008290787475 68.00000000000001
    vertex 10.0 6.400000000000004 68.00000000000001
    vertex 9.989237952269457 6.3182541316893825 68.00000000000001
  endloop
endfacet
facet normal -0.0 -0.0 1.0
  outer loop
    vertex 10.0 6.400000000000004 68.00000000000001
    vertex 15.151624333185099 6.276008290787475 68.00000000000001
    vertex 11.596551211459376 11.596551211459383 68.00000000000001
  endloop
endfacet
facet normal -0.0 -0.0 1.0
  outer loop
    vertex 11.596551211459376 11.596551211459383 68.00000000000001
    vertex 15.151624333185099 6.276008290787475 68.00000000000001
    vertex 13.01099478077626 9.983687435743018 68.00000000000001
  endloop
endfacet
facet normal -0.0 -0.0 1.0
  outer loop
    vertex 13.01099478077626 9.983687435743018 68.00000000000001
    vertex 15.151624333185099 6.276008290787475 68.00000000000001
    vertex 14.202816622064793 8.199999999999996 68.00000000000001
  endloop
endfacet
facet normal -0.0 -0.0 1.0
  outer loop
    vertex 2.588190451025208 16.059258262890687 68.00000000000001
    vertex 2.140629552408848 16.25969572653049 68.00000000000001
    vertex 7.049916206369744e-16 16.400000000000002 68.00000000000001
  endloop
endfacet
facet normal -0.0 -0.0 1.0
  outer loop
    vertex 2.140629552408848 16.25969572653049 68.00000000000001
    vertex 2.588190451025208 16.059258262890687 68.00000000000001
    vertex 4.244632339681344 15.841183551140716 68.00000000000001
  endloop
endfacet
facet normal -0.0 -0.0 1.0
  outer loop
    vertex 4.244632339681344 15.841183551140716 68.00000000000001
    vertex 2.588190451025208 16.059258262890687 68.00000000000001
    vertex 5.0 15.060254037844391 68.00000000000001
  endloop
endfacet
facet normal -0.0 -0.0 1.0
  outer loop
    vertex 4.244632339681344 15.841183551140716 68.00000000000001
    vertex 5.0 15.060254037844391 68.00000000000001
    vertex 6.2760082907874715 15.151624333185099 68.00000000000001
  endloop
endfacet
facet normal -0.0 -0.0 1.0
  outer loop
    vertex 6.2760082907874715 15.151624333185099 68.00000000000001
    vertex 5.0 15.060254037844391 68.00000000000001
    vertex 7.071067811865475 13.471067811865481 68.00000000000001
  endloop
endfacet
facet normal -0.0 -0.0 1.0
  outer loop
    vertex 6.2760082907874715 15.151624333185099 68.00000000000001
    vertex 7.071067811865475 13.471067811865481 68.00000000000001
    vertex 8.200000000000001 14.202816622064798 68.00000000000001
  endloop
endfacet
facet normal -0.0 -0.0 1.0
  outer loop
    vertex 8.200000000000001 14.202816622064798 68.00000000000001
    vertex 7.071067811865475 13.471067811865481 68.00000000000001
    vertex 8.660254037844386 11.400000000000004 68.00000000000001
  endloop
endfacet
facet normal -0.0 -0.0 1.0
  outer loop
    vertex 8.200000000000001 14.202816622064798 68.00000000000001
    vertex 8.660254037844386 11.400000000000004 68.00000000000001
    vertex 9.983687435743017 13.01099478077626 68.00000000000001
  endloop
endfacet
facet normal -0.0 -0.0 1.0
  outer loop
    vertex 9.983687435743017 13.01099478077626 68.00000000000001
    vertex 8.660254037844386 11.400000000000004 68.00000000000001
    vertex 9.659258262890683 8.988190451025213 68.00000000000001
  endloop
endfacet
facet normal -0.0 -0.0 1.0
  outer loop
    vertex 9.983687435743017 13.01099478077626 68.00000000000001
    vertex 9.659258262890683 8.988190451025213 68.00000000000001
    vertex 10.0 6.400000000000004 68.00000000000001
  endloop
endfacet
facet normal -0.0 -0.0 1.0
  outer loop
    vertex 9.983687435743017 13.01099478077626 68.00000000000001
    vertex 10.0 6.400000000000004 68.00000000000001
    vertex 11.596551211459376 11.596551211459383 68.00000000000001
  endloop
endfacet
facet normal -0.9914448613738106 0.130526192220051 0.0
  outer loop
    vertex 10.0 6.400000000000004 68.00000000000001
    vertex 9.989237952269457 6.3182541316893825 3.0
    vertex 9.989237952269457 6.3182541316893825 68.00000000000001
  endloop
endfacet
facet normal -0.9914448613738106 0.130526192220051 0.0
  outer loop
    vertex 9.989237952269457 6.3182541316893825 3.0
    vertex 10.0 6.400000000000004 68.00000000000001
    vertex 10.0 6.400000000000004 3.0
  endloop
endfacet
facet normal -0.008183119839840542 -0.9999665177143118 0.0
  outer loop
    vertex 15.151624333185099 6.276008290787475 68.00000000000001
    vertex 9.989237952269457 6.3182541316893825 3.0
    vertex 15.151624333185099 6.276008290787475 3.0
  endloop
endfacet
facet normal -0.008183119839840542 -0.9999665177143118 0.0
  outer loop
    vertex 9.989237952269457 6.3182541316893825 3.0
    vertex 15.151624333185099 6.276008290787475 68.00000000000001
    vertex 9.989237952269457 6.3182541316893825 68.00000000000001
  endloop
endfacet
facet normal -0.13052619222005177 -0.9914448613738105 0.0
  outer loop
    vertex 2.588190451025208 16.059258262890687 68.00000000000001
    vertex 7.049916206369744e-16 16.400000000000002 3.0
    vertex 2.588190451025208 16.059258262890687 3.0
  endloop
endfacet
facet normal -0.13052619222005177 -0.9914448613738105 0.0
  outer loop
    vertex 7.049916206369744e-16 16.400000000000002 3.0
    vertex 2.588190451025208 16.059258262890687 68.00000000000001
    vertex 7.049916206369744e-16 16.400000000000002 68.00000000000001
  endloop
endfacet
facet normal -0.3826834323650893 -0.9238795325112868 -0.0
  outer loop
    vertex 5.0 15.060254037844391 68.00000000000001
    vertex 2.588190451025208 16.059258262890687 3.0
    vertex 5.0 15.060254037844391 3.0
  endloop
endfacet
facet normal -0.3826834323650893 -0.9238795325112868 -0.0
  outer loop
    vertex 2.588190451025208 16.059258262890687 3.0
    vertex 5.0 15.060254037844391 68.00000000000001
    vertex 2.588190451025208 16.059258262890687 68.00000000000001
  endloop
endfacet
facet normal -0.6087614290087204 -0.7933533402912353 -0.0
  outer loop
    vertex 7.071067811865475 13.471067811865481 68.00000000000001
    vertex 5.0 15.060254037844391 3.0
    vertex 7.071067811865475 13.471067811865481 3.0
  endloop
endfacet
facet normal -0.6087614290087204 -0.7933533402912353 -0.0
  outer loop
    vertex 5.0 15.060254037844391 3.0
    vertex 7.071067811865475 13.471067811865481 68.00000000000001
    vertex 5.0 15.060254037844391 68.00000000000001
  endloop
endfacet
facet normal -0.7933533402912353 -0.6087614290087204 -0.0
  outer loop
    vertex 7.071067811865475 13.471067811865481 68.00000000000001
    vertex 8.660254037844386 11.400000000000004 3.0
    vertex 8.660254037844386 11.400000000000004 68.00000000000001
  endloop
endfacet
facet normal -0.7933533402912353 -0.6087614290087204 -0.0
  outer loop
    vertex 8.660254037844386 11.400000000000004 3.0
    vertex 7.071067811865475 13.471067811865481 68.00000000000001
    vertex 7.071067811865475 13.471067811865481 3.0
  endloop
endfacet
facet normal -0.9238795325112867 -0.38268343236508995 -0.0
  outer loop
    vertex 8.660254037844386 11.400000000000004 68.00000000000001
    vertex 9.659258262890683 8.988190451025213 3.0
    vertex 9.659258262890683 8.988190451025213 68.00000000000001
  endloop
endfacet
facet normal -0.9238795325112867 -0.38268343236508995 -0.0
  outer loop
    vertex 9.659258262890683 8.988190451025213 3.0
    vertex 8.660254037844386 11.400000000000004 68.00000000000001
    vertex 8.660254037844386 11.400000000000004 3.0
  endloop
endfacet
facet normal -0.9914448613738104 -0.13052619222005166 -0.0
  outer loop
    vertex 9.659258262890683 8.988190451025213 68.00000000000001
    vertex 10.0 6.400000000000004 3.0
    vertex 10.0 6.400000000000004 68.00000000000001
  endloop
endfacet
facet normal -0.9914448613738104 -0.13052619222005166 -0.0
  outer loop
    vertex 10.0 6.400000000000004 3.0
    vertex 9.659258262890683 8.988190451025213 68.00000000000001
    vertex 9.659258262890683 8.988190451025213 3.0
  endloop
endfacet
facet normal 0.004929709546205051 -0.9999878489080707 1.084480604398008e-21
  outer loop
    vertex -13.847354731604149 6.282438039221677 68.00000000000001
    vertex -15.151624333185099 6.276008290787475 3.0
    vertex -13.847354731604149 6.282438039221677 2.9999999999999964
  endloop
endfacet
facet normal 0.004929709546205051 -0.9999878489080707 1.084480604398008e-21
  outer loop
    vertex -15.151624333185099 6.276008290787475 3.0
    vertex -13.847354731604149 6.282438039221677 68.00000000000001
    vertex -15.151624333185099 6.276008290787475 68.00000000000001
  endloop
endfacet
facet normal 0.004929709546205227 -0.9999878489080707 0.0
  outer loop
    vertex -11.927050829782143 8.291928997207467 2.9999999999999973
    vertex -13.857214150696562 8.28241373703782 65.00000000000001
    vertex -13.857214150696562 8.28241373703782 2.9999999999999964
  endloop
endfacet
facet normal 0.004929709546205227 -0.9999878489080707 0.0
  outer loop
    vertex -13.857214150696562 8.28241373703782 65.00000000000001
    vertex -11.927050829782143 8.291928997207467 2.9999999999999973
    vertex -11.927050829782143 8.291928997207467 65.00000000000001
  endloop
endfacet
facet normal 0.9999878489080706 0.004929709546205226 0.0
  outer loop
    vertex -13.857214150696562 8.28241373703782 2.9999999999999964
    vertex -13.847354731604149 6.282438039221677 68.00000000000001
    vertex -13.847354731604149 6.282438039221677 2.9999999999999964
  endloop
endfacet
facet normal 0.9999878489080706 0.004929709546205226 0.0
  outer loop
    vertex -13.847354731604149 6.282438039221677 68.00000000000001
    vertex -13.857214150696562 8.28241373703782 2.9999999999999964
    vertex -13.857214150696562 8.28241373703782 68.00000000000001
  endloop
endfacet
facet normal 0.9999878489080706 0.004929709546205226 0.0
  outer loop
    vertex -13.857214150696562 8.28241373703782 68.00000000000001
    vertex -13.857214150696562 8.28241373703782 2.9999999999999964
    vertex -13.857214150696562 8.28241373703782 65.00000000000001
  endloop
endfacet
facet normal -0.9999878489080707 -0.004929709546205059 -2.165198555027622e-21
  outer loop
    vertex -11.927050829782143 8.291928997207467 65.00000000000001
    vertex -11.917191410689734 6.291953299391325 2.9999999999999973
    vertex -11.917191410689734 6.291953299391325 65.0
  endloop
endfacet
facet normal -0.9999878489080707 -0.004929709546205059 -2.165198555027622e-21
  outer loop
    vertex -11.917191410689734 6.291953299391325 2.9999999999999973
    vertex -11.927050829782143 8.291928997207467 65.00000000000001
    vertex -11.927050829782143 8.291928997207467 2.9999999999999973
  endloop
endfacet
facet normal 2.047223949027267e-15 -2.765775928270473e-15 1.0
  outer loop
    vertex -9.987028089775318 6.301468559560973 65.0
    vertex -10.0 6.400000000000002 65.0
    vertex -11.917191410689734 6.291953299391325 65.0
  endloop
endfacet
facet normal 2.047223949027267e-15 -2.765775928270473e-15 1.0
  outer loop
    vertex -11.927050829782143 8.291928997207467 65.00000000000001
    vertex -8.66025403784439 11.399999999999999 65.00000000000001
    vertex -13.857214150696562 8.28241373703782 65.00000000000001
  endloop
endfacet
facet normal 2.047223949027267e-15 -2.765775928270473e-15 1.0
  outer loop
    vertex -8.66025403784439 11.399999999999999 65.00000000000001
    vertex -11.927050829782143 8.291928997207467 65.00000000000001
    vertex -11.917191410689734 6.291953299391325 65.0
  endloop
endfacet
facet normal 2.047223949027267e-15 -2.765775928270473e-15 1.0
  outer loop
    vertex -8.66025403784439 11.399999999999999 65.00000000000001
    vertex -11.917191410689734 6.291953299391325 65.0
    vertex -9.659258262890685 8.988190451025208 65.0
  endloop
endfacet
facet normal 2.047223949027267e-15 -2.765775928270473e-15 1.0
  outer loop
    vertex -9.659258262890685 8.988190451025208 65.0
    vertex -11.917191410689734 6.291953299391325 65.0
    vertex -10.0 6.400000000000002 65.0
  endloop
endfacet
facet normal 0.5144241933177762 -0.8575358589174887 -0.0
  outer loop
    vertex -8.66025403784439 11.399999999999999 68.00000000000001
    vertex -13.857214150696562 8.28241373703782 65.00000000000001
    vertex -8.66025403784439 11.399999999999999 65.00000000000001
  endloop
endfacet
facet normal 0.5144241933177762 -0.8575358589174887 -0.0
  outer loop
    vertex -13.857214150696562 8.28241373703782 65.00000000000001
    vertex -8.66025403784439 11.399999999999999 68.00000000000001
    vertex -13.857214150696562 8.28241373703782 68.00000000000001
  endloop
endfacet
facet normal -0.0 -0.0 1.0
  outer loop
    vertex -16.259695726530488 2.140629552408851 78.00000000000004
    vertex -18.3525906994923 4.9175618569478985 78.00000000000004
    vertex -18.837452366102394 2.4799976521809883 78.00000000000004
  endloop
endfacet
facet normal -0.0 -0.0 1.0
  outer loop
    vertex -18.3525906994923 4.9175618569478985 78.00000000000004
    vertex -16.259695726530488 2.140629552408851 78.00000000000004
    vertex -15.841183551140716 4.244632339681344 78.00000000000004
  endloop
endfacet
facet normal -0.0 -0.0 1.0
  outer loop
    vertex -15.151624333185099 6.276008290787475 78.00000000000004
    vertex -16.45448267190433 9.500000000000005 78.00000000000004
    vertex -17.55371111771445 7.27098521493671 78.00000000000004
  endloop
endfacet
facet normal -0.0 -0.0 1.0
  outer loop
    vertex -16.45448267190433 9.500000000000005 78.00000000000004
    vertex -15.151624333185099 6.276008290787475 78.00000000000004
    vertex -14.20281662206479 8.200000000000008 78.00000000000004
  endloop
endfacet
facet normal -0.0 -0.0 1.0
  outer loop
    vertex -13.010994780776254 9.983687435743018 78.00000000000004
    vertex -13.4350288425444 13.435028842544403 78.00000000000004
    vertex -15.073713465533466 11.566467151165696 78.00000000000004
  endloop
endfacet
facet normal -0.0 -0.0 1.0
  outer loop
    vertex -13.4350288425444 13.435028842544403 78.00000000000004
    vertex -13.010994780776254 9.983687435743018 78.00000000000004
    vertex -11.596551211459378 11.596551211459383 78.00000000000004
  endloop
endfacet
facet normal -0.0 -0.0 1.0
  outer loop
    vertex 2.140629552408848 16.25969572653049 78.00000000000004
    vertex 1.4099832412739493e-15 19.0 78.00000000000004
    vertex 7.04991620636975e-16 16.400000000000002 78.00000000000004
  endloop
endfacet
facet normal -0.0 -0.0 1.0
  outer loop
    vertex 1.4099832412739493e-15 19.0 78.00000000000004
    vertex 2.140629552408848 16.25969572653049 78.00000000000004
    vertex 2.4799976521809826 18.837452366102394 78.00000000000004
  endloop
endfacet
facet normal -0.0 -0.0 1.0
  outer loop
    vertex 6.2760082907874715 15.151624333185099 78.00000000000004
    vertex 4.9175618569478985 18.3525906994923 78.00000000000004
    vertex 4.244632339681344 15.841183551140716 78.00000000000004
  endloop
endfacet
facet normal -0.0 -0.0 1.0
  outer loop
    vertex 4.9175618569478985 18.3525906994923 78.00000000000004
    vertex 6.2760082907874715 15.151624333185099 78.00000000000004
    vertex 7.270985214936708 17.553711117714453 78.00000000000004
  endloop
endfacet
facet normal -0.0 -0.0 1.0
  outer loop
    vertex 9.983687435743017 13.01099478077626 78.00000000000004
    vertex 9.499999999999998 16.454482671904337 78.00000000000004
    vertex 8.200000000000001 14.202816622064798 78.00000000000004
  endloop
endfacet
facet normal -0.0 -0.0 1.0
  outer loop
    vertex 9.499999999999998 16.454482671904337 78.00000000000004
    vertex 9.983687435743017 13.01099478077626 78.00000000000004
    vertex 11.56646715116569 15.073713465533466 78.00000000000004
  endloop
endfacet
facet normal -0.0 -0.0 1.0
  outer loop
    vertex 13.01099478077626 9.983687435743018 78.00000000000004
    vertex 13.435028842544403 13.435028842544403 78.00000000000004
    vertex 11.596551211459376 11.596551211459383 78.00000000000004
  endloop
endfacet
facet normal -0.0 -0.0 1.0
  outer loop
    vertex 13.435028842544403 13.435028842544403 78.00000000000004
    vertex 13.01099478077626 9.983687435743018 78.00000000000004
    vertex 15.073713465533471 11.566467151165686 78.00000000000004
  endloop
endfacet
facet normal -0.0 -0.0 1.0
  outer loop
    vertex 15.151624333185099 6.276008290787475 78.00000000000004
    vertex 16.454482671904337 9.499999999999995 78.00000000000004
    vertex 14.202816622064793 8.199999999999996 78.00000000000004
  endloop
endfacet
facet normal -0.0 -0.0 1.0
  outer loop
    vertex 16.454482671904337 9.499999999999995 78.00000000000004
    vertex 15.151624333185099 6.276008290787475 78.00000000000004
    vertex 17.55371111771445 7.27098521493671 78.00000000000004
  endloop
endfacet
facet normal -0.0 -0.0 1.0
  outer loop
    vertex 16.259695726530488 2.1406295524088397 78.00000000000004
    vertex 18.352590699492296 4.917561856947888 78.00000000000004
    vertex 15.841183551140722 4.244632339681344 78.00000000000004
  endloop
endfacet
facet normal -0.0 -0.0 1.0
  outer loop
    vertex 18.352590699492296 4.917561856947888 78.00000000000004
    vertex 16.259695726530488 2.1406295524088397 78.00000000000004
    vertex 18.837452366102394 2.4799976521809772 78.00000000000004
  endloop
endfacet
facet normal 0.44228869021899864 -0.8968727415326896 3.588952011260095e-34
  outer loop
    vertex -6.276008290787467 15.151624333185099 73.00000000000004
    vertex -8.199999999999994 14.202816622064798 68.00000000000001
    vertex -6.276008290787467 15.151624333185099 68.00000000000001
  endloop
endfacet
facet normal 0.44228869021899864 -0.8968727415326896 3.588952011260095e-34
  outer loop
    vertex -8.199999999999994 14.202816622064798 68.00000000000001
    vertex -6.276008290787467 15.151624333185099 73.00000000000004
    vertex -8.199999999999994 14.202816622064798 73.00000000000004
  endloop
endfacet
facet normal 0.3214394653031617 -0.9469301294951057 0.0
  outer loop
    vertex -4.2446323396813375 15.841183551140716 73.00000000000004
    vertex -6.276008290787467 15.151624333185099 68.00000000000001
    vertex -4.2446323396813375 15.841183551140716 68.00000000000001
  endloop
endfacet
facet normal 0.3214394653031617 -0.9469301294951057 0.0
  outer loop
    vertex -6.276008290787467 15.151624333185099 68.00000000000001
    vertex -4.2446323396813375 15.841183551140716 73.00000000000004
    vertex -6.276008290787467 15.151624333185099 73.00000000000004
  endloop
endfacet
facet normal 0.5555702330196027 -0.8314696123025449 9.016350403193254e-34
  outer loop
    vertex -8.199999999999994 14.202816622064798 73.00000000000004
    vertex -9.983687435743013 13.01099478077626 68.00000000000001
    vertex -8.199999999999994 14.202816622064798 68.00000000000001
  endloop
endfacet
facet normal 0.5555702330196027 -0.8314696123025449 9.016350403193254e-34
  outer loop
    vertex -9.983687435743013 13.01099478077626 68.00000000000001
    vertex -8.199999999999994 14.202816622064798 73.00000000000004
    vertex -9.983687435743013 13.01099478077626 73.00000000000004
  endloop
endfacet
facet normal 0.6593458151000676 -0.7518398074789786 0.0
  outer loop
    vertex -9.983687435743013 13.01099478077626 73.00000000000004
    vertex -11.596551211459378 11.596551211459383 68.00000000000001
    vertex -9.983687435743013 13.01099478077626 68.00000000000001
  endloop
endfacet
facet normal 0.6593458151000676 -0.7518398074789786 0.0
  outer loop
    vertex -11.596551211459378 11.596551211459383 68.00000000000001
    vertex -9.983687435743013 13.01099478077626 73.00000000000004
    vertex -11.596551211459378 11.596551211459383 73.00000000000004
  endloop
endfacet
facet normal 0.19509032201613075 -0.98078528040323 1.5830606096449898e-34
  outer loop
    vertex -2.140629552408843 16.25969572653049 73.00000000000004
    vertex -4.2446323396813375 15.841183551140716 68.00000000000001
    vertex -2.140629552408843 16.25969572653049 68.00000000000001
  endloop
endfacet
facet normal 0.19509032201613075 -0.98078528040323 1.5830606096449898e-34
  outer loop
    vertex -4.2446323396813375 15.841183551140716 68.00000000000001
    vertex -2.140629552408843 16.25969572653049 73.00000000000004
    vertex -4.2446323396813375 15.841183551140716 73.00000000000004
  endloop
endfacet
facet normal 0.06540312923014396 -0.9978589232386036 0.0
  outer loop
    vertex 7.04991620636975e-16 16.400000000000002 73.00000000000004
    vertex -2.140629552408843 16.25969572653049 68.00000000000001
    vertex 7.049916206369744e-16 16.400000000000002 68.00000000000001
  endloop
endfacet
facet normal 0.06540312923014396 -0.9978589232386036 0.0
  outer loop
    vertex -2.140629552408843 16.25969572653049 68.00000000000001
    vertex 7.04991620636975e-16 16.400000000000002 73.00000000000004
    vertex -2.140629552408843 16.25969572653049 73.00000000000004
  endloop
endfacet
facet normal 0.0 0.0 1.0
  outer loop
    vertex -11.596551211459378 11.596551211459383 73.00000000000004
    vertex -11.566467151165686 15.073713465533476 73.00000000000004
    vertex -13.4350288425444 13.435028842544403 73.00000000000004
  endloop
endfacet
facet normal 0.0 0.0 1.0
  outer loop
    vertex -11.566467151165686 15.073713465533476 73.00000000000004
    vertex -11.596551211459378 11.596551211459383 73.00000000000004
    vertex -9.983687435743013 13.01099478077626 73.00000000000004
  endloop
endfacet
facet normal 0.0 0.0 1.0
  outer loop
    vertex -11.566467151165686 15.073713465533476 73.00000000000004
    vertex -9.983687435743013 13.01099478077626 73.00000000000004
    vertex -9.499999999999995 16.454482671904337 73.00000000000004
  endloop
endfacet
facet normal 0.0 0.0 1.0
  outer loop
    vertex -9.499999999999995 16.454482671904337 73.00000000000004
    vertex -9.983687435743013 13.01099478077626 73.00000000000004
    vertex -8.199999999999994 14.202816622064798 73.00000000000004
  endloop
endfacet
facet normal 0.0 0.0 1.0
  outer loop
    vertex -9.499999999999995 16.454482671904337 73.00000000000004
    vertex -8.199999999999994 14.202816622064798 73.00000000000004
    vertex -7.2709852149367 17.553711117714453 73.00000000000004
  endloop
endfacet
facet normal 0.0 0.0 1.0
  outer loop
    vertex -7.2709852149367 17.553711117714453 73.00000000000004
    vertex -8.199999999999994 14.202816622064798 73.00000000000004
    vertex -6.276008290787467 15.151624333185099 73.00000000000004
  endloop
endfacet
facet normal 0.0 0.0 1.0
  outer loop
    vertex -7.2709852149367 17.553711117714453 73.00000000000004
    vertex -6.276008290787467 15.151624333185099 73.00000000000004
    vertex -4.917561856947891 18.3525906994923 73.00000000000004
  endloop
endfacet
facet normal 0.0 0.0 1.0
  outer loop
    vertex -4.917561856947891 18.3525906994923 73.00000000000004
    vertex -6.276008290787467 15.151624333185099 73.00000000000004
    vertex -4.2446323396813375 15.841183551140716 73.00000000000004
  endloop
endfacet
facet normal 0.0 0.0 1.0
  outer loop
    vertex -4.917561856947891 18.3525906994923 73.00000000000004
    vertex -4.2446323396813375 15.841183551140716 73.00000000000004
    vertex -2.4799976521809763 18.837452366102394 73.00000000000004
  endloop
endfacet
facet normal 0.0 0.0 1.0
  outer loop
    vertex -2.4799976521809763 18.837452366102394 73.00000000000004
    vertex -4.2446323396813375 15.841183551140716 73.00000000000004
    vertex -2.140629552408843 16.25969572653049 73.00000000000004
  endloop
endfacet
facet normal 0.0 0.0 1.0
  outer loop
    vertex -2.4799976521809763 18.837452366102394 73.00000000000004
    vertex -2.140629552408843 16.25969572653049 73.00000000000004
    vertex 1.4099832412739493e-15 19.0 73.00000000000004
  endloop
endfacet
facet normal 0.0 0.0 1.0
  outer loop
    vertex 1.4099832412739493e-15 19.0 73.00000000000004
    vertex -2.140629552408843 16.25969572653049 73.00000000000004
    vertex 7.04991620636975e-16 16.400000000000002 73.00000000000004
  endloop
endfacet
facet normal -1.0 2.7115062332191375e-16 -0.0
  outer loop
    vertex 1.4099832412739493e-15 19.0 78.00000000000004
    vertex 7.04991620636975e-16 16.400000000000002 73.00000000000004
    vertex 7.04991620636975e-16 16.400000000000002 78.00000000000004
  endloop
endfacet
facet normal -1.0 2.7115062332191375e-16 -0.0
  outer loop
    vertex 7.04991620636975e-16 16.400000000000002 73.00000000000004
    vertex 1.4099832412739493e-15 19.0 78.00000000000004
    vertex 1.4099832412739493e-15 19.0 73.00000000000004
  endloop
endfacet
facet normal 0.707106781186547 0.7071067811865481 0.0
  outer loop
    vertex -13.4350288425444 13.435028842544403 78.00000000000004
    vertex -11.596551211459378 11.596551211459383 73.00000000000004
    vertex -13.4350288425444 13.435028842544403 73.00000000000004
  endloop
endfacet
facet normal 0.707106781186547 0.7071067811865481 0.0
  outer loop
    vertex -11.596551211459378 11.596551211459383 73.00000000000004
    vertex -13.4350288425444 13.435028842544403 78.00000000000004
    vertex -11.596551211459378 11.596551211459383 78.00000000000004
  endloop
endfacet
facet normal 1.0844988127211893e-14 -7.246389395091418e-15 1.0
  outer loop
    vertex -14.20281662206479 8.200000000000008 68.00000000000001
    vertex -15.073713465533466 11.566467151165696 68.00000000000004
    vertex -16.45448267190433 9.500000000000005 68.00000000000004
  endloop
endfacet
facet normal 1.0844988127211893e-14 -7.246389395091418e-15 1.0
  outer loop
    vertex -15.073713465533466 11.566467151165696 68.00000000000004
    vertex -14.20281662206479 8.200000000000008 68.00000000000001
    vertex -13.010994780776254 9.983687435743018 68.00000000000001
  endloop
endfacet
facet normal -0.6087614290087218 -0.7933533402912343 1.8900151377591365e-18
  outer loop
    vertex -13.010994780776254 9.983687435743018 78.00000000000004
    vertex -15.073713465533466 11.566467151165696 68.00000000000004
    vertex -13.010994780776254 9.983687435743018 68.00000000000001
  endloop
endfacet
facet normal -0.6087614290087218 -0.7933533402912343 1.8900151377591365e-18
  outer loop
    vertex -15.073713465533466 11.566467151165696 68.00000000000004
    vertex -13.010994780776254 9.983687435743018 78.00000000000004
    vertex -15.073713465533466 11.566467151165696 78.00000000000004
  endloop
endfacet
facet normal 0.49999999999999933 0.866025403784439 -3.587043684849992e-18
  outer loop
    vertex -16.45448267190433 9.500000000000005 68.00000000000004
    vertex -14.20281662206479 8.200000000000008 78.00000000000004
    vertex -14.20281662206479 8.200000000000008 68.00000000000001
  endloop
endfacet
facet normal 0.49999999999999933 0.866025403784439 -3.587043684849992e-18
  outer loop
    vertex -14.20281662206479 8.200000000000008 78.00000000000004
    vertex -16.45448267190433 9.500000000000005 68.00000000000004
    vertex -16.45448267190433 9.500000000000005 78.00000000000004
  endloop
endfacet
facet normal 0.0012508156944112984 0.0006420506061141525 0.9999990116150704
  outer loop
    vertex -15.841183551140716 4.244632339681344 68.00507500000005
    vertex -17.55371111771445 7.27098521493671 68.00507500000005
    vertex -18.3525906994923 4.9175618569478985 68.00507500000005
  endloop
endfacet
facet normal 0.0012508156944112984 0.0006420506061141525 0.9999990116150704
  outer loop
    vertex -17.55371111771445 7.27098521493671 68.00507500000005
    vertex -15.841183551140716 4.244632339681344 68.00507500000005
    vertex -15.151624333185099 6.276008290787475 68.00000000000001
  endloop
endfacet
facet normal -0.38268343236509 -0.9238795325112867 -1.1737218772420572e-18
  outer loop
    vertex -15.151624333185099 6.276008290787475 78.00000000000004
    vertex -17.55371111771445 7.27098521493671 68.00507500000005
    vertex -15.151624333185099 6.276008290787475 68.00000000000001
  endloop
endfacet
facet normal -0.38268343236509 -0.9238795325112867 -1.1737218772420572e-18
  outer loop
    vertex -17.55371111771445 7.27098521493671 68.00507500000005
    vertex -15.151624333185099 6.276008290787475 78.00000000000004
    vertex -17.55371111771445 7.27098521493671 78.00000000000004
  endloop
endfacet
facet normal 0.2588190451025206 0.9659258262890683 0.0
  outer loop
    vertex -18.3525906994923 4.9175618569478985 78.00000000000004
    vertex -15.841183551140716 4.244632339681344 68.00507500000005
    vertex -18.3525906994923 4.9175618569478985 68.00507500000005
  endloop
endfacet
facet normal 0.2588190451025206 0.9659258262890683 0.0
  outer loop
    vertex -15.841183551140716 4.244632339681344 68.00507500000005
    vertex -18.3525906994923 4.9175618569478985 78.00000000000004
    vertex -15.841183551140716 4.244632339681344 78.00000000000004
  endloop
endfacet
facet normal -0.0 -0.0 1.0
  outer loop
    vertex 4.244632339681344 15.841183551140716 68.00000000000001
    vertex 2.4799976521809826 18.837452366102394 68.00000000000001
    vertex 2.140629552408848 16.25969572653049 68.00000000000001
  endloop
endfacet
facet normal -0.0 -0.0 1.0
  outer loop
    vertex 2.4799976521809826 18.837452366102394 68.00000000000001
    vertex 4.244632339681344 15.841183551140716 68.00000000000001
    vertex 4.9175618569478985 18.3525906994923 68.00000000000001
  endloop
endfacet
facet normal -0.9659258262890684 0.25881904510252024 0.0
  outer loop
    vertex 4.9175618569478985 18.3525906994923 78.00000000000004
    vertex 4.244632339681344 15.841183551140716 68.00000000000001
    vertex 4.244632339681344 15.841183551140716 78.00000000000004
  endloop
endfacet
facet normal -0.9659258262890684 0.25881904510252024 0.0
  outer loop
    vertex 4.244632339681344 15.841183551140716 68.00000000000001
    vertex 4.9175618569478985 18.3525906994923 78.00000000000004
    vertex 4.9175618569478985 18.3525906994923 68.00000000000001
  endloop
endfacet
facet normal 0.9914448613738105 -0.13052619222005193 -0.0
  outer loop
    vertex 2.4799976521809826 18.837452366102394 68.00000000000001
    vertex 2.140629552408848 16.25969572653049 78.00000000000004
    vertex 2.140629552408848 16.25969572653049 68.00000000000001
  endloop
endfacet
facet normal 0.9914448613738105 -0.13052619222005193 -0.0
  outer loop
    vertex 2.140629552408848 16.25969572653049 78.00000000000004
    vertex 2.4799976521809826 18.837452366102394 68.00000000000001
    vertex 2.4799976521809826 18.837452366102394 78.00000000000004
  endloop
endfacet
facet normal -0.0 -0.0 1.0
  outer loop
    vertex 8.200000000000001 14.202816622064798 68.00000000000001
    vertex 7.270985214936708 17.553711117714453 68.00000000000001
    vertex 6.2760082907874715 15.151624333185099 68.00000000000001
  endloop
endfacet
facet normal -0.0 -0.0 1.0
  outer loop
    vertex 7.270985214936708 17.553711117714453 68.00000000000001
    vertex 8.200000000000001 14.202816622064798 68.00000000000001
    vertex 9.499999999999998 16.454482671904337 68.00000000000001
  endloop
endfacet
facet normal -0.866025403784439 0.49999999999999944 0.0
  outer loop
    vertex 9.499999999999998 16.454482671904337 78.00000000000004
    vertex 8.200000000000001 14.202816622064798 68.00000000000001
    vertex 8.200000000000001 14.202816622064798 78.00000000000004
  endloop
endfacet
facet normal -0.866025403784439 0.49999999999999944 0.0
  outer loop
    vertex 8.200000000000001 14.202816622064798 68.00000000000001
    vertex 9.499999999999998 16.454482671904337 78.00000000000004
    vertex 9.499999999999998 16.454482671904337 68.00000000000001
  endloop
endfacet
facet normal 0.9238795325112868 -0.3826834323650897 -1.4693769893288802e-31
  outer loop
    vertex 7.270985214936708 17.553711117714453 68.00000000000001
    vertex 6.2760082907874715 15.151624333185099 78.00000000000004
    vertex 6.2760082907874715 15.151624333185099 68.00000000000001
  endloop
endfacet
facet normal 0.9238795325112868 -0.3826834323650897 -1.4693769893288802e-31
  outer loop
    vertex 6.2760082907874715 15.151624333185099 78.00000000000004
    vertex 7.270985214936708 17.553711117714453 68.00000000000001
    vertex 7.270985214936708 17.553711117714453 78.00000000000004
  endloop
endfacet
facet normal -5.733300356129133e-15 -6.537576090199463e-15 1.0
  outer loop
    vertex 11.596551211459376 11.596551211459383 68.00000000000001
    vertex 11.56646715116569 15.073713465533466 68.00000000000003
    vertex 9.983687435743017 13.01099478077626 68.00000000000001
  endloop
endfacet
facet normal -5.733300356129133e-15 -6.537576090199463e-15 1.0
  outer loop
    vertex 11.56646715116569 15.073713465533466 68.00000000000003
    vertex 11.596551211459376 11.596551211459383 68.00000000000001
    vertex 13.435028842544403 13.435028842544403 68.00000000000003
  endloop
endfacet
facet normal -0.7071067811865462 0.7071067811865489 3.956878322829204e-18
  outer loop
    vertex 11.596551211459376 11.596551211459383 78.00000000000004
    vertex 13.435028842544403 13.435028842544403 68.00000000000003
    vertex 11.596551211459376 11.596551211459383 68.00000000000001
  endloop
endfacet
facet normal -0.7071067811865462 0.7071067811865489 3.956878322829204e-18
  outer loop
    vertex 13.435028842544403 13.435028842544403 68.00000000000003
    vertex 11.596551211459376 11.596551211459383 78.00000000000004
    vertex 13.435028842544403 13.435028842544403 78.00000000000004
  endloop
endfacet
facet normal 0.7933533402912345 -0.6087614290087215 1.0110235212897729e-18
  outer loop
    vertex 11.56646715116569 15.073713465533466 68.00000000000003
    vertex 9.983687435743017 13.01099478077626 78.00000000000004
    vertex 9.983687435743017 13.01099478077626 68.00000000000001
  endloop
endfacet
facet normal 0.7933533402912345 -0.6087614290087215 1.0110235212897729e-18
  outer loop
    vertex 9.983687435743017 13.01099478077626 78.00000000000004
    vertex 11.56646715116569 15.073713465533466 68.00000000000003
    vertex 11.56646715116569 15.073713465533466 78.00000000000004
  endloop
endfacet
facet normal -3.614996042403968e-15 -2.4154631316971355e-15 1.0
  outer loop
    vertex 14.202816622064793 8.199999999999996 68.00000000000001
    vertex 15.073713465533471 11.566467151165686 68.00000000000003
    vertex 13.01099478077626 9.983687435743018 68.00000000000001
  endloop
endfacet
facet normal -3.614996042403968e-15 -2.4154631316971355e-15 1.0
  outer loop
    vertex 15.073713465533471 11.566467151165686 68.00000000000003
    vertex 14.202816622064793 8.199999999999996 68.00000000000001
    vertex 16.454482671904337 9.499999999999995 68.00000000000003
  endloop
endfacet
facet normal -0.4999999999999985 0.8660254037844397 -1.4455827470167045e-18
  outer loop
    vertex 14.202816622064793 8.199999999999996 78.00000000000004
    vertex 16.454482671904337 9.499999999999995 68.00000000000003
    vertex 14.202816622064793 8.199999999999996 68.00000000000001
  endloop
endfacet
facet normal -0.4999999999999985 0.8660254037844397 -1.4455827470167045e-18
  outer loop
    vertex 16.454482671904337 9.499999999999995 68.00000000000003
    vertex 14.202816622064793 8.199999999999996 78.00000000000004
    vertex 16.454482671904337 9.499999999999995 78.00000000000004
  endloop
endfacet
facet normal 0.608761429008719 -0.7933533402912364 2.9010386590495128e-18
  outer loop
    vertex 15.073713465533471 11.566467151165686 68.00000000000003
    vertex 13.01099478077626 9.983687435743018 78.00000000000004
    vertex 13.01099478077626 9.983687435743018 68.00000000000001
  endloop
endfacet
facet normal 0.608761429008719 -0.7933533402912364 2.9010386590495128e-18
  outer loop
    vertex 13.01099478077626 9.983687435743018 78.00000000000004
    vertex 15.073713465533471 11.566467151165686 68.00000000000003
    vertex 15.073713465533471 11.566467151165686 78.00000000000004
  endloop
endfacet
facet normal -2.7801078386973774e-15 1.4270447124014109e-15 1.0
  outer loop
    vertex 15.841183551140722 4.244632339681344 68.00000000000003
    vertex 17.55371111771445 7.27098521493671 68.00000000000003
    vertex 15.151624333185099 6.276008290787475 68.00000000000001
  endloop
endfacet
facet normal -2.7801078386973774e-15 1.4270447124014109e-15 1.0
  outer loop
    vertex 17.55371111771445 7.27098521493671 68.00000000000003
    vertex 15.841183551140722 4.244632339681344 68.00000000000003
    vertex 18.352590699492296 4.917561856947888 68.00000000000003
  endloop
endfacet
facet normal -0.25881904510251735 0.9659258262890693 -0.0
  outer loop
    vertex 15.841183551140722 4.244632339681344 78.00000000000004
    vertex 18.352590699492296 4.917561856947888 68.00000000000003
    vertex 15.841183551140722 4.244632339681344 68.00000000000003
  endloop
endfacet
facet normal -0.25881904510251735 0.9659258262890693 -0.0
  outer loop
    vertex 18.352590699492296 4.917561856947888 68.00000000000003
    vertex 15.841183551140722 4.244632339681344 78.00000000000004
    vertex 18.352590699492296 4.917561856947888 78.00000000000004
  endloop
endfacet
facet normal 0.38268343236509 -0.9238795325112867 3.0437592167134617e-19
  outer loop
    vertex 17.55371111771445 7.27098521493671 68.00000000000003
    vertex 15.151624333185099 6.276008290787475 78.00000000000004
    vertex 15.151624333185099 6.276008290787475 68.00000000000001
  endloop
endfacet
facet normal 0.38268343236509 -0.9238795325112867 3.0437592167134617e-19
  outer loop
    vertex 15.151624333185099 6.276008290787475 78.00000000000004
    vertex 17.55371111771445 7.27098521493671 68.00000000000003
    vertex 17.55371111771445 7.27098521493671 78.00000000000004
  endloop
endfacet
facet normal 0.0 0.0 1.0
  outer loop
    vertex 16.4 -3.0880264193192202e-30 68.00000000000003
    vertex 18.837452366102394 2.4799976521809772 68.00000000000003
    vertex 16.259695726530488 2.1406295524088397 68.00000000000003
  endloop
endfacet
facet normal 0.0 0.0 1.0
  outer loop
    vertex 18.837452366102394 2.4799976521809772 68.00000000000003
    vertex 16.4 -3.0880264193192202e-30 68.00000000000003
    vertex 19.0 -3.0880264193192202e-30 68.00000000000003
  endloop
endfacet
facet normal 0.13052619222005274 -0.9914448613738103 -0.0
  outer loop
    vertex 18.837452366102394 2.4799976521809772 78.00000000000004
    vertex 16.259695726530488 2.1406295524088397 68.00000000000003
    vertex 18.837452366102394 2.4799976521809772 68.00000000000003
  endloop
endfacet
facet normal 0.13052619222005274 -0.9914448613738103 -0.0
  outer loop
    vertex 16.259695726530488 2.1406295524088397 68.00000000000003
    vertex 18.837452366102394 2.4799976521809772 78.00000000000004
    vertex 16.259695726530488 2.1406295524088397 78.00000000000004
  endloop
endfacet
facet normal 0.0 0.0 1.0
  outer loop
    vertex -16.4 -3.0880264193192202e-30 68.00000000000003
    vertex -18.837452366102394 2.4799976521809883 68.00000000000003
    vertex -19.0 -3.0880264193192202e-30 68.00000000000003
  endloop
endfacet
facet normal 0.0 0.0 1.0
  outer loop
    vertex -18.837452366102394 2.4799976521809883 68.00000000000003
    vertex -16.4 -3.0880264193192202e-30 68.00000000000003
    vertex -16.259695726530488 2.140629552408851 68.00000000000003
  endloop
endfacet
facet normal -0.13052619222005274 -0.9914448613738103 -0.0
  outer loop
    vertex -16.259695726530488 2.140629552408851 78.00000000000004
    vertex -18.837452366102394 2.4799976521809883 68.00000000000003
    vertex -16.259695726530488 2.140629552408851 68.00000000000003
  endloop
endfacet
facet normal -0.13052619222005274 -0.9914448613738103 -0.0
  outer loop
    vertex -18.837452366102394 2.4799976521809883 68.00000000000003
    vertex -16.259695726530488 2.140629552408851 78.00000000000004
    vertex -18.837452366102394 2.4799976521809883 78.00000000000004
  endloop
endfacet
facet normal 0.0 -1.0 -4.750809875875721e-32
  outer loop
    vertex 19.0 -3.0880264193192202e-30 68.00000000000003
    vertex 16.4 0.0 3.0
    vertex 19.0 0.0 3.0
  endloop
endfacet
facet normal 0.0 -1.0 -4.750809875875721e-32
  outer loop
    vertex 16.4 0.0 3.0
    vertex 19.0 -3.0880264193192202e-30 68.00000000000003
    vertex 16.4 -3.0880264193192202e-30 68.00000000000003
  endloop
endfacet
facet normal -2.23546996311312e-61 -1.0 -4.750809875875721e-32
  outer loop
    vertex -16.4 -3.0880264193192202e-30 68.00000000000003
    vertex -19.0 0.0 3.0
    vertex -16.4 0.0 3.0
  endloop
endfacet
facet normal -2.23546996311312e-61 -1.0 -4.750809875875721e-32
  outer loop
    vertex -19.0 0.0 3.0
    vertex -16.4 -3.0880264193192202e-30 68.00000000000003
    vertex -19.0 -3.0880264193192202e-30 68.00000000000003
  endloop
endfacet
facet normal -0.16878691858367428 0.8417789211584609 -0.5127564958226526
  outer loop
    vertex -4.917561856947891 18.3525906994923 3.0
    vertex -2.236399988074578 17.062793093367162 0.0
    vertex -4.43393344036726 16.62216089104666 0.0
  endloop
endfacet
facet normal -0.16758153568498824 0.8424892725002503 -0.5119846234209189
  outer loop
    vertex -2.4799976521809763 18.837452366102394 3.0
    vertex -2.236399988074578 17.062793093367162 0.0
    vertex -4.917561856947891 18.3525906994923 3.0
  endloop
endfacet
facet normal 0.8341898462496233 0.054675691168512223 -0.5487603021440923
  outer loop
    vertex 18.837452366102394 2.4799976521809772 3.0
    vertex 19.0 0.0 3.0
    vertex 16.879801847021486 2.2380487965385747 0.0
  endloop
endfacet
facet normal 0.8312207771497123 0.044642101765294144 -0.5541471847664713
  outer loop
    vertex 16.879801847021486 2.2380487965385747 0.0
    vertex 19.0 0.0 3.0
    vertex 17.00000000000001 0.0 0.0
  endloop
endfacet
facet normal 0.3790679985518633 0.7686738607767185 -0.5152164091258147
  outer loop
    vertex 9.499999999999998 16.454482671904337 3.0
    vertex 6.5544092850613325 15.8962874835326 0.0
    vertex 7.270985214936708 17.553711117714453 3.0
  endloop
endfacet
facet normal 0.3813421146530459 0.7663380602482709 -0.5170146700112683
  outer loop
    vertex 9.499999999999998 16.454482671904337 3.0
    vertex 8.560975639339851 14.897787870340576 0.0
    vertex 6.5544092850613325 15.8962874835326 0.0
  endloop
endfacet
facet normal 0.47527290759279134 0.7112961723421498 -0.5178546306828788
  outer loop
    vertex 11.56646715116569 15.073713465533466 3.0
    vertex 8.560975639339851 14.897787870340576 0.0
    vertex 9.499999999999998 16.454482671904337 3.0
  endloop
endfacet
facet normal 0.47776843881119746 0.7079359481200629 -0.5201576801656002
  outer loop
    vertex 11.56646715116569 15.073713465533466 3.0
    vertex 10.418760260570366 13.644015038928682 0.0
    vertex 8.560975639339851 14.897787870340576 0.0
  endloop
endfacet
facet normal -0.4777684388111979 0.7079359481200621 -0.520157680165601
  outer loop
    vertex -11.566467151165686 15.073713465533476 3.0
    vertex -8.560975639339873 14.897787870340567 0.0
    vertex -10.418760260570387 13.644015038928671 0.0
  endloop
endfacet
facet normal -0.47527290759278923 0.7112961723421523 -0.5178546306828775
  outer loop
    vertex -9.499999999999995 16.454482671904337 3.0
    vertex -8.560975639339873 14.897787870340567 0.0
    vertex -11.566467151165686 15.073713465533476 3.0
  endloop
endfacet
facet normal -0.6421403270897734 0.5556126062599711 -0.5281575826304507
  outer loop
    vertex -12.095476593198827 12.156758386039117 0.0
    vertex -13.561984878825223 10.461865038404426 0.0
    vertex -15.073713465533466 11.566467151165696 3.0
  endloop
endfacet
facet normal -0.6399488144224817 0.5612200477686379 -0.5248786268289345
  outer loop
    vertex -13.4350288425444 13.435028842544403 3.0
    vertex -12.095476593198827 12.156758386039117 0.0
    vertex -15.073713465533466 11.566467151165696 3.0
  endloop
endfacet
facet normal -0.831220777149713 0.044642101765292985 -0.5541471847664705
  outer loop
    vertex -16.879801847021497 2.2380487965385663 0.0
    vertex -17.000000000000018 -6.961792253790122e-15 0.0
    vertex -19.0 0.0 3.0
  endloop
endfacet
facet normal -0.8341898462496242 0.05467569116851199 -0.5487603021440908
  outer loop
    vertex -18.837452366102394 2.4799976521809883 3.0
    vertex -16.879801847021497 2.2380487965385663 0.0
    vertex -19.0 0.0 3.0
  endloop
endfacet
facet normal -0.8217011887612488 0.1542667401065529 -0.5486428066467727
  outer loop
    vertex -16.466248558120594 4.440838774931071 0.0
    vertex -16.879801847021497 2.2380487965385663 0.0
    vertex -18.837452366102394 2.4799976521809883 3.0
  endloop
endfacet
facet normal -0.8231971496153915 0.16374409385018304 -0.543630687686298
  outer loop
    vertex -18.3525906994923 4.9175618569478985 3.0
    vertex -16.466248558120594 4.440838774931071 0.0
    vertex -18.837452366102394 2.4799976521809883 3.0
  endloop
endfacet
facet normal -0.7976408117809727 0.2621235470064288 -0.543194607379491
  outer loop
    vertex -15.766527301865766 6.570087509863741 0.0
    vertex -16.466248558120594 4.440838774931071 0.0
    vertex -18.3525906994923 4.9175618569478985 3.0
  endloop
endfacet
facet normal -0.7978576902783273 0.2708361909318749 -0.5385822720302309
  outer loop
    vertex -17.55371111771445 7.27098521493671 3.0
    vertex -15.766527301865766 6.570087509863741 0.0
    vertex -18.3525906994923 4.9175618569478985 3.0
  endloop
endfacet
facet normal -0.7592933568676542 0.3662478823018583 -0.537899699689499
  outer loop
    vertex -14.792798577894194 8.588790653909417 0.0
    vertex -15.766527301865766 6.570087509863741 0.0
    vertex -17.55371111771445 7.27098521493671 3.0
  endloop
endfacet
facet normal -0.7584557192397293 0.37402896879035674 -0.5337108322473579
  outer loop
    vertex -16.45448267190433 9.500000000000005 3.0
    vertex -14.792798577894194 8.588790653909417 0.0
    vertex -17.55371111771445 7.27098521493671 3.0
  endloop
endfacet
facet normal -0.7071902298937859 0.46470093767027615 -0.5328555313320303
  outer loop
    vertex -13.561984878825223 10.461865038404426 0.0
    vertex -14.792798577894194 8.588790653909417 0.0
    vertex -16.45448267190433 9.500000000000005 3.0
  endloop
endfacet
facet normal -0.7055452401203214 0.4714302575340408 -0.5291119223991707
  outer loop
    vertex -15.073713465533466 11.566467151165696 3.0
    vertex -13.561984878825223 10.461865038404426 0.0
    vertex -16.45448267190433 9.500000000000005 3.0
  endloop
endfacet
facet normal 0.7978576902783275 0.27083619093187267 -0.5385822720302321
  outer loop
    vertex 17.55371111771445 7.27098521493671 3.0
    vertex 18.352590699492296 4.917561856947888 3.0
    vertex 15.766527301865757 6.570087509863749 0.0
  endloop
endfacet
facet normal 0.7976408117809729 0.26212354700642887 -0.5431946073794908
  outer loop
    vertex 15.766527301865757 6.570087509863749 0.0
    vertex 18.352590699492296 4.917561856947888 3.0
    vertex 16.466248558120583 4.440838774931081 0.0
  endloop
endfacet
facet normal -0.0566306710156141 0.8572806434963648 -0.5117253808311445
  outer loop
    vertex -2.4799976521809763 18.837452366102394 3.0
    vertex -9.649572807468586e-15 17.210526315789455 0.0
    vertex -2.236399988074578 17.062793093367162 0.0
  endloop
endfacet
facet normal -0.056201036401442486 0.8574621173108918 -0.511468631378432
  outer loop
    vertex 1.4099832412739487e-15 19.0 3.0
    vertex -9.649572807468586e-15 17.210526315789455 0.0
    vertex -2.4799976521809763 18.837452366102394 3.0
  endloop
endfacet
facet normal 0.05620103640144244 0.8574621173108916 -0.5114686313784323
  outer loop
    vertex 2.4799976521809826 18.837452366102394 3.0
    vertex -9.649572807468586e-15 17.210526315789455 0.0
    vertex 1.4099832412739487e-15 19.0 3.0
  endloop
endfacet
facet normal 0.05663067101561305 0.8572806434963651 -0.5117253808311442
  outer loop
    vertex 2.4799976521809826 18.837452366102394 3.0
    vertex 2.236399988074559 17.062793093367166 0.0
    vertex -9.649572807468586e-15 17.210526315789455 0.0
  endloop
endfacet
facet normal 0.2758730259471452 0.8126957277568865 -0.5132443157410226
  outer loop
    vertex 7.270985214936708 17.553711117714453 3.0
    vertex 4.433933440367241 16.622160891046665 0.0
    vertex 4.9175618569478985 18.3525906994923 3.0
  endloop
endfacet
facet normal 0.2777062847947633 0.8112564294699312 -0.514531072948164
  outer loop
    vertex 7.270985214936708 17.553711117714453 3.0
    vertex 6.5544092850613325 15.8962874835326 0.0
    vertex 4.433933440367241 16.622160891046665 0.0
  endloop
endfacet
facet normal -0.5652222140621264 0.6372251326232614 -0.5238969164673283
  outer loop
    vertex -13.4350288425444 13.435028842544403 3.0
    vertex -10.418760260570387 13.644015038928671 0.0
    vertex -12.095476593198827 12.156758386039117 0.0
  endloop
endfacet
facet normal -0.5627490970561098 0.6416923609736102 -0.5210991917386241
  outer loop
    vertex -11.566467151165686 15.073713465533476 3.0
    vertex -10.418760260570387 13.644015038928671 0.0
    vertex -13.4350288425444 13.435028842544403 3.0
  endloop
endfacet
facet normal 0.167581535684988 0.8424892725002501 -0.5119846234209194
  outer loop
    vertex 4.9175618569478985 18.3525906994923 3.0
    vertex 2.236399988074559 17.062793093367166 0.0
    vertex 2.4799976521809826 18.837452366102394 3.0
  endloop
endfacet
facet normal 0.1687869185836742 0.8417789211584605 -0.512756495822653
  outer loop
    vertex 4.9175618569478985 18.3525906994923 3.0
    vertex 4.433933440367241 16.622160891046665 0.0
    vertex 2.236399988074559 17.062793093367166 0.0
  endloop
endfacet
facet normal 0.5627490970561079 0.6416923609736119 -0.5210991917386241
  outer loop
    vertex 13.435028842544403 13.435028842544403 3.0
    vertex 10.418760260570366 13.644015038928682 0.0
    vertex 11.56646715116569 15.073713465533466 3.0
  endloop
endfacet
facet normal 0.565222214062125 0.6372251326232621 -0.5238969164673292
  outer loop
    vertex 13.435028842544403 13.435028842544403 3.0
    vertex 12.095476593198807 12.15675838603913 0.0
    vertex 10.418760260570366 13.644015038928682 0.0
  endloop
endfacet
facet normal 0.6399488144224823 0.5612200477686359 -0.524878626828936
  outer loop
    vertex 13.435028842544403 13.435028842544403 3.0
    vertex 15.073713465533471 11.566467151165686 3.0
    vertex 12.095476593198807 12.15675838603913 0.0
  endloop
endfacet
facet normal 0.6421403270897728 0.555612606259972 -0.5281575826304503
  outer loop
    vertex 12.095476593198807 12.15675838603913 0.0
    vertex 15.073713465533471 11.566467151165686 3.0
    vertex 13.561984878825209 10.461865038404438 0.0
  endloop
endfacet
facet normal 0.7055452401203206 0.4714302575340412 -0.5291119223991714
  outer loop
    vertex 15.073713465533471 11.566467151165686 3.0
    vertex 16.454482671904337 9.499999999999995 3.0
    vertex 13.561984878825209 10.461865038404438 0.0
  endloop
endfacet
facet normal 0.7071902298937851 0.4647009376702766 -0.5328555313320311
  outer loop
    vertex 13.561984878825209 10.461865038404438 0.0
    vertex 16.454482671904337 9.499999999999995 3.0
    vertex 14.792798577894182 8.58879065390943 0.0
  endloop
endfacet
facet normal 0.7584557192397288 0.3740289687903554 -0.5337108322473595
  outer loop
    vertex 16.454482671904337 9.499999999999995 3.0
    vertex 17.55371111771445 7.27098521493671 3.0
    vertex 14.792798577894182 8.58879065390943 0.0
  endloop
endfacet
facet normal 0.7592933568676535 0.3662478823018586 -0.5378996996894998
  outer loop
    vertex 14.792798577894182 8.58879065390943 0.0
    vertex 17.55371111771445 7.27098521493671 3.0
    vertex 15.766527301865757 6.570087509863749 0.0
  endloop
endfacet
facet normal 0.8231971496153913 0.16374409385018385 -0.5436306876862983
  outer loop
    vertex 18.352590699492296 4.917561856947888 3.0
    vertex 18.837452366102394 2.4799976521809772 3.0
    vertex 16.466248558120583 4.440838774931081 0.0
  endloop
endfacet
facet normal 0.8217011887612482 0.15426674010655259 -0.5486428066467736
  outer loop
    vertex 16.466248558120583 4.440838774931081 0.0
    vertex 18.837452366102394 2.4799976521809772 3.0
    vertex 16.879801847021486 2.2380487965385747 0.0
  endloop
endfacet
facet normal -0.27770628479476445 0.8112564294699312 -0.5145310729481632
  outer loop
    vertex -7.2709852149367 17.553711117714453 3.0
    vertex -4.43393344036726 16.62216089104666 0.0
    vertex -6.554409285061351 15.896287483532594 0.0
  endloop
endfacet
facet normal -0.27587302594714574 0.8126957277568869 -0.5132443157410215
  outer loop
    vertex -4.917561856947891 18.3525906994923 3.0
    vertex -4.43393344036726 16.62216089104666 0.0
    vertex -7.2709852149367 17.553711117714453 3.0
  endloop
endfacet
facet normal -0.38134211465304685 0.7663380602482708 -0.5170146700112679
  outer loop
    vertex -9.499999999999995 16.454482671904337 3.0
    vertex -6.554409285061351 15.896287483532594 0.0
    vertex -8.560975639339873 14.897787870340567 0.0
  endloop
endfacet
facet normal -0.37906799855186285 0.7686738607767196 -0.5152164091258132
  outer loop
    vertex -7.2709852149367 17.553711117714453 3.0
    vertex -6.554409285061351 15.896287483532594 0.0
    vertex -9.499999999999995 16.454482671904337 3.0
  endloop
endfacet
facet normal 6.439369957040139e-17 -1.0 1.1602987089650204e-15
  outer loop
    vertex 19.0 0.0 3.0
    vertex -17.000000000000018 -6.961792253790122e-15 0.0
    vertex 17.00000000000001 0.0 0.0
  endloop
endfacet
facet normal 6.439369957040139e-17 -1.0 1.1602987089650204e-15
  outer loop
    vertex -17.000000000000018 -6.961792253790122e-15 0.0
    vertex 19.0 0.0 3.0
    vertex -19.0 0.0 3.0
  endloop
endfacet
facet normal 6.439369957040139e-17 -1.0 1.1602987089650204e-15
  outer loop
    vertex -19.0 0.0 3.0
    vertex 19.0 0.0 3.0
    vertex 16.4 0.0 3.0
  endloop
endfacet
facet normal 6.439369957040139e-17 -1.0 1.1602987089650204e-15
  outer loop
    vertex -19.0 0.0 3.0
    vertex 16.4 0.0 3.0
    vertex -16.4 0.0 3.0
  endloop
endfacet
facet normal 0.0 0.0 -1.0
  outer loop
    vertex -16.879801847021497 2.2380487965385663 0.0
    vertex 17.00000000000001 0.0 0.0
    vertex -17.000000000000018 -6.961792253790122e-15 0.0
  endloop
endfacet
facet normal 0.0 0.0 -1.0
  outer loop
    vertex 17.00000000000001 0.0 0.0
    vertex -16.879801847021497 2.2380487965385663 0.0
    vertex -16.466248558120594 4.440838774931071 0.0
  endloop
endfacet
facet normal 0.0 0.0 -1.0
  outer loop
    vertex 17.00000000000001 0.0 0.0
    vertex -16.466248558120594 4.440838774931071 0.0
    vertex -15.766527301865766 6.570087509863741 0.0
  endloop
endfacet
facet normal 0.0 0.0 -1.0
  outer loop
    vertex 17.00000000000001 0.0 0.0
    vertex -15.766527301865766 6.570087509863741 0.0
    vertex -14.792798577894194 8.588790653909417 0.0
  endloop
endfacet
facet normal 0.0 0.0 -1.0
  outer loop
    vertex 17.00000000000001 0.0 0.0
    vertex -14.792798577894194 8.588790653909417 0.0
    vertex -13.561984878825223 10.461865038404426 0.0
  endloop
endfacet
facet normal 0.0 0.0 -1.0
  outer loop
    vertex 17.00000000000001 0.0 0.0
    vertex -13.561984878825223 10.461865038404426 0.0
    vertex -12.095476593198827 12.156758386039117 0.0
  endloop
endfacet
facet normal 0.0 0.0 -1.0
  outer loop
    vertex 17.00000000000001 0.0 0.0
    vertex -12.095476593198827 12.156758386039117 0.0
    vertex -10.418760260570387 13.644015038928671 0.0
  endloop
endfacet
facet normal 0.0 0.0 -1.0
  outer loop
    vertex 17.00000000000001 0.0 0.0
    vertex -10.418760260570387 13.644015038928671 0.0
    vertex -8.560975639339873 14.897787870340567 0.0
  endloop
endfacet
facet normal 0.0 0.0 -1.0
  outer loop
    vertex 17.00000000000001 0.0 0.0
    vertex -8.560975639339873 14.897787870340567 0.0
    vertex -6.554409285061351 15.896287483532594 0.0
  endloop
endfacet
facet normal 0.0 0.0 -1.0
  outer loop
    vertex 17.00000000000001 0.0 0.0
    vertex -6.554409285061351 15.896287483532594 0.0
    vertex -4.43393344036726 16.62216089104666 0.0
  endloop
endfacet
facet normal 0.0 0.0 -1.0
  outer loop
    vertex 17.00000000000001 0.0 0.0
    vertex -4.43393344036726 16.62216089104666 0.0
    vertex -2.236399988074578 17.062793093367162 0.0
  endloop
endfacet
facet normal 0.0 0.0 -1.0
  outer loop
    vertex 17.00000000000001 0.0 0.0
    vertex -2.236399988074578 17.062793093367162 0.0
    vertex -9.649572807468586e-15 17.210526315789455 0.0
  endloop
endfacet
facet normal 0.0 0.0 -1.0
  outer loop
    vertex 17.00000000000001 0.0 0.0
    vertex -9.649572807468586e-15 17.210526315789455 0.0
    vertex 2.236399988074559 17.062793093367166 0.0
  endloop
endfacet
facet normal 0.0 0.0 -1.0
  outer loop
    vertex 17.00000000000001 0.0 0.0
    vertex 2.236399988074559 17.062793093367166 0.0
    vertex 4.433933440367241 16.622160891046665 0.0
  endloop
endfacet
facet normal 0.0 0.0 -1.0
  outer loop
    vertex 17.00000000000001 0.0 0.0
    vertex 4.433933440367241 16.622160891046665 0.0
    vertex 6.5544092850613325 15.8962874835326 0.0
  endloop
endfacet
facet normal 0.0 0.0 -1.0
  outer loop
    vertex 17.00000000000001 0.0 0.0
    vertex 6.5544092850613325 15.8962874835326 0.0
    vertex 8.560975639339851 14.897787870340576 0.0
  endloop
endfacet
facet normal 0.0 0.0 -1.0
  outer loop
    vertex 17.00000000000001 0.0 0.0
    vertex 8.560975639339851 14.897787870340576 0.0
    vertex 10.418760260570366 13.644015038928682 0.0
  endloop
endfacet
facet normal 0.0 0.0 -1.0
  outer loop
    vertex 17.00000000000001 0.0 0.0
    vertex 10.418760260570366 13.644015038928682 0.0
    vertex 12.095476593198807 12.15675838603913 0.0
  endloop
endfacet
facet normal 0.0 0.0 -1.0
  outer loop
    vertex 17.00000000000001 0.0 0.0
    vertex 12.095476593198807 12.15675838603913 0.0
    vertex 13.561984878825209 10.461865038404438 0.0
  endloop
endfacet
facet normal 0.0 0.0 -1.0
  outer loop
    vertex 17.00000000000001 0.0 0.0
    vertex 13.561984878825209 10.461865038404438 0.0
    vertex 14.792798577894182 8.58879065390943 0.0
  endloop
endfacet
facet normal 0.0 0.0 -1.0
  outer loop
    vertex 17.00000000000001 0.0 0.0
    vertex 14.792798577894182 8.58879065390943 0.0
    vertex 15.766527301865757 6.570087509863749 0.0
  endloop
endfacet
facet normal 0.0 0.0 -1.0
  outer loop
    vertex 17.00000000000001 0.0 0.0
    vertex 15.766527301865757 6.570087509863749 0.0
    vertex 16.466248558120583 4.440838774931081 0.0
  endloop
endfacet
facet normal 0.0 0.0 -1.0
  outer loop
    vertex 17.00000000000001 0.0 0.0
    vertex 16.466248558120583 4.440838774931081 0.0
    vertex 16.879801847021486 2.2380487965385747 0.0
  endloop
endfacet
endsolid Корпус продолжение
