solid 
   facet normal 0.000000e+000 -1.000000e+000 0.000000e+000
      outer loop
         vertex 0.000000e+000 -3.500000e+000 1.900000e+000
         vertex 7.400000e+000 -3.500000e+000 1.900000e+000
         vertex 7.400000e+000 -3.500000e+000 5.100000e+000
      endloop
   endfacet
   facet normal -0.000000e+000 -1.000000e+000 0.000000e+000
      outer loop
         vertex 0.000000e+000 -3.500000e+000 1.900000e+000
         vertex 7.400000e+000 -3.500000e+000 5.100000e+000
         vertex 0.000000e+000 -3.500000e+000 5.100000e+000
      endloop
   endfacet
   facet normal 0.000000e+000 -1.000000e+000 -0.000000e+000
      outer loop
         vertex 1.550000e+001 -3.500000e+000 0.000000e+000
         vertex 1.550000e+001 -3.500000e+000 7.000000e+000
         vertex 1.060000e+001 -3.500000e+000 3.500000e+000
      endloop
   endfacet
   facet normal 0.000000e+000 -1.000000e+000 0.000000e+000
      outer loop
         vertex -1.550000e+001 -3.500000e+000 7.000000e+000
         vertex -1.550000e+001 -3.500000e+000 0.000000e+000
         vertex -1.060000e+001 -3.500000e+000 5.100000e+000
      endloop
   endfacet
   facet normal 0.000000e+000 -1.000000e+000 0.000000e+000
      outer loop
         vertex -7.774329e+000 -3.500000e+000 4.528460e+000
         vertex -7.400000e+000 -3.500000e+000 3.500000e+000
         vertex -7.400000e+000 -3.500000e+000 5.100000e+000
      endloop
   endfacet
   facet normal 0.000000e+000 -1.000000e+000 0.000000e+000
      outer loop
         vertex -7.774329e+000 -3.500000e+000 2.471540e+000
         vertex -8.722163e+000 -3.500000e+000 1.924308e+000
         vertex -7.400000e+000 -3.500000e+000 1.900000e+000
      endloop
   endfacet
   facet normal 0.000000e+000 -1.000000e+000 -0.000000e+000
      outer loop
         vertex -9.800000e+000 -3.500000e+000 2.114359e+000
         vertex -1.050351e+001 -3.500000e+000 2.952768e+000
         vertex -1.060000e+001 -3.500000e+000 1.900000e+000
      endloop
   endfacet
   facet normal -0.000000e+000 -1.000000e+000 0.000000e+000
      outer loop
         vertex -1.050351e+001 -3.500000e+000 4.047232e+000
         vertex -9.800000e+000 -3.500000e+000 4.885641e+000
         vertex -1.060000e+001 -3.500000e+000 5.100000e+000
      endloop
   endfacet
   facet normal 0.000000e+000 -1.000000e+000 0.000000e+000
      outer loop
         vertex -8.722163e+000 -3.500000e+000 5.075692e+000
         vertex -7.774329e+000 -3.500000e+000 4.528460e+000
         vertex -7.400000e+000 -3.500000e+000 5.100000e+000
      endloop
   endfacet
   facet normal 0.000000e+000 -1.000000e+000 0.000000e+000
      outer loop
         vertex 1.060000e+001 -3.500000e+000 3.500000e+000
         vertex 1.022567e+001 -3.500000e+000 2.471540e+000
         vertex 1.060000e+001 -3.500000e+000 1.900000e+000
      endloop
   endfacet
   facet normal 0.000000e+000 -1.000000e+000 -0.000000e+000
      outer loop
         vertex 9.277837e+000 -3.500000e+000 1.924308e+000
         vertex 8.200000e+000 -3.500000e+000 2.114359e+000
         vertex 7.400000e+000 -3.500000e+000 1.900000e+000
      endloop
   endfacet
   facet normal -0.000000e+000 -1.000000e+000 -0.000000e+000
      outer loop
         vertex 7.496492e+000 -3.500000e+000 2.952768e+000
         vertex 7.496492e+000 -3.500000e+000 4.047232e+000
         vertex 7.400000e+000 -3.500000e+000 5.100000e+000
      endloop
   endfacet
   facet normal -0.000000e+000 -1.000000e+000 0.000000e+000
      outer loop
         vertex 8.200000e+000 -3.500000e+000 4.885641e+000
         vertex 9.277837e+000 -3.500000e+000 5.075692e+000
         vertex 7.400000e+000 -3.500000e+000 5.100000e+000
      endloop
   endfacet
   facet normal 0.000000e+000 -1.000000e+000 0.000000e+000
      outer loop
         vertex -1.060000e+001 -3.500000e+000 1.900000e+000
         vertex -7.400000e+000 -3.500000e+000 1.900000e+000
         vertex -8.722163e+000 -3.500000e+000 1.924308e+000
      endloop
   endfacet
   facet normal 0.000000e+000 -1.000000e+000 0.000000e+000
      outer loop
         vertex -1.060000e+001 -3.500000e+000 5.100000e+000
         vertex -1.060000e+001 -3.500000e+000 1.900000e+000
         vertex -1.050351e+001 -3.500000e+000 2.952768e+000
      endloop
   endfacet
   facet normal 0.000000e+000 -1.000000e+000 0.000000e+000
      outer loop
         vertex 0.000000e+000 -3.500000e+000 5.100000e+000
         vertex -7.400000e+000 -3.500000e+000 5.100000e+000
         vertex -7.400000e+000 -3.500000e+000 3.500000e+000
      endloop
   endfacet
   facet normal 0.000000e+000 -1.000000e+000 0.000000e+000
      outer loop
         vertex 7.400000e+000 -3.500000e+000 1.900000e+000
         vertex 1.060000e+001 -3.500000e+000 1.900000e+000
         vertex 9.277837e+000 -3.500000e+000 1.924308e+000
      endloop
   endfacet
   facet normal 0.000000e+000 -1.000000e+000 0.000000e+000
      outer loop
         vertex 7.400000e+000 -3.500000e+000 5.100000e+000
         vertex 7.400000e+000 -3.500000e+000 1.900000e+000
         vertex 7.496492e+000 -3.500000e+000 2.952768e+000
      endloop
   endfacet
   facet normal 0.000000e+000 -1.000000e+000 0.000000e+000
      outer loop
         vertex 1.550000e+001 -3.500000e+000 0.000000e+000
         vertex 1.060000e+001 -3.500000e+000 3.500000e+000
         vertex 1.060000e+001 -3.500000e+000 1.900000e+000
      endloop
   endfacet
   facet normal 0.000000e+000 -1.000000e+000 0.000000e+000
      outer loop
         vertex -1.550000e+001 -3.500000e+000 7.000000e+000
         vertex -1.060000e+001 -3.500000e+000 5.100000e+000
         vertex -7.400000e+000 -3.500000e+000 5.100000e+000
      endloop
   endfacet
   facet normal 0.000000e+000 -1.000000e+000 0.000000e+000
      outer loop
         vertex -9.800000e+000 -3.500000e+000 2.114359e+000
         vertex -1.060000e+001 -3.500000e+000 1.900000e+000
         vertex -8.722163e+000 -3.500000e+000 1.924308e+000
      endloop
   endfacet
   facet normal -0.000000e+000 -1.000000e+000 0.000000e+000
      outer loop
         vertex -8.722163e+000 -3.500000e+000 5.075692e+000
         vertex -7.400000e+000 -3.500000e+000 5.100000e+000
         vertex -1.060000e+001 -3.500000e+000 5.100000e+000
      endloop
   endfacet
   facet normal 0.000000e+000 -1.000000e+000 0.000000e+000
      outer loop
         vertex 7.400000e+000 -3.500000e+000 5.100000e+000
         vertex 7.496492e+000 -3.500000e+000 4.047232e+000
         vertex 8.200000e+000 -3.500000e+000 4.885641e+000
      endloop
   endfacet
   facet normal 0.000000e+000 -1.000000e+000 0.000000e+000
      outer loop
         vertex 0.000000e+000 -3.500000e+000 5.100000e+000
         vertex -7.400000e+000 -3.500000e+000 3.500000e+000
         vertex 0.000000e+000 -3.500000e+000 1.900000e+000
      endloop
   endfacet
   facet normal -0.000000e+000 -1.000000e+000 -0.000000e+000
      outer loop
         vertex 1.550000e+001 -3.500000e+000 0.000000e+000
         vertex 1.060000e+001 -3.500000e+000 1.900000e+000
         vertex 7.400000e+000 -3.500000e+000 1.900000e+000
      endloop
   endfacet
   facet normal 0.000000e+000 -1.000000e+000 0.000000e+000
      outer loop
         vertex 0.000000e+000 -3.500000e+000 1.900000e+000
         vertex -7.400000e+000 -3.500000e+000 3.500000e+000
         vertex -7.400000e+000 -3.500000e+000 1.900000e+000
      endloop
   endfacet
   facet normal 0.000000e+000 -1.000000e+000 0.000000e+000
      outer loop
         vertex 1.550000e+001 -3.500000e+000 7.000000e+000
         vertex -1.550000e+001 -3.500000e+000 7.000000e+000
         vertex 0.000000e+000 -3.500000e+000 5.100000e+000
      endloop
   endfacet
   facet normal 0.000000e+000 -1.000000e+000 0.000000e+000
      outer loop
         vertex -7.400000e+000 -3.500000e+000 3.500000e+000
         vertex -7.774329e+000 -3.500000e+000 2.471540e+000
         vertex -7.400000e+000 -3.500000e+000 1.900000e+000
      endloop
   endfacet
   facet normal -0.000000e+000 -1.000000e+000 0.000000e+000
      outer loop
         vertex -9.800000e+000 -3.500000e+000 4.885641e+000
         vertex -8.722163e+000 -3.500000e+000 5.075692e+000
         vertex -1.060000e+001 -3.500000e+000 5.100000e+000
      endloop
   endfacet
   facet normal 0.000000e+000 -1.000000e+000 0.000000e+000
      outer loop
         vertex 1.022567e+001 -3.500000e+000 2.471540e+000
         vertex 9.277837e+000 -3.500000e+000 1.924308e+000
         vertex 1.060000e+001 -3.500000e+000 1.900000e+000
      endloop
   endfacet
   facet normal 0.000000e+000 -1.000000e+000 0.000000e+000
      outer loop
         vertex 9.277837e+000 -3.500000e+000 5.075692e+000
         vertex 1.022567e+001 -3.500000e+000 4.528460e+000
         vertex 1.060000e+001 -3.500000e+000 5.100000e+000
      endloop
   endfacet
   facet normal 0.000000e+000 -1.000000e+000 0.000000e+000
      outer loop
         vertex 1.060000e+001 -3.500000e+000 5.100000e+000
         vertex 7.400000e+000 -3.500000e+000 5.100000e+000
         vertex 9.277837e+000 -3.500000e+000 5.075692e+000
      endloop
   endfacet
   facet normal 0.000000e+000 -1.000000e+000 0.000000e+000
      outer loop
         vertex 1.060000e+001 -3.500000e+000 3.500000e+000
         vertex 1.550000e+001 -3.500000e+000 7.000000e+000
         vertex 1.060000e+001 -3.500000e+000 5.100000e+000
      endloop
   endfacet
   facet normal 0.000000e+000 -1.000000e+000 0.000000e+000
      outer loop
         vertex -1.050351e+001 -3.500000e+000 4.047232e+000
         vertex -1.060000e+001 -3.500000e+000 5.100000e+000
         vertex -1.050351e+001 -3.500000e+000 2.952768e+000
      endloop
   endfacet
   facet normal 0.000000e+000 -1.000000e+000 0.000000e+000
      outer loop
         vertex -1.550000e+001 -3.500000e+000 7.000000e+000
         vertex -7.400000e+000 -3.500000e+000 5.100000e+000
         vertex 0.000000e+000 -3.500000e+000 5.100000e+000
      endloop
   endfacet
   facet normal 0.000000e+000 -1.000000e+000 0.000000e+000
      outer loop
         vertex 1.060000e+001 -3.500000e+000 5.100000e+000
         vertex 1.022567e+001 -3.500000e+000 4.528460e+000
         vertex 1.060000e+001 -3.500000e+000 3.500000e+000
      endloop
   endfacet
   facet normal 0.000000e+000 -1.000000e+000 0.000000e+000
      outer loop
         vertex -1.550000e+001 -3.500000e+000 0.000000e+000
         vertex 1.550000e+001 -3.500000e+000 0.000000e+000
         vertex 0.000000e+000 -3.500000e+000 1.900000e+000
      endloop
   endfacet
   facet normal 0.000000e+000 -1.000000e+000 0.000000e+000
      outer loop
         vertex -1.060000e+001 -3.500000e+000 5.100000e+000
         vertex -1.550000e+001 -3.500000e+000 0.000000e+000
         vertex -1.060000e+001 -3.500000e+000 1.900000e+000
      endloop
   endfacet
   facet normal -0.000000e+000 -1.000000e+000 -0.000000e+000
      outer loop
         vertex 1.550000e+001 -3.500000e+000 0.000000e+000
         vertex 7.400000e+000 -3.500000e+000 1.900000e+000
         vertex 0.000000e+000 -3.500000e+000 1.900000e+000
      endloop
   endfacet
   facet normal -0.000000e+000 -1.000000e+000 0.000000e+000
      outer loop
         vertex -1.550000e+001 -3.500000e+000 0.000000e+000
         vertex 0.000000e+000 -3.500000e+000 1.900000e+000
         vertex -7.400000e+000 -3.500000e+000 1.900000e+000
      endloop
   endfacet
   facet normal 0.000000e+000 -1.000000e+000 -0.000000e+000
      outer loop
         vertex 8.200000e+000 -3.500000e+000 2.114359e+000
         vertex 7.496492e+000 -3.500000e+000 2.952768e+000
         vertex 7.400000e+000 -3.500000e+000 1.900000e+000
      endloop
   endfacet
   facet normal 0.000000e+000 -1.000000e+000 0.000000e+000
      outer loop
         vertex 1.550000e+001 -3.500000e+000 7.000000e+000
         vertex 0.000000e+000 -3.500000e+000 5.100000e+000
         vertex 7.400000e+000 -3.500000e+000 5.100000e+000
      endloop
   endfacet
   facet normal -0.000000e+000 -1.000000e+000 0.000000e+000
      outer loop
         vertex -1.550000e+001 -3.500000e+000 0.000000e+000
         vertex -7.400000e+000 -3.500000e+000 1.900000e+000
         vertex -1.060000e+001 -3.500000e+000 1.900000e+000
      endloop
   endfacet
   facet normal 0.000000e+000 -1.000000e+000 0.000000e+000
      outer loop
         vertex 1.060000e+001 -3.500000e+000 5.100000e+000
         vertex 1.550000e+001 -3.500000e+000 7.000000e+000
         vertex 7.400000e+000 -3.500000e+000 5.100000e+000
      endloop
   endfacet
   facet normal 0.000000e+000 1.000000e+000 0.000000e+000
      outer loop
         vertex 7.400000e+000 3.500000e+000 1.900000e+000
         vertex 0.000000e+000 3.500000e+000 1.900000e+000
         vertex 0.000000e+000 3.500000e+000 5.100000e+000
      endloop
   endfacet
   facet normal -0.000000e+000 1.000000e+000 0.000000e+000
      outer loop
         vertex 7.400000e+000 3.500000e+000 1.900000e+000
         vertex 0.000000e+000 3.500000e+000 5.100000e+000
         vertex 7.400000e+000 3.500000e+000 5.100000e+000
      endloop
   endfacet
   facet normal 0.000000e+000 1.000000e+000 0.000000e+000
      outer loop
         vertex -1.550000e+001 3.500000e+000 0.000000e+000
         vertex -1.550000e+001 3.500000e+000 2.493578e+001
         vertex -1.060000e+001 3.500000e+000 5.100000e+000
      endloop
   endfacet
   facet normal 0.000000e+000 1.000000e+000 -0.000000e+000
      outer loop
         vertex 1.550000e+001 3.500000e+000 2.493578e+001
         vertex 1.550000e+001 3.500000e+000 0.000000e+000
         vertex 1.060000e+001 3.500000e+000 5.100000e+000
      endloop
   endfacet
   facet normal 0.000000e+000 1.000000e+000 0.000000e+000
      outer loop
         vertex -7.774329e+000 3.500000e+000 2.471540e+000
         vertex -7.400000e+000 3.500000e+000 3.500000e+000
         vertex -7.400000e+000 3.500000e+000 1.900000e+000
      endloop
   endfacet
   facet normal -0.000000e+000 1.000000e+000 0.000000e+000
      outer loop
         vertex -7.774329e+000 3.500000e+000 4.528460e+000
         vertex -8.722163e+000 3.500000e+000 5.075692e+000
         vertex -7.400000e+000 3.500000e+000 5.100000e+000
      endloop
   endfacet
   facet normal 0.000000e+000 1.000000e+000 -0.000000e+000
      outer loop
         vertex -9.800000e+000 3.500000e+000 4.885641e+000
         vertex -1.050351e+001 3.500000e+000 4.047232e+000
         vertex -1.060000e+001 3.500000e+000 5.100000e+000
      endloop
   endfacet
   facet normal 0.000000e+000 1.000000e+000 0.000000e+000
      outer loop
         vertex -1.050351e+001 3.500000e+000 2.952768e+000
         vertex -9.800000e+000 3.500000e+000 2.114359e+000
         vertex -1.060000e+001 3.500000e+000 1.900000e+000
      endloop
   endfacet
   facet normal 0.000000e+000 1.000000e+000 0.000000e+000
      outer loop
         vertex -8.722163e+000 3.500000e+000 1.924308e+000
         vertex -7.774329e+000 3.500000e+000 2.471540e+000
         vertex -7.400000e+000 3.500000e+000 1.900000e+000
      endloop
   endfacet
   facet normal -0.000000e+000 1.000000e+000 0.000000e+000
      outer loop
         vertex 1.060000e+001 3.500000e+000 3.500000e+000
         vertex 1.022567e+001 3.500000e+000 4.528460e+000
         vertex 1.060000e+001 3.500000e+000 5.100000e+000
      endloop
   endfacet
   facet normal 0.000000e+000 1.000000e+000 -0.000000e+000
      outer loop
         vertex 9.277837e+000 3.500000e+000 5.075692e+000
         vertex 8.200000e+000 3.500000e+000 4.885641e+000
         vertex 7.400000e+000 3.500000e+000 5.100000e+000
      endloop
   endfacet
   facet normal 0.000000e+000 1.000000e+000 -0.000000e+000
      outer loop
         vertex 7.496492e+000 3.500000e+000 4.047232e+000
         vertex 7.496492e+000 3.500000e+000 2.952768e+000
         vertex 7.400000e+000 3.500000e+000 5.100000e+000
      endloop
   endfacet
   facet normal 0.000000e+000 1.000000e+000 0.000000e+000
      outer loop
         vertex 8.200000e+000 3.500000e+000 2.114359e+000
         vertex 9.277837e+000 3.500000e+000 1.924308e+000
         vertex 7.400000e+000 3.500000e+000 1.900000e+000
      endloop
   endfacet
   facet normal 0.000000e+000 1.000000e+000 0.000000e+000
      outer loop
         vertex 1.060000e+001 3.500000e+000 1.900000e+000
         vertex 7.400000e+000 3.500000e+000 1.900000e+000
         vertex 9.277837e+000 3.500000e+000 1.924308e+000
      endloop
   endfacet
   facet normal 0.000000e+000 1.000000e+000 0.000000e+000
      outer loop
         vertex 7.400000e+000 3.500000e+000 1.900000e+000
         vertex 7.400000e+000 3.500000e+000 5.100000e+000
         vertex 7.496492e+000 3.500000e+000 2.952768e+000
      endloop
   endfacet
   facet normal 0.000000e+000 1.000000e+000 0.000000e+000
      outer loop
         vertex -7.400000e+000 3.500000e+000 5.100000e+000
         vertex 0.000000e+000 3.500000e+000 5.100000e+000
         vertex -7.400000e+000 3.500000e+000 3.500000e+000
      endloop
   endfacet
   facet normal 0.000000e+000 1.000000e+000 0.000000e+000
      outer loop
         vertex -7.400000e+000 3.500000e+000 1.900000e+000
         vertex -1.060000e+001 3.500000e+000 1.900000e+000
         vertex -8.722163e+000 3.500000e+000 1.924308e+000
      endloop
   endfacet
   facet normal 0.000000e+000 1.000000e+000 0.000000e+000
      outer loop
         vertex -1.060000e+001 3.500000e+000 1.900000e+000
         vertex -1.060000e+001 3.500000e+000 5.100000e+000
         vertex -1.050351e+001 3.500000e+000 2.952768e+000
      endloop
   endfacet
   facet normal 0.000000e+000 1.000000e+000 0.000000e+000
      outer loop
         vertex -1.550000e+001 3.500000e+000 0.000000e+000
         vertex -1.060000e+001 3.500000e+000 5.100000e+000
         vertex -1.060000e+001 3.500000e+000 1.900000e+000
      endloop
   endfacet
   facet normal 0.000000e+000 1.000000e+000 0.000000e+000
      outer loop
         vertex 1.060000e+001 3.500000e+000 5.100000e+000
         vertex 1.550000e+001 3.500000e+000 0.000000e+000
         vertex 1.060000e+001 3.500000e+000 3.500000e+000
      endloop
   endfacet
   facet normal 0.000000e+000 1.000000e+000 0.000000e+000
      outer loop
         vertex -7.774329e+000 3.500000e+000 4.528460e+000
         vertex -7.400000e+000 3.500000e+000 5.100000e+000
         vertex -7.400000e+000 3.500000e+000 3.500000e+000
      endloop
   endfacet
   facet normal 0.000000e+000 1.000000e+000 0.000000e+000
      outer loop
         vertex -1.060000e+001 3.500000e+000 5.100000e+000
         vertex -1.050351e+001 3.500000e+000 4.047232e+000
         vertex -1.050351e+001 3.500000e+000 2.952768e+000
      endloop
   endfacet
   facet normal -0.000000e+000 1.000000e+000 0.000000e+000
      outer loop
         vertex 9.277837e+000 3.500000e+000 5.075692e+000
         vertex 7.400000e+000 3.500000e+000 5.100000e+000
         vertex 1.060000e+001 3.500000e+000 5.100000e+000
      endloop
   endfacet
   facet normal 0.000000e+000 1.000000e+000 0.000000e+000
      outer loop
         vertex 8.200000e+000 3.500000e+000 2.114359e+000
         vertex 7.400000e+000 3.500000e+000 1.900000e+000
         vertex 7.496492e+000 3.500000e+000 2.952768e+000
      endloop
   endfacet
   facet normal 0.000000e+000 1.000000e+000 0.000000e+000
      outer loop
         vertex -8.722163e+000 3.500000e+000 1.924308e+000
         vertex -1.060000e+001 3.500000e+000 1.900000e+000
         vertex -9.800000e+000 3.500000e+000 2.114359e+000
      endloop
   endfacet
   facet normal 0.000000e+000 1.000000e+000 0.000000e+000
      outer loop
         vertex -1.550000e+001 3.500000e+000 2.493578e+001
         vertex 1.550000e+001 3.500000e+000 2.493578e+001
         vertex 0.000000e+000 3.500000e+000 5.100000e+000
      endloop
   endfacet
   facet normal 0.000000e+000 1.000000e+000 -0.000000e+000
      outer loop
         vertex -8.722163e+000 3.500000e+000 5.075692e+000
         vertex -9.800000e+000 3.500000e+000 4.885641e+000
         vertex -1.060000e+001 3.500000e+000 5.100000e+000
      endloop
   endfacet
   facet normal -0.000000e+000 1.000000e+000 0.000000e+000
      outer loop
         vertex 1.022567e+001 3.500000e+000 4.528460e+000
         vertex 9.277837e+000 3.500000e+000 5.075692e+000
         vertex 1.060000e+001 3.500000e+000 5.100000e+000
      endloop
   endfacet
   facet normal 0.000000e+000 1.000000e+000 0.000000e+000
      outer loop
         vertex 9.277837e+000 3.500000e+000 1.924308e+000
         vertex 1.022567e+001 3.500000e+000 2.471540e+000
         vertex 1.060000e+001 3.500000e+000 1.900000e+000
      endloop
   endfacet
   facet normal 0.000000e+000 1.000000e+000 0.000000e+000
      outer loop
         vertex 0.000000e+000 3.500000e+000 1.900000e+000
         vertex -7.400000e+000 3.500000e+000 1.900000e+000
         vertex -7.400000e+000 3.500000e+000 3.500000e+000
      endloop
   endfacet
   facet normal 0.000000e+000 1.000000e+000 0.000000e+000
      outer loop
         vertex -1.060000e+001 3.500000e+000 5.100000e+000
         vertex -7.400000e+000 3.500000e+000 5.100000e+000
         vertex -8.722163e+000 3.500000e+000 5.075692e+000
      endloop
   endfacet
   facet normal 0.000000e+000 1.000000e+000 0.000000e+000
      outer loop
         vertex -1.060000e+001 3.500000e+000 5.100000e+000
         vertex -1.550000e+001 3.500000e+000 2.493578e+001
         vertex -7.400000e+000 3.500000e+000 5.100000e+000
      endloop
   endfacet
   facet normal 0.000000e+000 1.000000e+000 0.000000e+000
      outer loop
         vertex 7.496492e+000 3.500000e+000 4.047232e+000
         vertex 7.400000e+000 3.500000e+000 5.100000e+000
         vertex 8.200000e+000 3.500000e+000 4.885641e+000
      endloop
   endfacet
   facet normal 0.000000e+000 1.000000e+000 0.000000e+000
      outer loop
         vertex -1.550000e+001 3.500000e+000 2.493578e+001
         vertex 0.000000e+000 3.500000e+000 5.100000e+000
         vertex -7.400000e+000 3.500000e+000 5.100000e+000
      endloop
   endfacet
   facet normal -0.000000e+000 1.000000e+000 0.000000e+000
      outer loop
         vertex 0.000000e+000 3.500000e+000 1.900000e+000
         vertex -7.400000e+000 3.500000e+000 3.500000e+000
         vertex 0.000000e+000 3.500000e+000 5.100000e+000
      endloop
   endfacet
   facet normal 0.000000e+000 1.000000e+000 0.000000e+000
      outer loop
         vertex 1.550000e+001 3.500000e+000 0.000000e+000
         vertex -1.550000e+001 3.500000e+000 0.000000e+000
         vertex 0.000000e+000 3.500000e+000 1.900000e+000
      endloop
   endfacet
   facet normal 0.000000e+000 1.000000e+000 -0.000000e+000
      outer loop
         vertex 1.550000e+001 3.500000e+000 2.493578e+001
         vertex 1.060000e+001 3.500000e+000 5.100000e+000
         vertex 7.400000e+000 3.500000e+000 5.100000e+000
      endloop
   endfacet
   facet normal 0.000000e+000 1.000000e+000 0.000000e+000
      outer loop
         vertex 0.000000e+000 3.500000e+000 5.100000e+000
         vertex 1.550000e+001 3.500000e+000 2.493578e+001
         vertex 7.400000e+000 3.500000e+000 5.100000e+000
      endloop
   endfacet
   facet normal 0.000000e+000 1.000000e+000 0.000000e+000
      outer loop
         vertex 0.000000e+000 3.500000e+000 1.900000e+000
         vertex -1.550000e+001 3.500000e+000 0.000000e+000
         vertex -7.400000e+000 3.500000e+000 1.900000e+000
      endloop
   endfacet
   facet normal 0.000000e+000 1.000000e+000 0.000000e+000
      outer loop
         vertex 1.022567e+001 3.500000e+000 2.471540e+000
         vertex 1.060000e+001 3.500000e+000 3.500000e+000
         vertex 1.060000e+001 3.500000e+000 1.900000e+000
      endloop
   endfacet
   facet normal -0.000000e+000 1.000000e+000 0.000000e+000
      outer loop
         vertex -1.550000e+001 3.500000e+000 0.000000e+000
         vertex -1.060000e+001 3.500000e+000 1.900000e+000
         vertex -7.400000e+000 3.500000e+000 1.900000e+000
      endloop
   endfacet
   facet normal 0.000000e+000 1.000000e+000 0.000000e+000
      outer loop
         vertex 1.060000e+001 3.500000e+000 1.900000e+000
         vertex 1.060000e+001 3.500000e+000 3.500000e+000
         vertex 1.550000e+001 3.500000e+000 0.000000e+000
      endloop
   endfacet
   facet normal -0.000000e+000 1.000000e+000 0.000000e+000
      outer loop
         vertex 1.550000e+001 3.500000e+000 0.000000e+000
         vertex 0.000000e+000 3.500000e+000 1.900000e+000
         vertex 7.400000e+000 3.500000e+000 1.900000e+000
      endloop
   endfacet
   facet normal 0.000000e+000 1.000000e+000 0.000000e+000
      outer loop
         vertex 1.060000e+001 3.500000e+000 1.900000e+000
         vertex 1.550000e+001 3.500000e+000 0.000000e+000
         vertex 7.400000e+000 3.500000e+000 1.900000e+000
      endloop
   endfacet
   facet normal -9.396924e-001 0.000000e+000 3.420207e-001
      outer loop
         vertex 1.022567e+001 -3.500000e+000 2.471540e+000
         vertex 1.060000e+001 -3.500000e+000 3.500000e+000
         vertex 1.060000e+001 3.500000e+000 3.500000e+000
      endloop
   endfacet
   facet normal 1.736482e-001 -0.000000e+000 9.848077e-001
      outer loop
         vertex 8.200000e+000 3.500000e+000 2.114359e+000
         vertex 8.200000e+000 -3.500000e+000 2.114359e+000
         vertex 9.277837e+000 -3.500000e+000 1.924308e+000
      endloop
   endfacet
   facet normal 1.000000e+000 -0.000000e+000 0.000000e+000
      outer loop
         vertex 7.496492e+000 3.500000e+000 4.047232e+000
         vertex 7.496492e+000 -3.500000e+000 4.047232e+000
         vertex 7.496492e+000 -3.500000e+000 2.952768e+000
      endloop
   endfacet
   facet normal 1.736480e-001 0.000000e+000 -9.848078e-001
      outer loop
         vertex 8.200000e+000 3.500000e+000 4.885641e+000
         vertex 9.277837e+000 -3.500000e+000 5.075692e+000
         vertex 8.200000e+000 -3.500000e+000 4.885641e+000
      endloop
   endfacet
   facet normal -9.396924e-001 0.000000e+000 -3.420207e-001
      outer loop
         vertex 1.060000e+001 3.500000e+000 3.500000e+000
         vertex 1.060000e+001 -3.500000e+000 3.500000e+000
         vertex 1.022567e+001 -3.500000e+000 4.528460e+000
      endloop
   endfacet
   facet normal -5.000000e-001 -0.000000e+000 -8.660254e-001
      outer loop
         vertex 9.277837e+000 -3.500000e+000 5.075692e+000
         vertex 9.277837e+000 3.500000e+000 5.075692e+000
         vertex 1.022567e+001 3.500000e+000 4.528460e+000
      endloop
   endfacet
   facet normal 7.660446e-001 0.000000e+000 -6.427874e-001
      outer loop
         vertex 7.496492e+000 -3.500000e+000 4.047232e+000
         vertex 7.496492e+000 3.500000e+000 4.047232e+000
         vertex 8.200000e+000 3.500000e+000 4.885641e+000
      endloop
   endfacet
   facet normal 7.660446e-001 0.000000e+000 6.427874e-001
      outer loop
         vertex 7.496492e+000 -3.500000e+000 2.952768e+000
         vertex 8.200000e+000 3.500000e+000 2.114359e+000
         vertex 7.496492e+000 3.500000e+000 2.952768e+000
      endloop
   endfacet
   facet normal -5.000000e-001 0.000000e+000 8.660254e-001
      outer loop
         vertex 1.022567e+001 -3.500000e+000 2.471540e+000
         vertex 1.022567e+001 3.500000e+000 2.471540e+000
         vertex 9.277837e+000 3.500000e+000 1.924308e+000
      endloop
   endfacet
   facet normal -9.396924e-001 0.000000e+000 3.420207e-001
      outer loop
         vertex 1.022567e+001 3.500000e+000 2.471540e+000
         vertex 1.022567e+001 -3.500000e+000 2.471540e+000
         vertex 1.060000e+001 3.500000e+000 3.500000e+000
      endloop
   endfacet
   facet normal 1.000000e+000 0.000000e+000 0.000000e+000
      outer loop
         vertex 7.496492e+000 3.500000e+000 2.952768e+000
         vertex 7.496492e+000 3.500000e+000 4.047232e+000
         vertex 7.496492e+000 -3.500000e+000 2.952768e+000
      endloop
   endfacet
   facet normal -9.396924e-001 0.000000e+000 -3.420207e-001
      outer loop
         vertex 1.022567e+001 3.500000e+000 4.528460e+000
         vertex 1.060000e+001 3.500000e+000 3.500000e+000
         vertex 1.022567e+001 -3.500000e+000 4.528460e+000
      endloop
   endfacet
   facet normal 7.660446e-001 0.000000e+000 -6.427874e-001
      outer loop
         vertex 8.200000e+000 -3.500000e+000 4.885641e+000
         vertex 7.496492e+000 -3.500000e+000 4.047232e+000
         vertex 8.200000e+000 3.500000e+000 4.885641e+000
      endloop
   endfacet
   facet normal -5.000000e-001 0.000000e+000 8.660254e-001
      outer loop
         vertex 9.277837e+000 3.500000e+000 1.924308e+000
         vertex 9.277837e+000 -3.500000e+000 1.924308e+000
         vertex 1.022567e+001 -3.500000e+000 2.471540e+000
      endloop
   endfacet
   facet normal -5.000000e-001 0.000000e+000 -8.660254e-001
      outer loop
         vertex 1.022567e+001 3.500000e+000 4.528460e+000
         vertex 1.022567e+001 -3.500000e+000 4.528460e+000
         vertex 9.277837e+000 -3.500000e+000 5.075692e+000
      endloop
   endfacet
   facet normal 1.736482e-001 0.000000e+000 9.848077e-001
      outer loop
         vertex 9.277837e+000 -3.500000e+000 1.924308e+000
         vertex 9.277837e+000 3.500000e+000 1.924308e+000
         vertex 8.200000e+000 3.500000e+000 2.114359e+000
      endloop
   endfacet
   facet normal 1.736480e-001 0.000000e+000 -9.848078e-001
      outer loop
         vertex 9.277837e+000 3.500000e+000 5.075692e+000
         vertex 9.277837e+000 -3.500000e+000 5.075692e+000
         vertex 8.200000e+000 3.500000e+000 4.885641e+000
      endloop
   endfacet
   facet normal 7.660446e-001 0.000000e+000 6.427874e-001
      outer loop
         vertex 8.200000e+000 3.500000e+000 2.114359e+000
         vertex 7.496492e+000 -3.500000e+000 2.952768e+000
         vertex 8.200000e+000 -3.500000e+000 2.114359e+000
      endloop
   endfacet
   facet normal -9.396927e-001 0.000000e+000 3.420199e-001
      outer loop
         vertex -7.774329e+000 -3.500000e+000 2.471540e+000
         vertex -7.400000e+000 -3.500000e+000 3.500000e+000
         vertex -7.400000e+000 3.500000e+000 3.500000e+000
      endloop
   endfacet
   facet normal 1.736482e-001 -0.000000e+000 9.848077e-001
      outer loop
         vertex -9.800000e+000 3.500000e+000 2.114359e+000
         vertex -9.800000e+000 -3.500000e+000 2.114359e+000
         vertex -8.722163e+000 -3.500000e+000 1.924308e+000
      endloop
   endfacet
   facet normal 1.000000e+000 -0.000000e+000 0.000000e+000
      outer loop
         vertex -1.050351e+001 3.500000e+000 4.047232e+000
         vertex -1.050351e+001 -3.500000e+000 4.047232e+000
         vertex -1.050351e+001 -3.500000e+000 2.952768e+000
      endloop
   endfacet
   facet normal 1.736480e-001 0.000000e+000 -9.848078e-001
      outer loop
         vertex -9.800000e+000 3.500000e+000 4.885641e+000
         vertex -8.722163e+000 -3.500000e+000 5.075692e+000
         vertex -9.800000e+000 -3.500000e+000 4.885641e+000
      endloop
   endfacet
   facet normal -9.396927e-001 0.000000e+000 -3.420200e-001
      outer loop
         vertex -7.400000e+000 3.500000e+000 3.500000e+000
         vertex -7.400000e+000 -3.500000e+000 3.500000e+000
         vertex -7.774329e+000 -3.500000e+000 4.528460e+000
      endloop
   endfacet
   facet normal -4.999998e-001 -0.000000e+000 -8.660255e-001
      outer loop
         vertex -8.722163e+000 -3.500000e+000 5.075692e+000
         vertex -8.722163e+000 3.500000e+000 5.075692e+000
         vertex -7.774329e+000 3.500000e+000 4.528460e+000
      endloop
   endfacet
   facet normal 7.660444e-001 0.000000e+000 -6.427877e-001
      outer loop
         vertex -1.050351e+001 -3.500000e+000 4.047232e+000
         vertex -1.050351e+001 3.500000e+000 4.047232e+000
         vertex -9.800000e+000 3.500000e+000 4.885641e+000
      endloop
   endfacet
   facet normal 7.660444e-001 0.000000e+000 6.427877e-001
      outer loop
         vertex -1.050351e+001 -3.500000e+000 2.952768e+000
         vertex -9.800000e+000 3.500000e+000 2.114359e+000
         vertex -1.050351e+001 3.500000e+000 2.952768e+000
      endloop
   endfacet
   facet normal -4.999998e-001 0.000000e+000 8.660255e-001
      outer loop
         vertex -7.774329e+000 -3.500000e+000 2.471540e+000
         vertex -7.774329e+000 3.500000e+000 2.471540e+000
         vertex -8.722163e+000 3.500000e+000 1.924308e+000
      endloop
   endfacet
   facet normal -9.396927e-001 0.000000e+000 3.420199e-001
      outer loop
         vertex -7.774329e+000 3.500000e+000 2.471540e+000
         vertex -7.774329e+000 -3.500000e+000 2.471540e+000
         vertex -7.400000e+000 3.500000e+000 3.500000e+000
      endloop
   endfacet
   facet normal 1.000000e+000 0.000000e+000 0.000000e+000
      outer loop
         vertex -1.050351e+001 3.500000e+000 2.952768e+000
         vertex -1.050351e+001 3.500000e+000 4.047232e+000
         vertex -1.050351e+001 -3.500000e+000 2.952768e+000
      endloop
   endfacet
   facet normal -9.396927e-001 0.000000e+000 -3.420200e-001
      outer loop
         vertex -7.774329e+000 3.500000e+000 4.528460e+000
         vertex -7.400000e+000 3.500000e+000 3.500000e+000
         vertex -7.774329e+000 -3.500000e+000 4.528460e+000
      endloop
   endfacet
   facet normal 7.660444e-001 0.000000e+000 -6.427877e-001
      outer loop
         vertex -9.800000e+000 -3.500000e+000 4.885641e+000
         vertex -1.050351e+001 -3.500000e+000 4.047232e+000
         vertex -9.800000e+000 3.500000e+000 4.885641e+000
      endloop
   endfacet
   facet normal -4.999998e-001 0.000000e+000 8.660255e-001
      outer loop
         vertex -8.722163e+000 3.500000e+000 1.924308e+000
         vertex -8.722163e+000 -3.500000e+000 1.924308e+000
         vertex -7.774329e+000 -3.500000e+000 2.471540e+000
      endloop
   endfacet
   facet normal -4.999998e-001 0.000000e+000 -8.660255e-001
      outer loop
         vertex -7.774329e+000 3.500000e+000 4.528460e+000
         vertex -7.774329e+000 -3.500000e+000 4.528460e+000
         vertex -8.722163e+000 -3.500000e+000 5.075692e+000
      endloop
   endfacet
   facet normal 1.736482e-001 0.000000e+000 9.848077e-001
      outer loop
         vertex -8.722163e+000 -3.500000e+000 1.924308e+000
         vertex -8.722163e+000 3.500000e+000 1.924308e+000
         vertex -9.800000e+000 3.500000e+000 2.114359e+000
      endloop
   endfacet
   facet normal 1.736480e-001 0.000000e+000 -9.848078e-001
      outer loop
         vertex -8.722163e+000 3.500000e+000 5.075692e+000
         vertex -8.722163e+000 -3.500000e+000 5.075692e+000
         vertex -9.800000e+000 3.500000e+000 4.885641e+000
      endloop
   endfacet
   facet normal 7.660444e-001 0.000000e+000 6.427877e-001
      outer loop
         vertex -9.800000e+000 3.500000e+000 2.114359e+000
         vertex -1.050351e+001 -3.500000e+000 2.952768e+000
         vertex -9.800000e+000 -3.500000e+000 2.114359e+000
      endloop
   endfacet
   facet normal -0.000000e+000 -0.000000e+000 -1.000000e+000
      outer loop
         vertex -1.550000e+001 -3.500000e+000 7.000000e+000
         vertex 1.550000e+001 -3.500000e+000 7.000000e+000
         vertex 1.550000e+001 -1.350000e+001 7.000000e+000
      endloop
   endfacet
   facet normal 0.000000e+000 0.000000e+000 -1.000000e+000
      outer loop
         vertex -1.550000e+001 -3.500000e+000 7.000000e+000
         vertex 1.550000e+001 -1.350000e+001 7.000000e+000
         vertex -1.550000e+001 -1.350000e+001 7.000000e+000
      endloop
   endfacet
   facet normal -1.000000e+000 0.000000e+000 -0.000000e+000
      outer loop
         vertex -1.550000e+001 -1.350000e+001 7.000000e+000
         vertex -1.550000e+001 -7.500000e+000 1.525000e+001
         vertex -1.550000e+001 -3.500000e+000 7.000000e+000
      endloop
   endfacet
   facet normal -1.000000e+000 0.000000e+000 0.000000e+000
      outer loop
         vertex -1.550000e+001 -1.350000e+001 2.350000e+001
         vertex -1.550000e+001 -1.350000e+001 2.493578e+001
         vertex -1.550000e+001 3.500000e+000 2.493578e+001
      endloop
   endfacet
   facet normal -1.000000e+000 0.000000e+000 0.000000e+000
      outer loop
         vertex -1.550000e+001 3.500000e+000 0.000000e+000
         vertex -1.550000e+001 -3.500000e+000 0.000000e+000
         vertex -1.550000e+001 -3.500000e+000 7.000000e+000
      endloop
   endfacet
   facet normal -1.000000e+000 0.000000e+000 0.000000e+000
      outer loop
         vertex -1.550000e+001 -1.350000e+001 2.350000e+001
         vertex -1.550000e+001 3.500000e+000 2.493578e+001
         vertex -1.550000e+001 -7.500000e+000 1.525000e+001
      endloop
   endfacet
   facet normal -1.000000e+000 0.000000e+000 0.000000e+000
      outer loop
         vertex -1.550000e+001 3.500000e+000 2.493578e+001
         vertex -1.550000e+001 3.500000e+000 0.000000e+000
         vertex -1.550000e+001 -3.500000e+000 7.000000e+000
      endloop
   endfacet
   facet normal -1.000000e+000 0.000000e+000 0.000000e+000
      outer loop
         vertex -1.550000e+001 -7.500000e+000 1.525000e+001
         vertex -1.550000e+001 3.500000e+000 2.493578e+001
         vertex -1.550000e+001 -3.500000e+000 7.000000e+000
      endloop
   endfacet
   facet normal 0.000000e+000 0.000000e+000 -1.000000e+000
      outer loop
         vertex -1.550000e+001 -3.500000e+000 0.000000e+000
         vertex -1.550000e+001 3.500000e+000 0.000000e+000
         vertex 1.550000e+001 3.500000e+000 0.000000e+000
      endloop
   endfacet
   facet normal 0.000000e+000 -0.000000e+000 -1.000000e+000
      outer loop
         vertex -1.550000e+001 -3.500000e+000 0.000000e+000
         vertex 1.550000e+001 3.500000e+000 0.000000e+000
         vertex 1.550000e+001 -3.500000e+000 0.000000e+000
      endloop
   endfacet
   facet normal 1.000000e+000 0.000000e+000 0.000000e+000
      outer loop
         vertex 1.550000e+001 -1.350000e+001 2.493578e+001
         vertex 1.550000e+001 -1.350000e+001 2.350000e+001
         vertex 1.550000e+001 3.500000e+000 2.493578e+001
      endloop
   endfacet
   facet normal 1.000000e+000 0.000000e+000 0.000000e+000
      outer loop
         vertex 1.550000e+001 -7.500000e+000 1.525000e+001
         vertex 1.550000e+001 -1.350000e+001 7.000000e+000
         vertex 1.550000e+001 -3.500000e+000 7.000000e+000
      endloop
   endfacet
   facet normal 1.000000e+000 0.000000e+000 0.000000e+000
      outer loop
         vertex 1.550000e+001 -3.500000e+000 0.000000e+000
         vertex 1.550000e+001 3.500000e+000 0.000000e+000
         vertex 1.550000e+001 -3.500000e+000 7.000000e+000
      endloop
   endfacet
   facet normal 1.000000e+000 0.000000e+000 -0.000000e+000
      outer loop
         vertex 1.550000e+001 -7.500000e+000 1.525000e+001
         vertex 1.550000e+001 -3.500000e+000 7.000000e+000
         vertex 1.550000e+001 3.500000e+000 2.493578e+001
      endloop
   endfacet
   facet normal 1.000000e+000 0.000000e+000 0.000000e+000
      outer loop
         vertex 1.550000e+001 -7.500000e+000 1.525000e+001
         vertex 1.550000e+001 3.500000e+000 2.493578e+001
         vertex 1.550000e+001 -1.350000e+001 2.350000e+001
      endloop
   endfacet
   facet normal 1.000000e+000 0.000000e+000 0.000000e+000
      outer loop
         vertex 1.550000e+001 3.500000e+000 0.000000e+000
         vertex 1.550000e+001 3.500000e+000 2.493578e+001
         vertex 1.550000e+001 -3.500000e+000 7.000000e+000
      endloop
   endfacet
   facet normal 0.000000e+000 -0.000000e+000 1.000000e+000
      outer loop
         vertex -1.550000e+001 -1.350000e+001 2.493578e+001
         vertex 1.550000e+001 -1.350000e+001 2.493578e+001
         vertex 1.550000e+001 3.500000e+000 2.493578e+001
      endloop
   endfacet
   facet normal 0.000000e+000 0.000000e+000 1.000000e+000
      outer loop
         vertex -1.550000e+001 -1.350000e+001 2.493578e+001
         vertex 1.550000e+001 3.500000e+000 2.493578e+001
         vertex -1.550000e+001 3.500000e+000 2.493578e+001
      endloop
   endfacet
   facet normal 0.000000e+000 -8.087361e-001 5.881717e-001
      outer loop
         vertex -1.550000e+001 -1.350000e+001 7.000000e+000
         vertex 1.550000e+001 -7.500000e+000 1.525000e+001
         vertex -1.550000e+001 -7.500000e+000 1.525000e+001
      endloop
   endfacet
   facet normal 0.000000e+000 -8.087361e-001 5.881717e-001
      outer loop
         vertex 1.550000e+001 -7.500000e+000 1.525000e+001
         vertex -1.550000e+001 -1.350000e+001 7.000000e+000
         vertex 1.550000e+001 -1.350000e+001 7.000000e+000
      endloop
   endfacet
   facet normal -0.000000e+000 -8.087361e-001 -5.881717e-001
      outer loop
         vertex 1.550000e+001 -7.500000e+000 1.525000e+001
         vertex 1.550000e+001 -1.350000e+001 2.350000e+001
         vertex -1.550000e+001 -1.350000e+001 2.350000e+001
      endloop
   endfacet
   facet normal 0.000000e+000 -8.087361e-001 -5.881717e-001
      outer loop
         vertex 1.550000e+001 -7.500000e+000 1.525000e+001
         vertex -1.550000e+001 -1.350000e+001 2.350000e+001
         vertex -1.550000e+001 -7.500000e+000 1.525000e+001
      endloop
   endfacet
   facet normal 0.000000e+000 -1.000000e+000 0.000000e+000
      outer loop
         vertex -1.550000e+001 -1.350000e+001 2.493578e+001
         vertex -1.550000e+001 -1.350000e+001 2.350000e+001
         vertex 1.550000e+001 -1.350000e+001 2.350000e+001
      endloop
   endfacet
   facet normal 0.000000e+000 -1.000000e+000 0.000000e+000
      outer loop
         vertex 1.550000e+001 -1.350000e+001 2.493578e+001
         vertex -1.550000e+001 -1.350000e+001 2.493578e+001
         vertex 1.550000e+001 -1.350000e+001 2.350000e+001
      endloop
   endfacet
endsolid
