solid 
   facet normal 0.000000e+000 0.000000e+000 -1.000000e+000
      outer loop
         vertex 2.375000e+001 9.475000e+000 0.000000e+000
         vertex 3.925000e+001 2.750000e+000 0.000000e+000
         vertex 8.250000e+000 2.750000e+000 0.000000e+000
      endloop
   endfacet
   facet normal 0.000000e+000 1.656277e-016 -1.000000e+000
      outer loop
         vertex 3.552500e+001 1.202500e+001 -1.776357e-015
         vertex 2.879956e+001 2.275000e+001 0.000000e+000
         vertex 3.925000e+001 2.275000e+001 0.000000e+000
      endloop
   endfacet
   facet normal 0.000000e+000 0.000000e+000 -1.000000e+000
      outer loop
         vertex 2.375000e+001 1.202500e+001 0.000000e+000
         vertex 2.375000e+001 2.095500e+001 0.000000e+000
         vertex 2.642956e+001 2.141709e+001 0.000000e+000
      endloop
   endfacet
   facet normal 8.774195e-017 1.560113e-016 -1.000000e+000
      outer loop
         vertex 1.752500e+001 1.202500e+001 -1.776357e-015
         vertex 1.870044e+001 2.275000e+001 0.000000e+000
         vertex 2.107044e+001 2.141709e+001 0.000000e+000
      endloop
   endfacet
   facet normal 0.000000e+000 0.000000e+000 -1.000000e+000
      outer loop
         vertex 1.197500e+001 1.202500e+001 0.000000e+000
         vertex 8.250000e+000 2.750000e+000 0.000000e+000
         vertex 8.250000e+000 2.275000e+001 0.000000e+000
      endloop
   endfacet
   facet normal 0.000000e+000 6.966107e-016 -1.000000e+000
      outer loop
         vertex 2.375000e+001 1.202500e+001 0.000000e+000
         vertex 2.997500e+001 1.202500e+001 0.000000e+000
         vertex 2.997500e+001 9.475000e+000 -1.776357e-015
      endloop
   endfacet
   facet normal 4.768745e-016 0.000000e+000 -1.000000e+000
      outer loop
         vertex 3.925000e+001 2.750000e+000 0.000000e+000
         vertex 3.552500e+001 9.475000e+000 -1.776357e-015
         vertex 3.552500e+001 1.202500e+001 -1.776357e-015
      endloop
   endfacet
   facet normal -1.734514e-015 6.966107e-016 -1.000000e+000
      outer loop
         vertex 8.250000e+000 2.750000e+000 0.000000e+000
         vertex 1.197500e+001 1.202500e+001 0.000000e+000
         vertex 1.197500e+001 9.475000e+000 -1.776357e-015
      endloop
   endfacet
   facet normal 2.853585e-016 0.000000e+000 -1.000000e+000
      outer loop
         vertex 2.375000e+001 1.202500e+001 0.000000e+000
         vertex 1.752500e+001 9.475000e+000 -1.776357e-015
         vertex 1.752500e+001 1.202500e+001 -1.776357e-015
      endloop
   endfacet
   facet normal -2.853585e-016 0.000000e+000 -1.000000e+000
      outer loop
         vertex 2.997500e+001 9.475000e+000 -1.776357e-015
         vertex 2.375000e+001 9.475000e+000 0.000000e+000
         vertex 2.375000e+001 1.202500e+001 0.000000e+000
      endloop
   endfacet
   facet normal -2.853585e-016 -6.577036e-016 -1.000000e+000
      outer loop
         vertex 2.997500e+001 9.475000e+000 -1.776357e-015
         vertex 3.925000e+001 2.750000e+000 0.000000e+000
         vertex 2.375000e+001 9.475000e+000 0.000000e+000
      endloop
   endfacet
   facet normal -3.200642e-016 -3.507855e-017 -1.000000e+000
      outer loop
         vertex 2.997500e+001 1.202500e+001 0.000000e+000
         vertex 2.879956e+001 2.275000e+001 0.000000e+000
         vertex 3.552500e+001 1.202500e+001 -1.776357e-015
      endloop
   endfacet
   facet normal 2.853585e-016 8.141253e-017 -1.000000e+000
      outer loop
         vertex 2.375000e+001 1.202500e+001 0.000000e+000
         vertex 1.752500e+001 1.202500e+001 -1.776357e-015
         vertex 2.107044e+001 2.141709e+001 0.000000e+000
      endloop
   endfacet
   facet normal 0.000000e+000 0.000000e+000 -1.000000e+000
      outer loop
         vertex 1.870044e+001 2.275000e+001 0.000000e+000
         vertex 1.197500e+001 1.202500e+001 0.000000e+000
         vertex 8.250000e+000 2.275000e+001 0.000000e+000
      endloop
   endfacet
   facet normal -0.000000e+000 -2.641423e-016 -1.000000e+000
      outer loop
         vertex 2.997500e+001 9.475000e+000 -1.776357e-015
         vertex 3.552500e+001 9.475000e+000 -1.776357e-015
         vertex 3.925000e+001 2.750000e+000 0.000000e+000
      endloop
   endfacet
   facet normal 0.000000e+000 -0.000000e+000 -1.000000e+000
      outer loop
         vertex 2.642956e+001 2.141709e+001 0.000000e+000
         vertex 2.879956e+001 2.275000e+001 0.000000e+000
         vertex 2.997500e+001 1.202500e+001 0.000000e+000
      endloop
   endfacet
   facet normal 0.000000e+000 -0.000000e+000 -1.000000e+000
      outer loop
         vertex 2.375000e+001 1.202500e+001 0.000000e+000
         vertex 2.642956e+001 2.141709e+001 0.000000e+000
         vertex 2.997500e+001 1.202500e+001 0.000000e+000
      endloop
   endfacet
   facet normal 4.768745e-016 0.000000e+000 -1.000000e+000
      outer loop
         vertex 3.552500e+001 1.202500e+001 -1.776357e-015
         vertex 3.925000e+001 2.275000e+001 0.000000e+000
         vertex 3.925000e+001 2.750000e+000 0.000000e+000
      endloop
   endfacet
   facet normal 0.000000e+000 -2.641423e-016 -1.000000e+000
      outer loop
         vertex 8.250000e+000 2.750000e+000 0.000000e+000
         vertex 1.197500e+001 9.475000e+000 -1.776357e-015
         vertex 1.752500e+001 9.475000e+000 -1.776357e-015
      endloop
   endfacet
   facet normal 2.853585e-016 0.000000e+000 -1.000000e+000
      outer loop
         vertex 1.752500e+001 9.475000e+000 -1.776357e-015
         vertex 2.375000e+001 1.202500e+001 0.000000e+000
         vertex 2.375000e+001 9.475000e+000 0.000000e+000
      endloop
   endfacet
   facet normal -0.000000e+000 -0.000000e+000 -1.000000e+000
      outer loop
         vertex 2.107044e+001 2.141709e+001 0.000000e+000
         vertex 2.375000e+001 2.095500e+001 0.000000e+000
         vertex 2.375000e+001 1.202500e+001 0.000000e+000
      endloop
   endfacet
   facet normal 2.853585e-016 -6.577036e-016 -1.000000e+000
      outer loop
         vertex 2.375000e+001 9.475000e+000 0.000000e+000
         vertex 8.250000e+000 2.750000e+000 0.000000e+000
         vertex 1.752500e+001 9.475000e+000 -1.776357e-015
      endloop
   endfacet
   facet normal -3.200643e-016 2.007062e-016 -1.000000e+000
      outer loop
         vertex 1.870044e+001 2.275000e+001 0.000000e+000
         vertex 1.752500e+001 1.202500e+001 -1.776357e-015
         vertex 1.197500e+001 1.202500e+001 0.000000e+000
      endloop
   endfacet
   facet normal -1.000000e+000 0.000000e+000 0.000000e+000
      outer loop
         vertex 8.250000e+000 2.275000e+001 0.000000e+000
         vertex 8.250000e+000 2.750000e+000 0.000000e+000
         vertex 8.250000e+000 2.750000e+000 7.000000e+000
      endloop
   endfacet
   facet normal -1.000000e+000 0.000000e+000 0.000000e+000
      outer loop
         vertex 8.250000e+000 2.275000e+001 7.000000e+000
         vertex 8.250000e+000 2.275000e+001 0.000000e+000
         vertex 8.250000e+000 2.750000e+000 7.000000e+000
      endloop
   endfacet
   facet normal 0.000000e+000 1.000000e+000 -0.000000e+000
      outer loop
         vertex 1.870044e+001 2.275000e+001 1.900000e+000
         vertex 1.870044e+001 2.275000e+001 0.000000e+000
         vertex 1.635000e+001 2.275000e+001 1.900000e+000
      endloop
   endfacet
   facet normal 0.000000e+000 1.000000e+000 0.000000e+000
      outer loop
         vertex 8.250000e+000 2.275000e+001 0.000000e+000
         vertex 8.250000e+000 2.275000e+001 7.000000e+000
         vertex 1.315000e+001 2.275000e+001 5.100000e+000
      endloop
   endfacet
   facet normal 0.000000e+000 1.000000e+000 -0.000000e+000
      outer loop
         vertex 1.870044e+001 2.275000e+001 7.000000e+000
         vertex 1.870044e+001 2.275000e+001 5.100000e+000
         vertex 1.635000e+001 2.275000e+001 5.100000e+000
      endloop
   endfacet
   facet normal 0.000000e+000 1.000000e+000 0.000000e+000
      outer loop
         vertex 1.597567e+001 2.275000e+001 2.471540e+000
         vertex 1.635000e+001 2.275000e+001 3.500000e+000
         vertex 1.635000e+001 2.275000e+001 1.900000e+000
      endloop
   endfacet
   facet normal -0.000000e+000 1.000000e+000 0.000000e+000
      outer loop
         vertex 1.597567e+001 2.275000e+001 4.528460e+000
         vertex 1.502784e+001 2.275000e+001 5.075692e+000
         vertex 1.635000e+001 2.275000e+001 5.100000e+000
      endloop
   endfacet
   facet normal 0.000000e+000 1.000000e+000 -0.000000e+000
      outer loop
         vertex 1.395000e+001 2.275000e+001 4.885641e+000
         vertex 1.324649e+001 2.275000e+001 4.047232e+000
         vertex 1.315000e+001 2.275000e+001 5.100000e+000
      endloop
   endfacet
   facet normal 0.000000e+000 1.000000e+000 0.000000e+000
      outer loop
         vertex 1.324649e+001 2.275000e+001 2.952768e+000
         vertex 1.395000e+001 2.275000e+001 2.114359e+000
         vertex 1.315000e+001 2.275000e+001 1.900000e+000
      endloop
   endfacet
   facet normal 0.000000e+000 1.000000e+000 0.000000e+000
      outer loop
         vertex 1.502784e+001 2.275000e+001 1.924308e+000
         vertex 1.597567e+001 2.275000e+001 2.471540e+000
         vertex 1.635000e+001 2.275000e+001 1.900000e+000
      endloop
   endfacet
   facet normal 0.000000e+000 1.000000e+000 0.000000e+000
      outer loop
         vertex 1.635000e+001 2.275000e+001 1.900000e+000
         vertex 1.315000e+001 2.275000e+001 1.900000e+000
         vertex 1.502784e+001 2.275000e+001 1.924308e+000
      endloop
   endfacet
   facet normal 0.000000e+000 1.000000e+000 0.000000e+000
      outer loop
         vertex 1.315000e+001 2.275000e+001 1.900000e+000
         vertex 1.315000e+001 2.275000e+001 5.100000e+000
         vertex 1.324649e+001 2.275000e+001 2.952768e+000
      endloop
   endfacet
   facet normal 0.000000e+000 1.000000e+000 0.000000e+000
      outer loop
         vertex 1.870044e+001 2.275000e+001 1.900000e+000
         vertex 1.635000e+001 2.275000e+001 1.900000e+000
         vertex 1.635000e+001 2.275000e+001 3.500000e+000
      endloop
   endfacet
   facet normal 0.000000e+000 1.000000e+000 0.000000e+000
      outer loop
         vertex 8.250000e+000 2.275000e+001 0.000000e+000
         vertex 1.315000e+001 2.275000e+001 5.100000e+000
         vertex 1.315000e+001 2.275000e+001 1.900000e+000
      endloop
   endfacet
   facet normal 0.000000e+000 1.000000e+000 0.000000e+000
      outer loop
         vertex 1.635000e+001 2.275000e+001 5.100000e+000
         vertex 1.870044e+001 2.275000e+001 5.100000e+000
         vertex 1.635000e+001 2.275000e+001 3.500000e+000
      endloop
   endfacet
   facet normal 0.000000e+000 1.000000e+000 -0.000000e+000
      outer loop
         vertex 1.635000e+001 2.275000e+001 5.100000e+000
         vertex 1.502784e+001 2.275000e+001 5.075692e+000
         vertex 1.315000e+001 2.275000e+001 5.100000e+000
      endloop
   endfacet
   facet normal 0.000000e+000 1.000000e+000 0.000000e+000
      outer loop
         vertex 1.315000e+001 2.275000e+001 1.900000e+000
         vertex 1.395000e+001 2.275000e+001 2.114359e+000
         vertex 1.502784e+001 2.275000e+001 1.924308e+000
      endloop
   endfacet
   facet normal 0.000000e+000 1.000000e+000 0.000000e+000
      outer loop
         vertex 8.250000e+000 2.275000e+001 0.000000e+000
         vertex 1.315000e+001 2.275000e+001 1.900000e+000
         vertex 1.870044e+001 2.275000e+001 0.000000e+000
      endloop
   endfacet
   facet normal 0.000000e+000 1.000000e+000 0.000000e+000
      outer loop
         vertex 1.315000e+001 2.275000e+001 5.100000e+000
         vertex 1.502784e+001 2.275000e+001 5.075692e+000
         vertex 1.395000e+001 2.275000e+001 4.885641e+000
      endloop
   endfacet
   facet normal 0.000000e+000 1.000000e+000 0.000000e+000
      outer loop
         vertex 8.250000e+000 2.275000e+001 7.000000e+000
         vertex 1.870044e+001 2.275000e+001 7.000000e+000
         vertex 1.315000e+001 2.275000e+001 5.100000e+000
      endloop
   endfacet
   facet normal -0.000000e+000 1.000000e+000 0.000000e+000
      outer loop
         vertex 1.635000e+001 2.275000e+001 3.500000e+000
         vertex 1.597567e+001 2.275000e+001 4.528460e+000
         vertex 1.635000e+001 2.275000e+001 5.100000e+000
      endloop
   endfacet
   facet normal 0.000000e+000 1.000000e+000 0.000000e+000
      outer loop
         vertex 1.635000e+001 2.275000e+001 1.900000e+000
         vertex 1.870044e+001 2.275000e+001 0.000000e+000
         vertex 1.315000e+001 2.275000e+001 1.900000e+000
      endloop
   endfacet
   facet normal 0.000000e+000 1.000000e+000 0.000000e+000
      outer loop
         vertex 1.324649e+001 2.275000e+001 2.952768e+000
         vertex 1.315000e+001 2.275000e+001 5.100000e+000
         vertex 1.324649e+001 2.275000e+001 4.047232e+000
      endloop
   endfacet
   facet normal 0.000000e+000 1.000000e+000 -0.000000e+000
      outer loop
         vertex 1.870044e+001 2.275000e+001 5.100000e+000
         vertex 1.870044e+001 2.275000e+001 1.900000e+000
         vertex 1.635000e+001 2.275000e+001 3.500000e+000
      endloop
   endfacet
   facet normal 0.000000e+000 1.000000e+000 -0.000000e+000
      outer loop
         vertex 1.870044e+001 2.275000e+001 7.000000e+000
         vertex 1.635000e+001 2.275000e+001 5.100000e+000
         vertex 1.315000e+001 2.275000e+001 5.100000e+000
      endloop
   endfacet
   facet normal -4.902001e-001 8.716099e-001 0.000000e+000
      outer loop
         vertex 2.879956e+001 2.275000e+001 7.000000e+000
         vertex 2.879956e+001 2.275000e+001 0.000000e+000
         vertex 2.642956e+001 2.141709e+001 0.000000e+000
      endloop
   endfacet
   facet normal 1.699443e-001 9.854537e-001 -0.000000e+000
      outer loop
         vertex 2.375000e+001 2.095500e+001 0.000000e+000
         vertex 2.107044e+001 2.141709e+001 0.000000e+000
         vertex 2.107044e+001 2.141709e+001 7.000000e+000
      endloop
   endfacet
   facet normal 4.902001e-001 8.716099e-001 0.000000e+000
      outer loop
         vertex 1.870044e+001 2.275000e+001 0.000000e+000
         vertex 1.870044e+001 2.275000e+001 7.000000e+000
         vertex 2.107044e+001 2.141709e+001 0.000000e+000
      endloop
   endfacet
   facet normal -1.699443e-001 9.854537e-001 0.000000e+000
      outer loop
         vertex 2.375000e+001 2.095500e+001 7.000000e+000
         vertex 2.642956e+001 2.141709e+001 7.000000e+000
         vertex 2.642956e+001 2.141709e+001 0.000000e+000
      endloop
   endfacet
   facet normal -4.902001e-001 8.716099e-001 0.000000e+000
      outer loop
         vertex 2.879956e+001 2.275000e+001 7.000000e+000
         vertex 2.642956e+001 2.141709e+001 0.000000e+000
         vertex 2.642956e+001 2.141709e+001 7.000000e+000
      endloop
   endfacet
   facet normal 4.902001e-001 8.716099e-001 0.000000e+000
      outer loop
         vertex 2.107044e+001 2.141709e+001 0.000000e+000
         vertex 1.870044e+001 2.275000e+001 7.000000e+000
         vertex 2.107044e+001 2.141709e+001 7.000000e+000
      endloop
   endfacet
   facet normal -1.699443e-001 9.854537e-001 0.000000e+000
      outer loop
         vertex 2.642956e+001 2.141709e+001 0.000000e+000
         vertex 2.375000e+001 2.095500e+001 0.000000e+000
         vertex 2.375000e+001 2.095500e+001 7.000000e+000
      endloop
   endfacet
   facet normal 1.699443e-001 9.854537e-001 0.000000e+000
      outer loop
         vertex 2.375000e+001 2.095500e+001 0.000000e+000
         vertex 2.107044e+001 2.141709e+001 7.000000e+000
         vertex 2.375000e+001 2.095500e+001 7.000000e+000
      endloop
   endfacet
   facet normal 0.000000e+000 1.000000e+000 -0.000000e+000
      outer loop
         vertex 3.925000e+001 2.275000e+001 7.000000e+000
         vertex 3.925000e+001 2.275000e+001 0.000000e+000
         vertex 3.435000e+001 2.275000e+001 3.500000e+000
      endloop
   endfacet
   facet normal -0.000000e+000 1.000000e+000 0.000000e+000
      outer loop
         vertex 2.879956e+001 2.275000e+001 0.000000e+000
         vertex 2.879956e+001 2.275000e+001 1.900000e+000
         vertex 3.115000e+001 2.275000e+001 1.900000e+000
      endloop
   endfacet
   facet normal 0.000000e+000 1.000000e+000 0.000000e+000
      outer loop
         vertex 2.879956e+001 2.275000e+001 5.100000e+000
         vertex 2.879956e+001 2.275000e+001 7.000000e+000
         vertex 3.115000e+001 2.275000e+001 5.100000e+000
      endloop
   endfacet
   facet normal 0.000000e+000 1.000000e+000 0.000000e+000
      outer loop
         vertex 3.397567e+001 2.275000e+001 2.471540e+000
         vertex 3.435000e+001 2.275000e+001 3.500000e+000
         vertex 3.435000e+001 2.275000e+001 1.900000e+000
      endloop
   endfacet
   facet normal -0.000000e+000 1.000000e+000 0.000000e+000
      outer loop
         vertex 3.397567e+001 2.275000e+001 4.528460e+000
         vertex 3.302784e+001 2.275000e+001 5.075692e+000
         vertex 3.435000e+001 2.275000e+001 5.100000e+000
      endloop
   endfacet
   facet normal 0.000000e+000 1.000000e+000 -0.000000e+000
      outer loop
         vertex 3.195000e+001 2.275000e+001 4.885641e+000
         vertex 3.124649e+001 2.275000e+001 4.047232e+000
         vertex 3.115000e+001 2.275000e+001 5.100000e+000
      endloop
   endfacet
   facet normal 0.000000e+000 1.000000e+000 0.000000e+000
      outer loop
         vertex 3.124649e+001 2.275000e+001 2.952768e+000
         vertex 3.195000e+001 2.275000e+001 2.114359e+000
         vertex 3.115000e+001 2.275000e+001 1.900000e+000
      endloop
   endfacet
   facet normal 0.000000e+000 1.000000e+000 0.000000e+000
      outer loop
         vertex 3.302784e+001 2.275000e+001 1.924308e+000
         vertex 3.397567e+001 2.275000e+001 2.471540e+000
         vertex 3.435000e+001 2.275000e+001 1.900000e+000
      endloop
   endfacet
   facet normal 0.000000e+000 1.000000e+000 0.000000e+000
      outer loop
         vertex 3.435000e+001 2.275000e+001 1.900000e+000
         vertex 3.115000e+001 2.275000e+001 1.900000e+000
         vertex 3.302784e+001 2.275000e+001 1.924308e+000
      endloop
   endfacet
   facet normal 0.000000e+000 1.000000e+000 0.000000e+000
      outer loop
         vertex 3.115000e+001 2.275000e+001 1.900000e+000
         vertex 3.115000e+001 2.275000e+001 5.100000e+000
         vertex 3.124649e+001 2.275000e+001 2.952768e+000
      endloop
   endfacet
   facet normal 0.000000e+000 1.000000e+000 0.000000e+000
      outer loop
         vertex 3.925000e+001 2.275000e+001 7.000000e+000
         vertex 3.435000e+001 2.275000e+001 3.500000e+000
         vertex 3.435000e+001 2.275000e+001 5.100000e+000
      endloop
   endfacet
   facet normal -0.000000e+000 1.000000e+000 0.000000e+000
      outer loop
         vertex 2.879956e+001 2.275000e+001 0.000000e+000
         vertex 3.115000e+001 2.275000e+001 1.900000e+000
         vertex 3.435000e+001 2.275000e+001 1.900000e+000
      endloop
   endfacet
   facet normal 0.000000e+000 1.000000e+000 0.000000e+000
      outer loop
         vertex 3.115000e+001 2.275000e+001 5.100000e+000
         vertex 2.879956e+001 2.275000e+001 7.000000e+000
         vertex 3.435000e+001 2.275000e+001 5.100000e+000
      endloop
   endfacet
   facet normal 0.000000e+000 1.000000e+000 -0.000000e+000
      outer loop
         vertex 3.435000e+001 2.275000e+001 5.100000e+000
         vertex 3.302784e+001 2.275000e+001 5.075692e+000
         vertex 3.115000e+001 2.275000e+001 5.100000e+000
      endloop
   endfacet
   facet normal 0.000000e+000 1.000000e+000 0.000000e+000
      outer loop
         vertex 3.115000e+001 2.275000e+001 1.900000e+000
         vertex 3.195000e+001 2.275000e+001 2.114359e+000
         vertex 3.302784e+001 2.275000e+001 1.924308e+000
      endloop
   endfacet
   facet normal 0.000000e+000 1.000000e+000 -0.000000e+000
      outer loop
         vertex 3.435000e+001 2.275000e+001 5.100000e+000
         vertex 3.435000e+001 2.275000e+001 3.500000e+000
         vertex 3.397567e+001 2.275000e+001 4.528460e+000
      endloop
   endfacet
   facet normal 0.000000e+000 1.000000e+000 0.000000e+000
      outer loop
         vertex 3.925000e+001 2.275000e+001 0.000000e+000
         vertex 2.879956e+001 2.275000e+001 0.000000e+000
         vertex 3.435000e+001 2.275000e+001 1.900000e+000
      endloop
   endfacet
   facet normal 0.000000e+000 1.000000e+000 0.000000e+000
      outer loop
         vertex 2.879956e+001 2.275000e+001 7.000000e+000
         vertex 3.925000e+001 2.275000e+001 7.000000e+000
         vertex 3.435000e+001 2.275000e+001 5.100000e+000
      endloop
   endfacet
   facet normal 0.000000e+000 1.000000e+000 -0.000000e+000
      outer loop
         vertex 3.124649e+001 2.275000e+001 4.047232e+000
         vertex 3.124649e+001 2.275000e+001 2.952768e+000
         vertex 3.115000e+001 2.275000e+001 5.100000e+000
      endloop
   endfacet
   facet normal 0.000000e+000 1.000000e+000 0.000000e+000
      outer loop
         vertex 3.435000e+001 2.275000e+001 3.500000e+000
         vertex 3.925000e+001 2.275000e+001 0.000000e+000
         vertex 3.435000e+001 2.275000e+001 1.900000e+000
      endloop
   endfacet
   facet normal 0.000000e+000 1.000000e+000 0.000000e+000
      outer loop
         vertex 2.879956e+001 2.275000e+001 5.100000e+000
         vertex 3.115000e+001 2.275000e+001 5.100000e+000
         vertex 2.879956e+001 2.275000e+001 1.900000e+000
      endloop
   endfacet
   facet normal 0.000000e+000 1.000000e+000 0.000000e+000
      outer loop
         vertex 2.879956e+001 2.275000e+001 1.900000e+000
         vertex 3.115000e+001 2.275000e+001 5.100000e+000
         vertex 3.115000e+001 2.275000e+001 1.900000e+000
      endloop
   endfacet
   facet normal 0.000000e+000 1.000000e+000 -0.000000e+000
      outer loop
         vertex 3.302784e+001 2.275000e+001 5.075692e+000
         vertex 3.195000e+001 2.275000e+001 4.885641e+000
         vertex 3.115000e+001 2.275000e+001 5.100000e+000
      endloop
   endfacet
   facet normal 1.000000e+000 0.000000e+000 0.000000e+000
      outer loop
         vertex 3.925000e+001 2.750000e+000 7.000000e+000
         vertex 3.925000e+001 2.750000e+000 0.000000e+000
         vertex 3.925000e+001 2.275000e+001 0.000000e+000
      endloop
   endfacet
   facet normal 1.000000e+000 -0.000000e+000 0.000000e+000
      outer loop
         vertex 3.925000e+001 2.275000e+001 7.000000e+000
         vertex 3.925000e+001 2.750000e+000 7.000000e+000
         vertex 3.925000e+001 2.275000e+001 0.000000e+000
      endloop
   endfacet
   facet normal 0.000000e+000 -1.000000e+000 0.000000e+000
      outer loop
         vertex 2.375000e+001 2.750000e+000 1.900000e+000
         vertex 3.115000e+001 2.750000e+000 1.900000e+000
         vertex 3.115000e+001 2.750000e+000 5.100000e+000
      endloop
   endfacet
   facet normal -0.000000e+000 -1.000000e+000 0.000000e+000
      outer loop
         vertex 2.375000e+001 2.750000e+000 1.900000e+000
         vertex 3.115000e+001 2.750000e+000 5.100000e+000
         vertex 2.375000e+001 2.750000e+000 5.100000e+000
      endloop
   endfacet
   facet normal 0.000000e+000 -1.000000e+000 0.000000e+000
      outer loop
         vertex 8.250000e+000 2.750000e+000 7.000000e+000
         vertex 8.250000e+000 2.750000e+000 0.000000e+000
         vertex 1.315000e+001 2.750000e+000 5.100000e+000
      endloop
   endfacet
   facet normal 0.000000e+000 -1.000000e+000 -0.000000e+000
      outer loop
         vertex 3.925000e+001 2.750000e+000 0.000000e+000
         vertex 3.925000e+001 2.750000e+000 7.000000e+000
         vertex 3.435000e+001 2.750000e+000 3.500000e+000
      endloop
   endfacet
   facet normal 0.000000e+000 -1.000000e+000 0.000000e+000
      outer loop
         vertex 3.397567e+001 2.750000e+000 4.528460e+000
         vertex 3.435000e+001 2.750000e+000 3.500000e+000
         vertex 3.435000e+001 2.750000e+000 5.100000e+000
      endloop
   endfacet
   facet normal 0.000000e+000 -1.000000e+000 0.000000e+000
      outer loop
         vertex 3.397567e+001 2.750000e+000 2.471540e+000
         vertex 3.302784e+001 2.750000e+000 1.924308e+000
         vertex 3.435000e+001 2.750000e+000 1.900000e+000
      endloop
   endfacet
   facet normal 0.000000e+000 -1.000000e+000 -0.000000e+000
      outer loop
         vertex 3.195000e+001 2.750000e+000 2.114359e+000
         vertex 3.124649e+001 2.750000e+000 2.952768e+000
         vertex 3.115000e+001 2.750000e+000 1.900000e+000
      endloop
   endfacet
   facet normal -0.000000e+000 -1.000000e+000 0.000000e+000
      outer loop
         vertex 3.124649e+001 2.750000e+000 4.047232e+000
         vertex 3.195000e+001 2.750000e+000 4.885641e+000
         vertex 3.115000e+001 2.750000e+000 5.100000e+000
      endloop
   endfacet
   facet normal 0.000000e+000 -1.000000e+000 0.000000e+000
      outer loop
         vertex 3.302784e+001 2.750000e+000 5.075692e+000
         vertex 3.397567e+001 2.750000e+000 4.528460e+000
         vertex 3.435000e+001 2.750000e+000 5.100000e+000
      endloop
   endfacet
   facet normal 0.000000e+000 -1.000000e+000 0.000000e+000
      outer loop
         vertex 1.635000e+001 2.750000e+000 3.500000e+000
         vertex 1.597567e+001 2.750000e+000 2.471540e+000
         vertex 1.635000e+001 2.750000e+000 1.900000e+000
      endloop
   endfacet
   facet normal 0.000000e+000 -1.000000e+000 -0.000000e+000
      outer loop
         vertex 1.502784e+001 2.750000e+000 1.924308e+000
         vertex 1.395000e+001 2.750000e+000 2.114359e+000
         vertex 1.315000e+001 2.750000e+000 1.900000e+000
      endloop
   endfacet
   facet normal -0.000000e+000 -1.000000e+000 -0.000000e+000
      outer loop
         vertex 1.324649e+001 2.750000e+000 2.952768e+000
         vertex 1.324649e+001 2.750000e+000 4.047232e+000
         vertex 1.315000e+001 2.750000e+000 5.100000e+000
      endloop
   endfacet
   facet normal -0.000000e+000 -1.000000e+000 0.000000e+000
      outer loop
         vertex 1.395000e+001 2.750000e+000 4.885641e+000
         vertex 1.502784e+001 2.750000e+000 5.075692e+000
         vertex 1.315000e+001 2.750000e+000 5.100000e+000
      endloop
   endfacet
   facet normal 0.000000e+000 -1.000000e+000 0.000000e+000
      outer loop
         vertex 1.315000e+001 2.750000e+000 1.900000e+000
         vertex 1.635000e+001 2.750000e+000 1.900000e+000
         vertex 1.502784e+001 2.750000e+000 1.924308e+000
      endloop
   endfacet
   facet normal 0.000000e+000 -1.000000e+000 0.000000e+000
      outer loop
         vertex 1.315000e+001 2.750000e+000 5.100000e+000
         vertex 1.315000e+001 2.750000e+000 1.900000e+000
         vertex 1.324649e+001 2.750000e+000 2.952768e+000
      endloop
   endfacet
   facet normal 0.000000e+000 -1.000000e+000 0.000000e+000
      outer loop
         vertex 2.375000e+001 2.750000e+000 5.100000e+000
         vertex 1.635000e+001 2.750000e+000 5.100000e+000
         vertex 1.635000e+001 2.750000e+000 3.500000e+000
      endloop
   endfacet
   facet normal 0.000000e+000 -1.000000e+000 0.000000e+000
      outer loop
         vertex 3.115000e+001 2.750000e+000 1.900000e+000
         vertex 3.435000e+001 2.750000e+000 1.900000e+000
         vertex 3.302784e+001 2.750000e+000 1.924308e+000
      endloop
   endfacet
   facet normal 0.000000e+000 -1.000000e+000 0.000000e+000
      outer loop
         vertex 3.115000e+001 2.750000e+000 5.100000e+000
         vertex 3.115000e+001 2.750000e+000 1.900000e+000
         vertex 3.124649e+001 2.750000e+000 2.952768e+000
      endloop
   endfacet
   facet normal 0.000000e+000 -1.000000e+000 0.000000e+000
      outer loop
         vertex 8.250000e+000 2.750000e+000 7.000000e+000
         vertex 1.315000e+001 2.750000e+000 5.100000e+000
         vertex 1.635000e+001 2.750000e+000 5.100000e+000
      endloop
   endfacet
   facet normal 0.000000e+000 -1.000000e+000 0.000000e+000
      outer loop
         vertex 3.435000e+001 2.750000e+000 3.500000e+000
         vertex 3.925000e+001 2.750000e+000 7.000000e+000
         vertex 3.435000e+001 2.750000e+000 5.100000e+000
      endloop
   endfacet
   facet normal 0.000000e+000 -1.000000e+000 0.000000e+000
      outer loop
         vertex 3.195000e+001 2.750000e+000 2.114359e+000
         vertex 3.115000e+001 2.750000e+000 1.900000e+000
         vertex 3.302784e+001 2.750000e+000 1.924308e+000
      endloop
   endfacet
   facet normal -0.000000e+000 -1.000000e+000 0.000000e+000
      outer loop
         vertex 3.302784e+001 2.750000e+000 5.075692e+000
         vertex 3.435000e+001 2.750000e+000 5.100000e+000
         vertex 3.115000e+001 2.750000e+000 5.100000e+000
      endloop
   endfacet
   facet normal -0.000000e+000 -1.000000e+000 0.000000e+000
      outer loop
         vertex 1.315000e+001 2.750000e+000 1.900000e+000
         vertex 1.395000e+001 2.750000e+000 2.114359e+000
         vertex 1.324649e+001 2.750000e+000 2.952768e+000
      endloop
   endfacet
   facet normal 0.000000e+000 -1.000000e+000 0.000000e+000
      outer loop
         vertex 1.315000e+001 2.750000e+000 5.100000e+000
         vertex 1.502784e+001 2.750000e+000 5.075692e+000
         vertex 1.635000e+001 2.750000e+000 5.100000e+000
      endloop
   endfacet
   facet normal 0.000000e+000 -1.000000e+000 -0.000000e+000
      outer loop
         vertex 1.635000e+001 2.750000e+000 3.500000e+000
         vertex 1.635000e+001 2.750000e+000 5.100000e+000
         vertex 1.597567e+001 2.750000e+000 4.528460e+000
      endloop
   endfacet
   facet normal 0.000000e+000 -1.000000e+000 0.000000e+000
      outer loop
         vertex 3.435000e+001 2.750000e+000 5.100000e+000
         vertex 3.925000e+001 2.750000e+000 7.000000e+000
         vertex 3.115000e+001 2.750000e+000 5.100000e+000
      endloop
   endfacet
   facet normal 0.000000e+000 -1.000000e+000 0.000000e+000
      outer loop
         vertex 1.597567e+001 2.750000e+000 4.528460e+000
         vertex 1.635000e+001 2.750000e+000 5.100000e+000
         vertex 1.502784e+001 2.750000e+000 5.075692e+000
      endloop
   endfacet
   facet normal 0.000000e+000 -1.000000e+000 0.000000e+000
      outer loop
         vertex 8.250000e+000 2.750000e+000 0.000000e+000
         vertex 3.925000e+001 2.750000e+000 0.000000e+000
         vertex 2.375000e+001 2.750000e+000 1.900000e+000
      endloop
   endfacet
   facet normal 0.000000e+000 -1.000000e+000 0.000000e+000
      outer loop
         vertex 3.435000e+001 2.750000e+000 3.500000e+000
         vertex 3.397567e+001 2.750000e+000 2.471540e+000
         vertex 3.435000e+001 2.750000e+000 1.900000e+000
      endloop
   endfacet
   facet normal -0.000000e+000 -1.000000e+000 0.000000e+000
      outer loop
         vertex 3.195000e+001 2.750000e+000 4.885641e+000
         vertex 3.302784e+001 2.750000e+000 5.075692e+000
         vertex 3.115000e+001 2.750000e+000 5.100000e+000
      endloop
   endfacet
   facet normal -0.000000e+000 -1.000000e+000 0.000000e+000
      outer loop
         vertex 1.324649e+001 2.750000e+000 4.047232e+000
         vertex 1.395000e+001 2.750000e+000 4.885641e+000
         vertex 1.315000e+001 2.750000e+000 5.100000e+000
      endloop
   endfacet
   facet normal 0.000000e+000 -1.000000e+000 0.000000e+000
      outer loop
         vertex 1.635000e+001 2.750000e+000 1.900000e+000
         vertex 2.375000e+001 2.750000e+000 1.900000e+000
         vertex 1.635000e+001 2.750000e+000 3.500000e+000
      endloop
   endfacet
   facet normal 0.000000e+000 -1.000000e+000 0.000000e+000
      outer loop
         vertex 1.315000e+001 2.750000e+000 5.100000e+000
         vertex 8.250000e+000 2.750000e+000 0.000000e+000
         vertex 1.315000e+001 2.750000e+000 1.900000e+000
      endloop
   endfacet
   facet normal 0.000000e+000 -1.000000e+000 -0.000000e+000
      outer loop
         vertex 1.635000e+001 2.750000e+000 1.900000e+000
         vertex 1.597567e+001 2.750000e+000 2.471540e+000
         vertex 1.502784e+001 2.750000e+000 1.924308e+000
      endloop
   endfacet
   facet normal 0.000000e+000 -1.000000e+000 0.000000e+000
      outer loop
         vertex 8.250000e+000 2.750000e+000 7.000000e+000
         vertex 1.635000e+001 2.750000e+000 5.100000e+000
         vertex 2.375000e+001 2.750000e+000 5.100000e+000
      endloop
   endfacet
   facet normal 0.000000e+000 -1.000000e+000 0.000000e+000
      outer loop
         vertex 2.375000e+001 2.750000e+000 1.900000e+000
         vertex 3.925000e+001 2.750000e+000 0.000000e+000
         vertex 3.115000e+001 2.750000e+000 1.900000e+000
      endloop
   endfacet
   facet normal 0.000000e+000 -1.000000e+000 0.000000e+000
      outer loop
         vertex 1.315000e+001 2.750000e+000 1.900000e+000
         vertex 8.250000e+000 2.750000e+000 0.000000e+000
         vertex 1.635000e+001 2.750000e+000 1.900000e+000
      endloop
   endfacet
   facet normal 0.000000e+000 -1.000000e+000 0.000000e+000
      outer loop
         vertex 1.635000e+001 2.750000e+000 1.900000e+000
         vertex 8.250000e+000 2.750000e+000 0.000000e+000
         vertex 2.375000e+001 2.750000e+000 1.900000e+000
      endloop
   endfacet
   facet normal 0.000000e+000 -1.000000e+000 0.000000e+000
      outer loop
         vertex 3.925000e+001 2.750000e+000 7.000000e+000
         vertex 8.250000e+000 2.750000e+000 7.000000e+000
         vertex 2.375000e+001 2.750000e+000 5.100000e+000
      endloop
   endfacet
   facet normal 0.000000e+000 -1.000000e+000 -0.000000e+000
      outer loop
         vertex 2.375000e+001 2.750000e+000 1.900000e+000
         vertex 2.375000e+001 2.750000e+000 5.100000e+000
         vertex 1.635000e+001 2.750000e+000 3.500000e+000
      endloop
   endfacet
   facet normal 0.000000e+000 -1.000000e+000 0.000000e+000
      outer loop
         vertex 3.925000e+001 2.750000e+000 0.000000e+000
         vertex 3.435000e+001 2.750000e+000 3.500000e+000
         vertex 3.435000e+001 2.750000e+000 1.900000e+000
      endloop
   endfacet
   facet normal 0.000000e+000 -1.000000e+000 0.000000e+000
      outer loop
         vertex 3.115000e+001 2.750000e+000 5.100000e+000
         vertex 3.124649e+001 2.750000e+000 2.952768e+000
         vertex 3.124649e+001 2.750000e+000 4.047232e+000
      endloop
   endfacet
   facet normal -0.000000e+000 -1.000000e+000 -0.000000e+000
      outer loop
         vertex 3.925000e+001 2.750000e+000 0.000000e+000
         vertex 3.435000e+001 2.750000e+000 1.900000e+000
         vertex 3.115000e+001 2.750000e+000 1.900000e+000
      endloop
   endfacet
   facet normal 0.000000e+000 -1.000000e+000 0.000000e+000
      outer loop
         vertex 3.115000e+001 2.750000e+000 5.100000e+000
         vertex 3.925000e+001 2.750000e+000 7.000000e+000
         vertex 2.375000e+001 2.750000e+000 5.100000e+000
      endloop
   endfacet
   facet normal -1.000000e+000 0.000000e+000 0.000000e+000
      outer loop
         vertex 3.552500e+001 1.202500e+001 -1.776357e-015
         vertex 3.552500e+001 9.475000e+000 -1.776357e-015
         vertex 3.552500e+001 9.475000e+000 7.000000e+000
      endloop
   endfacet
   facet normal -1.000000e+000 0.000000e+000 0.000000e+000
      outer loop
         vertex 3.552500e+001 1.202500e+001 -1.776357e-015
         vertex 3.552500e+001 9.475000e+000 7.000000e+000
         vertex 3.552500e+001 1.202500e+001 7.000000e+000
      endloop
   endfacet
   facet normal 0.000000e+000 -1.000000e+000 0.000000e+000
      outer loop
         vertex 3.435000e+001 1.202500e+001 3.500000e+000
         vertex 3.552500e+001 1.202500e+001 -1.776357e-015
         vertex 3.552500e+001 1.202500e+001 7.000000e+000
      endloop
   endfacet
   facet normal 0.000000e+000 -1.000000e+000 0.000000e+000
      outer loop
         vertex 3.115000e+001 1.202500e+001 1.900000e+000
         vertex 2.997500e+001 1.202500e+001 7.000000e+000
         vertex 2.997500e+001 1.202500e+001 0.000000e+000
      endloop
   endfacet
   facet normal 0.000000e+000 -1.000000e+000 0.000000e+000
      outer loop
         vertex 3.435000e+001 1.202500e+001 5.100000e+000
         vertex 3.397567e+001 1.202500e+001 4.528460e+000
         vertex 3.435000e+001 1.202500e+001 3.500000e+000
      endloop
   endfacet
   facet normal 0.000000e+000 -1.000000e+000 0.000000e+000
      outer loop
         vertex 3.115000e+001 1.202500e+001 5.100000e+000
         vertex 3.195000e+001 1.202500e+001 4.885641e+000
         vertex 3.302784e+001 1.202500e+001 5.075692e+000
      endloop
   endfacet
   facet normal -0.000000e+000 -1.000000e+000 0.000000e+000
      outer loop
         vertex 3.115000e+001 1.202500e+001 1.900000e+000
         vertex 3.124649e+001 1.202500e+001 2.952768e+000
         vertex 3.124649e+001 1.202500e+001 4.047232e+000
      endloop
   endfacet
   facet normal -0.000000e+000 -1.000000e+000 0.000000e+000
      outer loop
         vertex 3.115000e+001 1.202500e+001 1.900000e+000
         vertex 3.302784e+001 1.202500e+001 1.924308e+000
         vertex 3.195000e+001 1.202500e+001 2.114359e+000
      endloop
   endfacet
   facet normal 0.000000e+000 -1.000000e+000 -0.000000e+000
      outer loop
         vertex 3.435000e+001 1.202500e+001 1.900000e+000
         vertex 3.435000e+001 1.202500e+001 3.500000e+000
         vertex 3.397567e+001 1.202500e+001 2.471540e+000
      endloop
   endfacet
   facet normal 0.000000e+000 -1.000000e+000 0.000000e+000
      outer loop
         vertex 3.302784e+001 1.202500e+001 1.924308e+000
         vertex 3.115000e+001 1.202500e+001 1.900000e+000
         vertex 3.435000e+001 1.202500e+001 1.900000e+000
      endloop
   endfacet
   facet normal 0.000000e+000 -1.000000e+000 0.000000e+000
      outer loop
         vertex 3.124649e+001 1.202500e+001 4.047232e+000
         vertex 3.115000e+001 1.202500e+001 5.100000e+000
         vertex 3.115000e+001 1.202500e+001 1.900000e+000
      endloop
   endfacet
   facet normal 0.000000e+000 -1.000000e+000 0.000000e+000
      outer loop
         vertex 3.435000e+001 1.202500e+001 5.100000e+000
         vertex 3.435000e+001 1.202500e+001 3.500000e+000
         vertex 3.552500e+001 1.202500e+001 7.000000e+000
      endloop
   endfacet
   facet normal 0.000000e+000 -1.000000e+000 -0.000000e+000
      outer loop
         vertex 3.435000e+001 1.202500e+001 1.900000e+000
         vertex 3.115000e+001 1.202500e+001 1.900000e+000
         vertex 2.997500e+001 1.202500e+001 0.000000e+000
      endloop
   endfacet
   facet normal 0.000000e+000 -1.000000e+000 0.000000e+000
      outer loop
         vertex 3.435000e+001 1.202500e+001 5.100000e+000
         vertex 3.115000e+001 1.202500e+001 5.100000e+000
         vertex 3.302784e+001 1.202500e+001 5.075692e+000
      endloop
   endfacet
   facet normal 0.000000e+000 -1.000000e+000 0.000000e+000
      outer loop
         vertex 3.124649e+001 1.202500e+001 2.952768e+000
         vertex 3.115000e+001 1.202500e+001 1.900000e+000
         vertex 3.195000e+001 1.202500e+001 2.114359e+000
      endloop
   endfacet
   facet normal 0.000000e+000 -1.000000e+000 0.000000e+000
      outer loop
         vertex 3.195000e+001 1.202500e+001 4.885641e+000
         vertex 3.115000e+001 1.202500e+001 5.100000e+000
         vertex 3.124649e+001 1.202500e+001 4.047232e+000
      endloop
   endfacet
   facet normal 0.000000e+000 -1.000000e+000 0.000000e+000
      outer loop
         vertex 3.435000e+001 1.202500e+001 1.900000e+000
         vertex 2.997500e+001 1.202500e+001 0.000000e+000
         vertex 3.552500e+001 1.202500e+001 -1.776357e-015
      endloop
   endfacet
   facet normal 0.000000e+000 -1.000000e+000 0.000000e+000
      outer loop
         vertex 3.435000e+001 1.202500e+001 5.100000e+000
         vertex 3.302784e+001 1.202500e+001 5.075692e+000
         vertex 3.397567e+001 1.202500e+001 4.528460e+000
      endloop
   endfacet
   facet normal 0.000000e+000 -1.000000e+000 0.000000e+000
      outer loop
         vertex 3.435000e+001 1.202500e+001 1.900000e+000
         vertex 3.552500e+001 1.202500e+001 -1.776357e-015
         vertex 3.435000e+001 1.202500e+001 3.500000e+000
      endloop
   endfacet
   facet normal 0.000000e+000 -1.000000e+000 0.000000e+000
      outer loop
         vertex 3.302784e+001 1.202500e+001 1.924308e+000
         vertex 3.435000e+001 1.202500e+001 1.900000e+000
         vertex 3.397567e+001 1.202500e+001 2.471540e+000
      endloop
   endfacet
   facet normal -0.000000e+000 -1.000000e+000 0.000000e+000
      outer loop
         vertex 3.115000e+001 1.202500e+001 5.100000e+000
         vertex 3.552500e+001 1.202500e+001 7.000000e+000
         vertex 2.997500e+001 1.202500e+001 7.000000e+000
      endloop
   endfacet
   facet normal 0.000000e+000 -1.000000e+000 0.000000e+000
      outer loop
         vertex 3.115000e+001 1.202500e+001 5.100000e+000
         vertex 2.997500e+001 1.202500e+001 7.000000e+000
         vertex 3.115000e+001 1.202500e+001 1.900000e+000
      endloop
   endfacet
   facet normal 0.000000e+000 -1.000000e+000 0.000000e+000
      outer loop
         vertex 3.115000e+001 1.202500e+001 5.100000e+000
         vertex 3.435000e+001 1.202500e+001 5.100000e+000
         vertex 3.552500e+001 1.202500e+001 7.000000e+000
      endloop
   endfacet
   facet normal 1.000000e+000 0.000000e+000 -0.000000e+000
      outer loop
         vertex 2.997500e+001 9.475000e+000 -1.776357e-015
         vertex 2.997500e+001 1.202500e+001 0.000000e+000
         vertex 2.997500e+001 1.202500e+001 7.000000e+000
      endloop
   endfacet
   facet normal 1.000000e+000 0.000000e+000 0.000000e+000
      outer loop
         vertex 2.997500e+001 9.475000e+000 -1.776357e-015
         vertex 2.997500e+001 1.202500e+001 7.000000e+000
         vertex 2.997500e+001 9.475000e+000 7.000000e+000
      endloop
   endfacet
   facet normal 0.000000e+000 1.000000e+000 0.000000e+000
      outer loop
         vertex 3.115000e+001 9.475000e+000 1.900000e+000
         vertex 2.997500e+001 9.475000e+000 -1.776357e-015
         vertex 2.997500e+001 9.475000e+000 7.000000e+000
      endloop
   endfacet
   facet normal 0.000000e+000 1.000000e+000 0.000000e+000
      outer loop
         vertex 3.435000e+001 9.475000e+000 3.500000e+000
         vertex 3.552500e+001 9.475000e+000 7.000000e+000
         vertex 3.552500e+001 9.475000e+000 -1.776357e-015
      endloop
   endfacet
   facet normal -0.000000e+000 1.000000e+000 0.000000e+000
      outer loop
         vertex 3.435000e+001 9.475000e+000 1.900000e+000
         vertex 3.397567e+001 9.475000e+000 2.471540e+000
         vertex 3.435000e+001 9.475000e+000 3.500000e+000
      endloop
   endfacet
   facet normal 0.000000e+000 1.000000e+000 0.000000e+000
      outer loop
         vertex 3.115000e+001 9.475000e+000 1.900000e+000
         vertex 3.195000e+001 9.475000e+000 2.114359e+000
         vertex 3.302784e+001 9.475000e+000 1.924308e+000
      endloop
   endfacet
   facet normal 0.000000e+000 1.000000e+000 0.000000e+000
      outer loop
         vertex 3.115000e+001 9.475000e+000 5.100000e+000
         vertex 3.124649e+001 9.475000e+000 4.047232e+000
         vertex 3.124649e+001 9.475000e+000 2.952768e+000
      endloop
   endfacet
   facet normal 0.000000e+000 1.000000e+000 0.000000e+000
      outer loop
         vertex 3.115000e+001 9.475000e+000 5.100000e+000
         vertex 3.302784e+001 9.475000e+000 5.075692e+000
         vertex 3.195000e+001 9.475000e+000 4.885641e+000
      endloop
   endfacet
   facet normal 0.000000e+000 1.000000e+000 -0.000000e+000
      outer loop
         vertex 3.435000e+001 9.475000e+000 5.100000e+000
         vertex 3.435000e+001 9.475000e+000 3.500000e+000
         vertex 3.397567e+001 9.475000e+000 4.528460e+000
      endloop
   endfacet
   facet normal 0.000000e+000 1.000000e+000 0.000000e+000
      outer loop
         vertex 3.302784e+001 9.475000e+000 1.924308e+000
         vertex 3.435000e+001 9.475000e+000 1.900000e+000
         vertex 3.115000e+001 9.475000e+000 1.900000e+000
      endloop
   endfacet
   facet normal 0.000000e+000 1.000000e+000 0.000000e+000
      outer loop
         vertex 3.124649e+001 9.475000e+000 2.952768e+000
         vertex 3.115000e+001 9.475000e+000 1.900000e+000
         vertex 3.115000e+001 9.475000e+000 5.100000e+000
      endloop
   endfacet
   facet normal 0.000000e+000 1.000000e+000 -0.000000e+000
      outer loop
         vertex 3.115000e+001 9.475000e+000 5.100000e+000
         vertex 3.115000e+001 9.475000e+000 1.900000e+000
         vertex 2.997500e+001 9.475000e+000 7.000000e+000
      endloop
   endfacet
   facet normal 0.000000e+000 1.000000e+000 0.000000e+000
      outer loop
         vertex 3.435000e+001 9.475000e+000 5.100000e+000
         vertex 3.552500e+001 9.475000e+000 7.000000e+000
         vertex 3.435000e+001 9.475000e+000 3.500000e+000
      endloop
   endfacet
   facet normal 0.000000e+000 1.000000e+000 0.000000e+000
      outer loop
         vertex 3.302784e+001 9.475000e+000 1.924308e+000
         vertex 3.397567e+001 9.475000e+000 2.471540e+000
         vertex 3.435000e+001 9.475000e+000 1.900000e+000
      endloop
   endfacet
   facet normal 0.000000e+000 1.000000e+000 0.000000e+000
      outer loop
         vertex 3.124649e+001 9.475000e+000 4.047232e+000
         vertex 3.115000e+001 9.475000e+000 5.100000e+000
         vertex 3.195000e+001 9.475000e+000 4.885641e+000
      endloop
   endfacet
   facet normal 0.000000e+000 1.000000e+000 -0.000000e+000
      outer loop
         vertex 3.552500e+001 9.475000e+000 7.000000e+000
         vertex 3.115000e+001 9.475000e+000 5.100000e+000
         vertex 2.997500e+001 9.475000e+000 7.000000e+000
      endloop
   endfacet
   facet normal 0.000000e+000 1.000000e+000 0.000000e+000
      outer loop
         vertex 3.435000e+001 9.475000e+000 1.900000e+000
         vertex 3.552500e+001 9.475000e+000 -1.776357e-015
         vertex 2.997500e+001 9.475000e+000 -1.776357e-015
      endloop
   endfacet
   facet normal 0.000000e+000 1.000000e+000 -0.000000e+000
      outer loop
         vertex 3.435000e+001 9.475000e+000 5.100000e+000
         vertex 3.397567e+001 9.475000e+000 4.528460e+000
         vertex 3.302784e+001 9.475000e+000 5.075692e+000
      endloop
   endfacet
   facet normal -0.000000e+000 1.000000e+000 0.000000e+000
      outer loop
         vertex 3.302784e+001 9.475000e+000 5.075692e+000
         vertex 3.115000e+001 9.475000e+000 5.100000e+000
         vertex 3.435000e+001 9.475000e+000 5.100000e+000
      endloop
   endfacet
   facet normal 0.000000e+000 1.000000e+000 0.000000e+000
      outer loop
         vertex 3.435000e+001 9.475000e+000 1.900000e+000
         vertex 2.997500e+001 9.475000e+000 -1.776357e-015
         vertex 3.115000e+001 9.475000e+000 1.900000e+000
      endloop
   endfacet
   facet normal 0.000000e+000 1.000000e+000 0.000000e+000
      outer loop
         vertex 3.124649e+001 9.475000e+000 2.952768e+000
         vertex 3.195000e+001 9.475000e+000 2.114359e+000
         vertex 3.115000e+001 9.475000e+000 1.900000e+000
      endloop
   endfacet
   facet normal 0.000000e+000 1.000000e+000 0.000000e+000
      outer loop
         vertex 3.435000e+001 9.475000e+000 3.500000e+000
         vertex 3.552500e+001 9.475000e+000 -1.776357e-015
         vertex 3.435000e+001 9.475000e+000 1.900000e+000
      endloop
   endfacet
   facet normal 0.000000e+000 1.000000e+000 0.000000e+000
      outer loop
         vertex 3.115000e+001 9.475000e+000 5.100000e+000
         vertex 3.552500e+001 9.475000e+000 7.000000e+000
         vertex 3.435000e+001 9.475000e+000 5.100000e+000
      endloop
   endfacet
   facet normal -1.000000e+000 0.000000e+000 0.000000e+000
      outer loop
         vertex 1.752500e+001 1.202500e+001 -1.776357e-015
         vertex 1.752500e+001 9.475000e+000 -1.776357e-015
         vertex 1.752500e+001 9.475000e+000 7.000000e+000
      endloop
   endfacet
   facet normal -1.000000e+000 0.000000e+000 0.000000e+000
      outer loop
         vertex 1.752500e+001 1.202500e+001 -1.776357e-015
         vertex 1.752500e+001 9.475000e+000 7.000000e+000
         vertex 1.752500e+001 1.202500e+001 7.000000e+000
      endloop
   endfacet
   facet normal 0.000000e+000 -1.000000e+000 0.000000e+000
      outer loop
         vertex 1.635000e+001 1.202500e+001 3.500000e+000
         vertex 1.752500e+001 1.202500e+001 -1.776357e-015
         vertex 1.752500e+001 1.202500e+001 7.000000e+000
      endloop
   endfacet
   facet normal 0.000000e+000 -1.000000e+000 0.000000e+000
      outer loop
         vertex 1.315000e+001 1.202500e+001 1.900000e+000
         vertex 1.197500e+001 1.202500e+001 7.000000e+000
         vertex 1.197500e+001 1.202500e+001 0.000000e+000
      endloop
   endfacet
   facet normal 0.000000e+000 -1.000000e+000 0.000000e+000
      outer loop
         vertex 1.635000e+001 1.202500e+001 5.100000e+000
         vertex 1.597567e+001 1.202500e+001 4.528460e+000
         vertex 1.635000e+001 1.202500e+001 3.500000e+000
      endloop
   endfacet
   facet normal 0.000000e+000 -1.000000e+000 0.000000e+000
      outer loop
         vertex 1.315000e+001 1.202500e+001 5.100000e+000
         vertex 1.395000e+001 1.202500e+001 4.885641e+000
         vertex 1.502784e+001 1.202500e+001 5.075692e+000
      endloop
   endfacet
   facet normal -0.000000e+000 -1.000000e+000 0.000000e+000
      outer loop
         vertex 1.315000e+001 1.202500e+001 1.900000e+000
         vertex 1.324649e+001 1.202500e+001 2.952768e+000
         vertex 1.324649e+001 1.202500e+001 4.047232e+000
      endloop
   endfacet
   facet normal -0.000000e+000 -1.000000e+000 0.000000e+000
      outer loop
         vertex 1.315000e+001 1.202500e+001 1.900000e+000
         vertex 1.502784e+001 1.202500e+001 1.924308e+000
         vertex 1.395000e+001 1.202500e+001 2.114359e+000
      endloop
   endfacet
   facet normal 0.000000e+000 -1.000000e+000 -0.000000e+000
      outer loop
         vertex 1.635000e+001 1.202500e+001 1.900000e+000
         vertex 1.635000e+001 1.202500e+001 3.500000e+000
         vertex 1.597567e+001 1.202500e+001 2.471540e+000
      endloop
   endfacet
   facet normal 0.000000e+000 -1.000000e+000 0.000000e+000
      outer loop
         vertex 1.502784e+001 1.202500e+001 1.924308e+000
         vertex 1.315000e+001 1.202500e+001 1.900000e+000
         vertex 1.635000e+001 1.202500e+001 1.900000e+000
      endloop
   endfacet
   facet normal 0.000000e+000 -1.000000e+000 0.000000e+000
      outer loop
         vertex 1.324649e+001 1.202500e+001 4.047232e+000
         vertex 1.315000e+001 1.202500e+001 5.100000e+000
         vertex 1.315000e+001 1.202500e+001 1.900000e+000
      endloop
   endfacet
   facet normal 0.000000e+000 -1.000000e+000 0.000000e+000
      outer loop
         vertex 1.635000e+001 1.202500e+001 5.100000e+000
         vertex 1.635000e+001 1.202500e+001 3.500000e+000
         vertex 1.752500e+001 1.202500e+001 7.000000e+000
      endloop
   endfacet
   facet normal 0.000000e+000 -1.000000e+000 -0.000000e+000
      outer loop
         vertex 1.635000e+001 1.202500e+001 1.900000e+000
         vertex 1.315000e+001 1.202500e+001 1.900000e+000
         vertex 1.197500e+001 1.202500e+001 0.000000e+000
      endloop
   endfacet
   facet normal 0.000000e+000 -1.000000e+000 0.000000e+000
      outer loop
         vertex 1.635000e+001 1.202500e+001 5.100000e+000
         vertex 1.315000e+001 1.202500e+001 5.100000e+000
         vertex 1.502784e+001 1.202500e+001 5.075692e+000
      endloop
   endfacet
   facet normal 0.000000e+000 -1.000000e+000 0.000000e+000
      outer loop
         vertex 1.324649e+001 1.202500e+001 2.952768e+000
         vertex 1.315000e+001 1.202500e+001 1.900000e+000
         vertex 1.395000e+001 1.202500e+001 2.114359e+000
      endloop
   endfacet
   facet normal 0.000000e+000 -1.000000e+000 0.000000e+000
      outer loop
         vertex 1.395000e+001 1.202500e+001 4.885641e+000
         vertex 1.315000e+001 1.202500e+001 5.100000e+000
         vertex 1.324649e+001 1.202500e+001 4.047232e+000
      endloop
   endfacet
   facet normal 0.000000e+000 -1.000000e+000 0.000000e+000
      outer loop
         vertex 1.635000e+001 1.202500e+001 1.900000e+000
         vertex 1.197500e+001 1.202500e+001 0.000000e+000
         vertex 1.752500e+001 1.202500e+001 -1.776357e-015
      endloop
   endfacet
   facet normal 0.000000e+000 -1.000000e+000 0.000000e+000
      outer loop
         vertex 1.635000e+001 1.202500e+001 5.100000e+000
         vertex 1.502784e+001 1.202500e+001 5.075692e+000
         vertex 1.597567e+001 1.202500e+001 4.528460e+000
      endloop
   endfacet
   facet normal 0.000000e+000 -1.000000e+000 0.000000e+000
      outer loop
         vertex 1.635000e+001 1.202500e+001 1.900000e+000
         vertex 1.752500e+001 1.202500e+001 -1.776357e-015
         vertex 1.635000e+001 1.202500e+001 3.500000e+000
      endloop
   endfacet
   facet normal 0.000000e+000 -1.000000e+000 0.000000e+000
      outer loop
         vertex 1.502784e+001 1.202500e+001 1.924308e+000
         vertex 1.635000e+001 1.202500e+001 1.900000e+000
         vertex 1.597567e+001 1.202500e+001 2.471540e+000
      endloop
   endfacet
   facet normal -0.000000e+000 -1.000000e+000 0.000000e+000
      outer loop
         vertex 1.315000e+001 1.202500e+001 5.100000e+000
         vertex 1.752500e+001 1.202500e+001 7.000000e+000
         vertex 1.197500e+001 1.202500e+001 7.000000e+000
      endloop
   endfacet
   facet normal 0.000000e+000 -1.000000e+000 0.000000e+000
      outer loop
         vertex 1.315000e+001 1.202500e+001 5.100000e+000
         vertex 1.197500e+001 1.202500e+001 7.000000e+000
         vertex 1.315000e+001 1.202500e+001 1.900000e+000
      endloop
   endfacet
   facet normal 0.000000e+000 -1.000000e+000 0.000000e+000
      outer loop
         vertex 1.315000e+001 1.202500e+001 5.100000e+000
         vertex 1.635000e+001 1.202500e+001 5.100000e+000
         vertex 1.752500e+001 1.202500e+001 7.000000e+000
      endloop
   endfacet
   facet normal 1.000000e+000 0.000000e+000 -0.000000e+000
      outer loop
         vertex 1.197500e+001 9.475000e+000 -1.776357e-015
         vertex 1.197500e+001 1.202500e+001 0.000000e+000
         vertex 1.197500e+001 1.202500e+001 7.000000e+000
      endloop
   endfacet
   facet normal 1.000000e+000 0.000000e+000 0.000000e+000
      outer loop
         vertex 1.197500e+001 9.475000e+000 -1.776357e-015
         vertex 1.197500e+001 1.202500e+001 7.000000e+000
         vertex 1.197500e+001 9.475000e+000 7.000000e+000
      endloop
   endfacet
   facet normal 0.000000e+000 1.000000e+000 0.000000e+000
      outer loop
         vertex 1.315000e+001 9.475000e+000 1.900000e+000
         vertex 1.197500e+001 9.475000e+000 -1.776357e-015
         vertex 1.197500e+001 9.475000e+000 7.000000e+000
      endloop
   endfacet
   facet normal 0.000000e+000 1.000000e+000 0.000000e+000
      outer loop
         vertex 1.635000e+001 9.475000e+000 3.500000e+000
         vertex 1.752500e+001 9.475000e+000 7.000000e+000
         vertex 1.752500e+001 9.475000e+000 -1.776357e-015
      endloop
   endfacet
   facet normal -0.000000e+000 1.000000e+000 0.000000e+000
      outer loop
         vertex 1.635000e+001 9.475000e+000 1.900000e+000
         vertex 1.597567e+001 9.475000e+000 2.471540e+000
         vertex 1.635000e+001 9.475000e+000 3.500000e+000
      endloop
   endfacet
   facet normal 0.000000e+000 1.000000e+000 0.000000e+000
      outer loop
         vertex 1.315000e+001 9.475000e+000 1.900000e+000
         vertex 1.395000e+001 9.475000e+000 2.114359e+000
         vertex 1.502784e+001 9.475000e+000 1.924308e+000
      endloop
   endfacet
   facet normal 0.000000e+000 1.000000e+000 0.000000e+000
      outer loop
         vertex 1.315000e+001 9.475000e+000 5.100000e+000
         vertex 1.324649e+001 9.475000e+000 4.047232e+000
         vertex 1.324649e+001 9.475000e+000 2.952768e+000
      endloop
   endfacet
   facet normal 0.000000e+000 1.000000e+000 0.000000e+000
      outer loop
         vertex 1.315000e+001 9.475000e+000 5.100000e+000
         vertex 1.502784e+001 9.475000e+000 5.075692e+000
         vertex 1.395000e+001 9.475000e+000 4.885641e+000
      endloop
   endfacet
   facet normal 0.000000e+000 1.000000e+000 -0.000000e+000
      outer loop
         vertex 1.635000e+001 9.475000e+000 5.100000e+000
         vertex 1.635000e+001 9.475000e+000 3.500000e+000
         vertex 1.597567e+001 9.475000e+000 4.528460e+000
      endloop
   endfacet
   facet normal 0.000000e+000 1.000000e+000 0.000000e+000
      outer loop
         vertex 1.502784e+001 9.475000e+000 1.924308e+000
         vertex 1.635000e+001 9.475000e+000 1.900000e+000
         vertex 1.315000e+001 9.475000e+000 1.900000e+000
      endloop
   endfacet
   facet normal 0.000000e+000 1.000000e+000 0.000000e+000
      outer loop
         vertex 1.324649e+001 9.475000e+000 2.952768e+000
         vertex 1.315000e+001 9.475000e+000 1.900000e+000
         vertex 1.315000e+001 9.475000e+000 5.100000e+000
      endloop
   endfacet
   facet normal 0.000000e+000 1.000000e+000 -0.000000e+000
      outer loop
         vertex 1.315000e+001 9.475000e+000 5.100000e+000
         vertex 1.315000e+001 9.475000e+000 1.900000e+000
         vertex 1.197500e+001 9.475000e+000 7.000000e+000
      endloop
   endfacet
   facet normal 0.000000e+000 1.000000e+000 0.000000e+000
      outer loop
         vertex 1.635000e+001 9.475000e+000 5.100000e+000
         vertex 1.752500e+001 9.475000e+000 7.000000e+000
         vertex 1.635000e+001 9.475000e+000 3.500000e+000
      endloop
   endfacet
   facet normal 0.000000e+000 1.000000e+000 0.000000e+000
      outer loop
         vertex 1.502784e+001 9.475000e+000 1.924308e+000
         vertex 1.597567e+001 9.475000e+000 2.471540e+000
         vertex 1.635000e+001 9.475000e+000 1.900000e+000
      endloop
   endfacet
   facet normal 0.000000e+000 1.000000e+000 0.000000e+000
      outer loop
         vertex 1.324649e+001 9.475000e+000 4.047232e+000
         vertex 1.315000e+001 9.475000e+000 5.100000e+000
         vertex 1.395000e+001 9.475000e+000 4.885641e+000
      endloop
   endfacet
   facet normal 0.000000e+000 1.000000e+000 -0.000000e+000
      outer loop
         vertex 1.752500e+001 9.475000e+000 7.000000e+000
         vertex 1.315000e+001 9.475000e+000 5.100000e+000
         vertex 1.197500e+001 9.475000e+000 7.000000e+000
      endloop
   endfacet
   facet normal 0.000000e+000 1.000000e+000 0.000000e+000
      outer loop
         vertex 1.635000e+001 9.475000e+000 1.900000e+000
         vertex 1.752500e+001 9.475000e+000 -1.776357e-015
         vertex 1.197500e+001 9.475000e+000 -1.776357e-015
      endloop
   endfacet
   facet normal 0.000000e+000 1.000000e+000 -0.000000e+000
      outer loop
         vertex 1.635000e+001 9.475000e+000 5.100000e+000
         vertex 1.597567e+001 9.475000e+000 4.528460e+000
         vertex 1.502784e+001 9.475000e+000 5.075692e+000
      endloop
   endfacet
   facet normal -0.000000e+000 1.000000e+000 0.000000e+000
      outer loop
         vertex 1.502784e+001 9.475000e+000 5.075692e+000
         vertex 1.315000e+001 9.475000e+000 5.100000e+000
         vertex 1.635000e+001 9.475000e+000 5.100000e+000
      endloop
   endfacet
   facet normal 0.000000e+000 1.000000e+000 0.000000e+000
      outer loop
         vertex 1.635000e+001 9.475000e+000 1.900000e+000
         vertex 1.197500e+001 9.475000e+000 -1.776357e-015
         vertex 1.315000e+001 9.475000e+000 1.900000e+000
      endloop
   endfacet
   facet normal 0.000000e+000 1.000000e+000 0.000000e+000
      outer loop
         vertex 1.324649e+001 9.475000e+000 2.952768e+000
         vertex 1.395000e+001 9.475000e+000 2.114359e+000
         vertex 1.315000e+001 9.475000e+000 1.900000e+000
      endloop
   endfacet
   facet normal 0.000000e+000 1.000000e+000 0.000000e+000
      outer loop
         vertex 1.635000e+001 9.475000e+000 3.500000e+000
         vertex 1.752500e+001 9.475000e+000 -1.776357e-015
         vertex 1.635000e+001 9.475000e+000 1.900000e+000
      endloop
   endfacet
   facet normal 0.000000e+000 1.000000e+000 0.000000e+000
      outer loop
         vertex 1.315000e+001 9.475000e+000 5.100000e+000
         vertex 1.752500e+001 9.475000e+000 7.000000e+000
         vertex 1.635000e+001 9.475000e+000 5.100000e+000
      endloop
   endfacet
   facet normal -0.000000e+000 0.000000e+000 1.000000e+000
      outer loop
         vertex 3.925000e+001 2.275000e+001 7.000000e+000
         vertex 2.879956e+001 2.275000e+001 7.000000e+000
         vertex 3.552500e+001 1.202500e+001 7.000000e+000
      endloop
   endfacet
   facet normal -0.000000e+000 0.000000e+000 1.000000e+000
      outer loop
         vertex 2.642956e+001 2.141709e+001 7.000000e+000
         vertex 2.375000e+001 2.095500e+001 7.000000e+000
         vertex 2.375000e+001 1.202500e+001 7.000000e+000
      endloop
   endfacet
   facet normal 0.000000e+000 0.000000e+000 1.000000e+000
      outer loop
         vertex 2.107044e+001 2.141709e+001 7.000000e+000
         vertex 1.870044e+001 2.275000e+001 7.000000e+000
         vertex 1.752500e+001 1.202500e+001 7.000000e+000
      endloop
   endfacet
   facet normal 0.000000e+000 0.000000e+000 1.000000e+000
      outer loop
         vertex 8.250000e+000 2.275000e+001 7.000000e+000
         vertex 8.250000e+000 2.750000e+000 7.000000e+000
         vertex 1.197500e+001 1.202500e+001 7.000000e+000
      endloop
   endfacet
   facet normal 0.000000e+000 0.000000e+000 1.000000e+000
      outer loop
         vertex 3.925000e+001 2.750000e+000 7.000000e+000
         vertex 3.925000e+001 2.275000e+001 7.000000e+000
         vertex 3.552500e+001 1.202500e+001 7.000000e+000
      endloop
   endfacet
   facet normal 0.000000e+000 0.000000e+000 1.000000e+000
      outer loop
         vertex 1.752500e+001 1.202500e+001 7.000000e+000
         vertex 1.752500e+001 9.475000e+000 7.000000e+000
         vertex 2.375000e+001 1.202500e+001 7.000000e+000
      endloop
   endfacet
   facet normal 0.000000e+000 0.000000e+000 1.000000e+000
      outer loop
         vertex 1.197500e+001 9.475000e+000 7.000000e+000
         vertex 1.197500e+001 1.202500e+001 7.000000e+000
         vertex 8.250000e+000 2.750000e+000 7.000000e+000
      endloop
   endfacet
   facet normal -0.000000e+000 0.000000e+000 1.000000e+000
      outer loop
         vertex 3.552500e+001 1.202500e+001 7.000000e+000
         vertex 3.552500e+001 9.475000e+000 7.000000e+000
         vertex 3.925000e+001 2.750000e+000 7.000000e+000
      endloop
   endfacet
   facet normal 0.000000e+000 0.000000e+000 1.000000e+000
      outer loop
         vertex 2.997500e+001 9.475000e+000 7.000000e+000
         vertex 2.997500e+001 1.202500e+001 7.000000e+000
         vertex 2.375000e+001 1.202500e+001 7.000000e+000
      endloop
   endfacet
   facet normal 0.000000e+000 0.000000e+000 1.000000e+000
      outer loop
         vertex 2.375000e+001 1.202500e+001 7.000000e+000
         vertex 2.375000e+001 9.475000e+000 7.000000e+000
         vertex 2.997500e+001 9.475000e+000 7.000000e+000
      endloop
   endfacet
   facet normal 0.000000e+000 0.000000e+000 1.000000e+000
      outer loop
         vertex 2.642956e+001 2.141709e+001 7.000000e+000
         vertex 2.375000e+001 1.202500e+001 7.000000e+000
         vertex 2.997500e+001 1.202500e+001 7.000000e+000
      endloop
   endfacet
   facet normal 0.000000e+000 0.000000e+000 1.000000e+000
      outer loop
         vertex 2.107044e+001 2.141709e+001 7.000000e+000
         vertex 1.752500e+001 1.202500e+001 7.000000e+000
         vertex 2.375000e+001 1.202500e+001 7.000000e+000
      endloop
   endfacet
   facet normal 0.000000e+000 -0.000000e+000 1.000000e+000
      outer loop
         vertex 8.250000e+000 2.275000e+001 7.000000e+000
         vertex 1.197500e+001 1.202500e+001 7.000000e+000
         vertex 1.870044e+001 2.275000e+001 7.000000e+000
      endloop
   endfacet
   facet normal 0.000000e+000 0.000000e+000 1.000000e+000
      outer loop
         vertex 3.925000e+001 2.750000e+000 7.000000e+000
         vertex 3.552500e+001 9.475000e+000 7.000000e+000
         vertex 2.997500e+001 9.475000e+000 7.000000e+000
      endloop
   endfacet
   facet normal 0.000000e+000 -0.000000e+000 1.000000e+000
      outer loop
         vertex 2.107044e+001 2.141709e+001 7.000000e+000
         vertex 2.375000e+001 1.202500e+001 7.000000e+000
         vertex 2.375000e+001 2.095500e+001 7.000000e+000
      endloop
   endfacet
   facet normal -0.000000e+000 0.000000e+000 1.000000e+000
      outer loop
         vertex 2.879956e+001 2.275000e+001 7.000000e+000
         vertex 2.642956e+001 2.141709e+001 7.000000e+000
         vertex 2.997500e+001 1.202500e+001 7.000000e+000
      endloop
   endfacet
   facet normal 0.000000e+000 -0.000000e+000 1.000000e+000
      outer loop
         vertex 1.197500e+001 1.202500e+001 7.000000e+000
         vertex 1.752500e+001 1.202500e+001 7.000000e+000
         vertex 1.870044e+001 2.275000e+001 7.000000e+000
      endloop
   endfacet
   facet normal 0.000000e+000 0.000000e+000 1.000000e+000
      outer loop
         vertex 2.997500e+001 1.202500e+001 7.000000e+000
         vertex 3.552500e+001 1.202500e+001 7.000000e+000
         vertex 2.879956e+001 2.275000e+001 7.000000e+000
      endloop
   endfacet
   facet normal 0.000000e+000 0.000000e+000 1.000000e+000
      outer loop
         vertex 2.375000e+001 1.202500e+001 7.000000e+000
         vertex 1.752500e+001 9.475000e+000 7.000000e+000
         vertex 2.375000e+001 9.475000e+000 7.000000e+000
      endloop
   endfacet
   facet normal 0.000000e+000 0.000000e+000 1.000000e+000
      outer loop
         vertex 3.925000e+001 2.750000e+000 7.000000e+000
         vertex 2.997500e+001 9.475000e+000 7.000000e+000
         vertex 2.375000e+001 9.475000e+000 7.000000e+000
      endloop
   endfacet
   facet normal 0.000000e+000 0.000000e+000 1.000000e+000
      outer loop
         vertex 8.250000e+000 2.750000e+000 7.000000e+000
         vertex 3.925000e+001 2.750000e+000 7.000000e+000
         vertex 2.375000e+001 9.475000e+000 7.000000e+000
      endloop
   endfacet
   facet normal 0.000000e+000 0.000000e+000 1.000000e+000
      outer loop
         vertex 1.197500e+001 9.475000e+000 7.000000e+000
         vertex 8.250000e+000 2.750000e+000 7.000000e+000
         vertex 1.752500e+001 9.475000e+000 7.000000e+000
      endloop
   endfacet
   facet normal 0.000000e+000 0.000000e+000 1.000000e+000
      outer loop
         vertex 1.752500e+001 9.475000e+000 7.000000e+000
         vertex 8.250000e+000 2.750000e+000 7.000000e+000
         vertex 2.375000e+001 9.475000e+000 7.000000e+000
      endloop
   endfacet
   facet normal -9.396924e-001 -0.000000e+000 -3.420207e-001
      outer loop
         vertex 1.597567e+001 2.275000e+001 4.528460e+000
         vertex 1.635000e+001 2.275000e+001 3.500000e+000
         vertex 1.635000e+001 1.202500e+001 3.500000e+000
      endloop
   endfacet
   facet normal 1.736480e-001 0.000000e+000 -9.848078e-001
      outer loop
         vertex 1.395000e+001 1.202500e+001 4.885641e+000
         vertex 1.395000e+001 2.275000e+001 4.885641e+000
         vertex 1.502784e+001 2.275000e+001 5.075692e+000
      endloop
   endfacet
   facet normal 1.000000e+000 0.000000e+000 -0.000000e+000
      outer loop
         vertex 1.324649e+001 1.202500e+001 2.952768e+000
         vertex 1.324649e+001 2.275000e+001 2.952768e+000
         vertex 1.324649e+001 2.275000e+001 4.047232e+000
      endloop
   endfacet
   facet normal 1.736482e-001 0.000000e+000 9.848077e-001
      outer loop
         vertex 1.502784e+001 1.202500e+001 1.924308e+000
         vertex 1.502784e+001 2.275000e+001 1.924308e+000
         vertex 1.395000e+001 2.275000e+001 2.114359e+000
      endloop
   endfacet
   facet normal -9.396924e-001 0.000000e+000 3.420207e-001
      outer loop
         vertex 1.635000e+001 1.202500e+001 3.500000e+000
         vertex 1.635000e+001 2.275000e+001 3.500000e+000
         vertex 1.597567e+001 2.275000e+001 2.471540e+000
      endloop
   endfacet
   facet normal -5.000000e-001 0.000000e+000 8.660254e-001
      outer loop
         vertex 1.502784e+001 2.275000e+001 1.924308e+000
         vertex 1.502784e+001 1.202500e+001 1.924308e+000
         vertex 1.597567e+001 1.202500e+001 2.471540e+000
      endloop
   endfacet
   facet normal 7.660444e-001 -0.000000e+000 6.427877e-001
      outer loop
         vertex 1.324649e+001 2.275000e+001 2.952768e+000
         vertex 1.324649e+001 1.202500e+001 2.952768e+000
         vertex 1.395000e+001 1.202500e+001 2.114359e+000
      endloop
   endfacet
   facet normal 7.660444e-001 0.000000e+000 -6.427877e-001
      outer loop
         vertex 1.395000e+001 2.275000e+001 4.885641e+000
         vertex 1.395000e+001 1.202500e+001 4.885641e+000
         vertex 1.324649e+001 1.202500e+001 4.047232e+000
      endloop
   endfacet
   facet normal -5.000000e-001 0.000000e+000 -8.660254e-001
      outer loop
         vertex 1.597567e+001 2.275000e+001 4.528460e+000
         vertex 1.597567e+001 1.202500e+001 4.528460e+000
         vertex 1.502784e+001 1.202500e+001 5.075692e+000
      endloop
   endfacet
   facet normal -9.396924e-001 -0.000000e+000 -3.420207e-001
      outer loop
         vertex 1.597567e+001 1.202500e+001 4.528460e+000
         vertex 1.597567e+001 2.275000e+001 4.528460e+000
         vertex 1.635000e+001 1.202500e+001 3.500000e+000
      endloop
   endfacet
   facet normal 1.736482e-001 0.000000e+000 9.848077e-001
      outer loop
         vertex 1.395000e+001 1.202500e+001 2.114359e+000
         vertex 1.502784e+001 1.202500e+001 1.924308e+000
         vertex 1.395000e+001 2.275000e+001 2.114359e+000
      endloop
   endfacet
   facet normal 7.660444e-001 0.000000e+000 6.427877e-001
      outer loop
         vertex 1.395000e+001 2.275000e+001 2.114359e+000
         vertex 1.324649e+001 2.275000e+001 2.952768e+000
         vertex 1.395000e+001 1.202500e+001 2.114359e+000
      endloop
   endfacet
   facet normal -5.000000e-001 -0.000000e+000 -8.660254e-001
      outer loop
         vertex 1.502784e+001 1.202500e+001 5.075692e+000
         vertex 1.502784e+001 2.275000e+001 5.075692e+000
         vertex 1.597567e+001 2.275000e+001 4.528460e+000
      endloop
   endfacet
   facet normal -5.000000e-001 0.000000e+000 8.660254e-001
      outer loop
         vertex 1.597567e+001 1.202500e+001 2.471540e+000
         vertex 1.597567e+001 2.275000e+001 2.471540e+000
         vertex 1.502784e+001 2.275000e+001 1.924308e+000
      endloop
   endfacet
   facet normal 1.000000e+000 -0.000000e+000 0.000000e+000
      outer loop
         vertex 1.324649e+001 2.275000e+001 4.047232e+000
         vertex 1.324649e+001 1.202500e+001 4.047232e+000
         vertex 1.324649e+001 1.202500e+001 2.952768e+000
      endloop
   endfacet
   facet normal 1.736480e-001 0.000000e+000 -9.848078e-001
      outer loop
         vertex 1.502784e+001 1.202500e+001 5.075692e+000
         vertex 1.395000e+001 1.202500e+001 4.885641e+000
         vertex 1.502784e+001 2.275000e+001 5.075692e+000
      endloop
   endfacet
   facet normal -9.396924e-001 0.000000e+000 3.420207e-001
      outer loop
         vertex 1.635000e+001 1.202500e+001 3.500000e+000
         vertex 1.597567e+001 2.275000e+001 2.471540e+000
         vertex 1.597567e+001 1.202500e+001 2.471540e+000
      endloop
   endfacet
   facet normal 7.660444e-001 0.000000e+000 -6.427877e-001
      outer loop
         vertex 1.324649e+001 1.202500e+001 4.047232e+000
         vertex 1.324649e+001 2.275000e+001 4.047232e+000
         vertex 1.395000e+001 2.275000e+001 4.885641e+000
      endloop
   endfacet
   facet normal -9.396927e-001 -0.000000e+000 -3.420200e-001
      outer loop
         vertex 3.397567e+001 2.275000e+001 4.528460e+000
         vertex 3.435000e+001 2.275000e+001 3.500000e+000
         vertex 3.435000e+001 1.202500e+001 3.500000e+000
      endloop
   endfacet
   facet normal 1.736483e-001 0.000000e+000 -9.848077e-001
      outer loop
         vertex 3.195000e+001 1.202500e+001 4.885641e+000
         vertex 3.195000e+001 2.275000e+001 4.885641e+000
         vertex 3.302784e+001 2.275000e+001 5.075692e+000
      endloop
   endfacet
   facet normal 1.000000e+000 0.000000e+000 -0.000000e+000
      outer loop
         vertex 3.124649e+001 1.202500e+001 2.952768e+000
         vertex 3.124649e+001 2.275000e+001 2.952768e+000
         vertex 3.124649e+001 2.275000e+001 4.047232e+000
      endloop
   endfacet
   facet normal 1.736485e-001 0.000000e+000 9.848077e-001
      outer loop
         vertex 3.302784e+001 1.202500e+001 1.924308e+000
         vertex 3.302784e+001 2.275000e+001 1.924308e+000
         vertex 3.195000e+001 2.275000e+001 2.114359e+000
      endloop
   endfacet
   facet normal -9.396927e-001 0.000000e+000 3.420199e-001
      outer loop
         vertex 3.435000e+001 1.202500e+001 3.500000e+000
         vertex 3.435000e+001 2.275000e+001 3.500000e+000
         vertex 3.397567e+001 2.275000e+001 2.471540e+000
      endloop
   endfacet
   facet normal -5.000000e-001 0.000000e+000 8.660254e-001
      outer loop
         vertex 3.302784e+001 2.275000e+001 1.924308e+000
         vertex 3.302784e+001 1.202500e+001 1.924308e+000
         vertex 3.397567e+001 1.202500e+001 2.471540e+000
      endloop
   endfacet
   facet normal 7.660444e-001 -0.000000e+000 6.427877e-001
      outer loop
         vertex 3.124649e+001 2.275000e+001 2.952768e+000
         vertex 3.124649e+001 1.202500e+001 2.952768e+000
         vertex 3.195000e+001 1.202500e+001 2.114359e+000
      endloop
   endfacet
   facet normal 7.660444e-001 0.000000e+000 -6.427877e-001
      outer loop
         vertex 3.195000e+001 2.275000e+001 4.885641e+000
         vertex 3.195000e+001 1.202500e+001 4.885641e+000
         vertex 3.124649e+001 1.202500e+001 4.047232e+000
      endloop
   endfacet
   facet normal -5.000000e-001 0.000000e+000 -8.660254e-001
      outer loop
         vertex 3.397567e+001 2.275000e+001 4.528460e+000
         vertex 3.397567e+001 1.202500e+001 4.528460e+000
         vertex 3.302784e+001 1.202500e+001 5.075692e+000
      endloop
   endfacet
   facet normal -9.396927e-001 -0.000000e+000 -3.420200e-001
      outer loop
         vertex 3.397567e+001 1.202500e+001 4.528460e+000
         vertex 3.397567e+001 2.275000e+001 4.528460e+000
         vertex 3.435000e+001 1.202500e+001 3.500000e+000
      endloop
   endfacet
   facet normal 1.736485e-001 0.000000e+000 9.848077e-001
      outer loop
         vertex 3.195000e+001 1.202500e+001 2.114359e+000
         vertex 3.302784e+001 1.202500e+001 1.924308e+000
         vertex 3.195000e+001 2.275000e+001 2.114359e+000
      endloop
   endfacet
   facet normal 7.660444e-001 0.000000e+000 6.427877e-001
      outer loop
         vertex 3.195000e+001 2.275000e+001 2.114359e+000
         vertex 3.124649e+001 2.275000e+001 2.952768e+000
         vertex 3.195000e+001 1.202500e+001 2.114359e+000
      endloop
   endfacet
   facet normal -5.000000e-001 -0.000000e+000 -8.660254e-001
      outer loop
         vertex 3.302784e+001 1.202500e+001 5.075692e+000
         vertex 3.302784e+001 2.275000e+001 5.075692e+000
         vertex 3.397567e+001 2.275000e+001 4.528460e+000
      endloop
   endfacet
   facet normal -5.000000e-001 0.000000e+000 8.660254e-001
      outer loop
         vertex 3.397567e+001 1.202500e+001 2.471540e+000
         vertex 3.397567e+001 2.275000e+001 2.471540e+000
         vertex 3.302784e+001 2.275000e+001 1.924308e+000
      endloop
   endfacet
   facet normal 1.000000e+000 -0.000000e+000 0.000000e+000
      outer loop
         vertex 3.124649e+001 2.275000e+001 4.047232e+000
         vertex 3.124649e+001 1.202500e+001 4.047232e+000
         vertex 3.124649e+001 1.202500e+001 2.952768e+000
      endloop
   endfacet
   facet normal 1.736483e-001 0.000000e+000 -9.848077e-001
      outer loop
         vertex 3.302784e+001 1.202500e+001 5.075692e+000
         vertex 3.195000e+001 1.202500e+001 4.885641e+000
         vertex 3.302784e+001 2.275000e+001 5.075692e+000
      endloop
   endfacet
   facet normal -9.396927e-001 0.000000e+000 3.420199e-001
      outer loop
         vertex 3.435000e+001 1.202500e+001 3.500000e+000
         vertex 3.397567e+001 2.275000e+001 2.471540e+000
         vertex 3.397567e+001 1.202500e+001 2.471540e+000
      endloop
   endfacet
   facet normal 7.660444e-001 0.000000e+000 -6.427877e-001
      outer loop
         vertex 3.124649e+001 1.202500e+001 4.047232e+000
         vertex 3.124649e+001 2.275000e+001 4.047232e+000
         vertex 3.195000e+001 2.275000e+001 4.885641e+000
      endloop
   endfacet
   facet normal -9.396927e-001 0.000000e+000 3.420199e-001
      outer loop
         vertex 3.397567e+001 2.750000e+000 2.471540e+000
         vertex 3.435000e+001 2.750000e+000 3.500000e+000
         vertex 3.435000e+001 9.475000e+000 3.500000e+000
      endloop
   endfacet
   facet normal 1.736485e-001 -0.000000e+000 9.848077e-001
      outer loop
         vertex 3.195000e+001 9.475000e+000 2.114359e+000
         vertex 3.195000e+001 2.750000e+000 2.114359e+000
         vertex 3.302784e+001 2.750000e+000 1.924308e+000
      endloop
   endfacet
   facet normal 1.000000e+000 -0.000000e+000 0.000000e+000
      outer loop
         vertex 3.124649e+001 9.475000e+000 4.047232e+000
         vertex 3.124649e+001 2.750000e+000 4.047232e+000
         vertex 3.124649e+001 2.750000e+000 2.952768e+000
      endloop
   endfacet
   facet normal 1.736483e-001 0.000000e+000 -9.848077e-001
      outer loop
         vertex 3.302784e+001 9.475000e+000 5.075692e+000
         vertex 3.302784e+001 2.750000e+000 5.075692e+000
         vertex 3.195000e+001 2.750000e+000 4.885641e+000
      endloop
   endfacet
   facet normal -9.396927e-001 0.000000e+000 -3.420200e-001
      outer loop
         vertex 3.435000e+001 9.475000e+000 3.500000e+000
         vertex 3.435000e+001 2.750000e+000 3.500000e+000
         vertex 3.397567e+001 2.750000e+000 4.528460e+000
      endloop
   endfacet
   facet normal -5.000000e-001 0.000000e+000 -8.660254e-001
      outer loop
         vertex 3.397567e+001 2.750000e+000 4.528460e+000
         vertex 3.302784e+001 9.475000e+000 5.075692e+000
         vertex 3.397567e+001 9.475000e+000 4.528460e+000
      endloop
   endfacet
   facet normal 7.660444e-001 0.000000e+000 -6.427877e-001
      outer loop
         vertex 3.124649e+001 2.750000e+000 4.047232e+000
         vertex 3.124649e+001 9.475000e+000 4.047232e+000
         vertex 3.195000e+001 9.475000e+000 4.885641e+000
      endloop
   endfacet
   facet normal 7.660444e-001 0.000000e+000 6.427877e-001
      outer loop
         vertex 3.195000e+001 2.750000e+000 2.114359e+000
         vertex 3.195000e+001 9.475000e+000 2.114359e+000
         vertex 3.124649e+001 9.475000e+000 2.952768e+000
      endloop
   endfacet
   facet normal -5.000000e-001 0.000000e+000 8.660254e-001
      outer loop
         vertex 3.397567e+001 2.750000e+000 2.471540e+000
         vertex 3.397567e+001 9.475000e+000 2.471540e+000
         vertex 3.302784e+001 9.475000e+000 1.924308e+000
      endloop
   endfacet
   facet normal -9.396927e-001 0.000000e+000 3.420199e-001
      outer loop
         vertex 3.397567e+001 9.475000e+000 2.471540e+000
         vertex 3.397567e+001 2.750000e+000 2.471540e+000
         vertex 3.435000e+001 9.475000e+000 3.500000e+000
      endloop
   endfacet
   facet normal 1.736483e-001 0.000000e+000 -9.848077e-001
      outer loop
         vertex 3.195000e+001 9.475000e+000 4.885641e+000
         vertex 3.302784e+001 9.475000e+000 5.075692e+000
         vertex 3.195000e+001 2.750000e+000 4.885641e+000
      endloop
   endfacet
   facet normal -9.396927e-001 0.000000e+000 -3.420200e-001
      outer loop
         vertex 3.435000e+001 9.475000e+000 3.500000e+000
         vertex 3.397567e+001 2.750000e+000 4.528460e+000
         vertex 3.397567e+001 9.475000e+000 4.528460e+000
      endloop
   endfacet
   facet normal -5.000000e-001 0.000000e+000 8.660254e-001
      outer loop
         vertex 3.302784e+001 2.750000e+000 1.924308e+000
         vertex 3.397567e+001 2.750000e+000 2.471540e+000
         vertex 3.302784e+001 9.475000e+000 1.924308e+000
      endloop
   endfacet
   facet normal 7.660444e-001 -0.000000e+000 6.427877e-001
      outer loop
         vertex 3.124649e+001 9.475000e+000 2.952768e+000
         vertex 3.124649e+001 2.750000e+000 2.952768e+000
         vertex 3.195000e+001 2.750000e+000 2.114359e+000
      endloop
   endfacet
   facet normal -5.000000e-001 0.000000e+000 -8.660254e-001
      outer loop
         vertex 3.302784e+001 9.475000e+000 5.075692e+000
         vertex 3.397567e+001 2.750000e+000 4.528460e+000
         vertex 3.302784e+001 2.750000e+000 5.075692e+000
      endloop
   endfacet
   facet normal 1.736485e-001 0.000000e+000 9.848077e-001
      outer loop
         vertex 3.302784e+001 2.750000e+000 1.924308e+000
         vertex 3.302784e+001 9.475000e+000 1.924308e+000
         vertex 3.195000e+001 9.475000e+000 2.114359e+000
      endloop
   endfacet
   facet normal 7.660444e-001 0.000000e+000 -6.427877e-001
      outer loop
         vertex 3.195000e+001 2.750000e+000 4.885641e+000
         vertex 3.124649e+001 2.750000e+000 4.047232e+000
         vertex 3.195000e+001 9.475000e+000 4.885641e+000
      endloop
   endfacet
   facet normal 1.000000e+000 0.000000e+000 -0.000000e+000
      outer loop
         vertex 3.124649e+001 2.750000e+000 2.952768e+000
         vertex 3.124649e+001 9.475000e+000 2.952768e+000
         vertex 3.124649e+001 9.475000e+000 4.047232e+000
      endloop
   endfacet
   facet normal -9.396924e-001 0.000000e+000 3.420207e-001
      outer loop
         vertex 1.597567e+001 2.750000e+000 2.471540e+000
         vertex 1.635000e+001 2.750000e+000 3.500000e+000
         vertex 1.635000e+001 9.475000e+000 3.500000e+000
      endloop
   endfacet
   facet normal 1.736482e-001 -0.000000e+000 9.848077e-001
      outer loop
         vertex 1.395000e+001 9.475000e+000 2.114359e+000
         vertex 1.395000e+001 2.750000e+000 2.114359e+000
         vertex 1.502784e+001 2.750000e+000 1.924308e+000
      endloop
   endfacet
   facet normal 1.000000e+000 -0.000000e+000 0.000000e+000
      outer loop
         vertex 1.324649e+001 9.475000e+000 4.047232e+000
         vertex 1.324649e+001 2.750000e+000 4.047232e+000
         vertex 1.324649e+001 2.750000e+000 2.952768e+000
      endloop
   endfacet
   facet normal 1.736480e-001 0.000000e+000 -9.848078e-001
      outer loop
         vertex 1.502784e+001 9.475000e+000 5.075692e+000
         vertex 1.502784e+001 2.750000e+000 5.075692e+000
         vertex 1.395000e+001 2.750000e+000 4.885641e+000
      endloop
   endfacet
   facet normal -9.396924e-001 0.000000e+000 -3.420207e-001
      outer loop
         vertex 1.635000e+001 9.475000e+000 3.500000e+000
         vertex 1.635000e+001 2.750000e+000 3.500000e+000
         vertex 1.597567e+001 2.750000e+000 4.528460e+000
      endloop
   endfacet
   facet normal -5.000000e-001 0.000000e+000 -8.660254e-001
      outer loop
         vertex 1.597567e+001 2.750000e+000 4.528460e+000
         vertex 1.502784e+001 9.475000e+000 5.075692e+000
         vertex 1.597567e+001 9.475000e+000 4.528460e+000
      endloop
   endfacet
   facet normal 7.660444e-001 0.000000e+000 -6.427877e-001
      outer loop
         vertex 1.324649e+001 2.750000e+000 4.047232e+000
         vertex 1.324649e+001 9.475000e+000 4.047232e+000
         vertex 1.395000e+001 9.475000e+000 4.885641e+000
      endloop
   endfacet
   facet normal 7.660444e-001 0.000000e+000 6.427877e-001
      outer loop
         vertex 1.395000e+001 2.750000e+000 2.114359e+000
         vertex 1.395000e+001 9.475000e+000 2.114359e+000
         vertex 1.324649e+001 9.475000e+000 2.952768e+000
      endloop
   endfacet
   facet normal -5.000000e-001 0.000000e+000 8.660254e-001
      outer loop
         vertex 1.597567e+001 2.750000e+000 2.471540e+000
         vertex 1.597567e+001 9.475000e+000 2.471540e+000
         vertex 1.502784e+001 9.475000e+000 1.924308e+000
      endloop
   endfacet
   facet normal -9.396924e-001 0.000000e+000 3.420207e-001
      outer loop
         vertex 1.597567e+001 9.475000e+000 2.471540e+000
         vertex 1.597567e+001 2.750000e+000 2.471540e+000
         vertex 1.635000e+001 9.475000e+000 3.500000e+000
      endloop
   endfacet
   facet normal 1.736480e-001 0.000000e+000 -9.848078e-001
      outer loop
         vertex 1.395000e+001 9.475000e+000 4.885641e+000
         vertex 1.502784e+001 9.475000e+000 5.075692e+000
         vertex 1.395000e+001 2.750000e+000 4.885641e+000
      endloop
   endfacet
   facet normal -9.396924e-001 0.000000e+000 -3.420207e-001
      outer loop
         vertex 1.635000e+001 9.475000e+000 3.500000e+000
         vertex 1.597567e+001 2.750000e+000 4.528460e+000
         vertex 1.597567e+001 9.475000e+000 4.528460e+000
      endloop
   endfacet
   facet normal -5.000000e-001 0.000000e+000 8.660254e-001
      outer loop
         vertex 1.502784e+001 2.750000e+000 1.924308e+000
         vertex 1.597567e+001 2.750000e+000 2.471540e+000
         vertex 1.502784e+001 9.475000e+000 1.924308e+000
      endloop
   endfacet
   facet normal 7.660444e-001 -0.000000e+000 6.427877e-001
      outer loop
         vertex 1.324649e+001 9.475000e+000 2.952768e+000
         vertex 1.324649e+001 2.750000e+000 2.952768e+000
         vertex 1.395000e+001 2.750000e+000 2.114359e+000
      endloop
   endfacet
   facet normal -5.000000e-001 0.000000e+000 -8.660254e-001
      outer loop
         vertex 1.502784e+001 9.475000e+000 5.075692e+000
         vertex 1.597567e+001 2.750000e+000 4.528460e+000
         vertex 1.502784e+001 2.750000e+000 5.075692e+000
      endloop
   endfacet
   facet normal 1.736482e-001 0.000000e+000 9.848077e-001
      outer loop
         vertex 1.502784e+001 2.750000e+000 1.924308e+000
         vertex 1.502784e+001 9.475000e+000 1.924308e+000
         vertex 1.395000e+001 9.475000e+000 2.114359e+000
      endloop
   endfacet
   facet normal 7.660444e-001 0.000000e+000 -6.427877e-001
      outer loop
         vertex 1.395000e+001 2.750000e+000 4.885641e+000
         vertex 1.324649e+001 2.750000e+000 4.047232e+000
         vertex 1.395000e+001 9.475000e+000 4.885641e+000
      endloop
   endfacet
   facet normal 1.000000e+000 0.000000e+000 -0.000000e+000
      outer loop
         vertex 1.324649e+001 2.750000e+000 2.952768e+000
         vertex 1.324649e+001 9.475000e+000 2.952768e+000
         vertex 1.324649e+001 9.475000e+000 4.047232e+000
      endloop
   endfacet
endsolid
