<?xml version="1.0" encoding="UTF-8" standalone="no"?>
<svg
   xmlns:dc="http://purl.org/dc/elements/1.1/"
   xmlns:cc="http://creativecommons.org/ns#"
   xmlns:rdf="http://www.w3.org/1999/02/22-rdf-syntax-ns#"
   xmlns:svg="http://www.w3.org/2000/svg"
   xmlns="http://www.w3.org/2000/svg"
   xmlns:sodipodi="http://sodipodi.sourceforge.net/DTD/sodipodi-0.dtd"
   xmlns:inkscape="http://www.inkscape.org/namespaces/inkscape"
   width="744.09448819"
   height="1052.3622047"
   id="svg2"
   version="0.48.2 r9819"
   inkscape:version="0.48.2 r9819"
   sodipodi:docname="рисунок4.svg">
  <metadata
     id="metadata9">
    <rdf:RDF>
      <cc:Work
         rdf:about="">
        <dc:format>image/svg+xml</dc:format>
        <dc:type
           rdf:resource="http://purl.org/dc/dcmitype/StillImage" />
        <dc:title />
      </cc:Work>
    </rdf:RDF>
  </metadata>
  <defs
     id="defs7" />
  <sodipodi:namedview
     pagecolor="#ffffff"
     bordercolor="#666666"
     borderopacity="1"
     objecttolerance="10"
     gridtolerance="10"
     guidetolerance="10"
     inkscape:pageopacity="0"
     inkscape:pageshadow="2"
     inkscape:window-width="1793"
     inkscape:window-height="1058"
     id="namedview5"
     showgrid="false"
     inkscape:zoom="16"
     inkscape:cx="27.340238"
     inkscape:cy="1032.2775"
     inkscape:window-x="-8"
     inkscape:window-y="-8"
     inkscape:window-maximized="1"
     inkscape:current-layer="svg2" />
  <path
     inkscape:connector-curvature="0"
     id="path4939"
     d="m 32.098784,45.988347 l -31.999998,0 l 0,-23 l 0,-23 l 31.999998,0 l 32.000002,0 l 0,23 l 0,23 l -32.000002,0 z m 0.09311,-0.52945 l 31.596509,0 l 0,-22.56398 l 0,-22.56398 l -31.596509,0 l -31.596508,0 l 0,22.56398 l 0,22.56398 l 31.596508,0 z m 0,-0.0311 l -31.565469,0 l 0,-22.53284 l 0,-22.53284 l 31.565469,0 l 31.565473,0 l 0,22.53284 l 0,22.53284 l -31.565473,0 z m 16.5742,-0.96548 l 13.865446,0 l 0.08182,-0.0821 l 0.08183,-0.0821 l 0,-21.40315 l 0,-21.40316 l -0.07988,-0.0802 l -0.07988,-0.0801 l -0.160663,-0.0189 l -0.160663,-0.0189 l -15.130942,0.009 l -15.130941,0.009 l -0.06524,0.0435 c -0.03588,0.024 -0.08477,0.073 -0.108633,0.109 l -0.04339,0.0655 l -0.0081,6.17434 l -0.0081,6.17434 l -0.527341,0 l -0.527341,0 l 0,0.88975 l 0,0.88976 l 0.780977,-0.0225 l 0.780974,-0.0225 l -0.02043,0.40185 c -0.01123,0.22101 -0.02049,0.89587 -0.02055,1.49968 l 0,1.09783 l -0.263824,0 l -0.263821,0 l 0,0.45159 l 0,0.45159 l 0.263821,0 l 0.263824,0 l 0,0.31144 l 0,0.31144 l 0.12415,0 l 0.124152,0 l 0,1.74408 l 0,1.74408 l -0.108633,0 l -0.108633,0 l 0,1.12119 l 0,1.12119 l 0.915616,0 l 0.915617,0 l 0,-1.12119 l 0,-1.12119 l -0.341416,0 l -0.341418,0 l 0,-1.88423 l 0,-1.88422 l -0.447065,0 l -0.447063,0 l -0.0044,-8.92282 l -0.0044,-8.92282 l 4.085071,0 l 4.085074,0 l 0.04434,0.0445 l 0.04434,0.0445 l 0,2.33804 l 0,2.33804 l -1.784674,0 l -1.784678,0 l 0,5.10765 l 0,5.10765 l 1.73812,0 l 1.738119,0 l 0,0.10277 l 0,0.10278 l 0.0388,0.0389 l 0.0388,0.0389 l 0.01552,1.78146 l 0.01552,1.78147 l 6.029096,0.008 l 6.0291,0.008 l 0,-4.28241 l 0,-4.28241 l -6.036858,0 l -6.036858,0 l 0,0.99662 l 0,0.99661 l -1.149316,0 l -1.149319,0 l 0.0087,-2.41109 l 0.0087,-2.4111 l 0.02585,-0.0259 l 0.02585,-0.0259 l 7.074041,-0.008 l 7.074039,-0.008 l 0,-2.31991 l 0,-2.31991 l 1.241512,0 l 1.241516,0 l 0,0.109 l 0,0.10901 l 0.170707,0 l 0.170708,0 l 0,9.6547 l 0,9.65471 l 1.13288,0 l 1.132882,0 l 0,-10.86933 l 0,-10.86933 l -0.03104,0 l -0.03104,0 l 0,-0.34259 l 0,-0.34258 l 1.815714,0 l 1.815713,0 l 0,17.74441 l 3e-6,17.74441 l -9.694619,0 l -9.694616,0 l -0.076,0.0408 c -0.0418,0.0224 -0.0963,0.0715 -0.121096,0.109 l -0.04509,0.0682 l -0.0087,1.86086 l -0.0087,1.86087 l -3.521857,0 l -3.521857,0 l 0,1.41317 l 0,1.41316 l 0.0193,0.0969 l 0.0193,0.0969 l 0.07803,0.0783 l 0.07804,0.0783 l 13.865443,0 z m -9.64346,-1.6819 l -0.0869,0 l -0.09937,-0.0608 l -0.09936,-0.0608 l -0.04807,-0.0933 l -0.04806,-0.0933 l 0,-0.0872 l 0,-0.0872 l 0.06058,-0.0997 l 0.06059,-0.0997 l 0.09294,-0.0482 l 0.09295,-0.0482 l 0.08068,0 l 0.08068,0 l 0.09295,0.0482 l 0.09294,0.0482 l 0.06059,0.0997 l 0.06058,0.0997 l 0,0.0934 l 0,0.0934 l -0.06058,0.0997 l -0.06059,0.0997 l -0.09294,0.0482 l -0.09295,0.0482 l -0.08689,0 z m -6.052921,-17.65987 c -0.04749,-5.7e-4 -0.128941,-0.0198 -0.181003,-0.0426 l -0.09465,-0.0414 l -0.08258,-0.0985 l -0.08258,-0.0985 l -0.01975,-0.10566 l -0.01976,-0.10565 l 0.0215,-0.0982 l 0.02148,-0.0982 l 0.09302,-0.10631 l 0.09302,-0.1063 l 0.118277,-0.0356 l 0.118279,-0.0356 l 0.112291,0.0211 l 0.11229,0.0211 l 0.107583,0.0948 l 0.107586,0.0948 l 0.03544,0.11868 l 0.03544,0.11868 l -0.02077,0.1111 l -0.02077,0.11109 l -0.08267,0.0986 l -0.08267,0.0986 l -0.101327,0.0425 l -0.101326,0.0425 l -0.08635,-10e-4 z m 23.682411,-1.08895 l -0.0869,-1.2e-4 l -0.09937,-0.0608 l -0.09936,-0.0608 l -0.04807,-0.0933 l -0.04806,-0.0933 l 0,-0.0872 l 0,-0.0872 l 0.06058,-0.0997 l 0.06059,-0.0997 l 0.09294,-0.0482 l 0.09295,-0.0482 l 0.08068,0 l 0.08068,0 l 0.09295,0.0482 l 0.09294,0.0482 l 0.06059,0.0997 l 0.06058,0.0997 l 0,0.0934 l 0,0.0934 l -0.06058,0.0997 l -0.06059,0.0997 l -0.09294,0.0482 l -0.09295,0.0482 l -0.08689,-1.2e-4 z m 0,-2.49153 l -0.0869,-1.3e-4 l -0.09937,-0.0608 l -0.09936,-0.0608 l -0.04807,-0.0933 l -0.04806,-0.0933 l 0,-0.0872 l 0,-0.0872 l 0.06058,-0.0997 l 0.06059,-0.0997 l 0.09294,-0.0482 l 0.09295,-0.0482 l 0.08068,0 l 0.08068,0 l 0.09295,0.0482 l 0.09294,0.0482 l 0.06059,0.0997 l 0.06058,0.0997 l 0,0.0934 l 0,0.0934 l -0.06058,0.0997 l -0.06059,0.0997 l -0.09294,0.0482 l -0.09295,0.0482 l -0.08689,-1.3e-4 z m 0,-2.49154 l -0.0869,-1.2e-4 l -0.09937,-0.0608 l -0.09936,-0.0608 l -0.04807,-0.0933 l -0.04806,-0.0933 l 0,-0.0872 l 0,-0.0872 l 0.06058,-0.0997 l 0.06059,-0.0997 l 0.09294,-0.0482 l 0.09295,-0.0482 l 0.08068,0 l 0.08068,0 l 0.09295,0.0482 l 0.09294,0.0482 l 0.06059,0.0997 l 0.06058,0.0997 l 0,0.0934 l 0,0.0934 l -0.06058,0.0997 l -0.06059,0.0997 l -0.09294,0.0482 l -0.09295,0.0482 l -0.08689,-1.2e-4 z m 0,-2.49154 l -0.0869,-1.2e-4 l -0.09937,-0.0608 l -0.09936,-0.0608 l -0.04807,-0.0933 l -0.04806,-0.0933 l 0,-0.0872 l 0,-0.0872 l 0.06058,-0.0997 l 0.06059,-0.0997 l 0.09294,-0.0482 l 0.09295,-0.0482 l 0.08068,0 l 0.08068,0 l 0.09295,0.0482 l 0.09294,0.0482 l 0.06059,0.0997 l 0.06058,0.0997 l 0,0.0934 l 0,0.0934 l -0.06058,0.0997 l -0.06059,0.0997 l -0.09294,0.0482 l -0.09295,0.0482 l -0.08689,-1.2e-4 z m -17.039769,-0.52945 l -0.0869,-1.2e-4 l -0.09937,-0.0608 l -0.09936,-0.0608 l -0.04807,-0.0933 l -0.04806,-0.0933 l 0,-0.0872 l 0,-0.0872 l 0.06059,-0.0997 l 0.06059,-0.0997 l 0.09294,-0.0482 l 0.09294,-0.0482 l 0.08068,0 l 0.08068,0 l 0.09295,0.0482 l 0.09294,0.0482 l 0.06059,0.0997 l 0.06059,0.0997 l 0,0.0934 l 0,0.0934 l -0.06059,0.0997 l -0.06059,0.0997 l -0.09294,0.0482 l -0.09295,0.0482 l -0.08689,-1.2e-4 z m 6.952474,-1.6195 l -0.0869,-1.2e-4 l -0.09937,-0.0608 l -0.09936,-0.0608 l -0.04807,-0.0933 l -0.04806,-0.0933 l 0,-0.0872 l 0,-0.0872 l 0.06058,-0.0997 l 0.06059,-0.0997 l 0.09294,-0.0482 l 0.09295,-0.0482 l 0.08068,0 l 0.08068,0 l 0.09295,0.0482 l 0.09294,0.0482 l 0.06059,0.0997 l 0.06058,0.0997 l 0,0.0934 l 0,0.0934 l -0.06058,0.0997 l -0.06059,0.0997 l -0.09294,0.0482 l -0.09295,0.0482 l -0.08689,-1.2e-4 z m 10.087295,-0.34258 l -0.0869,-1.3e-4 l -0.09937,-0.0608 l -0.09936,-0.0608 l -0.04807,-0.0933 l -0.04806,-0.0933 l 0,-0.0872 l 0,-0.0872 l 0.06058,-0.0997 l 0.06059,-0.0997 l 0.09294,-0.0482 l 0.09295,-0.0482 l 0.08068,0 l 0.08068,0 l 0.09295,0.0482 l 0.09294,0.0482 l 0.06059,0.0997 l 0.06058,0.0997 l 0,0.0934 l 0,0.0934 l -0.06058,0.0997 l -0.06059,0.0997 l -0.09294,0.0482 l -0.09295,0.0482 l -0.08689,-1.3e-4 z m 0,-2.49154 l -0.0869,-1.2e-4 l -0.09937,-0.0608 l -0.09936,-0.0608 l -0.04807,-0.0933 l -0.04806,-0.0933 l 0,-0.0872 l 0,-0.0872 l 0.06058,-0.0997 l 0.06059,-0.0997 l 0.09294,-0.0482 l 0.09295,-0.0482 l 0.08068,0 l 0.08068,0 l 0.09295,0.0482 l 0.09294,0.0482 l 0.06059,0.0997 l 0.06058,0.0997 l 0,0.0934 l 0,0.0934 l -0.06058,0.0997 l -0.06059,0.0997 l -0.09294,0.0482 l -0.09295,0.0482 l -0.08689,-1.3e-4 z m 0,-2.49154 l -0.0869,-1.2e-4 l -0.09937,-0.0608 l -0.09936,-0.0608 l -0.04807,-0.0933 l -0.04806,-0.0933 l 0,-0.0872 l 0,-0.0872 l 0.06058,-0.0997 l 0.06059,-0.0997 l 0.09294,-0.0482 l 0.09295,-0.0482 l 0.08068,0 l 0.08068,0 l 0.09295,0.0482 l 0.09294,0.0482 l 0.06059,0.0997 l 0.06058,0.0997 l 0,0.0934 l 0,0.0934 l -0.06058,0.0997 l -0.06059,0.0997 l -0.09294,0.0482 l -0.09295,0.0482 l -0.08689,-1.2e-4 z M 39.712355,8.552927 l -0.0869,-1.2e-4 l -0.09937,-0.0608 l -0.09936,-0.0608 l -0.04807,-0.0933 l -0.04806,-0.0933 l 0,-0.0872 l 0,-0.0872 l 0.06059,-0.0997 l 0.06059,-0.0997 l 0.09294,-0.0482 l 0.09294,-0.0482 l 0.08068,0 l 0.08068,0 l 0.09295,0.0482 l 0.09294,0.0482 l 0.06059,0.0997 l 0.06059,0.0997 l 0,0.0934 l 0,0.0934 l -0.06059,0.0997 l -0.06059,0.0997 l -0.09294,0.0482 l -0.09295,0.0482 l -0.08689,-1.3e-4 z m 17.039769,-1.96208 l -0.0869,-1.3e-4 l -0.09937,-0.0608 l -0.09936,-0.0608 l -0.04807,-0.0933 l -0.04806,-0.0933 l 0,-0.0872 l 0,-0.0872 l 0.06058,-0.0997 l 0.06059,-0.0997 l 0.09294,-0.0482 l 0.09295,-0.0482 l 0.08068,0 l 0.08068,0 l 0.09295,0.0482 l 0.09294,0.0482 l 0.06059,0.0997 l 0.06058,0.0997 l 0,0.0934 l 0,0.0934 l -0.06058,0.0997 l -0.06059,0.0997 l -0.09294,0.0482 l -0.09295,0.0482 l -0.08689,-1.2e-4 z m -8.783707,-0.62289 l -0.0869,-1.2e-4 l -0.09937,-0.0608 l -0.09936,-0.0608 l -0.04807,-0.0933 l -0.04806,-0.0933 l 0,-0.0872 l 0,-0.0872 l 0.06059,-0.0997 l 0.06059,-0.0997 l 0.09295,-0.0482 l 0.09294,-0.0482 l 0.08068,0 l 0.08068,0 l 0.09294,0.0482 l 0.09294,0.0482 l 0.06059,0.0997 l 0.06059,0.0997 l 0,0.0934 l 0,0.0934 l -0.06059,0.0997 l -0.06059,0.0997 l -0.09294,0.0482 l -0.09294,0.0482 l -0.08689,-1.3e-4 z m 3.739718,-1.71293 l -0.815944,-1.2e-4 l -0.108633,-0.07 l -0.108633,-0.07 l -0.791464,-0.0101 l -0.791464,-0.01 l -0.186924,0.0505 l -0.186922,0.0505 l -0.796546,-0.009 l -0.796547,-0.009 l -0.09892,-0.0934 l -0.09892,-0.0934 l -0.04274,-0.10022 l -0.04273,-0.10022 l 0,-0.69972 l 0,-0.69971 l 0.03301,-0.0877 c 0.01815,-0.0482 0.07053,-0.12736 0.116391,-0.17587 l 0.08338,-0.0882 l 0.104662,-0.0442 l 0.104665,-0.0442 l 0.710418,0 l 0.710419,0 l 0.139725,0.0659 c 0.07685,0.0362 0.14736,0.0783 0.156684,0.0934 l 0.01696,0.0275 l 0.831424,0 l 0.831418,0 l 0.105644,-0.0545 l 0.105642,-0.0545 l 0.775944,-0.009 l 0.775945,-0.009 l 0.108015,0.0553 l 0.108012,0.0553 l 0.07184,0.1079 l 0.07185,0.10789 l -0.0091,0.8365 l -0.0091,0.8365 l -0.130711,0.12229 l -0.130708,0.1223 l -0.815944,-1.2e-4 z m -0.0089,-0.4359 l 0.667311,0 l 0,-0.6696 l 0,-0.6696 l -0.667311,0 l -0.667315,0 l 0,0.0779 l 0,0.0779 l -1.194957,0 l -1.194954,0 l 0,-0.10901 l 0,-0.109 l -0.667315,0 l -0.667311,0 l 0,0.6696 l 0,0.6696 l 0.667311,0 l 0.667315,0 l 0,-0.0467 l 0,-0.0467 l 1.194954,0 l 1.194957,0 l 0,0.0779 l 0,0.0779 l 0.667315,0 z m -0.0062,-0.28042 l -0.0869,-1.2e-4 l -0.09937,-0.0608 l -0.09936,-0.0608 l -0.04807,-0.0933 l -0.04806,-0.0933 l 0,-0.0872 l 0,-0.0872 l 0.06059,-0.0997 l 0.06059,-0.0997 l 0.09294,-0.0482 l 0.09295,-0.0482 l 0.08068,0 l 0.08068,0 l 0.09295,0.0482 l 0.09294,0.0482 l 0.06059,0.0997 l 0.06058,0.0997 l 0,0.0934 l 0,0.0934 l -0.06058,0.0997 l -0.06059,0.0997 l -0.09294,0.0482 l -0.09295,0.0482 l -0.08689,-1.2e-4 z m -3.724541,-0.0623 l -0.0869,-1.3e-4 l -0.09937,-0.0608 l -0.09936,-0.0608 l -0.04807,-0.0933 l -0.04806,-0.0933 l 0,-0.0872 l 0,-0.0872 l 0.06059,-0.0997 l 0.06059,-0.0997 l 0.09294,-0.0482 l 0.09294,-0.0482 l 0.08068,0 l 0.08068,0 l 0.09295,0.0482 l 0.09294,0.0482 l 0.06059,0.0997 l 0.06059,0.0997 l 0,0.0934 l 0,0.0934 l -0.06059,0.0997 l -0.06059,0.0997 l -0.09294,0.0482 l -0.09295,0.0482 l -0.08689,-1.2e-4 z m -29.853288,40.91585 l 14.868236,-0.008 l 0.0078,-5.37784 l 0.0078,-5.37786 l -0.04886,-0.049 l -0.04886,-0.049 l -1.149376,0 l -1.149372,0 l 0.01095,-3.58159 l 0.01095,-3.58159 l -0.167891,10e-6 l -0.167891,0 l 0.02038,0.67738 l 0.02038,0.67739 l 6.2e-5,2.99541 l 6.2e-5,2.9954 l 0.04877,0.0489 l 0.04877,0.0489 l 1.146183,0 l 1.146184,0 l 0,4.78064 l 0,4.78064 l -14.43259,0 l -14.432591,0 l 0,-6.02641 l 0,-6.0264 l 0.108633,0 l 0.108633,0 l 0,-0.6696 l 0,-0.6696 l -0.667314,0 l -0.667312,0 l 0,0.6696 l 0,0.6696 l 0.04655,0 l 0.04656,0 l 0,6.33124 l 0,6.33125 l 0.06983,0.13896 l 0.06984,0.13897 l 0.138552,0.0701 l 0.138554,0.0701 l 14.868238,-0.008 z M 3.398174,31.039027 l -0.0869,-1.1e-4 l -0.09936,-0.0608 l -0.09937,-0.0608 l -0.04806,-0.0933 l -0.04806,-0.0933 l 1.13e-4,-0.0872 l 1.16e-4,-0.0872 l 0.06059,-0.0997 l 0.06059,-0.0997 l 0.09294,-0.0482 l 0.09294,-0.0482 l 0.08068,0 l 0.08068,0 l 0.09294,0.0482 l 0.09294,0.0482 l 0.06059,0.0997 l 0.06059,0.0997 l 0,0.0934 l 0,0.0934 l -0.06059,0.0997 l -0.06059,0.0997 l -0.09294,0.0482 l -0.09294,0.0482 l -0.0869,-1.2e-4 z m 15.485153,11.58576 l 12.905158,0 l 0,-3.76622 l 0,-3.76622 l -0.04877,-0.0489 l -0.04878,-0.0489 l -0.773726,0 l -0.77373,0 l 0,-4.31347 l 0,-4.31347 l -0.170707,0 l -0.170708,0 l 0,0.45159 l 0,0.45159 l 0.03104,0 l 0.03104,0 l 0,3.95309 l 0,3.95309 l 0.04877,0.0489 l 0.04877,0.0489 l 0.773729,0 l 0.773729,0 l 0,3.16114 l 0,3.16114 l -12.461688,0 l -12.461686,0 l 0,-6.7517 l 0,-6.75169 l -0.06984,-0.13897 l -0.06984,-0.13896 L 6.2909,27.737827 l -0.155189,-0.0779 l -1.032007,-0.01 l -1.032008,-0.01 l 0,-0.0756 l 0,-0.0756 l -0.667314,0 l -0.667312,0 l 0,0.66961 l 0,0.6696 l 0.667312,0 l 0.667314,0 l 0,-0.0779 l 0,-0.0779 l 0.744909,0 l 0.744905,0 l 0,6.76727 l 0,6.76727 l 0.06984,0.13896 l 0.06984,0.13896 l 0.138487,0.0701 l 0.138486,0.0701 l 12.905162,0 z M 3.398174,28.547487 l -0.0869,-1.1e-4 l -0.09936,-0.0608 l -0.09937,-0.0608 l -0.04806,-0.0933 l -0.04806,-0.0933 l 1.13e-4,-0.0872 l 1.16e-4,-0.0872 l 0.06059,-0.0997 l 0.06059,-0.0997 l 0.09294,-0.0482 l 0.09294,-0.0482 l 0.08068,0 l 0.08068,0 l 0.09294,0.0482 l 0.09294,0.0482 l 0.06059,0.0997 l 0.06059,0.0997 l 0,0.0934 l 0,0.0934 l -0.06059,0.0997 l -0.06059,0.0997 l -0.09294,0.0482 l -0.09294,0.0482 l -0.0869,-1.2e-4 z m 15.849931,12.51235 l 11.4075,-0.008 l 0.0079,-2.46577 l 0.008,-2.46576 l -0.04896,-0.0491 l -0.04896,-0.0491 l -0.46335,0 l -0.46335,0 l 0,-4.82735 l 0,-4.82736 l -0.170707,0 l -0.170708,0 l 0,0.4516 l 0,0.45159 l 0.03104,0 l 0.03104,0 l 0,4.46697 l 0,4.46697 l 0.04877,0.0489 l 0.04877,0.0489 l 0.46335,0 l 0.463349,0 l 0,1.86865 l 0,1.86865 l -10.97187,0 l -10.971872,0 l 0,-7.23443 l 0,-7.23443 l -0.06983,-0.13896 l -0.06984,-0.13896 l -0.138489,-0.0701 l -0.138487,-0.0701 l -1.979842,0 l -1.979846,0 l 0,-0.0779 l 0,-0.0779 l -0.667314,0 l -0.667312,0 l 0,0.6696 l 0,0.6696 l 0.667312,0 l 0.667314,0 l 0,-0.0779 l 0,-0.0779 l 1.676042,0 l 1.676044,0 l 0,7.23443 l 0,7.23443 l 0.06983,0.13896 l 0.06984,0.13897 l 0.138571,0.0701 l 0.138574,0.0701 l 11.407499,-0.008 z M 3.398119,26.055957 l -0.0869,-1.2e-4 l -0.09936,-0.0608 l -0.09937,-0.0608 l -0.04806,-0.0933 l -0.04806,-0.0933 l 1.13e-4,-0.0872 l 1.16e-4,-0.0872 l 0.06059,-0.0997 l 0.06059,-0.0997 l 0.09294,-0.0482 l 0.09294,-0.0482 l 0.08068,0 l 0.08068,0 l 0.09294,0.0482 l 0.09294,0.0482 l 0.06059,0.0997 l 0.06059,0.0997 l 0,0.0934 l 0,0.0934 l -0.06059,0.0997 l -0.06059,0.0997 l -0.09294,0.0482 l -0.09294,0.0482 l -0.0869,-1.3e-4 z m 35.730756,14.51332 l 0.667314,0 l 0,-0.6696 l 0,-0.6696 l -0.667314,0 l -0.667312,0 l 0,0.20243 l 0,0.20244 l -2.327836,0 l -2.327837,0 l 0,-3.42364 l 0,-3.42364 l -0.04877,-0.0489 l -0.04878,-0.0489 l -1.304866,0 l -1.304866,0 l 0.01149,-3.16114 l 0.01149,-3.16113 l -0.168128,0 l -0.168128,0 l 0.02038,0.67738 l 0.02038,0.67739 l 6.2e-5,2.57496 l 6.2e-5,2.57496 l 0.04877,0.0489 l 0.04877,0.0489 l 1.301369,0 l 1.301375,0 l 0,3.64387 l 0,3.64387 l 2.467505,0 l 2.467509,0 l 0,0.15573 l 0,0.15572 l 0.667312,0 z m -0.0062,-0.28042 l -0.0869,0 l -0.09937,-0.0608 l -0.09936,-0.0608 l -0.04807,-0.0933 l -0.04806,-0.0933 l 0,-0.0872 l 0,-0.0872 l 0.06058,-0.0997 l 0.06059,-0.0997 l 0.09294,-0.0482 l 0.09295,-0.0482 l 0.08068,0 l 0.08068,0 l 0.09295,0.0482 l 0.09294,0.0482 l 0.06059,0.0997 l 0.06058,0.0997 l 0,0.0934 l 0,0.0934 l -0.06058,0.0997 l -0.06059,0.0997 l -0.09294,0.0482 l -0.09295,0.0482 l -0.08689,0 z m -19.710772,-1.18336 l 9.709237,0 l 0.01363,-0.0389 c 0.0075,-0.0214 0.01753,-2.88746 0.0223,-6.369 l 0.0087,-6.33006 l -0.155188,0 l -0.155189,0 l 0.0099,5.85512 l 0.0099,5.85511 l -9.28246,0 l -9.282458,0 l 0,-7.49915 l 0,-7.49916 l -0.06984,-0.13896 l -0.06984,-0.13897 l -0.138487,-0.0701 l -0.138489,-0.0701 l -2.910978,0 l -2.910979,0 l 0,-0.0779 l 0,-0.0779 l -0.667314,0 l -0.667312,0 l 0,0.6696 l 0,0.6696 l 0.667312,0 l 0.667314,0 l 0,-0.0779 l 0,-0.0779 l 2.607178,0 l 2.607177,0 l 0,7.49916 l 0,7.49916 l 0.06984,0.13896 l 0.06983,0.13896 l 0.13849,0.0701 l 0.138486,0.0701 l 9.709238,0 z M 3.398125,23.564417 l -0.0869,-1.2e-4 l -0.09936,-0.0608 l -0.09937,-0.0608 l -0.04806,-0.0933 l -0.04806,-0.0933 l 1.13e-4,-0.0872 l 1.16e-4,-0.0872 l 0.06059,-0.0997 l 0.06059,-0.0997 l 0.09294,-0.0482 l 0.09294,-0.0482 l 0.08068,0 l 0.08068,0 l 0.09294,0.0482 l 0.09294,0.0482 l 0.06059,0.0997 l 0.06059,0.0997 l 0,0.0934 l 0,0.0934 l -0.06059,0.0997 l -0.06059,0.0997 l -0.09294,0.0482 l -0.09294,0.0482 l -0.0869,-1.3e-4 z m 33.26325,15.10506 l 2.545103,0 l 0,-0.29587 l 0,-0.29587 l 0.294857,0 l 0.29486,0 l 0,-0.6696 l 0,-0.6696 l -0.667314,0 l -0.667312,0 l 0,0.65403 l 0,0.65403 l -2.032979,0 l -2.032977,0 l -5.64e-4,-3.07549 l -5.65e-4,-3.07549 l -0.01871,-0.0701 l -0.01871,-0.0701 l -0.880957,0 l -0.88096,0 l 0,-2.69398 l 0,-2.69397 l -0.170707,0 l -0.170708,0 l 0,2.83412 l 0,2.83412 l 0.931136,0 l 0.931133,0 l 0,3.31686 l 0,3.31686 l 2.545102,0 z m 2.461291,-0.87215 l -0.0869,0 l -0.09937,-0.0608 l -0.09936,-0.0608 l -0.04807,-0.0933 l -0.04806,-0.0933 l 0,-0.0872 l 0,-0.0872 l 0.06058,-0.0997 l 0.06059,-0.0997 l 0.09294,-0.0482 l 0.09295,-0.0482 l 0.08068,0 l 0.08068,0 l 0.09295,0.0482 l 0.09294,0.0482 l 0.06059,0.0997 l 0.06058,0.0997 l 0,0.0934 l 0,0.0934 l -0.06058,0.0997 l -0.06059,0.0997 l -0.09294,0.0482 l -0.09295,0.0482 l -0.08689,0 z m -2.810468,-0.2515 l 1.559651,0.003 l 0,-0.70074 l 0,-0.70075 l 0.962174,0 l 0.962172,0 l 0,-0.9499 l 0,-0.9499 l -0.667314,0 l -0.667312,0 l 0,0.60732 l 0,0.60731 l -0.605237,0 l -0.60524,0 l 0,0.52945 l 0,0.52945 l -1.148398,0 l -1.148399,0 l 0,-2.84747 l 0,-2.84747 l -0.04877,-0.0489 l -0.04878,-0.0489 l -0.902278,0 l -0.902282,0 l 0.0153,-2.1801 l 0.0153,-2.18009 l -0.171026,0 l -0.171027,0 l 0.02038,0.67739 c 0.01121,0.37256 0.02041,1.39464 0.02046,2.2713 l 0,1.59392 l 0.04877,0.0489 l 0.04878,0.0489 l 0.897878,0 l 0.897879,0 l 0,3.25197 l 0,3.25197 l 0.0388,0.0157 c 0.02134,0.009 0.740642,0.0168 1.598451,0.0182 z m 2.810468,-2.24004 l -0.0869,0 l -0.09937,-0.0608 l -0.09936,-0.0608 l -0.04807,-0.0933 l -0.04806,-0.0933 l 0,-0.0872 l 0,-0.0872 l 0.06058,-0.0997 l 0.06059,-0.0997 l 0.09294,-0.0482 l 0.09295,-0.0482 l 0.08068,0 l 0.08068,0 l 0.09295,0.0482 l 0.09294,0.0482 l 0.06059,0.0997 l 0.06058,0.0997 l 0,0.0934 l 0,0.0934 l -0.06058,0.0997 l -0.06059,0.0997 l -0.09294,0.0482 l -0.09295,0.0482 l -0.08689,0 z m -19.516578,1.55733 l 1.753639,0 l 0,-2.38254 l 0,-2.38253 l -1.753639,0 l -1.753635,0 l 0,2.38253 l 0,2.38254 l 1.753635,0 z m -0.347633,-0.3427 l -0.0869,0 l -0.09936,-0.0608 l -0.09937,-0.0608 l -0.04806,-0.0933 l -0.04807,-0.0933 l 1.24e-4,-0.0872 l 1.24e-4,-0.0872 l 0.06059,-0.0997 l 0.06059,-0.0997 l 0.09295,-0.0482 l 0.09294,-0.0482 l 0.08068,0 l 0.08068,0 l 0.09294,0.0482 l 0.09295,0.0482 l 0.06058,0.0997 l 0.06059,0.0997 l 0,0.0934 l 0,0.0934 l -0.06059,0.0997 l -0.06058,0.0997 l -0.09295,0.0482 l -0.09294,0.0482 l -0.08689,0 z m -7.44286,0.28041 l 0.667311,0 l 0,-0.6696 l 0,-0.6696 l -0.667311,0 l -0.667315,0 l 0,0.6696 l 0,0.6696 l 0.667315,0 z m -0.0062,-0.28041 l -0.0869,0 l -0.09937,-0.0608 l -0.09937,-0.0608 l -0.04806,-0.0933 l -0.04806,-0.0933 l 1.24e-4,-0.0872 l 1.24e-4,-0.0872 l 0.06059,-0.0997 l 0.06059,-0.0997 l 0.09294,-0.0482 l 0.09294,-0.0482 l 0.08068,0 l 0.08068,0 l 0.09295,0.0482 l 0.09294,0.0482 l 0.06059,0.0997 l 0.06059,0.0997 l 0,0.0934 l 0,0.0934 l -0.06059,0.0997 l -0.06059,0.0997 l -0.09294,0.0482 l -0.09295,0.0482 l -0.0869,0 z m 11.738514,0.24926 l 1.7226,0 l 0,-2.32024 l 0,-2.32024 l -1.7226,0 l -1.722597,0 l 0,2.32024 l 0,2.32024 l 1.722597,0 z m 2.514067,0 l 0.294857,0 l 0,-0.20243 l 0,-0.20244 l 0.742691,0 l 0.742693,0 l 0.04877,-0.0489 l 0.04877,-0.0489 l 0,-4.26453 l 0,-4.26454 l 0.302619,-5.6e-4 l 0.302617,-5.7e-4 l 0.04559,-0.0289 l 0.04559,-0.0289 l 0.02204,-0.2431 c 0.01211,-0.13371 0.02303,-0.42881 0.02424,-0.65577 l 0.0023,-0.41266 l -0.174617,0 l -0.174616,0 l 0.01346,0.54502 l 0.01346,0.54503 l -0.302186,0 l -0.302183,0 l -0.04877,0.0489 l -0.04877,0.0489 l 0,4.26453 l 0,4.26453 l -0.651795,0 l -0.651795,0 l 0,-0.20243 l 0,-0.20244 l -0.294857,0 l -0.29486,0 l 0,0.54502 l 0,0.54503 l 0.29486,0 z m 9.745875,-0.65402 l 0.667314,0 l 0,-0.57617 l 0,-0.57617 l 0.651795,0 l 0.651793,0 l 0,-4.12164 l 0,-4.12164 l -0.703366,-0.0205 c -0.386853,-0.0113 -1.224873,-0.0205 -1.862269,-0.0205 l -1.158903,0 l 0,-0.15572 l 0,-0.15572 l -0.170708,0 l -0.170708,0 l 0,0.45159 l 0,0.45159 l 0.170708,0 l 0.170708,0 l 0,-0.15572 l 0,-0.15572 l 1.551892,0 l 1.551889,0 l 0,3.64387 l 0,3.64387 l -0.838019,0 l -0.838022,0 l 0,0.26473 l 0,0.26472 l -0.170708,0 l -0.170708,0 l 0,0.6696 l 0,0.6696 l 0.667312,0 z m -0.0062,-0.28042 l -0.0869,0 l -0.09937,-0.0608 l -0.09936,-0.0608 l -0.04807,-0.0933 l -0.04806,-0.0933 l 0,-0.0872 l 0,-0.0872 l 0.06058,-0.0997 l 0.06059,-0.0997 l 0.09294,-0.0482 l 0.09295,-0.0482 l 0.08068,0 l 0.08068,0 l 0.09295,0.0482 l 0.09294,0.0482 l 0.06059,0.0997 l 0.06058,0.0997 l 0,0.0934 l 0,0.0934 l -0.06058,0.0997 l -0.06059,0.0997 l -0.09294,0.0482 l -0.09295,0.0482 l -0.08689,0 z m 6.741425,-0.21789 l 0.667315,0 l 0,-0.6696 l 0,-0.6696 l -0.667315,0 l -0.667311,0 l 0,0.17129 l 0,0.17129 l -0.325896,0 l -0.325899,0 l 0,-4.56262 l 0,-4.56263 l -2.630455,-6e-5 l -2.630456,-7e-5 l -0.675072,-0.0205 l -0.675073,-0.0205 l 0,0.16906 l 0,0.16906 l 2.995148,-0.012 l 2.995151,-0.012 l 0,4.56236 l 0,4.56237 l 0.0193,0.0969 l 0.0193,0.0969 l 0.07804,0.0783 l 0.07803,0.0783 l 0.538932,0 l 0.538929,0 l 0,0.18687 l 0,0.18686 l 0.667311,0 z m -0.0062,-0.28042 l -0.0869,0 l -0.09937,-0.0608 l -0.09936,-0.0608 l -0.04807,-0.0933 l -0.04806,-0.0933 l 0,-0.0872 l 0,-0.0872 l 0.06058,-0.0997 l 0.06059,-0.0997 l 0.09294,-0.0482 l 0.09295,-0.0482 l 0.08068,0 l 0.08068,0 l 0.09295,0.0482 l 0.09294,0.0482 l 0.06059,0.0997 l 0.06058,0.0997 l 0,0.0934 l 0,0.0934 l -0.06058,0.0997 l -0.06059,0.0997 l -0.09294,0.0482 l -0.09295,0.0482 l -0.08689,0 z m 2.489242,0.28042 l 0.667312,0 l 0,-0.6696 l 0,-0.6696 l -0.182705,0 l -0.182705,0 l -0.01262,-0.53724 l -0.01262,-0.53724 l -0.04205,-0.0655 c -0.02314,-0.036 -0.07141,-0.0851 -0.107295,-0.109 l -0.06524,-0.0436 l -1.078563,-0.01 l -1.078566,-0.01 l 0,-3.98462 l 0,-3.98461 l -3.483996,-7e-5 l -3.483994,-6e-5 l -0.675073,-0.0205 l -0.675073,-0.0205 l -6e-6,0.16846 l -2e-6,0.16847 l 3.848695,-0.0108 l 3.848693,-0.0108 l 0,3.98559 l 0,3.98559 l 0.0193,0.0969 l 0.0193,0.0969 l 0.07804,0.0783 l 0.07803,0.0783 l 1.097613,0 l 1.09761,0 l 0,0.34259 l 0,0.34259 l -0.170711,0 l -0.170707,0 l 0,0.6696 l 0,0.6696 l 0.667314,0 z m -0.0062,-0.28042 l -0.0869,0 l -0.09937,-0.0608 l -0.09936,-0.0608 l -0.04807,-0.0933 l -0.04806,-0.0933 l 0,-0.0872 l 0,-0.0872 l 0.06059,-0.0997 l 0.06059,-0.0997 l 0.09294,-0.0482 l 0.09294,-0.0482 l 0.08068,0 l 0.08068,0 l 0.09294,0.0482 l 0.09295,0.0482 l 0.06059,0.0997 l 0.06059,0.0997 l 0,0.0934 l 0,0.0934 l -0.06059,0.0997 l -0.06059,0.0997 l -0.09295,0.0482 l -0.09294,0.0482 l -0.08689,0 z m 2.489243,0.28042 l 0.667314,0 l 0,-0.6696 l 0,-0.6696 l -0.170708,0 l -0.170708,0 l 0,-1.25709 l 0,-1.2571 l -0.0778,-0.0781 l -0.0778,-0.0781 l -0.116185,-0.0193 l -0.116188,-0.0193 l -1.373423,-2.9e-4 l -1.373424,-2.8e-4 l 0,-3.53487 l 0,-3.53487 l -4.368574,-6e-5 l -4.368574,-6e-5 l -0.675073,-0.0205 l -0.675073,-0.0205 l -6e-6,0.16846 l -2e-6,0.16847 l 4.733273,-0.0104 l 4.73327,-0.0104 l 0,3.53354 l 0,3.53354 l 0.0193,0.0969 l 0.0193,0.0969 l 0.07803,0.0783 l 0.07803,0.0783 l 1.470068,0 l 1.470064,0 l 0,1.04333 l 0,1.04333 l -0.186227,0 l -0.186227,0 l 0,0.6696 l 0,0.6696 l 0.667311,0 z m -0.0062,-0.28042 l -0.0869,0 l -0.09937,-0.0608 l -0.09936,-0.0608 l -0.04807,-0.0933 l -0.04806,-0.0933 l 0,-0.0872 l 0,-0.0872 l 0.06058,-0.0997 l 0.06059,-0.0997 l 0.09294,-0.0482 l 0.09295,-0.0482 l 0.08068,0 l 0.08068,0 l 0.09295,0.0482 l 0.09294,0.0482 l 0.06059,0.0997 l 0.06059,0.0997 l 0,0.0934 l 0,0.0934 l -0.06059,0.0997 l -0.06059,0.0997 l -0.09294,0.0482 l -0.09295,0.0482 l -0.08689,0 z m 2.489245,0.28042 l 0.667312,0 l 0,-0.6696 l 0,-0.6696 l -0.186228,0 l -0.186227,0 l 0,-1.83326 l 0,-1.83327 l -0.0778,-0.0781 l -0.0778,-0.0781 l -0.116188,-0.0193 l -0.116186,-0.0193 l -1.916585,-2.8e-4 l -1.916588,-2.8e-4 l 0,-3.19229 l 0,-3.19228 l -5.051406,-6e-5 l -5.051405,-6e-5 l -0.675073,-0.0205 l -0.675072,-0.0205 l -6e-6,0.16846 l -3e-6,0.16847 l 5.416104,-0.0101 l 5.416105,-0.0101 l 0,3.19068 l 0,3.19069 l 0.0193,0.0969 l 0.0193,0.0969 l 0.07803,0.0783 l 0.07803,0.0783 l 2.013229,0 l 2.013224,0 l 0,1.6195 l 0,1.6195 l -0.170708,0 l -0.170708,0 l 0,0.6696 l 0,0.6696 l 0.667315,0 z m -0.0062,-0.28042 l -0.0869,0 l -0.09937,-0.0608 l -0.09936,-0.0608 l -0.04807,-0.0933 l -0.04806,-0.0933 l 0,-0.0872 l 0,-0.0872 l 0.06058,-0.0997 l 0.06059,-0.0997 l 0.09294,-0.0482 l 0.09295,-0.0482 l 0.08068,0 l 0.08068,0 l 0.09295,0.0482 l 0.09294,0.0482 l 0.06059,0.0997 l 0.06059,0.0997 l 0,0.0934 l 0,0.0934 l -0.06059,0.0997 l -0.06059,0.0997 l -0.09294,0.0482 l -0.09295,0.0482 l -0.08689,0 z m 2.489242,0.28042 l 0.667315,0 l 0,-0.6696 l 0,-0.6696 l -0.186227,0 l -0.186227,0 l 0,-2.47172 l 0,-2.47172 l -0.0778,-0.0781 l -0.0778,-0.0781 l -0.116185,-0.0193 l -0.116188,-0.0193 l -2.27352,-2.8e-4 l -2.273521,-2.9e-4 l 0,-2.80297 l 0,-2.80298 l -5.935985,-7e-5 l -5.935983,-6e-5 l -0.675073,-0.0205 l -0.675073,-0.0205 l -6e-6,0.16847 l -2e-6,0.16846 l 6.300681,-0.01 l 6.300685,-0.01 l 0,2.8011 l 0,2.80111 l 0.0193,0.0969 l 0.0193,0.0969 l 0.07803,0.0783 l 0.07804,0.0783 l 2.370161,0 l 2.370162,0 l 0,2.25796 l 0,2.25795 l -0.170708,0 l -0.170708,0 l 0,0.6696 l 0,0.6696 l 0.667312,0 z m -0.0062,-0.28042 l -0.0869,0 l -0.09937,-0.0608 l -0.09936,-0.0608 l -0.04807,-0.0933 l -0.04806,-0.0933 l 0,-0.0872 l 0,-0.0872 l 0.06059,-0.0997 l 0.06059,-0.0997 l 0.09294,-0.0482 l 0.09295,-0.0482 l 0.08068,0 l 0.08068,0 l 0.09295,0.0482 l 0.09294,0.0482 l 0.06059,0.0997 l 0.06059,0.0997 l 0,0.0934 l 0,0.0934 l -0.06059,0.0997 l -0.06059,0.0997 l -0.09294,0.0482 l -0.09295,0.0482 l -0.08689,0 z m 2.489245,0.28042 l 0.667311,0 l 0,-0.6696 l 0,-0.6696 l -0.186227,0 l -0.186227,0 l 0,-3.14132 l 0,-3.14132 l -0.0778,-0.0781 l -0.0778,-0.0781 l -0.116188,-0.0193 l -0.116185,-0.0193 l -2.739088,-2.9e-4 l -2.739091,-2.8e-4 l 0,-2.61611 l 0,-2.61611 l -6.711928,-7e-5 l -6.71193,-6e-5 l -0.675073,-0.0205 l -0.675073,-0.0205 l -5e-6,0.16847 l -3e-6,0.16846 l 7.076629,-0.01 l 7.076627,-0.01 l 0,2.61405 l 0,2.61405 l 0.0193,0.0969 l 0.0193,0.0969 l 0.07803,0.0783 l 0.07803,0.0783 l 2.835732,0 l 2.835727,0 l 0,2.92755 l 0,2.92756 l -0.170708,0 l -0.170708,0 l 0,0.6696 l 0,0.6696 l 0.667315,0 z m -0.0062,-0.28042 l -0.0869,0 l -0.09937,-0.0608 l -0.09937,-0.0608 l -0.04806,-0.0933 l -0.04806,-0.0933 l 0,-0.0872 l 0,-0.0872 l 0.06059,-0.0997 l 0.06059,-0.0997 l 0.09294,-0.0482 l 0.09295,-0.0482 l 0.08068,0 l 0.08068,0 l 0.09295,0.0482 l 0.09294,0.0482 l 0.06059,0.0997 l 0.06058,0.0997 l 0,0.0934 l 0,0.0934 l -0.06058,0.0997 l -0.06059,0.0997 l -0.09294,0.0482 l -0.09295,0.0482 l -0.08689,0 z m 2.489242,0.28042 l 0.667315,0 l 0,-0.6696 l 0,-0.6696 l -0.186227,0 l -0.186228,0 l 0,-3.79535 l 0,-3.79535 l -0.0778,-0.0781 l -0.0778,-0.0781 l -0.116185,-0.0193 l -0.116188,-0.0193 l -3.189137,-2.8e-4 l -3.189137,-2.8e-4 l 0,-2.21124 l 0,-2.21124 l -7.503394,-6e-5 l -7.503395,-6e-5 l -0.675072,-0.0205 l -0.675073,-0.0205 l -6e-6,0.16847 l -3e-6,0.16847 l 7.868094,-0.009 l 7.868093,-0.009 l 0,2.209 l 0,2.20901 l 0.0193,0.0969 l 0.0193,0.0969 l 0.07803,0.0783 l 0.07804,0.0783 l 3.285778,0 l 3.285778,0 l 0,3.58159 l 0,3.58158 l -0.170711,0 l -0.170707,0 l 0,0.6696 l 0,0.6696 l 0.667314,0 z m -0.0062,-0.28042 l -0.0869,0 l -0.09937,-0.0608 l -0.09936,-0.0608 l -0.04807,-0.0933 l -0.04806,-0.0933 l 0,-0.0872 l 0,-0.0872 l 0.06059,-0.0997 l 0.06059,-0.0997 l 0.09294,-0.0482 l 0.09294,-0.0482 l 0.08068,0 l 0.08068,0 l 0.09295,0.0482 l 0.09294,0.0482 l 0.06059,0.0997 l 0.06059,0.0997 l 0,0.0934 l 0,0.0934 l -0.06059,0.0997 l -0.06059,0.0997 l -0.09294,0.0482 l -0.09295,0.0482 l -0.08689,0 z m 2.489243,0.28042 l 0.667314,0 l 0,-0.6696 l 0,-0.6696 l -0.186227,0 l -0.186227,0 l 0,-4.38709 l 0,-4.38709 l -0.0778,-0.0781 l -0.0778,-0.0781 l -0.116188,-0.0193 l -0.116188,-0.0193 l -3.747815,-2.8e-4 l -3.747818,-2.8e-4 l 0,-1.86866 l 0,-1.86865 l -8.186229,-6e-5 l -8.186225,-6e-5 l -0.675073,-0.0205 l -0.675073,-0.0205 l -5e-6,0.16847 l -3e-6,0.16847 l 8.550924,-0.009 l 8.550928,-0.009 l 0,1.86631 l 0,1.86629 l 0.0193,0.0969 l 0.0193,0.0969 l 0.07803,0.0783 l 0.07804,0.0783 l 3.84446,0 l 3.844456,0 l 0,4.17332 l 0,4.17333 l -0.170707,0 l -0.170708,0 l 0,0.6696 l 0,0.6696 l 0.667312,0 z m -0.0062,-0.28042 l -0.0869,0 l -0.09937,-0.0608 l -0.09936,-0.0608 l -0.04807,-0.0933 l -0.04806,-0.0933 l 0,-0.0872 l 0,-0.0872 l 0.06058,-0.0997 l 0.06059,-0.0997 l 0.09294,-0.0482 l 0.09295,-0.0482 l 0.08068,0 l 0.08068,0 l 0.09295,0.0482 l 0.09294,0.0482 l 0.06059,0.0997 l 0.06059,0.0997 l 0,0.0934 l 0,0.0934 l -0.06059,0.0997 l -0.06059,0.0997 l -0.09294,0.0482 l -0.09295,0.0482 l -0.08689,0 z m -33.856052,-0.28018 l 0.294857,0 l 0,-0.2803 l 0,-0.28029 l 0.323681,0 l 0.32368,0 l 0.04877,-0.0489 l 0.04877,-0.0489 l 0,-4.29567 l 0,-4.29568 l 0.341415,0 l 0.341416,0 l 0,-0.17129 l 0,-0.1713 l -0.445065,0 l -0.445067,0 l -0.03602,0.0793 l -0.03602,0.0793 l 0,4.29643 l 0,4.29644 l -0.232783,0 l -0.232785,0 l 0,-0.18687 l 0,-0.18686 l -0.294857,0 l -0.294861,0 l 0,0.60731 l 0,0.60731 l 0.294861,0 z m -13.485939,-0.93433 l 1.268118,0 l 0.04877,-0.0489 l 0.04877,-0.0489 l 0,-1.24354 l 0,-1.24354 l 0.201747,0 l 0.201746,0 l 0,-0.79418 l 0,-0.79418 l -0.201746,0 l -0.201747,0 l 0,-0.57617 l 0,-0.57617 l 0.248302,0 l 0.248305,0 l 0,-0.79417 l 0,-0.79418 l -0.248305,0 l -0.248302,0 l 0,-0.34259 l 0,-0.34258 l 0.232785,0 l 0.232783,0 l 0,-0.79418 l 0,-0.79418 l -0.232783,0 l -0.232785,0 l 0,-0.46716 l 0,-0.46716 l 0.217266,0 l 0.217263,0 l 0,-0.79418 l 0,-0.79418 l -0.217263,0 l -0.217266,0 l 0,-0.48273 l 0,-0.48274 l 0.217266,0 l 0.217263,0 l 0,-0.79418 l 0,-0.79417 l -0.217263,0 l -0.217266,0 l 0,-0.57617 l 0,-0.57617 l 0.201747,0 l 0.201746,0 l 0,-0.79418 l 0,-0.79417 l -0.201746,0 l -0.201747,0 l 0,-0.52946 l 0,-0.52945 l 0.186227,0 l 0.186227,0 l 0,-0.79417 l 0,-0.79418 l -0.186227,0 l -0.186227,0 l 0,-0.43602 l 0,-0.43602 l 0.217266,0 l 0.217263,0 l 0,-0.79418 l 0,-0.79418 l -0.217263,0 l -0.217266,0 l 0,-0.21578 l 0,-0.21578 l -0.04877,-0.0489 l -0.04877,-0.0489 l -1.268118,0 l -1.268115,0 l -0.04877,0.0489 l -0.04877,0.0489 l 0,11.22303 l 0,11.22304 l 0.04877,0.0489 l 0.04877,0.0489 l 1.268115,0 z m -0.05332,-0.3438 c -0.0475,-5.6e-4 -0.128945,-0.0198 -0.181004,-0.0426 l -0.09465,-0.0414 l -0.08258,-0.0985 l -0.08258,-0.0985 l -0.01976,-0.10566 l -0.01975,-0.10565 l 0.02151,-0.0982 l 0.02148,-0.0982 l 0.09302,-0.10631 l 0.09302,-0.1063 l 0.118279,-0.0356 l 0.118277,-0.0356 l 0.11229,0.0211 l 0.112291,0.0211 l 0.107586,0.0948 l 0.107583,0.0948 l 0.03544,0.11868 l 0.03543,0.11869 l -0.02077,0.11109 l -0.02077,0.11109 l -0.08267,0.0986 l -0.08267,0.0986 l -0.101326,0.0425 l -0.101323,0.0425 l -0.08635,-10e-4 z m 23.28513,-0.1545 l 0.667315,0 l 0,-0.6696 l 0,-0.6696 l -0.667315,0 l -0.667311,0 l 0,0.6696 l 0,0.6696 l 0.667311,0 z m -0.0062,-0.28041 l -0.0869,0 l -0.09937,-0.0608 l -0.09936,-0.0608 l -0.04807,-0.0933 l -0.04806,-0.0933 l 0,-0.0872 l 0,-0.0872 l 0.06059,-0.0997 l 0.06059,-0.0997 l 0.09294,-0.0482 l 0.09295,-0.0482 l 0.08068,0 l 0.08068,0 l 0.09295,0.0482 l 0.09294,0.0482 l 0.06059,0.0997 l 0.06058,0.0997 l 0,0.0934 l 0,0.0934 l -0.06058,0.0997 l -0.06059,0.0997 l -0.09294,0.0482 l -0.09295,0.0482 l -0.08689,0 z m -9.739657,-0.12447 l 0.294857,0 l 0,-0.54502 l 0,-0.54502 l -0.09311,0 l -0.09311,0 l 0,-3.4285 l 0,-3.4285 l 0.806984,0.0226 l 0.806983,0.0226 l 0,-0.17571 l 0,-0.1757 l -0.225024,6e-5 c -0.123763,3e-5 -0.53007,0.009 -0.902905,0.0206 l -0.677884,0.0205 l -0.04375,0.0439 l -0.04375,0.0439 l 0,3.51707 l 0,3.51707 l -0.06207,0 l -0.06208,0 l 0,0.54502 l 0,0.54503 l 0.29486,0 z m 13.066922,-0.12457 l 0.667315,0 l 0,-0.6696 l 0,-0.6696 l -0.667315,0 l -0.667312,0 l 0,0.6696 l 0,0.6696 l 0.667312,0 z m -0.0062,-0.28042 l -0.0869,0 l -0.09937,-0.0608 l -0.09936,-0.0608 l -0.04807,-0.0933 l -0.04806,-0.0933 l 0,-0.0872 l 0,-0.0872 l 0.06059,-0.0997 l 0.06059,-0.0997 l 0.09294,-0.0482 l 0.09295,-0.0482 l 0.08068,0 l 0.08068,0 l 0.09295,0.0482 l 0.09294,0.0482 l 0.06059,0.0997 l 0.06059,0.0997 l 0,0.0934 l 0,0.0934 l -0.06059,0.0997 l -0.06059,0.0997 l -0.09294,0.0482 l -0.09295,0.0482 l -0.08689,0 z m -23.551495,-1.27679 l 0.636276,0 l 0,-0.34259 l 0,-0.34259 l 1.117363,0 l 1.11736,0 l 0,0.18687 l 0,0.18686 l 0.667315,0 l 0.667311,0 l 0,-0.20243 l 0,-0.20244 l 2.219207,0 l 2.219204,0 l 0,-3.02581 l 0,-3.02581 l 1.784674,0.0175 l 1.784675,0.0176 l 0,-0.16845 l 0,-0.16846 l -1.86368,0 l -1.86368,0 l -0.07618,0.0765 l -0.07618,0.0764 l 0,2.78883 l 0,2.78882 l -2.064018,0 l -2.064016,0 l 0,-0.15572 l 0,-0.15572 l -0.667311,0 l -0.667315,0 l 0,0.17129 l 0,0.17129 l -1.11736,0 l -1.117363,0 l 0,-0.14015 l 0,-0.14015 l -0.636276,0 l -0.636275,0 l 0,0.79418 l 0,0.79418 l 0.636275,0 z m 3.532096,-0.59186 l -0.0869,-1.3e-4 l -0.09937,-0.0608 l -0.09936,-0.0608 l -0.04806,-0.0933 l -0.04807,-0.0933 l 1.24e-4,-0.0872 l 1.24e-4,-0.0872 l 0.06059,-0.0997 l 0.06059,-0.0997 l 0.09294,-0.0482 l 0.09295,-0.0482 l 0.08068,0 l 0.08068,0 l 0.09294,0.0482 l 0.09294,0.0482 l 0.06059,0.0997 l 0.06059,0.0997 l 0,0.0934 l 0,0.0934 l -0.06059,0.0997 l -0.06059,0.0997 l -0.09294,0.0482 l -0.09294,0.0482 l -0.0869,-1.3e-4 z m 16.704566,0.52957 l 0.667315,0 l 0,-0.6696 l 0,-0.6696 l -0.667315,0 l -0.667311,0 l 0,0.6696 l 0,0.6696 l 0.667311,0 z m -0.0062,-0.28041 l -0.0869,0 l -0.09937,-0.0608 l -0.09936,-0.0608 l -0.04807,-0.0933 l -0.04806,-0.0933 l 0,-0.0872 l 0,-0.0872 l 0.06059,-0.0997 l 0.06059,-0.0997 l 0.09294,-0.0482 l 0.09295,-0.0482 l 0.08068,0 l 0.08068,0 l 0.09295,0.0482 l 0.09294,0.0482 l 0.06059,0.0997 l 0.06058,0.0997 l 0,0.0934 l 0,0.0934 l -0.06058,0.0997 l -0.06059,0.0997 l -0.09294,0.0482 l -0.09295,0.0482 l -0.08689,0 z m 0.0062,-2.21113 l 0.667315,0 l 0,-0.6696 l 0,-0.6696 l -0.667315,0 l -0.667311,0 l 0,0.20244 l 0,0.20243 l -0.791464,0 l -0.791467,0 l 0,-0.84089 l 0,-0.84089 l -0.170708,0 l -0.170708,0 l 0,0.45159 l 0,0.45159 l 0.04656,0 l 0.04655,0 l 0,0.48051 l 0,0.48051 l 0.04877,0.0489 l 0.04878,0.0489 l 0.86684,0 l 0.866843,0 l 0,0.32702 l 0,0.32701 l 0.667311,0 z m -0.0062,-0.28041 l -0.0869,-1.3e-4 l -0.09937,-0.0608 l -0.09936,-0.0608 l -0.04807,-0.0933 l -0.04806,-0.0933 l 0,-0.0872 l 0,-0.0872 l 0.06059,-0.0997 l 0.06059,-0.0997 l 0.09294,-0.0482 l 0.09295,-0.0482 l 0.08068,0 l 0.08068,0 l 0.09295,0.0482 l 0.09294,0.0482 l 0.06059,0.0997 l 0.06058,0.0997 l 0,0.0934 l 0,0.0934 l -0.06058,0.0997 l -0.06059,0.0997 l -0.09294,0.0482 l -0.09295,0.0482 l -0.08689,-1.2e-4 z m -20.16837,0.0935 l 0.636275,0 l 0,-0.20243 l 0,-0.20244 l 1.086324,0 l 1.086325,0 l 0,0.17129 l 0,0.1713 l 0.667314,0 l 0.667312,0 l 0,-0.1713 l 0,-0.17129 l 1.629486,0 l 1.629486,0 l 0,-2.04415 l 0,-2.04415 l 2.374395,0.0144 l 2.374392,0.0144 l 0,-0.1659 l 0,-0.16589 l -2.453397,0 l -2.4534,0 l -0.07618,0.0764 l -0.07618,0.0764 l 0,1.80778 l 0,1.80778 l -1.474297,0 l -1.474298,0 l 0,-0.18687 l 0,-0.18686 l -0.667312,0 l -0.667314,0 l 0,0.18686 l 0,0.18687 l -1.086325,0 l -1.086324,0 l 0,-0.2803 l 0,-0.2803 l -0.636275,0 l -0.636276,0 l 0,0.79418 l 0,0.79417 l 0.636276,0 z m 3.470021,-0.3427 l -0.0869,-1.2e-4 l -0.09937,-0.0608 l -0.09936,-0.0608 l -0.04806,-0.0933 l -0.04807,-0.0933 l 1.25e-4,-0.0872 l 1.24e-4,-0.0872 l 0.06059,-0.0997 l 0.06059,-0.0997 l 0.09294,-0.0482 l 0.09294,-0.0482 l 0.08068,0 l 0.08068,0 l 0.09294,0.0482 l 0.09295,0.0482 l 0.06059,0.0997 l 0.06059,0.0997 l 0,0.0934 l 0,0.0934 l -0.06059,0.0997 l -0.06059,0.0997 l -0.09295,0.0482 l -0.09294,0.0482 l -0.0869,-1.2e-4 z m 12.328233,-1.18336 l 0.170708,0 l 0,-0.45159 l 0,-0.45159 l -0.03104,0 l -0.03104,0 l 0,-0.37373 l 0,-0.37373 l -0.108633,0 l -0.108633,0 l 0,-2.50711 l 0,-2.50711 l -1.544131,-6e-5 c -0.849274,-4e-5 -1.847913,-0.009 -2.219205,-0.0205 l -0.675073,-0.0205 l 0,0.18121 l 0,0.1812 l 0.682834,-0.0206 l 0.682831,-0.0206 l 0,2.58505 l 0,2.58504 l 1.505336,0 l 1.505334,0 l 0,0.60731 l 0,0.60731 l 0.170707,0 z m -1.433957,-2.27365 l -0.0869,-1.2e-4 l -0.09937,-0.0608 l -0.09936,-0.0608 l -0.04806,-0.0933 l -0.04807,-0.0933 l 1.24e-4,-0.0872 l 1.24e-4,-0.0872 l 0.06059,-0.0997 l 0.06059,-0.0997 l 0.09294,-0.0482 l 0.09295,-0.0482 l 0.08068,0 l 0.08068,0 l 0.09294,0.0482 l 0.09294,0.0482 l 0.06059,0.0997 l 0.06059,0.0997 l 0,0.0934 l 0,0.0934 l -0.06059,0.0997 l -0.06059,0.0997 l -0.09294,0.0482 l -0.09294,0.0482 l -0.0869,-1.2e-4 z m 1.943267,2.27365 l 0.167888,0 l -0.02038,-0.67739 l -0.02038,-0.67739 l 0,-2.90419 l 0,-2.9042 l -0.698353,0 l -0.69835,0 l 0,-0.29587 l 0,-0.29587 l 0.232785,0 l 0.232782,0 l 0,-0.45159 l 0,-0.45159 l -0.42377,0 l -0.423771,0 l 0.02184,0.74746 l 0.02184,0.74746 l -1.22756,0 l -1.22771,0 l 0,-3.61851 l 0,-3.6185 l -0.06748,-0.0721 l -0.06749,-0.0721 l -1.065395,0 l -1.065394,0 l 0,0.51388 l 0,0.51388 l 0.03104,0 l 0.03104,0 l 0,3.33318 l 0,3.33318 l 2.933073,-0.0214 l 2.933076,-0.0214 l 0,0.083 l 0,0.083 l 0.127494,0 l 0.127494,0 l -0.01109,3.36358 l -0.01109,3.36357 l 0.167894,0 z m -5.140708,-13.23751 c -0.04749,-5.7e-4 -0.128945,-0.0198 -0.181003,-0.0426 l -0.09465,-0.0414 l -0.08258,-0.0985 l -0.08258,-0.0985 l -0.01976,-0.10566 l -0.01975,-0.10565 l 0.02148,-0.0982 l 0.0215,-0.0982 l 0.09302,-0.10631 l 0.09302,-0.1063 l 0.11828,-0.0356 l 0.118279,-0.0356 l 0.112291,0.0211 l 0.112287,0.0211 l 0.107586,0.0948 l 0.107586,0.0948 l 0.03544,0.11868 l 0.03544,0.11869 l -0.02077,0.11109 l -0.02077,0.11109 l -0.08267,0.0986 l -0.08267,0.0986 l -0.101324,0.0425 l -0.101326,0.0425 l -0.08635,-10e-4 z m -11.166856,12.49005 l 0.636275,0 l 0,-0.34259 l 0,-0.34259 l 1.086324,0 l 1.086325,0 l 0,0.20244 l 0,0.20244 l 0.667314,0 l 0.667312,0 l 0,-0.20208 l 0,-0.20208 l 1.233754,-0.008 l 1.233754,-0.008 l 0.0082,-1.00823 l 0.0082,-1.00824 l 2.761931,0.0128 l 2.761931,0.0128 l 0,-0.1647 l 0,-0.16469 l -2.841371,0 l -2.841371,0 l -0.07618,0.0764 l -0.07619,0.0764 l 0,0.78003 l 0,0.78002 l -1.086324,0 l -1.086324,0 l 0,-0.15573 l 0,-0.15571 l -0.667312,0 l -0.667314,0 l 0,0.15571 l 0,0.15573 l -1.086324,0 l -1.086325,0 l 0,-0.14015 l 0,-0.14015 l -0.636275,0 l -0.636276,0 l 0,0.79418 l 0,0.79417 l 0.636276,0 z m 3.470021,-0.56072 l -0.0869,-1.2e-4 l -0.09937,-0.0608 l -0.09936,-0.0608 l -0.04806,-0.0933 l -0.04807,-0.0933 l 1.25e-4,-0.0872 l 1.24e-4,-0.0872 l 0.06059,-0.0997 l 0.06059,-0.0997 l 0.09294,-0.0482 l 0.09294,-0.0482 l 0.08068,0 l 0.08068,0 l 0.09294,0.0482 l 0.09295,0.0482 l 0.06059,0.0997 l 0.06059,0.0997 l 0,0.0934 l 0,0.0934 l -0.06059,0.0997 l -0.06059,0.0997 l -0.09295,0.0482 l -0.09294,0.0482 l -0.0869,-1.2e-4 z m 34.365091,-1.55709 l 0.201746,0 l 0,-0.0311 l 0,-0.0311 l 0.488846,-2.8e-4 c 0.268864,-1.5e-4 0.562172,-0.009 0.651795,-0.0199 l 0.162946,-0.0196 l 0,-9.38549 l 0,-9.38548 l -0.651792,0.0204 l -0.651795,0.0204 l 0,-0.0361 l 0,-0.0361 l -0.201746,0 l -0.201747,0 l 0,2.23094 l 0,2.23095 l -3.631424,-0.014 l -3.631427,-0.014 l 0,0.0453 l 0,0.0453 l -3.476235,-0.0145 l -3.476239,-0.0145 l 0,0.6643 l 0,0.66429 l 0.07759,0 l 0.0776,0 l 0,0.57617 l 0,0.57617 l -0.0776,0 l -0.07759,0 l 0,0.6696 l 0,0.6696 l 0.667315,0 l 0.667311,0 l 0,-0.6696 l 0,-0.6696 l -0.07759,0 l -0.07759,0 l 0,-0.57617 l 0,-0.57617 l 0.07759,0 l 0.07759,0 l 0,-0.14014 l 0,-0.14015 l 2.808924,0 l 2.808924,0 l 0,0.10333 l 0,0.10334 l 3.631427,-0.014 l 3.631424,-0.0141 l 0,6.59114 l 0,6.59114 l 0.201747,0 z m 0.614539,-0.3427 l -0.0869,-1.3e-4 l -0.09937,-0.0608 l -0.09936,-0.0608 l -0.04807,-0.0933 l -0.04806,-0.0933 l 0,-0.0872 l 0,-0.0872 l 0.06059,-0.0997 l 0.06059,-0.0997 l 0.09294,-0.0482 l 0.09295,-0.0482 l 0.08068,0 l 0.08068,0 l 0.09295,0.0482 l 0.09294,0.0482 l 0.06059,0.0997 l 0.06058,0.0997 l 0,0.0934 l 0,0.0934 l -0.06058,0.0997 l -0.06059,0.0997 l -0.09294,0.0482 l -0.09295,0.0482 l -0.08689,-1.3e-4 z m 0,-2.49154 l -0.0869,-1.2e-4 l -0.09937,-0.0608 l -0.09936,-0.0608 l -0.04807,-0.0933 l -0.04806,-0.0933 l 0,-0.0872 l 0,-0.0872 l 0.06059,-0.0997 l 0.06059,-0.0997 l 0.09294,-0.0482 l 0.09295,-0.0482 l 0.08068,0 l 0.08068,0 l 0.09295,0.0482 l 0.09294,0.0482 l 0.06059,0.0997 l 0.06058,0.0997 l 0,0.0934 l 0,0.0934 l -0.06058,0.0997 l -0.06059,0.0997 l -0.09294,0.0482 l -0.09295,0.0482 l -0.08689,-1.2e-4 z m 0,-2.49153 l -0.0869,-1.3e-4 l -0.09937,-0.0608 l -0.09936,-0.0608 l -0.04807,-0.0933 l -0.04806,-0.0933 l 0,-0.0872 l 0,-0.0872 l 0.06059,-0.0997 l 0.06059,-0.0997 l 0.09294,-0.0482 l 0.09295,-0.0482 l 0.08068,0 l 0.08068,0 l 0.09295,0.0482 l 0.09294,0.0482 l 0.06059,0.0997 l 0.06058,0.0997 l 0,0.0934 l 0,0.0934 l -0.06058,0.0997 l -0.06059,0.0997 l -0.09294,0.0482 l -0.09295,0.0482 l -0.08689,-1.2e-4 z m 0,-2.49154 l -0.0869,-1.3e-4 l -0.09937,-0.0608 l -0.09936,-0.0608 l -0.04807,-0.0933 l -0.04806,-0.0933 l 0,-0.0872 l 0,-0.0872 l 0.06059,-0.0997 l 0.06059,-0.0997 l 0.09294,-0.0482 l 0.09295,-0.0482 l 0.08068,0 l 0.08068,0 l 0.09295,0.0482 l 0.09294,0.0482 l 0.06059,0.0997 l 0.06058,0.0997 l 0,0.0934 l 0,0.0934 l -0.06058,0.0997 l -0.06059,0.0997 l -0.09294,0.0482 l -0.09295,0.0482 l -0.08689,-1.3e-4 z m 0,-2.49154 l -0.0869,-1.2e-4 l -0.09937,-0.0608 l -0.09936,-0.0608 l -0.04807,-0.0933 l -0.04806,-0.0933 l 0,-0.0872 l 0,-0.0872 l 0.06059,-0.0997 l 0.06059,-0.0997 l 0.09294,-0.0482 l 0.09295,-0.0482 l 0.08068,0 l 0.08068,0 l 0.09295,0.0482 l 0.09294,0.0482 l 0.06059,0.0997 l 0.06058,0.0997 l 0,0.0934 l 0,0.0934 l -0.06058,0.0997 l -0.06059,0.0997 l -0.09294,0.0482 l -0.09295,0.0482 l -0.08689,-1.2e-4 z m -14.370514,-0.5606 l -0.0869,-1.2e-4 l -0.09937,-0.0608 l -0.09936,-0.0608 l -0.04807,-0.0933 l -0.04806,-0.0933 l 0,-0.0872 l 0,-0.0872 l 0.06059,-0.0997 l 0.06059,-0.0997 l 0.09294,-0.0482 l 0.09294,-0.0482 l 0.08068,0 l 0.08068,0 l 0.09294,0.0482 l 0.09295,0.0482 l 0.06059,0.0997 l 0.06059,0.0997 l 0,0.0934 l 0,0.0934 l -0.06059,0.0997 l -0.06059,0.0997 l -0.09295,0.0482 l -0.09294,0.0482 l -0.08689,-1.2e-4 z m 14.370514,-1.93093 l -0.0869,-1.3e-4 l -0.09937,-0.0608 l -0.09936,-0.0608 l -0.04807,-0.0933 l -0.04806,-0.0933 l 0,-0.0872 l 0,-0.0872 l 0.06059,-0.0997 l 0.06059,-0.0997 l 0.09294,-0.0482 l 0.09295,-0.0482 l 0.08068,0 l 0.08068,0 l 0.09295,0.0482 l 0.09294,0.0482 l 0.06059,0.0997 l 0.06058,0.0997 l 0,0.0934 l 0,0.0934 l -0.06058,0.0997 l -0.06059,0.0997 l -0.09294,0.0482 l -0.09295,0.0482 l -0.08689,-1.2e-4 z m -14.370514,-0.5606 l -0.0869,-1.3e-4 l -0.09937,-0.0608 l -0.09936,-0.0608 l -0.04807,-0.0933 l -0.04806,-0.0933 l 0,-0.0872 l 0,-0.0872 l 0.06059,-0.0997 l 0.06059,-0.0997 l 0.09294,-0.0482 l 0.09294,-0.0482 l 0.08068,0 l 0.08068,0 l 0.09294,0.0482 l 0.09295,0.0482 l 0.06059,0.0997 l 0.06059,0.0997 l 0,0.0934 l 0,0.0934 l -0.06059,0.0997 l -0.06059,0.0997 l -0.09295,0.0482 l -0.09294,0.0482 l -0.08689,-1.3e-4 z m 6.952474,-0.0623 l -0.0869,-1.3e-4 l -0.09937,-0.0608 l -0.09936,-0.0608 l -0.04807,-0.0933 l -0.04806,-0.0933 l 0,-0.0872 l 0,-0.0872 l 0.06059,-0.0997 l 0.06059,-0.0997 l 0.09294,-0.0482 l 0.09295,-0.0482 l 0.08068,0 l 0.08068,0 l 0.09295,0.0482 l 0.09294,0.0482 l 0.06059,0.0997 l 0.06058,0.0997 l 0,0.0934 l 0,0.0934 l -0.06058,0.0997 l -0.06059,0.0997 l -0.09294,0.0482 l -0.09295,0.0482 l -0.08689,-1.3e-4 z m 7.41804,-1.86865 l -0.0869,-1.3e-4 l -0.09937,-0.0608 l -0.09936,-0.0608 l -0.04807,-0.0933 l -0.04806,-0.0933 l 0,-0.0872 l 0,-0.0872 l 0.06059,-0.0997 l 0.06059,-0.0997 l 0.09294,-0.0482 l 0.09295,-0.0482 l 0.08068,0 l 0.08068,0 l 0.09295,0.0482 l 0.09294,0.0482 l 0.06059,0.0997 l 0.06058,0.0997 l 0,0.0934 l 0,0.0934 l -0.06058,0.0997 l -0.06059,0.0997 l -0.09294,0.0482 l -0.09295,0.0482 l -0.08689,-1.3e-4 z m 0,-2.49154 l -0.0869,-1.2e-4 l -0.09937,-0.0608 l -0.09936,-0.0608 l -0.04807,-0.0933 l -0.04806,-0.0933 l 0,-0.0872 l 0,-0.0872 l 0.06059,-0.0997 l 0.06059,-0.0997 l 0.09294,-0.0482 l 0.09295,-0.0482 l 0.08068,0 l 0.08068,0 l 0.09295,0.0482 l 0.09294,0.0482 l 0.06059,0.0997 l 0.06058,0.0997 l 0,0.0934 l 0,0.0934 l -0.06058,0.0997 l -0.06059,0.0997 l -0.09294,0.0482 l -0.09295,0.0482 l -0.08689,-1.2e-4 z m 5.860285,17.68287 l 0.174142,0.007 l 0.01956,-0.16351 l 0.01959,-0.16351 l 2.82e-4,-10.72139 l 2.31e-4,-10.7214 l -0.884577,0 l -0.884581,0 l 0,10.86874 l 0,10.86873 l 0.690592,0.009 c 0.379826,0.005 0.768957,0.0122 0.864738,0.0162 z m -0.676967,-0.24211 l -0.0869,-1.3e-4 l -0.09937,-0.0608 l -0.09936,-0.0608 l -0.04807,-0.0933 l -0.04806,-0.0933 l 0,-0.0872 l 0,-0.0872 l 0.06059,-0.0997 l 0.06059,-0.0997 l 0.09294,-0.0482 l 0.09295,-0.0482 l 0.08068,0 l 0.08068,0 l 0.09295,0.0482 l 0.09294,0.0482 l 0.06059,0.0997 l 0.06059,0.0997 l 0,0.0934 l 0,0.0934 l -0.06059,0.0997 l -0.06059,0.0997 l -0.09294,0.0482 l -0.09295,0.0482 l -0.08689,-1.3e-4 z m 0,-2.49154 l -0.0869,-1.2e-4 l -0.09937,-0.0608 l -0.09936,-0.0608 l -0.04807,-0.0933 l -0.04806,-0.0933 l 0,-0.0872 l 0,-0.0872 l 0.06059,-0.0997 l 0.06059,-0.0997 l 0.09294,-0.0482 l 0.09295,-0.0482 l 0.08068,0 l 0.08068,0 l 0.09295,0.0482 l 0.09294,0.0482 l 0.06059,0.0997 l 0.06059,0.0997 l 0,0.0934 l 0,0.0934 l -0.06059,0.0997 l -0.06059,0.0997 l -0.09294,0.0482 l -0.09295,0.0482 l -0.08689,-1.2e-4 z m 0,-2.49153 l -0.0869,-1.3e-4 l -0.09937,-0.0608 l -0.09936,-0.0608 l -0.04807,-0.0933 l -0.04806,-0.0933 l 0,-0.0872 l 0,-0.0872 l 0.06059,-0.0997 l 0.06059,-0.0997 l 0.09294,-0.0482 l 0.09295,-0.0482 l 0.08068,0 l 0.08068,0 l 0.09295,0.0482 l 0.09294,0.0482 l 0.06059,0.0997 l 0.06059,0.0997 l 0,0.0934 l 0,0.0934 l -0.06059,0.0997 l -0.06059,0.0997 l -0.09294,0.0482 l -0.09295,0.0482 l -0.08689,-1.2e-4 z m 0,-2.49154 l -0.0869,-1.3e-4 l -0.09937,-0.0608 l -0.09936,-0.0608 l -0.04807,-0.0933 l -0.04806,-0.0933 l 0,-0.0872 l 0,-0.0872 l 0.06059,-0.0997 l 0.06059,-0.0997 l 0.09294,-0.0482 l 0.09295,-0.0482 l 0.08068,0 l 0.08068,0 l 0.09295,0.0482 l 0.09294,0.0482 l 0.06059,0.0997 l 0.06059,0.0997 l 0,0.0934 l 0,0.0934 l -0.06059,0.0997 l -0.06059,0.0997 l -0.09294,0.0482 l -0.09295,0.0482 l -0.08689,-1.3e-4 z m 0,-2.49154 l -0.0869,-1.2e-4 l -0.09937,-0.0608 l -0.09936,-0.0608 l -0.04807,-0.0933 l -0.04806,-0.0933 l 0,-0.0872 l 0,-0.0872 l 0.06059,-0.0997 l 0.06059,-0.0997 l 0.09294,-0.0482 l 0.09295,-0.0482 l 0.08068,0 l 0.08068,0 l 0.09295,0.0482 l 0.09294,0.0482 l 0.06059,0.0997 l 0.06059,0.0997 l 0,0.0934 l 0,0.0934 l -0.06059,0.0997 l -0.06059,0.0997 l -0.09294,0.0482 l -0.09295,0.0482 l -0.08689,-1.2e-4 z m 0,-2.49153 l -0.0869,-1.3e-4 l -0.09937,-0.0608 l -0.09936,-0.0608 l -0.04807,-0.0933 l -0.04806,-0.0933 l 0,-0.0872 l 0,-0.0872 l 0.06059,-0.0997 l 0.06059,-0.0997 l 0.09294,-0.0482 l 0.09295,-0.0482 l 0.08068,0 l 0.08068,0 l 0.09295,0.0482 l 0.09294,0.0482 l 0.06059,0.0997 l 0.06059,0.0997 l 0,0.0934 l 0,0.0934 l -0.06059,0.0997 l -0.06059,0.0997 l -0.09294,0.0482 l -0.09295,0.0482 l -0.08689,-1.2e-4 z m 0,-2.49154 l -0.0869,-1.3e-4 l -0.09937,-0.0608 l -0.09936,-0.0608 l -0.04807,-0.0933 l -0.04806,-0.0933 l 0,-0.0872 l 0,-0.0872 l 0.06059,-0.0997 l 0.06059,-0.0997 l 0.09294,-0.0482 l 0.09295,-0.0482 l 0.08068,0 l 0.08068,0 l 0.09295,0.0482 l 0.09294,0.0482 l 0.06059,0.0997 l 0.06059,0.0997 l 0,0.0934 l 0,0.0934 l -0.06059,0.0997 l -0.06059,0.0997 l -0.09294,0.0482 l -0.09295,0.0482 l -0.08689,-1.3e-4 z m 0,-2.49154 l -0.0869,-1.2e-4 l -0.09937,-0.0608 l -0.09936,-0.0608 l -0.04807,-0.0933 l -0.04806,-0.0933 l 0,-0.0872 l 0,-0.0872 l 0.06059,-0.0997 l 0.06059,-0.0997 l 0.09294,-0.0482 l 0.09295,-0.0482 l 0.08068,0 l 0.08068,0 l 0.09295,0.0482 l 0.09294,0.0482 l 0.06059,0.0997 l 0.06059,0.0997 l 0,0.0934 l 0,0.0934 l -0.06059,0.0997 l -0.06059,0.0997 l -0.09294,0.0482 l -0.09295,0.0482 l -0.08689,-1.2e-4 z m -0.124152,-3.08328 l -0.0869,-1.2e-4 l -0.09937,-0.0608 l -0.09936,-0.0608 l -0.04807,-0.0933 l -0.04806,-0.0933 l 0,-0.0872 l 0,-0.0872 l 0.06059,-0.0997 l 0.06059,-0.0997 l 0.09294,-0.0482 l 0.09294,-0.0482 l 0.08068,0 l 0.08068,0 l 0.09294,0.0482 l 0.09295,0.0482 l 0.06059,0.0997 l 0.06059,0.0997 l 0,0.0934 l 0,0.0934 l -0.06059,0.0997 l -0.06059,0.0997 l -0.09295,0.0482 l -0.09294,0.0482 l -0.08689,-1.2e-4 z m -43.539853,20.46187 l 0.636275,0 l 0,-0.24916 l 0,-0.24915 l 1.101841,0 l 1.101844,0 l 0,0.12458 l 0,0.12457 l 0.667314,0 l 0.667312,0 l 0,-0.22094 l 0,-0.22095 l 4.003884,0.0107 l 4.003884,0.0107 l -3e-6,-0.1635 l -6e-6,-0.16351 l -4.003878,0 l -4.003881,0 l 0,-0.29587 l 0,-0.29587 l -0.667312,0 l -0.667314,0 l 0,0.23358 l 0,0.23358 l -1.101844,0 l -1.101841,0 l 0,-0.23358 l 0,-0.23358 l -0.636275,0 l -0.636276,0 l 0,0.79418 l 0,0.79417 l 0.636276,0 z m 3.501057,-0.52957 l -0.0869,-1.3e-4 l -0.09937,-0.0608 l -0.09936,-0.0608 l -0.04806,-0.0933 l -0.04807,-0.0933 l 1.25e-4,-0.0872 l 1.24e-4,-0.0872 l 0.06059,-0.0997 l 0.06059,-0.0997 l 0.09294,-0.0482 l 0.09294,-0.0482 l 0.08068,0 l 0.08068,0 l 0.09294,0.0482 l 0.09295,0.0482 l 0.06059,0.0997 l 0.06059,0.0997 l 0,0.0934 l 0,0.0934 l -0.06059,0.0997 l -0.06059,0.0997 l -0.09295,0.0482 l -0.09294,0.0482 l -0.0869,-1.3e-4 z m 15.967418,-0.13116 l 0.442291,0.007 l 0,-0.17625 l 0,-0.17626 l -0.667315,0.0202 l -0.667314,0.0202 l 0,-1.52568 l 0,-1.52567 l 0.108633,0 l 0.108633,0 l 0,-0.0934 l 0,-0.0934 l 0.09311,0 l 0.09311,0 l 0,-6.92958 l 0,-6.92959 l 2.234723,0 l 2.234723,0 l 0,0.20244 l 0,0.20243 l 0.667315,0 l 0.667311,0 l 0,-0.6696 l 0,-0.6696 l -0.667311,0 l -0.667315,0 l 0,0.15572 l 0,0.15572 l -2.277401,0 l -2.2774,0 l -0.09699,0.0195 l -0.09699,0.0195 l 0,7.11256 l 0,7.11256 l -0.04656,0 l -0.04656,0 l 0,0.0623 l 0,0.0623 l -0.155189,0 l -0.155188,0 l 0,1.80537 l 0,1.80538 l 0.364693,0.01 c 0.200581,0.005 0.563725,0.0129 0.806983,0.0166 z m 4.641698,-17.27846 l -0.0869,-1.2e-4 l -0.09937,-0.0608 l -0.09936,-0.0608 l -0.04807,-0.0933 l -0.04806,-0.0933 l 0,-0.0872 l 0,-0.0872 l 0.06059,-0.0997 l 0.06059,-0.0997 l 0.09294,-0.0482 l 0.09294,-0.0482 l 0.08068,0 l 0.08068,0 l 0.09294,0.0482 l 0.09295,0.0482 l 0.06059,0.0997 l 0.06059,0.0997 l 0,0.0934 l 0,0.0934 l -0.06059,0.0997 l -0.06059,0.0997 l -0.09295,0.0482 l -0.09294,0.0482 l -0.08689,-1.2e-4 z m -12.370115,16.8104 l 0.442287,0.008 l 0,-0.1713 l 0,-0.17129 l -2.762366,0 l -2.762365,0 l 0,-1.10155 l 0,-1.10154 l -0.116392,-0.0193 l -0.116394,-0.0193 l -1.125121,-2.8e-4 l -1.125121,-2.8e-4 l 0,-0.18687 l 0,-0.18686 l -0.667312,0 l -0.667314,0 l 0,0.24915 l 0,0.24915 l -1.101844,0 l -1.101841,0 l 0,-0.28029 l 0,-0.2803 l -0.636275,0 l -0.636276,0 l 0,0.79417 l 0,0.79418 l 0.636276,0 l 0.636275,0 l 0,-0.20243 l 0,-0.20244 l 1.101841,0 l 1.101844,0 l 0,0.109 l 0,0.10901 l 0.667314,0 l 0.667312,0 l 0,-0.1713 l 0,-0.17129 l 1.086324,0 l 1.086324,0 l 0,0.89973 l 0,0.89973 l 0.05432,0.066 l 0.05432,0.0661 l 2.42095,0.008 c 1.331525,0.004 2.619982,0.0111 2.863241,0.0153 z m -8.239001,-1.89232 l -0.0869,-1.2e-4 l -0.09937,-0.0608 l -0.09936,-0.0608 l -0.04806,-0.0933 l -0.04807,-0.0933 l 1.25e-4,-0.0872 l 1.24e-4,-0.0872 l 0.06059,-0.0997 l 0.06059,-0.0997 l 0.09294,-0.0482 l 0.09294,-0.0482 l 0.08068,0 l 0.08068,0 l 0.09294,0.0482 l 0.09295,0.0482 l 0.06059,0.0997 l 0.06059,0.0997 l 0,0.0934 l 0,0.0934 l -0.06059,0.0997 l -0.06059,0.0997 l -0.09295,0.0482 l -0.09294,0.0482 l -0.0869,-1.3e-4 z m 8.239001,1.39406 l 0.442287,0.008 l 0,-0.1713 l 0,-0.17129 l -2.281278,0 l -2.281282,0 l 0,-2.08666 l 0,-2.08667 l -1.722599,0 l -1.7226,0 l 0,-0.218 l 0,-0.21801 l -0.667312,0 l -0.667314,0 l 0,0.0779 l 0,0.0779 l -1.117361,0 l -1.117363,0 l 0,-0.23358 l 0,-0.23358 l -0.636275,0 l -0.636276,0 l 0,0.79417 l 0,0.79418 l 0.636276,0 l 0.636275,0 l 0,-0.15572 l 0,-0.15572 l 1.117363,0 l 1.117361,0 l 0,0.18686 l 0,0.18687 l 0.667314,0 l 0.667312,0 l 0,-0.14015 l 0,-0.14015 l 1.567411,0 l 1.567412,0 l 0,1.8652 l 0,1.8652 l 0.05431,0.066 l 0.05432,0.066 l 1.939866,0.008 c 1.066924,0.004 2.138894,0.0112 2.382153,0.0153 z m -8.239001,-3.8856 l -0.0869,-1.2e-4 l -0.09937,-0.0608 l -0.09936,-0.0608 l -0.04806,-0.0933 l -0.04807,-0.0933 l 1.25e-4,-0.0872 l 1.24e-4,-0.0872 l 0.06059,-0.0997 l 0.06059,-0.0997 l 0.09294,-0.0482 l 0.09294,-0.0482 l 0.08068,0 l 0.08068,0 l 0.09294,0.0482 l 0.09295,0.0482 l 0.06059,0.0997 l 0.06059,0.0997 l 0,0.0934 l 0,0.0934 l -0.06059,0.0997 l -0.06059,0.0997 l -0.09295,0.0482 l -0.09294,0.0482 l -0.0869,-1.2e-4 z m 8.239001,3.38737 l 0.442287,0.007 l 0,-0.17129 l 0,-0.17129 l -1.784674,0 l -1.784675,0 l 0,-3.09478 l 0,-3.09477 l -0.116391,-0.0193 l -0.116392,-0.0193 l -2.065567,-2.8e-4 l -2.065568,-2.8e-4 l -0.03724,-0.0374 l -0.03725,-0.0374 l 0,-0.14949 l 0,-0.1495 l -0.667312,0 l -0.667314,0 l 0,0.14015 l 0,0.14015 l -1.13288,0 l -1.132882,0 l 0,-0.37373 l 0,-0.37373 l -0.636276,0 l -0.636273,0 l 0,0.79418 l 0,0.79418 l 0.636273,0 l 0.636276,0 l 0,-0.10901 l 0,-0.109 l 1.132882,0 l 1.13288,0 l 0,0.21801 l 0,0.21801 l 0.667314,0 l 0.667312,0 l 0,-0.1713 l 0,-0.17129 l 2.064015,0 l 2.064018,0 l 0,2.89296 l 0,2.89296 l 0.05431,0.066 l 0.05432,0.066 l 1.443259,0.008 c 0.793793,0.004 1.642291,0.0112 1.88555,0.0153 z m -8.239001,-5.8789 l -0.0869,-1.3e-4 l -0.09937,-0.0608 l -0.09936,-0.0608 l -0.04806,-0.0933 l -0.04807,-0.0933 l 1.25e-4,-0.0872 l 1.24e-4,-0.0872 l 0.06059,-0.0997 l 0.06059,-0.0997 l 0.09294,-0.0482 l 0.09294,-0.0482 l 0.08068,0 l 0.08068,0 l 0.09294,0.0482 l 0.09295,0.0482 l 0.06059,0.0997 l 0.06059,0.0997 l 0,0.0934 l 0,0.0934 l -0.06059,0.0997 l -0.06059,0.0997 l -0.09295,0.0482 l -0.09294,0.0482 l -0.0869,-1.3e-4 z m 8.239001,5.38075 l 0.442287,0.007 l 0,-0.17129 l 0,-0.17129 l -1.299949,0 l -1.29995,0 l -0.01202,-4.10907 l -0.01202,-4.10907 l -0.02523,-0.0253 l -0.02523,-0.0253 l -2.666676,-0.008 l -2.666678,-0.008 l 0,-0.15505 l 0,-0.15505 l -0.667312,0 l -0.667314,0 l 0,0.15573 l 0,0.15572 l -1.101844,0 l -1.101841,0 l 0,-0.37373 l 0,-0.37374 l -0.636275,0 l -0.636276,0 l 0,0.79418 l 0,0.79418 l 0.636276,0 l 0.636275,0 l 0,-0.109 l 0,-0.10901 l 1.101841,0 l 1.101844,0 l 0,0.20244 l 0,0.20243 l 0.667314,0 l 0.667312,0 l 0,-0.20243 l 0,-0.20244 l 2.545102,0 l 2.545103,0 l 0,3.92072 l 0,3.92072 l 0.05432,0.0658 l 0.05432,0.0659 l 0.962172,0.008 c 0.529195,0.004 1.161203,0.0114 1.404462,0.0155 z m -8.239001,-7.87229 l -0.0869,-1.2e-4 l -0.09937,-0.0608 l -0.09936,-0.0608 l -0.04806,-0.0933 l -0.04807,-0.0933 l 1.25e-4,-0.0872 l 1.24e-4,-0.0872 l 0.06059,-0.0997 l 0.06059,-0.0997 l 0.09294,-0.0482 l 0.09294,-0.0482 l 0.08068,0 l 0.08068,0 l 0.09294,0.0482 l 0.09295,0.0482 l 0.06059,0.0997 l 0.06059,0.0997 l 0,0.0934 l 0,0.0934 l -0.06059,0.0997 l -0.06059,0.0997 l -0.09295,0.0482 l -0.09294,0.0482 l -0.0869,-1.3e-4 z m 16.184684,7.86907 c 0.371289,-0.0113 1.131494,-0.0205 1.689346,-0.0205 l 1.014267,-6e-5 l 0.04878,-0.0489 l 0.04877,-0.0489 l 0,-0.18464 l 0,-0.18464 l 0.481088,0 l 0.481084,0 l 0,0.20244 l 0,0.20244 l 0.667315,0 l 0.667311,0 l 0,-0.6696 l 0,-0.6696 l -0.667311,0 l -0.667315,0 l 0,0.32701 l 0,0.32702 l -0.571983,0 l -0.571979,0 l -0.04878,0.0489 l -0.04877,0.0489 l 0,0.18962 l 0,0.18962 l -1.598448,-0.0188 l -1.598447,-0.0188 l 0,0.17448 l 0,0.17449 l 0.675072,-0.0205 z m 4.424432,-0.36332 l -0.0869,-1.2e-4 l -0.09937,-0.0608 l -0.09936,-0.0608 l -0.04807,-0.0933 l -0.04806,-0.0933 l 0,-0.0872 l 0,-0.0872 l 0.06059,-0.0997 l 0.06059,-0.0997 l 0.09294,-0.0482 l 0.09294,-0.0482 l 0.08068,0 l 0.08068,0 l 0.09294,0.0482 l 0.09295,0.0482 l 0.06059,0.0997 l 0.06059,0.0997 l 0,0.0934 l 0,0.0934 l -0.06059,0.0997 l -0.06059,0.0997 l -0.09295,0.0482 l -0.09294,0.0482 l -0.08689,-1.2e-4 z m -36.308041,0.34271 l 0.667314,0 l 0,-0.0779 l 0,-0.0779 l 2.917555,0 l 2.917557,0 l 0,-5.76168 l 0,-5.76168 l 5.835111,0 l 5.835111,0 l 0,1.29669 l 0,1.29669 l 3.362717,-0.0231 l 3.362716,-0.0232 l 0.02041,0.28847 l 0.02041,0.28846 l 0,3.35879 l 0,3.35879 l 0.162949,0 l 0.16295,10e-6 l -0.01039,-3.41808 l -0.01039,-3.41808 l -0.02066,-0.34175 l -0.02066,-0.34176 l -0.07759,-0.0393 l -0.0776,-0.0393 l -1.668282,-5.6e-4 l -1.668283,-5.6e-4 l 0,-1.63508 l 0,-1.63507 l -7.90807,0 l -7.908067,0 l -0.13849,0.0701 l -0.138486,0.0701 l -0.06984,0.13897 l -0.06984,0.13896 l 0,5.55264 l 0,5.55264 l -2.405431,0 l -2.405431,0 l 0,-0.0779 l 0,-0.0779 l -0.667314,0 l -0.667312,0 l 0,0.6696 l 0,0.6696 l 0.667312,0 z m -0.0062,-0.28042 l -0.0869,-1.2e-4 l -0.09937,-0.0608 l -0.09937,-0.0608 l -0.04806,-0.0933 l -0.04806,-0.0933 l 1.13e-4,-0.0872 l 1.16e-4,-0.0872 l 0.06059,-0.0997 l 0.06059,-0.0997 l 0.09294,-0.0482 l 0.09294,-0.0482 l 0.08068,0 l 0.08068,0 l 0.09294,0.0482 l 0.09294,0.0482 l 0.06059,0.0997 l 0.06059,0.0997 l 0,0.0934 l 0,0.0934 l -0.06059,0.0997 l -0.06059,0.0997 l -0.09294,0.0482 l -0.09294,0.0482 l -0.0869,-1.2e-4 z m 32.355392,-0.17041 c 0.627355,-0.01 1.283803,-0.0261 1.458778,-0.0358 l 0.318138,-0.0177 l 0,-1.18049 l 0,-1.18048 l 0.760428,0 l 0.760426,0 l 0,0.15572 l 0,0.15572 l 0.667314,0 l 0.667312,0 l 0,-0.6696 l 0,-0.6696 l -0.667312,0 l -0.667314,0 l 0,0.20244 l 0,0.20243 l -0.923375,5.7e-4 l -0.923375,5.6e-4 l -0.06984,0.0188 l -0.06984,0.0188 l 0,1.20664 l 0,1.20665 l -0.0204,0.14939 l -0.0204,0.14939 l -1.205591,-0.0215 l -1.205586,-0.0215 l 0,0.17398 l 0,0.17399 l 1.140638,-0.0181 z m 3.958867,-2.38341 l -0.0869,-1.3e-4 l -0.09937,-0.0608 l -0.09936,-0.0608 l -0.04807,-0.0933 l -0.04806,-0.0933 l 0,-0.0872 l 0,-0.0872 l 0.06059,-0.0997 l 0.06059,-0.0997 l 0.09294,-0.0482 l 0.09295,-0.0482 l 0.08068,0 l 0.08068,0 l 0.09294,0.0482 l 0.09294,0.0482 l 0.06059,0.0997 l 0.06059,0.0997 l 0,0.0934 l 0,0.0934 l -0.06059,0.0997 l -0.06059,0.0997 l -0.09294,0.0482 l -0.09294,0.0482 l -0.08689,-1.3e-4 z m -4.090778,1.89991 l 1.00873,0 l 0,-0.0467 l 0,-0.0467 l 0.03104,0 l 0.03104,0 l 0,-1.49492 l 0,-1.49493 l -0.713277,0 l -0.71328,0 l -0.01947,0.0779 l -0.01947,0.0779 l -0.04319,0 l -0.04319,0 l 0,1.29248 l 0,1.29249 l -0.263822,0 l -0.263821,0 l 0,0.17129 l 0,0.17129 l 1.008727,0 z m 0.365693,-1.55843 c -0.04749,-5.6e-4 -0.128945,-0.0198 -0.181004,-0.0426 l -0.09465,-0.0414 l -0.08382,-0.1 l -0.08381,-0.1 l 0,-0.19896 l 0,-0.19896 l 0.09599,-0.10971 l 0.09599,-0.1097 l 0.118279,-0.0356 l 0.118279,-0.0356 l 0.112288,0.0211 l 0.112293,0.0211 l 0.107584,0.0948 l 0.107585,0.0948 l 0.03544,0.11868 l 0.03544,0.11869 l -0.02077,0.11109 l -0.02077,0.11109 l -0.08267,0.0986 l -0.08267,0.0986 l -0.101326,0.0425 l -0.101327,0.0425 l -0.08635,-0.001 z m -6.976749,0.65525 l 0.170708,0 l 0,-0.45159 l 0,-0.45159 l -0.04656,0 l -0.04656,0 l 0,-3.78021 l 0,-3.78021 l -0.05129,-0.0427 l -0.05129,-0.0427 l -1.22126,-0.009 l -1.22126,-0.009 l 0,-1.92331 l 0,-1.92331 l -0.06984,-0.13896 l -0.06983,-0.13896 l -0.138489,-0.0701 l -0.138487,-0.0701 l -9.391308,0 l -9.391309,0 l -0.138487,0.0701 l -0.138486,0.0701 l -0.06984,0.13896 l -0.06984,0.13896 l 0,5.28792 l 0,5.28791 l -1.42774,0 l -1.427739,0 l 0,-0.0779 l 0,-0.0779 l -0.667315,0 l -0.667312,0 l 0,0.6696 l 0,0.66961 l 0.667312,0 l 0.667315,0 l 0,-0.0779 l 0,-0.0779 l 1.939863,0 l 1.939865,0 l 0,-5.49695 l 0,-5.49695 l 8.781644,0 l 8.781644,0 l 0.01908,0.31922 c 0.01047,0.17558 0.02577,0.97443 0.03399,1.77522 l 0.01493,1.456 l 1.6286,0 l 1.628602,0 l 0,4.12661 l 0,4.1266 l 0.170708,0 z M 3.398355,18.581297 l -0.0869,-1.3e-4 l -0.09937,-0.0608 l -0.09937,-0.0608 l -0.04806,-0.0933 l -0.04806,-0.0932 l 1.13e-4,-0.0872 l 1.16e-4,-0.0872 l 0.06059,-0.0997 l 0.06059,-0.0997 l 0.09294,-0.0482 l 0.09294,-0.0482 l 0.08068,0 l 0.08068,0 l 0.09294,0.0482 l 0.09294,0.0482 l 0.06059,0.0997 l 0.06059,0.0997 l 0,0.0934 l 0,0.0934 l -0.06059,0.0997 l -0.06059,0.0997 l -0.09294,0.0482 l -0.09294,0.0482 l -0.0869,-1.2e-4 z m 26.070232,0.93444 l 0.16295,10e-6 l -0.0099,-4.72614 l -0.0098,-4.72614 l -0.04549,-0.0467 l -0.04549,-0.0467 l -0.511101,-0.01 l -0.511099,-0.01 l 0,-2.26483 l 0,-2.26483 l -0.06983,-0.13896 l -0.06984,-0.13896 l -0.138485,-0.0701 l -0.13849,-0.0701 l -11.346691,0 l -11.346691,0 l -0.138487,0.0701 l -0.138489,0.0701 l -0.06983,0.13896 l -0.06984,0.13896 l 0,4.88304 l 0,4.88304 l -0.450048,0 l -0.450049,0 l 0,-0.0779 l 0,-0.0779 l -0.667314,0 l -0.667312,0 l 0,0.6696 l 0,0.6696 l 0.667312,0 l 0.667314,0 l 0,-0.0779 l 0,-0.0779 l 0.75385,0 l 0.753849,0 l 0.138489,-0.0701 l 0.138487,-0.0701 l 0.06984,-0.13896 l 0.06983,-0.13896 l 0,-4.88304 l 0,-4.88304 l 10.734034,0 l 10.734035,0 l 0.02055,1.33141 c 0.01129,0.73228 0.02055,1.68529 0.02057,2.11781 l 4e-5,0.78639 l 0.900095,0 l 0.900097,0 l 0,4.62491 l 0,4.62492 l 0.162947,0 z M 3.398355,16.089757 l -0.0869,-1.2e-4 l -0.09937,-0.0608 l -0.09937,-0.0608 l -0.04806,-0.0933 l -0.04806,-0.0933 l 1.13e-4,-0.0872 l 1.16e-4,-0.0872 l 0.06059,-0.0997 l 0.06059,-0.0997 l 0.09294,-0.0482 l 0.09294,-0.0482 l 0.08068,0 l 0.08068,0 l 0.09294,0.0482 l 0.09294,0.0482 l 0.06059,0.0997 l 0.06059,0.0997 l 0,0.0934 l 0,0.0934 l -0.06059,0.0997 l -0.06059,0.0997 l -0.09294,0.0482 l -0.09294,0.0482 l -0.0869,-1.3e-4 z m 26.574597,3.42598 l 0.170708,0 l 0,-0.45159 l 0,-0.45159 l -0.03104,0 l -0.03104,0 l 0,-4.65606 l 0,-4.65606 l 0.186227,0 l 0.186228,0 l 0,-2.81195 l 0,-2.81195 l -0.06984,-0.13897 l -0.06984,-0.13896 l -0.138487,-0.0701 l -0.138486,-0.0701 l -13.302075,0 l -13.302074,0 l -0.138489,0.0701 l -0.138487,0.0701 l -0.06984,0.13896 l -0.06983,0.13897 l 0,4.43145 l 0,4.43145 l -0.139671,0 l -0.139669,0 l 0,0.6696 l 0,0.6696 l 0.659607,0 l 0.659607,0 l -0.01126,-4.79621 l -0.01126,-4.79621 l 12.697903,0 l 12.697905,0 l 0,1.38083 c 0,0.75945 0.0093,1.88765 0.02055,2.50711 l 0.02055,1.12628 l 0.165675,0 l 0.165676,0 l 0,5.10765 l 0,5.10765 l 0.170708,0 z M 3.398355,13.598217 l -0.0869,-1.1e-4 l -0.09937,-0.0608 l -0.09937,-0.0608 l -0.04806,-0.0933 l -0.04806,-0.0933 l 1.13e-4,-0.0872 l 1.16e-4,-0.0872 l 0.06059,-0.0997 l 0.06059,-0.0997 l 0.09294,-0.0482 l 0.09294,-0.0482 l 0.08068,0 l 0.08068,0 l 0.09294,0.0482 l 0.09294,0.0482 l 0.06059,0.0997 l 0.06059,0.0997 l 0,0.0934 l 0,0.0934 l -0.06059,0.0997 l -0.06059,0.0997 l -0.09294,0.0482 l -0.09294,0.0482 l -0.0869,-1.2e-4 z m 28.033376,5.91752 l 0.170708,0 l 0,-0.45159 l 0,-0.45159 l -0.03104,0 l -0.03104,0 l 0,-0.21801 l 0,-0.21801 l 0.248302,0 l 0.248302,0 l 0,-0.88761 l 0,-0.88761 l -0.636276,0 l -0.636276,0 l 0,0.88761 l 0,0.88761 l 0.248305,0 l 0.248302,0 l 0,0.6696 l 0,0.6696 l 0.170708,0 z m 1.489814,0 l 0.170708,0 l 0,-0.45159 l 0,-0.45159 l -0.170708,0 l -0.170708,0 l 0,0.45159 l 0,0.45159 l 0.170708,0 z m 0.465568,0 l 0.170708,0 l 0,-0.45159 l 0,-0.45159 l -0.170708,0 l -0.170708,0 l 0,0.45159 l 0,0.45159 l 0.170708,0 z m 0.492263,-0.006 l 0.150848,-0.009 l -0.005,-8.05856 l -0.005,-8.05857 l 2.515627,0 l 2.515628,0 l 0,0.23358 l 0,0.23359 l 0.667314,0 l 0.667312,0 l 0,-0.65403 l 0,-0.65403 l -0.667312,0 l -0.667314,0 l 0,0.10849 l 0,0.10849 l -2.635637,0.008 l -2.635634,0.008 l -0.01651,0.0166 l -0.01651,0.0166 l -0.0093,8.35478 l -0.0093,8.35479 l 0.150848,-0.009 z m 5.833238,-15.93953 l -0.0869,-1.3e-4 l -0.09937,-0.0608 l -0.09936,-0.0608 l -0.04807,-0.0933 l -0.04806,-0.0933 l 0,-0.0872 l 0,-0.0872 l 0.06059,-0.0997 l 0.06059,-0.0997 l 0.09294,-0.0482 l 0.09295,-0.0482 l 0.08068,0 l 0.08068,0 l 0.09294,0.0482 l 0.09294,0.0482 l 0.06059,0.0997 l 0.06059,0.0997 l 0,0.0934 l 0,0.0934 l -0.06059,0.0997 l -0.06059,0.0997 l -0.09294,0.0482 l -0.09294,0.0482 l -0.08689,-1.3e-4 z"
     style="fill:#000000" />
</svg>
