<?xml version="1.0" encoding="UTF-8" standalone="no"?>
<svg
   xmlns:dc="http://purl.org/dc/elements/1.1/"
   xmlns:cc="http://creativecommons.org/ns#"
   xmlns:rdf="http://www.w3.org/1999/02/22-rdf-syntax-ns#"
   xmlns:svg="http://www.w3.org/2000/svg"
   xmlns="http://www.w3.org/2000/svg"
   xmlns:sodipodi="http://sodipodi.sourceforge.net/DTD/sodipodi-0.dtd"
   xmlns:inkscape="http://www.inkscape.org/namespaces/inkscape"
   width="744.09448819"
   height="1052.3622047"
   id="svg2"
   version="0.48.2 r9819"
   inkscape:version="0.48.2 r9819"
   sodipodi:docname="рисунок5.svg">
  <metadata
     id="metadata9">
    <rdf:RDF>
      <cc:Work
         rdf:about="">
        <dc:format>image/svg+xml</dc:format>
        <dc:type
           rdf:resource="http://purl.org/dc/dcmitype/StillImage" />
        <dc:title></dc:title>
      </cc:Work>
    </rdf:RDF>
  </metadata>
  <defs
     id="defs7" />
  <sodipodi:namedview
     pagecolor="#ffffff"
     bordercolor="#666666"
     borderopacity="1"
     objecttolerance="10"
     gridtolerance="10"
     guidetolerance="10"
     inkscape:pageopacity="0"
     inkscape:pageshadow="2"
     inkscape:window-width="1793"
     inkscape:window-height="1058"
     id="namedview5"
     showgrid="false"
     inkscape:zoom="10.2"
     inkscape:cx="55.8"
     inkscape:cy="1.01e+003"
     inkscape:window-x="-8"
     inkscape:window-y="-8"
     inkscape:window-maximized="1"
     inkscape:current-layer="svg2"
     units="mm"
     height="216mm"
     inkscape:document-units="mm" />
  <path
     inkscape:connector-curvature="0"
     id="path4939"
     d="m 32.2,46.3 -32.031,0 0,-23 0,-23.029 32.031,0 32,0 0,23.029 0,23 -32,0 z m 0.1,-0.6 31.6,0 0,-22.5 0,-22.586 -31.6,0 -31.634,0 0,22.586 0,22.5 31.634,0 z m 0,0 -31.603,0 0,-22.5 0,-22.555 31.603,0 31.5,0 0,22.555 0,22.5 -31.5,0 z m 16.5,-1 13.9,0 0.1,0 0.1,-0.1 0,-21.4 0,-21.43 -0.1,-0.1 -0.1,-0.1 -0.2,-0 -0.1,-0 -15.1,0 -15.2,0 0,0 c -0.1,0 -0.1,0.1 -0.2,0.11 l 0,0.1 0,6.18 0,6.21 -0.5,0 -0.6,0 0,0.9 0,0.8 0.8,0 0.8,0 0,0.4 c 0,0.2 0,0.9 0,1.5 l 0,1.1 -0.3,0 -0.3,0 0,0.4 0,0.5 0.3,0 0.3,0 0,0.3 0,0.3 0.1,0 0.1,0 0,1.8 0,1.7 -0.1,0 -0.1,0 0,1.1 0,1.2 0.9,0 0.9,0 0,-1.2 0,-1.1 -0.3,0 -0.4,0 0,-1.9 0,-1.9 -0.4,0 -0.5,0 0,-8.9 0,-8.91 4.1,0 4.1,0 0,0 0.1,0 0,2.34 0,2.34 -1.8,0 -1.8,0 0,5.14 0,5.1 1.8,0 1.7,0 0,0.1 0,0.1 0,0 0.1,0.1 0,1.7 0,1.8 6,0 6.1,0 0,-4.2 0,-4.3 -6.1,0 -6,0 0,1 0,1 -1.2,0 -1.1,0 0,-2.4 0,-2.46 0,-0 0.1,-0 7,-0 7.1,0 0,-2.32 0,-2.32 1.3,0 1.2,0 0,0.11 0,0.1 0.2,0 0.1,0 0,9.65 0,9.7 1.2,0 1.1,0 0,-10.9 0,-10.88 0,0 -0.1,0 0,-0.34 0,-0.34 1.9,0 1.8,0 0,17.76 0,17.7 -9.7,0 -9.7,0 -0.1,0.1 c 0,0 -0.1,0 -0.1,0.1 l -0.1,0 0,1.9 0,1.9 -3.5,0 -3.5,0 0,1.4 0,1.4 0,0.1 0,0.1 0.1,0.1 0.1,0 13.8,0 z m -9.6,-1.6 -0.1,0 -0.1,-0.1 -0.1,-0.1 0,-0.1 -0.1,0 0,-0.1 0,-0.1 0.1,-0.1 0,-0.1 0.1,-0.1 0.1,0 0.1,0 0.1,0 0.1,0 0.1,0.1 0,0.1 0.1,0.1 0,0.1 0,0.1 -0.1,0.1 0,0.1 -0.1,0 -0.1,0.1 -0.1,0 z M 33.1,25.4 c 0,0 -0.1,0 -0.1,0 l -0.1,-0.1 -0.1,-0.1 -0.1,-0.1 0,-0.1 0,-0.1 0,-0.1 0,-0.1 0.1,-0.1 0.1,-0.1 0.1,0 0.1,-0.1 0.1,0.1 0.1,0 0.2,0.1 0.1,0.1 0,0.1 0,0.1 0,0.1 0,0.1 -0.1,0.1 -0.1,0.1 -0.1,0.1 -0.1,0 -0.1,0 z m 23.7,-1.1 -0.1,0 -0.1,0 -0.1,-0.1 0,-0.1 -0.1,-0.1 0,-0.1 0,-0.1 0.1,-0.1 0.1,-0.1 0.1,0 0,-0.1 0.1,0 0.1,0 0.1,0.1 0.1,0 0.1,0.1 0,0.1 0,0.1 0,0.1 0,0.1 -0.1,0.1 -0.1,0.1 -0.1,0 -0.1,0 z m 0,-2.5 -0.1,0 -0.1,0 -0.1,-0.1 0,-0.1 -0.1,-0.1 0,-0.1 0,-0.1 0.1,-0.1 0.1,-0.1 0.1,0 0,-0.1 0.1,0 0.1,0 0.1,0.1 0.1,0 0.1,0.1 0,0.1 0,0.1 0,0.1 0,0.1 -0.1,0.1 -0.1,0.1 -0.1,0 -0.1,0 z m 0,-2.5 -0.1,0 -0.1,0 -0.1,-0.1 0,-0.1 -0.1,-0.1 0,-0.1 0,-0.1 0.1,-0.1 0.1,-0.1 0.1,0 0,0 0.1,0 0.1,0 0.1,0 0.1,0 0.1,0.1 0,0.1 0,0.1 0,0.1 0,0.1 -0.1,0.1 -0.1,0.1 -0.1,0 -0.1,0 z m 0,-2.5 -0.1,0 -0.1,0 -0.1,-0.1 0,-0.1 -0.1,-0.1 0,-0.1 0,0 0.1,-0.1 0.1,-0.1 0.1,-0.1 0,0 0.1,0 0.1,0 0.1,0 0.1,0.1 0.1,0.1 0,0.1 0,0.1 0,0 0,0.1 -0.1,0.1 -0.1,0.1 -0.1,0 -0.1,0 z m -17,-0.5 -0.1,0 -0.1,-0.1 -0.1,0 -0.1,-0.1 0,-0.1 0,-0.1 0,-0.1 0.1,-0.1 0,-0.1 0.1,0 0.1,-0.1 0.1,0 0.1,0 0.1,0.1 0.1,0 0,0.1 0.1,0.1 0,0.1 0,0.1 -0.1,0.1 0,0.1 -0.1,0.1 -0.1,0 -0.1,0 z m 6.9,-1.6 -0.1,0 -0.1,-0.1 -0.1,0 0,-0.1 0,-0.1 0,-0.1 0,-0.1 0,-0.1 0.1,-0.1 0.1,0 0.1,-0.1 0,0 0.1,0 0.1,0.1 0.1,0 0.1,0.1 0,0.1 0,0.1 0,0.1 0,0.1 -0.1,0.1 -0.1,0 -0.1,0.1 -0.1,0 z m 10.1,-0.4 -0.1,0 -0.1,0 -0.1,-0.1 0,-0.1 -0.1,-0.1 0,0 0,-0.1 0.1,-0.1 0.1,-0.1 0.1,-0.1 0,0 0.1,0 0.1,0 0.1,0 0.1,0.1 0.1,0.1 0,0.1 0,0.1 0,0.1 0,0.1 -0.1,0.1 -0.1,0 -0.1,0 -0.1,0 z m 0,-2.4 -0.1,0 -0.1,-0.1 -0.1,-0.1 0,-0.1 -0.1,-0.1 0,0 0,-0.1 0.1,-0.1 0.1,-0.1 0.1,-0.1 0,0 0.1,0 0.1,0 0.1,0 0.1,0.1 0.1,0.1 0,0.1 0,0.1 0,0.1 0,0.1 -0.1,0.1 -0.1,0 -0.1,0.1 -0.1,0 z m 0,-2.54 -0.1,0 -0.1,-0.1 -0.1,-0.1 0,-0.1 -0.1,-0.1 0,-0.1 0,-0.1 0.1,-0.1 0.1,-0.1 0.1,-0 0,-0 0.1,0 0.1,0 0.1,0 0.1,0 0.1,0.1 0,0.1 0,0.1 0,0.1 0,0.1 -0.1,0.1 -0.1,0.1 -0.1,0 -0.1,0 z m -17,-0.52 -0.1,0 -0.1,-0.1 -0.1,-0.1 -0.1,-0.1 0,-0.1 0,-0.1 0,-0.1 0.1,-0.1 0,-0.1 0.1,-0 0.1,-0 0.1,0 0.1,0 0.1,0 0.1,0 0,0.1 0.1,0.1 0,0.1 0,0.1 -0.1,0.1 0,0.1 -0.1,0 -0.1,0.1 -0.1,0 z m 17,-1.97 -0.1,0 -0.1,-0.1 -0.1,-0.1 0,-0.1 -0.1,-0.1 0,-0.1 0,-0.1 0.1,-0.1 0.1,-0.1 0.1,-0.1 0,-0 0.1,0 0.1,0 0.1,0 0.1,0.1 0.1,0.1 0,0.1 0,0.1 0,0.1 0,0.1 -0.1,0.1 -0.1,0 -0.1,0 -0.1,0 z M 48,6.25 l 0,0 -0.1,-0.1 -0.1,-0.1 -0.1,-0.1 0,-0.1 0,-0.1 0,-0.1 0,-0.1 0.1,-0.1 0.1,-0.1 0.1,-0 0,0 0.1,0 0.1,0 0.1,0.1 0.1,0.1 0,0.1 0,0.1 0,0.1 0,0.1 -0.1,0.1 -0.1,0 -0.1,0 -0.1,0 z m 3.8,-1.71 -0.8,0 -0.1,-0.1 -0.2,-0.1 -0.7,-0 -0.8,-0 -0.2,0 -0.2,0.1 -0.8,-0 -0.8,-0 -0.1,-0.1 -0.1,-0.1 0,-0.1 -0.1,-0.1 0,-0.7 0,-0.7 0,-0.1 C 47,2.54 47,2.46 47.1,2.41 l 0,-0.1 0.1,-0 0.2,-0 0.7,0 0.7,0 0.1,0.1 c 0.1,0 0.2,0.1 0.2,0.1 l 0,0 0.8,0 0.9,0 0.1,-0 0.1,-0.1 0.7,-0 0.8,-0 0.1,0.1 0.1,0 0.1,0.11 0.1,0.11 0,0.84 0,0.83 -0.2,0.13 -0.1,0.12 -0.8,0 z m 0,-0.44 0.6,0 0,-0.67 0,-0.67 -0.6,0 -0.7,0 0,0.1 0,0.1 -1.2,0 -1.2,0 0,-0.11 0,-0.11 -0.7,0 -0.6,0 0,0.67 0,0.67 0.6,0 0.7,0 0,-0 0,-0 1.2,0 1.2,0 0,0.1 0,0.1 0.7,0 z m 0,-0.28 -0.1,0 -0.1,-0.1 -0.1,-0.1 -0.1,-0.1 0,-0.1 0,-0.1 0,-0.1 0,-0.1 0.1,-0.1 0.1,-0.1 0.1,-0 0.1,0 0.1,0 0,0 0.1,0.1 0.1,0.1 0.1,0.1 0,0.1 0,0.1 -0.1,0.1 -0.1,0.1 -0.1,0 0,0 -0.1,0 z m -3.8,-0.1 0,0 -0.1,-0.1 -0.1,-0.1 -0.1,-0.1 0,-0.1 0,-0.1 0,-0.1 0,-0.1 0.1,-0.1 0.1,-0.1 0.1,-0 0,0 0.1,0 0.1,0 0.1,0.1 0.1,0.1 0,0.1 0,0.1 0,0.1 0,0.1 -0.1,0.1 -0.1,0 -0.1,0 -0.1,0 z m -29.8,40.94 14.9,0 0,-5.4 0,-5.4 -0.1,0 0,-0.1 -1.2,0 -1.1,0 0,-3.6 0,-3.6 -0.2,0 -0.1,0 0,0.7 0,0.7 0,3 0,3 0,0 0.1,0.1 1.1,0 1.2,0 0,4.8 0,4.8 -14.4,0 -14.48,0 0,-6.1 0,-6 0.11,0 0.11,0 0,-0.7 0,-0.6 -0.67,0 -0.66,0 0,0.6 0,0.7 0,0 0,0 0,6.3 0,6.4 0.1,0.1 0.1,0.1 0.14,0.1 0.14,0.1 14.88,0 z M 3.47,31.3 l -0.1,0 -0.1,0 -0.1,-0.1 -0.1,-0.1 -0,-0.1 0,-0.1 0,-0.1 0.1,-0.1 0.1,-0.1 0.1,0 0.1,-0.1 0.1,0 0.1,0 0.1,0.1 0.1,0 0.1,0.1 0.1,0.1 0,0.1 0,0.1 -0.1,0.1 -0.1,0.1 -0.1,0.1 -0.1,0 -0.1,0 z M 19,42.9 l 12.9,0 0,-3.8 0,-3.7 -0.1,-0.1 0,0 -0.8,0 -0.8,0 0,-4.3 0,-4.3 -0.2,0 -0.1,0 0,0.4 0,0.5 0,0 0,0 0,3.9 0,4 0.1,0 0,0.1 0.8,0 0.8,0 0,3.1 0,3.2 -12.5,0 -12.44,0 0,-6.8 0,-6.7 -0.1,-0.2 -0.1,-0.1 -0.16,-0.1 -0.15,-0.1 -1.04,0 -1.03,0 0,-0.1 0,0 -0.67,0 -0.66,0 0,0.6 0,0.7 0.66,0 0.67,0 0,-0.1 0,0 0.75,0 0.74,0 0,6.7 0,6.8 0.1,0.1 0.1,0.2 0.14,0 0.14,0.1 12.95,0 z M 3.47,28.8 l -0.1,0 -0.1,0 -0.1,-0.1 -0.1,-0.1 -0,-0.1 0,-0.1 0,-0.1 0.1,-0.1 0.1,-0.1 0.1,0 0.1,0 0.1,0 0.1,0 0.1,0 0.1,0 0.1,0.1 0.1,0.1 0,0.1 0,0.1 -0.1,0.1 -0.1,0.1 -0.1,0.1 -0.1,0 -0.1,0 z m 15.83,12.5 11.4,0 0,-2.4 0,-2.5 0,0 -0.1,-0.1 -0.4,0 -0.5,0 0,-4.8 0,-4.9 -0.2,0 -0.1,0 0,0.5 0,0.5 0,0 0,0 0,4.4 0,4.5 0.1,0 0,0.1 0.5,0 0.5,0 0,1.9 0,1.8 -11,0 -10.98,0 0,-7.2 0,-7.2 -0.1,-0.2 -0.1,-0.1 -0.14,-0.1 -0.14,-0.1 -1.98,0 -1.98,0 0,0 0,-0.1 -0.67,0 -0.66,0 0,0.6 0,0.7 0.66,0 0.67,0 0,-0.1 0,0 1.68,0 1.67,0 0,7.2 0,7.2 0.1,0.2 0.1,0.1 0.14,0.1 0.14,0 11.39,0 z m -15.83,-15 -0.1,0 -0.1,0 -0.1,-0.1 -0.1,-0.1 -0,-0.1 0,-0.1 0,0 0.1,-0.1 0.1,-0.1 0.1,-0.1 0.1,0 0.1,0 0.1,0 0.1,0 0.1,0.1 0.1,0.1 0.1,0.1 0,0 0,0.1 -0.1,0.1 -0.1,0.1 -0.1,0.1 -0.1,0 -0.1,0 z m 35.73,14.6 0.7,0 0,-0.7 0,-0.7 -0.7,0 -0.7,0 0,0.2 0,0.2 -2.3,0 -2.3,0 0,-3.4 0,-3.4 -0.1,-0.1 0,0 -1.3,0 -1.3,0 0,-3.2 0,-3.1 -0.2,0 -0.1,0 0,0.6 0,0.7 0,2.6 0,2.6 0,0 0.1,0.1 1.3,0 1.3,0 0,3.6 0,3.6 2.5,0 2.4,0 0,0.2 0,0.2 0.7,0 z m 0,-0.3 -0.1,0 -0.1,-0.1 -0.1,-0.1 0,0 -0.1,-0.1 0,-0.1 0,-0.1 0.1,-0.1 0,-0.1 0.1,-0.1 0.1,0 0.1,0 0.1,0 0.1,0 0.1,0.1 0,0.1 0.1,0.1 0,0.1 0,0.1 -0.1,0.1 0,0.1 -0.1,0 -0.1,0.1 -0.1,0 z m -19.7,-1.2 9.7,0 0,-0.1 c 0,0 0,-2.8 0,-6.3 l 0,-6.3 -0.1,0 -0.2,0 0,5.8 0,5.9 -9.2,0 -9.3,0 0,-7.5 0,-7.5 -0.1,-0.2 -0.1,-0.1 -0.1,-0.1 -0.14,-0.1 -2.91,0 -2.91,0 0,0 0,-0.1 -0.67,0 -0.66,0 0,0.7 0,0.6 0.66,0 0.67,0 0,-0.1 0,0 2.61,0 2.61,0 0,7.5 0,7.5 0.1,0.1 0.1,0.1 0.13,0.1 0.14,0.1 9.73,0 z M 3.47,23.8 l -0.1,0 -0.1,0 -0.1,-0.1 -0.1,-0.1 -0,-0.1 0,0 0,-0.1 0.1,-0.1 0.1,-0.1 0.1,-0.1 0.1,0 0.1,0 0.1,0 0.1,0 0.1,0.1 0.1,0.1 0.1,0.1 0,0.1 0,0.1 -0.1,0.1 -0.1,0.1 -0.1,0 -0.1,0 -0.1,0 z M 36.7,39 l 2.6,0 0,-0.3 0,-0.3 0.3,0 0.3,0 0,-0.7 0,-0.7 -0.7,0 -0.7,0 0,0.7 0,0.6 -2,0 -2,0 0,-3 0,-3.1 -0.1,-0.1 0,-0.1 -0.9,0 -0.8,0 0,-2.7 0,-2.6 -0.2,0 -0.2,0 0,2.8 0,2.8 1,0 0.9,0 0,3.3 0,3.4 2.5,0 z m 2.5,-0.9 -0.1,0 -0.1,-0.1 -0.1,0 0,-0.1 -0.1,-0.1 0,-0.1 0,-0.1 0.1,-0.1 0,-0.1 0.1,-0.1 0.1,0 0.1,0 0.1,0 0.1,0 0.1,0.1 0,0.1 0.1,0.1 0,0.1 0,0.1 -0.1,0.1 0,0.1 -0.1,0 -0.1,0.1 -0.1,0 z m -2.8,-0.3 1.5,0 0,-0.7 0,-0.7 1,0 1,0 0,-0.9 0,-1 -0.7,0 -0.7,0 0,0.6 0,0.6 -0.6,0 -0.6,0 0,0.6 0,0.5 -1.1,0 -1.2,0 0,-2.8 0,-2.9 0,0 -0.1,-0.1 -0.9,0 -0.9,0 0,-2.2 0.1,-2.1 -0.2,0 -0.2,0 0,0.6 c 0,0.4 0.1,1.4 0.1,2.3 l 0,1.6 0,0 0,0.1 0.9,0 0.9,0 0,3.2 0,3.3 0.1,0 c 0,0 0.7,0 1.6,0 z m 2.8,-2.2 -0.1,0 -0.1,-0.1 -0.1,0 0,-0.1 -0.1,-0.1 0,-0.1 0,-0.1 0.1,-0.1 0,-0.1 0.1,0 0.1,-0.1 0.1,0 0.1,0 0.1,0.1 0.1,0 0,0.1 0.1,0.1 0,0.1 0,0.1 -0.1,0.1 0,0.1 -0.1,0 -0.1,0.1 -0.1,0 z m -19.5,1.5 1.7,0 0,-2.3 0,-2.4 -1.7,0 -1.8,0 0,2.4 0,2.3 1.8,0 z m -0.4,-0.3 -0.1,0 -0.1,-0.1 -0.1,0 0,-0.1 -0.1,-0.1 0,-0.1 0,-0.1 0.1,-0.1 0.1,-0.1 0.1,0 0.1,-0.1 0,0 0.1,0 0.1,0.1 0.1,0 0.1,0.1 0,0.1 0,0.1 0,0.1 0,0.1 -0.1,0.1 -0.1,0.1 -0.1,0 -0.1,0 z m -7.4,0.3 0.7,0 0,-0.7 0,-0.7 -0.7,0 -0.7,0 0,0.7 0,0.7 0.7,0 z m 0,-0.3 -0.1,0 -0.1,-0.1 -0.1,0 -0.1,-0.1 0,-0.1 0,-0.1 0,-0.1 0.1,-0.1 0,-0.1 0.1,0 0.1,-0.1 0.1,0 0.1,0 0.1,0.1 0.1,0 0,0.1 0.1,0.1 0,0.1 0,0.1 -0.1,0.1 0,0.1 -0.1,0.1 -0.1,0 -0.1,0 z m 11.7,0.3 1.7,0 0,-2.4 0,-2.3 -1.7,0 -1.7,0 0,2.3 0,2.4 1.7,0 z m 2.5,0 0.3,0 0,-0.3 0,-0.2 0.8,0 0.7,0 0.1,0 0,-0.1 0,-4.2 0,-4.3 0.3,0 0.3,0 0.1,0 0,0 0,-0.3 c 0,-0.1 0.1,-0.4 0.1,-0.6 l 0,-0.4 -0.2,0 -0.2,0 0,0.5 0,0.5 -0.3,0 -0.3,0 0,0.1 -0.1,0 0,4.3 0,4.3 -0.6,0 -0.7,0 0,-0.2 0,-0.2 -0.3,0 -0.3,0 0,0.5 0,0.6 0.3,0 z m 9.8,-0.7 0.6,0 0,-0.6 0,-0.6 0.7,0 0.6,0 0,-4.1 0,-4.1 -0.7,0 c -0.3,0 -1.2,0 -1.8,0 l -1.2,0 0,-0.2 0,-0.1 -0.1,0 -0.2,0 0,0.4 0,0.5 0.2,0 0.1,0 0,-0.2 0,-0.2 1.6,0 1.5,0 0,3.7 0,3.6 -0.8,0 -0.8,0 0,0.3 0,0.3 -0.2,0 -0.2,0 0,0.6 0,0.7 0.7,0 z m 0,-0.3 -0.1,0 -0.1,0 -0.1,-0.1 -0.1,-0.1 0,-0.1 0,-0.1 0,-0.1 0.1,-0.1 0,-0.1 0.1,0 0.1,-0.1 0.1,0 0.1,0 0.1,0.1 0,0 0.1,0.1 0.1,0.1 0,0.1 0,0.1 -0.1,0.1 -0.1,0.1 0,0.1 -0.1,0 -0.1,0 z m 6.7,-0.2 0.7,0 0,-0.7 0,-0.6 -0.7,0 -0.7,0 0,0.1 0,0.2 -0.3,0 -0.3,0 0,-4.6 0,-4.5 -2.6,0 -2.7,0 -0.6,0 -0.7,-0.1 0,0.2 0,0.2 3,0 3,0 0,4.5 0,4.6 0,0.1 0,0.1 0.1,0 0.1,0.1 0.5,0 0.5,0 0,0.2 0,0.2 0.7,0 z m 0,-0.3 -0.1,0 -0.1,0 -0.1,-0.1 0,-0.1 -0.1,-0.1 0,-0.1 0,-0.1 0.1,-0.1 0,-0.1 0.1,0 0.1,-0.1 0.1,0 0.1,0 0.1,0.1 0.1,0 0,0.1 0.1,0.1 0,0.1 0,0.1 -0.1,0.1 0,0.1 -0.1,0.1 -0.1,0 -0.1,0 z m 2.5,0.3 0.7,0 0,-0.7 0,-0.6 -0.2,0 -0.2,0 0,-0.6 0,-0.5 -0.1,-0.1 c 0,0 0,-0.1 -0.1,-0.1 l 0,0 -1.1,0 -1.1,-0.1 0,-3.9 0,-4 -3.5,0 -3.5,0 -0.6,0 -0.7,-0.1 0,0.2 0,0.2 3.8,0 3.9,0 0,3.9 0,4 0,0.1 0,0.1 0.1,0.1 0.1,0.1 1.1,0 1.1,0 0,0.3 0,0.4 -0.2,0 -0.2,0 0,0.6 0,0.7 0.7,0 z m 0,-0.3 -0.1,0 -0.1,0 -0.1,-0.1 0,-0.1 -0.1,-0.1 0,-0.1 0,-0.1 0.1,-0.1 0,-0.1 0.1,0 0.1,-0.1 0.1,0 0.1,0 0.1,0.1 0.1,0 0,0.1 0.1,0.1 0,0.1 0,0.1 -0.1,0.1 0,0.1 -0.1,0.1 -0.1,0 -0.1,0 z m 2.5,0.3 0.6,0 0,-0.7 0,-0.6 -0.1,0 -0.2,0 0,-1.3 0,-1.3 -0.1,0 -0.1,-0.1 -0.1,0 -0.1,0 -1.4,0 -1.3,0 0,-3.6 0,-3.5 -4.4,0 -4.4,0 -0.6,0 -0.7,-0.1 0,0.2 0,0.2 4.7,0 4.7,0 0,3.5 0,3.5 0.1,0.1 0,0.1 0.1,0.1 0,0.1 1.5,0 1.5,0 0,1 0,1.1 -0.2,0 -0.2,0 0,0.6 0,0.7 0.7,0 z m 0,-0.3 -0.1,0 -0.1,0 -0.1,-0.1 -0.1,-0.1 0,-0.1 0,-0.1 0,-0.1 0.1,-0.1 0,-0.1 0.1,0 0.1,-0.1 0.1,0 0.1,0 0.1,0.1 0,0 0.1,0.1 0.1,0.1 0,0.1 0,0.1 -0.1,0.1 -0.1,0.1 0,0.1 -0.1,0 -0.1,0 z m 2.5,0.3 0.6,0 0,-0.7 0,-0.6 -0.2,0 -0.1,0 0,-1.9 0,-1.8 -0.1,-0.1 -0.1,-0.1 -0.1,0 -0.1,0 -1.9,0 -2,0 0,-3.2 0,-3.2 -5,0 -5.1,0 -0.6,0 -0.7,0 0,0.1 0,0.2 5.4,0 5.4,0 0,3.2 0,3.2 0,0.1 0.1,0.1 0,0 0.1,0.1 2,0 2,0 0,1.6 0,1.7 -0.1,0 -0.2,0 0,0.6 0,0.7 0.7,0 z m 0,-0.3 -0.1,0 -0.1,0 -0.1,-0.1 -0.1,-0.1 0,-0.1 0,-0.1 0,-0.1 0,-0.1 0.1,-0.1 0.1,0 0.1,-0.1 0.1,0 0,0 0.1,0.1 0.1,0 0.1,0.1 0.1,0.1 0,0.1 0,0.1 -0.1,0.1 -0.1,0.1 -0.1,0.1 -0.1,0 0,0 z m 2.4,0.3 0.7,0 0,-0.7 0,-0.6 -0.2,0 -0.2,0 0,-2.5 0,-2.5 0,-0.1 -0.1,0 -0.1,-0.1 -0.1,0 -2.3,0 -2.3,0 0,-2.8 0,-2.8 -5.9,0 -6,0 -0.6,0 -0.7,0 0,0.1 0,0.2 6.3,0 6.3,0 0,2.8 0,2.8 0,0.1 0,0.1 0.1,0.1 0.1,0 2.3,0 2.4,0 0,2.3 0,2.3 -0.2,0 -0.1,0 0,0.6 0,0.7 0.6,0 z m 0,-0.3 0,0 -0.1,0 -0.1,-0.1 -0.1,-0.1 0,-0.1 0,-0.1 0,-0.1 0,-0.1 0.1,-0.1 0.1,0 0.1,-0.1 0,0 0.1,0 0.1,0.1 0.1,0 0.1,0.1 0,0.1 0,0.1 0,0.1 0,0.1 -0.1,0.1 -0.1,0.1 -0.1,0 -0.1,0 z m 2.5,0.3 0.7,0 0,-0.7 0,-0.6 -0.2,0 -0.2,0 0,-3.2 0,-3.1 -0.1,-0.1 0,-0.1 -0.1,0 -0.2,0 -2.7,0 -2.7,0 0,-2.6 0,-2.6 -6.8,0 -6.7,0 -0.6,-0.1 -0.7,0 0,0.2 0,0.1 7.1,0 7,0 0,2.6 0,2.7 0.1,0.1 0,0 0.1,0.1 0,0.1 2.9,0 2.8,0 0,2.9 0,3 -0.2,0 -0.1,0 0,0.6 0,0.7 0.6,0 z m 0,-0.3 -0.1,0 -0.1,0 -0.1,-0.1 0,-0.1 -0.1,-0.1 0,-0.1 0,-0.1 0.1,-0.1 0.1,-0.1 0.1,0 0,-0.1 0.1,0 0.1,0 0.1,0.1 0.1,0 0.1,0.1 0,0.1 0,0.1 0,0.1 0,0.1 -0.1,0.1 -0.1,0.1 -0.1,0 -0.1,0 z m 2.5,0.3 0.7,0 0,-0.7 0,-0.6 -0.2,0 -0.2,0 0,-3.8 0,-3.8 -0.1,-0.1 0,-0.1 -0.2,0 -0.1,0 -3.2,0 -3.2,0 0,-2.2 0,-2.2 -7.5,0 -7.5,0 -0.6,-0.1 -0.7,0 0,0.2 0,0.1 7.9,0 7.8,0 0,2.2 0,2.2 0,0.1 0.1,0.1 0,0.1 0.1,0.1 3.3,0 3.3,0 0,3.6 0,3.6 -0.2,0 -0.2,0 0,0.6 0,0.7 0.7,0 z m 0,-0.3 -0.1,0 -0.1,0 -0.1,-0.1 0,-0.1 -0.1,-0.1 0,-0.1 0,-0.1 0.1,-0.1 0,-0.1 0.1,0 0.1,-0.1 0.1,0 0.1,0 0.1,0.1 0.1,0 0,0.1 0.1,0.1 0,0.1 0,0.1 -0.1,0.1 0,0.1 -0.1,0.1 -0.1,0 -0.1,0 z m 2.5,0.3 0.7,0 0,-0.7 0,-0.6 -0.2,0 -0.2,0 0,-4.4 0,-4.4 -0.1,-0.1 -0.1,-0.1 -0.1,0 -0.1,0 -3.7,0 -3.8,0 0,-1.9 0,-1.8 -8.2,0 -8.2,0 -0.6,-0.1 -0.7,0 0,0.2 0,0.1 8.5,0 8.6,0 0,1.9 0,1.9 0,0.1 0,0.1 0.1,0 0.1,0.1 3.8,0 3.9,0 0,4.2 0,4.2 -0.2,0 -0.2,0 0,0.6 0,0.7 0.7,0 z m 0,-0.3 -0.1,0 -0.1,0 -0.1,-0.1 0,-0.1 -0.1,-0.1 0,-0.1 0,-0.1 0.1,-0.1 0,-0.1 0.1,0 0.1,-0.1 0.1,0 0.1,0 0.1,0.1 0.1,0 0,0.1 0.1,0.1 0,0.1 0,0.1 -0.1,0.1 0,0.1 -0.1,0.1 -0.1,0 -0.1,0 z m -33.9,-0.3 0.3,0 0,-0.2 0,-0.3 0.4,0 0.3,0 0,-0.1 0.1,0 0,-4.3 0,-4.3 0.3,0 0.4,0 0,-0.2 0,-0.2 -0.5,0 -0.4,0 -0.1,0.1 0,0.1 0,4.3 0,4.3 -0.2,0 -0.3,0 0,-0.2 0,-0.2 -0.3,0 -0.3,0 0,0.6 0,0.6 0.3,0 z m -13.5,-0.9 1.3,0 0.1,0 0,-0.1 0,-1.2 0,-1.3 0.2,0 0.2,0 0,-0.8 0,-0.8 -0.2,0 -0.2,0 0,-0.5 0,-0.6 0.3,0 0.2,0 0,-0.8 0,-0.8 -0.2,0 -0.3,0 0,-0.4 0,-0.3 0.2,0 0.3,0 0,-0.8 0,-0.8 -0.3,0 -0.2,0 0,-0.4 0,-0.5 0.2,0 0.2,0 0,-0.8 0,-0.8 -0.2,0 -0.2,0 0,-0.5 0,-0.5 0.2,0 0.2,0 0,-0.8 0,-0.8 -0.2,0 -0.2,0 0,-0.5 0,-0.6 0.2,0 0.2,0 0,-0.8 0,-0.8 -0.2,0 -0.2,0 0,-0.5 0,-0.6 0.2,0 0.2,0 0,-0.8 0,-0.7 -0.2,0 -0.2,0 0,-0.5 0,-0.4 0.2,0 0.2,0 0,-0.8 0,-0.8 -0.2,0 -0.2,0 0,-0.2 0,-0.2 0,-0.1 -0.1,0 -1.3,0 -1.2,0 -0.1,0 0,0.1 0,11.2 0,11.2 0,0.1 0.1,0 1.2,0 z m 0,-0.3 C 12.5,34.1 12.5,34 12.4,34 l -0.1,0 -0.1,-0.1 0,-0.1 -0.1,-0.1 0,-0.1 0,-0.1 0.1,-0.1 0,-0.1 0.1,-0.1 0.2,-0.1 0.1,0 0.1,0 0.1,0 0.1,0.1 0.1,0.1 0.1,0.1 0,0.2 0,0.1 -0.1,0.1 0,0.1 -0.1,0.1 -0.1,0 -0.1,0.1 -0.1,0 z m 23.3,-0.2 0.6,0 0,-0.7 0,-0.6 -0.6,0 -0.7,0 0,0.6 0,0.7 0.7,0 z m 0,-0.3 -0.1,0 -0.1,0 -0.1,-0.1 -0.1,-0.1 0,-0.1 0,-0.1 0,-0.1 0.1,-0.1 0,-0.1 0.1,0 0.1,-0.1 0.1,0 0.1,0 0.1,0.1 0,0 0.1,0.1 0.1,0.1 0,0.1 0,0.1 -0.1,0.1 -0.1,0.1 0,0.1 -0.1,0 -0.1,0 z m -9.8,-0.1 0.3,0 0,-0.5 0,-0.6 -0.1,0 -0.1,0 0,-3.4 0,-3.4 0.8,0 0.9,0 0,-0.2 0,-0.2 -0.3,0 c -0.1,0 -0.5,0.1 -0.9,0.1 l -0.7,0 0,0 0,0.1 0,3.5 0,3.5 -0.1,0 -0.1,0 0,0.6 0,0.5 0.3,0 z m 13.1,-0.1 0.7,0 0,-0.7 0,-0.7 -0.7,0 -0.7,0 0,0.7 0,0.7 0.7,0 z m 0,-0.3 -0.1,0 -0.1,-0.1 -0.1,0 0,-0.1 -0.1,-0.1 0,-0.1 0,-0.1 0.1,-0.1 0,-0.1 0.1,0 0.1,-0.1 0.1,0 0.1,0 0.1,0.1 0.1,0 0,0.1 0.1,0.1 0,0.1 0,0.1 -0.1,0.1 0,0.1 -0.1,0 -0.1,0.1 -0.1,0 z m -23.6,-1.3 0.7,0 0,-0.3 0,-0.4 1.1,0 1.1,0 0,0.2 0,0.2 0.7,0 0.6,0 0,-0.2 0,-0.2 2.3,0 2.2,0 0,-3 0,-3 1.8,0 1.8,0 0,-0.2 0,-0.1 -1.9,0 -1.9,0 0,0 -0.1,0.1 0,2.8 0,2.8 -2.1,0 -2.1,0 0,-0.2 0,-0.1 -0.6,0 -0.7,0 0,0.1 0,0.2 -1.1,0 -1.1,0 0,-0.1 0,-0.2 -0.7,0 -0.6,0 0,0.8 0,0.8 0.6,0 z m 3.6,-0.6 -0.1,0 -0.1,0 -0.1,-0.1 -0.1,-0.1 0,-0.1 0,-0.1 0,-0.1 0.1,-0.1 0,-0.1 0.1,0 0.1,-0.1 0.1,0 0.1,0 0.1,0.1 0,0 0.1,0.1 0.1,0.1 0,0.1 0,0.1 -0.1,0.1 -0.1,0.1 0,0.1 -0.1,0 -0.1,0 z m 16.7,0.6 0.6,0 0,-0.7 0,-0.7 -0.6,0 -0.7,0 0,0.7 0,0.7 0.7,0 z m 0,-0.3 -0.1,0 -0.1,-0.1 -0.1,0 -0.1,-0.1 0,-0.1 0,-0.1 0,-0.1 0.1,-0.1 0,-0.1 0.1,-0.1 0.1,0 0.1,0 0.1,0 0.1,0 0,0.1 0.1,0.1 0.1,0.1 0,0.1 0,0.1 -0.1,0.1 -0.1,0.1 0,0 -0.1,0.1 -0.1,0 z m 0,-2.2 0.6,0 0,-0.7 0,-0.7 -0.6,0 -0.7,0 0,0.2 0,0.2 -0.8,0 -0.8,0 0,-0.8 0,-0.8 -0.1,0 -0.2,0 0,0.4 0,0.5 0,0 0.1,0 0,0.4 0,0.5 0,0.1 0.1,0 0.8,0 0.9,0 0,0.3 0,0.4 0.7,0 z m 0,-0.3 -0.1,0 -0.1,-0.1 -0.1,0 -0.1,-0.1 0,-0.1 0,-0.1 0,-0.1 0.1,-0.1 0,-0.1 0.1,0 0.1,-0.1 0.1,0 0.1,0 0.1,0.1 0,0 0.1,0.1 0.1,0.1 0,0.1 0,0.1 -0.1,0.1 -0.1,0.1 0,0 -0.1,0.1 -0.1,0 z m -20.2,0.1 0.6,0 0,-0.2 0,-0.2 1.1,0 1.1,0 0,0.1 0,0.2 0.7,0 0.6,0 0,-0.2 0,-0.1 1.7,0 1.6,0 0,-2.1 0,-2 2.4,0 2.4,0 0,-0.2 0,-0.1 -2.5,0 -2.5,0 0,0.1 -0.1,0 0,1.8 0,1.9 -1.5,0 -1.5,0 0,-0.2 0,-0.2 -0.6,0 -0.7,0 0,0.2 0,0.2 -1.1,0 -1.1,0 0,-0.3 0,-0.3 -0.6,0 -0.6,0 0,0.8 0,0.8 0.6,0 z m 3.5,-0.4 -0.1,0 -0.1,0 -0.1,-0.1 -0.1,-0.1 0,-0.1 0,-0.1 0,0 0.1,-0.1 0,-0.1 0.1,-0.1 0.1,0 0.1,0 0.1,0 0.1,0 0,0.1 0.1,0.1 0.1,0.1 0,0 0,0.1 -0.1,0.1 -0.1,0.1 0,0.1 -0.1,0 -0.1,0 z m 12.3,-1.1 0.2,0 0,-0.5 0,-0.4 -0.1,0 0,0 0,-0.4 0,-0.4 -0.1,0 -0.1,0 0,-2.5 0,-2.5 -1.6,0 c -0.8,0 -1.8,0 -2.2,0 l -0.6,-0.1 0,0.2 0,0.2 0.6,0 0.7,0 0,2.6 0,2.5 1.5,0 1.5,0 0,0.6 0,0.7 0.2,0 z m -1.4,-2.3 -0.1,0 -0.1,-0.1 -0.1,0 -0.1,-0.1 0,-0.1 0,-0.1 0,-0.1 0,-0.1 0.1,-0.1 0.1,-0.1 0.1,0 0.1,0 0.1,0 0,0 0.1,0.1 0.1,0.1 0.1,0.1 0,0.1 0,0.1 -0.1,0.1 -0.1,0.1 -0.1,0 0,0.1 -0.1,0 z m 1.9,2.3 0.2,0 0,-0.7 -0.1,-0.7 0,-2.9 0,-2.9 -0.7,0 -0.7,0 0,-0.3 0,-0.3 0.3,0 0.2,0 0,-0.5 0,-0.4 -0.4,0 -0.4,0 0,0.7 0,0.8 -1.2,0 -1.3,0 0,-3.6 0,-3.6 0,-0.1 -0.1,-0.1 -1.1,0 -1,0 0,0.5 0,0.5 0,0 0,0 0,3.4 0,3.3 3,0 2.9,0 0,0 0,0.1 0.1,0 0.2,0 0,3.4 -0.1,3.4 0.2,0 z M 26.9,14.3 c -0.1,0 -0.2,0 -0.2,0 l -0.1,-0.1 -0.1,-0.1 -0.1,-0.1 0,-0.1 0,-0.1 0,-0.1 0,-0.1 0.1,-0.1 0.1,-0.1 0.1,0 0.2,-0.1 0.1,0.1 0.1,0 0.1,0.1 0.1,0.1 0,0.1 0.1,0.1 -0.1,0.1 0,0.1 -0.1,0.1 0,0.1 -0.1,0.1 -0.1,0 -0.1,0 z m -11.2,12.5 0.6,0 0,-0.3 0,-0.4 1.1,0 1.1,0 0,0.2 0,0.2 0.7,0 0.6,0 0,-0.2 0,-0.2 1.3,0 1.2,0 0,-1 0,-1 2.8,0 2.8,0 0,-0.2 0,-0.1 -2.9,0 -2.8,0 -0.1,0.1 -0.1,0 0,0.8 0,0.8 -1.1,0 -1.1,0 0,-0.2 0,-0.1 -0.6,0 -0.7,0 0,0.1 0,0.2 -1.1,0 -1.1,0 0,-0.1 0,-0.2 -0.6,0 -0.6,0 0,0.8 0,0.8 0.6,0 z m 3.5,-0.6 -0.1,0 -0.1,0 -0.1,-0.1 -0.1,-0.1 0,-0.1 0,-0.1 0,0 0.1,-0.1 0,-0.1 0.1,-0.1 0.1,0 0.1,0 0.1,0 0.1,0 0,0.1 0.1,0.1 0.1,0.1 0,0.1 0,0 -0.1,0.1 -0.1,0.1 0,0.1 -0.1,0 -0.1,0 z m 34.3,-1.5 0.2,0 0,0 0,-0.1 0.5,0 c 0.3,0 0.6,0 0.7,0 l 0.1,0 0,-9.4 0,-9.38 -0.6,0 -0.7,0 0,-0 0,-0 -0.2,0 -0.2,0 0,2.23 0,2.19 -3.6,0 -3.6,0 0,0.1 0,0 -3.5,0 -3.5,0 0,0.6 0,0.7 0.1,0 0.1,0 0,0.6 0,0.6 -0.1,0 -0.1,0 0,0.6 0,0.7 0.7,0 0.7,0 0,-0.7 0,-0.6 -0.1,0 -0.1,0 0,-0.6 0,-0.6 0.1,0 0.1,0 0,-0.1 0,-0.2 2.8,0 2.8,0 0,0.1 0,0.1 3.6,0 3.6,0 0,6.6 0,6.6 0.2,0 z m 0.7,-0.4 -0.1,0 -0.1,0 -0.1,-0.1 -0.1,-0.1 0,-0.1 0,-0.1 0,0 0,-0.1 0.1,-0.1 0.1,-0.1 0.1,0 0.1,0 0,0 0.1,0 0.1,0.1 0.1,0.1 0,0.1 0,0.1 0,0 0,0.1 -0.1,0.1 -0.1,0.1 -0.1,0 0,0 z m 0,-2.4 -0.1,0 -0.1,-0.1 -0.1,-0.1 -0.1,-0.1 0,-0.1 0,0 0,-0.1 0,-0.1 0.1,-0.1 0.1,-0.1 0.1,0 0.1,0 0,0 0.1,0 0.1,0.1 0.1,0.1 0,0.1 0,0.1 0,0.1 0,0.1 -0.1,0.1 -0.1,0 -0.1,0.1 0,0 z m 0,-2.5 -0.1,0 -0.1,-0.1 -0.1,-0.1 -0.1,-0.1 0,0 0,-0.1 0,-0.1 0,-0.1 0.1,-0.1 0.1,-0.1 0.1,0 0.1,0 0,0 0.1,0 0.1,0.1 0.1,0.1 0,0.1 0,0.1 0,0.1 0,0.1 -0.1,0.1 -0.1,0 -0.1,0.1 0,0 z m 0,-2.5 -0.1,0 -0.1,-0.1 -0.1,-0.1 -0.1,0 0,-0.1 0,-0.1 0,-0.1 0,-0.1 0.1,-0.1 0.1,-0.1 0.1,0 0.1,0 0,0 0.1,0 0.1,0.1 0.1,0.1 0,0.1 0,0.1 0,0.1 0,0.1 -0.1,0.1 -0.1,0 -0.1,0.1 0,0 z m 0,-2.5 -0.1,0 -0.1,-0.1 -0.1,0 -0.1,-0.1 0,-0.1 0,-0.1 0,-0.1 0,-0.1 0.1,-0.1 0.1,-0.1 0.1,0 0.1,0 0,0 0.1,0 0.1,0.1 0.1,0.1 0,0.1 0,0.1 0,0.1 0,0.1 -0.1,0.1 -0.1,0 -0.1,0.1 0,0 z m -14.4,-0.6 -0.1,0 -0.1,0 -0.1,-0.1 -0.1,-0.1 0,-0.1 0,-0.1 0,-0.1 0.1,-0.1 0,-0.1 0.1,0 0.1,-0.1 0.1,0 0.1,0 0.1,0.1 0.1,0 0,0.1 0.1,0.1 0,0.1 0,0.1 -0.1,0.1 0,0.1 -0.1,0.1 -0.1,0 -0.1,0 z m 14.4,-1.9 -0.1,0 -0.1,-0.1 -0.1,0 -0.1,-0.1 0,-0.1 0,-0.1 0,-0.1 0,-0.1 0.1,-0.1 0.1,0 0.1,-0.1 0.1,0 0,0 0.1,0.1 0.1,0 0.1,0.1 0,0.1 0,0.1 0,0.1 0,0.1 -0.1,0.1 -0.1,0 -0.1,0.1 0,0 z m -14.4,-0.6 -0.1,0 -0.1,0 -0.1,-0.1 -0.1,-0.1 0,-0.1 0,-0.1 0,-0.1 0.1,-0.1 0,-0.1 0.1,0 0.1,-0.1 0.1,0 0.1,0 0.1,0.1 0.1,0 0,0.1 0.1,0.1 0,0.1 0,0.1 -0.1,0.1 0,0.1 -0.1,0.1 -0.1,0 -0.1,0 z m 6.9,0 -0.1,0 -0.1,-0.1 -0.1,-0.1 0,-0.1 0,0 0,-0.1 0,-0.1 0,-0.1 0.1,-0.1 0.1,-0.1 0.1,0 0,0 0.1,0 0.1,0 0.1,0.1 0.1,0.1 0,0.1 0,0.1 0,0.1 0,0.1 -0.1,0.1 -0.1,0 -0.1,0.1 -0.1,0 z m 7.5,-1.9 -0.1,0 -0.1,-0.1 -0.1,-0.1 -0.1,-0.1 0,-0.1 0,-0.1 0,-0.1 0,-0.1 0.1,-0.1 0.1,-0 0.1,-0.1 0.1,0 0,0 0.1,0.1 0.1,0 0.1,0.1 0,0.1 0,0.1 0,0.1 0,0.1 -0.1,0.1 -0.1,0 -0.1,0.1 0,0 z m 0,-2.5 -0.1,0 -0.1,-0.1 -0.1,-0.1 -0.1,-0.1 0,-0.1 0,-0.1 0,-0.1 0,-0.1 0.1,-0.1 0.1,-0 0.1,-0 0.1,0 0,0 0.1,0 0.1,0 0.1,0.1 0,0.1 0,0.1 0,0.1 0,0.1 -0.1,0.1 -0.1,0.1 -0.1,0 0,0 z m 5.8,17.7 0.2,0 0,-0.2 0,-0.1 0,-10.8 0,-10.68 -0.9,0 -0.8,0 0,10.88 0,10.9 0.6,0 c 0.4,0 0.8,0 0.9,0 z m -0.7,-0.3 -0.1,0 0,0 -0.1,-0.1 -0.1,-0.1 0,-0.1 0,-0.1 0,0 0,-0.1 0.1,-0.1 0.1,-0.1 0.1,0 0,0 0.1,0 0.1,0 0.1,0.1 0.1,0.1 0,0.1 0,0.1 0,0 0,0.1 -0.1,0.1 -0.1,0.1 -0.1,0 -0.1,0 z m 0,-2.4 -0.1,0 0,-0.1 -0.1,-0.1 -0.1,-0.1 0,-0.1 0,0 0,-0.1 0,-0.1 0.1,-0.1 0.1,-0.1 0.1,0 0,0 0.1,0 0.1,0 0.1,0.1 0.1,0.1 0,0.1 0,0.1 0,0.1 0,0.1 -0.1,0.1 -0.1,0 -0.1,0.1 -0.1,0 z m 0,-2.5 -0.1,0 0,-0.1 -0.1,-0.1 -0.1,-0.1 0,0 0,-0.1 0,-0.1 0,-0.1 0.1,-0.1 0.1,-0.1 0.1,0 0,0 0.1,0 0.1,0 0.1,0.1 0.1,0.1 0,0.1 0,0.1 0,0.1 0,0.1 -0.1,0.1 -0.1,0 -0.1,0.1 -0.1,0 z m 0,-2.5 -0.1,0 0,-0.1 -0.1,-0.1 -0.1,0 0,-0.1 0,-0.1 0,-0.1 0,-0.1 0.1,-0.1 0.1,-0.1 0.1,0 0,0 0.1,0 0.1,0 0.1,0.1 0.1,0.1 0,0.1 0,0.1 0,0.1 0,0.1 -0.1,0.1 -0.1,0 -0.1,0.1 -0.1,0 z m 0,-2.5 -0.1,0 0,-0.1 -0.1,0 -0.1,-0.1 0,-0.1 0,-0.1 0,-0.1 0,-0.1 0.1,-0.1 0.1,-0.1 0.1,0 0,0 0.1,0 0.1,0 0.1,0.1 0.1,0.1 0,0.1 0,0.1 0,0.1 0,0.1 -0.1,0.1 -0.1,0 -0.1,0.1 -0.1,0 z m 0,-2.5 -0.1,0 0,-0.1 -0.1,0 -0.1,-0.1 0,-0.1 0,-0.1 0,-0.1 0,-0.1 0.1,-0.1 0.1,0 0.1,-0.1 0,0 0.1,0 0.1,0.1 0.1,0 0.1,0.1 0,0.1 0,0.1 0,0.1 0,0.1 -0.1,0.1 -0.1,0 -0.1,0.1 -0.1,0 z m 0,-2.5 -0.1,0 0,-0.1 -0.1,-0.1 -0.1,-0.1 0,-0.1 0,-0.1 0,-0.1 0,-0.1 0.1,-0.1 0.1,-0 0.1,-0.1 0,0 0.1,0 0.1,0.1 0.1,0 0.1,0.1 0,0.1 0,0.1 0,0.1 0,0.1 -0.1,0.1 -0.1,0 -0.1,0.1 -0.1,0 z m 0,-2.5 -0.1,0 0,-0.1 -0.1,-0.1 -0.1,-0.1 0,-0.1 0,-0.1 0,-0.1 0,-0.1 0.1,-0.1 0.1,-0 0.1,-0 0,0 0.1,0 0.1,0 0.1,0 0.1,0.1 0,0.1 0,0.1 0,0.1 0,0.1 -0.1,0.1 -0.1,0.1 -0.1,0 -0.1,0 z m -0.1,-3.08 -0.1,0 -0.1,-0.1 -0.1,-0.1 0,-0.1 -0.1,-0.1 0,-0.1 0,-0.1 0.1,-0.1 0.1,-0.1 0,-0.1 0.1,-0 0.1,0 0.1,0 0.1,0 0.1,0.1 0,0.1 0.1,0.1 0,0.1 0,0.1 -0.1,0.1 0,0.1 -0.1,0 -0.1,0 -0.1,0 z m -43.5,20.48 0.6,0 0,-0.3 0,-0.2 1.1,0 1.1,0 0,0.1 0,0.1 0.7,0 0.6,0 0,-0.2 0,-0.2 4.1,0 4,0 0,-0.2 0,-0.1 -4,0 -4.1,0 0,-0.3 0,-0.3 -0.6,0 -0.7,0 0,0.2 0,0.3 -1.1,0 -1.1,0 0,-0.3 0,-0.2 -0.6,0 -0.7,0 0,0.8 0,0.8 0.7,0 z m 3.5,-0.5 -0.1,0 -0.1,-0.1 -0.1,-0.1 -0.1,-0.1 0,-0.1 0,0 0,-0.1 0.1,-0.1 0,-0.1 0.1,-0.1 0.1,0 0.1,0 0.1,0 0.1,0 0,0.1 0.1,0.1 0.1,0.1 0,0.1 0,0.1 -0.1,0.1 -0.1,0.1 0,0 -0.1,0.1 -0.1,0 z m 15.9,-0.2 0.5,0 0,-0.1 0,-0.2 -0.7,0 -0.7,0 0,-1.5 0,-1.5 0.2,0 0.1,0 0,-0.1 0,-0.1 0.1,0 0.1,0 0,-7 0,-6.88 2.2,0 2.2,0 0,0.2 0,0.2 0.7,0 0.7,0 0,-0.66 0,-0.67 -0.7,0 -0.7,0 0,0.15 0,0.16 -2.3,0 -2.2,0 -0.1,0 -0.1,0 0,7.06 0,7.2 -0.1,0 0,0 0,0 0,0.1 -0.2,0 -0.1,0 0,1.8 0,1.8 0.3,0 c 0.2,0 0.6,0 0.8,0 z m 4.7,-17.26 -0.1,0 -0.1,-0.1 -0.1,-0.1 -0.1,-0.1 0,-0.1 0,-0.1 0,-0.1 0.1,-0.1 0,-0.1 0.1,-0 0.1,-0 0.1,0 0.1,0 0.1,0 0.1,0 0,0.1 0.1,0.1 0,0.1 0,0.1 -0.1,0.1 0,0.1 -0.1,0 -0.1,0 -0.1,0 z m -12.4,16.86 0.5,0 0,-0.2 0,-0.2 -2.8,0 -2.8,0 0,-1.1 0,-1.1 -0.1,0 -0.1,0 -1.1,0 -1.2,0 0,-0.2 0,-0.2 -0.6,0 -0.7,0 0,0.3 0,0.2 -1.1,0 -1.1,0 0,-0.3 0,-0.3 -0.6,0 -0.7,0 0,0.8 0,0.8 0.7,0 0.6,0 0,-0.2 0,-0.2 1.1,0 1.1,0 0,0.1 0,0.1 0.7,0 0.6,0 0,-0.1 0,-0.2 1.1,0 1.1,0 0,0.9 0,0.9 0.1,0.1 0,0 2.4,0 c 1.4,0 2.7,0.1 2.9,0.1 z m -8.2,-1.9 -0.1,0 -0.1,-0.1 -0.1,-0.1 -0.1,-0.1 0,0 0,-0.1 0,-0.1 0.1,-0.1 0,-0.1 0.1,-0.1 0.1,0 0.1,0 0.1,0 0.1,0 0,0.1 0.1,0.1 0.1,0.1 0,0.1 0,0.1 -0.1,0.1 -0.1,0.1 0,0 -0.1,0.1 -0.1,0 z m 8.2,1.4 0.5,0 0,-0.2 0,-0.2 -2.3,0 -2.3,0 0,-2.1 0,-2.1 -1.7,0 -1.8,0 0,-0.2 0,-0.2 -0.6,0 -0.7,0 0,0.1 0,0.1 -1.1,0 -1.1,0 0,-0.3 0,-0.2 -0.7,0 -0.6,0 0,0.8 0,0.8 0.6,0 0.7,0 0,-0.2 0,-0.1 1.1,0 1.1,0 0,0.2 0,0.2 0.7,0 0.6,0 0,-0.2 0,-0.1 1.6,0 1.6,0 0,1.8 0,1.9 0,0.1 0.1,0 1.9,0 c 1.1,0 2.2,0.1 2.4,0.1 z m -8.2,-3.9 -0.1,0 -0.1,-0.1 -0.1,-0.1 -0.1,0 0,-0.1 0,-0.1 0,-0.1 0.1,-0.1 0,-0.1 0.1,-0.1 0.1,0 0.1,0 0.1,0 0.1,0 0,0.1 0.1,0.1 0.1,0.1 0,0.1 0,0.1 -0.1,0.1 -0.1,0.1 0,0 -0.1,0.1 -0.1,0 z m 8.2,3.4 0.5,0 0,-0.2 0,-0.2 -1.8,0 -1.8,0 0,-3.1 0,-3.1 -0.1,0 -0.1,0 -2.1,0 -2.1,0 0,0 -0.1,-0.1 0,-0.1 0,-0.2 -0.6,0 -0.7,0 0,0.2 0,0.1 -1.1,0 -1.2,0 0,-0.4 0,-0.3 -0.6,0 -0.6,0 0,0.7 0,0.8 0.6,0 0.6,0 0,-0.1 0,-0.1 1.2,0 1.1,0 0,0.2 0,0.3 0.7,0 0.6,0 0,-0.2 0,-0.2 2.1,0 2.1,0 0,2.9 0,2.9 0,0.1 0.1,0 1.4,0 c 0.8,0 1.7,0.1 1.9,0.1 z m -8.2,-5.9 -0.1,0 -0.1,-0.1 -0.1,0 -0.1,-0.1 0,-0.1 0,-0.1 0,-0.1 0.1,-0.1 0,-0.1 0.1,-0.1 0.1,0 0.1,0 0.1,0 0.1,0 0,0.1 0.1,0.1 0.1,0.1 0,0.1 0,0.1 -0.1,0.1 -0.1,0.1 0,0 -0.1,0.1 -0.1,0 z m 8.2,5.4 0.5,0 0,-0.2 0,-0.2 -1.3,0 -1.3,0 -0.1,-4.1 0,-4.1 0,0 0,0 -2.7,-0.1 -2.7,0 0,-0.1 0,-0.2 -0.6,0 -0.7,0 0,0.2 0,0.1 -1.1,0 -1.1,0 0,-0.3 0,-0.4 -0.6,0 -0.7,0 0,0.8 0,0.8 0.7,0 0.6,0 0,-0.1 0,-0.1 1.1,0 1.1,0 0,0.2 0,0.2 0.7,0 0.6,0 0,-0.2 0,-0.2 2.6,0 2.5,0 0,3.9 0,3.9 0.1,0.1 0,0 1,0 c 0.5,0 1.2,0.1 1.4,0.1 z m -8.2,-7.9 -0.1,0 -0.1,-0.1 -0.1,0 -0.1,-0.1 0,-0.1 0,-0.1 0,-0.1 0.1,-0.1 0,-0.1 0.1,0 0.1,-0.1 0.1,0 0.1,0 0.1,0.1 0,0 0.1,0.1 0.1,0.1 0,0.1 0,0.1 -0.1,0.1 -0.1,0.1 0,0 -0.1,0.1 -0.1,0 z m 16.2,7.9 c 0.3,-0.1 1.1,-0.1 1.6,-0.1 l 1.1,0 0,0 0.1,-0.1 0,-0.1 0,-0.2 0.4,0 0.5,0 0,0.2 0,0.2 0.7,0 0.7,0 0,-0.7 0,-0.7 -0.7,0 -0.7,0 0,0.4 0,0.3 -0.6,0 -0.5,0 -0.1,0 0,0.1 0,0.2 0,0.2 -1.6,-0.1 -1.6,0 0,0.2 0,0.2 0.7,0 z m 4.4,-0.4 -0.1,0 -0.1,-0.1 -0.1,0 -0.1,-0.1 0,-0.1 0,-0.1 0,-0.1 0.1,-0.1 0,-0.1 0.1,0 0.1,-0.1 0.1,0 0.1,0 0.1,0.1 0.1,0 0,0.1 0.1,0.1 0,0.1 0,0.1 -0.1,0.1 0,0.1 -0.1,0 -0.1,0.1 -0.1,0 z m -36.33,0.3 0.67,0 0,0 0,-0.1 2.92,0 2.92,0 0,-5.8 0,-5.74 5.82,0 5.8,0 0,1.34 0,1.3 3.4,-0.1 3.4,0 0,0.3 0,0.3 0,3.3 0,3.4 0.2,0 0.1,0 0,-3.4 0,-3.4 0,-0.4 0,-0.3 -0.1,-0.1 -0.1,0 -1.6,0 -1.7,0 0,-1.6 0,-1.67 -7.9,0 -7.93,0 -0.14,0.1 -0.14,0.1 -0.1,0.14 -0.1,0.14 0,5.55 0,5.6 -2.4,0 -2.41,0 0,-0.1 0,-0.1 -0.67,0 -0.66,0 0,0.7 0,0.6 0.66,0 z m 0,-0.2 -0.1,0 -0.1,-0.1 -0.1,-0.1 -0,-0.1 -0.1,-0.1 0,0 0,-0.1 0.1,-0.1 0.1,-0.1 0.1,-0.1 0.1,0 0.1,0 0.1,0 0.1,0 0.1,0.1 0.1,0.1 0.1,0.1 0,0.1 0,0.1 -0.1,0.1 -0.1,0.1 -0.1,0 -0.1,0.1 -0.1,0 z M 35.8,21.2 c 0.7,0 1.3,0 1.5,-0.1 l 0.3,0 0,-1.1 0,-1.2 0.8,0 0.7,0 0,0.1 0,0.2 0.7,0 0.7,0 0,-0.7 0,-0.7 -0.7,0 -0.7,0 0,0.2 0,0.2 -0.9,0 -0.9,0 -0.1,0.1 -0.1,0 0,1.2 0,1.2 0,0.1 0,0.2 -1.2,0 -1.2,0 0,0.1 0,0.2 1.1,0 z m 4,-2.4 -0.1,0 -0.1,-0.1 -0.1,0 -0.1,-0.1 0,-0.1 0,-0.1 0,-0.1 0.1,-0.1 0,-0.1 0.1,0 0.1,-0.1 0.1,0 0.1,0 0.1,0.1 0.1,0 0,0.1 0.1,0.1 0,0.1 0,0.1 -0.1,0.1 0,0.1 -0.1,0.1 -0.1,0 -0.1,0 z m -4.1,1.9 1,0 0,0 0,-0.1 0,0 0.1,0 0,-1.5 0,-1.5 -0.8,0 -0.7,0 0,0.1 0,0.1 0,0 -0.1,0 0,1.3 0,1.3 -0.3,0 -0.2,0 0,0.1 0,0.2 1,0 z m 0.4,-1.6 c -0.1,0 -0.2,0 -0.2,0 l -0.1,0 -0.1,-0.1 -0.1,-0.1 0,-0.2 0,-0.2 0.1,-0.1 0.1,-0.2 0.1,0 0.1,0 0.2,0 0.1,0 0.1,0.1 0.1,0.1 0,0.1 0.1,0.1 -0.1,0.2 0,0.1 -0.1,0.1 -0.1,0.1 -0.1,0 -0.1,0 0,0 z m -7,0.7 0.2,0 0,-0.5 0,-0.4 -0.1,0 0,0 0,-3.8 0,-3.8 -0.1,0 0,-0.1 -1.3,0 -1.2,0 0,-1.89 0,-1.93 -0.1,-0.13 0,-0.14 -0.2,-0.1 -0.1,-0.1 -9.4,0 -9.39,0 -0.13,0.1 -0.14,0.1 -0.1,0.14 -0.1,0.13 0,5.32 0,5.3 -1.43,0 -1.43,0 0,-0.1 0,-0.1 -0.67,0 -0.66,0 0,0.7 0,0.6 0.66,0 0.67,0 0,0 0,-0.1 1.94,0 1.94,0 0,-5.5 0,-5.51 8.78,0 8.8,0 0,0.32 c 0,0.18 0,0.98 0,1.79 l 0.1,1.4 1.6,0 1.6,0 0,4.2 0,4.1 0.2,0 z m -25.63,-0.9 -0.1,0 -0.1,-0.1 -0.1,-0.1 -0,-0.1 -0.1,0 0,-0.1 0,-0.1 0.1,-0.1 0.1,-0.1 0.1,-0.1 0.1,0 0.1,0 0.1,0 0.1,0 0.1,0.1 0.1,0.1 0.1,0.1 0,0.1 0,0.1 -0.1,0.1 -0.1,0.1 -0.1,0 -0.1,0.1 -0.1,0 z m 26.03,0.9 0.2,0 0,-4.7 0,-4.8 -0.1,0 0,0 -0.5,-0.1 -0.5,0 0,-2.23 0,-2.27 -0.1,-0.14 -0.1,-0.13 -0.1,-0.1 -0.1,-0.1 -11.4,0 -11.34,0 -0.14,0.1 -0.14,0.1 -0.1,0.13 -0.1,0.14 0,4.9 0,4.9 -0.45,0 -0.45,0 0,-0.1 0,-0.1 -0.67,0 -0.66,0 0,0.7 0,0.7 0.66,0 0.67,0 0,-0.1 0,-0.1 0.76,0 0.75,0 0.14,-0.1 0.14,0 0.1,-0.2 0.1,-0.1 0,-4.9 0,-4.89 10.73,0 10.7,0 0.1,1.33 c 0,0.74 0,1.69 0,2.12 l 0,0.74 0.9,0 0.9,0 0,4.7 0,4.6 0.1,0 z m -26.03,-3.4 -0.1,0 -0.1,-0.1 -0.1,0 -0,-0.1 -0.1,-0.1 0,-0.1 0,-0.1 0.1,-0.1 0.1,-0.1 0.1,-0.1 0.1,0 0.1,0 0.1,0 0.1,0 0.1,0.1 0.1,0.1 0.1,0.1 0,0.1 0,0.1 -0.1,0.1 -0.1,0.1 -0.1,0 -0.1,0.1 -0.1,0 z m 26.53,3.4 0.2,0 0,-0.5 0,-0.4 0,0 0,0 0,-4.7 0,-4.62 0.1,0 0.2,0 0,-2.81 0,-2.81 0,-0.14 -0.1,-0.14 -0.2,-0.1 -0.1,-0.1 -13.3,0 -13.3,0 -0.13,0.1 -0.14,0.1 -0.1,0.14 -0.1,0.14 0,4.43 0,4.41 -0.14,0 -0.14,0 0,0.7 0,0.7 0.66,0 0.66,0 -0,-4.84 -0,-4.79 12.7,0 12.7,0 0,1.38 c 0,0.76 0,1.89 0,2.51 l 0,1.12 0.2,0 0.2,0 0,5.12 0,5.1 0.1,0 z m -26.53,-5.9 -0.1,0 -0.1,-0.1 -0.1,0 -0,-0.1 -0.1,-0.1 0,-0.1 0,-0.1 0.1,-0.1 0.1,-0.1 0.1,0 0.1,-0.1 0.1,0 0.1,0 0.1,0.1 0.1,0 0.1,0.1 0.1,0.1 0,0.1 0,0.1 -0.1,0.1 -0.1,0.1 -0.1,0 -0.1,0.1 -0.1,0 z m 28.03,5.9 0.2,0 0,-0.5 0,-0.4 -0.1,0 0,0 0,-0.2 0,-0.2 0.3,0 0.2,0 0,-0.9 0,-0.9 -0.6,0 -0.7,0 0,0.9 0,0.9 0.3,0 0.2,0 0,0.6 0,0.7 0.2,0 z m 1.5,0 0.2,0 0,-0.5 0,-0.4 -0.2,0 -0.2,0 0,0.4 0,0.5 0.2,0 z m 0.5,0 0.1,0 0,-0.5 0,-0.4 -0.1,0 -0.2,0 0,0.4 0,0.5 0.2,0 z m 0.4,0 0.2,0 0,-8.1 0,-8.03 2.5,0 2.5,0 0,0.23 0,0.23 0.7,0 0.7,0 0,-0.65 0,-0.65 -0.7,0 -0.7,0 0,0.1 0,0.11 -2.6,0 -2.6,0 -0.1,0 0,0 0,8.31 0,8.4 0.1,0 z m 5.9,-15.95 -0.1,0 -0.1,-0.1 -0.1,-0.1 -0.1,-0.1 0,-0.1 0,-0.1 0,-0.1 0.1,-0.1 0,-0.1 0.1,-0 0.1,-0.1 0.1,0 0.1,0 0.1,0.1 0.1,0 0,0.1 0.1,0.1 0,0.1 0,0.1 -0.1,0.1 0,0.1 -0.1,0 -0.1,0.1 -0.1,0 z"
     style="fill:#000000" />
</svg>
